<?xml version="1.0" encoding="utf-8"?>
<!-- Generator: Adobe Illustrator 27.4.1, SVG Export Plug-In . SVG Version: 6.00 Build 0)  -->
<svg version="1.1" id="レイヤー_1" xmlns="http://www.w3.org/2000/svg" xmlns:xlink="http://www.w3.org/1999/xlink" x="0px"
	 y="0px" viewBox="0 0 1500 100" style="enable-background:new 0 0 1500 100;" xml:space="preserve">
<style type="text/css">
	.st0{fill:#F9BF2C;}
	.st1{fill:#F5CB43;}
	.st2{fill:url(#SVGID_1_);}
	.st3{fill:url(#SVGID_00000099661379434471107350000017109210340724350140_);}
	.st4{fill:url(#SVGID_00000021810635811186803500000000863519266420634019_);}
	.st5{fill:url(#SVGID_00000152984989770484542740000014063890025281589432_);}
	.st6{fill:url(#SVGID_00000034085737287276081830000011943759241682874808_);}
	.st7{fill:#F7D66C;}
	.st8{fill:url(#SVGID_00000079443906450850740600000004944820884818976434_);}
	.st9{fill:url(#SVGID_00000106108022024776732760000005266848710601172395_);}
	.st10{fill:url(#SVGID_00000183929565765199216170000007096103286467116730_);}
	.st11{fill:url(#SVGID_00000119104313106479227780000009329853863513341326_);}
	.st12{fill:url(#SVGID_00000078002563934218098960000006789040264615060122_);}
	.st13{fill:url(#SVGID_00000035522505258853326720000016711195912761700499_);}
	.st14{fill:url(#SVGID_00000048494073677763064160000004043454223115289004_);}
	.st15{fill:url(#SVGID_00000183217732472428543570000004897867577305811896_);}
	.st16{fill:url(#SVGID_00000042017748594631615710000013418445717531654332_);}
	.st17{fill:url(#SVGID_00000150780701051171033210000011223117431105066900_);}
</style>
<g>
	<polygon class="st0" points="512.7,100 612.7,0 509.4,0 409.4,100 	"/>
	<path class="st0" d="M1120.4,100l100-100h-90.8c1,2.5,0.5,5.4-1.5,7.4c-2.7,2.7-7.1,2.7-9.8,0c-2-2-2.5-4.9-1.5-7.4h-65.2l-100,100
		H1120.4z M1097.6,18.3c2.7-2.7,7.1-2.7,9.8,0c2.7,2.7,2.7,7.1,0,9.8c-2.7,2.7-7.1,2.7-9.8,0C1094.9,25.4,1094.9,21,1097.6,18.3z
		 M1059.7,56.1l16.8-16.8c2.7-2.7,7.1-2.7,9.8,0c2.7,2.7,2.7,7.1,0,9.8l-16.8,16.8c-2.7,2.7-7.1,2.7-9.8,0v0
		C1057,63.2,1057,58.8,1059.7,56.1z M1046.8,78.8c2.7,2.7,2.7,7.1,0,9.8c-2.7,2.7-7.1,2.7-9.8,0c-2.7-2.7-2.7-7.1,0-9.8
		S1044.1,76.1,1046.8,78.8z"/>
	<polygon class="st0" points="75.5,0 0,0 0,75.5 	"/>
	<polygon class="st0" points="1450.2,100 1500,50.2 1500,0 1462.8,0 1362.8,100 	"/>
	<polygon class="st0" points="389.9,100 489.9,0 403,0 303,100 	"/>
	<polygon class="st1" points="1362.8,100 1462.8,0 1220.4,0 1120.4,100 	"/>
	<polygon class="st1" points="951.5,100 1051.5,0 983.4,0 883.4,100 	"/>
	<polygon class="st0" points="709.1,100 809.1,0 781.2,0 746.3,0 612.7,0 512.7,100 	"/>
	<linearGradient id="SVGID_1_" gradientUnits="userSpaceOnUse" x1="1513.4104" y1="50" x2="-1007.8209" y2="50">
		<stop  offset="0" style="stop-color:#FFFFFF"/>
		<stop  offset="1" style="stop-color:#F4D230"/>
		<stop  offset="1" style="stop-color:#F4D11E"/>
	</linearGradient>
	<polygon class="st2" points="709.1,100 809.1,0 781.2,0 746.3,0 612.7,0 512.7,100 	"/>
	<polygon class="st1" points="755,100 855,0 844,0 809.1,0 709.1,100 	"/>
	
		<linearGradient id="SVGID_00000065758067808392337340000000626527649102620807_" gradientUnits="userSpaceOnUse" x1="1513.4104" y1="50" x2="-1007.8209" y2="50">
		<stop  offset="0" style="stop-color:#FFFFFF"/>
		<stop  offset="1" style="stop-color:#F4D230"/>
		<stop  offset="1" style="stop-color:#F4D11E"/>
	</linearGradient>
	<polygon style="fill:url(#SVGID_00000065758067808392337340000000626527649102620807_);" points="755,100 855,0 844,0 809.1,0 
		709.1,100 	"/>
	<polygon class="st1" points="883.4,100 983.4,0 972.4,0 929,0 917.9,0 855.1,0 755.1,100 	"/>
	
		<linearGradient id="SVGID_00000142141550368692287800000009022057328246785929_" gradientUnits="userSpaceOnUse" x1="407.8829" y1="50" x2="1265.9575" y2="50">
		<stop  offset="0" style="stop-color:#FFFFFF"/>
		<stop  offset="1" style="stop-color:#F4D11E"/>
	</linearGradient>
	<polygon style="fill:url(#SVGID_00000142141550368692287800000009022057328246785929_);" points="883.4,100 983.4,0 972.4,0 929,0 
		917.9,0 855.1,0 755.1,100 	"/>
	<polygon class="st1" points="755.1,100 855.1,0 855,0 755,100 	"/>
	
		<linearGradient id="SVGID_00000054229853758217181210000009414263799607445403_" gradientUnits="userSpaceOnUse" x1="1513.4104" y1="50" x2="-1007.8209" y2="50">
		<stop  offset="0" style="stop-color:#FFFFFF"/>
		<stop  offset="1" style="stop-color:#F4D230"/>
		<stop  offset="1" style="stop-color:#F4D11E"/>
	</linearGradient>
	<polygon style="fill:url(#SVGID_00000054229853758217181210000009414263799607445403_);" points="755.1,100 855.1,0 855,0 755,100 
			"/>
	
		<linearGradient id="SVGID_00000179612007814088946260000000415019081725371822_" gradientUnits="userSpaceOnUse" x1="407.8829" y1="50" x2="1265.9575" y2="50">
		<stop  offset="0" style="stop-color:#FFFFFF"/>
		<stop  offset="1" style="stop-color:#F4D11E"/>
	</linearGradient>
	<polygon style="fill:url(#SVGID_00000179612007814088946260000000415019081725371822_);" points="755.1,100 855.1,0 855,0 755,100 
			"/>
	<polygon class="st7" points="1500,100 1500,50.2 1450.2,100 	"/>
	<polygon class="st1" points="303,100 403,0 317.9,0 217.9,100 	"/>
	<path class="st0" d="M0,100h83.9l31.8-31.8c2.7-2.7,7.1-2.7,9.8,0v0c2.7,2.7,2.7,7.1,0,9.8l-22,22h114.5l100-100H203.4l-55.8,55.8
		c-2.7,2.7-7.1,2.7-9.8,0c-2.7-2.7-2.7-7.1,0-9.8l46-46h-23.3H75.5L0,75.5V100z"/>
	
		<linearGradient id="SVGID_00000175295771194115128600000002505655215920360359_" gradientUnits="userSpaceOnUse" x1="-23974.5137" y1="50" x2="9456.6787" y2="50">
		<stop  offset="0" style="stop-color:#FFFFFF"/>
		<stop  offset="1" style="stop-color:#F4D11E"/>
	</linearGradient>
	<path style="fill:url(#SVGID_00000175295771194115128600000002505655215920360359_);" d="M0,100h83.9l31.8-31.8
		c2.7-2.7,7.1-2.7,9.8,0v0c2.7,2.7,2.7,7.1,0,9.8l-22,22h114.5l100-100H203.4l-55.8,55.8c-2.7,2.7-7.1,2.7-9.8,0
		c-2.7-2.7-2.7-7.1,0-9.8l46-46h-23.3H75.5L0,75.5V100z"/>
	<polygon class="st0" points="409.4,100 509.4,0 489.9,0 389.9,100 	"/>
	
		<linearGradient id="SVGID_00000151534837835595936420000010220086549918428088_" gradientUnits="userSpaceOnUse" x1="-1698.6406" y1="-2416.2651" x2="-468.2938" y2="-2416.2651" gradientTransform="matrix(0.7071 -0.7071 0.7071 0.7071 3127.77 788.9848)">
		<stop  offset="0" style="stop-color:#FFFFFF"/>
		<stop  offset="1" style="stop-color:#FFFFFF"/>
	</linearGradient>
	<polygon style="fill:url(#SVGID_00000151534837835595936420000010220086549918428088_);" points="409.4,100 509.4,0 489.9,0 
		389.9,100 	"/>
	<path class="st0" d="M1059.7,65.9c2.7,2.7,7.1,2.7,9.8,0l16.8-16.8c2.7-2.7,2.7-7.1,0-9.8c-2.7-2.7-7.1-2.7-9.8,0l-16.8,16.8
		C1057,58.8,1057,63.2,1059.7,65.9L1059.7,65.9z"/>
	
		<linearGradient id="SVGID_00000042002016278188176010000007795979758352596368_" gradientUnits="userSpaceOnUse" x1="-951.0392" y1="-1973.6188" x2="-913.4955" y2="-1973.6188" gradientTransform="matrix(0.7071 -0.7071 0.7071 0.7071 3127.77 788.9848)">
		<stop  offset="0" style="stop-color:#FFFFFF"/>
		<stop  offset="1" style="stop-color:#FFFFFF"/>
	</linearGradient>
	<path style="fill:url(#SVGID_00000042002016278188176010000007795979758352596368_);" d="M1059.7,65.9c2.7,2.7,7.1,2.7,9.8,0
		l16.8-16.8c2.7-2.7,2.7-7.1,0-9.8c-2.7-2.7-7.1-2.7-9.8,0l-16.8,16.8C1057,58.8,1057,63.2,1059.7,65.9L1059.7,65.9z"/>
	<path class="st0" d="M1037.1,88.6c2.7,2.7,7.1,2.7,9.8,0c2.7-2.7,2.7-7.1,0-9.8c-2.7-2.7-7.1-2.7-9.8,0S1034.4,85.9,1037.1,88.6z"
		/>
	
		<linearGradient id="SVGID_00000145050584468027987950000007173257654979132836_" gradientUnits="userSpaceOnUse" x1="-983.1284" y1="-1973.6188" x2="-969.3043" y2="-1973.6188" gradientTransform="matrix(0.7071 -0.7071 0.7071 0.7071 3127.77 788.9848)">
		<stop  offset="0" style="stop-color:#FFFFFF"/>
		<stop  offset="1" style="stop-color:#FFFFFF"/>
	</linearGradient>
	<path style="fill:url(#SVGID_00000145050584468027987950000007173257654979132836_);" d="M1037.1,88.6c2.7,2.7,7.1,2.7,9.8,0
		c2.7-2.7,2.7-7.1,0-9.8c-2.7-2.7-7.1-2.7-9.8,0S1034.4,85.9,1037.1,88.6z"/>
	<path class="st0" d="M1118.3,7.4c2.7,2.7,7.1,2.7,9.8,0c2-2,2.5-4.9,1.5-7.4h-12.9C1115.7,2.5,1116.3,5.4,1118.3,7.4z"/>
	
		<linearGradient id="SVGID_00000058588390080426982490000014727003791798694586_" gradientUnits="userSpaceOnUse" x1="-868.2841" y1="-1973.3275" x2="-854.46" y2="-1973.3275" gradientTransform="matrix(0.7071 -0.7071 0.7071 0.7071 3127.77 788.9848)">
		<stop  offset="0" style="stop-color:#FFFFFF"/>
		<stop  offset="1" style="stop-color:#FFFFFF"/>
	</linearGradient>
	<path style="fill:url(#SVGID_00000058588390080426982490000014727003791798694586_);" d="M1118.3,7.4c2.7,2.7,7.1,2.7,9.8,0
		c2-2,2.5-4.9,1.5-7.4h-12.9C1115.7,2.5,1116.3,5.4,1118.3,7.4z"/>
	<path class="st0" d="M1107.4,28.1c2.7-2.7,2.7-7.1,0-9.8c-2.7-2.7-7.1-2.7-9.8,0c-2.7,2.7-2.7,7.1,0,9.8
		C1100.3,30.8,1104.7,30.8,1107.4,28.1z"/>
	
		<linearGradient id="SVGID_00000082340671485773947200000017687772851057962917_" gradientUnits="userSpaceOnUse" x1="-897.5246" y1="-1973.6189" x2="-883.7004" y2="-1973.6189" gradientTransform="matrix(0.7071 -0.7071 0.7071 0.7071 3127.77 788.9848)">
		<stop  offset="0" style="stop-color:#FFFFFF"/>
		<stop  offset="1" style="stop-color:#FFFFFF"/>
	</linearGradient>
	<path style="fill:url(#SVGID_00000082340671485773947200000017687772851057962917_);" d="M1107.4,28.1c2.7-2.7,2.7-7.1,0-9.8
		c-2.7-2.7-7.1-2.7-9.8,0c-2.7,2.7-2.7,7.1,0,9.8C1100.3,30.8,1104.7,30.8,1107.4,28.1z"/>
	<path class="st0" d="M137.9,55.8c2.7,2.7,7.1,2.7,9.8,0L203.4,0h-19.6l-46,46C135.2,48.7,135.2,53.1,137.9,55.8z"/>
	
		<linearGradient id="SVGID_00000139977018611837169100000007533174554680547471_" gradientUnits="userSpaceOnUse" x1="-23974.5137" y1="28.8931" x2="9456.6787" y2="28.8931">
		<stop  offset="0" style="stop-color:#FFFFFF"/>
		<stop  offset="1" style="stop-color:#F4D11E"/>
	</linearGradient>
	<path style="fill:url(#SVGID_00000139977018611837169100000007533174554680547471_);" d="M137.9,55.8c2.7,2.7,7.1,2.7,9.8,0
		L203.4,0h-19.6l-46,46C135.2,48.7,135.2,53.1,137.9,55.8z"/>
	
		<linearGradient id="SVGID_00000086669714778229396220000001383773578861913260_" gradientUnits="userSpaceOnUse" x1="-1595.7046" y1="-2632.6484" x2="-1172.3317" y2="-2632.6484" gradientTransform="matrix(0.7071 -0.7071 0.7071 0.7071 3127.77 788.9848)">
		<stop  offset="0" style="stop-color:#FFFFFF"/>
		<stop  offset="1" style="stop-color:#FFFFFF"/>
	</linearGradient>
	<path style="fill:url(#SVGID_00000086669714778229396220000001383773578861913260_);" d="M137.9,55.8c2.7,2.7,7.1,2.7,9.8,0
		L203.4,0h-19.6l-46,46C135.2,48.7,135.2,53.1,137.9,55.8z"/>
	<path class="st0" d="M125.4,68.2L125.4,68.2c-2.7-2.7-7.1-2.7-9.8,0L83.9,100h19.6l22-22C128.1,75.3,128.1,70.9,125.4,68.2z"/>
	
		<linearGradient id="SVGID_00000149344061874581973040000008001124203840400774_" gradientUnits="userSpaceOnUse" x1="-23974.5137" y1="83.1024" x2="9456.6787" y2="83.1024">
		<stop  offset="0" style="stop-color:#FFFFFF"/>
		<stop  offset="1" style="stop-color:#F4D11E"/>
	</linearGradient>
	<path style="fill:url(#SVGID_00000149344061874581973040000008001124203840400774_);" d="M125.4,68.2L125.4,68.2
		c-2.7-2.7-7.1-2.7-9.8,0L83.9,100h19.6l22-22C128.1,75.3,128.1,70.9,125.4,68.2z"/>
	
		<linearGradient id="SVGID_00000069399388707564990710000008198074701474181022_" gradientUnits="userSpaceOnUse" x1="-1687.7234" y1="-2632.6484" x2="-1613.3365" y2="-2632.6484" gradientTransform="matrix(0.7071 -0.7071 0.7071 0.7071 3127.77 788.9848)">
		<stop  offset="0" style="stop-color:#FFFFFF"/>
		<stop  offset="1" style="stop-color:#FFFFFF"/>
	</linearGradient>
	<path style="fill:url(#SVGID_00000069399388707564990710000008198074701474181022_);" d="M125.4,68.2L125.4,68.2
		c-2.7-2.7-7.1-2.7-9.8,0L83.9,100h19.6l22-22C128.1,75.3,128.1,70.9,125.4,68.2z"/>
</g>
</svg>
