<?xml version="1.0" encoding="utf-8"?>
<!-- Generator: Adobe Illustrator 27.4.1, SVG Export Plug-In . SVG Version: 6.00 Build 0)  -->
<svg version="1.1" id="レイヤー_1" xmlns="http://www.w3.org/2000/svg" xmlns:xlink="http://www.w3.org/1999/xlink" x="0px"
	 y="0px" viewBox="0 0 768 168.4" style="enable-background:new 0 0 768 168.4;" xml:space="preserve">
<style type="text/css">
	.st0{fill:#F9BF2C;}
	.st1{fill:#F5CB43;}
	.st2{fill:url(#SVGID_1_);}
	.st3{fill:url(#SVGID_00000181060018645620443210000001399512377377416098_);}
	.st4{fill:url(#SVGID_00000019670325131553329510000015402175718803423362_);}
	.st5{fill:url(#SVGID_00000063599405326222787750000007832501664453005701_);}
	.st6{fill:url(#SVGID_00000176023130033762333020000008660259014930012552_);}
	.st7{fill:#F7D66C;}
	.st8{fill:url(#SVGID_00000103985632542539444960000014265265936836370355_);}
	.st9{fill:url(#SVGID_00000140698073350636240020000004065141025751804563_);}
	.st10{fill:url(#SVGID_00000008857390066489437150000008065085835284959875_);}
	.st11{fill:url(#SVGID_00000090270724037840592660000010198727046723897007_);}
	.st12{fill:url(#SVGID_00000101093272828569757230000009214191995515392645_);}
	.st13{fill:url(#SVGID_00000086665930517973457800000003942284697272066988_);}
	.st14{fill:url(#SVGID_00000124123278720397258510000017790593169958793114_);}
	.st15{fill:url(#SVGID_00000034804974464323998160000013413548647228857248_);}
	.st16{fill:url(#SVGID_00000181087099468395106100000007228606053424664732_);}
	.st17{fill:url(#SVGID_00000068660094738893620740000017988470422426986905_);}
	.st18{fill:url(#SVGID_00000007419271603069891030000007518932043328576656_);}
	.st19{fill:url(#SVGID_00000110469030745882847970000000674212513271372971_);}
	.st20{fill:url(#SVGID_00000098913744593740987550000002545194909979722919_);}
	.st21{fill:url(#SVGID_00000181087196092181062800000002455802150130774975_);}
	.st22{fill:url(#SVGID_00000127723671262338029320000012567685754404831411_);}
	.st23{fill:url(#SVGID_00000138551382799179814380000013597757202262125958_);}
	.st24{fill:url(#SVGID_00000021800163906573495050000005003267289239230876_);}
	.st25{fill:url(#SVGID_00000085934134004650472740000012526908524034415033_);}
	.st26{fill:url(#SVGID_00000098905835157475056070000017342953174842612891_);}
	.st27{fill:url(#SVGID_00000087380486487108409490000016832504540644054187_);}
	.st28{fill:url(#SVGID_00000036238887127526139940000013978156780301612469_);}
	.st29{fill:url(#SVGID_00000146468228209198214870000010504453349012512958_);}
	.st30{fill:url(#SVGID_00000169531965057428844900000009748170000795290535_);}
	.st31{fill:url(#SVGID_00000056395506701058639270000000900513038202311855_);}
	.st32{fill:url(#SVGID_00000060724943587698391310000014025259167755555470_);}
	.st33{fill:url(#SVGID_00000056408184323721458420000015966965673586837890_);}
	.st34{fill:url(#SVGID_00000169548528253948109750000003363043411377894291_);}
	.st35{fill:url(#SVGID_00000121980115285697592200000006813725659127646377_);}
	.st36{fill:url(#SVGID_00000145022366091082246020000016411808401433853073_);}
	.st37{fill:url(#SVGID_00000015356977932329325100000007259029880533930155_);}
	.st38{fill:url(#SVGID_00000016040596944049066360000002826031185188595637_);}
	.st39{fill:url(#SVGID_00000127751078682530680680000007231821727392440760_);}
	.st40{fill:url(#SVGID_00000147217809716577164570000003186152861309415309_);}
	.st41{fill:url(#SVGID_00000061451900515641670680000011021001512304619139_);}
	.st42{fill:url(#SVGID_00000174586363116314760210000006101455816131975322_);}
	.st43{fill:url(#SVGID_00000130639573558713561560000003952434588006132126_);}
	.st44{fill:url(#SVGID_00000029011778735042267610000002738130991656462465_);}
	.st45{fill:url(#SVGID_00000129892735653126945190000017121671173788966534_);}
	.st46{fill:url(#SVGID_00000019650784985224895840000002649154407061353352_);}
	.st47{fill:url(#SVGID_00000181784438564026970930000003069260800136331906_);}
	.st48{fill:url(#SVGID_00000118356624493085100060000004079202206449701782_);}
	.st49{fill:url(#SVGID_00000084491318938798223610000009250583843127448203_);}
	.st50{fill:url(#SVGID_00000082365505915694415770000011237316247688640157_);}
	.st51{fill:url(#SVGID_00000010279410996418525250000001843929661610041270_);}
	.st52{fill:url(#SVGID_00000106136559418957842590000006302750114719089809_);}
	.st53{fill:url(#SVGID_00000096021353769398044250000009005053400993994125_);}
	.st54{fill:url(#SVGID_00000079483758252133015600000015860090124418290613_);}
	.st55{fill:url(#SVGID_00000164474584763762860780000001205876625865328020_);}
	.st56{fill:url(#SVGID_00000170972299041965479460000008906062525561208451_);}
	.st57{fill:url(#SVGID_00000055697800646637166240000008030883010538513572_);}
</style>
<g>
	<polygon class="st0" points="38.7,0 0,0 0,38.7 	"/>
	<path class="st0" d="M403,168.4L518.8,52.5c1.4-1.4,3.6-1.4,5,0c1.4,1.4,1.4,3.6,0,5L413,168.4h75.6c-4.3-14.9-0.6-31.6,11.1-43.3
		L624.8,0h-46.5c0.5,1.3,0.2,2.8-0.8,3.8c-1.4,1.4-3.6,1.4-5,0c-1-1-1.3-2.5-0.8-3.8h-33.4L370,168.4H403z M562,9.4
		c1.4-1.4,3.6-1.4,5,0c1.4,1.4,1.4,3.6,0,5s-3.6,1.4-5,0C560.6,13,560.6,10.8,562,9.4z M542.6,28.7l8.6-8.6c1.4-1.4,3.6-1.4,5,0
		c1.4,1.4,1.4,3.6,0,5l-8.6,8.6c-1.4,1.4-3.6,1.4-5,0C541.2,32.4,541.2,30.1,542.6,28.7z M531,40.4c1.4-1.4,3.6-1.4,5,0
		c1.4,1.4,1.4,3.6,0,5c-1.4,1.4-3.6,1.4-5,0S529.6,41.7,531,40.4z"/>
	<polygon class="st0" points="625.3,168.4 768,25.7 768,0 748.9,0 580.6,168.4 	"/>
	<path class="st0" d="M67.6,168.4l40.1-40.1c1.4-1.4,3.6-1.4,5,0l0,0c1.4,1.4,1.4,3.6,0,5l-35.1,35.1h67.8L313.7,0h-52.9
		L116.7,144.2c-1.4,1.4-3.6,1.4-5,0v0c-1.4-1.4-1.4-3.6,0-5L250.8,0h-44.5L38,168.4H67.6z M149.7,151.6c1.4-1.4,3.6-1.4,5,0
		c1.4,1.4,1.4,3.6,0,5c-1.4,1.4-3.6,1.4-5,0C148.3,155.3,148.3,153,149.7,151.6z M139.1,162.2c1.4-1.4,3.6-1.4,5,0
		c1.4,1.4,1.4,3.6,0,5c-1.4,1.4-3.6,1.4-5,0C137.7,165.8,137.7,163.6,139.1,162.2z M172,64c1.4-1.4,3.6-1.4,5,0c1.4,1.4,1.4,3.6,0,5
		c-1.4,1.4-3.6,1.4-5,0C170.6,67.6,170.6,65.3,172,64z M161.4,74.5c1.4-1.4,3.6-1.4,5,0c1.4,1.4,1.4,3.6,0,5c-1.4,1.4-3.6,1.4-5,0
		C160,78.2,160,75.9,161.4,74.5z M150.8,85.1c1.4-1.4,3.6-1.4,5,0c1.4,1.4,1.4,3.6,0,5c-1.4,1.4-3.6,1.4-5,0
		C149.4,88.7,149.4,86.5,150.8,85.1z M131.4,104.5l8.6-8.6c1.4-1.4,3.6-1.4,5,0s1.4,3.6,0,5l-8.6,8.6c-1.4,1.4-3.6,1.4-5,0
		C130.1,108.1,130.1,105.9,131.4,104.5z M119.8,116.1c1.4-1.4,3.6-1.4,5,0c1.4,1.4,1.4,3.6,0,5c-1.4,1.4-3.6,1.4-5,0
		C118.4,119.7,118.4,117.5,119.8,116.1z"/>
	<path class="st1" d="M488.6,168.4h92L748.9,0H624.8L499.7,125.1C488,136.8,484.3,153.5,488.6,168.4z"/>
	<polygon class="st1" points="370,168.4 538.4,0 503.5,0 335.1,168.4 	"/>
	<polygon class="st0" points="245.9,168.4 414.2,0 400,0 382.1,0 313.7,0 145.3,168.4 	"/>
	<linearGradient id="SVGID_1_" gradientUnits="userSpaceOnUse" x1="774.8661" y1="84.1871" x2="-516.0043" y2="84.1871">
		<stop  offset="0" style="stop-color:#FFFFFF"/>
		<stop  offset="1" style="stop-color:#F4D230"/>
		<stop  offset="1" style="stop-color:#F4D11E"/>
	</linearGradient>
	<polygon class="st2" points="245.9,168.4 414.2,0 400,0 382.1,0 313.7,0 145.3,168.4 	"/>
	<polygon class="st1" points="269.4,168.4 437.8,0 432.1,0 414.2,0 245.9,168.4 	"/>
	
		<linearGradient id="SVGID_00000030462860210856820530000017538304874974581399_" gradientUnits="userSpaceOnUse" x1="774.8661" y1="84.1871" x2="-516.0043" y2="84.1871">
		<stop  offset="0" style="stop-color:#FFFFFF"/>
		<stop  offset="1" style="stop-color:#F4D230"/>
		<stop  offset="1" style="stop-color:#F4D11E"/>
	</linearGradient>
	<polygon style="fill:url(#SVGID_00000030462860210856820530000017538304874974581399_);" points="269.4,168.4 437.8,0 432.1,0 
		414.2,0 245.9,168.4 	"/>
	<polygon class="st1" points="335.1,168.4 503.5,0 497.9,0 475.6,0 470,0 437.8,0 269.4,168.4 	"/>
	
		<linearGradient id="SVGID_00000079457869605568303580000000338261658737793706_" gradientUnits="userSpaceOnUse" x1="208.8361" y1="84.1871" x2="648.1703" y2="84.1871">
		<stop  offset="0" style="stop-color:#FFFFFF"/>
		<stop  offset="1" style="stop-color:#F4D11E"/>
	</linearGradient>
	<polygon style="fill:url(#SVGID_00000079457869605568303580000000338261658737793706_);" points="335.1,168.4 503.5,0 497.9,0 
		475.6,0 470,0 437.8,0 269.4,168.4 	"/>
	<polygon class="st1" points="269.4,168.4 437.8,0 437.8,0 269.4,168.4 	"/>
	
		<linearGradient id="SVGID_00000181086675398344956220000016080521085034563236_" gradientUnits="userSpaceOnUse" x1="774.7048" y1="84.1871" x2="-516.1657" y2="84.1871">
		<stop  offset="0" style="stop-color:#FFFFFF"/>
		<stop  offset="1" style="stop-color:#F4D230"/>
		<stop  offset="1" style="stop-color:#F4D11E"/>
	</linearGradient>
	<polygon style="fill:url(#SVGID_00000181086675398344956220000016080521085034563236_);" points="269.4,168.4 437.8,0 437.8,0 
		269.4,168.4 	"/>
	
		<linearGradient id="SVGID_00000075874144350204097940000000479312978859767212_" gradientUnits="userSpaceOnUse" x1="208.8361" y1="84.1871" x2="648.1703" y2="84.1871">
		<stop  offset="0" style="stop-color:#FFFFFF"/>
		<stop  offset="1" style="stop-color:#F4D11E"/>
	</linearGradient>
	<polygon style="fill:url(#SVGID_00000075874144350204097940000000479312978859767212_);" points="269.4,168.4 437.8,0 437.8,0 
		269.4,168.4 	"/>
	<path class="st7" d="M672.4,168.4l85.1-85.1c2.9-2.9,6.7-4.5,10.5-4.7v-53L625.3,168.4H672.4z"/>
	<path class="st1" d="M95,80.8L7.5,168.4H38L206.3,0h-43.6L96.9,65.9C99.7,70.6,99.1,76.8,95,80.8z"/>
	<path class="st0" d="M0,141l77.6-77.6c4.8-4.8,12.6-4.8,17.4,0c0.7,0.7,1.4,1.6,1.9,2.4L162.8,0h-58.6L75.6,28.5
		c-1.4,1.4-3.6,1.4-5,0c-1.4-1.4-1.4-3.6,0-5L94.2,0H82.2H38.7L0,38.7V141z M37.3,56.9l21.9-21.9c1.4-1.4,3.6-1.4,5,0l0,0
		c1.4,1.4,1.4,3.6,0,5L42.3,61.9c-1.4,1.4-3.6,1.4-5,0S35.9,58.2,37.3,56.9z M26.7,67.5c1.4-1.4,3.6-1.4,5,0c1.4,1.4,1.4,3.6,0,5
		c-1.4,1.4-3.6,1.4-5,0C25.3,71.1,25.3,68.8,26.7,67.5z M21.1,78c1.4,1.4,1.4,3.6,0,5c-1.4,1.4-3.6,1.4-5,0c-1.4-1.4-1.4-3.6,0-5
		C17.5,76.7,19.7,76.7,21.1,78z"/>
	
		<linearGradient id="SVGID_00000109730724774709258590000011645238743655912592_" gradientUnits="userSpaceOnUse" x1="-12274.9512" y1="70.5152" x2="4841.8193" y2="70.5152">
		<stop  offset="0" style="stop-color:#FFFFFF"/>
		<stop  offset="1" style="stop-color:#F4D11E"/>
	</linearGradient>
	<path style="fill:url(#SVGID_00000109730724774709258590000011645238743655912592_);" d="M0,141l77.6-77.6c4.8-4.8,12.6-4.8,17.4,0
		c0.7,0.7,1.4,1.6,1.9,2.4L162.8,0h-58.6L75.6,28.5c-1.4,1.4-3.6,1.4-5,0c-1.4-1.4-1.4-3.6,0-5L94.2,0H82.2H38.7L0,38.7V141z
		 M37.3,56.9l21.9-21.9c1.4-1.4,3.6-1.4,5,0l0,0c1.4,1.4,1.4,3.6,0,5L42.3,61.9c-1.4,1.4-3.6,1.4-5,0S35.9,58.2,37.3,56.9z
		 M26.7,67.5c1.4-1.4,3.6-1.4,5,0c1.4,1.4,1.4,3.6,0,5c-1.4,1.4-3.6,1.4-5,0C25.3,71.1,25.3,68.8,26.7,67.5z M21.1,78
		c1.4,1.4,1.4,3.6,0,5c-1.4,1.4-3.6,1.4-5,0c-1.4-1.4-1.4-3.6,0-5C17.5,76.7,19.7,76.7,21.1,78z"/>
	<polygon class="st0" points="768,118.1 717.7,168.4 740.7,168.4 768,141 	"/>
	
		<linearGradient id="SVGID_00000059301624247580556650000001474492871428348075_" gradientUnits="userSpaceOnUse" x1="26079.6191" y1="143.2365" x2="-32522.1484" y2="143.2365">
		<stop  offset="0" style="stop-color:#FFFFFF"/>
		<stop  offset="0.7805" style="stop-color:#F4D11E"/>
	</linearGradient>
	<polygon style="fill:url(#SVGID_00000059301624247580556650000001474492871428348075_);" points="768,118.1 717.7,168.4 
		740.7,168.4 768,141 	"/>
	<polygon class="st0" points="768,168.4 768,151.1 750.7,168.4 	"/>
	
		<linearGradient id="SVGID_00000073685489493344938050000013949335462151139260_" gradientUnits="userSpaceOnUse" x1="26079.6191" y1="159.7149" x2="-32522.1484" y2="159.7149">
		<stop  offset="0" style="stop-color:#FFFFFF"/>
		<stop  offset="0.7805" style="stop-color:#F4D11E"/>
	</linearGradient>
	<polygon style="fill:url(#SVGID_00000073685489493344938050000013949335462151139260_);" points="768,168.4 768,151.1 750.7,168.4 
			"/>
	<path class="st0" d="M111.7,144.2L111.7,144.2c1.4,1.4,3.6,1.4,5,0L260.8,0h-10L111.7,139.1C110.3,140.5,110.3,142.8,111.7,144.2z"
		/>
	
		<linearGradient id="SVGID_00000174583231487884796710000001600814177680709534_" gradientUnits="userSpaceOnUse" x1="-2205.6973" y1="-1310.7278" x2="-1575.7596" y2="-1310.7278" gradientTransform="matrix(0.7071 -0.7071 0.7071 0.7071 2598.1418 -488.678)">
		<stop  offset="0" style="stop-color:#FFFFFF"/>
		<stop  offset="1" style="stop-color:#FFFFFF"/>
	</linearGradient>
	<path style="fill:url(#SVGID_00000174583231487884796710000001600814177680709534_);" d="M111.7,144.2L111.7,144.2
		c1.4,1.4,3.6,1.4,5,0L260.8,0h-10L111.7,139.1C110.3,140.5,110.3,142.8,111.7,144.2z"/>
	<path class="st0" d="M154.7,156.6c1.4-1.4,1.4-3.6,0-5c-1.4-1.4-3.6-1.4-5,0c-1.4,1.4-1.4,3.6,0,5C151,158,153.3,158,154.7,156.6z"
		/>
	
		<linearGradient id="SVGID_00000066494511533097440730000007383599732831048121_" gradientUnits="userSpaceOnUse" x1="-2187.6633" y1="-1275.0479" x2="-2180.5854" y2="-1275.0479" gradientTransform="matrix(0.7071 -0.7071 0.7071 0.7071 2598.1418 -488.678)">
		<stop  offset="0" style="stop-color:#FFFFFF"/>
		<stop  offset="1" style="stop-color:#FFFFFF"/>
	</linearGradient>
	<path style="fill:url(#SVGID_00000066494511533097440730000007383599732831048121_);" d="M154.7,156.6c1.4-1.4,1.4-3.6,0-5
		c-1.4-1.4-3.6-1.4-5,0c-1.4,1.4-1.4,3.6,0,5C151,158,153.3,158,154.7,156.6z"/>
	<path class="st0" d="M144.1,167.2c1.4-1.4,1.4-3.6,0-5c-1.4-1.4-3.6-1.4-5,0c-1.4,1.4-1.4,3.6,0,5
		C140.5,168.6,142.7,168.6,144.1,167.2z"/>
	
		<linearGradient id="SVGID_00000041280606929532700260000017497749854636425898_" gradientUnits="userSpaceOnUse" x1="-2202.6345" y1="-1275.0479" x2="-2195.5566" y2="-1275.0479" gradientTransform="matrix(0.7071 -0.7071 0.7071 0.7071 2598.1418 -488.678)">
		<stop  offset="0" style="stop-color:#FFFFFF"/>
		<stop  offset="1" style="stop-color:#FFFFFF"/>
	</linearGradient>
	<path style="fill:url(#SVGID_00000041280606929532700260000017497749854636425898_);" d="M144.1,167.2c1.4-1.4,1.4-3.6,0-5
		c-1.4-1.4-3.6-1.4-5,0c-1.4,1.4-1.4,3.6,0,5C140.5,168.6,142.7,168.6,144.1,167.2z"/>
	<path class="st0" d="M523.8,52.5c-1.4-1.4-3.6-1.4-5,0L403,168.4h10L523.8,57.5C525.2,56.2,525.2,53.9,523.8,52.5z"/>
	
		<linearGradient id="SVGID_00000176732370679622531160000013243824884596243870_" gradientUnits="userSpaceOnUse" x1="-2066.2615" y1="-1084.0929" x2="-1849.4946" y2="-1084.0929" gradientTransform="matrix(0.7071 -0.7071 0.7071 0.7071 2598.1418 -488.678)">
		<stop  offset="0" style="stop-color:#FFFFFF"/>
		<stop  offset="1" style="stop-color:#FFFFFF"/>
	</linearGradient>
	<path style="fill:url(#SVGID_00000176732370679622531160000013243824884596243870_);" d="M523.8,52.5c-1.4-1.4-3.6-1.4-5,0
		L403,168.4h10L523.8,57.5C525.2,56.2,525.2,53.9,523.8,52.5z"/>
	<path class="st0" d="M547.6,33.8l8.6-8.6c1.4-1.4,1.4-3.6,0-5c-1.4-1.4-3.6-1.4-5,0l-8.6,8.6c-1.4,1.4-1.4,3.6,0,5
		C544,35.1,546.2,35.1,547.6,33.8z"/>
	
		<linearGradient id="SVGID_00000062193713019747684290000012113346396883308467_" gradientUnits="userSpaceOnUse" x1="-1822.9253" y1="-1084.0929" x2="-1803.7031" y2="-1084.0929" gradientTransform="matrix(0.7071 -0.7071 0.7071 0.7071 2598.1418 -488.678)">
		<stop  offset="0" style="stop-color:#FFFFFF"/>
		<stop  offset="1" style="stop-color:#FFFFFF"/>
	</linearGradient>
	<path style="fill:url(#SVGID_00000062193713019747684290000012113346396883308467_);" d="M547.6,33.8l8.6-8.6c1.4-1.4,1.4-3.6,0-5
		c-1.4-1.4-3.6-1.4-5,0l-8.6,8.6c-1.4,1.4-1.4,3.6,0,5C544,35.1,546.2,35.1,547.6,33.8z"/>
	<path class="st0" d="M536,45.4c1.4-1.4,1.4-3.6,0-5c-1.4-1.4-3.6-1.4-5,0s-1.4,3.6,0,5S534.6,46.7,536,45.4z"/>
	
		<linearGradient id="SVGID_00000152947569217505853200000018438165381456493454_" gradientUnits="userSpaceOnUse" x1="-1839.355" y1="-1084.0929" x2="-1832.2771" y2="-1084.0929" gradientTransform="matrix(0.7071 -0.7071 0.7071 0.7071 2598.1418 -488.678)">
		<stop  offset="0" style="stop-color:#FFFFFF"/>
		<stop  offset="1" style="stop-color:#FFFFFF"/>
	</linearGradient>
	<path style="fill:url(#SVGID_00000152947569217505853200000018438165381456493454_);" d="M536,45.4c1.4-1.4,1.4-3.6,0-5
		c-1.4-1.4-3.6-1.4-5,0s-1.4,3.6,0,5S534.6,46.7,536,45.4z"/>
	<path class="st0" d="M572.5,3.8c1.4,1.4,3.6,1.4,5,0c1-1,1.3-2.5,0.8-3.8h-6.6C571.3,1.3,571.5,2.8,572.5,3.8z"/>
	
		<linearGradient id="SVGID_00000091000423282607565080000012163510518729084562_" gradientUnits="userSpaceOnUse" x1="-1780.5547" y1="-1083.9437" x2="-1773.4767" y2="-1083.9437" gradientTransform="matrix(0.7071 -0.7071 0.7071 0.7071 2598.1418 -488.678)">
		<stop  offset="0" style="stop-color:#FFFFFF"/>
		<stop  offset="1" style="stop-color:#FFFFFF"/>
	</linearGradient>
	<path style="fill:url(#SVGID_00000091000423282607565080000012163510518729084562_);" d="M572.5,3.8c1.4,1.4,3.6,1.4,5,0
		c1-1,1.3-2.5,0.8-3.8h-6.6C571.3,1.3,571.5,2.8,572.5,3.8z"/>
	<path class="st0" d="M567,14.4c1.4-1.4,1.4-3.6,0-5c-1.4-1.4-3.6-1.4-5,0c-1.4,1.4-1.4,3.6,0,5C563.3,15.8,565.6,15.8,567,14.4z"/>
	
		<linearGradient id="SVGID_00000010300509013716406790000003859163045949460891_" gradientUnits="userSpaceOnUse" x1="-1795.5258" y1="-1084.0929" x2="-1788.4479" y2="-1084.0929" gradientTransform="matrix(0.7071 -0.7071 0.7071 0.7071 2598.1418 -488.678)">
		<stop  offset="0" style="stop-color:#FFFFFF"/>
		<stop  offset="1" style="stop-color:#FFFFFF"/>
	</linearGradient>
	<path style="fill:url(#SVGID_00000010300509013716406790000003859163045949460891_);" d="M567,14.4c1.4-1.4,1.4-3.6,0-5
		c-1.4-1.4-3.6-1.4-5,0c-1.4,1.4-1.4,3.6,0,5C563.3,15.8,565.6,15.8,567,14.4z"/>
	<path class="st0" d="M112.7,128.3L112.7,128.3c-1.4-1.4-3.6-1.4-5,0l-40.1,40.1h10l35.1-35.1C114,131.9,114,129.7,112.7,128.3z"/>
	
		<linearGradient id="SVGID_00000144324498123342998670000010037626793109383080_" gradientUnits="userSpaceOnUse" x1="-2410.5583" y1="-1321.2548" x2="-2193.7917" y2="-1321.2548" gradientTransform="matrix(0.7071 -0.7071 0.7071 0.7071 2598.1418 -488.678)">
		<stop  offset="0" style="stop-color:#FFFFFF"/>
		<stop  offset="1" style="stop-color:#FFFFFF"/>
	</linearGradient>
	<path style="fill:url(#SVGID_00000144324498123342998670000010037626793109383080_);" d="M112.7,128.3L112.7,128.3
		c-1.4-1.4-3.6-1.4-5,0l-40.1,40.1h10l35.1-35.1C114,131.9,114,129.7,112.7,128.3z"/>
	<path class="st0" d="M136.4,109.5l8.6-8.6c1.4-1.4,1.4-3.6,0-5s-3.6-1.4-5,0l-8.6,8.6c-1.4,1.4-1.4,3.6,0,5
		C132.8,110.9,135.1,110.9,136.4,109.5z"/>
	
		<linearGradient id="SVGID_00000029041071390549842300000010409988898223210121_" gradientUnits="userSpaceOnUse" x1="-2167.2222" y1="-1321.2548" x2="-2147.9998" y2="-1321.2548" gradientTransform="matrix(0.7071 -0.7071 0.7071 0.7071 2598.1418 -488.678)">
		<stop  offset="0" style="stop-color:#FFFFFF"/>
		<stop  offset="1" style="stop-color:#FFFFFF"/>
	</linearGradient>
	<path style="fill:url(#SVGID_00000029041071390549842300000010409988898223210121_);" d="M136.4,109.5l8.6-8.6c1.4-1.4,1.4-3.6,0-5
		s-3.6-1.4-5,0l-8.6,8.6c-1.4,1.4-1.4,3.6,0,5C132.8,110.9,135.1,110.9,136.4,109.5z"/>
	<path class="st0" d="M177,69c1.4-1.4,1.4-3.6,0-5c-1.4-1.4-3.6-1.4-5,0c-1.4,1.4-1.4,3.6,0,5C173.4,70.3,175.6,70.3,177,69z"/>
	
		<linearGradient id="SVGID_00000025405944026646795800000016904015158523451290_" gradientUnits="userSpaceOnUse" x1="-2109.8804" y1="-1321.2548" x2="-2102.8025" y2="-1321.2548" gradientTransform="matrix(0.7071 -0.7071 0.7071 0.7071 2598.1418 -488.678)">
		<stop  offset="0" style="stop-color:#FFFFFF"/>
		<stop  offset="1" style="stop-color:#FFFFFF"/>
	</linearGradient>
	<path style="fill:url(#SVGID_00000025405944026646795800000016904015158523451290_);" d="M177,69c1.4-1.4,1.4-3.6,0-5
		c-1.4-1.4-3.6-1.4-5,0c-1.4,1.4-1.4,3.6,0,5C173.4,70.3,175.6,70.3,177,69z"/>
	<path class="st0" d="M124.8,121.1c1.4-1.4,1.4-3.6,0-5c-1.4-1.4-3.6-1.4-5,0c-1.4,1.4-1.4,3.6,0,5
		C121.2,122.5,123.4,122.5,124.8,121.1z"/>
	
		<linearGradient id="SVGID_00000085245281088871929460000006203773896030912445_" gradientUnits="userSpaceOnUse" x1="-2183.6519" y1="-1321.2548" x2="-2176.574" y2="-1321.2548" gradientTransform="matrix(0.7071 -0.7071 0.7071 0.7071 2598.1418 -488.678)">
		<stop  offset="0" style="stop-color:#FFFFFF"/>
		<stop  offset="1" style="stop-color:#FFFFFF"/>
	</linearGradient>
	<path style="fill:url(#SVGID_00000085245281088871929460000006203773896030912445_);" d="M124.8,121.1c1.4-1.4,1.4-3.6,0-5
		c-1.4-1.4-3.6-1.4-5,0c-1.4,1.4-1.4,3.6,0,5C121.2,122.5,123.4,122.5,124.8,121.1z"/>
	<circle class="st0" cx="163.9" cy="77" r="3.5"/>
	
		<linearGradient id="SVGID_00000054241358303904355670000018197690161653669792_" gradientUnits="userSpaceOnUse" x1="-2124.8516" y1="-1321.2548" x2="-2117.7737" y2="-1321.2548" gradientTransform="matrix(0.7071 -0.7071 0.7071 0.7071 2598.1418 -488.678)">
		<stop  offset="0" style="stop-color:#FFFFFF"/>
		<stop  offset="1" style="stop-color:#FFFFFF"/>
	</linearGradient>
	<circle style="fill:url(#SVGID_00000054241358303904355670000018197690161653669792_);" cx="163.9" cy="77" r="3.5"/>
	<path class="st0" d="M155.8,90.1c1.4-1.4,1.4-3.6,0-5c-1.4-1.4-3.6-1.4-5,0c-1.4,1.4-1.4,3.6,0,5C152.2,91.5,154.4,91.5,155.8,90.1
		z"/>
	
		<linearGradient id="SVGID_00000013907361959667783280000014516974003860998321_" gradientUnits="userSpaceOnUse" x1="-2139.8228" y1="-1321.2548" x2="-2132.7449" y2="-1321.2548" gradientTransform="matrix(0.7071 -0.7071 0.7071 0.7071 2598.1418 -488.678)">
		<stop  offset="0" style="stop-color:#FFFFFF"/>
		<stop  offset="1" style="stop-color:#FFFFFF"/>
	</linearGradient>
	<path style="fill:url(#SVGID_00000013907361959667783280000014516974003860998321_);" d="M155.8,90.1c1.4-1.4,1.4-3.6,0-5
		c-1.4-1.4-3.6-1.4-5,0c-1.4,1.4-1.4,3.6,0,5C152.2,91.5,154.4,91.5,155.8,90.1z"/>
	<path class="st0" d="M70.6,28.5c1.4,1.4,3.6,1.4,5,0L104.2,0h-10L70.6,23.5C69.2,24.9,69.2,27.2,70.6,28.5z"/>
	
		<linearGradient id="SVGID_00000181779061556434122390000009662149463670574747_" gradientUnits="userSpaceOnUse" x1="-12274.9512" y1="14.7933" x2="4841.8193" y2="14.7933">
		<stop  offset="0" style="stop-color:#FFFFFF"/>
		<stop  offset="1" style="stop-color:#F4D11E"/>
	</linearGradient>
	<path style="fill:url(#SVGID_00000181779061556434122390000009662149463670574747_);" d="M70.6,28.5c1.4,1.4,3.6,1.4,5,0L104.2,0
		h-10L70.6,23.5C69.2,24.9,69.2,27.2,70.6,28.5z"/>
	
		<linearGradient id="SVGID_00000161589597957196933280000010161111048680038037_" gradientUnits="userSpaceOnUse" x1="-2152.9939" y1="-1421.5161" x2="-1936.2271" y2="-1421.5161" gradientTransform="matrix(0.7071 -0.7071 0.7071 0.7071 2598.1418 -488.678)">
		<stop  offset="0" style="stop-color:#FFFFFF"/>
		<stop  offset="1" style="stop-color:#FFFFFF"/>
	</linearGradient>
	<path style="fill:url(#SVGID_00000161589597957196933280000010161111048680038037_);" d="M70.6,28.5c1.4,1.4,3.6,1.4,5,0L104.2,0
		h-10L70.6,23.5C69.2,24.9,69.2,27.2,70.6,28.5z"/>
	<path class="st0" d="M42.3,61.9l21.9-21.9c1.4-1.4,1.4-3.6,0-5l0,0c-1.4-1.4-3.6-1.4-5,0L37.3,56.9c-1.4,1.4-1.4,3.6,0,5
		S40.9,63.2,42.3,61.9z"/>
	
		<linearGradient id="SVGID_00000133496035357922783220000017417859423155209641_" gradientUnits="userSpaceOnUse" x1="-12274.9512" y1="48.3988" x2="4841.8193" y2="48.3988">
		<stop  offset="0" style="stop-color:#FFFFFF"/>
		<stop  offset="1" style="stop-color:#F4D11E"/>
	</linearGradient>
	<path style="fill:url(#SVGID_00000133496035357922783220000017417859423155209641_);" d="M42.3,61.9l21.9-21.9c1.4-1.4,1.4-3.6,0-5
		l0,0c-1.4-1.4-3.6-1.4-5,0L37.3,56.9c-1.4,1.4-1.4,3.6,0,5S40.9,63.2,42.3,61.9z"/>
	
		<linearGradient id="SVGID_00000128458937534453533570000005408774769274961827_" gradientUnits="userSpaceOnUse" x1="-2200.1077" y1="-1421.5161" x2="-2162.0215" y2="-1421.5161" gradientTransform="matrix(0.7071 -0.7071 0.7071 0.7071 2598.1418 -488.678)">
		<stop  offset="0" style="stop-color:#FFFFFF"/>
		<stop  offset="1" style="stop-color:#FFFFFF"/>
	</linearGradient>
	<path style="fill:url(#SVGID_00000128458937534453533570000005408774769274961827_);" d="M42.3,61.9l21.9-21.9c1.4-1.4,1.4-3.6,0-5
		l0,0c-1.4-1.4-3.6-1.4-5,0L37.3,56.9c-1.4,1.4-1.4,3.6,0,5S40.9,63.2,42.3,61.9z"/>
	<path class="st0" d="M31.7,72.5c1.4-1.4,1.4-3.6,0-5c-1.4-1.4-3.6-1.4-5,0c-1.4,1.4-1.4,3.6,0,5C28.1,73.8,30.3,73.8,31.7,72.5z"/>
	
		<linearGradient id="SVGID_00000150793070644094971110000010362901640406424233_" gradientUnits="userSpaceOnUse" x1="-12274.9512" y1="69.965" x2="4841.8193" y2="69.965">
		<stop  offset="0" style="stop-color:#FFFFFF"/>
		<stop  offset="1" style="stop-color:#F4D11E"/>
	</linearGradient>
	<path style="fill:url(#SVGID_00000150793070644094971110000010362901640406424233_);" d="M31.7,72.5c1.4-1.4,1.4-3.6,0-5
		c-1.4-1.4-3.6-1.4-5,0c-1.4,1.4-1.4,3.6,0,5C28.1,73.8,30.3,73.8,31.7,72.5z"/>
	
		<linearGradient id="SVGID_00000036249918288748554690000014250923798826235264_" gradientUnits="userSpaceOnUse" x1="-2215.103" y1="-1421.516" x2="-2208.0251" y2="-1421.516" gradientTransform="matrix(0.7071 -0.7071 0.7071 0.7071 2598.1418 -488.678)">
		<stop  offset="0" style="stop-color:#FFFFFF"/>
		<stop  offset="1" style="stop-color:#FFFFFF"/>
	</linearGradient>
	<path style="fill:url(#SVGID_00000036249918288748554690000014250923798826235264_);" d="M31.7,72.5c1.4-1.4,1.4-3.6,0-5
		c-1.4-1.4-3.6-1.4-5,0c-1.4,1.4-1.4,3.6,0,5C28.1,73.8,30.3,73.8,31.7,72.5z"/>
	<path class="st0" d="M16.1,83.1c1.4,1.4,3.6,1.4,5,0c1.4-1.4,1.4-3.6,0-5c-1.4-1.4-3.6-1.4-5,0C14.7,79.4,14.7,81.7,16.1,83.1z"/>
	
		<linearGradient id="SVGID_00000041271216311361031760000014372853984645279893_" gradientUnits="userSpaceOnUse" x1="-12274.9512" y1="80.5511" x2="4841.8193" y2="80.5511">
		<stop  offset="0" style="stop-color:#FFFFFF"/>
		<stop  offset="1" style="stop-color:#F4D11E"/>
	</linearGradient>
	<path style="fill:url(#SVGID_00000041271216311361031760000014372853984645279893_);" d="M16.1,83.1c1.4,1.4,3.6,1.4,5,0
		c1.4-1.4,1.4-3.6,0-5c-1.4-1.4-3.6-1.4-5,0C14.7,79.4,14.7,81.7,16.1,83.1z"/>
	
		<linearGradient id="SVGID_00000117670776515513972090000015094380589178607004_" gradientUnits="userSpaceOnUse" x1="-2230.0742" y1="-1421.5161" x2="-2222.9963" y2="-1421.5161" gradientTransform="matrix(0.7071 -0.7071 0.7071 0.7071 2598.1418 -488.678)">
		<stop  offset="0" style="stop-color:#FFFFFF"/>
		<stop  offset="1" style="stop-color:#FFFFFF"/>
	</linearGradient>
	<path style="fill:url(#SVGID_00000117670776515513972090000015094380589178607004_);" d="M16.1,83.1c1.4,1.4,3.6,1.4,5,0
		c1.4-1.4,1.4-3.6,0-5c-1.4-1.4-3.6-1.4-5,0C14.7,79.4,14.7,81.7,16.1,83.1z"/>
	<polygon class="st0" points="749.4,168.4 750.7,168.4 768,151.1 768,149.8 	"/>
	
		<linearGradient id="SVGID_00000078727072557117889680000001316391252008146834_" gradientUnits="userSpaceOnUse" x1="26079.6191" y1="159.0903" x2="-32522.1484" y2="159.0903">
		<stop  offset="0" style="stop-color:#FFFFFF"/>
		<stop  offset="0.7805" style="stop-color:#F4D11E"/>
	</linearGradient>
	<polygon style="fill:url(#SVGID_00000078727072557117889680000001316391252008146834_);" points="749.4,168.4 750.7,168.4 
		768,151.1 768,149.8 	"/>
	
		<linearGradient id="SVGID_00000000941377854951447630000015046335956773707700_" gradientUnits="userSpaceOnUse" x1="-1840.2738" y1="-842.1955" x2="-1720.623" y2="-842.1955" gradientTransform="matrix(0.7071 -0.7071 0.7071 0.7071 2598.1418 -488.678)">
		<stop  offset="0" style="stop-color:#FFFFFF"/>
		<stop  offset="1" style="stop-color:#FFFFFF"/>
	</linearGradient>
	<polygon style="fill:url(#SVGID_00000000941377854951447630000015046335956773707700_);" points="749.4,168.4 750.7,168.4 
		768,151.1 768,149.8 	"/>
	<polygon class="st0" points="768,149.8 768,141 740.7,168.4 749.4,168.4 	"/>
	
		<linearGradient id="SVGID_00000093145800126601629520000013047057075580743848_" gradientUnits="userSpaceOnUse" x1="26079.6191" y1="154.7101" x2="-32522.1484" y2="154.7101">
		<stop  offset="0" style="stop-color:#FFFFFF"/>
		<stop  offset="0.7805" style="stop-color:#F4D11E"/>
	</linearGradient>
	<polygon style="fill:url(#SVGID_00000093145800126601629520000013047057075580743848_);" points="768,149.8 768,141 740.7,168.4 
		749.4,168.4 	"/>
	
		<linearGradient id="SVGID_00000174571768344013170540000000595492916342132926_" gradientUnits="userSpaceOnUse" x1="-1840.2738" y1="-845.7344" x2="-1720.6227" y2="-845.7344" gradientTransform="matrix(0.7071 -0.7071 0.7071 0.7071 2598.1418 -488.678)">
		<stop  offset="0" style="stop-color:#FFFFFF"/>
		<stop  offset="1" style="stop-color:#FFFFFF"/>
	</linearGradient>
	<polygon style="fill:url(#SVGID_00000174571768344013170540000000595492916342132926_);" points="768,149.8 768,141 740.7,168.4 
		749.4,168.4 	"/>
	<path class="st1" d="M96.9,65.9L0,162.8v5.6h7.5L95,80.8C99.1,76.8,99.7,70.6,96.9,65.9z"/>
	
		<linearGradient id="SVGID_00000111191658027144479120000002359119837928872119_" gradientUnits="userSpaceOnUse" x1="100.3482" y1="117.1225" x2="-113.7935" y2="117.1225">
		<stop  offset="0" style="stop-color:#FFFFFF"/>
		<stop  offset="1" style="stop-color:#F4D11E"/>
	</linearGradient>
	<path style="fill:url(#SVGID_00000111191658027144479120000002359119837928872119_);" d="M96.9,65.9L0,162.8v5.6h7.5L95,80.8
		C99.1,76.8,99.7,70.6,96.9,65.9z"/>
	<path class="st0" d="M95,63.4c-4.8-4.8-12.6-4.8-17.4,0L0,141v21.7l96.9-96.9C96.4,65,95.8,64.2,95,63.4z"/>
	
		<linearGradient id="SVGID_00000028326542775692632220000006316788827346194321_" gradientUnits="userSpaceOnUse" x1="-12274.9512" y1="111.2988" x2="4841.8193" y2="111.2988">
		<stop  offset="0" style="stop-color:#FFFFFF"/>
		<stop  offset="1" style="stop-color:#F4D11E"/>
	</linearGradient>
	<path style="fill:url(#SVGID_00000028326542775692632220000006316788827346194321_);" d="M95,63.4c-4.8-4.8-12.6-4.8-17.4,0L0,141
		v21.7l96.9-96.9C96.4,65,95.8,64.2,95,63.4z"/>
	
		<linearGradient id="SVGID_00000102508804799690372100000010605034112389048717_" gradientUnits="userSpaceOnUse" x1="100.3482" y1="111.2988" x2="-113.7935" y2="111.2988">
		<stop  offset="0" style="stop-color:#FFFFFF"/>
		<stop  offset="1" style="stop-color:#F4D11E"/>
	</linearGradient>
	<path style="fill:url(#SVGID_00000102508804799690372100000010605034112389048717_);" d="M95,63.4c-4.8-4.8-12.6-4.8-17.4,0L0,141
		v21.7l96.9-96.9C96.4,65,95.8,64.2,95,63.4z"/>
	<path class="st7" d="M768,103.6V78.6c-3.8,0.2-7.6,1.7-10.5,4.7l-85.1,85.1h30.8L768,103.6z"/>
	
		<linearGradient id="SVGID_00000088816843018788758500000009544944335973392048_" gradientUnits="userSpaceOnUse" x1="500.7562" y1="123.5096" x2="785.301" y2="123.5096">
		<stop  offset="0" style="stop-color:#FFFFFF"/>
		<stop  offset="1" style="stop-color:#F4D11E"/>
	</linearGradient>
	<path style="fill:url(#SVGID_00000088816843018788758500000009544944335973392048_);" d="M768,103.6V78.6
		c-3.8,0.2-7.6,1.7-10.5,4.7l-85.1,85.1h30.8L768,103.6z"/>
	<polygon class="st0" points="768,103.6 703.2,168.4 717.7,168.4 768,118.1 	"/>
	
		<linearGradient id="SVGID_00000039842469663742358930000003496158866602256823_" gradientUnits="userSpaceOnUse" x1="26079.6191" y1="135.9719" x2="-32522.1484" y2="135.9719">
		<stop  offset="0" style="stop-color:#FFFFFF"/>
		<stop  offset="0.7805" style="stop-color:#F4D11E"/>
	</linearGradient>
	<polygon style="fill:url(#SVGID_00000039842469663742358930000003496158866602256823_);" points="768,103.6 703.2,168.4 
		717.7,168.4 768,118.1 	"/>
	
		<linearGradient id="SVGID_00000074426850612479961750000005817102286743735188_" gradientUnits="userSpaceOnUse" x1="500.7562" y1="135.9719" x2="785.301" y2="135.9719">
		<stop  offset="0" style="stop-color:#FFFFFF"/>
		<stop  offset="1" style="stop-color:#F4D11E"/>
	</linearGradient>
	<polygon style="fill:url(#SVGID_00000074426850612479961750000005817102286743735188_);" points="768,103.6 703.2,168.4 
		717.7,168.4 768,118.1 	"/>
</g>
</svg>
