<?xml version="1.0" encoding="utf-8"?>
<!-- Generator: Adobe Illustrator 28.0.0, SVG Export Plug-In . SVG Version: 6.00 Build 0)  -->
<svg version="1.1" id="レイヤー_1" xmlns="http://www.w3.org/2000/svg" xmlns:xlink="http://www.w3.org/1999/xlink" x="0px"
	 y="0px" viewBox="0 0 280 133.6" style="enable-background:new 0 0 280 133.6;" xml:space="preserve">
<style type="text/css">
	.st0{fill:#FFFFFF;}
	.st1{fill:#FFE058;}
	.st2{fill:#F9D08C;}
	.st3{fill:#4D4D4D;}
	.st4{fill:#80DEF0;}
	.st5{fill:#FCE5C1;}
	.st6{fill:none;}
	.st7{fill:#B2EBF6;}
	.st8{fill:#F2F2F2;}
</style>
<g>
	<g>
		<polygon class="st0" points="105.2,44.8 90.3,34.5 53.3,34.5 38.5,44.4 38.5,85.7 40.3,88.6 103.3,88.6 105.2,86.4 		"/>
		<g>
			<path class="st7" d="M73.4,65.4l18.5-11V18.6c0-2.6-2.4-4.7-5.3-4.7H60.3c-2.9,0-5.3,2.1-5.3,4.7v35.8L73.4,65.4z"/>
			<path class="st1" d="M62.8,34.8h5.4v18.1c0,0.9,0.7,1.6,1.6,1.6H77c0.9,0,1.6-0.7,1.6-1.6V34.8H84c0.7,0,1-0.9,0.5-1.4L79.7,29
				l-5.8-5.4c-0.3-0.3-0.8-0.3-1.1,0L67.1,29l-4.9,4.5C61.7,33.9,62.1,34.8,62.8,34.8z"/>
			<g>
				<path class="st3" d="M75.4,54.3h-7.2c-1.7,0-3.1-1.4-3.1-3.1V34.7h-3.9c-0.9,0-1.8-0.6-2.1-1.4s-0.1-1.9,0.6-2.5l10.6-9.8
					c0.9-0.8,2.2-0.8,3.1,0L84,30.7c0.7,0.6,0.9,1.6,0.6,2.5s-1.2,1.4-2.1,1.4h-3.9v16.6C78.5,53,77.1,54.3,75.4,54.3z M63,31.7h3.6
					c0.8,0,1.5,0.7,1.5,1.5v18.1l7.3,0.1l0.1-18.1c0-0.8,0.7-1.5,1.5-1.5h3.6l-8.8-8.1L63,31.7z"/>
				<path class="st3" d="M102.4,90.1h-61c-2.4,0-4.3-2-4.3-4.4V44.8c0-0.8,0.7-1.5,1.5-1.5S40,44,40,44.8v40.9
					c0,0.8,0.6,1.4,1.3,1.4h61c0.7,0,1.3-0.6,1.3-1.4V44.8c0-0.8,0.7-1.5,1.5-1.5s1.5,0.7,1.5,1.5v40.9
					C106.7,88.1,104.8,90.1,102.4,90.1z"/>
				<path class="st3" d="M39.7,89.6c-0.4,0-0.9-0.2-1.2-0.6c-0.5-0.7-0.4-1.6,0.3-2.1l20.5-16.1c0.7-0.5,1.6-0.4,2.1,0.3
					c0.5,0.7,0.4,1.6-0.3,2.1L40.6,89.3C40.4,89.5,40,89.6,39.7,89.6z"/>
				<path class="st3" d="M104,89.6c-0.3,0-0.7-0.1-0.9-0.3L82.6,73.2c-0.7-0.5-0.8-1.5-0.3-2.1s1.5-0.8,2.1-0.3l20.5,16.1
					c0.7,0.5,0.8,1.5,0.3,2.1C104.9,89.4,104.5,89.6,104,89.6z"/>
				<path class="st3" d="M71.8,65.3c-0.3,0-0.5-0.1-0.8-0.2L38.6,45.7c-0.7-0.4-0.9-1.3-0.5-2.1c0.4-0.7,1.3-0.9,2.1-0.5L71.8,62
					l31.7-18.9c0.7-0.4,1.6-0.2,2.1,0.5c0.4,0.7,0.2,1.6-0.5,2.1L72.6,65C72.3,65.2,72.1,65.3,71.8,65.3z"/>
				<path class="st3" d="M38.5,46.3c-0.5,0-0.9-0.2-1.2-0.6c-0.5-0.7-0.3-1.6,0.4-2.1l6.8-4.9c0.7-0.5,1.6-0.3,2.1,0.3
					c0.5,0.7,0.3,1.6-0.4,2.1L39.4,46C39.1,46.2,38.8,46.3,38.5,46.3z"/>
				<path class="st3" d="M105.2,46.3c-0.3,0-0.6-0.1-0.9-0.3l-6.8-4.9c-0.7-0.5-0.8-1.4-0.4-2.1c0.5-0.7,1.4-0.8,2.1-0.3l6.8,4.9
					c0.7,0.5,0.8,1.4,0.4,2.1C106.1,46.1,105.7,46.3,105.2,46.3z"/>
				<path class="st3" d="M90.2,53.3c-0.8,0-1.5-0.7-1.5-1.5V16.9c0-1.7-1.7-3.2-3.8-3.2H58.7c-2.1,0-3.8,1.4-3.8,3.2v34.8
					c0,0.8-0.7,1.5-1.5,1.5s-1.5-0.7-1.5-1.5V16.9c0-3.4,3.1-6.2,6.8-6.2h26.2c3.8,0,6.8,2.8,6.8,6.2v34.8
					C91.8,52.6,91.1,53.3,90.2,53.3z"/>
			</g>
		</g>
	</g>
	<g>
		<polygon class="st0" points="241.5,44.8 226.5,34.5 189.6,34.5 174.8,44.4 174.8,85.7 176.6,88.6 239.6,88.6 241.5,86.4 		"/>
		<g>
			<path class="st7" d="M209.7,65.4l18.5-11V18.6c0-2.6-2.4-4.7-5.3-4.7h-26.2c-2.9,0-5.3,2.1-5.3,4.7v35.8L209.7,65.4z"/>
			<path class="st1" d="M199.1,34.8h5.4v18.1c0,0.9,0.7,1.6,1.6,1.6h7.2c0.9,0,1.6-0.7,1.6-1.6V34.8h5.4c0.7,0,1-0.9,0.5-1.4L216,29
				l-5.8-5.4c-0.3-0.3-0.8-0.3-1.1,0l-5.8,5.4l-4.9,4.5C198,33.9,198.4,34.8,199.1,34.8z"/>
			<g>
				<path class="st3" d="M211.7,54.3h-7.2c-1.7,0-3.1-1.4-3.1-3.1V34.7h-3.9c-0.9,0-1.8-0.6-2.1-1.4s-0.1-1.9,0.6-2.5l10.6-9.8
					c0.9-0.8,2.2-0.8,3.1,0l10.6,9.8c0.7,0.6,0.9,1.6,0.6,2.5s-1.2,1.4-2.1,1.4h-3.9v16.6C214.8,53,213.4,54.3,211.7,54.3z
					 M199.3,31.7h3.6c0.8,0,1.5,0.7,1.5,1.5v18.1l7.3,0.1l0.1-18.1c0-0.8,0.7-1.5,1.5-1.5h3.6l-8.8-8.1L199.3,31.7z M207.6,23.1
					C207.6,23.1,207.6,23.1,207.6,23.1L207.6,23.1z M208.6,23.1L208.6,23.1C208.6,23.1,208.6,23.1,208.6,23.1z"/>
				<path class="st3" d="M238.6,90.1h-61c-2.4,0-4.3-2-4.3-4.4V44.8c0-0.8,0.7-1.5,1.5-1.5s1.5,0.7,1.5,1.5v40.9
					c0,0.8,0.6,1.4,1.3,1.4h61c0.7,0,1.3-0.6,1.3-1.4V44.8c0-0.8,0.7-1.5,1.5-1.5s1.5,0.7,1.5,1.5v40.9
					C243,88.1,241,90.1,238.6,90.1z"/>
				<path class="st3" d="M176,89.6c-0.4,0-0.9-0.2-1.2-0.6c-0.5-0.7-0.4-1.6,0.3-2.1l20.5-16.1c0.7-0.5,1.6-0.4,2.1,0.3
					c0.5,0.7,0.4,1.6-0.3,2.1l-20.5,16.1C176.6,89.5,176.3,89.6,176,89.6z"/>
				<path class="st3" d="M240.3,89.6c-0.3,0-0.7-0.1-0.9-0.3l-20.5-16.1c-0.7-0.5-0.8-1.5-0.3-2.1s1.5-0.8,2.1-0.3l20.5,16.1
					c0.7,0.5,0.8,1.5,0.3,2.1C241.2,89.4,240.7,89.6,240.3,89.6z"/>
				<path class="st3" d="M208.1,65.3c-0.3,0-0.5-0.1-0.8-0.2l-32.4-19.4c-0.7-0.4-0.9-1.3-0.5-2.1c0.4-0.7,1.3-0.9,2.1-0.5L208.1,62
					l31.7-18.9c0.7-0.4,1.6-0.2,2.1,0.5c0.4,0.7,0.2,1.6-0.5,2.1L208.9,65C208.6,65.2,208.4,65.3,208.1,65.3z"/>
				<path class="st3" d="M174.8,46.3c-0.5,0-0.9-0.2-1.2-0.6c-0.5-0.7-0.3-1.6,0.4-2.1l6.8-4.9c0.7-0.5,1.6-0.3,2.1,0.3
					c0.5,0.7,0.3,1.6-0.4,2.1l-6.8,4.9C175.4,46.2,175.1,46.3,174.8,46.3z"/>
				<path class="st3" d="M241.5,46.3c-0.3,0-0.6-0.1-0.9-0.3l-6.8-4.9c-0.7-0.5-0.8-1.4-0.4-2.1c0.5-0.7,1.4-0.8,2.1-0.3l6.8,4.9
					c0.7,0.5,0.8,1.4,0.4,2.1C242.4,46.1,242,46.3,241.5,46.3z"/>
				<path class="st3" d="M226.5,53.3c-0.8,0-1.5-0.7-1.5-1.5V16.9c0-1.7-1.7-3.2-3.8-3.2H195c-2.1,0-3.8,1.4-3.8,3.2v34.8
					c0,0.8-0.7,1.5-1.5,1.5s-1.5-0.7-1.5-1.5V16.9c0-3.4,3.1-6.2,6.8-6.2h26.2c3.8,0,6.8,2.8,6.8,6.2v34.8
					C228,52.6,227.4,53.3,226.5,53.3z"/>
			</g>
		</g>
	</g>
	<g>
		<polygon class="st0" points="181.7,65.4 181.7,116.7 179.3,120.1 100.4,120.1 98.3,116.5 98.3,65.4 117.6,51.8 163,51.8 		"/>
		<g>
			<path class="st7" d="M141.9,91.1L165,77.3V32.6c0-3.2-3-5.8-6.7-5.8h-32.8c-3.7,0-6.7,2.6-6.7,5.8v44.7L141.9,91.1z"/>
			<path class="st1" d="M128.7,52.9h6.8v22.6c0,1.1,0.9,2,2,2h9.1c1.1,0,2-0.9,2-2V52.9h6.8c0.9,0,1.3-1.1,0.7-1.7l-6.1-5.6
				l-7.2-6.7c-0.4-0.3-1-0.3-1.3,0l-7.2,6.7l-6.1,5.6C127.3,51.8,127.8,52.9,128.7,52.9z"/>
			<g>
				<path class="st3" d="M144.5,76.9h-9.1c-1.9,0-3.5-1.6-3.5-3.5V52.4h-5.3c-1,0-1.9-0.6-2.3-1.6c-0.4-1-0.1-2,0.6-2.7l13.3-12.3
					c0.9-0.9,2.4-0.9,3.4,0l13.3,12.3c0.8,0.7,1,1.8,0.6,2.7c-0.4,1-1.3,1.6-2.3,1.6h-5.3v21.1C147.9,75.4,146.4,76.9,144.5,76.9z
					 M128,49.4h5.5c0.8,0,1.5,0.7,1.5,1.5v22.6c0,0.3,0.2,0.5,0.5,0.5h9.1c0.3,0,0.5-0.2,0.5-0.5V50.9c0-0.8,0.7-1.5,1.5-1.5h5.5
					l-11.9-11.1L128,49.4z"/>
				<path class="st3" d="M178.1,121.6h-76.3c-2.8,0-5.1-2.3-5.1-5.1V65.4c0-0.8,0.7-1.5,1.5-1.5s1.5,0.7,1.5,1.5v51.1
					c0,1.2,0.9,2.1,2.1,2.1h76.3c1.1,0,2.1-1,2.1-2.1V65.4c0-0.8,0.7-1.5,1.5-1.5s1.5,0.7,1.5,1.5v51.1
					C183.2,119.3,180.9,121.6,178.1,121.6z"/>
				<path class="st3" d="M99.8,121c-0.4,0-0.9-0.2-1.2-0.6c-0.5-0.7-0.4-1.6,0.3-2.1l25.6-20.1c0.7-0.5,1.6-0.4,2.1,0.3
					s0.4,1.6-0.3,2.1l-25.6,20.1C100.5,120.9,100.1,121,99.8,121z"/>
				<path class="st3" d="M180.2,121c-0.3,0-0.7-0.1-0.9-0.3l-25.6-20.1c-0.7-0.5-0.8-1.5-0.3-2.1s1.5-0.8,2.1-0.3l25.6,20.1
					c0.7,0.5,0.8,1.5,0.3,2.1C181.1,120.8,180.6,121,180.2,121z"/>
				<path class="st3" d="M139.9,90.6c-0.3,0-0.5-0.1-0.8-0.2L98.6,66.2c-0.7-0.4-0.9-1.3-0.5-2.1c0.4-0.7,1.3-0.9,2.1-0.5l39.8,23.8
					l39.8-23.8c0.7-0.4,1.6-0.2,2.1,0.5c0.4,0.7,0.2,1.6-0.5,2.1l-40.5,24.2C140.5,90.5,140.2,90.6,139.9,90.6z"/>
				<path class="st3" d="M98.3,66.9c-0.5,0-0.9-0.2-1.2-0.6c-0.5-0.7-0.3-1.6,0.4-2.1l8.6-6.1c0.7-0.5,1.6-0.3,2.1,0.3
					c0.5,0.7,0.3,1.6-0.4,2.1l-8.6,6.1C98.9,66.8,98.6,66.9,98.3,66.9z"/>
				<path class="st3" d="M181.7,66.9c-0.3,0-0.6-0.1-0.9-0.3l-8.6-6.1c-0.7-0.5-0.8-1.4-0.4-2.1s1.4-0.8,2.1-0.3l8.6,6.1
					c0.7,0.5,0.8,1.4,0.4,2.1C182.6,66.7,182.2,66.9,181.7,66.9z"/>
				<path class="st3" d="M163,75.6c-0.8,0-1.5-0.7-1.5-1.5V30.6c0-2.4-2.3-4.3-5.2-4.3h-32.8c-2.9,0-5.2,1.9-5.2,4.3v43.5
					c0,0.8-0.7,1.5-1.5,1.5s-1.5-0.7-1.5-1.5V30.6c0-4,3.7-7.3,8.2-7.3h32.8c4.5,0,8.2,3.3,8.2,7.3v43.5
					C164.5,74.9,163.8,75.6,163,75.6z"/>
			</g>
		</g>
	</g>
	<rect class="st6" width="280" height="133.6"/>
</g>
</svg>
