<?xml version="1.0" encoding="utf-8"?>
<!-- Generator: Adobe Illustrator 28.0.0, SVG Export Plug-In . SVG Version: 6.00 Build 0)  -->
<svg version="1.1" id="レイヤー_1" xmlns="http://www.w3.org/2000/svg" xmlns:xlink="http://www.w3.org/1999/xlink" x="0px"
	 y="0px" viewBox="0 0 280 133.6" style="enable-background:new 0 0 280 133.6;" xml:space="preserve">
<style type="text/css">
	.st0{fill:#FFFFFF;}
	.st1{fill:#FFE058;}
	.st2{fill:#F9D08C;}
	.st3{fill:#4D4D4D;}
	.st4{fill:#80DEF0;}
	.st5{fill:#FCE5C1;}
	.st6{fill:none;}
	.st7{fill:#B2EBF6;}
	.st8{fill:#F2F2F2;}
</style>
<g>
	<path class="st2" d="M146.2,54c6.1-2.6,10.3-8.7,10.3-15.7c0-9.5-7.7-17.1-17.1-17.1c-9.5,0-17.1,7.7-17.1,17.1
		c0,7,4.2,13.1,10.3,15.7c-7.6,2.8-13,10-13,18.6V74v1.2v5.5h39.6v-5.5V74v-1.4C159.2,64,153.8,56.8,146.2,54z"/>
	<path class="st5" d="M190.9,95.1c-1.8-3.7-7.4-4.4-13.8-2.3c-6.5,2.1-14.5,5-14.5,5l-9.9,2.9c3-3.5-1.3-7.8-9.7-5.8
		c-10,2.4-25.9-1.4-31.1-1.4c-5.2,0-13.4,3.8-18.7,4.8c-5.4,1-15.6,2.1-15.6,2.1v15.1c0,0,12.7-0.5,16.5-0.4
		c19.7,0.5,36.2,16.3,60.7,6.6C179.4,112,192.8,98.8,190.9,95.1z"/>
	<g>
		<path class="st3" d="M135.3,122.8c-8.7,0-16.5-2.6-24.1-5.1c-7-2.3-13.6-4.5-20.6-4.6c-3.8-0.1-16.3,0.4-16.4,0.4
			c-0.9,0.1-1.5-0.6-1.6-1.4s0.6-1.5,1.4-1.6c0.5,0,12.7-0.5,16.6-0.4c7.5,0.2,14.6,2.5,21.5,4.8c11.6,3.8,23.7,7.8,38.7,1.9
			c24.6-9.7,36.2-22.3,35.3-24.5c-1.4-2.8-6.1-3.4-12-1.5c-6.4,2-14.4,4.9-14.5,4.9c-0.8,0.3-1.6-0.1-1.9-0.9
			c-0.3-0.8,0.1-1.6,0.9-1.9c0.1,0,8.2-2.9,14.6-5c7.5-2.4,13.5-1.2,15.6,3.1c0.5,0.9,0.4,2-0.1,3.3c-2.4,6.2-16.1,17.2-36.8,25.4
			C145.9,121.9,140.4,122.8,135.3,122.8z"/>
		<path class="st3" d="M128.4,104.7c-0.8,0-1.4-0.6-1.5-1.4c-0.1-0.8,0.6-1.5,1.4-1.6c0.1,0,11.2-0.8,17.8-4.1
			c1.9-0.9,2.9-2.2,2.5-3.2c-0.5-1.4-3.6-2.8-8.8-1.6c-7.3,1.8-17.2,0.4-24.5-0.6c-2.9-0.4-5.5-0.8-7-0.8c0,0,0,0,0,0
			c-2.9,0-6.9,1.3-10.8,2.6c-2.8,0.9-5.4,1.8-7.7,2.2c-5.4,1-15.3,2.1-15.7,2.1c-0.8,0.1-1.6-0.5-1.7-1.3s0.5-1.6,1.3-1.7
			c0.1,0,10.2-1.1,15.5-2.1c2.1-0.4,4.6-1.2,7.3-2.1c4.1-1.3,8.4-2.7,11.7-2.7c0,0,0,0,0,0c1.7,0,4.2,0.3,7.4,0.8
			c7,1,16.6,2.3,23.3,0.7c7-1.7,11.2,0.6,12.3,3.5c0.7,2,0.1,4.9-4,7c-7.1,3.6-18.4,4.4-18.9,4.4
			C128.5,104.7,128.4,104.7,128.4,104.7z"/>
	</g>
	<path class="st3" d="M156.9,71.2c-0.8,0-1.5-0.6-1.5-1.5c-0.2-7.5-4.9-14-12-16.5c-0.6-0.2-1-0.8-1-1.4c0-0.6,0.3-1.2,0.9-1.4
		c5.7-2.5,9.4-8.1,9.4-14.3c0-8.6-7-15.6-15.6-15.6c-8.6,0-15.6,7-15.6,15.6c0,6.2,3.7,11.9,9.4,14.3c0.6,0.2,0.9,0.8,0.9,1.4
		c0,0.6-0.4,1.2-1,1.4c-6.9,2.5-11.5,8.9-11.9,16.2c0,0.8-0.8,1.4-1.6,1.4c-0.8,0-1.5-0.8-1.4-1.6c0.4-7.4,4.6-14,11.1-17.5
		c-5.2-3.4-8.4-9.2-8.4-15.6c0-10.3,8.4-18.6,18.6-18.6c10.3,0,18.6,8.4,18.6,18.6c0,6.4-3.2,12.2-8.4,15.6
		c6.6,3.6,10.8,10.3,11.1,18C158.4,70.4,157.8,71.1,156.9,71.2C156.9,71.2,156.9,71.2,156.9,71.2z"/>
	<path class="st2" d="M96.2,54c6.1-2.6,10.3-8.7,10.3-15.7c0-9.5-7.7-17.1-17.1-17.1s-17.1,7.7-17.1,17.1c0,7,4.2,13.1,10.3,15.7
		c-7.6,2.8-13,10-13,18.6V74v1.2v5.5h39.6v-5.5V74v-1.4C109.2,64,103.8,56.8,96.2,54z"/>
	<path class="st3" d="M106.9,71.2c-0.8,0-1.5-0.6-1.5-1.5c-0.2-7.5-4.9-14-12-16.5c-0.6-0.2-1-0.8-1-1.4c0-0.6,0.3-1.2,0.9-1.4
		c5.7-2.5,9.4-8.1,9.4-14.3c0-8.6-7-15.6-15.6-15.6c-8.6,0-15.6,7-15.6,15.6c0,6.2,3.7,11.9,9.4,14.3c0.6,0.2,0.9,0.8,0.9,1.4
		c0,0.6-0.4,1.2-1,1.4c-6.9,2.5-11.5,8.9-11.9,16.2c0,0.8-0.8,1.4-1.6,1.4c-0.8,0-1.5-0.8-1.4-1.6c0.4-7.4,4.6-14,11.1-17.5
		c-5.2-3.4-8.4-9.2-8.4-15.6c0-10.3,8.4-18.6,18.6-18.6c10.3,0,18.6,8.4,18.6,18.6c0,6.4-3.2,12.2-8.4,15.6
		c6.6,3.6,10.8,10.3,11.1,18C108.4,70.4,107.8,71.1,106.9,71.2C106.9,71.2,106.9,71.2,106.9,71.2z"/>
	<path class="st2" d="M196.2,54c6.1-2.6,10.3-8.7,10.3-15.7c0-9.5-7.7-17.1-17.1-17.1c-9.5,0-17.1,7.7-17.1,17.1
		c0,7,4.2,13.1,10.3,15.7c-7.6,2.8-13,10-13,18.6V74v1.2v5.5h39.6v-5.5V74v-1.4C209.2,64,203.8,56.8,196.2,54z"/>
	<path class="st3" d="M206.9,71.2c-0.8,0-1.5-0.6-1.5-1.5c-0.2-7.5-4.9-14-12-16.5c-0.6-0.2-1-0.8-1-1.4c0-0.6,0.3-1.2,0.9-1.4
		c5.7-2.5,9.4-8.1,9.4-14.3c0-8.6-7-15.6-15.6-15.6s-15.6,7-15.6,15.6c0,6.2,3.7,11.9,9.4,14.3c0.6,0.2,0.9,0.8,0.9,1.4
		c0,0.6-0.4,1.2-1,1.4c-6.9,2.5-11.5,8.9-11.9,16.2c0,0.8-0.8,1.4-1.6,1.4c-0.8,0-1.5-0.8-1.4-1.6c0.4-7.4,4.6-14,11.1-17.5
		c-5.2-3.4-8.4-9.2-8.4-15.6c0-10.3,8.4-18.6,18.6-18.6s18.6,8.4,18.6,18.6c0,6.4-3.2,12.2-8.4,15.6c6.6,3.6,10.8,10.3,11.1,18
		C208.4,70.4,207.8,71.1,206.9,71.2C206.9,71.2,206.9,71.2,206.9,71.2z"/>
	<rect class="st6" width="280" height="133.6"/>
</g>
</svg>
