<?xml version="1.0" encoding="utf-8"?>
<!-- Generator: Adobe Illustrator 28.0.0, SVG Export Plug-In . SVG Version: 6.00 Build 0)  -->
<svg version="1.1" id="レイヤー_1" xmlns="http://www.w3.org/2000/svg" xmlns:xlink="http://www.w3.org/1999/xlink" x="0px"
	 y="0px" viewBox="0 0 280 133.6" style="enable-background:new 0 0 280 133.6;" xml:space="preserve">
<style type="text/css">
	.st0{fill:#FFFFFF;}
	.st1{fill:#FFE058;}
	.st2{fill:#F9D08C;}
	.st3{fill:#4D4D4D;}
	.st4{fill:#80DEF0;}
	.st5{fill:#FCE5C1;}
	.st6{fill:none;}
	.st7{fill:#B2EBF6;}
	.st8{fill:#F2F2F2;}
</style>
<g>
	<g>
		<path class="st0" d="M178.4,4.9c-16.3,0-29.5,11.3-29.5,25.2c0,4.8,1.5,9.2,4.2,13l-6.9,12.2l15-4.7c4.8,3,10.8,4.7,17.2,4.7
			c16.3,0,29.5-11.3,29.5-25.2C207.8,16.2,194.7,4.9,178.4,4.9z"/>
		<path class="st3" d="M146.2,56.8c-0.4,0-0.9-0.2-1.2-0.6c-0.4-0.5-0.4-1.1-0.1-1.7l6.5-11.3c-2.6-4-4-8.5-4-13.1
			c0-14.7,13.9-26.7,31-26.7s31,12,31,26.7s-13.9,26.7-31,26.7c-6.2,0-12.2-1.6-17.4-4.6l-14.3,4.5
			C146.5,56.7,146.4,56.8,146.2,56.8z M161.2,49c0.3,0,0.5,0.1,0.8,0.2c4.8,2.9,10.5,4.5,16.4,4.5c15.4,0,28-10.6,28-23.7
			s-12.5-23.7-28-23.7s-28,10.6-28,23.7c0,4.3,1.4,8.5,4,12.1c0.3,0.5,0.4,1.1,0.1,1.6l-5,8.8l11.3-3.6C160.9,49.1,161,49,161.2,49z
			"/>
	</g>
	<g>
		<path class="st3" d="M195.3,22.7h-33.9c-0.8,0-1.5-0.7-1.5-1.5s0.7-1.5,1.5-1.5h33.9c0.8,0,1.5,0.7,1.5,1.5S196.1,22.7,195.3,22.7
			z"/>
		<path class="st3" d="M192.8,31.7H164c-0.8,0-1.5-0.7-1.5-1.5s0.7-1.5,1.5-1.5h28.8c0.8,0,1.5,0.7,1.5,1.5S193.6,31.7,192.8,31.7z"
			/>
		<path class="st3" d="M186.7,40.6H170c-0.8,0-1.5-0.7-1.5-1.5s0.7-1.5,1.5-1.5h16.7c0.8,0,1.5,0.7,1.5,1.5S187.6,40.6,186.7,40.6z"
			/>
	</g>
	<g>
		<g>
			<path class="st7" d="M124.7,29.6c0,0,9.4-0.3,9.4,5.9v5.4c0,0,0.1,5.9-9.4,5.9"/>
			<path class="st3" d="M124.7,48.3c-0.8,0-1.5-0.7-1.5-1.5s0.7-1.5,1.5-1.5c7.6,0,7.9-4,7.9-4.4v-5.4c0-1-0.3-1.8-1-2.4
				c-1.8-1.7-5.6-2-6.9-2c-0.8,0.1-1.5-0.6-1.5-1.5s0.6-1.5,1.5-1.5c0.2,0,6-0.2,9.1,2.8c1.3,1.2,1.9,2.8,1.9,4.6v5.4
				c0,0.2,0,2.5-2,4.5C131.7,47.3,128.7,48.3,124.7,48.3z"/>
		</g>
		<g>
			<path class="st7" d="M83.2,29.6c0,0-9.4-0.3-9.4,5.9v5.4c0,0-0.1,5.9,9.4,5.9"/>
			<path class="st3" d="M83.2,48.3c-4,0-7-1-8.9-2.9c-2-2-2-4.3-2-4.5v-5.3c0-1.8,0.6-3.4,1.9-4.6c3.1-3,8.8-2.8,9.1-2.8
				c0.8,0,1.5,0.7,1.5,1.5c0,0.8-0.7,1.5-1.5,1.5l0,0c-1.3,0-5.1,0.2-6.9,2c-0.7,0.6-1,1.4-1,2.4v5.4c0,0.5,0.3,4.4,7.9,4.4
				c0.8,0,1.5,0.7,1.5,1.5S84.1,48.3,83.2,48.3z"/>
		</g>
	</g>
	<g>
		<path class="st2" d="M133.9,76.8c-5.1-13.2-19.7-15.4-19.7-15.4H104H93.7c0,0-21.4,3.1-21.4,25.2v26.5c0,0,0.4,14.2,17.3,14.2H104
			"/>
		<path class="st3" d="M104,128.8H89.6c-18.2,0-18.8-15.5-18.8-15.6l0-26.5C70.8,63.6,93.2,60,93.5,60c0.1,0,0.1,0,0.2,0h20.5
			c0.1,0,0.1,0,0.2,0c0.6,0.1,15.6,2.4,20.9,16.3c0.3,0.8-0.1,1.6-0.9,1.9c-0.8,0.3-1.6-0.1-1.9-0.9C128,65.7,115.3,63.2,114.1,63
			H93.8c-1.7,0.3-20,3.8-20,23.7v26.5c0,0.5,0.6,12.7,15.8,12.7H104c0.8,0,1.5,0.7,1.5,1.5S104.8,128.8,104,128.8z"/>
	</g>
	<path class="st3" d="M107.5,114.7h-19c-0.8,0-1.5-0.7-1.5-1.5V80.5c0-0.8,0.7-1.5,1.5-1.5s1.5,0.7,1.5,1.5v31.2h17.5
		c0.8,0,1.5,0.7,1.5,1.5S108.4,114.7,107.5,114.7z"/>
	<g>
		<path class="st8" d="M106.5,127.3c-2.2,0-3.3-1.7-2.5-3.7l16.9-43.1c0.8-2,3.3-3.7,5.5-3.7H184c2.2,0,3.3,1.7,2.5,3.7l-16.9,43.1
			c-0.8,2-3.3,3.7-5.5,3.7H106.5z"/>
		<path class="st3" d="M164.2,128.8h-57.8c-1.6,0-2.9-0.6-3.6-1.7s-0.9-2.6-0.3-4L119.4,80c1-2.6,4-4.7,6.9-4.7H184
			c1.6,0,2.9,0.6,3.6,1.7s0.9,2.6,0.3,4l-16.9,43.1C170.1,126.8,167,128.8,164.2,128.8z M126.3,78.3c-1.6,0-3.5,1.3-4.1,2.8
			l-16.9,43.1c-0.2,0.5-0.2,1,0,1.2s0.6,0.4,1.2,0.4h57.8c1.6,0,3.5-1.3,4.1-2.8L185.2,80c0.2-0.5,0.2-1,0-1.2s-0.6-0.4-1.2-0.4
			H126.3z"/>
	</g>
	<g>
		<circle class="st2" cx="104" cy="40.8" r="20.7"/>
		<path class="st3" d="M104,63C91.7,63,81.8,53,81.8,40.8c0-12.2,9.9-22.2,22.2-22.2s22.2,9.9,22.2,22.2C126.1,53,116.2,63,104,63z
			 M104,21.7c-10.6,0-19.2,8.6-19.2,19.2S93.4,60,104,60s19.2-8.6,19.2-19.2S114.5,21.7,104,21.7z"/>
	</g>
	<path class="st3" d="M124.6,42.3c-0.8,0-1.5-0.7-1.5-1.5V29.6c0-10.6-8.6-19.2-19.2-19.2S84.8,19,84.8,29.6v11.3
		c0,0.8-0.7,1.5-1.5,1.5s-1.5-0.7-1.5-1.5V29.6c0-12.2,9.9-22.2,22.2-22.2s22.2,9.9,22.2,22.2v11.3
		C126.1,41.6,125.4,42.3,124.6,42.3z"/>
	<path class="st3" d="M102.1,53.8c-3.5,0-13.4-0.5-19-6.3c-0.6-0.6-0.6-1.5,0-2.1c0.6-0.6,1.5-0.6,2.1,0c5.8,6,17.8,5.4,17.9,5.4
		c0.9,0,1.5,0.6,1.6,1.4c0,0.8-0.6,1.5-1.4,1.6C103.2,53.8,102.8,53.8,102.1,53.8z"/>
	<rect class="st6" width="280" height="133.6"/>
</g>
</svg>
