<?xml version="1.0" encoding="utf-8"?>
<!-- Generator: Adobe Illustrator 28.0.0, SVG Export Plug-In . SVG Version: 6.00 Build 0)  -->
<svg version="1.1" id="レイヤー_1" xmlns="http://www.w3.org/2000/svg" xmlns:xlink="http://www.w3.org/1999/xlink" x="0px"
	 y="0px" viewBox="0 0 280 133.6" style="enable-background:new 0 0 280 133.6;" xml:space="preserve">
<style type="text/css">
	.st0{fill:#FFFFFF;}
	.st1{fill:#FFE058;}
	.st2{fill:#F9D08C;}
	.st3{fill:#4D4D4D;}
	.st4{fill:#80DEF0;}
	.st5{fill:#FCE5C1;}
	.st6{fill:none;}
	.st7{fill:#B2EBF6;}
	.st8{fill:#F2F2F2;}
</style>
<g>
	<g>
		<rect x="88.6" y="13.6" class="st0" width="74.3" height="96.9"/>
	</g>
	<g>
		<path class="st1" d="M152.6,100.9c0.2,0.1,0.4,0.2,0.6,0.3C153,101.1,152.8,101,152.6,100.9z"/>
		<path class="st2" d="M168.8,59.4V15.1c0-3.4-2.7-6.1-6.1-6.1H88.3c-3.4,0-6.1,2.7-6.1,6.1V114c0,3.4,2.7,6.1,6.1,6.1h74.4
			c3.4,0,6.1-2.7,6.1-6.1v-4.6c-0.4-0.3-0.7-0.6-1-0.8c-3.8-2.4-7.9-4.2-12-6.1c0,0,0,0,0,0c-0.5,0.3-1,0.4-1.6,0.4H96.8
			c-1.9,0-3.4-1.5-3.4-3.4V23.3c0-1.9,1.5-3.4,3.4-3.4h57.4c1.9,0,3.4,1.5,3.4,3.4v39.1c0,0,0,0,0,0c0.1-0.1,0.3-0.2,0.4-0.3
			l0.2-0.1c2.2-1.6,6.7-0.5,9.8,4.3C166.7,63.4,166.7,60.8,168.8,59.4z"/>
	</g>
	<path class="st3" d="M125,109.8h-5.6c-0.8,0-1.5-0.7-1.5-1.5s0.7-1.5,1.5-1.5h5.6c0.8,0,1.5,0.7,1.5,1.5S125.8,109.8,125,109.8z"/>
	<path class="st3" d="M159.4,118.3H85c-4.2,0-7.6-3.4-7.6-7.6V11.8c0-4.2,3.4-7.6,7.6-7.6h74.4c4.2,0,7.6,3.4,7.6,7.6v37.6
		c0,0.8-0.7,1.5-1.5,1.5s-1.5-0.7-1.5-1.5V11.8c0-2.6-2.1-4.6-4.6-4.6H85c-2.6,0-4.6,2.1-4.6,4.6v98.9c0,2.6,2.1,4.6,4.6,4.6h74.4
		c0.6,0,1.2-0.1,1.8-0.4c0.8-0.3,1.6,0,2,0.8c0.3,0.8,0,1.6-0.8,2C161.4,118.1,160.4,118.3,159.4,118.3z"/>
	<path class="st3" d="M135.3,101.2H93.5c-2.7,0-4.9-2.2-4.9-4.9V20c0-2.7,2.2-4.9,4.9-4.9h57.4c2.7,0,4.9,2.2,4.9,4.9v32.1
		c0,0.8-0.7,1.5-1.5,1.5s-1.5-0.7-1.5-1.5V20c0-1-0.9-1.9-1.9-1.9H93.5c-1,0-1.9,0.9-1.9,1.9v76.2c0,1,0.9,1.9,1.9,1.9h41.9
		c0.8,0,1.5,0.7,1.5,1.5S136.2,101.2,135.3,101.2z"/>
	<g>
		<circle class="st1" cx="122.2" cy="58.1" r="19"/>
		<path class="st3" d="M122.2,78.7c-11.3,0-20.5-9.2-20.5-20.5s9.2-20.5,20.5-20.5c11.3,0,20.5,9.2,20.5,20.5S133.5,78.7,122.2,78.7
			z M122.2,40.6c-9.7,0-17.5,7.9-17.5,17.5s7.9,17.5,17.5,17.5c9.7,0,17.5-7.9,17.5-17.5S131.8,40.6,122.2,40.6z"/>
	</g>
	<path class="st3" d="M119.9,68.1C119.9,68.1,119.8,68.1,119.9,68.1c-1.3,0-2.4-0.5-3.3-1.4l-5.4-5.8c-1.7-1.8-1.6-4.6,0.2-6.3
		c1.8-1.7,4.6-1.6,6.3,0.2l2.3,2.5l7.4-7.4c1.7-1.7,4.6-1.7,6.3,0c1.7,1.7,1.7,4.6,0,6.3L123,66.8C122.2,67.7,121.1,68.1,119.9,68.1
		z"/>
	<path class="st4" d="M129.2,51.6l-9.3,9.3l-4.1-4.4c-0.7-0.8-1.9-0.8-2.7-0.1c-0.8,0.7-0.8,1.9-0.1,2.7l5.4,5.8
		c0.4,0.4,0.8,0.6,1.4,0.6c0,0,0,0,0,0c0.5,0,1-0.2,1.3-0.6l10.7-10.7c0.7-0.7,0.7-2,0-2.7C131.2,50.9,130,50.9,129.2,51.6z"/>
	<path class="st5" d="M201.2,106.7c-3.6-5.3-7.6-14.7-8.6-20.9c-1.3-7.9-3.7-12.6-6.5-18.9c-1.4-3.1-3.3-8.6-7.9-8.6
		c-2.4,0-5.8,1.6-3.6,6c-1-3.3-5.3-6.5-8.7-4.7c-2.4,1.4-2.5,4.1-1.1,7c-3.1-4.7-7.6-5.9-9.8-4.3l-0.2,0.1c-2.2,1.6-1.9,4.1-0.2,6.5
		c0,0,2.8,4.2,2.8,4.2c-2.8-3.5-5.9-6.9-8.8-10.3c-2.3-2.7-4.8-5.8-7.5-8.4c-2.2-2.2-6.2-5.7-9.1-3.2c-5.6,4.7,7.2,17.6,10.4,20.9
		c2.6,2.7,5.3,5.4,8,8.1c0.9,0.9,3.7,3.2,3.6,4.6c-0.1,1.8-3.4,0.7-4.5,0.5c-2.3-0.4-6.2-1.6-8.1-0.1c-4,3.3,2.3,8.9,5.3,10.7
		c5.8,3.4,12.3,5.6,18,9.3c4.7,3,17.7,20.3,19.3,24.3"/>
	<path class="st3" d="M183.8,131.2c-0.6,0-1.2-0.4-1.4-0.9c-1.5-3.8-14.3-20.9-18.7-23.6c-3-1.9-6.3-3.4-9.5-4.9
		c-2.8-1.3-5.7-2.7-8.5-4.3c-1.8-1.1-7-5-7.3-9c-0.1-1.6,0.5-3,1.8-4.1c2.1-1.7,5.6-1,8.1-0.5c0.4,0.1,0.9,0.2,1.2,0.2
		c0.2,0,0.5,0.1,0.8,0.2c0.4,0.1,1.2,0.3,1.8,0.3c-0.5-0.8-1.8-2-2.3-2.5c-0.3-0.2-0.5-0.5-0.7-0.6c-3-3-5.6-5.7-8-8.1l-0.4-0.4
		c-5.2-5.4-12.1-13.2-11.8-18.8c0.1-1.6,0.7-2.9,1.9-3.9c4.2-3.5,9.4,1.6,11.2,3.3c2.4,2.3,4.5,4.9,6.6,7.3l1,1.2
		c0.7,0.8,1.4,1.6,2.1,2.4c0.3-1.2,1-2.3,2.1-3.1l0.2-0.1c1.2-0.9,2.8-1.2,4.5-0.8c1.3,0.2,2.7,0.8,3.9,1.7c0.3-1.6,1.2-2.9,2.7-3.7
		c1.6-0.9,3.5-1,5.4-0.2c0.8,0.3,1.6,0.8,2.3,1.4c0,0,0-0.1,0.1-0.1c1.1-1.8,3.4-2.5,5.1-2.5c0,0,0.1,0,0.1,0c5.1,0,7.4,5.3,8.8,8.5
		c0.1,0.3,0.3,0.6,0.4,0.9c0.3,0.7,0.7,1.5,1,2.2c2.4,5.3,4.5,9.9,5.7,17.1c0.9,5.7,4.7,14.8,8.4,20.3c0.5,0.7,0.3,1.6-0.4,2.1
		c-0.7,0.5-1.6,0.3-2.1-0.4c-3.4-5.1-7.8-14.8-8.9-21.5c-1.1-6.7-3.1-11.2-5.4-16.3c-0.3-0.7-0.7-1.5-1-2.2c-0.1-0.3-0.3-0.6-0.4-1
		c-1.5-3.5-3.1-6.7-6.1-6.7c0,0,0,0-0.1,0c-0.9,0-2.2,0.4-2.6,1.1c-0.3,0.5-0.2,1.1,0,1.7c0.2,0.4,0.4,0.8,0.5,1.2
		c0.2,0.7-0.1,1.5-0.9,1.8c-0.7,0.3-1.6,0-1.9-0.7c-0.2-0.4-0.4-0.8-0.5-1.2c-0.7-1.3-1.9-2.4-3.3-2.9c-0.7-0.3-1.8-0.5-2.9,0
		c-1.9,1-1.3,3.3-0.5,5.1c0.3,0.7,0.1,1.6-0.6,1.9c-0.7,0.4-1.6,0.2-2-0.5c-1.5-2.3-3.5-3.9-5.5-4.2c-0.9-0.2-1.7,0-2.2,0.3
		l-0.2,0.1c-0.7,0.5-1,1-0.9,1.7c0,0.8,0.4,1.7,1.1,2.7c0,0,2.7,4.1,2.8,4.3c0.3,0.4,0.3,0.8,0.2,1.3c-0.1,0.5-0.5,0.8-1,1
		c-0.4,0.1-0.7,0.2-1-0.1c-0.2-0.1-0.4-0.2-0.6-0.4c-1.8-2.3-3.8-4.5-5.7-6.7c-1-1.2-2-2.4-3.1-3.5l-1-1.2c-2.1-2.4-4.2-4.9-6.5-7.1
		c-3.4-3.3-5.7-4.3-7.1-3.1c-0.5,0.5-0.8,1-0.8,1.8c-0.2,3.2,3.5,8.8,11,16.5l0.4,0.4c2.3,2.5,4.9,5.1,8,8.1
		c0.2,0.2,0.4,0.3,0.6,0.6c1.9,1.7,3.6,3.4,3.5,5.2c0,0.8-0.4,1.4-0.9,1.9c-1.3,1-3.3,0.5-4.7,0.2c-0.2-0.1-0.5-0.1-0.6-0.1
		c-0.4-0.1-0.8-0.2-1.3-0.3c-1.7-0.4-4.6-0.9-5.6-0.1c-0.7,0.6-0.8,1.1-0.7,1.5c0.2,2.2,3.5,5.3,5.8,6.7c2.6,1.6,5.5,2.9,8.2,4.2
		c3.3,1.5,6.7,3.1,9.8,5.1c4.9,3.1,18.1,20.7,19.9,25.1c0.3,0.8-0.1,1.6-0.8,1.9C184.1,131.1,183.9,131.2,183.8,131.2z"/>
	<rect class="st6" width="280" height="133.6"/>
</g>
</svg>
