<?xml version="1.0" encoding="utf-8"?>
<!-- Generator: Adobe Illustrator 28.0.0, SVG Export Plug-In . SVG Version: 6.00 Build 0)  -->
<svg version="1.1" id="レイヤー_1" xmlns="http://www.w3.org/2000/svg" xmlns:xlink="http://www.w3.org/1999/xlink" x="0px"
	 y="0px" viewBox="0 0 280 133.6" style="enable-background:new 0 0 280 133.6;" xml:space="preserve">
<style type="text/css">
	.st0{fill:#FFFFFF;}
	.st1{fill:#FFE058;}
	.st2{fill:#F9D08C;}
	.st3{fill:#4D4D4D;}
	.st4{fill:#80DEF0;}
	.st5{fill:#FCE5C1;}
	.st6{fill:none;}
	.st7{fill:#B2EBF6;}
	.st8{fill:#F2F2F2;}
</style>
<g>
	<circle class="st0" cx="141.3" cy="66.4" r="36.5"/>
	<g>
		<path class="st7" d="M204.9,75.3V62.7h-13.1c-0.6-4.7-1.8-9.3-3.6-13.5l11.3-6.5l-6.3-10.9l-11.4,6.6c-2.8-3.7-6.1-7.1-9.9-9.9
			l6.6-11.4l-10.9-6.3l-6.5,11.3c-4.2-1.8-8.8-3-13.5-3.6V5.4H135v13.1c-4.7,0.6-9.3,1.8-13.5,3.6L115,10.8l-10.9,6.3l6.6,11.4
			c-3.7,2.8-7.1,6.1-9.9,9.9l-11.4-6.6l-6.3,10.9l11.3,6.5c-1.8,4.2-3,8.8-3.6,13.5H77.8v12.6h13.1c0.6,4.7,1.8,9.3,3.6,13.5
			l-11.3,6.5l6.3,10.9l11.4-6.6c2.8,3.7,6.1,7.1,9.9,9.9l-6.6,11.4l10.9,6.3l6.5-11.3c4.2,1.8,8.8,3,13.5,3.6v13.1h12.6v-13.1
			c4.7-0.6,9.3-1.8,13.5-3.6l6.5,11.3l10.9-6.3l-6.6-11.4c3.7-2.8,7.1-6.1,9.9-9.9l11.4,6.6l6.3-10.9l-11.3-6.5
			c1.8-4.2,3-8.8,3.6-13.5H204.9z M141.3,93c-13.2,0-24-10.7-24-24c0-13.2,10.7-24,24-24c13.2,0,24,10.7,24,24
			C165.3,82.2,154.6,93,141.3,93z"/>
		<path class="st2" d="M161.3,66.2c0.2,0,0.4,0,0.5-0.1l10.9-10.9c0.1-0.1,0.2-0.3,0.1-0.4l-1.6-8.1c-0.1-0.4-0.6-0.5-0.8-0.3
			l-4.9,4.9c-0.1,0.1-0.3,0.2-0.5,0.1l-4.7-1c-0.2,0-0.3-0.2-0.4-0.4l-1-4.7c0-0.2,0-0.3,0.1-0.5l4.9-4.9c0.3-0.3,0.1-0.8-0.3-0.8
			l-8.1-1.6c-0.2,0-0.3,0-0.4,0.1l-10.9,10.9c-0.1,0.1-0.2,0.3-0.1,0.5l2.1,7.8l-17.1,17.1l-7.8-2.1c-0.2,0-0.4,0-0.5,0.1L110,82.8
			c-0.1,0.1-0.2,0.3-0.1,0.4l1.6,8.1c0.1,0.4,0.6,0.5,0.8,0.3l4.9-4.9c0.1-0.1,0.3-0.2,0.5-0.1l4.7,1c0.2,0,0.3,0.2,0.4,0.4l1,4.7
			c0,0.2,0,0.3-0.1,0.5l-4.9,4.9c-0.3,0.3-0.1,0.8,0.3,0.8l8.1,1.6c0.2,0,0.3,0,0.4-0.1l10.9-10.9c0.1-0.1,0.2-0.3,0.1-0.5l-2.1-7.8
			l17.1-17.1L161.3,66.2z"/>
		<g>
			<path class="st3" d="M124.5,99.3c-0.1,0-0.3,0-0.4,0l-8.1-1.5c-0.7-0.1-1.3-0.7-1.5-1.4c-0.2-0.7,0-1.5,0.5-2l4.5-4.5l-0.8-3.5
				l-3.5-0.8l-4.5,4.5c-0.5,0.5-1.3,0.7-2,0.5c-0.7-0.2-1.2-0.8-1.4-1.5l-1.5-8.1c-0.1-0.6,0.1-1.3,0.5-1.8l10.9-10.9
				c0.5-0.5,1.2-0.7,1.9-0.5l7,1.9l15.9-15.9l-1.9-7c-0.2-0.7,0-1.4,0.5-1.9l10.9-10.9c0.5-0.5,1.1-0.7,1.8-0.6l8.1,1.6
				c0.7,0.1,1.3,0.7,1.5,1.4c0.2,0.7,0,1.5-0.5,2l-4.5,4.5l0.8,3.5l3.5,0.8l4.5-4.5c0.5-0.5,1.3-0.7,2-0.5c0.7,0.2,1.2,0.8,1.4,1.5
				l1.5,8.1c0.1,0.7-0.1,1.3-0.6,1.8l-10.9,10.9c-0.5,0.5-1.2,0.7-1.9,0.5l-7-1.9L135.4,79l1.9,7c0.2,0.7,0,1.4-0.5,1.9l-10.9,10.9
				C125.5,99.1,125,99.3,124.5,99.3z M123.8,96.6C123.8,96.6,123.8,96.6,123.8,96.6L123.8,96.6z M118.4,95.2l5.7,1.1l10.1-10.1
				l-1.9-7.3c-0.1-0.5,0-1.1,0.4-1.4l17.1-17.1c0.4-0.4,0.9-0.5,1.4-0.4l7.3,1.9l10.1-10.1l-1.1-5.7l-3.5,3.5
				c-0.5,0.5-1.2,0.7-1.8,0.5l-4.7-1c-0.8-0.2-1.4-0.8-1.5-1.5l-1-4.7c-0.1-0.7,0.1-1.4,0.5-1.8l3.5-3.5l-5.7-1.1l-10.1,10.1
				l1.9,7.3c0.1,0.5,0,1.1-0.4,1.4l-17.1,17.1c-0.4,0.4-0.9,0.5-1.4,0.4l-7.3-1.9l-10.1,10.1l1.1,5.7l3.5-3.5
				c0.5-0.5,1.2-0.7,1.8-0.5l4.7,1c0.8,0.2,1.4,0.8,1.5,1.5l1,4.7c0.1,0.7-0.1,1.4-0.5,1.8L118.4,95.2z M114.6,85.5
				C114.6,85.5,114.6,85.5,114.6,85.5L114.6,85.5z M108.7,80.4L108.7,80.4C108.7,80.4,108.7,80.4,108.7,80.4z M159,62.1L159,62.1
				L159,62.1C159,62.1,159,62.1,159,62.1z M168.7,52.3C168.7,52.3,168.7,52.3,168.7,52.3L168.7,52.3z M169,51.5
				C169,51.5,169,51.5,169,51.5L169,51.5z M162.7,47.2L162.7,47.2C162.7,47.2,162.7,47.2,162.7,47.2z M142.7,47L142.7,47
				C142.7,47,142.7,47,142.7,47z M142.9,46L142.9,46C142.9,46,142.9,46,142.9,46z M157.8,42.3L157.8,42.3
				C157.8,42.3,157.8,42.3,157.8,42.3z"/>
			<path class="st3" d="M145,131.4h-12.6c-0.8,0-1.5-0.7-1.5-1.5v-11.8c-3.9-0.6-7.7-1.6-11.4-3l-5.9,10.2c-0.4,0.7-1.3,1-2,0.5
				l-10.9-6.3c-0.3-0.2-0.6-0.5-0.7-0.9s0-0.8,0.1-1.1l5.9-10.2c-3.1-2.5-5.9-5.2-8.3-8.3l-10.2,5.9c-0.7,0.4-1.6,0.2-2-0.5
				l-6.3-10.9c-0.2-0.3-0.3-0.8-0.1-1.1s0.4-0.7,0.7-0.9l10.2-5.9c-1.4-3.6-2.4-7.4-3-11.4H75.1c-0.8,0-1.5-0.7-1.5-1.5V60.1
				c0-0.8,0.7-1.5,1.5-1.5h11.8c0.6-3.9,1.6-7.7,3-11.4l-10.2-5.9c-0.3-0.2-0.6-0.5-0.7-0.9s0-0.8,0.1-1.1l6.3-10.9
				c0.2-0.3,0.5-0.6,0.9-0.7c0.4-0.1,0.8,0,1.1,0.1l10.2,5.9c2.5-3.1,5.2-5.9,8.3-8.3l-5.9-10.2c-0.2-0.3-0.3-0.8-0.1-1.1
				s0.4-0.7,0.7-0.9l10.9-6.3c0.7-0.4,1.6-0.2,2,0.5l5.9,10.2c3.6-1.4,7.4-2.4,11.4-3V2.8c0-0.8,0.7-1.5,1.5-1.5H145
				c0.8,0,1.5,0.7,1.5,1.5v11.8c3.9,0.6,7.7,1.6,11.4,3l5.9-10.2c0.2-0.3,0.5-0.6,0.9-0.7c0.4-0.1,0.8,0,1.1,0.1l10.9,6.3
				c0.3,0.2,0.6,0.5,0.7,0.9c0.1,0.4,0,0.8-0.2,1.1l-5.9,10.2c3.1,2.5,5.9,5.2,8.3,8.3l10.2-5.9c0.7-0.4,1.6-0.2,2,0.5l6.3,10.9
				c0.2,0.3,0.3,0.8,0.2,1.1c-0.1,0.4-0.4,0.7-0.7,0.9l-10.2,5.9c1.4,3.6,2.4,7.4,3,11.4h11.8c0.8,0,1.5,0.7,1.5,1.5v12.6
				c0,0.8-0.7,1.5-1.5,1.5h-11.8c-0.6,3.9-1.6,7.7-3,11.4l10.2,5.9c0.3,0.2,0.6,0.5,0.7,0.9c0.1,0.4,0,0.8-0.2,1.1l-6.3,10.9
				c-0.4,0.7-1.3,1-2,0.5L179.6,99c-2.4,3.1-5.2,5.9-8.3,8.3l5.9,10.2c0.2,0.3,0.3,0.8,0.2,1.1c-0.1,0.4-0.4,0.7-0.7,0.9l-10.9,6.3
				c-0.3,0.2-0.8,0.3-1.1,0.1c-0.4-0.1-0.7-0.4-0.9-0.7l-5.9-10.2c-3.6,1.4-7.4,2.4-11.4,3v11.8C146.5,130.7,145.8,131.4,145,131.4z
				 M133.9,128.4h9.6v-11.6c0-0.8,0.6-1.4,1.3-1.5c4.5-0.6,9-1.7,13.1-3.5c0.7-0.3,1.5,0,1.9,0.6l5.8,10l8.3-4.8l-5.8-10.1
				c-0.4-0.7-0.2-1.5,0.4-1.9c3.6-2.7,6.8-6,9.6-9.6c0.5-0.6,1.3-0.8,1.9-0.4l10.1,5.8l4.8-8.3l-10-5.8c-0.7-0.4-0.9-1.2-0.6-1.9
				c1.8-4.1,2.9-8.6,3.5-13.1c0.1-0.8,0.7-1.3,1.5-1.3h11.6v-9.6h-11.6c-0.8,0-1.4-0.6-1.5-1.3c-0.6-4.5-1.7-9-3.5-13.1
				c-0.3-0.7,0-1.5,0.6-1.9l10-5.8l-4.8-8.3L180,37c-0.7,0.4-1.5,0.2-1.9-0.4c-2.7-3.6-6-6.8-9.6-9.6c-0.6-0.5-0.8-1.3-0.4-1.9
				l5.8-10.1l-8.3-4.8l-5.8,10c-0.4,0.7-1.2,0.9-1.9,0.6c-4.1-1.8-8.5-2.9-13.1-3.5c-0.8-0.1-1.3-0.7-1.3-1.5V4.3h-9.6v11.6
				c0,0.8-0.6,1.4-1.3,1.5c-4.6,0.6-9,1.7-13.1,3.5c-0.7,0.3-1.5,0-1.9-0.6l-5.8-10l-8.3,4.8l5.8,10.1c0.4,0.7,0.2,1.5-0.4,1.9
				c-3.6,2.7-6.8,6-9.6,9.6c-0.5,0.6-1.3,0.8-1.9,0.4l-10.1-5.8l-4.8,8.3l10,5.8c0.7,0.4,0.9,1.2,0.6,1.9c-1.8,4.1-2.9,8.6-3.5,13.1
				c-0.1,0.8-0.7,1.3-1.5,1.3H76.6v9.6h11.6c0.8,0,1.4,0.6,1.5,1.3c0.6,4.6,1.7,9,3.5,13.1c0.3,0.7,0,1.5-0.6,1.9l-10,5.8l4.8,8.3
				l10.1-5.8c0.7-0.4,1.5-0.2,1.9,0.4c2.7,3.6,6,6.8,9.6,9.6c0.6,0.5,0.8,1.3,0.4,1.9l-5.8,10.1l8.3,4.8l5.8-10
				c0.4-0.7,1.2-0.9,1.9-0.6c4.1,1.8,8.5,2.9,13.1,3.5c0.8,0.1,1.3,0.7,1.3,1.5V128.4z"/>
			<g>
				<path class="st3" d="M115.7,61.2c-0.1,0-0.3,0-0.4-0.1c-0.8-0.2-1.3-1.1-1-1.9c2.4-8.3,9.1-14.9,17.3-17.3
					c0.8-0.2,1.6,0.2,1.9,1c0.2,0.8-0.2,1.6-1,1.9c-7.3,2.1-13.2,8-15.3,15.3C116.9,60.7,116.3,61.2,115.7,61.2z"/>
				<path class="st3" d="M145.4,90.9c-0.7,0-1.2-0.4-1.4-1.1c-0.2-0.8,0.2-1.6,1-1.9c7.3-2.1,13.2-8,15.3-15.3
					c0.2-0.8,1.1-1.3,1.9-1c0.8,0.2,1.3,1.1,1,1.9c-2.4,8.3-9.1,14.9-17.3,17.3C145.6,90.8,145.5,90.9,145.4,90.9z"/>
			</g>
		</g>
	</g>
	<rect class="st6" width="280" height="133.6"/>
</g>
</svg>
