<?xml version="1.0" encoding="utf-8"?>
<!-- Generator: Adobe Illustrator 28.0.0, SVG Export Plug-In . SVG Version: 6.00 Build 0)  -->
<svg version="1.1" id="レイヤー_1" xmlns="http://www.w3.org/2000/svg" xmlns:xlink="http://www.w3.org/1999/xlink" x="0px"
	 y="0px" viewBox="0 0 280 133.6" style="enable-background:new 0 0 280 133.6;" xml:space="preserve">
<style type="text/css">
	.st0{fill:#FFFFFF;}
	.st1{fill:#FFE058;}
	.st2{fill:#F9D08C;}
	.st3{fill:#4D4D4D;}
	.st4{fill:#80DEF0;}
	.st5{fill:#FCE5C1;}
	.st6{fill:none;}
	.st7{fill:#B2EBF6;}
	.st8{fill:#F2F2F2;}
</style>
<g>
	<g>
		<g>
			<path class="st0" d="M202.8,112.7c0,4.4-3.6,8-8,8H85.2c-4.4,0-8-3.6-8-8V29.2c0-4.4,3.6-8,8-8h109.7c4.4,0,8,3.6,8,8V112.7z"/>
		</g>
		<path class="st3" d="M194.8,122.2H85.2c-5.2,0-9.5-4.3-9.5-9.5V29.2c0-5.2,4.3-9.5,9.5-9.5h109.7c5.2,0,9.5,4.3,9.5,9.5v83.5
			C204.3,117.9,200.1,122.2,194.8,122.2z M85.2,22.7c-3.6,0-6.5,2.9-6.5,6.5v83.5c0,3.6,2.9,6.5,6.5,6.5h109.7
			c3.6,0,6.5-2.9,6.5-6.5V29.2c0-3.6-2.9-6.5-6.5-6.5H85.2z"/>
	</g>
	<g>
		<g>
			<g>
				<rect x="93.1" y="57.1" class="st2" width="14.2" height="14.2"/>
				<path class="st3" d="M107.4,72.8H93.1c-0.8,0-1.5-0.7-1.5-1.5V57.1c0-0.8,0.7-1.5,1.5-1.5h14.2c0.8,0,1.5,0.7,1.5,1.5v14.2
					C108.9,72.1,108.2,72.8,107.4,72.8z M94.6,69.8h11.2V58.6H94.6V69.8z"/>
			</g>
			<path class="st3" d="M133.9,72.8h-14.2c-0.8,0-1.5-0.7-1.5-1.5V57.1c0-0.8,0.7-1.5,1.5-1.5h14.2c0.8,0,1.5,0.7,1.5,1.5v14.2
				C135.4,72.1,134.7,72.8,133.9,72.8z M121.1,69.8h11.2V58.6h-11.2V69.8z"/>
			<g>
				<rect x="146.1" y="57.1" class="st7" width="14.2" height="14.2"/>
				<path class="st3" d="M160.4,72.8h-14.2c-0.8,0-1.5-0.7-1.5-1.5V57.1c0-0.8,0.7-1.5,1.5-1.5h14.2c0.8,0,1.5,0.7,1.5,1.5v14.2
					C161.9,72.1,161.2,72.8,160.4,72.8z M147.6,69.8h11.2V58.6h-11.2V69.8z"/>
			</g>
			<g>
				<rect x="172.6" y="57.1" class="st7" width="14.2" height="14.2"/>
				<path class="st3" d="M186.9,72.8h-14.2c-0.8,0-1.5-0.7-1.5-1.5V57.1c0-0.8,0.7-1.5,1.5-1.5h14.2c0.8,0,1.5,0.7,1.5,1.5v14.2
					C188.4,72.1,187.7,72.8,186.9,72.8z M174.1,69.8h11.2V58.6h-11.2V69.8z"/>
			</g>
		</g>
		<g>
			<g>
				<rect x="93.1" y="88.3" class="st2" width="14.2" height="14.2"/>
				<path class="st3" d="M107.4,104H93.1c-0.8,0-1.5-0.7-1.5-1.5V88.3c0-0.8,0.7-1.5,1.5-1.5h14.2c0.8,0,1.5,0.7,1.5,1.5v14.2
					C108.9,103.3,108.2,104,107.4,104z M94.6,101h11.2V89.8H94.6V101z"/>
			</g>
			<g>
				<rect x="119.6" y="88.3" class="st1" width="14.2" height="14.2"/>
				<path class="st3" d="M133.9,104h-14.2c-0.8,0-1.5-0.7-1.5-1.5V88.3c0-0.8,0.7-1.5,1.5-1.5h14.2c0.8,0,1.5,0.7,1.5,1.5v14.2
					C135.4,103.3,134.7,104,133.9,104z M121.1,101h11.2V89.8h-11.2V101z"/>
			</g>
			<path class="st3" d="M160.4,104h-14.2c-0.8,0-1.5-0.7-1.5-1.5V88.3c0-0.8,0.7-1.5,1.5-1.5h14.2c0.8,0,1.5,0.7,1.5,1.5v14.2
				C161.9,103.3,161.2,104,160.4,104z M147.6,101h11.2V89.8h-11.2V101z"/>
		</g>
	</g>
	<g>
		<path class="st2" d="M194.8,21.2H85.2c-4.4,0-8,3.6-8,8V30v0.8v8h8H93H187h7.9h8v-8V30v-0.8C202.8,24.8,199.2,21.2,194.8,21.2z"/>
		<path class="st3" d="M202.8,40.4H77.2c-0.8,0-1.5-0.7-1.5-1.5v-9.7c0-5.2,4.3-9.5,9.5-9.5h109.7c5.2,0,9.5,4.3,9.5,9.5v9.7
			C204.3,39.7,203.7,40.4,202.8,40.4z M78.7,37.4h122.7v-8.2c0-3.6-2.9-6.5-6.5-6.5H85.2c-3.6,0-6.5,2.9-6.5,6.5V37.4z"/>
	</g>
	<g>
		<path class="st3" d="M103.4,29.3c-0.8,0-1.5-0.7-1.5-1.5V14.7c0-0.8,0.7-1.5,1.5-1.5s1.5,0.7,1.5,1.5v13.1
			C104.9,28.6,104.2,29.3,103.4,29.3z"/>
		<path class="st3" d="M176.6,29.3c-0.8,0-1.5-0.7-1.5-1.5V14.7c0-0.8,0.7-1.5,1.5-1.5s1.5,0.7,1.5,1.5v13.1
			C178.1,28.6,177.4,29.3,176.6,29.3z"/>
	</g>
	<rect class="st6" width="280" height="133.6"/>
</g>
</svg>
