<?xml version="1.0" encoding="utf-8"?>
<!-- Generator: Adobe Illustrator 28.0.0, SVG Export Plug-In . SVG Version: 6.00 Build 0)  -->
<svg version="1.1" id="レイヤー_1" xmlns="http://www.w3.org/2000/svg" xmlns:xlink="http://www.w3.org/1999/xlink" x="0px"
	 y="0px" viewBox="0 0 367.8 199.5" style="enable-background:new 0 0 367.8 199.5;" xml:space="preserve">
<style type="text/css">
	.st0{clip-path:url(#SVGID_00000085212376838546809510000006402881577920234145_);}
	.st1{clip-path:url(#SVGID_00000002369165360400136330000003043804649389572484_);}
	.st2{clip-path:url(#SVGID_00000085212376838546809510000006402881577920234145_);fill:#F7C066;}
	.st3{fill:#2E384D;}
	.st4{fill:#59C2E1;}
	.st5{fill:#E6E6E6;}
	.st6{fill:#9CDBED;}
	.st7{fill:#FFFFFF;}
	.st8{fill:#F29600;}
	.st9{fill:#796A56;}
	.st10{fill:none;stroke:#9BDAED;stroke-width:2.0649;stroke-linecap:round;stroke-linejoin:round;stroke-miterlimit:10;}
	.st11{fill:none;stroke:#999999;stroke-width:4.3471;stroke-linecap:round;stroke-linejoin:round;stroke-miterlimit:10;}
	.st12{fill:none;}
	.st13{fill:#FF0000;}
	.st14{fill:none;stroke:#FF0000;stroke-width:10;stroke-miterlimit:10;}
	.st15{clip-path:url(#SVGID_00000121962796827696482050000014395461643776605841_);fill:#FFFFFF;}
	.st16{clip-path:url(#SVGID_00000101785509398622928570000004813023979292364460_);}
	.st17{clip-path:url(#SVGID_00000111897804380956161440000018182228627595157635_);fill:#FFFFFF;}
	.st18{clip-path:url(#SVGID_00000111897804380956161440000018182228627595157635_);}
	.st19{opacity:0.85;}
	.st20{fill:#5596E2;}
	.st21{clip-path:url(#SVGID_00000122700029585911968870000000036951194310604436_);}
	.st22{clip-path:url(#SVGID_00000031926038180462012780000010980933764256353164_);fill:#FFFFFF;}
	.st23{clip-path:url(#SVGID_00000031926038180462012780000010980933764256353164_);}
	.st24{fill:none;stroke:#FF0000;stroke-width:4;stroke-linecap:round;stroke-linejoin:round;stroke-miterlimit:10;}
	.st25{opacity:5.000000e-02;}
	.st26{fill:#9BDAED;}
	.st27{fill:#DEB253;}
	.st28{fill:#DB3A09;}
	.st29{fill:#DCC58C;}
	.st30{fill:#77A581;}
	.st31{fill:#A5AAAD;}
	.st32{fill:#9F863F;}
	.st33{fill:#F6E0A2;}
	.st34{fill:#F26E64;}
</style>
<g>
	<g>
		<defs>
			<rect id="SVGID_00000085959720344071425210000006577417589879545728_" x="-1066.8" y="0" width="810" height="497.6"/>
		</defs>
		<use xlink:href="#SVGID_00000085959720344071425210000006577417589879545728_"  style="overflow:visible;fill:#FFFFFF;"/>
		<clipPath id="SVGID_00000034073540825143207090000001949900040540471168_">
			<use xlink:href="#SVGID_00000085959720344071425210000006577417589879545728_"  style="overflow:visible;"/>
		</clipPath>
		<g style="clip-path:url(#SVGID_00000034073540825143207090000001949900040540471168_);">
			<defs>
				<rect id="SVGID_00000052078497079342323510000016293984486181209527_" x="-1184.8" y="-837.6" width="1491.1" height="2114.5"/>
			</defs>
			<clipPath id="SVGID_00000126319873145724480790000017063328292444770980_">
				<use xlink:href="#SVGID_00000052078497079342323510000016293984486181209527_"  style="overflow:visible;"/>
			</clipPath>
			<g style="clip-path:url(#SVGID_00000126319873145724480790000017063328292444770980_);">
				
					<image style="overflow:visible;" width="3424" height="4344" xlink:href="YOYAKUMA/---WEBグラフィック/screencapture-e86244f07b8e453b924f805d432e33cc-vfs-cloud9-ap-northeast-1-amazonaws-reservepages-step2-2023-10-14-11_11_27.png"  transform="matrix(0.5886 0 0 0.5886 -1446.8953 -950.2538)">
				</image>
			</g>
		</g>
	</g>
</g>
<g>
	<g>
		<g>
			<path class="st4" d="M221.1,69.9c-1.8-3.4-3.9-6.3-6.3-8.8c1.3-1.5,2.4-3.3,2.9-5.4c1.7-6.7-2.4-13.5-9.1-15.2
				c-6.7-1.7-13.5,2.4-15.2,9.1c-0.1,0.2-0.1,0.4-0.1,0.7c-14.1-2.4-27.7,1.6-29.5,2.1c-1.8,0.4-13.1,3.9-21.8,11.9
				c-0.9-0.6-1.9-1.1-3-1.4c-4.9-1.2-10,1.9-11.2,6.9c-1.1,4.3,1,8.7,4.7,10.6c-0.7,3.7-0.7,7.9,0.4,12.4
				c6.9,28.9,47.7,23.2,47.7,23.2C186.2,117.7,236.7,99.6,221.1,69.9z"/>
			<g>
				<path class="st7" d="M162.7,68.7c0,0,0.8,8.9-2.2,17.5s2,12.8,5.2,11.8s4.4-2.5,4.6-4.2c0.2-1.7,1.1-2.1,3.9-0.4
					c2.8,1.7,3.6,2.1,7.6,1.3c4-0.8,5.2-10.6-0.2-14.1c-5.5-3.5-12-8.3-14-12.4S162.7,64.1,162.7,68.7z"/>
				<path class="st8" d="M161.9,77.6l9-2.5c0,0,4.9-1.4,2.2,4.7s-4.1,7.1-5.8,5.9c-1.7-1.2-4.8-4.6-4.8-4.6S159.3,78.5,161.9,77.6z"
					/>
				<path class="st9" d="M178.1,68.5c0,0-2.3,0.5-3.2,1.8c-0.9,1.3-0.5,2.6,0.5,1.9c1.1-0.7,2.2-2.5,5.4-1.9s2.7-1.3,1.5-1.8
					C181.2,68,179.5,68.2,178.1,68.5z"/>
				<path class="st9" d="M152.7,78c0,0,1.1-0.6,1.9-1.4s1.2-0.8,3.1-0.4c1.9,0.4,2-1.1,0.6-1.7c-1.4-0.6-3.5-0.8-5.2,0.7
					S151.2,77.9,152.7,78z"/>
			</g>
			<path class="st4" d="M225.5,159.2c0,0,11-6.5,7.2-14c-3.8-7.5-12.3-4.2-12.3-4.2L225.5,159.2z"/>
			<path class="st25" d="M225.5,159.2c0,0,11-6.5,7.2-14c-3.8-7.5-12.3-4.2-12.3-4.2L225.5,159.2z"/>
			<path class="st4" d="M233.5,171.1c-9.2-13.2-13.2-50.5-13.2-50.5s6.3-5.6,12.8-24.2c1-2.9,1.9-5.8,2.8-8.7
				c0.6-2.1,1.2-4.1,1.7-6.1c3.3-12.7,4.5-23,3.1-24.3c-1.9-1.9-3.5-1.3-3.5-1.3s-0.1-3.4-3.1-4.3c-2.9-0.9-4.6,0.8-4.6,0.8
				c-5.9-2.5-8.5,8-12,24.1c0,0.1,0,0.2-0.1,0.3c-0.5,2.1-1,4.1-1.5,5.9c-3.6,12-8.8,17.1-8.8,17.1s-40.5,4.4-50.2,12.3
				c-5,4.1-9.3,6.3-13.7,7.6c-1.7,0.5-3.4,0.8-5.2,1c-2.7,0.3-5.5,0.3-8.7,0.2c-10.8-0.3-15.6,2.1-15.7,9c-0.1,6.9,5.5,9.1,16.8,9.6
				c3.3,0.1,6.7-0.2,10-0.6c1.9-0.3,3.8-0.6,5.5-1c5.7-1.2,9.9-2.6,9.9-2.6c-0.6,14.5,5.7,27.4,5.7,27.4l-12.8,27.5
				c7,11.7,18.6,9,18.6,9l11.5-25.3c14.3,6.1,28.6-4.4,28.6-4.4c4.8,14.1,20.2,28.8,20.2,28.8c14.4-1.4,15-14.1,15-14.1
				S242.7,184.3,233.5,171.1z"/>
			<path class="st6" d="M209.9,47.8c-5.1-4-10.1,0.9-12.2,3.5c4.7,1.3,9.3,3.3,13.5,6.6C212.8,55,213.8,50.9,209.9,47.8z"/>
			<path class="st6" d="M133.7,68.3c-2.6,2.7-1,5.9,0.1,7.5c1.2-3,2.9-5.6,4.8-8C137.1,67,135.2,66.7,133.7,68.3z"/>
			<path class="st26" d="M209,125.6c-0.3,0-0.5-0.2-0.5-0.5c0-0.3,0.2-0.5,0.5-0.5h0c0,0,0,0,0,0c16.7,0,24.7-32,24.7-32.3
				c0.1-0.3,0.3-0.4,0.6-0.4c0.3,0.1,0.4,0.3,0.4,0.6c0,0.1-2.1,8.3-6.2,16.4C223,119.9,216.2,125.6,209,125.6z"/>
			<path class="st26" d="M158.4,154.3c-0.2,0-0.4-0.1-0.5-0.4c-4.7-18.1-0.9-26.8-0.7-27.1c0.1-0.2,0.4-0.3,0.6-0.2s0.3,0.4,0.2,0.6
				c0,0.1-3.8,8.8,0.7,26.5c0.1,0.3-0.1,0.5-0.3,0.6C158.5,154.3,158.5,154.3,158.4,154.3z"/>
			<path class="st26" d="M175,172.7c0,0-0.1,0-0.1,0c-6.4-1.6-10.7-5.2-10.9-5.4c-0.2-0.2-0.2-0.5-0.1-0.7c0.2-0.2,0.5-0.2,0.7-0.1
				c0,0,4.3,3.7,10.5,5.2c0.3,0.1,0.4,0.3,0.3,0.6C175.5,172.5,175.3,172.7,175,172.7z"/>
			<path class="st5" d="M155.4,192.2c-0.8-0.5-2.4,3.4-2.4,3.4c0.5,0.4,1,0.8,1.6,1.2C154.5,194.2,156.2,192.6,155.4,192.2z"/>
			<path class="st5" d="M162.1,195.2c-0.4-0.1-0.7-0.1-1.3,1.1c-0.6,1.3-1.5,2.6-1.5,2.6c0.5,0.2,1.1,0.3,1.7,0.5
				C162.1,196.8,162.5,195.3,162.1,195.2z"/>
			<path class="st5" d="M232.2,193.2c-0.8,0.5,2,3.6,2,3.7c0.6-0.2,1.2-0.5,1.8-0.9C233.7,194.9,233,192.7,232.2,193.2z"/>
			<path class="st5" d="M237.7,188.1c-0.3,0.3-0.4,0.6,0.4,1.7c0.9,1.1,1.7,2.5,1.7,2.5c0.4-0.4,0.8-0.8,1.2-1.3
				C239.1,188.8,238,187.9,237.7,188.1z"/>
			<circle class="st8" cx="228.7" cy="65.2" r="3.6"/>
			<circle class="st8" cx="126.4" cy="130.5" r="3.3"/>
			<path class="st26" d="M240.8,66.7C240.7,66.7,240.7,66.7,240.8,66.7c-0.4-0.1-0.5-0.3-0.5-0.6c1.1-5.4,0.4-7.7-0.4-8.7
				c-0.5-0.7-1.1-0.7-1.2-0.7c0,0-0.1,0-0.1,0c-2-0.5-3,1.6-3,1.6c-0.1,0.2-0.4,0.3-0.6,0.2c-0.2-0.1-0.3-0.4-0.2-0.6
				c0.5-1,1.9-2.7,4.1-2.2c0.3,0,1.1,0.1,1.8,1c1.4,1.6,1.6,4.8,0.6,9.5C241.2,66.5,241,66.7,240.8,66.7z"/>
			<path class="st26" d="M228,57.1C228,57.1,228,57.1,228,57.1c-0.3,0-0.5-0.2-0.5-0.5c0-1.7,0.9-5,3.9-5.4c0,0,5.3-0.7,6.2,4.8
				c0,0.3-0.1,0.5-0.4,0.6c-0.3,0-0.5-0.1-0.6-0.4c-0.8-4.6-4.9-4.1-5.1-4.1c-3,0.3-3.1,4.3-3.1,4.5C228.5,56.9,228.3,57.1,228,57.1
				z"/>
			<path class="st26" d="M119.4,128.8C119.4,128.8,119.4,128.8,119.4,128.8c-3.2-0.1-5.2-0.3-5.2-0.3c-0.3,0-0.5-0.3-0.4-0.5
				c0-0.3,0.3-0.5,0.5-0.4c0,0,2,0.2,5.1,0.3c0.3,0,0.5,0.2,0.5,0.5C119.8,128.6,119.6,128.8,119.4,128.8z"/>
			<path class="st26" d="M117.4,133.5c-1.5,0-3-0.3-3.1-0.3c-0.3-0.1-0.4-0.3-0.4-0.6c0.1-0.3,0.3-0.4,0.6-0.4c0,0,3.2,0.6,4.8,0
				c0.2-0.1,0.5,0,0.6,0.3s0,0.5-0.3,0.6C119,133.4,118.2,133.5,117.4,133.5z"/>
			<path class="st25" d="M142.1,107.8c0,0,13.6,3.5,33.7-0.8s37.9-18.3,37.9-18.3s-6.3,22.1-34.7,27
				C179.1,115.7,157.5,119.4,142.1,107.8z"/>
			<path class="st26" d="M172.8,117c-12.3,0-35.4-2.9-40.4-24c-0.1-0.3,0.1-0.5,0.4-0.6c0.3-0.1,0.5,0.1,0.6,0.4
				c6.7,28.1,46.8,22.9,47.2,22.8c0.2,0,0.5,0.1,0.5,0.4c0,0.3-0.1,0.5-0.4,0.5C180.6,116.6,177.4,117,172.8,117z"/>
			<path class="st26" d="M202.5,104.3c-0.2,0-0.3-0.1-0.4-0.2c-0.1-0.2-0.1-0.5,0.2-0.7c8.5-5.2,10.5-13.7,10.5-13.8
				c0.1-0.3,0.3-0.4,0.6-0.4c0.3,0.1,0.4,0.3,0.4,0.6c-0.1,0.4-2.2,9-11,14.4C202.6,104.2,202.5,104.3,202.5,104.3z"/>
		</g>
	</g>
	<g>
		<g>
			<path class="st27" d="M100.7,117.7c-16.6,2.7-32.8,8.3-47.7,16.6c2.1,0.5,3.8,2.2,4.4,4.4c10-8.9,23.1-13.6,36.1-12.9
				C96,123.6,98.3,120.7,100.7,117.7z"/>
			<path class="st28" d="M36.2,134.7c1.6,0.5,3.1,1.6,4.4,2.3c12.3-5.5,21.5-18.3,23.3-32.6c0.3-2.6,0.4-5.3,1.1-7.8
				c2-7.3,8.3-12.2,14.6-15.8c-3.2-0.1-6.5-0.7-9.5-1.8c0.1,4-3.7,6.5-6.2,9.3c-1.7,1.9-3,4.3-3.6,6.9c-0.8,3-0.7,6.2-1,9.2
				C57.9,118.2,48.4,130.6,36.2,134.7z"/>
			<path class="st29" d="M13.6,106.1c1.9,1.3,3.2,3.3,4.3,5.4c2.5,4.8,4.3,10.2,4.3,15.7c0.1,5.5-1.6,11.2-5.2,15.1
				c2-0.9,4.2-1.2,6.6-0.5c5.9-12.1,4.2-28.1-4-38.5c-1.8-2.2-3.9-4.2-6.4-5.2c-1.7,2.8-3.7,5.4-5.8,7.7
				C9.2,104.5,11.7,104.8,13.6,106.1z"/>
			<path class="st30" d="M74.7,147.9c-5.8,0.9-11.6-2.3-17.4-1.6c-3.2,0.4-6.2,2.1-9.1,3.7c-1.2,3.2-2.2,7-3.8,10.5
				c4.5-5,9.8-10.4,16.2-9.9c2,0.1,4,0.9,6,1.4c4.9,1.3,10.2,1.1,15-0.6c0.4-4,1.5-8,3.2-11.7C82.9,144.2,79,147.3,74.7,147.9z"/>
			<path class="st29" d="M69.9,110.1c1.7,2.2,2.7,5.1,2.7,8c2.5-1.5,4.9-3.1,7.2-4.9c1,0.5-1.4-4-1.9-6.1
				C75.4,108.4,72.7,109.4,69.9,110.1z"/>
			<path class="st31" d="M40.9,149.9c0.9,0.3-1-3-1.4-4.5c-2.3,1.2-4.8,2.1-7.3,2.8c1.4,1.6,2.2,3.7,2,5.9
				C36.6,152.9,38.8,151.5,40.9,149.9z"/>
			<path class="st31" d="M53,105.4c-0.4-2.3-0.6-4.1-0.4-5.8c-2.8,0.8-5.6,1.5-8.5,1.6c0.9,2,1.4,4.3,1.6,6.5
				C48.1,107,50.5,106.2,53,105.4z"/>
			<path class="st32" d="M84,69c4.1-1.8,7.6-5.1,9.9-9.2c-1.2-0.4-2.8-1.4-4.1-2.8c-1.3,2.5-2.8,5.2-5.3,6c-0.8,0.3-1.7,0.3-2.3-0.3
				C83.5,64.5,84.2,66.8,84,69z"/>
			<path class="st32" d="M95.5,137.3c-0.9-0.3-1.9-0.4-2.9-0.2c0.2,0.9,0,1.8-0.3,2.7c-0.4,1.6-0.9,3.2-1.3,4.8
				c0.5-1.8,2.8-2.6,4.4-1.8c1.6,0.8,2.5,2.7,2.8,4.6c1-1.4,2.6-4.5,3-4.5C99.7,140.6,98,138.2,95.5,137.3z"/>
			<path class="st32" d="M101.3,142.9c0,0,0,0.1,0.1,0.1C101.3,142.9,101.3,142.9,101.3,142.9z"/>
			<path class="st30" d="M34.1,124.3c2.5-0.5,5.1-1,7.6-1.5c-0.2-2.1-0.2-3.7-0.1-5.2c-1.9,1.3-4.4,1.3-6.3,0.2
				C36,119.9,35.6,122.6,34.1,124.3z"/>
			<path class="st30" d="M15,129.6c-0.6-2.7-1.1-5.4-1.7-8.1c-2,0.3-3.4,0.3-4.8,0.3c1.2,2,1.4,4.7,0.3,6.8
				C10.9,127.7,13.4,128.1,15,129.6z"/>
			<path class="st28" d="M63.6,165.5c-1.4-1.4-3.4-2.1-5.3-1.8c-1.9,0.2-3.7,1.3-4.8,3c1,1.5,2.1,2.8,3.4,4c2.1-1.6,5.2-1.6,7.3,0.1
				C64.3,168.8,63.6,165.2,63.6,165.5z"/>
			<path class="st28" d="M29.4,89.3c2.8-0.3,5.5-1,8.2-1.8c-0.1-0.2-0.6-5.4-1.9-7.9c-1.7,1.8-4.5,2.2-6.6,1.1
				C30.1,83.3,30.2,86.4,29.4,89.3z"/>
			<path class="st28" d="M37.6,87.4C37.6,87.4,37.6,87.4,37.6,87.4C37.6,87.4,37.6,87.4,37.6,87.4z"/>
			<path class="st30" d="M88.4,95c0.3-1.8,1.8-3.1,3.4-3.8c1.6-0.7,5-1.7,4.9-1.8c-1.2-1.1-2.2-2.5-2.8-4.1c-2.3,1.5-4.8,2.5-7.4,3
				C87.2,90.5,87.8,92.7,88.4,95z"/>
			<polygon class="st33" points="31.3,157.9 34.3,160.3 38.2,171.5 43.8,167.8 			"/>
			<polygon class="st33" points="26.7,154.3 11.9,142.6 0,196.5 5.3,193.1 2.5,185.1 4.7,175.2 9.8,190.1 6.7,192.2 18.4,184.5 
				14.7,186.9 7.1,164.6 9.2,154.7 19.3,183.9 24.2,180.7 11.6,144 11.9,142.6 18.4,147.8 28.7,177.7 26.6,179.1 34,174.3 
				33.6,174.5 			"/>
			<polygon class="st34" points="4.7,175.2 2.5,185.1 5.3,193.1 5.3,193.1 6.7,192.2 9.8,190.1 			"/>
			<polygon class="st34" points="18.4,147.8 11.9,142.6 11.6,144 24.2,180.7 24.2,180.7 26.6,179.1 28.7,177.7 			"/>
			<polygon class="st34" points="7.1,164.6 14.7,186.9 18.4,184.5 19.3,183.9 19.3,183.9 9.2,154.7 			"/>
			<polygon class="st34" points="31.3,157.9 26.7,154.3 26.7,154.3 33.6,174.5 34,174.3 38.2,171.5 38.2,171.5 34.3,160.3 			"/>
		</g>
		<g>
			<path class="st27" d="M314.8,134.3c-14.9-8.3-31.1-13.9-47.7-16.6c2.4,3,4.8,5.9,7.3,8.1c12.9-0.7,26.1,4,36.1,12.9
				C310.9,136.6,312.7,134.8,314.8,134.3z"/>
			<path class="st28" d="M302.6,96.7c0.7,2.5,0.8,5.2,1.1,7.8c1.8,14.2,11,27.1,23.3,32.6c1.4-0.8,2.8-1.8,4.4-2.3
				c-12.2-4.1-21.7-16.5-23.1-30.2c-0.3-3.1-0.3-6.2-1-9.2c-0.7-2.6-1.9-5-3.6-6.9c-2.5-2.9-6.3-5.4-6.2-9.3
				c-3.1,1.1-6.3,1.8-9.5,1.8C294.3,84.5,300.7,89.3,302.6,96.7z"/>
			<path class="st29" d="M350.7,142.3c-3.6-3.9-5.3-9.6-5.2-15.1c0.1-5.5,1.8-10.9,4.3-15.7c1.1-2.1,2.4-4.1,4.3-5.4
				c1.9-1.3,4.5-1.6,6.3-0.2c-2.2-2.4-4.1-5-5.8-7.7c-2.6,0.9-4.7,2.9-6.4,5.2c-8.2,10.4-9.9,26.3-4,38.5
				C346.5,141.1,348.7,141.4,350.7,142.3z"/>
			<path class="st30" d="M310.4,146.4c-5.8-0.8-11.6,2.5-17.4,1.6c-4.3-0.7-8.2-3.8-10.1-8c1.7,3.6,2.8,7.6,3.2,11.7
				c4.8,1.6,10.1,1.8,15,0.6c2-0.5,4-1.3,6-1.4c6.4-0.4,11.8,4.9,16.2,9.9c-1.6-3.5-2.6-7.3-3.8-10.5
				C316.6,148.4,313.7,146.8,310.4,146.4z"/>
			<path class="st29" d="M288,113.2c2.3,1.8,4.7,3.5,7.2,4.9c0-2.9,1-5.8,2.7-8c-2.8-0.7-5.5-1.7-8-3
				C289.3,109.2,286.9,113.7,288,113.2z"/>
			<path class="st31" d="M328.2,145.4c-0.3,1.6-2.3,4.9-1.4,4.5c2.1,1.5,4.4,2.9,6.6,4.2c-0.1-2.2,0.6-4.4,2-5.9
				C333,147.5,330.5,146.6,328.2,145.4z"/>
			<path class="st31" d="M322.1,107.7c0.2-2.3,0.7-4.5,1.6-6.5c-2.9-0.1-5.7-0.8-8.5-1.6c0.1,1.7-0.1,3.5-0.4,5.8
				C317.2,106.2,319.7,107,322.1,107.7z"/>
			<path class="st32" d="M283.7,69c-0.2-2.3,0.5-4.6,1.8-6.3c-0.6,0.6-1.5,0.6-2.3,0.3c-2.5-0.9-4-3.5-5.3-6
				c-1.3,1.4-2.9,2.4-4.1,2.8C276.2,63.9,279.7,67.2,283.7,69z"/>
			<path class="st32" d="M275.1,137.1c-1-0.2-1.9-0.1-2.9,0.2c-2.5,0.8-4.2,3.3-5.7,5.5c0.3,0.1,2,3.1,3,4.5
				c0.3-1.9,1.2-3.8,2.8-4.6c1.6-0.8,3.9-0.1,4.4,1.8c-0.4-1.6-0.9-3.2-1.3-4.8C275.1,138.9,274.9,138,275.1,137.1z"/>
			<path class="st32" d="M266.4,143c0,0,0-0.1,0.1-0.1C266.5,142.9,266.4,142.9,266.4,143z"/>
			<path class="st30" d="M333.7,124.3c-1.5-1.7-2-4.4-1.1-6.6c-1.9,1.2-4.4,1.1-6.3-0.2c0,1.6,0.1,3.1-0.1,5.2
				C328.6,123.3,331.1,123.8,333.7,124.3z"/>
			<path class="st30" d="M354.4,121.5c-0.6,2.7-1.1,5.4-1.7,8.1c1.7-1.6,4.1-2,6.2-1c-1-2.1-0.9-4.8,0.3-6.8
				C357.8,121.8,356.4,121.8,354.4,121.5z"/>
			<path class="st28" d="M309.5,163.7c-1.9-0.2-3.9,0.5-5.3,1.8c0-0.3-0.7,3.2-0.6,5.3c2.1-1.7,5.2-1.8,7.3-0.1
				c1.3-1.2,2.4-2.6,3.4-4C313.1,165,311.4,163.9,309.5,163.7z"/>
			<path class="st28" d="M338.6,80.6c-2.1,1.1-4.9,0.7-6.6-1.1c-1.3,2.6-1.8,7.8-1.9,7.9c2.7,0.9,5.4,1.5,8.2,1.8
				C337.6,86.4,337.7,83.3,338.6,80.6z"/>
			<path class="st28" d="M330.1,87.4C330.1,87.4,330.1,87.4,330.1,87.4C330.1,87.4,330.1,87.4,330.1,87.4z"/>
			<path class="st30" d="M279.4,95c0.6-2.2,1.2-4.5,1.8-6.7c-2.6-0.5-5.2-1.5-7.4-3c-0.6,1.6-1.5,3-2.8,4.1
				c-0.1,0.1,3.3,1.1,4.9,1.8C277.5,91.9,279,93.2,279.4,95z"/>
			<polygon class="st33" points="336.5,157.9 323.9,167.8 329.6,171.5 333.4,160.3 			"/>
			<polygon class="st33" points="358,190.1 363.1,175.2 365.2,185.1 362.5,193.1 367.8,196.5 355.9,142.6 341.1,154.3 334.1,174.5 
				333.8,174.3 341.1,179.1 339,177.7 349.3,147.8 355.9,142.6 356.2,144 343.6,180.7 348.5,183.9 358.5,154.7 360.7,164.6 
				353,186.9 349.4,184.5 361.1,192.2 			"/>
			<polygon class="st34" points="363.1,175.2 358,190.1 361.1,192.2 362.5,193.1 362.5,193.1 365.2,185.1 			"/>
			<polygon class="st34" points="355.9,142.6 349.3,147.8 339,177.7 341.1,179.1 343.6,180.7 343.6,180.7 356.2,144 			"/>
			<polygon class="st34" points="360.7,164.6 358.5,154.7 348.5,183.9 348.5,183.9 349.4,184.5 353,186.9 			"/>
			<polygon class="st34" points="341.1,154.3 341.1,154.3 336.5,157.9 333.4,160.3 329.6,171.5 329.6,171.5 333.8,174.3 
				334.1,174.5 			"/>
		</g>
	</g>
	<g>
		<g>
			<path class="st8" d="M265.4,33.1c-0.2,0-0.4,0-0.6-0.2c-0.6-0.3-0.9-1.1-0.5-1.7l14.5-27c0.3-0.6,1.1-0.9,1.7-0.5
				c0.6,0.3,0.9,1.1,0.5,1.7l-14.5,27C266.3,32.8,265.9,33.1,265.4,33.1z"/>
			<path class="st8" d="M273.2,34.6c-0.2,0-0.4-0.1-0.6-0.2c-0.6-0.3-0.8-1.1-0.5-1.7l18.2-32c0.3-0.6,1.1-0.8,1.7-0.5
				c0.6,0.3,0.8,1.1,0.5,1.7l-18.2,32C274.1,34.3,273.7,34.6,273.2,34.6z"/>
		</g>
		<g>
			<path class="st8" d="M102.3,33.1c-0.5,0-0.9-0.2-1.1-0.7l-14.5-27c-0.3-0.6-0.1-1.4,0.5-1.7c0.6-0.3,1.4-0.1,1.7,0.5l14.5,27
				c0.3,0.6,0.1,1.4-0.5,1.7C102.8,33,102.5,33.1,102.3,33.1z"/>
			<path class="st8" d="M94.5,34.6c-0.4,0-0.9-0.2-1.1-0.6l-18.2-32c-0.3-0.6-0.1-1.4,0.5-1.7c0.6-0.3,1.4-0.1,1.7,0.5l18.2,32
				c0.3,0.6,0.1,1.4-0.5,1.7C95,34.5,94.8,34.6,94.5,34.6z"/>
		</g>
	</g>
	<g>
		<path class="st8" d="M129.7,13.7c-0.2-1.7-1.3-3.9-4.7-3.7c-1.6,0.1-3.1,0.7-4,2.1c-1,1.7-1.1,3.7-1,5.2c0.1,2.2,0.9,4.5,2.5,5.7
			c1.2,0.8,2.7,0.8,3.3,0.7c3.1-0.2,4.2-2,4.3-4.6l3.6-0.2c-0.2,1.7-0.8,7.4-7.5,7.8c-7.2,0.5-9.5-4.9-9.8-9.2
			c-0.3-5.2,2-10.1,8.4-10.6c2.8-0.2,7.1,0.6,8.4,6.5L129.7,13.7z"/>
		<path class="st8" d="M140.8,11.7l0.1,2c1.1-2.4,4-2.7,4.8-2.7l1.8-0.1l0.2,3.3l-2,0.1c-3.2,0.2-4.7,1.9-4.6,4.3l0.3,6.8l-3.2,0.2
			l-0.6-13.7L140.8,11.7z"/>
		<path class="st8" d="M165.6,20.4c-0.3,1.1-1.3,4.7-6.9,4.9c-4.5,0.1-7.5-2.4-7.6-7.1c-0.2-5.5,3.6-7.5,7-7.6
			c2.8-0.1,5.2,1,6.5,3.4c0.7,1.1,0.9,2.3,1.1,4.5l-11.4,0.3c0.3,4.1,3.4,4,4.3,4c1.7-0.1,3.1-0.6,3.6-2.2L165.6,20.4z M162.4,16.3
			c-0.2-0.8-1-3.3-4.2-3.2c-3,0.1-3.6,2.4-3.9,3.5L162.4,16.3z"/>
		<path class="st8" d="M170,14.8c0.2-1.3,0.5-4.6,6.8-4.6c1.6,0,6.5,0.2,6.6,4.4l0.1,7.7c0,0.4,0.2,1.4,0.7,1.7l0,0.3l-3.4,0
			c-0.4-0.6-0.4-1.3-0.4-1.6c-0.9,1-2.3,2.2-5.4,2.2c-1.3,0-5.5,0-5.5-4.2c0-3.4,2.9-3.8,6.2-4.3c3.6-0.5,4.6-0.6,4.6-1.9
			c0-1.9-2.3-1.8-3-1.8c-3.6,0-4,1.1-4,2.1L170,14.8z M180.2,17.6c-0.8,0.4-2.8,0.7-4,0.9c-2.3,0.4-3.5,0.6-3.5,2
			c0,0.5,0.3,1.9,3.1,1.9c2.7,0,4.5-1.6,4.5-3L180.2,17.6z"/>
		<path class="st8" d="M193.2,10.7l3.3,0l0,2.3l-3.3,0l-0.1,7.7c0,1.5,0.9,1.5,2.2,1.5l1.1,0l0,2.6c-0.4,0-1,0.1-2,0.1
			c-1.3,0-4.6,0-4.6-3.9l0.1-8l-2.7,0l0-2.3l2.7,0l0-3.8l3.2,0L193.2,10.7z"/>
		<path class="st8" d="M214.1,20.7c-0.4,1.1-1.6,4.6-7.1,4.5c-4.5-0.1-7.3-2.8-7.2-7.5c0.1-5.5,4-7.3,7.4-7.2
			c2.8,0.1,5.1,1.3,6.3,3.7c0.6,1.2,0.8,2.4,0.9,4.5L203,18.4c0.1,4.1,3.2,4.2,4,4.2c1.7,0,3.1-0.4,3.7-2L214.1,20.7z M211.2,16.4
			c-0.2-0.8-0.8-3.4-4-3.5c-3-0.1-3.7,2.2-4,3.3L211.2,16.4z"/>
		<path class="st8" d="M232.6,6.9l-0.9,18.7l-3.1-0.1l0-1.6c-1.2,1.6-2.9,2-4.5,1.9c-4.4-0.2-6.3-3.4-6.1-7.7c0.2-5.2,3.3-7.2,6.6-7
			c3.1,0.1,4.2,1.8,4.5,2.5l0.3-6.8L232.6,6.9z M221.3,18.3c-0.1,2.1,0.4,4.7,3.6,4.8c3.7,0.2,3.9-3.7,4-4.5c0-0.9,0.2-4.7-3.5-4.8
			C221.5,13.6,221.3,17.4,221.3,18.3z"/>
		<path class="st8" d="M240.6,22.4l-0.2,3.7l-3.6-0.2l0.2-3.7L240.6,22.4z M241.4,7.4l-0.4,5.8l-1.1,7l-1.9-0.1l-0.3-7.1l0.4-5.8
			L241.4,7.4z"/>
		<path class="st8" d="M249.8,23.1l-0.3,3.7l-3.6-0.3l0.3-3.7L249.8,23.1z M250.8,8.1l-0.4,5.8l-1.2,7l-1.9-0.1l-0.2-7.1l0.4-5.8
			L250.8,8.1z"/>
	</g>
</g>
</svg>
