<?xml version="1.0" encoding="utf-8"?>
<!-- Generator: Adobe Illustrator 28.1.0, SVG Export Plug-In . SVG Version: 6.00 Build 0)  -->
<svg version="1.1" id="レイヤー_1" xmlns="http://www.w3.org/2000/svg" xmlns:xlink="http://www.w3.org/1999/xlink" x="0px"
	 y="0px" viewBox="0 0 435.4 238.7" style="enable-background:new 0 0 435.4 238.7;" xml:space="preserve">
<style type="text/css">
	.st0{fill:#DEB253;}
	.st1{fill:#DB3A09;}
	.st2{fill:#DCC58C;}
	.st3{fill:#77A581;}
	.st4{fill:#A5AAAD;}
	.st5{fill:#9F863F;}
	.st6{fill:#F6E0A2;}
	.st7{fill:#F26E64;}
	.st8{fill:#F29600;}
	.st9{fill:none;}
	.st10{fill:#59C2E1;}
	.st11{fill:#FFFFFF;}
	.st12{fill:#796A56;}
	.st13{opacity:5.000000e-02;}
	.st14{fill:#9CDBED;}
	.st15{fill:#9BDAED;}
	.st16{fill:#E6E6E6;}
</style>
<g>
	<g>
		<path class="st0" d="M119.8,140.5c-19.5,3.2-38.6,9.8-56.1,19.5c2.4,0.5,4.5,2.6,5.1,5.2c11.8-10.5,27.2-16,42.5-15.2
			C114.2,147.4,117,144,119.8,140.5z"/>
		<path class="st1" d="M44,160.4c1.9,0.6,3.6,1.8,5.2,2.7c14.5-6.4,25.3-21.5,27.5-38.3c0.4-3.1,0.5-6.2,1.3-9.1
			c2.3-8.6,9.8-14.3,17.1-18.6c-3.8-0.1-7.6-0.8-11.2-2.2c0.1,4.7-4.3,7.6-7.3,11c-2,2.3-3.5,5.1-4.2,8.1c-0.9,3.5-0.8,7.2-1.2,10.9
			C69.4,141,58.3,155.6,44,160.4z"/>
		<path class="st2" d="M17.4,126.8c2.2,1.5,3.8,3.9,5.1,6.4c3,5.6,5,12,5.1,18.5s-1.9,13.2-6.2,17.8c2.4-1.1,5-1.4,7.8-0.6
			c6.9-14.3,4.9-33-4.8-45.3c-2.1-2.6-4.5-5-7.5-6.1c-2,3.3-4.3,6.3-6.9,9.1C12.1,124.9,15.2,125.3,17.4,126.8z"/>
		<path class="st3" d="M89.2,176c-6.8,1.1-13.6-2.7-20.4-1.8c-3.8,0.5-7.3,2.4-10.7,4.4c-1.4,3.8-2.6,8.3-4.5,12.4
			c5.3-5.9,11.5-12.2,19.1-11.7c2.4,0.2,4.7,1,7.1,1.7c5.8,1.5,12,1.3,17.7-0.7c0.5-4.8,1.7-9.4,3.7-13.7
			C98.9,171.6,94.3,175.2,89.2,176z"/>
		<path class="st2" d="M83.6,131.5c2,2.6,3.2,6,3.2,9.4c2.9-1.7,5.8-3.7,8.4-5.8c1.2,0.6-1.6-4.7-2.2-7.2
			C90,129.5,86.9,130.7,83.6,131.5z"/>
		<path class="st4" d="M49.5,178.4c1.1,0.4-1.2-3.5-1.6-5.3c-2.8,1.4-5.6,2.5-8.6,3.3c1.7,1.9,2.5,4.4,2.4,7
			C44.4,181.8,47,180.2,49.5,178.4z"/>
		<path class="st4" d="M63.7,126c-0.4-2.7-0.7-4.8-0.5-6.8c-3.3,0.9-6.6,1.8-10,1.9c1.1,2.4,1.7,5,1.9,7.7
			C57.9,127.8,60.8,126.9,63.7,126z"/>
		<path class="st5" d="M100.2,83.2c4.8-2.2,8.9-6,11.6-10.8c-1.4-0.4-3.3-1.6-4.8-3.3c-1.5,2.9-3.2,6.1-6.2,7.1
			c-0.9,0.3-2,0.3-2.7-0.4C99.6,77.8,100.4,80.6,100.2,83.2z"/>
		<path class="st5" d="M113.8,163.6c-1.1-0.4-2.3-0.4-3.4-0.2c0.3,1,0,2.1-0.3,3.1c-0.5,1.9-1,3.7-1.5,5.6c0.6-2.2,3.3-3,5.1-2.1
			c1.9,1,3,3.2,3.3,5.4c1.2-1.7,3.1-5.2,3.5-5.3C118.7,167.4,116.7,164.5,113.8,163.6z"/>
		<path class="st5" d="M120.5,170.1c0,0,0.1,0.1,0.1,0.1C120.6,170.1,120.5,170.1,120.5,170.1z"/>
		<path class="st3" d="M41.5,148.3c3-0.6,5.9-1.2,8.9-1.8c-0.3-2.5-0.2-4.3-0.2-6.2c-2.2,1.5-5.1,1.6-7.4,0.2
			C43.8,143.1,43.2,146.2,41.5,148.3z"/>
		<path class="st3" d="M19,154.5c-0.7-3.2-1.3-6.4-2-9.6c-2.3,0.4-4,0.4-5.7,0.4c1.4,2.3,1.6,5.5,0.4,8
			C14.2,152.2,17.1,152.7,19,154.5z"/>
		<path class="st1" d="M76.1,196.7c-1.7-1.6-4-2.4-6.2-2.2c-2.2,0.3-4.3,1.6-5.7,3.5c1.2,1.7,2.5,3.3,4,4.8c2.5-1.9,6.2-1.9,8.6,0.1
			C77,200.5,76.2,196.3,76.1,196.7z"/>
		<path class="st1" d="M36,107c3.3-0.4,6.5-1.1,9.7-2.2c-0.1-0.2-0.7-6.3-2.2-9.3c-2,2.1-5.3,2.6-7.8,1.3
			C36.8,100,36.9,103.7,36,107z"/>
		<path class="st1" d="M45.7,104.8C45.7,104.8,45.6,104.8,45.7,104.8C45.7,104.8,45.7,104.8,45.7,104.8z"/>
		<path class="st3" d="M105.4,113.7c0.4-2.1,2.2-3.6,4-4.4c1.9-0.8,5.9-2,5.8-2.1c-1.4-1.3-2.6-3-3.2-4.8c-2.7,1.8-5.6,3-8.7,3.5
			C103.9,108.5,104.6,111.1,105.4,113.7z"/>
		<polygon class="st6" points="38.2,187.8 41.7,190.5 46.3,203.8 52.9,199.4 		"/>
		<polygon class="st6" points="32.8,183.5 15.4,169.8 1.4,233.2 7.6,229.2 4.3,219.8 6.9,208.2 12.9,225.7 9.2,228.1 23,219 
			18.7,221.9 9.7,195.6 12.2,184 24,218.4 29.8,214.6 15,171.4 15.4,169.8 23.1,175.9 35.1,211.1 32.7,212.7 41.3,207 40.9,207.3 		
			"/>
		<polygon class="st7" points="6.9,208.2 4.3,219.8 7.6,229.2 7.6,229.2 9.2,228.1 12.9,225.7 		"/>
		<polygon class="st7" points="23.1,175.9 15.4,169.8 15,171.4 29.8,214.6 29.8,214.6 32.7,212.7 35.1,211.1 		"/>
		<polygon class="st7" points="9.7,195.6 18.7,221.9 23,219 24,218.4 24,218.4 12.2,184 		"/>
		<polygon class="st7" points="38.2,187.8 32.8,183.5 32.8,183.5 40.9,207.3 41.3,207 46.3,203.8 46.3,203.8 41.7,190.5 		"/>
	</g>
	<g>
		<path class="st0" d="M371.7,160c-17.6-9.7-36.6-16.3-56.1-19.5c2.8,3.5,5.6,6.9,8.5,9.6c15.2-0.8,30.7,4.7,42.5,15.2
			C367.2,162.7,369.2,160.6,371.7,160z"/>
		<path class="st1" d="M357.4,115.7c0.8,3,0.9,6.1,1.3,9.1c2.1,16.8,13,31.9,27.5,38.3c1.6-0.9,3.3-2.1,5.2-2.7
			c-14.4-4.8-25.5-19.4-27.2-35.6c-0.4-3.6-0.3-7.3-1.2-10.9c-0.8-3-2.2-5.8-4.2-8.1c-3-3.4-7.4-6.3-7.3-11
			c-3.6,1.4-7.4,2.1-11.2,2.2C347.6,101.4,355.1,107.1,357.4,115.7z"/>
		<path class="st2" d="M414,169.4c-4.2-4.6-6.3-11.3-6.2-17.8c0.1-6.5,2.1-12.8,5.1-18.5c1.3-2.5,2.8-4.9,5.1-6.4
			c2.2-1.5,5.3-1.8,7.4-0.2c-2.5-2.8-4.8-5.9-6.9-9.1c-3,1.1-5.5,3.5-7.5,6.1c-9.7,12.2-11.7,31-4.8,45.3
			C409,168,411.6,168.3,414,169.4z"/>
		<path class="st3" d="M366.6,174.2c-6.8-0.9-13.6,2.9-20.4,1.8c-5.1-0.8-9.7-4.4-11.9-9.4c2,4.3,3.3,9,3.7,13.7
			c5.7,1.9,11.9,2.2,17.7,0.7c2.3-0.6,4.7-1.5,7.1-1.7c7.5-0.5,13.8,5.8,19.1,11.7c-1.9-4.1-3-8.6-4.5-12.4
			C373.9,176.6,370.4,174.7,366.6,174.2z"/>
		<path class="st2" d="M340.1,135.1c2.7,2.1,5.5,4.1,8.4,5.8c0-3.4,1.2-6.8,3.2-9.4c-3.3-0.8-6.4-2-9.4-3.5
			C341.7,130.4,338.9,135.8,340.1,135.1z"/>
		<path class="st4" d="M387.4,173.1c-0.4,1.9-2.7,5.7-1.6,5.3c2.5,1.8,5.1,3.4,7.8,4.9c-0.2-2.6,0.7-5.1,2.4-7
			C393.1,175.5,390.2,174.4,387.4,173.1z"/>
		<path class="st4" d="M380.3,128.7c0.2-2.7,0.8-5.3,1.9-7.7c-3.4-0.1-6.7-1-10-1.9c0.2,2-0.1,4.1-0.5,6.8
			C374.6,126.9,377.5,127.8,380.3,128.7z"/>
		<path class="st5" d="M335.2,83.2c-0.2-2.6,0.6-5.4,2.1-7.4c-0.7,0.7-1.8,0.7-2.7,0.4c-2.9-1-4.7-4.2-6.2-7.1
			c-1.5,1.7-3.4,2.9-4.8,3.3C326.3,77.2,330.4,81.1,335.2,83.2z"/>
		<path class="st5" d="M325,163.3c-1.1-0.2-2.3-0.1-3.4,0.2c-2.9,1-4.9,3.8-6.7,6.5c0.4,0.1,2.4,3.7,3.5,5.3
			c0.3-2.2,1.4-4.5,3.3-5.4c1.9-1,4.6-0.1,5.1,2.1c-0.5-1.9-1-3.7-1.5-5.6C325,165.4,324.7,164.4,325,163.3z"/>
		<path class="st5" d="M314.8,170.2c0,0,0.1-0.1,0.1-0.1C314.8,170.1,314.8,170.1,314.8,170.2z"/>
		<path class="st3" d="M393.9,148.3c-1.8-2-2.3-5.2-1.3-7.8c-2.3,1.4-5.2,1.3-7.4-0.2c0,1.8,0.1,3.7-0.2,6.2
			C388,147.1,390.9,147.7,393.9,148.3z"/>
		<path class="st3" d="M418.3,144.9c-0.7,3.2-1.3,6.4-2,9.6c1.9-1.8,4.9-2.3,7.2-1.2c-1.2-2.5-1-5.7,0.4-8
			C422.3,145.3,420.6,145.3,418.3,144.9z"/>
		<path class="st1" d="M365.4,194.6c-2.2-0.3-4.5,0.6-6.2,2.2c0-0.4-0.9,3.8-0.8,6.2c2.5-2,6.1-2.1,8.6-0.1c1.5-1.4,2.8-3,4-4.8
			C369.8,196.1,367.7,194.8,365.4,194.6z"/>
		<path class="st1" d="M399.7,96.8c-2.5,1.3-5.8,0.8-7.8-1.3c-1.5,3.1-2.1,9.1-2.2,9.3c3.1,1,6.4,1.8,9.7,2.2
			C398.5,103.7,398.6,100,399.7,96.8z"/>
		<path class="st1" d="M389.7,104.8C389.7,104.8,389.7,104.8,389.7,104.8C389.7,104.8,389.7,104.8,389.7,104.8z"/>
		<path class="st3" d="M330,113.7c0.7-2.6,1.4-5.3,2.2-7.9c-3.1-0.5-6.1-1.7-8.7-3.5c-0.7,1.9-1.8,3.6-3.2,4.8
			c-0.1,0.1,3.9,1.3,5.8,2.1C327.8,110.1,329.6,111.6,330,113.7z"/>
		<polygon class="st6" points="397.2,187.8 382.4,199.4 389.1,203.8 393.6,190.5 		"/>
		<polygon class="st6" points="422.5,225.7 428.5,208.2 431,219.8 427.8,229.2 434,233.2 420,169.8 402.6,183.5 394.5,207.3 
			394.1,207 402.7,212.7 400.2,211.1 412.3,175.9 420,169.8 420.4,171.4 405.6,214.6 411.4,218.4 423.2,184 425.7,195.6 
			416.7,221.9 412.4,219 426.1,228.1 		"/>
		<polygon class="st7" points="428.5,208.2 422.5,225.7 426.1,228.1 427.8,229.2 427.8,229.2 431,219.8 		"/>
		<polygon class="st7" points="420,169.8 412.3,175.9 400.2,211.1 402.7,212.7 405.6,214.6 405.6,214.6 420.4,171.4 		"/>
		<polygon class="st7" points="425.7,195.6 423.2,184 411.4,218.4 411.4,218.4 412.4,219 416.7,221.9 		"/>
		<polygon class="st7" points="402.6,183.5 402.6,183.5 397.2,187.8 393.6,190.5 389.1,203.8 389.1,203.8 394.1,207 394.5,207.3 		
			"/>
	</g>
</g>
<g>
	<g>
		<path class="st8" d="M313.6,40.9c-0.2,0-0.5-0.1-0.7-0.2c-0.7-0.4-1-1.3-0.6-2l17.1-31.8c0.4-0.7,1.3-1,2-0.6c0.7,0.4,1,1.3,0.6,2
			l-17.1,31.8C314.7,40.6,314.1,40.9,313.6,40.9z"/>
		<path class="st8" d="M322.8,42.6c-0.3,0-0.5-0.1-0.7-0.2c-0.7-0.4-1-1.3-0.6-2l21.5-37.7c0.4-0.7,1.3-1,2-0.6c0.7,0.4,1,1.3,0.6,2
			l-21.5,37.7C323.8,42.4,323.3,42.6,322.8,42.6z"/>
	</g>
	<g>
		<path class="st8" d="M121.8,40.9c-0.5,0-1.1-0.3-1.3-0.8L103.4,8.3c-0.4-0.7-0.1-1.6,0.6-2c0.7-0.4,1.6-0.1,2,0.6l17.1,31.8
			c0.4,0.7,0.1,1.6-0.6,2C122.2,40.9,122,40.9,121.8,40.9z"/>
		<path class="st8" d="M112.6,42.6c-0.5,0-1-0.3-1.3-0.8L89.8,4.2c-0.4-0.7-0.2-1.6,0.6-2c0.7-0.4,1.6-0.2,2,0.6l21.5,37.7
			c0.4,0.7,0.2,1.6-0.6,2C113.1,42.6,112.8,42.6,112.6,42.6z"/>
	</g>
</g>
<rect class="st9" width="435.4" height="238.7"/>
<g>
	<path class="st8" d="M153.9,18.1c-0.3-1.9-1.5-4.6-5.5-4.3c-1.8,0.1-3.6,0.8-4.7,2.5c-1.2,2-1.3,4.3-1.2,6.1c0.2,2.6,1.1,5.3,3,6.7
		c1.4,1,3.2,0.9,3.8,0.9c3.7-0.2,4.9-2.3,5.1-5.4l4.2-0.3c-0.2,2-1,8.7-8.8,9.2c-8.4,0.6-11.2-5.8-11.6-10.8
		c-0.4-6.1,2.3-11.9,9.9-12.4c3.3-0.2,8.3,0.7,9.9,7.6L153.9,18.1z"/>
	<path class="st8" d="M167,15.7l0.2,2.3c1.3-2.9,4.7-3.1,5.7-3.2l2.1-0.1l0.2,3.9l-2.3,0.1c-3.8,0.2-5.6,2.3-5.4,5l0.4,8.1l-3.8,0.2
		l-0.8-16.1L167,15.7z"/>
	<path class="st8" d="M196.2,25.9c-0.4,1.3-1.5,5.5-8.1,5.7c-5.3,0.2-8.8-2.9-8.9-8.4c-0.2-6.5,4.2-8.8,8.3-8.9
		c3.3-0.1,6.1,1.2,7.6,4c0.8,1.3,1.1,2.7,1.3,5.3L183,24c0.4,4.8,4,4.7,5,4.7c2-0.1,3.6-0.7,4.3-2.6L196.2,25.9z M192.5,21.1
		c-0.3-1-1.1-3.9-4.9-3.8c-3.6,0.1-4.3,2.9-4.5,4.1L192.5,21.1z"/>
	<path class="st8" d="M201.4,19.4c0.2-1.5,0.6-5.4,8-5.4c1.8,0,7.7,0.3,7.7,5.2l0.1,9c0,0.5,0.2,1.7,0.8,2l0,0.4l-4,0
		c-0.5-0.7-0.5-1.5-0.5-1.9c-1,1.2-2.7,2.6-6.4,2.6c-1.5,0-6.4-0.1-6.5-5c0-4,3.4-4.5,7.4-5c4.2-0.6,5.4-0.7,5.4-2.2
		c0-2.2-2.8-2.2-3.6-2.2c-4.3,0-4.7,1.3-4.7,2.4L201.4,19.4z M213.4,22.7c-0.9,0.5-3.2,0.8-4.7,1c-2.7,0.4-4.2,0.6-4.2,2.4
		c0,0.6,0.3,2.2,3.6,2.2c3.2,0,5.2-1.9,5.2-3.5L213.4,22.7z"/>
	<path class="st8" d="M228.7,14.6l3.9,0l0,2.7l-3.9,0l-0.1,9.1c0,1.7,1.1,1.8,2.6,1.8l1.3,0l0,3c-0.4,0.1-1.2,0.1-2.3,0.1
		c-1.5,0-5.4,0-5.4-4.6l0.1-9.5l-3.2,0l0-2.7l3.2,0l0-4.5l3.8,0L228.7,14.6z"/>
	<path class="st8" d="M253.3,26.3c-0.5,1.2-1.9,5.4-8.4,5.3c-5.3-0.1-8.6-3.3-8.4-8.9c0.2-6.5,4.7-8.5,8.7-8.4
		c3.3,0.1,6,1.6,7.4,4.4c0.7,1.4,1,2.8,1,5.3l-13.4-0.3c0.1,4.8,3.7,4.9,4.7,4.9c2,0.1,3.7-0.5,4.4-2.4L253.3,26.3z M249.8,21.3
		c-0.2-1-0.9-4-4.7-4.1c-3.6-0.1-4.4,2.6-4.7,3.8L249.8,21.3z"/>
	<path class="st8" d="M275,10.1l-1,22l-3.7-0.2l0-1.9c-1.4,1.9-3.4,2.3-5.3,2.2c-5.2-0.2-7.5-4-7.2-9c0.3-6.1,3.9-8.5,7.8-8.3
		c3.7,0.2,4.9,2.2,5.3,2.9l0.4-8L275,10.1z M261.7,23.5c-0.1,2.5,0.5,5.5,4.2,5.7c4.4,0.2,4.6-4.3,4.6-5.3c0-1,0.3-5.5-4.2-5.7
		C262,18,261.8,22.4,261.7,23.5z"/>
	<path class="st8" d="M284.4,28.4l-0.3,4.4l-4.2-0.3l0.3-4.4L284.4,28.4z M285.3,10.7l-0.4,6.8l-1.4,8.2l-2.3-0.1l-0.3-8.3l0.4-6.8
		L285.3,10.7z"/>
	<path class="st8" d="M295.2,29.1l-0.3,4.4l-4.2-0.3l0.3-4.4L295.2,29.1z M296.4,11.5l-0.5,6.8l-1.4,8.2l-2.3-0.2l-0.2-8.3l0.5-6.8
		L296.4,11.5z"/>
</g>
<g>
	<g>
		<path class="st10" d="M261.4,84.3c-2.1-4.1-4.6-7.5-7.4-10.3c1.6-1.7,2.8-3.9,3.4-6.3c2-7.9-2.8-15.9-10.7-17.8
			c-7.9-2-15.9,2.8-17.8,10.7c-0.1,0.3-0.1,0.5-0.2,0.8c-16.6-2.8-32.5,1.9-34.7,2.4c-2.1,0.5-15.4,4.6-25.6,14
			c-1.1-0.7-2.2-1.3-3.6-1.6c-5.8-1.5-11.7,2.2-13.2,8.1c-1.3,5.1,1.2,10.2,5.6,12.5c-0.8,4.4-0.8,9.2,0.5,14.6
			c8.1,34,56.2,27.3,56.2,27.3C220.4,140.5,279.8,119.1,261.4,84.3z"/>
		<g>
			<path class="st11" d="M192.8,82.8c0,0,0.9,10.5-2.6,20.6s2.3,15,6.1,13.9s5.2-2.9,5.4-4.9s1.3-2.5,4.6-0.5s4.3,2.5,8.9,1.5
				c4.7-0.9,6.1-12.5-0.3-16.6c-6.4-4.2-14.1-9.8-16.4-14.6C196.2,77.3,192.7,77.4,192.8,82.8z"/>
			<path class="st8" d="M191.8,93.3l10.5-3c0,0,5.8-1.6,2.6,5.5c-3.2,7.1-4.9,8.3-6.9,6.9c-2-1.4-5.7-5.4-5.7-5.4
				S188.7,94.3,191.8,93.3z"/>
			<path class="st12" d="M210.9,82.6c0,0-2.7,0.6-3.8,2.2s-0.6,3.1,0.6,2.2c1.2-0.8,2.5-3,6.4-2.3c3.8,0.7,3.2-1.5,1.8-2.1
				C214.5,82,212.5,82.2,210.9,82.6z"/>
			<path class="st12" d="M181.1,93.7c0,0,1.3-0.7,2.2-1.6s1.4-0.9,3.6-0.5c2.2,0.4,2.4-1.3,0.8-2c-1.6-0.7-4.2-0.9-6.1,0.8
				C179.6,92.1,179.3,93.7,181.1,93.7z"/>
		</g>
		<path class="st10" d="M266.7,189.3c0,0,13-7.6,8.5-16.4c-4.5-8.9-14.5-4.9-14.5-4.9L266.7,189.3z"/>
		<path class="st13" d="M266.7,189.3c0,0,13-7.6,8.5-16.4c-4.5-8.9-14.5-4.9-14.5-4.9L266.7,189.3z"/>
		<path class="st10" d="M276.1,203.3c-10.8-15.5-15.5-59.4-15.5-59.4s7.5-6.5,15-28.4c1.2-3.4,2.3-6.9,3.3-10.2
			c0.7-2.5,1.4-4.9,2-7.2c3.8-14.9,5.3-27,3.7-28.6c-2.3-2.2-4.1-1.5-4.1-1.5s-0.2-4-3.6-5.1c-3.5-1.1-5.4,1-5.4,1
			c-6.9-2.9-10.1,9.5-14.1,28.3c0,0.1,0,0.2-0.1,0.3c-0.5,2.5-1.1,4.8-1.8,6.9c-4.3,14.1-10.3,20.1-10.3,20.1s-47.7,5.1-59.1,14.4
			c-5.9,4.8-10.9,7.5-16.1,8.9c-2,0.5-4,0.9-6.1,1.1c-3.1,0.3-6.5,0.4-10.2,0.3c-12.7-0.4-18.3,2.4-18.5,10.5
			c-0.2,8.1,6.4,10.7,19.8,11.2c3.8,0.2,7.9-0.2,11.8-0.7c2.2-0.3,4.4-0.7,6.4-1.1c6.7-1.4,11.7-3,11.7-3
			c-0.8,17.1,6.7,32.2,6.7,32.2l-15.1,32.4c8.2,13.7,21.8,10.6,21.8,10.6l13.5-29.7c16.9,7.2,33.7-5.1,33.7-5.1
			c5.7,16.6,23.7,33.9,23.7,33.9c17-1.6,17.7-16.6,17.7-16.6S286.9,218.8,276.1,203.3z"/>
		<path class="st14" d="M248.3,58.3c-6-4.7-11.9,1.1-14.4,4.2c5.5,1.5,11,3.9,15.8,7.7C251.7,66.7,252.9,61.9,248.3,58.3z"/>
		<path class="st14" d="M158.6,82.3c-3.1,3.1-1.2,7,0.2,8.9c1.4-3.5,3.4-6.6,5.7-9.4C162.6,80.8,160.5,80.5,158.6,82.3z"/>
		<path class="st15" d="M247.2,149.8c-0.3,0-0.6-0.2-0.6-0.6c0-0.3,0.3-0.6,0.6-0.6c0,0,0,0,0,0c19.6,0,29-37.6,29.1-38
			c0.1-0.3,0.4-0.5,0.7-0.4c0.3,0.1,0.5,0.4,0.4,0.7c0,0.1-2.4,9.8-7.3,19.3C263.7,143,255.7,149.8,247.2,149.8z"/>
		<path class="st15" d="M187.8,183.5c-0.3,0-0.5-0.2-0.5-0.4c-5.5-21.2-1-31.5-0.8-31.9c0.1-0.3,0.5-0.4,0.7-0.3
			c0.3,0.1,0.4,0.5,0.3,0.7c0,0.1-4.5,10.4,0.9,31.2c0.1,0.3-0.1,0.6-0.4,0.7C187.9,183.5,187.8,183.5,187.8,183.5z"/>
		<path class="st15" d="M207.3,205.2c0,0-0.1,0-0.1,0c-7.5-1.9-12.6-6.2-12.8-6.3c-0.2-0.2-0.3-0.6-0.1-0.8c0.2-0.2,0.6-0.3,0.8-0.1
			c0.1,0,5.1,4.3,12.3,6.1c0.3,0.1,0.5,0.4,0.4,0.7C207.8,205,207.5,205.2,207.3,205.2z"/>
		<path class="st16" d="M184.2,228.1c-1-0.6-2.8,4-2.9,4c0.5,0.5,1.2,1,1.8,1.4C183.2,230.5,185.2,228.6,184.2,228.1z"/>
		<path class="st16" d="M192.1,231.6c-0.4-0.2-0.8-0.1-1.6,1.3c-0.7,1.5-1.7,3-1.8,3.1c0.6,0.2,1.3,0.4,2,0.6
			C192.1,233.5,192.5,231.8,192.1,231.6z"/>
		<path class="st16" d="M274.5,229.3c-0.9,0.6,2.3,4.3,2.3,4.3c0.7-0.3,1.4-0.6,2.1-1C276.3,231.3,275.5,228.7,274.5,229.3z"/>
		<path class="st16" d="M281,223.3c-0.3,0.3-0.5,0.7,0.5,2c1,1.3,2,2.9,2,2.9c0.5-0.5,0.9-1,1.4-1.5
			C282.7,224.1,281.3,223,281,223.3z"/>
		<circle class="st8" cx="270.5" cy="78.6" r="4.2"/>
		<circle class="st8" cx="150" cy="155.6" r="3.8"/>
		<path class="st15" d="M284.6,80.4c0,0-0.1,0-0.1,0c-0.3-0.1-0.5-0.4-0.4-0.7c1.3-6.4,0.4-9.1-0.5-10.2c-0.6-0.8-1.3-0.8-1.4-0.8
			c0,0-0.1,0-0.1,0c-2.4-0.6-3.5,1.8-3.6,1.9c-0.1,0.3-0.5,0.4-0.7,0.3c-0.3-0.1-0.4-0.5-0.3-0.7c0.5-1.2,2.2-3.2,4.8-2.6
			c0.3,0,1.3,0.2,2.1,1.2c1.6,1.9,1.9,5.7,0.8,11.2C285.1,80.2,284.9,80.4,284.6,80.4z"/>
		<path class="st15" d="M269.7,69.1C269.7,69.1,269.6,69.1,269.7,69.1c-0.3,0-0.6-0.3-0.6-0.6c0-2,1.1-5.9,4.6-6.3
			c0,0,6.2-0.8,7.3,5.7c0.1,0.3-0.2,0.6-0.5,0.6c-0.3,0-0.6-0.2-0.6-0.5c-0.9-5.4-5.8-4.8-6-4.8c-3.5,0.4-3.6,5.2-3.6,5.2
			C270.2,68.9,270,69.1,269.7,69.1z"/>
		<path class="st15" d="M141.8,153.5C141.8,153.5,141.8,153.5,141.8,153.5c-3.7-0.1-6.1-0.3-6.1-0.3c-0.3,0-0.5-0.3-0.5-0.6
			c0-0.3,0.3-0.5,0.6-0.5c0,0,2.4,0.2,6,0.3c0.3,0,0.6,0.3,0.5,0.6C142.4,153.3,142.1,153.5,141.8,153.5z"/>
		<path class="st15" d="M139.5,159c-1.8,0-3.5-0.3-3.6-0.4c-0.3-0.1-0.5-0.4-0.4-0.7c0.1-0.3,0.4-0.5,0.7-0.4c0,0,3.8,0.7,5.6,0
			c0.3-0.1,0.6,0,0.7,0.3c0.1,0.3,0,0.6-0.3,0.7C141.4,158.9,140.4,159,139.5,159z"/>
		<path class="st13" d="M168.6,128.8c0,0,16,4.2,39.7-0.9s44.6-21.5,44.6-21.5s-7.4,26-40.8,31.8
			C212.1,138.1,186.6,142.4,168.6,128.8z"/>
		<path class="st15" d="M204.7,139.7c-14.5,0-41.6-3.4-47.6-28.2c-0.1-0.3,0.1-0.6,0.4-0.7c0.3-0.1,0.6,0.1,0.7,0.4
			c7.9,33.1,55,26.9,55.5,26.9c0.3,0,0.6,0.2,0.6,0.5c0,0.3-0.2,0.6-0.5,0.6C213.8,139.2,210.1,139.7,204.7,139.7z"/>
		<path class="st15" d="M239.5,124.7c-0.2,0-0.4-0.1-0.5-0.3c-0.2-0.3-0.1-0.6,0.2-0.8c9.9-6.1,12.4-16.1,12.4-16.2
			c0.1-0.3,0.4-0.5,0.7-0.4c0.3,0.1,0.5,0.4,0.4,0.7c-0.1,0.4-2.5,10.5-12.9,16.9C239.7,124.6,239.6,124.7,239.5,124.7z"/>
	</g>
</g>
</svg>
