<?xml version="1.0" encoding="utf-8"?>
<!-- Generator: Adobe Illustrator 28.1.0, SVG Export Plug-In . SVG Version: 6.00 Build 0)  -->
<svg version="1.1" id="レイヤー_1" xmlns="http://www.w3.org/2000/svg" xmlns:xlink="http://www.w3.org/1999/xlink" x="0px"
	 y="0px" viewBox="0 0 993.1 138.9" style="enable-background:new 0 0 993.1 138.9;" xml:space="preserve">
<style type="text/css">
	.st0{fill:#59C2E1;}
	.st1{fill:none;stroke:#00BDE1;stroke-width:3;stroke-miterlimit:10;}
	.st2{fill:none;stroke:#CCCCCC;stroke-width:3;stroke-miterlimit:10;}
	.st3{fill:#00BDE1;}
	.st4{fill:#66D7ED;}
	.st5{fill:#007990;}
	.st6{fill:#FF0000;}
	.st7{fill:#F29600;}
	.st8{fill:#CCCCCC;}
	.st9{fill:none;}
</style>
<path class="st8" d="M63.4,88c-24,0-43.6-19.5-43.6-43.6S39.3,0.9,63.4,0.9s43.6,19.5,43.6,43.6S87.4,88,63.4,88z M63.4,6.9
	c-20.7,0-37.6,16.9-37.6,37.6S42.6,82,63.4,82c20.7,0,37.6-16.9,37.6-37.6S84.1,6.9,63.4,6.9z"/>
<g>
	<g>
		<path d="M12.6,126.2l1.7,0.6c-0.6,1-1.2,1.9-2.1,2.8c-0.8,0.9-1.7,1.7-2.7,2.4c-1,0.7-1.9,1.3-2.9,1.8c-0.1-0.2-0.2-0.3-0.4-0.5
			c-0.2-0.2-0.3-0.4-0.5-0.6c-0.2-0.2-0.3-0.4-0.5-0.5c0.9-0.4,1.9-0.9,2.8-1.5c0.9-0.6,1.8-1.3,2.6-2.1
			C11.4,127.7,12,127,12.6,126.2z M5.6,125.7h25.3v1.8H5.6V125.7z M6.8,115h22.8v1.8H6.8V115z M7.7,135.3h21.1v1.8H7.7V135.3z
			 M11.1,112.3h2.1v14.4h-2.1V112.3z M11.4,130.7H25v1.7H11.4V130.7z M12.3,118.6H24v1.6H12.3V118.6z M12.3,122.1H24v1.6H12.3V122.1
			z M17.1,128.3h2.1v8h-2.1V128.3z M23.9,126.2c0.5,0.8,1.1,1.5,1.9,2.3c0.8,0.7,1.6,1.4,2.5,1.9c0.9,0.6,1.9,1,2.8,1.4
			c-0.1,0.1-0.3,0.3-0.5,0.5c-0.2,0.2-0.4,0.4-0.5,0.6s-0.3,0.4-0.4,0.6c-1-0.4-1.9-1-2.9-1.7c-1-0.7-1.8-1.5-2.6-2.3
			c-0.8-0.8-1.5-1.7-2-2.6L23.9,126.2z M23.3,112.3h2.1v14.4h-2.1V112.3z"/>
		<path d="M47,118.8l1.9,0.6c-0.8,2-1.9,3.8-3.1,5.6c-1.2,1.8-2.5,3.4-4,4.8c-1.5,1.4-3,2.6-4.6,3.5c-0.1-0.2-0.3-0.4-0.4-0.6
			c-0.2-0.2-0.4-0.4-0.5-0.6c-0.2-0.2-0.3-0.4-0.5-0.5c1.2-0.6,2.3-1.4,3.4-2.3c1.1-0.9,2.2-1.9,3.1-3.1c1-1.1,1.9-2.4,2.7-3.6
			C45.8,121.5,46.5,120.2,47,118.8z M36.7,118.2h24.3v2.1H36.7V118.2z M42.2,130.6h13v2.1h-13V130.6z M47.7,112.3h2.2v25.6h-2.2
			V112.3z M50.5,118.9c0.7,1.8,1.7,3.5,2.9,5.1c1.2,1.6,2.5,3.1,3.9,4.4s3,2.4,4.6,3.1c-0.2,0.1-0.3,0.3-0.5,0.5s-0.4,0.4-0.6,0.7
			c-0.2,0.2-0.3,0.5-0.5,0.7c-1.6-0.9-3.2-2.1-4.6-3.5c-1.5-1.4-2.8-3-4-4.8s-2.2-3.6-3-5.6L50.5,118.9z"/>
		<path d="M67.5,117.6l1.6,0.2c0,0.7-0.1,1.5-0.2,2.4c-0.1,0.9-0.2,1.8-0.4,2.7c-0.2,0.9-0.4,1.7-0.6,2.4l-1.6-0.6
			c0.2-0.6,0.4-1.4,0.6-2.2c0.2-0.8,0.3-1.7,0.4-2.6C67.4,119.2,67.5,118.4,67.5,117.6z M69.7,112.3h1.9v25.6h-1.9V112.3z
			 M71.8,116.9l1.4-0.6c0.3,0.6,0.6,1.3,0.9,2.1c0.3,0.8,0.5,1.4,0.6,1.9l-1.5,0.7c-0.1-0.5-0.3-1.2-0.6-2
			C72.4,118.3,72.1,117.5,71.8,116.9z M73.9,121.3h18.2v1.6H73.9V121.3z M74.8,114.5h16.5v1.6H74.8V114.5z M75.4,117.8h15.2v1.5
			H75.4V117.8z M75.9,124.5h12.5v1.6H77.9v11.7h-1.9V124.5z M77.4,128.2h11.1v1.6H77.4V128.2z M77.4,131.9h11.2v1.6H77.4V131.9z
			 M81.9,112.3h2.1v9.5h-2.1V112.3z M88,124.5h2v11c0,0.5-0.1,0.9-0.2,1.2c-0.1,0.3-0.4,0.5-0.8,0.7c-0.4,0.2-0.9,0.3-1.6,0.3
			c-0.7,0-1.5,0-2.4,0c0-0.3-0.1-0.6-0.2-0.9c-0.1-0.3-0.2-0.6-0.4-0.9c0.7,0,1.4,0,2,0c0.6,0,1,0,1.2,0c0.3,0,0.5-0.2,0.5-0.5
			V124.5z"/>
		<path d="M97.2,119.7h12.4v1.8H97.2V119.7z M97.6,125.5h11.6v1.8H97.6V125.5z M97.9,130.3h11v1.8h-11V130.3z M98.2,115.1h10.3v1.8
			H98.2V115.1z M99.2,121.9l1.6-0.4c0.3,0.6,0.6,1.2,0.9,1.9c0.2,0.7,0.4,1.3,0.4,1.8l-1.7,0.5c-0.1-0.5-0.2-1.1-0.4-1.8
			S99.5,122.5,99.2,121.9z M102.5,112.3h1.9v8.1h-1.9V112.3z M102.5,126.3h1.9v11.5h-1.9V126.3z M106.3,121.4l1.8,0.4
			c-0.3,0.7-0.6,1.3-0.8,2c-0.3,0.7-0.5,1.3-0.8,1.7l-1.5-0.4c0.1-0.4,0.3-0.8,0.5-1.2s0.3-0.9,0.5-1.3S106.2,121.8,106.3,121.4z
			 M110.5,113.6h9.9v1.9h-8v22.4h-1.9V113.6z M111.5,123h9.1v1.7h-9.1V123z M120,123h0.4l0.4-0.1l1.3,0.5c-0.4,2-0.9,3.9-1.7,5.8
			s-1.7,3.5-2.8,5s-2.4,2.7-3.9,3.8c-0.2-0.2-0.4-0.5-0.7-0.8s-0.5-0.5-0.8-0.7c1.4-0.9,2.6-2.1,3.7-3.5c1-1.4,1.9-2.9,2.6-4.5
			c0.7-1.7,1.2-3.3,1.4-5V123z M114.3,124.2c0.5,1.7,1.2,3.4,2,5c0.9,1.6,1.8,3,3,4.2c1.1,1.2,2.4,2.2,3.8,2.9
			c-0.2,0.2-0.5,0.4-0.8,0.8c-0.3,0.3-0.5,0.6-0.7,0.9c-1.4-0.8-2.7-1.9-3.9-3.2c-1.2-1.3-2.2-2.9-3-4.6c-0.9-1.7-1.6-3.5-2.1-5.5
			L114.3,124.2z M119.4,113.6h1.9v5.4c0,0.5-0.1,0.9-0.2,1.2c-0.1,0.3-0.4,0.5-0.8,0.7c-0.4,0.1-1,0.2-1.7,0.3c-0.7,0-1.6,0-2.7,0
			c0-0.3-0.1-0.6-0.2-0.9c-0.1-0.3-0.3-0.6-0.4-0.9c0.6,0,1.1,0,1.6,0c0.5,0,0.9,0,1.3,0s0.6,0,0.7,0c0.2,0,0.4-0.1,0.5-0.1
			c0.1-0.1,0.1-0.2,0.1-0.3V113.6z"/>
	</g>
</g>
<g>
	<g>
		<path d="M409.6,114.2h18.2v23.3h-2.2v-21.2h-13.9v21.3h-2.1V114.2z M411,133.7h15.6v2.1H411V133.7z M411.1,123.8h15.5v2.1h-15.5
			V123.8z"/>
		<path d="M437.5,114.1h1.9v20.6h-1.9V114.1z M438.5,114.1h7v18.3h-7v-1.9h5V116h-5V114.1z M438.5,122.2h5.8v1.9h-5.8V122.2z
			 M445.9,121h16.3v1.9h-16.3V121z M446,126h15.9v1.9H446V126z M447.1,115.6H461v1.9h-13.9V115.6z M447.7,129.8l1.7-1
			c0.5,0.5,0.9,1,1.4,1.6c0.5,0.6,0.9,1.1,1.3,1.7c0.4,0.6,0.7,1.1,0.9,1.5l-1.8,1.1c-0.2-0.5-0.5-1-0.9-1.5
			c-0.4-0.6-0.8-1.1-1.3-1.7C448.7,130.9,448.2,130.3,447.7,129.8z M456.6,122.6h2.1v12.8c0,0.6-0.1,1.1-0.2,1.4
			c-0.2,0.3-0.5,0.6-0.9,0.7c-0.4,0.2-1,0.3-1.8,0.3s-1.7,0.1-2.8,0.1c0-0.3-0.1-0.6-0.3-1s-0.3-0.7-0.4-1c0.9,0,1.6,0,2.3,0
			c0.7,0,1.2,0,1.4,0c0.2,0,0.4,0,0.5-0.1s0.1-0.2,0.1-0.4V122.6z M452.9,112.3h2.1v9.9h-2.1V112.3z"/>
		<path d="M479.9,122.1c0.6,0,1.1,0.1,1.5,0.4c0.4,0.3,0.8,0.6,1.1,1.1s0.4,0.9,0.4,1.5c0,0.5-0.1,1-0.4,1.5s-0.6,0.8-1.1,1.1
			c-0.4,0.3-0.9,0.4-1.5,0.4c-0.5,0-1-0.1-1.5-0.4c-0.5-0.3-0.8-0.6-1.1-1.1s-0.4-1-0.4-1.5c0-0.6,0.1-1.1,0.4-1.5s0.6-0.8,1.1-1.1
			C478.8,122.3,479.3,122.1,479.9,122.1z"/>
		<path d="M502.7,125.2l2.2,0.3c-0.4,2.8-1,5.3-1.9,7.4c-0.9,2.1-2.1,3.9-3.7,5.2c-0.1-0.1-0.3-0.3-0.5-0.5
			c-0.2-0.2-0.4-0.4-0.7-0.5c-0.2-0.2-0.4-0.3-0.6-0.4c1.5-1.2,2.7-2.8,3.5-4.7S502.4,127.7,502.7,125.2z M498.8,115.5h23.3v6.1
			h-2.1v-4.1h-19.1v4.1h-2.1V115.5z M504.1,128.7c0.5,1.4,1.1,2.6,1.9,3.4c0.8,0.9,1.7,1.5,2.7,2c1,0.5,2.1,0.8,3.4,0.9
			c1.2,0.2,2.6,0.3,4,0.3c0.2,0,0.5,0,1,0c0.5,0,1,0,1.6,0s1.2,0,1.8,0c0.6,0,1.2,0,1.7,0c0.5,0,0.9,0,1.1,0
			c-0.1,0.2-0.2,0.4-0.3,0.6s-0.2,0.5-0.3,0.8s-0.1,0.5-0.2,0.7H521h-5.1c-1.7,0-3.2-0.1-4.6-0.3s-2.7-0.6-3.8-1.2
			c-1.1-0.6-2.1-1.4-3-2.4c-0.9-1.1-1.6-2.4-2.2-4.1L504.1,128.7z M502.4,120.8h16.2v2h-16.2V120.8z M509.3,112.3h2.2v4.5h-2.2
			V112.3z M509.3,121.8h2.2v14.1l-2.2-0.3V121.8z M510.4,127.4h9.4v1.9h-9.4V127.4z"/>
		<path d="M536.5,133.2l1.9,1.3c-0.7,0.4-1.6,0.9-2.6,1.3c-1,0.4-2,0.8-3.1,1.2c-1,0.4-2.1,0.7-3,0.9c-0.2-0.2-0.4-0.5-0.7-0.8
			c-0.3-0.3-0.6-0.6-0.8-0.7c1-0.2,2-0.5,3.1-0.9c1.1-0.4,2-0.7,3-1.1C535.2,134,535.9,133.6,536.5,133.2z M531.2,121.2H551v12
			h-19.8V121.2z M532.4,113.4h17.5v6.3h-17.5V113.4z M533.3,122.8v1.9h15.6v-1.9H533.3z M533.3,126.2v2h15.6v-2H533.3z M533.3,129.7
			v2h15.6v-2H533.3z M534.5,115.1v2.9h13.2v-2.9H534.5z M543.3,134.6l1.8-1.4c1,0.3,2,0.6,3.1,1c1.1,0.4,2.1,0.7,3.1,1.1
			c1,0.4,1.9,0.7,2.6,1l-1.8,1.5c-0.7-0.3-1.5-0.7-2.5-1.1c-1-0.4-2.1-0.8-3.2-1.2S544.3,134.9,543.3,134.6z"/>
		<path d="M564.8,118.2l1.4,0.8c-0.4,0.8-1,1.6-1.7,2.3c-0.7,0.8-1.4,1.5-2.3,2.2s-1.6,1.2-2.4,1.7c-0.1-0.2-0.3-0.5-0.5-0.8
			c-0.2-0.3-0.4-0.6-0.6-0.8c0.8-0.4,1.6-0.8,2.3-1.4c0.8-0.6,1.5-1.2,2.2-1.9C563.9,119.6,564.4,118.9,564.8,118.2z M558.8,127.1
			h13.7v1.7h-13.7V127.1z M568.2,128.2l1.9,0.2c-0.2,1.4-0.6,2.5-1.1,3.6s-1.2,1.9-2,2.7s-1.8,1.4-3,1.9c-1.2,0.5-2.6,1-4.2,1.3
			c-0.1-0.3-0.2-0.6-0.4-0.9c-0.2-0.3-0.4-0.6-0.5-0.8c1.9-0.3,3.6-0.8,4.8-1.5c1.3-0.6,2.2-1.5,3-2.6
			C567.4,131,567.9,129.7,568.2,128.2z M559,117.4h13.4v1.7H559V117.4z M564,124.7l2,0.4c-0.4,0.9-0.9,1.8-1.4,2.9s-1,2-1.5,2.9
			s-1,1.8-1.4,2.5l-1.8-0.6c0.4-0.7,0.9-1.5,1.4-2.4c0.5-0.9,1-1.9,1.5-2.9C563.2,126.5,563.6,125.6,564,124.7z M560.1,113.6
			l1.6-0.6c0.4,0.6,0.8,1.2,1.1,1.8c0.3,0.7,0.6,1.3,0.7,1.8l-1.7,0.7c-0.1-0.5-0.3-1.1-0.7-1.8S560.4,114.2,560.1,113.6z
			 M561.5,132.4l1.1-1.4c1.1,0.4,2.2,0.9,3.3,1.4c1.1,0.5,2.1,1.1,3.1,1.6c0.9,0.6,1.8,1.1,2.4,1.6l-1.4,1.5
			c-0.6-0.5-1.4-1.1-2.3-1.6c-0.9-0.6-1.9-1.1-2.9-1.6C563.7,133.4,562.6,132.9,561.5,132.4z M564.8,112.3h1.9V125h-1.9V112.3z
			 M566.5,119.1c0.2,0.1,0.6,0.3,1.1,0.6c0.5,0.3,1,0.6,1.6,1c0.6,0.4,1.1,0.7,1.5,1c0.5,0.3,0.8,0.5,1,0.7l-1.2,1.5
			c-0.2-0.2-0.6-0.5-1-0.9s-0.9-0.7-1.4-1.1c-0.5-0.4-1-0.8-1.5-1.1c-0.5-0.4-0.8-0.6-1.1-0.8L566.5,119.1z M569.9,112.8l1.8,0.8
			c-0.4,0.6-0.8,1.3-1.3,1.9c-0.4,0.6-0.8,1.2-1.2,1.7l-1.4-0.7c0.4-0.5,0.7-1.1,1.1-1.8S569.7,113.4,569.9,112.8z M580.7,118.5
			l2.1,0.2c-0.4,3.2-1.1,6-2,8.5c-0.9,2.4-2.1,4.5-3.6,6.3c-1.5,1.8-3.4,3.3-5.7,4.5c-0.1-0.2-0.2-0.4-0.3-0.6
			c-0.1-0.2-0.3-0.5-0.5-0.7c-0.2-0.2-0.3-0.4-0.5-0.6c2.2-1,4-2.4,5.4-4c1.4-1.6,2.5-3.5,3.3-5.8
			C579.7,124.1,580.3,121.5,580.7,118.5z M575.2,112.3l2.1,0.3c-0.3,1.8-0.7,3.6-1.2,5.2c-0.5,1.7-1,3.2-1.7,4.7
			c-0.6,1.4-1.4,2.7-2.2,3.8c-0.1-0.1-0.3-0.3-0.5-0.5c-0.2-0.2-0.4-0.4-0.7-0.5c-0.2-0.2-0.4-0.3-0.6-0.4c0.8-1,1.5-2.1,2.1-3.5
			c0.6-1.3,1.1-2.8,1.5-4.3C574.6,115.5,575,113.9,575.2,112.3z M575.7,119.1c0.4,2.6,1,5,1.7,7.2c0.8,2.2,1.7,4.2,2.9,5.9
			s2.7,3,4.4,3.9c-0.2,0.1-0.3,0.3-0.5,0.5c-0.2,0.2-0.4,0.4-0.5,0.6c-0.2,0.2-0.3,0.4-0.4,0.6c-1.8-1.1-3.3-2.5-4.6-4.3
			c-1.2-1.8-2.3-3.9-3-6.3c-0.8-2.4-1.4-5-1.9-7.8L575.7,119.1z M574.5,117.4h9.9v1.9h-9.9V117.4z"/>
	</g>
</g>
<g>
	<g>
		<path class="st7" d="M907.8,127.1h2.8c-0.1,1.3-0.4,2.5-0.7,3.7c-0.3,1.1-0.8,2.1-1.4,3.1c-0.6,0.9-1.5,1.7-2.6,2.4
			c-1.1,0.7-2.5,1.3-4.3,1.8c-0.1-0.2-0.2-0.5-0.4-0.8c-0.2-0.3-0.4-0.6-0.6-0.8c-0.2-0.3-0.4-0.5-0.6-0.7c1.6-0.4,2.8-0.9,3.8-1.4
			c1-0.5,1.7-1.2,2.3-1.9c0.5-0.7,0.9-1.5,1.1-2.4S907.7,128.1,907.8,127.1z M900.7,125.2h24.8v2.5h-24.8V125.2z M901.3,115h23.6
			v6.2h-2.8v-3.7H904v3.7h-2.7V115z M905.7,120.2h14.8v2.4h-14.8V120.2z M911.6,112.2h2.8v4.7h-2.8V112.2z M914.9,126.8h2.7v7.4
			c0,0.4,0.1,0.7,0.2,0.8s0.5,0.2,1,0.2c0.1,0,0.3,0,0.7,0c0.3,0,0.6,0,1,0s0.7,0,1,0s0.6,0,0.7,0c0.3,0,0.6-0.1,0.8-0.2
			c0.2-0.2,0.3-0.5,0.4-1c0.1-0.5,0.1-1.3,0.1-2.3c0.2,0.1,0.4,0.3,0.7,0.4c0.3,0.1,0.6,0.2,0.9,0.4c0.3,0.1,0.6,0.2,0.8,0.3
			c-0.1,1.3-0.3,2.3-0.5,3s-0.6,1.2-1,1.5c-0.5,0.3-1.1,0.4-1.9,0.4c-0.2,0-0.4,0-0.8,0s-0.8,0-1.2,0s-0.9,0-1.2,0
			c-0.4,0-0.6,0-0.8,0c-0.9,0-1.7-0.1-2.2-0.3c-0.5-0.2-0.9-0.5-1.1-1c-0.2-0.5-0.3-1.2-0.3-2V126.8z"/>
		<path class="st7" d="M932.5,114.2h19.8v2.6h-19.8V114.2z M942.4,121.7h2.8v13.1c0,0.8-0.1,1.4-0.4,1.8c-0.2,0.4-0.7,0.7-1.3,0.9
			c-0.6,0.2-1.4,0.3-2.4,0.4c-1,0-2.1,0.1-3.5,0.1c-0.1-0.4-0.2-0.8-0.4-1.3c-0.2-0.5-0.4-1-0.7-1.3c0.7,0,1.4,0.1,2.1,0.1
			c0.7,0,1.3,0,1.8,0c0.5,0,0.9,0,1.1,0c0.3,0,0.5,0,0.6-0.1s0.2-0.3,0.2-0.5V121.7z M951.4,114.2h0.7l0.6-0.2l2.1,1.5
			c-0.8,1-1.8,2-2.9,3c-1.1,1-2.2,2-3.4,3c-1.2,0.9-2.3,1.7-3.5,2.4c-0.1-0.2-0.3-0.4-0.5-0.6s-0.4-0.4-0.7-0.7
			c-0.2-0.2-0.4-0.4-0.6-0.5c0.8-0.5,1.5-1,2.3-1.6c0.8-0.6,1.5-1.2,2.3-1.9c0.7-0.7,1.4-1.3,2-2c0.6-0.6,1.1-1.3,1.5-1.8V114.2z"/>
	</g>
</g>
<g>
	<g>
		<path class="st8" d="M66.1,57h-4V39.6h-5.3v-3c3-0.2,5.2-0.7,6.1-4.7h3.2V57z"/>
	</g>
</g>
<path class="st8" d="M496.6,88c-24,0-43.6-19.5-43.6-43.6s19.5-43.6,43.6-43.6s43.6,19.5,43.6,43.6S520.6,88,496.6,88z M496.6,6.9
	c-20.7,0-37.6,16.9-37.6,37.6S475.9,82,496.6,82c20.7,0,37.6-16.9,37.6-37.6S517.3,6.9,496.6,6.9z"/>
<g>
	<path class="st8" d="M506.5,57h-20.9c0.3-4.7,2.7-7.1,9.2-11.1c6.2-3.8,7.5-4.6,7.5-7.2c0-2.8-2.6-4-5.6-4c-5.7,0-6.4,3.6-6.6,6.3
		H486c0.1-1.2,0.3-3.8,1.7-5.8c2.4-3.5,6.6-4,9-4c6,0,9.7,3.1,9.7,7.4c0,3.2-1.6,5.4-6.7,8.4c-6,3.5-7,4.4-8.6,6.5h15.4V57z"/>
</g>
<path class="st7" d="M929.8,88c-24,0-43.6-19.5-43.6-43.6s19.5-43.6,43.6-43.6c24,0,43.6,19.5,43.6,43.6S953.8,88,929.8,88z
	 M929.8,6.9c-20.7,0-37.6,16.9-37.6,37.6S909.1,82,929.8,82c20.7,0,37.6-16.9,37.6-37.6S950.5,6.9,929.8,6.9z"/>
<g>
	<g>
		<path class="st7" d="M927.5,42.3h2.1c2.8,0,5.4-1.3,5.4-3.9c0-3.7-4.6-3.7-5.5-3.7c-4.4,0-5.7,1.9-5.8,4.7h-4.1
			c0.2-1.3,0.4-3.8,2.7-5.8c2.4-2.1,5.9-2.3,7.5-2.3c5.8,0,9.3,2.8,9.3,6.7c0,4.1-3.3,5.1-4.6,5.6c4.1,1.1,5.1,3.7,5.1,6.1
			c0,4.1-2.9,8.1-10.4,8.1c-2.4,0-9.8-0.2-10.5-9h4.1c0.3,3.4,1.8,5.5,6.1,5.5c1,0,6.5,0,6.5-4.6c0-3.8-3.5-4.5-5.6-4.5h-2.4V42.3z"
			/>
	</g>
</g>
<rect x="142.5" y="39.3" class="st8" width="280.6" height="6"/>
<rect x="572.9" y="39.3" class="st8" width="280.6" height="6"/>
<polygon class="st9" points="992.2,0 0,0 1,138.9 993.1,138.9 "/>
</svg>
