<?xml version="1.0" encoding="utf-8"?>
<!-- Generator: Adobe Illustrator 28.1.0, SVG Export Plug-In . SVG Version: 6.00 Build 0)  -->
<svg version="1.1" id="レイヤー_1" xmlns="http://www.w3.org/2000/svg" xmlns:xlink="http://www.w3.org/1999/xlink" x="0px"
	 y="0px" viewBox="0 0 633.1 138.9" style="enable-background:new 0 0 633.1 138.9;" xml:space="preserve">
<style type="text/css">
	.st0{fill:#59C2E1;}
	.st1{fill:none;stroke:#00BDE1;stroke-width:3;stroke-miterlimit:10;}
	.st2{fill:none;stroke:#CCCCCC;stroke-width:3;stroke-miterlimit:10;}
	.st3{fill:#00BDE1;}
	.st4{fill:#66D7ED;}
	.st5{fill:#007990;}
	.st6{fill:#FF0000;}
	.st7{fill:#F29600;}
	.st8{fill:#CCCCCC;}
	.st9{fill:none;}
</style>
<g>
	<path class="st8" d="M63.4,88c-24,0-43.6-19.5-43.6-43.6S39.3,0.9,63.4,0.9s43.6,19.5,43.6,43.6S87.4,88,63.4,88z M63.4,6.9
		c-20.7,0-37.6,16.9-37.6,37.6S42.6,82,63.4,82c20.7,0,37.6-16.9,37.6-37.6S84.1,6.9,63.4,6.9z"/>
	<g>
		<g>
			<path d="M12.6,126.2l1.7,0.6c-0.6,1-1.2,1.9-2.1,2.8c-0.8,0.9-1.7,1.7-2.7,2.4c-1,0.7-1.9,1.3-2.9,1.8c-0.1-0.2-0.2-0.3-0.4-0.5
				c-0.2-0.2-0.3-0.4-0.5-0.6c-0.2-0.2-0.3-0.4-0.5-0.5c0.9-0.4,1.9-0.9,2.8-1.5c0.9-0.6,1.8-1.3,2.6-2.1
				C11.4,127.7,12,127,12.6,126.2z M5.6,125.7h25.3v1.8H5.6V125.7z M6.8,115h22.8v1.8H6.8V115z M7.7,135.3h21.1v1.8H7.7V135.3z
				 M11.1,112.3h2.1v14.4h-2.1V112.3z M11.4,130.7H25v1.7H11.4V130.7z M12.3,118.6H24v1.6H12.3V118.6z M12.3,122.1H24v1.6H12.3
				V122.1z M17.1,128.3h2.1v8h-2.1V128.3z M23.9,126.2c0.5,0.8,1.1,1.5,1.9,2.3c0.8,0.7,1.6,1.4,2.5,1.9c0.9,0.6,1.9,1,2.8,1.4
				c-0.1,0.1-0.3,0.3-0.5,0.5c-0.2,0.2-0.4,0.4-0.5,0.6s-0.3,0.4-0.4,0.6c-1-0.4-1.9-1-2.9-1.7c-1-0.7-1.8-1.5-2.6-2.3
				c-0.8-0.8-1.5-1.7-2-2.6L23.9,126.2z M23.3,112.3h2.1v14.4h-2.1V112.3z"/>
			<path d="M47,118.8l1.9,0.6c-0.8,2-1.9,3.8-3.1,5.6c-1.2,1.8-2.5,3.4-4,4.8c-1.5,1.4-3,2.6-4.6,3.5c-0.1-0.2-0.3-0.4-0.4-0.6
				c-0.2-0.2-0.4-0.4-0.5-0.6c-0.2-0.2-0.3-0.4-0.5-0.5c1.2-0.6,2.3-1.4,3.4-2.3c1.1-0.9,2.2-1.9,3.1-3.1c1-1.1,1.9-2.4,2.7-3.6
				S46.4,120.2,47,118.8z M36.7,118.2h24.3v2.1H36.7V118.2z M42.2,130.6h13v2.1h-13V130.6z M47.7,112.3h2.2v25.6h-2.2V112.3z
				 M50.5,118.9c0.7,1.8,1.7,3.5,2.9,5.1c1.2,1.6,2.5,3.1,3.9,4.4c1.5,1.3,3,2.4,4.6,3.1c-0.2,0.1-0.3,0.3-0.5,0.5s-0.4,0.4-0.6,0.7
				c-0.2,0.2-0.3,0.5-0.5,0.7c-1.6-0.9-3.2-2.1-4.6-3.5c-1.5-1.4-2.8-3-4-4.8c-1.2-1.8-2.2-3.6-3-5.6L50.5,118.9z"/>
			<path d="M67.5,117.6l1.6,0.2c0,0.7-0.1,1.5-0.2,2.4c-0.1,0.9-0.2,1.8-0.4,2.7c-0.2,0.9-0.4,1.7-0.6,2.4l-1.6-0.6
				c0.2-0.6,0.4-1.4,0.6-2.2c0.2-0.8,0.3-1.7,0.4-2.6C67.4,119.2,67.5,118.4,67.5,117.6z M69.7,112.3h1.9v25.6h-1.9V112.3z
				 M71.8,116.9l1.4-0.6c0.3,0.6,0.6,1.3,0.9,2.1c0.3,0.8,0.5,1.4,0.6,1.9l-1.5,0.7c-0.1-0.5-0.3-1.2-0.6-2
				C72.4,118.3,72.1,117.5,71.8,116.9z M73.9,121.3h18.2v1.6H73.9V121.3z M74.8,114.5h16.5v1.6H74.8V114.5z M75.4,117.8h15.2v1.5
				H75.4V117.8z M75.9,124.5h12.5v1.6H77.9v11.7h-1.9V124.5z M77.4,128.2h11.1v1.6H77.4V128.2z M77.4,131.9h11.2v1.6H77.4V131.9z
				 M81.9,112.3h2.1v9.5h-2.1V112.3z M88,124.5h2v11c0,0.5-0.1,0.9-0.2,1.2s-0.4,0.5-0.8,0.7c-0.4,0.2-0.9,0.3-1.6,0.3
				c-0.6,0-1.5,0-2.4,0c0-0.3-0.1-0.6-0.2-0.9c-0.1-0.3-0.2-0.6-0.4-0.9c0.7,0,1.4,0,2,0c0.6,0,1,0,1.2,0c0.3,0,0.5-0.2,0.5-0.5
				V124.5z"/>
			<path d="M97.2,119.7h12.4v1.8H97.2V119.7z M97.6,125.5h11.6v1.8H97.6V125.5z M97.9,130.3h11v1.8h-11V130.3z M98.2,115.1h10.3v1.8
				H98.2V115.1z M99.2,121.9l1.6-0.4c0.3,0.6,0.6,1.2,0.9,1.9c0.2,0.7,0.4,1.3,0.4,1.8l-1.7,0.5c-0.1-0.5-0.2-1.1-0.4-1.8
				S99.5,122.5,99.2,121.9z M102.5,112.3h1.9v8.1h-1.9V112.3z M102.5,126.3h1.9v11.5h-1.9V126.3z M106.3,121.4l1.8,0.4
				c-0.3,0.7-0.6,1.3-0.8,2c-0.3,0.7-0.5,1.3-0.8,1.7l-1.5-0.4c0.1-0.4,0.3-0.8,0.5-1.2c0.2-0.4,0.3-0.9,0.5-1.3
				S106.2,121.8,106.3,121.4z M110.5,113.6h9.9v1.9h-8v22.4h-1.9V113.6z M111.5,123h9.1v1.7h-9.1V123z M120,123h0.4l0.4-0.1l1.3,0.5
				c-0.4,2-0.9,3.9-1.7,5.8c-0.7,1.8-1.7,3.5-2.8,5c-1.1,1.5-2.4,2.7-3.9,3.8c-0.2-0.2-0.4-0.5-0.7-0.8c-0.3-0.3-0.5-0.5-0.8-0.7
				c1.4-0.9,2.6-2.1,3.7-3.5s1.9-2.9,2.6-4.5c0.7-1.7,1.2-3.3,1.4-5V123z M114.3,124.2c0.5,1.7,1.2,3.4,2,5c0.9,1.6,1.8,3,3,4.2
				c1.1,1.2,2.4,2.2,3.8,2.9c-0.2,0.2-0.5,0.4-0.8,0.8c-0.3,0.3-0.5,0.6-0.7,0.9c-1.4-0.8-2.7-1.9-3.9-3.2c-1.2-1.3-2.2-2.9-3-4.6
				s-1.6-3.5-2.1-5.5L114.3,124.2z M119.4,113.6h1.9v5.4c0,0.5-0.1,0.9-0.2,1.2c-0.1,0.3-0.4,0.5-0.8,0.7c-0.4,0.1-1,0.2-1.7,0.3
				c-0.7,0-1.6,0-2.7,0c0-0.3-0.1-0.6-0.2-0.9c-0.1-0.3-0.3-0.6-0.4-0.9c0.6,0,1.1,0,1.6,0c0.5,0,0.9,0,1.3,0c0.4,0,0.6,0,0.7,0
				c0.2,0,0.4-0.1,0.5-0.1c0.1-0.1,0.1-0.2,0.1-0.3V113.6z"/>
		</g>
	</g>
	<g>
		<g>
			<path class="st7" d="M229.4,113.9h18.7v23.6h-2.8v-20.9h-13.2v21.1h-2.7V113.9z M231.2,133.2h15.4v2.6h-15.4V133.2z M231.2,123.5
				h15.3v2.6h-15.3V123.5z"/>
			<path class="st7" d="M257.3,113.9h2.4v21h-2.4V113.9z M258.5,113.9h7v18.6h-7v-2.4h4.6v-13.9h-4.6V113.9z M258.7,121.9h5.6v2.3
				h-5.6V121.9z M266.1,120.7h16.1v2.3h-16.1V120.7z M266.2,125.9H282v2.3h-15.8V125.9z M267.1,115.3h14.1v2.3h-14.1V115.3z
				 M267.6,130.1l2.1-1.2c0.4,0.5,0.9,1,1.4,1.5c0.5,0.6,0.9,1.1,1.3,1.7c0.4,0.5,0.7,1,0.9,1.5l-2.3,1.4c-0.2-0.4-0.5-1-0.8-1.5
				c-0.4-0.6-0.8-1.1-1.2-1.7C268.5,131.1,268.1,130.6,267.6,130.1z M276.4,122.8h2.6v12.3c0,0.7-0.1,1.2-0.3,1.6
				c-0.2,0.4-0.5,0.7-1,0.9c-0.5,0.2-1.1,0.3-1.8,0.4c-0.7,0-1.7,0.1-2.8,0.1c-0.1-0.4-0.2-0.8-0.3-1.2c-0.2-0.5-0.3-0.9-0.5-1.2
				c0.8,0,1.5,0,2.2,0c0.7,0,1.1,0,1.3,0c0.2,0,0.4-0.1,0.5-0.1c0.1-0.1,0.1-0.2,0.1-0.4V122.8z M272.8,112.1h2.6v10h-2.6V112.1z"/>
			<path class="st7" d="M299.9,121.9c0.6,0,1.1,0.1,1.6,0.4c0.5,0.3,0.9,0.7,1.2,1.2c0.3,0.5,0.4,1,0.4,1.6c0,0.6-0.1,1.1-0.4,1.6
				c-0.3,0.5-0.7,0.9-1.2,1.2c-0.5,0.3-1,0.4-1.6,0.4c-0.6,0-1.1-0.1-1.6-0.4c-0.5-0.3-0.9-0.7-1.2-1.2c-0.3-0.5-0.4-1-0.4-1.6
				c0-0.6,0.1-1.1,0.4-1.6c0.3-0.5,0.7-0.9,1.2-1.2S299.3,121.9,299.9,121.9z"/>
			<path class="st7" d="M322.4,125.2l2.7,0.3c-0.4,2.8-1,5.3-1.9,7.4s-2.2,3.9-3.7,5.3c-0.1-0.2-0.3-0.4-0.6-0.6
				c-0.3-0.2-0.5-0.5-0.8-0.7c-0.3-0.2-0.5-0.4-0.7-0.5c1.5-1.1,2.7-2.7,3.5-4.6C321.6,129.8,322.2,127.6,322.4,125.2z M318.7,115.2
				h23.5v6.5h-2.7v-4h-18.2v4h-2.6V115.2z M324.4,128.7c0.5,1.4,1.1,2.5,1.8,3.3c0.7,0.8,1.6,1.5,2.6,1.9c1,0.4,2,0.7,3.2,0.9
				c1.2,0.2,2.4,0.2,3.8,0.2c0.3,0,0.6,0,1.1,0c0.5,0,1,0,1.6,0s1.2,0,1.8,0c0.6,0,1.2,0,1.7,0c0.5,0,1,0,1.3,0
				c-0.1,0.2-0.3,0.5-0.4,0.8c-0.1,0.3-0.2,0.7-0.3,1c-0.1,0.3-0.2,0.6-0.2,0.9h-1.4h-5.3c-1.6,0-3.1-0.1-4.5-0.3s-2.6-0.6-3.7-1.2
				c-1.1-0.6-2.1-1.4-2.9-2.5c-0.9-1.1-1.6-2.5-2.2-4.2L324.4,128.7z M322.6,120.6h15.9v2.5h-15.9V120.6z M329,112.2h2.8v4.7H329
				V112.2z M329.1,122h2.7v13.8l-2.7-0.4V122z M330.5,127.3h9.4v2.5h-9.4V127.3z"/>
			<path class="st7" d="M356.4,133l2.4,1.6c-0.7,0.4-1.6,0.9-2.6,1.3c-1,0.4-2,0.8-3.1,1.2c-1.1,0.4-2.1,0.7-3,0.9
				c-0.2-0.3-0.5-0.6-0.9-1c-0.4-0.4-0.7-0.7-1.1-0.9c1-0.2,2-0.5,3.1-0.8c1.1-0.3,2-0.7,3-1.1C355.1,133.7,355.8,133.3,356.4,133z
				 M351.1,121.1h20.1v12.2h-20.1V121.1z M352.3,113.1h17.8v6.6h-17.8V113.1z M353.7,123v1.6h14.7V123H353.7z M353.7,126.4v1.6h14.7
				v-1.6H353.7z M353.7,129.7v1.7h14.7v-1.7H353.7z M354.9,115.2v2.4h12.4v-2.4H354.9z M362.9,134.8l2.3-1.7c1,0.3,2,0.6,3.1,0.9
				c1.1,0.4,2.1,0.7,3.1,1.1c1,0.4,1.9,0.7,2.6,1l-2.3,1.9c-0.7-0.3-1.6-0.7-2.6-1.1s-2.1-0.8-3.2-1.2
				C364.9,135.4,363.9,135.1,362.9,134.8z"/>
			<path class="st7" d="M384.6,118.1l1.7,1c-0.5,0.8-1,1.5-1.7,2.3c-0.7,0.8-1.4,1.5-2.3,2.1c-0.8,0.6-1.6,1.2-2.4,1.6
				c-0.1-0.3-0.4-0.6-0.6-1s-0.5-0.7-0.8-0.9c0.8-0.3,1.6-0.7,2.3-1.3c0.8-0.5,1.5-1.1,2.1-1.8C383.6,119.5,384.2,118.8,384.6,118.1
				z M378.7,126.9h13.9v2.2h-13.9V126.9z M387.9,128.2l2.4,0.3c-0.3,1.4-0.6,2.6-1.1,3.6c-0.5,1-1.2,1.9-2,2.7
				c-0.8,0.7-1.8,1.4-3,1.9c-1.2,0.5-2.6,0.9-4.2,1.3c-0.1-0.4-0.2-0.8-0.4-1.2c-0.2-0.4-0.4-0.8-0.7-1c1.9-0.3,3.5-0.7,4.7-1.3
				c1.2-0.6,2.2-1.4,2.9-2.4C387.1,131.1,387.6,129.8,387.9,128.2z M378.9,117.1h13.5v2.1h-13.5V117.1z M383.8,124.6l2.4,0.5
				c-0.4,0.9-0.9,1.9-1.4,2.9c-0.5,1-1,2-1.5,2.9c-0.5,0.9-1,1.8-1.4,2.5l-2.3-0.8c0.4-0.7,0.9-1.5,1.4-2.5c0.5-0.9,1-1.9,1.5-2.9
				C383,126.4,383.4,125.5,383.8,124.6z M379.8,113.5l1.9-0.8c0.4,0.6,0.7,1.2,1.1,1.8c0.3,0.7,0.6,1.2,0.7,1.7l-2,0.9
				c-0.1-0.5-0.3-1.1-0.6-1.8S380.2,114.1,379.8,113.5z M381.6,132.6l1.4-1.8c1.1,0.4,2.2,0.9,3.3,1.4s2.1,1.1,3,1.6
				c0.9,0.6,1.7,1.1,2.4,1.6l-1.8,1.9c-0.6-0.5-1.4-1.1-2.3-1.6c-0.9-0.6-1.9-1.1-2.9-1.7C383.7,133.5,382.7,133,381.6,132.6z
				 M384.5,112.1h2.4V125h-2.4V112.1z M386.7,119c0.2,0.1,0.6,0.3,1.1,0.6c0.5,0.3,1,0.6,1.5,0.9s1,0.6,1.5,0.9
				c0.5,0.3,0.8,0.5,1,0.7l-1.4,1.8c-0.2-0.2-0.6-0.5-1-0.9c-0.4-0.4-0.9-0.7-1.4-1.1c-0.5-0.4-1-0.7-1.4-1.1
				c-0.5-0.3-0.8-0.6-1.1-0.8L386.7,119z M389.7,112.6l2.3,0.9c-0.4,0.6-0.9,1.3-1.3,1.9c-0.4,0.6-0.8,1.2-1.2,1.6l-1.8-0.8
				c0.4-0.5,0.7-1.1,1.1-1.8C389.2,113.8,389.5,113.2,389.7,112.6z M400.3,118.7l2.7,0.3c-0.4,3.2-1.1,6-1.9,8.4
				c-0.9,2.4-2,4.5-3.5,6.3c-1.5,1.8-3.4,3.2-5.7,4.4c-0.1-0.2-0.2-0.5-0.4-0.8c-0.2-0.3-0.4-0.6-0.6-0.9s-0.4-0.5-0.6-0.7
				c2.2-1,3.9-2.3,5.3-3.8c1.4-1.5,2.4-3.4,3.2-5.6C399.5,124.1,400,121.6,400.3,118.7z M395,112.1l2.7,0.4
				c-0.3,1.9-0.7,3.6-1.1,5.4s-1,3.3-1.7,4.8c-0.6,1.5-1.4,2.8-2.2,3.9c-0.1-0.2-0.3-0.4-0.6-0.6c-0.3-0.2-0.5-0.5-0.8-0.7
				c-0.3-0.2-0.5-0.4-0.7-0.5c0.8-1,1.5-2.1,2.1-3.5c0.6-1.3,1.1-2.8,1.5-4.3C394.5,115.4,394.8,113.8,395,112.1z M396,119.3
				c0.4,2.5,1,4.8,1.7,6.9c0.7,2.2,1.7,4.1,2.9,5.7s2.6,2.9,4.4,3.8c-0.2,0.2-0.4,0.4-0.7,0.7c-0.2,0.3-0.5,0.5-0.7,0.8
				c-0.2,0.3-0.4,0.5-0.5,0.8c-1.8-1.1-3.4-2.5-4.6-4.3c-1.2-1.8-2.2-3.9-3-6.2c-0.8-2.4-1.4-4.9-1.8-7.7L396,119.3z M394.5,117.3
				h10v2.4h-10V117.3z"/>
		</g>
	</g>
	<g>
		<g>
			<path d="M548.1,126.8h2.3c-0.1,1.4-0.4,2.6-0.7,3.8c-0.3,1.2-0.8,2.2-1.4,3.1c-0.6,0.9-1.5,1.7-2.6,2.4c-1.1,0.7-2.5,1.3-4.2,1.8
				c-0.1-0.2-0.2-0.4-0.3-0.6c-0.1-0.2-0.3-0.4-0.4-0.7c-0.2-0.2-0.3-0.4-0.5-0.5c1.6-0.4,2.9-0.9,3.8-1.5c1-0.6,1.8-1.3,2.3-2.1
				c0.6-0.8,1-1.7,1.2-2.6C547.8,129,548,128,548.1,126.8z M540.8,125.5h24.7v2h-24.7V125.5z M541.4,115.3h23.4v5.9h-2.2v-3.9h-19.1
				v3.9h-2.1V115.3z M545.5,120.3h15.1v1.9h-15.1V120.3z M551.9,112.3h2.2v4.4h-2.2V112.3z M555.1,126.7h2.1v7.8
				c0,0.4,0.1,0.7,0.2,0.8c0.2,0.1,0.5,0.2,1.1,0.2c0.1,0,0.4,0,0.7,0c0.3,0,0.7,0,1.2,0c0.4,0,0.8,0,1.2,0c0.4,0,0.7,0,0.8,0
				c0.4,0,0.6-0.1,0.8-0.3c0.2-0.2,0.3-0.5,0.4-1s0.1-1.3,0.2-2.4c0.1,0.1,0.3,0.2,0.6,0.3c0.2,0.1,0.5,0.2,0.7,0.3
				c0.2,0.1,0.5,0.2,0.6,0.2c-0.1,1.3-0.2,2.3-0.4,3c-0.2,0.7-0.5,1.2-0.9,1.4c-0.4,0.3-1,0.4-1.8,0.4c-0.1,0-0.4,0-0.8,0
				s-0.9,0-1.3,0c-0.5,0-0.9,0-1.3,0c-0.4,0-0.7,0-0.8,0c-0.9,0-1.5-0.1-2-0.2c-0.5-0.2-0.8-0.4-1-0.9c-0.2-0.4-0.3-1-0.3-1.7V126.7
				z"/>
			<path d="M572.5,114.5h20.1v2.1h-20.1V114.5z M582.6,121.8h2.2v13.4c0,0.7-0.1,1.2-0.3,1.6s-0.6,0.6-1.2,0.8
				c-0.5,0.2-1.3,0.3-2.2,0.3c-0.9,0-2.1,0-3.5,0c-0.1-0.3-0.2-0.6-0.3-1c-0.2-0.4-0.3-0.7-0.5-1c0.8,0,1.5,0,2.2,0
				c0.7,0,1.3,0,1.8,0s0.9,0,1.1,0c0.3,0,0.5-0.1,0.6-0.2s0.2-0.3,0.2-0.5V121.8z M591.9,114.5h0.5l0.5-0.1l1.6,1.2
				c-0.8,1-1.8,2-2.9,3c-1.1,1-2.2,2-3.4,2.9c-1.2,0.9-2.4,1.7-3.5,2.3c-0.1-0.2-0.2-0.3-0.4-0.5c-0.2-0.2-0.3-0.4-0.5-0.5
				c-0.2-0.2-0.3-0.3-0.5-0.4c0.8-0.4,1.6-1,2.4-1.5c0.8-0.6,1.6-1.2,2.4-1.9c0.8-0.7,1.5-1.3,2.1-2c0.6-0.6,1.2-1.3,1.6-1.8V114.5z
				"/>
		</g>
	</g>
	<g>
		<g>
			<path class="st8" d="M66.1,57h-4V39.6h-5.3v-3c3-0.2,5.2-0.7,6.1-4.7h3.2V57z"/>
		</g>
	</g>
	<path class="st7" d="M316.6,88c-24,0-43.6-19.5-43.6-43.6s19.5-43.6,43.6-43.6c24,0,43.6,19.5,43.6,43.6S340.6,88,316.6,88z
		 M316.6,6.9c-20.7,0-37.6,16.9-37.6,37.6S295.9,82,316.6,82c20.7,0,37.6-16.9,37.6-37.6S337.3,6.9,316.6,6.9z"/>
	<g>
		<g>
			<path class="st7" d="M326.5,57h-20.9c0.3-4.7,2.7-7.1,9.2-11.1c6.2-3.8,7.5-4.6,7.5-7.2c0-2.8-2.6-4-5.6-4
				c-5.7,0-6.4,3.6-6.6,6.3H306c0.1-1.2,0.3-3.8,1.7-5.8c2.4-3.5,6.6-4,9-4c6,0,9.7,3.1,9.7,7.4c0,3.2-1.6,5.4-6.7,8.4
				c-6,3.5-7,4.4-8.5,6.5h15.4V57z"/>
		</g>
	</g>
	<path class="st8" d="M569.8,88c-24,0-43.6-19.5-43.6-43.6s19.5-43.6,43.6-43.6c24,0,43.6,19.5,43.6,43.6S593.8,88,569.8,88z
		 M569.8,6.9c-20.7,0-37.6,16.9-37.6,37.6S549.1,82,569.8,82c20.7,0,37.6-16.9,37.6-37.6S590.5,6.9,569.8,6.9z"/>
	<g>
		<path class="st8" d="M567.5,42.3h2.1c2.8,0,5.4-1.3,5.4-3.9c0-3.7-4.6-3.7-5.5-3.7c-4.4,0-5.7,1.9-5.8,4.7h-4.1
			c0.2-1.3,0.4-3.8,2.7-5.8c2.4-2.1,5.9-2.3,7.5-2.3c5.8,0,9.3,2.8,9.3,6.7c0,4.1-3.3,5.1-4.6,5.6c4.1,1.1,5.1,3.7,5.1,6.1
			c0,4.1-2.9,8.1-10.4,8.1c-2.4,0-9.8-0.2-10.5-9h4.1c0.3,3.4,1.8,5.5,6.1,5.5c1,0,6.5,0,6.5-4.6c0-3.8-3.5-4.5-5.6-4.5h-2.4V42.3z"
			/>
	</g>
	<rect x="142.5" y="39.3" class="st8" width="100.6" height="6"/>
	<rect x="392.9" y="39.3" class="st8" width="100.6" height="6"/>
	<polygon class="st9" points="632.2,0 0,0 1,138.9 633.1,138.9 	"/>
</g>
</svg>
