<?xml version="1.0" encoding="utf-8"?>
<!-- Generator: Adobe Illustrator 28.0.0, SVG Export Plug-In . SVG Version: 6.00 Build 0)  -->
<svg version="1.1" id="レイヤー_1" xmlns="http://www.w3.org/2000/svg" xmlns:xlink="http://www.w3.org/1999/xlink" x="0px"
	 y="0px" viewBox="0 0 104.2 80.8" style="enable-background:new 0 0 104.2 80.8;" xml:space="preserve">
<style type="text/css">
	.st0{fill:none;}
	.st1{fill:#FEF4E5;}
	.st2{fill:#FFFFFF;}
	.st3{fill:#F29600;}
</style>
<g>
	<rect y="0" class="st0" width="104.2" height="80.8"/>
	<g>
		<path class="st1" d="M82.9,14.3c1.3,8.7-1,22.6-19.8,38.4C47.2,66,33.4,69.2,23.6,69c7.3,7.3,17.4,11.8,28.5,11.8
			c22.3,0,40.4-18.1,40.4-40.4C92.5,30.5,88.9,21.4,82.9,14.3z"/>
		<path class="st2" d="M63.1,52.7C82,36.9,84.2,23,82.9,14.3C75.5,5.6,64.5,0,52.1,0C29.8,0,11.7,18.1,11.7,40.4
			c0,11.2,4.5,21.3,11.9,28.6C33.4,69.2,47.2,66,63.1,52.7z"/>
		<circle class="st3" cx="52.1" cy="28.7" r="16.3"/>
		<path class="st3" d="M68.9,65.5H35.2c-4.6,0-8.4-3.8-8.4-8.4s3.8-8.4,8.4-8.4h33.7c4.6,0,8.4,3.8,8.4,8.4S73.6,65.5,68.9,65.5z"/>
	</g>
</g>
</svg>
