<?xml version="1.0" encoding="utf-8"?>
<!-- Generator: Adobe Illustrator 28.1.0, SVG Export Plug-In . SVG Version: 6.00 Build 0)  -->
<svg version="1.1" id="レイヤー_1" xmlns="http://www.w3.org/2000/svg" xmlns:xlink="http://www.w3.org/1999/xlink" x="0px"
	 y="0px" viewBox="0 0 170.1 210" style="enable-background:new 0 0 170.1 210;" xml:space="preserve">
<style type="text/css">
	.st0{fill:#59C2E1;}
	.st1{fill:#FFFFFF;}
	.st2{fill:#F29600;}
	.st3{fill:#796A56;}
	.st4{opacity:5.000000e-02;}
	.st5{fill:#9CDBED;}
	.st6{fill:#9BDAED;}
	.st7{fill:#E6E6E6;}
</style>
<g>
	<g>
		<path class="st0" d="M141.6,39.1c-2.4-4.5-5.2-8.4-8.3-11.5c1.8-2,3.1-4.4,3.8-7.1c2.2-8.8-3.2-17.8-12-20s-17.8,3.2-20,12
			c-0.1,0.3-0.1,0.6-0.2,0.9c-18.6-3.1-36.5,2.1-38.9,2.7c-2.3,0.6-17.3,5.2-28.7,15.6c-1.2-0.8-2.5-1.5-4-1.8
			c-6.5-1.6-13.2,2.5-14.8,9.1c-1.4,5.7,1.3,11.5,6.2,14c-0.9,4.9-0.9,10.4,0.6,16.4c9.1,38.1,62.9,30.6,62.9,30.6
			C95.5,102.1,162.1,78.2,141.6,39.1z"/>
		<g>
			<path class="st1" d="M64.6,37.4c0,0,1,11.7-2.9,23.1s2.6,16.9,6.8,15.6s5.8-3.3,6.1-5.5c0.3-2.3,1.5-2.8,5.1-0.6
				c3.6,2.2,4.8,2.8,10,1.7c5.2-1,6.9-14-0.3-18.6c-7.2-4.7-15.8-11-18.4-16.4S64.5,31.4,64.6,37.4z"/>
			<path class="st2" d="M63.5,49.2l11.8-3.3c0,0,6.5-1.8,2.9,6.2s-5.5,9.4-7.7,7.8c-2.2-1.6-6.3-6-6.3-6S60.1,50.4,63.5,49.2z"/>
			<path class="st3" d="M84.9,37.3c0,0-3.1,0.7-4.2,2.4s-0.7,3.4,0.7,2.5c1.4-1,2.9-3.3,7.1-2.6c4.3,0.8,3.6-1.7,2-2.4
				C89,36.5,86.7,36.9,84.9,37.3z"/>
			<path class="st3" d="M51.5,49.7c0,0,1.5-0.8,2.5-1.8c1-1.1,1.6-1.1,4-0.6c2.5,0.5,2.7-1.5,0.8-2.2C57,44.3,54.2,44,52,46
				S49.5,49.7,51.5,49.7z"/>
		</g>
		<path class="st0" d="M147.4,156.9c0,0,14.5-8.5,9.5-18.4s-16.3-5.5-16.3-5.5L147.4,156.9z"/>
		<path class="st4" d="M147.4,156.9c0,0,14.5-8.5,9.5-18.4s-16.3-5.5-16.3-5.5L147.4,156.9z"/>
		<path class="st0" d="M157.9,172.6c-12.1-17.4-17.4-66.5-17.4-66.5s8.4-7.3,16.8-31.9c1.3-3.8,2.5-7.7,3.6-11.5
			c0.8-2.7,1.5-5.4,2.2-8.1c4.3-16.7,6-30.3,4.1-32.1c-2.5-2.5-4.6-1.7-4.6-1.7s-0.2-4.5-4.1-5.7c-3.9-1.2-6,1.1-6,1.1
			C145,13,141.5,26.9,137,48c0,0.1-0.1,0.2-0.1,0.4c-0.6,2.8-1.3,5.4-2,7.7c-4.8,15.8-11.6,22.6-11.6,22.6s-53.5,5.8-66.2,16.2
			c-6.6,5.3-12.2,8.4-18.1,10c-2.2,0.6-4.5,1-6.8,1.3c-3.5,0.4-7.3,0.4-11.4,0.3C6.5,106.1,0.2,109.2,0,118.3
			c-0.2,9.1,7.2,12,22.2,12.6c4.3,0.2,8.9-0.2,13.2-0.8c2.5-0.4,5-0.8,7.2-1.3c7.5-1.6,13.1-3.4,13.1-3.4
			c-0.8,19.1,7.5,36.1,7.5,36.1l-16.9,36.3c9.2,15.4,24.5,11.9,24.5,11.9l15.1-33.4c18.9,8.1,37.8-5.7,37.8-5.7
			c6.3,18.6,26.6,38,26.6,38c19-1.8,19.8-18.6,19.8-18.6S170.1,190,157.9,172.6z"/>
		<path class="st5" d="M126.9,10c-6.8-5.3-13.3,1.2-16.1,4.7c6.2,1.7,12.3,4.4,17.8,8.7C130.6,19.5,132,14.1,126.9,10z"/>
		<path class="st5" d="M26.3,37c-3.5,3.5-1.3,7.8,0.2,9.9c1.6-3.9,3.8-7.4,6.4-10.5C30.8,35.3,28.4,34.9,26.3,37z"/>
		<path class="st6" d="M125.6,112.6c-0.3,0-0.7-0.3-0.7-0.6c0-0.3,0.3-0.6,0.6-0.6c0,0,0,0,0,0c22,0,32.5-42.2,32.6-42.6
			c0.1-0.3,0.4-0.5,0.8-0.5c0.3,0.1,0.5,0.4,0.5,0.8c0,0.1-2.7,11-8.2,21.7C144.1,105,135.2,112.6,125.6,112.6z"/>
		<path class="st6" d="M59,150.3c-0.3,0-0.5-0.2-0.6-0.5c-6.2-23.8-1.1-35.3-0.9-35.8c0.1-0.3,0.5-0.5,0.8-0.3
			c0.3,0.1,0.5,0.5,0.3,0.8c-0.1,0.1-5.1,11.6,1,34.9c0.1,0.3-0.1,0.7-0.5,0.8C59.1,150.3,59,150.3,59,150.3z"/>
		<path class="st6" d="M80.9,174.6c-0.1,0-0.1,0-0.2,0c-8.4-2.1-14.1-6.9-14.3-7.1c-0.3-0.2-0.3-0.6-0.1-0.9
			c0.2-0.3,0.6-0.3,0.9-0.1c0.1,0,5.7,4.8,13.8,6.8c0.3,0.1,0.5,0.4,0.5,0.8C81.4,174.5,81.1,174.6,80.9,174.6z"/>
		<path class="st7" d="M55,200.3c-1.1-0.6-3.2,4.4-3.2,4.5c0.6,0.5,1.3,1.1,2.1,1.6C53.8,203,56.1,201,55,200.3z"/>
		<path class="st7" d="M63.8,204.3c-0.5-0.2-1-0.2-1.8,1.5c-0.8,1.7-2,3.4-2,3.4c0.7,0.2,1.4,0.5,2.2,0.6
			C63.8,206.4,64.3,204.5,63.8,204.3z"/>
		<path class="st7" d="M156.2,201.7c-1,0.7,2.6,4.8,2.6,4.8c0.7-0.3,1.5-0.7,2.3-1.2C158.2,203.9,157.3,201,156.2,201.7z"/>
		<path class="st7" d="M163.5,195c-0.4,0.4-0.6,0.8,0.6,2.3c1.1,1.5,2.2,3.2,2.2,3.3c0.5-0.5,1-1.1,1.5-1.7
			C165.4,195.9,163.8,194.7,163.5,195z"/>
		<circle class="st2" cx="151.7" cy="32.8" r="4.8"/>
		<circle class="st2" cx="16.7" cy="119" r="4.3"/>
		<path class="st6" d="M167.5,34.8c0,0-0.1,0-0.1,0c-0.3-0.1-0.6-0.4-0.5-0.7c1.4-7.1,0.5-10.2-0.5-11.4c-0.7-0.9-1.5-0.9-1.5-0.9
			c0,0-0.1,0-0.2,0c-2.7-0.7-3.9,2-4,2.2c-0.1,0.3-0.5,0.5-0.8,0.3c-0.3-0.1-0.5-0.5-0.3-0.8c0.6-1.3,2.5-3.6,5.4-2.9
			c0.3,0,1.4,0.2,2.4,1.3c1.8,2.2,2.1,6.4,0.9,12.5C168.1,34.6,167.8,34.8,167.5,34.8z"/>
		<path class="st6" d="M150.8,22.1C150.8,22.1,150.8,22.1,150.8,22.1c-0.4,0-0.6-0.3-0.6-0.6c0-2.3,1.2-6.7,5.2-7.1
			c0.1,0,6.9-0.9,8.1,6.4c0.1,0.3-0.2,0.7-0.5,0.7c-0.3,0.1-0.7-0.2-0.7-0.5c-1-6-6.5-5.4-6.7-5.3c-3.9,0.5-4.1,5.8-4.1,5.9
			C151.4,21.9,151.1,22.1,150.8,22.1z"/>
		<path class="st6" d="M7.4,116.8C7.4,116.8,7.4,116.8,7.4,116.8c-4.2-0.1-6.8-0.3-6.9-0.3c-0.3,0-0.6-0.3-0.6-0.7
			c0-0.3,0.3-0.6,0.7-0.6c0,0,2.7,0.2,6.8,0.3c0.3,0,0.6,0.3,0.6,0.7C8.1,116.5,7.8,116.8,7.4,116.8z"/>
		<path class="st6" d="M4.8,122.9c-2,0-3.9-0.4-4.1-0.4c-0.3-0.1-0.6-0.4-0.5-0.7c0.1-0.3,0.4-0.6,0.7-0.5c0,0,4.3,0.8,6.3,0
			c0.3-0.1,0.7,0,0.8,0.4c0.1,0.3,0,0.7-0.4,0.8C7,122.8,5.9,122.9,4.8,122.9z"/>
		<path class="st4" d="M37.5,89.1c0,0,17.9,4.7,44.5-1s50-24.2,50-24.2S123.6,93,86.2,99.5C86.2,99.5,57.7,104.3,37.5,89.1z"/>
		<path class="st6" d="M77.9,101.2c-16.3,0-46.7-3.8-53.3-31.6c-0.1-0.3,0.1-0.7,0.5-0.8c0.3-0.1,0.7,0.1,0.8,0.5
			c8.8,37.1,61.7,30.2,62.2,30.1c0.3,0,0.7,0.2,0.7,0.5c0,0.3-0.2,0.7-0.5,0.7C88.1,100.7,84,101.2,77.9,101.2z"/>
		<path class="st6" d="M117,84.4c-0.2,0-0.4-0.1-0.5-0.3c-0.2-0.3-0.1-0.7,0.2-0.9c11.1-6.9,13.9-18.1,13.9-18.2
			c0.1-0.3,0.4-0.6,0.8-0.5c0.3,0.1,0.6,0.4,0.5,0.8c-0.1,0.5-2.8,11.8-14.5,19C117.2,84.4,117.1,84.4,117,84.4z"/>
	</g>
</g>
</svg>
