<?xml version="1.0" encoding="utf-8"?>
<!-- Generator: Adobe Illustrator 28.0.0, SVG Export Plug-In . SVG Version: 6.00 Build 0)  -->
<svg version="1.1" id="レイヤー_1" xmlns="http://www.w3.org/2000/svg" xmlns:xlink="http://www.w3.org/1999/xlink" x="0px"
	 y="0px" viewBox="0 0 104.2 80.8" style="enable-background:new 0 0 104.2 80.8;" xml:space="preserve">
<style type="text/css">
	.st0{fill:none;}
	.st1{fill:#F29600;}
	.st2{fill:#808080;}
</style>
<g>
	<rect class="st0" width="104.2" height="80.8"/>
	<g>
		<path class="st1" d="M62.7,28.4H41.5c-1.2,0-2.2-1-2.2-2.2s1-2.2,2.2-2.2h21.2c1.2,0,2.2,1,2.2,2.2S63.9,28.4,62.7,28.4z"/>
		<path class="st1" d="M62.7,39.7H41.5c-1.2,0-2.2-1-2.2-2.2s1-2.2,2.2-2.2h21.2c1.2,0,2.2,1,2.2,2.2S63.9,39.7,62.7,39.7z"/>
		<path class="st1" d="M62.7,51H41.5c-1.2,0-2.2-1-2.2-2.2s1-2.2,2.2-2.2h21.2c1.2,0,2.2,1,2.2,2.2S63.9,51,62.7,51z"/>
		<path class="st1" d="M62.7,62.3H41.5c-1.2,0-2.2-1-2.2-2.2s1-2.2,2.2-2.2h21.2c1.2,0,2.2,1,2.2,2.2S63.9,62.3,62.7,62.3z"/>
	</g>
	<path class="st1" d="M68.8,5.7H35.4c-5.1,0-9.2,4.1-9.2,9.2v51c0,5.1,4.1,9.2,9.2,9.2h33.4c5.1,0,9.2-4.1,9.2-9.2v-51
		C78,9.8,73.9,5.7,68.8,5.7z M73.6,65.9c0,2.7-2.2,4.8-4.8,4.8H35.4c-2.7,0-4.8-2.2-4.8-4.8v-51c0-2.7,2.2-4.8,4.8-4.8h4.5
		c0,0,0,0,0,0l3.1,5.6c0.4,0.7,1.1,1.1,1.9,1.1h14.5c0.8,0,1.5-0.4,1.9-1.1l3.1-5.6c0,0,0,0,0,0h4.5c2.7,0,4.8,2.2,4.8,4.8V65.9z"/>
</g>
</svg>
