<?xml version="1.0" encoding="utf-8"?>
<!-- Generator: Adobe Illustrator 27.4.1, SVG Export Plug-In . SVG Version: 6.00 Build 0)  -->
<svg version="1.1" id="レイヤー_1" xmlns="http://www.w3.org/2000/svg" xmlns:xlink="http://www.w3.org/1999/xlink" x="0px"
	 y="0px" viewBox="0 0 500 86.8" style="enable-background:new 0 0 500 86.8;" xml:space="preserve">
<style type="text/css">
	.st0{fill:#F29600;}
	.st1{fill:#59C2E1;}
	.st2{fill:#796A56;}
	.st3{fill:none;}
	.st4{fill:#9CDBED;}
	.st5{fill:#FFFFFF;}
</style>
<g>
	<g>
		<g>
			<path class="st0" d="M168.7,36.6c-0.2-0.3-0.5-0.6-0.9-0.7l-5.9-1.2c-0.6-0.1-1.3,0.2-1.5,0.8c-4.7,13.6-7,19.2-8.8,23.4
				c-4.7-8.8-6.1-11.7-11-23.5c-0.3-0.6-0.9-0.9-1.6-0.7l-5.7,1.7c-0.4,0.1-0.7,0.4-0.8,0.7c-0.2,0.3-0.2,0.7,0,1.1
				c6.3,13.9,7.9,17.1,14.9,29.3c-3.1,5.5-3.9,6.9-5,8.9l-0.6,1.1c-0.2,0.4-0.2,0.8-0.1,1.2c0.2,0.4,0.5,0.7,0.9,0.7l6,1.4
				c0.1,0,0.2,0,0.3,0c0.5,0,1-0.3,1.2-0.8c9.7-21.2,10.8-23.6,18.7-42.4C168.9,37.3,168.8,36.9,168.7,36.6z"/>
			<path class="st0" d="M192.6,34.6c-4.6,0-8.2,1.2-11,2.4c-0.5,0.2-0.8,0.8-0.8,1.3l0.6,5.6c0,0.4,0.3,0.8,0.7,1
				c0.4,0.2,0.9,0.2,1.2,0c3.1-1.8,5.7-3.2,9.5-3.2c8.4,0,14.7,7.1,14.7,16.5c0,8.2-5,14.6-12,15.2c-3.1,0.3-6-0.7-8.1-2.6
				c-2-1.8-3-4.4-3-7.4c0-8,6.4-10.5,9.5-11.8c0.4-0.1,0.6-0.4,0.7-0.8c0.1-0.4,0.1-0.8-0.1-1.1l-2.3-3.8c-0.3-0.5-0.9-0.7-1.5-0.5
				l-0.2,0.1c-3.7,1.3-15.1,5.1-14.3,18.2c0.6,10.6,7.8,16.9,19.2,16.9c11.9,0,20.9-9.5,20.9-22.2C216.4,44.7,206.4,34.6,192.6,34.6
				z"/>
			<path class="st0" d="M259.5,36.6c-0.2-0.3-0.5-0.6-0.9-0.7l-5.9-1.2c-0.6-0.1-1.3,0.2-1.5,0.8c-4.7,13.6-7,19.2-8.8,23.4
				c-4.7-8.8-6.1-11.7-11-23.5c-0.3-0.6-0.9-0.9-1.6-0.7l-5.7,1.7c-0.4,0.1-0.7,0.4-0.8,0.7c-0.2,0.3-0.2,0.7,0,1.1
				c6.3,13.9,7.9,17.1,14.9,29.3c-3.1,5.5-3.9,6.9-5,8.9l-0.6,1.1c-0.2,0.4-0.2,0.8-0.1,1.2c0.2,0.4,0.5,0.7,0.9,0.7l6,1.4
				c0.1,0,0.2,0,0.3,0c0.5,0,1-0.3,1.2-0.8c9.7-21.2,10.8-23.6,18.7-42.4C259.7,37.3,259.7,36.9,259.5,36.6z"/>
			<path class="st0" d="M303.7,78.1c-0.3-0.6-1.2-2.7-1.8-4.1l-2-4.9c-5.7-13.3-10-24.4-13.3-33.5c-0.2-0.5-0.7-0.9-1.3-0.8
				l-4.8,0.4c-0.5,0-0.9,0.3-1.1,0.8c-2.1,5.3-4.8,11.9-7.6,18.8c-3.5,8.6-7,17.4-9.7,23.9c-0.2,0.4-0.1,0.8,0.1,1.2
				c0.2,0.4,0.6,0.6,1,0.6l5.8,0.5c0.6,0.1,1.1-0.3,1.3-0.9c1.3-3.9,3-8.8,3.7-10.7c0,0,0,0,0-0.1c2.4-0.3,4-0.3,4.6-0.3
				c1.6,0,4.2,0.3,5.9,0.5c0.7,0.1,1.3-0.3,1.4-1l0.9-4.2c0.1-0.4,0-0.8-0.3-1.1c-0.3-0.3-0.7-0.5-1-0.5c-1.5,0-4.9,0.2-7.6,0.3
				c-0.6,0-1.2,0-1.7,0.1l1.7-4.7c1.6-4.3,3-8.2,4.4-12.1c4,10.8,8.5,23.1,13,33.9c0.2,0.5,0.7,0.8,1.2,0.8c0.1,0,0.1,0,0.2,0l6-0.9
				c0.4-0.1,0.8-0.3,1-0.7C303.8,78.9,303.8,78.4,303.7,78.1z"/>
			<path class="st0" d="M499.9,78.1c-0.3-0.6-1.2-2.8-1.8-4.2l-2-4.8c-5.8-13.4-10.2-25-13.3-33.5c-0.2-0.5-0.7-0.9-1.3-0.8
				l-4.8,0.4c-0.5,0-0.9,0.3-1.1,0.8c-2.2,5.3-4.9,12-7.6,18.9c-3.4,8.5-7,17.2-9.6,23.8c-0.2,0.4-0.1,0.8,0.1,1.2
				c0.2,0.4,0.6,0.6,1,0.6l5.8,0.5c0.6,0,1.1-0.3,1.3-0.9c1.3-3.9,3-8.8,3.7-10.7c0,0,0,0,0-0.1c2.4-0.3,4-0.3,4.6-0.3
				c1.6,0,4.2,0.3,5.9,0.5c0.7,0.1,1.3-0.3,1.4-1l0.9-4.2c0.1-0.4,0-0.8-0.3-1.1c-0.3-0.3-0.6-0.5-1-0.5c-1.5,0-4.9,0.2-7.6,0.3
				c-0.6,0-1.2,0-1.7,0.1l1.7-4.6c1.6-4.4,3-8.3,4.4-12.2c4,10.8,8.5,23.1,13,33.9c0.2,0.5,0.7,0.8,1.2,0.8c0.1,0,0.1,0,0.2,0l6-0.9
				c0.4-0.1,0.8-0.3,1-0.7C500,78.9,500.1,78.4,499.9,78.1z"/>
			<path class="st0" d="M346.1,74.8l-3.4-2.7l-2.6-2.2c-4.7-4-6-5.2-12.9-13.2c7.1-7.4,8.2-8.7,15.7-17.4c0.3-0.3,0.4-0.7,0.3-1.1
				c-0.1-0.4-0.4-0.7-0.7-0.9l-5.6-2.4c-0.5-0.2-1.2-0.1-1.5,0.4c-6.5,8.7-8,10.6-14.7,17.8c0.1-4,0.5-9.2,0.9-16.2l0.1-0.8
				c0-0.4-0.1-0.8-0.4-1c-0.3-0.3-0.7-0.4-1.1-0.3l-6.2,0.8c-0.6,0.1-1.1,0.6-1.1,1.3v42.7c0,0.7,0.6,1.3,1.3,1.3h5.9
				c0.4,0,0.7-0.1,0.9-0.4c0.2-0.3,0.4-0.6,0.3-1c-0.3-4.9-0.7-11.5-0.8-18.9c7.1,8.3,9,10.4,18.3,19.9c0.2,0.3,0.6,0.4,0.9,0.4
				c0.2,0,0.5-0.1,0.7-0.2l5.6-3.7c0.3-0.2,0.6-0.6,0.6-1C346.6,75.4,346.4,75,346.1,74.8z"/>
			<path class="st0" d="M390.7,73.4l-0.2-4.4l0-1.4c-0.1-2.3-0.2-5.7-0.2-7.8c0-3.6,0.1-10,0.9-23.8c0-0.4-0.1-0.7-0.4-1
				c-0.3-0.3-0.6-0.4-1-0.4l-6.1,0.5c-0.7,0.1-1.2,0.6-1.2,1.3v24.4c-4.2,7.8-8.1,11.8-11.7,11.8c-1,0-1.9-0.4-2.7-1.3
				c-2.3-2.4-3.6-7.9-3.3-13.5l1.3-21.9c0-0.4-0.1-0.8-0.4-1c-0.3-0.3-0.7-0.4-1.1-0.3l-6.7,0.9c-0.6,0.1-1.1,0.6-1.1,1.3v19.9
				c0,5.6,0.9,24,12.8,24c5.6,0,9.9-4.2,12.8-8.1v6.8c0,0.7,0.6,1.3,1.3,1.3h5.9c0.4,0,0.7-0.1,0.9-0.4c0.2-0.3,0.4-0.6,0.4-0.9
				l0-0.9C390.9,77.4,390.8,76.5,390.7,73.4z"/>
			<path class="st0" d="M447.2,35.9c0-0.4-0.2-0.7-0.4-0.9c-0.3-0.2-0.6-0.3-1-0.3l-6.7,0.6c-0.5,0-0.9,0.4-1.1,0.9l-0.2,0.6
				c-4.3,12.9-5.2,15.9-10.9,30.8c-6.9-17.1-8.2-20.4-11.2-32c-0.2-0.6-0.7-1-1.3-1l-6.5,0.5c-0.7,0-1.2,0.6-1.2,1.2l-2,43.1
				c0,0.4,0.1,0.7,0.4,1c0.2,0.3,0.6,0.4,0.9,0.4h5.2c0.7,0,1.3-0.6,1.3-1.3l0.3-27.7c4.6,13.3,5.7,15.9,10.8,28.2
				c0.2,0.5,0.7,0.8,1.2,0.8c0,0,0.1,0,0.1,0l3.7-0.3c0.5,0,0.9-0.3,1.1-0.8c5.1-12.1,7-17.4,10.6-28.1l0.7,28
				c0,0.7,0.6,1.3,1.3,1.3h5.8c0.4,0,0.7-0.1,0.9-0.4c0.2-0.3,0.4-0.6,0.4-1L447.2,35.9z"/>
		</g>
		<g>
			<path class="st1" d="M102,32C102,32,102,31.9,102,32c-1-1.2,0.6-2.4,0.6-2.4l0,0c3.5-2.6,5.8-6.7,5.8-11.3
				c0-7.8-6.6-14.2-14.7-14.2c-7.2,0-13.2,5-14.4,11.6l0,0c0,0-0.4,1.6-2,1.1c0,0,0,0,0,0c-6.9-2.1-14.6-3.3-22.7-3.3
				c-8.1,0-15.8,1.2-22.7,3.3c0,0,0,0,0,0c-1.5,0.5-2-1.1-2-1.1l0,0C28.6,9.1,22.6,4.1,15.4,4.1c-8.1,0-14.7,6.4-14.7,14.2
				c0,4.6,2.3,8.7,5.8,11.3l0,0c0,0,1.6,1.2,0.6,2.4c0,0,0,0,0,0C2.6,37.3,0,43.5,0,50.2c0,20.3,24.5,36.7,54.6,36.7
				s54.6-16.4,54.6-36.7C109.2,43.5,106.6,37.3,102,32z"/>
			<g>
				<circle class="st2" cx="39.2" cy="40.4" r="4.4"/>
				<circle class="st2" cx="70" cy="40.4" r="4.4"/>
			</g>
			<g>
				<path class="st3" d="M24.3,18.3C24.3,18.3,24.3,18.3,24.3,18.3C24.3,18.3,24.3,18.3,24.3,18.3z"/>
				<path class="st4" d="M24.3,18.3C24.3,18.3,24.3,18.3,24.3,18.3c0-4.7-4-8.5-8.9-8.5c-4.9,0-8.9,3.8-8.9,8.4c0,3.3,2,6.1,4.9,7.5
					c0.3,0.1,1.6,0.5,3.2-0.6c0,0,0,0,0.1,0c2.5-1.8,5.3-3.4,8.3-4.9c0,0,0,0,0.1,0C24.1,19.7,24.3,18.6,24.3,18.3z"/>
			</g>
			<g>
				<path class="st3" d="M84.9,18.3C84.9,18.3,84.9,18.3,84.9,18.3C84.9,18.3,84.9,18.3,84.9,18.3z"/>
				<path class="st4" d="M84.9,18.3C84.9,18.3,84.9,18.3,84.9,18.3c0-4.7,4-8.5,8.9-8.5c4.9,0,8.9,3.8,8.9,8.4c0,3.3-2,6.1-4.9,7.5
					c-0.3,0.1-1.6,0.5-3.2-0.6c0,0,0,0-0.1,0c-2.5-1.8-5.3-3.4-8.3-4.9c0,0,0,0-0.1,0C85.1,19.7,85,18.6,84.9,18.3z"/>
			</g>
			<path class="st5" d="M72.2,61.1c0-5.5-2.2-8.4-7-12.4c-4.8-4-6.4-10.7-7.1-13.9c0,0-0.6-3-3.5-3c-2.9,0-3.5,3-3.5,3
				c-0.7,3.2-2.3,9.9-7.1,13.9c-4.8,4-7,6.9-7,12.4c0,0-0.3,5.8,4.8,9.8c5.1,4.1,8,2.7,9.2,1.2l1.5-1.8c0,0,1-1.5,2.1-1.5
				c1.1,0,2.1,1.5,2.1,1.5l1.5,1.8c1.2,1.5,4,2.9,9.2-1.2C72.5,66.9,72.2,61.1,72.2,61.1z"/>
			<path class="st0" d="M61.6,51.7c-1.3-0.3-4.6-0.4-6.1-0.4v0h-1.9v0c-1.6,0-4.6,0.1-5.9,0.4c-1.8,0.4-3,2.1-1.5,4.5
				c1.6,2.4,6,9,8.4,9c2.4,0,6.9-6.6,8.4-9C64.6,53.7,63.3,52.1,61.6,51.7z"/>
		</g>
	</g>
	<g>
		<path class="st1" d="M144.1,6c0,0.1,0.1,0.2,0.2,0.3c0.5,0.4,0.6,0.5,0.6,0.8c0,0,0,0.1,0,0.1c0,0.2,0.1,0.2,0.2,0.2h3
			c0.7,0,1.4,0,1.7,0c1.1,0,1.6,1.2,1.6,1.5c0,0.6-3.1,3.5-3.7,3.5c-0.5,0-1.3-1-1.3-1.3c0-0.2,0.2-0.3,0.9-0.8
			c0.1-0.1,0.9-0.6,0.9-0.8c0-0.2-0.3-0.1-0.4-0.1h-3.6c-0.4,0-0.6,0.2-0.6,0.6v4.5c0,0.5,0,1,0,1.5c0,2.2-2.1,2.5-3.8,2.5
			c-0.3,0-0.8,0-1-0.3c-0.2-0.3-0.3-1-0.3-1.4c0-0.3,0.1-0.6,0.4-0.6c0.1,0,0.3,0,0.4,0c0.2,0,0.6,0,0.8,0c1.3,0,1.3-0.3,1.3-1.6
			V9.9c0-0.4-0.2-0.6-0.6-0.6h-4.6c-0.8,0-1.6,0-2.4,0c-0.5,0-0.5-0.2-0.5-1c0-0.8,0-1,0.5-1c0.8,0,1.6,0,2.4,0h5.6
			c0.1,0,0.2,0,0.2-0.2c0-0.1,0-0.1-0.1-0.2c-0.9-0.7-1.9-1.4-2.9-2.1c-0.2-0.1-0.5-0.2-0.5-0.5c0-0.4,0.8-1.3,1.2-1.3
			c0.3,0,1.7,0.9,2,1.2c0.1,0.1,0.3,0.2,0.5,0.2c0.2,0,0.3-0.1,0.4-0.1c0.3-0.2,2.2-1.2,2.2-1.5c0-0.2-0.3-0.2-0.5-0.2h-5.6
			c-0.8,0-1.5,0-2.3,0c-0.5,0-0.5-0.2-0.5-1c0-0.8,0-1,0.5-1c0.8,0,1.5,0.1,2.3,0.1h6.8c0.6,0,1.2,0,1.7,0c0.4,0,0.6,0.1,0.9,0.4
			c0.2,0.2,0.6,0.7,0.6,1c0,0.7-3.7,2.9-4.4,3.4C144.2,5.7,144.1,5.8,144.1,6z"/>
		<path class="st1" d="M161.2,8.3c0-0.1,0-0.1-0.1-0.2c-0.1-0.1-0.3-0.5-0.3-0.6c0-0.4,1-0.8,1.3-0.8c0.2,0,0.3,0.2,0.4,0.4
			c0.5,0.9,0.7,1.4,1,2.2c0.2,0.4,0.5,1,0.5,1.3c0,0.5-1.2,0.7-1.3,0.7c-0.3,0-0.3-0.3-0.5-0.6c-0.1-0.3-0.3-0.4-0.6-0.4
			c-0.2,0-0.5,0.1-0.6,0.1c-0.4,0.1-0.5,0.3-0.5,0.6v4.2c0,0.9,0,1.7,0,2.6c0,0.6-0.2,0.7-1.1,0.7c-0.9,0-1.1,0-1.1-0.7
			c0-0.9,0.1-1.7,0.1-2.6v-3.9c0-0.3-0.1-0.5-0.5-0.5c0,0-0.5,0.1-0.6,0.1c-0.4,0.1-0.7,0.1-1.3,0.1c-0.2,0-0.2,0.1-0.3,0.2
			c-0.1,0.1-0.1,0.2-0.3,0.2c-0.2,0-0.3-0.3-0.4-1c0-0.2-0.1-0.5-0.2-0.9c0-0.1,0-0.2,0-0.3c0-0.2,0.2-0.2,0.9-0.2
			c0.2,0,0.5,0,0.7,0c0.4,0,0.6-0.1,0.8-0.4c0.1-0.2,0.3-0.4,0.4-0.7c0.1-0.1,0.1-0.2,0.1-0.4c0-0.2-0.1-0.3-0.2-0.5
			c-0.7-0.7-1.5-1.4-2.3-2c-0.1-0.1-0.3-0.2-0.3-0.3c0-0.3,0.3-0.6,0.5-0.9c0.1-0.2,0.3-0.5,0.6-0.5c0.1,0,0.2,0.1,0.3,0.2
			c0.1,0,0.2,0.1,0.3,0.1c0.1,0,0.2-0.1,0.3-0.2c0.5-0.9,0.9-2.1,1.3-3.1c0-0.1,0.1-0.3,0.2-0.3c0.1,0,1.3,0.5,1.5,0.6
			c0.1,0.1,0.4,0.1,0.4,0.3s-0.2,0.2-0.3,0.2c-0.1,0-0.2,0.1-0.3,0.2c-0.5,1.1-0.9,2-1.6,3.1c-0.1,0.1-0.1,0.2-0.1,0.3
			c0,0.2,0.1,0.3,0.2,0.4l0.4,0.4c0.1,0.1,0.2,0.1,0.3,0.1c0.2,0,0.3-0.1,0.3-0.2c0.6-0.9,1-1.7,1.4-2.7c0.1-0.2,0.1-0.3,0.3-0.3
			c0.1,0,0.7,0.3,1,0.5c0.1,0.1,0.2,0.1,0.3,0.1c0.2,0.1,0.7,0.3,0.7,0.5c0,0.2-0.1,0.2-0.3,0.2c-0.2,0-0.3,0.1-0.4,0.2
			c-0.6,1-2.2,3.4-2.9,4.4c0,0.1-0.1,0.1-0.1,0.2c0,0.2,0.1,0.2,0.3,0.2c0.4,0,0.7-0.1,1.1-0.1C160.9,8.7,161.2,8.6,161.2,8.3z
			 M157.9,12.2c0.1,0,0.3,0.1,0.3,0.3c0,0.1-0.1,0.2-0.2,0.2c-0.2,0.1-0.2,0.2-0.3,0.4c-0.1,0.7-0.6,2.8-0.9,3.6
			c-0.1,0.2-0.2,0.5-0.5,0.5c-0.2,0-1.3-0.2-1.3-0.6c0-0.2,0.2-0.8,0.3-1c0.3-0.8,0.6-2.6,0.8-3.5c0-0.2,0.1-0.3,0.3-0.3
			C156.6,11.9,157.6,12.2,157.9,12.2z M162.8,15.8c-0.3,0-0.4-0.3-0.4-0.5c-0.2-0.6-0.7-2.1-0.9-2.7c-0.1-0.1-0.1-0.3-0.1-0.4
			c0-0.4,1-0.6,1.2-0.6c0.2,0,0.3,0.1,0.4,0.2c0.1,0.1,0.7,1.7,0.8,1.9c0.1,0.2,0.4,1.2,0.4,1.4C164,15.6,162.9,15.8,162.8,15.8z
			 M164.7,7.8c-0.1,0.2-0.2,0.3-0.5,0.3c-0.4,0-1.5-0.5-1.5-0.8c0-0.1,0.1-0.3,0.2-0.4c1.2-1.9,2.2-4.3,2.7-6.5
			c0-0.2,0.1-0.3,0.3-0.3c0.2,0,1,0.2,1.3,0.3c0.5,0.1,0.8,0.2,0.8,0.4c0,0.1-0.2,0.2-0.3,0.2c-0.2,0.1-0.3,0.2-0.5,0.9
			c-0.1,0.3-0.2,0.8-0.5,1.5c0,0.1,0,0.1,0,0.2c0,0.3,0.3,0.3,0.4,0.3h2.8c0.6,0,1.2,0,1.7,0c1,0,1,0.7,1,1.5
			c0,2.8-0.2,7.4-0.8,10.1c-0.2,0.9-0.4,1.8-1.3,2.3c-0.7,0.4-2.1,0.6-2.9,0.6c-0.9,0-1.1-0.2-1.2-0.7c-0.1-0.3-0.1-0.7-0.1-1.1
			c0-0.3,0.1-0.5,0.5-0.5c0.3,0,0.8,0.1,1.4,0.1c0.8,0,1.5,0,1.8-1.4c0.4-1.7,0.6-6.4,0.6-8.2c0-0.8-0.2-0.7-1.6-0.7h-2.7
			c-0.4,0-0.6,0.1-0.8,0.5C165.3,6.8,165,7.3,164.7,7.8z M167.1,13.2c-0.3,0-0.4-0.3-0.5-0.5c-0.4-1.1-0.9-2.2-1.5-3.2
			c-0.1-0.1-0.2-0.3-0.2-0.4c0-0.4,1.2-0.8,1.4-0.8c0.2,0,0.3,0.1,0.4,0.3c0.3,0.6,0.6,1.2,0.9,1.7c0.2,0.3,0.8,1.8,0.8,2.1
			C168.5,12.9,167.3,13.2,167.1,13.2z"/>
		<path class="st1" d="M181.6,1.3c0,0.2,0.1,0.2,0.3,0.3h1.7c0.6,0,1.2,0,1.8,0c0.5,0,0.5,0.2,0.5,0.8c0,0.6,0,0.8-0.4,0.8
			c-0.5,0-1,0-1.5,0c-0.2,0-0.4,0.1-0.4,0.3c0,0.1,0,0.1,0,0.2c0,0.1,0.3,0.8,0.3,0.9c0,0.4-1.2,0.6-1.5,0.6c-0.2,0-0.3-0.1-0.4-0.6
			c-0.1-0.2-0.1-0.5-0.3-0.9c-0.1-0.3-0.3-0.5-0.7-0.5c-0.4,0-0.5,0.1-0.7,0.5c-0.2,0.3-1,1.6-1.3,1.6c-0.3,0-1.5-0.5-1.5-0.9
			c0-0.1,0.1-0.3,0.2-0.4c0.8-1,1.7-2.4,2.2-3.7c0-0.1,0.1-0.2,0.2-0.2c0.1,0,1.6,0.3,1.9,0.3c0.1,0,0.3,0.1,0.3,0.2
			c0,0.1-0.2,0.2-0.3,0.2c-0.2,0.1-0.2,0.1-0.3,0.3C181.7,1.2,181.6,1.2,181.6,1.3z M188.9,3.1c-0.4,0-0.6,0.1-0.8,0.4
			c-0.2,0.2-0.3,0.5-0.5,0.7c0,0,0,0.1,0,0.1c0,0.1,0.1,0.1,0.2,0.2c0.1,0,0.3,0,0.3,0.2c0,0.1-0.1,0.2-0.2,0.3
			c-0.1,0-0.1,0.1-0.1,0.2l0,0.1c0,0.1,0,0.1,0,0.1c0,0.3,0.3,0.3,0.5,0.3h3.6c0.7,0,1.5,0,2.2,0c0.5,0,1.1,0.1,1.1,0.8
			c0,0.2,0,0.6,0,1v0.8c0,0.2,0.1,0.6,0.1,0.8c0,0.5-0.4,0.4-1.1,0.4c-0.6,0-1,0-1-0.4c0-0.2,0-0.6,0-0.8V8c0-0.4-0.2-0.6-0.6-0.6
			h-11.9c-0.4,0-0.6,0.2-0.6,0.6v0.4c0,0.2,0,0.6,0,0.8c0,0.4-0.4,0.4-1.1,0.4c-0.7,0-1,0-1-0.4c0-0.2,0-0.6,0-0.8V7.6
			c0-0.5,0-0.8,0-1c0-0.7,0.6-0.8,1.6-0.8c0.5,0,1.1,0,1.8,0h3.6c0.4,0,0.6-0.1,0.5-0.5c0-0.1,0-0.3,0-0.4c0-0.1,0-0.1,0-0.2
			c0-0.3,0.2-0.3,0.4-0.3c0.2,0,0.3,0,0.5,0c0,0,0.1,0,0.1-0.1c0,0,0-0.1,0-0.1c-0.2-0.1-0.7-0.3-0.7-0.5c0-0.1,0.2-0.3,0.3-0.4
			c0.6-0.8,1.4-2.1,1.8-3.1c0.1-0.1,0.1-0.3,0.3-0.3c0.1,0,1.3,0.2,1.5,0.3c0.3,0,0.7,0.1,0.7,0.3c0,0.2-0.2,0.2-0.3,0.2
			c-0.2,0-0.2,0.1-0.3,0.2c0,0,0,0.1,0,0.1c0,0.2,0.1,0.2,0.3,0.3h3.3c0.7,0,1.4,0,2,0c0.5,0,0.5,0.2,0.5,0.8c0,0.6,0,0.8-0.5,0.8
			c-0.6,0-1.3-0.1-2-0.1h-0.5c-0.1,0-0.4,0-0.4,0.3c0,0.1,0.1,0.2,0.1,0.3c0.1,0.2,0.2,0.6,0.2,0.7c0,0.4-1.3,0.7-1.6,0.7
			c-0.3,0-0.3-0.2-0.3-0.4c-0.1-0.3-0.2-0.8-0.4-1.1c-0.2-0.4-0.3-0.5-0.8-0.5H188.9z M183.5,12.5c-0.3,0-0.4,0.1-0.4,0.4v0.2
			c0,0.3,0.1,0.4,0.4,0.4h6.2c0.6,0,1.1,0,1.6,0c0.6,0,1.1,0.1,1.1,0.9c0,0.4,0,0.8,0,1.3v0.8c0,0.6,0,1.2,0,1.7
			c0,0.5-0.2,0.4-1.1,0.4c-0.9,0-1.1,0-1.1-0.5c0-0.3-0.2-0.3-0.3-0.3h-6.4c-0.2,0-0.3,0.1-0.3,0.3c0,0.5-0.2,0.5-1.1,0.5
			c-0.8,0-1.1,0-1.1-0.5c0-0.6,0.1-1.2,0.1-1.7v-6c0-0.6,0-1,0-1.3c0-0.7,0.4-0.8,1-0.8c0.6,0,1.2,0,1.8,0h4.8c0.6,0,1.2,0,1.8,0
			c0.6,0,1.1,0.1,1.1,0.8c0,0.4,0,0.7,0,1.1v0.5c0,0.3,0,0.7,0,1.1c0,0.7-0.5,0.8-1,0.8c-0.6,0-1.2,0-1.8,0H183.5z M183.2,10.5
			c0,0.3,0.2,0.5,0.5,0.5h5.3c0.3,0,0.5-0.2,0.5-0.5v-0.2c0-0.3-0.2-0.5-0.5-0.5h-5.3c-0.3,0-0.5,0.2-0.5,0.5V10.5z M189.8,16.2
			c0.3,0,0.5-0.2,0.5-0.5v-0.2c0-0.3-0.2-0.5-0.5-0.5h-6.1c-0.3,0-0.5,0.2-0.5,0.5v0.2c0,0.3,0.2,0.5,0.5,0.5H189.8z"/>
		<path class="st1" d="M204.8,6.6c0.4,0,0.4,0.3,0.4,1c0,0.7,0,1-0.4,1c-0.2,0-0.8,0-1,0c-0.4,0-0.5,0.2-0.5,0.6v2.4
			c0,0.2,0.1,0.4,0.3,0.4c0.1,0,0.1,0,0.2,0c0.2-0.1,1.2-0.5,1.4-0.5c0.4,0,0.4,0.7,0.4,1c0,0.6-0.1,0.7-0.5,0.9
			c-1.3,0.5-3.5,1.2-4.9,1.6c-0.5,0.1-0.5,0.2-0.6,0.5c-0.1,0.1-0.1,0.2-0.3,0.2c-0.2,0-0.2-0.2-0.4-0.6c-0.1-0.3-0.5-1.4-0.5-1.6
			c0-0.2,0.2-0.3,0.8-0.4c0.3-0.1,0.8-0.1,1.4-0.3c0.4-0.1,0.5-0.3,0.5-0.7v-3c0-0.4-0.1-0.6-0.5-0.6c-0.4,0-0.8,0-1.2,0
			c-0.4,0-0.4-0.3-0.4-1c0-0.7,0-1,0.4-1c0,0,1,0,1.2,0c0.4,0,0.6-0.2,0.6-0.6V3.7c0-0.4-0.2-0.6-0.6-0.6c-0.4,0-1,0-1.5,0
			c-0.5,0-0.4-0.3-0.4-1c0-0.7,0-1,0.4-1c0.6,0,1.2,0,1.8,0h2.3c0.6,0,1.3,0,1.8,0c0.5,0,0.4,0.3,0.4,1c0,0.7,0,1-0.4,1
			c-0.2,0-1.1,0-1.3,0c-0.4,0-0.5,0.2-0.5,0.6v2.4c0,0.4,0.1,0.5,0.5,0.6C204,6.7,204.6,6.6,204.8,6.6z M208.4,10
			c-0.2,0-0.2,0.1-0.3,0.3c-0.1,0.2-0.3,0.2-0.9,0.2c-0.8,0-1,0-1-0.5c0-0.6,0.1-1.1,0.1-1.7V2.9c0-0.5,0-0.9,0-1.3
			c0-0.7,0.5-0.9,1.1-0.9c0.5,0,1,0,1.5,0h4.9c0.5,0,1,0,1.5,0c0.6,0,1.1,0.1,1.1,0.9c0,0.5,0,0.9,0,1.3v5.5c0,0.6,0,1.1,0,1.6
			c0,0.5-0.2,0.5-1,0.5c-0.5,0-0.8,0-0.9-0.1c-0.1-0.1-0.3-0.3-0.5-0.3h-1c-0.4,0-0.6,0.2-0.6,0.6v0.9c0,0.4,0.2,0.6,0.6,0.6h0.8
			c0.7,0,1.5,0,2.3,0c0.5,0,0.5,0.3,0.5,0.9c0,0.7,0,1-0.5,1c-0.8,0-1.5,0-2.3,0h-0.8c-0.4,0-0.6,0.2-0.6,0.6v0.9
			c0,0.4,0.2,0.6,0.6,0.6h1.5c0.7,0,1.5,0,2.2,0c0.5,0,0.5,0.3,0.5,1c0,0.8,0,1-0.5,1c-0.7,0-1.5,0-2.2,0h-7.5c-0.7,0-1.5,0-2.2,0
			c-0.5,0-0.5-0.3-0.5-1c0-0.8,0-1,0.5-1c0.7,0,1.5,0,2.2,0h2.9c0.4,0,0.6-0.2,0.6-0.6v-0.9c0-0.4-0.2-0.6-0.6-0.6h-0.8
			c-0.8,0-1.5,0-2.3,0c-0.5,0-0.5-0.3-0.5-1c0-0.7,0-0.9,0.5-0.9c0.8,0,1.5,0,2.3,0h0.8c0.4,0,0.6-0.2,0.6-0.6v-0.9
			c0-0.4-0.2-0.6-0.6-0.6H208.4z M210.1,3.1c0-0.3-0.2-0.6-0.6-0.6h-0.9c-0.3,0-0.5,0.2-0.6,0.6v0.8c0,0.3,0.2,0.5,0.6,0.6h0.9
			c0.3,0,0.5-0.2,0.6-0.6V3.1z M208.7,6.2c-0.3,0-0.5,0.2-0.6,0.6v0.9c0,0.3,0.2,0.5,0.6,0.6h0.9c0.3,0,0.5-0.2,0.6-0.6V6.7
			c0-0.3-0.2-0.5-0.6-0.6H208.7z M213.6,4.5c0.3,0,0.5-0.2,0.6-0.6V3.1c0-0.3-0.2-0.6-0.6-0.6h-0.9c-0.3,0-0.5,0.2-0.6,0.6v0.8
			c0,0.3,0.2,0.5,0.6,0.6H213.6z M212.1,7.6c0,0.3,0.2,0.5,0.6,0.6h0.9c0.3,0,0.5-0.2,0.6-0.6V6.7c0-0.3-0.2-0.5-0.6-0.6h-0.9
			c-0.3,0-0.5,0.2-0.6,0.6V7.6z"/>
		<path class="st1" d="M228.2,1c0.1,0,0.3,0.1,0.3,0.2s-0.1,0.2-0.3,0.4c-0.2,0.1-0.3,0.9-0.4,1.1c-0.1,0.2-0.2,0.8-0.2,0.9
			c0,0.1,0.1,0.3,0.2,0.3s1-0.2,1.2-0.3c0.1,0,0.1,0,0.2,0c0.2,0,0.3,0.4,0.3,0.6c0,0.3,0.1,0.8,0.1,1.1c0,0.5-0.2,0.5-2.1,0.8
			c-0.7,0.1-0.7,0.3-1,0.9c-0.9,2.5-2.1,5-3.4,7.3c-0.1,0.2-0.2,0.3-0.4,0.3c-0.5,0-1.8-0.6-1.8-1c0-0.2,0.3-0.6,0.4-0.7
			c0.8-1.4,1.8-3.3,2.4-4.8c0.1-0.2,0.5-1.1,0.5-1.3c0-0.1-0.1-0.3-0.3-0.3c-0.2,0-1.7,0.2-2.2,0.2c-0.3,0-0.4-0.2-0.5-0.7
			c0-0.2-0.1-1-0.1-1.2c0-0.3,0.1-0.3,0.4-0.3h0.9c0.7,0,1.4,0,2.1-0.1c0.3,0,0.5-0.1,0.6-0.3c0.3-0.5,0.7-2.8,0.7-3.5
			c0-0.1,0-0.3,0.2-0.3C226.2,0.4,227.9,0.9,228.2,1z M231.2,7.2c0.2,0.1,0.4,0.2,0.4,0.4c0,0,0,0.7,0,1.1c0,0.6,0.1,3.6,0.2,4
			c0.1,0.3,0.3,0.4,0.6,0.5c0.1,0,0.1,0.1,0.2,0.1c0.5,0.2,2.9,1.3,2.9,1.8c0,0.3-0.8,1.5-1.3,1.5c-0.2,0-0.4-0.2-0.5-0.3
			c-0.3-0.2-1.3-0.9-1.6-0.9c-0.2,0-0.3,0.3-0.3,0.5c-0.2,1.5-1.5,2-2.9,2c-1.7,0-3.6-0.9-3.6-2.8c0-1.9,1.8-2.5,3.4-2.5h0.5
			c0.2,0,0.4-0.1,0.4-0.3c0-0.7-0.3-3.6-0.4-4.4c0-0.1,0-0.2,0-0.3c0-0.3,0.2-0.5,0.5-0.5C230.1,6.9,230.8,7.1,231.2,7.2z M227.4,15
			c0,0.6,0.8,1,1.4,1c0.7,0,1.1-0.4,1.1-1.1c0-0.4,0-0.6-1-0.6C228.2,14.2,227.4,14.3,227.4,15z M236.3,7.1c0,0.5-1.2,1.4-1.5,1.4
			c-0.2,0-0.3-0.2-0.5-0.4c-0.6-1-1.6-2-2.6-2.7c-0.1-0.1-0.3-0.2-0.3-0.3c0-0.3,0.9-1.4,1.4-1.4C233.4,3.8,236.3,6.6,236.3,7.1z"/>
		<path class="st1" d="M245.1,5.1c0.1,0.1,0.4,0.1,0.4,0.3c0,0.1-0.1,0.2-0.2,0.2c-0.3,0.2-0.3,0.4-0.4,0.8
			c-0.2,0.9-0.3,1.9-0.5,2.9c0,0.1-0.1,0.3-0.1,0.4c0,0.1,0.1,0.2,0.2,0.2c0.1,0,0.2-0.1,0.3-0.1c1.5-1.1,2.8-1.9,4.7-1.9
			c2.5,0,4.5,1.7,4.5,4.3c0,2.9-2.2,4.2-4.7,4.9c-0.6,0.2-2,0.6-2.7,0.6c-0.5,0-0.6-0.2-0.8-0.6c-0.1-0.3-0.3-1-0.3-1.3
			c0-0.3,0.2-0.3,0.5-0.4c0.9,0,1.9-0.2,2.7-0.4c1.5-0.4,3-1,3-2.8c0-1.4-1.2-2.2-2.5-2.2c-2.2,0-4.3,1.8-5.6,3.4
			c-0.2,0.2-0.3,0.4-0.6,0.4c-0.2,0-1.6-0.2-1.6-0.8c0-0.2,0.1-0.5,0.2-0.7c0.2-0.7,0.3-1.3,0.5-2c0.3-1.5,0.4-3,0.5-4.5
			c0-0.2,0-0.3,0-0.5c0-0.6,0-0.9,0.3-0.9C243.3,4.5,244.7,4.9,245.1,5.1z M245.4,0.6c0.3,0,2,1.1,2.3,1.3c0.3,0.2,1.5,0.8,1.5,1.2
			c0,0.4-0.8,1.6-1.3,1.6c-0.2,0-0.5-0.3-0.7-0.4c-0.8-0.7-1.7-1.3-2.6-1.7c-0.2-0.1-0.5-0.2-0.5-0.5C244.3,1.9,245,0.6,245.4,0.6z"
			/>
		<path class="st1" d="M270.7,2.8c0.5,0,1.1,0,1.6,0c0.8,0,1.3,0.1,1.3,1.1c0,0.6,0,1.2,0,1.8v8.3c0,0.6,0,1.2,0,1.8
			c0,0.7-0.1,0.7-1,0.7c-1.2,0-1.2,0-1.3-0.5c-0.1-0.4-0.5-0.4-1-0.4h-6.3c-0.6,0-1.2,0-1.8,0c-0.3,0-0.6,0-0.9,0
			c-0.5,0-0.5-0.3-0.5-1.2c0-0.7,0-1,0.5-1c0.6,0,1.7,0,2.6,0h6.8c0.3,0,0.6-0.2,0.6-0.6v-2.1c0-0.3-0.2-0.6-0.6-0.6h-6.5
			c-0.9,0-2.2,0.1-2.7,0.1c-0.5,0-0.5-0.3-0.5-1c0-1,0-1.2,0.5-1.2c0.3,0,0.6,0,0.8,0c0.6,0,1.2,0,1.8,0h6.5c0.3,0,0.6-0.2,0.6-0.6
			V5.5c0-0.3-0.2-0.6-0.6-0.6h-6.7c-0.9,0-1.8,0.1-2.6,0.1C261,5,261,4.6,261,3.9c0-0.9,0-1.2,0.5-1.2c0.6,0,1.6,0,2.6,0H270.7z"/>
		<path class="st1" d="M284.7,6.5c0.3-0.1,0.6-0.4,0.5-0.7l-0.3-1.5c-0.2-0.8-0.3-1.6-0.5-2.4c0-0.1-0.1-0.3-0.1-0.4
			c0-0.2,0.5-0.2,0.8-0.3c0.4,0,1-0.1,1.4-0.1c0.2,0,0.5,0,0.5,0.3c0,0.1,0,0.2-0.1,0.3c-0.1,0.1-0.1,0.2-0.1,0.3
			c0,0.3,0.3,1.5,0.3,1.8l0.3,1.5c0.1,0.3,0.4,0.6,0.7,0.5l4.6-0.9c0.6-0.1,2-0.5,2.2-0.5c0.4,0,1.6,1.1,1.6,1.5
			c0,0.2-0.2,0.4-0.3,0.5c-0.9,0.9-2.1,2.8-2.9,3.9c-0.4,0.6-0.7,1.2-1.2,1.2c-0.4,0-1.7-0.6-1.7-1c0-0.2,0.2-0.4,0.3-0.5
			c0.3-0.3,2-2.6,2-2.8c0-0.1-0.1-0.2-0.2-0.2c-0.1,0-0.4,0.1-0.5,0.1l-3.6,0.7C288.1,8,288,8.3,288,8.7l1.2,5.7
			c0.1,0.5,0.6,2.7,0.6,3c0,0.2-0.1,0.4-0.3,0.5c-0.2,0.1-1.3,0.3-1.5,0.3c-0.4,0-0.5-0.4-0.7-1.5c-0.1-0.5-0.2-1.1-0.3-1.8
			l-1.2-5.7c-0.1-0.3-0.4-0.5-0.7-0.5l-2.2,0.5c-0.3,0.1-2.7,0.6-2.8,0.6c-0.2,0-0.3-0.2-0.4-0.3c-0.1-0.2-0.3-1.2-0.3-1.4
			c0-0.4,0.2-0.4,1.6-0.7c0.4-0.1,0.9-0.1,1.5-0.3L284.7,6.5z"/>
		<path class="st1" d="M312.8,4c0.4,0,0.7,0,1.2-0.1c0.1,0,0.1,0,0.2,0c0.4,0,1.3,1.1,1.3,1.4c0,0.1-0.1,0.2-0.2,0.5
			c-0.2,0.2-0.4,0.6-0.6,1.1c-2,3.9-4,6.9-7.8,9.4c-0.5,0.3-2.4,1.5-2.8,1.5c-0.5,0-1.7-1-1.7-1.4c0-0.2,0.2-0.3,0.4-0.4
			c3.3-1.5,5.9-3.6,7.9-6.6c0.4-0.5,1.6-2.5,1.6-3c0-0.3-0.3-0.3-0.6-0.3h-3.9c-0.5,0-0.6,0.2-0.9,0.6c-0.4,0.6-2.8,3.4-3.3,3.4
			c-0.2,0-1.7-0.8-1.7-1.2c0-0.1,0.1-0.2,0.2-0.3c2.2-1.7,4.5-4.8,5.5-7.4c0.1-0.2,0.1-0.5,0.3-0.5c0.1,0,0.7,0.2,1.1,0.5
			c0.2,0.1,1.2,0.5,1.2,0.7c0,0.1-0.1,0.2-0.2,0.2c-0.3,0.1-0.4,0.2-0.7,0.8c-0.1,0.2-0.4,0.6-0.4,0.7c0,0.2,0.1,0.3,0.3,0.3H312.8z
			"/>
		<path class="st1" d="M334.9,4.9c0.4,0,0.8,0,1.2-0.1c0.1,0,0.1,0,0.2,0c0.4,0,1.4,1.3,1.4,1.5c0,0.1-0.3,0.4-0.6,0.7
			c-0.2,0.2-0.4,0.3-0.6,0.5c-1.7,1.7-3.6,3.4-5.4,5c-0.2,0.2-0.4,0.3-0.4,0.6c0,0.2,0.2,0.4,0.3,0.6c0.1,0.2,0.8,1.1,0.8,1.3
			c0,0.4-1.3,1.2-1.7,1.2c-0.2,0-0.3-0.2-0.4-0.4c-1-1.6-2.3-3.2-3.7-4.4c-0.1-0.1-0.4-0.3-0.4-0.5c0-0.3,1.1-1.2,1.5-1.2
			c0.3,0,1.3,1,1.6,1.3c0.2,0.2,0.3,0.3,0.5,0.3c0.2,0,0.3-0.1,0.5-0.2c0.9-0.7,1.7-1.5,2.6-2.3c0.2-0.2,1.3-1.2,1.3-1.4
			c0-0.3-0.4-0.3-0.8-0.3h-8.6c-0.9,0-1.9,0.1-2.6,0.1c-0.6,0-0.5-0.4-0.5-1c0-1.1,0-1.3,0.5-1.3c0.9,0,1.8,0,2.7,0H334.9z"/>
	</g>
</g>
</svg>
