<?xml version="1.0" encoding="utf-8"?>
<!-- Generator: Adobe Illustrator 27.9.0, SVG Export Plug-In . SVG Version: 6.00 Build 0)  -->
<svg version="1.1" id="レイヤー_1" xmlns="http://www.w3.org/2000/svg" xmlns:xlink="http://www.w3.org/1999/xlink" x="0px"
	 y="0px" viewBox="0 0 205.1 174.4" style="enable-background:new 0 0 205.1 174.4;" xml:space="preserve">
<style type="text/css">
	.st0{fill:#F29600;}
	.st1{fill:#59C2E1;}
	.st2{fill:#796A56;}
	.st3{fill:none;}
	.st4{fill:#9CDBED;}
	.st5{fill:#FFFFFF;}
</style>
<g>
	<g>
		<path class="st0" d="M20.2,149.7c-0.1-0.2-0.3-0.3-0.5-0.4l-3.3-0.7c-0.4-0.1-0.7,0.1-0.8,0.5c-2.6,7.6-3.9,10.7-4.9,13.1
			c-2.6-4.9-3.4-6.5-6.1-13.1c-0.1-0.3-0.5-0.5-0.9-0.4l-3.2,0.9c-0.2,0.1-0.4,0.2-0.5,0.4c-0.1,0.2-0.1,0.4,0,0.6
			c3.5,7.7,4.4,9.5,8.3,16.3c-1.7,3.1-2.2,3.8-2.8,5l-0.4,0.6c-0.1,0.2-0.1,0.4,0,0.6c0.1,0.2,0.3,0.4,0.5,0.4l3.4,0.8
			c0.1,0,0.1,0,0.2,0c0.3,0,0.5-0.2,0.7-0.4c5.4-11.8,6-13.1,10.4-23.6C20.3,150.1,20.3,149.9,20.2,149.7z"/>
		<path class="st0" d="M33.6,148.6c-2.6,0-4.6,0.7-6.1,1.4c-0.3,0.1-0.5,0.4-0.4,0.7l0.4,3.1c0,0.2,0.2,0.5,0.4,0.6
			c0.2,0.1,0.5,0.1,0.7,0c1.7-1,3.2-1.8,5.3-1.8c4.7,0,8.2,4,8.2,9.2c0,4.6-2.8,8.2-6.7,8.5c-1.7,0.1-3.4-0.4-4.5-1.5
			c-1.1-1-1.7-2.4-1.7-4.1c0-4.4,3.6-5.9,5.3-6.6c0.2-0.1,0.3-0.2,0.4-0.4c0.1-0.2,0-0.4-0.1-0.6l-1.3-2.1c-0.2-0.3-0.5-0.4-0.8-0.3
			l-0.1,0c-2.1,0.7-8.4,2.8-8,10.2c0.3,5.9,4.3,9.4,10.7,9.4c6.7,0,11.7-5.3,11.7-12.4C46.9,154.3,41.3,148.6,33.6,148.6z"/>
		<path class="st0" d="M70.9,149.7c-0.1-0.2-0.3-0.3-0.5-0.4l-3.3-0.7c-0.4-0.1-0.7,0.1-0.8,0.5c-2.6,7.6-3.9,10.7-4.9,13.1
			c-2.6-4.9-3.4-6.5-6.1-13.1c-0.1-0.3-0.5-0.5-0.9-0.4l-3.2,0.9c-0.2,0.1-0.4,0.2-0.5,0.4c-0.1,0.2-0.1,0.4,0,0.6
			c3.5,7.7,4.4,9.5,8.3,16.3c-1.7,3.1-2.2,3.8-2.8,5l-0.4,0.6c-0.1,0.2-0.1,0.4,0,0.6c0.1,0.2,0.3,0.4,0.5,0.4l3.4,0.8
			c0.1,0,0.1,0,0.2,0c0.3,0,0.5-0.2,0.7-0.4c5.4-11.8,6-13.1,10.4-23.6C71.1,150.1,71,149.9,70.9,149.7z"/>
		<path class="st0" d="M95.6,172.9c-0.1-0.3-0.7-1.5-1-2.3l-1.1-2.7c-3.2-7.4-5.6-13.6-7.4-18.7c-0.1-0.3-0.4-0.5-0.7-0.5l-2.7,0.2
			c-0.3,0-0.5,0.2-0.6,0.4c-1.2,2.9-2.7,6.7-4.2,10.5c-1.9,4.8-3.9,9.7-5.4,13.3c-0.1,0.2-0.1,0.5,0.1,0.7c0.1,0.2,0.3,0.3,0.6,0.3
			l3.2,0.3c0.3,0,0.6-0.2,0.7-0.5c0.7-2.2,1.7-4.9,2.1-6c0,0,0,0,0,0c1.3-0.2,2.2-0.2,2.5-0.2c0.9,0,2.3,0.1,3.3,0.3
			c0.4,0.1,0.7-0.2,0.8-0.6l0.5-2.3c0-0.2,0-0.4-0.1-0.6c-0.1-0.2-0.4-0.3-0.6-0.3c-0.8,0-2.7,0.1-4.3,0.2c-0.3,0-0.7,0-0.9,0
			l0.9-2.6c0.9-2.4,1.7-4.6,2.4-6.8c2.2,6,4.7,12.9,7.3,18.9c0.1,0.3,0.4,0.4,0.7,0.4c0,0,0.1,0,0.1,0l3.4-0.5
			c0.2,0,0.4-0.2,0.5-0.4C95.6,173.3,95.7,173.1,95.6,172.9z"/>
		<path class="st0" d="M205,172.9c-0.1-0.3-0.7-1.6-1-2.3l-1.1-2.7c-3.2-7.5-5.7-13.9-7.4-18.7c-0.1-0.3-0.4-0.5-0.7-0.5l-2.7,0.2
			c-0.3,0-0.5,0.2-0.6,0.4c-1.2,3-2.7,6.7-4.3,10.5c-1.9,4.7-3.9,9.6-5.4,13.3c-0.1,0.2-0.1,0.5,0.1,0.7c0.1,0.2,0.3,0.3,0.6,0.3
			l3.2,0.3c0.3,0,0.6-0.2,0.7-0.5c0.7-2.2,1.7-4.9,2.1-6c0,0,0,0,0,0c1.3-0.2,2.2-0.2,2.5-0.2c0.9,0,2.3,0.1,3.3,0.3
			c0.4,0.1,0.7-0.2,0.8-0.6l0.5-2.3c0-0.2,0-0.4-0.1-0.6c-0.1-0.2-0.4-0.3-0.6-0.3c-0.8,0-2.7,0.1-4.3,0.2c-0.3,0-0.7,0-0.9,0
			l0.9-2.6c0.9-2.4,1.7-4.6,2.5-6.8c2.2,6,4.7,12.9,7.3,18.9c0.1,0.3,0.4,0.4,0.7,0.4c0,0,0.1,0,0.1,0l3.4-0.5
			c0.2,0,0.4-0.2,0.5-0.4C205.1,173.3,205.1,173.1,205,172.9z"/>
		<path class="st0" d="M119.2,171l-1.9-1.5l-1.5-1.2c-2.6-2.3-3.3-2.9-7.2-7.4c3.9-4.1,4.6-4.9,8.8-9.7c0.1-0.2,0.2-0.4,0.2-0.6
			c-0.1-0.2-0.2-0.4-0.4-0.5l-3.1-1.4c-0.3-0.1-0.7,0-0.9,0.2c-3.6,4.8-4.5,5.9-8.2,9.9c0.1-2.2,0.3-5.1,0.5-9l0-0.4
			c0-0.2-0.1-0.4-0.2-0.6c-0.2-0.1-0.4-0.2-0.6-0.2l-3.5,0.5c-0.4,0-0.6,0.4-0.6,0.7v23.8c0,0.4,0.3,0.7,0.7,0.7h3.3
			c0.2,0,0.4-0.1,0.5-0.2c0.1-0.1,0.2-0.3,0.2-0.5c-0.2-2.8-0.4-6.4-0.5-10.5c3.9,4.6,5,5.8,10.2,11.1c0.1,0.1,0.3,0.2,0.5,0.2
			c0.1,0,0.3,0,0.4-0.1l3.1-2.1c0.2-0.1,0.3-0.3,0.3-0.6C119.5,171.4,119.4,171.2,119.2,171z"/>
		<path class="st0" d="M144.1,170.3l-0.1-2.4l0-0.8c0-1.3-0.1-3.2-0.1-4.4c0-2,0.1-5.6,0.5-13.3c0-0.2-0.1-0.4-0.2-0.6
			c-0.1-0.1-0.3-0.2-0.6-0.2l-3.4,0.3c-0.4,0-0.7,0.3-0.7,0.7v13.6c-2.3,4.4-4.5,6.6-6.5,6.6c-0.5,0-1-0.2-1.5-0.7
			c-1.3-1.4-2-4.4-1.8-7.5l0.7-12.2c0-0.2-0.1-0.4-0.2-0.6c-0.2-0.1-0.4-0.2-0.6-0.2l-3.7,0.5c-0.4,0-0.6,0.4-0.6,0.7V161
			c0,3.1,0.5,13.4,7.1,13.4c3.1,0,5.5-2.3,7.2-4.5v3.8c0,0.4,0.3,0.7,0.7,0.7h3.3c0.2,0,0.4-0.1,0.5-0.2c0.1-0.1,0.2-0.3,0.2-0.5
			l0-0.5C144.2,172.5,144.2,172,144.1,170.3z"/>
		<path class="st0" d="M175.6,149.3c0-0.2-0.1-0.4-0.2-0.5c-0.1-0.1-0.3-0.2-0.5-0.2l-3.7,0.4c-0.3,0-0.5,0.2-0.6,0.5l-0.1,0.3
			c-2.4,7.2-2.9,8.8-6.1,17.2c-3.8-9.5-4.6-11.4-6.3-17.8c-0.1-0.3-0.4-0.6-0.7-0.5l-3.6,0.3c-0.4,0-0.7,0.3-0.7,0.7l-1.1,24
			c0,0.2,0.1,0.4,0.2,0.5c0.1,0.1,0.3,0.2,0.5,0.2h2.9c0.4,0,0.7-0.3,0.7-0.7l0.2-15.5c2.6,7.4,3.2,8.9,6,15.7
			c0.1,0.3,0.4,0.4,0.7,0.4c0,0,0,0,0.1,0l2-0.2c0.3,0,0.5-0.2,0.6-0.4c2.8-6.7,3.9-9.7,5.9-15.7l0.4,15.6c0,0.4,0.3,0.7,0.7,0.7
			h3.2c0.2,0,0.4-0.1,0.5-0.2c0.1-0.1,0.2-0.3,0.2-0.5L175.6,149.3z"/>
	</g>
	<g>
		<path class="st1" d="M179.4,45.2C179.4,45.2,179.4,45.2,179.4,45.2c-1.6-2,1-3.9,1-3.9l0,0c5.7-4.2,9.4-10.8,9.4-18.3
			c0-12.7-10.7-23-23.8-23c-11.7,0-21.3,8.1-23.4,18.8l0,0c0,0-0.7,2.6-3.2,1.8c0,0,0,0-0.1,0c-11.2-3.5-23.7-5.4-36.8-5.4
			c-13.2,0-25.6,1.9-36.8,5.4c0,0,0,0-0.1,0c-2.5,0.7-3.2-1.8-3.2-1.8l0,0C60.4,8.1,50.7,0,39,0C25.9,0,15.2,10.3,15.2,23
			c0,7.5,3.7,14.1,9.4,18.3l0,0c0,0,2.6,1.9,1,3.8c0,0,0,0,0,0C18.2,53.9,14,64,14,74.7c0,32.8,39.6,59.5,88.6,59.5
			c48.9,0,88.6-26.6,88.6-59.5C191.1,64,186.9,53.9,179.4,45.2z"/>
		<g>
			<circle class="st2" cx="77.6" cy="58.8" r="7.1"/>
			<circle class="st2" cx="127.5" cy="58.8" r="7.1"/>
		</g>
		<g>
			<path class="st3" d="M53.4,23C53.4,23,53.4,23.1,53.4,23C53.4,23,53.4,23,53.4,23z"/>
			<path class="st4" d="M53.4,23.1C53.4,23.1,53.4,23,53.4,23.1C53.4,15.5,47,9.3,39,9.3c-7.9,0-14.4,6.1-14.4,13.7
				c0,5.3,3.2,9.9,7.9,12.2c0.5,0.2,2.7,0.8,5.2-1c0,0,0.1,0,0.1-0.1c4.1-2.9,8.6-5.6,13.4-7.9c0,0,0.1,0,0.1,0
				C53.1,25.3,53.4,23.5,53.4,23.1z"/>
		</g>
		<g>
			<path class="st3" d="M151.7,23C151.7,23,151.7,23.1,151.7,23C151.7,23,151.7,23,151.7,23z"/>
			<path class="st4" d="M151.7,23.1C151.7,23.1,151.7,23,151.7,23.1c0-7.6,6.4-13.8,14.4-13.8c7.9,0,14.4,6.1,14.4,13.7
				c0,5.3-3.2,9.9-7.9,12.2c-0.5,0.2-2.7,0.8-5.2-1c0,0-0.1,0-0.1-0.1c-4.1-2.9-8.6-5.6-13.4-7.9c0,0-0.1,0-0.1,0
				C152,25.3,151.7,23.5,151.7,23.1z"/>
		</g>
		<path class="st5" d="M131.1,92.5c0-9-3.6-13.7-11.3-20.1c-7.7-6.5-10.4-17.4-11.4-22.5c0,0-1-4.9-5.7-4.9s-5.7,4.9-5.7,4.9
			c-1.1,5.2-3.7,16.1-11.4,22.5C77.6,78.8,74,83.5,74,92.5c0,0-0.5,9.3,7.8,15.9c8.3,6.6,12.9,4.3,14.9,1.9l2.4-2.9
			c0,0,1.7-2.4,3.4-2.4c1.7,0,3.4,2.4,3.4,2.4l2.4,2.9c2,2.4,6.5,4.7,14.9-1.9C131.5,101.8,131.1,92.5,131.1,92.5z"/>
		<path class="st0" d="M113.8,77.1c-2.2-0.5-7.5-0.6-9.9-0.6v0h-3v0c-2.6,0-7.5,0.1-9.6,0.6c-2.9,0.7-4.9,3.4-2.4,7.3
			c2.5,4,9.7,14.6,13.7,14.6s11.1-10.7,13.7-14.6C118.7,80.5,116.7,77.9,113.8,77.1z"/>
	</g>
</g>
</svg>
