<?xml version="1.0" encoding="utf-8"?>
<!-- Generator: Adobe Illustrator 27.5.0, SVG Export Plug-In . SVG Version: 6.00 Build 0)  -->
<svg version="1.1" id="レイヤー_1" xmlns="http://www.w3.org/2000/svg" xmlns:xlink="http://www.w3.org/1999/xlink" x="0px"
	 y="0px" viewBox="0 0 500 94.6" style="enable-background:new 0 0 500 94.6;" xml:space="preserve">
<style type="text/css">
	.st0{fill:#F29600;}
	.st1{fill:#59C2E1;}
	.st2{fill:#796A56;}
	.st3{fill:none;}
	.st4{fill:#9CDBED;}
	.st5{fill:#FFFFFF;}
</style>
<g>
	<g>
		<g>
			<g>
				<path class="st0" d="M168.7,44.4c-0.2-0.3-0.5-0.6-0.9-0.7l-5.9-1.2c-0.6-0.1-1.3,0.2-1.5,0.8c-4.7,13.6-7,19.2-8.8,23.4
					c-4.7-8.8-6.1-11.7-11-23.5c-0.3-0.6-0.9-0.9-1.6-0.7l-5.7,1.7c-0.4,0.1-0.7,0.4-0.8,0.7c-0.2,0.3-0.2,0.7,0,1.1
					c6.3,13.9,7.9,17.1,14.9,29.3c-3.1,5.5-3.9,6.9-5,8.9l-0.6,1.1c-0.2,0.4-0.2,0.8-0.1,1.2c0.2,0.4,0.5,0.7,0.9,0.7l6,1.4
					c0.1,0,0.2,0,0.3,0c0.5,0,1-0.3,1.2-0.8c9.7-21.2,10.8-23.6,18.7-42.4C168.9,45.1,168.8,44.7,168.7,44.4z"/>
				<path class="st0" d="M192.6,42.4c-4.6,0-8.2,1.2-11,2.4c-0.5,0.2-0.8,0.8-0.8,1.3l0.6,5.6c0,0.4,0.3,0.8,0.7,1
					c0.4,0.2,0.9,0.2,1.2,0c3.1-1.8,5.7-3.2,9.5-3.2c8.4,0,14.7,7.1,14.7,16.5c0,8.2-5,14.6-12,15.2c-3.1,0.3-6-0.7-8.1-2.6
					c-2-1.8-3-4.4-3-7.4c0-8,6.4-10.5,9.5-11.8c0.4-0.1,0.6-0.4,0.7-0.8c0.1-0.4,0.1-0.8-0.1-1.1l-2.3-3.8c-0.3-0.5-0.9-0.7-1.5-0.5
					l-0.2,0.1c-3.7,1.3-15.1,5.1-14.3,18.2c0.6,10.6,7.8,16.9,19.2,16.9c11.9,0,20.9-9.5,20.9-22.2
					C216.4,52.5,206.4,42.4,192.6,42.4z"/>
				<path class="st0" d="M259.5,44.4c-0.2-0.3-0.5-0.6-0.9-0.7l-5.9-1.2c-0.6-0.1-1.3,0.2-1.5,0.8c-4.7,13.6-7,19.2-8.8,23.4
					c-4.7-8.8-6.1-11.7-11-23.5c-0.3-0.6-0.9-0.9-1.6-0.7l-5.7,1.7c-0.4,0.1-0.7,0.4-0.8,0.7c-0.2,0.3-0.2,0.7,0,1.1
					c6.3,13.9,7.9,17.1,14.9,29.3c-3.1,5.5-3.9,6.9-5,8.9l-0.6,1.1c-0.2,0.4-0.2,0.8-0.1,1.2c0.2,0.4,0.5,0.7,0.9,0.7l6,1.4
					c0.1,0,0.2,0,0.3,0c0.5,0,1-0.3,1.2-0.8c9.7-21.2,10.8-23.6,18.7-42.4C259.7,45.1,259.7,44.7,259.5,44.4z"/>
				<path class="st0" d="M303.7,85.9c-0.3-0.6-1.2-2.7-1.8-4.1l-2-4.9c-5.7-13.3-10-24.4-13.3-33.5c-0.2-0.5-0.7-0.9-1.3-0.8
					l-4.8,0.4c-0.5,0-0.9,0.3-1.1,0.8c-2.1,5.3-4.8,11.9-7.6,18.8c-3.5,8.6-7,17.4-9.7,23.9c-0.2,0.4-0.1,0.8,0.1,1.2
					c0.2,0.4,0.6,0.6,1,0.6l5.8,0.5c0.6,0.1,1.1-0.3,1.3-0.9c1.3-3.9,3-8.8,3.7-10.7c0,0,0,0,0-0.1c2.4-0.3,4-0.3,4.6-0.3
					c1.6,0,4.2,0.3,5.9,0.5c0.7,0.1,1.3-0.3,1.4-1l0.9-4.2c0.1-0.4,0-0.8-0.3-1.1c-0.3-0.3-0.7-0.5-1-0.5c-1.5,0-4.9,0.2-7.6,0.3
					c-0.6,0-1.2,0-1.7,0.1l1.7-4.7c1.6-4.3,3-8.2,4.4-12.1c4,10.8,8.5,23.1,13,33.9c0.2,0.5,0.7,0.8,1.2,0.8c0.1,0,0.1,0,0.2,0
					l6-0.9c0.4-0.1,0.8-0.3,1-0.7C303.8,86.7,303.8,86.2,303.7,85.9z"/>
				<path class="st0" d="M499.9,85.9c-0.3-0.6-1.2-2.8-1.8-4.2l-2-4.8c-5.8-13.4-10.2-25-13.3-33.5c-0.2-0.5-0.7-0.9-1.3-0.8
					l-4.8,0.4c-0.5,0-0.9,0.3-1.1,0.8c-2.2,5.3-4.9,12-7.6,18.9c-3.4,8.5-7,17.2-9.6,23.8c-0.2,0.4-0.1,0.8,0.1,1.2
					c0.2,0.4,0.6,0.6,1,0.6l5.8,0.5c0.6,0,1.1-0.3,1.3-0.9c1.3-3.9,3-8.8,3.7-10.7c0,0,0,0,0-0.1c2.4-0.3,4-0.3,4.6-0.3
					c1.6,0,4.2,0.3,5.9,0.5c0.7,0.1,1.3-0.3,1.4-1l0.9-4.2c0.1-0.4,0-0.8-0.3-1.1c-0.3-0.3-0.6-0.5-1-0.5c-1.5,0-4.9,0.2-7.6,0.3
					c-0.6,0-1.2,0-1.7,0.1l1.7-4.6c1.6-4.4,3-8.3,4.4-12.2c4,10.8,8.5,23.1,13,33.9c0.2,0.5,0.7,0.8,1.2,0.8c0.1,0,0.1,0,0.2,0
					l6-0.9c0.4-0.1,0.8-0.3,1-0.7C500,86.7,500.1,86.2,499.9,85.9z"/>
				<path class="st0" d="M346.1,82.6l-3.4-2.7l-2.6-2.2c-4.7-4-6-5.2-12.9-13.2c7.1-7.4,8.2-8.7,15.7-17.4c0.3-0.3,0.4-0.7,0.3-1.1
					c-0.1-0.4-0.4-0.7-0.7-0.9l-5.6-2.4c-0.5-0.2-1.2-0.1-1.5,0.4c-6.5,8.7-8,10.6-14.7,17.8c0.1-4,0.5-9.2,0.9-16.2l0.1-0.8
					c0-0.4-0.1-0.8-0.4-1c-0.3-0.3-0.7-0.4-1.1-0.3l-6.2,0.8c-0.6,0.1-1.1,0.6-1.1,1.3v42.7c0,0.7,0.6,1.3,1.3,1.3h5.9
					c0.4,0,0.7-0.1,0.9-0.4c0.2-0.3,0.4-0.6,0.3-1c-0.3-4.9-0.7-11.5-0.8-18.9c7.1,8.3,9,10.4,18.3,19.9c0.2,0.3,0.6,0.4,0.9,0.4
					c0.2,0,0.5-0.1,0.7-0.2l5.6-3.7c0.3-0.2,0.6-0.6,0.6-1C346.6,83.2,346.4,82.8,346.1,82.6z"/>
				<path class="st0" d="M390.7,81.2l-0.2-4.4l0-1.4c-0.1-2.3-0.2-5.7-0.2-7.8c0-3.6,0.1-10,0.9-23.8c0-0.4-0.1-0.7-0.4-1
					c-0.3-0.3-0.6-0.4-1-0.4l-6.1,0.5c-0.7,0.1-1.2,0.6-1.2,1.3v24.4c-4.2,7.8-8.1,11.8-11.7,11.8c-1,0-1.9-0.4-2.7-1.3
					c-2.3-2.4-3.6-7.9-3.3-13.5l1.3-21.9c0-0.4-0.1-0.8-0.4-1c-0.3-0.3-0.7-0.4-1.1-0.3l-6.7,0.9c-0.6,0.1-1.1,0.6-1.1,1.3v19.9
					c0,5.6,0.9,24,12.8,24c5.6,0,9.9-4.2,12.8-8.1v6.8c0,0.7,0.6,1.3,1.3,1.3h5.9c0.4,0,0.7-0.1,0.9-0.4c0.2-0.3,0.4-0.6,0.4-0.9
					l0-0.9C390.9,85.2,390.8,84.3,390.7,81.2z"/>
				<path class="st0" d="M447.2,43.7c0-0.4-0.2-0.7-0.4-0.9c-0.3-0.2-0.6-0.3-1-0.3l-6.7,0.6c-0.5,0-0.9,0.4-1.1,0.9l-0.2,0.6
					c-4.3,12.9-5.2,15.9-10.9,30.8c-6.9-17.1-8.2-20.4-11.2-32c-0.2-0.6-0.7-1-1.3-1l-6.5,0.5c-0.7,0-1.2,0.6-1.2,1.2l-2,43.1
					c0,0.4,0.1,0.7,0.4,1c0.2,0.3,0.6,0.4,0.9,0.4h5.2c0.7,0,1.3-0.6,1.3-1.3l0.3-27.7c4.6,13.3,5.7,15.9,10.8,28.2
					c0.2,0.5,0.7,0.8,1.2,0.8c0,0,0.1,0,0.1,0l3.7-0.3c0.5,0,0.9-0.3,1.1-0.8c5.1-12.1,7-17.4,10.6-28.1l0.7,28
					c0,0.7,0.6,1.3,1.3,1.3h5.8c0.4,0,0.7-0.1,0.9-0.4c0.2-0.3,0.4-0.6,0.4-1L447.2,43.7z"/>
			</g>
			<g>
				<path class="st1" d="M102,39.8C102,39.8,102,39.7,102,39.8c-1-1.2,0.6-2.4,0.6-2.4l0,0c3.5-2.6,5.8-6.7,5.8-11.3
					c0-7.8-6.6-14.2-14.7-14.2c-7.2,0-13.2,5-14.4,11.6l0,0c0,0-0.4,1.6-2,1.1c0,0,0,0,0,0c-6.9-2.1-14.6-3.3-22.7-3.3
					c-8.1,0-15.8,1.2-22.7,3.3c0,0,0,0,0,0c-1.5,0.5-2-1.1-2-1.1l0,0c-1.3-6.6-7.2-11.6-14.4-11.6c-8.1,0-14.7,6.4-14.7,14.2
					c0,4.6,2.3,8.7,5.8,11.3l0,0c0,0,1.6,1.2,0.6,2.4c0,0,0,0,0,0C2.6,45.1,0,51.3,0,58c0,20.3,24.5,36.7,54.6,36.7
					s54.6-16.4,54.6-36.7C109.2,51.3,106.6,45.1,102,39.8z"/>
				<g>
					<circle class="st2" cx="39.2" cy="48.2" r="4.4"/>
					<circle class="st2" cx="70" cy="48.2" r="4.4"/>
				</g>
				<g>
					<path class="st3" d="M24.3,26.1C24.3,26.1,24.3,26.1,24.3,26.1C24.3,26.1,24.3,26.1,24.3,26.1z"/>
					<path class="st4" d="M24.3,26.1C24.3,26.1,24.3,26.1,24.3,26.1c0-4.7-4-8.5-8.9-8.5c-4.9,0-8.9,3.8-8.9,8.4
						c0,3.3,2,6.1,4.9,7.5c0.3,0.1,1.6,0.5,3.2-0.6c0,0,0,0,0.1,0c2.5-1.8,5.3-3.4,8.3-4.9c0,0,0,0,0.1,0
						C24.1,27.5,24.3,26.4,24.3,26.1z"/>
				</g>
				<g>
					<path class="st3" d="M84.9,26.1C84.9,26.1,84.9,26.1,84.9,26.1C84.9,26.1,84.9,26.1,84.9,26.1z"/>
					<path class="st4" d="M84.9,26.1C84.9,26.1,84.9,26.1,84.9,26.1c0-4.7,4-8.5,8.9-8.5c4.9,0,8.9,3.8,8.9,8.4c0,3.3-2,6.1-4.9,7.5
						c-0.3,0.1-1.6,0.5-3.2-0.6c0,0,0,0-0.1,0c-2.5-1.8-5.3-3.4-8.3-4.9c0,0,0,0-0.1,0C85.1,27.5,85,26.4,84.9,26.1z"/>
				</g>
				<path class="st5" d="M72.2,68.9c0-5.5-2.2-8.4-7-12.4c-4.8-4-6.4-10.7-7.1-13.9c0,0-0.6-3-3.5-3c-2.9,0-3.5,3-3.5,3
					c-0.7,3.2-2.3,9.9-7.1,13.9c-4.8,4-7,6.9-7,12.4c0,0-0.3,5.8,4.8,9.8c5.1,4.1,8,2.7,9.2,1.2l1.5-1.8c0,0,1-1.5,2.1-1.5
					c1.1,0,2.1,1.5,2.1,1.5l1.5,1.8c1.2,1.5,4,2.9,9.2-1.2C72.5,74.7,72.2,68.9,72.2,68.9z"/>
				<path class="st0" d="M61.6,59.5c-1.3-0.3-4.6-0.4-6.1-0.4v0h-1.9v0c-1.6,0-4.6,0.1-5.9,0.4c-1.8,0.4-3,2.1-1.5,4.5
					c1.6,2.4,6,9,8.4,9s6.9-6.6,8.4-9C64.6,61.5,63.3,59.9,61.6,59.5z"/>
			</g>
		</g>
		<g>
			<path class="st1" d="M144.1,13.8c0,0.1,0.1,0.2,0.2,0.3c0.5,0.4,0.6,0.5,0.6,0.8c0,0,0,0.1,0,0.1c0,0.2,0.1,0.2,0.2,0.2h3
				c0.7,0,1.4,0,1.7,0c1.1,0,1.6,1.2,1.6,1.5c0,0.6-3.1,3.5-3.7,3.5c-0.5,0-1.3-1-1.3-1.3c0-0.2,0.2-0.3,0.9-0.8
				c0.1-0.1,0.9-0.6,0.9-0.8c0-0.2-0.3-0.1-0.4-0.1h-3.6c-0.4,0-0.6,0.2-0.6,0.6v4.5c0,0.5,0,1,0,1.5c0,2.2-2.1,2.5-3.8,2.5
				c-0.3,0-0.8,0-1-0.3c-0.2-0.3-0.3-1-0.3-1.4c0-0.3,0.1-0.6,0.4-0.6c0.1,0,0.3,0,0.4,0c0.2,0,0.6,0,0.8,0c1.3,0,1.3-0.3,1.3-1.6
				v-4.7c0-0.4-0.2-0.6-0.6-0.6h-4.6c-0.8,0-1.6,0-2.4,0c-0.5,0-0.5-0.2-0.5-1c0-0.8,0-1,0.5-1c0.8,0,1.6,0,2.4,0h5.6
				c0.1,0,0.2,0,0.2-0.2c0-0.1,0-0.1-0.1-0.2c-0.9-0.7-1.9-1.4-2.9-2.1c-0.2-0.1-0.5-0.2-0.5-0.5c0-0.4,0.8-1.3,1.2-1.3
				c0.3,0,1.7,0.9,2,1.2c0.1,0.1,0.3,0.2,0.5,0.2c0.2,0,0.3-0.1,0.4-0.1c0.3-0.2,2.2-1.2,2.2-1.5c0-0.2-0.3-0.2-0.5-0.2h-5.6
				c-0.8,0-1.5,0-2.3,0c-0.5,0-0.5-0.2-0.5-1c0-0.8,0-1,0.5-1c0.8,0,1.5,0.1,2.3,0.1h6.8c0.6,0,1.2,0,1.7,0c0.4,0,0.6,0.1,0.9,0.4
				c0.2,0.2,0.6,0.7,0.6,1c0,0.7-3.7,2.9-4.4,3.4C144.2,13.5,144.1,13.6,144.1,13.8z"/>
			<path class="st1" d="M161.2,16.1c0-0.1,0-0.1-0.1-0.2c-0.1-0.1-0.3-0.5-0.3-0.6c0-0.4,1-0.8,1.3-0.8c0.2,0,0.3,0.2,0.4,0.4
				c0.5,0.9,0.7,1.4,1,2.2c0.2,0.4,0.5,1,0.5,1.3c0,0.5-1.2,0.7-1.3,0.7c-0.3,0-0.3-0.3-0.5-0.6c-0.1-0.3-0.3-0.4-0.6-0.4
				c-0.2,0-0.5,0.1-0.6,0.1c-0.4,0.1-0.5,0.3-0.5,0.6V23c0,0.9,0,1.7,0,2.6c0,0.6-0.2,0.7-1.1,0.7c-0.9,0-1.1,0-1.1-0.7
				c0-0.9,0.1-1.7,0.1-2.6v-3.9c0-0.3-0.1-0.5-0.5-0.5c0,0-0.5,0.1-0.6,0.1c-0.4,0.1-0.7,0.1-1.3,0.1c-0.2,0-0.2,0.1-0.3,0.2
				c-0.1,0.1-0.1,0.2-0.3,0.2c-0.2,0-0.3-0.3-0.4-1c0-0.2-0.1-0.5-0.2-0.9c0-0.1,0-0.2,0-0.3c0-0.2,0.2-0.2,0.9-0.2
				c0.2,0,0.5,0,0.7,0c0.4,0,0.6-0.1,0.8-0.4c0.1-0.2,0.3-0.4,0.4-0.7c0.1-0.1,0.1-0.2,0.1-0.4c0-0.2-0.1-0.3-0.2-0.5
				c-0.7-0.7-1.5-1.4-2.3-2c-0.1-0.1-0.3-0.2-0.3-0.3c0-0.3,0.3-0.6,0.5-0.9c0.1-0.2,0.3-0.5,0.6-0.5c0.1,0,0.2,0.1,0.3,0.2
				c0.1,0,0.2,0.1,0.3,0.1c0.1,0,0.2-0.1,0.3-0.2c0.5-0.9,0.9-2.1,1.3-3.1c0-0.1,0.1-0.3,0.2-0.3c0.1,0,1.3,0.5,1.5,0.6
				c0.1,0.1,0.4,0.1,0.4,0.3s-0.2,0.2-0.3,0.2c-0.1,0-0.2,0.1-0.3,0.2c-0.5,1.1-0.9,2-1.6,3.1c-0.1,0.1-0.1,0.2-0.1,0.3
				c0,0.2,0.1,0.3,0.2,0.4l0.4,0.4c0.1,0.1,0.2,0.1,0.3,0.1c0.2,0,0.3-0.1,0.3-0.2c0.6-0.9,1-1.7,1.4-2.7c0.1-0.2,0.1-0.3,0.3-0.3
				c0.1,0,0.7,0.3,1,0.5c0.1,0.1,0.2,0.1,0.3,0.1c0.2,0.1,0.7,0.3,0.7,0.5c0,0.2-0.1,0.2-0.3,0.2c-0.2,0-0.3,0.1-0.4,0.2
				c-0.6,1-2.2,3.4-2.9,4.4c0,0.1-0.1,0.1-0.1,0.2c0,0.2,0.1,0.2,0.3,0.2c0.4,0,0.7-0.1,1.1-0.1C160.9,16.5,161.2,16.4,161.2,16.1z
				 M157.9,20c0.1,0,0.3,0.1,0.3,0.3c0,0.1-0.1,0.2-0.2,0.2c-0.2,0.1-0.2,0.2-0.3,0.4c-0.1,0.7-0.6,2.8-0.9,3.6
				c-0.1,0.2-0.2,0.5-0.5,0.5c-0.2,0-1.3-0.2-1.3-0.6c0-0.2,0.2-0.8,0.3-1c0.3-0.8,0.6-2.6,0.8-3.5c0-0.2,0.1-0.3,0.3-0.3
				C156.6,19.7,157.6,20,157.9,20z M162.8,23.6c-0.3,0-0.4-0.3-0.4-0.5c-0.2-0.6-0.7-2.1-0.9-2.7c-0.1-0.1-0.1-0.3-0.1-0.4
				c0-0.4,1-0.6,1.2-0.6c0.2,0,0.3,0.1,0.4,0.2c0.1,0.1,0.7,1.7,0.8,1.9c0.1,0.2,0.4,1.2,0.4,1.4C164,23.4,162.9,23.6,162.8,23.6z
				 M164.7,15.6c-0.1,0.2-0.2,0.3-0.5,0.3c-0.4,0-1.5-0.5-1.5-0.8c0-0.1,0.1-0.3,0.2-0.4c1.2-1.9,2.2-4.3,2.7-6.5
				c0-0.2,0.1-0.3,0.3-0.3c0.2,0,1,0.2,1.3,0.3c0.5,0.1,0.8,0.2,0.8,0.4c0,0.1-0.2,0.2-0.3,0.2c-0.2,0.1-0.3,0.2-0.5,0.9
				c-0.1,0.3-0.2,0.8-0.5,1.5c0,0.1,0,0.1,0,0.2c0,0.3,0.3,0.3,0.4,0.3h2.8c0.6,0,1.2,0,1.7,0c1,0,1,0.7,1,1.5
				c0,2.8-0.2,7.4-0.8,10.1c-0.2,0.9-0.4,1.8-1.3,2.3c-0.7,0.4-2.1,0.6-2.9,0.6c-0.9,0-1.1-0.2-1.2-0.7c-0.1-0.3-0.1-0.7-0.1-1.1
				c0-0.3,0.1-0.5,0.5-0.5c0.3,0,0.8,0.1,1.4,0.1c0.8,0,1.5,0,1.8-1.4c0.4-1.7,0.6-6.4,0.6-8.2c0-0.8-0.2-0.7-1.6-0.7h-2.7
				c-0.4,0-0.6,0.1-0.8,0.5C165.3,14.6,165,15.1,164.7,15.6z M167.1,21c-0.3,0-0.4-0.3-0.5-0.5c-0.4-1.1-0.9-2.2-1.5-3.2
				c-0.1-0.1-0.2-0.3-0.2-0.4c0-0.4,1.2-0.8,1.4-0.8c0.2,0,0.3,0.1,0.4,0.3c0.3,0.6,0.6,1.2,0.9,1.7c0.2,0.3,0.8,1.8,0.8,2.1
				C168.5,20.7,167.3,21,167.1,21z"/>
			<path class="st1" d="M181.6,9.1c0,0.2,0.1,0.2,0.3,0.3h1.7c0.6,0,1.2,0,1.8,0c0.5,0,0.5,0.2,0.5,0.8c0,0.6,0,0.8-0.4,0.8
				c-0.5,0-1,0-1.5,0c-0.2,0-0.4,0.1-0.4,0.3c0,0.1,0,0.1,0,0.2c0,0.1,0.3,0.8,0.3,0.9c0,0.4-1.2,0.6-1.5,0.6
				c-0.2,0-0.3-0.1-0.4-0.6c-0.1-0.2-0.1-0.5-0.3-0.9c-0.1-0.3-0.3-0.5-0.7-0.5c-0.4,0-0.5,0.1-0.7,0.5c-0.2,0.3-1,1.6-1.3,1.6
				c-0.3,0-1.5-0.5-1.5-0.9c0-0.1,0.1-0.3,0.2-0.4c0.8-1,1.7-2.4,2.2-3.7c0-0.1,0.1-0.2,0.2-0.2c0.1,0,1.6,0.3,1.9,0.3
				c0.1,0,0.3,0.1,0.3,0.2c0,0.1-0.2,0.2-0.3,0.2c-0.2,0.1-0.2,0.1-0.3,0.3C181.7,9,181.6,9,181.6,9.1z M188.9,10.9
				c-0.4,0-0.6,0.1-0.8,0.4c-0.2,0.2-0.3,0.5-0.5,0.7c0,0,0,0.1,0,0.1c0,0.1,0.1,0.1,0.2,0.2c0.1,0,0.3,0,0.3,0.2
				c0,0.1-0.1,0.2-0.2,0.3c-0.1,0-0.1,0.1-0.1,0.2l0,0.1c0,0.1,0,0.1,0,0.1c0,0.3,0.3,0.3,0.5,0.3h3.6c0.7,0,1.5,0,2.2,0
				c0.5,0,1.1,0.1,1.1,0.8c0,0.2,0,0.6,0,1v0.8c0,0.2,0.1,0.6,0.1,0.8c0,0.5-0.4,0.4-1.1,0.4c-0.6,0-1,0-1-0.4c0-0.2,0-0.6,0-0.8
				v-0.4c0-0.4-0.2-0.6-0.6-0.6h-11.9c-0.4,0-0.6,0.2-0.6,0.6v0.4c0,0.2,0,0.6,0,0.8c0,0.4-0.4,0.4-1.1,0.4c-0.7,0-1,0-1-0.4
				c0-0.2,0-0.6,0-0.8v-0.8c0-0.5,0-0.8,0-1c0-0.7,0.6-0.8,1.6-0.8c0.5,0,1.1,0,1.8,0h3.6c0.4,0,0.6-0.1,0.5-0.5c0-0.1,0-0.3,0-0.4
				c0-0.1,0-0.1,0-0.2c0-0.3,0.2-0.3,0.4-0.3c0.2,0,0.3,0,0.5,0c0,0,0.1,0,0.1-0.1c0,0,0-0.1,0-0.1c-0.2-0.1-0.7-0.3-0.7-0.5
				c0-0.1,0.2-0.3,0.3-0.4c0.6-0.8,1.4-2.1,1.8-3.1c0.1-0.1,0.1-0.3,0.3-0.3c0.1,0,1.3,0.2,1.5,0.3c0.3,0,0.7,0.1,0.7,0.3
				c0,0.2-0.2,0.2-0.3,0.2c-0.2,0-0.2,0.1-0.3,0.2c0,0,0,0.1,0,0.1c0,0.2,0.1,0.2,0.3,0.3h3.3c0.7,0,1.4,0,2,0
				c0.5,0,0.5,0.2,0.5,0.8c0,0.6,0,0.8-0.5,0.8c-0.6,0-1.3-0.1-2-0.1h-0.5c-0.1,0-0.4,0-0.4,0.3c0,0.1,0.1,0.2,0.1,0.3
				c0.1,0.2,0.2,0.6,0.2,0.7c0,0.4-1.3,0.7-1.6,0.7c-0.3,0-0.3-0.2-0.3-0.4c-0.1-0.3-0.2-0.8-0.4-1.1c-0.2-0.4-0.3-0.5-0.8-0.5
				H188.9z M183.5,20.3c-0.3,0-0.4,0.1-0.4,0.4v0.2c0,0.3,0.1,0.4,0.4,0.4h6.2c0.6,0,1.1,0,1.6,0c0.6,0,1.1,0.1,1.1,0.9
				c0,0.4,0,0.8,0,1.3v0.8c0,0.6,0,1.2,0,1.7c0,0.5-0.2,0.4-1.1,0.4c-0.9,0-1.1,0-1.1-0.5c0-0.3-0.2-0.3-0.3-0.3h-6.4
				c-0.2,0-0.3,0.1-0.3,0.3c0,0.5-0.2,0.5-1.1,0.5c-0.8,0-1.1,0-1.1-0.5c0-0.6,0.1-1.2,0.1-1.7v-6c0-0.6,0-1,0-1.3
				c0-0.7,0.4-0.8,1-0.8c0.6,0,1.2,0,1.8,0h4.8c0.6,0,1.2,0,1.8,0c0.6,0,1.1,0.1,1.1,0.8c0,0.4,0,0.7,0,1.1v0.5c0,0.3,0,0.7,0,1.1
				c0,0.7-0.5,0.8-1,0.8c-0.6,0-1.2,0-1.8,0H183.5z M183.2,18.3c0,0.3,0.2,0.5,0.5,0.5h5.3c0.3,0,0.5-0.2,0.5-0.5v-0.2
				c0-0.3-0.2-0.5-0.5-0.5h-5.3c-0.3,0-0.5,0.2-0.5,0.5V18.3z M189.8,24c0.3,0,0.5-0.2,0.5-0.5v-0.2c0-0.3-0.2-0.5-0.5-0.5h-6.1
				c-0.3,0-0.5,0.2-0.5,0.5v0.2c0,0.3,0.2,0.5,0.5,0.5H189.8z"/>
			<path class="st1" d="M204.8,14.4c0.4,0,0.4,0.3,0.4,1c0,0.7,0,1-0.4,1c-0.2,0-0.8,0-1,0c-0.4,0-0.5,0.2-0.5,0.6v2.4
				c0,0.2,0.1,0.4,0.3,0.4c0.1,0,0.1,0,0.2,0c0.2-0.1,1.2-0.5,1.4-0.5c0.4,0,0.4,0.7,0.4,1c0,0.6-0.1,0.7-0.5,0.9
				c-1.3,0.5-3.5,1.2-4.9,1.6c-0.5,0.1-0.5,0.2-0.6,0.5c-0.1,0.1-0.1,0.2-0.3,0.2c-0.2,0-0.2-0.2-0.4-0.6c-0.1-0.3-0.5-1.4-0.5-1.6
				c0-0.2,0.2-0.3,0.8-0.4c0.3-0.1,0.8-0.1,1.4-0.3c0.4-0.1,0.5-0.3,0.5-0.7v-3c0-0.4-0.1-0.6-0.5-0.6c-0.4,0-0.8,0-1.2,0
				c-0.4,0-0.4-0.3-0.4-1c0-0.7,0-1,0.4-1c0,0,1,0,1.2,0c0.4,0,0.6-0.2,0.6-0.6v-2.4c0-0.4-0.2-0.6-0.6-0.6c-0.4,0-1,0-1.5,0
				c-0.5,0-0.4-0.3-0.4-1c0-0.7,0-1,0.4-1c0.6,0,1.2,0,1.8,0h2.3c0.6,0,1.3,0,1.8,0c0.5,0,0.4,0.3,0.4,1c0,0.7,0,1-0.4,1
				c-0.2,0-1.1,0-1.3,0c-0.4,0-0.5,0.2-0.5,0.6v2.4c0,0.4,0.1,0.5,0.5,0.6C204,14.5,204.6,14.4,204.8,14.4z M208.4,17.8
				c-0.2,0-0.2,0.1-0.3,0.3c-0.1,0.2-0.3,0.2-0.9,0.2c-0.8,0-1,0-1-0.5c0-0.6,0.1-1.1,0.1-1.7v-5.5c0-0.5,0-0.9,0-1.3
				c0-0.7,0.5-0.9,1.1-0.9c0.5,0,1,0,1.5,0h4.9c0.5,0,1,0,1.5,0c0.6,0,1.1,0.1,1.1,0.9c0,0.5,0,0.9,0,1.3v5.5c0,0.6,0,1.1,0,1.6
				c0,0.5-0.2,0.5-1,0.5c-0.5,0-0.8,0-0.9-0.1c-0.1-0.1-0.3-0.3-0.5-0.3h-1c-0.4,0-0.6,0.2-0.6,0.6v0.9c0,0.4,0.2,0.6,0.6,0.6h0.8
				c0.7,0,1.5,0,2.3,0c0.5,0,0.5,0.3,0.5,0.9c0,0.7,0,1-0.5,1c-0.8,0-1.5,0-2.3,0h-0.8c-0.4,0-0.6,0.2-0.6,0.6v0.9
				c0,0.4,0.2,0.6,0.6,0.6h1.5c0.7,0,1.5,0,2.2,0c0.5,0,0.5,0.3,0.5,1c0,0.8,0,1-0.5,1c-0.7,0-1.5,0-2.2,0h-7.5c-0.7,0-1.5,0-2.2,0
				c-0.5,0-0.5-0.3-0.5-1c0-0.8,0-1,0.5-1c0.7,0,1.5,0,2.2,0h2.9c0.4,0,0.6-0.2,0.6-0.6v-0.9c0-0.4-0.2-0.6-0.6-0.6h-0.8
				c-0.8,0-1.5,0-2.3,0c-0.5,0-0.5-0.3-0.5-1c0-0.7,0-0.9,0.5-0.9c0.8,0,1.5,0,2.3,0h0.8c0.4,0,0.6-0.2,0.6-0.6v-0.9
				c0-0.4-0.2-0.6-0.6-0.6H208.4z M210.1,10.9c0-0.3-0.2-0.6-0.6-0.6h-0.9c-0.3,0-0.5,0.2-0.6,0.6v0.8c0,0.3,0.2,0.5,0.6,0.6h0.9
				c0.3,0,0.5-0.2,0.6-0.6V10.9z M208.7,14c-0.3,0-0.5,0.2-0.6,0.6v0.9c0,0.3,0.2,0.5,0.6,0.6h0.9c0.3,0,0.5-0.2,0.6-0.6v-0.9
				c0-0.3-0.2-0.5-0.6-0.6H208.7z M213.6,12.3c0.3,0,0.5-0.2,0.6-0.6v-0.8c0-0.3-0.2-0.6-0.6-0.6h-0.9c-0.3,0-0.5,0.2-0.6,0.6v0.8
				c0,0.3,0.2,0.5,0.6,0.6H213.6z M212.1,15.5c0,0.3,0.2,0.5,0.6,0.6h0.9c0.3,0,0.5-0.2,0.6-0.6v-0.9c0-0.3-0.2-0.5-0.6-0.6h-0.9
				c-0.3,0-0.5,0.2-0.6,0.6V15.5z"/>
			<path class="st1" d="M228.2,8.8c0.1,0,0.3,0.1,0.3,0.2s-0.1,0.2-0.3,0.4c-0.2,0.1-0.3,0.9-0.4,1.1c-0.1,0.2-0.2,0.8-0.2,0.9
				c0,0.1,0.1,0.3,0.2,0.3c0.1,0,1-0.2,1.2-0.3c0.1,0,0.1,0,0.2,0c0.2,0,0.3,0.4,0.3,0.6c0,0.3,0.1,0.8,0.1,1.1
				c0,0.5-0.2,0.5-2.1,0.8c-0.7,0.1-0.7,0.3-1,0.9c-0.9,2.5-2.1,5-3.4,7.3c-0.1,0.2-0.2,0.3-0.4,0.3c-0.5,0-1.8-0.6-1.8-1
				c0-0.2,0.3-0.6,0.4-0.7c0.8-1.4,1.8-3.3,2.4-4.8c0.1-0.2,0.5-1.1,0.5-1.3c0-0.1-0.1-0.3-0.3-0.3c-0.2,0-1.7,0.2-2.2,0.2
				c-0.3,0-0.4-0.2-0.5-0.7c0-0.2-0.1-1-0.1-1.2c0-0.3,0.1-0.3,0.4-0.3h0.9c0.7,0,1.4,0,2.1-0.1c0.3,0,0.5-0.1,0.6-0.3
				c0.3-0.5,0.7-2.8,0.7-3.5c0-0.1,0-0.3,0.2-0.3C226.2,8.2,227.9,8.7,228.2,8.8z M231.2,15c0.2,0.1,0.4,0.2,0.4,0.4
				c0,0,0,0.7,0,1.1c0,0.6,0.1,3.6,0.2,4c0.1,0.3,0.3,0.4,0.6,0.5c0.1,0,0.1,0.1,0.2,0.1c0.5,0.2,2.9,1.3,2.9,1.8
				c0,0.3-0.8,1.5-1.3,1.5c-0.2,0-0.4-0.2-0.5-0.3c-0.3-0.2-1.3-0.9-1.6-0.9c-0.2,0-0.3,0.3-0.3,0.5c-0.2,1.5-1.5,2-2.9,2
				c-1.7,0-3.6-0.9-3.6-2.8c0-1.9,1.8-2.5,3.4-2.5h0.5c0.2,0,0.4-0.1,0.4-0.3c0-0.7-0.3-3.6-0.4-4.4c0-0.1,0-0.2,0-0.3
				c0-0.3,0.2-0.5,0.5-0.5C230.1,14.8,230.8,14.9,231.2,15z M227.4,22.8c0,0.6,0.8,1,1.4,1c0.7,0,1.1-0.4,1.1-1.1c0-0.4,0-0.6-1-0.6
				C228.2,22,227.4,22.1,227.4,22.8z M236.3,14.9c0,0.5-1.2,1.4-1.5,1.4c-0.2,0-0.3-0.2-0.5-0.4c-0.6-1-1.6-2-2.6-2.7
				c-0.1-0.1-0.3-0.2-0.3-0.3c0-0.3,0.9-1.4,1.4-1.4C233.4,11.6,236.3,14.4,236.3,14.9z"/>
			<path class="st1" d="M245.1,12.9c0.1,0.1,0.4,0.1,0.4,0.3c0,0.1-0.1,0.2-0.2,0.2c-0.3,0.2-0.3,0.4-0.4,0.8
				c-0.2,0.9-0.3,1.9-0.5,2.9c0,0.1-0.1,0.3-0.1,0.4s0.1,0.2,0.2,0.2c0.1,0,0.2-0.1,0.3-0.1c1.5-1.1,2.8-1.9,4.7-1.9
				c2.5,0,4.5,1.7,4.5,4.3c0,2.9-2.2,4.2-4.7,4.9c-0.6,0.2-2,0.6-2.7,0.6c-0.5,0-0.6-0.2-0.8-0.6c-0.1-0.3-0.3-1-0.3-1.3
				c0-0.3,0.2-0.3,0.5-0.4c0.9,0,1.9-0.2,2.7-0.4c1.5-0.4,3-1,3-2.8c0-1.4-1.2-2.2-2.5-2.2c-2.2,0-4.3,1.8-5.6,3.4
				c-0.2,0.2-0.3,0.4-0.6,0.4c-0.2,0-1.6-0.2-1.6-0.8c0-0.2,0.1-0.5,0.2-0.7c0.2-0.7,0.3-1.3,0.5-2c0.3-1.5,0.4-3,0.5-4.5
				c0-0.2,0-0.3,0-0.5c0-0.6,0-0.9,0.3-0.9C243.3,12.3,244.7,12.7,245.1,12.9z M245.4,8.4c0.3,0,2,1.1,2.3,1.3
				c0.3,0.2,1.5,0.8,1.5,1.2c0,0.4-0.8,1.6-1.3,1.6c-0.2,0-0.5-0.3-0.7-0.4c-0.8-0.7-1.7-1.3-2.6-1.7c-0.2-0.1-0.5-0.2-0.5-0.5
				C244.3,9.7,245,8.4,245.4,8.4z"/>
			<path class="st1" d="M270.7,10.6c0.5,0,1.1,0,1.6,0c0.8,0,1.3,0.1,1.3,1.1c0,0.6,0,1.2,0,1.8v8.3c0,0.6,0,1.2,0,1.8
				c0,0.7-0.1,0.7-1,0.7c-1.2,0-1.2,0-1.3-0.5c-0.1-0.4-0.5-0.4-1-0.4h-6.3c-0.6,0-1.2,0-1.8,0c-0.3,0-0.6,0-0.9,0
				c-0.5,0-0.5-0.3-0.5-1.2c0-0.7,0-1,0.5-1c0.6,0,1.7,0,2.6,0h6.8c0.3,0,0.6-0.2,0.6-0.6v-2.1c0-0.3-0.2-0.6-0.6-0.6h-6.5
				c-0.9,0-2.2,0.1-2.7,0.1c-0.5,0-0.5-0.3-0.5-1c0-1,0-1.2,0.5-1.2c0.3,0,0.6,0,0.8,0c0.6,0,1.2,0,1.8,0h6.5c0.3,0,0.6-0.2,0.6-0.6
				v-2.1c0-0.3-0.2-0.6-0.6-0.6h-6.7c-0.9,0-1.8,0.1-2.6,0.1c-0.5,0-0.5-0.4-0.5-1.1c0-0.9,0-1.2,0.5-1.2c0.6,0,1.6,0,2.6,0H270.7z"
				/>
			<path class="st1" d="M284.7,14.3c0.3-0.1,0.6-0.4,0.5-0.7l-0.3-1.5c-0.2-0.8-0.3-1.6-0.5-2.4c0-0.1-0.1-0.3-0.1-0.4
				c0-0.2,0.5-0.2,0.8-0.3c0.4,0,1-0.1,1.4-0.1c0.2,0,0.5,0,0.5,0.3c0,0.1,0,0.2-0.1,0.3c-0.1,0.1-0.1,0.2-0.1,0.3
				c0,0.3,0.3,1.5,0.3,1.8l0.3,1.5c0.1,0.3,0.4,0.6,0.7,0.5l4.6-0.9c0.6-0.1,2-0.5,2.2-0.5c0.4,0,1.6,1.1,1.6,1.5
				c0,0.2-0.2,0.4-0.3,0.5c-0.9,0.9-2.1,2.8-2.9,3.9c-0.4,0.6-0.7,1.2-1.2,1.2c-0.4,0-1.7-0.6-1.7-1c0-0.2,0.2-0.4,0.3-0.5
				c0.3-0.3,2-2.6,2-2.8c0-0.1-0.1-0.2-0.2-0.2c-0.1,0-0.4,0.1-0.5,0.1l-3.6,0.7c-0.4,0.1-0.5,0.4-0.5,0.7l1.2,5.7
				c0.1,0.5,0.6,2.7,0.6,3c0,0.2-0.1,0.4-0.3,0.5c-0.2,0.1-1.3,0.3-1.5,0.3c-0.4,0-0.5-0.4-0.7-1.5c-0.1-0.5-0.2-1.1-0.3-1.8
				l-1.2-5.7c-0.1-0.3-0.4-0.5-0.7-0.5l-2.2,0.5c-0.3,0.1-2.7,0.6-2.8,0.6c-0.2,0-0.3-0.2-0.4-0.3c-0.1-0.2-0.3-1.2-0.3-1.4
				c0-0.4,0.2-0.4,1.6-0.7c0.4-0.1,0.9-0.1,1.5-0.3L284.7,14.3z"/>
			<path class="st1" d="M312.8,11.8c0.4,0,0.7,0,1.2-0.1c0.1,0,0.1,0,0.2,0c0.4,0,1.3,1.1,1.3,1.4c0,0.1-0.1,0.2-0.2,0.5
				c-0.2,0.2-0.4,0.6-0.6,1.1c-2,3.9-4,6.9-7.8,9.4c-0.5,0.3-2.4,1.5-2.8,1.5c-0.5,0-1.7-1-1.7-1.4c0-0.2,0.2-0.3,0.4-0.4
				c3.3-1.5,5.9-3.6,7.9-6.6c0.4-0.5,1.6-2.5,1.6-3c0-0.3-0.3-0.3-0.6-0.3h-3.9c-0.5,0-0.6,0.2-0.9,0.6c-0.4,0.6-2.8,3.4-3.3,3.4
				c-0.2,0-1.7-0.8-1.7-1.2c0-0.1,0.1-0.2,0.2-0.3c2.2-1.7,4.5-4.8,5.5-7.4c0.1-0.2,0.1-0.5,0.3-0.5c0.1,0,0.7,0.2,1.1,0.5
				C309,9,310,9.4,310,9.7c0,0.1-0.1,0.2-0.2,0.2c-0.3,0.1-0.4,0.2-0.7,0.8c-0.1,0.2-0.4,0.6-0.4,0.7c0,0.2,0.1,0.3,0.3,0.3H312.8z"
				/>
			<path class="st1" d="M334.9,12.7c0.4,0,0.8,0,1.2-0.1c0.1,0,0.1,0,0.2,0c0.4,0,1.4,1.3,1.4,1.5c0,0.1-0.3,0.4-0.6,0.7
				c-0.2,0.2-0.4,0.3-0.6,0.5c-1.7,1.7-3.6,3.4-5.4,5c-0.2,0.2-0.4,0.3-0.4,0.6c0,0.2,0.2,0.4,0.3,0.6c0.1,0.2,0.8,1.1,0.8,1.3
				c0,0.4-1.3,1.2-1.7,1.2c-0.2,0-0.3-0.2-0.4-0.4c-1-1.6-2.3-3.2-3.7-4.4c-0.1-0.1-0.4-0.3-0.4-0.5c0-0.3,1.1-1.2,1.5-1.2
				c0.3,0,1.3,1,1.6,1.3c0.2,0.2,0.3,0.3,0.5,0.3c0.2,0,0.3-0.1,0.5-0.2c0.9-0.7,1.7-1.5,2.6-2.3c0.2-0.2,1.3-1.2,1.3-1.4
				c0-0.3-0.4-0.3-0.8-0.3h-8.6c-0.9,0-1.9,0.1-2.6,0.1c-0.6,0-0.5-0.4-0.5-1c0-1.1,0-1.3,0.5-1.3c0.9,0,1.8,0,2.7,0H334.9z"/>
		</g>
	</g>
	<g>
		<path class="st0" d="M363.8,2c0,0.3,0.2,0.4,0.5,0.4h2.8c1,0,2-0.1,3-0.1c0.8,0,0.8,0.3,0.8,1.4c0,1.1,0,1.4-0.7,1.4
			c-0.8,0-1.6-0.1-2.4-0.1c-0.3,0-0.7,0.1-0.7,0.5c0,0.1,0,0.2,0.1,0.3c0.1,0.2,0.4,1.3,0.4,1.5c0,0.7-2,1-2.6,1
			c-0.4,0-0.5-0.2-0.7-1c-0.1-0.3-0.2-0.9-0.5-1.5c-0.2-0.6-0.5-0.8-1.1-0.8c-0.6,0-0.9,0.2-1.2,0.8c-0.3,0.5-1.6,2.6-2.2,2.6
			c-0.5,0-2.5-0.8-2.5-1.4c0-0.2,0.2-0.4,0.3-0.6c1.4-1.7,2.8-4,3.6-6.1c0.1-0.2,0.2-0.3,0.4-0.3c0.2,0,2.7,0.5,3.1,0.5
			c0.2,0,0.6,0.1,0.6,0.4c0,0.2-0.3,0.3-0.4,0.4c-0.3,0.1-0.4,0.1-0.6,0.4C363.8,1.8,363.8,1.9,363.8,2z M375.9,5.1
			c-0.7,0-1,0.1-1.4,0.7c-0.3,0.4-0.5,0.8-0.9,1.2c0,0.1-0.1,0.1-0.1,0.2c0,0.2,0.1,0.2,0.3,0.3c0.2,0,0.5,0.1,0.5,0.4
			c0,0.2-0.2,0.3-0.4,0.4c-0.1,0.1-0.2,0.1-0.2,0.3l0,0.1c0,0.1,0,0.2,0,0.2c0.1,0.5,0.5,0.6,0.9,0.6h6c1.2,0,2.5,0,3.7,0
			c0.9,0,1.8,0.2,1.8,1.3c0,0.3-0.1,1-0.1,1.7v1.3c0,0.4,0.1,1,0.1,1.3c0,0.8-0.6,0.7-1.8,0.7c-1.1,0-1.7,0.1-1.7-0.7
			c0-0.4,0.1-0.9,0.1-1.4v-0.7c0-0.7-0.3-1-1-1h-19.8c-0.6,0-0.9,0.3-0.9,1v0.6c0,0.4,0.1,1,0.1,1.4c0,0.7-0.6,0.7-1.8,0.7
			c-1.2,0-1.7,0-1.7-0.7c0-0.4,0.1-0.9,0.1-1.3v-1.3c0-0.8,0-1.4,0-1.7c0-1.2,0.9-1.4,2.6-1.4c0.8,0,1.8,0.1,2.9,0.1h6
			c0.6,0,0.9-0.2,0.9-0.9c0-0.2,0-0.4-0.1-0.6c0-0.1,0-0.2,0-0.3c0-0.4,0.4-0.4,0.7-0.4c0.3,0,0.6,0,0.9,0c0.1,0,0.1,0,0.1-0.1
			c0,0,0-0.1-0.1-0.1c-0.4-0.1-1.2-0.5-1.2-0.9c0-0.2,0.3-0.5,0.5-0.7c1.1-1.3,2.3-3.6,2.9-5.1c0.1-0.2,0.2-0.4,0.4-0.4
			c0.1,0,2.1,0.4,2.5,0.4c0.5,0.1,1.2,0.1,1.2,0.5c0,0.3-0.3,0.3-0.5,0.4c-0.3,0.1-0.3,0.2-0.5,0.4c0,0.1-0.1,0.2-0.1,0.2
			c0,0.3,0.2,0.4,0.5,0.4h5.5c1.1,0,2.3-0.1,3.3-0.1c0.8,0,0.8,0.4,0.8,1.4c0,1,0,1.4-0.8,1.4c-1,0-2.2-0.1-3.3-0.1H382
			c-0.1,0-0.6,0-0.6,0.6c0,0.2,0.1,0.3,0.2,0.5c0.1,0.4,0.4,1,0.4,1.1c0,0.6-2.2,1.1-2.6,1.1c-0.4,0-0.5-0.3-0.6-0.7
			c-0.2-0.6-0.4-1.3-0.6-1.8c-0.3-0.6-0.6-0.8-1.3-0.8H375.9z M367,20.7c-0.4,0-0.7,0.2-0.7,0.6v0.3c0,0.5,0.2,0.6,0.7,0.6h10.3
			c0.9,0,1.8,0,2.7,0c1.1,0,1.8,0.2,1.8,1.4c0,0.6,0,1.3,0,2.1v1.4c0,1,0.1,1.9,0.1,2.9c0,0.8-0.4,0.7-1.8,0.7c-1.6,0-1.8,0-1.8-0.8
			c0-0.4-0.3-0.5-0.5-0.5h-10.6c-0.4,0-0.5,0.2-0.5,0.5c0,0.8-0.3,0.8-1.8,0.8c-1.4,0-1.8,0-1.8-0.8c0-1,0.1-1.9,0.1-2.9v-9.9
			c0-1-0.1-1.6-0.1-2.2c0-1.2,0.7-1.4,1.7-1.4c1,0,2,0.1,2.9,0.1h8c1,0,2-0.1,2.9-0.1c1,0,1.8,0.2,1.8,1.4c0,0.6-0.1,1.2-0.1,1.8
			v0.9c0,0.6,0.1,1.2,0.1,1.8c0,1.1-0.8,1.3-1.7,1.3c-1,0-2-0.1-3-0.1H367z M366.3,17.4c0,0.5,0.3,0.8,0.8,0.8h8.8
			c0.5,0,0.8-0.3,0.8-0.8V17c0-0.5-0.3-0.8-0.8-0.8h-8.8c-0.5,0-0.8,0.3-0.8,0.8V17.4z M377.3,26.9c0.5,0,0.8-0.3,0.8-0.8v-0.4
			c0-0.5-0.3-0.8-0.8-0.8h-10.2c-0.5,0-0.8,0.3-0.8,0.8v0.4c0,0.5,0.3,0.8,0.8,0.8H377.3z"/>
		<path class="st0" d="M402.2,10.9c0.7,0,0.7,0.5,0.7,1.7c0,1.2,0,1.6-0.7,1.6c-0.3,0-1.4,0-1.7,0c-0.7,0-0.9,0.3-0.9,0.9v4
			c0,0.4,0.1,0.7,0.6,0.7c0.1,0,0.2,0,0.3,0c0.3-0.1,2.1-0.8,2.3-0.8c0.7,0,0.7,1.2,0.7,1.7c0,1.1-0.1,1.2-0.8,1.4
			c-2.2,0.9-5.8,2-8.1,2.6c-0.8,0.2-0.9,0.3-1,0.8c-0.1,0.2-0.2,0.4-0.4,0.4c-0.3,0-0.4-0.3-0.6-1c-0.2-0.5-0.8-2.3-0.8-2.7
			c0-0.4,0.3-0.4,1.4-0.6c0.5-0.1,1.3-0.2,2.3-0.5c0.7-0.2,0.9-0.5,0.9-1.2v-5c0-0.6-0.2-0.9-0.9-1c-0.6,0-1.4,0.1-2,0.1
			c-0.7,0-0.7-0.5-0.7-1.6c0-1.2,0-1.7,0.7-1.7c0,0,1.7,0.1,1.9,0.1c0.7,0,0.9-0.3,0.9-0.9v-4c0-0.6-0.3-0.9-0.9-1
			c-0.7,0-1.7,0.1-2.4,0.1c-0.8,0-0.7-0.4-0.7-1.6c0-1.2,0-1.7,0.7-1.7c0.9,0,1.9,0.1,3,0.1h3.8c1,0,2.1-0.1,3-0.1
			c0.8,0,0.7,0.5,0.7,1.7c0,1.2,0,1.6-0.7,1.6c-0.3,0-1.8,0-2.2-0.1c-0.7,0.1-0.9,0.3-0.9,1v4c0,0.6,0.2,0.9,0.9,0.9
			C400.8,11,401.9,10.9,402.2,10.9z M408.1,16.5c-0.3,0-0.4,0.2-0.5,0.4c-0.2,0.4-0.5,0.4-1.6,0.4c-1.3,0-1.7,0-1.7-0.8
			c0-0.9,0.1-1.8,0.1-2.8V4.7c0-0.8-0.1-1.5-0.1-2.2c0-1.2,0.8-1.4,1.8-1.4c0.8,0,1.6,0,2.5,0h8.1c0.8,0,1.6,0,2.5,0
			c1,0,1.8,0.2,1.8,1.4c0,0.8-0.1,1.5-0.1,2.2v9.1c0,0.9,0.1,1.8,0.1,2.7c0,0.8-0.4,0.8-1.7,0.8c-0.9,0-1.3,0-1.5-0.2
			c-0.2-0.2-0.5-0.5-0.8-0.6h-1.7c-0.7,0-1,0.3-1,1V19c0,0.7,0.3,1,1,1h1.3c1.2,0,2.5-0.1,3.8-0.1c0.8,0,0.8,0.4,0.8,1.6
			s0,1.6-0.8,1.6c-1.3,0-2.5-0.1-3.8-0.1h-1.3c-0.7,0-1,0.3-1,0.9v1.5c0,0.6,0.3,0.9,1,0.9h2.5c1.2,0,2.5-0.1,3.7-0.1
			c0.9,0,0.8,0.5,0.8,1.7c0,1.3,0,1.7-0.9,1.7c-1.2,0-2.4-0.1-3.7-0.1h-12.5c-1.2,0-2.5,0.1-3.7,0.1c-0.9,0-0.9-0.5-0.9-1.7
			c0-1.3,0-1.7,0.9-1.7c1.2,0,2.4,0.1,3.7,0.1h4.8c0.7,0,1-0.3,1-0.9v-1.5c0-0.6-0.3-0.9-1-0.9h-1.3c-1.3,0-2.5,0.1-3.8,0.1
			c-0.9,0-0.8-0.5-0.8-1.6c0-1.2,0-1.6,0.8-1.6c1.3,0,2.5,0.1,3.8,0.1h1.3c0.7,0,1-0.3,1-1v-1.6c0-0.7-0.3-1-1-1H408.1z M411,5
			c-0.1-0.6-0.4-0.9-1-0.9h-1.4c-0.6,0-0.9,0.3-1,0.9v1.4c0.1,0.6,0.4,0.9,1,1h1.4c0.6-0.1,0.9-0.4,1-1V5z M408.6,10.2
			c-0.6,0.1-0.9,0.4-1,1v1.5c0.1,0.6,0.4,0.9,1,1h1.4c0.6-0.1,0.9-0.4,1-1v-1.5c-0.1-0.6-0.4-0.9-1-1H408.6z M416.7,7.4
			c0.6-0.1,0.9-0.4,1-1V5c-0.1-0.6-0.4-0.9-1-0.9h-1.5c-0.6,0-0.9,0.3-1,0.9v1.4c0.1,0.6,0.4,0.9,1,1H416.7z M414.3,12.6
			c0.1,0.6,0.4,0.9,1,1h1.5c0.6-0.1,0.9-0.4,1-1v-1.5c-0.1-0.6-0.4-0.9-1-1h-1.5c-0.6,0.1-0.9,0.4-1,1V12.6z"/>
		<path class="st0" d="M446.6,8c0.8,0,1.5-0.1,2.3-0.1c1.1,0,1.6,0.3,1.6,1.4c0,0.7,0,1.4,0,2.1v7.7c0,0.7,0,1.4,0,2.1
			c0,1.1-0.5,1.4-1.5,1.4c-0.8,0-1.6-0.1-2.3-0.1h-8c-0.8,0-1.5,0.1-2.3,0.1c-1.1,0-1.6-0.3-1.6-1.4c0-0.7,0.1-1.4,0.1-2.1v-7.7
			c0-0.7-0.1-1.4-0.1-2.1c0-1.1,0.5-1.4,1.5-1.4c0.8,0,1.5,0.1,2.3,0.1h1.3c0.7,0,1-0.3,1-1V5.4c0-0.6-0.3-1-1-1h-7.3
			c-1.4,0-2.8,0.1-4.2,0.1c-0.8,0-0.8-0.4-0.8-1.7c0-1.3,0-1.7,0.8-1.7c1.4,0,2.8,0.1,4.2,0.1h20.1c1.4,0,2.8-0.1,4.2-0.1
			c0.9,0,0.8,0.4,0.8,1.7c0,1.2,0,1.7-0.8,1.7c-1.4,0-2.8-0.1-4.2-0.1h-7.3c-0.7,0-1,0.3-1,1V7c0,0.7,0.3,1,1,1H446.6z M453,11.1
			c0-1-0.1-2-0.1-2.9c0-0.1,0-0.2,0-0.3c0-0.4,0.3-0.4,0.7-0.4c0.6,0,2.2,0.1,2.9,0.1c0.3,0,0.9,0,0.9,0.4c0,0.2-0.1,0.3-0.4,0.5
			c-0.4,0.3-0.4,1.1-0.4,2.2v14.2c0,1.6,0.1,3.1,0.1,4.7c0,1.1-0.4,1.1-1.8,1.1c-1.6,0-1.8-0.1-1.8-1.2c0-0.5-0.2-0.8-0.8-0.8h-19
			c-0.5,0-0.8,0.2-0.8,0.8v0.2c0,1-0.5,1-1.8,1c-1.4,0-1.8,0-1.8-1.1c0-1.5,0.1-3,0.1-4.6v-14c0-1-0.1-2-0.1-2.8c0-0.1,0-0.2,0-0.3
			c0-0.4,0.3-0.4,0.6-0.4c0.6,0,2.2,0.1,2.9,0.1c0.3,0,0.9,0,0.9,0.4c0,0.2-0.2,0.3-0.4,0.5c-0.4,0.3-0.4,1-0.4,2.1v13.9
			c0,0.7,0.3,1,1,1H452c0.7,0,1-0.3,1-1V11.1z M440,13.7c0.6-0.1,0.9-0.4,1-1v-0.9c-0.1-0.6-0.4-0.9-1-0.9h-1.2
			c-0.6,0-0.9,0.3-0.9,0.9v0.9c0,0.6,0.3,0.9,0.9,1H440z M441,17.3c-0.1-0.6-0.4-0.9-1-1h-1.2c-0.6,0.1-0.9,0.4-0.9,1v1.3
			c0,0.6,0.3,0.9,0.9,1h1.2c0.6-0.1,0.9-0.4,1-1V17.3z M444.2,12.7c0.1,0.6,0.4,0.9,1,1h1.3c0.6-0.1,0.9-0.4,0.9-1v-0.9
			c-0.1-0.6-0.3-0.9-0.9-0.9h-1.3c-0.6,0-0.9,0.3-1,0.9V12.7z M445.1,16.3c-0.6,0.1-0.9,0.4-1,1v1.3c0.1,0.6,0.4,0.9,1,1h1.3
			c0.6-0.1,0.9-0.4,0.9-1v-1.3c-0.1-0.6-0.3-0.9-0.9-1H445.1z"/>
		<path class="st0" d="M478.2,7.9c0,0.4,0.3,0.5,0.6,0.5h7.3c1.1,0,2.2,0,3.2,0c1.3,0,2.1,0.2,2.1,1.7c0,1-0.1,1.9-0.1,2.8v13.3
			c0,1.2,0.1,2.5,0.1,3.7c0,0.9-0.5,0.9-1.8,0.9c-1.4,0-1.9,0-1.9-0.9v-0.3c0-0.5-0.3-0.8-0.8-0.8h-17.8c-0.5,0-0.8,0.2-0.8,0.8v0.2
			c0,0.9-0.4,0.9-1.9,0.9c-1.5,0-1.9,0-1.9-0.9c0-1.2,0.1-2.5,0.1-3.7V12.9c0-0.9-0.1-1.9-0.1-2.8c0-1.4,0.8-1.7,2-1.7
			c1.1,0,2.2,0,3.3,0h2.9c0.7,0,1-0.1,1.4-0.8c0.5-0.8,0.9-1.6,1.3-2.4c0-0.1,0.1-0.2,0.1-0.3c0-0.5-0.5-0.5-0.6-0.5h-6.9
			c-1.4,0-2.8,0.1-4.2,0.1C463,4.4,463,4,463,2.8c0-1.3,0-1.7,0.8-1.7c1.4,0,2.8,0.1,4.2,0.1h20c1.4,0,2.8-0.1,4.2-0.1
			c0.9,0,0.8,0.4,0.8,1.7c0,1.3,0,1.7-0.8,1.7c-1.4,0-2.8-0.1-4.2-0.1h-7c-0.7,0-1,0.1-1.3,0.8c-0.4,0.8-0.9,1.6-1.4,2.5
			C478.3,7.7,478.2,7.8,478.2,7.9z M472.2,12.6c-0.1-0.6-0.4-0.9-1-1h-2c-0.6,0.1-0.9,0.4-1,1v11.9c0.1,0.6,0.4,0.9,1,0.9h2
			c0.6,0,0.9-0.3,1-0.9V12.6z M476.4,11.7c-0.6,0.1-0.9,0.4-1,1v0.6c0.1,0.6,0.4,0.9,1,1h3.2c0.6-0.1,0.9-0.3,1-1v-0.6
			c-0.1-0.6-0.4-0.9-1-1H476.4z M476.4,17.1c-0.6,0-0.9,0.3-1,0.9v0.7c0.1,0.6,0.4,0.9,1,1h3.2c0.6-0.1,0.9-0.4,1-1V18
			c-0.1-0.6-0.4-0.9-1-0.9H476.4z M479.6,25.5c0.6,0,0.9-0.3,1-0.9v-1c-0.1-0.6-0.4-0.9-1-1h-3.2c-0.6,0.1-0.9,0.4-1,1v1
			c0.1,0.6,0.4,0.9,1,0.9H479.6z M486.8,25.5c0.6,0,0.9-0.3,1-0.9V12.6c-0.1-0.6-0.3-0.9-1-1h-2c-0.6,0.1-0.9,0.4-1,1v11.9
			c0.1,0.6,0.4,0.9,1,0.9H486.8z"/>
	</g>
</g>
</svg>
