<?xml version="1.0" encoding="utf-8"?>
<!-- Generator: Adobe Illustrator 27.5.0, SVG Export Plug-In . SVG Version: 6.00 Build 0)  -->
<svg version="1.1" id="レイヤー_1" xmlns="http://www.w3.org/2000/svg" xmlns:xlink="http://www.w3.org/1999/xlink" x="0px"
	 y="0px" viewBox="0 0 104.2 80.8" style="enable-background:new 0 0 104.2 80.8;" xml:space="preserve">
<style type="text/css">
	.st0{fill:#F29600;}
	.st1{fill:none;}
</style>
<g>
	<path class="st0" d="M83,12.2H21.2c-3.7,0-6.8,3-6.8,6.8v2.8v5.6v34.4c0,3.7,3,6.8,6.8,6.8H83c3.7,0,6.8-3,6.8-6.8V27.3v-5.6V19
		C89.8,15.3,86.7,12.2,83,12.2z M85.4,61.8c0,1.4-1.1,2.5-2.4,2.5H21.2c-1.4,0-2.4-1.1-2.4-2.5v-31l26,20.8c2.1,1.7,4.7,2.5,7.4,2.5
		c2.7,0,5.3-0.8,7.4-2.5l26-20.8V61.8z M56.7,48.2c-2.5,2-6.8,2-9.3,0L18.8,25.3V19c0-1.4,1.1-2.4,2.4-2.4H83c1.4,0,2.4,1.1,2.4,2.4
		v6.2L56.7,48.2z"/>
	<rect class="st1" width="104.2" height="80.8"/>
</g>
</svg>
