<?xml version="1.0" encoding="utf-8"?>
<!-- Generator: Adobe Illustrator 27.5.0, SVG Export Plug-In . SVG Version: 6.00 Build 0)  -->
<svg version="1.1" id="レイヤー_1" xmlns="http://www.w3.org/2000/svg" xmlns:xlink="http://www.w3.org/1999/xlink" x="0px"
	 y="0px" viewBox="0 0 1500 768" style="enable-background:new 0 0 1500 768;" xml:space="preserve">
<style type="text/css">
	.st0{fill:#FFFFF4;}
	.st1{fill:#F9D08C;}
	.st2{fill:#9BDAED;}
	.st3{fill:#B1E3FF;}
	.st4{fill:#B4E4F1;}
	.st5{fill:none;}
	.st6{fill:#F6FFFF;}
</style>
<g>
	<rect class="st6" width="1500" height="768"/>
	<g>
		<polygon class="st1" points="48.9,0 41,0 0,55.2 0,65.8 		"/>
		<polygon class="st1" points="70.4,0 62.5,0 0,84 0,94.7 		"/>
		<path class="st1" d="M91.8,0h-7.9L2.8,109.1c1.5,1.5,3.1,3,4.7,4.4L91.8,0z"/>
		<path class="st1" d="M16.2,119.9c1.8,1.2,3.6,2.2,5.5,3.2L113.3,0h-7.9L16.2,119.9z"/>
		<path class="st1" d="M0,1.1v7L6,0H1C0.6,0.3,0.3,0.7,0,1.1z"/>
		<polygon class="st1" points="27.5,0 19.5,0 0,26.3 0,36.9 		"/>
		<path class="st1" d="M102.4,119.4c15.2-10.1,26.7-25.3,32.1-43.2L102.4,119.4z"/>
		<path class="st1" d="M72,131.4c3.3-0.5,6.5-1.3,9.6-2.2l56.2-75.6c0,0,0,0,0,0c0-3.3-0.2-6.6-0.6-9.8L72,131.4z"/>
		<path class="st1" d="M31.9,127.7c2.1,0.8,4.2,1.4,6.4,2l87.6-117.9c-1.2-1.9-2.5-3.8-3.8-5.5L31.9,127.7z"/>
		<path class="st1" d="M134.1,29.7c-0.8-2.4-1.6-4.8-2.6-7.1L50.1,132c2.5,0.3,5,0.4,7.6,0.5L134.1,29.7z"/>
	</g>
	<g>
		<path class="st2" d="M914.2,56.9c1.8,1.8,3.6,3.5,5.5,5.1l46.1-62h-9.3L914.2,56.9z"/>
		<path class="st2" d="M901.3,40.5c1.4,2.2,2.9,4.4,4.4,6.5l34.9-47h-9.3L901.3,40.5z"/>
		<path class="st2" d="M948.4,78.8c2.5,0.9,5,1.7,7.5,2.4L1016.3,0h-9.3L948.4,78.8z"/>
		<path class="st2" d="M1041.5,0h-9.3l-62.3,83.8c2.9,0.3,5.9,0.5,8.9,0.6L1041.5,0z"/>
		<path class="st2" d="M930,69.7c2.1,1.4,4.3,2.6,6.5,3.8L991.1,0h-9.3L930,69.7z"/>
		<path class="st2" d="M1069,18.3l-37.7,50.7C1049.1,57.2,1062.7,39.3,1069,18.3z"/>
		<path class="st2" d="M995.6,83.1c3.8-0.6,7.6-1.5,11.3-2.6L1066.7,0h-9.3L995.6,83.1z"/>
		<path class="st2" d="M891.6,19.5c0.9,2.9,1.9,5.6,3.1,8.4L915.4,0h-9.3L891.6,19.5z"/>
		<path class="st2" d="M888.1,2.9l2.1-2.9h-2.5C887.9,1,888,1.9,888.1,2.9z"/>
	</g>
	<path class="st3" d="M1353.8,0l-161.1,118c-5.7,4.2-7,12.2-2.8,17.9c4.2,5.7,12.2,7,17.9,2.8L1397.2,0H1353.8z"/>
	<path class="st3" d="M372.4,0L266.4,77.8c-5.7,4.2-7,12.2-2.8,17.9c4.2,5.7,12.2,7,17.9,2.8L415.7,0H372.4z"/>
	<circle class="st3" cx="1366" cy="470.9" r="16.9"/>
	<g>
		<g>
			<circle class="st1" cx="1332.6" cy="133.2" r="4.4"/>
			
				<ellipse transform="matrix(0.9872 -0.1595 0.1595 0.9872 -3.9126 217.5483)" class="st1" cx="1353.6" cy="133.2" rx="4.4" ry="4.4"/>
			
				<ellipse transform="matrix(0.9872 -0.1595 0.1595 0.9872 -3.6446 220.8889)" class="st1" cx="1374.5" cy="133.2" rx="4.4" ry="4.4"/>
		</g>
		<g>
			<circle class="st1" cx="1332.6" cy="153.6" r="4.4"/>
			
				<ellipse transform="matrix(0.9872 -0.1595 0.1595 0.9872 -7.1803 217.8106)" class="st1" cx="1353.6" cy="153.6" rx="4.4" ry="4.4"/>
			
				<ellipse transform="matrix(0.9872 -0.1595 0.1595 0.9872 -6.9122 221.1512)" class="st1" cx="1374.5" cy="153.6" rx="4.4" ry="4.4"/>
		</g>
		<g>
			<circle class="st1" cx="1332.6" cy="174.1" r="4.4"/>
			
				<ellipse transform="matrix(0.9872 -0.1595 0.1595 0.9872 -10.4479 218.0728)" class="st1" cx="1353.6" cy="174.1" rx="4.4" ry="4.4"/>
			
				<ellipse transform="matrix(0.9872 -0.1595 0.1595 0.9872 -10.1798 221.4134)" class="st1" cx="1374.5" cy="174.1" rx="4.4" ry="4.4"/>
		</g>
	</g>
	<circle class="st1" cx="1212.8" cy="67.7" r="7.6"/>
	<g>
		<path class="st1" d="M348.8,760l59.5-80C380.3,698.8,359,726.9,348.8,760z"/>
		<path class="st1" d="M466.1,656.8c-6.2,1.1-12.3,2.5-18.2,4.3L368.4,768h15L466.1,656.8z"/>
		<path class="st1" d="M507.7,655.5c-4.7-0.5-9.5-0.8-14.4-0.8L409,768h15L507.7,655.5z"/>
		<path class="st1" d="M612,768h15l6.9-9.3c-1.5-4.6-3.1-9.1-5-13.4L612,768z"/>
		<path class="st1" d="M597.4,698.6c-2.8-2.9-5.8-5.6-8.9-8.2L530.8,768h15L597.4,698.6z"/>
		<path class="st1" d="M542.3,663.4c-4-1.4-8-2.7-12.2-3.8L449.6,768h15L542.3,663.4z"/>
		<path class="st1" d="M618.3,725c-2.2-3.6-4.6-7.1-7.2-10.5L571.4,768h15L618.3,725z"/>
		<path class="st1" d="M572,678.1c-3.4-2.2-6.9-4.2-10.4-6.1l-71.4,96h15L572,678.1z"/>
	</g>
	<path class="st2" d="M848.8,665.7c-1.2-1.6-2.3-3.2-3.3-4.8l76.2-102.5c1.9,0.5,3.8,1.1,5.6,1.8L848.8,665.7z M911.4,556.4
		c-2.2-0.2-4.4-0.4-6.6-0.4l-66.4,89.3c0.7,2.1,1.4,4.2,2.3,6.2L911.4,556.4z M936.2,564l-81,109c1.3,1.3,2.7,2.6,4.1,3.8l81.8-110
		C939.4,565.9,937.8,564.9,936.2,564z M883.9,559l-48.6,65.4c0,0.1,0,0.2,0,0.3c0,2.8,0.2,5.6,0.5,8.3l56.5-76
		C889.4,557.5,886.6,558.2,883.9,559z M838.3,604.5l27.4-36.8C852.8,576.4,843,589.3,838.3,604.5z M969.8,644.5l-27.9,37.6
		C955.1,673.3,965.1,660,969.8,644.5z M952.7,576.3c-1.3-1.3-2.7-2.6-4.1-3.8l-81.8,110c1.6,1,3.2,1.9,4.8,2.8L952.7,576.3z
		 M972.7,624.7C972.7,624.7,972.7,624.7,972.7,624.7c0-2.9-0.2-5.8-0.5-8.6l-56.7,76.3c2.8-0.5,5.6-1.1,8.3-1.9L972.7,624.7z
		 M969.5,603.9c-0.7-2.1-1.4-4.2-2.3-6.2L896.3,693c2.2,0.2,4.4,0.4,6.6,0.4L969.5,603.9z M962.3,588.4c-1-1.7-2.1-3.3-3.3-4.8
		l-78.6,105.7c1.8,0.7,3.7,1.3,5.6,1.8L962.3,588.4z"/>
	<g>
		<path class="st2" d="M0,573.1v2.7c3.7-0.7,7.4-1.6,11-2.7l78-104.9c0,0,0,0,0,0c0-4.6-0.3-9.2-0.8-13.6L0,573.1z"/>
		<path class="st2" d="M39.8,559.7c21.1-14,37.1-35.1,44.6-59.9L39.8,559.7z"/>
		<path class="st2" d="M38.4,376c-2.5-1.6-5-3.1-7.7-4.5L0,412.9v14.8L38.4,376z"/>
		<path class="st2" d="M57.1,391c-2.1-2.1-4.3-4.1-6.5-6L0,453v14.8L57.1,391z"/>
		<path class="st2" d="M0,372.9v14.8l16.7-22.4c-2.9-1.1-5.9-2-8.9-2.8L0,372.9z"/>
		<path class="st2" d="M83.8,435.1c-1.1-3.4-2.3-6.6-3.7-9.9L0,533.1v14.8L83.8,435.1z"/>
		<path class="st2" d="M72.4,410.4c-1.6-2.6-3.4-5.2-5.3-7.7L0,493v14.8L72.4,410.4z"/>
	</g>
	<path class="st1" d="M1117.2,725.7l-57.8,42.3h78.4l6.8-5c10.3-7.6,12.6-22,5-32.4C1142,720.4,1127.5,718.1,1117.2,725.7z"/>
	<path class="st3" d="M331.9,520.8c10.3-7.6,24.8-5.3,32.4,5s5.3,24.8-5,32.4l-99.6,72.9c-10.3,7.6-24.8,5.3-32.4-5
		c-7.6-10.3-5.3-24.8,5-32.4L331.9,520.8z"/>
	<path class="st3" d="M1047.8,653.4c7.8-5.7,18.8-4,24.5,3.8c5.7,7.8,4,18.8-3.8,24.5l-105.2,77.1c-7.8,5.7-18.8,4-24.5-3.8
		c-5.7-7.8-4-18.8,3.8-24.5L1047.8,653.4z"/>
	<path class="st4" d="M1435.5,174.4c10.3-7.6,24.8-5.3,32.4,5c7.6,10.3,5.3,24.8-5,32.4l-99.6,72.9c-10.3,7.6-24.8,5.3-32.4-5
		c-7.6-10.3-5.3-24.8,5-32.4L1435.5,174.4z"/>
	<path class="st4" d="M307.9,126.7c10.3-7.6,24.8-5.3,32.4,5c7.6,10.3,5.3,24.8-5,32.4L235.7,237c-10.3,7.6-24.8,5.3-32.4-5
		c-7.6-10.3-5.3-24.8,5-32.4L307.9,126.7z"/>
	<path class="st4" d="M792.9,0l-27.3,20c-5.7,4.2-7,12.2-2.8,17.9c4.2,5.7,12.2,7,17.9,2.8L836.4,0H792.9z"/>
	<path class="st4" d="M42.3,184L0,215v31.8l57.5-42.1c5.7-4.2,7-12.2,2.8-17.9C56.1,181.1,48,179.8,42.3,184z"/>
	<path class="st4" d="M1151.5,35.7c7.8-5.7,18.8-4,24.5,3.8c5.7,7.8,4,18.8-3.8,24.5L1066.9,141c-7.8,5.7-18.8,4-24.5-3.8
		c-5.7-7.8-4-18.8,3.8-24.5L1151.5,35.7z"/>
	<circle class="st4" cx="587" cy="84.3" r="16.9"/>
	<path class="st4" d="M864.9,709l-80.5,59h43.4l52.3-38.3c5.7-4.2,7-12.2,2.8-17.9C878.6,706.1,870.6,704.9,864.9,709z"/>
	<path class="st4" d="M294.2,725.3L235.9,768h43.4l30.1-22c5.7-4.2,7-12.2,2.8-17.9C308,722.3,300,721.1,294.2,725.3z"/>
	<circle class="st4" cx="1111.1" cy="629.1" r="16.9"/>
	<circle class="st4" cx="215.4" cy="690.7" r="16.9"/>
	<circle class="st4" cx="1393.4" cy="593.5" r="14.1"/>
	<g>
		<g>
			<circle class="st2" cx="648.8" cy="648.4" r="4.4"/>
			
				<ellipse transform="matrix(0.9871 -0.1602 0.1602 0.9871 -95.2165 115.657)" class="st2" cx="669.8" cy="648.4" rx="4.4" ry="4.4"/>
			
				<ellipse transform="matrix(0.9871 -0.1602 0.1602 0.9871 -94.946 119.0127)" class="st2" cx="690.7" cy="648.4" rx="4.4" ry="4.4"/>
		</g>
		<g>
			<circle class="st2" cx="648.8" cy="668.9" r="4.4"/>
			
				<ellipse transform="matrix(0.9871 -0.1602 0.1602 0.9871 -98.4989 115.9216)" class="st2" cx="669.8" cy="668.9" rx="4.4" ry="4.4"/>
			
				<ellipse transform="matrix(0.9871 -0.1602 0.1602 0.9871 -98.2284 119.2772)" class="st2" cx="690.7" cy="668.9" rx="4.4" ry="4.4"/>
		</g>
		<g>
			<circle class="st2" cx="648.8" cy="689.4" r="4.4"/>
			
				<ellipse transform="matrix(0.9871 -0.1602 0.1602 0.9871 -101.7814 116.1862)" class="st2" cx="669.8" cy="689.4" rx="4.4" ry="4.4"/>
			
				<ellipse transform="matrix(0.9871 -0.1602 0.1602 0.9871 -101.5109 119.5419)" class="st2" cx="690.7" cy="689.4" rx="4.4" ry="4.4"/>
		</g>
	</g>
	<circle class="st1" cx="1335" cy="687.8" r="7.6"/>
	<g>
		<g>
			<circle class="st2" cx="1259.9" cy="461.8" r="6.6"/>
			
				<ellipse transform="matrix(0.9732 -0.2298 0.2298 0.9732 -71.554 308.9656)" class="st2" cx="1291" cy="461.8" rx="6.6" ry="6.6"/>
			
				<ellipse transform="matrix(0.9732 -0.2298 0.2298 0.9732 -70.7222 316.1095)" class="st2" cx="1322.1" cy="461.8" rx="6.6" ry="6.6"/>
		</g>
		<g>
			
				<ellipse transform="matrix(0.9732 -0.2298 0.2298 0.9732 -79.374 302.6367)" class="st2" cx="1259.9" cy="492.2" rx="6.6" ry="6.6"/>
			<circle class="st2" cx="1291" cy="492.2" r="6.6"/>
			<circle class="st2" cx="1322.1" cy="492.2" r="6.6"/>
		</g>
		<g>
			<circle class="st2" cx="1259.9" cy="522.6" r="6.6"/>
			<circle class="st2" cx="1291" cy="522.6" r="6.6"/>
			<circle class="st2" cx="1322.1" cy="522.6" r="6.6"/>
		</g>
	</g>
	<g>
		<g>
			
				<ellipse transform="matrix(0.6507 -0.7593 0.7593 0.6507 111.0131 329.441)" class="st1" cx="413.6" cy="44.1" rx="6.6" ry="6.6"/>
			
				<ellipse transform="matrix(0.9586 -0.2847 0.2847 0.9586 5.8605 128.4244)" class="st1" cx="444.7" cy="44.1" rx="6.6" ry="6.6"/>
			
				<ellipse transform="matrix(0.9761 -0.2175 0.2175 0.9761 1.8075 104.5291)" class="st1" cx="475.8" cy="44.1" rx="6.6" ry="6.6"/>
		</g>
		<g>
			
				<ellipse transform="matrix(0.9732 -0.2298 0.2298 0.9732 -6.0452 97.0176)" class="st1" cx="413.6" cy="74.5" rx="6.6" ry="6.6"/>
			<circle class="st1" cx="444.7" cy="74.5" r="6.6"/>
			
				<ellipse transform="matrix(0.4597 -0.8881 0.8881 0.4597 190.9297 462.7655)" class="st1" cx="475.8" cy="74.5" rx="6.6" ry="6.6"/>
		</g>
		<g>
			<circle class="st1" cx="413.6" cy="104.9" r="6.6"/>
			
				<ellipse transform="matrix(0.9997 -2.317292e-02 2.317292e-02 0.9997 -2.3111 10.333)" class="st1" cx="444.7" cy="104.9" rx="6.6" ry="6.6"/>
			
				<ellipse transform="matrix(0.9998 -1.859384e-02 1.859384e-02 0.9998 -1.8679 8.8648)" class="st1" cx="475.8" cy="104.9" rx="6.6" ry="6.6"/>
		</g>
	</g>
	<path class="st5" d="M63.7,324.6c-4.2-5.7-2.9-13.7,2.8-17.9l84.7-62c5.7-4.2,13.7-2.9,17.9,2.8c4.2,5.7,2.9,13.7-2.8,17.9
		l-84.7,62C75.9,331.6,67.9,330.4,63.7,324.6z M180.3,662l-77,56.4c-5.7,4.2-13.7,2.9-17.9-2.8c-4.2-5.7-2.9-13.7,2.8-17.9l77-56.4
		c5.7-4.2,13.7-2.9,17.9,2.8C187.3,649.8,186,657.8,180.3,662z M217.2,135.1c-9.3,0-16.9-7.6-16.9-16.9c0-9.3,7.6-16.9,16.9-16.9
		c9.3,0,16.9,7.6,16.9,16.9C234.2,127.5,226.6,135.1,217.2,135.1z M245.1,47.3c-4.2,0-7.6-3.4-7.6-7.6s3.4-7.6,7.6-7.6
		c4.2,0,7.6,3.4,7.6,7.6S249.3,47.3,245.1,47.3z M357.3,666.5c-4.2,0-7.6-3.4-7.6-7.6s3.4-7.6,7.6-7.6s7.6,3.4,7.6,7.6
		S361.5,666.5,357.3,666.5z M470,604.9l-61.9,46c-7.8,5.7-18.8,4-24.5-3.8c-5.7-7.8-4-18.8,3.8-24.5l61.9-46
		c7.8-5.7,18.8-4,24.5,3.8C479.5,588.2,477.8,599.1,470,604.9z M1390.5,436.3c4.2,0,7.6,3.4,7.6,7.6s-3.4,7.6-7.6,7.6
		s-7.6-3.4-7.6-7.6S1386.3,436.3,1390.5,436.3z M800.4,676.9l-77,56.4c-5.7,4.2-13.7,2.9-17.9-2.8s-2.9-13.7,2.8-17.9l77-56.4
		c5.7-4.2,13.7-2.9,17.9,2.8C807.4,664.7,806.1,672.7,800.4,676.9z M1423,509.1c4.2,5.7,2.9,13.7-2.8,17.9l-223.8,163.9
		c-5.7,4.2-13.7,2.9-17.9-2.8c-4.2-5.7-2.9-13.7,2.8-17.9l223.8-163.9C1410.8,502.1,1418.9,503.4,1423,509.1z"/>
	<path class="st1" d="M169.1,247.5c-4.2-5.7-12.2-7-17.9-2.8l-84.7,62c-5.7,4.2-7,12.2-2.8,17.9c4.2,5.7,12.2,7,17.9,2.8l84.7-62
		C172,261.2,173.3,253.2,169.1,247.5z"/>
	<path class="st1" d="M1465.2,0L1406,43.3c-5.7,4.2-7,12.2-2.8,17.9c4.2,5.7,12.2,7,17.9,2.8L1500,6.3V0H1465.2z"/>
	<path class="st1" d="M622,64.4c5.7,7.8,16.7,9.5,24.5,3.8L739.6,0h-59.3l-54.5,39.9C618,45.6,616.3,56.6,622,64.4z"/>
	
		<ellipse transform="matrix(0.7071 -0.7071 0.7071 0.7071 -19.908 188.2125)" class="st1" cx="217.2" cy="118.1" rx="16.9" ry="16.9"/>
	<circle class="st1" cx="245.1" cy="39.6" r="7.6"/>
	<path class="st1" d="M1405.1,506.3l-223.8,163.9c-5.7,4.2-7,12.2-2.8,17.9c4.2,5.7,12.2,7,17.9,2.8L1420.3,527
		c5.7-4.2,7-12.2,2.8-17.9C1418.9,503.4,1410.8,502.1,1405.1,506.3z"/>
	<path class="st1" d="M165.2,641.3l-77,56.4c-5.7,4.2-7,12.2-2.8,17.9c4.2,5.7,12.2,7,17.9,2.8l77-56.4c5.7-4.2,7-12.2,2.8-17.9
		C178.9,638.4,170.9,637.1,165.2,641.3z"/>
	<path class="st1" d="M785.3,656.2l-77,56.4c-5.7,4.2-7,12.2-2.8,17.9s12.2,7,17.9,2.8l77-56.4c5.7-4.2,7-12.2,2.8-17.9
		C799,653.3,791,652.1,785.3,656.2z"/>
	<path class="st1" d="M449.3,576.6l-61.9,46c-7.8,5.7-9.5,16.7-3.8,24.5c5.7,7.8,16.7,9.5,24.5,3.8l61.9-46
		c7.8-5.7,9.5-16.7,3.8-24.5C468.1,572.6,457.1,570.9,449.3,576.6z"/>
	
		<ellipse transform="matrix(0.9239 -0.3827 0.3827 0.9239 -64.0337 565.9265)" class="st1" cx="1390.5" cy="443.9" rx="7.6" ry="7.6"/>
	<circle class="st1" cx="357.3" cy="658.9" r="7.6"/>
	<g>
		<path class="st3" d="M1497.4,132.4c-12.6,0-22.9,10.2-22.9,22.9c0,12.6,10.2,22.9,22.9,22.9c0.9,0,1.8-0.1,2.6-0.2v-45.4
			C1499.1,132.4,1498.3,132.4,1497.4,132.4z"/>
	</g>
	<g>
		<path class="st1" d="M1425.8,419.6l74.2-99.9v-12.3l-78.6,105.7C1422.8,415.4,1424.2,417.6,1425.8,419.6z"/>
		<path class="st1" d="M1455.9,445.6l44.1-59.3v-12.3l-50.4,67.8C1451.6,443.2,1453.8,444.5,1455.9,445.6z"/>
		<path class="st1" d="M1439.5,434.4l60.5-81.3v-12.3l-65.9,88.6C1435.9,431.1,1437.7,432.8,1439.5,434.4z"/>
		<path class="st1" d="M1497.5,456.4l2.5-3.4v-12.3l-11.3,15.1C1491.6,456.1,1494.5,456.3,1497.5,456.4z"/>
		<path class="st1" d="M1475.1,453.2l24.9-33.6v-12.3l-32.3,43.5C1470.1,451.8,1472.5,452.5,1475.1,453.2z"/>
		<path class="st1" d="M1412,392.6c0.9,2.8,1.9,5.5,3,8.2l85-114.4v-12.2c0,0,0,0-0.1,0L1412,392.6z"/>
		<path class="st1" d="M1472.3,278.2l-64.5,86.7c0,0.1,0,0.3,0,0.4c0,3.7,0.2,7.4,0.7,11l74.9-100.7
			C1479.6,276.2,1475.9,277.1,1472.3,278.2z"/>
		<path class="st1" d="M1411.8,338.5l36.3-48.8C1431,301.2,1418,318.4,1411.8,338.5z"/>
	</g>
	<g>
		<path class="st4" d="M1419.8,559.2c-5.7,4.2-7,12.2-2.8,17.9c4.2,5.7,12.2,7,17.9,2.8l65.1-47.6v-31.8L1419.8,559.2z"/>
	</g>
	<g>
		<path class="st3" d="M1475.8,636.3l-99.6,72.9c-10.3,7.6-12.6,22-5,32.4c7.6,10.3,22,12.6,32.4,5L1500,676v-41.6
			C1492.5,630.6,1483.1,631,1475.8,636.3z"/>
	</g>
	<g>
		<path class="st4" d="M158.4,580.4c-4.2-5.7-12.2-7-17.9-2.8L0,680.5v31.8l155.7-114C161.4,594.2,162.6,586.1,158.4,580.4z"/>
	</g>
</g>
</svg>
