<?xml version="1.0" encoding="utf-8"?>
<!-- Generator: Adobe Illustrator 28.0.0, SVG Export Plug-In . SVG Version: 6.00 Build 0)  -->
<svg version="1.1" id="レイヤー_1" xmlns="http://www.w3.org/2000/svg" xmlns:xlink="http://www.w3.org/1999/xlink" x="0px"
	 y="0px" viewBox="0 0 438.4 609" style="enable-background:new 0 0 438.4 609;" xml:space="preserve">
<style type="text/css">
	.st0{fill:#F29600;}
	.st1{fill:#59C2E1;}
	.st2{fill:#796A56;}
	.st3{fill:none;}
	.st4{fill:#9CDBED;}
	.st5{fill:#FFFFFF;}
	.st6{fill:#F7C066;}
	.st7{fill:#4D4D4D;}
	.st8{fill:#2E2E2E;}
	.st9{fill:#D3D3D6;}
	.st10{fill:#F4F4F5;}
	.st11{fill:#F5BD34;}
	.st12{fill:#FFFF00;}
</style>
<g>
	<g>
		<g>
			<path class="st0" d="M167.8,93.7c-0.1-0.1-0.2-0.2-0.3-0.2l-2.1-0.4c-0.2,0-0.4,0.1-0.5,0.3c-1.6,4.7-2.4,6.7-3.1,8.2
				c-1.6-3.1-2.1-4.1-3.8-8.2c-0.1-0.2-0.3-0.3-0.5-0.3l-2,0.6c-0.1,0-0.2,0.1-0.3,0.2c-0.1,0.1-0.1,0.3,0,0.4
				c2.2,4.8,2.8,6,5.2,10.2c-1.1,1.9-1.3,2.4-1.8,3.1l-0.2,0.4c-0.1,0.1-0.1,0.3,0,0.4s0.2,0.2,0.3,0.3l2.1,0.5h0.1
				c0.2,0,0.3-0.1,0.4-0.3c3.4-7.4,3.8-8.2,6.5-14.8C167.8,93.9,167.8,93.8,167.8,93.7z"/>
			<path class="st0" d="M176.1,93c-1.6,0-2.8,0.4-3.8,0.8c-0.2,0.1-0.3,0.3-0.3,0.5l0.2,2c0,0.2,0.1,0.3,0.2,0.4s0.3,0.1,0.4,0
				c1.1-0.6,2-1.1,3.3-1.1c2.9,0,5.1,2.5,5.1,5.8c0,2.9-1.8,5.1-4.2,5.3c-1.1,0.1-2.1-0.2-2.8-0.9c-0.7-0.6-1.1-1.5-1.1-2.6
				c0-2.8,2.2-3.7,3.3-4.1c0.1,0,0.2-0.2,0.3-0.3c0-0.1,0-0.3,0-0.4l-0.8-1.3c-0.1-0.2-0.3-0.3-0.5-0.2h-0.1c-1.3,0.4-5.3,1.8-5,6.3
				c0.2,3.7,2.7,5.9,6.7,5.9c4.2,0,7.3-3.3,7.3-7.7C184.4,96.5,180.9,93,176.1,93z"/>
			<path class="st0" d="M199.4,93.7c-0.1-0.1-0.2-0.2-0.3-0.2l-2.1-0.4c-0.2,0-0.4,0.1-0.5,0.3c-1.6,4.7-2.4,6.7-3.1,8.2
				c-1.6-3.1-2.1-4.1-3.8-8.2c-0.1-0.2-0.3-0.3-0.5-0.3l-2,0.6c-0.1,0-0.2,0.1-0.3,0.2c-0.1,0.1-0.1,0.3,0,0.4
				c2.2,4.8,2.8,6,5.2,10.2c-1.1,1.9-1.3,2.4-1.8,3.1L190,108c-0.1,0.1-0.1,0.3,0,0.4s0.2,0.2,0.3,0.3l2.1,0.5h0.1
				c0.2,0,0.3-0.1,0.4-0.3c3.4-7.4,3.8-8.2,6.5-14.8C199.5,93.9,199.5,93.8,199.4,93.7z"/>
			<path class="st0" d="M214.8,108.1c-0.1-0.2-0.4-1-0.6-1.4l-0.7-1.7c-2-4.6-3.5-8.5-4.7-11.7c-0.1-0.2-0.3-0.3-0.5-0.3l-1.6,0.1
				c-0.2,0-0.3,0.1-0.4,0.3c-0.7,1.8-1.7,4.2-2.6,6.5c-1.2,3-2.4,6.1-3.4,8.3c-0.1,0.1,0,0.3,0,0.4c0.1,0.1,0.2,0.2,0.3,0.2l2,0.2
				c0.2,0,0.4-0.1,0.5-0.3c0.4-1.4,1.1-3.1,1.3-3.7l0,0c0.8-0.1,1.4-0.1,1.6-0.1c0.6,0,1.5,0.1,2.1,0.2c0.2,0,0.5-0.1,0.5-0.3
				l0.3-1.5c0-0.1,0-0.3-0.1-0.4s-0.2-0.2-0.4-0.2c-0.5,0-1.7,0.1-2.7,0.1c-0.2,0-0.4,0-0.6,0l0.6-1.6c0.5-1.5,1-2.9,1.5-4.2
				c1.4,3.8,3,8.1,4.5,11.8c0.1,0.2,0.2,0.3,0.4,0.3c0,0,0,0,0.1,0l2.1-0.3c0.1,0,0.3-0.1,0.3-0.2
				C214.9,108.4,214.9,108.3,214.8,108.1z"/>
			<path class="st0" d="M283.2,108.1c-0.1-0.2-0.4-1-0.6-1.5l-0.7-1.7c-2-4.7-3.5-8.7-4.7-11.7c-0.1-0.2-0.3-0.3-0.5-0.3L275,93
				c-0.2,0-0.3,0.1-0.4,0.3c-0.8,1.8-1.7,4.2-2.7,6.6c-1.2,3-2.4,6-3.4,8.3c-0.1,0.1,0,0.3,0,0.4c0.1,0.1,0.2,0.2,0.3,0.2l2,0.2
				c0.2,0,0.4-0.1,0.5-0.3c0.4-1.4,1.1-3.1,1.3-3.7l0,0c0.8-0.1,1.4-0.1,1.6-0.1c0.6,0,1.5,0.1,2.1,0.2c0.2,0,0.5-0.1,0.5-0.3
				l0.3-1.5c0-0.1,0-0.3-0.1-0.4s-0.2-0.2-0.4-0.2c-0.5,0-1.7,0.1-2.7,0.1c-0.2,0-0.4,0-0.6,0l0.6-1.6c0.5-1.5,1-2.9,1.5-4.3
				c1.4,3.8,3,8.1,4.5,11.8c0.1,0.2,0.2,0.3,0.4,0.3c0,0,0,0,0.1,0l2.1-0.3c0.1,0,0.3-0.1,0.3-0.2
				C283.3,108.4,283.3,108.3,283.2,108.1z"/>
			<path class="st0" d="M229.6,107l-1.2-0.9l-0.9-0.8c-1.7-1.4-2.1-1.8-4.5-4.6c2.5-2.6,2.9-3,5.5-6.1c0.1-0.1,0.1-0.3,0.1-0.4
				s-0.1-0.3-0.3-0.3l-2-0.9c-0.2-0.1-0.4,0-0.5,0.1c-2.3,3-2.8,3.7-5.1,6.2c0-1.4,0.2-3.2,0.3-5.6v-0.3c0-0.1,0-0.3-0.1-0.4
				s-0.2-0.1-0.4-0.1l-2.2,0.3c-0.2,0-0.4,0.2-0.4,0.4v14.9c0,0.2,0.2,0.5,0.5,0.5h2.1c0.1,0,0.2-0.1,0.3-0.1
				c0.1-0.1,0.1-0.2,0.1-0.3c-0.1-1.7-0.3-4-0.3-6.6c2.5,2.9,3.1,3.6,6.4,6.9c0.1,0.1,0.2,0.1,0.3,0.1s0.2,0,0.2-0.1l2-1.3
				c0.1-0.1,0.2-0.2,0.2-0.4C229.8,107.2,229.7,107.1,229.6,107z"/>
			<path class="st0" d="M245.2,106.5l-0.1-1.5v-0.5c0-0.8-0.1-2-0.1-2.7c0-1.3,0-3.5,0.3-8.3c0-0.1,0-0.3-0.1-0.3
				c-0.1-0.1-0.2-0.1-0.4-0.1l-2.1,0.2c-0.2,0-0.4,0.2-0.4,0.4v8.5c-1.5,2.7-2.8,4.1-4.1,4.1c-0.3,0-0.7-0.2-0.9-0.5
				c-0.8-0.8-1.3-2.7-1.1-4.7l0.4-7.6c0-0.1,0-0.3-0.1-0.4s-0.2-0.1-0.4-0.1l-2.3,0.3c-0.2,0-0.4,0.2-0.4,0.4v7c0,2,0.3,8.4,4.5,8.4
				c2,0,3.4-1.5,4.5-2.8v2.4c0,0.2,0.2,0.5,0.5,0.5h2c0.1,0,0.2,0,0.3-0.1s0.1-0.2,0.1-0.3v-0.3
				C245.2,107.9,245.2,107.6,245.2,106.5z"/>
			<path class="st0" d="M264.9,93.4c0-0.1-0.1-0.2-0.2-0.3c-0.1-0.1-0.2-0.1-0.3-0.1l-2.3,0.2c-0.2,0-0.3,0.1-0.4,0.3l-0.1,0.2
				c-1.5,4.5-1.8,5.5-3.8,10.7c-2.4-6-2.8-7.1-3.9-11.1c-0.1-0.2-0.3-0.4-0.5-0.3l-2.3,0.2c-0.2,0-0.4,0.2-0.4,0.4l-0.7,15
				c0,0.1,0,0.2,0.1,0.3c0.1,0.1,0.2,0.1,0.3,0.1h1.8c0.2,0,0.4-0.2,0.5-0.4l0.1-9.7c1.6,4.6,2,5.5,3.8,9.8c0.1,0.2,0.2,0.3,0.4,0.3
				l0,0l1.3-0.1c0.2,0,0.3-0.1,0.4-0.3c1.8-4.2,2.4-6.1,3.7-9.8l0.3,9.7c0,0.2,0.2,0.4,0.5,0.4h2c0.1,0,0.2-0.1,0.3-0.1
				c0.1-0.1,0.1-0.2,0.1-0.3L264.9,93.4z"/>
		</g>
		<g>
			<path class="st1" d="M267.3,28.3L267.3,28.3c-1-1.2,0.6-2.4,0.6-2.4l0,0c3.6-2.6,5.9-6.8,5.9-11.5c0-7.9-6.7-14.4-14.9-14.4
				c-7.3,0-13.3,5.1-14.6,11.7l0,0c0,0-0.4,1.6-2,1.1l0,0c-7-2.2-14.8-3.4-23-3.4s-16,1.2-23,3.4l0,0c-1.6,0.5-2-1.1-2-1.1l0,0
				c-1.5-6.5-7.5-11.6-14.8-11.6c-8.2,0-14.9,6.4-14.9,14.4c0,4.7,2.3,8.8,5.9,11.5l0,0c0,0,1.6,1.2,0.6,2.4l0,0
				c-4.6,5.4-7.3,11.7-7.3,18.4c0,20.5,24.8,37.2,55.3,37.2c30.5,0,55.3-16.6,55.3-37.2C274.5,40.1,271.9,33.8,267.3,28.3z"/>
			<g>
				<circle class="st2" cx="203.6" cy="36.9" r="4.5"/>
				<circle class="st2" cx="234.8" cy="36.9" r="4.5"/>
			</g>
			<g>
				<path class="st4" d="M188.5,14.5L188.5,14.5c0-4.8-4-8.6-9-8.6s-9,3.8-9,8.5c0,3.3,2,6.2,4.9,7.6c0.3,0.1,1.7,0.5,3.3-0.6
					c0,0,0,0,0.1,0c2.5-1.8,5.3-3.5,8.4-4.9c0,0,0,0,0.1,0C188.3,15.9,188.5,14.8,188.5,14.5z"/>
			</g>
			<g>
				<path class="st4" d="M249.9,14.5L249.9,14.5c0-4.8,4-8.6,9-8.6s9,3.8,9,8.5c0,3.3-2,6.2-4.9,7.6c-0.3,0.1-1.7,0.5-3.3-0.6
					c0,0,0,0-0.1,0c-2.5-1.8-5.3-3.5-8.4-4.9c0,0,0,0-0.1,0C250.1,15.9,249.9,14.8,249.9,14.5z"/>
			</g>
			<path class="st5" d="M237,57.9c0-5.6-2.2-8.5-7.1-12.6c-4.8-4-6.5-10.9-7.1-14.1c0,0-0.6-3.1-3.6-3.1s-3.6,3.1-3.6,3.1
				c-0.7,3.2-2.3,10-7.1,14.1c-4.8,4-7.1,7-7.1,12.6c0,0-0.3,5.8,4.9,10c5.2,4.1,8.1,2.7,9.3,1.2l1.5-1.8c0,0,1-1.5,2.1-1.5
				s2.1,1.5,2.1,1.5l1.5,1.8c1.2,1.5,4.1,2.9,9.3-1.2C237.3,63.7,237,57.9,237,57.9z"/>
			<path class="st0" d="M226.2,48.3c-1.4-0.3-4.7-0.4-6.2-0.4l0,0h-1.9l0,0c-1.6,0-4.7,0.1-6,0.4c-1.8,0.4-3.1,2.1-1.5,4.6
				s6.1,9.1,8.5,9.1c2.5,0,7-6.7,8.5-9.1C229.3,50.4,228,48.8,226.2,48.3z"/>
		</g>
	</g>
	<rect class="st3" width="438.4" height="609"/>
	<g>
		<g>
			<path class="st5" d="M145,499.9c0.6-0.4,1.1-0.9,1.5-1.5c-2,0.2-4,0.4-6.1,0.6c0.6,0.6,1.3,1,2,1.2
				C143.5,500.5,144.2,500.4,145,499.9z"/>
			<path class="st5" d="M135.6,503.7c1.3,1.3,2.7,2.5,4.3,3.3c3.2,1.6,7,0.7,9.9-1.1c3.4-1.9,5.5-5.5,7-9c1.6-3.6,2.5-7.6,2.6-11.6
				c0-1.2,1.9-1.2,1.9,0c0,0.6-0.1,1.2-0.1,1.9c0.9-0.4,1.5-1.1,2.1-2c0.6-1.1,1-2.3,1.2-3.6c0.1-0.6,0.2-1,0.2-1.6c0-0.3,0-0.6,0-1
				c0-0.1,0-0.2,0-0.3v-0.1l0,0c0-0.2-0.1-0.5-0.2-0.7c-0.1-0.5-0.2-1-0.4-1.5c0,0,0,0,0-0.1c0-0.1-0.1-0.1-0.1-0.2
				c-0.1-0.1-0.1-0.2-0.2-0.2c0-0.1-0.1-0.2-0.1-0.2l0,0l0,0c-0.1,0.1-0.2,0.1-0.2,0.2c-0.1,0-0.1,0.1-0.2,0.1
				c-0.1,0.2-0.2,0.3-0.3,0.4c-0.4,0.5-1,0.6-1.5,0.6c-0.7,0-1.4-0.1-2.1-0.2c-1.3-0.2-2.6-0.8-3.7-1.6c-2.3-1.5-4-3.7-5.1-6.3
				c-0.5-1.1-0.9-2.3-1.5-3.5s-1.3-2.3-2.3-3c-0.4-0.3-0.7-0.4-1.2-0.6c-0.2-0.1-0.2-0.1-0.6-0.1c-0.1,0-0.2,0-0.3,0
				c-0.2,0-0.1,0-0.2,0c-1,0.2-1.8,0.6-2.6,1.1c-0.4,0.2-0.8,0.2-1.1-0.1l-0.1-0.1c-1.6-1.5-4-2.4-6-1.5c-1.8,0.8-2.7,2.5-3.4,4.2
				c-0.9,2.1-1.4,4.4-1.9,6.6c-0.3,1.8-0.6,3.5-1.1,5.3l0,0c1.1-0.9,2.4-1.6,3.9-1.8c1.3-0.2,2.6,0.2,3.8,0.7
				c0.5,0.2,0.6,0.9,0.3,1.3c-0.2,0.5-0.9,0.6-1.3,0.3l-0.2-0.1c-0.1-0.1-0.2-0.1-0.3-0.2c-0.2-0.1-0.5-0.2-0.7-0.2
				c-0.1,0-0.1,0-0.2,0c0,0,0,0-0.1,0c-0.2,0-0.2,0-0.4,0s-0.2,0-0.4,0c-0.1,0-0.2,0-0.2,0c-0.1,0-0.2,0-0.1,0s0.1,0-0.1,0
				c-0.1,0-0.2,0-0.2,0c-0.2,0-0.2,0.1-0.4,0.1s-0.2,0.1-0.4,0.2c-0.1,0-0.2,0.1-0.2,0.1s0,0-0.1,0c-0.6,0.2-1.1,0.6-1.5,0.9
				c-0.4,0.3-1,0.4-1.4,0c-0.2-0.2-0.2-0.3-0.2-0.5c-0.5,1.7-1.3,3.4-2.6,4.5c-0.3,0.3-0.8,0.4-1.2,0.2c-0.6-0.3-1.2-0.7-1.8-1.2
				c0,0.1,0,0.1,0,0.2c0,0.1,0,0.2-0.1,0.2c0,0,0,0,0,0.1c0,0,0,0,0,0.1c0,0.2,0,0.3,0,0.6c0,0.4,0,0.6,0.1,1
				c0.2,0.8,0.4,1.5,0.8,2.3c0.3,0.7,0.8,1.5,1.3,2.1c0.1,0.2,0.2,0.2,0.3,0.3c0-0.1,0-0.2-0.1-0.2c-0.1-0.5,0.2-1.1,0.6-1.2
				s1.1,0.2,1.2,0.6c0.7,4.3,2.3,8.3,4.8,11.9C133,500.9,134.3,502.3,135.6,503.7z M144.3,475.1c1.1-0.9,2.2-1.5,3.6-1.5
				c1.2-0.1,2.4,0.2,3.6,0.6c0.6,0.2,0.8,0.7,0.6,1.2c-0.1,0.5-0.7,0.8-1.2,0.6c-0.6-0.2-1.1-0.2-1.6-0.4c-0.2,0-0.2-0.1-0.4-0.1
				l0,0c-0.1,0-0.1,0-0.2,0c-0.2,0-0.5,0-0.7,0c-0.2,0-0.2,0-0.4,0c-0.1,0-0.1,0-0.2,0c0,0,0,0-0.1,0c-0.2,0.1-0.5,0.1-0.7,0.2
				c0,0,0,0-0.1,0s-0.1,0.1-0.2,0.1c-0.1,0.1-0.2,0.2-0.3,0.2c-0.2,0.2-0.3,0.2-0.6,0.4c-0.4,0.3-1,0.4-1.4,0
				C144,476.1,144,475.5,144.3,475.1z M148.3,482.2c-1.3,0-1.2-1.9,0-1.9C149.6,480.2,149.6,482.2,148.3,482.2z M142.7,491.7
				c0.2-0.1,0.3-0.1,0.5,0c0.1,0,0.2,0.1,0.2,0.1c0.2,0.1,0.4,0.3,0.5,0.6c0.1,0.2,0,0.6-0.1,0.7c-0.1,0.1-0.2,0.2-0.2,0.2
				c-0.1,0.1-0.2,0.2-0.3,0.2c-0.6,0.1-1.1,0.2-1.6,0.2c-0.2,0.1-0.3,0.1-0.5,0c-0.1,0-0.2-0.1-0.2-0.1c-0.2-0.1-0.4-0.3-0.5-0.6
				c-0.1-0.2,0-0.6,0.1-0.7c0.1-0.1,0.2-0.2,0.2-0.2c0.1-0.1,0.2-0.2,0.3-0.2C141.6,491.9,142.1,491.8,142.7,491.7z M138.9,480.2
				c0.4-0.2,1.1-0.1,1.3,0.3c1.2,2.4,1.5,5.3,0.6,7.8c-0.2,0.5-0.6,0.8-1.2,0.6c-0.5-0.2-0.9-0.7-0.6-1.2c0.7-2.1,0.6-4.4-0.4-6.4
				C138.4,481.1,138.5,480.4,138.9,480.2z M137.8,497.7c0.2-0.2,0.5-0.3,0.7-0.4c0.4-0.1,0.8-0.1,1.2-0.2c2.9-0.3,5.8-0.6,8.7-1
				c0.7-0.1,1.1,0.9,0.8,1.5c-0.4,0.6-0.9,1.3-1.4,1.9c-0.7,0.9-1.6,1.8-2.7,2.3c-1.1,0.6-2.5,0.6-3.7,0.1c-1.6-0.6-3-1.9-4-3.2
				C137.5,498.3,137.6,498,137.8,497.7z M134.1,481.5c1.3,0,1.2,1.9,0,1.9S132.9,481.5,134.1,481.5z"/>
			<path class="st5" d="M142.5,577.8c0.1,0,0.2,0,0.3,0c2.5,0.1,5,0.1,7.5,0.2c4.5,0.1,9,0.2,13.7,0.2c4.9,0,9.9,0,14.7-0.2
				c4.4-0.2,9.2,0,13.3-2c3.2-1.7,5.3-4.5,6.1-8.1c0.2-1,0.3-1.7,0.4-2.7c0.1-1.1,0.1-2,0-3.1c-0.2-2.2-0.6-4.3-1.2-6.5
				c-0.8-2.7-1.9-5.4-2.8-8.2c-1.1-3.3-2-6.6-3-9.9c-1.9-6.5-3.5-13.3-5.7-19.7c-0.6-1.6-1.1-3.3-1.7-4.9c-0.6-1.5-1.1-3.2-1.9-4.5
				c-1.5-2.3-3.7-4-6.1-5.3c-2.3-1.3-4.9-1.9-7.5-2.7c-2.5-0.7-4.8-1.7-7.1-3c-0.6-0.3-0.6-1.1-0.2-1.5c-0.3-0.2-0.6-0.4-1-0.6
				c-0.1,2.2-0.2,4.4-0.2,6.6c0,1.2-1.9,1.2-1.9,0c0-0.3,0-0.6,0-1c0-0.7,0-1.5,0.1-2.2c-0.1,0.2-0.2,0.3-0.2,0.6
				c-1,1.9-2.2,3.8-3.6,5.4c-1.3,1.5-3.1,2.7-4.9,3.5c-1.9,0.8-3.9,1.4-5.9,1.4c-1.9,0-3.7-0.6-5.3-1.5c-1.7-1.1-3.2-2.4-4.6-3.9
				c-1.5-1.5-2.7-3.2-3.8-4.8c-0.4-0.7-0.9-1.4-1.2-2.1c-0.4,0.3-0.7,0.6-1.1,0.8c0.4,0.5,0.3,1.4-0.5,1.6c-3.3,1-6.6,1.5-10,2.3
				c-3.1,0.7-6.1,1.6-9,3.1c-2.7,1.4-5.1,3.4-6.2,6.3c-1.3,3.3-1.1,6.8-1,10.3c0.1,2.4,0.2,4.8,0.5,7.3c0,0.6-0.5,1-1,1l0,0
				l3.6,49.9h18.7c0.1-0.3,0.3-0.6,0.6-0.6c1-0.2,1.9-0.6,2.8-0.8c4.7-1.4,9.3-2.9,13.8-4.8c2.6-1.1,5.2-2.2,7.7-3.5
				c1.1-0.6,2.3-1.2,3.4-1.9c0.5-0.3,1.1-0.6,1.5-1.1c0.4-0.3,0.7-0.6,1.2-1c-0.8-4.1-2.7-7.9-5.5-11c-0.1,0.1-0.2,0.1-0.3,0.1
				c-0.5,0.1-1,0.1-1.5,0.2c-4.6,0.5-9.1,1.1-13.7,1.4c-0.6,0.1-1-0.5-1-1c0-0.6,0.5-1,1-1c1.2-0.1,2.3-0.2,3.6-0.3
				c3.9-0.4,7.8-0.8,11.6-1.2c0.2,0,0.3,0,0.5,0.1c0.3-0.2,0.7-0.2,1.1,0.2c0.1,0.1,0.1,0.1,0.1,0.2c1.9-0.4,3.9-0.9,5.8-1.5
				c1.5-0.4,2.8-0.9,4.2-1.5c1-0.4,2-1.1,3-1.5c2.4-1.1,5.2-2,7.8-2.3c-0.1-0.2-0.2-0.4-0.1-0.7c0.4-1.7,0.7-3.4,1.1-5.1
				c1.1-5.6,1.9-11.2,3.1-16.8c0.2-1.2,2.1-0.7,1.9,0.5c-0.4,1.7-0.7,3.4-1.1,5.1c-1.1,5.6-1.9,11.2-3.1,16.8c0,0.1,0,0.1,0,0.1
				c0.9,0.1,1.9,0.2,2.5,0.8c1,0.8,1.4,2,1.6,3.2c0.2,1.4,0.3,2.8,0.3,4.3c0,0.6,0,1.4,0.1,2c0,0.2,0,0.4,0,0.6
				c1.1-0.4,2.1-0.8,3.2-1.1c0.5-0.2,1.1,0.2,1.2,0.6c0.2,0.6-0.2,1.1-0.6,1.2c-1.8,0.6-3.6,1.3-5.3,1.9c-6.2,2.3-12.5,4.6-18.7,6.9
				c-0.2,0.1-0.5,0.1-0.6-0.1c-0.1,0.2-0.2,0.3-0.5,0.3c-0.1,0-0.2,0-0.4,0c-2.1,1.7-4.4,3.1-6.9,4.3c-5.1,2.6-10.5,4.5-15.8,6.3
				c-0.7,0.2-1.4,0.5-2.1,0.6h12C141.4,578.7,141.6,577.8,142.5,577.8z M162.1,505.3c-1.6,2.9-3.9,5.3-6.7,7
				c-4.6,2.8-10.6,3.6-15.8,2.1c-5.6-1.6-9.9-5.7-12.4-10.9c-0.2-0.5-0.2-1.1,0.3-1.3c0.4-0.2,1.1-0.2,1.3,0.3
				c1.3,2.7,3.2,5.3,5.7,7.2c3.8,2.9,8.6,4,13.3,3.2c2.7-0.4,5.2-1.4,7.4-2.9c2.2-1.5,4-3.6,5.3-5.8
				C161,503.3,162.6,504.2,162.1,505.3z"/>
			<path class="st5" d="M155.7,565.8c1.8-0.6,3.5-1.3,5.3-1.9c4.5-1.7,9.1-3.3,13.7-5c-0.2-2.6,0.1-5.3-0.6-7.8
				c-0.1-0.2-0.1-0.3-0.2-0.5c0-0.1-0.1-0.2-0.1-0.2c-0.1-0.2-0.2-0.4-0.3-0.6l0,0l0,0l-0.1-0.1c-0.1-0.1-0.1-0.1-0.2-0.2l0,0
				c-0.1-0.1-0.2-0.1-0.2-0.2l-0.2-0.1c-0.2,0-0.2-0.1-0.4-0.1c-0.1,0-0.1,0-0.2,0c0,0,0,0-0.1,0c-0.2,0-0.6,0-0.8,0
				c-0.6,0-1.2,0.1-1.9,0.2c-2.6,0.5-5.2,1.2-7.4,2.5c-2.3,1.4-5.1,2.2-7.8,2.8c-1.2,0.3-2.3,0.6-3.6,0.9c2.3,3,3.9,6.5,4.6,10.1
				C155.5,565.7,155.6,565.7,155.7,565.8z"/>
			<path class="st6" d="M125,480.7c1.2-1.4,1.7-3.4,2.1-5.2c1-4.4,1.4-9,3.8-13c1.1-1.7,2.7-3.2,4.7-3.5c2.3-0.4,4.4,0.5,6.1,1.9
				c1.4-0.8,2.9-1.3,4.4-1c1.9,0.4,3.3,2,4.3,3.6c1.1,1.7,1.5,3.6,2.4,5.5c1.6,3.4,5.1,6.1,8.9,6.1c0.3-0.5,0.6-1,0.8-1.5
				c-0.3,0.2-0.7,0.3-1.1,0.1c-3.9-1.9-6.8-5.4-8.2-9.5c-0.2-0.5,0.2-1.1,0.6-1.2c0.6-0.2,1.1,0.2,1.2,0.6c1.3,3.6,4,6.5,7.4,8.2
				c0.3,0.2,0.5,0.6,0.5,0.9c0.2-0.4,0.3-0.7,0.5-1.1c0.2-0.7,0.5-1.5,0.6-2.3c0,0,0,0,0-0.1l0,0c0-0.1,0-0.2,0-0.2
				c0-0.2,0-0.2,0-0.4c0-0.2,0-0.5,0-0.8c-0.1-2.8-0.9-5.7-1.9-8.3c-1.1-2.9-2.7-5.8-5-8c-2-1.9-4.7-3.1-7.4-3.2
				c-1.5-0.1-3.1,0.1-4.6,0.4c-0.6,0.1-0.9,0.1-1.5-0.1c-0.5-0.1-0.9-0.2-1.4-0.3c-0.6-0.2-1.1-0.6-1.5-0.8
				c-0.7-0.3-1.5-0.5-2.3-0.6c-1.7-0.1-3.4,0.3-4.9,1.1c-3.2,1.6-5.5,4.1-7.3,7.1c-0.9,1.5-1.6,3.1-2.3,4.7
				c-0.7,1.6-1.5,3.2-2.2,4.8c-1.3,2.8-2.3,6.1-1.5,9.1C121.2,476.5,122.8,479.1,125,480.7z"/>
			<path class="st7" d="M133.5,504.3c1.4,1.5,2.9,2.8,4.6,3.9c1.6,1,3.5,1.5,5.3,1.5c2,0,4-0.6,5.9-1.4c1.9-0.8,3.6-2,4.9-3.5
				c1.5-1.6,2.6-3.5,3.6-5.4c0.1-0.2,0.2-0.3,0.2-0.6c0,0.7,0,1.5-0.1,2.2c0,0.3,0,0.6,0,1c0,1.2,1.9,1.2,1.9,0
				c0.1-2.2,0.2-4.4,0.2-6.6c0-0.1,0-0.2,0-0.2c0-0.3,0-0.6,0-1c0-0.2,0-0.3-0.1-0.5c0.4-1.5,0.8-3,1-4.5c0,0,0,0,0.1,0
				c3.2-0.6,4.8-4,5.3-6.9c0.5-2.3,0.5-4.8-0.6-6.9c-0.3-0.6-0.7-1.1-1.3-1.5c0.4-0.8,0.7-1.7,1-2.5c0.6-2.1,0.6-4.1,0.2-6.2
				c-0.4-2.5-1.2-4.9-2.3-7.3c-1.1-2.4-2.3-4.8-4.1-6.7c-1.6-1.8-3.6-3.2-5.9-4c-2.3-0.8-4.8-0.9-7.2-0.6c-0.6,0.1-1.1,0.2-1.8,0.3
				c-0.3-0.1-0.6-0.2-1-0.2c-0.2-0.1-0.5-0.1-0.7-0.2c-0.1,0-0.2,0-0.2-0.1c0,0-0.2-0.1-0.2-0.2c-1.6-1.1-3.7-1.5-5.7-1.2
				c-4,0.5-7.8,3.2-10.3,6.3c-2.5,3.2-3.9,6.9-5.6,10.5c-1.6,3.4-3.2,6.9-2.9,10.8c0.2,2.8,1.6,5.7,3.6,7.8c-0.3,0-0.7,0.2-0.8,0.7
				c-0.5,1.9,0.2,3.9,1,5.5c0.7,1.6,1.9,3.3,3.6,4.2c0.1,0.1,0.2,0.1,0.4,0.1c0.6,2.2,1.5,4.4,2.5,6.4c0.4,0.7,0.8,1.5,1.2,2.1
				C130.9,501.2,132.2,502.8,133.5,504.3z M164.3,476.3C164.2,476.3,164.3,476.3,164.3,476.3L164.3,476.3z M120.4,473.9
				c-0.8-3.1,0.2-6.3,1.5-9.1c0.7-1.6,1.5-3.2,2.2-4.8c0.7-1.6,1.5-3.2,2.3-4.7c1.8-3,4.1-5.5,7.3-7.1c1.5-0.8,3.2-1.2,4.9-1.1
				c0.7,0.1,1.5,0.2,2.3,0.6c0.6,0.2,1,0.7,1.5,0.8c0.5,0.1,0.9,0.2,1.4,0.3c0.5,0.2,0.9,0.2,1.5,0.1c1.5-0.3,3.1-0.5,4.6-0.4
				c2.8,0.2,5.4,1.3,7.4,3.2c2.3,2.2,3.9,5.1,5,8c1.1,2.7,1.9,5.5,1.9,8.3c0,0.2,0,0.5,0,0.8c0,0.2,0,0.2,0,0.4c0,0.1,0,0.2,0,0.2
				l0,0c0,0,0,0,0,0.1c-0.2,0.8-0.4,1.6-0.6,2.3c-0.2,0.4-0.3,0.7-0.5,1.1c0-0.3-0.2-0.7-0.5-0.9c-3.4-1.7-6.1-4.7-7.4-8.2
				c-0.2-0.5-0.6-0.8-1.2-0.6c-0.5,0.2-0.9,0.7-0.6,1.2c1.5,4,4.4,7.4,8.2,9.5c0.4,0.2,0.8,0.2,1.1-0.1c-0.2,0.5-0.6,1-0.8,1.5
				c-3.9,0.1-7.3-2.7-8.9-6.1c-0.9-1.8-1.5-3.7-2.4-5.5c-1-1.6-2.3-3.2-4.3-3.6c-1.5-0.3-3.2,0.2-4.4,1c-1.8-1.4-3.9-2.3-6.1-1.9
				c-2,0.3-3.6,1.7-4.7,3.5c-2.4,4-2.7,8.6-3.8,13c-0.4,1.8-0.9,3.8-2.1,5.2C122.8,479.1,121.2,476.5,120.4,473.9z M163.9,475.7
				C164,475.7,164,475.7,163.9,475.7L163.9,475.7z M163.9,475.7L163.9,475.7C163.8,475.7,163.9,475.7,163.9,475.7z M163.9,475.7
				L163.9,475.7L163.9,475.7C163.9,475.7,163.8,475.7,163.9,475.7z M127.2,487.4c-0.1-0.5-0.7-0.8-1.2-0.6c-0.6,0.2-0.7,0.6-0.6,1.2
				c0,0.1,0,0.2,0.1,0.2c-0.1-0.1-0.2-0.2-0.3-0.3c-0.5-0.6-1-1.4-1.3-2.1c-0.3-0.7-0.6-1.5-0.8-2.3c-0.1-0.4-0.1-0.6-0.1-1
				c0-0.2,0-0.3,0-0.6v-0.1c0,0,0,0,0-0.1s0-0.2,0.1-0.2c0-0.1,0-0.2,0-0.2c0.6,0.5,1.1,0.9,1.8,1.2c0.4,0.2,0.8,0.2,1.2-0.2
				c1.4-1.1,2.1-2.8,2.6-4.5c0,0.2,0.2,0.4,0.2,0.5c0.4,0.4,1,0.3,1.4,0c0.5-0.3,1-0.6,1.5-0.9h0.1c0.1,0,0.2-0.1,0.2-0.1
				c0.2-0.1,0.2-0.1,0.4-0.2c0.2,0,0.2-0.1,0.4-0.1c0.1,0,0.2,0,0.2,0c0.1,0,0.2,0,0.1,0c-0.1,0-0.1,0,0.1,0c0.1,0,0.2,0,0.2,0
				c0.2,0,0.2,0,0.4,0s0.2,0,0.4,0c0,0,0,0,0.1,0c0.1,0,0.1,0,0.2,0c0.2,0.1,0.5,0.1,0.7,0.2c0.1,0,0.2,0.1,0.3,0.2l0.2,0.1
				c0.5,0.2,1.1,0.2,1.3-0.3c0.2-0.4,0.2-1.1-0.3-1.3c-1.2-0.6-2.5-0.9-3.8-0.7c-1.5,0.2-2.7,0.9-3.9,1.8l0,0
				c0.5-1.7,0.7-3.5,1.1-5.3c0.4-2.3,1-4.5,1.9-6.6c0.7-1.8,1.6-3.5,3.4-4.2c2.1-0.9,4.4,0.1,6,1.5l0.1,0.1c0.2,0.2,0.6,0.3,1.1,0.1
				c0.8-0.6,1.6-1,2.6-1.1c0.1,0,0,0,0.2,0c0.1,0,0.2,0,0.3,0c0.3,0,0.3,0,0.6,0.1c0.5,0.1,0.7,0.2,1.2,0.6c1.1,0.7,1.8,1.9,2.3,3
				c0.6,1.1,1,2.3,1.5,3.5c1.1,2.6,2.7,4.8,5.1,6.3c1.1,0.7,2.4,1.3,3.7,1.6c0.6,0.2,1.4,0.2,2.1,0.2c0.6,0,1.2,0,1.5-0.6
				c0.1-0.2,0.2-0.3,0.3-0.4c0.1,0,0.1-0.1,0.2-0.1c0.1-0.1,0.2-0.1,0.2-0.2l0,0l0,0c0,0,0.1,0.1,0.1,0.2c0.1,0.1,0.1,0.2,0.2,0.2
				c0,0.1,0.1,0.1,0.1,0.2c0,0,0,0,0,0.1c0.2,0.5,0.3,1,0.4,1.5c0.1,0.2,0.1,0.5,0.2,0.7l0,0v0.1c0,0.1,0,0.2,0,0.3c0,0.3,0,0.6,0,1
				c-0.1,0.6-0.1,1-0.2,1.6c-0.2,1.2-0.6,2.4-1.2,3.6c-0.6,1-1.2,1.7-2.1,2c0.1-0.6,0.1-1.2,0.1-1.9c0-1.2-1.9-1.2-1.9,0
				c-0.1,4-1,8-2.6,11.6c-1.5,3.5-3.6,7-7,9c-2.9,1.7-6.8,2.6-9.9,1.1c-1.6-0.8-3-2-4.3-3.3c-1.4-1.3-2.6-2.7-3.6-4.4
				C129.6,495.8,127.9,491.7,127.2,487.4z"/>
			<path class="st7" d="M145.7,476.5c0.2-0.2,0.3-0.2,0.6-0.4c0.1-0.1,0.2-0.2,0.3-0.2s0.1-0.1,0.2-0.1c0,0,0,0,0.1,0
				c0.2-0.1,0.5-0.2,0.7-0.2h0.1c0.1,0,0.1,0,0.2,0c0.2,0,0.2,0,0.4,0c0.2,0,0.5,0,0.7,0c0.1,0,0.1,0,0.2,0l0,0
				c0.2,0,0.2,0.1,0.4,0.1c0.6,0.1,1.1,0.2,1.6,0.4c0.5,0.2,1.1-0.2,1.2-0.6c0.1-0.5-0.2-1.1-0.6-1.2c-1.2-0.3-2.4-0.6-3.6-0.6
				c-1.4,0.1-2.6,0.6-3.6,1.5c-0.4,0.3-0.3,1.1,0,1.4C144.7,476.9,145.3,476.9,145.7,476.5z"/>
			<path class="st7" d="M139,487.8c-0.2,0.5,0.2,1.1,0.6,1.2c0.6,0.2,1.1-0.2,1.2-0.6c0.9-2.6,0.6-5.4-0.6-7.8
				c-0.2-0.5-0.9-0.6-1.3-0.3c-0.5,0.2-0.6,0.9-0.3,1.3C139.6,483.5,139.8,485.7,139,487.8z"/>
			<path class="st7" d="M140.7,492.1c-0.1,0.1-0.2,0.2-0.2,0.2c-0.2,0.2-0.2,0.5-0.1,0.7c0.1,0.2,0.2,0.5,0.5,0.6
				c0.1,0,0.2,0.1,0.2,0.1c0.2,0.1,0.3,0.1,0.5,0c0.6-0.1,1.1-0.2,1.6-0.2c0.2,0,0.2-0.1,0.3-0.2c0.1-0.1,0.2-0.2,0.2-0.2
				c0.2-0.2,0.2-0.5,0.1-0.7c-0.1-0.2-0.2-0.5-0.5-0.6c-0.1,0-0.2-0.1-0.2-0.1c-0.2-0.1-0.3-0.1-0.5,0c-0.6,0.1-1.1,0.2-1.6,0.2
				C141,492,140.8,492,140.7,492.1z"/>
			<path class="st7" d="M134.1,483.4c1.2,0,1.3-1.9,0-1.9C132.9,481.5,132.9,483.4,134.1,483.4z"/>
			<path class="st7" d="M148.3,482.2c1.2,0,1.3-1.9,0-1.9C147.1,480.2,147.1,482.2,148.3,482.2z"/>
			<path class="st7" d="M141.7,502.1c1.2,0.5,2.5,0.4,3.7-0.1c1.1-0.5,1.9-1.4,2.7-2.3c0.5-0.6,1-1.2,1.4-1.9
				c0.3-0.6-0.1-1.5-0.8-1.5c-2.9,0.3-5.8,0.6-8.7,1c-0.4,0.1-0.8,0.1-1.2,0.2c-0.3,0-0.6,0.2-0.7,0.4c-0.2,0.2-0.3,0.6-0.1,1.1
				C138.7,500.2,140.1,501.4,141.7,502.1z M146.5,498.4c-0.5,0.6-1,1.1-1.5,1.5c-0.8,0.6-1.5,0.7-2.4,0.4c-0.8-0.2-1.5-0.6-2-1.2
				C142.5,498.8,144.5,498.7,146.5,498.4z"/>
			<path class="st7" d="M101.1,529c-0.2-2.4-0.3-4.8-0.5-7.3c-0.2-3.5-0.3-6.9,1-10.3c1.1-3,3.5-4.9,6.2-6.3c2.8-1.5,5.9-2.3,9-3.1
				c3.3-0.8,6.7-1.4,10-2.3c0.8-0.2,0.8-1.1,0.5-1.6c-0.2-0.2-0.6-0.4-1-0.3c-6.2,1.8-12.8,2.5-18.7,5.3c-2.9,1.4-5.7,3.4-7.2,6.3
				c-1.7,3.2-1.9,7-1.8,10.6c0.1,3,0.3,6,0.6,9c0,0.5,0.4,1,1,1l0,0C100.7,529.9,101.2,529.5,101.1,529z"/>
			<path class="st7" d="M160.4,504.3c-1.3,2.3-3,4.4-5.3,5.8c-2.2,1.5-4.8,2.4-7.4,2.9c-4.7,0.7-9.5-0.3-13.3-3.2
				c-2.4-1.9-4.3-4.4-5.7-7.2c-0.2-0.5-0.9-0.6-1.3-0.3c-0.5,0.3-0.6,0.9-0.3,1.3c2.4,5.2,6.8,9.3,12.4,10.9
				c5.2,1.5,11.2,0.6,15.8-2.1c2.8-1.7,5.2-4.2,6.7-7C162.6,504.2,161,503.3,160.4,504.3z"/>
			<path class="st7" d="M199.9,558.7c-0.4-2.3-1.1-4.7-2-6.9c-1.2-3.2-2.3-6.5-3.2-9.9c-1.9-6.7-3.6-13.4-5.7-20.1
				c-1.1-3.4-2.1-6.7-3.4-10c-0.6-1.5-1.1-3.2-2-4.6c-0.8-1.2-1.8-2.3-2.8-3.2c-2.1-1.9-4.7-3.2-7.3-4.1c-2.4-0.9-5-1.4-7.4-2.3
				c-1.3-0.5-2.4-1.1-3.6-1.8c-0.5-0.2-1-0.1-1.2,0.2c-0.3,0.4-0.4,1.1,0.2,1.5c2.3,1.3,4.6,2.3,7.1,3c2.6,0.7,5.1,1.5,7.5,2.7
				c2.3,1.3,4.6,3,6.1,5.3c0.9,1.4,1.4,3,1.9,4.5c0.6,1.6,1.2,3.2,1.7,4.9c2.2,6.5,3.8,13.1,5.7,19.7c0.9,3.3,1.9,6.6,3,9.9
				c0.9,2.7,2,5.4,2.8,8.2c0.6,2.1,1.1,4.3,1.2,6.5c0.1,1.1,0.1,2,0,3.1c-0.1,1.1-0.2,1.7-0.4,2.7c-0.8,3.6-2.8,6.4-6.1,8.1
				c-4,2-8.8,1.9-13.3,2c-4.9,0.2-9.9,0.2-14.7,0.2c-4.5,0-9-0.1-13.7-0.2c-2.5-0.1-5-0.1-7.5-0.2c-0.1,0-0.2,0-0.3,0
				c-0.9,0-1.1,1-0.7,1.5c0.2,0.2,0.4,0.4,0.7,0.4c1.8,0.1,3.6,0.1,5.4,0.2c4.3,0.1,8.6,0.2,12.8,0.2c5.1,0,10.2,0,15.2-0.1
				c2.3-0.1,4.5-0.2,6.8-0.2c2.6-0.1,5.1-0.3,7.5-1.1c3.8-1.3,7-3.8,8.6-7.6C200.7,567.2,200.7,562.8,199.9,558.7z"/>
			<path class="st7" d="M147.8,572.4c2.4-1.2,4.8-2.6,6.9-4.3c0.2,0,0.2,0,0.4,0c0.2-0.1,0.4-0.2,0.5-0.3c0.2,0.1,0.4,0.2,0.6,0.1
				c6.2-2.3,12.5-4.6,18.7-6.9c1.8-0.6,3.6-1.3,5.3-1.9c0.5-0.2,0.8-0.6,0.6-1.2c-0.2-0.5-0.7-0.9-1.2-0.6c-1.1,0.4-2.1,0.8-3.2,1.1
				c0-0.2,0-0.4,0-0.6c0-0.6,0-1.4-0.1-2c0-1.5-0.1-2.9-0.3-4.3c-0.2-1.1-0.6-2.4-1.6-3.2c-0.7-0.6-1.6-0.8-2.5-0.8v-0.1
				c1.2-5.6,2-11.2,3.1-16.8c0.3-1.7,0.6-3.4,1.1-5.1c0.2-1.2-1.6-1.8-1.9-0.5c-1.2,5.6-2,11.2-3.1,16.8c-0.3,1.7-0.6,3.4-1.1,5.1
				c-0.1,0.2,0,0.5,0.1,0.7c-2.7,0.2-5.4,1.1-7.8,2.3c-1,0.5-2,1.1-3,1.5c-1.4,0.6-2.7,1.1-4.2,1.5c-1.9,0.6-3.9,1.1-5.8,1.5
				c0-0.1-0.1-0.1-0.1-0.2c-0.3-0.4-0.8-0.3-1.1-0.2c-0.2-0.1-0.3-0.2-0.5-0.1c-3.9,0.4-7.8,0.8-11.6,1.2c-1.2,0.1-2.3,0.2-3.6,0.3
				c-0.5,0.1-1,0.4-1,1c0,0.5,0.5,1.1,1,1c4.6-0.4,9.1-0.9,13.7-1.4c0.5-0.1,1-0.1,1.5-0.2c0.2,0,0.2-0.1,0.3-0.1
				c2.8,3.1,4.7,6.9,5.5,11c-0.5,0.4-0.8,0.6-1.2,1c-0.5,0.3-1,0.7-1.5,1.1c-1.1,0.7-2.3,1.4-3.4,1.9c-2.5,1.3-5.1,2.4-7.7,3.5
				c-4.5,1.8-9.2,3.4-13.8,4.8c-1,0.2-1.9,0.6-2.8,0.8c-0.4,0.1-0.6,0.3-0.6,0.6c-0.2,0.6,0.3,1.5,1.2,1.2c2.1-0.6,4.1-1.1,6.1-1.8
				c0.7-0.2,1.4-0.4,2.1-0.6C137.2,576.9,142.7,574.9,147.8,572.4z M150.8,555.6c1.2-0.2,2.4-0.6,3.6-0.9c2.6-0.7,5.3-1.5,7.8-2.8
				c2.2-1.3,4.8-2.1,7.4-2.5c0.6-0.1,1.2-0.2,1.9-0.2c0.2,0,0.6,0,0.8,0h0.1c0.1,0,0.1,0,0.2,0c0.2,0,0.2,0.1,0.4,0.1
				c0.1,0,0.2,0.1,0.2,0.1c0.1,0.1,0.2,0.1,0.2,0.2l0,0c0.1,0.1,0.1,0.1,0.2,0.2l0.1,0.1l0,0l0,0c0.2,0.2,0.2,0.4,0.3,0.6
				c0,0,0.1,0.2,0.1,0.2c0.1,0.2,0.1,0.3,0.2,0.5c0.6,2.4,0.3,5.2,0.6,7.8c-4.5,1.7-9.1,3.3-13.7,5c-1.8,0.6-3.5,1.3-5.3,1.9
				c-0.1-0.1-0.2-0.1-0.2-0.1C154.7,562,153.1,558.5,150.8,555.6z"/>
			<path class="st6" d="M170.8,450.4c0.5,0.2,1.1-0.2,1.2-0.6c0.6-1.9,1.1-4,1.7-5.9c0.1-0.3,0.2-0.6,0.2-0.9
				c0.2-0.5-0.2-1.1-0.6-1.2s-1.1,0.2-1.2,0.6c-0.6,1.9-1.1,4-1.7,5.9c-0.1,0.3-0.2,0.6-0.2,0.9C170,449.6,170.3,450.2,170.8,450.4z
				"/>
			<path class="st6" d="M178.2,455c2.2-2.1,4.4-4.1,6.5-6.2c0.3-0.3,0.6-0.6,1-0.9c0.9-0.9-0.5-2.3-1.4-1.4
				c-2.2,2.1-4.4,4.1-6.5,6.2c-0.3,0.3-0.6,0.6-1,0.9C176,454.4,177.3,455.8,178.2,455z"/>
			<path class="st6" d="M181.4,459.5c-0.5,0.2-0.8,0.6-0.6,1.2c0.2,0.5,0.7,0.8,1.2,0.6c1.9-0.6,4-1.1,5.9-1.7
				c0.3-0.1,0.6-0.2,0.9-0.2c0.5-0.2,0.8-0.6,0.6-1.2c-0.2-0.5-0.7-0.8-1.2-0.6c-1.9,0.6-4,1.1-5.9,1.7
				C182,459.2,181.8,459.3,181.4,459.5z"/>
			<path class="st5" d="M112.2,417.7c-0.6-5.3-3.6-10.1-8.1-13c-4.6-3-10.4-3.7-15.7-1.9c-4.9,1.7-9.1,5.6-11,10.5
				c-2,5.2-1.5,11.2,1.3,15.9c2.8,4.7,7.7,7.8,13.1,8.6c0.3,0.1,0.6,0.4,0.6,0.6c0.1,0.5,0.2,0.9,0.3,1.4c0.5,1.9,0.9,3.7,1.4,5.6
				c0.6-2.3,1.1-4.6,1.7-6.9c0.1-0.3,0.3-0.6,0.6-0.6c1.9-0.2,3.8-0.8,5.5-1.7c6.2-3.1,10.2-9.4,10.2-16.2
				C112.4,419.2,112.3,418.4,112.2,417.7z M102.4,415.5c-0.4,0.4-0.7,0.8-1.1,1.3c-2.6,2.9-5.3,5.8-7.8,8.6c-0.4,0.4-1,0.3-1.4,0
				c-1.5-1.2-3.1-2.4-4.6-3.6c-0.4-0.3-0.3-1.1,0-1.4c0.4-0.4,1-0.3,1.4,0c1.3,1,2.5,2,3.8,3c0.2-0.2,0.4-0.4,0.6-0.6
				c2.6-2.9,5.3-5.8,7.8-8.6C101.9,413.2,103.3,414.6,102.4,415.5z"/>
			<path class="st7" d="M107,404.5c-4.8-3.9-11-5.3-17-4.1c-5.7,1.2-10.7,5.1-13.5,10.3c-2.8,5.5-3,12-0.5,17.6
				c2.4,5.4,7.4,9.5,13.2,11.1c0.6,0.2,1.1,0.2,1.6,0.3c0.7,3,1.5,5.9,2.2,8.9c0.1,0.5,0.2,0.9,0.3,1.4c0.2,0.9,1.6,0.9,1.9,0
				c0.7-3.2,1.5-6.3,2.3-9.5c0.1-0.2,0.2-0.5,0.2-0.7c7.2-1.2,13.3-6.5,15.6-13.3c0.7-2,1.1-4.2,1.1-6.4
				C114.3,413.9,111.6,408.2,107,404.5z M102.2,436.1c-1.7,0.9-3.6,1.4-5.5,1.7c-0.3,0.1-0.6,0.4-0.6,0.6c-0.6,2.3-1.1,4.6-1.7,6.9
				c-0.5-1.9-0.9-3.7-1.4-5.6c-0.1-0.5-0.2-0.9-0.3-1.4c-0.1-0.3-0.3-0.6-0.6-0.6c-5.4-0.8-10.3-3.9-13.1-8.6
				c-2.9-4.8-3.3-10.7-1.3-15.9c1.9-4.9,6.1-8.8,11-10.5c5.3-1.8,11.1-1.1,15.7,1.9c4.4,2.9,7.5,7.8,8.1,13c0.1,0.7,0.1,1.5,0.2,2.2
				C112.4,426.8,108.3,433.1,102.2,436.1z"/>
			<path class="st6" d="M101.1,414.2c-2.6,2.9-5.3,5.8-7.8,8.6c-0.2,0.2-0.4,0.4-0.6,0.6c-1.3-1-2.5-2-3.8-3c-0.4-0.3-1-0.4-1.4,0
				c-0.3,0.3-0.4,1.1,0,1.4c1.5,1.2,3.1,2.4,4.6,3.6c0.4,0.3,1,0.4,1.4,0c2.6-2.9,5.3-5.8,7.8-8.6c0.4-0.4,0.7-0.8,1.1-1.3
				C103.3,414.6,101.9,413.2,101.1,414.2z"/>
			<path class="st5" d="M72.9,516c0.2,0.2,0.5,0.4,0.7,0.6l0,0c0,0,0,0,0.1,0.1s0.2,0.2,0.2,0.2c0.2,0.1,0.2,0.2,0.4,0.3
				c0.3,0.2,0.7,0.5,1.1,0.6c0.9,0.6,1.9,1,2.9,1.4c1,0.3,1.9,0.6,2.9,1c0-0.1,0.1-0.1,0.1-0.2c0.6-1,1-2,0.9-3.2
				c-0.1-1-0.5-2.1-0.8-3.2c-0.6-1.5-1.1-3.1-1.3-4.7c-0.9,1.1-1.9,2.2-3.1,3.1c-1.5,1.1-3.2,2.1-4.9,2.5c-0.6,0.2-1.3,0.2-1.9,0.2
				c-0.1,0.2-0.1,0.5-0.2,0.7c0.4,0.3,0.8,0.6,1.3,1C71.5,515.9,72.4,515.5,72.9,516z"/>
			<path class="st5" d="M78,469.8L78,469.8c-0.6,4.9-3.6,11.5-9.5,11.2c-0.3,0-0.6-0.2-0.8-0.5c-1,0.2-1.9,0.2-2.7,0.2
				c-1.1,0.7-2.4,1.2-3.9,1.2c-0.5,0-0.8-0.3-0.9-0.7c-0.6,0.2-1.4,0.2-2,0.2c-1.9,1.9-4,3.4-6.1,4.8c-0.3,0.2-0.7,0.2-1.1,0
				c-0.2,0.6-1.1,1-1.6,0.4c-0.4-0.4-0.6-0.6-1.2-0.6c-0.6-0.1-0.9,0-1.3,0.3c-0.9,0.8-1.1,1.9-1.1,3c0.2,1.7,1,3.4,2.3,4.5
				c1.1-0.6,2.5-0.3,3.5,0.6s1.1,2.3,0.6,3.5c-0.5,1.1-1.6,1.7-2.7,1.6c-0.1,0.6-0.2,1.1-0.5,1.8c0,0.2,0,0.2-0.1,0.4
				c0.1,0,0.1,0,0.2,0c0.6,0.2,0.7,0.6,0.6,1.2c-0.2,1.3-0.2,3,0,4.4c0.2,1.6,0.5,3.2,0.8,4.8c0.2,1,0.5,2,0.8,3
				c0.4,0.3,0.8,0.6,1.3,0.9c0.3-0.3,0.9-0.4,1.3,0c0.2,0.2,0.3,0.3,0.5,0.5c0.2,0.2,0.2,0.2,0.5,0.3c0.5,0.3,1,0.6,1.5,0.9
				c1.9,1.1,4,1.9,6.1,2.5c1.6,0.4,3.3,0.3,4.9-0.2c0.4-1.8,0.6-3.7,1-5.5c-0.7-0.1-1.5-0.2-2.2-0.5c-3.9-1.2-7.5-3.7-10.3-6.7
				c-0.9-0.9,0.5-2.3,1.4-1.4c2.8,3.1,6.6,5.7,10.8,6.5c1.7,0.3,3.5,0.2,5.1-0.5c1.5-0.6,2.9-1.7,4-2.8c2.6-2.6,4.2-5.7,5-9.2
				c0.8-3.6,0.8-7.4,1.2-11.2c0.4-3.9,0.9-7.7,0.2-11.6c0-0.1,0-0.1,0-0.2C82.5,474.4,80.8,471.7,78,469.8z M73.5,486.3
				c0.2-0.5,0.6-0.8,1.2-0.6c0.5,0.2,0.8,0.7,0.6,1.2c-0.4,1.1-0.4,2.4-0.2,3.6c0.1,0.3,0.2,0.6,0.2,0.9c0.1,0.2,0.1,0.3,0.2,0.4
				c0,0.1,0.1,0.2,0.1,0.2c0,0,0,0,0,0.1c0.1,0.2,0.2,0.5,0.3,0.6c0,0.1,0.1,0.1,0.1,0.2l0.1,0.1l0,0c0,0.1,0.1,0.1,0.2,0.2
				c0.3,0.4,0.4,1,0,1.4c-0.4,0.4-1.1,0.4-1.4,0c-0.9-1-1.4-2.3-1.6-3.6C73,489.4,73,487.8,73.5,486.3z M72.6,496.9
				c0-0.1,0.1-0.2,0.2-0.3c0.2-0.2,0.4-0.3,0.7-0.3c0.1,0,0.2,0,0.3,0c0.1,0,0.2,0,0.2-0.1c0.2-0.1,0.6-0.1,0.8-0.1s0.5,0.1,0.7,0.3
				c0.2,0.2,0.2,0.4,0.3,0.7c0,0.2,0,0.2-0.1,0.4c0,0.1-0.1,0.2-0.2,0.3c-0.2,0.2-0.4,0.3-0.7,0.3c-0.1,0-0.2,0-0.3,0
				c-0.1,0-0.2,0-0.2,0.1c-0.2,0.1-0.6,0.1-0.8,0.1c-0.2,0-0.5-0.1-0.7-0.3c-0.2-0.2-0.2-0.4-0.3-0.7
				C72.5,497.1,72.5,497.1,72.6,496.9z M66,488.4c-1.3,0-1.2-1.9,0-1.9C67.2,486.4,67.2,488.4,66,488.4z M77.1,502.5
				C77.1,502.5,77.1,502.5,77.1,502.5C77.1,502.5,77.1,502.5,77.1,502.5c0,0.1,0,0.1-0.1,0.2v0.1c-0.3,1-0.8,1.9-1.5,2.7
				c-1,1.3-2.5,2.3-4.2,2c-2-0.4-3.2-2.6-3.9-4.3c-0.2-0.6,0.4-1.2,1-1.2c0.3,0,0.6-0.1,1-0.1c2.2-0.2,4.4-0.3,6.5-0.5l0,0h0.1l0,0
				c0,0,0,0,0.1,0c0.2,0,0.5,0.2,0.6,0.3c0,0,0,0,0.1,0.1c0,0,0,0.1,0.1,0.1C77.1,502,77.1,502.2,77.1,502.5z M78.4,487.7
				c-1.3,0-1.2-1.9,0-1.9S79.6,487.7,78.4,487.7z M82.2,479c0.3,0.5,0.1,1.1-0.3,1.3c-0.5,0.3-1.1,0.1-1.3-0.3l-0.1-0.1l0,0
				l-0.1-0.1l-0.1-0.1c-0.1,0-0.1-0.1-0.2-0.1c-0.1-0.1-0.2-0.1-0.2-0.2c-0.1,0-0.1-0.1-0.2-0.1c-0.1,0-0.2-0.1-0.3-0.1
				c0,0-0.3,0-0.3-0.1l0,0c-0.1,0-0.1,0-0.2,0c-0.2,0-0.5,0-0.7,0h-0.1l0,0c-0.2,0-0.2,0.1-0.4,0.1c-0.1,0-0.2,0.1-0.3,0.1
				c0,0-0.1,0.1-0.2,0.1c-0.1,0.1-0.2,0.1-0.2,0.2c-0.1,0-0.1,0.1-0.2,0.1l0,0c-0.4,0.3-1,0.3-1.4,0c-0.4-0.3-0.4-1.1,0-1.4
				c1-0.8,2.3-1.1,3.5-1.1C80.2,477.5,81.5,478,82.2,479z"/>
			<path class="st5" d="M84.7,474.6c-0.6,0-0.9-0.5-1-1c-0.2-1.6-0.6-3.3-1.1-4.8c-1.9-4.8-5.9-8.6-11-9.5c-0.5-0.1-0.8-0.7-0.6-1.2
				c0.2-0.6,0.6-0.8,1.2-0.6c0.1,0,0.2,0.1,0.3,0.1c-0.8-0.4-1.7-0.6-2.7-0.8c0.2,0.2,0.4,0.6,0.3,1c-0.2,0.5-0.7,0.9-1.2,0.6
				c-0.8-0.3-1.6-0.6-2.4-0.7c-6.1-1.4-12.7,0.8-17.3,4.8c-2.2,1.9-3.9,4.4-4.9,7.1c-1.1,2.8-1.6,5.8-2,8.7c-0.4,3-0.7,6.1-1.3,9
				c-0.6,3.2-1.6,6.3-2.8,9.4c-2.5,6.4-6,12.4-10.3,17.8c-1.1,1.3-2.2,2.6-3.4,3.9c-1,1-1.9,1.9-2.7,3.1c-0.8,1.1-1.5,2.4-2,3.7
				c-0.2,0.7-0.5,1.5-0.5,2.3c0.4-0.5,0.8-0.9,1.3-1.3c1.6-1.3,3.3-2.4,5.2-3.5c2-1.1,4.1-2,6.2-2.7c1.1-0.5,2.3-1,3.4-1.5
				c0.5-0.2,0.9-0.2,1.1,0.2c0.4-0.5,0.7-1,1.1-1.4c-0.1-0.6-0.2-1.2-0.2-1.9c-0.1-3.1,0.4-6.1,0.8-9.2c0.1-0.5,0.7-0.8,1.2-0.6
				c0.6,0.2,0.7,0.6,0.6,1.2c-0.5,3.3-1,6.7-0.6,10.1c0.2,2.7,1.2,5.4,2.7,7.8c1,1.5,1.9,2.8,2.8,4.2c1.2,1.9,2.3,3.7,3.2,5.7
				c0.6,1.4,1.3,3.2,1,4.7c1,0,1.9,0,2.8-0.3c0-0.2,0.1-0.4,0.2-0.6c2-1.6,2.5-3.8,2.4-6.3c-0.2-2.4-0.9-4.9-1.8-7.3
				c-0.8-2.2-1.8-4.3-2.7-6.4c-1.1-2.4-1.7-5.1-2.2-7.7c-0.5-2.7-0.9-5.7-0.4-8.5c0.1-0.4,0.6-0.7,1-0.7c0.1-0.2,0.1-0.2,0.2-0.4
				c0.1-0.6,0.1-1.1,0.2-1.8c-1.2-0.2-2.2-1.1-2.5-2.2c0-0.1,0-0.2,0-0.2c-0.1-0.6,0-1.3,0.2-1.9c-0.3-0.2-0.6-0.6-0.8-0.9
				c-1.7-2.1-2.7-5.2-1.5-7.8c0.5-1.1,1.5-2.3,2.7-2.5c1.3-0.3,2.6,0.2,3.6,1.1c0.1-0.2,0.2-0.4,0.4-0.5c2.3-1.7,4.8-3.4,6.8-5.6
				c1.8-1.9,3.1-4.3,3.7-6.9c0.3-1.2,2.2-0.7,1.9,0.5c-0.6,2.8-2.1,5.4-4,7.6c-0.3,0.4-0.7,0.7-1.1,1.1c0.6,0,1.4-0.1,2-0.2
				c-0.2-0.6,0.2-1.2,0.9-1.2c2.1,0,4-1.5,5.3-3.2c1.4-1.9,2.4-4,3-6.3c0.3-1.2,2.2-0.7,1.9,0.5c-0.6,2.5-1.8,5-3.4,7.1
				c-0.8,1.1-1.7,1.9-2.8,2.7c0.9,0,1.9-0.1,2.7-0.2c-0.1-0.2-0.2-0.3-0.2-0.5c0-0.5,0.5-1,1-1c2.2,0.2,4-1,5.2-2.8
				c1.4-2,2.1-4.4,2.5-6.9c0.1-0.5,0.7-0.8,1.2-0.6c0.6,0.2,0.7,0.6,0.6,1.2c2.7,1.9,4.4,4.5,5.5,7.5c-0.1-0.5,0.2-1,0.7-1.1
				c0.2-0.1,0.3,0,0.5,0C84.7,475.7,84.7,475.2,84.7,474.6L84.7,474.6z"/>
			<path class="st5" d="M49.4,539.4c0,0.2-0.1,0.2-0.1,0.4c-0.2,0.5-0.6,0.8-1.2,0.6c-0.5-0.2-0.9-0.7-0.6-1.2
				c0-0.1,0.1-0.2,0.1-0.2v-0.1c0-0.2,0-0.3,0-0.6c0-0.1,0-0.2,0-0.3l0,0c0-0.1,0-0.1,0-0.2c-0.1-0.2-0.1-0.5-0.2-0.6
				c-0.3-1.1-0.6-1.9-1.2-2.9c-1-1.9-2.2-3.8-3.4-5.6c-1-1.5-2-2.8-2.8-4.4c-1.2-2.2-1.9-4.6-2.2-7c-0.4,0.4-0.7,0.9-1.1,1.4
				c0.1,0.1,0.2,0.2,0.2,0.4c0.4,1.2,0.9,2.4,1.3,3.6c1.9,5.2,3.8,10.4,5.7,15.6c1.1,3,2.2,6.1,3.3,9c0.4,0,0.8,0,1.2,0.1
				c3.2,0.2,6.3,0.4,9.4,1c3.1,0.5,6.2,1.1,9,2.6c1-1.1,2-2.1,3-3.2c1.1-1.1,1.9-2.2,3.2-3c1.2-0.9,2.5-1.4,3.9-1.9
				c0.2-0.1,0.4-0.2,0.6-0.2c-0.2-1.5-0.4-3-0.6-4.4c-0.6-4-1.4-8.1-2.2-12c-0.5-2.5-1.1-5-1.5-7.5v-0.1c-0.5-0.3-1-0.7-1.5-1.1
				c-0.3-0.2-0.3-0.6-0.2-0.9c-0.4-0.3-0.8-0.7-1.3-1c-0.2,1.2-0.4,2.5-0.6,3.8c0.2-0.1,0.2-0.2,0.4-0.2c1.1-0.6,2,1.1,1,1.7
				c-1.6,1-3.5,1.6-5.4,1.8c-2.6,0.2-4.8-0.6-7.2-1.5c-1.1-0.5-2.3-1.1-3.3-1.6c-0.9-0.5-1.8-1.1-2.5-1.9c-0.4-0.5-0.3-1.1,0.1-1.4
				c-0.5-0.2-0.9-0.6-1.3-0.9c0.1,0.3,0.2,0.7,0.3,1.1c0.3,1,0.7,1.8,1.2,2.7c1.1,2.3,2.1,4.7,2.9,7.1c1.5,4.4,2.4,10.4-1.8,13.7
				c-0.4,0.3-1,0.4-1.4,0c-0.2-0.2-0.3-0.5-0.2-0.8C51.3,539.4,50.3,539.4,49.4,539.4z"/>
			<path class="st5" d="M48.9,499.6c0,0.6-0.1,1.2-0.2,1.8c0.2-0.6,0.4-1.1,0.5-1.8c-0.1,0-0.1,0-0.2,0
				C49.1,499.6,49,499.6,48.9,499.6z"/>
			<path class="st5" d="M48.8,501.7c0-0.2,0-0.2,0.1-0.4C48.8,501.5,48.8,501.6,48.8,501.7L48.8,501.7z"/>
			<path class="st5" d="M98.1,562.1c-0.4-1.5-0.9-3-1.2-4.5c-0.1-0.2-0.1-0.3-0.2-0.5c-0.2,0.2-0.6,0.4-0.8,0.5
				c-0.4,0.1-0.7,0.1-1.1,0c-0.8-0.2-1.9-0.6-2.7-1.3c-0.3,0-0.6,0-1,0c-1.1,0.6-2.2,1.1-3.4,1.4c-0.6,0.2-1.2,0.3-1.9,0.5
				c0,0.1,0,0.2,0,0.2l0,0v0.1c0.1,0.4,0.1,0.8,0.2,1.2c0.2,1.1,0.3,2.1,0.3,3.2c0.1,2.1-0.2,4.1-1.2,6c-1.2,2.1-2.7,4.1-3.8,6.4
				c-0.8,1.6-1.2,3.4-1.6,5.2h22.9c-0.1-0.4-0.2-0.8-0.3-1.1C100.8,573.6,99.5,567.8,98.1,562.1z"/>
			<path class="st5" d="M116.3,579.2c1.1-2.9,2.3-5.7,4-8.3c0.8-1.3,1.7-2.6,2.7-3.8c0.7-1,1.2-1.5,1.9-2.4c0.9-1.5,1.7-3.2,2.4-4.8
				c0.1-0.2,0.1-0.2,0.2-0.4c0,0,0.1-0.1,0.1-0.2c0.1-0.1,0.1-0.2,0.2-0.3c0.1-0.2,0.2-0.5,0.3-0.7c0.1-0.2,0.2-0.3,0.2-0.5
				c0.1-0.4,0.1-0.8,0.2-1.2c0,0,0-0.2,0-0.2c0-0.1,0-0.1,0-0.2c0-0.2,0.1-0.3,0.1-0.6c0.1-0.5,0.1-0.9,0.2-1.4
				c0.3-2.3,0.6-4.4,0.8-6.7c0.2-1.1,0.3-2.3,0.4-3.5c0-0.4,0.2-1.2-0.2-1.5c-0.3-0.2-0.6,0.2-0.7,0.4c-0.3,0.5-0.3,1.1-0.5,1.7
				c-0.1,0.6-0.2,1.2-0.3,1.8c-0.2,1.1-0.4,2.3-0.6,3.4c-0.2,0.7-0.2,1.5-0.4,2.2l0,0c0.1,0.2,0.1,0.4,0.1,0.6
				c0.2,1.1,0.3,2.3,0.5,3.5c0.2,1.1-1.7,1.3-1.9,0.2c-0.2-1-0.4-1.9-0.6-2.7c-0.4-1.5-0.7-2.6-1.7-3.8c-0.9-1.2-2.1-2.2-3.1-3.4
				c-0.6-0.6-1.2-1.4-1.9-2c-0.2-0.2-0.5-0.5-0.7-0.6c-0.2-0.1-0.4-0.2-0.6-0.1l0,0c0,0,0,0-0.1,0s-0.2,0-0.2,0.1
				c0.1,0-0.2,0.2-0.2,0.1c-0.3,0.2-0.5,0.6-0.4,1.1c0.1,0.3,0.2,0.6,0.4,0.8c0.1,0.1,0.1,0.2,0.2,0.2c0.8,1,1.6,1.9,2.4,2.8
				c0.8,1,1.8,1.9,2.3,3.1c0.6,1,0.9,2,1.3,3.1c0.2,0.7,0.5,1.4,0.7,2.1c0.2,0.5-0.2,1-0.6,1.1c-0.5,0.2-1,0-1.2-0.4
				c-1-1.4-1.9-2.7-2.7-4c-1.2-1.8-2.3-3.7-3.5-5.4c-0.2-0.4-0.6-0.7-0.8-1.1l-0.1-0.1c-0.1-0.1-0.1-0.1-0.1-0.1
				c-0.1,0-0.2-0.1-0.2-0.1c-0.1,0-0.1,0-0.2-0.1c-0.2,0-0.2,0-0.5,0.1c0.1-0.1-0.3,0.2-0.2,0.2c-0.2,0.2-0.3,0.4-0.3,0.6l0.1,0.2
				c0,0.1,0.2,0.2,0.2,0.3c0.1,0.2,0.2,0.5,0.3,0.7c0.3,0.6,0.6,1.2,1,1.8c0.6,1.1,1.5,2.3,2.1,3.4c1.1,1.9,1.9,4,2.9,6.1
				c0.5,1-0.7,1.9-1.5,1.2c-1.4-1.3-2.8-2.5-4.2-3.8c-0.6-0.6-1.4-1.2-2-1.9c-0.3-0.3-0.6-0.7-1.1-1c-0.2-0.1-0.2-0.1-0.3-0.2h-0.1
				l0,0c-0.1,0-0.2,0-0.2,0s-0.3,0.2-0.2,0.1c-0.1,0-0.1,0.1-0.2,0.1l0,0l0,0c-0.1,0.1-0.1,0.1-0.2,0.2l0,0c0,0-0.1,0.2-0.2,0.2
				c0,0.1-0.1,0.2-0.1,0.2c0,0,0,0,0,0.1l0,0c0,0.1,0,0.4,0,0.2c0,0.1,0,0.2,0.1,0.2l0,0l0,0l0.1,0.1c0,0.1,0.1,0.1,0.1,0.1
				c0.6,0.7,1.2,1.5,1.9,2.1c0.6,0.6,1.1,1.1,1.6,1.7c0.7,0.9,1.5,1.8,2.2,2.7c0.2,0.3,0.2,0.9-0.2,1.2c-0.4,0.3-0.7,0.6-1.1,1
				c-1.8,1.8-3.2,3.6-4.4,5.7c-1.6,2.9-2.5,6.2-2.2,9.5c0,0.2,0,0.3-0.1,0.4h9.4C116.6,580.3,116.2,579.7,116.3,579.2z"/>
			<path class="st5" d="M69.9,503.8c0.3,0.6,0.6,1,1.1,1.5c0,0,0.2,0.1,0.2,0.2c0.1,0.1,0.2,0.1,0.2,0.2h0.1l0,0
				c0.1,0,0.2,0.1,0.2,0.1c0.1,0,0.3,0,0.1,0c0.1,0,0.2,0,0.2,0c0.1,0,0.2,0,0.2,0c0.1,0,0.1,0,0.2,0c0.1,0,0.2-0.1,0.2-0.1l0,0
				c0,0,0,0,0.1,0c0.2-0.1,0.3-0.2,0.5-0.3l0,0l0.1-0.1c0.1-0.1,0.2-0.2,0.2-0.2c0.2-0.2,0.3-0.3,0.4-0.5c0,0,0-0.1,0.1-0.1
				c0,0,0-0.1,0.1-0.1c0.1-0.1,0.2-0.2,0.2-0.3c0.1-0.2,0.2-0.4,0.3-0.6C73.1,503.5,71.5,503.6,69.9,503.8z"/>
			<path class="st5" d="M87.1,524.3c-0.9-0.5-1.9-0.8-3-1.2c-1.1-0.4-2.3-0.7-3.4-1.1c-0.1,0-0.1,0-0.2-0.1c0.1,0.6,0.2,1.3,0.3,1.9
				c1,4.8,1.9,9.6,2.8,14.5c0.2,0.6,0.2,1.4,0.4,2c1.6-0.6,3.2-1.1,4.8-1.6c1.1-0.3,2.1-0.6,3.2-0.9c0-0.2-0.1-0.2-0.1-0.4
				c-0.2-0.6-0.4-1.1-0.6-1.8c-0.8-2.8-1.4-6-2.5-8.6c-0.2-0.6-0.6-1.2-1-1.8c-0.1-0.1-0.1-0.2-0.2-0.2l0,0
				c-0.1-0.1-0.2-0.2-0.2-0.3c-0.1-0.1-0.2-0.2-0.2-0.2C87.3,524.4,87.2,524.4,87.1,524.3z"/>
			<path class="st7" d="M109.4,536.9c-0.5-0.6-1.2-1-2-1.1c-0.2,0-0.5,0-0.8,0.1c0.1,0-0.2,0-0.3,0c-2.5,0.2-5.1,0.5-7.6,0.8
				c-1.4,0.2-2.7,0.3-4.1,0.6c-0.2,0-0.3,0.1-0.6,0.1c-0.1-0.3-0.2-0.6-0.2-0.9c-1-2.7-1.5-5.7-2.3-8.4c-0.5-1.4-1-2.8-1.9-4
				c-0.4-0.6-0.8-1.1-1.4-1.4c-0.9-0.6-1.9-0.9-2.8-1.2c-0.7-0.2-1.4-0.5-2.1-0.7c0.6-1.1,1.1-2.3,1.1-3.5s-0.3-2.4-0.7-3.6
				c-0.7-2.3-1.9-4.6-1.5-7c0-0.2,0-0.4,0-0.6c0.6-1.1,1.1-2.3,1.5-3.5c1.2-3.8,1.4-7.8,1.6-11.7c0.2-2.3,0.5-4.6,0.6-6.9
				s0.1-4.7-0.4-7c-0.1-0.3-0.3-0.6-0.6-0.6c0,1.1,0,2,0,3.2c0-1.1,0-2.2,0-3.2c-0.2-0.1-0.3-0.1-0.5,0c-0.5,0.2-0.7,0.6-0.7,1.1
				c0.7,2,1.1,4.2,1.2,6.4c-0.2-2.3-0.5-4.4-1.2-6.4c0,0.1,0,0.1,0,0.2c0.7,3.8,0.2,7.7-0.2,11.6c-0.4,3.7-0.3,7.5-1.2,11.2
				c-0.8,3.5-2.4,6.6-5,9.2c-1.1,1.1-2.5,2.2-4,2.8c-1.6,0.6-3.4,0.8-5.1,0.5c-4.2-0.8-7.9-3.5-10.8-6.5c-0.9-0.9-2.3,0.5-1.4,1.4
				c2.7,3,6.4,5.5,10.3,6.7c0.7,0.2,1.5,0.4,2.2,0.5c-0.4,1.9-0.6,3.7-1,5.5c-1.6,0.5-3.3,0.6-4.9,0.2c-2.1-0.6-4.1-1.5-6.1-2.5
				c-0.5-0.3-1.1-0.6-1.5-0.9c-0.2-0.2-0.3-0.2-0.5-0.3c-0.2-0.2-0.3-0.3-0.5-0.5c-0.9-0.9-2.3,0.5-1.4,1.4c0.7,0.7,1.6,1.3,2.5,1.9
				c1.1,0.6,2.2,1.1,3.3,1.6c2.3,1,4.6,1.8,7.2,1.5c1.9-0.2,3.7-0.7,5.4-1.8c1.1-0.6,0.1-2.3-1-1.7c-0.2,0.1-0.2,0.2-0.4,0.2
				c0.2-1.3,0.3-2.5,0.6-3.8c-0.2-0.1-0.3-0.2-0.5-0.3c0.2,0.1,0.3,0.2,0.5,0.3c0.1-0.2,0.1-0.5,0.2-0.7c0.6,0,1.3-0.1,1.9-0.2
				c1.9-0.4,3.5-1.4,4.9-2.5c1.1-0.9,2.2-1.9,3.1-3.1c0.2,1.6,0.7,3.2,1.3,4.7c0.3,1.1,0.7,2.1,0.8,3.2c0.1,1.1-0.2,2.2-0.9,3.2
				c0,0.1-0.1,0.1-0.1,0.2c-1-0.3-1.9-0.6-2.9-1c-1.1-0.3-1.9-0.8-2.9-1.4c-0.3-0.2-0.7-0.4-1.1-0.6c-0.2-0.1-0.3-0.2-0.4-0.3
				c-0.1-0.1-0.2-0.2-0.2-0.2c0,0-0.1,0-0.1-0.1l0,0c-0.2-0.2-0.5-0.4-0.7-0.6c-0.6-0.6-1.5-0.2-1.6,0.5c0.9,0.7,1.8,1.5,2.9,1.5
				c-1.1,0-2-0.7-2.9-1.5c-0.1,0.3,0,0.6,0.2,0.9c0.5,0.4,1,0.8,1.5,1.1v0.1c0.4,2.5,1.1,5,1.5,7.5c0.8,4,1.5,8,2.2,12
				c0.2,1.5,0.4,3,0.6,4.4c-0.2,0.1-0.4,0.2-0.6,0.2c-1.4,0.5-2.7,1.1-3.9,1.9c-1.2,0.9-2.2,1.9-3.2,3c-1,1.1-2,2.1-3,3.2
				c-2.7-1.5-6-2.1-9-2.6c-3.1-0.5-6.2-0.8-9.4-1c-0.4,0-0.8,0-1.2-0.1c-1.1-3-2.2-6.1-3.3-9c-1.9-5.2-3.8-10.4-5.7-15.6
				c-0.4-1.2-0.9-2.4-1.3-3.6c-0.2-0.6-0.8-0.8-1.5-0.6c-1.1,0.5-2.3,1-3.4,1.5c-2.2,0.6-4.3,1.6-6.2,2.7c-1.9,1-3.6,2.1-5.2,3.5
				c-0.5,0.4-0.9,0.8-1.3,1.3c0-0.7,0.2-1.5,0.5-2.3c0.5-1.4,1.2-2.6,2-3.7c0.8-1.1,1.7-2.1,2.7-3.1c1.2-1.2,2.3-2.5,3.4-3.9
				c4.4-5.3,7.8-11.3,10.3-17.8c1.2-3,2.2-6.1,2.8-9.4c0.6-3,0.9-6.1,1.3-9s1-6,2-8.7c1.1-2.7,2.7-5.2,4.9-7.1
				c4.6-4,11.2-6.2,17.3-4.8c0.8,0.2,1.6,0.4,2.4,0.7c0.5,0.2,1.1-0.2,1.2-0.6c0.1-0.4,0-0.7-0.3-1c-0.3-0.1-0.6-0.1-1-0.2
				c0.3,0.1,0.6,0.1,1,0.2c-0.1-0.1-0.2-0.2-0.4-0.2c-6.4-2.4-13.7-1-19.3,2.8c-2.6,1.8-4.8,4-6.4,6.8c-1.5,2.7-2.4,5.7-3,8.8
				c-0.6,3.1-0.9,6.1-1.3,9.2c-0.5,3.2-1.2,6.4-2.3,9.5c-2.3,6.5-5.6,12.8-9.7,18.3c-1.1,1.4-2.2,2.7-3.3,4
				c-1.1,1.1-2.1,2.2-3.1,3.3c-1.8,2.3-3.6,5.1-3.7,8.1c0,0.6,0.1,1.3,0.2,1.9c0.1,0.2,0.2,0.4,0.4,0.6c0,0.1-0.1,0.2-0.1,0.2
				c-1.1,3.2-0.6,6.7-0.2,9.9c0.6,3.4,1.5,6.7,2.3,10c0.3,1.4,0.7,2.7,1.1,4c-0.1,0.1-0.1,0.2-0.1,0.2c-0.1,0.3-0.2,0.6-0.2,0.9
				c-0.3,1.5-0.6,2.9-0.9,4.4c-0.9,4.4-1.8,8.8-2.7,13.3c-0.6,2.6-1.1,5.3-1.6,7.8h2c0.6-2.6,1.1-5.2,1.6-7.8c1-4.9,2-9.9,3-14.8
				c0-0.1,0.1-0.2,0.1-0.3c0,0.1,0.1,0.2,0.1,0.3c1.5,4.8,3,9.8,4.5,14.6c0.8,2.7,1.6,5.3,2.4,8h2c-0.6-2.2-1.4-4.4-2-6.6
				c-1.5-4.8-3-9.6-4.4-14.5c-0.9-2.9-1.9-5.7-2.7-8.6c-0.2-1-0.4-1.9-0.6-2.8c-0.4-1.6-0.8-3.3-1.2-5c-0.7-3.2-1.4-6.6-1.1-10
				c0.1-1.3,0.4-2.6,1.1-3.7c0.1-0.2,0.2-0.2,0.2-0.4c0,0,0.2-0.2,0.2-0.2c0.2-0.3,0.6-0.6,0.9-0.9c0.7-0.6,1.5-1.2,2.3-1.8
				c1.5-1.1,3.2-1.9,4.9-2.7c0.8-0.4,1.7-0.7,2.7-1.1c0.4,1.4,0.9,2.7,1.3,4c1.3,4,2.6,8,3.9,12c1.5,4.8,3.2,9.7,4.7,14.5
				c1.4,4.2,2.7,8.3,4,12.5c0.6,2,1.3,4.1,2,6.1v0.1c0.2,0.6,1.1,1,1.6,0.4c3.6-3.6,7.1-7.1,10.7-10.7c1.3-1.3,2.6-2.7,3.8-4
				c1,2.2,2.4,4.2,4.1,5.9c1.4,1.5,3,2.7,4.8,3.8c-2.5,3.2-5,6.2-7.6,9.2c-1.3,1.5-2.6,3-4,4.5h2.6c1.1-1.3,2.3-2.6,3.4-3.9
				c3.3-3.9,6.6-7.9,9.7-12c1.4-1.9,2.7-3.8,4-5.7c1.1-0.1,2.2-0.2,3.2-0.3c0.1,1.2,0.3,2.4,0.5,3.7c0.2,1.6,0.2,3.4-0.5,4.9
				c-0.4,1-1.1,1.8-1.6,2.7c-0.6,0.9-1.1,1.9-1.7,2.7c-1.1,1.9-1.9,3.8-2.4,5.9c-0.2,0.6-0.3,1.4-0.4,2h1.9c0.3-1.8,0.8-3.6,1.6-5.2
				c1.1-2.3,2.5-4.3,3.8-6.4c1.1-1.9,1.4-3.8,1.2-6c-0.1-1.1-0.2-2.1-0.3-3.2c-0.1-0.4-0.1-0.8-0.2-1.2v-0.1l0,0c0-0.1,0-0.2,0-0.2
				c0.6-0.1,1.2-0.2,1.9-0.5c1.1-0.4,2.3-0.9,3.4-1.4c0.3,0,0.6,0,1,0c0.8,0.7,1.9,1.1,2.7,1.3c0.4,0.1,0.8,0.1,1.1,0
				c0.3-0.1,0.6-0.3,0.8-0.5c0.1,0.2,0.1,0.3,0.2,0.5c0.3,1.5,0.8,3,1.2,4.5c1.5,5.7,2.7,11.5,4.3,17.2c0.1,0.4,0.2,0.8,0.3,1.1h1.9
				c0-0.2,0-0.3,0-0.5c-0.7-2.3-1.3-4.7-1.9-7c-0.8-3.2-1.5-6.3-2.3-9.5c-0.6-2.4-1.2-4.8-1.9-7.3c0.4-0.2,0.8-0.4,1.1-0.6
				c0.8-0.4,1.7-0.6,2.3-1.3c1.3-1.3,1.1-3.2,1.1-4.8c0-0.9-0.1-1.7-0.1-2.6c-0.1-0.7-0.1-1.6-0.3-2.3c-0.3-1-1.1-1.5-1.9-2
				c-0.2-0.1-0.2-0.2-0.4-0.2c1.5-0.2,3.1-0.4,4.6-0.6c1.4-0.2,3.2-0.2,4.1-1.4C109.9,539.5,110.2,537.9,109.4,536.9z M107.7,537.9
				L107.7,537.9L107.7,537.9z M80.7,522c1.1,0.3,2.3,0.7,3.4,1.1c1,0.3,2,0.6,3,1.2c0,0,0.2,0.2,0.2,0.2c0.1,0.1,0.2,0.2,0.2,0.2
				c0.1,0.1,0.2,0.2,0.2,0.3l0,0c0.1,0.1,0.1,0.2,0.2,0.2c0.4,0.6,0.7,1.2,1,1.8c1.1,2.7,1.7,5.7,2.5,8.6c0.2,0.6,0.4,1.1,0.6,1.8
				c0,0.2,0.1,0.2,0.1,0.4c-1.1,0.2-2.1,0.6-3.2,0.9c-1.6,0.5-3.2,1.1-4.8,1.6c-0.2-0.6-0.2-1.4-0.4-2c-1-4.8-1.9-9.6-2.8-14.5
				c-0.1-0.6-0.2-1.3-0.3-1.9C80.6,522,80.7,522,80.7,522z M75.6,521.5c-0.1-0.5-0.2-1-0.3-1.5c1.1,0.5,2.1,1,3.2,1.5
				c0.5,2.4,1,4.8,1.4,7.2c0.8,4.1,1.6,8.2,2.3,12.3c-1,0.3-2,0.7-3,1.1C78.4,535.1,77.1,528.3,75.6,521.5z M62.7,555.3
				c-4.4,4.8-9.1,9.5-13.7,14.1c-0.4-1.1-0.7-2.3-1.1-3.5c-1.3-4-2.6-8-3.9-12c-1.5-4.8-3.2-9.7-4.7-14.5c-1.4-4.2-2.7-8.3-4-12.5
				c-0.6-1.8-1.1-3.6-1.8-5.4c0.6-0.2,1.3-0.6,1.9-0.8c1.1,2.9,2.1,5.8,3.2,8.7c1.9,5.2,3.8,10.4,5.7,15.6c0.4,1.2,0.9,2.4,1.3,3.6
				c0.2,0.4,0.5,0.7,1,0.7c1.7,0,3.5,0.2,5.2,0.2c3.4,0.3,6.8,0.7,10.1,1.6c1.2,0.3,2.4,0.7,3.5,1.2
				C64.5,553.4,63.6,554.3,62.7,555.3z M95.3,555.7L95.3,555.7L95.3,555.7L95.3,555.7z M107.9,538.6L107.9,538.6
				c0,0.1,0,0.2-0.1,0.2v0.1l0,0c-0.1,0.1-0.1,0.2-0.2,0.2l-0.2,0.2c-0.1,0-0.2,0.1-0.2,0.1c-0.1,0-0.2,0.1-0.3,0.1
				c-0.3,0.1-0.6,0.1-0.9,0.2c-2.6,0.5-5.3,0.8-7.8,1.1c-0.1,0-0.2,0-0.3,0.1c-0.6-0.4-1.2-0.7-1.9-1.1c-1.1-0.6-2,1-1,1.7
				c1.7,1.1,3.3,2.2,5,3.3c0.3,0.2,0.6,0.5,0.6,0.9c0.2,0.9,0.2,1.9,0.2,2.8c0.1,1.1,0.1,2,0.1,3.1c0,0.7-0.2,1.5-0.8,1.9
				c-0.3,0.2-0.7,0.3-1.1,0.6c0.1-0.2,0.2-0.3,0.2-0.6c0.5-1.2,0.2-2.7,0.2-4c0-1.1,0-2.3-0.3-3.3c-0.2-0.5-0.6-0.7-1.1-1
				c-0.6-0.3-1.1-0.7-1.6-1.1c-1.1-0.6-2-1.4-3.1-2c-1.1-0.7-2,1-1,1.7c1.6,1.1,3.2,2.1,4.8,3.2c0.2,1.2,0.2,2.5,0.2,3.8
				c0,0.6,0.1,1.3-0.2,2c-0.2,0.6-0.6,1.2-1.1,1.7c-0.2,0.3-0.5,0.6-0.8,0.8c-0.2,0.2-0.3,0.3-0.5,0.5l-0.1,0.1c-0.1,0-0.2,0-0.2,0
				c-0.2,0-0.4-0.1-0.6-0.2c-0.2-0.1-0.9-0.4-1.1-0.6l0,0c0.2-0.1,0.2-0.1,0.4-0.2c0.9-0.5,1.5-1.5,1.8-2.3c0.2-0.5,0.2-1.1,0.3-1.6
				c0.1-0.6,0.2-1.3,0.2-1.9c0.1-1-0.2-2-1-2.7c-0.6-0.4-1.2-0.6-1.8-1c-1.3-0.6-2.7-1.2-4-1.7c-0.5-0.2-1.1,0.2-1.2,0.6
				c-0.2,0.6,0.2,1,0.6,1.2c0.2,0.1,0.5,0.2,0.7,0.3c0.1,0,0.2,0.1,0.2,0.1c0.2,0.1,0.3,0.2,0.5,0.2c0.3,0.2,0.7,0.3,1.1,0.5
				c0.6,0.3,1.3,0.6,1.9,0.9c0.2,0.1,0.5,0.2,0.6,0.4l0.1,0.1c0,0,0,0,0.1,0.1l0,0l0,0l0,0l0,0l0,0c0.1,0.2,0.1,0.8,0.1,1
				c0,0.5-0.1,1-0.2,1.5c-0.2,0.8-0.2,1.7-0.6,2.3c0,0-0.2,0.2-0.2,0.2c0.2-0.1-0.3,0.2-0.2,0.1c-0.4,0.2-0.6,0.2-1.1,0.1
				c-0.6-0.1-1.1-0.2-1.7-0.2c-0.5-0.1-1.1-0.1-1.5-0.3c-0.6-0.3-0.8-0.9-0.9-1.5c0-0.1,0-0.2,0-0.3c0.9,0.1,1.7,0.2,2.6,0.3
				c0.5,0.1,1-0.5,1-1c0-0.6-0.5-0.9-1-1c-1.1-0.2-2.3-0.3-3.4-0.4c-0.1,0-0.2,0-0.2,0s-0.2,0-0.2,0c-0.3,0-0.7,0.2-0.8,0.5
				c-0.7,1.3-1.7,2.6-2.8,3.6c-1.9,1.7-4.8,2.2-7.4,1.9c-0.5-0.1-1,0.5-1,1c0,0.6,0.5,0.9,1,1c2.9,0.4,6.2-0.3,8.6-2.3
				c0.7-0.6,1.4-1.3,1.9-2c0.2,0.5,0.4,1,0.7,1.4c0.8,0.8,1.9,1.1,3,1.2c-0.1,0.1-0.2,0.1-0.2,0.1c-0.6,0.2-1.2,0.6-1.9,0.7
				c-0.6,0.2-1.2,0.4-1.9,0.6c-0.2,0.1-0.5,0.1-0.6,0.1c0,0-0.1,0-0.2,0s-0.2,0-0.3,0.1c-1,0.2-2,0.2-3,0.3c-0.6,0.1-1.2,0-1.8,0.2
				c-0.6,0.2-0.8,0.8-1.1,1.2c-0.2,0.3-0.5,0.7-0.7,1.1c-0.5,0.8-1.1,1.5-1.6,2.3c-0.9,1.3-1.9,2.5-2.7,3.7l0,0
				c-1.7-0.9-3.2-2.2-4.5-3.6c-1.6-1.6-2.9-3.6-3.9-5.6c-0.1-0.2-0.2-0.2-0.3-0.3c0.8-0.9,1.6-1.8,2.5-2.7c1.1-1.1,2.3-2.3,3.4-3.5
				c0.9-1,1.8-1.9,2.7-2.7c0.8-0.6,2-1.3,3.1-1.7c1.7-0.6,3.4-1.2,5.1-1.8c3.8-1.4,7.6-2.7,11.6-3.7c2.6-0.6,4.8-0.9,7.5-1.1
				c2-0.2,4-0.4,6.1-0.6c0.2,0,0.3-0.1,0.6,0c-0.2,0,0.2,0.1,0.2,0.1l0,0l0,0c0,0,0,0-0.1,0c0,0,0.1,0,0.1,0.1l0.1,0.1l0,0l0,0
				c0,0.1,0.1,0.2,0.1,0.2C107.8,538.4,107.8,538.4,107.9,538.6C107.8,538.3,107.9,538.5,107.9,538.6z M94.1,547.9L94.1,547.9
				L94.1,547.9L94.1,547.9z"/>
			<path class="st7" d="M102.7,580.4C102.7,580.4,102.7,580.5,102.7,580.4c0.3,1.1,1.8,0.8,1.9,0H102.7z"/>
			<path class="st6" d="M82.2,541c-0.8-4.1-1.6-8.2-2.3-12.3c-0.5-2.4-1-4.8-1.4-7.2c-1.1-0.5-2.1-1-3.2-1.5c0.1,0.5,0.2,1,0.3,1.5
				c1.5,6.8,2.8,13.6,3.6,20.5C80.3,541.7,81.3,541.3,82.2,541z"/>
			<path class="st6" d="M26.9,572.5c-1.5-4.8-3-9.8-4.5-14.6c0-0.1-0.1-0.2-0.1-0.3c0,0.1-0.1,0.2-0.1,0.3c-1,4.9-2,9.9-3,14.8
				c-0.6,2.6-1.1,5.2-1.6,7.8h11.7C28.5,577.8,27.7,575.1,26.9,572.5z"/>
			<path class="st6" d="M78.3,578.4c0.5-2.1,1.3-4,2.4-5.9c0.6-1,1.1-1.9,1.7-2.7c0.6-0.9,1.1-1.8,1.6-2.7c0.6-1.5,0.6-3.3,0.5-4.9
				c-0.1-1.2-0.4-2.4-0.5-3.7c-1.1,0.2-2.2,0.2-3.2,0.3c-1.2,2-2.6,3.9-4,5.7c-3.1,4.1-6.4,8.1-9.7,12c-1.1,1.3-2.3,2.6-3.4,3.9
				h14.3C77.9,579.8,78.1,579.1,78.3,578.4z"/>
			<path class="st6" d="M61.8,551.3c-3.4-0.9-6.7-1.3-10.1-1.6c-1.7-0.2-3.5-0.2-5.2-0.2c-0.5,0-0.8-0.3-1-0.7
				c-0.4-1.2-0.9-2.4-1.3-3.6c-1.9-5.2-3.8-10.4-5.7-15.6c-1.1-2.9-2.1-5.8-3.2-8.7c-0.6,0.2-1.3,0.6-1.9,0.8
				c0.6,1.8,1.1,3.6,1.8,5.4c1.4,4.2,2.7,8.3,4,12.5c1.5,4.8,3.2,9.7,4.7,14.5c1.3,4,2.6,8,3.9,12c0.4,1.1,0.7,2.3,1.1,3.5
				c4.6-4.6,9.4-9.2,13.7-14.1c0.9-1,1.8-1.9,2.6-2.8C64.2,551.9,63.1,551.6,61.8,551.3z"/>
			<path class="st6" d="M129.7,540.5C129.7,540.4,129.7,540.4,129.7,540.5c0-0.1,0.1-0.2,0.1-0.2c0.5-0.9,0.7-1.7,1.1-2.6
				c0.4-1,0.7-1.9,1.2-2.8c-0.1,0-0.2,0-0.2,0c-0.4-0.1-0.8-0.1-1.2-0.2c-2.5-0.2-5-0.5-7.4-0.7c-1.2-0.1-2.4-0.2-3.6-0.3
				c-0.5-0.1-1-0.1-1.5-0.2s-1-0.1-1.4,0.3c-0.3,0.4-0.6,1.1-0.7,1.5c-1.3,2.8-2.5,5.6-3.8,8.4c-1.6,3.6-3.2,7-4.8,10.6
				c-0.9,1.9-1.8,3.9-2.6,5.8c0-0.1-0.1,0.2-0.1,0.3c0,0.2,0.2,0.6,0.5,0.6c0.2,0.1,0.6,0.1,0.8,0.1c1.5,0.2,3.1,0.3,4.7,0.4
				c0.6,0.1,1.1,0.1,1.6,0.2c-0.4-0.6-0.9-1.1-1.4-1.5c-0.7-0.7-1.5-1.5-2.1-2.3c-0.6-0.7-1.2-1.3-1.3-2.3c-0.1-1.6,1.2-3.2,2.8-3.1
				c1.1,0.1,1.9,0.7,2.7,1.5c0.7,0.7,1.5,1.4,2.3,2.1c0.2,0.2,0.4,0.3,0.6,0.5c-0.5-1.1-1.1-2.1-1.7-3.1c-0.8-1.3-1.6-2.5-2.3-3.9
				c-0.2-0.6-0.6-1.1-0.7-1.8c-0.1-0.6,0.1-1.2,0.4-1.7c0.6-0.9,1.6-1.5,2.7-1.4c0-1.5,1-2.8,2.5-3c1.2-0.2,2.2,0.5,3,1.3
				c0.9,0.9,1.6,1.9,2.5,2.7c1.1,1.2,2.3,2.3,3.2,3.6c0,0,0,0.1,0.1,0.1c0.2-0.8,0.2-1.6,0.4-2.3c0.2-1.3,0.4-2.5,0.6-3.8
				c0.2-1.4,1.1-2.7,2.7-2.8c0.2,0,0.3,0,0.5,0C129.7,540.5,129.7,540.5,129.7,540.5z"/>
			<path class="st7" d="M106.8,581c0.3,0,0.7-0.2,0.9-0.6H106C106.1,580.8,106.4,581,106.8,581z"/>
			<path class="st7" d="M133,532.9c-0.4-0.1-0.9-0.1-1.4-0.2c-1.1-0.1-2.1-0.2-3.2-0.3c-2.7-0.2-5.3-0.5-8-0.7
				c-0.6-0.1-1.1-0.1-1.7-0.2c-0.6-0.1-1.1-0.2-1.8-0.1c-1,0.2-1.8,0.8-2.2,1.7c-1,2.1-1.9,4.2-2.8,6.4c-1.7,3.7-3.3,7.4-5,11.1
				c-1.2,2.7-2.4,5.3-3.6,8c-0.1,0.2-0.2,0.4-0.2,0.6c-0.5,1.1-0.3,2.3,0.6,3.2c1,0.8,2.5,0.7,3.6,0.8c1.7,0.2,3.5,0.3,5.2,0.5
				c-0.6,0.6-1.1,1.2-1.6,1.9c-2,2.5-3.6,5.3-4.5,8.3c-0.6,2-0.8,4.1-0.6,6.1c0,0.2,0.1,0.3,0.2,0.4h1.7c0.1-0.2,0.1-0.2,0.1-0.4
				c-0.3-3.3,0.6-6.6,2.2-9.5c1.2-2.2,2.6-4,4.4-5.7c0.3-0.3,0.7-0.6,1.1-1c0.3-0.2,0.4-0.9,0.2-1.2c-0.6-1-1.4-1.9-2.2-2.7
				c-0.5-0.6-1.1-1.1-1.6-1.7c-0.6-0.6-1.3-1.5-1.9-2.1l-0.1-0.1l-0.1-0.1l0,0l0,0c0-0.1,0-0.1-0.1-0.2c0,0.2,0-0.2,0-0.2l0,0
				c0,0,0,0,0-0.1s0.1-0.2,0.1-0.2c0,0,0.1-0.2,0.2-0.2l0,0c0.1-0.1,0.1-0.1,0.2-0.2l0,0l0,0c0.1,0,0.1-0.1,0.2-0.1
				c-0.2,0.1,0.2,0,0.2-0.1c0.1,0,0.2,0,0.2,0l0,0h0.1c0.1,0,0.2,0.1,0.3,0.2c0.4,0.2,0.7,0.6,1.1,1c0.6,0.6,1.4,1.2,2,1.9
				c1.4,1.3,2.8,2.5,4.2,3.8c0.8,0.7,2-0.2,1.5-1.2c-1-2-1.9-4.1-2.9-6.1c-0.6-1.1-1.5-2.3-2.1-3.4c-0.3-0.6-0.6-1.1-1-1.8
				c-0.1-0.2-0.2-0.5-0.3-0.7c-0.1-0.1-0.2-0.2-0.2-0.3l-0.1-0.2c0-0.2,0.1-0.4,0.3-0.6c-0.1,0.1,0.4-0.2,0.2-0.2
				c0.2-0.1,0.2-0.1,0.5-0.1c0.1,0,0.1,0,0.2,0.1c0,0,0.1,0.1,0.2,0.1l0.1,0.1l0.1,0.1c0.2,0.4,0.6,0.7,0.8,1.1
				c1.3,1.8,2.3,3.6,3.5,5.4c0.9,1.4,1.8,2.7,2.7,4c0.2,0.4,0.7,0.6,1.2,0.4c0.4-0.2,0.7-0.6,0.6-1.1c-0.2-0.7-0.5-1.4-0.7-2.1
				c-0.4-1.1-0.7-2.1-1.3-3.1c-0.6-1.1-1.5-2.1-2.3-3.1c-0.8-1-1.6-1.9-2.4-2.8c-0.1-0.1-0.1-0.2-0.2-0.2c-0.2-0.2-0.3-0.5-0.4-0.8
				c-0.1-0.4,0-0.8,0.4-1.1c-0.1,0.1,0.2-0.1,0.2-0.1c0.1,0,0.2,0,0.2-0.1c0,0,0,0,0.1,0l0,0c0.2,0,0.4,0,0.6,0.1
				c0.3,0.2,0.5,0.4,0.7,0.6c0.6,0.6,1.2,1.4,1.9,2c1,1.1,2.2,2.2,3.1,3.4s1.3,2.3,1.7,3.8c0.2,0.9,0.5,1.9,0.6,2.7
				c0.2,1.1,2,0.8,1.9-0.2c-0.2-1.1-0.3-2.3-0.5-3.5c0-0.2,0-0.4-0.1-0.6l0,0c0.2-0.7,0.2-1.5,0.4-2.2c0.2-1.1,0.4-2.3,0.6-3.4
				c0.1-0.6,0.2-1.2,0.3-1.8c0.1-0.6,0.2-1.2,0.5-1.7c0.2-0.2,0.5-0.6,0.7-0.4c0.4,0.2,0.3,1.1,0.2,1.5c-0.1,1.1-0.2,2.3-0.4,3.5
				c-0.2,2.3-0.6,4.4-0.8,6.7c-0.1,0.5-0.1,0.9-0.2,1.4c0,0.2-0.1,0.3-0.1,0.6c0,0.1,0,0.1,0,0.2c0,0.1,0,0.2,0,0.2
				c-0.1,0.4-0.1,0.8-0.2,1.2c0,0.2-0.1,0.3-0.2,0.5c-0.1,0.2-0.2,0.5-0.3,0.7c-0.1,0.1-0.1,0.2-0.2,0.3c0,0.1-0.1,0.2-0.1,0.2
				c-0.1,0.2-0.1,0.2-0.2,0.4c-0.7,1.6-1.5,3.3-2.4,4.8c-0.6,1-1.1,1.5-1.9,2.4c-1,1.2-1.9,2.5-2.7,3.8c-1.6,2.6-2.9,5.4-4,8.3
				c-0.2,0.5,0.2,1.1,0.6,1.2h0.3h-0.3l0,0c0.6,0.2,1.1-0.2,1.2-0.6c1-2.7,2.2-5.3,3.6-7.6c0.7-1.2,1.5-2.3,2.4-3.5
				c0.6-0.8,1.4-1.6,1.9-2.5c1.1-1.6,1.8-3.3,2.5-5.1c0.3-0.7,0.6-1.5,0.9-2.2c0.1-0.2,0.2-0.4,0.2-0.6c0.1-0.4,0.1-0.8,0.2-1.2
				c0.1-0.9,0.2-1.8,0.3-2.7c0.3-2.3,0.6-4.7,0.9-7c0.2-1.2,0.4-2.5,0.4-3.8c0-0.6-0.2-1.2-0.4-1.8c0-0.1,0.1-0.2,0.1-0.3
				c0.1-0.2,0.1-0.2,0.2-0.4c0.5-1,0.9-2,1.3-3c0.4-1.1,0.9-1.9,1.3-2.9C134.6,534.1,134,533.2,133,532.9z M109.8,554.8
				C109.8,554.7,109.8,554.8,109.8,554.8L109.8,554.8z M130.9,537.6c-0.4,0.9-0.6,1.7-1.1,2.6c0,0.1-0.1,0.2-0.1,0.2l0,0v0.1
				c-0.2,0-0.3,0-0.5,0c-1.5,0.1-2.3,1.5-2.7,2.8c-0.2,1.3-0.5,2.5-0.6,3.8c-0.2,0.8-0.2,1.6-0.4,2.3c0,0,0-0.1-0.1-0.1
				c-0.9-1.4-2.1-2.5-3.2-3.6c-0.8-0.9-1.6-1.9-2.5-2.7c-0.8-0.8-1.8-1.5-3-1.3c-1.5,0.2-2.6,1.5-2.5,3c-1.1-0.1-2.1,0.5-2.7,1.4
				c-0.3,0.5-0.5,1.1-0.4,1.7c0.1,0.6,0.5,1.2,0.7,1.8c0.6,1.4,1.5,2.6,2.3,3.9c0.6,1,1.2,2,1.7,3.1c-0.2-0.2-0.4-0.3-0.6-0.5
				c-0.8-0.7-1.5-1.4-2.3-2.1s-1.5-1.5-2.7-1.5c-1.6-0.1-3,1.5-2.8,3.1c0.1,1,0.6,1.5,1.3,2.3c0.6,0.8,1.4,1.5,2.1,2.3
				c0.5,0.5,1,1.1,1.4,1.5c-0.6-0.1-1.1-0.1-1.6-0.2c-1.5-0.2-3.1-0.3-4.7-0.4c-0.2,0-0.6,0-0.8-0.1c-0.3-0.1-0.5-0.4-0.5-0.6
				c0-0.1,0.1-0.3,0.1-0.3c0.8-1.9,1.8-3.9,2.6-5.8c1.6-3.6,3.2-7,4.8-10.6c1.3-2.8,2.5-5.6,3.8-8.4c0.2-0.5,0.4-1.1,0.7-1.5
				c0.3-0.4,0.9-0.4,1.4-0.3s1,0.1,1.5,0.2c1.2,0.1,2.4,0.2,3.6,0.3c2.5,0.2,5,0.5,7.4,0.7c0.4,0.1,0.8,0.1,1.2,0.2
				c0.1,0,0.2,0,0.2,0C131.8,535.8,131.4,536.7,130.9,537.6z"/>
			<path class="st7" d="M71.4,507.5c1.7,0.3,3.2-0.7,4.2-2c0.6-0.8,1.1-1.8,1.5-2.7v-0.1v-0.1c0,0,0,0,0-0.1l0,0
				c0.1-0.2,0-0.5-0.2-0.7c0,0,0-0.1-0.1-0.1c0,0,0-0.1-0.1-0.1c-0.2-0.2-0.4-0.3-0.6-0.3c0,0,0,0-0.1,0l0,0h-0.1l0,0
				c-2.2,0.2-4.4,0.3-6.5,0.5c-0.3,0-0.6,0.1-1,0.1c-0.6,0.1-1.2,0.6-1,1.2C68.2,504.9,69.4,507.1,71.4,507.5z M74.1,504.2
				C74.1,504.2,74.1,504.3,74.1,504.2c-0.1,0.1-0.1,0.1-0.1,0.2c-0.2,0.2-0.2,0.3-0.4,0.5c-0.1,0.1-0.2,0.2-0.2,0.2l-0.1,0.1l0,0
				c-0.2,0.1-0.3,0.2-0.5,0.3c0,0,0,0-0.1,0l0,0c-0.1,0-0.2,0.1-0.2,0.1c-0.1,0-0.1,0-0.2,0c0.1,0-0.2,0-0.2,0c-0.1,0-0.2,0-0.2,0
				c0.3,0,0,0-0.1,0c-0.1,0-0.2-0.1-0.2-0.1l0,0h-0.1c-0.1-0.1-0.2-0.1-0.2-0.2c0,0-0.2-0.1-0.2-0.2c-0.5-0.4-0.8-0.9-1.1-1.5
				c1.5-0.1,3.1-0.2,4.7-0.3c-0.1,0.2-0.2,0.4-0.3,0.6C74.2,504.1,74.1,504.2,74.1,504.2z"/>
			<path class="st7" d="M61.3,472.3c-0.6,2.6-1.9,4.9-3.7,6.9c-2,2.2-4.4,3.9-6.8,5.6c-0.2,0.2-0.3,0.3-0.4,0.5
				c-1-0.9-2.3-1.4-3.6-1.1c-1.2,0.3-2.2,1.4-2.7,2.5c-1.1,2.6-0.1,5.7,1.5,7.8c0.2,0.3,0.5,0.6,0.8,0.9c-0.2,0.6-0.3,1.2-0.2,1.9
				c0,0.1,0,0.2,0,0.2c0.3,1.3,1.4,2.1,2.7,2.3c0.1,0,0.1,0,0.2,0c0-0.2,0.1-0.5,0.1-0.7c0,0.2,0,0.5-0.1,0.7
				c1.1,0.1,2.3-0.6,2.7-1.6c0.6-1.1,0.4-2.6-0.6-3.5c-0.9-0.9-2.3-1.1-3.5-0.6c-1.3-1.2-2.1-2.8-2.3-4.5c-0.1-1.1,0.2-2.2,1.1-3
				c0.4-0.3,0.7-0.4,1.3-0.3c0.6,0.1,0.8,0.2,1.2,0.6c0.6,0.6,1.4,0.2,1.6-0.4c0.3,0.2,0.7,0.2,1.1,0c2.1-1.5,4.3-3.1,6.1-4.8
				c-0.7,0-1.4-0.2-2.1-0.4c0.7,0.2,1.4,0.4,2.1,0.4c0.4-0.3,0.7-0.7,1.1-1.1c1.9-2.2,3.4-4.8,4-7.6C63.5,471.5,61.6,471,61.3,472.3
				z M48.3,496.5C48.3,496.4,48.3,496.4,48.3,496.5c0-0.2,0.1-0.2,0.1-0.3c0,0,0-0.1,0.1-0.1c0-0.1,0.1-0.1,0.1-0.2
				c0,0,0-0.1,0.1-0.1l0.1-0.1l0.1-0.1c0.1-0.1,0.2-0.1,0.2-0.2h0.1c0.1,0,0.1,0,0.2,0h0.1l0,0c0.1,0,0.1,0,0.2,0l0,0c0,0,0,0,0.1,0
				c0,0,0,0,0.1,0h0.1c0,0,0,0-0.1,0c0.1,0,0.2,0,0.2,0.1c0,0,0,0,0.1,0h0.1c0,0,0,0-0.1,0c0.1,0.1,0.2,0.1,0.2,0.2l0.1,0.1l0.1,0.1
				l0.1,0.1l0.1,0.1c0,0,0,0.1,0.1,0.1c0,0.1,0.1,0.2,0.1,0.2v0.1c0,0,0,0.2,0,0.2c0,0.1,0,0.1,0,0.2v0.1c0,0.1-0.1,0.2-0.1,0.2
				s0,0,0,0.1c0,0,0,0.1-0.1,0.1c0,0,0,0,0-0.1c-0.1,0.1-0.1,0.1-0.2,0.2l-0.1,0.1c0,0-0.1,0-0.1,0.1c-0.1,0-0.2,0.1-0.2,0.1h-0.1
				l0,0c-0.1,0-0.2,0-0.2,0s-0.1,0-0.2,0h-0.1c-0.1-0.1-0.2-0.1-0.2-0.2l-0.1-0.1l-0.1-0.1l0,0l0,0c-0.1-0.1-0.1-0.2-0.2-0.2
				c0-0.1,0-0.1-0.1-0.2l0,0l0,0l0,0l0,0c0,0,0,0,0-0.1c0,0,0,0,0-0.1l0,0C48.3,496.7,48.3,496.6,48.3,496.5
				C48.3,496.6,48.3,496.6,48.3,496.5C48.3,496.5,48.3,496.5,48.3,496.5z"/>
			<path class="st7" d="M78.4,487.7c1.2,0,1.3-1.9,0-1.9C77.1,485.7,77.1,487.7,78.4,487.7z"/>
			<path class="st7" d="M66,488.4c1.2,0,1.3-1.9,0-1.9C64.7,486.4,64.7,488.4,66,488.4z"/>
			<path class="st7" d="M74.7,485.7c-0.6-0.2-1.1,0.2-1.2,0.6c-0.5,1.5-0.5,3.1-0.2,4.6c0.2,1.3,0.7,2.6,1.6,3.6
				c0.3,0.4,1,0.4,1.4,0c0.4-0.4,0.3-1,0-1.4c-0.1-0.1-0.1-0.1-0.2-0.2l0,0l-0.1-0.1c0-0.1-0.1-0.1-0.1-0.2
				c-0.2-0.2-0.2-0.5-0.3-0.6c0,0,0,0,0-0.1c0-0.1-0.1-0.2-0.1-0.2c-0.1-0.2-0.1-0.3-0.2-0.4c-0.1-0.3-0.2-0.6-0.2-0.9
				c-0.2-1.1-0.2-2.4,0.2-3.6C75.5,486.3,75.2,485.7,74.7,485.7z"/>
			<path class="st7" d="M74.8,496.2c-0.2,0-0.6,0-0.8,0.1c-0.1,0-0.2,0-0.2,0.1c-0.1,0-0.2,0-0.3,0c-0.2,0-0.5,0.1-0.7,0.3
				c-0.1,0.1-0.2,0.2-0.2,0.3c-0.1,0.1-0.1,0.2-0.1,0.4c0,0.2,0.1,0.5,0.3,0.7c0.2,0.2,0.4,0.3,0.7,0.3c0.2,0,0.6,0,0.8-0.1
				c0.1,0,0.2,0,0.2-0.1c0.1,0,0.2,0,0.3,0c0.2,0,0.5-0.1,0.7-0.3c0.1-0.1,0.2-0.2,0.2-0.3c0.1-0.1,0.1-0.2,0.1-0.4
				c0-0.2-0.1-0.5-0.3-0.7C75.3,496.2,75,496.2,74.8,496.2z"/>
			<path class="st7" d="M76.6,459c-1.3-0.6-2.7-1.2-4.1-1.5c0.8,0.4,1.5,1,2.2,1.8c-0.6-0.8-1.4-1.4-2.2-1.8c-0.1,0-0.2-0.1-0.3-0.1
				c-0.5-0.1-1.1,0.2-1.2,0.6c-0.2,0.5,0.2,1.1,0.6,1.2c5.1,1,9.2,4.6,11,9.5c0.6,1.5,1,3.2,1.1,4.8c0.1,0.5,0.4,1,1,1
				c0,0,0,0,0.1,0c0-0.6,0-1.1,0-1.7c0,0.6,0,1.2,0,1.7c0.5,0,1-0.5,0.9-1C85,467.6,82,461.8,76.6,459z"/>
			<path class="st5" d="M48.3,496.5c0,0.1,0,0.2,0,0.2c0,0.1,0,0.1,0,0.1l0,0c0,0.1,0,0.1,0.1,0.2c0.1,0.1,0.1,0.2,0.2,0.2l0,0l0,0
				l0.1,0.1l0.1,0.1c0.1,0.1,0.2,0.1,0.2,0.2H49c0.1,0,0.1,0,0.2,0s0.2,0,0.2,0l0,0h0.1c0.1,0,0.2-0.1,0.2-0.1c0,0,0.1,0,0.1-0.1
				l0.1-0.1c0.1-0.1,0.2-0.1,0.2-0.2c0.1-0.1,0.1-0.1,0.1-0.1c0-0.1,0.1-0.2,0.1-0.2v-0.1c0-0.1,0-0.1,0-0.2c0,0,0-0.2,0-0.2v-0.1
				c0-0.1,0-0.2-0.1-0.2c0,0,0-0.1-0.1-0.1l-0.1-0.1l-0.1-0.1l-0.1-0.1l-0.1-0.1c-0.1-0.1-0.2-0.1-0.2-0.2c-0.1,0-0.1,0-0.1,0
				c-0.1,0-0.2,0-0.2-0.1c-0.1,0-0.1,0-0.1,0l0,0c-0.1,0-0.1,0-0.2,0l0,0h-0.1c-0.1,0-0.1,0-0.2,0h-0.1c-0.1,0.1-0.2,0.1-0.2,0.2
				l-0.1,0.1l-0.1,0.1c0,0,0,0-0.1,0.1c0,0.1-0.1,0.1-0.1,0.2c0,0,0,0.1-0.1,0.1c0,0.1-0.1,0.2-0.1,0.2
				C48.4,496.4,48.4,496.4,48.3,496.5z"/>
			<path class="st8" d="M48.3,496.7L48.3,496.7C48.3,496.8,48.3,496.8,48.3,496.7C48.4,496.8,48.4,496.8,48.3,496.7z"/>
			<path class="st8" d="M48.3,496.4L48.3,496.4L48.3,496.4C48.3,496.5,48.3,496.5,48.3,496.4C48.3,496.5,48.3,496.5,48.3,496.4
				C48.4,496.4,48.4,496.4,48.3,496.4z"/>
			<path class="st7" d="M78.9,477.4c-1.2-0.1-2.5,0.2-3.5,1.1c-0.4,0.3-0.4,1.1,0,1.4c0.4,0.4,1,0.3,1.4,0l0,0
				c0.1,0,0.1-0.1,0.2-0.1c0.1-0.1,0.2-0.1,0.2-0.2c0.1,0,0.2-0.1,0.2-0.1c0.1,0,0.2-0.1,0.3-0.1s0.2-0.1,0.4-0.1l0,0h0.1
				c0.2,0,0.5,0,0.7,0c0.1,0,0.1,0,0.2,0l0,0l0.3,0.1c0.1,0,0.2,0.1,0.3,0.1s0.1,0,0.2,0.1s0.2,0.1,0.2,0.2c0.1,0,0.1,0.1,0.2,0.1
				l0.1,0.1l0.1,0.1l0,0c0,0,0,0,0.1,0.1l0,0l0,0l0,0c0.3,0.4,0.9,0.6,1.3,0.3c0.4-0.2,0.6-0.9,0.3-1.3
				C81.5,478,80.2,477.5,78.9,477.4z"/>
			<path class="st5" d="M67.8,563c-1.7-1.7-3.1-3.7-4.1-5.9c-1.3,1.4-2.5,2.7-3.8,4c-3.5,3.6-7.1,7.1-10.7,10.7
				c-0.6,0.6-1.4,0.2-1.6-0.4v-0.1c-0.7-2-1.3-4-2-6.1c-1.4-4.2-2.7-8.3-4-12.5c-1.5-4.8-3.2-9.7-4.7-14.5c-1.3-4-2.6-8-3.9-12
				c-0.4-1.4-0.9-2.7-1.3-4c-0.9,0.3-1.8,0.6-2.7,1.1c-1.7,0.7-3.3,1.6-4.9,2.7c-0.8,0.6-1.6,1.1-2.3,1.8c-0.3,0.2-0.6,0.6-0.9,0.9
				c0,0.1-0.2,0.2-0.2,0.2c-0.1,0.1-0.2,0.2-0.2,0.4c-0.6,1.1-1,2.4-1.1,3.7c-0.2,3.4,0.4,6.8,1.1,10c0.4,1.7,0.8,3.3,1.2,5
				c0.2,1,0.4,1.9,0.6,2.8c0.8,2.9,1.8,5.7,2.7,8.6c1.5,4.8,3,9.6,4.4,14.5c0.6,2.2,1.4,4.4,2,6.6h29.6c1.3-1.5,2.7-3,4-4.5
				c2.6-3,5.2-6.1,7.6-9.2C70.8,565.7,69.1,564.4,67.8,563z"/>
			<path class="st5" d="M73.7,565.2c1-1.2,1.9-2.4,2.7-3.7c0.6-0.7,1.1-1.5,1.6-2.3c0.2-0.3,0.5-0.7,0.7-1.1
				c0.2-0.4,0.5-1.1,1.1-1.2c0.6-0.2,1.2-0.2,1.8-0.2c1-0.1,2-0.2,3-0.3c0.1,0,0.2,0,0.3-0.1c0,0,0.1,0,0.2,0c0.2,0,0.5-0.1,0.6-0.1
				c0.6-0.2,1.2-0.3,1.9-0.6c0.6-0.2,1.2-0.5,1.9-0.7c0.1,0,0.2-0.1,0.2-0.1c-1.1-0.2-2.2-0.3-3-1.2c-0.3-0.4-0.6-0.8-0.7-1.4
				c-0.6,0.7-1.2,1.5-1.9,2c-2.3,1.9-5.6,2.7-8.6,2.3c-0.5-0.1-1-0.4-1-1c0-0.5,0.5-1.1,1-1c2.5,0.3,5.4-0.2,7.4-1.9
				c1.1-1,2.1-2.3,2.8-3.6c0.2-0.2,0.5-0.5,0.8-0.5c0.1,0,0.2,0,0.2,0c0.1,0,0.2,0,0.2,0c1.1,0.2,2.3,0.3,3.4,0.4c0.5,0.1,1,0.4,1,1
				c0,0.5-0.5,1.1-1,1c-0.9-0.1-1.7-0.2-2.6-0.3c0,0.1,0,0.2,0,0.3c0,0.6,0.2,1.2,0.9,1.5c0.5,0.2,1,0.2,1.5,0.3
				c0.6,0.1,1.1,0.2,1.7,0.2c0.4,0.1,0.7,0.1,1.1-0.1c-0.2,0.1,0.3-0.2,0.2-0.1c0.2-0.1,0.2-0.2,0.2-0.2c0.4-0.6,0.5-1.5,0.6-2.3
				c0.1-0.5,0.2-1,0.2-1.5c0-0.1,0-0.7-0.1-1l0,0c-0.1,0-0.1-0.1-0.1-0.1l-0.1-0.1c-0.2-0.2-0.5-0.2-0.6-0.4
				c-0.6-0.3-1.2-0.6-1.9-0.9c-0.3-0.2-0.7-0.3-1.1-0.5c-0.2-0.1-0.3-0.2-0.5-0.2c0,0-0.2-0.1-0.2-0.1c-0.2-0.1-0.5-0.2-0.7-0.3
				c-0.5-0.2-0.8-0.6-0.6-1.2c0.2-0.5,0.7-0.9,1.2-0.6c1.4,0.6,2.7,1.1,4,1.7c0.6,0.3,1.2,0.6,1.8,1c0.8,0.6,1.1,1.6,1,2.7
				c0,0.6-0.2,1.3-0.2,1.9c-0.1,0.6-0.2,1.1-0.3,1.6c-0.2,1-0.8,1.9-1.8,2.3c-0.2,0.1-0.2,0.1-0.4,0.2l0,0c0.2,0.2,0.8,0.6,1.1,0.6
				c0.2,0.1,0.4,0.2,0.6,0.2c0,0,0.1,0,0.2,0l0.1-0.1c0.2-0.2,0.3-0.3,0.5-0.5c0.2-0.2,0.6-0.6,0.8-0.8c0.4-0.5,0.8-1.1,1.1-1.7
				c0.2-0.6,0.2-1.3,0.2-2c0-1.3,0-2.6-0.2-3.8c-1.6-1.1-3.2-2.1-4.8-3.2c-1.1-0.7-0.1-2.3,1-1.7c1.1,0.6,2,1.4,3.1,2
				c0.6,0.3,1.1,0.7,1.6,1.1c0.4,0.2,0.9,0.5,1.1,1c0.3,1.1,0.2,2.3,0.3,3.3c0,1.3,0.2,2.7-0.2,4c-0.1,0.2-0.2,0.3-0.2,0.6
				c0.3-0.2,0.7-0.3,1.1-0.6c0.6-0.4,0.8-1.1,0.8-1.9c0-1.1,0-2-0.1-3.1c0-1,0-1.9-0.2-2.8c-0.1-0.4-0.3-0.6-0.6-0.9
				c-1.7-1.1-3.3-2.2-5-3.3c-1.1-0.7-0.1-2.3,1-1.7c0.6,0.4,1.2,0.7,1.9,1.1c0.1,0,0.2,0,0.3-0.1c2.5-0.3,5.2-0.6,7.8-1.1
				c0.3-0.1,0.6-0.1,0.9-0.2c0.1,0,0.2-0.1,0.3-0.1l0.2-0.1c0-0.1,0.2-0.2,0.2-0.2c0.1-0.1,0.1-0.2,0.2-0.2l0,0v-0.1
				c0-0.1,0-0.2,0.1-0.2l0,0c0-0.1,0-0.3,0-0.3c0-0.1,0-0.1,0-0.2l-0.1-0.2l0,0l0,0l-0.1-0.1c0,0-0.1,0-0.1-0.1c0,0-0.1,0,0,0l0,0
				c0,0,0,0,0.1,0l0,0l0,0c-0.1,0-0.4-0.1-0.2-0.1c-0.2,0-0.4,0-0.6,0c-2,0.2-4,0.4-6.1,0.6c-2.7,0.2-4.9,0.5-7.5,1.1
				c-4,1-7.8,2.3-11.6,3.7c-1.7,0.6-3.4,1.1-5.1,1.8c-1,0.4-2.3,1.1-3.1,1.7c-1,0.8-1.9,1.9-2.7,2.7c-1.1,1.1-2.3,2.3-3.4,3.5
				c-0.8,0.9-1.6,1.8-2.5,2.7c0.2,0.1,0.2,0.2,0.3,0.3c1,2.1,2.3,4,3.9,5.6C70.5,563,72,564.3,73.7,565.2
				C73.7,565.2,73.7,565.2,73.7,565.2z"/>
			<path class="st8" d="M107.6,537.9L107.6,537.9C107.5,537.8,107.6,537.9,107.6,537.9z"/>
			<path class="st5" d="M94,547.9C94,547.8,93.9,547.8,94,547.9L94,547.9L94,547.9z"/>
			<path class="st8" d="M94.1,547.9C94,547.9,94,547.9,94.1,547.9L94.1,547.9C93.9,547.8,94,547.9,94.1,547.9z"/>
			<path class="st7" d="M55.6,526.1c-0.8-2.4-1.9-4.8-2.9-7.1c-0.5-1-0.9-1.9-1.2-2.7c-0.4-1.3-0.8-2.7-1.1-4
				c-0.4-1.6-0.6-3.2-0.8-4.8c-0.2-1.5-0.2-3.1,0-4.4c0.1-0.5-0.2-1.1-0.6-1.2c-0.1,0-0.2,0-0.2,0c-0.5,1.4-1.1,2.7-0.9,4.1
				c-0.2-1.4,0.3-2.7,0.9-4.1c-0.4,0-0.9,0.2-1,0.7c-0.5,2.8-0.1,5.7,0.4,8.5c0.5,2.6,1.1,5.3,2.2,7.7c1,2.1,1.9,4.2,2.7,6.4
				c0.9,2.3,1.6,4.8,1.8,7.3c0.2,2.5-0.4,4.8-2.4,6.3c-0.2,0.2-0.2,0.3-0.2,0.6c0.3-0.1,0.6-0.2,1.1-0.5c-0.3,0.2-0.6,0.3-1.1,0.5
				c0,0.3,0.1,0.6,0.2,0.8c0.4,0.4,1,0.3,1.4,0C58.1,536.6,57.1,530.6,55.6,526.1z"/>
			<path class="st7" d="M48.5,534.7c-0.9-2-2-3.9-3.2-5.7c-0.9-1.5-1.9-2.8-2.8-4.2c-1.5-2.3-2.5-5-2.7-7.8
				c-0.3-3.4,0.2-6.8,0.6-10.1c0.1-0.5-0.2-1.1-0.6-1.2c-0.5-0.2-1.1,0.2-1.2,0.6c-0.4,3.1-0.9,6.1-0.8,9.2c0.1,3.2,0.8,6.2,2.3,9
				c0.8,1.5,1.9,2.9,2.8,4.4c1.2,1.8,2.3,3.6,3.4,5.6c0.5,1,0.9,1.8,1.2,2.9c0.1,0.2,0.1,0.5,0.2,0.6c0,0.1,0,0.1,0,0.2l0,0
				c0,0.1,0,0.2,0,0.3c0,0.2,0,0.3,0,0.6v0.1c0,0.1-0.1,0.2-0.1,0.2c-0.2,0.5,0.2,1.1,0.6,1.2c0.6,0.2,1.1-0.2,1.2-0.6
				c0.1-0.2,0.1-0.2,0.1-0.4c-0.6,0-1.3-0.1-1.9-0.1c0.6,0,1.3,0.1,1.9,0.1C49.7,537.9,49,536.1,48.5,534.7z"/>
			<path class="st7" d="M77.4,468.6c-0.5-0.2-1.1,0.2-1.2,0.6c-0.3,2.4-1.1,4.8-2.5,6.9c-1.2,1.8-3,3-5.2,2.8c-0.5,0-1,0.5-1,1
				c0,0.2,0.1,0.3,0.2,0.5c0.5-0.1,1.1-0.2,1.5-0.2c-0.6,0.1-1.1,0.2-1.5,0.2c0.2,0.2,0.5,0.5,0.8,0.5c5.9,0.4,8.9-6.2,9.5-11.2l0,0
				c-0.2-0.2-0.4-0.3-0.6-0.5c0.2,0.2,0.5,0.3,0.6,0.5C78.1,469.3,77.9,468.8,77.4,468.6z"/>
			<path class="st7" d="M67.7,478c1.6-2.1,2.7-4.5,3.4-7.1c0.3-1.2-1.5-1.7-1.9-0.5c-0.6,2.3-1.6,4.4-3,6.3
				c-1.3,1.8-3.2,3.3-5.3,3.2c-0.7,0-1.1,0.6-0.9,1.2c0.6-0.2,1.1-0.3,1.7-0.6c-0.6,0.2-1.1,0.4-1.7,0.6c0.1,0.4,0.4,0.7,0.9,0.7
				c1.5,0,2.7-0.5,3.9-1.2c-1.1,0-2.3-0.1-3.5-0.5c1.2,0.3,2.3,0.5,3.5,0.5C66,480,66.9,479,67.7,478z"/>
			<path class="st6" d="M34.5,451.8c0.1,0.3,0.2,0.6,0.2,0.9c0.2,0.5,0.6,0.8,1.2,0.6c0.5-0.2,0.8-0.7,0.6-1.2
				c-0.6-1.9-1.1-4-1.7-5.9c-0.1-0.3-0.2-0.6-0.2-0.9c-0.2-0.5-0.6-0.8-1.2-0.6c-0.5,0.2-0.8,0.7-0.6,1.2
				C33.3,447.8,33.9,449.8,34.5,451.8z"/>
			<path class="st6" d="M27.6,457.1c0.3,0.3,0.6,0.6,1,0.9c0.9,0.9,2.3-0.5,1.4-1.4c-2.2-2.1-4.4-4.1-6.5-6.2
				c-0.3-0.3-0.6-0.6-1-0.9c-0.9-0.9-2.3,0.5-1.4,1.4C23.2,452.9,25.4,455,27.6,457.1z"/>
			<path class="st6" d="M17.9,462.4c1.9,0.6,4,1.1,5.9,1.7c0.3,0.1,0.6,0.2,0.9,0.2c0.5,0.2,1.1-0.2,1.2-0.6
				c0.2-0.5-0.2-1.1-0.6-1.2c-1.9-0.6-4-1.1-5.9-1.7c-0.3-0.1-0.6-0.2-0.9-0.2c-0.5-0.2-1.1,0.2-1.2,0.6
				C17.1,461.7,17.4,462.2,17.9,462.4z"/>
		</g>
		<g>
			<g>
				<rect x="248.2" y="455.2" class="st9" width="147.3" height="108.4"/>
				<rect x="332.1" y="487.9" class="st0" width="20.5" height="18.4"/>
				<rect x="248.2" y="455.2" class="st1" width="147.3" height="14.3"/>
				<path class="st0" d="M248.2,563.6v11.2c0,2.8,2.3,5.1,5.1,5.1h137c2.8,0,5.1-2.3,5.1-5.1v-11.2H248.2z"/>
				<path class="st10" d="M248.2,444.9v14.3v100.2v4.1h147.3v-4.1V459.3v-14.3H248.2z M370.9,459.3v8.2h-16.4v-8.2H370.9z
					 M309.6,504.2h-16.4v-14.3h16.4V504.2z M313.7,489.9H330v14.3h-16.4V489.9z M289.1,489.9v14.3h-16.4v-14.3H289.1z M289.1,508.3
					v14.3h-16.4v-14.3H289.1z M293.2,508.3h16.4v14.3h-16.4V508.3z M313.7,508.3H330v14.3h-16.4V508.3z M334.1,508.3h16.4v14.3
					h-16.4V508.3z M354.6,508.3h16.4v14.3h-16.4V508.3z M354.6,504.2v-14.3h16.4v14.3H354.6z M350.5,504.2h-16.4v-14.3h16.4V504.2z
					 M334.1,485.8v-14.3h16.4v14.3H334.1z M330,485.8h-16.4v-14.3H330V485.8z M309.6,485.8h-16.4v-14.3h16.4V485.8z M289.1,485.8
					h-16.4v-14.3h16.4V485.8z M252.3,489.9h16.4v14.3h-16.4V489.9z M252.3,508.3h16.4v14.3h-16.4V508.3z M252.3,526.7h16.4v14.3
					h-16.4V526.7z M272.8,526.7h16.4v14.3h-16.4V526.7z M293.2,526.7h16.4v14.3h-16.4V526.7z M313.7,526.7H330v14.3h-16.4V526.7z
					 M334.1,526.7h16.4v14.3h-16.4V526.7z M354.6,526.7h16.4v14.3h-16.4V526.7z M391.4,541.1H375v-14.3h16.4V541.1z M391.4,522.7
					H375v-14.3h16.4V522.7z M391.4,504.2H375v-14.3h16.4V504.2z M391.4,485.8H375v-14.3h16.4V485.8z M370.9,485.8h-16.4v-14.3h16.4
					V485.8z M350.5,459.3v8.2h-16.4v-8.2H350.5z M330,459.3v8.2h-16.4v-8.2H330z M309.6,459.3v8.2h-16.4v-8.2H309.6z M289.1,459.3
					v8.2h-16.4v-8.2H289.1z M268.7,459.3v8.2h-16.4v-8.2H268.7z M252.3,559.5v-14.3h16.4v14.3H252.3z M272.8,559.5v-14.3h16.4v14.3
					H272.8z M293.2,559.5v-14.3h16.4v14.3H293.2z M313.7,559.5v-14.3H330v14.3H313.7z M334.1,559.5v-14.3h16.4v14.3H334.1z
					 M391.4,467.4H375v-8.2h16.4V467.4z"/>
				<rect x="248.2" y="444.9" class="st0" width="147.3" height="4.1"/>
				<g>
					<path class="st11" d="M270.7,434.7c-2.3,0-4.1,1.8-4.1,4.1v12.3c0,2.3,1.8,4.1,4.1,4.1c2.3,0,4.1-1.8,4.1-4.1v-12.3
						C274.8,436.5,273,434.7,270.7,434.7z"/>
					<path class="st11" d="M291.2,434.7c-2.3,0-4.1,1.8-4.1,4.1v12.3c0,2.3,1.8,4.1,4.1,4.1c2.3,0,4.1-1.8,4.1-4.1v-12.3
						C295.3,436.5,293.4,434.7,291.2,434.7z"/>
					<path class="st11" d="M352.5,434.7c-2.3,0-4.1,1.8-4.1,4.1v12.3c0,2.3,1.8,4.1,4.1,4.1c2.3,0,4.1-1.8,4.1-4.1v-12.3
						C356.6,436.5,354.8,434.7,352.5,434.7z"/>
					<path class="st11" d="M373,434.7c-2.3,0-4.1,1.8-4.1,4.1v12.3c0,2.3,1.8,4.1,4.1,4.1c2.3,0,4.1-1.8,4.1-4.1v-12.3
						C377.1,436.5,375.3,434.7,373,434.7z"/>
				</g>
			</g>
			<circle class="st1" cx="391.3" cy="562" r="47"/>
			<circle class="st5" cx="391.3" cy="562" r="40.9"/>
			<g>
				<rect x="389.3" y="517" class="st1" width="4.1" height="8.2"/>
				<rect x="389.3" y="598.8" class="st1" width="4.1" height="8.2"/>
				<rect x="428.1" y="559.9" class="st1" width="8.2" height="4.1"/>
				<rect x="346.3" y="559.9" class="st1" width="8.2" height="4.1"/>
			</g>
			<rect x="393.9" y="546.6" transform="matrix(0.96 -0.28 0.28 0.96 -144.4389 133.3141)" class="st0" width="1" height="51.1"/>
			<path class="st7" d="M394.2,557.8c-0.2-0.2-0.5-0.3-0.7-0.4l0-0.4l-1.1-30.4c0-0.6-0.5-1-1.1-1c-0.6,0-1,0.4-1.1,1l-1.7,29.8
				l-13.8-8.6c-1-0.6-2.3-0.4-2.9,0.6c-0.7,0.9-0.5,2.2,0.4,3l12.2,9.9l1.8,1.5c0.3,1.7,1.3,3,2.7,3.8c2.2,1.1,5,0.5,6.4-1.6
				C397.1,562.6,396.5,559.4,394.2,557.8z"/>
			<circle class="st5" cx="391.3" cy="562" r="2"/>
		</g>
	</g>
	<g>
		<path class="st7" d="M111.6,378.2h-7.7v-21.6c-0.8,1.1-1.4,1.7-2,2.4c-1.6-2.9-2.7-4.1-4.4-5.6c5.3-6.1,9.8-19.3,10.7-23l7.1,2.2
			c0.4,0.1,0.7,0.3,0.7,0.8c0,0.4-0.2,0.6-0.4,0.8h11.1v-3.4l7.4,0.3c0.7,0,1.1,0.4,1.1,0.8c0,0.5-0.6,0.8-1.1,1v1.3h12.9v6.1h-12.9
			v2.2h11.8v17h-12.1c-0.2,1.9-0.7,4.2-1.8,6.7c1.8,1.1,6.7,4,16.8,5.3c-1.7,2.2-2.9,4.1-3.9,7.2c-4.4-1-11.5-3.4-17-6.7
			c-1.1,1-5.9,4.8-12,6.8c-0.7-1.8-1.5-3.3-4.5-6V378.2z M111.6,372.2c7.2-1.9,10.1-4.3,10.8-4.8c-2-1.9-3.2-3.5-4.4-5.4l3-2.7h-5.8
			v-17h11.6v-2.2h-12.3v-5.7l-0.1,0.1c-1.2,3.8-2.6,7.2-3.4,9c0.9,0.3,1.4,0.5,1.4,1.1c0,0.4-0.2,0.5-0.7,0.9V372.2z M126.7,353.3
			v-4.8h-4.5v4.8H126.7z M123,359.4c0.6,0.7,1.4,1.6,3,3.2c0.5-1.1,0.7-1.9,0.8-3.2H123z M134.2,348.5v4.8h4.6v-4.8H134.2z"/>
		<path class="st7" d="M165,335.7c0.5,0.2,1,0.3,1,0.8c0,0.7-0.6,0.8-1.1,0.8c-1.1,3.2-2.9,8.6-2.9,15.7c0,6.3,2,10.8,3.5,10.8
			c1.7,0,3.6-4.6,5-7.9c1.9,2.7,3.9,4.4,5.5,5.5c-4.2,10.1-8.9,13.6-11.4,13.6c-2.9,0-10.6-6.2-10.6-22.3c0-6.7,1.1-12.7,2.5-19.4
			L165,335.7z M190.1,336.1c5.7,7.7,9.6,16.5,10.5,26.2c-3.1,1.2-6.8,3-8.5,3.8c-0.6-11-3.8-18.6-8.7-25.7L190.1,336.1z"/>
		<path class="st7" d="M251.7,344.5c-0.1,1.5-0.8,10.7-7,20.5c2.1,2.7,4.5,5,9,7.6c-2.3,1.6-3.7,3.3-5,6.1c-1.8-1-4.5-2.8-8.6-8
			c-2.1,2.1-4.7,4.3-10.3,7.4c-1-2.1-2.4-3.7-4.4-5c-1.8,3.6-4.5,4.5-9,4.9c0-1.2,0.1-3.5-1.7-6.3c-1.6,3.8-2.7,5.2-3.2,6
			c-1.7-1.8-4.4-3.5-6.5-4.5c6.2-8.8,6.3-15.4,6.4-28.9h-5V338h8v-7.7l8,0.4c0.5,0.1,1.1,0.1,1.1,0.7c0,0.5-0.5,0.7-1.1,1v5.6h7.5
			v4.8c3.4-6.5,4.2-10.9,4.6-13l7.3,2.5c0.3,0.1,0.6,0.2,0.6,0.6c0,0.6-0.4,0.7-1.1,0.9c-0.5,1.6-0.9,2.9-1.4,4.2h14v6.6H251.7z
			 M218.9,355.2c-0.5,6.3-2.1,11.1-3.6,15.1c4,0.2,5.6-0.1,5.9-15.1H218.9z M219.2,344.5l-0.1,3.7h7c0.4-0.5,1.1-1.4,2.5-3.7H219.2z
			 M232.1,352.2c-0.6,0.8-0.7,1-1,1.4c-1-0.9-2.8-2.4-3.2-2.7c-0.1,5.4-0.4,17.2-2.2,21.5c3.7-1.6,7.7-4.7,10.3-7.9
			C234.4,361.3,232.8,356.1,232.1,352.2z M238.3,344.5c0.3,7.1,1.2,10.5,2.3,13.1c0.7-1.6,3-6.4,3.6-13.1H238.3z"/>
		<path class="st7" d="M284.3,363.4v-24.1h4.9c0.3-0.5,0.7-1.7,0.9-2.2h-7.6v-5.5h24.4v5.5h-9.6c-0.2,0.5-0.7,1.8-0.9,2.2h9.3v24.1
			h-4.3c3.5,2.5,5.4,3.1,6.3,3.4c-1.8,1.6-3.1,3.4-3.4,4c0.9-0.1,3.1-0.2,4.1-0.3c-0.7,1-2,2.9-2.4,7.3c-4.3,0.1-11.1,0.1-15.4,0.1
			c-9,0-17-0.2-24-6.1c-0.9,3.8-1.3,5.2-2.1,6.7c-4.3-1.8-5.6-2.1-6.6-2.3c2.5-4.8,3.4-9,3.4-14.2c0-1.5-0.1-2.2-0.2-3l6.7,0.6
			c0.5,0.1,1.2,0.1,1.2,0.7c0,0.6-0.5,0.7-1.1,1c0,0.6-0.2,2.6-0.2,2.9c1,1,1.7,1.6,2.1,2v-8.7H259v-5.6h23.8v5.6h-6.7v2.7h6.4v5.7
			h-6.4v4.1c2.8,0.9,5.5,1.1,9.6,1.3c-1.4-1.5-3-2.7-4.9-3.6c3.6-1.8,6.4-3.8,7-4.3H284.3z M281.1,331.6v18.5h-20.5v-18.5H281.1z
			 M274.1,338.7v-2h-6.5v2H274.1z M267.6,343v2h6.5v-2H267.6z M293.8,365.2c0.4,0.3,0.6,0.5,0.6,0.9c0,0.6-1.1,0.7-1.8,0.7
			c-1.8,1.5-4.1,3.5-5.5,4.4c8.1,0.2,13.1-0.2,14.8-0.3c-1.9-1.1-4.4-2.8-6.6-5.4l2.4-2.2h-6.3L293.8,365.2z M298.9,346.2v-1.9H291
			v1.9H298.9z M291,350.4v1.9h7.9v-1.9H291z M291,356.5v1.9h7.9v-1.9H291z"/>
		<path class="st7" d="M340.8,333.3v12.1l-1.9,15.3h-5l-1.9-15.3v-12.1H340.8z M332.1,365.5h8.7v8.8h-8.7V365.5z"/>
	</g>
	<g>
		<path class="st7" d="M69.9,163.5l2.9,2.9c-3,5.2-6.5,8.9-9.4,11.9c-1.5-1.8-2.7-2.8-4.8-3.9c2.4-1.9,4-3.8,5.1-5.3h-6.6v12.2
			c0,4.5-2.8,5-9.2,4.9c-0.2-1.4-0.5-3.6-2-5.9c1.3,0.2,2.3,0.3,3.2,0.3c1.7,0,1.9-0.6,1.9-2.4v-9.2H35.7v-5.6h16.5
			c-1.9-0.9-3.3-1.6-8.7-3.5l3.8-4.2h-7.8v-5.1h26.1l2.2,3.1c-2,2.2-5.9,4.9-8.8,6.8c1.5,0.8,1.8,1.1,2.2,1.4
			c-0.6,0.4-1.1,0.8-2,1.5H69.9z M47.7,155.8c0.7,0.3,3.8,1.4,6,2.2c1.6-1,2.2-1.6,3-2.2H47.7z"/>
		<path class="st7" d="M94.5,155.7c0.2,0.1,0.4,0.4,0.4,0.6c0,0.5-0.8,0.6-1.2,0.6c-0.4,0.4-1.8,2.6-2.2,3c-0.4,0.6-2.3,3.1-5.1,6.3
			c0.5,0,3.4-0.3,3.8-0.4c-0.4-1.5-0.6-2-0.8-2.6l3.4-0.8c-0.1-0.1-0.2-0.1-0.3-0.2c4.1-5.4,5.8-10.1,6.4-12.5l5.6,1.8
			c0.2,0.1,0.5,0.4,0.5,0.6c0,0.4-0.7,0.6-1,0.7c-0.3,0.7-0.5,1.1-1.2,2.8h10.8c0.2,6.2,0.2,21.1-1.9,26.6c-1.6,4-5.3,4.4-9.1,4.2
			c0-1-0.1-2.7-2.5-6.5c1,0.2,2.5,0.6,3.5,0.6c2.7,0,3.4-2.8,3.7-4.5c0.5-2.9,0.8-8.9,0.7-15.2h-7.9c-1.4,2.4-1.9,3.2-2.7,4.3
			c-0.9-0.8-2.5-1.7-3.2-2c0.6,1.9,1,3.8,1.8,7.4c-3.1,0.8-3.8,1.1-4.9,1.5c-0.1-1-0.1-1.1-0.2-1.4l-1.7,0.2v15.8H84V174
			c-0.2,0.2-0.4,0.3-0.7,0.4c-0.3,3.7-0.6,6.2-1.6,9.4c-2.5-0.7-4.2-0.8-5-0.9c1.7-3.6,1.8-9.6,1.9-10.2l5.1,0.4
			c0.1,0,0.2,0.1,0.3,0.2V171c-1,0.1-3.6,0.2-4.4,0.4c-0.1,0.2-0.2,0.4-0.4,0.7c-0.1,0.2-0.3,0.2-0.5,0.2c-0.4,0-0.7-0.3-0.7-0.8
			l-0.5-5.2c1,0,2.1-0.1,3.2-0.2c0.8-0.9,1.6-1.9,1.8-2.2c-0.8-0.8-1.5-1.6-2.4-2.2c-2.5-2.2-2.8-2.4-3.3-2.8l3.2-4.6
			c0.9,0.6,1.1,0.8,1.5,1.1c1.5-2.5,2.2-3.8,3.2-6.3l4.6,2.2c0.3,0.1,0.4,0.3,0.4,0.6c0,0.4-0.2,0.4-1.2,0.5
			c-1.2,2.1-2.4,4.1-3.6,5.9c0.6,0.6,0.8,0.7,1.1,1c2.5-3.6,3.2-5,3.7-6.1L94.5,155.7z M95.2,171.9c0.4,3.6,0.9,6.1,1.8,8.7
			c-1.5,0.4-3.7,1-4.8,1.6c-1-3.5-1.4-6.2-1.7-9.2L95.2,171.9z M102.1,164.3c1.9,3.4,2.5,5.3,3.5,8.8c-1.7,0.7-4.8,2.1-5,2.2
			c-0.4-1.6-1.3-5.2-3.6-9.2L102.1,164.3z"/>
		<path class="st7" d="M142.6,156.3c-0.9,1.5-1.3,2.1-1.6,2.4c0.4,0,0.9,0,0.9,0.5c0,0.3-0.4,0.4-0.7,0.5v0.8h15v8.6h-5.4v-4.8
			h-25.6v4.8h-5.4v-8.6h15v-2.1l4,0.2c-1-0.5-2-0.8-3.6-1.3c0.4-0.4,0.6-0.6,0.8-1h-2.8c0.2,0.5,0.7,2,1,3.4c-1.4,0-5,0.5-5.9,0.7
			c-0.1-1.2-0.6-2.9-0.9-4.1h-1.1c-1.6,2.3-2.5,3.2-3,3.6c-1.6-1.1-2.9-1.8-4.7-2.6c2.6-2.5,4.6-5.8,5.7-8.2l5.4,1.4
			c0.3,0.1,0.5,0.2,0.5,0.5c0,0.4-0.6,0.6-1.3,0.6c0,0.2-0.2,0.4-0.2,0.5h8.9v2c0.3-0.4,1.5-2.1,2.7-5l5.4,1.4
			c0.3,0.1,0.6,0.2,0.6,0.6c0,0.5-0.8,0.6-1.3,0.6c0,0.2-0.1,0.4-0.2,0.5H156v4.2h-6.6c0.4,1.1,0.8,2.3,0.9,3.3
			c-2.7,0-4.4,0.2-5.9,0.5c-0.2-1.6-0.4-2.3-0.9-3.8H142.6z M132.2,185.2v1h-5.6v-20.5h22.9v8.7h-17.3v1.2h20.2v10.5h-5.6v-1H132.2z
			 M144.1,169.4h-11.9v1.5h11.9V169.4z M146.8,181v-1.5h-14.6v1.5H146.8z"/>
		<path class="st7" d="M171.3,163.1h3.1v5h-3.1v6.5c1.4-0.4,2.8-0.8,4.2-1.4c-0.3,1.6-0.2,3.5-0.2,5c-1.1,0.6-4.3,1.6-5.8,2.2
			c-1,0.4-5.4,1.7-6.3,2c-0.2,0.5-0.4,0.9-0.8,0.9c-0.5,0-0.6-0.4-0.8-0.9l-1.2-5.2c2.7-0.5,4.6-1,5.2-1.1v-8.1h-3.4v-5h3.4v-6.6
			h-4.2v-4.9h14v4.9h-4V163.1z M198.5,180.6v4.8H174v-4.8h10.2v-3h-6.8v-4.8h6.8v-3.1h-7.4v-18.8h20.5v18.8h-7.6v3.1h7.4v4.8h-7.4v3
			H198.5z M184.2,158.3v-2.8h-2.3v2.8H184.2z M181.9,162.4v2.9h2.3v-2.9H181.9z M192,158.3v-2.8h-2.4v2.8H192z M189.6,162.4v2.9h2.4
			v-2.9H189.6z"/>
		<path class="st7" d="M209.6,158.1c3.1,1.2,8,4.2,9.4,5.5c-1.5,1.6-3.3,4.4-3.9,5.3c-3.4-2.9-6.6-4.4-9.1-5.4L209.6,158.1z
			 M208.3,179.7c12.6-4.3,22.9-13.4,28.2-21.2c1.3,2.8,3.8,5.1,4.1,5.4c-5,7.5-16.9,17.4-27.6,21.3c0,0.2-0.1,0.9-0.7,0.9
			c-0.3,0-0.5-0.4-0.6-0.5L208.3,179.7z M213.6,149.3c4.1,1.6,6.6,2.7,10,4.7c-0.8,1-3.2,4.4-3.8,5.2c-3-2.1-6.3-3.8-9.7-5
			L213.6,149.3z"/>
		<path class="st7" d="M248.5,158.5v-6h20.4c0.6,0,2.1-0.1,2.8-0.3l3.1,3.4c-0.3,0.4-0.9,1.2-1.5,2.6c-1.5,3.4-3.1,6.7-5.1,9.8
			c1.7,1.3,9,7.4,12,11c-1.3,1.5-3.5,3.9-4.8,5.4c-1.5-2-4.8-6.7-10.8-11.4c-3.8,4.6-10.1,9.8-15.4,12c-1.5-2.5-2.4-3.6-4.6-5.5
			c5.2-1.8,9.1-4.2,13-8c4.6-4.4,6.2-8.3,8-12.9H248.5z"/>
		<path class="st7" d="M285.5,167.5v-5.7h34.2v5.7h-13.1c-0.2,4.4-1,8.8-4.5,12.7c-1.2,1.3-3.9,4.2-8.7,5.7c-1.2-1.9-3.1-3.7-4.8-5
			c9.1-2.5,11.5-7.6,11.6-13.4H285.5z M314.2,151.4v5.8h-23v-5.8H314.2z"/>
		<path class="st7" d="M349,163.7c4.1,5,8.6,12.1,9.8,15.6c-1.8,1.4-4,3-5.4,4.2c-0.5-1.3-1-2.6-1.8-4.5c-9.3,1.7-15.3,2.6-26,3.9
			c-0.1,0.4-0.3,0.8-0.6,0.8c-0.4,0-0.5-0.4-0.6-0.8l-1.5-6.2c1.9,0,2.9-0.1,4.2-0.2c2.9-5.3,7.4-16.8,9.3-26l6.9,1.8
			c0.4,0.1,0.7,0.2,0.7,0.6c0,0.6-0.6,0.7-1,0.8c-0.7,1.7-3.4,9.4-4.1,11c-0.6,1.6-2.9,7.3-5,11.4c3.8-0.4,8.5-1,14.7-2.1
			c-1.6-2.4-3.2-4.8-5.2-6.9L349,163.7z"/>
		<path class="st7" d="M382.8,151.3c0.7,0.2,1,0.2,1,0.7c0,0.5-0.5,0.5-1,0.6c-0.2,0.8-1.1,4.2-1.3,5c7.1-0.3,9.5,4.1,9.5,11.9
			c0,0.6,0,9.2-3.3,13.4c-0.9,1.1-2.6,2.6-6.4,2.6c-1.8,0-2.6-0.2-3.4-0.5c0-2.9,0-3.4-0.8-6.5c2.5,0.7,3.4,0.8,4.2,0.8
			c3.3,0,3.7-7.2,3.7-11.2c0-1.6-0.1-4.5-3.8-4.5c-0.4,0-0.8,0-1.2,0.1c-2,7.6-5,14.9-9.1,21.6c-1.2-1-2.6-1.9-5.8-3.2
			c3.3-5,6.5-11,8.4-17c-2.5,0.7-3.8,1.2-5.7,2.2l-1.9-6.8c1.6-0.2,3.4-0.6,9.2-1.9c0.7-3.5,1.2-5.7,1.2-8.9L382.8,151.3z
			 M393.1,156.2c2.5,2.5,4.9,5.3,6.5,7.7c1.5,2.3,1.9,3.6,1.9,5c0,3-3.5,4.3-5.9,5.2c-0.9-2-2.4-4.4-3-5.3c1.5-0.5,2-0.6,2-1.5
			c0-1.9-3.9-7-5.6-8.8L393.1,156.2z M395.3,151.2c1.8,1.8,2.5,2.8,3.3,4c-0.9,0.6-1.1,0.8-2.9,2.1c-0.4-0.5-2.4-3.2-3.3-4.1
			L395.3,151.2z M399.3,148.7c2.2,2.2,3,3.4,3.4,4.1c-0.9,0.6-2.3,1.6-3.2,2.3c-1.1-2-1.8-3-3.2-4.4L399.3,148.7z"/>
	</g>
	<g>
		<rect y="268.3" class="st12" width="385.2" height="34"/>
		<g>
			<g>
				<path class="st0" d="M120.5,281.7l26.7-34.5c1-1.4,1.7-2.7,2.1-3.9c0.3-1.1,0.4-2.2,0.4-3.2c0-2.6-0.8-5-2.4-6.9
					c-1.7-2-4-3-7-3.1c-2.7,0-4.9,0.9-6.7,2.7c-1.8,1.8-2.9,4.3-3.3,7.5h-9.8c0.2-5.9,2.2-10.7,5.7-14.5c3.6-3.7,8-5.6,13.3-5.7
					c5.9,0.1,10.6,2,14.3,5.8c3.7,3.8,5.6,8.6,5.7,14.4c0,4.6-1.4,8.8-4.1,12.4l-22,28.4h26.1v10h-39V281.7z"/>
				<path class="st0" d="M168.1,281.1h9.8v10l-9.8,7.3V281.1z"/>
				<path class="st0" d="M188.2,291.1c0,0,0.2-0.6,0.8-1.8c0.6-1.2,1.3-2.7,2.3-4.6c0.9-1.9,2-3.9,3.1-6.2c1.2-2.3,2.3-4.5,3.4-6.8
					c1.1-2.2,2.2-4.3,3.2-6.1c1-1.9,1.8-3.3,2.4-4.4c-0.9,0.5-2,0.9-3.2,1c-1.2,0.1-2.5,0.1-4.1,0.1c-2.1-0.1-4-0.5-5.6-1.2
					c-1.6-0.7-3-1.6-4.1-2.7c-1.2-1.1-2.1-2.2-2.9-3.6c-0.8-1.3-1.4-2.6-1.9-3.8c-0.5-1.2-0.8-2.4-1-3.5c-0.2-1.1-0.3-1.9-0.3-2.5
					c0-0.2,0-0.5,0-1.1c0-0.5,0-1.1,0-1.7c0-0.6,0-1.3,0-1.9c0-0.6,0.1-1.2,0.1-1.6c0-0.2,0.1-0.8,0.3-1.7c0.2-0.9,0.5-2,1-3.3
					c0.5-1.3,1.2-2.7,2-4.1c0.9-1.5,2-2.8,3.4-4.1c1.4-1.3,3.1-2.4,5.2-3.3c2-0.9,4.5-1.5,7.3-1.8c2.9-0.3,5.5-0.1,7.8,0.5
					c2.2,0.6,4.2,1.5,5.8,2.7c1.6,1.2,2.9,2.5,4,4.1s1.9,3.1,2.5,4.7c0.6,1.6,1,3.1,1.2,4.6c0.2,1.5,0.2,2.8,0.1,3.8
					c-0.2,1.6-0.4,3-0.6,4.2c-0.2,1.2-0.5,2.4-0.8,3.6c-0.3,1.1-0.7,2.2-1,3.3s-0.8,2.3-1.4,3.6c-0.1,0.4-0.5,1.1-1,2.3
					c-0.6,1.2-1.3,2.7-2.1,4.4c-0.9,1.7-1.8,3.6-2.8,5.8c-1,2.1-2.1,4.2-3.1,6.4c-2.5,5-5.3,10.6-8.3,16.8H188.2z M190.4,240.1
					c0,1.3,0.1,2.6,0.2,4.2c0.1,1.5,0.5,2.9,1.1,4.3c0.6,1.3,1.6,2.5,3,3.4c1.4,1,3.3,1.5,5.7,1.6c1.2,0.1,2.3-0.1,3.3-0.5
					c1-0.4,1.9-0.9,2.7-1.5c0.8-0.6,1.4-1.3,2-2.1c0.6-0.8,1-1.5,1.4-2.3c0.4-0.8,0.6-1.5,0.8-2.1c0.2-0.6,0.2-1.2,0.2-1.5
					c0-0.8-0.1-1.7-0.1-2.7c0-1-0.1-2-0.3-3c-0.2-1-0.5-2-0.9-3c-0.4-1-1-1.8-1.8-2.5c-0.8-0.7-1.8-1.3-3-1.7
					c-1.2-0.4-2.7-0.6-4.5-0.5c-2,0.1-3.6,0.6-4.9,1.5c-1.3,0.9-2.3,1.9-3,3c-0.7,1.1-1.3,2.2-1.5,3.2
					C190.5,239,190.4,239.7,190.4,240.1z"/>
				<path class="st0" d="M229.9,270.6c0.1-6.8,2.8-12.1,8.3-15.9c-2.1-1.8-3.7-3.9-4.9-6.3c-1.4-2.2-2.1-4.9-2.1-7.9
					c0.1-5.9,2-10.7,5.8-14.6c3.6-3.8,8.2-5.7,13.8-5.8c5.7,0.1,10.4,2,14,5.8c3.7,3.8,5.5,8.7,5.6,14.6c0,3.1-0.6,5.7-1.9,7.9
					c-1.3,2.4-3,4.5-5.1,6.3c5.5,3.8,8.3,9.1,8.3,15.9c-0.1,6.3-2.1,11.4-6.1,15.2c-4,3.9-9,5.9-14.8,5.9c-5.8-0.1-10.7-2-14.6-5.9
					C232,282,229.9,276.9,229.9,270.6z M239.6,270.5c0.1,3.2,1.2,5.9,3.4,7.9c2.1,2.2,4.7,3.2,7.7,3.2c3.1,0,5.7-1.1,7.8-3.2
					c2.1-2.1,3.2-4.7,3.3-7.9c-0.1-3.3-1.2-6-3.3-8c-2.1-2-4.7-3.1-7.8-3.2c-3,0.1-5.6,1.1-7.7,3.2
					C240.8,264.5,239.7,267.2,239.6,270.5z M241,240.2c0.1,3.3,1.1,5.8,3.1,7.5c1.9,1.8,4.2,2.7,6.7,2.7c2.6,0,4.9-0.9,6.9-2.7
					c1.9-1.7,2.9-4.2,3-7.5c-0.1-3.4-1.1-5.9-3-7.6c-1.9-1.7-4.2-2.5-6.9-2.5c-2.5,0-4.8,0.8-6.7,2.5C242,234.3,241,236.9,241,240.2
					z"/>
				<path class="st0" d="M281.4,240.3c0.1-6.5,2.1-11.5,6-15c3.7-3.5,8.2-5.2,13.3-5.2c5.3,0,9.8,1.7,13.5,5.2
					c3.8,3.5,5.7,8.5,5.9,15v31.1c-0.1,6.5-2.1,11.5-5.9,15c-3.7,3.5-8.2,5.3-13.5,5.3c-5.2-0.1-9.6-1.8-13.3-5.3c-4-3.5-6-8.5-6-15
					V240.3z M310.4,240.9c-0.2-7.1-3.4-10.7-9.6-10.8c-6.3,0.1-9.5,3.7-9.6,10.8v29.9c0.1,7.1,3.3,10.7,9.6,10.8
					c6.2-0.1,9.5-3.7,9.6-10.8V240.9z"/>
			</g>
			<g>
				<path class="st0" d="M342.8,270.8v19.8h-8.2v-46h43.7v38.9c0,4.9-3,7-10.2,7c-1,0-1.4-0.1-2.2-0.2c-0.5-5-1.8-7.3-2.5-8.6
					c1.1,0.3,2.7,0.7,4.9,0.7c2,0,2-0.6,2-2.3v-9.3H342.8z M352.5,252.1h-9.7v11.3h9.7V252.1z M360.4,263.4h9.9v-11.3h-9.9V263.4z"
					/>
				<path class="st7" d="M432.5,252.5c-12.8-0.2-24,11.3-24,19.8c0,6,7.6,9,14.7,9.2c-1.1,2.2-3,6.6-3.9,9.5
					c-4.2-1.1-19.1-5.3-19.1-17.7c0-9.6,7.4-16.5,9.6-17.9c-10.2,0.8-16.5,2.1-21.5,3.3l-1.2-9.8c8,0,12.5,0,23.1-1.2
					c7.5-0.8,16-2.2,20.9-3.8L432.5,252.5z M423.9,259.8c1.6,1.4,3.8,4,4.8,5.6c-1.5,1-2.2,1.6-4,3.1c-2-2.9-2.5-3.5-4.6-5.9
					L423.9,259.8z M429.4,256.2c1.5,1.3,3.6,3.8,4.6,5.5c-1.3,1-2.2,1.8-3.8,3.2c-1.9-2.9-2.5-3.5-4.6-5.9L429.4,256.2z"/>
			</g>
			<g>
				<path class="st0" d="M20.7,273.6c-1.9,10.5-7.4,14.9-10.2,17.2c-1.2-1.6-4.2-4.3-6.5-5.5c9.5-6.3,9.4-16.2,9.4-21.4v-19.7H46
					v38.5c0,5.6-1.4,7.9-11.7,7.4c-0.2-2.4-1.5-6.7-2.6-8.5c0.8,0.2,3,0.6,4.3,0.6c1.8,0,1.9-1.1,1.9-3v-5.6H20.7z M37.8,255.2v-3.7
					H21.3v3.7H37.8z M37.8,266.1v-3.7H21.3v3.7H37.8z"/>
				<path class="st0" d="M80.7,258.6c-1.8,3.2-3.2,5.4-5.5,8c4.4,2.4,6.5,3.1,8,3.6v-17.7h4.4c0.7-1.3,0.9-1.9,1.4-3h-6.1v-5.7h22.7
					v5.7h-8.9c-0.6,1.2-1.1,2.3-1.5,3h9.2v27.8h-4.8c2.7,2.5,4.8,3.8,8,5.4c-1.9,1.6-3.5,3.3-5.1,5.3c-1.3-0.8-5.9-3.4-9.6-7.7
					l2.9-2.9h-6.1l2.2,1.9c0.6,0.5,0.9,0.7,0.9,1.1c0,0.4-0.4,0.5-0.8,0.5h-0.5c-1.9,2.1-5.3,5.1-8.8,7.2c-1.2-1.9-2.1-3-3.4-4.3v3
					h-5.8v-2h-4.5v2.7h-6.3v-13.7c-0.3,0.2-0.7,0.4-0.9,0.5c-2-2.7-2.5-3.3-4.7-5.1c3.8-1.2,6.6-2.9,9-4.8c-1-0.8-1.7-1.4-2.1-1.8
					c-0.5,0.5-0.8,0.8-1.8,1.6c-1.1-1.4-4-3.5-5.1-4.2c1.9-1.3,4.5-3.3,6.8-6.6h-5.1v-9.9h8.6v-4.1l7.9,0.5c0.3,0,0.9,0.1,0.9,0.7
					s-0.7,1-1.5,1.3v1.6h7.6v9.9h-3.9L80.7,258.6z M76.6,255.8V252H64.3v3.6c0.9-1.4,1.4-2.4,1.7-3.3l6.5,1.6
					c0.4,0.1,0.8,0.4,0.8,0.7c0,0.6-0.6,0.6-1.7,0.7c-0.1,0.2-0.2,0.3-0.2,0.4H76.6z M68.2,260.7c-0.2,0.2-0.4,0.6-0.6,0.8
					c0.6,0.5,1.2,0.9,2.5,1.9c0.8-1,1.2-1.6,2-2.7H68.2z M74.9,273.1c-1.8-0.9-2.9-1.5-4-2.1c-0.9,0.8-1.6,1.4-2.6,2.1H74.9z
					 M73.4,282.5v-4.1h-4.5v4.1H73.4z M83.2,270.7c-0.5,0.6-2.3,4.2-2.8,4.9c-0.4-0.2-0.8-0.3-1.2-0.5v10c2.3-1.4,4.9-3.4,6.4-4.9
					h-2.4V270.7z M98,260.2v-2.1h-8.3v2.1H98z M89.6,264.7v2.3H98v-2.3H89.6z M89.6,271.8v2.3H98v-2.3H89.6z"/>
			</g>
			<g>
				<path class="st0" d="M341.1,222.6c-0.8,0.7-2.8,2.5-2.8,6c0,3.5,2,5.3,2.8,6l-0.7,0.7c-2.9-2.5-3.1-5.5-3.1-6.7
					c0-1.2,0.2-4.2,3.1-6.7L341.1,222.6z"/>
				<path class="st0" d="M347.9,223.2c-0.1,0-0.1,0-0.3-0.1c-0.3,0.1-0.7,0.3-1.4,0.6v2.3h1.8v1h-1.8v0.2c0.1,0.3,0.6,1.5,1.7,2.7
					c-0.1,0.1-0.5,0.4-0.8,0.8c-0.4-0.8-0.7-1.4-0.9-1.8v6h-1v-6.4c-0.7,2.1-1.3,3.2-1.7,4c-0.3-0.3-0.4-0.4-0.9-0.7
					c1.5-2.1,2.2-4,2.5-4.9h-2.2v-1h2.4V224c-0.8,0.2-1.4,0.3-1.8,0.4c-0.2-0.4-0.3-0.6-0.6-1c1.4-0.1,3.2-0.6,4.6-1.4l0.7,0.8
					c0.1,0.1,0.1,0.1,0.1,0.2C348.1,223.1,348,223.2,347.9,223.2z M350.9,230.3c-0.2,1.2-0.7,3.4-3.3,4.8c-0.2-0.3-0.4-0.6-0.9-1
					c1-0.4,3-1.4,3.1-4.5l1.1,0.3c0.1,0,0.3,0.1,0.3,0.2C351.2,230.2,351.1,230.3,350.9,230.3z M354.4,234.6h-1.1
					c-1.2,0-1.2-0.7-1.2-1.4v-3.6h-3.7v-4.4h3.4c0.6-0.7,1.2-1.7,1.8-3.1l1.1,0.4c0.1,0,0.2,0.1,0.2,0.2s-0.2,0.1-0.4,0.1
					c-0.5,1.1-0.8,1.6-1.4,2.3h1.8v4.4h-1.8v3.3c0,0.6,0,0.6,0.7,0.6c0.6,0,0.9,0,1-1.5c0.3,0.2,0.6,0.4,1,0.6
					C355.6,234.6,354.9,234.6,354.4,234.6z M350.1,225c-0.4-0.8-0.9-1.8-1.5-2.5l0.9-0.5c0.7,0.9,1.3,2,1.5,2.5
					C350.6,224.7,350.4,224.8,350.1,225z M354,226.1h-4.4v2.5h4.4V226.1z"/>
				<path class="st0" d="M361.9,224.5v1.1h-1.6v2.6c0.9-0.3,1.3-0.5,1.8-0.7c0,0.1-0.1,0.7,0,1.1c-0.3,0.1-0.8,0.4-1.7,0.7v4.1
					c0,1.4-0.6,1.6-2.4,1.6c0-0.5-0.2-0.9-0.3-1.2c0.2,0,0.4,0.1,0.8,0.1c0.8,0,0.8-0.2,0.8-0.6v-3.5c-0.3,0.1-1.3,0.4-1.5,0.5
					c0,0.2-0.1,0.4-0.3,0.4c-0.2,0-0.2-0.1-0.2-0.3l-0.2-1.1c0.7-0.2,1.5-0.4,2.2-0.6v-3h-1.9v-1.1h1.9v-2.4l1.2,0.1
					c0.1,0,0.3,0,0.3,0.2c0,0.2-0.2,0.2-0.4,0.3v1.8H361.9z M362.4,225.4v-1.1h1.6c0-0.4,0.1-1.9,0.1-2.2l1.2,0c0.1,0,0.3,0,0.3,0.2
					s-0.1,0.2-0.4,0.3c0,0.6,0,1.1,0,1.7h4.9v1.1h-5c-0.1,1-0.2,1.5-0.2,1.8h3.7l0.6,0.5c-0.2,1-0.8,2.8-1.9,4.3
					c0.9,0.9,1.9,1.6,3,2.1c-0.5,0.3-0.8,0.7-0.9,0.9c-1.4-0.9-2.1-1.4-2.8-2.2c-0.9,1-1.8,1.7-2.9,2.3c-0.2-0.2-0.4-0.5-0.9-0.8
					c0.6-0.3,1.8-0.9,3.1-2.3c-0.8-1.1-1.2-2.1-1.4-2.7c-0.9,3.4-2.4,5-2.9,5.5c-0.4-0.5-0.7-0.6-0.9-0.7c2.7-2.7,3.2-6.5,3.3-8.7
					H362.4z M365.1,228.2c0.3,0.9,0.6,1.9,1.4,2.9c0.9-1.3,1.2-2.5,1.3-2.9H365.1z"/>
				<path class="st0" d="M372.4,235.3l-0.7-0.7c0.8-0.7,2.8-2.5,2.8-6c0-3.5-2-5.3-2.8-6l0.7-0.7c2.7,2.3,3.1,5,3.1,6.7
					S375.1,233,372.4,235.3z"/>
			</g>
		</g>
		<g>
			<path class="st0" d="M276.9,311c-0.8,0.7-2.8,2.5-2.8,6c0,3.5,2,5.3,2.8,6l-0.7,0.7c-2.9-2.5-3.1-5.5-3.1-6.7
				c0-1.2,0.2-4.2,3.1-6.7L276.9,311z"/>
			<path class="st0" d="M283.8,311.6c-0.1,0-0.1,0-0.3-0.1c-0.3,0.1-0.7,0.3-1.4,0.6v2.3h1.8v1H282v0.2c0.1,0.3,0.6,1.5,1.7,2.7
				c-0.1,0.1-0.5,0.4-0.8,0.8c-0.4-0.8-0.7-1.4-0.9-1.8v6h-1V317c-0.7,2.1-1.3,3.2-1.7,4c-0.3-0.3-0.4-0.4-0.9-0.7
				c1.5-2.1,2.2-4,2.5-4.9h-2.2v-1h2.4v-1.9c-0.8,0.2-1.4,0.3-1.8,0.4c-0.2-0.4-0.3-0.6-0.6-1c1.4-0.1,3.2-0.6,4.6-1.4l0.7,0.8
				c0.1,0.1,0.1,0.1,0.1,0.2C284,311.6,283.9,311.6,283.8,311.6z M286.8,318.7c-0.2,1.2-0.7,3.4-3.3,4.8c-0.2-0.3-0.4-0.6-0.9-1
				c1-0.4,3-1.4,3.1-4.5l1.1,0.3c0.1,0,0.3,0.1,0.3,0.2C287.1,318.7,286.9,318.7,286.8,318.7z M290.3,323.1h-1.1
				c-1.2,0-1.2-0.7-1.2-1.4V318h-3.7v-4.4h3.4c0.6-0.7,1.2-1.7,1.8-3.1l1.1,0.4c0.1,0,0.2,0.1,0.2,0.2s-0.2,0.1-0.4,0.1
				c-0.5,1.1-0.8,1.6-1.4,2.3h1.8v4.4h-1.8v3.3c0,0.6,0,0.6,0.7,0.6c0.6,0,0.9,0,1-1.5c0.3,0.2,0.6,0.4,1,0.6
				C291.5,323.1,290.8,323.1,290.3,323.1z M285.9,313.5c-0.4-0.8-0.9-1.8-1.5-2.5l0.9-0.5c0.7,0.9,1.3,2,1.5,2.5
				C286.5,313.1,286.3,313.2,285.9,313.5z M289.8,314.6h-4.4v2.5h4.4V314.6z"/>
			<path class="st0" d="M305.5,323h-6.2c-2.2,0-3.1-0.3-3.8-1.4c-0.8,0.7-1.3,1.1-1.8,1.4c0,0.2,0,0.5-0.2,0.5
				c-0.1,0-0.3-0.2-0.3-0.3l-0.4-1c0.5-0.2,1.1-0.5,2.2-1.3V317h-2V316h3.2v4.4c0,0.4,0.1,1.2,1.2,1.5c0.4,0.1,0.8,0.2,3.4,0.2
				c3,0,4.5-0.1,5.1-0.2C305.8,322,305.6,322.4,305.5,323z M295.9,313.8c-1-1.1-1.8-1.8-2.7-2.4l0.8-0.8c0.9,0.6,2,1.6,2.8,2.3
				C296.2,313.5,296,313.7,295.9,313.8z M304.7,320.9c-1.7-1.4-3.2-3.3-3.7-5.9c-0.6,2.5-2,4.7-3.4,5.9c-0.2-0.3-0.4-0.5-1-0.8
				c2-1.7,3.2-4,3.5-6.4l0.7,0.1c-0.1-0.8-0.1-1.4-0.1-1.8h-2.4V311h3.5c0,0.3,0,0.6,0,1.1c0,2.2,0.2,5.3,3.8,7.9
				C305,320.6,304.9,320.7,304.7,320.9z"/>
			<path class="st0" d="M312.4,318.7c0.1,0.9,0.2,2.7,2.6,2.7c2,0,2.7-1.1,2.7-2.3c0-1.8-1.6-2.2-2.4-2.2h-1.1v-1.1h1
				c1.5,0,2.4-0.8,2.4-1.9c0-1.2-1-1.8-2.3-1.8c-2.3,0-2.5,1.7-2.6,2.4h-1.4c0.1-0.7,0.4-3.6,4.1-3.6c2.1,0,3.7,1.1,3.7,2.9
				c0,1.9-1.5,2.4-2,2.5c1.4,0.3,2.2,1.4,2.2,2.7c0,1.5-0.8,3.5-4,3.5c-1.3,0-4-0.2-4.2-3.9H312.4z"/>
			<path class="st0" d="M322.7,322.3c0,0.4,0,1.2-1.5,1.4v-0.5c0.7-0.1,0.7-0.5,0.7-0.8h-0.7v-1.6h1.5V322.3z"/>
			<path class="st0" d="M333.1,321.1v1.2h-8.2c0.1-2.3,1.4-3.2,3.4-4.6c2.7-1.9,3.4-2.3,3.4-3.6c0-1.4-1.3-2-2.5-2
				c-2.6,0-2.7,2.3-2.7,3H325c0.1-2.7,1.6-4.3,4.2-4.3c2.2,0,3.8,1.2,3.8,3.2c0,1.4-0.6,2.4-2.9,3.8c-2.6,1.6-3.1,2.2-3.4,3.1H333.1
				z"/>
			<path class="st0" d="M342.9,311.3v1.2c-1.6,1.3-4.2,4.6-4.3,9.8h-1.4c0-3.8,2-7.7,4.2-9.8h-6.5v-1.2H342.9z"/>
			<path class="st0" d="M353,319.3c0,1.2-0.6,3.4-4.1,3.4c-3.5,0-4.1-2.2-4.1-3.4c0-2.3,1.8-2.8,2.2-2.9c-1.2-0.4-1.9-1.1-1.9-2.5
				c0-1.8,1.5-2.9,3.8-2.9c2.5,0,3.8,1.2,3.8,2.9c0,1.3-0.7,2.1-1.9,2.5C351.2,316.5,353,316.9,353,319.3z M346.1,319.1
				c0,2,1.7,2.3,2.7,2.3c1,0,2.7-0.3,2.7-2.3c0-1.4-1-2.2-2.7-2.2C347.1,316.9,346.1,317.8,346.1,319.1z M346.4,314.1
				c0,1.7,1.9,1.8,2.4,1.8c0.5,0,2.4-0.1,2.4-1.8c0-1.1-0.9-1.9-2.4-1.9C346.4,312.2,346.4,313.8,346.4,314.1z"/>
			<path class="st0" d="M367,323.3c-0.1-0.7-0.2-1-0.4-1.3c0.4,0.1,0.8,0.1,1.2,0.1c0.8,0,1-0.2,1-1v-3.4H360v5.6h-1.2v-12.2h11.2
				v10.1C370.1,322.8,369.7,323.4,367,323.3z M363.8,312.3H360v4.3h3.8V312.3z M368.9,312.3H365v4.3h3.9V312.3z"/>
			<path class="st0" d="M373.3,323.7l-0.7-0.7c0.8-0.7,2.8-2.5,2.8-6c0-3.5-2-5.3-2.8-6l0.7-0.7c2.7,2.3,3.1,5,3.1,6.7
				S376,321.4,373.3,323.7z"/>
		</g>
	</g>
</g>
</svg>
