<?xml version="1.0" encoding="utf-8"?>
<!-- Generator: Adobe Illustrator 28.0.0, SVG Export Plug-In . SVG Version: 6.00 Build 0)  -->
<svg version="1.1" id="レイヤー_1" xmlns="http://www.w3.org/2000/svg" xmlns:xlink="http://www.w3.org/1999/xlink" x="0px"
	 y="0px" viewBox="0 0 1013 378.8" style="enable-background:new 0 0 1013 378.8;" xml:space="preserve">
<style type="text/css">
	.st0{fill:#F29600;}
	.st1{fill:#59C2E1;}
	.st2{fill:#796A56;}
	.st3{fill:none;}
	.st4{fill:#9CDBED;}
	.st5{fill:#FFFFFF;}
	.st6{fill:#F7C066;}
	.st7{fill:#4D4D4D;}
	.st8{fill:#2E2E2E;}
	.st9{fill:#D3D3D6;}
	.st10{fill:#F4F4F5;}
	.st11{fill:#F5BD34;}
	.st12{fill:#FFFF00;}
</style>
<g>
	<g>
		<path class="st0" d="M455.1,93.6c-0.1-0.1-0.2-0.2-0.3-0.2l-2.1-0.4c-0.2,0-0.4,0.1-0.5,0.3c-1.6,4.7-2.4,6.7-3.1,8.2
			c-1.6-3.1-2.1-4.1-3.8-8.2c-0.1-0.2-0.3-0.3-0.5-0.3l-2,0.6c-0.1,0-0.2,0.1-0.3,0.2c-0.1,0.1-0.1,0.3,0,0.4
			c2.2,4.8,2.8,6,5.2,10.2c-1.1,1.9-1.3,2.4-1.8,3.1l-0.2,0.4c-0.1,0.1-0.1,0.3,0,0.4s0.2,0.2,0.3,0.3l2.1,0.5h0.1
			c0.2,0,0.3-0.1,0.4-0.3c3.4-7.4,3.8-8.2,6.5-14.8C455.1,93.8,455.1,93.7,455.1,93.6z"/>
		<path class="st0" d="M463.4,92.9c-1.6,0-2.8,0.4-3.8,0.8c-0.2,0.1-0.3,0.3-0.3,0.5l0.2,2c0,0.2,0.1,0.3,0.2,0.4s0.3,0.1,0.4,0
			c1.1-0.6,2-1.1,3.3-1.1c2.9,0,5.1,2.5,5.1,5.8c0,2.9-1.8,5.1-4.2,5.3c-1.1,0.1-2.1-0.2-2.8-0.9c-0.7-0.6-1.1-1.5-1.1-2.6
			c0-2.8,2.2-3.7,3.3-4.1c0.1,0,0.2-0.2,0.3-0.3c0-0.1,0-0.3,0-0.4l-0.8-1.3c-0.1-0.2-0.3-0.3-0.5-0.2h-0.1c-1.3,0.4-5.3,1.8-5,6.3
			c0.2,3.7,2.7,5.9,6.7,5.9c4.2,0,7.3-3.3,7.3-7.7C471.7,96.4,468.2,92.9,463.4,92.9z"/>
		<path class="st0" d="M486.7,93.6c-0.1-0.1-0.2-0.2-0.3-0.2l-2.1-0.4c-0.2,0-0.4,0.1-0.5,0.3c-1.6,4.7-2.4,6.7-3.1,8.2
			c-1.6-3.1-2.1-4.1-3.8-8.2c-0.1-0.2-0.3-0.3-0.5-0.3l-2,0.6c-0.1,0-0.2,0.1-0.3,0.2c-0.1,0.1-0.1,0.3,0,0.4
			c2.2,4.8,2.8,6,5.2,10.2c-1.1,1.9-1.3,2.4-1.8,3.1l-0.2,0.4c-0.1,0.1-0.1,0.3,0,0.4s0.2,0.2,0.3,0.3l2.1,0.5h0.1
			c0.2,0,0.3-0.1,0.4-0.3c3.4-7.4,3.8-8.2,6.5-14.8C486.8,93.8,486.8,93.7,486.7,93.6z"/>
		<path class="st0" d="M502.1,108c-0.1-0.2-0.4-1-0.6-1.4l-0.7-1.7c-2-4.6-3.5-8.5-4.7-11.7c-0.1-0.2-0.3-0.3-0.5-0.3L494,93
			c-0.2,0-0.3,0.1-0.4,0.3c-0.7,1.8-1.7,4.2-2.6,6.5c-1.2,3-2.4,6.1-3.4,8.3c-0.1,0.1,0,0.3,0,0.4c0.1,0.1,0.2,0.2,0.3,0.2l2,0.2
			c0.2,0,0.4-0.1,0.5-0.3c0.4-1.4,1.1-3.1,1.3-3.7l0,0c0.8-0.1,1.4-0.1,1.6-0.1c0.6,0,1.5,0.1,2.1,0.2c0.2,0,0.5-0.1,0.5-0.3
			l0.3-1.5c0-0.1,0-0.3-0.1-0.4s-0.2-0.2-0.4-0.2c-0.5,0-1.7,0.1-2.7,0.1c-0.2,0-0.4,0-0.6,0l0.6-1.6c0.5-1.5,1-2.9,1.5-4.2
			c1.4,3.8,3,8.1,4.5,11.8c0.1,0.2,0.2,0.3,0.4,0.3c0,0,0,0,0.1,0l2.1-0.3c0.1,0,0.3-0.1,0.3-0.2C502.2,108.3,502.2,108.2,502.1,108
			z"/>
		<path class="st0" d="M570.5,108c-0.1-0.2-0.4-1-0.6-1.5l-0.7-1.7c-2-4.7-3.5-8.7-4.7-11.7c-0.1-0.2-0.3-0.3-0.5-0.3l-1.7,0.1
			c-0.2,0-0.3,0.1-0.4,0.3c-0.8,1.8-1.7,4.2-2.7,6.6c-1.2,3-2.4,6-3.4,8.3c-0.1,0.1,0,0.3,0,0.4c0.1,0.1,0.2,0.2,0.3,0.2l2,0.2
			c0.2,0,0.4-0.1,0.5-0.3c0.4-1.4,1.1-3.1,1.3-3.7l0,0c0.8-0.1,1.4-0.1,1.6-0.1c0.6,0,1.5,0.1,2.1,0.2c0.2,0,0.5-0.1,0.5-0.3
			l0.3-1.5c0-0.1,0-0.3-0.1-0.4s-0.2-0.2-0.4-0.2c-0.5,0-1.7,0.1-2.7,0.1c-0.2,0-0.4,0-0.6,0l0.6-1.6c0.5-1.5,1-2.9,1.5-4.3
			c1.4,3.8,3,8.1,4.5,11.8c0.1,0.2,0.2,0.3,0.4,0.3c0,0,0,0,0.1,0l2.1-0.3c0.1,0,0.3-0.1,0.3-0.2C570.6,108.3,570.6,108.2,570.5,108
			z"/>
		<path class="st0" d="M516.9,106.9l-1.2-0.9l-0.9-0.8c-1.7-1.4-2.1-1.8-4.5-4.6c2.5-2.6,2.9-3,5.5-6.1c0.1-0.1,0.1-0.3,0.1-0.4
			s-0.1-0.3-0.3-0.3l-2-0.9c-0.2-0.1-0.4,0-0.5,0.1c-2.3,3-2.8,3.7-5.1,6.2c0-1.4,0.2-3.2,0.3-5.6v-0.3c0-0.1,0-0.3-0.1-0.4
			s-0.2-0.1-0.4-0.1l-2.2,0.3c-0.2,0-0.4,0.2-0.4,0.4v14.9c0,0.2,0.2,0.5,0.5,0.5h2.1c0.1,0,0.2-0.1,0.3-0.1
			c0.1-0.1,0.1-0.2,0.1-0.3c-0.1-1.7-0.3-4-0.3-6.6c2.5,2.9,3.1,3.6,6.4,6.9c0.1,0.1,0.2,0.1,0.3,0.1s0.2,0,0.2-0.1l2-1.3
			c0.1-0.1,0.2-0.2,0.2-0.4C517.1,107.1,517,107,516.9,106.9z"/>
		<path class="st0" d="M532.5,106.4l-0.1-1.5v-0.5c0-0.8-0.1-2-0.1-2.7c0-1.3,0-3.5,0.3-8.3c0-0.1,0-0.3-0.1-0.3
			c-0.1-0.1-0.2-0.1-0.4-0.1l-2.1,0.2c-0.2,0-0.4,0.2-0.4,0.4v8.5c-1.5,2.7-2.8,4.1-4.1,4.1c-0.3,0-0.7-0.2-0.9-0.5
			c-0.8-0.8-1.3-2.7-1.1-4.7l0.4-7.6c0-0.1,0-0.3-0.1-0.4s-0.2-0.1-0.4-0.1l-2.3,0.3c-0.2,0-0.4,0.2-0.4,0.4v7c0,2,0.3,8.4,4.5,8.4
			c2,0,3.4-1.5,4.5-2.8v2.4c0,0.2,0.2,0.5,0.5,0.5h2c0.1,0,0.2,0,0.3-0.1s0.1-0.2,0.1-0.3v-0.3C532.5,107.8,532.5,107.5,532.5,106.4
			z"/>
		<path class="st0" d="M552.2,93.3c0-0.1-0.1-0.2-0.2-0.3c-0.1-0.1-0.2-0.1-0.3-0.1l-2.3,0.2c-0.2,0-0.3,0.1-0.4,0.3l-0.1,0.2
			c-1.5,4.5-1.8,5.5-3.8,10.7c-2.4-6-2.8-7.1-3.9-11.1c-0.1-0.2-0.3-0.4-0.5-0.3l-2.3,0.2c-0.2,0-0.4,0.2-0.4,0.4l-0.7,15
			c0,0.1,0,0.2,0.1,0.3c0.1,0.1,0.2,0.1,0.3,0.1h1.8c0.2,0,0.4-0.2,0.5-0.4l0.1-9.7c1.6,4.6,2,5.5,3.8,9.8c0.1,0.2,0.2,0.3,0.4,0.3
			l0,0l1.3-0.1c0.2,0,0.3-0.1,0.4-0.3c1.8-4.2,2.4-6.1,3.7-9.8l0.3,9.7c0,0.2,0.2,0.4,0.5,0.4h2c0.1,0,0.2-0.1,0.3-0.1
			c0.1-0.1,0.1-0.2,0.1-0.3L552.2,93.3z"/>
	</g>
	<g>
		<path class="st1" d="M554.6,28.2L554.6,28.2c-1-1.2,0.6-2.4,0.6-2.4l0,0c3.6-2.6,5.9-6.8,5.9-11.5c0-7.9-6.7-14.4-14.9-14.4
			c-7.3,0-13.3,5.1-14.6,11.7l0,0c0,0-0.4,1.6-2,1.1l0,0c-7-2.2-14.8-3.4-23-3.4s-16,1.2-23,3.4l0,0c-1.6,0.5-2-1.1-2-1.1l0,0
			C480.1,5.1,474.1,0,466.8,0c-8.2,0-14.9,6.4-14.9,14.4c0,4.7,2.3,8.8,5.9,11.5l0,0c0,0,1.6,1.2,0.6,2.4l0,0
			c-4.6,5.4-7.3,11.7-7.3,18.4c0,20.5,24.8,37.2,55.3,37.2c30.5,0,55.3-16.6,55.3-37.2C561.8,40,559.2,33.7,554.6,28.2z"/>
		<g>
			<circle class="st2" cx="490.9" cy="36.8" r="4.5"/>
			<circle class="st2" cx="522.1" cy="36.8" r="4.5"/>
		</g>
		<g>
			<path class="st3" d="M475.8,14.4L475.8,14.4L475.8,14.4z"/>
			<path class="st4" d="M475.8,14.4L475.8,14.4c0-4.8-4-8.6-9-8.6s-9,3.8-9,8.5c0,3.3,2,6.2,4.9,7.6c0.3,0.1,1.7,0.5,3.3-0.6
				c0,0,0,0,0.1,0c2.5-1.8,5.3-3.5,8.4-4.9c0,0,0,0,0.1,0C475.6,15.8,475.8,14.7,475.8,14.4z"/>
		</g>
		<g>
			<path class="st3" d="M537.2,14.4L537.2,14.4L537.2,14.4z"/>
			<path class="st4" d="M537.2,14.4L537.2,14.4c0-4.8,4-8.6,9-8.6s9,3.8,9,8.5c0,3.3-2,6.2-4.9,7.6c-0.3,0.1-1.7,0.5-3.3-0.6
				c0,0,0,0-0.1,0c-2.5-1.8-5.3-3.5-8.4-4.9c0,0,0,0-0.1,0C537.4,15.8,537.2,14.7,537.2,14.4z"/>
		</g>
		<path class="st5" d="M524.3,57.8c0-5.6-2.2-8.5-7.1-12.6c-4.8-4-6.5-10.9-7.1-14.1c0,0-0.6-3.1-3.6-3.1s-3.6,3.1-3.6,3.1
			c-0.7,3.2-2.3,10-7.1,14.1c-4.8,4-7.1,7-7.1,12.6c0,0-0.3,5.8,4.9,10c5.2,4.1,8.1,2.7,9.3,1.2l1.5-1.8c0,0,1-1.5,2.1-1.5
			s2.1,1.5,2.1,1.5l1.5,1.8c1.2,1.5,4.1,2.9,9.3-1.2C524.6,63.6,524.3,57.8,524.3,57.8z"/>
		<path class="st0" d="M513.5,48.2c-1.4-0.3-4.7-0.4-6.2-0.4l0,0h-1.9l0,0c-1.6,0-4.7,0.1-6,0.4c-1.8,0.4-3.1,2.1-1.5,4.6
			s6.1,9.1,8.5,9.1c2.5,0,7-6.7,8.5-9.1C516.6,50.3,515.3,48.7,513.5,48.2z"/>
	</g>
</g>
<g>
	<path class="st5" d="M160.3,215.5c0.7-0.5,1.4-1.1,1.9-1.8c-2.5,0.3-5,0.5-7.5,0.8c0.7,0.7,1.6,1.2,2.5,1.5
		C158.4,216.3,159.3,216.1,160.3,215.5z"/>
	<path class="st5" d="M184.2,186.3C184.2,186.3,184.1,186.3,184.2,186.3L184.2,186.3z"/>
	<path class="st5" d="M148.7,220.2c1.6,1.6,3.3,3.1,5.3,4.1c3.9,2,8.7,0.9,12.3-1.3c4.2-2.4,6.8-6.8,8.7-11.1
		c2-4.5,3.1-9.4,3.2-14.4c0-1.5,2.4-1.5,2.4,0c0,0.8-0.1,1.5-0.1,2.3c1.1-0.5,1.9-1.4,2.6-2.5c0.8-1.3,1.2-2.8,1.5-4.4
		c0.1-0.7,0.2-1.2,0.3-2c0-0.4,0-0.8,0-1.2c0-0.1,0-0.3,0-0.4v-0.1l0,0c0-0.3-0.1-0.6-0.2-0.9c-0.1-0.6-0.3-1.2-0.5-1.8
		c0,0,0,0,0-0.1s-0.1-0.1-0.1-0.2c-0.1-0.1-0.1-0.2-0.2-0.3c0-0.1-0.1-0.2-0.1-0.2l0,0l0,0c-0.1,0.1-0.2,0.1-0.3,0.2
		c-0.1,0-0.1,0.1-0.2,0.1c-0.1,0.2-0.2,0.4-0.4,0.5c-0.5,0.6-1.2,0.7-1.9,0.7c-0.9,0-1.7-0.1-2.6-0.3c-1.6-0.3-3.2-1-4.6-2
		c-2.9-1.9-5-4.6-6.3-7.8c-0.6-1.4-1.1-2.9-1.8-4.3c-0.7-1.4-1.6-2.8-2.9-3.7c-0.5-0.4-0.9-0.5-1.5-0.7c-0.3-0.1-0.3-0.1-0.7-0.1
		c-0.1,0-0.3,0-0.4,0c-0.2,0-0.1,0-0.2,0c-1.2,0.2-2.2,0.7-3.2,1.4c-0.5,0.3-1,0.2-1.3-0.1l-0.1-0.1c-2-1.8-4.9-3-7.4-1.9
		c-2.2,1-3.3,3.1-4.2,5.2c-1.1,2.6-1.7,5.4-2.3,8.2c-0.4,2.2-0.7,4.3-1.3,6.5l0,0c1.4-1.1,3-2,4.8-2.2c1.6-0.2,3.2,0.2,4.7,0.9
		c0.6,0.3,0.7,1.1,0.4,1.6c-0.3,0.6-1.1,0.7-1.6,0.4l-0.3-0.1c-0.1-0.1-0.3-0.1-0.4-0.2c-0.3-0.1-0.6-0.2-0.9-0.2
		c-0.1,0-0.1,0-0.2,0c0,0,0,0-0.1,0c-0.2,0-0.3,0-0.5,0s-0.3,0-0.5,0c-0.1,0-0.2,0-0.2,0c-0.1,0-0.2,0-0.1,0c0.1,0,0.1,0-0.1,0
		c-0.1,0-0.2,0-0.2,0c-0.2,0-0.3,0.1-0.5,0.1s-0.3,0.1-0.5,0.2c-0.1,0-0.2,0.1-0.2,0.1s0,0-0.1,0c-0.7,0.3-1.3,0.7-1.9,1.1
		c-0.5,0.4-1.2,0.5-1.7,0c-0.2-0.2-0.3-0.4-0.3-0.6c-0.6,2.1-1.6,4.2-3.2,5.6c-0.4,0.4-1,0.5-1.5,0.2c-0.8-0.4-1.5-0.9-2.2-1.5
		c0,0.1,0,0.1,0,0.2c0,0.1,0,0.2-0.1,0.3c0,0,0,0,0,0.1c0,0,0,0,0,0.1c0,0.2,0,0.4,0,0.7c0,0.5,0,0.7,0.1,1.2c0.2,1,0.5,1.9,1,2.8
		c0.4,0.9,1,1.9,1.6,2.6c0.1,0.2,0.3,0.3,0.4,0.4c0-0.1,0-0.2-0.1-0.3c-0.1-0.6,0.2-1.3,0.8-1.5s1.4,0.2,1.5,0.8
		c0.9,5.3,2.9,10.3,6,14.7C145.5,216.7,147.1,218.5,148.7,220.2z M159.4,184.8c1.3-1.1,2.7-1.8,4.4-1.9c1.5-0.1,3,0.3,4.5,0.7
		c0.7,0.2,1,0.9,0.8,1.5c-0.1,0.6-0.9,1-1.5,0.8c-0.7-0.2-1.3-0.3-2-0.5c-0.2,0-0.3-0.1-0.5-0.1l0,0c-0.1,0-0.1,0-0.2,0
		c-0.3,0-0.6,0-0.9,0c-0.2,0-0.3,0-0.5,0c-0.1,0-0.1,0-0.2,0c0,0,0,0-0.1,0c-0.3,0.1-0.6,0.1-0.9,0.2c0,0,0,0-0.1,0
		s-0.1,0.1-0.2,0.1c-0.1,0.1-0.3,0.2-0.4,0.2c-0.3,0.2-0.4,0.3-0.7,0.5c-0.5,0.4-1.2,0.5-1.7,0C159,186.1,159,185.3,159.4,184.8z
		 M164.4,193.6c-1.6,0-1.5-2.4,0-2.4C166,191.2,166,193.6,164.4,193.6z M157.4,205.4c0.2-0.1,0.4-0.1,0.6,0c0.1,0,0.2,0.1,0.3,0.1
		c0.3,0.1,0.5,0.4,0.6,0.7s0,0.7-0.1,0.9c-0.1,0.1-0.2,0.3-0.3,0.3c-0.1,0.1-0.3,0.2-0.4,0.2c-0.7,0.1-1.3,0.2-2,0.3
		c-0.2,0.1-0.4,0.1-0.6,0c-0.1,0-0.2-0.1-0.3-0.1c-0.3-0.1-0.5-0.4-0.6-0.7s0-0.7,0.1-0.9c0.1-0.1,0.2-0.3,0.3-0.3
		c0.1-0.1,0.3-0.2,0.4-0.2C156.1,205.6,156.7,205.5,157.4,205.4z M152.8,191.1c0.5-0.3,1.4-0.1,1.6,0.4c1.5,3,1.8,6.5,0.7,9.7
		c-0.2,0.6-0.8,1-1.5,0.8c-0.6-0.2-1.1-0.9-0.8-1.5c0.9-2.6,0.8-5.4-0.5-7.9C152.1,192.2,152.2,191.4,152.8,191.1z M151.4,212.8
		c0.2-0.3,0.6-0.4,0.9-0.5c0.5-0.1,1-0.1,1.5-0.2c3.6-0.4,7.2-0.8,10.8-1.2c0.9-0.1,1.4,1.1,1,1.8c-0.5,0.8-1.1,1.6-1.7,2.4
		c-0.9,1.1-2,2.2-3.3,2.8c-1.4,0.7-3.1,0.7-4.6,0.1c-2-0.8-3.7-2.3-4.9-4C151,213.6,151.1,213.2,151.4,212.8z M146.8,192.7
		c1.6,0,1.5,2.4,0,2.4C145.3,195.1,145.3,192.7,146.8,192.7z"/>
	<path class="st5" d="M183.7,185.6C183.6,185.6,183.7,185.6,183.7,185.6L183.7,185.6L183.7,185.6z"/>
	<path class="st5" d="M183.7,185.6C183.8,185.6,183.8,185.6,183.7,185.6L183.7,185.6z"/>
	<path class="st5" d="M183.7,185.6C183.7,185.6,183.6,185.6,183.7,185.6L183.7,185.6z"/>
	<path class="st5" d="M157.2,311.9c0.1,0,0.3,0,0.4,0c3.1,0.1,6.2,0.1,9.3,0.2c5.6,0.1,11.2,0.2,16.9,0.2c6.1,0,12.2,0,18.2-0.2
		c5.5-0.2,11.4,0,16.4-2.5c4-2.1,6.6-5.6,7.5-10c0.3-1.2,0.4-2.1,0.5-3.3c0.1-1.3,0.1-2.5,0-3.8c-0.2-2.7-0.8-5.3-1.5-8
		c-1-3.4-2.4-6.7-3.5-10.1c-1.3-4.1-2.5-8.2-3.7-12.3c-2.3-8.1-4.3-16.4-7-24.4c-0.7-2-1.4-4.1-2.1-6.1c-0.7-1.9-1.3-3.9-2.4-5.6
		c-1.8-2.8-4.6-4.9-7.5-6.5s-6.1-2.4-9.3-3.4c-3.1-0.9-6-2.1-8.8-3.7c-0.8-0.4-0.7-1.3-0.3-1.8c-0.4-0.2-0.8-0.5-1.2-0.7
		c-0.1,2.7-0.2,5.4-0.2,8.2c0,1.5-2.4,1.5-2.4,0c0-0.4,0-0.8,0-1.2c0-0.9,0-1.8,0.1-2.7c-0.1,0.2-0.2,0.4-0.3,0.7
		c-1.2,2.4-2.7,4.7-4.4,6.7c-1.6,1.9-3.8,3.3-6.1,4.3s-4.8,1.7-7.3,1.7c-2.4,0-4.6-0.7-6.6-1.9c-2.1-1.3-4-3-5.7-4.8
		c-1.8-1.8-3.3-3.9-4.7-6c-0.5-0.9-1.1-1.7-1.5-2.6c-0.5,0.4-0.9,0.7-1.4,1c0.5,0.6,0.4,1.7-0.6,2c-4.1,1.2-8.2,1.9-12.4,2.9
		c-3.8,0.9-7.6,2-11.1,3.8c-3.4,1.7-6.3,4.2-7.7,7.8c-1.6,4.1-1.4,8.4-1.2,12.7c0.1,3,0.3,6,0.6,9c0,0.7-0.6,1.2-1.2,1.2l0,0
		l4.4,61.8h23.2c0.1-0.4,0.4-0.7,0.8-0.8c1.2-0.3,2.4-0.7,3.5-1c5.8-1.7,11.5-3.6,17.1-5.9c3.2-1.3,6.4-2.7,9.5-4.3
		c1.4-0.7,2.8-1.5,4.2-2.4c0.6-0.4,1.3-0.8,1.9-1.3c0.5-0.4,0.9-0.7,1.5-1.2c-1-5.1-3.3-9.8-6.8-13.6c-0.1,0.1-0.3,0.1-0.4,0.1
		c-0.6,0.1-1.2,0.1-1.8,0.2c-5.7,0.6-11.3,1.3-17,1.7c-0.7,0.1-1.2-0.6-1.2-1.2c0-0.7,0.6-1.2,1.2-1.2c1.5-0.1,2.9-0.3,4.4-0.4
		c4.8-0.5,9.6-1,14.4-1.5c0.2,0,0.4,0,0.6,0.1c0.4-0.2,0.9-0.2,1.4,0.2c0.1,0.1,0.1,0.1,0.1,0.2c2.4-0.5,4.8-1.1,7.2-1.8
		c1.8-0.5,3.5-1.1,5.2-1.8c1.2-0.5,2.5-1.3,3.7-1.9c3-1.4,6.4-2.5,9.7-2.8c-0.1-0.2-0.2-0.5-0.1-0.9c0.5-2.1,0.9-4.2,1.3-6.3
		c1.3-6.9,2.4-13.9,3.8-20.8c0.3-1.5,2.6-0.9,2.3,0.6c-0.5,2.1-0.9,4.2-1.3,6.3c-1.3,6.9-2.4,13.9-3.8,20.8c0,0.1,0,0.1,0,0.1
		c1.1,0.1,2.3,0.3,3.1,1c1.2,1,1.7,2.5,2,4c0.3,1.7,0.4,3.5,0.4,5.3c0,0.8,0,1.7,0.1,2.5c0,0.2,0,0.5,0,0.7c1.3-0.5,2.6-1,3.9-1.4
		c0.6-0.2,1.3,0.3,1.5,0.8c0.2,0.7-0.2,1.3-0.8,1.5c-2.2,0.8-4.4,1.6-6.6,2.4c-7.7,2.8-15.5,5.7-23.2,8.5c-0.3,0.1-0.6,0.1-0.8-0.1
		c-0.1,0.2-0.3,0.4-0.6,0.4c-0.1,0-0.3,0-0.5,0c-2.6,2.1-5.5,3.8-8.5,5.3c-6.3,3.2-13,5.6-19.6,7.8c-0.9,0.3-1.7,0.6-2.6,0.8h14.8
		C155.8,313.1,156.1,311.9,157.2,311.9z M181.4,222.2c-2,3.6-4.8,6.6-8.3,8.7c-5.7,3.5-13.1,4.5-19.5,2.6c-6.9-2-12.3-7.1-15.3-13.5
		c-0.3-0.6-0.2-1.3,0.4-1.6c0.5-0.3,1.4-0.2,1.6,0.4c1.6,3.4,3.9,6.6,7,8.9c4.7,3.6,10.6,5,16.4,4c3.3-0.5,6.4-1.7,9.1-3.6
		c2.7-1.8,4.9-4.4,6.5-7.2C180.1,219.7,182.1,220.9,181.4,222.2z"/>
	<path class="st5" d="M173.5,297.1c2.2-0.8,4.3-1.6,6.5-2.4c5.6-2.1,11.3-4.1,16.9-6.2c-0.3-3.2,0.1-6.6-0.7-9.6
		c-0.1-0.2-0.1-0.4-0.2-0.6c0-0.1-0.1-0.3-0.1-0.3c-0.1-0.3-0.3-0.5-0.4-0.8l0,0l0,0l-0.1-0.1c-0.1-0.1-0.1-0.1-0.2-0.2l0,0
		c-0.1-0.1-0.2-0.1-0.3-0.2l-0.2-0.1c-0.2,0-0.3-0.1-0.5-0.1c-0.1,0-0.1,0-0.2,0c0,0,0,0-0.1,0c-0.3,0-0.7,0-1,0
		c-0.8,0-1.5,0.1-2.3,0.2c-3.2,0.6-6.4,1.5-9.1,3.1c-2.9,1.7-6.3,2.7-9.6,3.5c-1.5,0.4-2.9,0.8-4.4,1.1c2.8,3.7,4.8,8,5.7,12.5
		C173.3,297,173.4,297,173.5,297.1z"/>
	<path class="st6" d="M135.6,191.7c1.5-1.7,2.1-4.2,2.6-6.4c1.2-5.5,1.7-11.2,4.7-16.1c1.3-2.1,3.3-3.9,5.8-4.3
		c2.8-0.5,5.4,0.6,7.6,2.3c1.7-1,3.6-1.6,5.5-1.2c2.4,0.5,4.1,2.5,5.3,4.5c1.3,2.1,1.9,4.5,3,6.8c2,4.2,6.3,7.5,11,7.5
		c0.4-0.6,0.7-1.2,1-1.8c-0.4,0.3-0.9,0.4-1.4,0.1c-4.8-2.4-8.4-6.7-10.2-11.7c-0.2-0.6,0.3-1.3,0.8-1.5c0.7-0.2,1.3,0.2,1.5,0.8
		c1.6,4.4,5,8.1,9.1,10.2c0.4,0.2,0.6,0.7,0.6,1.1c0.2-0.5,0.4-0.9,0.6-1.4c0.3-0.9,0.6-1.9,0.8-2.9c0,0,0,0,0-0.1l0,0
		c0-0.1,0-0.2,0-0.2c0-0.2,0-0.3,0-0.5c0-0.3,0-0.6,0-1c-0.1-3.5-1.1-7.1-2.4-10.3c-1.4-3.6-3.4-7.2-6.2-9.9c-2.5-2.4-5.8-3.8-9.2-4
		c-1.9-0.1-3.8,0.1-5.7,0.5c-0.7,0.1-1.1,0.1-1.8-0.1c-0.6-0.1-1.1-0.3-1.7-0.4c-0.7-0.2-1.3-0.7-1.9-1c-0.9-0.4-1.8-0.6-2.8-0.7
		c-2.1-0.1-4.2,0.4-6.1,1.4c-3.9,2-6.8,5.1-9,8.8c-1.1,1.9-2,3.8-2.8,5.8c-0.9,2-1.8,4-2.7,6c-1.6,3.5-2.8,7.5-1.8,11.3
		C130.8,186.6,132.8,189.8,135.6,191.7z"/>
	<path class="st7" d="M146.1,221c1.7,1.8,3.6,3.5,5.7,4.8c2,1.2,4.3,1.9,6.6,1.9c2.5,0,5-0.7,7.3-1.7s4.4-2.5,6.1-4.3
		c1.8-2,3.2-4.3,4.4-6.7c0.1-0.2,0.2-0.4,0.3-0.7c0,0.9,0,1.8-0.1,2.7c0,0.4,0,0.8,0,1.2c0,1.5,2.4,1.5,2.4,0
		c0.1-2.7,0.2-5.4,0.2-8.2c0-0.1,0-0.2,0-0.2c0-0.4,0-0.8,0-1.2c0-0.2,0-0.4-0.1-0.6c0.5-1.8,1-3.7,1.2-5.6c0,0,0,0,0.1,0
		c3.9-0.8,5.9-5,6.6-8.6c0.6-2.9,0.6-5.9-0.7-8.6c-0.4-0.8-0.9-1.4-1.6-1.8c0.5-1,0.9-2.1,1.2-3.1c0.8-2.6,0.7-5.1,0.3-7.7
		c-0.5-3.1-1.5-6.1-2.8-9c-1.3-3-2.9-5.9-5.1-8.3c-2-2.2-4.5-4-7.3-5c-2.9-1-5.9-1.1-8.9-0.7c-0.7,0.1-1.4,0.2-2.2,0.4
		c-0.4-0.1-0.8-0.2-1.2-0.3c-0.3-0.1-0.6-0.1-0.9-0.2c-0.1,0-0.2,0-0.2-0.1c0,0-0.2-0.1-0.2-0.2c-2-1.4-4.6-1.8-7-1.5
		c-5,0.6-9.6,3.9-12.7,7.8c-3.1,3.9-4.8,8.5-6.9,13c-2,4.2-4,8.6-3.6,13.4c0.3,3.5,2,7,4.4,9.6c-0.4,0-0.9,0.3-1,0.9
		c-0.6,2.3,0.2,4.8,1.2,6.8c0.9,2,2.4,4.1,4.4,5.2c0.1,0.1,0.3,0.1,0.5,0.1c0.8,2.7,1.8,5.4,3.1,7.9c0.5,0.9,1,1.8,1.5,2.6
		C142.8,217.1,144.4,219.1,146.1,221z M184.2,186.3C184.1,186.3,184.2,186.3,184.2,186.3L184.2,186.3z M129.9,183.3
		c-1-3.8,0.3-7.8,1.8-11.3c0.9-2,1.8-4,2.7-6s1.8-3.9,2.8-5.8c2.2-3.7,5.1-6.8,9-8.8c1.9-1,3.9-1.5,6.1-1.4c0.9,0.1,1.9,0.3,2.8,0.7
		c0.7,0.3,1.2,0.9,1.9,1c0.6,0.1,1.1,0.3,1.7,0.4c0.6,0.2,1.1,0.2,1.8,0.1c1.9-0.4,3.8-0.6,5.7-0.5c3.5,0.2,6.7,1.6,9.2,4
		c2.8,2.7,4.8,6.3,6.2,9.9c1.3,3.3,2.4,6.8,2.4,10.3c0,0.3,0,0.6,0,1c0,0.2,0,0.3,0,0.5c0,0.1,0,0.2,0,0.2l0,0c0,0,0,0,0,0.1
		c-0.2,1-0.5,2-0.8,2.9c-0.2,0.5-0.4,0.9-0.6,1.4c0-0.4-0.2-0.9-0.6-1.1c-4.2-2.1-7.5-5.8-9.1-10.2c-0.2-0.6-0.8-1-1.5-0.8
		c-0.6,0.2-1.1,0.9-0.8,1.5c1.8,5,5.5,9.2,10.2,11.7c0.5,0.2,1,0.2,1.4-0.1c-0.3,0.6-0.7,1.2-1,1.8c-4.8,0.1-9-3.3-11-7.5
		c-1.1-2.2-1.8-4.6-3-6.8c-1.2-2-2.9-4-5.3-4.5c-1.9-0.4-3.9,0.2-5.5,1.2c-2.2-1.7-4.8-2.8-7.6-2.3c-2.5,0.4-4.5,2.1-5.8,4.3
		c-3,4.9-3.4,10.6-4.7,16.1c-0.5,2.2-1.1,4.7-2.6,6.4C132.8,189.8,130.8,186.6,129.9,183.3z M183.7,185.6
		C183.8,185.6,183.8,185.6,183.7,185.6L183.7,185.6z M183.7,185.6L183.7,185.6C183.6,185.6,183.7,185.6,183.7,185.6z M183.7,185.6
		L183.7,185.6L183.7,185.6C183.7,185.6,183.6,185.6,183.7,185.6z M138.3,200.1c-0.1-0.6-0.9-1-1.5-0.8c-0.7,0.2-0.9,0.8-0.8,1.5
		c0,0.1,0,0.2,0.1,0.3c-0.1-0.1-0.2-0.3-0.4-0.4c-0.6-0.7-1.2-1.7-1.6-2.6c-0.4-0.9-0.8-1.8-1-2.8c-0.1-0.5-0.1-0.7-0.1-1.2
		c0-0.2,0-0.4,0-0.7v-0.1c0,0,0,0,0-0.1s0-0.2,0.1-0.3c0-0.1,0-0.2,0-0.2c0.7,0.6,1.4,1.1,2.2,1.5c0.5,0.3,1,0.2,1.5-0.2
		c1.7-1.4,2.6-3.5,3.2-5.6c0,0.2,0.2,0.5,0.3,0.6c0.5,0.5,1.2,0.4,1.7,0c0.6-0.4,1.2-0.8,1.9-1.1h0.1c0.1,0,0.2-0.1,0.2-0.1
		c0.2-0.1,0.3-0.1,0.5-0.2c0.2,0,0.3-0.1,0.5-0.1c0.1,0,0.2,0,0.2,0c0.1,0,0.2,0,0.1,0c-0.1,0-0.1,0,0.1,0c0.1,0,0.2,0,0.2,0
		c0.2,0,0.3,0,0.5,0s0.3,0,0.5,0c0,0,0,0,0.1,0s0.1,0,0.2,0c0.3,0.1,0.6,0.1,0.9,0.2c0.1,0,0.3,0.1,0.4,0.2l0.3,0.1
		c0.6,0.3,1.3,0.2,1.6-0.4c0.3-0.5,0.2-1.4-0.4-1.6c-1.5-0.7-3.1-1.1-4.7-0.9c-1.8,0.2-3.4,1.1-4.8,2.2l0,0c0.6-2.1,0.9-4.3,1.3-6.5
		c0.5-2.8,1.2-5.6,2.3-8.2c0.9-2.2,2-4.3,4.2-5.2c2.6-1.1,5.4,0.1,7.4,1.9l0.1,0.1c0.3,0.3,0.8,0.4,1.3,0.1c1-0.7,2-1.2,3.2-1.4
		c0.1,0,0,0,0.2,0c0.1,0,0.3,0,0.4,0c0.4,0,0.4,0,0.7,0.1c0.6,0.1,0.9,0.3,1.5,0.7c1.3,0.9,2.2,2.3,2.9,3.7s1.2,2.9,1.8,4.3
		c1.3,3.2,3.4,5.9,6.3,7.8c1.4,0.9,3,1.6,4.6,2c0.8,0.2,1.7,0.3,2.6,0.3c0.8,0,1.5,0,1.9-0.7c0.1-0.2,0.3-0.4,0.4-0.5
		c0.1,0,0.1-0.1,0.2-0.1c0.1-0.1,0.2-0.1,0.3-0.2l0,0l0,0c0,0,0.1,0.1,0.1,0.2c0.1,0.1,0.1,0.2,0.2,0.3c0,0.1,0.1,0.1,0.1,0.2
		c0,0,0,0,0,0.1c0.2,0.6,0.4,1.2,0.5,1.8c0.1,0.3,0.1,0.6,0.2,0.9l0,0v0.1c0,0.1,0,0.3,0,0.4c0,0.4,0,0.8,0,1.2
		c-0.1,0.8-0.1,1.2-0.3,2c-0.3,1.5-0.8,3-1.5,4.4c-0.7,1.2-1.5,2.1-2.6,2.5c0.1-0.8,0.1-1.5,0.1-2.3c0-1.5-2.4-1.5-2.4,0
		c-0.1,4.9-1.2,9.9-3.2,14.4c-1.9,4.3-4.5,8.7-8.7,11.1c-3.6,2.1-8.4,3.2-12.3,1.3c-2-1-3.7-2.5-5.3-4.1c-1.7-1.6-3.2-3.4-4.5-5.4
		C141.2,210.4,139.1,205.4,138.3,200.1z"/>
	<path class="st7" d="M161.1,186.5c0.3-0.2,0.4-0.3,0.7-0.5c0.1-0.1,0.3-0.2,0.4-0.2c0.1,0,0.1-0.1,0.2-0.1c0,0,0,0,0.1,0
		c0.3-0.1,0.6-0.2,0.9-0.2h0.1c0.1,0,0.1,0,0.2,0c0.2,0,0.3,0,0.5,0c0.3,0,0.6,0,0.9,0c0.1,0,0.1,0,0.2,0l0,0c0.2,0,0.3,0.1,0.5,0.1
		c0.7,0.1,1.3,0.3,2,0.5c0.6,0.2,1.3-0.2,1.5-0.8c0.1-0.6-0.2-1.3-0.8-1.5c-1.5-0.4-3-0.8-4.5-0.7c-1.7,0.1-3.2,0.7-4.4,1.9
		c-0.5,0.4-0.4,1.3,0,1.7C159.9,187,160.7,187,161.1,186.5z"/>
	<path class="st7" d="M152.9,200.6c-0.2,0.6,0.2,1.3,0.8,1.5c0.7,0.2,1.3-0.2,1.5-0.8c1.1-3.2,0.8-6.7-0.7-9.7
		c-0.3-0.6-1.1-0.7-1.6-0.4c-0.6,0.3-0.7,1.1-0.4,1.6C153.6,195.2,153.8,198,152.9,200.6z"/>
	<path class="st7" d="M155,205.9c-0.1,0.1-0.2,0.2-0.3,0.3c-0.2,0.3-0.2,0.6-0.1,0.9c0.1,0.3,0.3,0.6,0.6,0.7c0.1,0,0.2,0.1,0.3,0.1
		c0.2,0.1,0.4,0.1,0.6,0c0.7-0.1,1.3-0.2,2-0.3c0.2,0,0.3-0.1,0.4-0.2c0.1-0.1,0.2-0.2,0.3-0.3c0.2-0.3,0.2-0.6,0.1-0.9
		c-0.1-0.3-0.3-0.6-0.6-0.7c-0.1,0-0.2-0.1-0.3-0.1c-0.2-0.1-0.4-0.1-0.6,0c-0.7,0.1-1.3,0.2-2,0.3
		C155.3,205.8,155.1,205.8,155,205.9z"/>
	<path class="st7" d="M146.8,195.1c1.5,0,1.6-2.4,0-2.4C145.3,192.7,145.3,195.1,146.8,195.1z"/>
	<path class="st7" d="M164.4,193.6c1.5,0,1.6-2.4,0-2.4C162.9,191.2,162.9,193.6,164.4,193.6z"/>
	<path class="st7" d="M156.2,218.2c1.5,0.6,3.1,0.5,4.6-0.1c1.3-0.6,2.4-1.7,3.3-2.8c0.6-0.7,1.2-1.5,1.7-2.4c0.4-0.7-0.1-1.9-1-1.8
		c-3.6,0.4-7.2,0.8-10.8,1.2c-0.5,0.1-1,0.1-1.5,0.2c-0.4,0-0.7,0.2-0.9,0.5c-0.3,0.3-0.4,0.8-0.1,1.3
		C152.5,215.9,154.2,217.4,156.2,218.2z M162.2,213.7c-0.6,0.7-1.2,1.3-1.9,1.8c-1,0.7-1.9,0.9-3,0.5c-1-0.3-1.8-0.8-2.5-1.5
		C157.2,214.2,159.7,214,162.2,213.7z"/>
	<path class="st7" d="M106,251.5c-0.2-3-0.4-6-0.6-9c-0.2-4.3-0.4-8.6,1.2-12.7c1.4-3.7,4.3-6.1,7.7-7.8c3.5-1.8,7.3-2.9,11.1-3.8
		c4.1-1,8.3-1.7,12.4-2.9c1-0.3,1-1.4,0.6-2c-0.3-0.3-0.7-0.5-1.2-0.4c-7.7,2.2-15.8,3.1-23.1,6.5c-3.6,1.7-7,4.2-8.9,7.8
		c-2.1,4-2.4,8.7-2.2,13.1c0.1,3.7,0.4,7.4,0.7,11.1c0,0.6,0.5,1.2,1.2,1.2l0,0C105.5,252.7,106.1,252.2,106,251.5z"/>
	<path class="st7" d="M179.3,221c-1.6,2.9-3.7,5.4-6.5,7.2c-2.7,1.9-5.9,3-9.1,3.6c-5.8,0.9-11.7-0.4-16.4-4c-3-2.3-5.3-5.5-7-8.9
		c-0.3-0.6-1.1-0.7-1.6-0.4c-0.6,0.4-0.7,1.1-0.4,1.6c3,6.4,8.4,11.5,15.3,13.5c6.4,1.9,13.8,0.8,19.5-2.6c3.5-2.1,6.4-5.2,8.3-8.7
		C182.1,220.9,180.1,219.7,179.3,221z"/>
	<path class="st7" d="M228.2,288.3c-0.5-2.9-1.4-5.8-2.5-8.5c-1.5-4-2.8-8.1-4-12.2c-2.4-8.3-4.5-16.6-7-24.9
		c-1.3-4.2-2.6-8.3-4.2-12.4c-0.7-1.9-1.4-4-2.5-5.7c-1-1.5-2.2-2.8-3.5-3.9c-2.6-2.3-5.8-4-9-5.1c-3-1.1-6.2-1.7-9.2-2.9
		c-1.6-0.6-3-1.4-4.5-2.2c-0.6-0.3-1.2-0.1-1.5,0.3c-0.4,0.5-0.5,1.4,0.3,1.8c2.8,1.6,5.7,2.8,8.8,3.7c3.2,0.9,6.3,1.8,9.3,3.4
		c2.9,1.6,5.7,3.7,7.5,6.5c1.1,1.7,1.7,3.7,2.4,5.6c0.8,2,1.5,4,2.1,6.1c2.7,8,4.7,16.2,7,24.4c1.1,4.1,2.3,8.2,3.7,12.3
		c1.1,3.4,2.5,6.7,3.5,10.1c0.8,2.6,1.3,5.3,1.5,8c0.1,1.3,0.1,2.5,0,3.8s-0.2,2.1-0.5,3.3c-1,4.4-3.5,7.9-7.5,10
		c-4.9,2.5-10.9,2.4-16.4,2.5c-6.1,0.2-12.2,0.2-18.2,0.2c-5.6,0-11.2-0.1-16.9-0.2c-3.1-0.1-6.2-0.1-9.3-0.2c-0.1,0-0.3,0-0.4,0
		c-1.1,0-1.4,1.2-0.9,1.9c0.2,0.3,0.5,0.5,0.9,0.5c2.2,0.1,4.5,0.1,6.7,0.2c5.3,0.1,10.6,0.2,15.9,0.2c6.3,0,12.6,0,18.8-0.1
		c2.8-0.1,5.6-0.2,8.4-0.3c3.2-0.1,6.3-0.4,9.3-1.4c4.7-1.6,8.7-4.7,10.7-9.4C229.2,298.8,229.2,293.4,228.2,288.3z"/>
	<path class="st7" d="M163.7,305.2c3-1.5,5.9-3.2,8.5-5.3c0.2,0,0.3,0,0.5,0c0.3-0.1,0.5-0.2,0.6-0.4c0.3,0.1,0.5,0.2,0.8,0.1
		c7.7-2.8,15.5-5.7,23.2-8.5c2.2-0.8,4.4-1.6,6.6-2.4c0.6-0.2,1-0.8,0.8-1.5c-0.2-0.6-0.9-1.1-1.5-0.8c-1.3,0.5-2.6,1-3.9,1.4
		c0-0.2,0-0.5,0-0.7c0-0.8,0-1.7-0.1-2.5c0-1.8-0.1-3.6-0.4-5.3c-0.3-1.4-0.8-3-2-4c-0.9-0.7-2-1-3.1-1v-0.1
		c1.5-6.9,2.5-13.9,3.8-20.8c0.4-2.1,0.8-4.2,1.3-6.3c0.3-1.5-2-2.2-2.3-0.6c-1.5,6.9-2.5,13.9-3.8,20.8c-0.4,2.1-0.8,4.2-1.3,6.3
		c-0.1,0.3,0,0.6,0.1,0.9c-3.3,0.3-6.7,1.4-9.7,2.8c-1.2,0.6-2.5,1.4-3.7,1.9c-1.7,0.7-3.4,1.3-5.2,1.8c-2.4,0.7-4.8,1.3-7.2,1.8
		c0-0.1-0.1-0.1-0.1-0.2c-0.4-0.5-1-0.4-1.4-0.2c-0.2-0.1-0.4-0.2-0.6-0.1c-4.8,0.5-9.6,1-14.4,1.5c-1.5,0.1-2.9,0.3-4.4,0.4
		c-0.6,0.1-1.2,0.5-1.2,1.2c0,0.6,0.6,1.3,1.2,1.2c5.7-0.5,11.3-1.1,17-1.7c0.6-0.1,1.2-0.1,1.8-0.2c0.2,0,0.3-0.1,0.4-0.1
		c3.5,3.8,5.8,8.6,6.8,13.6c-0.6,0.5-1,0.8-1.5,1.2c-0.6,0.4-1.2,0.9-1.9,1.3c-1.4,0.9-2.8,1.7-4.2,2.4c-3.1,1.6-6.3,3-9.5,4.3
		c-5.6,2.2-11.4,4.2-17.1,5.9c-1.2,0.3-2.4,0.7-3.5,1c-0.5,0.1-0.7,0.4-0.8,0.8c-0.2,0.8,0.4,1.8,1.5,1.5c2.6-0.7,5.1-1.4,7.6-2.2
		c0.9-0.3,1.7-0.5,2.6-0.8C150.7,310.8,157.4,308.3,163.7,305.2z M167.5,284.4c1.5-0.3,3-0.7,4.4-1.1c3.2-0.9,6.6-1.8,9.6-3.5
		c2.7-1.6,6-2.6,9.1-3.1c0.8-0.1,1.5-0.2,2.3-0.2c0.3,0,0.7,0,1,0h0.1c0.1,0,0.1,0,0.2,0c0.2,0,0.3,0.1,0.5,0.1
		c0.1,0,0.2,0.1,0.2,0.1c0.1,0.1,0.2,0.1,0.3,0.2l0,0c0.1,0.1,0.1,0.1,0.2,0.2l0.1,0.1l0,0l0,0c0.2,0.2,0.3,0.5,0.4,0.8
		c0,0,0.1,0.2,0.1,0.3c0.1,0.2,0.1,0.4,0.2,0.6c0.8,3,0.4,6.4,0.7,9.6c-5.6,2.1-11.3,4.1-16.9,6.2c-2.2,0.8-4.3,1.6-6.5,2.4
		c-0.1-0.1-0.2-0.1-0.3-0.1C172.3,292.4,170.3,288.1,167.5,284.4z"/>
	<path class="st6" d="M192.2,154.2c0.6,0.2,1.3-0.2,1.5-0.8c0.7-2.4,1.4-4.9,2.1-7.3c0.1-0.4,0.2-0.7,0.3-1.1
		c0.2-0.6-0.2-1.3-0.8-1.5s-1.3,0.2-1.5,0.8c-0.7,2.4-1.4,4.9-2.1,7.3c-0.1,0.4-0.2,0.7-0.3,1.1C191.2,153.3,191.6,154,192.2,154.2z
		"/>
	<path class="st6" d="M201.4,159.9c2.7-2.6,5.4-5.1,8-7.7c0.4-0.4,0.8-0.7,1.2-1.1c1.1-1.1-0.6-2.8-1.7-1.7c-2.7,2.6-5.4,5.1-8,7.7
		c-0.4,0.4-0.8,0.7-1.2,1.1C198.6,159.2,200.3,160.9,201.4,159.9z"/>
	<path class="st6" d="M205.4,165.5c-0.6,0.2-1,0.8-0.8,1.5c0.2,0.6,0.9,1,1.5,0.8c2.4-0.7,4.9-1.4,7.3-2.1c0.4-0.1,0.7-0.2,1.1-0.3
		c0.6-0.2,1-0.8,0.8-1.5c-0.2-0.6-0.9-1-1.5-0.8c-2.4,0.7-4.9,1.4-7.3,2.1C206.1,165.2,205.8,165.3,205.4,165.5z"/>
	<path class="st5" d="M119.7,113.8c-0.7-6.5-4.5-12.5-10-16.1c-5.7-3.7-12.9-4.6-19.4-2.4c-6.1,2.1-11.3,6.9-13.6,13
		c-2.5,6.4-1.9,13.8,1.6,19.7c3.5,5.8,9.5,9.7,16.2,10.7c0.4,0.1,0.8,0.5,0.8,0.8c0.1,0.6,0.3,1.1,0.4,1.7c0.6,2.3,1.1,4.6,1.7,6.9
		c0.7-2.9,1.4-5.7,2.1-8.6c0.1-0.4,0.4-0.8,0.8-0.8c2.4-0.3,4.7-1,6.8-2.1c7.7-3.8,12.6-11.6,12.6-20.1
		C119.9,115.6,119.8,114.7,119.7,113.8z M107.6,111.1c-0.5,0.5-0.9,1-1.4,1.6c-3.2,3.6-6.5,7.2-9.7,10.7c-0.5,0.5-1.2,0.4-1.7,0
		c-1.9-1.5-3.8-3-5.7-4.5c-0.5-0.4-0.4-1.3,0-1.7c0.5-0.5,1.2-0.4,1.7,0c1.6,1.2,3.1,2.5,4.7,3.7c0.2-0.3,0.5-0.5,0.7-0.8
		c3.2-3.6,6.5-7.2,9.7-10.7C107,108.2,108.7,109.9,107.6,111.1z"/>
	<path class="st7" d="M113.2,97.4c-5.9-4.8-13.6-6.6-21-5.1c-7.1,1.5-13.3,6.3-16.7,12.7c-3.5,6.8-3.7,14.9-0.6,21.8
		c3,6.7,9.2,11.8,16.3,13.7c0.7,0.2,1.3,0.3,2,0.4c0.9,3.7,1.8,7.3,2.7,11c0.1,0.6,0.3,1.1,0.4,1.7c0.3,1.1,2,1.1,2.3,0
		c0.9-3.9,1.9-7.8,2.8-11.7c0.1-0.3,0.2-0.6,0.2-0.9c8.9-1.5,16.4-8,19.3-16.5c0.9-2.5,1.3-5.2,1.3-7.9
		C122.3,109.1,119,102,113.2,97.4z M107.3,136.6c-2.1,1.1-4.5,1.7-6.8,2.1c-0.4,0.1-0.8,0.5-0.8,0.8c-0.7,2.9-1.4,5.7-2.1,8.6
		c-0.6-2.3-1.1-4.6-1.7-6.9c-0.1-0.6-0.3-1.1-0.4-1.7c-0.1-0.4-0.4-0.8-0.8-0.8c-6.7-1-12.7-4.8-16.2-10.7
		c-3.6-5.9-4.1-13.3-1.6-19.7c2.3-6.1,7.5-10.9,13.6-13c6.5-2.2,13.7-1.3,19.4,2.4c5.5,3.6,9.3,9.6,10,16.1c0.1,0.9,0.1,1.8,0.2,2.7
		C119.9,125,114.9,132.9,107.3,136.6z"/>
	<path class="st6" d="M105.9,109.4c-3.2,3.6-6.5,7.2-9.7,10.7c-0.2,0.3-0.5,0.5-0.7,0.8c-1.6-1.2-3.1-2.5-4.7-3.7
		c-0.5-0.4-1.2-0.5-1.7,0c-0.4,0.4-0.5,1.3,0,1.7c1.9,1.5,3.8,3,5.7,4.5c0.5,0.4,1.2,0.5,1.7,0c3.2-3.6,6.5-7.2,9.7-10.7
		c0.5-0.5,0.9-1,1.4-1.6C108.7,109.9,107,108.2,105.9,109.4z"/>
	<path class="st5" d="M80.5,190.9L80.5,190.9C80.5,191,80.5,191,80.5,190.9L80.5,190.9z"/>
	<path class="st5" d="M80.5,191C80.5,191,80.6,191,80.5,191C80.6,191,80.5,191,80.5,191L80.5,191z"/>
	<path class="st5" d="M71.1,235.5c0.3,0.3,0.6,0.5,0.9,0.7l0,0c0,0,0,0,0.1,0.1s0.2,0.2,0.3,0.2c0.2,0.1,0.3,0.2,0.5,0.4
		c0.4,0.3,0.9,0.6,1.3,0.8c1.1,0.7,2.3,1.2,3.6,1.7c1.2,0.4,2.4,0.8,3.6,1.2c0-0.1,0.1-0.1,0.1-0.2c0.8-1.2,1.2-2.5,1.1-3.9
		c-0.1-1.2-0.6-2.6-1-3.9c-0.7-1.9-1.4-3.8-1.6-5.8c-1.1,1.4-2.4,2.7-3.8,3.8c-1.8,1.4-3.9,2.6-6.1,3.1c-0.8,0.2-1.6,0.2-2.4,0.3
		c-0.1,0.3-0.1,0.6-0.2,0.9c0.5,0.4,1,0.8,1.6,1.2C69.3,235.3,70.4,234.8,71.1,235.5z"/>
	<path class="st5" d="M77.4,178.3L77.4,178.3c-0.8,6.1-4.5,14.2-11.8,13.8c-0.4,0-0.8-0.2-1-0.6c-1.2,0.2-2.3,0.3-3.4,0.3
		c-1.4,0.9-3,1.5-4.8,1.5c-0.6,0-1-0.4-1.1-0.9c-0.8,0.2-1.7,0.3-2.5,0.3c-2.3,2.3-5,4.2-7.6,6c-0.4,0.3-0.9,0.2-1.3,0
		c-0.3,0.7-1.3,1.2-2,0.5c-0.5-0.5-0.8-0.7-1.5-0.8s-1.1,0-1.6,0.4c-1.1,1-1.4,2.4-1.3,3.7c0.2,2.1,1.2,4.2,2.8,5.6
		c1.4-0.7,3.1-0.4,4.3,0.7c1.2,1.1,1.4,2.9,0.7,4.3c-0.6,1.3-2,2.1-3.4,2c-0.1,0.7-0.3,1.4-0.6,2.2c0,0.2,0,0.3-0.1,0.5
		c0.1,0,0.1,0,0.2,0c0.7,0.2,0.9,0.8,0.8,1.5c-0.3,1.6-0.2,3.7,0,5.4c0.2,2,0.6,4,1,6c0.3,1.2,0.6,2.5,1,3.7c0.5,0.4,1,0.8,1.6,1.1
		c0.4-0.4,1.1-0.5,1.6,0c0.2,0.2,0.4,0.4,0.6,0.6c0.2,0.2,0.3,0.2,0.6,0.4c0.6,0.4,1.2,0.8,1.9,1.1c2.3,1.3,4.9,2.4,7.5,3.1
		c2,0.5,4.1,0.4,6.1-0.2c0.5-2.2,0.7-4.6,1.2-6.8c-0.9-0.1-1.8-0.3-2.7-0.6c-4.8-1.5-9.3-4.6-12.7-8.3c-1.1-1.1,0.6-2.8,1.7-1.7
		c3.5,3.8,8.2,7.1,13.4,8.1c2.1,0.4,4.3,0.3,6.3-0.6c1.9-0.8,3.6-2.1,5-3.5c3.2-3.2,5.2-7.1,6.2-11.4c1-4.5,1-9.2,1.5-13.8
		c0.5-4.8,1.1-9.5,0.2-14.3c0-0.1,0-0.1,0-0.2C82.9,183.9,80.8,180.6,77.4,178.3z M71.8,198.7c0.2-0.6,0.8-1,1.5-0.8
		c0.6,0.2,1,0.9,0.8,1.5c-0.5,1.4-0.5,3-0.3,4.4c0.1,0.4,0.2,0.8,0.3,1.1c0.1,0.2,0.1,0.4,0.2,0.5c0,0.1,0.1,0.2,0.1,0.3
		c0,0,0,0,0,0.1c0.1,0.3,0.3,0.6,0.4,0.8c0,0.1,0.1,0.1,0.1,0.2l0.1,0.1l0,0c0,0.1,0.1,0.1,0.2,0.2c0.4,0.5,0.5,1.2,0,1.7
		s-1.3,0.5-1.7,0c-1.1-1.2-1.7-2.8-2-4.4C71.2,202.5,71.2,200.6,71.8,198.7z M70.7,211.8c0-0.1,0.1-0.3,0.2-0.4
		c0.2-0.2,0.5-0.4,0.9-0.4c0.1,0,0.2,0,0.4,0c0.1,0,0.2,0,0.3-0.1c0.3-0.1,0.7-0.1,1-0.1s0.6,0.1,0.9,0.4c0.2,0.2,0.3,0.5,0.4,0.9
		c0,0.2,0,0.3-0.1,0.5c0,0.1-0.1,0.3-0.2,0.4c-0.2,0.2-0.5,0.4-0.9,0.4c-0.1,0-0.2,0-0.4,0c-0.1,0-0.2,0-0.3,0.1
		c-0.3,0.1-0.7,0.1-1,0.1s-0.6-0.1-0.9-0.4c-0.2-0.2-0.3-0.5-0.4-0.9C70.6,212.1,70.6,212,70.7,211.8z M62.5,201.3
		c-1.6,0-1.5-2.4,0-2.4C64,198.8,64,201.3,62.5,201.3z M76.3,218.8C76.3,218.8,76.2,218.8,76.3,218.8
		C76.2,218.8,76.2,218.8,76.3,218.8c0,0.1,0,0.1-0.1,0.2v0.1c-0.4,1.2-1,2.3-1.8,3.4c-1.2,1.6-3.1,2.9-5.2,2.5
		c-2.5-0.5-3.9-3.2-4.8-5.3c-0.3-0.8,0.5-1.5,1.2-1.5c0.4,0,0.8-0.1,1.2-0.1c2.7-0.2,5.4-0.4,8.1-0.6l0,0H75l0,0c0,0,0,0,0.1,0
		c0.3,0,0.6,0.2,0.8,0.4c0,0,0,0,0.1,0.1c0,0,0,0.1,0.1,0.1C76.3,218.1,76.3,218.4,76.3,218.8z M77.9,200.4c-1.6,0-1.5-2.4,0-2.4
		S79.4,200.4,77.9,200.4z M82.6,189.7c0.4,0.6,0.1,1.3-0.4,1.6c-0.6,0.4-1.3,0.1-1.6-0.4l-0.1-0.1l0,0l-0.1-0.1l-0.1-0.1
		c-0.1,0-0.1-0.1-0.2-0.1c-0.1-0.1-0.2-0.1-0.3-0.2c-0.1,0-0.1-0.1-0.2-0.1s-0.3-0.1-0.4-0.1c0,0-0.4,0-0.4-0.1l0,0
		c-0.1,0-0.1,0-0.2,0c-0.3,0-0.6,0-0.9,0h-0.1l0,0c-0.2,0-0.3,0.1-0.5,0.1c-0.1,0-0.2,0.1-0.4,0.1c0,0-0.1,0.1-0.2,0.1
		c-0.1,0.1-0.2,0.1-0.3,0.2c-0.1,0-0.1,0.1-0.2,0.1l0,0c-0.5,0.4-1.2,0.4-1.7,0s-0.5-1.3,0-1.7c1.2-1,2.8-1.4,4.3-1.3
		C80.1,187.8,81.7,188.4,82.6,189.7z"/>
	<path class="st5" d="M85.7,184.2c-0.7,0-1.1-0.6-1.2-1.2c-0.2-2-0.7-4.1-1.4-6c-2.3-6-7.3-10.6-13.6-11.7c-0.6-0.1-1-0.9-0.8-1.5
		c0.2-0.7,0.8-1,1.5-0.8c0.1,0,0.3,0.1,0.4,0.1c-1-0.5-2.1-0.8-3.3-1c0.3,0.3,0.5,0.7,0.4,1.2c-0.2,0.6-0.9,1.1-1.5,0.8
		c-1-0.4-2-0.7-3-0.9c-7.5-1.7-15.7,1-21.4,6c-2.7,2.4-4.8,5.4-6.1,8.8c-1.3,3.5-2,7.2-2.5,10.8c-0.5,3.7-0.9,7.5-1.6,11.2
		c-0.8,4-2,7.8-3.5,11.6c-3.1,7.9-7.4,15.4-12.7,22c-1.3,1.6-2.7,3.2-4.2,4.8c-1.2,1.2-2.3,2.4-3.3,3.8c-1,1.4-1.9,3-2.5,4.6
		c-0.3,0.9-0.6,1.9-0.6,2.8c0.5-0.6,1-1.1,1.6-1.6c2-1.6,4.1-3,6.4-4.3c2.5-1.3,5.1-2.5,7.7-3.3c1.4-0.6,2.8-1.2,4.2-1.8
		c0.6-0.2,1.1-0.2,1.4,0.2c0.5-0.6,0.9-1.2,1.4-1.7c-0.1-0.8-0.2-1.5-0.2-2.3c-0.1-3.8,0.5-7.6,1-11.4c0.1-0.6,0.9-1,1.5-0.8
		c0.7,0.2,0.9,0.8,0.8,1.5c-0.6,4.1-1.2,8.3-0.8,12.5c0.3,3.4,1.5,6.7,3.4,9.6c1.2,1.8,2.4,3.5,3.5,5.2c1.5,2.3,2.9,4.6,4,7.1
		c0.7,1.7,1.6,3.9,1.2,5.8c1.2,0,2.3,0,3.5-0.4c0-0.3,0.1-0.5,0.3-0.7c2.5-2,3.1-4.7,3-7.8c-0.2-3-1.1-6.1-2.2-9
		c-1-2.7-2.2-5.3-3.4-7.9c-1.4-3-2.1-6.3-2.7-9.5c-0.6-3.4-1.1-7-0.5-10.5c0.1-0.5,0.7-0.9,1.2-0.9c0.1-0.2,0.1-0.3,0.2-0.5
		c0.1-0.7,0.1-1.4,0.2-2.2c-1.5-0.2-2.7-1.3-3.1-2.7c0-0.1,0-0.2,0-0.3c-0.1-0.8,0-1.6,0.3-2.3c-0.4-0.3-0.7-0.7-1-1.1
		c-2.1-2.6-3.3-6.4-1.9-9.6c0.6-1.4,1.8-2.8,3.3-3.1c1.6-0.4,3.2,0.2,4.4,1.3c0.1-0.2,0.3-0.5,0.5-0.6c2.9-2.1,5.9-4.2,8.4-6.9
		c2.2-2.4,3.8-5.3,4.6-8.5c0.4-1.5,2.7-0.9,2.3,0.6c-0.8,3.5-2.6,6.7-5,9.4c-0.4,0.5-0.9,0.9-1.3,1.4c0.8,0,1.7-0.1,2.5-0.3
		c-0.2-0.7,0.2-1.5,1.1-1.5c2.6,0,4.9-1.8,6.5-4c1.7-2.3,3-5,3.7-7.8c0.4-1.5,2.7-0.9,2.3,0.6c-0.8,3.1-2.2,6.2-4.2,8.8
		c-1,1.3-2.1,2.4-3.5,3.3c1.1,0,2.3-0.1,3.4-0.3c-0.1-0.2-0.2-0.4-0.2-0.6c0-0.6,0.6-1.2,1.2-1.2c2.7,0.2,4.9-1.2,6.4-3.5
		c1.7-2.5,2.6-5.5,3.1-8.5c0.1-0.6,0.9-1,1.5-0.8c0.7,0.2,0.9,0.8,0.8,1.5c3.4,2.4,5.5,5.6,6.8,9.3c-0.1-0.6,0.2-1.2,0.9-1.3
		c0.2-0.1,0.4,0,0.6,0C85.7,185.6,85.7,184.9,85.7,184.2L85.7,184.2z"/>
	<path class="st5" d="M42,264.4c0,0.2-0.1,0.3-0.1,0.5c-0.2,0.6-0.8,1-1.5,0.8c-0.6-0.2-1.1-0.9-0.8-1.5c0-0.1,0.1-0.2,0.1-0.3v-0.1
		c0-0.2,0-0.4,0-0.7c0-0.1,0-0.2,0-0.4l0,0c0-0.1,0-0.1,0-0.2c-0.1-0.3-0.1-0.6-0.2-0.8c-0.4-1.4-0.8-2.4-1.5-3.6
		c-1.2-2.4-2.7-4.7-4.2-6.9c-1.2-1.8-2.5-3.5-3.5-5.4c-1.5-2.7-2.4-5.7-2.7-8.7c-0.5,0.5-0.9,1.1-1.4,1.7c0.1,0.1,0.2,0.3,0.3,0.5
		c0.5,1.5,1.1,3,1.6,4.4c2.4,6.4,4.7,12.9,7.1,19.3c1.4,3.7,2.7,7.5,4.1,11.2c0.5,0,1,0,1.5,0.1c3.9,0.2,7.8,0.5,11.6,1.2
		c3.8,0.6,7.7,1.4,11.1,3.2c1.2-1.3,2.5-2.6,3.7-3.9c1.3-1.3,2.4-2.7,3.9-3.7c1.5-1.1,3.1-1.7,4.8-2.4c0.3-0.1,0.5-0.2,0.8-0.3
		c-0.2-1.9-0.5-3.7-0.8-5.5c-0.8-5-1.7-10-2.7-14.9c-0.6-3.1-1.3-6.2-1.9-9.3v-0.1c-0.6-0.4-1.2-0.9-1.8-1.4
		c-0.4-0.3-0.4-0.7-0.3-1.1c-0.5-0.4-1-0.9-1.6-1.2c-0.3,1.5-0.5,3.1-0.8,4.7c0.2-0.1,0.3-0.2,0.5-0.3c1.3-0.8,2.5,1.3,1.2,2.1
		c-2,1.2-4.3,2-6.7,2.2c-3.2,0.3-6-0.7-8.9-1.9c-1.4-0.6-2.8-1.3-4.1-2c-1.1-0.6-2.2-1.4-3.1-2.3c-0.5-0.6-0.4-1.3,0.1-1.7
		c-0.6-0.3-1.1-0.7-1.6-1.1c0.1,0.4,0.3,0.9,0.4,1.3c0.4,1.2,0.9,2.2,1.5,3.4c1.3,2.9,2.6,5.8,3.6,8.8c1.8,5.5,3,12.9-2.2,17
		c-0.5,0.4-1.2,0.5-1.7,0c-0.2-0.2-0.4-0.6-0.3-1C44.3,264.4,43.1,264.4,42,264.4z"/>
	<path class="st5" d="M41.4,215.1c0,0.8-0.1,1.5-0.2,2.2c0.3-0.7,0.5-1.4,0.6-2.2c-0.1,0-0.1,0-0.2,0
		C41.6,215.1,41.5,215.1,41.4,215.1z"/>
	<path class="st5" d="M41.2,217.8c0-0.2,0-0.3,0.1-0.5c-0.1,0.2-0.1,0.3-0.2,0.5H41.2z"/>
	<path class="st5" d="M102.2,292.5c-0.5-1.9-1.1-3.7-1.5-5.6c-0.1-0.2-0.1-0.4-0.2-0.6c-0.3,0.3-0.7,0.5-1,0.6
		c-0.5,0.1-0.9,0.1-1.4,0c-1-0.2-2.3-0.7-3.3-1.6c-0.4,0-0.8,0-1.2,0c-1.4,0.7-2.7,1.3-4.2,1.7c-0.7,0.2-1.5,0.4-2.3,0.6
		c0,0.1,0,0.2,0,0.3l0,0v0.1c0.1,0.5,0.1,1,0.2,1.5c0.2,1.3,0.4,2.6,0.4,3.9c0.1,2.6-0.2,5.1-1.5,7.4c-1.5,2.6-3.3,5.1-4.7,7.9
		c-1,2-1.5,4.2-2,6.4h28.4c-0.1-0.5-0.3-1-0.4-1.4C105.6,306.7,104,299.6,102.2,292.5z"/>
	<path class="st5" d="M124.8,313.7c1.3-3.6,2.9-7,5-10.3c1-1.6,2.1-3.2,3.3-4.7c0.9-1.2,1.5-1.8,2.3-3c1.1-1.9,2.1-4,3-6
		c0.1-0.2,0.1-0.3,0.2-0.5c0,0,0.1-0.1,0.1-0.2c0.1-0.1,0.1-0.3,0.2-0.4c0.1-0.3,0.3-0.6,0.4-0.9c0.1-0.2,0.2-0.4,0.2-0.6
		c0.1-0.5,0.1-1,0.2-1.5c0,0,0-0.2,0-0.3c0-0.1,0-0.1,0-0.2c0-0.2,0.1-0.4,0.1-0.7c0.1-0.6,0.1-1.1,0.2-1.7c0.4-2.8,0.7-5.5,1-8.3
		c0.2-1.4,0.4-2.9,0.5-4.3c0-0.5,0.2-1.5-0.3-1.8c-0.4-0.2-0.7,0.2-0.9,0.5c-0.4,0.6-0.4,1.4-0.6,2.1c-0.1,0.7-0.3,1.5-0.4,2.2
		c-0.2,1.4-0.5,2.8-0.8,4.2c-0.2,0.9-0.3,1.8-0.5,2.7l0,0c0.1,0.2,0.1,0.5,0.1,0.7c0.2,1.4,0.4,2.8,0.6,4.3c0.2,1.4-2.1,1.6-2.4,0.3
		c-0.2-1.2-0.5-2.3-0.8-3.4c-0.5-1.8-0.9-3.2-2.1-4.7c-1.1-1.5-2.6-2.7-3.8-4.2c-0.7-0.8-1.5-1.7-2.3-2.5c-0.3-0.3-0.6-0.6-0.9-0.8
		c-0.3-0.1-0.5-0.2-0.8-0.1l0,0c0,0,0,0-0.1,0s-0.2,0-0.2,0.1c0.1,0-0.2,0.2-0.2,0.1c-0.4,0.3-0.6,0.8-0.5,1.3
		c0.1,0.4,0.3,0.7,0.5,1c0.1,0.1,0.1,0.2,0.2,0.2c1,1.2,2,2.3,3,3.5s2.2,2.4,2.9,3.8c0.7,1.2,1.1,2.5,1.6,3.8
		c0.3,0.9,0.6,1.7,0.9,2.6c0.2,0.6-0.2,1.2-0.7,1.4c-0.6,0.3-1.2,0-1.5-0.5c-1.2-1.7-2.3-3.3-3.4-5c-1.5-2.2-2.8-4.6-4.3-6.7
		c-0.3-0.5-0.7-0.9-1-1.4l-0.1-0.1c-0.1-0.1-0.1-0.1-0.1-0.1c-0.1,0-0.2-0.1-0.2-0.1c-0.1,0-0.1,0-0.2-0.1c-0.3,0-0.2,0-0.6,0.1
		c0.1-0.1-0.4,0.3-0.3,0.2c-0.3,0.3-0.4,0.5-0.4,0.8l0.1,0.2c0,0.1,0.2,0.3,0.2,0.4c0.1,0.3,0.3,0.6,0.4,0.9
		c0.4,0.7,0.7,1.5,1.2,2.2c0.8,1.4,1.8,2.8,2.6,4.2c1.4,2.4,2.4,5,3.6,7.5c0.6,1.2-0.9,2.4-1.9,1.5c-1.7-1.6-3.5-3.1-5.2-4.7
		c-0.8-0.8-1.7-1.5-2.5-2.3c-0.4-0.4-0.8-0.9-1.4-1.2c-0.2-0.1-0.2-0.1-0.4-0.2h-0.1l0,0c-0.1,0-0.2,0-0.2,0s-0.4,0.2-0.2,0.1
		c-0.1,0-0.1,0.1-0.2,0.1l0,0l0,0c-0.1,0.1-0.1,0.1-0.2,0.2l0,0c0,0-0.1,0.3-0.2,0.3c0,0.1-0.1,0.2-0.1,0.3c0,0,0,0,0,0.1l0,0
		c0,0.1,0,0.5,0,0.3c0,0.1,0,0.2,0.1,0.2l0,0l0,0l0.1,0.1c0,0.1,0.1,0.1,0.1,0.1c0.8,0.9,1.5,1.8,2.4,2.6c0.7,0.7,1.4,1.3,2,2.1
		c0.9,1.1,1.8,2.2,2.7,3.4c0.3,0.4,0.2,1.1-0.2,1.5c-0.5,0.4-0.9,0.8-1.3,1.2c-2.2,2.2-3.9,4.4-5.4,7.1c-2,3.6-3.1,7.7-2.7,11.8
		c0,0.2,0,0.4-0.1,0.5h11.6C125.1,315,124.6,314.3,124.8,313.7z"/>
	<path class="st5" d="M67.4,220.3c0.4,0.7,0.8,1.2,1.4,1.8c0,0,0.2,0.1,0.2,0.2c0.1,0.1,0.2,0.1,0.3,0.2h0.1l0,0
		c0.1,0,0.2,0.1,0.3,0.1c0.1,0,0.4,0,0.1,0c0.1,0,0.2,0,0.3,0c0.1,0,0.3,0,0.2,0c0.1,0,0.1,0,0.2,0s0.2-0.1,0.3-0.1l0,0
		c0,0,0,0,0.1,0c0.2-0.1,0.4-0.2,0.6-0.4l0,0l0.1-0.1c0.1-0.1,0.2-0.2,0.3-0.3c0.2-0.2,0.4-0.4,0.5-0.6c0,0,0-0.1,0.1-0.1
		c0,0,0-0.1,0.1-0.1c0.1-0.1,0.2-0.2,0.2-0.4c0.1-0.2,0.3-0.5,0.4-0.7C71.3,220,69.3,220.1,67.4,220.3z"/>
	<path class="st5" d="M88.6,245.7c-1.1-0.6-2.4-1-3.7-1.5c-1.4-0.5-2.8-0.9-4.2-1.4c-0.1,0-0.1,0-0.2-0.1c0.1,0.8,0.3,1.6,0.4,2.3
		c1.2,6,2.3,11.9,3.5,17.9c0.2,0.8,0.3,1.7,0.5,2.5c2-0.7,4-1.4,6-2c1.3-0.4,2.6-0.8,4-1.1c0-0.2-0.1-0.3-0.1-0.5
		c-0.2-0.7-0.5-1.4-0.7-2.2c-1-3.5-1.7-7.4-3.1-10.7c-0.3-0.8-0.7-1.5-1.2-2.2c-0.1-0.1-0.1-0.2-0.2-0.3l0,0
		c-0.1-0.1-0.2-0.3-0.3-0.4c-0.1-0.1-0.2-0.2-0.3-0.3C88.9,245.9,88.7,245.8,88.6,245.7z"/>
	<path class="st7" d="M116.2,261.3c-0.6-0.8-1.5-1.2-2.5-1.3c-0.3,0-0.6,0-1,0.1c0.1,0-0.3,0-0.4,0c-3.1,0.3-6.3,0.6-9.4,1
		c-1.7,0.2-3.4,0.4-5.1,0.7c-0.2,0-0.4,0.1-0.7,0.1c-0.1-0.4-0.2-0.7-0.3-1.1c-1.2-3.4-1.8-7-2.9-10.4c-0.6-1.7-1.2-3.5-2.3-4.9
		c-0.5-0.7-1-1.3-1.7-1.7c-1.1-0.7-2.4-1.1-3.5-1.5c-0.9-0.3-1.7-0.6-2.6-0.9c0.8-1.3,1.3-2.8,1.3-4.3s-0.4-3-0.9-4.4
		c-0.9-2.8-2.4-5.7-1.8-8.7c0-0.2,0-0.5,0-0.7c0.7-1.4,1.4-2.8,1.8-4.3c1.5-4.7,1.7-9.6,2-14.5c0.2-2.9,0.6-5.7,0.8-8.6
		c0.2-2.9,0.1-5.8-0.5-8.7c-0.1-0.4-0.4-0.7-0.8-0.8c0,1.3,0,2.5,0,3.9c0-1.4,0-2.7,0-3.9c-0.2-0.1-0.4-0.1-0.6,0
		c-0.6,0.2-0.9,0.7-0.9,1.3c0.9,2.5,1.3,5.2,1.5,7.9c-0.2-2.8-0.6-5.4-1.5-7.9c0,0.1,0,0.1,0,0.2c0.9,4.7,0.3,9.5-0.2,14.3
		c-0.5,4.6-0.4,9.3-1.5,13.8c-1,4.3-3,8.2-6.2,11.4c-1.4,1.4-3.1,2.7-5,3.5c-2,0.8-4.2,1-6.3,0.6c-5.2-1-9.8-4.3-13.4-8.1
		c-1.1-1.1-2.8,0.6-1.7,1.7c3.4,3.7,7.9,6.8,12.7,8.3c0.9,0.3,1.8,0.5,2.7,0.6c-0.5,2.3-0.7,4.6-1.2,6.8c-2,0.6-4.1,0.7-6.1,0.2
		c-2.6-0.7-5.1-1.8-7.5-3.1c-0.6-0.4-1.3-0.7-1.9-1.1c-0.3-0.2-0.4-0.3-0.6-0.4c-0.2-0.2-0.4-0.4-0.6-0.6c-1.1-1.1-2.8,0.6-1.7,1.7
		c0.9,0.9,2,1.6,3.1,2.3c1.3,0.8,2.7,1.4,4.1,2c2.9,1.2,5.7,2.2,8.9,1.9c2.4-0.2,4.6-0.9,6.7-2.2c1.3-0.8,0.1-2.9-1.2-2.1
		c-0.2,0.1-0.3,0.2-0.5,0.3c0.3-1.6,0.4-3.1,0.8-4.7c-0.2-0.1-0.4-0.3-0.6-0.4c0.2,0.1,0.4,0.2,0.6,0.4c0.1-0.3,0.1-0.6,0.2-0.9
		c0.8,0,1.6-0.1,2.4-0.3c2.3-0.5,4.3-1.7,6.1-3.1c1.4-1.1,2.7-2.4,3.8-3.8c0.3,2,0.9,3.9,1.6,5.8c0.4,1.3,0.9,2.6,1,3.9
		c0.1,1.4-0.3,2.7-1.1,3.9c0,0.1-0.1,0.1-0.1,0.2c-1.2-0.4-2.4-0.8-3.6-1.2c-1.3-0.4-2.4-1-3.6-1.7c-0.4-0.3-0.9-0.5-1.3-0.8
		c-0.2-0.1-0.4-0.2-0.5-0.4c-0.1-0.1-0.2-0.2-0.3-0.2c0,0-0.1,0-0.1-0.1l0,0c-0.3-0.2-0.6-0.5-0.9-0.7c-0.8-0.7-1.8-0.2-2,0.6
		c1.1,0.9,2.2,1.8,3.6,1.8c-1.4,0-2.5-0.9-3.6-1.8c-0.1,0.4,0,0.8,0.3,1.1c0.6,0.5,1.2,1,1.8,1.4v0.1c0.5,3.1,1.3,6.2,1.9,9.3
		c1,5,1.9,9.9,2.7,14.9c0.3,1.8,0.5,3.7,0.8,5.5c-0.3,0.1-0.5,0.2-0.8,0.3c-1.7,0.6-3.4,1.3-4.8,2.4c-1.5,1.1-2.7,2.4-3.9,3.7
		c-1.2,1.3-2.5,2.6-3.7,3.9c-3.4-1.8-7.4-2.6-11.1-3.2c-3.8-0.6-7.7-1-11.6-1.2c-0.5,0-1,0-1.5-0.1c-1.4-3.7-2.7-7.5-4.1-11.2
		c-2.4-6.4-4.7-12.9-7.1-19.3c-0.5-1.5-1.1-3-1.6-4.4c-0.3-0.8-1-1-1.8-0.7c-1.4,0.6-2.8,1.2-4.2,1.8c-2.7,0.8-5.3,2-7.7,3.3
		c-2.3,1.2-4.4,2.6-6.4,4.3c-0.6,0.5-1.1,1-1.6,1.6c0-0.9,0.2-1.9,0.6-2.8c0.6-1.7,1.5-3.2,2.5-4.6c1-1.4,2.1-2.6,3.3-3.8
		c1.5-1.5,2.9-3.1,4.2-4.8c5.4-6.6,9.6-14,12.7-22c1.5-3.7,2.7-7.6,3.5-11.6c0.7-3.7,1.1-7.5,1.6-11.2s1.2-7.4,2.5-10.8
		c1.3-3.4,3.4-6.4,6.1-8.8c5.7-5,13.9-7.7,21.4-6c1,0.2,2,0.5,3,0.9c0.6,0.2,1.3-0.3,1.5-0.8c0.1-0.5,0-0.9-0.4-1.2
		c-0.4-0.1-0.8-0.1-1.2-0.2c0.4,0.1,0.8,0.1,1.2,0.2c-0.1-0.1-0.3-0.2-0.5-0.3c-7.9-3-17-1.2-23.9,3.5c-3.2,2.2-6,5-7.9,8.4
		s-3,7.1-3.7,10.9c-0.7,3.8-1.1,7.6-1.6,11.4c-0.6,4-1.5,7.9-2.8,11.7c-2.8,8.1-6.9,15.8-12,22.7c-1.3,1.7-2.7,3.4-4.1,4.9
		c-1.3,1.4-2.6,2.7-3.8,4.1c-2.2,2.8-4.4,6.3-4.6,10c0,0.8,0.1,1.6,0.3,2.4c0.1,0.3,0.3,0.5,0.5,0.7c0,0.1-0.1,0.2-0.1,0.3
		c-1.4,3.9-0.8,8.3-0.2,12.3c0.7,4.2,1.8,8.3,2.8,12.4c0.4,1.7,0.9,3.3,1.4,5C7,282.7,7,282.8,7,282.9c-0.1,0.4-0.2,0.8-0.2,1.1
		c-0.4,1.8-0.7,3.6-1.1,5.4c-1.1,5.5-2.2,10.9-3.4,16.4c-0.7,3.2-1.3,6.5-2,9.7h2.5c0.7-3.2,1.3-6.4,2-9.6
		c1.2-6.1,2.5-12.2,3.7-18.3c0-0.1,0.1-0.3,0.1-0.4c0,0.1,0.1,0.3,0.1,0.4c1.9,6,3.7,12.1,5.6,18.1c1,3.3,2,6.6,3,9.9h2.5
		c-0.8-2.7-1.7-5.5-2.5-8.2c-1.8-6-3.7-11.9-5.5-17.9c-1.1-3.6-2.3-7.1-3.3-10.7c-0.3-1.2-0.5-2.3-0.8-3.5c-0.5-2-1-4.1-1.5-6.2
		c-0.9-4-1.7-8.2-1.3-12.4c0.1-1.6,0.5-3.2,1.3-4.6c0.1-0.2,0.2-0.3,0.3-0.5c0,0,0.2-0.3,0.3-0.3c0.3-0.4,0.7-0.7,1.1-1.1
		c0.9-0.8,1.9-1.5,2.9-2.2c1.9-1.3,4-2.4,6.1-3.3c1-0.5,2.1-0.9,3.3-1.3c0.5,1.7,1.1,3.3,1.6,5c1.6,4.9,3.2,9.9,4.8,14.8
		c1.9,6,3.9,12,5.8,17.9c1.7,5.2,3.4,10.3,5,15.5c0.8,2.5,1.6,5.1,2.5,7.6v0.1c0.3,0.8,1.3,1.2,2,0.5c4.4-4.4,8.8-8.8,13.2-13.3
		c1.6-1.6,3.2-3.3,4.7-5c1.2,2.7,3,5.2,5.1,7.3c1.7,1.8,3.7,3.4,5.9,4.7c-3.1,3.9-6.2,7.7-9.4,11.4c-1.6,1.9-3.2,3.7-4.9,5.6h3.2
		c1.4-1.6,2.8-3.2,4.2-4.8c4.1-4.8,8.2-9.8,12-14.8c1.7-2.3,3.4-4.7,5-7.1c1.3-0.1,2.7-0.3,4-0.4c0.1,1.5,0.4,3,0.6,4.6
		c0.2,2,0.3,4.2-0.6,6.1c-0.5,1.2-1.3,2.2-2,3.3c-0.7,1.1-1.4,2.3-2.1,3.4c-1.3,2.3-2.3,4.7-3,7.3c-0.2,0.8-0.4,1.7-0.5,2.5h2.4
		c0.4-2.2,1-4.4,2-6.4c1.3-2.8,3.1-5.3,4.7-7.9c1.3-2.3,1.7-4.7,1.5-7.4c-0.1-1.3-0.2-2.6-0.4-3.9c-0.1-0.5-0.1-1-0.2-1.5v-0.1l0,0
		c0-0.1,0-0.2,0-0.3c0.8-0.1,1.5-0.3,2.3-0.6c1.4-0.5,2.8-1.1,4.2-1.7c0.4,0,0.8,0,1.2,0c1,0.9,2.3,1.4,3.3,1.6c0.5,0.1,1,0.1,1.4,0
		s0.7-0.4,1-0.6c0.1,0.2,0.1,0.4,0.2,0.6c0.4,1.9,1,3.7,1.5,5.6c1.8,7.1,3.4,14.2,5.3,21.3c0.1,0.5,0.3,1,0.4,1.4h2.4
		c0-0.2,0-0.4,0-0.6c-0.9-2.8-1.6-5.8-2.3-8.7c-1-3.9-1.9-7.8-2.9-11.7c-0.7-3-1.5-6-2.3-9c0.5-0.2,1-0.5,1.4-0.7
		c1-0.5,2.1-0.8,2.9-1.6c1.6-1.6,1.4-3.9,1.3-6c0-1.1-0.1-2.1-0.1-3.2c-0.1-0.9-0.1-2-0.4-2.9c-0.4-1.2-1.3-1.8-2.3-2.5
		c-0.2-0.1-0.3-0.2-0.5-0.3c1.9-0.3,3.8-0.5,5.7-0.8c1.7-0.3,3.9-0.3,5.1-1.7C116.9,264.5,117.2,262.6,116.2,261.3z M114.1,262.5
		L114.1,262.5L114.1,262.5z M80.7,242.9c1.4,0.4,2.8,0.9,4.2,1.4c1.2,0.4,2.5,0.8,3.7,1.5c0,0,0.2,0.2,0.3,0.2
		c0.1,0.1,0.2,0.2,0.3,0.3c0.1,0.1,0.2,0.2,0.3,0.4l0,0c0.1,0.1,0.1,0.2,0.2,0.3c0.5,0.7,0.9,1.5,1.2,2.2c1.4,3.3,2.1,7.1,3.1,10.7
		c0.2,0.7,0.5,1.4,0.7,2.2c0,0.2,0.1,0.3,0.1,0.5c-1.3,0.3-2.6,0.7-4,1.1c-2,0.6-4,1.3-6,2c-0.2-0.8-0.3-1.7-0.5-2.5
		c-1.2-6-2.3-11.9-3.5-17.9c-0.1-0.8-0.3-1.6-0.4-2.3C80.6,242.9,80.7,242.9,80.7,242.9z M74.4,242.3c-0.1-0.6-0.3-1.2-0.4-1.8
		c1.3,0.6,2.6,1.2,3.9,1.8c0.6,3,1.2,5.9,1.7,8.9c1,5.1,2,10.1,2.9,15.2c-1.2,0.4-2.5,0.9-3.7,1.3C77.9,259.1,76.2,250.7,74.4,242.3
		z M58.4,284.1c-5.4,6-11.3,11.7-17,17.4c-0.5-1.4-0.9-2.8-1.4-4.3c-1.6-4.9-3.2-9.9-4.8-14.8c-1.9-6-3.9-12-5.8-17.9
		c-1.7-5.2-3.4-10.3-5-15.5c-0.7-2.2-1.4-4.5-2.2-6.7c0.8-0.3,1.6-0.7,2.3-1c1.3,3.6,2.6,7.2,4,10.8c2.4,6.4,4.7,12.9,7.1,19.3
		c0.5,1.5,1.1,3,1.6,4.4c0.2,0.5,0.6,0.9,1.2,0.9c2.1,0,4.3,0.2,6.4,0.3c4.2,0.4,8.4,0.9,12.5,2c1.5,0.4,3,0.9,4.3,1.5
		C60.6,281.7,59.5,282.9,58.4,284.1z M98.8,284.6L98.8,284.6L98.8,284.6L98.8,284.6z M114.4,263.4L114.4,263.4c0,0.1,0,0.2-0.1,0.2
		v0.1l0,0c-0.1,0.1-0.1,0.2-0.2,0.3l-0.2,0.2c-0.1,0-0.2,0.1-0.2,0.1c-0.1,0-0.2,0.1-0.4,0.1c-0.4,0.1-0.8,0.1-1.1,0.2
		c-3.2,0.6-6.5,1-9.6,1.4c-0.1,0-0.3,0-0.4,0.1c-0.8-0.5-1.5-0.9-2.3-1.4c-1.3-0.8-2.5,1.2-1.2,2.1c2.1,1.4,4.1,2.7,6.2,4.1
		c0.4,0.3,0.7,0.6,0.8,1.1c0.3,1.1,0.3,2.3,0.3,3.5c0.1,1.3,0.1,2.5,0.1,3.8c0,0.9-0.2,1.8-1,2.3c-0.4,0.2-0.9,0.4-1.3,0.7
		c0.1-0.2,0.2-0.4,0.3-0.7c0.6-1.5,0.3-3.3,0.3-4.9c0-1.4,0-2.8-0.4-4.1c-0.2-0.6-0.8-0.9-1.3-1.2c-0.7-0.4-1.3-0.9-2-1.3
		c-1.3-0.8-2.5-1.7-3.8-2.5c-1.3-0.9-2.5,1.2-1.2,2.1c2,1.3,4,2.6,6,4c0.3,1.5,0.2,3.1,0.2,4.7c0,0.8,0.1,1.6-0.2,2.5
		c-0.3,0.8-0.7,1.5-1.3,2.1c-0.3,0.4-0.6,0.7-1,1c-0.2,0.2-0.4,0.4-0.6,0.6l-0.1,0.1c-0.1,0-0.2,0-0.2,0c-0.2,0-0.5-0.1-0.7-0.2
		c-0.3-0.1-1.1-0.5-1.4-0.8l0,0c0.2-0.1,0.3-0.1,0.5-0.2c1.1-0.6,1.8-1.8,2.2-2.9c0.2-0.6,0.2-1.3,0.4-2c0.1-0.8,0.3-1.6,0.3-2.3
		c0.1-1.2-0.2-2.5-1.2-3.3c-0.7-0.5-1.5-0.8-2.2-1.2c-1.6-0.8-3.3-1.5-4.9-2.1c-0.6-0.2-1.3,0.3-1.5,0.8c-0.2,0.7,0.2,1.2,0.8,1.5
		c0.3,0.1,0.6,0.3,0.9,0.4c0.1,0,0.3,0.1,0.3,0.1c0.2,0.1,0.4,0.2,0.6,0.2c0.4,0.2,0.9,0.4,1.3,0.6c0.8,0.4,1.6,0.7,2.3,1.1
		c0.3,0.1,0.6,0.3,0.8,0.5l0.1,0.1c0,0,0,0,0.1,0.1l0,0l0,0l0,0l0,0l0,0c0.1,0.3,0.1,1,0.1,1.2c0,0.6-0.1,1.2-0.3,1.9
		c-0.2,1-0.2,2.1-0.8,2.8c0,0-0.2,0.2-0.3,0.3c0.2-0.1-0.4,0.2-0.2,0.1c-0.5,0.2-0.8,0.2-1.3,0.1c-0.7-0.1-1.4-0.2-2.1-0.3
		c-0.6-0.1-1.3-0.1-1.9-0.4c-0.8-0.4-1-1.1-1.1-1.9c0-0.1,0-0.3,0-0.4c1.1,0.1,2.1,0.2,3.2,0.4c0.6,0.1,1.2-0.6,1.2-1.2
		c0-0.7-0.6-1.1-1.2-1.2c-1.4-0.2-2.8-0.4-4.2-0.5c-0.1,0-0.2,0-0.3,0c-0.1,0-0.2,0-0.2,0c-0.4,0-0.9,0.3-1,0.6
		c-0.9,1.6-2.1,3.2-3.5,4.5c-2.4,2.1-6,2.7-9.1,2.3c-0.6-0.1-1.2,0.6-1.2,1.2c0,0.7,0.6,1.1,1.2,1.2c3.6,0.5,7.7-0.4,10.6-2.8
		c0.9-0.7,1.7-1.6,2.4-2.5c0.2,0.6,0.5,1.2,0.9,1.7c1,1,2.4,1.3,3.7,1.5c-0.1,0.1-0.2,0.1-0.3,0.1c-0.7,0.3-1.5,0.7-2.3,0.9
		c-0.7,0.3-1.5,0.5-2.3,0.7c-0.3,0.1-0.6,0.1-0.8,0.1c0,0-0.1,0-0.2,0s-0.3,0-0.4,0.1c-1.2,0.2-2.5,0.3-3.7,0.4
		c-0.7,0.1-1.5,0-2.2,0.2s-1,1-1.3,1.5c-0.3,0.4-0.6,0.9-0.9,1.3c-0.6,1-1.3,1.9-2,2.8c-1.1,1.6-2.3,3.1-3.4,4.6l0,0
		c-2.1-1.1-4-2.7-5.6-4.4c-2-2-3.6-4.4-4.8-6.9c-0.1-0.2-0.2-0.3-0.4-0.4c1-1.1,2-2.2,3.1-3.3c1.4-1.4,2.8-2.9,4.2-4.3
		c1.1-1.2,2.2-2.4,3.4-3.4c1-0.8,2.5-1.6,3.8-2.1c2.1-0.8,4.2-1.5,6.3-2.2c4.7-1.7,9.4-3.4,14.3-4.6c3.2-0.8,6-1.1,9.3-1.4
		c2.5-0.3,5-0.5,7.5-0.8c0.3,0,0.4-0.1,0.7,0c-0.2,0,0.2,0.1,0.3,0.1l0,0l0,0c0,0,0,0-0.1,0c0,0,0.1,0,0.1,0.1l0.1,0.1l0,0l0,0
		c0,0.1,0.1,0.2,0.1,0.2C114.3,263.2,114.3,263.2,114.4,263.4C114.3,263,114.4,263.3,114.4,263.4z M97.3,274.9L97.3,274.9
		L97.3,274.9L97.3,274.9z"/>
	<path class="st7" d="M107.9,315.2C107.9,315.2,107.9,315.3,107.9,315.2c0.4,1.3,2.2,1,2.4,0H107.9z"/>
	<path class="st6" d="M82.6,266.4c-1-5.1-2-10.1-2.9-15.2c-0.6-3-1.2-5.9-1.7-8.9c-1.3-0.6-2.6-1.2-3.9-1.8c0.1,0.6,0.3,1.2,0.4,1.8
		c1.8,8.4,3.5,16.8,4.5,25.4C80.2,267.2,81.4,266.8,82.6,266.4z"/>
	<path class="st6" d="M14.1,305.4c-1.9-6-3.7-12.1-5.6-18.1c0-0.1-0.1-0.3-0.1-0.4c0,0.1-0.1,0.3-0.1,0.4
		c-1.2,6.1-2.5,12.2-3.7,18.3c-0.7,3.2-1.3,6.4-2,9.6h14.5C16.1,311.9,15.1,308.6,14.1,305.4z"/>
	<path class="st6" d="M77.7,312.7c0.6-2.6,1.6-5,3-7.3c0.7-1.2,1.4-2.3,2.1-3.4s1.4-2.2,2-3.3c0.8-1.9,0.7-4.1,0.6-6.1
		c-0.1-1.5-0.5-3-0.6-4.6c-1.3,0.2-2.7,0.3-4,0.4c-1.5,2.5-3.2,4.8-5,7.1c-3.8,5.1-7.9,10-12,14.8c-1.4,1.6-2.8,3.2-4.2,4.8h17.7
		C77.3,314.4,77.5,313.5,77.7,312.7z"/>
	<path class="st6" d="M57.3,279.1c-4.2-1.1-8.3-1.6-12.5-2c-2.1-0.2-4.3-0.3-6.4-0.3c-0.6,0-1-0.4-1.2-0.9c-0.5-1.5-1.1-3-1.6-4.4
		c-2.4-6.4-4.7-12.9-7.1-19.3c-1.3-3.6-2.6-7.2-4-10.8c-0.8,0.3-1.6,0.7-2.3,1c0.7,2.2,1.4,4.5,2.2,6.7c1.7,5.2,3.4,10.3,5,15.5
		c1.9,6,3.9,12,5.8,17.9c1.6,4.9,3.2,9.9,4.8,14.8c0.5,1.4,0.9,2.8,1.4,4.3c5.7-5.7,11.6-11.4,17-17.4c1.1-1.2,2.2-2.3,3.2-3.5
		C60.3,279.9,58.9,279.5,57.3,279.1z"/>
	<path class="st6" d="M141.4,265.8C141.4,265.7,141.4,265.7,141.4,265.8c0-0.1,0.1-0.2,0.1-0.3c0.6-1.1,0.9-2.1,1.4-3.2
		c0.5-1.2,0.9-2.4,1.5-3.5c-0.1,0-0.2,0-0.3,0c-0.5-0.1-1-0.1-1.5-0.2c-3.1-0.3-6.2-0.6-9.2-0.9c-1.5-0.1-3-0.3-4.5-0.4
		c-0.6-0.1-1.2-0.1-1.8-0.2c-0.6-0.1-1.2-0.1-1.7,0.4c-0.4,0.5-0.7,1.3-0.9,1.9c-1.6,3.5-3.1,6.9-4.7,10.4c-2,4.4-3.9,8.7-5.9,13.1
		c-1.1,2.4-2.2,4.8-3.2,7.2c0-0.1-0.1,0.3-0.1,0.4c0,0.3,0.3,0.7,0.6,0.8c0.3,0.1,0.7,0.1,1,0.1c1.9,0.2,3.8,0.4,5.8,0.5
		c0.7,0.1,1.3,0.1,2,0.2c-0.5-0.7-1.1-1.3-1.7-1.9c-0.9-0.9-1.8-1.8-2.6-2.8c-0.8-0.9-1.5-1.6-1.6-2.8c-0.1-2,1.5-3.9,3.5-3.8
		c1.4,0.1,2.3,0.9,3.3,1.8c0.9,0.9,1.9,1.7,2.9,2.6c0.2,0.2,0.5,0.4,0.7,0.6c-0.6-1.3-1.3-2.6-2.1-3.8c-1-1.6-2-3.1-2.8-4.8
		c-0.3-0.7-0.8-1.4-0.9-2.2c-0.1-0.7,0.1-1.5,0.5-2.1c0.7-1.1,2-1.8,3.3-1.7c0-1.8,1.2-3.5,3.1-3.7c1.5-0.2,2.7,0.6,3.7,1.6
		c1.1,1.1,2,2.3,3.1,3.4c1.4,1.5,2.8,2.8,3.9,4.5c0,0,0,0.1,0.1,0.1c0.2-1,0.3-2,0.5-2.9c0.3-1.6,0.5-3.1,0.8-4.7
		c0.3-1.7,1.4-3.4,3.3-3.5c0.2,0,0.4,0,0.6,0C141.4,265.8,141.4,265.8,141.4,265.8z"/>
	<path class="st7" d="M113,315.9c0.4,0,0.9-0.3,1.1-0.7H112C112.1,315.6,112.5,315.9,113,315.9z"/>
	<path class="st7" d="M145.4,256.4c-0.5-0.1-1.1-0.1-1.7-0.2c-1.3-0.1-2.6-0.3-3.9-0.4c-3.3-0.3-6.6-0.6-9.9-0.9
		c-0.7-0.1-1.4-0.1-2.1-0.2c-0.7-0.1-1.4-0.2-2.2-0.1c-1.2,0.2-2.2,1-2.7,2.1c-1.2,2.6-2.4,5.2-3.5,7.9c-2.1,4.6-4.1,9.1-6.2,13.7
		c-1.5,3.3-3,6.6-4.5,9.9c-0.1,0.2-0.2,0.5-0.3,0.7c-0.6,1.3-0.4,2.9,0.7,3.9c1.2,1,3.1,0.9,4.5,1c2.1,0.2,4.3,0.4,6.4,0.6
		c-0.7,0.7-1.4,1.5-2,2.3c-2.5,3.1-4.5,6.5-5.6,10.3c-0.7,2.5-1,5.1-0.8,7.6c0,0.2,0.1,0.4,0.2,0.5h2.1c0.1-0.2,0.1-0.3,0.1-0.5
		c-0.4-4.1,0.7-8.2,2.7-11.8c1.5-2.7,3.2-4.9,5.4-7.1c0.4-0.4,0.9-0.8,1.3-1.2c0.4-0.3,0.5-1.1,0.2-1.5c-0.8-1.2-1.7-2.3-2.7-3.4
		c-0.6-0.7-1.3-1.4-2-2.1c-0.8-0.8-1.6-1.8-2.4-2.6l-0.1-0.1l-0.1-0.1l0,0l0,0c0-0.1,0-0.1-0.1-0.2c0,0.2,0-0.2,0-0.3l0,0
		c0,0,0,0,0-0.1s0.1-0.2,0.1-0.3c0,0,0.1-0.2,0.2-0.3l0,0c0.1-0.1,0.1-0.1,0.2-0.2l0,0l0,0c0.1,0,0.1-0.1,0.2-0.1
		c-0.2,0.1,0.3,0,0.2-0.1c0.1,0,0.2,0,0.2,0l0,0h0.1c0.1,0,0.2,0.1,0.4,0.2c0.5,0.3,0.9,0.8,1.4,1.2c0.8,0.8,1.7,1.5,2.5,2.3
		c1.7,1.6,3.5,3.1,5.2,4.7c1,0.9,2.5-0.2,1.9-1.5c-1.2-2.5-2.3-5.1-3.6-7.5c-0.8-1.4-1.8-2.8-2.6-4.2c-0.4-0.7-0.8-1.4-1.2-2.2
		c-0.1-0.3-0.3-0.6-0.4-0.9c-0.1-0.1-0.2-0.3-0.2-0.4l-0.1-0.2c0-0.3,0.1-0.5,0.4-0.8c-0.1,0.1,0.5-0.2,0.3-0.2
		c0.3-0.1,0.3-0.1,0.6-0.1c0.1,0,0.1,0,0.2,0.1c0,0,0.1,0.1,0.2,0.1l0.1,0.1l0.1,0.1c0.3,0.5,0.7,0.9,1,1.4c1.6,2.2,2.9,4.5,4.3,6.7
		c1.1,1.7,2.2,3.4,3.4,5c0.3,0.5,0.9,0.7,1.5,0.5c0.5-0.2,0.9-0.8,0.7-1.4c-0.3-0.9-0.6-1.7-0.9-2.6c-0.5-1.3-0.9-2.6-1.6-3.8
		c-0.8-1.4-1.9-2.6-2.9-3.8c-1-1.2-2-2.3-3-3.5c-0.1-0.1-0.1-0.2-0.2-0.2c-0.2-0.3-0.4-0.6-0.5-1c-0.1-0.5,0-1,0.5-1.3
		c-0.1,0.1,0.2-0.1,0.2-0.1c0.1,0,0.2,0,0.2-0.1c0,0,0,0,0.1,0l0,0c0.3,0,0.5,0,0.8,0.1c0.4,0.2,0.6,0.5,0.9,0.8
		c0.8,0.8,1.5,1.7,2.3,2.5c1.2,1.4,2.7,2.7,3.8,4.2s1.6,2.8,2.1,4.7c0.3,1.1,0.6,2.3,0.8,3.4c0.3,1.3,2.5,1,2.4-0.3
		c-0.2-1.4-0.4-2.8-0.6-4.3c0-0.2,0-0.5-0.1-0.7l0,0c0.2-0.9,0.3-1.8,0.5-2.7c0.3-1.4,0.5-2.8,0.8-4.2c0.1-0.7,0.3-1.5,0.4-2.2
		c0.1-0.7,0.2-1.5,0.6-2.1c0.2-0.3,0.6-0.7,0.9-0.5c0.5,0.3,0.4,1.3,0.3,1.8c-0.1,1.4-0.3,2.9-0.5,4.3c-0.3,2.8-0.7,5.5-1,8.3
		c-0.1,0.6-0.1,1.1-0.2,1.7c0,0.2-0.1,0.4-0.1,0.7c0,0.1,0,0.1,0,0.2s0,0.2,0,0.3c-0.1,0.5-0.1,1-0.2,1.5c0,0.2-0.1,0.4-0.2,0.6
		c-0.1,0.3-0.3,0.6-0.4,0.9c-0.1,0.1-0.1,0.3-0.2,0.4c0,0.1-0.1,0.2-0.1,0.2c-0.1,0.2-0.1,0.3-0.2,0.5c-0.9,2-1.8,4.1-3,6
		c-0.7,1.2-1.3,1.8-2.3,3c-1.2,1.5-2.3,3.1-3.3,4.7c-2,3.2-3.6,6.7-5,10.3c-0.2,0.6,0.2,1.3,0.8,1.5h0.4h-0.4l0,0
		c0.7,0.2,1.3-0.2,1.5-0.8c1.2-3.3,2.7-6.5,4.5-9.4c0.9-1.5,1.9-2.9,3-4.3c0.8-1,1.7-2,2.4-3.1c1.3-2,2.2-4.1,3.1-6.3
		c0.4-0.9,0.8-1.8,1.1-2.7c0.1-0.3,0.2-0.5,0.3-0.8c0.1-0.5,0.1-1,0.2-1.5c0.1-1.1,0.3-2.2,0.4-3.3c0.4-2.9,0.7-5.8,1.1-8.7
		c0.2-1.5,0.5-3.1,0.5-4.7c0-0.7-0.2-1.5-0.5-2.2c0-0.1,0.1-0.2,0.1-0.4c0.1-0.2,0.1-0.3,0.2-0.5c0.6-1.2,1.1-2.5,1.6-3.7
		c0.5-1.3,1.1-2.3,1.6-3.6C147.4,257.9,146.7,256.7,145.4,256.4z M116.7,283.5C116.7,283.4,116.7,283.5,116.7,283.5L116.7,283.5z
		 M142.9,262.2c-0.5,1.1-0.8,2.1-1.4,3.2c0,0.1-0.1,0.2-0.1,0.3l0,0v0.1c-0.2,0-0.4,0-0.6,0c-1.9,0.1-2.9,1.8-3.3,3.5
		c-0.3,1.6-0.6,3.1-0.8,4.7c-0.2,1-0.3,2-0.5,2.9c0,0,0-0.1-0.1-0.1c-1.1-1.7-2.6-3.1-3.9-4.5c-1-1.1-2-2.3-3.1-3.4
		c-1-1-2.2-1.8-3.7-1.6c-1.9,0.2-3.2,1.9-3.1,3.7c-1.3-0.1-2.6,0.6-3.3,1.7c-0.4,0.6-0.6,1.4-0.5,2.1c0.1,0.8,0.6,1.5,0.9,2.2
		c0.8,1.7,1.8,3.2,2.8,4.8c0.8,1.2,1.5,2.5,2.1,3.8c-0.2-0.2-0.5-0.4-0.7-0.6c-1-0.9-1.9-1.7-2.9-2.6s-1.9-1.8-3.3-1.8
		c-2-0.1-3.7,1.9-3.5,3.8c0.1,1.2,0.8,1.9,1.6,2.8c0.8,1,1.7,1.9,2.6,2.8c0.6,0.6,1.2,1.3,1.7,1.9c-0.7-0.1-1.3-0.1-2-0.2
		c-1.9-0.2-3.8-0.4-5.8-0.5c-0.3,0-0.7,0-1-0.1c-0.4-0.1-0.6-0.5-0.6-0.8c0-0.1,0.1-0.4,0.1-0.4c1-2.4,2.2-4.8,3.2-7.2
		c2-4.4,3.9-8.7,5.9-13.1c1.6-3.5,3.1-6.9,4.7-10.4c0.3-0.6,0.5-1.4,0.9-1.9s1.1-0.5,1.7-0.4s1.2,0.1,1.8,0.2c1.5,0.1,3,0.3,4.5,0.4
		c3.1,0.3,6.2,0.6,9.2,0.9c0.5,0.1,1,0.1,1.5,0.2c0.1,0,0.2,0,0.3,0C143.9,259.9,143.4,261.1,142.9,262.2z"/>
	<path class="st7" d="M69.2,224.9c2.1,0.4,4-0.9,5.2-2.5c0.8-1,1.3-2.2,1.8-3.4v-0.1v-0.1c0,0,0,0,0-0.1l0,0c0.1-0.3,0-0.6-0.2-0.9
		c0,0,0-0.1-0.1-0.1c0,0,0-0.1-0.1-0.1c-0.2-0.2-0.5-0.4-0.8-0.4c0,0,0,0-0.1,0l0,0h-0.1l0,0c-2.7,0.2-5.4,0.4-8.1,0.6
		c-0.4,0-0.8,0.1-1.2,0.1c-0.7,0.1-1.5,0.7-1.2,1.5C65.3,221.7,66.7,224.4,69.2,224.9z M72.5,220.9C72.5,220.9,72.5,221,72.5,220.9
		c-0.1,0.1-0.1,0.1-0.1,0.2c-0.2,0.2-0.3,0.4-0.5,0.6c-0.1,0.1-0.2,0.2-0.3,0.3l-0.1,0.1l0,0c-0.2,0.1-0.4,0.2-0.6,0.4
		c0,0,0,0-0.1,0l0,0c-0.1,0-0.2,0.1-0.3,0.1c-0.1,0-0.1,0-0.2,0c0.1,0-0.2,0-0.2,0c-0.1,0-0.2,0-0.3,0c0.4,0,0,0-0.1,0
		s-0.2-0.1-0.3-0.1l0,0h-0.1c-0.1-0.1-0.2-0.1-0.3-0.2c0,0-0.2-0.1-0.2-0.2c-0.6-0.5-1-1.1-1.4-1.8c1.9-0.1,3.8-0.3,5.8-0.4
		c-0.1,0.2-0.3,0.5-0.4,0.7C72.7,220.7,72.6,220.8,72.5,220.9z"/>
	<path class="st7" d="M56.7,181.3c-0.8,3.2-2.3,6.1-4.6,8.5c-2.5,2.7-5.4,4.8-8.4,6.9c-0.2,0.2-0.4,0.4-0.5,0.6
		c-1.2-1.1-2.8-1.7-4.4-1.3c-1.5,0.4-2.7,1.7-3.3,3.1c-1.4,3.2-0.1,7,1.9,9.6c0.3,0.4,0.6,0.8,1,1.1c-0.3,0.7-0.4,1.5-0.3,2.3
		c0,0.1,0,0.2,0,0.3c0.4,1.6,1.7,2.6,3.3,2.8c0.1,0,0.1,0,0.2,0c0-0.3,0.1-0.6,0.1-0.9c0,0.3,0,0.6-0.1,0.9c1.4,0.1,2.8-0.8,3.4-2
		c0.7-1.4,0.5-3.2-0.7-4.3c-1.1-1.1-2.8-1.4-4.3-0.7c-1.6-1.5-2.6-3.5-2.8-5.6c-0.1-1.4,0.2-2.7,1.3-3.7c0.5-0.4,0.9-0.5,1.6-0.4
		c0.7,0.1,1,0.3,1.5,0.8c0.7,0.7,1.7,0.3,2-0.5c0.4,0.2,0.9,0.3,1.3,0c2.6-1.9,5.3-3.8,7.6-6c-0.9,0-1.7-0.2-2.6-0.5
		c0.9,0.3,1.7,0.5,2.6,0.5c0.5-0.4,0.9-0.9,1.3-1.4c2.4-2.7,4.2-5.9,5-9.4C59.4,180.4,57.1,179.8,56.7,181.3z M40.6,211.3
		C40.6,211.2,40.6,211.2,40.6,211.3c0-0.2,0.1-0.3,0.1-0.4c0,0,0-0.1,0.1-0.1c0-0.1,0.1-0.1,0.1-0.2c0,0,0-0.1,0.1-0.1l0.1-0.1
		l0.1-0.1c0.1-0.1,0.2-0.1,0.3-0.2h0.1c0.1,0,0.1,0,0.2,0h0.1l0,0c0.1,0,0.1,0,0.2,0l0,0c0,0,0,0,0.1,0c0,0,0,0,0.1,0h0.1
		c0,0,0,0-0.1,0c0.1,0,0.2,0,0.3,0.1c0,0,0,0,0.1,0h0.1c0,0,0,0-0.1,0c0.1,0.1,0.2,0.1,0.3,0.2l0.1,0.1l0.1,0.1l0.1,0.1l0.1,0.1
		c0,0,0,0.1,0.1,0.1c0,0.1,0.1,0.2,0.1,0.3v0.1c0,0,0,0.2,0,0.3s0,0.1,0,0.2v0.1c0,0.1-0.1,0.2-0.1,0.2s0,0,0,0.1c0,0,0,0.1-0.1,0.1
		c0,0,0,0,0-0.1c-0.1,0.1-0.1,0.1-0.2,0.2l-0.1,0.1c0,0-0.1,0-0.1,0.1c-0.1,0-0.2,0.1-0.3,0.1h-0.1l0,0c-0.1,0-0.2,0-0.3,0
		s-0.1,0-0.2,0H42c-0.1-0.1-0.2-0.1-0.3-0.2l-0.1-0.1l-0.1-0.1l0,0l0,0c-0.1-0.1-0.1-0.2-0.2-0.3c0-0.1,0-0.1-0.1-0.2l0,0l0,0l0,0
		l0,0c0,0,0,0,0-0.1c0,0,0,0,0-0.1l0,0C40.6,211.5,40.6,211.4,40.6,211.3c0,0.1,0,0.1,0,0.1C40.6,211.3,40.6,211.3,40.6,211.3z"/>
	<path class="st7" d="M77.9,200.4c1.5,0,1.6-2.4,0-2.4S76.3,200.4,77.9,200.4z"/>
	<path class="st7" d="M62.5,201.3c1.5,0,1.6-2.4,0-2.4C60.9,198.8,60.9,201.3,62.5,201.3z"/>
	<path class="st7" d="M73.3,197.9c-0.7-0.2-1.3,0.2-1.5,0.8c-0.6,1.8-0.6,3.8-0.3,5.7c0.3,1.6,0.9,3.2,2,4.4c0.4,0.5,1.2,0.5,1.7,0
		s0.4-1.2,0-1.7c-0.1-0.1-0.1-0.1-0.2-0.2l0,0l-0.1-0.1c0-0.1-0.1-0.1-0.1-0.2c-0.2-0.3-0.3-0.6-0.4-0.8c0,0,0,0,0-0.1
		s-0.1-0.2-0.1-0.3c-0.1-0.2-0.1-0.4-0.2-0.5c-0.1-0.4-0.2-0.7-0.3-1.1c-0.2-1.4-0.2-3,0.3-4.4C74.3,198.7,73.9,198,73.3,197.9z"/>
	<path class="st7" d="M73.4,210.9c-0.3,0-0.7,0-1,0.1c-0.1,0-0.2,0-0.3,0.1c-0.1,0-0.2,0-0.4,0c-0.3,0-0.6,0.1-0.9,0.4
		c-0.1,0.1-0.2,0.2-0.2,0.4c-0.1,0.1-0.1,0.3-0.1,0.5c0,0.3,0.1,0.6,0.4,0.9c0.2,0.2,0.5,0.4,0.9,0.4c0.3,0,0.7,0,1-0.1
		c0.1,0,0.2,0,0.3-0.1c0.1,0,0.2,0,0.4,0c0.3,0,0.6-0.1,0.9-0.4c0.1-0.1,0.2-0.2,0.2-0.4c0.1-0.1,0.1-0.3,0.1-0.5
		c0-0.3-0.1-0.6-0.4-0.9S73.7,210.9,73.4,210.9z"/>
	<path class="st7" d="M75.6,164.9c-1.6-0.8-3.3-1.5-5.1-1.8c1,0.5,1.9,1.2,2.7,2.2c-0.8-1-1.7-1.7-2.7-2.2c-0.1,0-0.3-0.1-0.4-0.1
		c-0.6-0.1-1.3,0.2-1.5,0.8s0.2,1.4,0.8,1.5c6.3,1.2,11.4,5.7,13.6,11.7c0.7,1.9,1.2,4,1.4,6c0.1,0.6,0.5,1.2,1.2,1.2c0,0,0,0,0.1,0
		c0-0.7,0-1.4,0-2.1c0,0.7,0,1.5,0,2.1c0.6,0,1.2-0.6,1.1-1.2C86,175.6,82.3,168.4,75.6,164.9z"/>
	<path class="st5" d="M43,212.3C43,212.2,43,212.2,43,212.3C43,212.2,43,212.2,43,212.3C43,212.2,43,212.2,43,212.3z"/>
	<path class="st5" d="M43,212.3C43,212.3,42.9,212.3,43,212.3C42.9,212.3,43,212.3,43,212.3L43,212.3L43,212.3z"/>
	<path class="st5" d="M40.6,211.5C40.6,211.6,40.6,211.6,40.6,211.5C40.6,211.6,40.6,211.6,40.6,211.5
		C40.6,211.6,40.6,211.6,40.6,211.5z"/>
	<path class="st5" d="M40.6,211.6C40.6,211.7,40.6,211.7,40.6,211.6C40.6,211.7,40.6,211.7,40.6,211.6
		C40.6,211.7,40.6,211.7,40.6,211.6C40.6,211.7,40.6,211.6,40.6,211.6L40.6,211.6z"/>
	<path class="st5" d="M42.5,210.2L42.5,210.2L42.5,210.2L42.5,210.2L42.5,210.2z"/>
	<path class="st5" d="M40.6,211.3c0,0.1,0,0.2,0,0.3s0,0.1,0,0.1l0,0c0,0.1,0,0.1,0.1,0.2c0.1,0.1,0.1,0.2,0.2,0.3l0,0l0,0l0.1,0.1
		l0.1,0.1c0.1,0.1,0.2,0.1,0.3,0.2h0.1c0.1,0,0.1,0,0.2,0c0.1,0,0.2,0,0.3,0l0,0h0.1c0.1,0,0.2-0.1,0.3-0.1c0,0,0.1,0,0.1-0.1
		l0.1-0.1c0.1-0.1,0.2-0.1,0.2-0.2c0.1-0.1,0.1-0.1,0.1-0.1c0-0.1,0.1-0.2,0.1-0.2v-0.1c0-0.1,0-0.1,0-0.2c0,0,0-0.2,0-0.3v-0.1
		c0-0.1,0-0.2-0.1-0.3c0,0,0-0.1-0.1-0.1l-0.1-0.1l-0.1-0.1l-0.1-0.1l-0.1-0.1c-0.1-0.1-0.2-0.1-0.3-0.2c-0.1,0-0.1,0-0.1,0
		c-0.1,0-0.2,0-0.3-0.1c-0.1,0-0.1,0-0.1,0l0,0c-0.1,0-0.1,0-0.2,0l0,0h-0.1c-0.1,0-0.1,0-0.2,0H41c-0.1,0.1-0.2,0.1-0.3,0.2
		l-0.1,0.1l-0.1,0.1c0,0,0,0-0.1,0.1c0,0.1-0.1,0.1-0.1,0.2c0,0,0,0.1-0.1,0.1c0,0.1-0.1,0.2-0.1,0.3
		C40.7,211.2,40.7,211.2,40.6,211.3z"/>
	<path class="st5" d="M42.5,210.2C42.4,210.2,42.4,210.2,42.5,210.2C42.4,210.2,42.4,210.2,42.5,210.2
		C42.4,210.2,42.5,210.2,42.5,210.2z"/>
	<path class="st5" d="M40.6,211.2L40.6,211.2L40.6,211.2L40.6,211.2z"/>
	<path class="st5" d="M40.6,211.3L40.6,211.3L40.6,211.3L40.6,211.3L40.6,211.3z"/>
	<path class="st5" d="M42.1,210.1C42,210.1,42,210.1,42.1,210.1C42,210.1,42.1,210.1,42.1,210.1L42.1,210.1z"/>
	<path class="st5" d="M42.2,210.1L42.2,210.1C42.1,210.1,42.1,210.1,42.2,210.1L42.2,210.1z"/>
	<path class="st8" d="M43,212.3L43,212.3L43,212.3C43,212.2,43,212.2,43,212.3C43,212.2,43,212.2,43,212.3
		C43,212.2,43,212.2,43,212.3z"/>
	<path class="st8" d="M40.6,211.6L40.6,211.6c0,0.1,0,0.1,0,0.1C40.7,211.7,40.7,211.7,40.6,211.6z"/>
	<path class="st8" d="M40.6,211.2L40.6,211.2L40.6,211.2C40.6,211.3,40.6,211.3,40.6,211.2c0,0.1,0,0.1,0,0.1
		C40.7,211.2,40.7,211.2,40.6,211.2z"/>
	<path class="st8" d="M42.5,210.2L42.5,210.2L42.5,210.2C42.5,210.2,42.4,210.2,42.5,210.2C42.4,210.2,42.4,210.2,42.5,210.2
		C42.4,210.2,42.4,210.2,42.5,210.2z"/>
	<path class="st8" d="M42.1,210.1L42.1,210.1C42,210.1,42,210.1,42.1,210.1L42.1,210.1z"/>
	<path class="st7" d="M78.5,187.7c-1.5-0.1-3.1,0.3-4.3,1.3c-0.5,0.4-0.5,1.3,0,1.7c0.5,0.5,1.2,0.4,1.7,0l0,0
		c0.1,0,0.1-0.1,0.2-0.1c0.1-0.1,0.2-0.1,0.3-0.2c0.1,0,0.2-0.1,0.2-0.1c0.1,0,0.2-0.1,0.4-0.1c0.2,0,0.3-0.1,0.5-0.1l0,0h0.1
		c0.3,0,0.6,0,0.9,0c0.1,0,0.1,0,0.2,0l0,0l0.4,0.1c0.1,0,0.3,0.1,0.4,0.1s0.1,0,0.2,0.1s0.2,0.1,0.3,0.2c0.1,0,0.1,0.1,0.2,0.1
		l0.1,0.1l0.1,0.1l0,0c0,0,0,0,0.1,0.1l0,0l0,0l0,0c0.4,0.5,1.1,0.8,1.6,0.4c0.5-0.3,0.8-1.1,0.4-1.6
		C81.7,188.4,80.1,187.8,78.5,187.7z"/>
	<path class="st8" d="M80.5,190.9L80.5,190.9C80.5,191,80.5,191,80.5,190.9L80.5,190.9z"/>
	<path class="st5" d="M114.1,262.5L114.1,262.5L114.1,262.5z"/>
	<path class="st5" d="M64.7,293.6c-2.1-2.1-3.8-4.6-5.1-7.3c-1.6,1.7-3.1,3.4-4.7,5c-4.3,4.5-8.8,8.8-13.2,13.3
		c-0.7,0.7-1.7,0.3-2-0.5V304c-0.9-2.5-1.6-5-2.5-7.6c-1.7-5.2-3.4-10.3-5-15.5c-1.9-6-3.9-12-5.8-17.9c-1.6-4.9-3.2-9.9-4.8-14.8
		c-0.5-1.7-1.1-3.3-1.6-5c-1.1,0.4-2.2,0.8-3.3,1.3c-2.1,0.9-4.1,2-6.1,3.3c-1,0.7-2,1.4-2.9,2.2c-0.4,0.3-0.8,0.7-1.1,1.1
		c0,0.1-0.3,0.3-0.3,0.3c-0.1,0.1-0.2,0.3-0.3,0.5c-0.8,1.3-1.2,3-1.3,4.6c-0.3,4.2,0.5,8.4,1.3,12.4c0.5,2.1,1,4.1,1.5,6.2
		c0.3,1.2,0.5,2.3,0.8,3.5c1,3.6,2.2,7.1,3.3,10.7c1.8,6,3.7,11.9,5.5,17.9c0.8,2.7,1.7,5.5,2.5,8.2h36.6c1.6-1.9,3.3-3.7,4.9-5.6
		c3.2-3.7,6.4-7.5,9.4-11.4C68.4,297,66.4,295.4,64.7,293.6z"/>
	<path class="st5" d="M72.1,296.3c1.2-1.5,2.3-3,3.4-4.6c0.7-0.9,1.3-1.9,2-2.8c0.3-0.4,0.6-0.9,0.9-1.3c0.3-0.5,0.6-1.3,1.3-1.5
		c0.7-0.2,1.5-0.2,2.2-0.2c1.2-0.1,2.5-0.3,3.7-0.4c0.1,0,0.3,0,0.4-0.1c0,0,0.1,0,0.2,0c0.3,0,0.6-0.1,0.8-0.1
		c0.8-0.2,1.5-0.4,2.3-0.7c0.8-0.3,1.5-0.6,2.3-0.9c0.1,0,0.2-0.1,0.3-0.1c-1.4-0.2-2.7-0.4-3.7-1.5c-0.4-0.5-0.7-1-0.9-1.7
		c-0.7,0.9-1.5,1.8-2.4,2.5c-2.9,2.4-6.9,3.3-10.6,2.8c-0.6-0.1-1.2-0.5-1.2-1.2c0-0.6,0.6-1.3,1.2-1.2c3.1,0.4,6.7-0.2,9.1-2.3
		c1.4-1.2,2.6-2.8,3.5-4.5c0.2-0.3,0.6-0.6,1-0.6c0.1,0,0.2,0,0.2,0c0.1,0,0.2,0,0.3,0c1.4,0.2,2.8,0.4,4.2,0.5
		c0.6,0.1,1.2,0.5,1.2,1.2c0,0.6-0.6,1.3-1.2,1.2c-1.1-0.1-2.1-0.2-3.2-0.4c0,0.1,0,0.3,0,0.4c0,0.8,0.2,1.5,1.1,1.9
		c0.6,0.3,1.2,0.3,1.9,0.4c0.7,0.1,1.4,0.2,2.1,0.3c0.5,0.1,0.9,0.1,1.3-0.1c-0.2,0.1,0.4-0.2,0.2-0.1c0.2-0.1,0.3-0.3,0.3-0.3
		c0.5-0.8,0.6-1.8,0.8-2.8c0.1-0.6,0.2-1.2,0.3-1.9c0-0.1,0-0.9-0.1-1.2l0,0c-0.1,0-0.1-0.1-0.1-0.1l-0.1-0.1
		c-0.3-0.2-0.6-0.3-0.8-0.5c-0.8-0.4-1.5-0.8-2.3-1.1c-0.4-0.2-0.9-0.4-1.3-0.6c-0.2-0.1-0.4-0.2-0.6-0.2c0,0-0.2-0.1-0.3-0.1
		c-0.3-0.1-0.6-0.3-0.9-0.4c-0.6-0.2-1-0.8-0.8-1.5c0.2-0.6,0.9-1.1,1.5-0.8c1.7,0.7,3.3,1.4,4.9,2.1c0.7,0.4,1.5,0.7,2.2,1.2
		c1,0.7,1.3,2,1.2,3.3c0,0.8-0.2,1.6-0.3,2.3c-0.1,0.7-0.2,1.3-0.4,2c-0.3,1.2-1,2.4-2.2,2.9c-0.2,0.1-0.3,0.1-0.5,0.2l0,0
		c0.3,0.3,1,0.7,1.4,0.8c0.2,0.1,0.5,0.2,0.7,0.2c0,0,0.1,0,0.2,0l0.1-0.1c0.2-0.2,0.4-0.4,0.6-0.6c0.3-0.3,0.7-0.7,1-1
		c0.5-0.6,1-1.3,1.3-2.1c0.3-0.8,0.2-1.6,0.2-2.5c0-1.6,0-3.2-0.2-4.7c-2-1.3-4-2.6-6-4c-1.3-0.9-0.1-2.9,1.2-2.1
		c1.3,0.8,2.5,1.7,3.8,2.5c0.7,0.4,1.3,0.9,2,1.3c0.5,0.3,1.1,0.6,1.3,1.2c0.4,1.3,0.3,2.8,0.4,4.1c0,1.6,0.3,3.3-0.3,4.9
		c-0.1,0.2-0.2,0.4-0.3,0.7c0.4-0.2,0.9-0.4,1.3-0.7c0.8-0.5,1-1.4,1-2.3c0-1.3,0-2.5-0.1-3.8c0-1.2,0-2.4-0.3-3.5
		c-0.1-0.5-0.4-0.8-0.8-1.1c-2.1-1.4-4.1-2.7-6.2-4.1c-1.3-0.9-0.1-2.9,1.2-2.1c0.8,0.5,1.5,0.9,2.3,1.4c0.1,0,0.3,0,0.4-0.1
		c3.1-0.4,6.4-0.8,9.6-1.4c0.4-0.1,0.8-0.1,1.1-0.2c0.1,0,0.2-0.1,0.4-0.1l0.2-0.1c0-0.1,0.2-0.2,0.2-0.2c0.1-0.1,0.1-0.2,0.2-0.3
		l0,0v-0.1c0-0.1,0-0.2,0.1-0.2l0,0c0-0.1,0-0.4,0-0.4c0-0.1,0-0.1,0-0.2l-0.1-0.2l0,0l0,0l-0.1-0.1c0,0-0.1,0-0.1-0.1
		c0,0-0.1,0,0,0l0,0c0,0,0,0,0.1,0l0,0l0,0c-0.1,0-0.5-0.1-0.3-0.1c-0.3,0-0.5,0-0.7,0c-2.5,0.3-5,0.5-7.5,0.8
		c-3.3,0.3-6.1,0.6-9.3,1.4c-4.9,1.2-9.6,2.9-14.3,4.6c-2.1,0.7-4.2,1.4-6.3,2.2c-1.2,0.5-2.8,1.3-3.8,2.1c-1.2,1-2.3,2.3-3.4,3.4
		c-1.4,1.4-2.8,2.9-4.2,4.3c-1,1.1-2,2.2-3.1,3.3c0.2,0.1,0.3,0.2,0.4,0.4c1.2,2.6,2.8,4.9,4.8,6.9
		C68.1,293.6,69.9,295.2,72.1,296.3C72,296.3,72.1,296.3,72.1,296.3z"/>
	<path class="st8" d="M114,262.5L114,262.5C113.9,262.4,114,262.5,114,262.5z"/>
	<path class="st5" d="M98.8,284.6L98.8,284.6L98.8,284.6z"/>
	<path class="st5" d="M97.3,274.9L97.3,274.9L97.3,274.9L97.3,274.9z"/>
	<path class="st5" d="M97.2,274.9C97.2,274.8,97.1,274.8,97.2,274.9L97.2,274.9L97.2,274.9z"/>
	<path class="st5" d="M97.3,274.9L97.3,274.9C97.2,274.9,97.2,274.9,97.3,274.9C97.2,274.9,97.2,274.9,97.3,274.9L97.3,274.9z"/>
	<path class="st8" d="M97.3,274.9C97.2,274.9,97.2,274.9,97.3,274.9l-0.1-0.1C97.1,274.8,97.2,274.9,97.3,274.9z"/>
	<path class="st7" d="M49.7,248c-1-3-2.3-5.9-3.6-8.8c-0.6-1.2-1.1-2.3-1.5-3.4c-0.5-1.6-1-3.3-1.4-5c-0.5-2-0.8-4-1-6
		c-0.2-1.8-0.3-3.8,0-5.4c0.1-0.6-0.2-1.3-0.8-1.5c-0.1,0-0.2,0-0.3,0c-0.6,1.7-1.4,3.4-1.1,5.1c-0.3-1.7,0.4-3.4,1.1-5.1
		c-0.5,0-1.1,0.3-1.2,0.9c-0.6,3.5-0.1,7,0.5,10.5c0.6,3.2,1.3,6.5,2.7,9.5c1.2,2.6,2.4,5.2,3.4,7.9c1.1,2.9,2,5.9,2.2,9
		c0.2,3.1-0.5,5.9-3,7.8c-0.2,0.2-0.3,0.4-0.3,0.7c0.4-0.1,0.8-0.3,1.3-0.6c-0.4,0.3-0.8,0.4-1.3,0.6c0,0.4,0.1,0.8,0.3,1
		c0.5,0.5,1.2,0.4,1.7,0C52.7,260.9,51.5,253.5,49.7,248z"/>
	<path class="st7" d="M40.8,258.6c-1.1-2.5-2.5-4.8-4-7.1c-1.1-1.8-2.4-3.5-3.5-5.2c-1.9-2.9-3.1-6.2-3.4-9.6
		c-0.4-4.2,0.2-8.4,0.8-12.5c0.1-0.6-0.2-1.3-0.8-1.5c-0.6-0.2-1.4,0.2-1.5,0.8c-0.5,3.8-1.1,7.6-1,11.4c0.1,3.9,1,7.7,2.9,11.1
		c1,1.9,2.3,3.6,3.5,5.4c1.5,2.2,2.9,4.5,4.2,6.9c0.6,1.2,1.1,2.2,1.5,3.6c0.1,0.3,0.1,0.6,0.2,0.8c0,0.1,0,0.1,0,0.2l0,0
		c0,0.1,0,0.2,0,0.4c0,0.2,0,0.4,0,0.7v0.1c0,0.1-0.1,0.2-0.1,0.3c-0.2,0.6,0.2,1.3,0.8,1.5c0.7,0.2,1.3-0.2,1.5-0.8
		c0.1-0.2,0.1-0.3,0.1-0.5c-0.8,0-1.6-0.1-2.4-0.1c0.8,0,1.6,0.1,2.4,0.1C42.4,262.5,41.5,260.3,40.8,258.6z"/>
	<path class="st7" d="M76.6,176.8c-0.6-0.2-1.4,0.2-1.5,0.8c-0.4,3-1.3,6-3.1,8.5c-1.5,2.2-3.7,3.7-6.4,3.5c-0.6,0-1.2,0.6-1.2,1.2
		c0,0.2,0.1,0.4,0.2,0.6c0.6-0.1,1.3-0.2,1.9-0.3c-0.7,0.1-1.3,0.2-1.9,0.3c0.2,0.3,0.6,0.6,1,0.6c7.3,0.5,11-7.7,11.8-13.8l0,0
		c-0.3-0.2-0.5-0.4-0.8-0.6c0.3,0.2,0.6,0.4,0.8,0.6C77.5,177.7,77.2,177,76.6,176.8z"/>
	<path class="st7" d="M64.6,188.4c2-2.6,3.4-5.6,4.2-8.8c0.4-1.5-1.9-2.1-2.3-0.6c-0.7,2.8-2,5.5-3.7,7.8c-1.6,2.2-3.9,4.1-6.5,4
		c-0.9,0-1.3,0.8-1.1,1.5c0.7-0.2,1.4-0.4,2.1-0.7c-0.7,0.3-1.4,0.5-2.1,0.7c0.1,0.5,0.5,0.9,1.1,0.9c1.8,0,3.4-0.6,4.8-1.5
		c-1.4,0-2.8-0.1-4.3-0.6c1.5,0.4,2.9,0.6,4.3,0.6C62.5,190.9,63.6,189.7,64.6,188.4z"/>
	<path class="st6" d="M23.5,156c0.1,0.4,0.2,0.7,0.3,1.1c0.2,0.6,0.8,1,1.5,0.8c0.6-0.2,1-0.9,0.8-1.5c-0.7-2.4-1.4-4.9-2.1-7.3
		c-0.1-0.4-0.2-0.7-0.3-1.1c-0.2-0.6-0.8-1-1.5-0.8c-0.6,0.2-1,0.9-0.8,1.5C22.1,151.1,22.8,153.5,23.5,156z"/>
	<path class="st6" d="M15,162.5c0.4,0.4,0.8,0.7,1.2,1.1c1.1,1.1,2.8-0.6,1.7-1.7c-2.7-2.6-5.4-5.1-8-7.7c-0.4-0.4-0.8-0.7-1.2-1.1
		c-1.1-1.1-2.8,0.6-1.7,1.7C9.6,157.3,12.3,159.9,15,162.5z"/>
	<path class="st6" d="M3,169.1c2.4,0.7,4.9,1.4,7.3,2.1c0.4,0.1,0.7,0.2,1.1,0.3c0.6,0.2,1.3-0.2,1.5-0.8s-0.2-1.3-0.8-1.5
		c-2.4-0.7-4.9-1.4-7.3-2.1c-0.4-0.1-0.7-0.2-1.1-0.3c-0.6-0.2-1.3,0.2-1.5,0.8C2,168.2,2.4,168.9,3,169.1z"/>
	<path class="st5" d="M116.7,283.5C116.7,283.5,116.7,283.4,116.7,283.5L116.7,283.5z"/>
</g>
<rect class="st3" width="1013" height="378.8"/>
<g>
	<g>
		<rect x="752.8" y="146.7" class="st9" width="182.2" height="134.2"/>
		<rect x="856.6" y="187.2" class="st0" width="25.3" height="22.8"/>
		<rect x="752.8" y="146.7" class="st1" width="182.2" height="17.7"/>
		<path class="st0" d="M752.8,280.9v13.9c0,3.5,2.8,6.3,6.3,6.3h169.6c3.5,0,6.3-2.8,6.3-6.3v-13.9H752.8z"/>
		<path class="st10" d="M752.8,134v17.7v124v5.1h182.2v-5.1v-124V134H752.8z M904.7,151.8v10.1h-20.2v-10.1H904.7z M828.7,207.4
			h-20.2v-17.7h20.2V207.4z M833.8,189.7h20.2v17.7h-20.2V189.7z M803.4,189.7v17.7h-20.2v-17.7H803.4z M803.4,212.5v17.7h-20.2
			v-17.7H803.4z M808.5,212.5h20.2v17.7h-20.2V212.5z M833.8,212.5h20.2v17.7h-20.2V212.5z M859.1,212.5h20.2v17.7h-20.2V212.5z
			 M884.4,212.5h20.2v17.7h-20.2V212.5z M884.4,207.4v-17.7h20.2v17.7H884.4z M879.4,207.4h-20.2v-17.7h20.2V207.4z M859.1,184.7
			v-17.7h20.2v17.7H859.1z M854.1,184.7h-20.2v-17.7h20.2V184.7z M828.7,184.7h-20.2v-17.7h20.2V184.7z M803.4,184.7h-20.2v-17.7
			h20.2V184.7z M757.9,189.7h20.2v17.7h-20.2V189.7z M757.9,212.5h20.2v17.7h-20.2V212.5z M757.9,235.3h20.2V253h-20.2V235.3z
			 M783.2,235.3h20.2V253h-20.2V235.3z M808.5,235.3h20.2V253h-20.2V235.3z M833.8,235.3h20.2V253h-20.2V235.3z M859.1,235.3h20.2
			V253h-20.2V235.3z M884.4,235.3h20.2V253h-20.2V235.3z M930,253h-20.2v-17.7H930V253z M930,230.2h-20.2v-17.7H930V230.2z
			 M930,207.4h-20.2v-17.7H930V207.4z M930,184.7h-20.2v-17.7H930V184.7z M904.7,184.7h-20.2v-17.7h20.2V184.7z M879.4,151.8v10.1
			h-20.2v-10.1H879.4z M854.1,151.8v10.1h-20.2v-10.1H854.1z M828.7,151.8v10.1h-20.2v-10.1H828.7z M803.4,151.8v10.1h-20.2v-10.1
			H803.4z M778.1,151.8v10.1h-20.2v-10.1H778.1z M757.9,275.8v-17.7h20.2v17.7H757.9z M783.2,275.8v-17.7h20.2v17.7H783.2z
			 M808.5,275.8v-17.7h20.2v17.7H808.5z M833.8,275.8v-17.7h20.2v17.7H833.8z M859.1,275.8v-17.7h20.2v17.7H859.1z M930,161.9h-20.2
			v-10.1H930V161.9z"/>
		<rect x="752.8" y="134" class="st0" width="182.2" height="5.1"/>
		<g>
			<path class="st11" d="M780.6,121.4c-2.8,0-5.1,2.3-5.1,5.1v15.2c0,2.8,2.3,5.1,5.1,5.1c2.8,0,5.1-2.3,5.1-5.1v-15.2
				C785.7,123.7,783.4,121.4,780.6,121.4z"/>
			<path class="st11" d="M806,121.4c-2.8,0-5.1,2.3-5.1,5.1v15.2c0,2.8,2.3,5.1,5.1,5.1c2.8,0,5.1-2.3,5.1-5.1v-15.2
				C811,123.7,808.8,121.4,806,121.4z"/>
			<path class="st11" d="M881.9,121.4c-2.8,0-5.1,2.3-5.1,5.1v15.2c0,2.8,2.3,5.1,5.1,5.1c2.8,0,5.1-2.3,5.1-5.1v-15.2
				C887,123.7,884.7,121.4,881.9,121.4z"/>
			<path class="st11" d="M907.2,121.4c-2.8,0-5.1,2.3-5.1,5.1v15.2c0,2.8,2.3,5.1,5.1,5.1c2.8,0,5.1-2.3,5.1-5.1v-15.2
				C912.3,123.7,910,121.4,907.2,121.4z"/>
		</g>
	</g>
	<circle class="st1" cx="929.9" cy="278.9" r="58.2"/>
	<circle class="st5" cx="929.9" cy="278.9" r="50.6"/>
	<g>
		<rect x="927.4" y="223.2" class="st1" width="5.1" height="10.1"/>
		<rect x="927.4" y="324.4" class="st1" width="5.1" height="10.1"/>
		<rect x="975.4" y="276.4" class="st1" width="10.1" height="5.1"/>
		<rect x="874.2" y="276.4" class="st1" width="10.1" height="5.1"/>
	</g>
	<rect x="933" y="259.9" transform="matrix(0.96 -0.28 0.28 0.96 -44.2834 273.0914)" class="st0" width="1.3" height="63.3"/>
	<path class="st7" d="M933.5,273.7c-0.3-0.2-0.6-0.3-0.9-0.5l0-0.5l-1.4-37.6c0-0.7-0.6-1.3-1.3-1.3s-1.3,0.5-1.3,1.3l-2.1,36.9
		l-17-10.6c-1.2-0.8-2.8-0.4-3.6,0.7s-0.6,2.8,0.5,3.7l15.1,12.3l2.3,1.8c0.3,2.1,1.6,3.8,3.4,4.7c2.7,1.4,6.1,0.6,8-2
		C937,279.7,936.3,275.7,933.5,273.7z"/>
	<circle class="st5" cx="929.9" cy="278.9" r="2.5"/>
</g>
<g>
	<path class="st7" d="M398.9,378.1h-7.7v-21.6c-0.8,1.1-1.4,1.7-2,2.4c-1.6-2.9-2.7-4.1-4.4-5.6c5.3-6.1,9.8-19.3,10.7-23l7.1,2.2
		c0.4,0.1,0.7,0.3,0.7,0.8c0,0.4-0.2,0.6-0.4,0.8H414v-3.4l7.4,0.3c0.7,0,1.1,0.4,1.1,0.8c0,0.5-0.6,0.8-1.1,1v1.3h12.9v6.1h-12.9
		v2.2h11.8v17h-12.1c-0.2,1.9-0.7,4.2-1.8,6.7c1.8,1.1,6.7,4,16.8,5.3c-1.7,2.2-2.9,4.1-3.9,7.2c-4.4-1-11.5-3.4-17-6.7
		c-1.1,1-5.9,4.8-12,6.8c-0.7-1.8-1.5-3.3-4.5-6V378.1z M398.9,372.1c7.2-1.9,10.1-4.3,10.8-4.8c-2-1.9-3.2-3.5-4.4-5.4l3-2.7h-5.8
		v-17H414v-2.2h-12.3v-5.7l-0.1,0.1c-1.2,3.8-2.6,7.2-3.4,9c0.9,0.3,1.4,0.5,1.4,1.1c0,0.4-0.2,0.5-0.7,0.9V372.1z M414,353.2v-4.8
		h-4.5v4.8H414z M410.3,359.3c0.6,0.7,1.4,1.6,3,3.2c0.5-1.1,0.7-1.9,0.8-3.2H410.3z M421.5,348.4v4.8h4.6v-4.8H421.5z"/>
	<path class="st7" d="M452.3,335.6c0.5,0.2,1,0.3,1,0.8c0,0.7-0.6,0.8-1.1,0.8c-1.1,3.2-2.9,8.6-2.9,15.7c0,6.3,2,10.8,3.5,10.8
		c1.7,0,3.6-4.6,5-7.9c1.9,2.7,3.9,4.4,5.5,5.5c-4.2,10.1-8.9,13.6-11.4,13.6c-2.9,0-10.6-6.2-10.6-22.3c0-6.7,1.1-12.7,2.5-19.4
		L452.3,335.6z M477.4,336c5.7,7.7,9.6,16.5,10.5,26.2c-3.1,1.2-6.8,3-8.5,3.8c-0.6-11-3.8-18.6-8.7-25.7L477.4,336z"/>
	<path class="st7" d="M539,344.4c-0.1,1.5-0.8,10.7-7,20.5c2.1,2.7,4.5,5,9,7.6c-2.3,1.6-3.7,3.3-5,6.1c-1.8-1-4.5-2.8-8.6-8
		c-2.1,2.1-4.7,4.3-10.3,7.4c-1-2.1-2.4-3.7-4.4-5c-1.8,3.6-4.5,4.5-9,4.9c0-1.2,0.1-3.5-1.7-6.3c-1.6,3.8-2.7,5.2-3.2,6
		c-1.7-1.8-4.4-3.5-6.5-4.5c6.2-8.8,6.3-15.4,6.4-28.9h-5v-6.6h8v-7.7l8,0.4c0.5,0.1,1.1,0.1,1.1,0.7c0,0.5-0.5,0.7-1.1,1v5.6h7.5
		v4.8c3.4-6.5,4.2-10.9,4.6-13l7.3,2.5c0.3,0.1,0.6,0.2,0.6,0.6c0,0.6-0.4,0.7-1.1,0.9c-0.5,1.6-0.9,2.9-1.4,4.2h14v6.6H539z
		 M506.2,355.1c-0.5,6.3-2.1,11.1-3.6,15.1c4,0.2,5.6-0.1,5.9-15.1H506.2z M506.5,344.4l-0.1,3.7h7c0.4-0.5,1.1-1.4,2.5-3.7H506.5z
		 M519.4,352.1c-0.6,0.8-0.7,1-1,1.4c-1-0.9-2.8-2.4-3.2-2.7c-0.1,5.4-0.4,17.2-2.2,21.5c3.7-1.6,7.7-4.7,10.3-7.9
		C521.7,361.2,520.2,356,519.4,352.1z M525.6,344.4c0.3,7.1,1.2,10.5,2.3,13.1c0.7-1.6,3-6.4,3.6-13.1H525.6z"/>
	<path class="st7" d="M571.6,363.3v-24.1h4.9c0.3-0.5,0.7-1.7,0.9-2.2h-7.6v-5.5h24.4v5.5h-9.6c-0.2,0.5-0.7,1.8-0.9,2.2h9.3v24.1
		h-4.3c3.5,2.5,5.4,3.1,6.3,3.4c-1.8,1.6-3.1,3.4-3.4,4c0.9-0.1,3.1-0.2,4.1-0.3c-0.7,1-2,2.9-2.4,7.3c-4.3,0.1-11.1,0.1-15.4,0.1
		c-9,0-17-0.2-24-6.1c-0.9,3.8-1.3,5.2-2.1,6.7c-4.3-1.8-5.6-2.1-6.6-2.3c2.5-4.8,3.4-9,3.4-14.2c0-1.5-0.1-2.2-0.2-3l6.7,0.6
		c0.5,0.1,1.2,0.1,1.2,0.7c0,0.6-0.5,0.7-1.1,1c0,0.6-0.2,2.6-0.2,2.9c1,1,1.7,1.6,2.1,2v-8.7h-10.6v-5.6h23.8v5.6h-6.7v2.7h6.4v5.7
		h-6.4v4.1c2.8,0.9,5.5,1.1,9.6,1.3c-1.4-1.5-3-2.7-4.9-3.6c3.6-1.8,6.4-3.8,7-4.3H571.6z M568.4,331.5V350h-20.5v-18.5H568.4z
		 M561.4,338.6v-2h-6.5v2H561.4z M554.9,342.9v2h6.5v-2H554.9z M581.1,365.1c0.4,0.3,0.6,0.5,0.6,0.9c0,0.6-1.1,0.7-1.8,0.7
		c-1.8,1.5-4.1,3.5-5.5,4.4c8.1,0.2,13.1-0.2,14.8-0.3c-1.9-1.1-4.4-2.8-6.6-5.4l2.4-2.2h-6.3L581.1,365.1z M586.2,346.1v-1.9h-7.9
		v1.9H586.2z M578.3,350.3v1.9h7.9v-1.9H578.3z M578.3,356.4v1.9h7.9v-1.9H578.3z"/>
	<path class="st7" d="M628.2,333.2v12.1l-1.9,15.3h-5l-1.9-15.3v-12.1H628.2z M619.4,365.4h8.7v8.8h-8.7V365.4z"/>
</g>
<g>
	<path class="st7" d="M357.2,163.4l2.9,2.9c-3,5.2-6.5,8.9-9.4,11.9c-1.5-1.8-2.7-2.8-4.8-3.9c2.4-1.9,4-3.8,5.1-5.3h-6.6v12.2
		c0,4.5-2.8,5-9.2,4.9c-0.2-1.4-0.5-3.6-2-5.9c1.3,0.2,2.3,0.3,3.2,0.3c1.7,0,1.9-0.6,1.9-2.4V169H323v-5.6h16.5
		c-1.9-0.9-3.3-1.6-8.7-3.5l3.8-4.2h-7.8v-5.1h26.1l2.2,3.1c-2,2.2-5.9,4.9-8.8,6.8c1.5,0.8,1.8,1.1,2.2,1.4c-0.6,0.4-1.1,0.8-2,1.5
		H357.2z M335,155.7c0.7,0.3,3.8,1.4,6,2.2c1.6-1,2.2-1.6,3-2.2H335z"/>
	<path class="st7" d="M381.8,155.6c0.2,0.1,0.4,0.4,0.4,0.6c0,0.5-0.8,0.6-1.2,0.6c-0.4,0.4-1.8,2.6-2.2,3c-0.4,0.6-2.3,3.1-5.1,6.3
		c0.5,0,3.4-0.3,3.8-0.4c-0.4-1.5-0.6-2-0.8-2.6l3.4-0.8c-0.1-0.1-0.2-0.1-0.3-0.2c4.1-5.4,5.8-10.1,6.4-12.5l5.6,1.8
		c0.2,0.1,0.5,0.4,0.5,0.6c0,0.4-0.7,0.6-1,0.7c-0.3,0.7-0.5,1.1-1.2,2.8H401c0.2,6.2,0.2,21.1-1.9,26.6c-1.6,4-5.3,4.4-9.1,4.2
		c0-1-0.1-2.7-2.5-6.5c1,0.2,2.5,0.6,3.5,0.6c2.7,0,3.4-2.8,3.7-4.5c0.5-2.9,0.8-8.9,0.7-15.2h-7.9c-1.4,2.4-1.9,3.2-2.7,4.3
		c-0.9-0.8-2.5-1.7-3.2-2c0.6,1.9,1,3.8,1.8,7.4c-3.1,0.8-3.8,1.1-4.9,1.5c-0.1-1-0.1-1.1-0.2-1.4l-1.7,0.2v15.8h-5.4v-12.3
		c-0.2,0.2-0.4,0.3-0.7,0.4c-0.3,3.7-0.6,6.2-1.6,9.4c-2.5-0.7-4.2-0.8-5-0.9c1.7-3.6,1.8-9.6,1.9-10.2l5.1,0.4
		c0.1,0,0.2,0.1,0.3,0.2v-2.4c-1,0.1-3.6,0.2-4.4,0.4c-0.1,0.2-0.2,0.4-0.4,0.7c-0.1,0.2-0.3,0.2-0.5,0.2c-0.4,0-0.7-0.3-0.7-0.8
		l-0.5-5.2c1,0,2.1-0.1,3.2-0.2c0.8-0.9,1.6-1.9,1.8-2.2c-0.8-0.8-1.5-1.6-2.4-2.2c-2.5-2.2-2.8-2.4-3.3-2.8l3.2-4.6
		c0.9,0.6,1.1,0.8,1.5,1.1c1.5-2.5,2.2-3.8,3.2-6.3l4.6,2.2c0.3,0.1,0.4,0.3,0.4,0.6c0,0.4-0.2,0.4-1.2,0.5
		c-1.2,2.1-2.4,4.1-3.6,5.9c0.6,0.6,0.8,0.7,1.1,1c2.5-3.6,3.2-5,3.7-6.1L381.8,155.6z M382.5,171.8c0.4,3.6,0.9,6.1,1.8,8.7
		c-1.5,0.4-3.7,1-4.8,1.6c-1-3.5-1.4-6.2-1.7-9.2L382.5,171.8z M389.4,164.2c1.9,3.4,2.5,5.3,3.5,8.8c-1.7,0.7-4.8,2.1-5,2.2
		c-0.4-1.6-1.3-5.2-3.6-9.2L389.4,164.2z"/>
	<path class="st7" d="M429.9,156.2c-0.9,1.5-1.3,2.1-1.6,2.4c0.4,0,0.9,0,0.9,0.5c0,0.3-0.4,0.4-0.7,0.5v0.8h15v8.6h-5.4v-4.8h-25.6
		v4.8h-5.4v-8.6h15v-2.1l4,0.2c-1-0.5-2-0.8-3.6-1.3c0.4-0.4,0.6-0.6,0.8-1h-2.8c0.2,0.5,0.7,2,1,3.4c-1.4,0-5,0.5-5.9,0.7
		c-0.1-1.2-0.6-2.9-0.9-4.1h-1.1c-1.6,2.3-2.5,3.2-3,3.6c-1.6-1.1-2.9-1.8-4.7-2.6c2.6-2.5,4.6-5.8,5.7-8.2l5.4,1.4
		c0.3,0.1,0.5,0.2,0.5,0.5c0,0.4-0.6,0.6-1.3,0.6c0,0.2-0.2,0.4-0.2,0.5h8.9v2c0.3-0.4,1.5-2.1,2.7-5l5.4,1.4
		c0.3,0.1,0.6,0.2,0.6,0.6c0,0.5-0.8,0.6-1.3,0.6c0,0.2-0.1,0.4-0.2,0.5h11.3v4.2h-6.6c0.4,1.1,0.8,2.3,0.9,3.3
		c-2.7,0-4.4,0.2-5.9,0.5c-0.2-1.6-0.4-2.3-0.9-3.8H429.9z M419.5,185.1v1h-5.6v-20.5h22.9v8.7h-17.3v1.2h20.2v10.5h-5.6v-1H419.5z
		 M431.4,169.3h-11.9v1.5h11.9V169.3z M434.1,180.9v-1.5h-14.6v1.5H434.1z"/>
	<path class="st7" d="M458.6,163h3.1v5h-3.1v6.5c1.4-0.4,2.8-0.8,4.2-1.4c-0.3,1.6-0.2,3.5-0.2,5c-1.1,0.6-4.3,1.6-5.8,2.2
		c-1,0.4-5.4,1.7-6.3,2c-0.2,0.5-0.4,0.9-0.8,0.9c-0.5,0-0.6-0.4-0.8-0.9l-1.2-5.2c2.7-0.5,4.6-1,5.2-1.1V168h-3.4v-5h3.4v-6.6h-4.2
		v-4.9h14v4.9h-4V163z M485.8,180.5v4.8h-24.4v-4.8h10.2v-3h-6.8v-4.8h6.8v-3.1h-7.4v-18.8h20.5v18.8H477v3.1h7.4v4.8H477v3H485.8z
		 M471.5,158.2v-2.8h-2.3v2.8H471.5z M469.2,162.3v2.9h2.3v-2.9H469.2z M479.3,158.2v-2.8H477v2.8H479.3z M477,162.3v2.9h2.4v-2.9
		H477z"/>
	<path class="st7" d="M496.9,158c3.1,1.2,8,4.2,9.4,5.5c-1.5,1.6-3.3,4.4-3.9,5.3c-3.4-2.9-6.6-4.4-9.1-5.4L496.9,158z M495.6,179.6
		c12.6-4.3,22.9-13.4,28.2-21.2c1.3,2.8,3.8,5.1,4.1,5.4c-5,7.5-16.9,17.4-27.6,21.3c0,0.2-0.1,0.9-0.7,0.9c-0.3,0-0.5-0.4-0.6-0.5
		L495.6,179.6z M501,149.2c4.1,1.6,6.6,2.7,10,4.7c-0.8,1-3.2,4.4-3.8,5.2c-3-2.1-6.3-3.8-9.7-5L501,149.2z"/>
	<path class="st7" d="M535.8,158.4v-6h20.4c0.6,0,2.1-0.1,2.8-0.3l3.1,3.4c-0.3,0.4-0.9,1.2-1.5,2.6c-1.5,3.4-3.1,6.7-5.1,9.8
		c1.7,1.3,9,7.4,12,11c-1.3,1.5-3.5,3.9-4.8,5.4c-1.5-2-4.8-6.7-10.8-11.4c-3.8,4.6-10.1,9.8-15.4,12c-1.5-2.5-2.4-3.6-4.6-5.5
		c5.2-1.8,9.1-4.2,13-8c4.6-4.4,6.2-8.3,8-12.9H535.8z"/>
	<path class="st7" d="M572.8,167.4v-5.7H607v5.7H594c-0.2,4.4-1,8.8-4.5,12.7c-1.2,1.3-3.9,4.2-8.7,5.7c-1.2-1.9-3.1-3.7-4.8-5
		c9.1-2.5,11.5-7.6,11.6-13.4H572.8z M601.5,151.3v5.8h-23v-5.8H601.5z"/>
	<path class="st7" d="M636.4,163.6c4.1,5,8.6,12.1,9.8,15.6c-1.8,1.4-4,3-5.4,4.2c-0.5-1.3-1-2.6-1.8-4.5c-9.3,1.7-15.3,2.6-26,3.9
		c-0.1,0.4-0.3,0.8-0.6,0.8c-0.4,0-0.5-0.4-0.6-0.8l-1.5-6.2c1.9,0,2.9-0.1,4.2-0.2c2.9-5.3,7.4-16.8,9.3-26l6.9,1.8
		c0.4,0.1,0.7,0.2,0.7,0.6c0,0.6-0.6,0.7-1,0.8c-0.7,1.7-3.4,9.4-4.1,11c-0.6,1.6-2.9,7.3-5,11.4c3.8-0.4,8.5-1,14.7-2.1
		c-1.6-2.4-3.2-4.8-5.2-6.9L636.4,163.6z"/>
	<path class="st7" d="M670.1,151.2c0.7,0.2,1,0.2,1,0.7c0,0.5-0.5,0.5-1,0.6c-0.2,0.8-1.1,4.2-1.3,5c7.1-0.3,9.5,4.1,9.5,11.9
		c0,0.6,0,9.2-3.3,13.4c-0.9,1.1-2.6,2.6-6.4,2.6c-1.8,0-2.6-0.2-3.4-0.5c0-2.9,0-3.4-0.8-6.5c2.5,0.7,3.4,0.8,4.2,0.8
		c3.3,0,3.7-7.2,3.7-11.2c0-1.6-0.1-4.5-3.8-4.5c-0.4,0-0.8,0-1.2,0.1c-2,7.6-5,14.9-9.1,21.6c-1.2-1-2.6-1.9-5.8-3.2
		c3.3-5,6.5-11,8.4-17c-2.5,0.7-3.8,1.2-5.7,2.2l-1.9-6.8c1.6-0.2,3.4-0.6,9.2-1.9c0.7-3.5,1.2-5.7,1.2-8.9L670.1,151.2z
		 M680.4,156.1c2.5,2.5,4.9,5.3,6.5,7.7c1.5,2.3,1.9,3.6,1.9,5c0,3-3.5,4.3-5.9,5.2c-0.9-2-2.4-4.4-3-5.3c1.5-0.5,2-0.6,2-1.5
		c0-1.9-3.9-7-5.6-8.8L680.4,156.1z M682.6,151.1c1.8,1.8,2.5,2.8,3.3,4c-0.9,0.6-1.1,0.8-2.9,2.1c-0.4-0.5-2.4-3.2-3.3-4.1
		L682.6,151.1z M686.6,148.6c2.2,2.2,3,3.4,3.4,4.1c-0.9,0.6-2.3,1.6-3.2,2.3c-1.1-2-1.8-3-3.2-4.4L686.6,148.6z"/>
</g>
<g>
	<rect x="287.3" y="268.2" class="st12" width="385.2" height="34"/>
	<g>
		<g>
			<path class="st0" d="M407.8,281.6l26.7-34.5c1-1.4,1.7-2.7,2.1-3.9c0.3-1.1,0.4-2.2,0.4-3.2c0-2.6-0.8-5-2.4-6.9
				c-1.7-2-4-3-7-3.1c-2.7,0-4.9,0.9-6.7,2.7c-1.8,1.8-2.9,4.3-3.3,7.5h-9.8c0.2-5.9,2.2-10.7,5.7-14.5c3.6-3.7,8-5.6,13.3-5.7
				c5.9,0.1,10.6,2,14.3,5.8c3.7,3.8,5.6,8.6,5.7,14.4c0,4.6-1.4,8.8-4.1,12.4l-22,28.4h26.1v10h-39V281.6z"/>
			<path class="st0" d="M455.4,281h9.8v10l-9.8,7.3V281z"/>
			<path class="st0" d="M475.5,291c0,0,0.2-0.6,0.8-1.8c0.6-1.2,1.3-2.7,2.3-4.6c0.9-1.9,2-3.9,3.1-6.2c1.2-2.3,2.3-4.5,3.4-6.8
				c1.1-2.2,2.2-4.3,3.2-6.1c1-1.9,1.8-3.3,2.4-4.4c-0.9,0.5-2,0.9-3.2,1c-1.2,0.1-2.5,0.1-4.1,0.1c-2.1-0.1-4-0.5-5.6-1.2
				c-1.6-0.7-3-1.6-4.1-2.7c-1.2-1.1-2.1-2.2-2.9-3.6c-0.8-1.3-1.4-2.6-1.9-3.8c-0.5-1.2-0.8-2.4-1-3.5c-0.2-1.1-0.3-1.9-0.3-2.5
				c0-0.2,0-0.5,0-1.1c0-0.5,0-1.1,0-1.7c0-0.6,0-1.3,0-1.9c0-0.6,0.1-1.2,0.1-1.6c0-0.2,0.1-0.8,0.3-1.7c0.2-0.9,0.5-2,1-3.3
				c0.5-1.3,1.2-2.7,2-4.1c0.9-1.5,2-2.8,3.4-4.1c1.4-1.3,3.1-2.4,5.2-3.3c2-0.9,4.5-1.5,7.3-1.8c2.9-0.3,5.5-0.1,7.8,0.5
				c2.2,0.6,4.2,1.5,5.8,2.7c1.6,1.2,2.9,2.5,4,4.1s1.9,3.1,2.5,4.7c0.6,1.6,1,3.1,1.2,4.6c0.2,1.5,0.2,2.8,0.1,3.8
				c-0.2,1.6-0.4,3-0.6,4.2c-0.2,1.2-0.5,2.4-0.8,3.6c-0.3,1.1-0.7,2.2-1,3.3s-0.8,2.3-1.4,3.6c-0.1,0.4-0.5,1.1-1,2.3
				c-0.6,1.2-1.3,2.7-2.1,4.4c-0.9,1.7-1.8,3.6-2.8,5.8c-1,2.1-2.1,4.2-3.1,6.4c-2.5,5-5.3,10.6-8.3,16.8H475.5z M477.7,240
				c0,1.3,0.1,2.6,0.2,4.2c0.1,1.5,0.5,2.9,1.1,4.3c0.6,1.3,1.6,2.5,3,3.4c1.4,1,3.3,1.5,5.7,1.6c1.2,0.1,2.3-0.1,3.3-0.5
				c1-0.4,1.9-0.9,2.7-1.5c0.8-0.6,1.4-1.3,2-2.1c0.6-0.8,1-1.5,1.4-2.3c0.4-0.8,0.6-1.5,0.8-2.1c0.2-0.6,0.2-1.2,0.2-1.5
				c0-0.8-0.1-1.7-0.1-2.7c0-1-0.1-2-0.3-3c-0.2-1-0.5-2-0.9-3c-0.4-1-1-1.8-1.8-2.5c-0.8-0.7-1.8-1.3-3-1.7
				c-1.2-0.4-2.7-0.6-4.5-0.5c-2,0.1-3.6,0.6-4.9,1.5c-1.3,0.9-2.3,1.9-3,3c-0.7,1.1-1.3,2.2-1.5,3.2
				C477.8,238.9,477.7,239.6,477.7,240z"/>
			<path class="st0" d="M517.2,270.5c0.1-6.8,2.8-12.1,8.3-15.9c-2.1-1.8-3.7-3.9-4.9-6.3c-1.4-2.2-2.1-4.9-2.1-7.9
				c0.1-5.9,2-10.7,5.8-14.6c3.6-3.8,8.2-5.7,13.8-5.8c5.7,0.1,10.4,2,14,5.8c3.7,3.8,5.5,8.7,5.6,14.6c0,3.1-0.6,5.7-1.9,7.9
				c-1.3,2.4-3,4.5-5.1,6.3c5.5,3.8,8.3,9.1,8.3,15.9c-0.1,6.3-2.1,11.4-6.1,15.2c-4,3.9-9,5.9-14.8,5.9c-5.8-0.1-10.7-2-14.6-5.9
				C519.3,281.9,517.3,276.8,517.2,270.5z M527,270.4c0.1,3.2,1.2,5.9,3.4,7.9c2.1,2.2,4.7,3.2,7.7,3.2c3.1,0,5.7-1.1,7.8-3.2
				c2.1-2.1,3.2-4.7,3.3-7.9c-0.1-3.3-1.2-6-3.3-8c-2.1-2-4.7-3.1-7.8-3.2c-3,0.1-5.6,1.1-7.7,3.2C528.2,264.4,527,267.1,527,270.4z
				 M528.3,240.1c0.1,3.3,1.1,5.8,3.1,7.5c1.9,1.8,4.2,2.7,6.7,2.7c2.6,0,4.9-0.9,6.9-2.7c1.9-1.7,2.9-4.2,3-7.5
				c-0.1-3.4-1.1-5.9-3-7.6c-1.9-1.7-4.2-2.5-6.9-2.5c-2.5,0-4.8,0.8-6.7,2.5C529.3,234.2,528.3,236.8,528.3,240.1z"/>
			<path class="st0" d="M568.7,240.2c0.1-6.5,2.1-11.5,6-15c3.7-3.5,8.2-5.2,13.3-5.2c5.3,0,9.8,1.7,13.5,5.2
				c3.8,3.5,5.7,8.5,5.9,15v31.1c-0.1,6.5-2.1,11.5-5.9,15c-3.7,3.5-8.2,5.3-13.5,5.3c-5.2-0.1-9.6-1.8-13.3-5.3c-4-3.5-6-8.5-6-15
				V240.2z M597.7,240.8c-0.2-7.1-3.4-10.7-9.6-10.8c-6.3,0.1-9.5,3.7-9.6,10.8v29.9c0.1,7.1,3.3,10.7,9.6,10.8
				c6.2-0.1,9.5-3.7,9.6-10.8V240.8z"/>
		</g>
		<g>
			<path class="st0" d="M630.1,270.7v19.8h-8.2v-46h43.7v38.9c0,4.9-3,7-10.2,7c-1,0-1.4-0.1-2.2-0.2c-0.5-5-1.8-7.3-2.5-8.6
				c1.1,0.3,2.7,0.7,4.9,0.7c2,0,2-0.6,2-2.3v-9.3H630.1z M639.8,252h-9.7v11.3h9.7V252z M647.7,263.3h9.9V252h-9.9V263.3z"/>
			<path class="st7" d="M719.8,252.4c-12.8-0.2-24,11.3-24,19.8c0,6,7.6,9,14.7,9.2c-1.1,2.2-3,6.6-3.9,9.5
				c-4.2-1.1-19.1-5.3-19.1-17.7c0-9.6,7.4-16.5,9.6-17.9c-10.2,0.8-16.5,2.1-21.5,3.3l-1.2-9.8c8,0,12.5,0,23.1-1.2
				c7.5-0.8,16-2.2,20.9-3.8L719.8,252.4z M711.2,259.7c1.6,1.4,3.8,4,4.8,5.6c-1.5,1-2.2,1.6-4,3.1c-2-2.9-2.5-3.5-4.6-5.9
				L711.2,259.7z M716.7,256.1c1.5,1.3,3.6,3.8,4.6,5.5c-1.3,1-2.2,1.8-3.8,3.2c-1.9-2.9-2.5-3.5-4.6-5.9L716.7,256.1z"/>
		</g>
		<g>
			<path class="st0" d="M308.1,273.5c-1.9,10.5-7.4,14.9-10.2,17.2c-1.2-1.6-4.2-4.3-6.5-5.5c9.5-6.3,9.4-16.2,9.4-21.4v-19.7h32.6
				v38.5c0,5.6-1.4,7.9-11.7,7.4c-0.2-2.4-1.5-6.7-2.6-8.5c0.8,0.2,3,0.6,4.3,0.6c1.8,0,1.9-1.1,1.9-3v-5.6H308.1z M325.1,255.1
				v-3.7h-16.5v3.7H325.1z M325.1,266v-3.7h-16.5v3.7H325.1z"/>
			<path class="st0" d="M368,258.5c-1.8,3.2-3.2,5.4-5.5,8c4.4,2.4,6.5,3.1,8,3.6v-17.7h4.4c0.7-1.3,0.9-1.9,1.4-3h-6.1v-5.7h22.7
				v5.7h-8.9c-0.6,1.2-1.1,2.3-1.5,3h9.2v27.8h-4.8c2.7,2.5,4.8,3.8,8,5.4c-1.9,1.6-3.5,3.3-5.1,5.3c-1.3-0.8-5.9-3.4-9.6-7.7
				l2.9-2.9H377l2.2,1.9c0.6,0.5,0.9,0.7,0.9,1.1c0,0.4-0.4,0.5-0.8,0.5h-0.5c-1.9,2.1-5.3,5.1-8.8,7.2c-1.2-1.9-2.1-3-3.4-4.3v3
				h-5.8v-2h-4.5v2.7h-6.3v-13.7c-0.3,0.2-0.7,0.4-0.9,0.5c-2-2.7-2.5-3.3-4.7-5.1c3.8-1.2,6.6-2.9,9-4.8c-1-0.8-1.7-1.4-2.1-1.8
				c-0.5,0.5-0.8,0.8-1.8,1.6c-1.1-1.4-4-3.5-5.1-4.2c1.9-1.3,4.5-3.3,6.8-6.6h-5.1v-9.9h8.6v-4.1l7.9,0.5c0.3,0,0.9,0.1,0.9,0.7
				s-0.7,1-1.5,1.3v1.6h7.6v9.9h-3.9L368,258.5z M363.9,255.7v-3.8h-12.3v3.6c0.9-1.4,1.4-2.4,1.7-3.3l6.5,1.6
				c0.4,0.1,0.8,0.4,0.8,0.7c0,0.6-0.6,0.6-1.7,0.7c-0.1,0.2-0.2,0.3-0.2,0.4H363.9z M355.5,260.6c-0.2,0.2-0.4,0.6-0.6,0.8
				c0.6,0.5,1.2,0.9,2.5,1.9c0.8-1,1.2-1.6,2-2.7H355.5z M362.2,273c-1.8-0.9-2.9-1.5-4-2.1c-0.9,0.8-1.6,1.4-2.6,2.1H362.2z
				 M360.7,282.4v-4.1h-4.5v4.1H360.7z M370.5,270.6c-0.5,0.6-2.3,4.2-2.8,4.9c-0.4-0.2-0.8-0.3-1.2-0.5v10c2.3-1.4,4.9-3.4,6.4-4.9
				h-2.4V270.6z M385.3,260.1V258H377v2.1H385.3z M377,264.6v2.3h8.3v-2.3H377z M377,271.7v2.3h8.3v-2.3H377z"/>
		</g>
		<g>
			<path class="st0" d="M628.4,222.5c-0.8,0.7-2.8,2.5-2.8,6c0,3.5,2,5.3,2.8,6l-0.7,0.7c-2.9-2.5-3.1-5.5-3.1-6.7
				c0-1.2,0.2-4.2,3.1-6.7L628.4,222.5z"/>
			<path class="st0" d="M635.2,223.1c-0.1,0-0.1,0-0.3-0.1c-0.3,0.1-0.7,0.3-1.4,0.6v2.3h1.8v1h-1.8v0.2c0.1,0.3,0.6,1.5,1.7,2.7
				c-0.1,0.1-0.5,0.4-0.8,0.8c-0.4-0.8-0.7-1.4-0.9-1.8v6h-1v-6.4c-0.7,2.1-1.3,3.2-1.7,4c-0.3-0.3-0.4-0.4-0.9-0.7
				c1.5-2.1,2.2-4,2.5-4.9h-2.2v-1h2.4v-1.9c-0.8,0.2-1.4,0.3-1.8,0.4c-0.2-0.4-0.3-0.6-0.6-1c1.4-0.1,3.2-0.6,4.6-1.4l0.7,0.8
				c0.1,0.1,0.1,0.1,0.1,0.2C635.4,223,635.3,223.1,635.2,223.1z M638.2,230.2c-0.2,1.2-0.7,3.4-3.3,4.8c-0.2-0.3-0.4-0.6-0.9-1
				c1-0.4,3-1.4,3.1-4.5l1.1,0.3c0.1,0,0.3,0.1,0.3,0.2C638.6,230.1,638.4,230.2,638.2,230.2z M641.7,234.5h-1.1
				c-1.2,0-1.2-0.7-1.2-1.4v-3.6h-3.7v-4.4h3.4c0.6-0.7,1.2-1.7,1.8-3.1l1.1,0.4c0.1,0,0.2,0.1,0.2,0.2s-0.2,0.1-0.4,0.1
				c-0.5,1.1-0.8,1.6-1.4,2.3h1.8v4.4h-1.8v3.3c0,0.6,0,0.6,0.7,0.6c0.6,0,0.9,0,1-1.5c0.3,0.2,0.6,0.4,1,0.6
				C642.9,234.5,642.2,234.5,641.7,234.5z M637.4,224.9c-0.4-0.8-0.9-1.8-1.5-2.5l0.9-0.5c0.7,0.9,1.3,2,1.5,2.5
				C637.9,224.6,637.8,224.7,637.4,224.9z M641.3,226h-4.4v2.5h4.4V226z"/>
			<path class="st0" d="M649.2,224.4v1.1h-1.6v2.6c0.9-0.3,1.3-0.5,1.8-0.7c0,0.1-0.1,0.7,0,1.1c-0.3,0.1-0.8,0.4-1.7,0.7v4.1
				c0,1.4-0.6,1.6-2.4,1.6c0-0.5-0.2-0.9-0.3-1.2c0.2,0,0.4,0.1,0.8,0.1c0.8,0,0.8-0.2,0.8-0.6v-3.5c-0.3,0.1-1.3,0.4-1.5,0.5
				c0,0.2-0.1,0.4-0.3,0.4c-0.2,0-0.2-0.1-0.2-0.3l-0.2-1.1c0.7-0.2,1.5-0.4,2.2-0.6v-3h-1.9v-1.1h1.9V222l1.2,0.1
				c0.1,0,0.3,0,0.3,0.2c0,0.2-0.2,0.2-0.4,0.3v1.8H649.2z M649.7,225.3v-1.1h1.6c0-0.4,0.1-1.9,0.1-2.2l1.2,0c0.1,0,0.3,0,0.3,0.2
				s-0.1,0.2-0.4,0.3c0,0.6,0,1.1,0,1.7h4.9v1.1h-5c-0.1,1-0.2,1.5-0.2,1.8h3.7l0.6,0.5c-0.2,1-0.8,2.8-1.9,4.3
				c0.9,0.9,1.9,1.6,3,2.1c-0.5,0.3-0.8,0.7-0.9,0.9c-1.4-0.9-2.1-1.4-2.8-2.2c-0.9,1-1.8,1.7-2.9,2.3c-0.2-0.2-0.4-0.5-0.9-0.8
				c0.6-0.3,1.8-0.9,3.1-2.3c-0.8-1.1-1.2-2.1-1.4-2.7c-0.9,3.4-2.4,5-2.9,5.5c-0.4-0.5-0.7-0.6-0.9-0.7c2.7-2.7,3.2-6.5,3.3-8.7
				H649.7z M652.4,228.1c0.3,0.9,0.6,1.9,1.4,2.9c0.9-1.3,1.2-2.5,1.3-2.9H652.4z"/>
			<path class="st0" d="M659.7,235.2l-0.7-0.7c0.8-0.7,2.8-2.5,2.8-6c0-3.5-2-5.3-2.8-6l0.7-0.7c2.7,2.3,3.1,5,3.1,6.7
				S662.4,232.9,659.7,235.2z"/>
		</g>
	</g>
	<g>
		<path class="st0" d="M564.2,310.9c-0.8,0.7-2.8,2.5-2.8,6c0,3.5,2,5.3,2.8,6l-0.7,0.7c-2.9-2.5-3.1-5.5-3.1-6.7
			c0-1.2,0.2-4.2,3.1-6.7L564.2,310.9z"/>
		<path class="st0" d="M571.1,311.5c-0.1,0-0.1,0-0.3-0.1c-0.3,0.1-0.7,0.3-1.4,0.6v2.3h1.8v1h-1.8v0.2c0.1,0.3,0.6,1.5,1.7,2.7
			c-0.1,0.1-0.5,0.4-0.8,0.8c-0.4-0.8-0.7-1.4-0.9-1.8v6h-1v-6.4c-0.7,2.1-1.3,3.2-1.7,4c-0.3-0.3-0.4-0.4-0.9-0.7
			c1.5-2.1,2.2-4,2.5-4.9h-2.2v-1h2.4v-1.9c-0.8,0.2-1.4,0.3-1.8,0.4c-0.2-0.4-0.3-0.6-0.6-1c1.4-0.1,3.2-0.6,4.6-1.4l0.7,0.8
			c0.1,0.1,0.1,0.1,0.1,0.2C571.3,311.5,571.2,311.5,571.1,311.5z M574.1,318.6c-0.2,1.2-0.7,3.4-3.3,4.8c-0.2-0.3-0.4-0.6-0.9-1
			c1-0.4,3-1.4,3.1-4.5l1.1,0.3c0.1,0,0.3,0.1,0.3,0.2C574.4,318.6,574.2,318.6,574.1,318.6z M577.6,323h-1.1
			c-1.2,0-1.2-0.7-1.2-1.4v-3.6h-3.7v-4.4h3.4c0.6-0.7,1.2-1.7,1.8-3.1l1.1,0.4c0.1,0,0.2,0.1,0.2,0.2s-0.2,0.1-0.4,0.1
			c-0.5,1.1-0.8,1.6-1.4,2.3h1.8v4.4h-1.8v3.3c0,0.6,0,0.6,0.7,0.6c0.6,0,0.9,0,1-1.5c0.3,0.2,0.6,0.4,1,0.6
			C578.8,323,578.1,323,577.6,323z M573.2,313.4c-0.4-0.8-0.9-1.8-1.5-2.5l0.9-0.5c0.7,0.9,1.3,2,1.5,2.5
			C573.8,313,573.6,313.1,573.2,313.4z M577.1,314.5h-4.4v2.5h4.4V314.5z"/>
		<path class="st0" d="M592.8,322.9h-6.2c-2.2,0-3.1-0.3-3.8-1.4c-0.8,0.7-1.3,1.1-1.8,1.4c0,0.2,0,0.5-0.2,0.5
			c-0.1,0-0.3-0.2-0.3-0.3l-0.4-1c0.5-0.2,1.1-0.5,2.2-1.3v-3.7h-2v-1.1h3.2v4.4c0,0.4,0.1,1.2,1.2,1.5c0.4,0.1,0.8,0.2,3.4,0.2
			c3,0,4.5-0.1,5.1-0.2C593.1,321.9,592.9,322.3,592.8,322.9z M583.2,313.7c-1-1.1-1.8-1.8-2.7-2.4l0.8-0.8c0.9,0.6,2,1.6,2.8,2.3
			C583.5,313.4,583.3,313.6,583.2,313.7z M592,320.8c-1.7-1.4-3.2-3.3-3.7-5.9c-0.6,2.5-2,4.7-3.4,5.9c-0.2-0.3-0.4-0.5-1-0.8
			c2-1.7,3.2-4,3.5-6.4l0.7,0.1c-0.1-0.8-0.1-1.4-0.1-1.8h-2.4v-1.1h3.5c0,0.3,0,0.6,0,1.1c0,2.2,0.2,5.3,3.8,7.9
			C592.3,320.5,592.2,320.6,592,320.8z"/>
		<path class="st0" d="M599.7,318.6c0.1,0.9,0.2,2.7,2.6,2.7c2,0,2.7-1.1,2.7-2.3c0-1.8-1.6-2.2-2.4-2.2h-1.1v-1.1h1
			c1.5,0,2.4-0.8,2.4-1.9c0-1.2-1-1.8-2.3-1.8c-2.3,0-2.5,1.7-2.6,2.4h-1.4c0.1-0.7,0.4-3.6,4.1-3.6c2.1,0,3.7,1.1,3.7,2.9
			c0,1.9-1.5,2.4-2,2.5c1.4,0.3,2.2,1.4,2.2,2.7c0,1.5-0.8,3.5-4,3.5c-1.3,0-4-0.2-4.2-3.9H599.7z"/>
		<path class="st0" d="M610,322.2c0,0.4,0,1.2-1.5,1.4v-0.5c0.7-0.1,0.7-0.5,0.7-0.8h-0.7v-1.6h1.5V322.2z"/>
		<path class="st0" d="M620.4,321v1.2h-8.2c0.1-2.3,1.4-3.2,3.4-4.6c2.7-1.9,3.4-2.3,3.4-3.6c0-1.4-1.3-2-2.5-2
			c-2.6,0-2.7,2.3-2.7,3h-1.4c0.1-2.7,1.6-4.3,4.2-4.3c2.2,0,3.8,1.2,3.8,3.2c0,1.4-0.6,2.4-2.9,3.8c-2.6,1.6-3.1,2.2-3.4,3.1H620.4
			z"/>
		<path class="st0" d="M630.2,311.2v1.2c-1.6,1.3-4.2,4.6-4.3,9.8h-1.4c0-3.8,2-7.7,4.2-9.8h-6.5v-1.2H630.2z"/>
		<path class="st0" d="M640.3,319.2c0,1.2-0.6,3.4-4.1,3.4c-3.5,0-4.1-2.2-4.1-3.4c0-2.3,1.8-2.8,2.2-2.9c-1.2-0.4-1.9-1.1-1.9-2.5
			c0-1.8,1.5-2.9,3.8-2.9c2.5,0,3.8,1.2,3.8,2.9c0,1.3-0.7,2.1-1.9,2.5C638.5,316.4,640.3,316.8,640.3,319.2z M633.4,319
			c0,2,1.7,2.3,2.7,2.3c1,0,2.7-0.3,2.7-2.3c0-1.4-1-2.2-2.7-2.2C634.4,316.8,633.4,317.7,633.4,319z M633.7,314
			c0,1.7,1.9,1.8,2.4,1.8c0.5,0,2.4-0.1,2.4-1.8c0-1.1-0.9-1.9-2.4-1.9C633.7,312.1,633.7,313.7,633.7,314z"/>
		<path class="st0" d="M654.4,323.2c-0.1-0.7-0.2-1-0.4-1.3c0.4,0.1,0.8,0.1,1.2,0.1c0.8,0,1-0.2,1-1v-3.4h-8.8v5.6h-1.2v-12.2h11.2
			v10.1C657.4,322.7,657,323.3,654.4,323.2z M651.1,312.2h-3.8v4.3h3.8V312.2z M656.2,312.2h-3.9v4.3h3.9V312.2z"/>
		<path class="st0" d="M660.6,323.6l-0.7-0.7c0.8-0.7,2.8-2.5,2.8-6c0-3.5-2-5.3-2.8-6l0.7-0.7c2.7,2.3,3.1,5,3.1,6.7
			S663.3,321.3,660.6,323.6z"/>
	</g>
</g>
</svg>
