<?xml version="1.0" encoding="utf-8"?>
<!-- Generator: Adobe Illustrator 27.4.1, SVG Export Plug-In . SVG Version: 6.00 Build 0)  -->
<svg version="1.1" id="レイヤー_1" xmlns="http://www.w3.org/2000/svg" xmlns:xlink="http://www.w3.org/1999/xlink" x="0px"
	 y="0px" viewBox="0 0 532.5 300.7" style="enable-background:new 0 0 532.5 300.7;" xml:space="preserve">
<style type="text/css">
	.st0{fill:#CCF2F9;}
	.st1{fill:#FCEACC;}
	.st2{fill:#E6E6E6;}
	.st3{fill:#59C2E1;}
	.st4{opacity:0.15;}
	.st5{fill:#796A56;}
	.st6{fill:none;}
	.st7{fill:#9CDBED;}
	.st8{fill:#FFFFFF;}
	.st9{fill:#F29600;}
	.st10{fill:#C69C6D;}
	.st11{fill:#A67C52;}
	.st12{fill:#DDC4A7;}
	.st13{fill:#8C6239;}
	.st14{fill:#A38161;}
	.st15{fill:#F2F2F2;}
	.st16{fill:#B3B3B3;}
	.st17{fill:#D88C8C;}
	.st18{fill:#FFF057;}
	.st19{opacity:5.000000e-02;}
	.st20{fill:#D9E021;}
	.st21{fill:#9BDAED;}
	.st22{fill:#CCCCCC;}
	.st23{fill:#00BDE1;}
	.st24{fill:#687485;}
	.st25{fill:#9BA3AE;}
	.st26{fill:#B3B9C2;}
	.st27{fill:#E5E7EA;}
	.st28{fill:#F2F7FB;}
	.st29{fill:#CBC7C6;}
	.st30{fill:#927C36;}
	.st31{fill:#AD9240;}
	.st32{fill:#CEBE8C;}
	.st33{fill:#BDA866;}
	.st34{fill:#F7DBC5;}
	.st35{fill:#F2A18D;}
	.st36{fill:#CA8878;}
	.st37{fill:#EACFC9;}
	.st38{fill:#10636B;}
	.st39{fill:#5C504B;}
	.st40{fill:#DDDAD9;}
	.st41{fill:#CDD1D6;}
	.st42{fill:#F7F4EC;}
	.st43{fill:#F5EEEA;}
	.st44{fill:#CF9486;}
	.st45{fill:#28737A;}
	.st46{fill:#D7F0E9;}
	.st47{fill:#534741;}
	.st48{fill:#12A67C;}
	.st49{fill:#EDECEC;}
	.st50{fill:#D4D1CF;}
	.st51{fill:#505E71;}
	.st52{fill:#00254A;}
	.st53{fill:#4D6781;}
	.st54{fill:#DADDE1;}
	.st55{fill:#C0C5CC;}
	.st56{fill:#1A3B5C;}
	.st57{fill:#9C5A35;}
	.st58{fill:#818B99;}
	.st59{fill:#A66B4A;}
	.st60{fill:#CCD7E1;}
	.st61{clip-path:url(#SVGID_00000130633092594063416420000014667970723665528976_);fill:#E5EEF8;}
	.st62{fill:#C6B37A;}
	.st63{fill:#B59D53;}
	.st64{opacity:0.6;fill:#FFFFFF;}
	.st65{fill:#BAB5B3;}
	.st66{fill:#D5A093;}
	.st67{fill:#FEF5F3;}
	.st68{enable-background:new    ;}
	.st69{fill:#DEDEDE;}
	.st70{fill:#FAFAFA;}
	.st71{fill:#EDEDED;}
	.st72{opacity:0.5;fill:#C8C8C8;}
	.st73{fill:#D6D6D6;}
	.st74{fill:#89645D;}
	.st75{fill:#A37A74;}
	.st76{fill:#704F4A;}
	.st77{fill:#C8E6E8;}
	.st78{fill:#492F2C;}
	.st79{fill:#C62E2E;}
	.st80{fill:#DB3737;}
	.st81{fill:#F0F0F0;}
	.st82{fill:#FFAED6;}
	.st83{fill:#EA5959;}
	.st84{fill:#DB72A5;}
	.st85{fill:#EF95B6;}
	.st86{fill:#FFABC5;}
	.st87{fill:#EF954B;}
	.st88{fill:#FFB26C;}
	.st89{fill:#E5D783;}
	.st90{fill:#FFF5AC;}
	.st91{opacity:0.84;fill:#B3E2F2;}
	.st92{fill:#A19378;}
	.st93{fill:#EFDBB2;}
	.st94{fill:#93876E;}
	.st95{fill:#D7C6A1;}
	.st96{fill:#BBAC8C;}
	.st97{fill:#3B3944;}
	.st98{fill:#DCDDDD;}
	.st99{fill:#FCFCFB;}
	.st100{fill:#35333D;}
	.st101{fill:#725C50;}
	.st102{fill:#2E6147;}
	.st103{fill:#EBCAB5;}
	.st104{fill:#333333;}
	.st105{fill:#5B4850;}
	.st106{fill:#262525;}
	.st107{fill:#E2BA40;}
	.st108{fill:#FAD047;}
	.st109{fill:#C7A235;}
	.st110{fill:#C9A13C;}
	.st111{fill:#EDE4D9;}
	.st112{fill:#898989;}
	.st113{fill:#8182AE;}
	.st114{fill:#ADC2DA;}
	.st115{fill:#73453E;}
	.st116{opacity:0.5;}
	.st117{fill:#8C8278;}
	.st118{fill:#DCC8BE;}
	.st119{fill:#A3B76D;}
	.st120{fill:#85A473;}
	.st121{fill:#5F7DA2;}
	.st122{fill:#EFEFEF;}
	.st123{fill:#384363;}
	.st124{fill:#252C42;}
	.st125{fill:#5B6782;}
	.st126{fill:#FDBD15;}
	.st127{fill:url(#SVGID_00000023258099924685096690000002280710278253074565_);}
	.st128{fill:#1367BA;}
	.st129{fill:#1F83D1;}
	.st130{fill:#EBEBEB;}
	.st131{fill:#C7D5EA;}
	.st132{fill:#B3C6E8;}
	.st133{fill:#72593A;}
	.st134{fill:#9CB3E2;}
	.st135{fill:#DAE3EF;}
	.st136{fill:url(#SVGID_00000034086668383410833220000004325625123092063632_);}
	.st137{fill:url(#SVGID_00000103962445096005406080000014237241815189963420_);}
	.st138{fill:#F4BB67;}
	.st139{fill:url(#SVGID_00000003795304998766305520000004252733339527886251_);}
	.st140{fill:url(#SVGID_00000056425056752187665500000010297471978057845639_);}
	.st141{fill:url(#SVGID_00000034073241583556430830000010806998001267311531_);}
	.st142{fill:url(#SVGID_00000081619617298606692280000002047690828169058985_);}
	.st143{fill:url(#SVGID_00000142155974125464112490000003068738718549641101_);}
	.st144{fill:url(#SVGID_00000131333563118426307250000000428059908911455131_);}
	.st145{opacity:8.000000e-02;fill:#212A3D;}
	.st146{fill:#DEBAA7;}
	.st147{fill:#44527A;}
	.st148{fill:#845E28;}
	.st149{fill:#3C3C3C;}
	.st150{fill:#414141;}
	.st151{fill:#4F3A25;}
	.st152{fill:#083E9E;}
	.st153{fill:#1553B7;}
	.st154{fill:#304665;}
	.st155{fill:#EBF1F7;}
	.st156{fill:#4C4C4C;}
	.st157{fill:url(#SVGID_00000009584766485098797100000010639794484622357895_);}
	.st158{fill:url(#SVGID_00000136398970596149497470000003923120369034858402_);}
	.st159{fill:#D9DADA;}
	.st160{fill:#B2B2B3;}
	.st161{fill:#C6C7C7;}
	.st162{fill:#868686;}
	.st163{fill:#33B0FF;}
	.st164{opacity:0.3;fill:#FFFFFF;}
	.st165{fill:url(#SVGID_00000150076256157290875240000000342111687648624030_);}
	.st166{opacity:0.4;fill:#FFFFFF;}
	.st167{opacity:0.25;fill:#FFFFFF;}
	.st168{opacity:0.12;fill:#FFFFFF;}
	.st169{fill:#E89E0C;}
	.st170{fill:#FFD21F;}
	.st171{fill:#FCF8F7;}
	.st172{fill:url(#SVGID_00000174568382977152836120000017120006792740749463_);}
	.st173{fill:url(#SVGID_00000176013072750152946050000010231188670465281155_);}
	.st174{fill:url(#SVGID_00000154398630230401942680000003379707424399868308_);}
	.st175{fill:#979797;}
	.st176{fill:#303460;}
	.st177{fill:#333366;}
	.st178{fill:#DE723B;}
	.st179{fill:#212A3D;}
	.st180{fill:#684F3E;}
	.st181{fill:url(#SVGID_00000120528104488030506650000010040856970982766491_);}
	.st182{fill:url(#SVGID_00000173147692461551479040000003946439173983920516_);}
	.st183{fill:url(#SVGID_00000021119847939618001900000009659456885160939143_);}
	.st184{opacity:5.000000e-02;fill:#1E1E49;}
	.st185{fill:#F5F9FC;}
	.st186{opacity:0.6;}
	.st187{opacity:0.2;fill:#FFFFFF;}
</style>
<g>
	<g>
		<ellipse class="st24" cx="379.7" cy="220.4" rx="35.5" ry="7.4"/>
		<path class="st24" d="M318.7,207.5l-31.8,16.2c-0.1,0.1-0.1,0.2,0,0.2l17.1,3.5c0.7,0.2,1.4,0.1,2-0.3l28.3-17.9
			c0.1-0.1,0.1-0.2,0-0.2L318.7,207.5C318.8,207.5,318.8,207.5,318.7,207.5z"/>
		<g>
			<g>
				<path class="st25" d="M414.8,220.2c0,2.7-9.3,5.5-20.8,5.5c-11.5,0-20.8-2.8-20.8-5.5c0-0.3-0.1-3,0.2-3.4
					c1.8-2.3,10.5-1.6,20.6-1.6c10,0,18.7-0.1,20.7,2.1C415,217.8,414.8,219.8,414.8,220.2z"/>
				<path class="st26" d="M414.8,217.8c0,3.1-9.3,5.6-20.8,5.6c-11.5,0-20.8-2.7-20.8-5.8s9.3-5.9,20.8-5.9
					C405.5,211.8,414.8,214.7,414.8,217.8z"/>
			</g>
			<g>
				<g>
					<path class="st25" d="M396.8,191.5h-5.5v25.4c0,0,0.5,0.9,2.9,0.9c1.7,0,2.6-0.9,2.6-0.9V191.5z"/>
				</g>
				<g>
					<path class="st27" d="M395.2,191.6h0.9v25.7c0,0-0.1,0.1-0.4,0.2c-0.3,0.1-0.5,0.1-0.5,0.1V191.6z"/>
				</g>
			</g>
		</g>
		<g>
			<g>
				<rect x="412" y="89.5" class="st28" width="57.8" height="106.1"/>
				<path class="st29" d="M471,196.8h-60.2V88.3H471V196.8z M413.2,194.4h55.3V90.8h-55.3V194.4z"/>
			</g>
			<polygon class="st8" points="414.4,193 414.4,92.2 467.3,92.2 			"/>
			<g>
				<rect x="469.7" y="89.5" class="st28" width="57.8" height="106.1"/>
				<path class="st29" d="M528.7,196.8h-60.2V88.3h60.2V196.8z M471,194.4h55.3V90.8H471V194.4z"/>
			</g>
			<polygon class="st8" points="472.2,193 472.2,92.2 525.1,92.2 			"/>
		</g>
		<ellipse class="st24" cx="436.3" cy="219.6" rx="19.1" ry="7.4"/>
		<ellipse class="st24" cx="515.9" cy="215.9" rx="12.9" ry="4.1"/>
		<g>
			<g>
				<path class="st30" d="M320,208.3h-2.5l-0.9-30.5c0-1.3,1-2.4,2.2-2.4l0,0c1.1,0,2,0.9,1.9,2.1L320,208.3z"/>
				<path class="st30" d="M319.1,175.9h-0.9c-0.9,0-1.6-0.7-1.6-1.6v-0.8c0-0.9,0.7-1.6,1.6-1.6h0.9c0.9,0,1.6,0.7,1.6,1.6v0.8
					C320.7,175.2,320,175.9,319.1,175.9z"/>
				<rect x="316.3" y="169" class="st30" width="4.7" height="3.2"/>
			</g>
			<g>
				<path class="st31" d="M290.2,223.8h-2.8l-0.9-37.4c0-1.6,1.1-2.9,2.4-2.9l0,0c1.2,0,2.2,1.1,2.1,2.5L290.2,223.8z"/>
				<path class="st31" d="M289.2,184.2h-0.9c-1,0-1.9-0.8-1.9-1.9v-1.2c0-1,0.8-1.9,1.9-1.9h0.9c1,0,1.9,0.8,1.9,1.9v1.2
					C291.1,183.4,290.3,184.2,289.2,184.2z"/>
				<rect x="286.2" y="175.9" class="st31" width="5.2" height="3.8"/>
			</g>
			<g>
				<path class="st31" d="M305.8,226.9h-2.8l-0.9-37.4c0-1.6,1.1-2.9,2.4-2.9l0,0c1.2,0,2.2,1.1,2.1,2.5L305.8,226.9z"/>
				<path class="st31" d="M304.9,187.3H304c-1,0-1.9-0.8-1.9-1.9v-1.2c0-1,0.8-1.9,1.9-1.9h0.9c1,0,1.9,0.8,1.9,1.9v1.2
					C306.7,186.5,305.9,187.3,304.9,187.3z"/>
				<polygon class="st31" points="307,182.8 304.4,183.8 301.9,182.8 301.9,179 307,179 				"/>
			</g>
			<g>
				<path class="st31" d="M334.4,209.2h-2.8l-1-31.8c0-1.4,1.1-2.6,2.4-2.6h0c1.2,0,2.2,1,2.1,2.3L334.4,209.2z"/>
				<path class="st31" d="M333.4,175.5h-1c-1,0-1.8-0.8-1.8-1.8v-0.9c0-1,0.8-1.8,1.8-1.8h1c1,0,1.8,0.8,1.8,1.8v0.9
					C335.2,174.7,334.4,175.5,333.4,175.5z"/>
				<polygon class="st31" points="335.5,171.3 332.8,172.1 330.3,171.3 330.3,167.8 335.5,167.3 				"/>
			</g>
			<polygon class="st31" points="325.2,164.2 286.3,172.1 286.2,177.5 305.2,180.5 335.5,167.6 335.5,162.3 			"/>
			<polygon class="st30" points="323.3,160 284.9,170.9 284.8,172.1 305.2,175.1 337,162.2 337,160.7 			"/>
			<polygon class="st32" points="321,159.1 284.8,170.6 305.2,173.6 337,160.7 			"/>
			<ellipse class="st33" cx="321.2" cy="170.7" rx="0.7" ry="0.8"/>
		</g>
		<g>
			<path class="st26" d="M411.8,193.8v-2.4c0-3.4-2.7-6.1-6.1-6.1h-24.6c-3.4,0-6.1,2.7-6.1,6.1v2.4c0,1.6,1.3,2.9,2.9,2.9H409
				C410.5,196.7,411.8,195.4,411.8,193.8z"/>
			<path class="st34" d="M383.8,120.9c0,0-1.3,1.9-1.6,3.4c-0.4,1.5-0.1,3.2-0.1,3.2s-1.7,2.3-1.7,3c-0.1,0.6,0.7,0.8,1.3,1
				c0,0,0.8,3.9,1.8,4.4c1.7,0.7,3.3,0.2,3.3,0.2l1.5,7.4l7.7-3.1l-1.4-5.3l-3.7-1.8c0,0,1.8-3.9,1.2-5c-0.5-1.2-5.7-7.2-5.7-7.2
				H383.8z"/>
			<g>
				<path class="st35" d="M365.6,182.8c0,0-2.3,27.3-2.6,27.9c-0.4,0.8-4.8,2.5-4.8,2.5s1.9,1.4,2.6,1.6c1.4,0.5,7.3-1.2,8.2-1.7
					c0.5-0.3-0.9-2.3,0-5.7c1.5-5.8,4.5-14.2,4.6-17.2c0.1-4.7-0.8-6.6-0.8-6.6L365.6,182.8z"/>
				<g>
					<path class="st36" d="M369,211.4c0,0,1.2,1.4,0.7,3.2c-0.6,2.1-1,2.1-3.4,1.7c-0.9-0.2-4.8,1.2-6.1,1.3s-3.2,0-4.6-0.4
						c-1.7-0.4-2.7-1.2-2.5-2.4c0.2-1.6,1-1.1,3.4-1.6c1.1-0.2,1.7-0.2,2.6-0.6c0.5-0.2,0.9,1.6,6.1,0.3
						C368.3,212.1,369,211.4,369,211.4z"/>
				</g>
				<path class="st36" d="M369.4,215.7l-0.2,1.3c0,0-0.9,0.3-1.7,0.3c-0.9,0-1.6-0.2-1.6-0.2l-0.1-0.8c0,0,1.2,0,2.2-0.1
					C369,216,369.4,215.7,369.4,215.7z"/>
				<path class="st37" d="M366.4,216.4c-0.3,0-0.5,0-0.5,0c0,0-0.1,0-0.1-0.1c0,0,0-0.1,0.1-0.1c0,0,2.6,0.1,3.3-0.5
					c0,0,0.1,0,0.1,0c0,0,0,0.1,0,0.1C368.8,216.3,367.2,216.4,366.4,216.4z"/>
				<path class="st38" d="M360.6,185.5l-4.2,18.2c0,0,3.4,1.2,7.4,3.4c4,2.1,4.7,2.2,11.7,1.4c0,0,1.2-22.3,9.8-24.9
					C388.1,182.8,366.4,179.1,360.6,185.5z"/>
			</g>
			<path class="st39" d="M415,138.4c-2.4-2.4-6.6-4.8-10.4-9.3c-3.8-4.5-4.7-7-4.7-7l-0.2-0.2c0,0-3.7-0.7-0.2,5.2
				c3.5,5.9,10.8,10.1,13.4,12.3c2.6,2.1,2.2,12.8,2.2,12.8s1.8,0,2.6-1.8C418.5,148.9,417.4,140.7,415,138.4z"/>
			<g>
				<path class="st40" d="M377.1,171.2l-15.1-2.8c0,0-7.6-1.1-12.3,3l17.5,4.5c0,0,2.7-3.1,5.2-3.7
					C374.9,171.4,377.1,171.2,377.1,171.2z"/>
				<path class="st41" d="M367.3,176l-18-4.6l0.3-0.2c4.7-4.1,12.4-3,12.5-3l16.2,3l-1.2,0.2c0,0-2.2,0.3-4.7,0.9
					C370.1,172.9,367.4,175.9,367.3,176L367.3,176z M350.1,171.2l17.1,4.3c0.5-0.5,2.9-3.1,5.2-3.7c1.4-0.4,2.7-0.6,3.6-0.8l-14-2.6
					C361.9,168.5,354.7,167.5,350.1,171.2z"/>
			</g>
			<polygon class="st26" points="367.1,176.6 349.4,172.7 349.4,171.3 367.2,175.8 			"/>
			<g>
				<path class="st42" d="M377.6,170.9l-14.5-2.8c0,0-8-2.4-12.7,1.7l17,3.5c0,0,2.9-1.9,5.4-2.2
					C375.2,170.8,377.6,170.9,377.6,170.9z"/>
				<path class="st41" d="M367.3,173.5L367.3,173.5l-17.4-3.6l0.3-0.2c2.5-2.1,5.9-2.5,8.3-2.4c2.5,0.1,4.5,0.6,4.6,0.7l14.5,2.8
					l0,0.4c0,0-2.3-0.2-4.8,0.2C370.3,171.6,367.4,173.4,367.3,173.5L367.3,173.5z M350.7,169.7l16.5,3.4c0.5-0.3,3.1-1.9,5.4-2.2
					c1-0.1,2-0.2,2.8-0.2l-12.5-2.4C362.9,168.3,355.3,166.1,350.7,169.7z"/>
			</g>
			<g>
				<path class="st43" d="M377.6,170.9l-14.5-2.8c0,0-0.2-4.4,8.1-3.7l15.2,3.2c0,0-2.6,0-5.1,0.6
					C378.6,168.9,377.6,170.9,377.6,170.9z"/>
				<path class="st41" d="M377.7,171.1l-0.1,0l-14.7-2.8l0-0.1c0-0.1,0-1.3,1.1-2.3c1.4-1.3,3.8-1.8,7.2-1.5l0,0l16.8,3.5l-1.7,0
					c0,0-2.7,0-5.1,0.6c-2.5,0.6-3.5,2.6-3.5,2.6L377.7,171.1z M363.2,168l14.3,2.7c0.3-0.5,1.4-2.1,3.7-2.6
					c1.3-0.3,2.7-0.5,3.7-0.6l-13.8-2.9c-3.2-0.3-5.6,0.2-6.9,1.4C363.4,166.8,363.3,167.7,363.2,168z"/>
			</g>
			<g>
				<path class="st34" d="M358.7,188.4c0,0-2.3,27.3-2.6,27.9c-0.4,0.8-4.8,2.5-4.8,2.5s1.9,1.4,2.6,1.6c1.4,0.5,7.3-1.2,8.2-1.7
					c0.5-0.3-0.9-2.3,0-5.7c1.5-5.8,4.5-14.2,4.6-17.2c0.1-4.7-0.8-6.6-0.8-6.6L358.7,188.4z"/>
				<g>
					<path class="st44" d="M362,216.9c0,0,1.2,1.4,0.7,3.2c-0.5,2-1,2.1-3.4,1.7c-0.9-0.2-4.8,1.2-6.1,1.3c-1.3,0.1-3.2,0-4.6-0.4
						c-1.7-0.4-2.7-1.2-2.5-2.4c0.2-1.6,1-1.1,3.4-1.6c1.1-0.2,1.7-0.2,2.6-0.6c0.5-0.2,0.9,1.6,6.1,0.3
						C361.3,217.7,362,216.9,362,216.9z"/>
				</g>
				<path class="st44" d="M362.4,221.2l-0.1,1.2c0,0-1.1,0.4-1.9,0.4c-0.9,0-1.6-0.3-1.6-0.3l-0.1-0.8c0,0,1.2,0,2.2-0.1
					C362,221.5,362.4,221.2,362.4,221.2z"/>
				<path class="st37" d="M359.5,221.9c-0.3,0-0.5,0-0.5,0c0,0-0.1,0-0.1-0.1c0,0,0-0.1,0.1-0.1c0,0,2.6,0.1,3.3-0.5
					c0,0,0.1,0,0.1,0c0,0,0,0.1,0,0.1C361.8,221.9,360.3,221.9,359.5,221.9z"/>
				<path class="st45" d="M353.6,191l-4.2,18.2c0,0,3.4,1.2,7.4,3.4c4,2.1,4.7,2.2,11.7,1.4c0,0,1.2-22.3,9.8-24.9
					C381.2,188.3,359.5,184.6,353.6,191z"/>
			</g>
			<path class="st46" d="M389.5,139.6c0,0-3.7,1.3-7.6,8.5c-3.9,7.2-5,23.4-13.2,25.7c-10,2.8-14.8,9.1-16.5,14.7
				c-3.6,11.9,11.7,5.5,17.3,10.8c6.6,6.1,29.9,5.4,38,0.9c8.1-4.5,2.6-5.5,11.5-9.4c4.1-1.8-12-46.3-17.4-49
				C396.2,139.2,389.5,139.6,389.5,139.6z"/>
			<g>
				<path class="st47" d="M383.6,121.3c0,0,0.6-2.2,4.1-3.7c2.1-0.9,6.7-1.1,10.1,1.5c3.2,2.5,3.7,7.5,2.5,10.7
					c-1.4,3.8-5.6,5.1-5.6,5.1l-3.7-1.5l-2-2.7c0,0,0.3-0.8,0.4-1.3c0.2-0.7,0.1-1.7-0.2-2.1c-1-1.2-1.8,0.3-1.8,0.3
					s-2.1-1.1-2.8-2.5C383.5,123,383.6,121.3,383.6,121.3z"/>
			</g>
			<path class="st34" d="M370.7,176.5c0,0-3.2,1.6-3.8,2c-0.3,0.1-0.5,0.2-0.7,0.2c-0.4,0-0.7,0-0.8-0.2c-0.1-0.1-0.7,0.1-0.8,0
				c-0.3-0.2-0.4-0.3-0.4-0.3s-0.5,0-0.8-0.1c-0.4-0.1-3.4-1.9-4-2.8c-0.2-0.3,0-0.5,0.2-0.5c0.5-0.1,1.4,0.5,2.2,0.9
				c0.6,0.3,2.8-0.1,2.9-0.7c0.1-0.8-1.5-0.7-2.2-1c-0.7-0.3,0.2-0.9,0.7-0.8c1,0.2,2.6-0.1,3.9,0.4c0.6,0.2,2.6,0.7,2.6,0.7
				l0.9-0.2c0,0,0.4,0.2,0.3,1.1C370.7,176,370.7,176.5,370.7,176.5z"/>
			<path class="st47" d="M388.8,130.7c-0.1,0,0.1,4.6-0.1,6.7c-0.3,2.9-0.6,20.2-2.5,21.2c0,0,7.3,0.5,12.2-0.1s2.9-19.1,2.9-19.1
				l-0.6-13.8L388.8,130.7z"/>
		</g>
		<g>
			<path class="st31" d="M513.4,167.1l-0.7-12.2c0,0,0.8-13.5,0.8-14.5c-0.1-1-2.4-21-2.4-21h-3.1c0,0,2.1,19.2,2.1,19.8
				c0,0.7-0.9,18-0.9,18l1.6,26.2l4.2,0.2L513.4,167.1z"/>
			<path class="st31" d="M517.2,192.6l0.6-11.7c0,0-0.3-12.6-0.2-13.6c0.1-1,2.1-19.9,2.1-19.9l2.2-0.3c0,0-1.5,19.5-1.5,20.1
				s1.4,16.8,1.4,16.8l-1.5,18.8l-4,0.2L517.2,192.6z"/>
			<g>
				<path class="st48" d="M505.2,101.2c0,0,3.9,8.1,4.1,10.5c0.2,2.4,0,7.7,0,7.7s-4.4-6.3-4.9-9.7
					C503.8,106.4,505.2,101.2,505.2,101.2z"/>
				<path class="st48" d="M494.3,98.4c0,0,4,3.7,6.6,7.1c2.6,3.4,8.3,13.7,8.3,13.7s-6.6-6.4-9.9-9.8S494.3,98.4,494.3,98.4z"/>
			</g>
			<g>
				<path class="st48" d="M513.7,136.1c0,0,4.6,4.8,5.3,6.4c0.7,1.6,2,5.2,2,5.2s-4.4-3.5-5.6-5.7
					C514.1,139.8,513.7,136.1,513.7,136.1z"/>
				<path class="st48" d="M519.4,134.5c0.1,0.1,2,6.5,1.9,8c-0.2,1.6-0.2,5.4-0.2,5.4s-2.2-5.2-2.4-7.6
					C518.5,137.9,519.4,134.5,519.4,134.5z"/>
				<path class="st48" d="M512.3,143c0,0,2.3,0.3,3.9,1.1c1.6,0.8,5.5,4,5.5,4s-3.8-0.7-5.8-1.2C513.9,146.5,512.3,143,512.3,143z"
					/>
			</g>
			<g>
				<path class="st48" d="M508.9,119.6c0,0,3.5-2.5,6.4-6.8c1.9-2.9,5.1-10.6,5.1-10.6s-1.2,1.3-5.6,4.4
					C512.6,108.2,508.9,119.6,508.9,119.6z"/>
				<path class="st48" d="M513.2,92.9c-0.2,0.3-3.5,8.8-3.8,13c-0.6,7.3-0.3,13.8-0.3,13.8s2.8-8.2,4.1-11.1
					C514.4,105.6,513.2,92.9,513.2,92.9z"/>
			</g>
			<g>
				<path class="st48" d="M510.5,119.6c0,0-5,0.8-10.8,0.4c-3.8-0.3-8.6-1.3-12.1-2.1c0,0,6.8-1.2,10-1.3
					C500.8,116.5,510.5,119.6,510.5,119.6z"/>
				<path class="st48" d="M489.2,107c0.4,0.1,8.9,3.3,11.9,5.5c5,3.7,8.7,7.3,8.7,7.3s-7.9-3.3-11-4.4
					C495.7,114.3,489.2,107,489.2,107z"/>
			</g>
			<g>
				<path class="st48" d="M508.7,119.8c0,0,3.5-3.8,8-6.9c3-2.1,7-4,9.9-5.4c0,0-4.7,5.2-7.1,7.2
					C517.2,116.8,508.7,119.8,508.7,119.8z"/>
				<path class="st48" d="M530.3,118c-0.4,0.2-8.2,2.6-11.3,2.5c-5.3-0.2-9.5-1.1-9.5-1.1s7.4-2,10.2-3
					C522.6,115.5,530.3,118,530.3,118z"/>
			</g>
			<g>
				<path class="st48" d="M521,148.2c0,0-0.2-3.8,0.6-7.8c0.5-2.6,1.6-5.8,2.5-8c0,0,0.4,5.2,0.2,7.4
					C524.1,142.2,521,148.2,521,148.2z"/>
				<path class="st48" d="M530.6,137.3c-0.1,0.3-2.8,5.4-4.4,6.8c-2.8,2.5-5.5,4.1-5.5,4.1s2.7-4.6,3.6-6.5
					C525.2,139.8,530.6,137.3,530.6,137.3z"/>
			</g>
			<g>
				<path class="st48" d="M521,147.8c0,0,4.5-0.2,7-1.1c1.7-0.6,3.4-1.7,4.5-2.6c0,0-4,0.1-5.5,0.4C525.4,144.8,521,147.8,521,147.8
					z"/>
				<path class="st48" d="M520.5,147.8c0,0,5.1-0.6,6.4-0.2c1.3,0.4,5.2,2.3,5.2,2.3s-3.2,0.6-4.8,0.4S520.5,147.8,520.5,147.8z"/>
			</g>
			<path class="st49" d="M527.8,179.1H516h-0.6h-11.8l4.8,37c0,0,2.3,0.9,7.2,0.9c4.9,0,7.4-0.9,7.4-0.9L527.8,179.1z"/>
			<path class="st50" d="M517.4,215.4l1.6-33.8h6.8l-4.3,33.4C520.3,215.2,517.4,215.4,517.4,215.4z"/>
		</g>
		<g>
			<path class="st51" d="M438.5,206.9c0,0,0.1,3.5-1.4,3.9s9.5,0.3,9.5,0.3s-0.2-2-0.7-2.8c-0.5-0.8-0.6-6.8-0.6-6.8l-7.2,1.4
				L438.5,206.9z"/>
			<g>
				<g>
					<path class="st41" d="M446.3,212.5c0,0,1.1-0.6,1.1-0.3c0,0.4,0.9,1.5-0.2,2.7c-0.7,0.7-1.8,1.5-3.7,1.6
						c-1.8,0.2-4.4,0.3-6.4,0.4c-1.9,0.1-5.6-0.3-6.8-1.1c-1.5-0.9-0.9-2.7-0.9-2.4c0-1,0.9-1.9,0.9-1.9L446.3,212.5z"/>
					<path class="st25" d="M436.7,217.2c-2,0-5.2-0.4-6.4-1.2c-1.4-0.8-1.2-2.3-1-2.7c0,0,0,0,0-0.1c0.1-1,0.9-1.9,0.9-2
						c0-0.1,0.1-0.1,0.2-0.1l15.9,0.9c0.6-0.3,1-0.5,1.2-0.3c0.1,0.1,0.2,0.2,0.2,0.3c0,0,0.1,0.2,0.1,0.3c0.2,0.5,0.6,1.6-0.3,2.6
						c-0.5,0.6-1.7,1.5-3.8,1.7c-1.9,0.2-4.6,0.3-6.4,0.4C437,217.2,436.8,217.2,436.7,217.2z M429.6,213.7c-0.1,0.3-0.2,1.3,0.8,2
						c1.2,0.7,4.8,1.1,6.7,1.1c1.8-0.1,4.5-0.2,6.4-0.4c2-0.2,3.1-1.1,3.5-1.6c0.8-0.8,0.5-1.6,0.2-2.1c0-0.1-0.1-0.2-0.1-0.3
						c-0.2,0-0.5,0.2-0.8,0.3c0,0-0.1,0-0.1,0l-15.8-0.9c-0.2,0.2-0.7,0.9-0.7,1.7C429.7,213.6,429.7,213.6,429.6,213.7z"/>
				</g>
				<g>
					<path class="st8" d="M431.2,215.3c-1.7-0.8-2.7-1.8-1.4-3.6c1.4-2,3-0.7,7-2.2c0.8-0.3,3,0.5,5.1,0.2c1.5-0.2,3.1-1.4,4-1.9
						c0.4-0.2,0.9,1.2,0.9,1.2s1.5,3,0.3,4.6c-1.7,2.2-6.4,2.1-9.4,2.3C435.1,216.1,433,216.1,431.2,215.3z"/>
					<path class="st25" d="M435.4,216.3c-1.6,0-3-0.2-4.3-0.8l0,0c-1.3-0.6-1.9-1.2-2.1-1.9c-0.2-0.6,0-1.3,0.6-2.1
						c0.8-1.2,1.8-1.3,3.1-1.4c1-0.1,2.3-0.2,4-0.8c0.4-0.1,1-0.1,1.9,0c1,0.1,2.2,0.3,3.3,0.1c1.1-0.2,2.4-0.9,3.3-1.5
						c0.3-0.2,0.5-0.3,0.7-0.4c0.1-0.1,0.2-0.1,0.3,0c0.4,0.1,0.7,1,0.9,1.3c0.1,0.3,1.6,3.2,0.3,4.9c-1.5,2-5.3,2.2-8.4,2.4
						c-0.4,0-0.8,0-1.2,0.1C436.8,216.3,436.1,216.3,435.4,216.3z M431.3,215.1c1.7,0.8,3.7,0.8,6.3,0.6c0.4,0,0.8-0.1,1.2-0.1
						c2.8-0.2,6.6-0.4,8-2.2c1.1-1.5-0.3-4.3-0.3-4.3c0,0,0,0,0,0c-0.2-0.5-0.4-0.9-0.6-1c-0.2,0.1-0.4,0.2-0.6,0.4
						c-0.9,0.6-2.2,1.3-3.4,1.5c-1.2,0.2-2.4,0-3.4-0.1c-0.7-0.1-1.4-0.2-1.6-0.1c-1.8,0.7-3,0.8-4.1,0.9c-1.3,0.1-2,0.2-2.8,1.2
						c-0.5,0.7-0.6,1.2-0.5,1.7C429.7,214.1,430.2,214.6,431.3,215.1L431.3,215.1z"/>
				</g>
				<g>
					<path class="st25" d="M429.7,212.1c-0.1,0-0.1,0-0.2-0.1c-0.1-0.1-0.1-0.3,0-0.3c0.5-0.4,1.8-0.4,3.2-0.4c0.6,0,1.2,0,1.7,0
						c1.6-0.1,4.2-1.7,4.3-1.7c0.1-0.1,0.3,0,0.3,0.1c0.1,0.1,0,0.3-0.1,0.3c-0.1,0.1-2.8,1.8-4.5,1.8c-0.5,0-1.1,0-1.7,0
						c-1.2,0-2.5-0.1-2.9,0.2C429.8,212.1,429.7,212.1,429.7,212.1z"/>
				</g>
				<g>
					<path class="st25" d="M433.9,211.9c-0.1,0-0.2-0.1-0.2-0.2c-0.3-1,0.2-1.6,0.6-1.7c0.1-0.1,0.3,0,0.3,0.1
						c0.1,0.1,0,0.3-0.1,0.3c-0.1,0-0.6,0.3-0.3,1.1C434.2,211.7,434.1,211.8,433.9,211.9C434,211.9,434,211.9,433.9,211.9z"/>
				</g>
				<g>
					<path class="st25" d="M432.6,211.9c-0.1,0-0.2-0.1-0.2-0.2c-0.1-0.4-0.1-0.8,0-1.1c0.2-0.4,0.5-0.5,0.6-0.5
						c0.1,0,0.3,0,0.3,0.2c0,0.1,0,0.3-0.2,0.3c-0.1,0-0.5,0.2-0.2,1C432.9,211.7,432.8,211.8,432.6,211.9
						C432.7,211.8,432.7,211.9,432.6,211.9z"/>
				</g>
				<g>
					<path class="st25" d="M435.6,211.6c-0.1,0-0.2-0.1-0.2-0.2c-0.3-1,0.2-1.6,0.5-1.8c0.1-0.1,0.3,0,0.3,0.1
						c0.1,0.1,0,0.3-0.1,0.3c0,0-0.5,0.4-0.2,1.2C435.8,211.4,435.8,211.6,435.6,211.6C435.6,211.6,435.6,211.6,435.6,211.6z"/>
				</g>
				<g>
					<path class="st25" d="M446.2,214.5C446.2,214.5,446.2,214.5,446.2,214.5c-0.2,0-0.3-0.1-0.2-0.3c0.3-2.4-1.1-5.3-1.1-5.3
						c-0.1-0.1,0-0.3,0.1-0.3c0.1-0.1,0.3,0,0.3,0.1c0.1,0.1,1.5,3,1.1,5.6C446.4,214.4,446.3,214.5,446.2,214.5z"/>
				</g>
			</g>
			<path class="st52" d="M447.8,160.3l-13.7,3l2.6,26.4l0.4,15.1c0,0,3.4,2.8,5.6,2.8c0.9,0,3.6-1.9,3.6-2.6l-0.6-16.8
				c0,0,2.3-16.7,3.3-23.8c0.2-1.7,1-7.5,1-7.5L447.8,160.3z"/>
			<path class="st53" d="M436.3,205.7c0.4-0.3,0.5,0.3,1.2,0.3c0.7,0.1,2.8,0.1,5.1-0.3c2.3-0.4,3.4-2.2,3.9-1.8
				c0.5,0.4-0.1,1.8-0.1,1.8s-2.4,1.8-3.5,1.9c-1,0.1-6,0.3-6.4-0.1C436.2,207.1,435.8,206,436.3,205.7z"/>
			<path class="st51" d="M433.9,214.1c0,0,0.1,3.5-1.4,3.9s9.5,0.3,9.5,0.3s-0.2-2-0.7-2.8c-0.5-0.8-0.6-6.8-0.6-6.8l-7.2,1.4
				L433.9,214.1z"/>
			<g>
				<path class="st34" d="M419,131.8l-4.3,0.4c0,0-1.4,0.8-2.1-0.4c-0.1-0.2-0.4-0.6-0.5-0.8c-0.2-0.4-0.1-1-0.1-1s-0.1-0.4-0.3-0.7
					c-0.3-0.4,0.3-1.1,0.3-1.1s-0.5-0.3,0.2-1c0.3-0.3,2.2-0.8,2.7-1c0.5-0.2,1.7,0.5,1.9,0.6c0.6,0.3,2.5,1.3,2.5,1.3l2.4,0.4
					l0.2,3.3L419,131.8z"/>
			</g>
			<polygon class="st54" points="423.4,128.2 419.5,128 419,132.7 423.1,133.8 			"/>
			<polygon class="st55" points="432.7,127.8 423.4,128.1 423,133.8 433.8,137.1 			"/>
			<path class="st56" d="M447.8,163.7l1.7-3.8c1.8-5.7-0.6-11.3-0.6-11.3l-17.3,7.3c0,0-3.4,24.8-3,31.2c0.4,6.4,3.9,26.1,3.9,26.1
				s1.8,0.4,4.8-0.2s4.7-2.2,4.7-2.2l-1.7-22L447.8,163.7z"/>
			<path class="st41" d="M442.2,109.4c0,0,3.9,2.9,4.8,3.7c6.9,7,2.8,29.8,2.8,29.8l1.1,12.5c0,0-5.8-3.8-9.5-0.4
				c-6.5,6.1-10.7,3-10.7,3s0.2-11.6,0.5-19.1c0.2-5.8,0.8-14.6,2.7-20.5c0.6-1.8,2.2-6.6,4.3-7.4
				C442.6,109.1,442.2,109.4,442.2,109.4z"/>
			<path class="st34" d="M410.3,137.2c-0.9-0.2-2.7-2.2-2.6-1c0.1,1,0.8,1.9,0.8,1.9s1.4,0.4,2.8,2.5c0.3,0.4,4.4,1.2,4.4,1.2
				l3.4,0.5l0-3.8c0,0-1.7,0.7-2.4-0.8c-0.5-1.2-1.8-2.1-2.1-2.2c-0.7-0.2-1.8-2-2.4-1.9c-0.7,0.1-0.5,0.9,0,1.7s0.8,1.4,0.8,1.4
				S410.9,137.4,410.3,137.2z"/>
			<polygon class="st27" points="420.5,138.2 417.1,138.2 416.8,142.3 420.3,142.7 			"/>
			<path class="st47" d="M439.6,106.2l-2.3,1.7l-7.9-4.1l-5.2-2.8c0,0-1.8,0.8-3.3-0.1c-2-1.3,0.1-2.4-0.3-4.1c-0.7-3,2-1.9,3.6-3.4
				c0.7-0.7,3.7-2.5,6.4-2.7c2.4-0.2,4.8,0.2,6.9,1.9c2.8,2.4,2.8,5.7,1.9,8.7C438.8,103.9,439.6,106.2,439.6,106.2z"/>
			<path class="st34" d="M423.3,100.7c0.3,1.3,1.3,3.1,1.3,3.1s-0.9,3.7-0.6,4.1c0.4,0.3,2-0.1,2-0.1s1.5,3.3,3.1,3.3
				s3.8-0.6,3.8-0.6l2.2,5.2l6.3-5.6l-2.3-5l-2.3,0.2c0,0-2.7-4.8-4.6-4.9c-2-0.1-1.1,2.4-1.1,2.4l-0.9-0.2c0,0-0.7-0.6-1.1-1.5
				c-1.2-2.6-3.8-0.2-4.1-3.4C424.8,95.5,422.8,98.5,423.3,100.7z"/>
			<path class="st27" d="M442.9,110l-2.3-2.4c0,0-1.5,1.4-3.3,3.1c-1.7,1.6-3.5,4.3-3.5,4.3l0.4,3.5L442.9,110z"/>
			<path class="st54" d="M433.9,122.6c-0.6,3.5,0.4,11.9-0.2,12.8c-0.2,0.4-13.5,2.7-13.5,2.7s-0.3,3.6,0.1,4.5
				c0.4,1,17.9,1.3,19.5,0.3c3.8-1.2,3.2-13,2.8-16.6C441.7,119.2,434.9,116.6,433.9,122.6z"/>
			<path class="st57" d="M444.1,167.4l-4.3,0.4c-1.6,0.2-3.1-1-3.3-2.7l-1.1-11.1l10.2-1l1.1,11.1
				C446.9,165.8,445.7,167.2,444.1,167.4z"/>
			<g>
				<path class="st36" d="M433.2,104c-0.1,0-0.1,0-0.1-0.1c-0.1-0.1-0.1-0.2,0-0.3c1-0.9-0.3-2.8-0.5-3c-0.3-0.3-0.7-0.4-0.9-0.2
					c-0.3,0.1-0.4,0.5-0.4,1c0,0.1-0.1,0.2-0.2,0.2c-0.1,0-0.2-0.1-0.2-0.2c0-0.7,0.2-1.1,0.6-1.4c0.4-0.2,0.9-0.1,1.3,0.3l0,0
					c0.1,0.1,1.7,2.3,0.4,3.5C433.3,104,433.3,104,433.2,104z"/>
			</g>
			<path class="st30" d="M439.1,156.7l-0.7,0.1c-0.2,0-0.4-0.1-0.5-0.4l-0.6-6.1c0-0.2,0.1-0.4,0.4-0.5l0.7-0.1
				c0.2,0,0.4,0.1,0.5,0.4l0.6,6.1C439.5,156.5,439.3,156.7,439.1,156.7z"/>
			<path class="st53" d="M432.2,212.7c0.4-0.3,0.5,0.3,1.2,0.3c0.7,0.1,2.8,0.1,5.1-0.3c2.3-0.4,3.4-2.2,3.9-1.8
				c0.5,0.4-0.1,1.8-0.1,1.8s-2.4,1.8-3.5,1.9c-1,0.1-6,0.3-6.4-0.1C432.1,214.2,431.8,213.1,432.2,212.7z"/>
			<g>
				<g>
					<path class="st41" d="M441.7,220.5c0,0,1.2-0.7,1.2-0.3c0,0.4,1,1.6-0.2,2.9c-0.7,0.8-2,1.6-3.9,1.8c-2,0.2-4.7,0.3-6.8,0.4
						c-2.1,0.1-5.9-0.4-7.3-1.2c-1.6-1-0.9-2.9-0.9-2.5c0-1.1,0.9-2.1,0.9-2.1L441.7,220.5z"/>
					<path class="st25" d="M431.5,225.5c-2.2,0-5.6-0.4-6.8-1.2c-1.4-0.9-1.2-2.5-1.1-2.8c0,0,0,0,0-0.1c0.1-1.1,1-2,1-2.1
						c0-0.1,0.1-0.1,0.2-0.1l16.9,1c0.5-0.3,1-0.5,1.3-0.4c0.1,0.1,0.2,0.2,0.2,0.3c0,0,0.1,0.2,0.1,0.3c0.2,0.6,0.7,1.7-0.4,2.8
						c-0.5,0.6-1.8,1.6-4.1,1.8c-2,0.2-4.9,0.3-6.8,0.4C431.9,225.5,431.7,225.5,431.5,225.5z M424,221.8c-0.1,0.3-0.2,1.5,0.9,2.1
						c1.3,0.8,5.1,1.2,7.1,1.1c1.9-0.1,4.8-0.2,6.8-0.4c2.1-0.2,3.3-1.1,3.8-1.7c0.8-0.9,0.5-1.7,0.3-2.3c0-0.1-0.1-0.2-0.1-0.3
						c-0.2,0-0.5,0.2-0.9,0.4c0,0-0.1,0-0.1,0l-16.9-1c-0.2,0.2-0.8,1-0.8,1.8c0,0,0,0,0,0C424.1,221.7,424,221.7,424,221.8z
						 M423.6,221.6L423.6,221.6L423.6,221.6L423.6,221.6z"/>
				</g>
				<g>
					<path class="st8" d="M425.7,223.5c-1.8-0.9-2.9-1.9-1.5-3.9c1.5-2.1,3.2-0.7,7.4-2.3c0.8-0.3,3.2,0.5,5.5,0.2
						c1.6-0.2,3.3-1.5,4.3-2c0.4-0.2,0.9,1.3,0.9,1.3s1.6,3.2,0.3,4.9c-1.8,2.3-6.8,2.3-10,2.5C429.9,224.4,427.6,224.4,425.7,223.5
						z"/>
					<path class="st25" d="M430.1,224.5c-1.7,0-3.2-0.2-4.5-0.8c-1.3-0.6-2-1.2-2.2-2c-0.2-0.7,0-1.4,0.6-2.2
						c0.9-1.3,1.9-1.4,3.3-1.5c1.1-0.1,2.4-0.2,4.2-0.9c0.4-0.2,1.1-0.1,2,0.1c1,0.1,2.3,0.3,3.5,0.1c1.2-0.2,2.5-1,3.5-1.6
						c0.3-0.2,0.5-0.3,0.7-0.4c0.1-0.1,0.2-0.1,0.3,0c0.4,0.2,0.8,1,0.9,1.4c0.1,0.3,1.7,3.4,0.3,5.2c-1.6,2.1-5.7,2.3-8.9,2.5
						c-0.5,0-0.9,0.1-1.3,0.1C431.7,224.5,430.9,224.5,430.1,224.5z M425.8,223.3c1.8,0.8,3.9,0.9,6.7,0.7c0.4,0,0.8-0.1,1.3-0.1
						c3-0.2,7.1-0.4,8.6-2.3c1.2-1.6-0.3-4.6-0.3-4.6c0,0,0,0,0,0c-0.2-0.5-0.5-1-0.6-1.1c-0.2,0.1-0.4,0.2-0.7,0.4
						c-1,0.6-2.4,1.4-3.6,1.6c-1.3,0.2-2.6,0-3.7-0.1c-0.8-0.1-1.4-0.2-1.7-0.1c-1.9,0.7-3.2,0.8-4.3,0.9c-1.4,0.1-2.2,0.2-2.9,1.3
						c-0.5,0.7-0.7,1.3-0.5,1.8C424,222.2,424.6,222.7,425.8,223.3z"/>
				</g>
				<g>
					<path class="st25" d="M424,220.1c-0.1,0-0.1,0-0.2-0.1c-0.1-0.1-0.1-0.3,0-0.3c0.6-0.5,1.9-0.4,3.4-0.4c0.6,0,1.2,0,1.8,0
						c1.7-0.1,4.5-1.8,4.6-1.9c0.1-0.1,0.3,0,0.3,0.1c0.1,0.1,0,0.3-0.1,0.3c-0.1,0.1-2.9,1.9-4.8,1.9c-0.6,0-1.2,0-1.8,0
						c-1.3,0-2.7-0.1-3.1,0.3C424.1,220.1,424.1,220.1,424,220.1z"/>
				</g>
				<g>
					<path class="st25" d="M428.6,219.8c-0.1,0-0.2-0.1-0.2-0.2c-0.3-1,0.3-1.6,0.6-1.8c0.1-0.1,0.3,0,0.3,0.1
						c0.1,0.1,0,0.3-0.1,0.3c-0.1,0-0.7,0.3-0.4,1.2C428.9,219.6,428.8,219.8,428.6,219.8C428.6,219.8,428.6,219.8,428.6,219.8z"/>
				</g>
				<g>
					<path class="st25" d="M427.2,219.8c-0.1,0-0.2-0.1-0.2-0.2c-0.2-0.5-0.1-0.9,0-1.2c0.2-0.4,0.5-0.5,0.6-0.5
						c0.1,0,0.3,0,0.3,0.2c0,0.1,0,0.3-0.2,0.3c-0.1,0-0.6,0.2-0.3,1.1C427.5,219.6,427.4,219.7,427.2,219.8
						C427.2,219.8,427.2,219.8,427.2,219.8z"/>
				</g>
				<g>
					<path class="st25" d="M430.3,219.6c-0.1,0-0.2-0.1-0.2-0.2c-0.3-1,0.2-1.7,0.5-1.9c0.1-0.1,0.3,0,0.3,0.1
						c0.1,0.1,0,0.3-0.1,0.3c0,0-0.6,0.4-0.3,1.3C430.6,219.4,430.5,219.5,430.3,219.6C430.4,219.5,430.3,219.6,430.3,219.6z"/>
				</g>
				<g>
					<path class="st25" d="M441.6,222.6C441.6,222.6,441.6,222.6,441.6,222.6c-0.2,0-0.3-0.1-0.2-0.3c0.3-2.6-1.2-5.7-1.2-5.7
						c-0.1-0.1,0-0.3,0.1-0.3c0.1-0.1,0.3,0,0.3,0.1c0.1,0.1,1.6,3.2,1.2,6C441.8,222.5,441.7,222.6,441.6,222.6z"/>
				</g>
			</g>
			<g>
				<path class="st58" d="M436.8,155.7c-0.2,0-0.4,0-0.6-0.1c-0.4-0.2-0.7-0.5-0.9-0.9c-0.5-0.9-0.3-1.9,0.4-2.2
					c0.3-0.2,0.8-0.2,1.2,0c0.4,0.2,0.7,0.5,0.9,0.9l0,0c0.5,0.9,0.3,1.9-0.4,2.2C437.2,155.6,437,155.7,436.8,155.7z M436.3,152.8
					c-0.1,0-0.2,0-0.3,0.1c-0.5,0.2-0.6,0.9-0.2,1.6c0.2,0.3,0.4,0.6,0.7,0.7c0.3,0.1,0.5,0.1,0.7,0c0.5-0.2,0.6-0.9,0.2-1.6l0,0
					c-0.2-0.3-0.4-0.6-0.7-0.7C436.6,152.8,436.4,152.8,436.3,152.8z"/>
				<path class="st58" d="M439.1,155.3C439.1,155.3,439.1,155.3,439.1,155.3c-0.4,0-0.8-0.2-1-0.5c-0.3-0.3-0.4-0.8-0.4-1.2
					c0-0.5,0.1-0.9,0.4-1.2c0.3-0.3,0.6-0.5,1-0.5c0.4,0,0.8,0.2,1,0.5c0.3,0.3,0.4,0.8,0.4,1.2c0,0.5-0.1,0.9-0.4,1.2
					C439.8,155.1,439.4,155.3,439.1,155.3z M439.1,152.2c-0.2,0-0.5,0.1-0.6,0.3c-0.2,0.2-0.3,0.6-0.3,0.9v0c0,0.4,0.1,0.7,0.3,0.9
					c0.2,0.2,0.4,0.4,0.6,0.4c0,0,0,0,0,0c0.2,0,0.5-0.1,0.6-0.3c0.2-0.2,0.3-0.6,0.3-0.9c0-0.4-0.1-0.7-0.3-0.9
					C439.5,152.3,439.3,152.2,439.1,152.2C439.1,152.2,439.1,152.2,439.1,152.2z"/>
				<path class="st58" d="M438,154.4l-0.9,1c0,0,0,0.1,0,0.1l2.8,9.3c0,0.1,0.3,0.1,0.2-0.1l-1.1-9.8c0,0,0-0.1-0.1-0.1l-0.8-0.5
					C438.1,154.4,438.1,154.4,438,154.4z"/>
			</g>
			<g>
				<path class="st58" d="M440.8,155c-0.3,0-0.5-0.1-0.8-0.3c-0.3-0.2-0.6-0.6-0.7-1c-0.1-0.4-0.1-0.9,0-1.3
					c0.2-0.4,0.4-0.7,0.8-0.8c0.4-0.1,0.8,0,1.1,0.2c0.3,0.2,0.6,0.6,0.7,1c0.1,0.4,0.1,0.9,0,1.3c-0.2,0.4-0.4,0.7-0.8,0.8
					C441,155,440.9,155,440.8,155z M440.4,152c-0.1,0-0.1,0-0.2,0c-0.2,0.1-0.4,0.3-0.5,0.5c-0.1,0.3-0.1,0.6,0,1
					c0.1,0.3,0.3,0.6,0.6,0.8c0.2,0.2,0.5,0.2,0.7,0.1s0.4-0.3,0.5-0.5c0.1-0.3,0.1-0.6,0-1c-0.1-0.3-0.3-0.6-0.6-0.8
					C440.8,152.1,440.6,152,440.4,152z"/>
				<path class="st58" d="M443,155c-0.1,0-0.1,0-0.2,0c-0.8-0.1-1.3-1-1.1-2c0.1-0.5,0.3-0.9,0.6-1.1c0.3-0.3,0.7-0.4,1.1-0.3
					c0.8,0.1,1.3,1,1.1,2c-0.1,0.5-0.3,0.9-0.6,1.1C443.7,154.8,443.4,155,443,155z M443.2,151.9c-0.2,0-0.4,0.1-0.6,0.2
					c-0.2,0.2-0.4,0.5-0.5,0.9c-0.1,0.7,0.2,1.3,0.7,1.4c0.2,0,0.5,0,0.7-0.2c0.2-0.2,0.4-0.5,0.5-0.9c0.1-0.7-0.2-1.3-0.7-1.4
					C443.3,151.9,443.3,151.9,443.2,151.9z"/>
				<path class="st58" d="M441.9,154l-1.1,0.9c0,0-0.1,0.1,0,0.1l1.2,9.7c0,0.2,0.2,0.1,0.3,0l0.6-9.8c0,0,0-0.1,0-0.1l-0.7-0.7
					C442.1,153.9,442,153.9,441.9,154z"/>
			</g>
			<path class="st58" d="M414.9,128.8c-0.4,0-0.8-0.1-1.2-0.4c-0.4-0.3-0.6-0.6-0.6-1c0-0.8,0.7-1.5,1.7-1.5c0.5,0,0.9,0.1,1.2,0.4
				c0.4,0.3,0.6,0.6,0.6,1C416.7,128.1,416,128.8,414.9,128.8C415,128.8,414.9,128.8,414.9,128.8z M415,126.5
				C414.9,126.5,414.9,126.5,415,126.5c-0.8,0-1.3,0.5-1.3,1c0,0.2,0.1,0.5,0.4,0.6c0.3,0.2,0.6,0.3,0.9,0.3c0.7,0,1.3-0.5,1.2-1
				c0-0.2-0.1-0.5-0.4-0.6C415.6,126.6,415.3,126.5,415,126.5z"/>
			<path class="st24" d="M413.9,131.8c-0.2,0-0.3,0-0.5-0.1c-0.4-0.1-0.8-0.4-1-0.8c-0.5-0.8-0.5-1.8,0.2-2.3
				c0.6-0.4,1.6-0.1,2.2,0.7c0.3,0.4,0.4,0.8,0.4,1.2c0,0.4-0.2,0.8-0.5,1C414.4,131.7,414.1,131.8,413.9,131.8z M413.3,129
				c-0.1,0-0.3,0-0.4,0.1c-0.4,0.3-0.5,1-0.1,1.6c0.2,0.3,0.5,0.5,0.8,0.6c0.3,0.1,0.5,0.1,0.7-0.1s0.3-0.4,0.3-0.6
				c0-0.3-0.1-0.6-0.3-0.9l0,0C414.1,129.2,413.7,129,413.3,129z"/>
			<path class="st24" d="M413.4,128.6l-0.3-0.8c0,0,0-0.1-0.1-0.1l-6.9-3.9c-0.1-0.1-0.2,0-0.1,0.1l6.6,4.7c0,0,0.1,0,0.1,0
				L413.4,128.6C413.4,128.7,413.4,128.7,413.4,128.6z"/>
			<path class="st58" d="M413.9,128.1l-0.7-0.6c0,0-0.1,0-0.1,0l-8,0c-0.2,0-0.2,0.1,0,0.2l8.2,0.8c0,0,0.1,0,0.1,0l0.6-0.3
				C413.9,128.1,413.9,128.1,413.9,128.1z"/>
			<path class="st34" d="M416.1,127.1c0,0-0.5-0.7-1.1-0.7s-1.7,1.4-2.1,1.7c-0.3,0.3-0.6,1.2,0.2,1.3c0.8,0,1.8-1,1.8-1
				L416.1,127.1z"/>
			<path class="st59" d="M443.3,166.5l-3.2,0.3c-1.2,0.1-2.3-0.8-2.4-2l-0.8-8.3l7.6-0.7l0.8,8.3
				C445.5,165.3,444.6,166.4,443.3,166.5z"/>
		</g>
		<g>
			<polygon class="st31" points="293.8,88.5 321.4,90.8 321.4,160.5 293.8,169.2 			"/>
			<polygon class="st60" points="320.7,160 293.8,168.2 293.8,89.5 320.7,91.7 			"/>
			<path class="st47" d="M313.6,122.3c0,0,0.8,15.3,1.7,16.8c0,0-10.5-5.5-11.5-7.3c-0.6-1.1-0.4-9.8-0.4-9.8L313.6,122.3z"/>
			<g>
				<defs>
					<polygon id="SVGID_1_" points="320.7,160 294.7,168.2 294.7,89.5 320.7,91.7 					"/>
				</defs>
				<clipPath id="SVGID_00000103987228868880574070000009659266878981451181_">
					<use xlink:href="#SVGID_1_"  style="overflow:visible;"/>
				</clipPath>
				<path style="clip-path:url(#SVGID_00000103987228868880574070000009659266878981451181_);fill:#E5EEF8;" d="M300.9,133.9
					c0,0-7.1,5.4-9.7,10.9c-2.6,5.5-1,24.9-1,24.9l43.5-2.9l-10.9-19.8c0,0-9.2-11-10.4-11.7C311.2,134.4,300.9,133.9,300.9,133.9z"
					/>
			</g>
			<polygon class="st62" points="293.8,169.2 290.4,169.1 290.4,88.7 293.8,88.5 			"/>
			<polygon class="st63" points="293.8,169.2 294.7,168.8 294.7,89.5 293.8,88.5 			"/>
			<path class="st34" d="M309.2,129.5c0,0,0,4.9,0.1,5.4c0.1,0.4-7.2,0.2-7.2,0.2l0.7-0.4l-0.5-6.3L309.2,129.5z"/>
			<path class="st34" d="M311.1,115.5c-3.9-1.8,0.9,0.3,2,4.4c0.7,2.6,0.1,7.2-0.7,8.8c-0.8,1.6-1.5,2.4-3.3,2.6
				c-1.8,0.2-5.6-1.2-6.6-2.5c-1-1.3-2.8-2.4-2.4-3.4c0.4-1.1,4.7-7.8,4.7-7.8L311.1,115.5z"/>
			<path class="st47" d="M309.9,116.9c0,0-3.9,5.5-7.1,6.4c0,0-0.5-0.8-1.4-0.1c-0.6,0.4-0.3,1.6,0,2c0.3,0.4,0.9,1.7,1.5,1.7
				c0,0-0.8,24.7,0.9,25.6c0.5,0.3-7.7-1.5-7.9-2.8c-0.4-4.3,2.2-26,2.6-28.8c0.4-2.9,2.4-6.8,6.6-7.3c5.8-0.7,8.1,2.7,8.8,5.3
				c0.6,2.6-0.6,5.8-0.6,5.8s0.5-2.7-0.5-4.2C312.2,119.3,309.9,116.9,309.9,116.9z"/>
			<polygon class="st64" points="295.7,90.8 317.5,92.6 295.7,163.2 			"/>
		</g>
		<g>
			<ellipse class="st47" cx="325.3" cy="162.3" rx="5.5" ry="1.5"/>
			<path class="st49" d="M331.9,161.6c0,0.9-2.9,1.8-6.5,1.8s-6.5-0.9-6.5-1.8c0-0.9,2.9-1.7,6.5-1.7S331.9,160.7,331.9,161.6z"/>
			<ellipse class="st29" cx="325.3" cy="161.6" rx="4.4" ry="1"/>
			<path class="st65" d="M320.8,156.9c0,2.9,2.1,5.2,4.6,5.2c2.5,0,4.6-2.3,4.6-5.2H320.8z"/>
			<ellipse class="st49" cx="325.3" cy="156.9" rx="4.6" ry="1.3"/>
			<path class="st57" d="M325.3,157.8c-2.1,0-3.4-0.4-3.9-0.7c0.4-0.3,1.7-0.7,3.9-0.7c2.1,0,3.4,0.4,3.9,0.7
				C328.8,157.4,327.5,157.8,325.3,157.8z"/>
			<path class="st65" d="M328.8,160.7c-0.1,0-0.1,0-0.2-0.1c-0.1-0.1-0.1-0.3,0-0.4c0.2-0.2,0.6-0.4,1.1-0.5
				c0.6-0.2,1.4-0.5,1.7-0.9c0.2-0.3,0.2-0.7,0.1-0.9c-0.1-0.2-0.3-0.3-0.5-0.3c-0.6,0-0.9,0.8-0.9,0.8c-0.1,0.2-0.2,0.2-0.4,0.2
				c-0.2-0.1-0.2-0.2-0.2-0.4c0,0,0.5-1.1,1.4-1.2c0.4,0,0.9,0.2,1.1,0.6c0.3,0.5,0.2,1.1-0.1,1.5c-0.4,0.6-1.3,0.9-2,1.2
				c-0.3,0.1-0.8,0.3-0.8,0.4C328.9,160.7,328.9,160.7,328.8,160.7z"/>
		</g>
		<g>
			<polygon class="st66" points="298.6,170.3 300.6,156 303.5,171 			"/>
			<polygon class="st36" points="298.6,170.3 302.9,168.3 303.5,171 			"/>
			<polygon class="st67" points="310.6,168.2 307.4,154.6 300.6,156 303.5,171 			"/>
			<polygon class="st41" points="307.6,159.7 307.4,158.5 302.6,159.9 302.8,161.1 			"/>
			<polygon class="st41" points="308.2,161.9 308,160.7 303.1,162.1 303.4,163.3 			"/>
			<polygon class="st41" points="308.6,164.3 308.5,163.1 303.6,164.7 303.8,166 			"/>
			<polygon class="st41" points="309.2,166.6 308.9,165.5 304,167.2 304.3,168.5 			"/>
			
				<ellipse transform="matrix(0.9347 -0.3555 0.3555 0.9347 -36.0836 118.6396)" class="st37" cx="304.7" cy="157.5" rx="1.1" ry="0.8"/>
		</g>
	</g>
	<g>
		<g>
			<g>
				<g>
					<g class="st68">
						<g>
							<polygon class="st69" points="166.5,150 259.5,95.9 259.1,226.1 166.2,280.2 							"/>
						</g>
						<g>
							<polygon class="st70" points="0.4,54 93.3,0 259.5,95.9 166.5,150 							"/>
						</g>
						<g>
							<polygon class="st71" points="166.5,150 166.2,280.2 0,184.2 0.4,54 							"/>
						</g>
					</g>
				</g>
				<g>
					<g>
						<polygon class="st72" points="115.7,161 115.7,197.7 164.9,226 164.9,189.4 						"/>
					</g>
					<polygon class="st72" points="168.2,189.4 168.2,227.9 197.4,244.7 197.4,173.9 					"/>
				</g>
				<polygon class="st69" points="115.7,161 84.9,143.3 84.9,214 115.7,197.7 				"/>
				<g>
					<polygon class="st70" points="84.9,214 84.9,214.1 164.9,260.2 164.9,226 115.7,197.7 					"/>
					<polygon class="st70" points="168.2,260.3 197.4,244.8 197.4,244.7 168.2,227.9 					"/>
				</g>
				<g>
					<g>
						<polygon class="st73" points="18.2,191.1 15.1,192.9 15.4,100.2 18.5,101.8 						"/>
					</g>
					<g>
						<polygon class="st70" points="60.4,215.5 60.4,219.1 15.1,192.9 18.2,191.1 						"/>
					</g>
					<g>
						<g>
							<path class="st74" d="M22.3,151c-0.5-0.3-1-0.8-1.3-1.3l0,7.3l2.6,1.5l0-7.3C23.3,151.3,22.8,151.3,22.3,151z"/>
							<path class="st74" d="M21,139l0,7.3c0.4-0.1,0.8-0.1,1.3,0.2c0.5,0.3,1,0.8,1.3,1.3l0-7.3L21,139z M22.6,142.8l0,1.4
								l-0.5-0.3l0-1.4c-0.2-0.2-0.3-0.4-0.3-0.7c0-0.3,0.2-0.5,0.5-0.3c0.3,0.2,0.5,0.6,0.5,0.9C22.8,142.6,22.7,142.8,22.6,142.8z
								"/>
						</g>
						<g>
							<path class="st75" d="M18.2,191.1l42.2,24.4l0.3-89.4l-42.2-24.4L18.2,191.1z M26.3,135.4l0-6c0-8.6,6.3-12,13.9-7.6
								c7.6,4.4,13.8,15,13.8,23.6l0,6l0,15.6l-13.8-8l-13.9-8L26.3,135.4z M26.2,158.5l27.7,16l-0.1,29.8l-27.7-16L26.2,158.5z
								 M21,146.3l0-7.3l2.6,1.5l0,7.3c0.4,0.6,0.7,1.4,0.7,2c0,0.7-0.3,1.1-0.7,1.3l0,7.3l-2.6-1.5l0-7.3c-0.4-0.6-0.7-1.4-0.7-2
								C20.3,146.9,20.6,146.5,21,146.3z"/>
							<polygon class="st75" points="28.9,163 28.8,186.8 51.2,199.7 51.3,175.9 							"/>
						</g>
						<g>
							<path class="st76" d="M26.1,188.2l27.7,16l0.1-29.8l-27.7-16L26.1,188.2z M27.5,160.7l25.1,14.5L52.5,202l-25.1-14.5
								L27.5,160.7z"/>
							<path class="st76" d="M40.2,121.8c-7.6-4.4-13.9-1-13.9,7.6l0,6l0,15.6l13.9,8l13.8,8l0-15.6l0-6
								C54,136.8,47.8,126.2,40.2,121.8z M52.6,164.8l-25.1-14.5l0.1-20.1c0-7.8,5.7-10.9,12.6-6.9c6.9,4,12.5,13.6,12.5,21.4
								L52.6,164.8z"/>
						</g>
						<g>
							
								<rect x="28.2" y="133.9" transform="matrix(3.955035e-03 -1 1 3.955035e-03 -105.0894 162.3293)" class="st77" width="1.5" height="0"/>
							<path class="st77" d="M39.5,124.4c-5.9-3-10.6-0.2-10.6,6.5l0,2.2l10.6,6.1L39.5,124.4z"/>
							
								<rect x="40.1" y="155.3" transform="matrix(0.5 -0.866 0.866 0.5 -115.0738 112.7608)" class="st77" width="0" height="1.5"/>
							<path class="st77" d="M40.9,125.2l0,14.9l10.6,6.1l0-2.2C51.4,137.2,46.7,128.9,40.9,125.2z"/>
							<polygon class="st77" points="28.9,134.7 28.9,149.6 39.5,155.7 39.5,140.8 							"/>
							<polygon class="st77" points="40.8,156.4 51.3,162.5 51.4,147.6 40.8,141.5 							"/>
						</g>
						<g>
							<path class="st74" d="M23.6,147.8c-0.3-0.6-0.8-1-1.3-1.3c-0.5-0.3-1-0.3-1.3-0.2c-0.4,0.2-0.7,0.6-0.7,1.3
								c0,0.7,0.2,1.4,0.7,2c0.3,0.6,0.8,1,1.3,1.3c0.5,0.3,1,0.3,1.3,0.2c0.4-0.2,0.7-0.6,0.7-1.3C24.3,149.2,24,148.5,23.6,147.8z
								"/>
							<path class="st78" d="M22,143.9l0.5,0.3l0-1.4c0.2,0,0.3-0.1,0.3-0.3c0-0.3-0.2-0.7-0.5-0.9c-0.3-0.2-0.5,0-0.5,0.3
								c0,0.2,0.1,0.5,0.3,0.7L22,143.9z"/>
						</g>
						<g>
							<path class="st74" d="M27.5,187.5L52.5,202l0.1-26.8l-25.1-14.5L27.5,187.5z M28.9,163l22.4,13l-0.1,23.8l-22.4-12.9
								L28.9,163z"/>
							<path class="st74" d="M40.2,123.3c-6.9-4-12.6-0.9-12.6,6.9l-0.1,20.1l25.1,14.5l0.1-20.1C52.7,136.9,47.1,127.3,40.2,123.3z
								 M39.5,124.4l0,14.9l-10.6-6.1l0-2.2C29,124.2,33.7,121.4,39.5,124.4z M28.9,134.7l10.6,6.1l0,14.9l-10.6-6.1L28.9,134.7z
								 M51.3,162.5l-10.6-6.1l0-14.9l10.6,6.1L51.3,162.5z M51.4,146.1L40.8,140l0-14.9c5.9,3.8,10.5,12,10.5,18.7L51.4,146.1z"/>
						</g>
					</g>
				</g>
				<g>
					<polygon class="st79" points="61,112 61,126 49.2,132.3 					"/>
					<g>
						<g>
							<g>
								<g>
									<g>
										<path class="st80" d="M15.9,113.1c0,2.6-1.9,3.7-4.2,2.4c-2.3-1.3-4.2-4.5-4.2-7.2L15.9,113.1z"/>
									</g>
								</g>
								<g class="st68">
									<g>
										<path class="st81" d="M24.2,117.9c0,2.6-1.9,3.7-4.2,2.4c-2.3-1.3-4.2-4.5-4.2-7.2L24.2,117.9z"/>
									</g>
								</g>
								<g>
									<g>
										<path class="st80" d="M32.6,122.7c0,2.6-1.9,3.7-4.2,2.4c-2.3-1.3-4.2-4.5-4.2-7.2L32.6,122.7z"/>
									</g>
								</g>
								<g class="st68">
									<g>
										<path class="st81" d="M40.9,127.5c0,2.6-1.9,3.7-4.2,2.4c-2.3-1.3-4.2-4.5-4.1-7.2L40.9,127.5z"/>
									</g>
								</g>
								<g>
									<g>
										<path class="st80" d="M49.2,132.3c0,2.6-1.9,3.7-4.2,2.4c-2.3-1.3-4.2-4.5-4.2-7.2L49.2,132.3z"/>
									</g>
								</g>
							</g>
							<g>
								<g class="st68">
									<g>
										<polygon class="st82" points="19.3,87.9 27.6,92.8 27.7,92.8 19.4,88 										"/>
									</g>
									<g>
										<polygon class="st82" points="27.6,92.8 27.7,92.8 16,113.2 15.9,113.1 										"/>
									</g>
									<g>
										
											<rect x="5.9" y="95.7" transform="matrix(0.5 -0.866 0.866 0.5 -78.2469 65.5064)" class="st83" width="23.5" height="9.6"/>
									</g>
								</g>
								<g>
									
										<rect x="14.2" y="100.5" transform="matrix(0.5001 -0.866 0.866 0.5001 -78.2433 75.1155)" class="st8" width="23.5" height="9.6"/>
								</g>
								<g class="st68">
									<g>
										<polygon class="st82" points="44.3,102.4 44.4,102.4 32.7,122.8 32.6,122.7 										"/>
									</g>
									<g>
										<polygon class="st82" points="32.6,122.7 32.7,122.8 24.3,118 24.2,117.9 										"/>
									</g>
									<g>
										
											<rect x="22.5" y="105.3" transform="matrix(0.4999 -0.8661 0.8661 0.4999 -78.2495 84.7604)" class="st83" width="23.5" height="9.6"/>
									</g>
								</g>
								<g>
									
										<rect x="30.9" y="110.1" transform="matrix(0.5 -0.866 0.866 0.5 -78.2472 94.3635)" class="st8" width="23.5" height="9.6"/>
								</g>
								<g class="st68">
									<g>
										<polygon class="st82" points="52.6,107.2 52.7,107.2 61.1,112 61,112 										"/>
									</g>
									<g>
										
											<rect x="39.2" y="114.9" transform="matrix(0.5 -0.866 0.866 0.5 -78.2484 103.9806)" class="st83" width="23.5" height="9.6"/>
									</g>
								</g>
							</g>
						</g>
						<g>
							<g>
								<g class="st68">
									<g>
										<polygon class="st82" points="19.3,87.9 19.4,88 27.7,92.8 27.6,92.8 										"/>
									</g>
									<g>
										<polygon class="st84" points="15.9,113.1 16,113.2 7.7,108.3 7.6,108.3 										"/>
									</g>
								</g>
							</g>
						</g>
					</g>
				</g>
				<g>
					<g>
						<polygon class="st71" points="238.3,96 93.3,12.3 93.3,12.3 93.3,95.4 166.5,137.7 						"/>
						<polygon class="st69" points="21.6,54 93.3,95.4 93.3,12.3 						"/>
					</g>
					<polygon class="st15" points="26.2,56.6 166.5,137.7 233.7,98.6 93.3,17.6 					"/>
				</g>
				<g>
					<g class="st68">
						<g>
							<path class="st85" d="M156.9,226.3l0,1.8c0,0.8-0.6,1.6-1.8,2.3c-2,1.2-4.9,1.4-6.4,0.5c-0.6-0.4-1-0.9-1-1.4l0-1.8
								c0,0.5,0.3,1.1,1,1.4c1.5,0.9,4.4,0.7,6.4-0.5C156.3,228,156.9,227.1,156.9,226.3z"/>
						</g>
						<g>
							<path class="st86" d="M156,224.9c1.5,0.9,1.2,2.6-0.8,3.7c-2,1.2-4.9,1.4-6.4,0.5c-1.5-0.9-1.2-2.6,0.8-3.7
								C151.5,224.2,154.4,224,156,224.9z"/>
						</g>
					</g>
				</g>
				<g>
					<g class="st68">
						<g>
							<path class="st85" d="M166.1,230.9l0,1.8c0,0.8-0.6,1.6-1.8,2.3c-2,1.2-4.9,1.4-6.4,0.5c-0.6-0.4-1-0.9-1-1.4l0-1.8
								c0,0.5,0.3,1.1,1,1.4c1.5,0.9,4.4,0.7,6.4-0.5C165.5,232.5,166.1,231.7,166.1,230.9z"/>
						</g>
						<g>
							<path class="st86" d="M165.1,229.5c1.5,0.9,1.2,2.6-0.8,3.7c-2,1.2-4.9,1.4-6.4,0.5c-1.5-0.9-1.2-2.6,0.8-3.7
								C160.7,228.8,163.6,228.6,165.1,229.5z"/>
						</g>
					</g>
				</g>
				<g>
					<g class="st68">
						<g>
							<path class="st85" d="M175.3,235.5l0,1.8c0,0.8-0.6,1.6-1.8,2.3c-2,1.2-4.9,1.4-6.4,0.5c-0.6-0.4-1-0.9-1-1.4l0-1.8
								c0,0.5,0.3,1.1,1,1.4c1.5,0.9,4.4,0.7,6.4-0.5C174.7,237.1,175.3,236.2,175.3,235.5z"/>
						</g>
						<g>
							<path class="st86" d="M174.3,234c1.5,0.9,1.2,2.6-0.8,3.7c-2,1.2-4.9,1.4-6.4,0.5c-1.5-0.9-1.2-2.6,0.8-3.7
								C169.9,233.4,172.8,233.2,174.3,234z"/>
						</g>
					</g>
				</g>
				<g>
					<g class="st68">
						<g>
							<path class="st85" d="M184.5,240l0,1.8c0,0.8-0.6,1.6-1.8,2.3c-2,1.2-4.9,1.4-6.4,0.5c-0.6-0.4-1-0.9-1-1.4l0-1.8
								c0,0.5,0.3,1.1,1,1.4c1.5,0.9,4.4,0.7,6.4-0.5C183.9,241.7,184.5,240.8,184.5,240z"/>
						</g>
						<g>
							<path class="st86" d="M183.5,238.6c1.5,0.9,1.2,2.6-0.8,3.7c-2,1.2-4.9,1.4-6.4,0.5c-1.5-0.9-1.2-2.6,0.8-3.7
								C179.1,237.9,182,237.7,183.5,238.6z"/>
						</g>
					</g>
				</g>
				<g>
					<g class="st68">
						<g>
							<path class="st85" d="M146.4,235l0,1.8c0,0.8-0.6,1.6-1.8,2.3c-2,1.2-4.9,1.4-6.4,0.5c-0.6-0.4-1-0.9-1-1.4l0-1.8
								c0,0.5,0.3,1.1,1,1.4c1.5,0.9,4.4,0.7,6.4-0.5C145.7,236.6,146.4,235.7,146.4,235z"/>
						</g>
						<g>
							<path class="st86" d="M145.4,233.5c1.5,0.9,1.2,2.6-0.8,3.7c-2,1.2-4.9,1.4-6.4,0.5c-1.5-0.9-1.2-2.6,0.8-3.7
								C141,232.9,143.9,232.7,145.4,233.5z"/>
						</g>
					</g>
				</g>
				<g>
					<g class="st68">
						<g>
							<path class="st85" d="M155.6,239.5l0,1.8c0,0.8-0.6,1.6-1.8,2.3c-2,1.2-4.9,1.4-6.4,0.5c-0.6-0.4-1-0.9-1-1.4l0-1.8
								c0,0.5,0.3,1.1,1,1.4c1.5,0.9,4.4,0.7,6.4-0.5C154.9,241.2,155.6,240.3,155.6,239.5z"/>
						</g>
						<g>
							<path class="st86" d="M154.6,238.1c1.5,0.9,1.2,2.6-0.8,3.7c-2,1.2-4.9,1.4-6.4,0.5c-1.5-0.9-1.2-2.6,0.8-3.7
								C150.2,237.4,153.1,237.2,154.6,238.1z"/>
						</g>
					</g>
				</g>
				<g>
					<g class="st68">
						<g>
							<path class="st85" d="M164.7,244.1l0,1.7c0,0.8-0.6,1.6-1.8,2.3c-2,1.2-4.9,1.4-6.4,0.5c-0.6-0.4-1-0.9-1-1.4l0-1.8
								c0,0.5,0.3,1.1,1,1.4c1.5,0.9,4.4,0.7,6.4-0.5C164.1,245.7,164.7,244.9,164.7,244.1z"/>
						</g>
						<g>
							<path class="st86" d="M163.8,242.7c1.5,0.9,1.2,2.6-0.8,3.7c-2,1.2-4.9,1.4-6.4,0.5c-1.6-0.9-1.2-2.6,0.8-3.7
								C159.4,242,162.2,241.8,163.8,242.7z"/>
						</g>
					</g>
				</g>
				<g>
					<g class="st68">
						<g>
							<path class="st85" d="M173.9,248.7l0,1.8c0,0.8-0.6,1.6-1.8,2.3c-2,1.2-4.9,1.4-6.4,0.5c-0.6-0.4-1-0.9-1-1.4l0-1.8
								c0,0.5,0.3,1.1,1,1.4c1.5,0.9,4.4,0.7,6.4-0.5C173.3,250.3,173.9,249.5,173.9,248.7z"/>
						</g>
						<g>
							<path class="st86" d="M173,247.3c1.5,0.9,1.2,2.6-0.8,3.7c-2,1.2-4.9,1.4-6.4,0.5c-1.5-0.9-1.2-2.6,0.8-3.7
								C168.6,246.6,171.4,246.4,173,247.3z"/>
						</g>
					</g>
				</g>
				<g>
					<g>
						<g class="st68">
							<g>
								<path class="st87" d="M129,207.4l0,2.3c0,0.4-0.2,0.8-0.7,1.1c-1.5,0.9-5.2,0.2-8.2-1.5c-2.1-1.2-3.3-2.6-3.3-3.6l0-2.3
									c0,1,1.2,2.4,3.3,3.6c3,1.7,6.6,2.4,8.2,1.5C128.8,208.2,129,207.8,129,207.4z"/>
							</g>
							<g>
								<path class="st88" d="M125.7,203.8c3,1.7,4.1,3.8,2.6,4.7c-1.5,0.9-5.2,0.2-8.2-1.5c-3-1.7-4.1-3.8-2.6-4.7
									C119.1,201.4,122.7,202.1,125.7,203.8z"/>
							</g>
						</g>
					</g>
					<g>
						<g class="st68">
							<g>
								<path class="st87" d="M121.2,212.5l0,2.3c0,0.4-0.2,0.8-0.7,1.1c-1.5,0.9-5.2,0.2-8.2-1.5c-2.1-1.2-3.3-2.6-3.3-3.6l0-2.3
									c0,1,1.2,2.4,3.3,3.6c3,1.7,6.6,2.4,8.2,1.5C121,213.3,121.2,213,121.2,212.5z"/>
							</g>
							<g>
								<path class="st88" d="M117.9,208.9c3,1.7,4.1,3.8,2.6,4.7c-1.5,0.9-5.2,0.2-8.2-1.5c-3-1.7-4.1-3.8-2.6-4.7
									C111.3,206.5,115,207.2,117.9,208.9z"/>
							</g>
						</g>
					</g>
					<g>
						<g class="st68">
							<g>
								<path class="st87" d="M113.5,217.6l0,2.3c0,0.4-0.2,0.8-0.7,1.1c-1.5,0.9-5.2,0.2-8.2-1.5c-2.1-1.2-3.3-2.6-3.3-3.6l0-2.3
									c0,1,1.2,2.4,3.3,3.6c3,1.7,6.6,2.4,8.2,1.5C113.2,218.4,113.5,218.1,113.5,217.6z"/>
							</g>
							<g>
								<path class="st88" d="M110.2,214c3,1.7,4.1,3.8,2.6,4.7c-1.5,0.9-5.2,0.2-8.2-1.5c-3-1.7-4.1-3.8-2.6-4.7
									C103.6,211.6,107.2,212.3,110.2,214z"/>
							</g>
						</g>
					</g>
				</g>
				<g>
					<g>
						<g class="st68">
							<g>
								<path class="st89" d="M141.1,213.7l0,1.5c0,0.6-0.4,1.2-1.1,1.6c-1.5,0.9-4,0.9-5.6,0c-0.8-0.4-1.2-1-1.2-1.6l0-1.5
									c0,0.6,0.4,1.2,1.2,1.6c1.5,0.9,4,0.9,5.6,0C140.7,214.8,141.1,214.2,141.1,213.7z"/>
							</g>
							<g>
								<path class="st90" d="M139.9,212c1.5,0.9,1.6,2.3,0,3.2c-1.5,0.9-4,0.9-5.6,0c-1.5-0.9-1.5-2.3,0-3.2
									C135.9,211.1,138.4,211.1,139.9,212z"/>
							</g>
						</g>
					</g>
					<g>
						<g class="st68">
							<g>
								<path class="st89" d="M133.4,218.8l0,1.5c0,0.6-0.4,1.2-1.1,1.6c-1.5,0.9-4,0.9-5.6,0c-0.8-0.4-1.2-1-1.2-1.6l0-1.5
									c0,0.6,0.4,1.2,1.2,1.6c1.5,0.9,4,0.9,5.6,0C133,219.9,133.4,219.4,133.4,218.8z"/>
							</g>
							<g>
								<path class="st90" d="M132.2,217.1c1.6,0.9,1.6,2.3,0,3.2c-1.5,0.9-4,0.9-5.6,0c-1.5-0.9-1.6-2.3,0-3.2
									C128.2,216.3,130.6,216.3,132.2,217.1z"/>
							</g>
						</g>
					</g>
					<g>
						<g class="st68">
							<g>
								<path class="st89" d="M125.6,223.9l0,1.5c0,0.6-0.4,1.2-1.1,1.6c-1.5,0.9-4,0.9-5.6,0c-0.8-0.4-1.2-1-1.2-1.6l0-1.5
									c0,0.6,0.4,1.2,1.2,1.6c1.5,0.9,4,0.9,5.6,0C125.2,225,125.6,224.5,125.6,223.9z"/>
							</g>
							<g>
								<path class="st90" d="M124.4,222.3c1.5,0.9,1.6,2.3,0,3.2c-1.5,0.9-4,0.9-5.6,0c-1.5-0.9-1.6-2.3,0-3.2
									C120.4,221.4,122.9,221.4,124.4,222.3z"/>
							</g>
						</g>
					</g>
				</g>
				<g>
					<path class="st91" d="M164.9,189.4v70.8l-80.1-46.1v-70.8L164.9,189.4z M168.2,189.4v70.9l29.2-15.5v-70.9L168.2,189.4z"/>
					<path class="st74" d="M199.8,169.9c0.5,0.3,0.8,0.8,0.8,1.4v74.5c0,0.6-0.3,1.1-0.8,1.4l-32.4,17.2c-0.2,0.1-0.5,0.2-0.8,0.2
						c-0.3,0-0.6-0.1-0.8-0.2l-83.3-48c-0.5-0.3-0.8-0.8-0.8-1.4v-74.5c0-0.6,0.3-1.1,0.8-1.4c0.5-0.3,1.1-0.3,1.6,0l82.5,47.5
						l31.6-16.8C198.7,169.5,199.3,169.6,199.8,169.9z M197.4,244.8v-70.9l-29.2,15.5v70.9L197.4,244.8z M164.9,260.2v-70.8
						l-80.1-46.1v70.8L164.9,260.2z"/>
				</g>
			</g>
			<g>
				<g>
					<g class="st68">
						<g>
							<polygon class="st92" points="74.1,233.3 75.9,231.7 78.7,242.3 76.9,244 							"/>
						</g>
						<g>
							<polygon class="st92" points="66.3,204 68.2,202.4 68.6,204.1 66.8,205.7 							"/>
						</g>
						<g>
							<polygon class="st93" points="64.5,202.9 66.3,201.3 68.2,202.4 66.3,204 							"/>
						</g>
						<g>
							<polygon class="st93" points="66.8,205.7 68.6,204.1 88.6,215.6 86.8,217.3 							"/>
						</g>
						<g>
							<polygon class="st92" points="88.1,216.6 90,215 100.5,254.9 98.7,256.5 							"/>
						</g>
						<g>
							<polygon class="st93" points="86.3,215.5 88.1,213.9 90,215 88.1,216.6 							"/>
						</g>
						<g>
							<polygon class="st94" points="88.1,216.6 98.7,256.5 96.9,255.5 94.1,244.9 74.1,233.3 76.9,244 75.1,242.9 64.5,202.9 
								66.3,204 66.8,205.7 86.8,217.3 86.3,215.5 							"/>
						</g>
					</g>
				</g>
				<g>
					<g class="st68">
						<g>
							<polygon class="st92" points="59.6,235.7 61.5,235.2 58.6,249.1 56.8,249.6 							"/>
						</g>
						<g>
							<polygon class="st92" points="67.6,197.2 69.4,196.7 68.9,199 67.1,199.5 							"/>
						</g>
						<g>
							<polygon class="st95" points="65.8,196.2 67.6,195.7 69.4,196.7 67.6,197.2 							"/>
						</g>
						<g>
							<polygon class="st95" points="67.1,199.5 68.9,199 88.9,210.5 87.1,211 							"/>
						</g>
						<g>
							<polygon class="st92" points="89.4,209.8 91.2,209.3 80.4,261.7 78.6,262.2 							"/>
						</g>
						<g>
							<polygon class="st95" points="87.6,208.7 89.4,208.3 91.2,209.3 89.4,209.8 							"/>
						</g>
						<g>
							<polygon class="st96" points="89.4,209.8 78.6,262.2 76.8,261.2 79.6,247.2 59.6,235.7 56.8,249.6 55,248.6 65.8,196.2 
								67.6,197.2 67.1,199.5 87.1,211 87.6,208.7 							"/>
						</g>
					</g>
				</g>
				<g>
					<path class="st97" d="M67.5,202l-0.5,2.2l-6.1,29.4l1.8,1l16.4,9.4l6.1-29.4l0.5-2.2L67.5,202z"/>
					<g>
						<g>
							<polygon class="st98" points="79,225 78.8,225.7 74.3,223 74.4,222.4 							"/>
						</g>
						<g class="st68">
							<g>
								<polygon class="st98" points="77.8,230.6 77.7,231.3 73.1,228.6 73.3,228 								"/>
							</g>
							<g>
								<polygon class="st99" points="78.3,228.1 78.1,229.2 67.2,222.9 67.4,221.8 								"/>
							</g>
							<g>
								<polygon class="st99" points="79.5,222.5 79.3,223.6 68.4,217.3 68.6,216.2 								"/>
							</g>
							<g>
								<polygon class="st99" points="78.9,215.4 78.6,217.1 71.3,212.9 71.7,211.2 								"/>
							</g>
							<g>
								<polygon class="st100" points="85.6,212.5 85.2,214.8 68.8,205.3 62.7,234.7 60.9,233.7 67,204.3 67.5,202 								"/>
							</g>
						</g>
						<g>
							<polygon class="st98" points="76.7,236.2 76.5,236.9 72,234.2 72.1,233.6 							"/>
						</g>
						<g>
							<polygon class="st99" points="77.2,233.7 76.9,234.8 66,228.5 66.3,227.4 							"/>
						</g>
					</g>
				</g>
			</g>
		</g>
		<g>
			<path class="st81" d="M108.4,286.5c6.9,4,17.4,4.4,23.3,1c6-3.5,5.2-9.5-1.7-13.5c-6.9-4-17.4-4.4-23.3-1
				C100.7,276.5,101.5,282.5,108.4,286.5z"/>
			<g>
				<path class="st15" d="M119.7,195.5l-1.7-0.4c-1.4,0.6-4.5,7.1-6.1,11.7c-0.6,1.8,0.5,5.3,2.9,3.2c1.8-1.5,1.9-4.3,3-6.4
					C119.3,200.8,120.8,199,119.7,195.5z"/>
				<path class="st15" d="M112.2,205.9c-1.5,2-2.9,4-4.4,5.9c-0.5,0.6-2.2,2.2-2,3c1,0.5,2.1,1.5,3,1.9c1.8-1.5,3.7-3.5,5.4-5.1
					c1.5-1.5,1.8-2.1,0.3-3C114.1,208.4,111.9,206.2,112.2,205.9z"/>
				<g>
					<g>
						<path class="st34" d="M122.8,253.4c-1.5-6.9,1.8-16,3.1-17.7c-0.7-12-7.1-13.8-9.5-10.8c-2.5,4.7,0.3,22.6,0.7,24.5
							c0.5,2,0,3.1,1.2,5c-1.1,5.2,1.4,10.6,0.6,17.8c0,0.1-0.1,0.1-0.1,0.2c-2.5,3.2-2.1,2.4-5,3.6c-1.2,0.3-1.2,2.4,1.3,2.6
							c1.9,0.1,3-2,5-1.7c2.1,0.3,3.7-0.2,2.9-2.1c-0.8-1.9-0.5-0.9-0.6-2.6c0-0.1,0-0.3-0.1-0.4
							C122.7,262.2,125.9,263.5,122.8,253.4z"/>
						<path class="st34" d="M132.9,273.8c0-0.1,0-0.2,0-0.3c0.2-7.7,2.8-14.6-1.8-20.3c0.5-4.4-2-12.7,0-15.8
							c2-3.1,2.5-5.9,0.8-10.2c-1.7-4.3-10.1-1.9-10.6,2.2c-0.4,4.1,1.5,16.8,2.6,19.4c1.1,2.5,2.3,7.2,3.4,7.9
							c1.1,0.8,2,12.4,2,17.8c-1.3,4.6-1.6,3.5-2.7,5.3c-1.1,2-1.1,3.2,0.3,3.3c1.6,0.2,2.8,0.8,5.5-2.4c0.6-2.8,0.4-3.2,0.4-4.3
							C132.9,275.8,132.9,274.8,132.9,273.8z"/>
						<path class="st101" d="M127.1,279.3c1,2.3,3.3,1.9,4.6,1.2c1.3-0.8,1.2-3.4,1.2-4.4c1,3.1-0.3,3.1-0.1,5.9
							c0,2.3-2.1,3.7-4.9,3.4C123,285.1,124.4,282.3,127.1,279.3z"/>
						<path class="st101" d="M122.8,274.4c-1.3,1.3-5.3,2.5-6.5,2.9c-1.2,0.4-2.1-1.4-1.6-1.6c-2.1,0.6-3,0.8-4,1.1
							c-1.1,0.3-1.2,1.9,1,2.8c2.2,0.8,5.1,0.2,6.1-0.8c0.9-1,5.4-0.7,5.6-1.5C123.6,275.8,123.1,274.5,122.8,274.4z"/>
					</g>
					<path class="st102" d="M133.6,230.2c-0.4-1.7-1.1-3.4-2.3-5.1c-1.7,3-11.4,6.6-15.8,3c-0.6,2.1-1,3.9-1.1,5.6
						c0,0-2.8,30.8-3.3,33.2l0,1l0,1.5l1.4-0.8l0.6,2l1.3-1.1l0,0.8h0l0,0.7l1.2-0.7l0,1.3l1.8-0.9l0,0l0.3,1.2l1.3-1l0,0.8l1.2-1.1
						l0.5,1.1l0.7-0.6l0,0l0.2-0.2l0.6,1.3l0.2-0.4l0.7-0.5l0.1,0l0.2,1.2l1.1-0.9l0.4,0.6l0.8-0.6l0.4,0.6l0.6-0.7l0.8,0.5l0.7-0.8
						l0.6,0.8l0.4-0.7l0.8,0.4l0.5-1.2l0.5,1.2l0.3-1l0.3,1l0.1-0.7l0.6,0.8l0.2-1.1l0.5,1l0.4-1.1l0.8,1l0.3-1.4l1.1,0.5l-0.4-6.5
						C135.2,264.3,134.6,233.3,133.6,230.2z"/>
					<path class="st34" d="M128.9,197c1.4,1.4,5,4.3,5.4,5.3c1.5,3.5-6.6,6.3-2.8,22.3c1.3,5.6-12.4,6.4-16,0.3
						c2-6.7-0.8-16.1,0.1-19.5c1-3.8,1.7-10.4,5.2-10.4C124.2,195.1,125.7,197,128.9,197z"/>
					<path class="st15" d="M130.7,198.4c1.6,0,2.8,1.3,3.2,2.4c1.4,3.5-5,10.3-1.8,25.1c1,4.8-14.8,4.5-17.5-1
						c1.9-6.7-1.5-13.7,0.6-19.6c1.3-3.7,1.4-10.7,5.4-10.2C118,200.4,120.7,204.3,130.7,198.4z"/>
					<path class="st34" d="M121.8,195.8c0,0,0.2,2-0.4,3.1c0,2.8,6.1,0.2,7.7-1.7c-0.5-0.7-1.4-3.1,0.4-7.1
						C127.4,191.6,121.8,195.8,121.8,195.8z"/>
					<path class="st103" d="M128.1,193.6c-0.7-0.4-2.2-0.2-4,0.5c-1.3,1-2.4,1.8-2.4,1.8s0.2,2-0.4,3.1c0,0.2,0,0.3,0.1,0.5
						c1-0.4,2.1-0.9,3.1-1.5C127.6,196.1,129.2,194.2,128.1,193.6z"/>
					<path class="st104" d="M112.7,251.2c0.1,3,13.6,8.7,16.7,7.7c3.1-1-1.4-34.5-1.4-34.5s1.1-17.5,0.7-20c-6.2,0.6-10.7,0-11.6-3
						c0,0-2.2,3.7-2.6,6.4c-0.4,2.7,0.6,14.6,0.3,15.9C113.1,228.3,112.8,250,112.7,251.2z"/>
					<path class="st104" d="M117.3,203.7C117.3,203.7,117.2,203.7,117.3,203.7c-0.3-0.1-0.4-0.3-0.4-0.5c0.8-3.9,5-9.1,7.1-9.6
						c0.2,0,0.4,0.1,0.5,0.3c0,0.2-0.1,0.4-0.3,0.5c-1.7,0.4-5.8,5.3-6.6,9C117.6,203.6,117.5,203.7,117.3,203.7z M127.6,206.3
						c0.8-2.5,3.4-10-0.7-12.1c-0.2-0.1-0.4,0-0.5,0.2c-0.1,0.2,0,0.4,0.2,0.5c2.3,1.2,2.5,5,0.3,11.2c-0.1,0.2,0,0.4,0.2,0.5
						c0,0,0.1,0,0.1,0C127.4,206.5,127.5,206.4,127.6,206.3z"/>
					<path class="st105" d="M122,190.1h-0.4c0-0.1,0-0.2,0-0.3l-0.8-0.1c0,0.9,0.1,1.7,0.2,2.5c0,0.2-0.1,0.3-0.1,0.5
						c0,0,0,0.1,0,0.1h-0.3c0,0,0,0.2,0,0.5c0,0.1,0,0.3,0,0.4c-0.1,0.2-0.2,0.4-0.2,0.6c-0.1-0.2-0.1-0.4-0.1-0.6
						c0-0.3,0-0.4,0-0.4l-0.1,0c0-0.1,0-0.3,0-0.4c0-0.2,0-0.4,0-0.6c0-0.2,0-0.4,0-0.6c0.1-1.4,0.1-2.4,0.1-2.4h-0.8
						c0,0,0,0.9,0,2.4c0,0.2,0,0.4,0,0.6c0,0.2,0,0.4,0,0.6c0,0.1,0,0.3,0,0.4l-0.9,0c0,0,0,0.1,0,0.2c0,0.1,0,0.3,0.1,0.5
						c0.1,0.4,0.2,0.8,0.4,1.2c-0.2,0.2-0.4,0.4-0.5,0.7c0-0.2,0-0.5,0-0.8c0-0.5-0.1-1-0.2-1.5c0-1,0-2.1-0.1-2.9
						c0.1-0.4,0.2-0.8,0.3-1.2c0.1-0.4,0.1-0.7,0.2-1c0-0.1,0.1-0.3,0.1-0.4c0-0.3,0.1-0.5,0.1-0.7c0-0.2,0-0.4,0-0.5
						c0,0,0-0.1,0-0.1c0.2-0.2,0.3-0.5,0.5-0.7c0.4-0.6,0.8-1,1.1-1.2c0.1-0.1,0.3-0.2,0.4-0.2c0.1,0,0.1-0.1,0.1-0.1l-0.3-0.5
						c0,0-0.1,0-0.2,0.1c-0.1,0.1-0.2,0.2-0.4,0.3c-0.3,0.3-0.7,0.8-1.1,1.4c0,0.1-0.1,0.1-0.1,0.2c0-0.1,0.1-0.2,0.1-0.3
						c0.1-0.3,0.1-0.5,0.2-0.6c0.3-0.4,0.7-0.7,1-0.9c0.1-0.1,0.3-0.2,0.3-0.2c0.1,0,0.1-0.1,0.1-0.1l-0.3-0.5c0,0,0,0-0.1,0.1
						c-0.1,0.1-0.2,0.1-0.4,0.2c-0.3,0.2-0.7,0.6-1.1,1.1l-0.1,0c0,0,0,0.1-0.1,0.2c-0.3,0.5-0.6,1.1-0.8,1.8
						c-0.2,0.6-0.3,1.2-0.3,1.9l0,0c0,0,0,0,0,0.1c0,0,0,0,0,0c-0.2,0.5-0.4,1-0.5,1.6c-0.2,0.9-0.3,1.9-0.2,2.8
						c0,0.5,0.2,1,0.3,1.4c0,0.4,0,0.8,0,1.1c0,0.5,0.1,1,0.2,1.3c0,0.2,0.1,0.3,0.1,0.3c0,0,0,0.1,0,0.1c-0.1,0.1-0.1,0.2-0.2,0.3
						c-0.2,0.4-0.4,0.9-0.5,1.4c0,0,0,0,0,0c0,0,0,0,0,0s0,0,0,0c0,0.1,0,0.2,0,0.4c0,0.1,0,0.3,0,0.4c0,0.1,0,0.2,0,0.3
						c0,0,0,0.1,0,0.1c0,0.8,0.4,1.5,0.8,1.9c0.1,0.1,0.2,0.2,0.3,0.3c0.1,0.1,0.2,0.2,0.4,0.3c0,0,0,0,0.1,0c0,0.2,0,0.4,0.1,0.6
						c0.1,0.3,0.2,0.6,0.4,0.7c0,0.1,0.1,0.2,0.1,0.3c0.1,0.2,0.1,0.4,0.2,0.6c0,0.3-0.1,0.6-0.3,0.8c-0.2,0.2-0.4,0.3-0.6,0.4
						c-0.1,0-0.2,0-0.3,0c-0.1,0-0.1,0-0.2,0c-0.1,0-0.2,0-0.2,0s0.1,0,0.2,0c0.1,0,0.1,0,0.2,0c0.1,0,0.2,0,0.3,0
						c0.2,0,0.5-0.1,0.7-0.3c0.1-0.1,0.2-0.3,0.3-0.4c0,0.2,0.1,0.4,0.1,0.5c0,0.2,0,0.3,0,0.4c0,0.1,0,0.2,0,0.2s0-0.1,0-0.1
						c0-0.1,0.1-0.2,0.1-0.4c0-0.2,0-0.5,0-0.8c0-0.1,0-0.1,0.1-0.2c0.1-0.2,0.1-0.5,0.1-0.8c0.2,0.3,0.3,0.6,0.4,0.9
						c0,0.1,0.1,0.2,0.1,0.3c0,0.1-0.1,0.2-0.1,0.4c-0.2,0.6-0.5,1.1-0.7,1.4c-0.2,0.3-0.4,0.5-0.4,0.5s0.2-0.2,0.4-0.5
						c0.1-0.2,0.3-0.4,0.5-0.7c0.1-0.1,0.2-0.2,0.3-0.5c0-0.1,0.1-0.2,0.1-0.2c0.3-0.6,0.4-1.5,0.2-2.4c0,0,0,0,0,0
						c0.1,0,0.1,0,0.1,0c0,0,0,0-0.1,0c-0.2-0.8-0.5-1.6-0.8-2.3c0.2-0.4,0.4-0.7,0.6-1.1c0.4-0.8,0.8-1.6,0.9-2.6
						c0-0.2,0-0.4,0-0.6c0.3-0.3,0.4-0.7,0.5-1c0-0.2,0.1-0.3,0.1-0.4c0-0.1,0-0.1,0-0.1c0.2-0.3,0.3-0.6,0.3-0.8c0-0.2,0-0.3,0-0.4
						c0-0.1,0-0.1,0-0.1l-0.4,0c0,0,0,0,0,0c0.1-0.5,0.1-1,0.1-1.5c0-0.1,0-0.1,0-0.2c0.2-0.6,0.3-1.1,0.3-1.5
						C122,190.3,122,190.1,122,190.1z M119.2,202.8c0,0,0.1,0.1,0.1,0.1c0,0,0,0-0.1,0C119.2,202.9,119.2,202.9,119.2,202.8
						C119.1,202.9,119.1,202.8,119.2,202.8C119.1,202.8,119.2,202.8,119.2,202.8L119.2,202.8z M118,202.4c-0.1-0.1-0.1-0.1-0.1-0.2
						c-0.1-0.1-0.2-0.3-0.2-0.4c0,0,0.1,0.1,0.1,0.1c0.2,0.2,0.4,0.4,0.6,0.6c0,0,0,0.1,0,0.1C118.2,202.6,118.1,202.5,118,202.4z
						 M117.7,190.2c0,0.1,0,0.1,0,0.2c0,0.1,0,0.2,0,0.3c0,0,0,0,0,0c0,0,0,0.1,0,0.1c0,0.1,0,0.1,0,0.2
						C117.7,190.7,117.7,190.5,117.7,190.2z M117.9,199.5c-0.1,0.5-0.2,1-0.1,1.4c-0.1-0.2-0.2-0.3-0.2-0.5c0-0.1,0-0.1,0-0.2
						C117.6,200,117.8,199.7,117.9,199.5z M117.8,198.9c0,0,0.1-0.1,0.1-0.1C117.9,198.9,117.9,198.9,117.8,198.9
						C117.9,199,117.9,199,117.8,198.9c0,0.2-0.1,0.3-0.1,0.3C117.7,199.2,117.7,199.1,117.8,198.9z M118.3,201.7
						c-0.1-0.4-0.2-0.8-0.1-1.3l0.1,0.3c0,0.1,0.1,0.2,0.2,0.3C118.4,201.3,118.4,201.5,118.3,201.7
						C118.4,201.7,118.3,201.7,118.3,201.7z M118.5,201.9c0-0.2,0.1-0.4,0.1-0.5c0,0.1,0,0.1,0,0.2
						C118.6,201.7,118.6,201.8,118.5,201.9C118.5,201.9,118.5,201.9,118.5,201.9z M118.3,196.3c0-0.2-0.1-0.4-0.1-0.6
						c0-0.3,0.1-0.6,0.1-0.9c0,0.1,0,0.3,0.1,0.4c0,0.3,0.1,0.7,0.1,1C118.3,196.2,118.3,196.2,118.3,196.3z M117.8,193.9
						c0.1,0.4,0.1,0.7,0.2,1c0,0,0,0.1,0,0.1c-0.1-0.4-0.2-0.8-0.2-1.3C117.8,193.8,117.8,193.9,117.8,193.9z M118,194
						c0,0.2,0,0.4,0,0.7c0-0.2-0.1-0.5-0.1-0.8c0-0.2-0.1-0.5-0.1-0.7c0-0.2,0-0.5,0.1-0.7c0,0,0,0,0-0.1c0,0.2,0.1,0.4,0.1,0.6
						C118,193.4,118,193.7,118,194z M118,187.6C118,187.6,117.9,187.7,118,187.6c0,0,0-0.2,0.1-0.3C118,187.4,118,187.5,118,187.6z
						 M117.6,192.7c0,0.3,0,0.5,0,0.8c0,0.3,0,0.7,0.1,1c0.1,0.3,0.2,0.6,0.2,0.8c0,0,0,0,0,0c0,0.2,0,0.5-0.1,0.7
						c0,0.1,0,0.1,0,0.2c-0.1-0.2-0.3-0.4-0.4-0.7c-0.1-0.3-0.2-0.5-0.3-0.8c0.1-0.7,0.2-1.4,0.4-2.1
						C117.6,192.6,117.6,192.7,117.6,192.7z M118.1,196c0-0.1,0-0.2,0-0.2c0.1,0.2,0.1,0.3,0.1,0.5c-0.1,0.1-0.1,0.1-0.2,0.2
						c0,0,0-0.1-0.1-0.1C118,196.3,118,196.2,118.1,196z M118,196.5C118,196.6,118,196.6,118,196.5c-0.1,0.1-0.1,0.1-0.1,0.1
						C117.9,196.6,117.9,196.5,118,196.5C118,196.5,118,196.5,118,196.5z M118.4,202.7C118.4,202.7,118.4,202.7,118.4,202.7
						C118.4,202.7,118.4,202.7,118.4,202.7C118.4,202.7,118.4,202.7,118.4,202.7z M118.5,202.8C118.5,202.8,118.5,202.8,118.5,202.8
						C118.5,202.8,118.5,202.9,118.5,202.8C118.5,202.9,118.4,202.8,118.5,202.8C118.4,202.8,118.4,202.8,118.5,202.8
						C118.4,202.8,118.4,202.8,118.5,202.8z M119.1,202.7c0,0,0-0.1-0.1-0.1c0,0,0,0,0-0.1c0,0,0,0,0-0.1
						C119,202.6,119.1,202.7,119.1,202.7C119.1,202.8,119.1,202.8,119.1,202.7z M118.9,199.3c0-0.2,0-0.5,0-0.7c0,0,0,0,0,0
						c0.1-0.1,0.2-0.2,0.4-0.3C119.1,198.7,119,199,118.9,199.3z M116.9,193.2c0-0.9,0.1-1.8,0.3-2.7c0-0.2,0.1-0.4,0.2-0.6
						c0,0.6,0,1.2,0.1,1.8c0,0,0,0,0,0.1c-0.2,0.8-0.3,1.6-0.4,2.4C117,193.9,117,193.5,116.9,193.2z M117.4,197.4
						c0-0.1-0.1-0.2-0.1-0.3c-0.1-0.3-0.1-0.7-0.1-1.3c0-0.2,0-0.5,0-0.8c0.1,0.2,0.2,0.4,0.2,0.6c0.1,0.3,0.3,0.5,0.4,0.8
						c0,0.2-0.1,0.5-0.2,0.7C117.6,197.1,117.5,197.3,117.4,197.4C117.4,197.4,117.4,197.4,117.4,197.4z M117,201
						c0.1,0.2,0.2,0.3,0.3,0.5c0.1,0.2,0.1,0.4,0.2,0.5C117.3,201.7,117.1,201.4,117,201z M118.3,202.7
						C118.3,202.7,118.2,202.7,118.3,202.7C118.2,202.7,118.3,202.7,118.3,202.7C118.3,202.7,118.3,202.7,118.3,202.7
						C118.3,202.7,118.3,202.7,118.3,202.7z M118.4,203.4c0-0.2,0-0.4,0-0.6c0,0,0.1,0,0.1,0.1c0,0.2,0,0.4,0.1,0.5
						c0.1,0.3,0.1,0.5,0.2,0.7C118.6,204,118.4,203.7,118.4,203.4z M119.6,206.6c0-0.1,0.1-0.1,0.1-0.2
						C119.7,206.5,119.7,206.5,119.6,206.6z M119.9,205.3c-0.1-0.4-0.2-0.8-0.5-1.3c0,0,0-0.1-0.1-0.1c0,0,0-0.1,0-0.1
						c0-0.3-0.1-0.6-0.2-0.9c0,0,0,0,0.1,0c0,0,0,0,0.1,0c0.1,0.1,0.2,0.3,0.4,0.3c0,0.1,0.1,0.2,0.1,0.4
						C120,204.2,120,204.8,119.9,205.3z M119.6,203.2c-0.1-0.1-0.2-0.2-0.2-0.3h0h0c0,0,0,0,0-0.1c0,0,0,0,0,0c0.1,0,0.1,0,0.1,0
						s0,0-0.1-0.1c0,0,0,0-0.1,0c0,0,0,0-0.1-0.1c-0.1-0.1-0.2-0.3-0.2-0.5c0-0.1,0-0.1,0.1-0.2
						C119.3,202.5,119.5,202.9,119.6,203.2z M119.4,199.7c-0.1,0.2-0.2,0.4-0.3,0.6l-0.1-0.3l-0.1-0.3c0.2-0.6,0.5-1.3,0.9-1.9
						c0,0,0,0,0,0c0,0,0,0,0,0c0,0.2-0.1,0.4-0.1,0.7C119.7,199,119.5,199.4,119.4,199.7z"/>
					<g>
						<path class="st34" d="M123.9,181.2c-4.7,0-6.2,3.9-6.5,6.2c-0.3,2.3,0.4,3.2,0.5,4.4c-0.1,4,2.5,5.1,3.3,5.6
							c0.8,0.6,1.3,0.6,1.9,0.3c0.6-0.3,4.2-1.7,4.6-2.8c0.5-1.3,3.4-3.6,3.5-7.3C131.3,183.5,128.6,181.2,123.9,181.2z"/>
						<path class="st105" d="M126.7,180c-4.5-1.1-8.3,2.7-8.7,5c5.2-4,10.7,1.8,10,5.7c0.2,1.2,0.7,3.1,0.3,3.9
							c1-2.3,2.8-3.7,3.3-6.3C132.4,184.5,130.5,181,126.7,180z"/>
						<path class="st34" d="M127.6,191.2c0,0,1-1.7,1.6-0.6c0.6,1.1,0.4,2.4,0,3.1c-0.4,0.7-1.6-0.2-1.6-0.2V191.2z"/>
					</g>
					<path class="st105" d="M130.9,190.3c-0.1-0.1-0.2-0.2-0.3-0.3C130.7,190.1,130.8,190.2,130.9,190.3c0.1,0.1,0.2,0.2,0.2,0.4
						c0,0.1-0.1,0.3-0.2,0.3c-0.1,0-0.2,0-0.3,0c0-0.2-0.1-0.4-0.1-0.6c0-0.1,0-0.3,0-0.3c0-0.1,0-0.1,0-0.1s0,0,0,0.1
						c0,0.1,0,0.2,0,0.3c0,0.2,0.1,0.3,0.1,0.6c0,0,0,0,0,0l0,0c0,0,0,0-0.1,0c0-0.1,0-0.1,0-0.2c0-0.2,0-0.4,0-0.4s0,0.1,0,0.4
						c0,0,0,0.1,0,0.1c-0.1,0-0.2-0.1-0.2-0.1c-0.1-0.4-0.3-0.9-0.5-1.4c0-0.1,0-0.1,0-0.2c0-0.1,0-0.3,0-0.4c0-0.2,0-0.4,0-0.7
						c0.2-0.8,0.1-2,0-2.4c0-0.1,0-0.1,0-0.2c0,0,0,0,0,0c0-0.5-0.2-1-0.2-1.2c0-0.3-0.1-0.4-0.1-0.4l-0.3,0
						c-1.2-1.9-3.6-2.9-5.8-2.9c-0.3,0-0.6,0-1,0.1l0,0c0,0,0,0-0.1,0.1c-0.7,0.2-1.5,0.5-2,0.9l-0.1,0c0,0-0.1,0.2-0.4,0.5
						c-0.1,0.2-0.2,0.4-0.4,0.6c-0.1,0.1-0.2,0.3-0.2,0.4l0,0c0,0-0.1,0.1-0.3,0.2c-0.1,0.1-0.2,0.1-0.3,0.2c0,0-0.1,0.1-0.2,0.2
						c0,0.1-0.1,0.1-0.1,0.2c-0.4,0.5-0.7,1.3-0.8,2.2c-0.1,0.5-0.1,0.9-0.1,1.4c0,0.2,0,0.4,0,0.4s0-0.1,0-0.2c0,0.1,0,0.3,0,0.4
						c-0.1,0.4-0.2,0.9-0.2,1.2c0,0.2,0,0.4,0,0.5c0,0.1,0,0.2,0,0.2s0-0.1,0-0.2c0-0.1,0-0.3,0.1-0.5c0-0.1,0-0.2,0.1-0.4
						c0,0.1,0,0.2,0,0.2c-0.1,0.6-0.1,1.2-0.1,1.7c0,0.8,0.1,1.6,0.2,2.3c0.1,0.3,0.1,0.6,0.2,0.9c0.1,0.3,0.1,0.5,0.2,0.7
						c0.1,0.4,0.2,0.6,0.2,0.6s-0.1-0.2-0.2-0.6c-0.1-0.2-0.1-0.4-0.2-0.7c-0.1-0.3-0.1-0.6-0.2-0.9c-0.1-0.7-0.2-1.4-0.2-2.3
						c0-0.8,0.1-1.7,0.2-2.6c0,0,0,0,0-0.1c0,0.1,0,0.2,0,0.3c0,0.3-0.1,0.5-0.1,0.5s0.1-0.2,0.2-0.5c0.1-0.2,0.2-0.5,0.3-0.8
						c0,0,0,0.1,0,0.1c0,0.4,0,0.7,0,0.7s0-0.3,0.1-0.7c0-0.3,0.1-0.6,0.2-1c-0.1,0.3-0.1,0.5-0.1,0.5s0.1-0.2,0.1-0.4
						c0,0.2,0,0.4,0,0.5c0,0,0,0,0,0c-0.1,0.3-0.3,0.5-0.3,0.5s0.1-0.2,0.3-0.4c0,0.4,0,0.6,0,0.6s0-0.3,0.1-0.7c0,0,0,0,0,0
						c0,0.2,0,0.3,0,0.3s0-0.1,0-0.2c0-0.1,0-0.1,0-0.2c0.1-0.1,0.1-0.2,0.2-0.3c0,0,0,0.1,0,0.1c0,0.2,0,0.3,0,0.4l-0.1,0.3
						l0.1-0.2c0,0.1,0,0.2,0,0.2s0-0.1,0-0.2c0,0,0,0,0,0l0.1-0.1c0,0.1,0,0.2,0,0.2c0,0,0,0,0,0c0,0.1-0.1,0.2-0.1,0.2s0,0,0-0.1
						c0,0.2,0,0.3,0,0.3s0.1-0.2,0.1-0.4c0,0,0-0.1,0-0.2c0,0,0,0,0,0c0,0.1,0,0.1,0,0.1s0-0.1,0-0.1c0,0,0-0.1,0.1-0.1
						c0,0.1,0,0.1,0,0.1s0-0.1,0-0.2c0-0.1,0.1-0.2,0.2-0.3c0,0.2,0,0.4,0,0.4s0-0.1,0-0.3c0,0,0-0.1,0-0.1l0,0.5c0,0,0,0.1-0.1,0.1
						c-0.1,0.2-0.1,0.3-0.1,0.5c0,0.1,0,0.2,0,0.2s0-0.1,0.1-0.2c0.1-0.1,0.1-0.3,0.2-0.4l0,0.3l0-0.2l0.1-0.4
						c0-0.1,0.1-0.1,0.1-0.2c0,0,0,0,0,0c0,0.1,0,0.1-0.1,0.2c-0.1,0.4-0.2,0.7-0.2,0.7s0.1-0.3,0.3-0.7c0,0,0,0,0,0
						c0,0.1,0,0.1,0,0.1s0,0,0-0.1c0,0,0,0,0,0c0,0,0,0,0,0c0-0.1,0.1-0.1,0.1-0.2c0,0,0-0.1,0-0.1c0,0.1,0.1,0.1,0.1,0.1
						c0,0.1,0,0.1,0,0.2l-0.2,0.6l0.1-0.2c0,0,0,0,0,0s0,0,0,0l0.2-0.4c0,0,0,0,0,0c0,0,0,0.1,0,0.1c-0.2,0.6-0.4,1.2-0.4,1.2
						s0.3-0.6,0.6-1.2c0,0.2,0,0.3,0,0.3s0-0.2,0.1-0.4c0,0,0-0.1,0-0.1c0,0,0,0,0,0c0,0,0,0,0-0.1c0,0,0,0.1,0,0.1
						c0,0.1-0.1,0.2-0.1,0.2s0-0.1,0.1-0.2c0,0,0,0,0,0c0,0,0,0,0,0c0,0,0,0,0,0c-0.1,0.2-0.1,0.4-0.1,0.5c0,0.1,0,0.2,0,0.2
						s0-0.1,0-0.2c0-0.1,0-0.2,0.1-0.3c0,0.1,0,0.2,0,0.2c0,0,0,0.1,0,0.1c-0.1,0.2-0.1,0.3-0.1,0.3s0.1-0.1,0.1-0.2
						c0,0,0,0.1,0,0.1s0,0,0-0.1c0,0,0-0.1,0.1-0.1c0,0,0,0.1,0,0.1c0,0.1-0.1,0.2-0.1,0.2c-0.1,0.1-0.1,0.2-0.1,0.2s0-0.1,0.1-0.1
						c0,0,0,0,0,0c0,0,0,0,0,0s0,0,0-0.1c0,0,0,0,0,0c0,0.1,0,0.1,0,0.1s0,0,0.1-0.1c0,0,0,0.1,0,0.1c0,0.1,0,0.2,0,0.2s0-0.1,0-0.2
						c0-0.1,0-0.1,0-0.2c0-0.1,0.1-0.1,0.1-0.2c0.1-0.1,0.1-0.3,0.2-0.5c0,0.1,0,0.2-0.1,0.2c-0.1,0.3-0.1,0.5-0.1,0.5
						s0.1-0.2,0.2-0.5c0-0.1,0.1-0.2,0.1-0.2c0,0,0,0,0,0c-0.1,0.5-0.2,0.8-0.2,0.8s0.1-0.2,0.2-0.5c0,0.2,0,0.4,0,0.4
						s0-0.2,0.1-0.6c0,0,0,0,0,0c0,0.4,0,0.6,0,0.6s0-0.2,0.1-0.6c0-0.1,0-0.2,0.1-0.3c0-0.1,0.1-0.1,0.1-0.2
						c-0.1,0.4-0.1,0.7-0.1,0.7s0.1-0.2,0.2-0.5L121,189l0.4-1.4l0,0.5l-0.2,0.6l0.2-0.4l0,0.3c0,0.1,0,0.1,0,0.1c0,0.1,0,0.2,0,0.2
						s0-0.1,0.1-0.2c0,0,0,0,0,0l0,0.5l0-0.5c0,0.1,0,0.2,0,0.2c0,0.1,0,0.2,0,0.2s0-0.1,0-0.2c0-0.1,0-0.3,0-0.5c0,0,0-0.1,0-0.1
						c0,0,0-0.1,0-0.1c0,0.1,0,0.2,0,0.2s0-0.1,0-0.2c0,0.1,0,0.2,0,0.3c0,0.1,0,0.1,0,0.1s0,0,0-0.1c0,0,0-0.1,0-0.1
						c0,0.1,0,0.2,0,0.3c0,0.1,0,0.2,0,0.2s0-0.1,0-0.2c0-0.1,0-0.3,0-0.5c0,0,0-0.1,0-0.1c0-0.1,0.1-0.1,0.1-0.2c0,0.1,0,0.2,0,0.2
						s0-0.1,0-0.2c0.1-0.1,0.1-0.2,0.2-0.3c0,0,0,0.1,0,0.1c-0.1,0.3-0.1,0.7-0.2,0.9c0,0.1,0,0.1,0,0.2c0,0.1,0,0.2,0,0.2
						s0,0,0-0.1c0,0.1,0,0.2,0,0.2c0,0.1,0,0.2,0,0.2s0-0.1,0-0.2c0-0.1,0-0.2,0.1-0.4c0-0.1,0.1-0.2,0.2-0.3c0,0.1,0,0.2,0,0.3
						c0,0.1,0,0.2,0,0.2s0-0.1,0-0.2c0-0.1,0-0.2,0-0.4c0,0,0-0.1,0-0.1c0,0,0,0,0,0c0,0,0,0,0,0s0,0,0,0c-0.1,0.5-0.1,0.8-0.1,0.8
						s0.1-0.4,0.3-1c0,0,0,0.1,0,0.1c0,0.1-0.1,0.2-0.1,0.2s0-0.1,0.1-0.1c0,0.1,0,0.1,0,0.2c0,0.2,0,0.3,0,0.4
						c-0.2,0.6-0.4,1.1-0.4,1.1s0.2-0.5,0.5-1.1c0,0.1,0,0.1,0,0.1s0-0.1,0-0.2c0,0,0,0,0-0.1c0,0.1,0,0.1,0,0.1
						c-0.1,0.3-0.2,0.6-0.2,0.6s0.1-0.2,0.2-0.4c0,0,0,0,0,0s0,0,0,0c0.1-0.1,0.1-0.2,0.2-0.4c0,0.1,0,0.2,0,0.3c0,0.1,0,0.2,0,0.3
						c0,0,0,0,0,0c0,0-0.1,0.1-0.1,0.1s0,0,0.1-0.1c-0.1,0.3-0.2,0.5-0.2,0.5s0.1-0.2,0.2-0.4c0,0,0,0.1,0,0.1s0,0,0-0.1
						c0-0.1,0.1-0.1,0.1-0.2c0,0,0.1-0.1,0.2-0.1c0,0,0,0,0,0c-0.1,0.2-0.1,0.3-0.1,0.3s0.1-0.2,0.2-0.4c0.1-0.1,0.1-0.1,0.2-0.2
						c-0.1,0.3-0.2,0.6-0.3,0.8c-0.1,0.2-0.2,0.3-0.2,0.4c-0.1,0.1-0.1,0.1-0.1,0.1s0,0,0.1-0.1c0.1-0.1,0.2-0.2,0.3-0.3
						c0.1-0.2,0.2-0.4,0.3-0.6l-0.1,0.2l0.2-0.3c0,0,0,0.1,0,0.1c0,0.2-0.1,0.3-0.1,0.4c0,0.1-0.1,0.2-0.1,0.2s0-0.1,0.1-0.2
						c0-0.1,0.1-0.2,0.2-0.4c0.1-0.2,0.1-0.4,0.2-0.6l0.1-0.1v0c0,0.2-0.1,0.3-0.1,0.4c-0.1,0.1-0.1,0.2-0.1,0.2s0-0.1,0.1-0.2
						c0,0,0.1-0.1,0.1-0.2v0.1l0-0.2c0-0.1,0.1-0.2,0.1-0.3c0,0.1,0,0.2,0,0.3c-0.1,0.4-0.2,0.8-0.2,0.8s0.1-0.2,0.2-0.4
						c-0.1,0.5-0.1,0.9-0.1,0.9s0.1-0.5,0.3-1.2c0,0.1,0,0.1,0,0.2c0,0.4-0.1,0.7-0.1,0.7s0-0.1,0.1-0.3c0,0.1,0,0.2,0,0.2
						c0,0,0,0,0,0c-0.1,0.1-0.1,0.1-0.1,0.1s0,0,0.1-0.1c0,0.1,0,0.2,0,0.2s0-0.1,0-0.3c0.1-0.1,0.1-0.2,0.2-0.3c0,0.2,0,0.3,0,0.3
						s0.1-0.2,0.2-0.6c0-0.1,0.1-0.1,0.1-0.2c-0.1,0.5-0.1,0.9-0.1,0.9s0.2-0.5,0.3-1c0,0,0,0,0,0l0,0.4c-0.1,0.5-0.1,1-0.1,1
						s0-0.1,0.1-0.3c0,0.1,0,0.2,0,0.2s0.1-0.2,0.1-0.4c0-0.1,0.1-0.2,0.1-0.3c0,0,0,0,0,0c0-0.1,0.1-0.2,0.1-0.4
						c0,0.4-0.1,0.8-0.2,1.1c-0.1,0.2-0.2,0.4-0.2,0.5c-0.1,0.1-0.1,0.2-0.1,0.2s0-0.1,0.1-0.2c0.1-0.1,0.2-0.2,0.3-0.5
						c0.1-0.3,0.3-0.6,0.4-1c0,0.1,0,0.2,0,0.3c0,0.1,0,0.2,0,0.3c0,0,0,0.1,0,0.1c0,0,0,0.1,0,0.1c0,0,0,0,0,0
						c-0.3,0.4-0.4,0.6-0.4,0.6s0.2-0.2,0.4-0.5c0,0.1-0.1,0.2-0.1,0.2s0.1-0.1,0.1-0.3c0,0,0,0,0,0c-0.1,0.3-0.1,0.6-0.1,0.6
						s0.1-0.2,0.2-0.5c0,0,0,0.1,0,0.1c0,0.1,0,0.1,0,0.1s0,0,0-0.1c0-0.1,0-0.1,0-0.2c0,0,0-0.1,0-0.1c0.1-0.1,0.2-0.2,0.3-0.3
						c-0.1,0.6-0.1,1.1-0.1,1.1s0.1-0.5,0.3-1l-0.1,1c0,0,0-0.1,0-0.1c0,0,0,0,0,0.1c0,0,0,0.1,0.1,0.1h0l0,0l0.4-1.5c0,0,0,0,0,0
						c0,0.4-0.1,0.7-0.1,1c0,0.4,0,0.6,0,0.6s0.1-0.2,0.1-0.6c0-0.2,0.1-0.4,0.1-0.6l-0.2,1.1l0.2-0.8c0,0.1,0,0.3,0,0.4
						c0,0,0,0.1,0,0.1c-0.1,0.1-0.1,0.2-0.1,0.2s0-0.1,0.1-0.2c0,0.3,0,0.5,0,0.5s0-0.1,0.1-0.3c0,0.1,0,0.2,0,0.3
						c0,0.1-0.1,0.1-0.1,0.1s0,0,0.1-0.1c0,0,0,0.1,0,0.1c0,0.3,0,0.4,0,0.4s0-0.2,0.1-0.4c0-0.1,0-0.2,0.1-0.3
						c0.1-0.1,0.1-0.2,0.2-0.3c0.1-0.1,0.1-0.3,0.2-0.4c0,0.1,0,0.2,0,0.2c-0.1,0.3-0.2,0.6-0.2,0.6s0.1-0.3,0.3-0.6
						c0,0.2,0,0.3-0.1,0.5c-0.1,0.5-0.2,0.8-0.2,0.8s0.2-0.3,0.3-0.8c0-0.1,0.1-0.2,0.1-0.3c0,0,0,0,0,0c0,0.1,0,0.1,0,0.1
						s0,0,0-0.1c0,0,0,0,0,0c0,0.2,0,0.4-0.1,0.6c0,0.2-0.1,0.3-0.1,0.4c0,0.1,0,0.1,0,0.1s0-0.1,0.1-0.1c0-0.1,0.1-0.2,0.1-0.4
						c0,0,0-0.1,0-0.1c0,0,0,0,0,0.1c0,0.1,0,0.1,0,0.2c0,0,0,0,0,0c-0.2,0.4-0.3,0.6-0.3,0.6s0.1-0.2,0.2-0.4c0,0.1,0,0.2,0,0.3
						c0,0.2,0,0.4,0,0.5c0,0,0,0.1,0,0.1c0,0.1,0,0.1-0.1,0.2c-0.1,0.4-0.2,0.7-0.2,0.7s0.1-0.2,0.3-0.6c0.1-0.2,0.3-0.6,0.4-0.9
						c0,0.1,0,0.1,0,0.2c0,0.7,0,1.5,0.2,2.2c0.1,0.2,0.1,0.4,0.2,0.6c0,0,0,0.1-0.1,0.1c-0.1,0.3-0.2,0.6-0.3,0.9
						c-0.2,0.6-0.3,1.2-0.3,1.8c0,0.6,0,1.1-0.1,1.6c-0.1,0.5-0.3,1-0.5,1.3c-0.5,0.8-1.1,1.3-1.7,1.4c-0.1,0-0.3,0-0.4,0
						c-0.1,0-0.2,0-0.2-0.1c-0.1-0.1-0.2-0.1-0.2-0.1s0.1,0,0.2,0.1c0.1,0,0.1,0.1,0.2,0.1c0.1,0,0.2,0,0.4,0
						c0.6-0.1,1.2-0.6,1.7-1.3c0.3-0.4,0.5-0.8,0.6-1.4c0.1-0.5,0.1-1.1,0.1-1.7c0-0.6,0.1-1.2,0.3-1.7c0.1-0.2,0.2-0.5,0.3-0.7
						c0,0,0,0,0,0c0,0,0,0,0,0c0,0,0,0.1,0,0.1c0,0.1,0,0.1,0,0.2c-0.1,0.2-0.2,0.3-0.2,0.3s0.1-0.1,0.2-0.3c0,0.1,0,0.3-0.1,0.4
						c0,0.2-0.1,0.3-0.1,0.5c-0.1,0.3-0.1,0.4-0.1,0.4s0-0.1,0.1-0.4c0,0,0,0,0-0.1c-0.1,0.4-0.2,0.8-0.2,1.2
						c-0.1,0.6-0.1,1-0.1,1.3c0,0.3,0,0.5,0,0.5s0-0.2,0-0.5c0-0.3,0.1-0.8,0.2-1.3c0.1-0.6,0.3-1.3,0.4-2c0,0.1,0.1,0.2,0.1,0.4
						c-0.2,0.8-0.5,1.6-0.6,2.5c0.1-0.8,0.4-1.6,0.7-2.3c0,0.2,0.1,0.4,0.1,0.6c-0.1,0.4-0.1,0.9-0.3,1.3c-0.1,0.4-0.3,0.7-0.4,1.1
						c-0.1,0.3-0.2,0.7-0.2,1c-0.1,0.6-0.1,1.2,0,1.5c0,0.2,0.1,0.3,0.1,0.4c0,0.1,0,0.1,0,0.1s0-0.1,0-0.2c0-0.1-0.1-0.2-0.1-0.4
						c0-0.4,0-0.9,0.1-1.5c0.1-0.3,0.2-0.6,0.3-1c0.2-0.3,0.3-0.7,0.5-1c0.3-0.7,0.5-1.6,0.5-2.5c0-0.6-0.1-1.1-0.1-1.6
						c0-0.1,0-0.1,0-0.2c0-0.1,0.1-0.1,0.1-0.2c0,0.1,0,0.2,0,0.4c0,0.9,0.1,1.9,0,2.7c0,0.2-0.1,0.4-0.1,0.6c0,0.2,0,0.4-0.1,0.6
						c-0.1,0.4-0.2,0.7-0.3,1.1c-0.2,0.7-0.3,1.3-0.3,1.7c0.1,0.4,0.3,0.6,0.3,0.6c0,0-0.2-0.1-0.3-0.6c-0.1-0.4,0.1-1,0.3-1.6
						c0.1-0.3,0.3-0.7,0.4-1.1c0.1-0.2,0.1-0.4,0.1-0.6c0-0.2,0.1-0.4,0.1-0.6c0.1-0.9,0.1-1.8,0.1-2.7c0,0,0-0.1,0-0.1
						c0,0,0.1,0.1,0.1,0.1c0.1,0,0.1,0,0.2,0c0.1,0.3,0.1,0.5,0,0.7c-0.1,0.2-0.3,0.3-0.3,0.3c0,0,0.2,0,0.3-0.3
						c0.1-0.2,0.1-0.4,0-0.7c0.1,0,0.1,0,0.2-0.1c0.1-0.1,0.1-0.2,0.2-0.3c0-0.1,0-0.2,0-0.2c0,0,0.1,0,0.2,0c0,0,0.1,0,0.1,0
						c0,0,0,0.1,0,0.1c0,0.1-0.1,0.2-0.1,0.3c0,0.1,0,0.1,0,0.1s0,0,0.1-0.1c0-0.1,0.1-0.1,0.1-0.3c0,0,0-0.1,0-0.1c0,0,0,0,0,0
						c0,0,0.1,0,0.1,0c0,0,0,0,0,0c0.1,0,0.1,0,0.1,0s0,0-0.1,0c0,0,0,0,0,0c0,0,0.1-0.1,0.1-0.1c0-0.1,0.1-0.1,0.1-0.2
						c0.1-0.1,0.1-0.3,0.1-0.4c0-0.2,0-0.4,0-0.5c0.1,0,0.2,0,0.3,0c0.2-0.1,0.2-0.2,0.2-0.4C131.1,190.5,131,190.4,130.9,190.3z
						 M118.7,187.3C118.7,187.3,118.6,187.3,118.7,187.3C118.6,187.3,118.7,187.3,118.7,187.3L118.7,187.3z M119.5,187.2l0-0.2
						c0,0,0,0,0,0L119.5,187.2C119.5,187.2,119.5,187.2,119.5,187.2z M120.8,187C120.8,187,120.8,187,120.8,187
						c0,0.2-0.1,0.4-0.1,0.5c0,0,0,0,0,0c0,0.1-0.1,0.2-0.1,0.2c0-0.1,0.1-0.3,0.1-0.5C120.8,187.2,120.8,187.1,120.8,187z
						 M121.7,186.9c0,0.2,0,0.3,0,0.5l0,0.1l0-0.4C121.7,187.1,121.7,187,121.7,186.9L121.7,186.9z M120.5,187.4
						C120.5,187.4,120.5,187.4,120.5,187.4c0,0.1,0,0.1,0,0.2C120.5,187.5,120.5,187.4,120.5,187.4
						C120.5,187.4,120.5,187.4,120.5,187.4z M120.5,187.7c0,0,0,0.1,0,0.1C120.5,187.8,120.5,187.8,120.5,187.7
						C120.5,187.8,120.5,187.7,120.5,187.7z M123.3,187.7C123.3,187.7,123.3,187.7,123.3,187.7C123.3,187.7,123.3,187.8,123.3,187.7
						C123.3,187.8,123.3,187.7,123.3,187.7z M123.3,187.6c0,0,0-0.1,0-0.1c0.1-0.1,0.1-0.3,0.2-0.4c0,0,0,0.1,0,0.1c0,0,0,0,0,0
						C123.4,187.4,123.4,187.5,123.3,187.6C123.3,187.7,123.3,187.7,123.3,187.6z M124.5,187.8c0-0.1,0-0.2,0-0.3c0,0,0,0,0,0
						c0,0.2,0,0.4,0,0.5c-0.1,0.2-0.1,0.3-0.1,0.4C124.5,188.2,124.5,188,124.5,187.8z M125.7,188.7c0.1-0.1,0.1-0.2,0.2-0.3
						c0,0,0,0.1,0,0.1c0,0,0,0,0,0C125.8,188.6,125.8,188.7,125.7,188.7C125.7,188.8,125.7,188.7,125.7,188.7z M127,188.4
						c0,0.1,0,0.1,0,0.2l0-0.1C127,188.5,127,188.4,127,188.4z M128.4,189.9C128.4,190,128.4,190,128.4,189.9c0,0.1,0,0.1,0,0.1
						c0,0.1,0,0.1,0,0.2c0-0.1,0-0.1,0-0.2C128.3,190,128.4,190,128.4,189.9z M118.8,187.1L118.8,187.1c0-0.1,0-0.1,0-0.1
						C118.8,187,118.8,187,118.8,187.1C118.8,187,118.8,187.1,118.8,187.1z M118.9,187.5c0,0,0-0.1,0-0.1
						C118.9,187.4,118.9,187.4,118.9,187.5L118.9,187.5C118.9,187.5,118.9,187.5,118.9,187.5z M119.8,187.5c0-0.1,0.1-0.1,0.1-0.2
						c0,0,0,0,0,0.1c0,0.1,0,0.2,0,0.3C119.9,187.6,119.9,187.5,119.8,187.5z M120,187.8L120,187.8C120,187.8,120,187.8,120,187.8
						C120,187.8,120,187.8,120,187.8z M120.1,187.6l0.1-0.2C120.2,187.4,120.2,187.5,120.1,187.6c0,0,0,0.1,0,0.1
						C120.1,187.7,120.1,187.6,120.1,187.6z M120.4,187.5C120.4,187.4,120.4,187.4,120.4,187.5C120.5,187.5,120.4,187.5,120.4,187.5
						C120.4,187.5,120.4,187.6,120.4,187.5C120.4,187.5,120.4,187.5,120.4,187.5z M120.4,187.6C120.5,187.6,120.5,187.6,120.4,187.6
						C120.5,187.6,120.5,187.6,120.4,187.6C120.5,187.6,120.5,187.6,120.4,187.6C120.5,187.6,120.5,187.6,120.4,187.6
						C120.5,187.6,120.5,187.6,120.4,187.6z M120.5,188.2C120.5,188.2,120.5,188.2,120.5,188.2c0-0.1,0-0.3,0-0.4c0,0,0,0,0,0
						c0,0,0,0,0,0c0,0,0,0.1,0,0.1c0,0,0,0.1,0,0.1C120.5,188.1,120.5,188.2,120.5,188.2z M122.5,188.1c0-0.1,0.1-0.3,0.1-0.4
						c0-0.1,0.1-0.2,0.1-0.3l0,0c0,0,0,0,0,0.1c0,0,0,0,0,0c0,0,0,0.1-0.1,0.1c0,0.1-0.1,0.1-0.1,0.1s0,0,0.1-0.1c0,0,0,0,0,0
						c0,0.1-0.1,0.3-0.1,0.4c-0.1,0.2-0.1,0.3-0.2,0.5C122.5,188.3,122.5,188.2,122.5,188.1z M122.7,188.4c0,0,0-0.1,0-0.1
						c0,0,0-0.1,0-0.1c0-0.1,0.1-0.1,0.1-0.2l0,0.1l0-0.1c0-0.1,0-0.1,0.1-0.2c0,0,0-0.1,0.1-0.1c0,0,0,0.1,0,0.1
						C122.8,188.1,122.7,188.2,122.7,188.4z M122.9,188.6c0-0.2,0.1-0.3,0.1-0.5c0,0,0,0,0,0c0,0.2,0,0.3,0,0.3s0-0.1,0.1-0.3
						c0,0.1,0,0.1,0,0.1s0-0.1,0-0.2c0,0,0,0,0-0.1c0,0,0,0,0,0c0,0,0,0,0,0c0,0.2-0.1,0.4-0.1,0.5c0,0,0,0,0,0.1
						c0,0.1-0.1,0.2-0.1,0.3C122.9,188.7,122.9,188.7,122.9,188.6z M123.1,188.6C123.1,188.7,123.1,188.7,123.1,188.6
						c0.1-0.1,0.1-0.3,0.2-0.5l0,0c0,0.1-0.1,0.2-0.1,0.3C123.2,188.5,123.1,188.6,123.1,188.6z M124.3,188.9
						C124.3,188.8,124.3,188.8,124.3,188.9c0-0.1,0-0.1,0-0.1c0-0.1,0.1-0.2,0.2-0.4c0,0,0,0.1,0,0.1c0,0,0,0.1-0.1,0.1
						C124.4,188.7,124.3,188.8,124.3,188.9z M125.2,188.4C125.2,188.4,125.3,188.3,125.2,188.4c0,0,0,0.1,0,0.2
						C125.2,188.5,125.2,188.5,125.2,188.4z M126.3,188.3L126.3,188.3C126.3,188.2,126.3,188.3,126.3,188.3
						C126.3,188.3,126.3,188.3,126.3,188.3z M126.8,189.5c0,0.1,0,0.1-0.1,0.1c0-0.1,0.1-0.3,0.1-0.4c0.1-0.2,0.1-0.4,0.1-0.5l0,0.1
						C126.9,189,126.9,189.3,126.8,189.5z M127.2,188.9C127.2,188.9,127.2,188.9,127.2,188.9c0,0,0-0.1,0-0.1c0,0,0,0,0,0
						C127.2,188.8,127.2,188.8,127.2,188.9C127.2,188.8,127.2,188.8,127.2,188.9z M127.2,191.6C127.2,191.6,127.2,191.5,127.2,191.6
						c0-0.2,0.1-0.4,0.1-0.6c0.1-0.2,0.1-0.5,0.2-0.8c0,0,0.1-0.1,0.1-0.2c0,0,0,0.1,0,0.1c0,0.1,0,0.1-0.1,0.2
						C127.4,190.8,127.3,191.2,127.2,191.6z M128.3,193.2c-0.1,0.1-0.1,0.3-0.2,0.4c0-0.1-0.1-0.3-0.1-0.4c-0.2-0.7-0.2-1.4-0.1-2.1
						c0-0.2,0-0.4,0.1-0.6c0,0.1,0,0.2,0,0.2s0-0.1,0.1-0.2c0,0,0-0.1,0-0.1c0,0.1,0,0.3,0,0.4c0,0.1,0,0.2,0,0.2s0,0,0-0.1
						c0,0.3,0,0.6,0.1,0.8c0.1,0.7,0.1,1.2,0.1,1.2s0-0.5,0-1.2c0-0.3,0-0.7,0-1.2c0-0.1,0-0.1,0-0.2c0,0.1,0.1,0.2,0.1,0.2
						c0,0.5-0.1,0.9,0,1.5c0,0.3,0,0.5,0.1,0.8C128.3,193,128.3,193.1,128.3,193.2z M128.4,194.3c0-0.1,0.1-0.2,0.1-0.3
						c0,0,0-0.1,0-0.1c0,0.2,0,0.3,0.1,0.5c0,0.1,0,0.2-0.1,0.3C128.4,194.6,128.4,194.4,128.4,194.3z M128.5,195c0,0,0-0.1,0-0.1
						c0-0.1,0-0.1,0.1-0.2c0,0.2,0,0.4,0,0.6C128.6,195.2,128.5,195.1,128.5,195z M129.6,189.8c0.2,0.4,0.3,0.7,0.4,1
						c-0.2-0.1-0.3-0.3-0.4-0.4C129.6,190.2,129.6,190,129.6,189.8z M129.3,191.6c0,0,0.1,0.1,0.1,0.1c0,0.1,0.1,0.1,0.2,0.2
						c0,0.1,0.1,0.1,0.2,0.2c0,0,0,0,0,0c0,0-0.1,0-0.1,0c-0.1,0-0.2-0.1-0.3-0.2c0-0.1,0-0.1-0.1-0.2
						C129.3,191.8,129.3,191.7,129.3,191.6z M129.3,192.8c-0.1,0-0.1-0.1-0.2-0.2c0-0.2,0-0.3,0-0.5c0,0,0-0.1,0-0.1c0,0,0,0,0,0
						c0.1,0.2,0.1,0.4,0.2,0.6c0,0.1,0,0.1,0,0.2C129.4,192.8,129.4,192.8,129.3,192.8z M129.8,192.5c0,0.1-0.1,0.2-0.2,0.3
						c0,0-0.1,0.1-0.1,0.1c0-0.1,0-0.1,0-0.2c0-0.2-0.1-0.3-0.1-0.5c0.1,0.1,0.2,0.1,0.3,0.1c0.1,0,0.1,0,0.2,0c0,0,0,0,0,0
						C129.8,192.3,129.8,192.4,129.8,192.5z M129.8,192C129.8,192,129.8,192,129.8,192c-0.1-0.1-0.2-0.2-0.3-0.4
						c0-0.1-0.1-0.2-0.1-0.2c0,0,0-0.1,0-0.1c0,0,0,0,0,0c0,0.1,0.1,0.2,0.1,0.2C129.6,191.8,129.7,191.9,129.8,192
						C129.8,192,129.8,192,129.8,192z M129.9,192.1C129.9,192.1,129.9,192.1,129.9,192.1C129.9,192.1,129.9,192.1,129.9,192.1
						C129.9,192.1,129.9,192.1,129.9,192.1z M130.2,192.2C130.2,192.2,130.1,192.2,130.2,192.2c-0.1,0-0.1,0-0.1,0c0,0,0,0,0,0
						c0.1,0,0.1-0.1,0.2-0.2c0,0,0-0.1,0-0.1C130.2,192,130.2,192.1,130.2,192.2z M130.1,192c0,0.1-0.1,0.1-0.2,0.2
						c0,0-0.1-0.1-0.1-0.1c0,0,0,0,0,0c0-0.1,0-0.3,0-0.3c0-0.1,0-0.1,0-0.1c0,0,0,0,0,0.1c0,0.1,0,0.2,0,0.3c0,0,0,0,0,0
						c-0.1-0.1-0.2-0.3-0.3-0.4c-0.1-0.1-0.1-0.2-0.2-0.3c0-0.2,0.1-0.4,0.1-0.6c0,0,0,0,0-0.1c0.2,0.2,0.3,0.3,0.5,0.4
						c0,0.1,0.1,0.3,0.1,0.4c0,0.2,0,0.3,0,0.4C130.2,191.9,130.2,191.9,130.1,192z M130.2,192.2c0-0.1,0-0.3,0-0.4
						c0-0.1,0-0.1,0-0.2c0-0.3,0-0.4,0-0.4s0,0.1,0,0.4c0,0,0,0.1,0,0.1c0-0.1,0-0.2,0-0.2c0-0.1,0-0.3-0.1-0.4
						c0.1,0,0.1,0.1,0.2,0.1c0,0.2,0,0.5,0,0.7C130.4,191.9,130.3,192.1,130.2,192.2z M130.5,191.6c0,0.1-0.1,0.2-0.1,0.4
						c0,0,0,0,0,0c0-0.1,0-0.1,0-0.2c0-0.3,0-0.5,0-0.7c0,0,0,0,0.1,0c0,0,0,0,0,0c0,0,0,0,0.1,0
						C130.5,191.2,130.5,191.4,130.5,191.6z"/>
					<path class="st106" d="M132,187.4c0,0,0.1-0.1,0.1-0.1c0,0,0,0,0,0c0-0.1,0.1-0.1,0.1-0.2l0.5-1.6c0,0.1,0,0.1-0.1,0.2
						c0,0,0,0,0,0c0,0-0.1,0.1-0.1,0.1c0,0,0,0,0,0c0,0.1-0.1,0.1-0.2,0.1c0,0,0,0,0,0c-0.1,0-0.1,0.1-0.2,0.1c0,0,0,0-0.1,0
						c-0.1,0-0.2,0.1-0.2,0.1c0,0,0,0-0.1,0c-0.1,0-0.2,0.1-0.2,0.1c0,0,0,0-0.1,0c-0.1,0-0.2,0.1-0.3,0.1c-0.1,0-0.2,0-0.3,0.1
						c-0.1,0-0.1,0-0.2,0c-0.2,0-0.3,0-0.5,0.1c-0.1,0-0.1,0-0.2,0c-0.1,0-0.3,0-0.4,0c0,0-0.1,0-0.1,0c-0.2,0-0.4,0-0.5,0
						c0,0-0.1,0-0.1,0c-0.2,0-0.3,0-0.5,0c0,0-0.1,0-0.1,0c-0.2,0-0.4,0-0.6,0c0,0-0.1,0-0.1,0c-0.2,0-0.3,0-0.5,0
						c-0.1,0-0.2,0-0.2,0c-0.1,0-0.3,0-0.4-0.1c-0.1,0-0.2,0-0.3,0c-0.1,0-0.2,0-0.3-0.1c-0.2,0-0.3-0.1-0.5-0.1
						c-0.1,0-0.2,0-0.3-0.1c-0.2,0-0.4-0.1-0.6-0.1c-0.1,0-0.1,0-0.2,0c-0.3-0.1-0.5-0.1-0.8-0.2c-0.1,0-0.1,0-0.2-0.1
						c-0.2-0.1-0.4-0.1-0.6-0.2c-0.1,0-0.2-0.1-0.3-0.1c-0.2-0.1-0.3-0.1-0.5-0.2c-0.1,0-0.2-0.1-0.2-0.1c-0.2-0.1-0.3-0.1-0.5-0.2
						c-0.1,0-0.1-0.1-0.2-0.1c-0.1,0-0.1-0.1-0.2-0.1c-0.1-0.1-0.3-0.1-0.4-0.2c-0.1-0.1-0.2-0.1-0.3-0.2c0,0,0,0,0,0
						c-0.1-0.1-0.2-0.1-0.3-0.2c0,0-0.1,0-0.1-0.1c-0.1,0-0.1-0.1-0.2-0.1c0,0-0.1,0-0.1-0.1c-0.1,0-0.1-0.1-0.2-0.1
						c0,0-0.1,0-0.1-0.1c-0.1,0-0.1-0.1-0.2-0.1c0,0,0,0,0,0c-0.1-0.1-0.1-0.1-0.2-0.2c0,0,0,0-0.1-0.1c0,0-0.1-0.1-0.1-0.1
						c0,0,0,0,0-0.1c0,0-0.1-0.1-0.1-0.1c0,0,0,0,0,0c0-0.1-0.1-0.1-0.1-0.2c0,0,0,0,0,0c0-0.1,0-0.1-0.1-0.2c0,0,0,0,0,0
						c0,0,0,0,0-0.1c0,0,0,0,0-0.1c0,0,0-0.1,0-0.1c0,0,0-0.1,0-0.1l-0.5,1.6c0,0,0,0.1,0,0.1c0,0,0,0,0,0c0,0,0,0.1,0,0.1
						c0,0,0,0,0,0.1c0,0,0,0.1,0,0.1c0,0,0,0,0,0c0,0,0,0,0,0c0,0.1,0,0.1,0.1,0.2c0,0,0,0,0,0c0,0,0,0,0,0c0,0.1,0.1,0.1,0.1,0.2
						c0,0,0,0,0,0c0,0,0,0,0,0c0,0,0.1,0.1,0.1,0.1c0,0,0,0,0,0c0,0,0,0,0,0c0,0,0.1,0.1,0.1,0.1c0,0,0,0,0,0c0,0,0,0,0,0
						c0.1,0.1,0.1,0.1,0.2,0.2c0,0,0,0,0,0c0,0,0,0,0,0c0.1,0.1,0.1,0.1,0.2,0.2c0,0,0,0,0,0c0,0,0,0,0.1,0c0.1,0,0.1,0.1,0.2,0.1
						c0,0,0,0,0,0c0,0,0,0,0.1,0c0.1,0,0.1,0.1,0.2,0.1c0,0,0,0,0.1,0c0,0,0,0,0,0c0.1,0.1,0.2,0.1,0.3,0.2c0,0,0,0,0,0c0,0,0,0,0,0
						c0.1,0.1,0.2,0.1,0.3,0.2c0,0,0.1,0,0.1,0.1c0.1,0,0.2,0.1,0.3,0.1c0.1,0,0.1,0.1,0.2,0.1c0,0,0,0,0,0c0.1,0,0.1,0,0.2,0.1
						c0.1,0.1,0.3,0.1,0.4,0.2c0,0,0.1,0,0.1,0c0.1,0,0.1,0,0.2,0.1c0.2,0.1,0.3,0.1,0.5,0.2c0.1,0,0.2,0.1,0.3,0.1
						c0.2,0.1,0.4,0.1,0.6,0.2c0.1,0,0.1,0,0.2,0.1c0.3,0.1,0.5,0.1,0.8,0.2c0.1,0,0.1,0,0.2,0c0.2,0.1,0.4,0.1,0.6,0.1
						c0,0,0.1,0,0.1,0c0.1,0,0.1,0,0.2,0c0.2,0,0.3,0.1,0.5,0.1c0.1,0,0.1,0,0.2,0c0.1,0,0.1,0,0.2,0c0.1,0,0.2,0,0.3,0
						c0.1,0,0.1,0,0.2,0c0.1,0,0.1,0,0.2,0c0.1,0,0.2,0,0.2,0c0,0,0.1,0,0.1,0c0.1,0,0.3,0,0.4,0c0,0,0.1,0,0.1,0c0,0,0,0,0,0
						c0.2,0,0.3,0,0.5,0c0,0,0.1,0,0.1,0c0,0,0.1,0,0.1,0c0.1,0,0.1,0,0.2,0c0.1,0,0.2,0,0.2,0c0,0,0.1,0,0.1,0c0,0,0,0,0.1,0
						c0.1,0,0.3,0,0.4,0c0,0,0,0,0.1,0c0,0,0.1,0,0.1,0c0.1,0,0.2,0,0.2,0c0.1,0,0.1,0,0.2,0c0.1,0,0.1,0,0.1,0c0,0,0.1,0,0.1,0
						c0.1,0,0.3,0,0.4-0.1c0,0,0,0,0,0c0.1,0,0.1,0,0.2,0c0.1,0,0.2,0,0.3-0.1c0,0,0,0,0,0c0.1,0,0.2-0.1,0.3-0.1c0,0,0,0,0.1,0
						c0,0,0.1,0,0.1,0c0,0,0.1,0,0.1-0.1c0,0,0,0,0.1,0c0.1,0,0.2-0.1,0.3-0.1c0,0,0,0,0,0c0.1,0,0.1-0.1,0.2-0.1c0,0,0,0,0,0
						C131.9,187.6,132,187.5,132,187.4C132,187.4,132,187.4,132,187.4z"/>
					<path class="st104" d="M130.5,181.6c2.9,1.7,3,3.7,0.2,4.4c-2.8,0.8-7.4,0-10.3-1.7c-2.9-1.7-3-3.7-0.2-4.4
						C122.9,179.2,127.5,179.9,130.5,181.6z"/>
					<path class="st104" d="M130.4,180.5c-3.3-2.4-6.2-3.3-10-1.4c-2.2,1.1-6.7,4.4-4.4,7.6c1,1.4,2.2,0.4,3.5-0.1
						c1.5-0.6,2.8-0.7,4.4-0.5c2,1.3,6.5,3.2,8.2,2.3C135.5,186.9,132.2,181.8,130.4,180.5z"/>
				</g>
				<g>
					<g>
						<polygon class="st107" points="111.1,240.4 99.4,233.5 102.7,213.8 114.4,220.7 						"/>
					</g>
					<g>
						<polygon class="st108" points="112.3,227.3 100.7,220.6 102.7,213.8 114.4,220.7 						"/>
					</g>
					<g>
						<polygon class="st109" points="113.2,227.3 111.1,240.4 114.4,237.1 114.4,220.7 						"/>
						<polygon class="st110" points="117.8,236.5 115.8,225.9 114.4,220.7 114.4,237.1 114.5,237 						"/>
					</g>
					<g>
						<path class="st111" d="M107.9,223.2c0.4,0.2,0.5,0.8,0.4,1.2l-0.2,0.6c-0.2,0.5-0.6,0.7-1,0.5l-2.6-1.5
							c-0.4-0.2-0.5-0.8-0.4-1.2l0.2-0.6c0.2-0.5,0.6-0.7,1-0.5L107.9,223.2z"/>
					</g>
					<g>
						<polygon class="st80" points="109.8,230.4 109.9,230.1 108.9,229.5 108.8,229.4 108.6,229.3 107.9,231.9 108.1,232 
							108.2,232.1 109.2,232.6 109.3,232.3 108.3,231.7 108.5,231 109.4,231.5 109.5,231.1 108.6,230.6 108.8,229.8 						"/>
						<path class="st80" d="M105.7,234c-0.1,0.2-0.1,0.3-0.2,0.4c-0.1,0.1-0.2,0.1-0.4,0c-0.1-0.1-0.2-0.2-0.3-0.4
							c0-0.2,0-0.3,0-0.5l0.5-1.8l-0.3-0.2l-0.5,1.8c-0.1,0.2-0.1,0.4-0.1,0.6c0,0.2,0.1,0.4,0.2,0.5c0.1,0.1,0.2,0.3,0.4,0.4
							c0.2,0.1,0.3,0.1,0.4,0.1c0.1,0,0.3-0.1,0.4-0.2c0.1-0.1,0.2-0.3,0.2-0.5l0.5-1.8l-0.3-0.2L105.7,234z"/>
						<polygon class="st80" points="106.6,232.9 107.2,233.3 106.6,235.7 106.9,235.9 107.5,233.5 108.1,233.8 108.2,233.4 
							106.7,232.6 						"/>
						<path class="st80" d="M104.1,231.2c-0.1-0.2-0.2-0.3-0.4-0.4c-0.2-0.1-0.3-0.1-0.4-0.1c-0.1,0-0.3,0.1-0.4,0.2
							c-0.1,0.1-0.2,0.3-0.2,0.5l-0.2,0.8c-0.1,0.2-0.1,0.4,0,0.6c0,0.2,0.1,0.4,0.2,0.5c0.1,0.2,0.2,0.3,0.4,0.4
							c0.1,0.1,0.3,0.1,0.4,0.1c0.1,0,0.3-0.1,0.4-0.2c0.1-0.1,0.2-0.3,0.2-0.5l0.2-0.8c0.1-0.2,0.1-0.4,0-0.6
							C104.3,231.5,104.2,231.3,104.1,231.2z M104,232.1l-0.2,0.8c0,0.1-0.1,0.2-0.1,0.3c-0.1,0.1-0.1,0.1-0.2,0.1
							c-0.1,0-0.2,0-0.3-0.1c-0.1-0.1-0.2-0.1-0.2-0.2c-0.1-0.1-0.1-0.2-0.1-0.3c0-0.1,0-0.2,0-0.4l0.2-0.8c0-0.1,0.1-0.2,0.1-0.3
							c0.1-0.1,0.1-0.1,0.2-0.1c0.1,0,0.2,0,0.3,0.1c0.1,0.1,0.2,0.1,0.2,0.2c0.1,0.1,0.1,0.2,0.1,0.3C104,231.9,104,232,104,232.1z
							"/>
						<path class="st80" d="M105.5,229.9l0,0.7l0.3,0.2l-0.1-3l-0.2-0.1l-1.4,2.1l0.3,0.2l0.3-0.5L105.5,229.9z M105.5,228.1l0,1.3
							l-0.6-0.4L105.5,228.1z"/>
						<polygon class="st80" points="103.5,229.3 104.1,227.1 104.7,227.5 104.8,227.1 103.3,226.3 103.3,226.6 103.8,227 
							103.2,229.2 						"/>
						<polygon class="st80" points="106.6,230.3 107.1,230 107.3,231.5 107.7,231.7 107.4,229.8 108.3,229.1 107.9,228.9 
							106.7,229.8 107.1,228.5 106.8,228.3 106.1,230.9 106.4,231 						"/>
					</g>
				</g>
				<g>
					<path class="st34" d="M117.9,220.2c-0.1,0-0.1-0.1-0.2-0.1c-0.1,0-0.1,0-0.2,0c-0.2,0-0.3,0-0.5,0c-0.1-0.1-0.3-0.2-0.5-0.2
						c-0.4,0.1-0.7,0.1-1.1,0.2c-0.9,0.1-1.7,0.2-2.8,0.9c-0.3,0.2-0.3,0.5-0.2,0.7c0,0,0,0,0,0c-0.1,0.1-0.3,0.1-0.4,0.2
						c-0.2,0.1-0.5,0.2-0.7,0.3c-0.3,0.1-0.4,0.4-0.3,0.7c-0.2,0.1-0.3,0.1-0.5,0.2c-0.3,0.1-0.4,0.5-0.2,0.7
						c0.1,0.2,0.4,0.3,0.6,0.3c0.1,0,0.1,0,0.2-0.1c0.1,0,0.2-0.1,0.3-0.1c0,0,0,0.1,0,0.1c0.1,0.3,0.3,0.4,0.6,0.4c0,0,0,0,0.1,0
						c0.1,0,0.3-0.1,0.4-0.1c0,0,0,0,0,0c0.1,0.3,0.3,0.4,0.6,0.4c0,0,0,0,0,0c0.2-0.1,0.5-0.1,0.8-0.2c1.4-0.3,2.5-0.6,3.1-1
						c0.9,0,1.7-0.3,2-1.5C119.5,220.9,118.8,220.4,117.9,220.2z"/>
					<path class="st15" d="M130,200.7c-1.8,3.1-1.2,11.3-1.1,14.2c0.1,2.9,1.2,5.1,3.5,3.1c2.3-2.1,1.7-13.5,2.1-15.6
						C134.8,200.4,131.8,197.6,130,200.7z"/>
					<g>
						<path class="st15" d="M129.8,213.8c-8.2,2.5-8.7,5.2-12.1,5.8c-2.3,0-0.7,3.1,0.8,3.8c2.6,0.4,10.2-3.3,12.4-4.5
							C135.8,216.6,131.1,213.1,129.8,213.8z"/>
					</g>
				</g>
				<path class="st34" d="M107.9,215.6c-0.1-0.1-0.2-0.1-0.4-0.2c0,0-0.1,0-0.1,0c-0.1-0.1-0.2-0.2-0.4-0.2c-0.1,0-0.1-0.1-0.2-0.1
					c0-0.1-0.1-0.3-0.2-0.4c-0.6-0.6-1.2-0.6-1.5-0.5c-0.1,0.1-0.2,0.1-0.3,0.2c-0.5,0.2-1,0.6-1.3,1c-0.4,0.6-0.6,1.4-0.3,2.1
					c0.1,0.2,0.3,0.4,0.5,0.4c0.1,0,0.1,0,0.2,0c0,0,0,0,0,0c0,0.1,0,0.1,0,0.2c0,0.3,0.2,0.5,0.4,0.5c0,0.2,0,0.4,0,0.6
					c0,0.3,0.2,0.5,0.5,0.6c0,0,0,0,0,0c0.3,0,0.5-0.2,0.5-0.4c0.1,0,0.1,0.1,0.2,0.1c0.1,0,0.1,0,0.2,0c0.2,0,0.4-0.2,0.5-0.4
					l0.1-0.3c0.5-1.6,0.9-2.3,0.9-2.3l1.4,0.8C109.2,216.8,108.2,215.8,107.9,215.6z M105.5,217.6c0-0.1,0.1-0.3,0.1-0.4
					c0,0.1,0,0.1,0,0.2C105.5,217.4,105.5,217.5,105.5,217.6z"/>
			</g>
		</g>
	</g>
	<rect class="st6" width="532.5" height="300.7"/>
</g>
</svg>
