<?xml version="1.0" encoding="utf-8"?>
<!-- Generator: Adobe Illustrator 28.0.0, SVG Export Plug-In . SVG Version: 6.00 Build 0)  -->
<svg version="1.1" id="レイヤー_1" xmlns="http://www.w3.org/2000/svg" xmlns:xlink="http://www.w3.org/1999/xlink" x="0px"
	 y="0px" viewBox="0 0 180 190" style="enable-background:new 0 0 180 190;" xml:space="preserve">
<style type="text/css">
	.st0{fill:#DDB395;}
	.st1{fill:#8CC63F;}
	.st2{fill:#39B54A;}
	.st3{fill:#8C6239;}
	.st4{fill:#C69C6D;}
	.st5{fill:#CCCCCC;}
	.st6{fill:#59C2E1;}
	.st7{opacity:5.000000e-02;}
	.st8{fill:#9BDAED;}
	.st9{fill:#9CDBED;}
	.st10{fill:#FFFFFF;}
	.st11{fill:#F29600;}
	.st12{fill:#796A56;}
	.st13{fill:#F2F2F2;}
	.st14{fill:#E6E6E6;}
	.st15{fill:none;}
</style>
<path class="st0" d="M30.6,133.5"/>
<path class="st1" d="M32.5,173.6c0,0-3-6-8.8-9c0,0,2,4.3,2,6.3c0,0-4.8-4.5-13.6-4.5c0,0,5.5,1,10.5,7.6c0,0-8-1.7-16.3,0.2
	c0,0,12.5,1,15.6,10.8h121.2c0,0,3.7-2.3,17-4c0,0-7.8-2-13.1-2.2c0,0,4.7-5.2,9.3-5.8c0,0-7.8-0.2-10.3,1.2l2.3-5.8l-5.5,3.2
	c0,0,1.2-6.3,4.7-9.3c0,0-9.9,2.2-17.2,12.6"/>
<path class="st2" d="M147.1,179.5c-0.1,0-0.2,0-0.3-0.1c-0.2-0.1-0.3-0.4-0.2-0.7c1.2-2,4.3-3.9,6.4-5l-6.3,0.5
	c-0.3,0-0.5-0.2-0.5-0.5c0-0.3,0.2-0.5,0.5-0.5l9-0.7c0.3,0,0.5,0.1,0.5,0.4c0.1,0.2-0.1,0.5-0.3,0.6c-0.1,0-6.7,2.9-8.4,5.8
	C147.4,179.4,147.3,179.5,147.1,179.5z"/>
<path class="st2" d="M143.6,185.6c-0.1,0-0.2,0-0.3-0.1c-0.2-0.2-0.2-0.5-0.1-0.7c1-1.2,10.5-2.8,15.7-3.7c-4.4-1.1-11-1.8-11.1-1.8
	c-0.3,0-0.5-0.3-0.5-0.5c0-0.3,0.3-0.5,0.5-0.5c0.4,0,9.3,0.9,13.4,2.5c0.2,0.1,0.3,0.3,0.3,0.5c0,0.2-0.2,0.4-0.4,0.4
	c-7.9,1.2-16.5,2.9-17.2,3.7C143.8,185.5,143.7,185.6,143.6,185.6z"/>
<path class="st0" d="M140.2,133.5"/>
<g>
	<path class="st3" d="M140.2,133.5H30.6c0,0,0.1,4.8,4,10.4c0,0,6.9,8.9,7.2,15s-3.3,11.6-9.8,15.9c-6.5,4.3,20.4,5,42.8,5.5
		c22.4,0.6,61.8,0.3,61.8,0.3l0.4-5.8c0,0-10.5-3-9.2-10.5c1.3-7.5-0.7-10.6,3.3-16.5C135.2,142,139.9,140.4,140.2,133.5z"/>
	<path class="st3" d="M128.1,150.9l19.9-10.2c0,0-5.7,10.6-12.2,14.8c-6.5,4.1-9.5,6.4-9.5,6.4L128.1,150.9z"/>
</g>
<ellipse class="st0" cx="85.4" cy="133.5" rx="54.8" ry="14.3"/>
<path class="st4" d="M82.8,139.9c-0.3,0-0.5-0.2-0.5-0.5c0-0.3,0.2-0.5,0.5-0.5c0.3,0,27.3-0.3,38-2.9c4.8-1.2,5.4-2.4,5.5-2.8
	c0.1-0.9-1.6-1.9-2.2-2.2c-0.3-0.1-0.4-0.4-0.3-0.7c0.1-0.3,0.4-0.4,0.7-0.3c0.3,0.1,3,1.4,2.8,3.2c-0.1,1.5-2.2,2.7-6.2,3.7
	C110.3,139.6,83.1,139.9,82.8,139.9C82.8,139.9,82.8,139.9,82.8,139.9z"/>
<path class="st4" d="M85.7,139.9C85.7,139.9,85.7,139.9,85.7,139.9c-0.3,0-27.5-0.3-38.3-2.9c-4.1-1-6.1-2.2-6.2-3.7
	c-0.2-1.8,2.5-3.1,2.8-3.2c0.3-0.1,0.5,0,0.7,0.3c0.1,0.3,0,0.5-0.3,0.7c-0.6,0.3-2.3,1.3-2.2,2.2c0,0.5,0.7,1.7,5.5,2.8
	c10.7,2.6,37.7,2.9,38,2.9c0.3,0,0.5,0.2,0.5,0.5C86.2,139.7,85.9,139.9,85.7,139.9z"/>
<path class="st4" d="M104.8,167.6c-0.2,0-0.4-0.1-0.4-0.3c-5.2-10.4,1.6-17.6,1.6-17.6c0.2-0.2,0.5-0.2,0.7,0c0.2,0.2,0.2,0.5,0,0.7
	c-0.3,0.3-6.3,6.8-1.5,16.5c0.1,0.2,0,0.5-0.2,0.7C104.9,167.6,104.8,167.6,104.8,167.6z"/>
<path class="st4" d="M77.9,177.1c-0.1,0-0.2,0-0.3-0.1c-6.1-5.9-3.3-15.1-3.2-15.1c0.1-0.3,0.4-0.4,0.6-0.3c0.3,0.1,0.4,0.4,0.3,0.6
	c0,0.1-2.7,8.6,3,14.1c0.2,0.2,0.2,0.5,0,0.7C78.2,177.1,78.1,177.1,77.9,177.1z"/>
<path class="st4" d="M62.6,177.3c-0.1,0-0.3-0.1-0.4-0.2c-0.2-0.2-0.2-0.5,0-0.7c5.7-5,4-16.7,4-16.8c0-0.3,0.1-0.5,0.4-0.6
	c0.3,0,0.5,0.1,0.6,0.4c0.1,0.5,1.9,12.3-4.3,17.7C62.8,177.2,62.7,177.3,62.6,177.3z"/>
<path class="st4" d="M46.7,178.5c-0.1,0-0.3,0-0.4-0.1c-0.2-0.2-0.2-0.5,0-0.7c7.7-7.7,5.6-16.3,5.6-16.4c-0.1-0.3,0.1-0.5,0.4-0.6
	c0.3-0.1,0.5,0.1,0.6,0.4c0,0.1,2.2,9.3-5.9,17.3C46.9,178.4,46.8,178.5,46.7,178.5z"/>
<path class="st4" d="M127.7,160.9c-0.2,0-0.3-0.1-0.4-0.2c-0.1-0.2-0.1-0.5,0.2-0.7c0.1,0,1.7-1.1,7.2-4.1
	c4.7-2.5,10.3-10.7,12.2-14c-9.9,5.9-19.2,9.6-19.3,9.6c-0.3,0.1-0.5,0-0.6-0.3c-0.1-0.3,0-0.5,0.3-0.6c0.1,0,10.3-4,20.5-10.4
	c0.1-0.1,0.3-0.1,0.4,0c0.2,0.1,0.3,0.3,0.3,0.5c0.1,1-7.5,12.9-13.4,16.1c-5.4,2.9-7.1,4-7.1,4
	C127.9,160.9,127.8,160.9,127.7,160.9z"/>
<path class="st4" d="M85.2,148.1c-22.1,0-47.8-3.1-53.6-11.7c-1.1-1.6-1.3-3.3-0.7-4.9c2.3-5.9,14.7-7.3,15.3-7.4
	c0.3,0,0.5,0.2,0.6,0.4c0,0.3-0.2,0.5-0.4,0.6c-0.1,0-12.3,1.5-14.4,6.8c-0.5,1.3-0.3,2.7,0.6,4c3.7,5.5,19.5,11.3,52.8,11.3
	c41.3,0,53.7-8.6,54.5-13.7c0.5-3.2-6.7-6.7-9.5-7.8c-0.3-0.1-0.4-0.4-0.3-0.6c0.1-0.3,0.4-0.4,0.6-0.3c0.4,0.2,10.8,4.1,10.1,8.8
	C140.5,135,137,148.1,85.2,148.1z"/>
<path class="st5" d="M27.7,85.6c-2.2,0-4.1-1.8-4.1-4.1s1.8-4.1,4.1-4.1s4.1,1.8,4.1,4.1S29.9,85.6,27.7,85.6z M27.7,78.4
	c-1.7,0-3.1,1.4-3.1,3.1s1.4,3.1,3.1,3.1c1.7,0,3.1-1.4,3.1-3.1S29.4,78.4,27.7,78.4z"/>
<path class="st5" d="M10.1,66.3c-0.8,0-1.7-0.2-2.5-0.7c-3.6-2.2-4.8-5.3-3.3-8.8c1.8-4.2,6.5-3.2,6.5-3.2c0.3,0.1,0.4,0.3,0.4,0.6
	c-0.1,0.3-0.3,0.4-0.6,0.4c-0.2,0-3.9-0.8-5.4,2.6c-1.6,3.9,0.7,6.3,2.9,7.6c2.4,1.4,5.8-0.6,5.9-0.6c0.2-0.1,0.5-0.1,0.7,0.2
	c0.1,0.2,0.1,0.5-0.2,0.7C14.3,65,12.3,66.3,10.1,66.3z"/>
<path class="st5" d="M23.5,70.6c-0.3,0-0.6,0-0.9-0.1c-1.7-0.2-3-0.9-3.7-2c-1.2-1.8-0.6-4-0.6-4.1c0.1-0.3,0.3-0.4,0.6-0.4
	c0.3,0.1,0.4,0.3,0.4,0.6c0,0-0.5,1.9,0.5,3.3c0.6,0.9,1.6,1.4,3,1.6c2.7,0.3,4-1.2,4.4-2.1c0.7-1.4,0.6-2.9,0-3.5l-1.4-2
	c-0.1-0.1-0.1-0.3-0.1-0.5s0.2-0.3,0.4-0.3c1.9-0.3,3.2-1.6,3.8-3.4c0.7-2.4,0.1-5.2-1.6-6.8c-2.9-2.9-6.6-0.4-6.7-0.3
	c-0.2,0.2-0.5,0.1-0.7-0.1c-0.2-0.2-0.1-0.5,0.1-0.7c0,0,4.5-3.1,8,0.4c1.9,1.9,2.7,5.1,1.8,7.8c-0.6,2-2,3.4-3.8,4l1,1.4
	c0.9,1,1,3,0.1,4.6C27.2,69.6,25.6,70.6,23.5,70.6z"/>
<path class="st5" d="M8.2,34.6c-1.5,0-3.1-0.5-4.6-2.6c-1.8-2.6-0.3-5.2,0.8-6.2c0.2-0.2,0.5-0.2,0.7,0c0.2,0.2,0.2,0.5,0,0.7
	C5,26.7,2.7,29,4.4,31.5c1.8,2.5,3.7,2.3,6.3,1.7c0.3-0.1,0.5,0.1,0.6,0.4c0.1,0.3-0.1,0.5-0.4,0.6C10.1,34.4,9.1,34.6,8.2,34.6z"/>
<path class="st5" d="M15.6,32.2c-0.2,0-0.4-0.1-0.5-0.3c-0.1-0.3,0-0.5,0.3-0.7c0.1,0,2.8-1.3,1.2-5.4c-1.5-4.1-4.5-3.2-4.7-3.2
	c-0.3,0.1-0.5-0.1-0.6-0.3c-0.1-0.3,0.1-0.5,0.3-0.6c0,0,4-1.3,5.9,3.8c1.9,5-1.7,6.7-1.8,6.7C15.7,32.2,15.7,32.2,15.6,32.2z"/>
<path class="st1" d="M66,178.3"/>
<path class="st2" d="M32.4,174.5c-0.2,0-0.4-0.1-0.5-0.3c0-0.1-2.4-5.4-7.2-8.2c0.4,1.1,1,2.6,1,4.2c0,0.3-0.2,0.5-0.5,0.5
	s-0.5-0.2-0.5-0.5c0-2.5-1.5-5-1.5-5.1c-0.1-0.2-0.1-0.4,0.1-0.6c0.1-0.2,0.4-0.2,0.6-0.1c6.1,2.7,8.9,9.1,9,9.4
	c0.1,0.3,0,0.5-0.3,0.7C32.5,174.5,32.4,174.5,32.4,174.5z"/>
<path class="st2" d="M22.3,174.2c-0.1,0-0.3-0.1-0.4-0.2c-3.2-4.1-10-7.4-10-7.4c-0.2-0.1-0.3-0.3-0.3-0.6c0.1-0.2,0.3-0.4,0.5-0.4
	c9.6,0.7,14.7,5.3,14.9,5.5c0.2,0.2,0.2,0.5,0,0.7c-0.2,0.2-0.5,0.2-0.7,0c0,0-4.2-3.7-11.8-4.9c2.3,1.4,5.9,3.7,8.1,6.4
	c0.2,0.2,0.1,0.5-0.1,0.7C22.5,174.2,22.4,174.2,22.3,174.2z"/>
<path class="st2" d="M21.9,185.2c-0.2,0-0.4-0.1-0.5-0.3c-3.7-9.3-14.8-10.2-14.9-10.2c-0.3,0-0.4-0.2-0.5-0.5s0.2-0.5,0.4-0.5
	c9.5-1.8,18.1,0.4,18.2,0.5c0.3,0.1,0.4,0.3,0.4,0.6c-0.1,0.3-0.3,0.4-0.6,0.4c-0.1,0-6.7-1.7-14.8-0.9c3.8,1,10.1,3.6,12.7,10.3
	c0.1,0.3,0,0.5-0.3,0.6C22,185.2,21.9,185.2,21.9,185.2z"/>
<path class="st4" d="M117.4,175.3c-0.1,0-0.2,0-0.3-0.1c-9.9-8.6-5.5-18.7-5.4-18.8c0.1-0.2,0.4-0.4,0.7-0.2
	c0.3,0.1,0.4,0.4,0.2,0.7c-0.2,0.4-4.2,9.5,5.2,17.6c0.2,0.2,0.2,0.5,0.1,0.7C117.7,175.3,117.5,175.3,117.4,175.3z"/>
<path class="st1" d="M146.2,177.1c-0.7-4.2,2-8.6,2-8.6c-2.4,1.3-6,3.5-6,3.5c1.1-3.8,5.3-9.8,5.3-9.8
	c-12.9,3.5-19.1,15.3-19.1,15.3l-3.1,5.6l15.9-1L146.2,177.1z"/>
<path class="st1" d="M130.2,176.6c0,0-10.5,3.8-45.4,3.8s48.2,3.5,48.2,3.5L130.2,176.6z"/>
<path class="st2" d="M128.5,178c-0.1,0-0.2,0-0.2-0.1c-0.2-0.1-0.3-0.4-0.2-0.7c0.1-0.1,6.5-12,19.4-15.5c0.2-0.1,0.4,0,0.5,0.2
	c0.1,0.2,0.1,0.4,0,0.6c0,0.1-3.3,4.7-4.8,8.3c1.3-0.8,3.3-2,4.8-2.8c0.2-0.1,0.4-0.1,0.6,0.1s0.2,0.4,0.1,0.6c0,0-2.6,4.3-1.9,8.3
	c0,0.3-0.1,0.5-0.4,0.6c-0.3,0-0.5-0.1-0.6-0.4c-0.5-2.9,0.5-5.8,1.3-7.5c-2.2,1.2-4.5,2.7-4.5,2.7c-0.2,0.1-0.4,0.1-0.6,0
	c-0.2-0.1-0.2-0.3-0.2-0.5c0.8-2.8,3.3-6.8,4.6-8.7c-11.6,3.9-17.4,14.5-17.4,14.6C128.8,177.9,128.7,178,128.5,178z"/>
<g>
	<path class="st6" d="M128.7,117.5c0,0,13.5,3.6,15.7-5.6c2.2-9.2-5.6-12.7-13.9-11.6S128.7,117.5,128.7,117.5z"/>
	<path class="st7" d="M128.7,117.5c0,0,13.5,3.6,15.7-5.6c2.2-9.2-5.6-12.7-13.9-11.6S128.7,117.5,128.7,117.5z"/>
</g>
<path class="st6" d="M73.5,76.8c0,0-10.9,3.4-20.2,3.6s-14.8,2.4-13.7,14s17.2,8.8,26.4,6c9.2-2.8,12-2.4,12-2.4s-25.5,9.4-32.8,20
	s-9.5,26.2-9.5,29.6s1.1,5.6,5.4,6.2c4.3,0.6,8,0.4,12.2-0.4s3.6-7.1,3.9-9.5c0.4-2.4,2.1-14,11.2-20.4c0,0-5.8,10.9-4.7,27.3
	c0,0,0.2,5.1,3.2,6s8.4,1.1,12.9,0s3.2-3.7,3.7-6.4c0.6-2.6,2.2-8.6,4.1-10.7c0,0,17.2,0.7,32.4-7.5c15.2-8.2,13.3-25.6,12.9-30.9
	c-0.4-5.2-5.6-22.1-16.3-29.6C106.1,64.3,73.5,76.8,73.5,76.8z"/>
<path class="st8" d="M39.9,92.4c-0.2,0-0.4-0.1-0.4-0.3c-0.1-0.2,0-0.5,0.2-0.7c0.1,0,1.7-0.8,4-1.2c0.3,0,0.5,0.2,0.6,0.4
	c0,0.3-0.2,0.5-0.4,0.6c-2.2,0.3-3.7,1.1-3.7,1.1C40,92.4,40,92.4,39.9,92.4z"/>
<path class="st8" d="M41.3,98.7c-0.3,0-0.5-0.2-0.5-0.5s0.2-0.5,0.5-0.5c1.9,0,2.9-1.1,2.9-1.2c0.2-0.2,0.5-0.2,0.7-0.1
	c0.2,0.2,0.2,0.5,0.1,0.7C45,97.2,43.8,98.7,41.3,98.7z"/>
<path class="st7" d="M117.9,72.7c-0.4-0.3-0.8-0.6-1.2-0.9c-10.7-7.5-43.2,5.1-43.2,5.1s-1.3,0.4-3.3,0.9l-0.5,12c0,0,2,0.3,5.1,0.5
	c-0.8,3,0.1,6.1,7.9,4.7c9.7-1.7,15.3-7,17.9-10.1C107.7,81.1,114.3,75.9,117.9,72.7z"/>
<g>
	<path class="st6" d="M137.5,17.8c0-7.5-6.1-13.5-13.5-13.5c-6.5,0-11.9,4.6-13.2,10.7c-7.4-2.8-15.9-4.5-24.9-4.5
		c-1.4,0-2.8,0.1-4.2,0.1c-7.2,0.3-14.8,1.7-22.8,4.4c-1.6-5.2-6.5-9-12.3-9c-7.1,0-12.9,5.8-12.9,12.9c0,4.6,2.4,8.6,6,10.8
		c-1,1.7-1.9,3.5-2.5,5.1c-2.6,6.7-2.3,12.2-2.3,12.2s-0.1,2.4,0.8,5.8c1.7,6.8,7,17.7,23.4,23.4c2.6,0.9,5.2,1.6,7.7,2.2
		c5.9,1.6,12.3,2.6,19.1,2.6c12.2,0,23.4-3,32.2-7.9c1.5-0.8,3-1.7,4.3-2.7c9.1-6.4,14.7-15.1,14.7-24.7c0-6-2.2-11.6-6-16.5
		C135,26.9,137.5,22.7,137.5,17.8z"/>
	<path class="st9" d="M128.2,12.5c-5.8-4.4-9.3,0.8-9.3,0.8l-2.7,4.4c0.5,0.3,1,0.6,1.5,0.8c3.2,1.9,6.4,4,9.2,6.6l2.3-2.8
		C129.1,22.3,134,16.8,128.2,12.5z"/>
	<path class="st9" d="M42.3,13.6c-3.2,2.5-3.2,5-2.2,7.1c0.6,1.3,1.9,3.1,2.9,4.4c2.6-2.9,6-5.7,10.4-7.9c-0.7-1-1.6-2.2-2.7-3.3
		C48.3,11.3,45.4,11.1,42.3,13.6z"/>
	<path class="st10" d="M74.5,32.5c0,0-0.5,8.4-4.1,12.7s-6.8,9.6-6.8,15.6s3.2,7.5,5.8,7.5c2.6,0,4.3-0.7,4.9-3
		c0.6-2.2,2.3-3.1,3.5-0.7s2.1,5.3,7.1,5.2s7.6-5.3,6.6-11.1c-1-5.8-2.1-7.5-6.9-12.7c-4.8-5.2-6.1-9.7-6.4-13.4
		C77.9,28.7,74.7,28.6,74.5,32.5z"/>
	<path class="st11" d="M79,48.1c0,0-6.6-0.4-8.4,0.3c-1.8,0.7-2,1.4-0.2,4.4s3.9,6.7,5.6,6c1.7-0.7,4.6-5.5,5.6-6.9
		C82.6,50.5,83.2,48,79,48.1z"/>
	<path class="st12" d="M93.9,41.1c0,0-2.8,0.2-4.3-0.4c-1.5-0.6-2.1-0.1-1.9,0.5c0.2,0.6,1.5,1.5,6,1.7c4.5,0.2,6.7-1.8,6.7-1.8
		s0.7-2.2-2.1-1.1C95.4,41.2,93.9,41.1,93.9,41.1z"/>
	<path class="st12" d="M67.2,41.4c-1.3,1.2-4.4,1.2-7,0.2c-2.7-1-2.1-1.7-1.9-2c0.2-0.3,1.1,0.2,2.9,0.6c0,0,2.8,0.6,4.8,0
		C65.9,40.3,69.5,39.5,67.2,41.4z"/>
</g>
<g>
	<path class="st13" d="M53.2,72.9l-1,28.7c0,0,9.7,7.6,26.7,2.3l3.5-28.4C82.3,75.5,69.7,66.8,53.2,72.9z"/>
	<path class="st13" d="M54.7,79.5c0,0-7.7-1.8-11.2,3.2c-3.5,5-1.5,12,3.4,13.3c4.9,1.3,7,0.8,7,0.8l0.1-6.2c0,0-3.6,1.3-5.8-0.8
		s-0.3-5.6,3-5.5c3.3,0.1,4.3,1,4.3,1L54.7,79.5z"/>
</g>
<path class="st5" d="M82.3,75.5c0,0-12.6-8.7-29.1-2.6c0,0,2,4.6,14.1,5.4C79.4,79.1,82.3,75.5,82.3,75.5z"/>
<path class="st6" d="M100.3,84.7c0,0-6.1,7.6-13.9,9.4c-7.8,1.8-14.5,4.8-10.8,12.9s13,5.4,21.3,2.5c8.3-2.9,14.3-8.4,19.8-17.1"/>
<path class="st8" d="M65.8,131.6c0,0-0.1,0-0.1,0c-0.3-0.1-0.4-0.3-0.4-0.6c2.7-11.7,10.8-15.3,11.1-15.5c0.3-0.1,0.5,0,0.7,0.3
	c0.1,0.3,0,0.5-0.3,0.7c-0.1,0-8,3.6-10.5,14.8C66.3,131.5,66.1,131.6,65.8,131.6z"/>
<path class="st8" d="M84.7,112.9c-3.9,0-7.4-1.4-9.4-5.7c-1.3-2.8-1.5-5.2-0.5-7.2c1.8-3.7,7.1-5.3,11.6-6.3
	c7.5-1.7,13.5-9.2,13.6-9.2c0.2-0.2,0.5-0.2,0.7-0.1c0.2,0.2,0.3,0.5,0.1,0.7c-0.3,0.3-6.3,7.8-14.1,9.6c-4.2,1-9.3,2.5-10.9,5.8
	c-0.9,1.7-0.7,3.8,0.5,6.4c3.5,7.5,11.8,5.4,20.7,2.3c7.8-2.7,13.8-7.9,19.6-16.9c0.1-0.2,0.5-0.3,0.7-0.2c0.2,0.1,0.3,0.5,0.2,0.7
	c-5.9,9.2-12.1,14.5-20.1,17.3C93.5,111.3,88.9,112.9,84.7,112.9z"/>
<path class="st8" d="M78.2,110.1c-0.2,0-0.4,0-0.6,0c-0.3,0-0.5-0.2-0.5-0.5c0-0.3,0.2-0.5,0.5-0.5c5.1,0.2,7.9-2.8,7.9-2.8
	c0.2-0.2,0.5-0.2,0.7,0c0.2,0.2,0.2,0.5,0,0.7C86.3,107,83.5,110.1,78.2,110.1z"/>
<path class="st8" d="M75,105.2c-0.2,0-0.5-0.2-0.5-0.4c0-0.3,0.2-0.5,0.4-0.6c4.1-0.5,7-2.8,7.1-2.8c0.2-0.2,0.5-0.1,0.7,0.1
	s0.1,0.5-0.1,0.7C82.5,102.3,79.5,104.6,75,105.2C75.1,105.2,75.1,105.2,75,105.2z"/>
<g>
	<path class="st14" d="M48.5,149c-0.5-0.1-0.9,0.1-1.2,1.7c-0.3,1.4-0.8,3-1,3.4c0.7,0,1.4,0,2.1-0.1C49,150.8,49,149,48.5,149z"/>
	<path class="st14" d="M40.6,148.6c-0.5,0-0.8,1.7-0.6,5c0.3,0.1,0.7,0.1,1.1,0.2c0.3,0,0.6,0.1,1,0.1c-0.1-0.5-0.4-2-0.5-3.4
		C41.5,148.8,41.1,148.6,40.6,148.6z"/>
	<path class="st14" d="M76.2,152.5c-0.5-0.1-0.9,0.1-1.2,1.7c-0.3,1.4-0.8,2.9-0.9,3.3c0.7,0,1.4-0.1,2.1-0.1
		C76.7,154.2,76.7,152.5,76.2,152.5z"/>
	<path class="st14" d="M68.3,152c-0.5,0-0.7,1.7-0.6,4.9c0.6,0.1,1.3,0.3,2.1,0.4c-0.1-0.5-0.4-2-0.5-3.4
		C69.2,152.2,68.8,152,68.3,152z"/>
</g>
<rect class="st15" width="180" height="190"/>
<path class="st0" d="M-194.7,133.5"/>
<path class="st1" d="M-192.7,173.6c0,0-3-6-8.8-9c0,0,2,4.3,2,6.3c0,0-4.8-4.5-13.6-4.5c0,0,5.5,1,10.5,7.6c0,0-8-1.7-16.3,0.2
	c0,0,12.5,1,15.6,10.8h121.2c0,0,3.7-2.3,17-4c0,0-7.8-2-13.1-2.2c0,0,4.7-5.2,9.3-5.8c0,0-7.8-0.2-10.3,1.2l2.3-5.8l-5.5,3.2
	c0,0,1.2-6.3,4.7-9.3c0,0-9.9,2.2-17.2,12.6"/>
<path class="st2" d="M-78.2,179.5c-0.1,0-0.2,0-0.3-0.1c-0.2-0.1-0.3-0.4-0.2-0.7c1.2-2,4.3-3.9,6.4-5l-6.3,0.5
	c-0.3,0-0.5-0.2-0.5-0.5c0-0.3,0.2-0.5,0.5-0.5l9-0.7c0.3,0,0.5,0.1,0.5,0.4c0.1,0.2-0.1,0.5-0.3,0.6c-0.1,0-6.7,2.9-8.4,5.8
	C-77.8,179.4-78,179.5-78.2,179.5z"/>
<path class="st2" d="M-81.7,185.6c-0.1,0-0.2,0-0.3-0.1c-0.2-0.2-0.2-0.5-0.1-0.7c1-1.2,10.5-2.8,15.7-3.7c-4.4-1.1-11-1.8-11.1-1.8
	c-0.3,0-0.5-0.3-0.5-0.5c0-0.3,0.3-0.5,0.5-0.5c0.4,0,9.3,0.9,13.4,2.5c0.2,0.1,0.3,0.3,0.3,0.5c0,0.2-0.2,0.4-0.4,0.4
	c-7.9,1.2-16.5,2.9-17.2,3.7C-81.4,185.5-81.6,185.6-81.7,185.6z"/>
<path class="st0" d="M-85,133.5"/>
<g>
	<path class="st3" d="M-85,133.5h-109.7c0,0,0.1,4.8,4,10.4c0,0,6.9,8.9,7.2,15s-3.3,11.6-9.8,15.9c-6.5,4.3,20.4,5,42.8,5.5
		c22.4,0.6,61.8,0.3,61.8,0.3l0.4-5.8c0,0-10.5-3-9.2-10.5c1.3-7.5-0.7-10.6,3.3-16.5S-85.3,140.4-85,133.5z"/>
	<path class="st3" d="M-97.1,150.9l19.9-10.2c0,0-5.7,10.6-12.2,14.8c-6.5,4.1-9.5,6.4-9.5,6.4L-97.1,150.9z"/>
</g>
<ellipse class="st0" cx="-139.9" cy="133.5" rx="54.8" ry="14.3"/>
<path class="st4" d="M-142.5,139.9c-0.3,0-0.5-0.2-0.5-0.5c0-0.3,0.2-0.5,0.5-0.5c0.3,0,27.3-0.3,38-2.9c4.8-1.2,5.4-2.4,5.5-2.8
	c0.1-0.9-1.6-1.9-2.2-2.2c-0.3-0.1-0.4-0.4-0.3-0.7c0.1-0.3,0.4-0.4,0.7-0.3c0.3,0.1,3,1.4,2.8,3.2c-0.1,1.5-2.2,2.7-6.2,3.7
	C-115,139.6-142.2,139.9-142.5,139.9C-142.5,139.9-142.5,139.9-142.5,139.9z"/>
<path class="st4" d="M-139.6,139.9C-139.6,139.9-139.6,139.9-139.6,139.9c-0.3,0-27.5-0.3-38.3-2.9c-4.1-1-6.1-2.2-6.2-3.7
	c-0.2-1.8,2.5-3.1,2.8-3.2c0.3-0.1,0.5,0,0.7,0.3c0.1,0.3,0,0.5-0.3,0.7c-0.6,0.3-2.3,1.3-2.2,2.2c0,0.5,0.7,1.7,5.5,2.8
	c10.7,2.6,37.7,2.9,38,2.9c0.3,0,0.5,0.2,0.5,0.5C-139.1,139.7-139.3,139.9-139.6,139.9z"/>
<path class="st4" d="M-120.5,167.6c-0.2,0-0.4-0.1-0.4-0.3c-5.2-10.4,1.6-17.6,1.6-17.6c0.2-0.2,0.5-0.2,0.7,0
	c0.2,0.2,0.2,0.5,0,0.7c-0.3,0.3-6.3,6.8-1.5,16.5c0.1,0.2,0,0.5-0.2,0.7C-120.4,167.6-120.4,167.6-120.5,167.6z"/>
<path class="st4" d="M-147.3,177.1c-0.1,0-0.2,0-0.3-0.1c-6.1-5.9-3.3-15.1-3.2-15.1c0.1-0.3,0.4-0.4,0.6-0.3
	c0.3,0.1,0.4,0.4,0.3,0.6c0,0.1-2.7,8.6,3,14.1c0.2,0.2,0.2,0.5,0,0.7C-147.1,177.1-147.2,177.1-147.3,177.1z"/>
<path class="st4" d="M-162.7,177.3c-0.1,0-0.3-0.1-0.4-0.2c-0.2-0.2-0.2-0.5,0-0.7c5.7-5,4-16.7,4-16.8c0-0.3,0.1-0.5,0.4-0.6
	c0.3,0,0.5,0.1,0.6,0.4c0.1,0.5,1.9,12.3-4.3,17.7C-162.5,177.2-162.6,177.3-162.7,177.3z"/>
<path class="st4" d="M-178.6,178.5c-0.1,0-0.3,0-0.4-0.1c-0.2-0.2-0.2-0.5,0-0.7c7.7-7.7,5.6-16.3,5.6-16.4
	c-0.1-0.3,0.1-0.5,0.4-0.6c0.3-0.1,0.5,0.1,0.6,0.4c0,0.1,2.2,9.3-5.9,17.3C-178.3,178.4-178.5,178.5-178.6,178.5z"/>
<path class="st4" d="M-97.6,160.9c-0.2,0-0.3-0.1-0.4-0.2c-0.1-0.2-0.1-0.5,0.2-0.7c0.1,0,1.7-1.1,7.2-4.1
	c4.7-2.5,10.3-10.7,12.2-14c-9.9,5.9-19.2,9.6-19.3,9.6c-0.3,0.1-0.5,0-0.6-0.3c-0.1-0.3,0-0.5,0.3-0.6c0.1,0,10.3-4,20.5-10.4
	c0.1-0.1,0.3-0.1,0.4,0c0.2,0.1,0.3,0.3,0.3,0.5c0.1,1-7.5,12.9-13.4,16.1c-5.4,2.9-7.1,4-7.1,4C-97.4,160.9-97.5,160.9-97.6,160.9z
	"/>
<path class="st4" d="M-140,148.1c-22.1,0-47.8-3.1-53.6-11.7c-1.1-1.6-1.3-3.3-0.7-4.9c2.3-5.9,14.7-7.3,15.3-7.4
	c0.3,0,0.5,0.2,0.6,0.4c0,0.3-0.2,0.5-0.4,0.6c-0.1,0-12.3,1.5-14.4,6.8c-0.5,1.3-0.3,2.7,0.6,4c3.7,5.5,19.5,11.3,52.8,11.3
	c41.3,0,53.7-8.6,54.5-13.7c0.5-3.2-6.7-6.7-9.5-7.8c-0.3-0.1-0.4-0.4-0.3-0.6c0.1-0.3,0.4-0.4,0.6-0.3c0.4,0.2,10.8,4.1,10.1,8.8
	C-84.8,135-88.3,148.1-140,148.1z"/>
<path class="st5" d="M-197.6,85.6c-2.2,0-4.1-1.8-4.1-4.1s1.8-4.1,4.1-4.1s4.1,1.8,4.1,4.1S-195.3,85.6-197.6,85.6z M-197.6,78.4
	c-1.7,0-3.1,1.4-3.1,3.1s1.4,3.1,3.1,3.1c1.7,0,3.1-1.4,3.1-3.1S-195.9,78.4-197.6,78.4z"/>
<path class="st5" d="M-215.2,66.3c-0.8,0-1.7-0.2-2.5-0.7c-3.6-2.2-4.8-5.3-3.3-8.8c1.8-4.2,6.5-3.2,6.5-3.2
	c0.3,0.1,0.4,0.3,0.4,0.6c-0.1,0.3-0.3,0.4-0.6,0.4c-0.2,0-3.9-0.8-5.4,2.6c-1.6,3.9,0.7,6.3,2.9,7.6c2.4,1.4,5.8-0.6,5.9-0.6
	c0.2-0.1,0.5-0.1,0.7,0.2c0.1,0.2,0.1,0.5-0.2,0.7C-210.9,65-213,66.3-215.2,66.3z"/>
<path class="st5" d="M-201.7,70.6c-0.3,0-0.6,0-0.9-0.1c-1.7-0.2-3-0.9-3.7-2c-1.2-1.8-0.6-4-0.6-4.1c0.1-0.3,0.3-0.4,0.6-0.4
	c0.3,0.1,0.4,0.3,0.4,0.6c0,0-0.5,1.9,0.5,3.3c0.6,0.9,1.6,1.4,3,1.6c2.7,0.3,4-1.2,4.4-2.1c0.7-1.4,0.6-2.9,0-3.5l-1.4-2
	c-0.1-0.1-0.1-0.3-0.1-0.5s0.2-0.3,0.4-0.3c1.9-0.3,3.2-1.6,3.8-3.4c0.7-2.4,0.1-5.2-1.6-6.8c-2.9-2.9-6.6-0.4-6.7-0.3
	c-0.2,0.2-0.5,0.1-0.7-0.1c-0.2-0.2-0.1-0.5,0.1-0.7c0,0,4.5-3.1,8,0.4c1.9,1.9,2.7,5.1,1.8,7.8c-0.6,2-2,3.4-3.8,4l1,1.4
	c0.9,1,1,3,0.1,4.6C-198.1,69.6-199.7,70.6-201.7,70.6z"/>
<path class="st5" d="M-217.1,34.6c-1.5,0-3.1-0.5-4.6-2.6c-1.8-2.6-0.3-5.2,0.8-6.2c0.2-0.2,0.5-0.2,0.7,0c0.2,0.2,0.2,0.5,0,0.7
	c-0.1,0.1-2.5,2.3-0.7,4.9c1.8,2.5,3.7,2.3,6.3,1.7c0.3-0.1,0.5,0.1,0.6,0.4c0.1,0.3-0.1,0.5-0.4,0.6
	C-215.2,34.4-216.1,34.6-217.1,34.6z"/>
<path class="st5" d="M-209.7,32.2c-0.2,0-0.4-0.1-0.5-0.3c-0.1-0.3,0-0.5,0.3-0.7c0.1,0,2.8-1.3,1.2-5.4c-1.5-4.1-4.5-3.2-4.7-3.2
	c-0.3,0.1-0.5-0.1-0.6-0.3c-0.1-0.3,0.1-0.5,0.3-0.6c0,0,4-1.3,5.9,3.8c1.9,5-1.7,6.7-1.8,6.7C-209.6,32.2-209.6,32.2-209.7,32.2z"
	/>
<path class="st1" d="M-159.3,178.3"/>
<path class="st2" d="M-192.9,174.5c-0.2,0-0.4-0.1-0.5-0.3c0-0.1-2.4-5.4-7.2-8.2c0.4,1.1,1,2.6,1,4.2c0,0.3-0.2,0.5-0.5,0.5
	s-0.5-0.2-0.5-0.5c0-2.5-1.5-5-1.5-5.1c-0.1-0.2-0.1-0.4,0.1-0.6c0.1-0.2,0.4-0.2,0.6-0.1c6.1,2.7,8.9,9.1,9,9.4
	c0.1,0.3,0,0.5-0.3,0.7C-192.8,174.5-192.8,174.5-192.9,174.5z"/>
<path class="st2" d="M-203,174.2c-0.1,0-0.3-0.1-0.4-0.2c-3.2-4.1-10-7.4-10-7.4c-0.2-0.1-0.3-0.3-0.3-0.6c0.1-0.2,0.3-0.4,0.5-0.4
	c9.6,0.7,14.7,5.3,14.9,5.5c0.2,0.2,0.2,0.5,0,0.7c-0.2,0.2-0.5,0.2-0.7,0c0,0-4.2-3.7-11.8-4.9c2.3,1.4,5.9,3.7,8.1,6.4
	c0.2,0.2,0.1,0.5-0.1,0.7C-202.8,174.2-202.9,174.2-203,174.2z"/>
<path class="st2" d="M-203.4,185.2c-0.2,0-0.4-0.1-0.5-0.3c-3.7-9.3-14.8-10.2-14.9-10.2c-0.3,0-0.4-0.2-0.5-0.5s0.2-0.5,0.4-0.5
	c9.5-1.8,18.1,0.4,18.2,0.5c0.3,0.1,0.4,0.3,0.4,0.6c-0.1,0.3-0.3,0.4-0.6,0.4c-0.1,0-6.7-1.7-14.8-0.9c3.8,1,10.1,3.6,12.7,10.3
	c0.1,0.3,0,0.5-0.3,0.6C-203.3,185.2-203.3,185.2-203.4,185.2z"/>
<path class="st4" d="M-107.9,175.3c-0.1,0-0.2,0-0.3-0.1c-9.9-8.6-5.5-18.7-5.4-18.8c0.1-0.2,0.4-0.4,0.7-0.2
	c0.3,0.1,0.4,0.4,0.2,0.7c-0.2,0.4-4.2,9.5,5.2,17.6c0.2,0.2,0.2,0.5,0.1,0.7C-107.6,175.3-107.7,175.3-107.9,175.3z"/>
<path class="st1" d="M-79.1,177.1c-0.7-4.2,2-8.6,2-8.6c-2.4,1.3-6,3.5-6,3.5c1.1-3.8,5.3-9.8,5.3-9.8
	c-12.9,3.5-19.1,15.3-19.1,15.3l-3.1,5.6l15.9-1L-79.1,177.1z"/>
<path class="st1" d="M-95,176.6c0,0-10.5,3.8-45.4,3.8s48.2,3.5,48.2,3.5L-95,176.6z"/>
<path class="st2" d="M-96.8,178c-0.1,0-0.2,0-0.2-0.1c-0.2-0.1-0.3-0.4-0.2-0.7c0.1-0.1,6.5-12,19.4-15.5c0.2-0.1,0.4,0,0.5,0.2
	c0.1,0.2,0.1,0.4,0,0.6c0,0.1-3.3,4.7-4.8,8.3c1.3-0.8,3.3-2,4.8-2.8c0.2-0.1,0.4-0.1,0.6,0.1s0.2,0.4,0.1,0.6c0,0-2.6,4.3-1.9,8.3
	c0,0.3-0.1,0.5-0.4,0.6c-0.3,0-0.5-0.1-0.6-0.4c-0.5-2.9,0.5-5.8,1.3-7.5c-2.2,1.2-4.5,2.7-4.5,2.7c-0.2,0.1-0.4,0.1-0.6,0
	c-0.2-0.1-0.2-0.3-0.2-0.5c0.8-2.8,3.3-6.8,4.6-8.7c-11.6,3.9-17.4,14.5-17.4,14.6C-96.4,177.9-96.6,178-96.8,178z"/>
<g>
	<path class="st6" d="M-96.6,117.5c0,0,13.5,3.6,15.7-5.6s-5.6-12.7-13.9-11.6S-96.6,117.5-96.6,117.5z"/>
	<path class="st7" d="M-96.6,117.5c0,0,13.5,3.6,15.7-5.6s-5.6-12.7-13.9-11.6S-96.6,117.5-96.6,117.5z"/>
</g>
<path class="st6" d="M-151.8,76.8c0,0-10.9,3.4-20.2,3.6s-14.8,2.4-13.7,14s17.2,8.8,26.4,6c9.2-2.8,12-2.4,12-2.4
	s-25.5,9.4-32.8,20s-9.5,26.2-9.5,29.6s1.1,5.6,5.4,6.2c4.3,0.6,8,0.4,12.2-0.4c4.1-0.7,3.6-7.1,3.9-9.5c0.4-2.4,2.1-14,11.2-20.4
	c0,0-5.8,10.9-4.7,27.3c0,0,0.2,5.1,3.2,6c3,0.9,8.4,1.1,12.9,0s3.2-3.7,3.7-6.4c0.6-2.6,2.2-8.6,4.1-10.7c0,0,17.2,0.7,32.4-7.5
	c15.2-8.2,13.3-25.6,12.9-30.9c-0.4-5.2-5.6-22.1-16.3-29.6C-119.2,64.3-151.8,76.8-151.8,76.8z"/>
<path class="st8" d="M-185.4,92.4c-0.2,0-0.4-0.1-0.4-0.3c-0.1-0.2,0-0.5,0.2-0.7c0.1,0,1.7-0.8,4-1.2c0.3,0,0.5,0.2,0.6,0.4
	c0,0.3-0.2,0.5-0.4,0.6c-2.2,0.3-3.7,1.1-3.7,1.1C-185.2,92.4-185.3,92.4-185.4,92.4z"/>
<path class="st8" d="M-183.9,98.7c-0.3,0-0.5-0.2-0.5-0.5s0.2-0.5,0.5-0.5c1.9,0,2.9-1.1,2.9-1.2c0.2-0.2,0.5-0.2,0.7-0.1
	c0.2,0.2,0.2,0.5,0.1,0.7C-180.3,97.2-181.5,98.7-183.9,98.7z"/>
<path class="st7" d="M-107.3,72.7c-0.4-0.3-0.8-0.6-1.2-0.9c-10.7-7.5-43.2,5.1-43.2,5.1s-1.3,0.4-3.3,0.9l-0.5,12
	c0,0,2,0.3,5.1,0.5c-0.8,3,0.1,6.1,7.9,4.7c9.7-1.7,15.3-7,17.9-10.1C-117.5,81.1-111,75.9-107.3,72.7z"/>
<g>
	<path class="st6" d="M-87.8,17.8c0-7.5-6.1-13.5-13.5-13.5c-6.6,0-12,4.7-13.3,10.9c0,0,0,0,0,0c-12.7-5.1-31.3-7.1-51.9-0.1
		c-1.6-5.2-6.5-9-12.3-9c-7.1,0-12.9,5.8-12.9,12.9c0,4.6,2.4,8.6,6,10.8c-5.2,8.7-4.8,17.4-4.8,17.4s-0.7,20.6,24.2,29.3
		c24.8,8.6,45.9,1.1,45.9,1.1s30.2-5.8,32.1-24.6c1.1-10.4-1.7-17.8-6.2-23.5C-90.4,27.1-87.8,22.8-87.8,17.8z"/>
	<path class="st9" d="M-97.1,12.5c-5.8-4.4-9.3,0.8-9.3,0.8l-2.7,4.4c0.5,0.3,1,0.6,1.5,0.8c3.2,1.9,6.4,4,9.2,6.6l2.3-2.8
		C-96.1,22.3-91.3,16.8-97.1,12.5z"/>
	<path class="st9" d="M-183,13.6c-3.2,2.5-3.2,5-2.2,7.1c0.6,1.3,1.9,3.1,2.9,4.4c2.6-2.9,6-5.7,10.4-7.9c-0.7-1-1.6-2.2-2.7-3.3
		C-177,11.3-179.8,11.1-183,13.6z"/>
	<path class="st10" d="M-150.8,32.5c0,0-0.5,8.4-4.1,12.7s-6.8,9.6-6.8,15.6s3.2,7.5,5.8,7.5s4.3-0.7,4.9-3c0.6-2.2,2.3-3.1,3.5-0.7
		c1.2,2.3,2.1,5.3,7.1,5.2c5-0.1,7.6-5.3,6.6-11.1c-1-5.8-2.1-7.5-6.9-12.7c-4.8-5.2-6.1-9.7-6.4-13.4S-150.6,28.6-150.8,32.5z"/>
	<path class="st11" d="M-146.3,48.1c0,0-6.6-0.4-8.4,0.3c-1.8,0.7-2,1.4-0.2,4.4c1.8,3,3.9,6.7,5.6,6c1.7-0.7,4.6-5.5,5.6-6.9
		S-142.1,48-146.3,48.1z"/>
	<path class="st12" d="M-131.4,41.1c0,0-2.8,0.2-4.3-0.4c-1.5-0.6-2.1-0.1-1.9,0.5c0.2,0.6,1.5,1.5,6,1.7c4.5,0.2,6.7-1.8,6.7-1.8
		s0.7-2.2-2.1-1.1C-129.9,41.2-131.4,41.1-131.4,41.1z"/>
	<path class="st12" d="M-158.1,41.4c-1.3,1.2-4.4,1.2-7,0.2s-2.1-1.7-1.9-2c0.2-0.3,1.1,0.2,2.9,0.6c0,0,2.8,0.6,4.8,0
		C-159.3,40.3-155.8,39.5-158.1,41.4z"/>
</g>
<g>
	<path class="st13" d="M-172.1,72.9l-1,28.7c0,0,9.7,7.6,26.7,2.3l3.5-28.4C-143,75.5-155.6,66.8-172.1,72.9z"/>
	<path class="st13" d="M-170.6,79.5c0,0-7.7-1.8-11.2,3.2c-3.5,5-1.5,12,3.4,13.3c4.9,1.3,7,0.8,7,0.8l0.1-6.2c0,0-3.6,1.3-5.8-0.8
		s-0.3-5.6,3-5.5c3.3,0.1,4.3,1,4.3,1L-170.6,79.5z"/>
</g>
<path class="st5" d="M-143,75.5c0,0-12.6-8.7-29.1-2.6c0,0,2,4.6,14.1,5.4C-145.9,79.1-143,75.5-143,75.5z"/>
<path class="st6" d="M-125,84.7c0,0-6.1,7.6-13.9,9.4c-7.8,1.8-14.5,4.8-10.8,12.9s13,5.4,21.3,2.5c8.3-2.9,14.3-8.4,19.8-17.1"/>
<path class="st8" d="M-159.4,131.6c0,0-0.1,0-0.1,0c-0.3-0.1-0.4-0.3-0.4-0.6c2.7-11.7,10.8-15.3,11.1-15.5c0.3-0.1,0.5,0,0.7,0.3
	c0.1,0.3,0,0.5-0.3,0.7c-0.1,0-8,3.6-10.5,14.8C-159,131.5-159.2,131.6-159.4,131.6z"/>
<path class="st8" d="M-140.6,112.9c-3.9,0-7.4-1.4-9.4-5.7c-1.3-2.8-1.5-5.2-0.5-7.2c1.8-3.7,7.1-5.3,11.6-6.3
	c7.5-1.7,13.5-9.2,13.6-9.2c0.2-0.2,0.5-0.2,0.7-0.1c0.2,0.2,0.3,0.5,0.1,0.7c-0.3,0.3-6.3,7.8-14.1,9.6c-4.2,1-9.3,2.5-10.9,5.8
	c-0.9,1.7-0.7,3.8,0.5,6.4c3.5,7.5,11.8,5.4,20.7,2.3c7.8-2.7,13.8-7.9,19.6-16.9c0.1-0.2,0.5-0.3,0.7-0.2c0.2,0.1,0.3,0.5,0.2,0.7
	c-5.9,9.2-12.1,14.5-20.1,17.3C-131.8,111.3-136.4,112.9-140.6,112.9z"/>
<path class="st8" d="M-147,110.1c-0.2,0-0.4,0-0.6,0c-0.3,0-0.5-0.2-0.5-0.5c0-0.3,0.2-0.5,0.5-0.5c5.1,0.2,7.9-2.8,7.9-2.8
	c0.2-0.2,0.5-0.2,0.7,0c0.2,0.2,0.2,0.5,0,0.7C-139,107-141.8,110.1-147,110.1z"/>
<path class="st8" d="M-150.2,105.2c-0.2,0-0.5-0.2-0.5-0.4c0-0.3,0.2-0.5,0.4-0.6c4.1-0.5,7-2.8,7.1-2.8c0.2-0.2,0.5-0.1,0.7,0.1
	s0.1,0.5-0.1,0.7C-142.7,102.3-145.8,104.6-150.2,105.2C-150.2,105.2-150.2,105.2-150.2,105.2z"/>
<g>
	<path class="st14" d="M-176.8,149c-0.5-0.1-0.9,0.1-1.2,1.7c-0.3,1.4-0.8,3-1,3.4c0.7,0,1.4,0,2.1-0.1
		C-176.3,150.8-176.3,149-176.8,149z"/>
	<path class="st14" d="M-184.6,148.6c-0.5,0-0.8,1.7-0.6,5c0.3,0.1,0.7,0.1,1.1,0.2c0.3,0,0.6,0.1,1,0.1c-0.1-0.5-0.4-2-0.5-3.4
		C-183.8,148.8-184.2,148.6-184.6,148.6z"/>
	<path class="st14" d="M-149.1,152.5c-0.5-0.1-0.9,0.1-1.2,1.7c-0.3,1.4-0.8,2.9-0.9,3.3c0.7,0,1.4-0.1,2.1-0.1
		C-148.6,154.2-148.6,152.5-149.1,152.5z"/>
	<path class="st14" d="M-156.9,152c-0.5,0-0.7,1.7-0.6,4.9c0.6,0.1,1.3,0.3,2.1,0.4c-0.1-0.5-0.4-2-0.5-3.4
		C-156.1,152.2-156.5,152-156.9,152z"/>
</g>
<rect x="-225.3" class="st15" width="180" height="190"/>
</svg>
