<?xml version="1.0" encoding="utf-8"?>
<!-- Generator: Adobe Illustrator 28.0.0, SVG Export Plug-In . SVG Version: 6.00 Build 0)  -->
<svg version="1.1" id="レイヤー_1" xmlns="http://www.w3.org/2000/svg" xmlns:xlink="http://www.w3.org/1999/xlink" x="0px"
	 y="0px" viewBox="0 0 129.1 199.8" style="enable-background:new 0 0 129.1 199.8;" xml:space="preserve">
<style type="text/css">
	.st0{clip-path:url(#SVGID_00000118371498492579955920000012188726269067003834_);}
	.st1{fill:#FFFFFF;}
	.st2{fill:none;}
	.st3{fill:#B3B3B3;}
	.st4{fill:#CCCCCC;}
	.st5{fill:#2E384C;}
	.st6{fill:#80DEF0;}
	.st7{clip-path:url(#SVGID_00000007428799317984837040000006660599573120114305_);}
	.st8{fill:#F001BC;}
	.st9{fill:#F29400;}
	.st10{fill:#59C2E1;}
	.st11{fill:#E6E6E6;}
	.st12{fill:#9CDBED;}
	.st13{fill:#F29600;}
	.st14{fill:#796A56;}
	.st15{fill:none;stroke:#9BDAED;stroke-width:2.0612;stroke-linecap:round;stroke-linejoin:round;stroke-miterlimit:10;}
	.st16{fill:none;stroke:#999999;stroke-width:4.3393;stroke-linecap:round;stroke-linejoin:round;stroke-miterlimit:10;}
	.st17{clip-path:url(#SVGID_00000030461534972910777800000010024206736644712891_);fill:#3C3C3C;}
	.st18{clip-path:url(#SVGID_00000030461534972910777800000010024206736644712891_);fill:#282828;}
	.st19{fill:none;stroke:#FF0000;stroke-width:4;stroke-linecap:round;stroke-linejoin:round;stroke-miterlimit:10;}
	.st20{fill:#FF0000;}
	.st21{fill:none;stroke:#FF0000;stroke-width:10;stroke-miterlimit:10;}
	.st22{fill:#3C3C3C;}
	.st23{fill:#00BDE1;}
	.st24{fill:#D2830E;}
	.st25{fill:#FFFF00;}
	.st26{fill:#17A1BF;}
	.st27{clip-path:url(#SVGID_00000155139275652009688900000010161464747817637043_);}
	.st28{fill:none;stroke:#FF0000;stroke-width:9.6103;stroke-miterlimit:10;}
	.st29{fill:#6C757D;}
	.st30{fill:#D0D0D0;}
	.st31{clip-path:url(#SVGID_00000091698605429067560170000004250812391781379207_);}
	.st32{clip-path:url(#SVGID_00000042731631477509911210000008496853064657662869_);}
	.st33{fill:#7F7F7F;}
	.st34{fill:#3F3F3F;}
	.st35{fill:#FEF4E4;}
	.st36{fill:#9BDAED;}
	.st37{opacity:0.3;fill:#F29600;}
	.st38{fill:#FFFFFF;stroke:#F29600;stroke-width:5.92;stroke-linecap:round;stroke-linejoin:round;}
	.st39{fill:#CCF2F9;}
	.st40{fill:none;stroke:#FFFFFF;stroke-width:0;stroke-linecap:round;stroke-linejoin:round;}
	.st41{fill:none;stroke:#F29600;stroke-width:5.92;stroke-linecap:round;stroke-linejoin:round;}
</style>
<g>
	<defs>
		<rect id="SVGID_1_" x="-844.2" width="810" height="371.7"/>
	</defs>
	<clipPath id="SVGID_00000031187873970330217050000015005470232515809921_">
		<use xlink:href="#SVGID_1_"  style="overflow:visible;"/>
	</clipPath>
	<g style="clip-path:url(#SVGID_00000031187873970330217050000015005470232515809921_);">
		
			<image style="overflow:visible;" width="3182" height="1772" xlink:href="YOYAKUMA/---WEBグラフィック/---パーツ/---機能/スクリーンショット 2023-12-23 14.11.54.png"  transform="matrix(0.3796 0 0 0.3796 -1005.9504 -61.9214)">
		</image>
	</g>
</g>
<g>
	<path class="st10" d="M125,131.4c-5.7-11.7-18.7-27-30.4-34.5c12.2-9,18.9-21.3,16.4-33.1c-1.3-6.2-5-11.5-10.3-15.6c0,0,0,0,0,0
		c-1.1-0.9,0.1-2.3,0.1-2.3l0,0c2.8-3.1,4.1-7.4,3.2-11.7c-1.6-7.3-9-11.9-16.5-10.3c-6.7,1.4-11.3,7.3-11.2,13.7l0,0
		c0,0-0.1,1.6-1.6,1.5c0,0,0,0,0,0c-6.9-0.6-14.3-0.2-21.9,1.4s-14.5,4.3-20.6,7.6c0,0,0,0,0,0c-1.4,0.7-2.1-0.7-2.1-0.7l0,0
		c-2.5-5.9-9.1-9.4-15.8-8C6.6,41.1,1.7,48.3,3.3,55.6c0.9,4.3,3.9,7.7,7.7,9.4l0,0c0,0,1.7,0.8,1.1,2.1c0,0,0,0,0,0
		C8.8,73,7.6,79.4,8.9,85.5c2.1,10,10.4,17.6,21.9,21.7c-3.7,3.5-10.5,10.3-17.1,19.2c-9.8,13.2-17.5,28.5-11.8,33s13-4.3,21.6-15.6
		c0.6-0.8,1.5-1.6,2.5-2.3c0,6.1,1,15.6,6.3,23.3c0,0-3.6,12.7-2.7,33.2c0,0,2.5,0.9,6.8,1.4c0-0.1-0.3-6.4,1.2-6.2
		c1.4,0.1,0.2,3.1,1.6,6.5c1.7,0.1,3.7,0.1,5.8-0.1c0.1-0.9,0.3-2.5,0.3-3.9c0-2.2,0.5-2.4,1.1-2.5c0.6,0,1.1,2.1,1.1,6.1
		c2.1-0.3,4.4-0.7,6.8-1.3l1.1-24.2c0,0,9.2,3,21.3,0c0,0,0.1,14.5,0.7,24.2c0,0,2.2,0.8,6.2,1.2c0-1.1-0.1-6.1,1.2-6
		c1.4,0.1,0.3,3,1.5,6.2c1.7,0.1,3.7,0.1,5.9-0.1c0.1-0.9,0.2-2.3,0.3-3.6c0-2.2,0.5-2.4,1.1-2.5c0.6,0,1,2,1.1,5.9
		c1.9-0.2,4-0.6,6.2-1c0,0,1.3-18.1-2.2-35.8c0,0,6.6-8.6,4.6-34.4c2.2,3.4,7.9,12.1,10.1,15.4c2.7,4.2,5.3,11.1,11.1,10.6
		C130.1,153.5,131.1,144,125,131.4z"/>
	<g>
		<path class="st13" d="M55.6,21.9c-0.8,0-0.9-0.2-0.9-1.4c0-4.2,2.5-6.6,5.2-8.9c1.4-1.2,2.4-2.4,2.4-3.8c0-2-1.7-3.4-4.8-3.4
			c-2.7,0-5,1.5-6.4,3.1c-0.3,0.4-0.6,0.7-0.8,0.7c-0.2,0-0.5-0.2-0.9-0.6L47.8,6c-0.4-0.4-0.5-0.6-0.5-0.9c0-0.2,0.2-0.5,0.5-0.9
			C50,1.7,53.5,0,57.8,0c5.9,0,9.4,3.3,9.4,7.2c0,3.5-2,5.4-4.8,7.7c-1.9,1.6-3.3,3.3-3.3,5.9c0,1-0.1,1.2-0.9,1.2H55.6z M60.1,27.7
			c0,1.7-1.1,3.2-3.2,3.2c-1.6,0-2.8-1.1-2.8-2.7c0-1.8,1.2-3.3,3.2-3.3C58.8,24.8,60.1,26,60.1,27.7z"/>
	</g>
	<path class="st11" d="M37.6,193.2c-1.5-0.1-1.2,6.1-1.2,6.2c0.9,0.1,1.8,0.2,2.8,0.2C37.9,196.4,39,193.4,37.6,193.2z"/>
	<path class="st11" d="M46.4,193.2c-0.6,0-1.1,0.3-1.1,2.5c0,1.5-0.2,3.1-0.3,3.9c0.8-0.1,1.7-0.1,2.5-0.3
		C47.5,195.3,47,193.2,46.4,193.2z"/>
	<path class="st11" d="M84.7,193.2c-1.3-0.1-1.2,4.9-1.2,6c0.8,0.1,1.7,0.1,2.7,0.2C85,196.2,86,193.4,84.7,193.2z"/>
	<path class="st11" d="M93.5,193.2c-0.6,0-1.1,0.3-1.1,2.5c0,1.3-0.2,2.8-0.3,3.6c0.8-0.1,1.6-0.1,2.5-0.2
		C94.5,195.2,94,193.2,93.5,193.2z"/>
	<path class="st36" d="M103,128.6c-0.3,0-0.6-0.3-0.6-0.6c-0.6-8.2-1.7-11.7-1.7-11.7c-0.1-0.3,0.1-0.7,0.4-0.8
		c0.3-0.1,0.7,0.1,0.8,0.4c0,0.1,1.2,3.7,1.8,12.1C103.7,128.2,103.4,128.5,103,128.6C103.1,128.6,103.1,128.6,103,128.6z"/>
	<path class="st36" d="M26.2,142.9c-0.3,0-0.6-0.3-0.6-0.6c-0.4-9.2,1.8-14.3,1.9-14.5c0.1-0.3,0.5-0.5,0.8-0.3
		c0.3,0.1,0.5,0.5,0.3,0.8c0,0-2.2,5.1-1.8,13.9C26.8,142.6,26.5,142.9,26.2,142.9C26.2,142.9,26.2,142.9,26.2,142.9z"/>
	<path class="st36" d="M66,175.8c-11.2,0-14.5-3.1-14.7-3.2c-0.3-0.2-0.3-0.7,0-0.9c0.2-0.3,0.6-0.3,0.9,0c0,0,3.3,2.9,13.8,2.9
		c10.6,0,14.2-3.1,14.3-3.1c0.3-0.2,0.7-0.2,0.9,0.1c0.2,0.3,0.2,0.7,0,0.9C81,172.4,77.1,175.8,66,175.8z"/>
	<g>
		<circle class="st14" cx="43.6" cy="68.6" r="4.2"/>
		<circle class="st14" cx="72.4" cy="62.5" r="4.2"/>
	</g>
	<g>
		<path class="st2" d="M25.3,50.9C25.3,51,25.3,51,25.3,50.9C25.3,51,25.3,50.9,25.3,50.9z"/>
		<path class="st12" d="M25.3,51C25.3,51,25.3,51,25.3,51c-0.9-4.4-5.4-7.1-10-6.2c-4.6,1-7.5,5.3-6.6,9.6c0.7,3.1,3.1,5.3,6,6
			c0.3,0,1.6,0.1,2.9-1.2c0,0,0,0,0,0c2-2.2,4.2-4.3,6.8-6.2c0,0,0,0,0,0C25.4,52.3,25.3,51.3,25.3,51z"/>
	</g>
	<g>
		<path class="st2" d="M81.9,38.9C81.9,38.9,81.9,38.9,81.9,38.9C81.9,38.9,81.9,38.9,81.9,38.9z"/>
		<path class="st12" d="M81.9,39C81.9,38.9,81.9,38.9,81.9,39c-0.9-4.4,2-8.7,6.6-9.7c4.6-1,9,1.8,10,6.1c0.7,3.1-0.6,6.1-3,8
			c-0.3,0.2-1.4,0.8-3.1,0.1c0,0,0,0-0.1,0c-2.7-1.2-5.6-2.2-8.7-2.9c0,0,0,0-0.1,0C82.3,40.2,82,39.2,81.9,39z"/>
	</g>
	<path class="st1" d="M78.5,81.5c-1.1-5.2-3.7-7.4-9-10.2c-5.3-2.8-8.1-8.7-9.3-11.6c0,0-1.2-2.7-3.9-2.1c-2.7,0.6-2.7,3.5-2.7,3.5
		c0,3.1-0.2,9.7-3.8,14.4c-3.7,4.7-5.2,7.8-4.1,13c0,0,0.9,5.4,6.5,8.2c5.6,2.8,8,0.9,8.8-0.7l1-2c0,0,0.7-1.6,1.7-1.8
		c1-0.2,2.2,1,2.2,1l1.7,1.4c1.4,1.2,4.3,1.9,8.3-2.9C79.9,86.8,78.5,81.5,78.5,81.5z"/>
	<path class="st13" d="M66.7,74.7c-1.3,0-4.4,0.6-5.8,0.9l0,0L59.2,76l0,0c-1.5,0.3-4.3,1-5.5,1.5c-1.6,0.8-2.4,2.5-0.5,4.5
		c1.9,2,7.4,7.2,9.7,6.8S68,81.2,69,78.7C69.9,76.1,68.4,74.8,66.7,74.7z"/>
	<path class="st36" d="M51.2,111.3c-7.3,0-11.9-1.1-12-1.1c-0.4-0.1-0.6-0.5-0.5-0.8c0.1-0.4,0.4-0.6,0.8-0.5
		c0.2,0.1,23.4,5.5,49-8.8c0.3-0.2,0.7-0.1,0.9,0.3c0.2,0.3,0.1,0.7-0.3,0.9C74.5,109.5,60.6,111.3,51.2,111.3z"/>
</g>
</svg>
