<?xml version="1.0" encoding="utf-8"?>
<!-- Generator: Adobe Illustrator 28.0.0, SVG Export Plug-In . SVG Version: 6.00 Build 0)  -->
<svg version="1.1" id="レイヤー_1" xmlns="http://www.w3.org/2000/svg" xmlns:xlink="http://www.w3.org/1999/xlink" x="0px"
	 y="0px" viewBox="0 0 462.1 126.7" style="enable-background:new 0 0 462.1 126.7;" xml:space="preserve">
<style type="text/css">
	.st0{clip-path:url(#SVGID_00000034049216209803282550000010503208219048526239_);}
	.st1{fill:#FFFFFF;}
	.st2{fill:none;}
	.st3{fill:#B3B3B3;}
	.st4{fill:#CCCCCC;}
	.st5{fill:#2E384C;}
	.st6{fill:#80DEF0;}
	.st7{clip-path:url(#SVGID_00000015338676998353967190000005718868209345039286_);}
	.st8{fill:#F001BC;}
	.st9{fill:#F29400;}
	.st10{fill:#59C2E1;}
	.st11{fill:#E6E6E6;}
	.st12{fill:#9CDBED;}
	.st13{fill:#F29600;}
	.st14{fill:#796A56;}
	.st15{fill:none;stroke:#9BDAED;stroke-width:2.0612;stroke-linecap:round;stroke-linejoin:round;stroke-miterlimit:10;}
	.st16{fill:none;stroke:#999999;stroke-width:4.3393;stroke-linecap:round;stroke-linejoin:round;stroke-miterlimit:10;}
	.st17{clip-path:url(#SVGID_00000167361476912350496640000008939873293369132983_);fill:#3C3C3C;}
	.st18{clip-path:url(#SVGID_00000167361476912350496640000008939873293369132983_);fill:#282828;}
	.st19{fill:none;stroke:#FF0000;stroke-width:4;stroke-linecap:round;stroke-linejoin:round;stroke-miterlimit:10;}
	.st20{fill:#FF0000;}
	.st21{fill:none;stroke:#FF0000;stroke-width:10;stroke-miterlimit:10;}
	.st22{fill:#3C3C3C;}
	.st23{fill:#00BDE1;}
	.st24{fill:#D2830E;}
	.st25{fill:#FFFF00;}
	.st26{fill:#17A1BF;}
	.st27{clip-path:url(#SVGID_00000035526510652109238520000003995069199010137532_);}
	.st28{fill:none;stroke:#FF0000;stroke-width:9.6103;stroke-miterlimit:10;}
	.st29{fill:#6C757D;}
	.st30{fill:#D0D0D0;}
	.st31{clip-path:url(#SVGID_00000172406984996634857570000000521695907927932315_);}
	.st32{clip-path:url(#SVGID_00000057858064016261015040000008694024183807642802_);}
	.st33{fill:#7F7F7F;}
	.st34{fill:#3F3F3F;}
	.st35{fill:#FEF4E4;}
	.st36{fill:#9BDAED;}
	.st37{opacity:0.3;fill:#F29600;}
	.st38{fill:#FFFFFF;stroke:#F29600;stroke-width:5.92;stroke-linecap:round;stroke-linejoin:round;}
	.st39{fill:#CCF2F9;}
	.st40{fill:none;stroke:#FFFFFF;stroke-width:0;stroke-linecap:round;stroke-linejoin:round;}
	.st41{fill:none;stroke:#F29600;stroke-width:5.92;stroke-linecap:round;stroke-linejoin:round;}
</style>
<g>
	<defs>
		<rect id="SVGID_1_" x="-993.3" width="810" height="371.7"/>
	</defs>
	<clipPath id="SVGID_00000004512641388990686950000011558201582416408250_">
		<use xlink:href="#SVGID_1_"  style="overflow:visible;"/>
	</clipPath>
	<g style="clip-path:url(#SVGID_00000004512641388990686950000011558201582416408250_);">
		
			<image style="overflow:visible;" width="3182" height="1772" xlink:href="YOYAKUMA/---WEBグラフィック/---パーツ/---機能/スクリーンショット 2023-12-23 14.11.54.png"  transform="matrix(0.3796 0 0 0.3796 -1155.0955 -61.9214)">
		</image>
	</g>
</g>
<g>
	<g>
		<g>
			<path class="st1" d="M270.4,123.7c-1-4-3.2-7-6.9-8.9c-5.5-2.9-11.9-3-18.1-3.2c-49.2-1.2-98.4-1-147.7,0.6
				c-18.4,0.6-37.3,1.3-54.7-4.7c-17.4-6-33.3-20.1-35.6-38.4C5.1,49.5,19,30.9,36.4,21.9c17.4-9.1,37.6-10.6,57.3-11.7
				c105.7-5.4,211.8,0.5,317.4,7.4c16.3,1,34.5,3.2,44.6,15.9c11.7,14.7,6,38-8,50.6s-33.6,16.7-52.3,17.9c-24,1.6-48.2-0.6-72,1.9
				C304.2,105.9,285.6,112.1,270.4,123.7z"/>
			<path class="st10" d="M429.3,88.2c3.8-1.8,7.4-4,10.8-6.6c0.4-0.3,0.9-0.7,1.3-1l1.2-1c0.9-0.7,1.6-1.5,2.4-2.2
				c1.5-1.5,3-3.2,4.3-5c5.2-7.1,8.5-15.8,8.9-24.9c0.2-4.6-0.5-9.2-2.2-13.6c-0.9-2.2-1.9-4.3-3.3-6.2c-0.3-0.5-0.7-1-1-1.4
				c-0.4-0.5-0.8-0.9-1.2-1.3c-0.4-0.4-0.8-0.9-1.2-1.3l-1.3-1.2c-3.5-3.2-7.5-5.7-11.8-7.4c-4.3-1.8-8.8-2.9-13.3-3.6
				c-4.5-0.8-9.1-1.3-13.6-1.6c-4.5-0.4-9-0.6-13.5-0.9c-9-0.5-17.9-1.2-26.9-1.7c-17.8-1.1-35.4-2.1-52.5-3
				c-17.1-0.9-33.7-1.6-49.4-2.2c-7.8-0.2-15.5-0.5-22.9-0.8c-7.4-0.2-14.6-0.4-21.5-0.5c-27.5-0.6-50.3-0.6-66-0.4
				c-26.1,0.2-48,1-68.6,2C78,2.7,67.9,3.3,58,5C48,6.7,38.1,9.6,28.7,14.8c-4.7,2.6-9.1,5.8-13.1,9.7S8,32.9,5.2,38.2
				c-2.8,5.2-4.8,11.2-5.2,17.7c-0.4,6.4,0.9,13.3,4,19.5c3,6.3,7.8,11.9,13.6,16.7c2.9,2.4,6.1,4.5,9.5,6.3c3.5,1.8,7.1,3.4,11,4.7
				c7.7,2.6,16.2,3.8,25,4.4s18,0.3,27.6,0c8.6-0.2,25.3-0.6,45.2-0.7c19.9-0.1,43.2-0.1,64.9,0.2c10.9,0.2,21.4,0.3,30.9,0.4
				c2.4,0.1,4.7,0.1,7,0.1c2.2,0.1,4.4,0.1,6.4,0.2c2.1,0.1,4,0.3,5.8,0.7c1.8,0.4,3.4,0.9,4.9,1.5c2.9,1.2,5,3.1,6.5,5
				c0.7,1,1.2,1.9,1.6,2.8c0.2,0.4,0.4,0.9,0.5,1.3c0.1,0.4,0.2,0.8,0.3,1.2c0.3,1.5,0.2,2.5,0.3,3c0.1,0.5,0.3,0.5,0.7-0.1
				c0.5-0.9,1-2.5,0.7-4.7c-0.2-2.1-1.3-4.7-3.3-7.2c-1-1.2-2.2-2.4-3.8-3.4c-1.5-1-3.3-1.8-5.1-2.4c-3.8-1.3-8-1.7-12.4-1.9
				c-17.4-0.8-39.2-1.2-61.2-1c-22,0.1-44.3,0.7-62.4,1.3s-32.1,1.4-37.6,1.5c-3,0.1-6.7,0.1-11.1,0c-4.4-0.1-9.3-0.4-14.8-1.1
				c-1.3-0.2-2.7-0.4-4.1-0.6c-1.4-0.2-2.9-0.5-4.3-0.9c-2.9-0.6-5.9-1.5-8.9-2.5c-3-1-6-2.4-9-4c-3-1.6-5.9-3.5-8.6-5.7
				c-2.8-2.2-5.4-4.7-7.7-7.6c-0.5-0.7-1.2-1.4-1.7-2.2c-0.5-0.8-1-1.5-1.6-2.3c-0.5-0.8-0.9-1.6-1.4-2.4c-0.2-0.4-0.4-0.9-0.7-1.3
				l-0.6-1.3c-1.5-3.5-2.6-7.2-3-11c-0.4-3.8-0.2-7.8,0.7-11.6c1.7-7.7,5.8-15,11.2-20.9c5.4-6,12-10.9,19.3-14.2
				c7.3-3.4,15-5.6,22.7-7c3.8-0.7,7.7-1.3,11.4-1.7c3.8-0.4,7.5-0.7,11.2-1c7.3-0.5,14.4-0.7,21-1c3.3-0.1,6.6-0.3,9.7-0.4
				c3.1-0.1,6.1-0.2,9-0.3c2.9-0.1,5.6-0.2,8.2-0.2c2.6-0.1,5-0.1,7.4-0.2c4.6-0.1,8.6-0.2,11.9-0.2c6.6-0.1,10.3-0.1,10.3-0.1
				S161.3,3,168.9,3c7.5,0,18.5,0,31.7,0.2c13.3,0.1,29,0.5,46.2,1c17.2,0.6,35.9,1.3,55.1,2.2s39,2,58.5,3.2
				c9.7,0.6,19.4,1.2,28.8,1.8c4.7,0.3,9.4,0.6,14,0.9s9.1,0.6,13.5,1.2c4.4,0.5,8.7,1.3,12.8,2.4s7.9,2.6,11.3,4.7
				c3.4,2,6.3,4.6,8.6,7.5c1.2,1.5,2.1,3,2.9,4.6c0.8,1.6,1.5,3.3,1.9,4.9c1,3.3,1.2,6.7,1.2,9.9c-0.1,3.2-0.7,6.3-1.5,9.1
				c-1.6,5.7-4.1,10.3-6.7,13.9c-1,1.4-2.1,2.7-3.3,4s-2.5,2.4-3.8,3.5l-1,0.9c-0.3,0.3-0.7,0.5-1,0.8c-0.7,0.5-1.4,1-2.1,1.5
				c-0.7,0.5-1.5,0.9-2.2,1.4c-0.7,0.5-1.5,0.9-2.2,1.3l-1.1,0.6c-0.4,0.2-0.8,0.4-1.2,0.5c-0.8,0.4-1.5,0.8-2.3,1.1
				c-0.8,0.4-1.6,0.7-2.4,1c-0.8,0.4-1.6,0.6-2.4,0.9c-0.8,0.3-1.6,0.6-2.4,0.9c-0.8,0.2-1.6,0.5-2.4,0.8c-1.6,0.4-3.2,0.9-4.9,1.3
				c-13,3.1-26,3.5-38.3,3.6c-12.3,0.1-24.1-0.3-35.1-0.1c-11,0.1-21.3,0.8-30.7,2.3c-18.7,3-33.3,9.6-42.1,16.1
				c-2.2,1.6-4.1,3.2-5.7,4.7c-1.6,1.5-2.8,2.9-3.8,4c-0.2,0.3-0.5,0.5-0.7,0.9c-0.2,0.3-0.4,0.5-0.5,0.8c-0.4,0.5-0.6,1-0.9,1.4
				c-0.4,0.8-0.7,1.4-0.6,1.8c0.1,0.4,0.8,0,2.1-1.2c0.7-0.6,1.5-1.4,2.6-2.2c1.1-0.9,2.3-2,3.8-3.1c0.4-0.3,0.8-0.6,1.2-0.9
				s0.8-0.6,1.3-0.9c0.9-0.6,1.8-1.3,2.8-1.9c1-0.7,2.1-1.3,3.2-2c0.5-0.4,1.2-0.7,1.8-1c0.6-0.3,1.2-0.7,1.8-1
				c5-2.7,11.2-5.4,18.6-7.6c0.9-0.2,1.9-0.5,2.8-0.9c1-0.2,1.9-0.5,2.9-0.7c0.5-0.1,1-0.2,1.5-0.4c0.5-0.1,1-0.2,1.5-0.4
				c1-0.2,2.1-0.5,3.1-0.7c4.3-0.9,8.8-1.5,13.5-2.1c9.5-1,20.1-1.3,31.6-1.4c11.5-0.1,24,0.2,37.3-0.6c6.7-0.4,13.6-1.1,20.6-2.4
				c3.5-0.7,7.1-1.6,10.6-2.7C422.3,91.2,425.9,89.8,429.3,88.2z"/>
		</g>
	</g>
	<g>
		<path class="st13" d="M51.5,50.3c0,0.2,0.1,0.3,0.2,0.4c0.6,0.5,0.7,0.6,0.6,0.9c0,0,0,0.1,0,0.1c0,0.2,0.1,0.3,0.3,0.3h3.5
			c0.8,0,1.7,0,2,0c1.2,0,1.8,1.4,1.8,1.7c0,0.7-3.6,4.1-4.3,4.1c-0.6,0-1.6-1.1-1.6-1.5c0-0.2,0.2-0.3,1.1-0.9c0.2-0.1,1-0.7,1-0.9
			c0-0.2-0.3-0.2-0.5-0.2h-4.2c-0.5,0-0.7,0.2-0.7,0.7v5.2c0,0.6,0,1.2,0,1.8c0,2.6-2.4,2.9-4.5,2.9c-0.4,0-0.9,0-1.1-0.4
			S45,63.2,45,62.8c0-0.4,0.1-0.6,0.5-0.6c0.1,0,0.4,0,0.5,0c0.3,0,0.7,0,1,0c1.6,0,1.5-0.4,1.5-1.9v-5.5c0-0.5-0.2-0.7-0.7-0.7
			h-5.4c-0.9,0-1.8,0-2.8,0c-0.6,0-0.6-0.3-0.6-1.2c0-0.9,0-1.2,0.6-1.2c0.9,0,1.9,0,2.8,0h6.5c0.1,0,0.3,0,0.3-0.2
			c0-0.1,0-0.1-0.1-0.2c-1.1-0.9-2.2-1.7-3.4-2.4c-0.2-0.1-0.6-0.3-0.6-0.6c0-0.4,0.9-1.5,1.4-1.5c0.4,0,1.9,1.1,2.3,1.4
			c0.2,0.1,0.4,0.2,0.6,0.2c0.2,0,0.3-0.1,0.5-0.1c0.4-0.2,2.5-1.4,2.5-1.8c0-0.2-0.4-0.2-0.6-0.2h-6.6c-0.9,0-1.8,0-2.7,0
			c-0.6,0-0.6-0.3-0.6-1.2c0-1,0-1.2,0.6-1.2c0.9,0,1.8,0.1,2.7,0.1h7.9c0.7,0,1.3,0,2,0c0.5,0,0.7,0.2,1,0.5
			c0.2,0.3,0.7,0.9,0.7,1.2c0,0.8-4.3,3.4-5.2,3.9C51.6,50,51.5,50.1,51.5,50.3z"/>
		<path class="st13" d="M71.8,53c0-0.1,0-0.2-0.1-0.2c-0.1-0.2-0.3-0.5-0.3-0.7c0-0.4,1.1-0.9,1.5-0.9c0.3,0,0.4,0.2,0.5,0.4
			c0.5,1.1,0.8,1.7,1.2,2.5c0.2,0.5,0.5,1.2,0.5,1.5c0,0.5-1.3,0.8-1.5,0.8c-0.3,0-0.4-0.4-0.5-0.6c-0.1-0.3-0.3-0.5-0.7-0.5
			c-0.2,0-0.6,0.1-0.7,0.1c-0.5,0.1-0.6,0.3-0.6,0.7V61c0,1,0,2,0,3.1c0,0.7-0.2,0.8-1.2,0.8c-1,0-1.2,0-1.2-0.8c0-1,0.1-2,0.1-3.1
			v-4.5c0-0.3-0.2-0.6-0.6-0.6c0,0-0.6,0.1-0.6,0.1C67,56,66.7,56,66,56.1c-0.2,0-0.2,0.1-0.3,0.3c-0.1,0.1-0.2,0.3-0.3,0.3
			c-0.3,0-0.3-0.3-0.5-1.2c0-0.3-0.1-0.6-0.2-1c0-0.1,0-0.2,0-0.3c0-0.3,0.3-0.2,1-0.3c0.3,0,0.5,0,0.8,0c0.5,0,0.7-0.1,0.9-0.5
			c0.2-0.3,0.3-0.5,0.5-0.8c0.1-0.1,0.2-0.3,0.2-0.4c0-0.2-0.1-0.4-0.3-0.6c-0.9-0.8-1.7-1.7-2.7-2.4c-0.1-0.1-0.3-0.2-0.3-0.4
			c0-0.4,0.4-0.7,0.5-1c0.1-0.2,0.4-0.6,0.6-0.6c0.1,0,0.3,0.1,0.4,0.2c0.1,0,0.2,0.1,0.3,0.1c0.2,0,0.3-0.1,0.4-0.3
			c0.5-1.1,1.1-2.5,1.5-3.6c0-0.1,0.1-0.3,0.3-0.3c0.1,0,1.5,0.6,1.7,0.7c0.2,0.1,0.5,0.2,0.5,0.4c0,0.2-0.2,0.2-0.4,0.3
			c-0.2,0-0.3,0.1-0.3,0.3c-0.6,1.3-1.1,2.3-1.8,3.6c-0.1,0.1-0.1,0.2-0.1,0.4c0,0.2,0.1,0.3,0.2,0.5l0.4,0.4
			c0.1,0.1,0.2,0.2,0.4,0.2c0.2,0,0.3-0.1,0.4-0.2c0.6-1.1,1.1-2,1.7-3.1c0.1-0.2,0.1-0.4,0.4-0.4c0.1,0,0.8,0.3,1.2,0.5
			c0.1,0.1,0.3,0.1,0.3,0.2c0.2,0.1,0.8,0.3,0.8,0.6c0,0.2-0.2,0.2-0.3,0.3c-0.2,0-0.3,0.1-0.5,0.3c-0.7,1.2-2.6,4-3.4,5.1
			c0,0.1-0.1,0.1-0.1,0.2c0,0.2,0.1,0.3,0.3,0.3c0.4,0,0.8-0.1,1.3-0.1C71.4,53.4,71.8,53.4,71.8,53z M67.9,57.6
			c0.2,0,0.3,0.1,0.3,0.3c0,0.1-0.1,0.2-0.3,0.3c-0.3,0.1-0.3,0.2-0.3,0.5c-0.1,0.9-0.7,3.3-1,4.2c-0.1,0.3-0.2,0.6-0.5,0.6
			c-0.3,0-1.5-0.3-1.5-0.7c0-0.2,0.3-0.9,0.4-1.1c0.3-1,0.7-3,0.9-4.1c0-0.2,0.1-0.4,0.3-0.4C66.4,57.1,67.7,57.5,67.9,57.6z
			 M73.6,61.8c-0.4,0-0.4-0.3-0.5-0.6c-0.2-0.7-0.8-2.4-1.1-3.1c-0.1-0.1-0.1-0.3-0.1-0.5c0-0.5,1.2-0.7,1.4-0.7
			c0.2,0,0.3,0.1,0.4,0.3c0.1,0.1,0.8,2,0.9,2.2c0.1,0.3,0.5,1.4,0.5,1.6C75.1,61.5,73.8,61.8,73.6,61.8z M75.9,52.4
			c-0.1,0.2-0.3,0.4-0.5,0.4c-0.5,0-1.8-0.5-1.8-1c0-0.1,0.1-0.3,0.2-0.5c1.4-2.2,2.6-5.1,3.1-7.6c0-0.2,0.1-0.4,0.4-0.4
			c0.2,0,1.2,0.3,1.5,0.3c0.5,0.1,1,0.2,1,0.5c0,0.2-0.2,0.2-0.3,0.3c-0.3,0.1-0.3,0.2-0.6,1c-0.1,0.4-0.3,1-0.6,1.8
			c0,0.1,0,0.1,0,0.2c0,0.4,0.4,0.4,0.5,0.4H82c0.7,0,1.4,0,2,0c1.2,0,1.2,0.8,1.2,1.8c0,3.3-0.2,8.6-0.9,11.8
			c-0.2,1.1-0.5,2.1-1.5,2.7c-0.8,0.5-2.4,0.7-3.4,0.7c-1.1,0-1.3-0.2-1.4-0.8c-0.1-0.4-0.2-0.9-0.2-1.2c0-0.4,0.1-0.6,0.5-0.6
			c0.4,0,1,0.1,1.6,0.1c0.9,0,1.8,0,2.1-1.6c0.5-2,0.7-7.4,0.7-9.6c0-1-0.2-0.9-1.9-0.9h-3.2c-0.5,0-0.7,0.1-0.9,0.6
			C76.6,51.3,76.3,51.8,75.9,52.4z M78.7,58.7c-0.4,0-0.5-0.3-0.6-0.6c-0.5-1.3-1.1-2.5-1.7-3.7c-0.1-0.1-0.2-0.4-0.2-0.5
			c0-0.5,1.3-1,1.7-1c0.2,0,0.4,0.2,0.5,0.3c0.4,0.6,0.7,1.4,1,2c0.2,0.4,1,2.1,1,2.5C80.4,58.3,78.9,58.7,78.7,58.7z"/>
		<path class="st13" d="M102.8,44.9c0,0.1-0.2,0.2-0.3,0.3c-0.4,0.1-0.5,0.3-0.8,0.8c-0.1,0.1-0.2,0.4-0.2,0.6
			c0,0.2,0.1,0.2,0.3,0.2c0.5,0,2.3-0.5,2.8-0.7c0.2-0.1,0.4-0.1,0.6-0.1c0.4,0,0.5,0.4,0.6,0.7c0.1,0.3,0.2,1,0.2,1.3
			c0,0.4-0.8,0.5-1.3,0.6c-1.5,0.3-3,0.6-4.5,0.7c-0.4,0-0.5,0.1-0.7,0.4c-0.1,0.2-0.8,1.2-0.8,1.4c0,0.1,0.1,0.2,0.2,0.2
			c0.1,0,0.3-0.1,0.4-0.1c0.8-0.4,1.7-0.6,2.6-0.6c1.5,0,2.4,0.6,2.7,2.2c0,0.2,0.1,0.4,0.4,0.4c0.3,0,2.4-1.2,2.8-1.4
			c0.2-0.1,0.4-0.2,0.6-0.2c0.5,0,1,1.8,1,2.3c0,0.3-0.3,0.4-0.7,0.5c-0.1,0-0.2,0.1-0.3,0.1c-1,0.4-1.9,0.8-2.8,1.2
			c-0.4,0.2-0.6,0.3-0.6,0.8v0.3c0,0.7,0,1.5,0,2.2c0,0.9-0.1,1-1,1c-1,0-1.5,0-1.5-0.7c0-0.5,0-1.1,0-1.6c0-0.2-0.1-0.4-0.3-0.4
			c-0.1,0-2.6,1.1-2.6,2.5c0,1.6,2.3,1.8,3.5,1.8c1.6,0,2.9-0.2,4.5-0.6c0.1,0,0.3,0,0.5,0c0.3,0,0.5,0.3,0.5,1.6c0,0.7,0,0.9-0.6,1
			c-0.9,0.2-3.6,0.3-4.6,0.3c-1.4,0-2.5-0.1-3.8-0.6c-1.5-0.6-2.4-1.8-2.4-3.4c0-2.2,1.8-3.3,3.4-4.3c0.5-0.3,1-0.6,1.5-0.8
			c0.2-0.1,0.4-0.3,0.4-0.6c0-0.2-0.1-0.5-0.1-0.7c-0.1-0.5-0.5-0.8-1.1-0.8c-1.3,0-3.6,1.2-4.5,2.1c-0.7,0.7-1.5,1.9-2,2.8
			c-0.1,0.1-0.2,0.2-0.3,0.2c-0.4,0-2-1-2-1.4c0-0.2,0.2-0.4,0.3-0.5c0.6-0.6,4-5.4,4-5.9c0-0.2-0.2-0.3-0.5-0.3
			c-0.4,0-0.9,0.1-1.7,0.1c-0.5,0-0.6-0.1-0.6-1.3c0-1,0.1-1.1,0.7-1.1c0.4,0,1,0,1.7,0H97c0.6,0,1.3,0,1.5-0.3
			c0.4-0.5,1.1-2.4,1.3-3.1c0-0.3,0.1-0.5,0.3-0.5C100.3,43.5,102.8,44.6,102.8,44.9z"/>
		<path class="st13" d="M127.1,44.1c0.2,0.1,0.9,0.2,0.9,0.5c0,0.1-0.1,0.2-0.2,0.2c-0.4,0.2-0.4,0.3-0.6,0.8
			c-0.1,0.3-0.6,2-0.6,2.1c0,0.2,0.2,0.4,0.4,0.4c0.4,0,2.3-0.7,2.8-0.9c0.2-0.1,0.3-0.1,0.5-0.1c0.5,0,0.5,1.5,0.5,1.8
			c0,0.4,0,0.7-0.5,0.9c-1.2,0.4-2.7,0.7-3.9,0.9c-0.7,0.1-0.8,0.3-1,0.9c-1.1,3.2-2.9,7.6-4.5,10.6c-0.3,0.6-0.5,0.9-0.9,0.9
			c-0.4,0-2-0.8-2-1.3c0-0.2,0.3-0.6,0.4-0.8c1.5-2.2,3.3-6.3,4.2-8.9c0-0.1,0.2-0.5,0.2-0.6c0-0.2-0.2-0.4-0.4-0.4
			c-0.3,0-1.4,0.1-2.1,0.1c-0.5,0-0.9,0-1-0.4c-0.1-0.3-0.2-1.4-0.2-1.8c0-0.3,0.1-0.4,0.4-0.4c0.2,0,1.2,0.1,2.3,0.1
			c1.5,0,1.9,0,2.1-0.4c0.3-0.5,0.9-3.7,0.9-4.4c0-0.4,0-0.6,0.3-0.6C125.2,43.6,126.8,44,127.1,44.1z M126.8,59.6
			c1.1,1.2,2.9,1.4,4.3,1.4c1.2,0,2.2-0.1,3.4-0.5c0.1,0,0.2,0,0.2,0c0.4,0,0.4,0.6,0.4,1.5c0,0.5,0,1-0.3,1.2
			c-0.4,0.2-3.1,0.3-3.7,0.3c-1.6,0-3.8-0.2-5.1-1.1c-0.4-0.3-1.2-0.9-1.2-1.4c0-0.4,1.1-1.8,1.5-1.8
			C126.5,59.3,126.7,59.5,126.8,59.6z M129.7,51.9c1.3,0,3.6,0.2,4.8,0.7c0.2,0.1,0.3,0.2,0.3,0.5c0,0.4-0.3,1.3-0.5,1.7
			c-0.1,0.2-0.2,0.3-0.4,0.3c-0.2,0-0.3,0-0.5-0.1c-1.2-0.5-2.5-0.6-3.8-0.6c-0.3,0-0.6,0-0.9,0c-0.5,0-0.6-0.1-0.6-0.5
			C128.2,51.7,128.6,51.9,129.7,51.9z"/>
		<path class="st13" d="M157.4,47c0,0.2-0.3,0.2-0.5,0.2c-0.3,0-0.5,0.1-0.6,0.3c-0.6,0.4-1.2,0.9-1.8,1.4c-1.3,1.1-2.7,2.2-4,3.4
			c-0.5,0.4-1,0.9-1,1.4c0,0.6,0.8,1.5,1.2,1.9c1.4,1.5,2.9,2.8,4.3,4.1c0.4,0.4,2.1,1.7,2.1,2.2c0,0.6-1.5,1.9-2,1.9
			c-0.3,0-0.6-0.4-0.7-0.6c-0.9-1.1-1.9-2.1-2.9-3.1c-1.3-1.3-2.6-2.6-3.8-4c-0.7-0.8-1.2-1.5-1.2-2.5c0-0.6,0.2-1.2,0.5-1.7
			c0.6-0.8,2.3-2.1,3.1-2.8c1.4-1.2,3.4-2.8,4.5-4.2c0.1-0.1,0.2-0.3,0.4-0.3c0.3,0,1,0.8,1.3,1.1C156.5,45.9,157.4,46.8,157.4,47z"
			/>
		<path class="st13" d="M178.2,44.6c0.5,0.9,1,1.8,1.5,2.8c0.1,0.3,0.3,0.5,0.6,0.5c0.5,0,2.2-1,2.6-1.3c0.2-0.1,0.5-0.3,0.6-0.3
			c0.5,0,1.5,1.4,1.5,1.9c0,0.3-0.4,0.5-0.7,0.6c-0.8,0.4-1.3,0.7-2.2,1c-0.3,0.1-0.8,0.2-0.8,0.6c0,0.4,0.2,0.6,0.4,0.9
			c1,1.8,2.1,3.8,3.5,5.3c0.2,0.2,0.4,0.4,0.4,0.7c0,0.5-1.2,1.6-1.7,1.6c-0.3,0-0.6-0.3-0.9-0.5c-1.2-0.8-3.6-2-5.7-2
			c-1.2,0-2.6,0.7-2.6,2.1c0,2.5,3.7,3,5.5,3c0.6,0,1,0,1.3,0c0.5,0,0.6,0.3,0.6,0.8c0,0.5-0.1,1-0.2,1.5c-0.1,0.3-0.3,0.4-0.8,0.4
			c-1.2,0-2.9-0.2-4.1-0.6c-2.5-0.6-4.8-2.1-4.8-4.9c0-2.9,2.4-4.6,5.1-4.6c1.1,0,2,0.3,3,0.7c0.1,0,0.2,0.1,0.3,0.1
			c0.1,0,0.3-0.1,0.3-0.2c0-0.1-0.1-0.3-0.1-0.4c-0.5-0.8-0.9-1.5-1.4-2.3c-0.2-0.4-0.4-0.8-0.9-0.8c-0.1,0-0.2,0-0.3,0.1
			c-1.2,0.3-4.5,0.9-5.7,0.9c-0.5,0-0.6-0.2-0.9-0.9c-0.1-0.4-0.3-0.9-0.3-1.3c0-0.4,0.3-0.4,0.6-0.4c1.5,0,3.3-0.2,4.8-0.5
			c0.3-0.1,0.6-0.1,0.6-0.5c0-0.4-1.5-2.5-1.8-2.9c-0.1-0.1-0.2-0.2-0.2-0.4c0-0.5,2-1,2.3-1C178,44.2,178.1,44.3,178.2,44.6z"/>
		<path class="st13" d="M198,54.7c1.8-3.5,2.9-5.2,5-8.5c0.4-0.6,0.7-1.1,1-1.7c0.1-0.1,0.2-0.4,0.4-0.4c0.2,0,1.1,0.7,1.3,0.9
			c0.2,0.2,1.1,0.8,1.1,1c0,0.3-0.2,0.4-0.4,0.4c-0.3,0-0.4,0.1-0.6,0.3c-0.5,0.5-1.1,1.4-1.5,2c-0.3,0.5-2.4,3.5-2.4,3.8
			c0,0.1,0.1,0.2,0.2,0.2c0.1,0,0.3-0.1,0.4-0.2c0.8-0.4,1.6-0.8,2.5-0.8c1,0,2.1,0.5,2.5,1.4c0.2,0.5,0.3,1,0.3,1.5
			c0,0.8-0.2,1.6-0.3,2.3c-0.1,0.6-0.4,1.7-0.4,2.4c0,0.4,0.1,0.9,0.6,0.9c1.3,0,3.6-2.9,4.4-4c0.1-0.1,0.3-0.3,0.5-0.3
			c0.4,0,1.2,1.9,1.2,2.2c0,0.2-0.1,0.4-0.3,0.5c-0.6,0.6-1.1,1.1-1.7,1.6c-1.3,1.2-3,2.5-4.8,2.5c-1.7,0-2.4-1.5-2.4-3
			c0-0.9,0.1-1.9,0.3-2.8c0.1-0.6,0.3-1.3,0.3-1.9c0-0.6-0.2-1.1-0.9-1.1c-0.7,0-1.5,0.3-2.1,0.7c-1,0.6-1.8,1.2-2.4,2.2
			c-1,1.3-1.8,3.5-2.2,5c-0.1,0.3-0.1,0.7-0.5,0.7c-0.4,0-2.3-0.7-2.3-1.1c0,0,0.4-1,0.4-1.1C196.2,58.8,197,56.7,198,54.7z"/>
		<path class="st13" d="M228,45.8c0.2,0,0.5,0.1,0.5,0.3c0,0.2-0.1,0.2-0.3,0.4c-0.8,0.6-1.1,8.2-1.1,9.6c0,1.9,0,4.8,2.5,4.8
			c1.7,0,3.5-1,4.5-2.3c0.8-1,1.3-2.3,1.5-3.6c0.1-0.4,0.1-0.8,0.5-0.8c0.5,0,2,1.2,2,1.9c0,0.7-0.6,2.2-1,2.8
			c-1.4,2.7-4.2,4.6-7.3,4.6c-1.6,0-3.2-0.6-4.2-1.8c-1.1-1.4-1.2-3.8-1.2-5.5c0-1.9,0.1-3.8,0.2-5.7c0.1-1.1,0.3-3.4,0.3-4.4v-0.3
			c0-0.4,0-0.6,0.4-0.6C225.7,45.2,227.6,45.6,228,45.8z"/>
		<path class="st13" d="M247.9,47.7c3.5-0.2,7-0.6,10.5-1c1.8-0.2,3.6-0.5,5.4-0.7c0.1,0,0.2,0,0.3,0c0.4,0,0.4,0.3,0.5,0.6
			c0.1,0.4,0.2,1.3,0.2,1.8c0,0.5-0.5,0.5-1.1,0.5c-1.4,0-2.6,0-4,0.5c-1.9,0.7-3.2,1.8-4.1,3.6c-0.7,1.3-1.2,2.8-1.2,4.2
			c0,2.8,1.8,3.5,4.2,3.5c0.4,0,1,0,1.2,0c0.4,0,0.6,0,0.6,0.4c0,0.5-0.2,1.7-0.4,2.1c-0.2,0.2-0.4,0.2-0.7,0.2
			c-4.1,0-7.6-1.3-7.6-6c0-2.4,1-5.1,2.6-6.9c0.1-0.1,0.4-0.4,0.4-0.6c0-0.2-0.2-0.3-0.4-0.3c-0.2,0-1.3,0.2-1.5,0.2
			c-1.6,0.2-3.8,0.6-5.3,1c-0.1,0-0.2,0-0.4,0c-0.6,0-0.8-2.3-0.8-2.5C246.5,47.7,246.8,47.8,247.9,47.7z"/>
		<path class="st13" d="M283.2,45c0,0.1-0.1,0.2-0.2,0.3c-0.3,0.2-0.5,0.2-0.8,1.1c-0.2,0.6-0.4,1.2-0.6,1.8c0,0.1-0.1,0.2-0.1,0.3
			c0,0.4,0.3,0.5,0.6,0.6c0.8,0.1,1.6,0.2,2.4,0.2c0.5,0,0.8,0,0.8,0.5c0,0.4-0.1,1.2-0.3,1.6c-0.1,0.3-0.2,0.5-0.5,0.5
			c-0.7,0-2.6-0.2-3.3-0.4c-0.1,0-0.1,0-0.2,0c-0.4,0-0.6,0.3-0.6,0.6c-0.1,0.3-0.4,1.8-0.4,2c0,0.5,0.5,0.5,0.8,0.6
			c0.7,0.1,1.4,0.1,2.2,0.1c0.6,0,0.7,0.2,0.7,0.4c0,0.5-0.1,1.2-0.3,1.6c-0.1,0.4-0.3,0.6-0.7,0.6c-0.6,0-1.7-0.2-2.3-0.2
			c-0.1,0-0.3,0-0.4,0c-0.6,0-0.6,0.6-0.6,1.6c0,2.1,1.1,3.2,3.2,3.2c1.1,0,2.7-0.3,3.5-1.1c0.4-0.5,0.5-1.1,0.5-1.7
			c0-1.2-0.4-2.4-0.8-3.5c0-0.1-0.1-0.3-0.1-0.4c0-0.6,1.8-0.9,2-0.9c0.4,0,0.5,0.4,0.6,0.9c0.5,1.3,0.8,2.8,0.8,4.2
			c0,3.7-3.4,5-6.6,5c-3.6,0-5.8-2.1-5.8-5.7c0-0.6,0.1-1.5,0.1-1.8c0-0.5-0.4-0.7-1-0.8c-0.5-0.1-1-0.3-1.4-0.6
			c-0.3-0.1-0.5-0.3-0.5-0.6c0-0.1,0.2-2,0.8-2c0.2,0,0.4,0.1,0.6,0.2c0.3,0.2,1.2,0.7,1.5,0.7c0.4,0,0.5-0.3,0.6-1
			c0-0.3,0.1-0.6,0.2-0.9c0-0.2,0.1-0.4,0.1-0.5c0-0.5-0.4-0.7-0.8-0.8c-1.7-0.6-2.2-0.9-2.2-1.3c0-0.4,0.4-2.1,0.9-2.1
			c0.2,0,0.4,0.2,0.6,0.3c0.7,0.4,0.9,0.5,1.6,0.8c0.1,0,0.2,0.1,0.3,0.1c0.4,0,0.5-0.3,0.6-0.6c0.2-0.8,0.7-2.5,0.9-3.2
			c0.1-0.3,0.1-0.5,0.4-0.5c0.2,0,0.8,0.2,1.2,0.4C282,44.2,283.2,44.6,283.2,45z"/>
		<path class="st13" d="M305,49.2c0.2,0.1,0.4,0.1,0.4,0.3c0,0.1-0.1,0.2-0.2,0.3c-0.4,0.2-0.4,0.5-0.5,0.9
			c-0.2,1.1-0.3,2.2-0.6,3.3c0,0.1-0.1,0.4-0.1,0.5s0.1,0.3,0.2,0.3c0.1,0,0.2-0.1,0.3-0.1c1.8-1.2,3.2-2.2,5.5-2.2c3,0,5.2,2,5.2,5
			c0,3.4-2.5,4.8-5.4,5.7c-0.7,0.2-2.4,0.6-3.1,0.6c-0.5,0-0.7-0.2-0.9-0.7c-0.2-0.4-0.4-1.2-0.4-1.6c0-0.4,0.3-0.4,0.6-0.4
			c1,0,2.2-0.2,3.2-0.5c1.7-0.4,3.5-1.2,3.5-3.2c0-1.7-1.3-2.5-2.9-2.5c-2.5,0-5.1,2.1-6.6,4c-0.2,0.2-0.4,0.5-0.7,0.5
			c-0.2,0-1.8-0.2-1.8-0.9c0-0.2,0.2-0.6,0.2-0.8c0.2-0.8,0.4-1.6,0.6-2.4c0.3-1.7,0.5-3.5,0.6-5.2c0-0.2,0-0.4,0-0.5
			c0-0.7,0-1.1,0.4-1.1C302.9,48.5,304.6,49.1,305,49.2z M305.4,44c0.4,0,2.3,1.2,2.7,1.5c0.4,0.2,1.8,1,1.8,1.4
			c0,0.4-1,1.9-1.5,1.9c-0.3,0-0.6-0.3-0.8-0.5c-0.9-0.8-2-1.5-3-2c-0.2-0.1-0.6-0.3-0.6-0.5C304.1,45.5,304.8,44,305.4,44z"/>
		<path class="st13" d="M339.6,55c0,3.8-2.8,6.7-5.8,8.6c-0.4,0.2-1.6,0.9-2.1,0.9c-0.7,0-1.7-1.6-1.7-2c0-0.2,0.3-0.3,0.5-0.4
			c2.9-0.9,6.4-3.5,6.4-6.9c0-2-1.3-3.3-3.3-3.3c-2,0-3.6,1-5.1,2.3c-0.1,0.1-0.3,0.2-0.5,0.2c-0.6,0-1.3-1.7-1.3-2.3
			c0-0.4,0.4-0.6,0.7-0.7c1.9-1.1,4.2-1.9,6.4-1.9C337.1,49.4,339.6,51.5,339.6,55z M329.6,44.8c0.1-0.2,0.2-0.5,0.5-0.5
			c0.1,0,0.3,0.1,0.4,0.1c1.5,0.6,4.3,1,6,1.2c0.3,0,0.6,0,0.6,0.4c0,0.3-0.2,1.2-0.2,1.5c-0.1,0.5-0.3,0.7-0.6,0.7
			c-0.8,0-4.6-0.8-5.5-1.1c-1-0.3-1.5-0.4-1.5-0.8C329.1,46,329.4,45.2,329.6,44.8z"/>
		<path class="st13" d="M355.3,46.4c0.2,0.1,0.5,0.2,0.5,0.4c0,0.1-0.1,0.2-0.3,0.3c-0.4,0.2-0.5,0.4-0.7,1
			c-0.8,2.1-1.3,4.5-1.3,6.8c0,0.5,0.1,3.4,0.6,3.4c0.2,0,0.6-0.7,0.6-0.9c0.1-0.3,0.3-0.6,0.5-0.6c0.2,0,0.9,0.5,0.9,0.8
			c0,0.2-1,2.4-1,3.5c0,0.2,0.1,0.8,0.1,1c0,0.1,0,0.3,0,0.4c0,0.6-1.4,1.2-1.9,1.2c-0.4,0-0.7-0.5-1-1.2c-1.1-2.3-1.5-4.8-1.5-7.4
			c0-2.8,0.5-5.3,1.2-7.9c0.1-0.4,0.2-0.8,0.3-1.2c0-0.2,0.1-0.5,0.4-0.5C352.9,45.4,355,46.3,355.3,46.4z M358.3,57.9
			c1,1.3,2,1.7,3.6,1.7c1.8,0,3.6-0.3,5.3-0.8c0.1,0,0.4-0.1,0.5-0.1c0.4,0,0.4,0.6,0.4,1.8c0,0.3,0,0.7-0.3,0.9
			c-0.7,0.4-4.7,0.7-5.7,0.7c-3.9,0-5.5-2-5.5-2.4c0-0.3,0.8-2,1.3-2C358.1,57.7,358.2,57.8,358.3,57.9z M359.1,47.4
			c1,0.2,2.1,0.4,3.1,0.4c1.2,0,2.5-0.2,3.6-0.5c0.1,0,0.3-0.1,0.4-0.1c0.3,0,0.4,0.3,0.5,0.6c0,0.4,0.1,0.9,0.1,1.3
			c0,0.5,0,0.7-0.5,0.8c-1,0.2-3,0.3-4,0.3c-0.7,0-3.7-0.1-4.2-0.5c-0.3-0.2-0.2-0.7-0.2-0.9c0-1.2,0.1-1.5,0.5-1.5
			C358.7,47.3,358.9,47.3,359.1,47.4z"/>
		<path class="st13" d="M380.7,46.2c0.2,0.1,0.6,0.2,0.6,0.5c0,0.1-0.1,0.2-0.2,0.2c-0.6,0.3-0.7,0.5-1,1.2c-0.8,2-1.3,5.1-1.3,7.3
			c0,0.4,0.1,2.7,0.5,2.7c0.2,0,0.3-0.3,0.5-0.9c0.1-0.3,0.4-1.1,0.6-1.1c0.3,0,1,0.5,1,0.8c0,0.3-1.2,3-1.2,4.4c0,0.4,0,0.8,0,1.2
			c0,0.9-1.7,1.2-1.8,1.2c-0.4,0-0.6-0.5-0.8-0.8c-1.1-2.3-1.4-4.8-1.4-7.4c0-2.3,0.3-4.5,0.8-6.7c0.3-1.1,0.6-2.1,0.9-3.1
			c0-0.2,0.1-0.4,0.3-0.4c0.2,0,0.9,0.3,1.5,0.6C380.3,46,380.6,46.1,380.7,46.2z M390.3,45.5c0.1,0,0.2,0.1,0.2,0.2
			c0,0.2-0.1,0.3-0.3,0.5c-0.1,0.2-0.3,0.6-0.3,1.7v0.7c0,0.3,0.1,0.6,0.5,0.6c0.4,0,2-0.5,2.4-0.6c0.1,0,0.3-0.1,0.4-0.1
			c0.5,0,0.6,1.7,0.6,2c0,0.5-0.2,0.6-3,1c-0.5,0.1-0.8,0.2-0.8,0.8c0,0.5,0.2,4.2,0.2,4.8c0,0.6,0.3,0.7,0.8,0.9
			c1,0.5,1.8,1,2.6,1.7c0.3,0.2,0.6,0.5,0.6,0.9c0,0.6-0.8,1.7-1.4,1.7c-0.3,0-0.5-0.2-0.7-0.4c-0.3-0.3-1.5-1.3-1.8-1.3
			c-0.2,0-0.3,0.2-0.4,0.4c-0.4,1.5-2,2-3.5,2c-1.9,0-4-0.9-4-3.1c0-2.2,1.9-3,3.8-3c0.3,0,0.6,0,0.9,0.1h0.2c0.3,0,0.5-0.2,0.5-0.5
			c0-0.6-0.1-2.9-0.1-3.6c0-0.2,0-0.9-0.6-0.9c-0.2,0-1.9,0.1-2.9,0.1h-0.3c-0.6,0-1.6,0-1.8-0.2c-0.2-0.1-0.2-1.5-0.2-1.8
			s0-0.6,0.4-0.6c0.3,0,2.4,0.2,3.7,0.2h0.4c0.6,0,1.1,0,1.1-0.6c0-0.5-0.2-2.8-0.3-3.4c0-0.1,0-0.2,0-0.2c0-0.2,0.1-0.3,0.3-0.3
			C388,45.1,389.8,45.4,390.3,45.5z M386.6,58.9c-0.6,0-1.7,0.2-1.7,0.9c0,0.8,1.2,1,1.8,1c0.9,0,1.5-0.3,1.5-1.3
			C388.1,59,387,58.9,386.6,58.9z"/>
		<path class="st13" d="M409.6,58.3c-0.5,0-0.6-0.1-0.6-0.8c0-2.4,1.5-3.8,3-5.2c0.8-0.7,1.4-1.4,1.4-2.2c0-1.2-1-2-2.8-2
			c-1.6,0-2.9,0.9-3.7,1.8c-0.2,0.2-0.3,0.4-0.5,0.4c-0.1,0-0.3-0.1-0.5-0.3l-1-1c-0.2-0.2-0.3-0.4-0.3-0.5c0-0.1,0.1-0.3,0.3-0.5
			c1.3-1.5,3.4-2.5,5.9-2.5c3.4,0,5.5,1.9,5.5,4.2c0,2.1-1.2,3.1-2.8,4.5c-1.1,0.9-1.9,1.9-1.9,3.4c0,0.6-0.1,0.7-0.5,0.7H409.6z
			 M412.2,61.7c0,1-0.6,1.8-1.8,1.8c-0.9,0-1.7-0.6-1.7-1.6c0-1.1,0.7-1.9,1.8-1.9C411.5,60,412.2,60.7,412.2,61.7z"/>
	</g>
</g>
</svg>
