<?xml version="1.0" encoding="utf-8"?>
<!-- Generator: Adobe Illustrator 28.0.0, SVG Export Plug-In . SVG Version: 6.00 Build 0)  -->
<svg version="1.1" id="レイヤー_1" xmlns="http://www.w3.org/2000/svg" xmlns:xlink="http://www.w3.org/1999/xlink" x="0px"
	 y="0px" viewBox="0 0 810 419.4" style="enable-background:new 0 0 810 419.4;" xml:space="preserve">
<style type="text/css">
	.st0{clip-path:url(#SVGID_00000168082808702602954180000000785004196917114546_);}
	.st1{fill:#FFFFFF;}
	.st2{fill:none;}
	.st3{fill:#B3B3B3;}
	.st4{fill:#CCCCCC;}
	.st5{fill:#2E384C;}
	.st6{fill:#80DEF0;}
	.st7{clip-path:url(#SVGID_00000060708860639165735060000017110934162782555534_);}
	.st8{fill:#F001BC;}
	.st9{fill:#F29400;}
	.st10{fill:#59C2E1;}
	.st11{fill:#E6E6E6;}
	.st12{fill:#9CDBED;}
	.st13{fill:#F29600;}
	.st14{fill:#796A56;}
	.st15{fill:none;stroke:#9BDAED;stroke-width:2.0612;stroke-linecap:round;stroke-linejoin:round;stroke-miterlimit:10;}
	.st16{fill:none;stroke:#999999;stroke-width:4.3393;stroke-linecap:round;stroke-linejoin:round;stroke-miterlimit:10;}
	.st17{clip-path:url(#SVGID_00000070077969478615080440000012408807864805923492_);fill:#3C3C3C;}
	.st18{clip-path:url(#SVGID_00000070077969478615080440000012408807864805923492_);fill:#282828;}
	.st19{fill:none;stroke:#FF0000;stroke-width:4;stroke-linecap:round;stroke-linejoin:round;stroke-miterlimit:10;}
	.st20{fill:#FF0000;}
	.st21{fill:none;stroke:#FF0000;stroke-width:10;stroke-miterlimit:10;}
	.st22{fill:#3C3C3C;}
	.st23{fill:#00BDE1;}
	.st24{fill:#D2830E;}
	.st25{fill:#FFFF00;}
	.st26{fill:#17A1BF;}
	.st27{clip-path:url(#SVGID_00000067228224023684700220000013183538033685341058_);}
	.st28{fill:none;stroke:#FF0000;stroke-width:9.6103;stroke-miterlimit:10;}
	.st29{fill:#6C757D;}
	.st30{fill:#D0D0D0;}
	.st31{clip-path:url(#SVGID_00000061469038435254880310000008074205002252081065_);}
	.st32{clip-path:url(#SVGID_00000174560416880969772130000006961869625035572886_);}
	.st33{fill:#7F7F7F;}
	.st34{fill:#3F3F3F;}
	.st35{fill:#FEF4E4;}
	.st36{fill:#9BDAED;}
	.st37{opacity:0.3;fill:#F29600;}
	.st38{fill:#FFFFFF;stroke:#F29600;stroke-width:5.92;stroke-linecap:round;stroke-linejoin:round;}
	.st39{fill:#CCF2F9;}
	.st40{fill:none;stroke:#FFFFFF;stroke-width:0;stroke-linecap:round;stroke-linejoin:round;}
	.st41{fill:none;stroke:#F29600;stroke-width:5.92;stroke-linecap:round;stroke-linejoin:round;}
</style>
<g>
	<g>
		<g>
			<defs>
				<rect id="SVGID_00000080197913659346180650000006696101818069393288_" x="-830" y="55.5" width="810" height="443.8"/>
			</defs>
			<clipPath id="SVGID_00000030464098013755286410000003914561933632233349_">
				<use xlink:href="#SVGID_00000080197913659346180650000006696101818069393288_"  style="overflow:visible;"/>
			</clipPath>
			
				<g transform="matrix(1 0 0 1 0 -3.814697e-06)" style="clip-path:url(#SVGID_00000030464098013755286410000003914561933632233349_);">
				
					<image style="overflow:visible;" width="2372" height="4724" xlink:href="YOYAKUMA/---WEBグラフィック/---パーツ/---機能/screencapture-e86244f07b8e453b924f805d432e33cc-vfs-cloud9-ap-northeast-1-amazonaws-reserve-test22-241-2023-12-20-15_55_25.png"  transform="matrix(0.3797 0 0 0.3797 -875.3243 55.4954)">
				</image>
			</g>
		</g>
	</g>
	<g>
		<defs>
			<rect id="SVGID_00000135667090578249187160000013626941229944446873_" x="-830" y="0" width="810" height="55.5"/>
		</defs>
		<clipPath id="SVGID_00000056387764312217779860000006589445719907378348_">
			<use xlink:href="#SVGID_00000135667090578249187160000013626941229944446873_"  style="overflow:visible;"/>
		</clipPath>
		
			<g transform="matrix(1 0 0 1 6.103516e-05 0)" style="clip-path:url(#SVGID_00000056387764312217779860000006589445719907378348_);">
			
				<image style="overflow:visible;" width="2540" height="2464" xlink:href="YOYAKUMA/---WEBグラフィック/スクリーンショット 2023-10-20 14.35.21.png"  transform="matrix(0.3426 0 0 0.3426 -851.5058 -9.5895)">
			</image>
		</g>
	</g>
</g>
<g>
	<g>
		<g>
			<polygon class="st13" points="327.2,124.9 370.9,130 351.6,149.3 332.4,168.6 			"/>
			
				<rect x="349.7" y="134.3" transform="matrix(0.7071 -0.7071 0.7071 0.7071 -6.8218 302.5997)" class="st13" width="24.3" height="50.5"/>
		</g>
		<g>
			<polygon class="st23" points="482.8,124.9 439.1,130 458.4,149.3 477.6,168.6 			"/>
			
				<rect x="422.9" y="147.4" transform="matrix(0.7071 -0.7071 0.7071 0.7071 18.4495 363.6098)" class="st23" width="50.5" height="24.3"/>
		</g>
	</g>
	<path class="st13" d="M472.5,209.5H337.5c-8.2,0-14.9,6.7-14.9,14.9v6v12.2v75.3c0,8.2,6.7,14.9,14.9,14.9h135.1
		c8.2,0,14.9-6.7,14.9-14.9v-75.3v-12.2v-6C487.4,216.2,480.7,209.5,472.5,209.5z M477.9,317.8c0,3-2.4,5.4-5.4,5.4H337.5
		c-3,0-5.4-2.4-5.4-5.4v-67.7l56.8,45.4c4.5,3.6,10.3,5.4,16.1,5.4c5.8,0,11.6-1.8,16.1-5.4l56.8-45.4V317.8z M415.2,288.1
		c-5.5,4.4-14.9,4.4-20.4,0L332.1,238v-13.6c0-3,2.4-5.4,5.4-5.4h135.1c3,0,5.4,2.4,5.4,5.4V238L415.2,288.1z"/>
	<g>
		<path class="st13" d="M264.2,378.1h28.2v31.7h-4v-28H268v28.2h-3.8V378.1z M266.8,386.9h22.6v3.6h-22.6V386.9z M266.8,395.5h22.6
			v3.5h-22.6V395.5z M266.8,404.2h22.6v3.6h-22.6V404.2z M275.7,372.7l4.5,0.6c-0.5,1.2-1,2.5-1.5,3.7c-0.5,1.2-1,2.3-1.4,3.2
			l-3.4-0.6c0.2-0.7,0.5-1.4,0.7-2.2c0.2-0.8,0.4-1.6,0.6-2.4C275.5,374.1,275.6,373.4,275.7,372.7z"/>
		<path class="st13" d="M301.5,405.3c1.6-0.2,3.5-0.3,5.7-0.5c2.1-0.2,4.4-0.4,6.8-0.6c2.4-0.2,4.8-0.4,7.2-0.7l0,2.9
			c-2.3,0.3-4.6,0.5-6.9,0.8c-2.3,0.3-4.5,0.5-6.6,0.7c-2.1,0.2-4,0.4-5.7,0.6L301.5,405.3z M301.6,379.6h20v2.8h-20V379.6z
			 M319.2,373.1l1.8,2.8c-1.6,0.3-3.5,0.7-5.5,0.9c-2.1,0.3-4.2,0.5-6.4,0.6c-2.2,0.1-4.3,0.3-6.3,0.3c-0.1-0.4-0.2-0.9-0.3-1.4
			c-0.2-0.5-0.4-1-0.5-1.4c1.5-0.1,3-0.2,4.6-0.3c1.6-0.1,3.2-0.3,4.7-0.4c1.5-0.2,3-0.3,4.4-0.5
			C316.9,373.6,318.1,373.3,319.2,373.1z M302.6,398.8H321v2.8h-18.4V398.8z M302.7,384.5h18.2v12.2h-18.2V384.5z M305.8,387v2.4
			h11.9V387H305.8z M305.8,391.8v2.4h11.9v-2.4H305.8z M309.9,376.3h3.5v29.1h-3.5V376.3z M325.8,373.3h3.6c0,3.3-0.1,6.4-0.1,9.4
			c-0.1,3-0.2,5.9-0.5,8.5c-0.3,2.7-0.8,5.2-1.4,7.5c-0.7,2.3-1.6,4.4-2.8,6.3c-1.2,1.9-2.7,3.6-4.6,5c-0.2-0.3-0.4-0.6-0.7-1
			c-0.3-0.4-0.6-0.7-1-1c-0.3-0.3-0.7-0.6-1-0.8c1.8-1.3,3.2-2.8,4.3-4.5c1.1-1.7,1.9-3.6,2.5-5.8c0.6-2.1,1-4.4,1.2-6.9
			c0.2-2.5,0.4-5.1,0.4-7.9C325.8,379.4,325.8,376.5,325.8,373.3z M321.4,382h14.2v3.5h-14.2V382z M334.1,382h3.6c0,0.5,0,0.9,0,1.1
			c0,0.3,0,0.5,0,0.7c-0.1,4.2-0.2,7.7-0.3,10.6c-0.1,2.9-0.2,5.3-0.4,7.1c-0.1,1.8-0.3,3.3-0.6,4.3c-0.2,1-0.5,1.7-0.8,2.2
			c-0.4,0.6-0.8,1-1.3,1.2c-0.5,0.2-1,0.4-1.6,0.5c-0.6,0.1-1.3,0.2-2.2,0.2c-0.9,0-1.8,0-2.7-0.1c-0.1-0.5-0.2-1.1-0.4-1.8
			c-0.2-0.7-0.4-1.3-0.7-1.8c0.9,0.1,1.8,0.1,2.6,0.1c0.8,0,1.4,0,1.8,0c0.3,0,0.6,0,0.8-0.1c0.2-0.1,0.4-0.3,0.6-0.5
			c0.2-0.3,0.4-0.9,0.6-1.8c0.2-0.9,0.3-2.3,0.4-4.1c0.1-1.8,0.2-4,0.4-6.8c0.1-2.8,0.2-6.1,0.3-10.1V382z"/>
		<path class="st13" d="M352.6,401.4c0.9,1.4,2.1,2.5,3.7,3.1c1.6,0.7,3.5,1.1,5.7,1.2c1.1,0,2.5,0,4.2,0.1c1.6,0,3.4,0,5.2,0
			c1.8,0,3.5-0.1,5.2-0.1c1.7-0.1,3.2-0.1,4.5-0.2c-0.1,0.3-0.3,0.6-0.5,1.1c-0.2,0.4-0.3,0.9-0.5,1.4c-0.1,0.5-0.2,0.9-0.3,1.3
			c-1.1,0.1-2.5,0.1-4.1,0.1c-1.6,0-3.2,0.1-4.9,0.1c-1.7,0-3.3,0-4.8,0c-1.5,0-2.9-0.1-4.1-0.1c-2.5-0.1-4.7-0.5-6.4-1.2
			c-1.8-0.7-3.3-1.9-4.5-3.4c-1,0.9-2,1.7-3,2.5c-1,0.8-2.1,1.7-3.2,2.6l-1.8-3.8c1-0.6,2-1.3,3.1-2.1c1.1-0.8,2.2-1.6,3.2-2.4
			H352.6z M352.6,388.5v14.4H349V392h-5.5v-3.5H352.6z M344.1,376l2.6-2.4c0.9,0.6,1.7,1.2,2.6,2c0.9,0.7,1.7,1.5,2.5,2.3
			s1.4,1.5,1.8,2.1l-2.8,2.6c-0.4-0.6-1-1.4-1.7-2.1c-0.7-0.8-1.5-1.6-2.4-2.4C345.8,377.4,345,376.7,344.1,376z M356.5,382.8H377
			v2.8h-17v17.9h-3.6V382.8z M356.6,374.3h19.6v2.9h-19.6V374.3z M358.4,388.6h18.1v2.7h-18.1V388.6z M358.4,394.3h18.1v2.8h-18.1
			V394.3z M360.2,379.9l2.4-2.1c1.2,0.5,2.6,1,4,1.5c1.4,0.6,2.8,1.2,4.1,1.8c1.3,0.6,2.4,1.2,3.3,1.7l-2.6,2.3
			c-0.8-0.5-1.8-1.1-3.1-1.7c-1.3-0.6-2.6-1.3-4.1-1.9C362.8,381,361.5,380.4,360.2,379.9z M365.8,384.1h3.4v19.3h-3.4V384.1z
			 M374.9,374.3h0.8l0.8-0.2l2.3,1.8c-0.9,0.9-1.9,1.7-3.1,2.6c-1.1,0.9-2.3,1.6-3.6,2.4c-1.3,0.7-2.5,1.4-3.7,1.9
			c-0.2-0.3-0.6-0.7-0.9-1.2c-0.4-0.4-0.7-0.8-1-1c1.1-0.5,2.1-1,3.2-1.7c1.1-0.6,2.1-1.3,3-2c0.9-0.7,1.7-1.3,2.2-2V374.3z
			 M375.2,382.8h3.6v17.2c0,0.8-0.1,1.5-0.3,1.9c-0.2,0.5-0.6,0.8-1.2,1.1c-0.6,0.2-1.3,0.4-2.2,0.5c-0.9,0.1-2,0.1-3.3,0.1
			c-0.1-0.5-0.2-1-0.4-1.6c-0.2-0.6-0.4-1.1-0.6-1.5c0.8,0,1.6,0,2.3,0c0.7,0,1.2,0,1.4,0c0.3,0,0.4-0.1,0.5-0.2
			c0.1-0.1,0.1-0.3,0.1-0.5V382.8z"/>
		<path class="st13" d="M389.8,372.8l3.7,0.7c-0.3,1.8-0.8,3.5-1.3,5.2c-0.5,1.7-1.2,3.3-1.8,4.8c-0.7,1.5-1.4,2.8-2.2,4
			c-0.2-0.2-0.5-0.5-0.9-0.7c-0.4-0.3-0.8-0.6-1.2-0.8c-0.4-0.3-0.7-0.5-1-0.6c1.1-1.5,2.1-3.4,2.9-5.6
			C388.8,377.4,389.4,375.1,389.8,372.8z M393.6,379.7h3.8v7.9c0,1.7-0.1,3.5-0.4,5.5c-0.2,2-0.7,3.9-1.4,5.9
			c-0.7,2-1.6,3.9-2.9,5.8c-1.3,1.9-2.9,3.5-4.9,5c-0.2-0.2-0.4-0.5-0.7-0.9c-0.3-0.4-0.7-0.7-1-1.1c-0.3-0.4-0.7-0.6-0.9-0.8
			c1.9-1.3,3.4-2.8,4.5-4.4c1.1-1.6,2-3.3,2.5-5c0.6-1.7,0.9-3.4,1.1-5.1c0.2-1.7,0.3-3.3,0.3-4.8V379.7z M385.6,388.8h18.9v3.6
			h-18.9V388.8z M389.8,378h13.6v3.5h-13.6V378z M396.3,394.2c0.3,0.3,0.8,0.7,1.3,1.3c0.6,0.6,1.2,1.3,1.9,2c0.7,0.7,1.4,1.5,2,2.3
			c0.7,0.8,1.3,1.4,1.8,2c0.5,0.6,0.9,1,1.2,1.3l-2.6,3.2c-0.3-0.5-0.8-1.2-1.3-1.9c-0.5-0.7-1.1-1.5-1.7-2.2
			c-0.6-0.8-1.2-1.6-1.8-2.3c-0.6-0.7-1.2-1.4-1.8-2.1c-0.6-0.6-1-1.2-1.4-1.6L396.3,394.2z M405.7,376.2h14.8v32h-3.8v-28.5h-7.3
			v29h-3.7V376.2z M407.3,402.1h11.5v3.6h-11.5V402.1z"/>
		<path class="st13" d="M459,377.3c-0.2,0.4-0.5,0.9-0.8,1.6c-0.3,0.7-0.5,1.2-0.7,1.7c-0.5,1.3-1.1,2.7-1.8,4.3
			c-0.7,1.5-1.5,3.1-2.4,4.7c-0.9,1.6-1.9,3-3,4.5c-1.2,1.6-2.6,3.3-4.2,4.9c-1.6,1.7-3.4,3.3-5.4,4.8c-2,1.6-4.3,3-6.8,4.4
			l-3.5-3.2c3.7-1.8,6.9-3.8,9.5-6.1c2.7-2.3,5-4.8,7.1-7.4c1.7-2.1,3-4.2,4-6.3c1-2.1,1.9-4.2,2.6-6.1c0.2-0.5,0.3-1,0.5-1.6
			c0.2-0.6,0.3-1.2,0.4-1.7L459,377.3z M437.4,381.6c1,0.6,2.1,1.3,3.2,2.1c1.1,0.8,2.3,1.6,3.4,2.4c1.2,0.8,2.3,1.6,3.3,2.4
			c1,0.8,1.9,1.5,2.7,2.1c2.1,1.7,4.1,3.4,6.1,5.1s3.7,3.5,5.3,5.2l-3.2,3.5c-1.7-2-3.5-3.8-5.3-5.5c-1.8-1.7-3.7-3.4-5.7-5.1
			c-0.7-0.6-1.6-1.3-2.5-2c-0.9-0.7-2-1.5-3.1-2.3c-1.1-0.8-2.2-1.6-3.4-2.4c-1.2-0.8-2.3-1.6-3.5-2.3L437.4,381.6z"/>
		<path class="st13" d="M471.9,388.7c0.5,0,1,0.1,1.7,0.1c0.7,0,1.4,0.1,2.1,0.1c0.8,0,1.5,0,2.2,0c0.5,0,1.3,0,2.2,0
			c0.9,0,2,0,3.2,0c1.2,0,2.4,0,3.7,0c1.3,0,2.6,0,3.9,0c1.3,0,2.5,0,3.7,0c1.1,0,2.2,0,3,0c0.9,0,1.6,0,2,0c1,0,1.8,0,2.6-0.1
			c0.8-0.1,1.4-0.1,1.9-0.1v5c-0.5,0-1.1-0.1-1.9-0.1c-0.8-0.1-1.7-0.1-2.6-0.1c-0.5,0-1.1,0-2,0c-0.9,0-1.9,0-3.1,0
			c-1.1,0-2.4,0-3.7,0c-1.3,0-2.6,0-3.9,0c-1.3,0-2.6,0-3.7,0c-1.2,0-2.2,0-3.2,0c-0.9,0-1.7,0-2.2,0c-1.1,0-2.2,0-3.3,0.1
			c-1.1,0-2,0.1-2.7,0.1V388.7z"/>
		<path class="st13" d="M512.2,405.3c1.7-1.2,3.2-2.7,4.3-4.4c1.1-1.7,2-3.5,2.6-5.3c0.3-0.9,0.5-2,0.7-3.3c0.2-1.3,0.3-2.8,0.3-4.3
			c0.1-1.5,0.1-3,0.1-4.5c0-1.5,0-2.8,0-3.9c0-0.7,0-1.3-0.1-1.8c-0.1-0.5-0.1-1-0.2-1.4h4.6c0,0.1,0,0.3-0.1,0.7
			c0,0.3-0.1,0.7-0.1,1.2c0,0.4,0,0.9,0,1.4c0,1.1,0,2.5,0,4c0,1.5-0.1,3.1-0.2,4.7c-0.1,1.6-0.2,3.2-0.4,4.6
			c-0.1,1.5-0.4,2.7-0.7,3.7c-0.6,2.2-1.5,4.2-2.7,6.2c-1.2,1.9-2.7,3.6-4.4,5L512.2,405.3z M530.6,405.7c0.1-0.3,0.1-0.7,0.2-1.2
			c0.1-0.4,0.1-0.9,0.1-1.3c0-0.3,0-0.9,0-1.8c0-0.9,0-2,0-3.3c0-1.3,0-2.7,0-4.2c0-1.5,0-3,0-4.6c0-1.5,0-3,0-4.3
			c0-1.3,0-2.5,0-3.5c0-1,0-1.7,0-2.1c0-0.8,0-1.5-0.1-2.1c-0.1-0.6-0.1-0.9-0.1-1.1h4.6c0,0.1,0,0.5-0.1,1.1
			c-0.1,0.6-0.1,1.3-0.1,2.1c0,0.4,0,1.1,0,2c0,0.9,0,2,0,3.3c0,1.3,0,2.6,0,4c0,1.4,0,2.8,0,4.2s0,2.7,0,3.9c0,1.2,0,2.2,0,3
			c0,0.8,0,1.4,0,1.6c1.2-0.5,2.4-1.2,3.7-2.1c1.3-0.9,2.6-1.9,3.8-3.1c1.3-1.2,2.4-2.5,3.3-3.9l2.4,3.4c-1.1,1.5-2.5,3-4,4.4
			c-1.5,1.4-3.1,2.7-4.8,3.8c-1.7,1.1-3.3,2.1-4.8,2.9c-0.4,0.2-0.7,0.4-0.9,0.5c-0.2,0.2-0.4,0.3-0.6,0.5L530.6,405.7z"/>
	</g>
	<ellipse class="st13" cx="201.9" cy="64.7" rx="162" ry="52.6"/>
	<g>
		<path class="st24" d="M279.3,34c-0.8-0.7-1.5-1.5-2.2-2.2c-0.7-0.8-1.4-1.5-2.1-2.2c-0.7-0.7-1.3-1.3-1.8-1.9
			c-0.7-0.8-1.4-1.6-2.2-2.5c-0.8-1-1.7-2-2.6-3c-1-1.1-1.9-2.1-2.8-3c-2.4-2.3-5-3.4-7.6-3.2c-2.5,0.2-4.8,1.6-6.8,3.9
			c-0.6,0.7-1.2,1.5-1.9,2.3c-0.6,0.8-1.2,1.5-1.8,2.3c-0.6,0.7-1.2,1.5-1.7,2.1c-0.2,0.3-0.5,0.6-0.7,0.8v-2.2c0-2-1.2-3.7-2.9-4.5
			c0.2-0.3,0.4-0.5,0.6-0.8c0.9-1.2,1.2-2.7,0.8-4.1s-1.3-2.6-2.6-3.3l-3.3-1.7c-2.2-1.2-4.9-0.5-6.4,1.5c-0.2,0.3-0.4,0.6-0.6,0.8
			h-2.4c-0.4-2.3-2.5-4.1-4.9-4.1h-3.8c-2.4,0-4.5,1.8-4.9,4.1h-3.8c-1.9,0-3.6,1.1-4.4,2.7v-0.1c0-2.8-2.2-5-5-5h-18.8
			c-0.8,0-1.6,0.2-2.3,0.6h-10.9c-1,0-1.9,0.3-2.7,0.8c-0.6-0.2-1.2-0.4-1.9-0.4h-6.1c-0.7-0.9-1.7-1.5-2.8-1.8L152.3,9
			c-2.3-0.6-4.7,0.6-5.7,2.7h-2.5c-0.7-0.8-1.6-1.4-2.6-1.7l-3.6-1c-2.5-0.7-5,0.6-6,3c-0.4,1-1,2-1.7,3c-0.7,1-1.4,1.8-2.2,2.4
			c-1.3,1.1-2,2.7-1.8,4.4c0.1,1.2,0.7,2.3,1.5,3.1v6.4c0,2.8,2.2,5,5,5h0.5v11.5c0,2.8,2.2,5,5,5h3.7c1.2,0,2.2-0.4,3.1-1h9
			c0.8,0.6,1.9,1,3,1h3.8c2.8,0,5-2.2,5-5v-0.4c0.4,0.5,0.9,1,1.5,1.3c1.2,0.7,2.7,0.8,4,0.4c1.1-0.4,2.2-0.7,3.5-1.2
			c0.6,2.1,2.5,3.7,4.8,3.7h23.3c2.8,0,5-2.2,5-5V43c0,0,0,0,0,0c0.6,0.1,1.2,0.1,1.8,0v4.7c0,2.8,2.2,5,5,5h3.9
			c1.2,0,2.3-0.4,3.1-1.1h7c0.8,0.6,1.8,0.9,2.9,0.9h4c2.8,0,5-2.2,5-5V36.4c0.2,0.4,0.5,0.8,0.8,1.2l3.9,4c1.1,1.1,2.6,1.6,4.1,1.5
			c1.5-0.2,2.9-1,3.7-2.3c0.3-0.4,0.6-0.9,0.9-1.4c0.4-0.5,0.7-1,1.1-1.5c0.4-0.5,0.9-1.2,1.4-1.9c0.5-0.7,1-1.4,1.5-2.1l0.6-0.8
			c0.6,0.7,1.2,1.5,1.9,2.3c0.8,1,1.6,1.9,2.4,2.9c0.8,0.9,1.7,1.9,2.6,3c1,1.1,1.9,2.1,2.9,3.2c1,1.1,2,2,2.9,2.9
			c0.9,0.9,2.2,1.4,3.5,1.4c0.1,0,0.1,0,0.2,0c1.4-0.1,2.7-0.7,3.6-1.7l3.3-3.9c1.8-2.1,1.6-5.2-0.5-7C280.8,35.5,280,34.8,279.3,34
			z M168.6,35.3c-0.3,0.1-0.5,0.1-0.8,0.2c-0.8,0.2-1.6,0.7-2.2,1.2c-0.1-0.2-0.2-0.5-0.3-0.7c0.9-0.2,1.6-0.7,2.2-1.4
			c0.3,0.2,0.7,0.3,1,0.4V35.3z"/>
		<path class="st24" d="M169.9,83.7c-0.3-0.9-0.7-2-1.3-3.3c-0.5-1.2-1.1-2.5-1.7-3.9c-0.2-0.3-0.3-0.6-0.5-0.9l1.1-0.5
			c1.3-0.5,2.3-1.6,2.7-2.9c0.5-1.3,0.4-2.7-0.2-4c-0.3-0.5-0.6-1.1-1-1.8c-0.4-0.6-0.7-1.2-1.1-1.9c-0.4-0.7-0.8-1.3-1.2-1.8
			c-1.3-2-3.9-2.7-6.1-1.8l-2.6,1.1c-0.1,0.1-0.2,0.1-0.4,0.2c-0.4,0.1-0.8,0.2-1.2,0.3l-2.6,1.1c-1.4,0.6-2.4,1.7-2.9,3.1
			c-0.2-0.4-0.4-0.9-0.7-1.2c-0.8-1.1-2.1-1.8-3.5-2l-4.8-0.5c-1.4-0.1-2.8,0.3-3.9,1.3c-1.1,1-1.6,2.3-1.6,3.8c0,0.9,0,1.9-0.1,2.9
			c-0.3,0-0.5,0-0.7,0c-0.6,0-1.2,0-1.8,0.1c-0.4,0-0.9,0-1.3,0c-0.4,0-0.8,0-1.2,0.1c-0.6-2.2-2.5-3.7-4.8-3.7h-5.7
			c0.1-1-0.2-2-0.7-2.9c-0.7-1.2-1.9-2-3.2-2.3l-4-0.9c-2.6-0.6-5.3,1-5.9,3.6c0,0.1,0,0.1-0.1,0.2c-0.6-1.1-1.6-2-2.7-2.4l-3.4-1.2
			C99.6,61,98.2,61,97,61.6c-1.2,0.6-2.1,1.6-2.6,2.9c-0.2,0.7-0.6,1.5-0.9,2.4c0,0.1-0.1,0.2-0.1,0.3c-0.8,0.4-1.5,0.9-2,1.7
			l-0.9,1.3c0-0.1,0-0.3,0-0.4c-0.1-1.4-0.8-2.8-1.9-3.6l-2.8-2.2c-1.2-0.9-2.8-1.3-4.3-0.9l-0.3,0.1H59.9c-1.3,0-2.5,0.5-3.4,1.3
			c-0.7-2-2.5-3.5-4.7-3.5H40c-2.8,0-5,2.2-5,5v23.1c0,2.8,2.2,5,5,5h3.8c2.8,0,5-2.2,5-5V74.5h3c1.3,0,2.5-0.5,3.4-1.3
			c0.2,0.6,0.5,1.2,0.9,1.6c-2.6,0.2-4.6,2.4-4.6,5v3.7c0,2.8,2.2,5,5,5h9.5v2.5l-1.3,0c-1.8-0.1-3.5,0.9-4.4,2.4
			c-0.9,1.6-1,3.5-0.1,5.1c0.1,0.2,0.3,0.6,0.6,1.2c0.2,0.6,0.3,0.8,0.3,0.9c0.4,2.4,2.5,4.1,4.9,4.1c1.6,0,3.1,0,4.3-0.1
			c1.6-0.1,3-0.3,4.3-0.8c2.5-0.9,3.8-2.4,4.4-3.6c0.7-1.3,1-2.9,1-4.7V94l0.9,0.5c2,1.2,4.7,0.8,6.2-1c0.9-1,1.7-2.1,2.6-3.3
			c0,0.1,0,0.3-0.1,0.4c-0.2,1.1-0.5,2-0.9,2.7c-0.7,1.3-0.7,2.8-0.2,4.2c0.6,1.3,1.7,2.4,3,2.9c0,0,0.1,0,0.4,0.2
			c0.4,0.2,0.7,0.3,1,0.5c0.2,0.1,0.4,0.2,0.6,0.3c0.4,0.2,0.8,0.4,1.2,0.5c0.8,1.7,2.5,2.9,4.6,2.9h3.4c2.8,0,5-2.2,5-5v-0.5
			l1.9-0.7c0.1,0.1,0.2,0.3,0.2,0.6c0.1,0.4,0.2,0.6,0.2,0.6c0.1,2.6,2.2,4.7,4.9,4.8c1.1,0,2.1,0,3.2,0.1c1.3,0,2.3,0,3.2-0.2
			c1.3-0.2,2.4-0.5,3.4-1c1.2-0.6,2.3-1.5,3.3-2.8c0.2-0.3,0.4-0.6,0.6-0.9c0.5,0.7,1.2,1.2,2.1,1.5l4.2,1.7
			c0.6,0.2,1.2,0.3,1.8,0.3c1.2,0,2.4-0.5,3.4-1.3c0.4,0.3,0.9,0.4,1.5,0.5c0.7,0.1,1.5,0.3,2.4,0.4c3.2,0.4,6.1,0.2,8.4-0.9
			c2-1,3.6-2.6,4.7-4.9c0.7-1.4,1.2-3,1.6-5c0-0.2,0.1-0.3,0.1-0.5c0,0,0.1,0,0.1,0.1c1.3,0.7,2.9,0.7,4.3,0.1l4.1-1.9
			C169.6,88.8,170.7,86.2,169.9,83.7z M88.6,73.9c0,0.4,0,0.8,0,1.2l-0.4-0.2c-0.1-0.1-0.3-0.1-0.4-0.2C88,74.5,88.3,74.2,88.6,73.9
			z M151.1,70.1c0,0.1,0.1,0.2,0.2,0.3c-0.1,0-0.1,0-0.2,0C151.1,70.3,151.1,70.2,151.1,70.1z M130.8,89.9c0.1-1.4,0.2-3,0.3-4.7
			c0.5,0.2,1.1,0.2,1.6,0.2c-0.2,0.4-0.3,0.9-0.5,1.3C131.8,87.8,131.3,88.8,130.8,89.9z"/>
		<path class="st24" d="M205.6,92c-1.9-1.1-3.5-2.3-4.8-3.6c-1.3-1.3-2.4-2.7-3.3-4c-0.9-1.4-1.6-2.8-2.1-4.2
			c-0.5-1.5-0.9-2.9-1.2-4.3c-0.3-1.4-0.5-2.8-0.5-4c-0.1-1.3-0.1-2.5-0.1-3.5c0-2.8-2.2-5-5-5h-12.3c-2.8,0-5,2.2-5,5v3.9
			c0,2.8,2.2,5,5,5h1.4c-0.9,3.3-2.1,6.1-3.7,8.5c-1.8,2.8-4.2,4.9-7.2,6.5c-1.6,0.8-2.6,2.3-2.7,4.1c-0.1,1.7,0.7,3.4,2.1,4.4
			c0.1,0.1,0.4,0.3,0.8,0.7c0.4,0.4,0.8,0.7,1.2,1.1c0.3,0.3,0.5,0.5,0.7,0.7c1,1.1,2.3,1.6,3.7,1.6c0.9,0,1.8-0.2,2.6-0.7
			c3-1.8,5.7-4,7.9-6.6c1.1-1.3,2.2-2.7,3.1-4.2c1.2,1.8,2.6,3.6,4.1,5.2c2,2,4.3,3.9,6.9,5.5c2.2,1.4,5.2,0.8,6.7-1.4
			c0.1-0.1,0.3-0.4,0.6-0.8c0.3-0.3,0.6-0.7,0.9-1c0.3-0.3,0.5-0.5,0.5-0.5c1.3-1,2.1-2.6,2-4.3C208,94.3,207.1,92.8,205.6,92z"/>
		<path class="st24" d="M233.8,67.1c-2.2-1.7-4.8-2.6-7.5-2.6c-1.2,0-2.4,0.2-3.5,0.5c0,0-0.1-0.1-0.1-0.1c-0.9-1.2-2.3-2-3.8-2.1
			l-4.4-0.2c-2.7-0.1-5.1,2-5.2,4.7c0,0.4-0.1,1-0.1,1.5c0,0.5-0.1,1.1-0.2,1.7c-0.1,0.9-0.2,1.8-0.4,2.8c-0.1,1.1-0.3,2.1-0.4,3.2
			c-0.1,1.1-0.2,2.1-0.2,3.1c-0.1,1.1-0.1,2.1-0.1,3.1c0,1.3,0.1,2.6,0.2,3.8c0.1,1.1,0.2,2.1,0.3,2.8c0.3,2.1,1.8,3.7,3.8,4.2
			c-0.4,1.4-0.2,3,0.6,4.2l2.4,3.7c0.9,1.4,2.5,2.3,4.2,2.3c0.3,0,0.6,0,0.9-0.1c2.7-0.5,5.2-1.2,7.4-2.2c2.5-1.1,4.6-2.5,6.4-4.2
			c1.9-1.8,3.3-4,4.3-6.6c1-2.5,1.5-5.3,1.5-8.4c0-3.2-0.5-6.1-1.5-8.6C237.4,70.9,235.8,68.7,233.8,67.1z M222.1,84.9
			c0,0,0-0.1,0-0.1c0-0.7,0.2-1.5,0.5-2.3c0.3-0.9,0.7-1.7,1.3-2.5c0.4-0.6,0.8-1,1.3-1.4c0,0.1,0.1,0.2,0.1,0.3
			c0.3,0.9,0.4,2,0.4,3.4c0,1.4-0.2,2.6-0.6,3.5c-0.3,0.8-0.8,1.4-1.4,1.8c-0.4,0.3-0.9,0.6-1.4,0.9c0-0.2,0-0.4,0-0.6
			c-0.1-0.7-0.1-1.3-0.2-1.8C222.1,85.6,222.1,85.2,222.1,84.9z"/>
		<path class="st24" d="M278.3,89.3c-0.8-0.6-1.8-1.4-2.9-2.1c2.3-0.5,3.9-2.5,3.9-4.8l0-3.8c0-0.9-0.2-1.8-0.7-2.5
			c0.1-0.5,0.2-1,0.2-1.5l0-3.7c0-1.5-0.6-2.9-1.7-3.8c-1.1-1-2.6-1.4-4.1-1.1c-1.1,0.2-2.3,0.3-3.4,0.5c-0.2-0.8-0.6-1.5-1.2-2.1
			c-0.9-1-2.3-1.6-3.7-1.6h-4.4c-1.5,0-3,0.7-3.9,1.9c-0.5,0.6-0.8,1.4-1,2.2c-0.1,0-0.2,0-0.2,0c-0.8-0.1-1.6-0.2-2.3-0.3
			c-0.7-0.1-1.4-0.2-2-0.3c-1.5-0.2-2.9,0.2-4.1,1.2c-1.1,1-1.7,2.4-1.7,3.9l0.1,3.7c0,0.6,0.1,1.1,0.3,1.6
			c-0.4,0.7-0.6,1.6-0.6,2.4l0.1,3.8c0,1.5,0.7,2.8,1.8,3.7c0,0-0.1,0.1-0.1,0.1c-1.4,1.8-2.1,3.9-2.1,6.2c0,3.5,1.5,6.5,4.3,8.4
			c2.3,1.6,5.3,2.4,9.2,2.4c2.3,0,4.4-0.4,6.1-1.2c1.5-0.8,2.8-1.8,3.8-3c0.4,0.4,0.9,0.7,1.2,1.1c1.1,1,2.6,1.5,4,1.3
			c1.5-0.2,2.8-1,3.6-2.2l2.3-3.6C280.7,93.8,280.3,91,278.3,89.3z"/>
		<path class="st24" d="M318.2,87.5l-2.9-3.6c-1-1.2-2.5-1.9-4.1-1.8c-1.6,0.1-3,0.9-3.9,2.2c-0.5,0.7-1.1,1.5-1.7,2.2
			c-0.6,0.6-1.2,1.1-1.9,1.6c-0.6,0.4-1.3,0.8-2.1,1c-0.8,0.2-1.6,0.4-2.6,0.4c-0.1,0-0.2,0-0.2,0c0-1.1,0-2.5,0-3.9
			c0-1.5,0.1-3,0.1-4.6c0-1.6,0.1-3.1,0.1-4.5c0-1.4,0.1-2.6,0.1-3.6c0-0.6,0.1-1.3,0.1-1.9c0.1-0.7,0.1-1.3,0.2-1.8
			c0.3-1.4-0.1-2.9-1.1-4.1c-0.9-1.1-2.3-1.8-3.8-1.8l-5.2,0c-1.5,0-3,0.7-3.9,1.9c-1,1.2-1.3,2.7-1,4.2c0.1,0.4,0.2,0.9,0.2,1.5
			c0.1,0.6,0.1,1.3,0.1,1.9c0,0.6,0,1.4,0,2.5c0,1.1-0.1,2.3-0.1,3.6l-0.1,4c0,1.4-0.1,2.7-0.1,4c0,1.3,0,2.5,0,3.5
			c0,3,0.6,5.5,1.9,7.5c1.3,2.2,3.3,3.8,5.7,4.8c2,0.8,4.3,1.2,6.9,1.2c2.5,0,4.9-0.3,7-1c2.1-0.7,4-1.5,5.6-2.6
			c1.6-1,3-2.2,4.1-3.4c1.1-1.1,2-2.2,2.8-3.3C319.7,91.7,319.6,89.2,318.2,87.5z"/>
		<path class="st24" d="M369.9,71.7h-3.8c-2.8,0-5,2.2-5,5v14.6h-3c-0.4,0-0.8,0.1-1.2,0.2c-0.3-0.8-0.8-1.6-1.5-2.2
			c-1.2-1-2.7-1.4-4.2-1.1c-1.1,0.2-2.2,0.4-3.3,0.5c-1,0.1-2,0.2-3,0.2c0.1-0.5,0.1-1,0.1-1.6c1.1,0,2.1,0,3.1,0.1
			c1,0.1,1.9,0.2,2.7,0.3c1.4,0.2,2.8-0.2,3.9-1.2c1.1-0.9,1.7-2.3,1.8-3.7l0.1-3.9c0.1-2.6-1.8-4.8-4.4-5.1
			c-1.2-0.1-2.4-0.2-3.6-0.3c-0.8,0-1.6,0-2.5-0.1v-1.8c0-1.5-0.7-3-1.9-3.9c-1-0.8-2.2-1.2-3.4-1.1c-0.1-0.6-0.4-1.2-0.8-1.7
			c-0.9-1.2-2.2-2-3.7-2.1l-4.9-0.4c-1.5-0.1-3,0.4-4,1.5c-1,1.1-1.5,2.6-1.4,4.1c0,0,0,0.1,0,0.3c-0.3,0-0.5,0-0.8,0
			c-0.6,0-1.3-0.1-2.1-0.2c-1.4-0.2-2.9,0.3-3.9,1.3c-1.1,1-1.6,2.4-1.6,3.8l0.1,4c0.1,2.6,2.2,4.8,4.8,4.9c0.2,0,0.4,0,0.6,0
			c-0.1,0.3-0.2,0.6-0.3,0.9c-0.5,1.4-1,2.8-1.5,4.3c-0.5,1.4-1.1,2.8-1.6,4c-0.5,1.1-1,2-1.4,2.8c-0.8,1.3-0.9,2.9-0.4,4.3
			c0.5,1.4,1.7,2.5,3.1,3l4.5,1.5c0.5,0.2,1.1,0.3,1.6,0.3c1.9,0,3.7-1.1,4.6-2.9c0.3-0.7,0.6-1.4,0.9-2.1c0.7,0.9,1.6,1.7,2.6,2.3
			c2.4,1.5,5.5,2.2,9.5,2.2c1.6,0,3-0.1,4.4-0.2c1.3-0.1,2.4-0.2,3.5-0.4c0.3,0,0.7-0.1,1-0.2c0.8,1.7,2.5,2.9,4.5,2.9h11.8
			c2.8,0,5-2.2,5-5V76.7C374.9,74,372.7,71.7,369.9,71.7z"/>
	</g>
	<g>
		<path class="st13" d="M275.3,30c-0.8-0.7-1.5-1.5-2.2-2.2c-0.7-0.8-1.4-1.5-2.1-2.2c-0.7-0.7-1.3-1.3-1.8-1.9
			c-0.7-0.8-1.4-1.6-2.2-2.5c-0.8-1-1.7-2-2.6-3c-1-1.1-1.9-2.1-2.8-3c-2.4-2.3-5-3.4-7.6-3.2c-2.5,0.2-4.8,1.6-6.8,3.9
			c-0.6,0.7-1.2,1.5-1.9,2.3c-0.6,0.8-1.2,1.5-1.8,2.3c-0.6,0.7-1.2,1.5-1.7,2.1c-0.2,0.3-0.5,0.6-0.7,0.8v-2.2c0-2-1.2-3.7-2.9-4.5
			c0.2-0.3,0.4-0.5,0.6-0.8c0.9-1.2,1.2-2.7,0.8-4.1s-1.3-2.6-2.6-3.3l-3.3-1.7c-2.2-1.2-4.9-0.5-6.4,1.5c-0.2,0.3-0.4,0.6-0.6,0.8
			h-2.4c-0.4-2.3-2.5-4.1-4.9-4.1h-3.8c-2.4,0-4.5,1.8-4.9,4.1h-3.8c-1.9,0-3.6,1.1-4.4,2.7v-0.1c0-2.8-2.2-5-5-5h-18.8
			c-0.8,0-1.6,0.2-2.3,0.6h-10.9c-1,0-1.9,0.3-2.7,0.8c-0.6-0.2-1.2-0.4-1.9-0.4h-6.1c-0.7-0.9-1.7-1.5-2.8-1.8L148.3,5
			c-2.3-0.6-4.7,0.6-5.7,2.7h-2.5c-0.7-0.8-1.6-1.4-2.6-1.7l-3.6-1c-2.5-0.7-5,0.6-6,3c-0.4,1-1,2-1.7,3c-0.7,1-1.4,1.8-2.2,2.4
			c-1.3,1.1-2,2.7-1.8,4.4c0.1,1.2,0.7,2.3,1.5,3.1v6.4c0,2.8,2.2,5,5,5h0.5v11.5c0,2.8,2.2,5,5,5h3.7c1.2,0,2.2-0.4,3.1-1h9
			c0.8,0.6,1.9,1,3,1h3.8c2.8,0,5-2.2,5-5v-0.4c0.4,0.5,0.9,1,1.5,1.3c1.2,0.7,2.7,0.8,4,0.4c1.1-0.4,2.2-0.7,3.5-1.2
			c0.6,2.1,2.5,3.7,4.8,3.7h23.3c2.8,0,5-2.2,5-5V39c0,0,0,0,0,0c0.6,0.1,1.2,0.1,1.8,0v4.7c0,2.8,2.2,5,5,5h3.9
			c1.2,0,2.3-0.4,3.1-1.1h7c0.8,0.6,1.8,0.9,2.9,0.9h4c2.8,0,5-2.2,5-5V32.4c0.2,0.4,0.5,0.8,0.8,1.2l3.9,4c1.1,1.1,2.6,1.6,4.1,1.5
			c1.5-0.2,2.9-1,3.7-2.3c0.3-0.4,0.6-0.9,0.9-1.4c0.4-0.5,0.7-1,1.1-1.5c0.4-0.5,0.9-1.2,1.4-1.9c0.5-0.7,1-1.4,1.5-2.1l0.6-0.8
			c0.6,0.7,1.2,1.5,1.9,2.3c0.8,1,1.6,1.9,2.4,2.9c0.8,0.9,1.7,1.9,2.6,3c1,1.1,1.9,2.1,2.9,3.2c1,1.1,2,2,2.9,2.9
			c0.9,0.9,2.2,1.4,3.5,1.4c0.1,0,0.1,0,0.2,0c1.4-0.1,2.7-0.7,3.6-1.7l3.3-3.9c1.8-2.1,1.6-5.2-0.5-7C276.8,31.5,276,30.8,275.3,30
			z M164.6,31.3c-0.3,0.1-0.5,0.1-0.8,0.2c-0.8,0.2-1.6,0.7-2.2,1.2c-0.1-0.2-0.2-0.5-0.3-0.7c0.9-0.2,1.6-0.7,2.2-1.4
			c0.3,0.2,0.7,0.3,1,0.4V31.3z"/>
		<path class="st13" d="M165.9,79.7c-0.3-0.9-0.7-2-1.3-3.3c-0.5-1.2-1.1-2.5-1.7-3.9c-0.2-0.3-0.3-0.6-0.5-0.9l1.1-0.5
			c1.3-0.5,2.3-1.6,2.7-2.9c0.5-1.3,0.4-2.7-0.2-4c-0.3-0.5-0.6-1.1-1-1.8c-0.4-0.6-0.7-1.2-1.1-1.9c-0.4-0.7-0.8-1.3-1.2-1.8
			c-1.3-2-3.9-2.7-6.1-1.8l-2.6,1.1c-0.1,0.1-0.2,0.1-0.4,0.2c-0.4,0.1-0.8,0.2-1.2,0.3l-2.6,1.1c-1.4,0.6-2.4,1.7-2.9,3.1
			c-0.2-0.4-0.4-0.9-0.7-1.2c-0.8-1.1-2.1-1.8-3.5-2l-4.8-0.5c-1.4-0.2-2.8,0.3-3.9,1.3c-1.1,1-1.6,2.3-1.6,3.8c0,0.9,0,1.9-0.1,2.9
			c-0.3,0-0.5,0-0.7,0c-0.6,0-1.2,0-1.8,0.1c-0.4,0-0.9,0-1.3,0c-0.4,0-0.8,0-1.2,0.1c-0.6-2.2-2.5-3.7-4.8-3.7h-5.7
			c0.1-1-0.2-2-0.7-2.9c-0.7-1.2-1.9-2-3.2-2.3l-4-0.9c-2.6-0.6-5.3,1-5.9,3.6c0,0.1,0,0.1-0.1,0.2c-0.6-1.1-1.6-2-2.7-2.4l-3.4-1.2
			C95.6,57,94.2,57,93,57.6c-1.2,0.6-2.1,1.6-2.6,2.9c-0.2,0.7-0.6,1.5-0.9,2.4c0,0.1-0.1,0.2-0.1,0.3c-0.8,0.4-1.5,0.9-2,1.7
			l-0.9,1.3c0-0.1,0-0.3,0-0.4c-0.1-1.4-0.8-2.8-1.9-3.6l-2.8-2.2c-1.2-0.9-2.8-1.3-4.3-0.9l-0.3,0.1H55.9c-1.3,0-2.5,0.5-3.4,1.3
			c-0.7-2-2.5-3.5-4.7-3.5H36c-2.8,0-5,2.2-5,5v23.1c0,2.8,2.2,5,5,5h3.8c2.8,0,5-2.2,5-5V70.5h3c1.3,0,2.5-0.5,3.4-1.3
			c0.2,0.6,0.5,1.2,0.9,1.6c-2.6,0.2-4.6,2.4-4.6,5v3.7c0,2.8,2.2,5,5,5h9.5v2.5l-1.3,0c-1.8-0.1-3.5,0.9-4.4,2.4
			c-0.9,1.6-1,3.5-0.1,5.1c0.1,0.2,0.3,0.6,0.6,1.2c0.2,0.6,0.3,0.8,0.3,0.9c0.4,2.4,2.5,4.1,4.9,4.1c1.6,0,3.1,0,4.3-0.1
			c1.6-0.1,3-0.3,4.3-0.8c2.5-0.9,3.8-2.4,4.4-3.6c0.7-1.3,1-2.9,1-4.7V90l0.9,0.5c2,1.2,4.7,0.8,6.2-1c0.9-1,1.7-2.1,2.6-3.3
			c0,0.1,0,0.3-0.1,0.4c-0.2,1.1-0.5,2-0.9,2.7c-0.7,1.3-0.7,2.8-0.2,4.2c0.6,1.3,1.7,2.4,3,2.9c0,0,0.1,0,0.4,0.2
			c0.4,0.2,0.7,0.3,1,0.5c0.2,0.1,0.4,0.2,0.6,0.3c0.4,0.2,0.8,0.4,1.2,0.5c0.8,1.7,2.5,2.9,4.6,2.9h3.4c2.8,0,5-2.2,5-5v-0.5
			l1.9-0.7c0.1,0.1,0.2,0.3,0.2,0.6c0.1,0.4,0.2,0.6,0.2,0.6c0.1,2.6,2.2,4.7,4.9,4.8c1.1,0,2.1,0,3.2,0.1c1.3,0,2.3,0,3.2-0.2
			c1.3-0.2,2.4-0.5,3.4-1c1.2-0.6,2.3-1.5,3.3-2.8c0.2-0.3,0.4-0.6,0.6-0.9c0.5,0.7,1.2,1.2,2.1,1.5l4.2,1.7
			c0.6,0.2,1.2,0.3,1.8,0.3c1.2,0,2.4-0.5,3.4-1.3c0.4,0.3,0.9,0.4,1.5,0.5c0.7,0.1,1.5,0.3,2.4,0.4c3.2,0.4,6.1,0.2,8.4-0.9
			c2-1,3.6-2.6,4.7-4.9c0.7-1.4,1.2-3,1.6-5c0-0.2,0.1-0.3,0.1-0.5c0,0,0.1,0,0.1,0.1c1.3,0.7,2.9,0.7,4.3,0.1l4.1-1.9
			C165.6,84.8,166.7,82.2,165.9,79.7z M84.6,69.9c0,0.4,0,0.8,0,1.2l-0.4-0.2c-0.1-0.1-0.3-0.1-0.4-0.2C84,70.5,84.3,70.2,84.6,69.9
			z M147.1,66.1c0,0.1,0.1,0.2,0.2,0.3c-0.1,0-0.1,0-0.2,0C147.1,66.3,147.1,66.2,147.1,66.1z M126.8,85.9c0.1-1.4,0.2-3,0.3-4.7
			c0.5,0.2,1.1,0.2,1.6,0.2c-0.2,0.4-0.3,0.9-0.5,1.3C127.8,83.8,127.3,84.8,126.8,85.9z"/>
		<path class="st13" d="M201.6,88c-1.9-1.1-3.5-2.3-4.8-3.6c-1.3-1.3-2.4-2.7-3.3-4c-0.9-1.4-1.6-2.8-2.1-4.2
			c-0.5-1.5-0.9-2.9-1.2-4.3c-0.3-1.4-0.5-2.8-0.5-4c-0.1-1.3-0.1-2.5-0.1-3.5c0-2.8-2.2-5-5-5h-12.3c-2.8,0-5,2.2-5,5v3.9
			c0,2.8,2.2,5,5,5h1.4c-0.9,3.3-2.1,6.1-3.7,8.5c-1.8,2.8-4.2,4.9-7.2,6.5c-1.6,0.8-2.6,2.3-2.7,4.1c-0.1,1.7,0.7,3.4,2.1,4.4
			c0.1,0.1,0.4,0.3,0.8,0.7c0.4,0.4,0.8,0.7,1.2,1.1c0.3,0.3,0.5,0.5,0.7,0.7c1,1.1,2.3,1.6,3.7,1.6c0.9,0,1.8-0.2,2.6-0.7
			c3-1.8,5.7-4,7.9-6.6c1.1-1.3,2.2-2.7,3.1-4.2c1.2,1.8,2.6,3.6,4.1,5.2c2,2,4.3,3.9,6.9,5.5c2.2,1.4,5.2,0.8,6.7-1.4
			c0.1-0.1,0.3-0.4,0.6-0.8c0.3-0.3,0.6-0.7,0.9-1c0.3-0.3,0.5-0.5,0.5-0.5c1.3-1,2.1-2.6,2-4.3C204,90.3,203.1,88.8,201.6,88z"/>
		<path class="st13" d="M229.8,63.1c-2.2-1.7-4.8-2.6-7.5-2.6c-1.2,0-2.4,0.2-3.5,0.5c0,0-0.1-0.1-0.1-0.1c-0.9-1.2-2.3-2-3.8-2.1
			l-4.4-0.2c-2.7-0.1-5.1,2-5.2,4.7c0,0.4-0.1,1-0.1,1.5c0,0.5-0.1,1.1-0.2,1.7c-0.1,0.9-0.2,1.8-0.4,2.8c-0.1,1.1-0.3,2.1-0.4,3.2
			c-0.1,1.1-0.2,2.1-0.2,3.1c-0.1,1.1-0.1,2.1-0.1,3.1c0,1.3,0.1,2.6,0.2,3.8c0.1,1.1,0.2,2.1,0.3,2.8c0.3,2.1,1.8,3.7,3.8,4.2
			c-0.4,1.4-0.2,3,0.6,4.2l2.4,3.7c0.9,1.4,2.5,2.3,4.2,2.3c0.3,0,0.6,0,0.9-0.1c2.7-0.5,5.2-1.2,7.4-2.2c2.5-1.1,4.6-2.5,6.4-4.2
			c1.9-1.8,3.3-4,4.3-6.6c1-2.5,1.5-5.3,1.5-8.4c0-3.2-0.5-6.1-1.5-8.6C233.4,66.9,231.8,64.7,229.8,63.1z M218.1,80.9
			c0,0,0-0.1,0-0.1c0-0.7,0.2-1.5,0.5-2.3c0.3-0.9,0.7-1.7,1.3-2.5c0.4-0.6,0.8-1,1.3-1.4c0,0.1,0.1,0.2,0.1,0.3
			c0.3,0.9,0.4,2,0.4,3.4c0,1.4-0.2,2.6-0.6,3.5c-0.3,0.8-0.8,1.4-1.4,1.8c-0.4,0.3-0.9,0.6-1.4,0.9c0-0.2,0-0.4,0-0.6
			c-0.1-0.7-0.1-1.3-0.2-1.8C218.1,81.6,218.1,81.2,218.1,80.9z"/>
		<path class="st13" d="M274.3,85.3c-0.8-0.6-1.8-1.4-2.9-2.1c2.3-0.5,3.9-2.5,3.9-4.8l0-3.8c0-0.9-0.2-1.8-0.7-2.5
			c0.1-0.5,0.2-1,0.2-1.5l0-3.7c0-1.5-0.6-2.9-1.7-3.8c-1.1-1-2.6-1.4-4.1-1.1c-1.1,0.2-2.3,0.3-3.4,0.5c-0.2-0.8-0.6-1.5-1.2-2.1
			c-0.9-1-2.3-1.6-3.7-1.6h-4.4c-1.5,0-3,0.7-3.9,1.9c-0.5,0.6-0.8,1.4-1,2.2c-0.1,0-0.2,0-0.2,0c-0.8-0.1-1.6-0.2-2.3-0.3
			c-0.7-0.1-1.4-0.2-2-0.3c-1.5-0.2-2.9,0.2-4.1,1.2c-1.1,1-1.7,2.4-1.7,3.9l0.1,3.7c0,0.6,0.1,1.1,0.3,1.6
			c-0.4,0.7-0.6,1.6-0.6,2.4l0.1,3.8c0,1.5,0.7,2.8,1.8,3.7c0,0-0.1,0.1-0.1,0.1c-1.4,1.8-2.1,3.9-2.1,6.2c0,3.5,1.5,6.5,4.3,8.4
			c2.3,1.6,5.3,2.4,9.2,2.4c2.3,0,4.4-0.4,6.1-1.2c1.5-0.8,2.8-1.8,3.8-3c0.4,0.4,0.9,0.7,1.2,1.1c1.1,1,2.6,1.5,4,1.3
			c1.5-0.2,2.8-1,3.6-2.2l2.3-3.6C276.7,89.8,276.3,87,274.3,85.3z"/>
		<path class="st13" d="M314.2,83.5l-2.9-3.6c-1-1.2-2.5-1.9-4.1-1.8c-1.6,0.1-3,0.9-3.9,2.2c-0.5,0.7-1.1,1.5-1.7,2.2
			c-0.6,0.6-1.2,1.1-1.9,1.6c-0.6,0.4-1.3,0.8-2.1,1c-0.8,0.2-1.6,0.4-2.6,0.4c-0.1,0-0.2,0-0.2,0c0-1.1,0-2.5,0-3.9
			c0-1.5,0.1-3,0.1-4.6c0-1.6,0.1-3.1,0.1-4.5c0-1.4,0.1-2.6,0.1-3.6c0-0.6,0.1-1.3,0.1-1.9c0.1-0.7,0.1-1.3,0.2-1.8
			c0.3-1.4-0.1-2.9-1.1-4.1c-0.9-1.1-2.3-1.8-3.8-1.8l-5.2,0c-1.5,0-3,0.7-3.9,1.9c-1,1.2-1.3,2.7-1,4.2c0.1,0.4,0.2,0.9,0.2,1.5
			c0.1,0.6,0.1,1.3,0.1,1.9c0,0.6,0,1.4,0,2.5c0,1.1-0.1,2.3-0.1,3.6l-0.1,4c0,1.4-0.1,2.7-0.1,4c0,1.3,0,2.5,0,3.5
			c0,3,0.6,5.5,1.9,7.5c1.3,2.2,3.3,3.8,5.7,4.8c2,0.8,4.3,1.2,6.9,1.2c2.5,0,4.9-0.3,7-1c2.1-0.7,4-1.5,5.6-2.6
			c1.6-1,3-2.2,4.1-3.4c1.1-1.1,2-2.2,2.8-3.3C315.7,87.7,315.6,85.2,314.2,83.5z"/>
		<path class="st13" d="M365.9,67.7h-3.8c-2.8,0-5,2.2-5,5v14.6h-3c-0.4,0-0.8,0.1-1.2,0.2c-0.3-0.8-0.8-1.6-1.5-2.2
			c-1.2-1-2.7-1.4-4.2-1.1c-1.1,0.2-2.2,0.4-3.3,0.5c-1,0.1-2,0.2-3,0.2c0.1-0.5,0.1-1,0.1-1.6c1.1,0,2.1,0,3.1,0.1
			c1,0.1,1.9,0.2,2.7,0.3c1.4,0.2,2.8-0.2,3.9-1.2c1.1-0.9,1.7-2.3,1.8-3.7l0.1-3.9c0.1-2.6-1.8-4.8-4.4-5.1
			c-1.2-0.1-2.4-0.2-3.6-0.3c-0.8,0-1.6,0-2.5-0.1v-1.8c0-1.5-0.7-3-1.9-3.9c-1-0.8-2.2-1.2-3.4-1.1c-0.1-0.6-0.4-1.2-0.8-1.7
			c-0.9-1.2-2.2-2-3.7-2.1l-4.9-0.4c-1.5-0.1-3,0.4-4,1.5c-1,1.1-1.5,2.6-1.4,4.1c0,0,0,0.1,0,0.3c-0.3,0-0.5,0-0.8,0
			c-0.6,0-1.3-0.1-2.1-0.2c-1.4-0.2-2.9,0.3-3.9,1.3c-1.1,1-1.6,2.4-1.6,3.8l0.1,4c0.1,2.6,2.2,4.8,4.8,4.9c0.2,0,0.4,0,0.6,0
			c-0.1,0.3-0.2,0.6-0.3,0.9c-0.5,1.4-1,2.8-1.5,4.3c-0.5,1.4-1.1,2.8-1.6,4c-0.5,1.1-1,2-1.4,2.8c-0.8,1.3-0.9,2.9-0.4,4.3
			c0.5,1.4,1.7,2.5,3.1,3l4.5,1.5c0.5,0.2,1.1,0.3,1.6,0.3c1.9,0,3.7-1.1,4.6-2.9c0.3-0.7,0.6-1.4,0.9-2.1c0.7,0.9,1.6,1.7,2.6,2.3
			c2.4,1.5,5.5,2.2,9.5,2.2c1.6,0,3-0.1,4.4-0.2c1.3-0.1,2.4-0.2,3.5-0.4c0.3,0,0.7-0.1,1-0.2c0.8,1.7,2.5,2.9,4.5,2.9h11.8
			c2.8,0,5-2.2,5-5V72.7C370.9,70,368.7,67.7,365.9,67.7z"/>
	</g>
	<g>
		<path class="st1" d="M132.6,9.8l3.6,1c-0.7,1.6-1.6,3.2-2.6,4.7c-1,1.5-2.1,2.8-3.2,3.8c-0.2-0.2-0.6-0.4-0.9-0.7
			c-0.4-0.3-0.8-0.5-1.2-0.8c-0.4-0.3-0.7-0.5-1-0.6c1.1-0.9,2.1-2,3-3.3C131.3,12.6,132.1,11.2,132.6,9.8z M128.9,20.2H160v7.1
			h-3.8v-4.1h-23.7v4.1h-3.6V20.2z M132.3,12.7h11.4v3.1h-11.4V12.7z M133.9,15.1l3.3-0.9c0.4,0.6,0.9,1.3,1.3,2.1
			c0.4,0.8,0.8,1.5,1,2l-3.5,1c-0.1-0.6-0.4-1.2-0.8-2C134.7,16.4,134.3,15.7,133.9,15.1z M134.4,24.8h3.7v18.9h-3.7V24.8z
			 M136.5,24.8h17.9v7.8h-17.9v-2.8h14v-2.2h-14V24.8z M136.7,34.5H157v9.2h-3.8v-6.3h-16.5V34.5z M136.7,39.8h18v2.9h-18V39.8z
			 M147.2,9.8l3.7,0.9c-0.6,1.5-1.5,3-2.5,4.4c-1,1.4-2.1,2.6-3.2,3.5c-0.3-0.2-0.6-0.4-1-0.6c-0.4-0.2-0.8-0.5-1.2-0.7
			c-0.4-0.2-0.8-0.4-1.1-0.5c1.2-0.8,2.2-1.9,3.2-3.1C145.9,12.5,146.6,11.2,147.2,9.8z M142.3,17.6h3.7v4.2h-3.7V17.6z M146.8,12.7
			h14.1v3.1h-14.1V12.7z M149.7,15.1l3.4-0.9c0.6,0.6,1.1,1.3,1.7,2.1c0.6,0.8,1,1.5,1.3,2.1l-3.6,1c-0.2-0.6-0.6-1.3-1.2-2.1
			C150.8,16.5,150.2,15.8,149.7,15.1z"/>
		<path class="st1" d="M165,36.3c1-0.3,2.2-0.6,3.5-1c1.3-0.4,2.7-0.8,4.1-1.3c1.4-0.5,2.9-0.9,4.3-1.4l0.6,3.7c-2,0.7-4,1.3-6,2
			c-2,0.7-3.9,1.3-5.6,1.9L165,36.3z M165.5,12.3h11.7v3.6h-11.7V12.3z M165.8,22.7h10.8v3.6h-10.8V22.7z M169.6,13.7h3.7v22.2
			l-3.7,0.6V13.7z M175.8,39h23.3v3.5h-23.3V39z M178.4,31.7h19.5v3.5h-19.5V31.7z M178.7,11.7h18.8v16.6h-18.8V11.7z M182.2,15v3.5
			h11.6V15H182.2z M182.2,21.5V25h11.6v-3.5H182.2z M186.4,13.1h3.3v13.6h0.4v14h-4v-14h0.3V13.1z"/>
		<path class="st1" d="M231.4,11.2l3.3,1.7c-2.4,3.2-5.1,6.2-8.2,8.8c-3.1,2.7-6.5,5-10.2,7.1c-3.6,2.1-7.4,3.8-11.2,5.3
			c-0.1-0.3-0.4-0.6-0.6-1s-0.6-0.8-0.9-1.2c-0.3-0.4-0.6-0.7-0.8-1c3.9-1.3,7.6-2.9,11.2-4.8c3.6-1.9,6.8-4.2,9.8-6.7
			C226.7,16.9,229.2,14.2,231.4,11.2z M203.7,21.2H236v3.4h-32.3V21.2z M206.8,14.2h20.7v3.3h-20.7V14.2z M210.9,27.8h20.9v15.8h-4
			V30.9h-13v12.8h-3.9V27.8z M213,33.6h16.3v3H213V33.6z M213,39.4h16.3v3.3H213V39.4z M215.6,10.1h3.8v13h-3.8V10.1z"/>
		<path class="st1" d="M241.2,30.1c0.5-0.4,1-0.8,1.4-1.3c0.5-0.4,0.9-0.9,1.4-1.4c0.5-0.5,1-1,1.5-1.7c0.5-0.7,1.1-1.4,1.7-2.1
			c0.6-0.8,1.2-1.5,1.8-2.3c0.6-0.8,1.2-1.5,1.7-2.1c1.2-1.4,2.4-2.1,3.5-2.2c1.1-0.1,2.4,0.5,3.7,1.7c0.8,0.8,1.6,1.7,2.5,2.7
			c0.9,1,1.7,2,2.6,3c0.8,1,1.6,1.9,2.3,2.7c0.6,0.6,1.2,1.3,1.9,2c0.7,0.7,1.4,1.5,2.1,2.2c0.8,0.8,1.5,1.6,2.4,2.3
			c0.8,0.8,1.6,1.5,2.5,2.3l-3.3,3.9c-0.9-0.8-1.8-1.8-2.7-2.8c-0.9-1-1.9-2-2.8-3.1c-0.9-1-1.8-2-2.6-2.9c-0.7-0.9-1.5-1.8-2.3-2.8
			c-0.8-1-1.6-1.9-2.3-2.8c-0.7-0.9-1.4-1.7-1.9-2.3c-0.5-0.5-0.9-0.8-1.2-0.9c-0.3-0.1-0.7-0.1-1,0.1c-0.3,0.2-0.6,0.5-1,1
			c-0.4,0.5-0.8,1-1.3,1.7c-0.5,0.7-1,1.3-1.5,2.1c-0.5,0.7-1.1,1.4-1.6,2.1c-0.5,0.7-1,1.3-1.4,1.8c-0.4,0.6-0.8,1.1-1.2,1.7
			c-0.4,0.6-0.7,1.1-1,1.5L241.2,30.1z"/>
		<path class="st25" d="M36,62h11.8v3.5h-8v19.6H36V62z"/>
		<path class="st25" d="M52.4,75.8H82v3.7H52.4V75.8z M55.9,64.1h22.3v3.5H55.9V64.1z M66.9,78.7h4v12.7c0,1-0.2,1.8-0.4,2.4
			c-0.3,0.6-0.9,1-1.7,1.2c-0.8,0.3-1.7,0.5-2.9,0.5c-1.2,0.1-2.5,0.1-4.1,0.1c-0.1-0.6-0.3-1.2-0.6-1.9c-0.3-0.7-0.6-1.3-0.9-1.8
			c0.7,0,1.5,0,2.3,0.1c0.8,0,1.5,0,2.1,0c0.6,0,1,0,1.3,0c0.3,0,0.6-0.1,0.7-0.2c0.1-0.1,0.2-0.3,0.2-0.5V78.7z M60.9,72.1l1.9-2.9
			c1,0.4,2.1,0.8,3.3,1.2c1.2,0.5,2.4,0.9,3.7,1.4c1.2,0.5,2.4,0.9,3.5,1.4c1.1,0.5,2,0.9,2.8,1.2L74,77.8c-0.7-0.4-1.6-0.8-2.7-1.3
			c-1.1-0.5-2.2-1-3.4-1.5c-1.2-0.5-2.4-1-3.6-1.5C63,73,61.9,72.5,60.9,72.1z M76.7,64.1h1l0.9-0.2l2.8,2.2c-1,1-2.1,2-3.4,3.1
			c-1.2,1-2.5,2-3.9,3c-1.3,0.9-2.6,1.8-3.9,2.4c-0.2-0.3-0.4-0.6-0.7-0.9s-0.6-0.6-0.9-1c-0.3-0.3-0.6-0.6-0.8-0.8
			c1.1-0.6,2.2-1.3,3.3-2.1c1.1-0.8,2.2-1.7,3.2-2.6c1-0.9,1.7-1.7,2.3-2.4V64.1z M80.7,75.8h0.8l0.7-0.3l3.1,1.4
			c-0.8,1.7-1.8,3.3-2.8,5c-1.1,1.7-2.1,3.1-3.2,4.3l-3.3-1.9c0.6-0.7,1.1-1.4,1.7-2.3c0.6-0.9,1.1-1.8,1.6-2.7
			c0.5-0.9,1-1.9,1.4-2.8V75.8z"/>
		<path class="st25" d="M91.2,83.1l3.2,0.6c-0.2,1.7-0.5,3.4-0.9,5.1c-0.4,1.7-0.9,3.1-1.4,4.2c-0.2-0.1-0.5-0.3-0.9-0.5
			c-0.4-0.2-0.7-0.4-1.1-0.5c-0.4-0.2-0.7-0.3-1-0.4c0.6-1.1,1-2.4,1.3-3.9S91,84.6,91.2,83.1z M89.5,78c1.7,0,3.6-0.1,5.9-0.2
			c2.3-0.1,4.7-0.2,7.1-0.3l0,3.1c-2.3,0.2-4.5,0.3-6.7,0.5c-2.2,0.1-4.2,0.3-6,0.4L89.5,78z M89.6,70.4l1.8-2.6
			c0.6,0.6,1.3,1.2,2,1.8c0.7,0.7,1.3,1.3,1.9,2c0.6,0.6,1,1.2,1.3,1.8l-2,3c-0.3-0.6-0.7-1.2-1.3-1.9c-0.5-0.7-1.1-1.4-1.8-2.1
			C90.8,71.6,90.2,70.9,89.6,70.4z M95.1,62.1l3.4,1.2c-0.5,0.9-1,1.8-1.5,2.8c-0.5,1-1,1.9-1.5,2.8s-1,1.7-1.5,2.3l-2.6-1.1
			c0.5-0.7,0.9-1.5,1.4-2.5c0.5-0.9,0.9-1.9,1.3-2.9C94.5,63.8,94.8,62.9,95.1,62.1z M99.5,66.3l3.3,1.4c-0.9,1.4-1.8,2.8-2.8,4.3
			c-1,1.5-2.1,2.9-3.1,4.3c-1,1.4-2,2.6-3,3.6l-2.3-1.2c0.7-0.8,1.4-1.7,2.1-2.7c0.7-1,1.5-2.1,2.2-3.2c0.7-1.1,1.4-2.2,2-3.3
			C98.4,68.3,99,67.3,99.5,66.3z M95.3,79.7h3.4v16.1h-3.4V79.7z M98.5,74.9l2.8-1.2c0.5,0.8,1,1.6,1.4,2.6c0.5,0.9,0.9,1.8,1.2,2.7
			c0.3,0.9,0.6,1.6,0.8,2.3l-3,1.4c-0.2-0.7-0.4-1.5-0.7-2.4c-0.3-0.9-0.7-1.8-1.1-2.7C99.4,76.6,99,75.7,98.5,74.9z M99.2,83.8
			l2.8-0.9c0.5,1.1,1,2.3,1.4,3.5c0.4,1.3,0.8,2.4,1,3.3l-3.1,1.1c-0.2-0.9-0.5-2.1-0.9-3.4C100.1,86.1,99.7,84.9,99.2,83.8z
			 M107.9,62.1l4,0.9c-0.5,1.8-1.1,3.5-1.8,5.2c-0.7,1.7-1.5,3.3-2.3,4.8c-0.8,1.5-1.7,2.8-2.6,3.9c-0.3-0.2-0.6-0.5-1-0.8
			c-0.4-0.3-0.9-0.6-1.3-0.9c-0.4-0.3-0.8-0.5-1.1-0.7c0.9-1,1.8-2.1,2.6-3.4c0.8-1.3,1.5-2.7,2.1-4.3
			C107,65.2,107.5,63.6,107.9,62.1z M106.4,78.1l3.1-1.5c0.6,0.8,1.3,1.7,1.9,2.7c0.6,1,1.2,1.9,1.7,2.9c0.5,0.9,0.9,1.8,1.2,2.6
			l-3.3,1.8c-0.2-0.8-0.6-1.6-1.1-2.6c-0.5-1-1-2-1.6-3C107.7,79.9,107.1,79,106.4,78.1z M107.3,68.3h13.1V72h-13.1V68.3z
			 M118.9,68.3h3.7c0,0.5,0,0.9,0,1.2c0,0.3,0,0.5,0,0.7c-0.1,4-0.3,7.4-0.4,10.2c-0.1,2.8-0.3,5.1-0.5,6.9
			c-0.2,1.8-0.4,3.2-0.7,4.2c-0.3,1-0.6,1.8-0.9,2.2c-0.5,0.6-1,1.1-1.5,1.3c-0.5,0.3-1.1,0.4-1.9,0.5c-0.6,0.1-1.5,0.1-2.5,0.1
			c-1,0-2.1,0-3.1-0.1c0-0.6-0.2-1.2-0.4-2c-0.2-0.7-0.5-1.4-0.9-1.9c1.2,0.1,2.2,0.2,3.2,0.2c1,0,1.7,0,2.2,0c0.4,0,0.7,0,0.9-0.1
			c0.2-0.1,0.5-0.2,0.6-0.5c0.3-0.3,0.6-0.9,0.8-1.9c0.2-1,0.4-2.3,0.6-4.1c0.2-1.8,0.3-4,0.5-6.6c0.1-2.7,0.3-5.9,0.4-9.6V68.3z"/>
		<path class="st25" d="M128.2,72c0.6,0,1.2,0.1,1.8,0.1c0.6,0,1.2,0,1.9-0.1c0.6,0,1.3-0.1,2.1-0.1c0.9-0.1,1.8-0.1,2.7-0.2
			c1-0.1,1.9-0.1,2.9-0.2c1-0.1,1.9-0.2,2.7-0.2c0.8-0.1,1.5-0.1,2-0.1c1.2,0,2.3,0.2,3.2,0.6c0.9,0.4,1.7,1.1,2.2,2.1
			c0.6,1,0.8,2.3,0.8,4c0,1.4-0.1,2.9-0.2,4.6c-0.1,1.7-0.3,3.2-0.6,4.8c-0.3,1.5-0.7,2.8-1.2,3.8c-0.6,1.2-1.3,2.1-2.3,2.6
			c-1,0.5-2.1,0.7-3.4,0.7c-0.7,0-1.4-0.1-2.2-0.2c-0.8-0.1-1.5-0.2-2.1-0.3l-0.7-4.2c0.5,0.1,1,0.2,1.6,0.4
			c0.6,0.1,1.1,0.2,1.6,0.3c0.5,0.1,0.9,0.1,1.2,0.1c0.6,0,1.2-0.1,1.7-0.3c0.5-0.2,0.9-0.6,1.2-1.3c0.3-0.7,0.6-1.6,0.8-2.8
			c0.2-1.1,0.4-2.4,0.5-3.7c0.1-1.3,0.2-2.6,0.2-3.8c0-1-0.1-1.8-0.4-2.2c-0.3-0.5-0.7-0.8-1.2-1c-0.5-0.2-1.2-0.3-1.9-0.3
			c-0.6,0-1.3,0-2.3,0.1c-1,0.1-2,0.2-3.1,0.3c-1.1,0.1-2.1,0.2-3.1,0.3c-0.9,0.1-1.7,0.2-2.2,0.3c-0.5,0.1-1.1,0.2-1.9,0.3
			c-0.7,0.1-1.4,0.2-1.9,0.3L128.2,72z M142.3,64.5c-0.1,0.4-0.2,0.9-0.3,1.3c-0.1,0.5-0.2,1-0.3,1.4c-0.1,0.5-0.2,1.1-0.3,1.8
			c-0.1,0.7-0.3,1.4-0.4,2.1c-0.1,0.7-0.3,1.4-0.4,2.1c-0.2,1-0.5,2.2-0.9,3.5c-0.4,1.3-0.8,2.8-1.3,4.3c-0.5,1.5-1,3.1-1.6,4.7
			c-0.6,1.6-1.2,3.1-1.9,4.6c-0.7,1.5-1.4,2.8-2.2,4.1l-4.2-1.7c0.8-1.1,1.6-2.4,2.4-3.8c0.7-1.4,1.4-2.8,2-4.3
			c0.6-1.5,1.1-3,1.6-4.4c0.5-1.4,0.9-2.8,1.2-4c0.3-1.2,0.6-2.3,0.8-3.2c0.3-1.6,0.6-3.1,0.8-4.6c0.2-1.5,0.3-3,0.3-4.3L142.3,64.5
			z M154.7,68.2c0.6,0.8,1.1,1.7,1.8,2.8c0.6,1.1,1.2,2.3,1.8,3.6c0.6,1.3,1.1,2.5,1.6,3.7c0.5,1.2,0.9,2.2,1.2,3l-4.1,1.9
			c-0.2-1-0.6-2.1-1-3.3c-0.4-1.2-0.9-2.4-1.5-3.7c-0.6-1.2-1.1-2.4-1.8-3.5c-0.6-1.1-1.3-2.1-1.9-2.8L154.7,68.2z M154.4,63.2
			c0.3,0.4,0.6,0.9,1,1.5c0.3,0.6,0.7,1.2,1,1.8c0.3,0.6,0.6,1.1,0.9,1.6l-2.6,1.1c-0.2-0.5-0.5-1-0.8-1.6c-0.3-0.6-0.7-1.2-1-1.8
			c-0.3-0.6-0.7-1.1-1-1.6L154.4,63.2z M158.6,61.6c0.3,0.5,0.7,1,1,1.6c0.4,0.6,0.7,1.2,1.1,1.8c0.3,0.6,0.6,1.1,0.8,1.5l-2.6,1.1
			c-0.4-0.8-0.8-1.6-1.3-2.6c-0.5-0.9-1.1-1.7-1.6-2.4L158.6,61.6z"/>
		<path class="st25" d="M179.2,71.8l4.4,0.8c-0.8,3.6-1.9,6.9-3.3,9.8c-1.4,2.9-3,5.5-4.9,7.7c-1.9,2.2-4.2,4.1-6.7,5.6
			c-0.2-0.3-0.6-0.6-1-1c-0.4-0.4-0.9-0.8-1.3-1.2c-0.5-0.4-0.9-0.7-1.2-1c3.8-2,6.9-4.7,9.1-8.2C176.6,80.8,178.2,76.7,179.2,71.8z
			 M172.3,64.1h10.2v3.9h-10.2V64.1z M180.6,64.1h4c0,1.1,0,2.4,0.1,3.9c0.1,1.5,0.3,3,0.6,4.6c0.3,1.6,0.8,3.3,1.4,5.1
			c0.6,1.7,1.5,3.5,2.5,5.2c1.1,1.7,2.4,3.4,4,5c1.6,1.6,3.5,3,5.8,4.4c-0.3,0.2-0.6,0.5-1,0.9c-0.4,0.4-0.8,0.8-1.2,1.3
			c-0.4,0.4-0.7,0.8-0.9,1.2c-2.3-1.4-4.3-3-6-4.7c-1.7-1.7-3.1-3.6-4.2-5.5c-1.1-2-2-3.9-2.7-5.9c-0.7-2-1.2-3.9-1.6-5.8
			c-0.4-1.9-0.6-3.6-0.7-5.3C180.7,66.8,180.6,65.3,180.6,64.1z"/>
		<path class="st25" d="M214.7,63.8c-0.1,0.5-0.3,1.1-0.4,1.8c-0.2,0.7-0.3,1.4-0.5,2.2c-0.1,0.8-0.3,1.5-0.4,2.2
			c-0.1,0.7-0.2,1.4-0.2,1.9c0.4-0.8,0.9-1.5,1.5-2.3c0.6-0.8,1.3-1.5,2.1-2.1c0.8-0.6,1.6-1.1,2.6-1.5c0.9-0.4,1.9-0.6,2.9-0.6
			c1.7,0,3.1,0.5,4.5,1.5c1.3,1,2.4,2.5,3.1,4.4c0.8,1.9,1.1,4.2,1.1,6.8c0,2.5-0.4,4.7-1.1,6.6c-0.7,1.9-1.8,3.5-3.2,4.8
			c-1.4,1.3-3,2.4-4.9,3.2c-1.9,0.8-4,1.5-6.4,1.9L213,91c2-0.3,3.8-0.7,5.5-1.3c1.7-0.6,3.1-1.3,4.4-2.3c1.2-0.9,2.2-2.2,2.9-3.7
			c0.7-1.5,1-3.4,1-5.5c0-1.9-0.2-3.5-0.6-4.8c-0.4-1.3-1-2.4-1.7-3.1c-0.8-0.7-1.7-1.1-2.8-1.1c-1.1,0-2.1,0.4-3.1,1.1
			c-1,0.7-1.9,1.6-2.6,2.7c-0.8,1.1-1.4,2.3-1.9,3.6c-0.5,1.3-0.7,2.5-0.8,3.7c0,0.6-0.1,1.1,0,1.8c0,0.6,0.1,1.4,0.2,2.2l-4,0.3
			c-0.1-0.7-0.2-1.6-0.3-2.6c-0.1-1-0.1-2.1-0.1-3.3c0-0.9,0-1.8,0.1-2.8c0.1-1,0.1-2,0.2-3c0.1-1,0.2-2,0.3-3
			c0.1-1,0.3-1.9,0.4-2.8c0.1-0.6,0.1-1.3,0.2-1.9c0-0.6,0.1-1.2,0.1-1.7L214.7,63.8z"/>
		<path class="st25" d="M260.9,63.6c0,0.3-0.1,0.7-0.1,1.1c0,0.4-0.1,0.9-0.1,1.4c0,0.5,0,1.1,0,1.9c0,0.8,0,1.6,0,2.6s0,1.9,0,2.8
			s0,1.8,0,2.6c0,1.1,0,2.2,0.1,3.5c0,1.3,0.1,2.5,0.2,3.8c0.1,1.3,0.1,2.4,0.2,3.5c0,1.1,0.1,2,0.1,2.6c0,1-0.2,1.8-0.7,2.6
			c-0.5,0.8-1.2,1.5-2.2,1.9c-1,0.5-2.3,0.7-3.9,0.7c-2.8,0-4.9-0.5-6.4-1.5c-1.5-1-2.2-2.4-2.2-4.3c0-1.2,0.3-2.2,1-3.1
			c0.7-0.9,1.7-1.6,3-2.1c1.3-0.5,2.9-0.8,4.7-0.8c1.9,0,3.8,0.2,5.5,0.6c1.7,0.4,3.3,1,4.7,1.6c1.4,0.7,2.7,1.4,3.8,2.1
			c1.1,0.7,2,1.4,2.8,2l-2.3,3.6c-0.8-0.8-1.8-1.6-2.9-2.4c-1.1-0.8-2.2-1.5-3.5-2.2c-1.3-0.6-2.6-1.2-4-1.6
			c-1.4-0.4-2.9-0.6-4.5-0.6c-1.4,0-2.5,0.2-3.2,0.7c-0.7,0.5-1.1,1.1-1.1,1.7c0,0.5,0.1,0.9,0.4,1.3c0.3,0.4,0.8,0.6,1.4,0.8
			c0.6,0.2,1.4,0.3,2.3,0.3c0.7,0,1.3-0.1,1.8-0.2c0.5-0.2,0.9-0.4,1.2-0.8c0.3-0.4,0.4-1,0.4-1.7c0-0.6,0-1.4-0.1-2.4
			c0-1-0.1-2.1-0.1-3.3c0-1.2-0.1-2.4-0.1-3.6c0-1.2-0.1-2.2-0.1-3c0-0.8,0-1.7,0-2.7c0-0.9,0-1.9,0-2.8c0-0.9,0-1.7,0-2.5
			c0-0.8,0-1.4,0-2c0-0.3,0-0.7,0-1.2c0-0.5-0.1-0.9-0.1-1.2H260.9z M246.1,74.9c0.6,0.1,1.3,0.2,2.1,0.3c0.8,0.1,1.6,0.2,2.4,0.2
			c0.8,0,1.6,0.1,2.4,0.1c0.7,0,1.4,0.1,1.9,0.1c2.1,0,4,0,5.8-0.1c1.8-0.1,3.4-0.2,5-0.4c1.6-0.2,3.1-0.3,4.6-0.5l0,3.8
			c-1.2,0.2-2.4,0.3-3.6,0.4c-1.2,0.1-2.4,0.2-3.6,0.3c-1.2,0.1-2.5,0.1-3.8,0.1c-1.4,0-2.8,0-4.4,0c-0.7,0-1.6,0-2.7-0.1
			c-1.1,0-2.1-0.1-3.2-0.2c-1.1-0.1-2-0.2-2.8-0.3L246.1,74.9z M246.3,67.1c0.6,0.1,1.3,0.2,2.1,0.3c0.8,0.1,1.6,0.2,2.4,0.3
			c0.8,0.1,1.6,0.1,2.4,0.2c0.8,0,1.4,0.1,2,0.1c2.4,0,4.8-0.1,7.2-0.2c2.4-0.2,4.9-0.4,7.4-0.8l0,3.7c-1.2,0.1-2.7,0.3-4.3,0.4
			c-1.6,0.1-3.3,0.3-5,0.4c-1.8,0.1-3.5,0.1-5.3,0.1c-0.8,0-1.7,0-2.8-0.1c-1.1-0.1-2.2-0.2-3.3-0.3c-1.1-0.1-2-0.2-2.8-0.3
			L246.3,67.1z"/>
		<path class="st25" d="M290.5,64.2c-0.1,0.7-0.2,1.4-0.3,2.2s-0.1,1.5-0.1,2.2c0,1-0.1,2.2-0.1,3.6c0,1.4-0.1,2.9-0.1,4.5
			c0,1.6-0.1,3.1-0.1,4.7c0,1.5,0,2.9,0,4c0,1.2,0.2,2.2,0.7,2.9c0.5,0.7,1.1,1.3,1.9,1.6c0.8,0.3,1.7,0.5,2.7,0.5
			c1.5,0,2.9-0.2,4.2-0.6c1.3-0.4,2.4-1,3.4-1.6c1-0.7,1.9-1.5,2.7-2.4c0.8-0.9,1.5-1.8,2.2-2.8l2.9,3.6c-0.6,0.8-1.4,1.7-2.3,2.7
			c-0.9,0.9-2,1.8-3.3,2.7c-1.3,0.8-2.7,1.5-4.4,2c-1.7,0.5-3.5,0.8-5.5,0.8c-1.9,0-3.6-0.3-5-0.9c-1.4-0.6-2.5-1.5-3.3-2.8
			c-0.8-1.3-1.2-2.9-1.2-4.9c0-1,0-2.1,0-3.4c0-1.3,0.1-2.6,0.1-4c0-1.4,0.1-2.7,0.1-4c0-1.3,0.1-2.5,0.1-3.6c0-1.1,0-1.9,0-2.6
			c0-0.8,0-1.6-0.1-2.4c-0.1-0.8-0.2-1.5-0.3-2.1L290.5,64.2z"/>
		<path class="st25" d="M323.2,69.5c1.4,0,2.9-0.1,4.5-0.2c1.6-0.1,3.2-0.3,4.8-0.6c1.6-0.3,3.2-0.6,4.7-1v4
			c-1.5,0.3-3.1,0.6-4.7,0.9c-1.7,0.2-3.3,0.4-4.9,0.6c-1.6,0.1-3.1,0.2-4.4,0.2c-0.8,0-1.6,0-2.3-0.1c-0.7,0-1.4-0.1-2-0.1l-0.1-4
			c0.9,0.1,1.7,0.2,2.4,0.2S322.5,69.5,323.2,69.5z M332,64c-0.1,0.5-0.3,1-0.4,1.7c-0.1,0.7-0.3,1.2-0.3,1.6
			c-0.2,0.8-0.4,1.8-0.6,3c-0.2,1.2-0.5,2.4-0.8,3.7c-0.3,1.3-0.6,2.5-0.9,3.7c-0.3,1.3-0.7,2.7-1.2,4.1c-0.5,1.5-0.9,3-1.5,4.5
			c-0.5,1.5-1,3-1.6,4.3c-0.5,1.4-1,2.6-1.5,3.7l-4.5-1.5c0.6-0.9,1.1-2,1.7-3.3c0.6-1.3,1.1-2.7,1.7-4.2c0.6-1.5,1.1-3,1.6-4.5
			c0.5-1.5,0.9-2.9,1.2-4.1c0.2-0.9,0.5-1.7,0.7-2.6c0.2-0.9,0.4-1.8,0.6-2.6c0.2-0.9,0.3-1.6,0.5-2.4c0.1-0.7,0.2-1.4,0.3-1.9
			c0.1-0.6,0.1-1.3,0.1-1.9c0-0.6,0-1.2,0-1.6L332,64z M336.1,83.8c-0.1,0.5-0.3,1.1-0.4,1.6c-0.1,0.6-0.1,1-0.1,1.4
			c0,0.4,0.1,0.8,0.2,1.2c0.2,0.4,0.4,0.7,0.8,0.9c0.4,0.3,0.9,0.5,1.6,0.6c0.7,0.2,1.6,0.2,2.6,0.2c1.2,0,2.4-0.1,3.6-0.2
			c1.2-0.1,2.5-0.3,3.7-0.6l-0.1,4.1c-1,0.1-2.1,0.2-3.3,0.3c-1.2,0.1-2.5,0.2-3.9,0.2c-3,0-5.3-0.5-6.8-1.5c-1.6-1-2.4-2.4-2.4-4.2
			c0-0.8,0.1-1.6,0.2-2.4c0.1-0.8,0.3-1.5,0.4-2.3L336.1,83.8z M334.5,74.9c1-0.1,2.1-0.2,3.3-0.2c1.2-0.1,2.4-0.1,3.5-0.1
			c1,0,2.1,0,3.2,0.1c1.1,0,2.1,0.1,3.1,0.2l-0.1,3.9c-0.9-0.1-1.9-0.2-2.9-0.3c-1-0.1-2.1-0.1-3.2-0.1c-1.2,0-2.4,0-3.5,0.1
			c-1.1,0.1-2.3,0.2-3.4,0.3V74.9z"/>
		<path class="st25" d="M365.9,95.8h-11.8v-3.5h8V72.7h3.8V95.8z"/>
	</g>
	<ellipse class="st23" cx="609.9" cy="64.7" rx="162" ry="52.6"/>
	<g>
		<path class="st26" d="M464.4,36.4h9.5v2.5l-1.3,0c-1.8-0.1-3.5,0.9-4.4,2.4s-1,3.5-0.1,5.1c0.1,0.2,0.3,0.6,0.6,1.2
			c0.2,0.6,0.3,0.8,0.3,0.9c0.4,2.4,2.5,4.1,4.9,4.1c1.6,0,3.1,0,4.3-0.1c1.6-0.1,3-0.3,4.3-0.8c2.5-0.9,3.8-2.4,4.4-3.6
			c0.7-1.3,1-2.9,1-4.7V42l0.9,0.5c2,1.2,4.7,0.8,6.2-1c0.9-1,1.7-2.1,2.6-3.3c0,0.1,0,0.3-0.1,0.4c-0.2,1.1-0.5,2-0.9,2.7
			c-0.7,1.3-0.7,2.8-0.2,4.2s1.7,2.4,3,2.9c0,0,0.1,0,0.4,0.2c0.4,0.2,0.7,0.3,1,0.5c0.2,0.1,0.4,0.2,0.6,0.3
			c0.4,0.2,0.8,0.4,1.2,0.5c0.8,1.7,2.5,2.9,4.6,2.9h3.4c2.8,0,5-2.2,5-5v-0.5l1.9-0.7c0.1,0.1,0.2,0.3,0.2,0.6
			c0.1,0.4,0.2,0.6,0.2,0.6c0.1,2.6,2.2,4.7,4.9,4.8c1.1,0,2.1,0,3.2,0.1c1.3,0,2.3,0,3.2-0.2c1.3-0.2,2.4-0.5,3.4-1
			c1.2-0.6,2.3-1.5,3.3-2.8c0.8-1,1.3-2.3,1.8-4c0.3-1.3,0.6-2.9,0.8-5c0.1-0.5,0.1-1.1,0.2-1.7l2.8,2.1c0.4,0.3,0.9,0.6,1.4,0.7
			c0.1,3.5,1.5,5.7,2.7,6.9c1.5,1.5,3.5,2.6,5.9,3.1c1.8,0.4,3.9,0.7,6.1,0.7c1.2,0,2.4,0,3.7-0.1c1.3-0.1,2.6-0.1,3.9-0.3
			c1.2-0.1,2.2-0.2,3.1-0.3c2.5-0.3,4.3-2.3,4.4-4.8l0.1-4.1c0.1-1.5-0.6-3-1.7-4c-1.1-1-2.7-1.4-4.2-1.1c-0.5,0.1-1,0.2-1.6,0.3
			c0-0.2,0-0.5,0-0.7c1.1-0.5,2.1-0.9,3-1.2l1.2-0.5c0.5-0.2,0.9-0.3,1.4-0.5c0.3-0.1,0.6-0.2,0.8-0.3c1.4-0.4,2.6-1.3,3.2-2.6
			c0.6-1.3,0.7-2.8,0.1-4.2l-1.6-3.8c-0.5-1.3-1.6-2.3-2.9-2.7c-0.2-0.1-0.4-0.1-0.6-0.2v-1.9c0-1.5-0.6-2.9-1.8-3.8
			c-1.1-0.9-2.6-1.4-4.1-1.1c-1.2,0.2-2.5,0.4-3.9,0.5c-0.2-0.5-0.4-0.9-0.7-1.3c-0.9-1.2-2.2-1.9-3.6-2l-4.2-0.4
			c-1.3-0.1-2.7,0.3-3.7,1.2c-0.9,0.8-1.5,1.8-1.6,3c-0.2,0-0.4,0-0.6,0c-1.1-0.1-2-0.2-2.8-0.3c-1.4-0.2-2.9,0.3-3.9,1.2
			c-0.4,0.3-0.7,0.7-1,1.2c-0.9-0.9-2.1-1.4-3.5-1.4h-5.7c0.1-1-0.2-2-0.7-2.9c-0.7-1.2-1.9-2-3.2-2.3l-4-0.9
			c-2.6-0.6-5.3,1-5.9,3.6c0,0.1,0,0.1-0.1,0.2c-0.6-1.1-1.6-2-2.7-2.4l-3.4-1.2C507.6,9,506.2,9,505,9.6c-1.2,0.6-2.1,1.6-2.6,2.9
			c-0.2,0.7-0.6,1.5-0.9,2.4c0,0.1-0.1,0.2-0.1,0.3c-0.8,0.4-1.5,0.9-2,1.7l-0.9,1.3c0-0.1,0-0.3,0-0.4c-0.1-1.4-0.8-2.8-1.9-3.6
			l-2.8-2.2c-1.2-0.9-2.8-1.3-4.3-0.9l-0.3,0.1h-21.2c-2.8,0-5,2.2-5,5v3.5c0,1.2,0.4,2.3,1.1,3.2c-2.6,0.2-4.6,2.4-4.6,5v3.7
			C459.4,34.2,461.7,36.4,464.4,36.4z M539.3,28.2c0-0.4,0-0.7,0-1.1c0.2,0.1,0.4,0.3,0.6,0.4C539.8,27.8,539.6,28,539.3,28.2z
			 M496.6,21.9c0,0.4,0,0.8,0,1.2l-0.4-0.2c-0.1-0.1-0.3-0.1-0.4-0.2C496,22.5,496.3,22.2,496.6,21.9z"/>
		<path class="st26" d="M579.7,29.8C579.7,29.8,579.7,29.9,579.7,29.8c-0.8,1.5-1.3,2.9-1.7,4.2c-0.5,1.5-0.7,3.1-0.7,4.6
			c0,2.8,0.9,5.4,2.6,7.5c1.6,1.9,3.7,3.3,6.3,4.2c2.3,0.8,4.9,1.2,7.9,1.2c2.3,0,4.4-0.1,6.2-0.3c1.7-0.2,3.1-0.4,4.3-0.6
			c2.3-0.4,4-2.3,4.1-4.7l0.2-4.1c0.1-1-0.2-1.9-0.7-2.8c0,0,0,0,0,0l2-2.9c1.3-1.9,1.1-4.4-0.3-6.1c-0.3-0.3-0.5-0.6-0.8-1
			c-0.2-0.2-0.4-0.5-0.6-0.8c0.2,0,0.3-0.1,0.5-0.1c1.3-0.4,2.3-1.2,2.9-2.3l0.1,0.9c0.1,1.4,0.8,2.6,1.9,3.5
			c0.4,0.3,0.9,0.6,1.4,0.7l-0.2,0.3c-0.6,0.8-1.2,1.6-1.8,2.4c-0.6,0.7-1.1,1.4-1.5,1.9c-1.4,1.7-1.5,4.2-0.2,6.1l2.5,3.6
			c0.9,1.3,2.3,2,3.9,2.1c0.2,0.9,0.6,1.7,1.2,2.4c0.9,1.1,2.3,1.7,3.7,1.7h4.5c1.4,0,2.8-0.6,3.7-1.7c0.9-1.1,1.4-2.5,1.2-3.9
			c0-0.3-0.1-0.7-0.1-1.2c0-0.4-0.1-0.8-0.1-1.1c0-1-0.1-2-0.1-3c0-1,0-2-0.1-2.9c0-1,0-2,0-2.9c0-0.4,0-0.8,0-1.2
			c0.7-0.6,1.3-1.3,2-1.8c-0.1,0.4-0.1,0.8-0.2,1.2c-0.2,1.2-0.3,2.4-0.5,3.6c-0.2,1.3-0.2,2.6-0.2,3.7c0,3,0.8,5.4,2.5,7.2
			c1.8,1.9,4.1,3,6.9,3c2.1,0,4.1-0.4,5.9-1.2c1-0.5,1.9-1,2.8-1.7c0.6,1,1.6,1.8,2.7,2.2l4.5,1.5c0.5,0.2,1.1,0.3,1.6,0.3
			c1.9,0,3.7-1.1,4.6-2.9c0.3-0.7,0.6-1.4,0.9-2.1c0.7,0.9,1.6,1.7,2.6,2.3c2.4,1.5,5.5,2.2,9.5,2.2c1.6,0,3-0.1,4.4-0.2
			c1.3-0.1,2.4-0.2,3.5-0.4c1.1-0.1,2-0.6,2.8-1.3c0.1,0.1,0.3,0.3,0.5,0.6c0.4,0.5,0.6,0.8,0.6,0.9c0.9,1.7,2.6,2.6,4.4,2.6
			c0.8,0,1.5-0.2,2.2-0.5c2.4-1.2,4.6-2.6,6.3-4.3c0.3,2.4,2.3,4.3,4.8,4.4c1.2,0,2.5,0.1,3.6,0.1c1.3,0,2.3,0,3.2-0.1
			c1.2-0.1,2.3-0.3,3.3-0.7c1.3-0.5,2.6-1.3,3.6-2.4c1-1.1,1.8-2.6,2.4-4.5c0.4-1.4,0.8-3.3,1.1-5.7c0.1-1,0.2-2.1,0.4-3.3
			c0.2,0.6,0.6,1.2,1.1,1.7l3.9,4c1.1,1.1,2.6,1.6,4.1,1.5c1.5-0.2,2.9-1,3.7-2.3c0.3-0.4,0.6-0.9,0.9-1.4c0.4-0.5,0.7-1,1.1-1.5
			c0.4-0.5,0.9-1.2,1.4-1.9c0.5-0.7,1-1.4,1.5-2.1l0.6-0.8c0.6,0.7,1.2,1.5,1.9,2.3c0.8,1,1.6,1.9,2.4,2.9c0.8,0.9,1.7,1.9,2.6,3
			c1,1.1,1.9,2.1,2.9,3.2c1,1.1,2,2,2.9,2.9c0.9,0.9,2.2,1.4,3.5,1.4c0.1,0,0.1,0,0.2,0c1.4-0.1,2.7-0.7,3.6-1.7l3.3-3.9
			c1.8-2.1,1.6-5.2-0.5-7c-0.8-0.7-1.6-1.4-2.3-2.2c-0.8-0.7-1.5-1.5-2.2-2.2c-0.7-0.8-1.4-1.5-2.1-2.2c-0.7-0.7-1.3-1.3-1.8-1.9
			c-0.7-0.8-1.4-1.6-2.2-2.5c-0.8-1-1.7-2-2.6-3c-1-1.1-1.9-2.1-2.8-3c-2.4-2.3-5-3.4-7.6-3.2c-2.5,0.2-4.8,1.6-6.8,3.9
			c-0.6,0.7-1.2,1.5-1.9,2.3c-0.6,0.8-1.2,1.5-1.8,2.3c-0.6,0.7-1.2,1.5-1.7,2.1c-0.4,0.5-0.8,1-1.2,1.3c0,0-0.1,0.1-0.1,0.1
			c-0.4,0.5-0.9,0.9-1.3,1.3c-0.4,0.3-0.7,0.7-1.1,1c-0.5,0.4-0.9,0.9-1.2,1.4c0-0.2,0-0.4,0-0.6c0.1-0.4,0.1-0.9,0.1-1.3
			c0-0.2,0-0.4,0-0.7c0-0.1,0-0.3,0-0.4c2.3-0.4,4.1-2.5,4.1-4.9V20c0-2.8-2.2-5-5-5h-9.4v-1c0-2.8-2.2-5-5-5h-4c-2.8,0-5,2.2-5,5v1
			h-9.1c-2.8,0-5,2.2-5,5v2.3c-0.5-0.2-1-0.4-1.6-0.5c-1.2-0.1-2.4-0.2-3.6-0.3c-0.8,0-1.6,0-2.5-0.1v-1.8c0-1.5-0.7-3-1.9-3.9
			c-1-0.8-2.2-1.2-3.4-1.1c-0.1-0.6-0.4-1.2-0.8-1.7c-0.9-1.2-2.2-2-3.7-2.1l-4.9-0.4c-1.5-0.1-3,0.4-4,1.5c-1,1.1-1.5,2.6-1.4,4.1
			c0,0,0,0.1,0,0.3c-0.3,0-0.5,0-0.8,0c-0.6,0-1.3-0.1-2.1-0.2c-1.4-0.2-2.9,0.3-3.9,1.3c-1.1,1-1.6,2.4-1.6,3.8l0.1,4
			c0.1,2.6,2.2,4.8,4.8,4.9c0.2,0,0.4,0,0.6,0c-0.1,0.3-0.2,0.6-0.3,0.9c-0.5,1.4-1,2.8-1.5,4.3c-0.2,0.5-0.4,1-0.6,1.5
			c-0.4-1.7-1.6-3.2-3.3-3.8c-0.8-0.3-1.6-0.3-2.4-0.2c0.2-1.2,0.3-2.4,0.4-3.5c0.1-1.3,0.2-2.5,0.2-3.6c0-1.8-0.4-3.5-1.1-4.9
			c-0.8-1.7-2.2-3-3.8-3.9c-1.5-0.9-3.4-1.3-5.5-1.3c-1.4,0-2.9,0.3-4.4,0.8c0.2-1.4-0.1-2.8-1-3.9c-0.9-1.2-2.3-1.9-3.8-1.9
			l-4.7-0.1c-1.5,0-3,0.6-3.9,1.7c-1,1.1-1.4,2.7-1.1,4.2c0,0.2,0.1,0.4,0.1,0.6c-0.5,0-0.9,0-1.3,0c-0.3,0-0.6,0-1,0
			c-1.5-0.1-2.9,0.5-3.9,1.6c-0.3,0.3-0.6,0.7-0.8,1.1l-0.1-0.9c-0.2-1.5-1-2.8-2.2-3.6c-1.2-0.8-2.8-1-4.2-0.6
			c-0.8,0.2-1.7,0.5-2.5,0.7c-0.1-0.3-0.1-0.6-0.2-1c-0.5-2.6-2.9-4.3-5.5-4l-4.4,0.5c-1.5,0.2-2.9,1-3.7,2.4
			c-0.6,1-0.9,2.2-0.7,3.4c-0.2,0-0.5,0-0.7,0c-1.8-0.1-3.8-0.3-5.8-0.5c-1.4-0.2-2.9,0.3-3.9,1.3c-1.1,1-1.7,2.4-1.7,3.8l0.1,4.1
			C576.5,27.3,577.8,29.1,579.7,29.8z M708.8,37.4h1.2c-0.1,0.6-0.2,1.2-0.2,1.6c-0.2,0-0.3,0-0.5,0c-0.3,0-0.7,0-1,0
			C708.4,38.4,708.6,37.9,708.8,37.4z M687.2,34.5c1.1-0.9,1.7-2.3,1.8-3.7l0.1-2.7c0.7,0.3,1.4,0.5,2.2,0.5h5.1
			c-0.1,0.8-0.3,1.7-0.5,2.5c-0.3,1.3-0.7,2.5-1.3,3.6c-0.5,1-1.3,2-2.2,2.9c-0.8,0.7-1.7,1.4-2.9,2c-0.3-0.9-0.8-1.8-1.6-2.4
			c-1.2-1-2.7-1.4-4.2-1.1c-1.1,0.2-2.2,0.4-3.3,0.5c-1,0.1-2,0.2-3,0.2c0.1-0.5,0.1-1,0.1-1.6c1.1,0,2.1,0,3.1,0.1
			c1,0.1,1.9,0.2,2.7,0.3C684.7,35.9,686.1,35.4,687.2,34.5z"/>
		<path class="st26" d="M594.7,70c-0.2-1.4-0.9-2.6-2-3.4l-3-2.2c-1.2-0.9-2.8-1.2-4.3-0.8l-0.3,0.1h-24.3c-1.9,0-3.5,1.1-4.4,2.6
			c-0.9-1-2.2-1.6-3.7-1.6h-8.6c-0.6-2.1-2.5-3.6-4.8-3.6h-4.1c-2.3,0-4.2,1.5-4.8,3.6H522c-2,0-3.8,1.2-4.6,3
			c-0.6-0.2-1.1-0.3-1.8-0.3H510c0.1-1-0.2-2-0.7-2.9c-0.7-1.2-1.9-2-3.2-2.3l-4-0.9c-2.6-0.6-5.3,1-5.9,3.6c0,0.1,0,0.1-0.1,0.2
			c-0.6-1.1-1.6-2-2.7-2.4l-3.4-1.2c-1.3-0.4-2.6-0.4-3.8,0.2c-1.2,0.6-2.1,1.6-2.6,2.9c-0.2,0.7-0.6,1.5-0.9,2.4
			c0,0.1-0.1,0.2-0.1,0.3c-0.8,0.4-1.5,0.9-2,1.7l-0.9,1.3c0-0.1,0-0.3,0-0.4c-0.1-1.4-0.8-2.8-1.9-3.6l-2.8-2.2
			c-1.2-0.9-2.8-1.3-4.3-0.9l-0.3,0.1H449c-1.3,0-2.5,0.5-3.4,1.3c-0.7-2-2.5-3.5-4.7-3.5h-11.8c-2.8,0-5,2.2-5,5v23.1
			c0,2.8,2.2,5,5,5h3.8c2.8,0,5-2.2,5-5V74.5h3c1.3,0,2.5-0.5,3.4-1.3c0.2,0.6,0.5,1.2,0.9,1.6c-2.6,0.2-4.6,2.4-4.6,5v3.7
			c0,2.8,2.2,5,5,5h9.5v2.5l-1.3,0c-1.8-0.1-3.5,0.9-4.4,2.4c-0.9,1.6-1,3.5-0.1,5.1c0.1,0.2,0.3,0.6,0.6,1.2
			c0.2,0.6,0.3,0.8,0.3,0.9c0.4,2.4,2.5,4.1,4.9,4.1c1.6,0,3.1,0,4.3-0.1c1.6-0.1,3-0.3,4.3-0.8c2.5-0.9,3.8-2.4,4.4-3.6
			c0.7-1.3,1-2.9,1-4.7V94l0.9,0.5c2,1.2,4.7,0.8,6.2-1c0.9-1,1.7-2.1,2.6-3.3c0,0.1,0,0.3-0.1,0.4c-0.2,1.1-0.5,2-0.9,2.7
			c-0.7,1.3-0.7,2.8-0.2,4.2s1.7,2.4,3,2.9c0,0,0.1,0,0.4,0.2c0.4,0.2,0.7,0.3,1,0.5c0.2,0.1,0.4,0.2,0.6,0.3
			c0.4,0.2,0.8,0.4,1.2,0.5c0.8,1.7,2.5,2.9,4.6,2.9h3.4c2.8,0,5-2.2,5-5v-0.5l1.9-0.7c0.1,0.1,0.2,0.3,0.2,0.6
			c0.1,0.4,0.2,0.6,0.2,0.6c0.1,2.6,2.2,4.7,4.9,4.8c1.1,0,2.1,0,3.2,0.1c1.3,0,2.3,0,3.2-0.2c1.3-0.2,2.4-0.5,3.4-1
			c1.2-0.6,2.3-1.5,3.3-2.8c0.1-0.1,0.1-0.2,0.2-0.2c0.1,0.2,0.3,0.4,0.4,0.6c0.2,0.3,0.2,0.4,0.2,0.4c0.7,2,2.6,3.3,4.7,3.3
			c0.4,0,0.9-0.1,1.3-0.2c2.8-0.8,5.1-1.7,7-2.9c1.6-1,3-2.1,4-3.4c0.1,0.3,0.2,0.5,0.3,0.8c0.8,2,2.3,3.5,4.3,4.3
			c1.3,0.5,2.9,0.8,4.9,0.8h4.9c2,0,3.7-0.4,5.1-1.2c1.2-0.7,2.8-2,3.7-4.7c0.5-1.3,0.8-3,1-5.2c0.1-1.4-0.4-2.8-1.3-3.8
			c0.5-0.8,0.8-1.7,0.8-2.7v-3.6c0-1.2-0.4-2.2-1.1-3.1c0.2-0.6,0.3-1.2,0.3-1.8v-1.6c0.8,0.6,1.9,1,3,1h7.6
			c-0.1,0.3-0.1,0.6-0.1,0.9v12.5l-2.3-0.1c-1.8-0.1-3.5,0.9-4.4,2.4c-0.9,1.5-1,3.4-0.1,5c0.1,0.2,0.4,0.7,0.7,1.4
			c0.3,0.7,0.4,1,0.4,1.2c0.5,2.3,2.5,3.9,4.9,3.9c1.9,0,3.5,0,4.9-0.1c1.7-0.1,3.2-0.4,4.5-0.8c2.5-0.9,3.8-2.4,4.5-3.6
			c0.8-1.4,1.1-3,1.1-5V84.3c0.8-0.6,1.6-1.2,2.4-1.9c1.6-1.3,3.2-2.7,4.7-4.2c1.5-1.5,2.9-3,4-4.4C594.5,72.8,594.9,71.4,594.7,70z
			 M477.7,73.9c0,0.4,0,0.8,0,1.2l-0.4-0.2c-0.1-0.1-0.3-0.1-0.4-0.2C477.1,74.5,477.4,74.2,477.7,73.9z M519.7,91.4
			C519.7,91.3,519.7,91.3,519.7,91.4c0.1-0.1,0.1,0,0.1,0C519.8,91.4,519.8,91.4,519.7,91.4z"/>
		<path class="st26" d="M703.6,64.2H690c-1.4,0-2.7,0.6-3.6,1.5h-2.3c-0.4-1.9-1.9-3.4-3.9-3.8l-3.7-0.8c-1.3-0.3-2.7,0-3.8,0.8
			c-1.1,0.8-1.9,1.9-2.1,3.2c-0.3,1.8-0.8,3.6-1.4,5.3c-0.1,0.3-0.2,0.6-0.4,0.9c-0.4-0.3-0.8-0.5-1.3-0.8c-1.1-0.7-2.2-1.3-3.3-2
			c-1.2-0.7-2.3-1.3-3.3-1.7c-1.6-0.8-3.4-0.6-4.9,0.3c-0.9-0.2-1.8-0.3-2.7,0c0,0,0,0-0.1,0c-0.1-1.1-0.5-2.2-1.2-3.1
			c-0.9-1.1-2.3-1.7-3.7-1.7h-4.5c-1.5,0-3,0.7-3.9,1.9c-0.9,1.2-1.3,2.7-1,4.1c0,0,0,0.1,0,0.1l0,0.1c-0.4,0-0.9-0.1-1.5-0.1
			c-1.4-0.2-2.9,0.3-3.9,1.3s-1.7,2.4-1.6,3.8l0.1,3.2c0-0.1,0-0.1-0.1-0.2c-0.9-2.3-2.3-4.3-4-6.1c-1.7-1.7-3.8-3.1-6.2-4.1
			c-2.4-0.9-5-1.4-7.8-1.4c-2.9,0-5.7,0.5-8.3,1.6c-2.6,1-4.8,2.5-6.8,4.4c-1.9,1.8-3.5,4-4.6,6.4c-1.1,2.5-1.7,5.1-1.7,7.9
			c0,2.7,0.5,5.1,1.4,7.3c1,2.3,2.4,4.2,4.1,5.6c2,1.6,4.2,2.4,6.6,2.4c1.7,0,3.3-0.4,4.8-1.2l0.9,1.4c0.9,1.5,2.5,2.3,4.2,2.3
			c0.2,0,0.5,0,0.7-0.1c3.7-0.5,6.9-1.6,9.5-3.3c2.7-1.7,4.9-4,6.3-6.7c0.2,1.4,0.7,2.7,1.6,3.9c0.9,1.3,2,2.4,3.3,3.4
			c1.2,0.9,2.5,1.5,3.9,2c1.5,0.5,3,0.8,4.4,0.8c1.6,0,3.1-0.4,4.4-1.1c0.1,0,0.2-0.1,0.3-0.2c1,0.8,2.3,1.2,3.7,1.1
			c0.7-0.1,1.4-0.1,2.2-0.2c1-0.1,2-0.2,3-0.4c0.1,0,0.1,0,0.2,0c2.5-0.6,4.5-1.5,6.2-2.7c1-0.7,1.8-1.5,2.6-2.4
			c0.2,1.4,1,2.7,2.1,3.5c0,0,0.1,0.1,0.2,0.2c0.3,0.3,0.6,0.6,0.9,0.9c0.1,0.1,0.2,0.3,0.3,0.4c0.7,1.2,1.9,2,3.3,2.2
			c0.3,0.1,0.6,0.1,0.9,0.1c1,0,2.1-0.3,2.9-1c1.9-1.4,3.5-2.9,4.8-4.7c0.1,0.2,0.3,0.4,0.4,0.5c0.8,1.2,2.2,2,3.6,2.2
			c0.9,1.2,2.3,1.9,4,1.9h3.7c1.3,0,2.4-0.5,3.3-1.2c0.8,0.5,1.7,0.7,2.6,0.7h3.9c2.8,0,5-2.2,5-5v-29
			C708.6,66.5,706.3,64.2,703.6,64.2z M617.9,86.7c0.1-0.4,0.3-0.9,0.4-1.3c0.2-0.5,0.3-1.1,0.5-1.6c0,0,0,0,0,0
			c0,0.7-0.1,1.4-0.3,1.9C618.3,86.1,618.2,86.4,617.9,86.7z M633.3,85.2c-0.1,0.1-0.1,0.2-0.2,0.3c0-0.5,0.1-1,0.1-1.5
			c0-1.2-0.1-2.4-0.3-3.6c0.8,1,1.9,1.8,3.2,2C635,83.2,634.1,84.2,633.3,85.2z M669.1,92.3c0.3-1.1,0.4-2.3,0.4-3.5
			c0-0.1,0-0.3,0-0.4c0.7,0.4,1.5,0.7,2.4,0.7c-0.2,0.3-0.3,0.6-0.5,0.8C670.8,90.7,670,91.5,669.1,92.3z"/>
		<path class="st26" d="M796.8,71.7H793c-2.8,0-5,2.2-5,5v14.6h-3c-1.9,0-3.5,1.1-4.4,2.6l0-1.1c0-1.5-0.6-3-1.8-4
			c-0.5-0.4-1-0.7-1.5-0.9c0-0.1,0-0.1,0-0.2c0,0,0-0.1,0-0.1c0.2-0.8,0.3-1.8,0.4-3c0-0.2,0-0.3,0-0.5c0.3,0,0.5,0,0.7,0
			c0.1,0,0.3,0,0.3,0c1.4,0.2,2.9-0.3,3.9-1.2c1.1-0.9,1.7-2.3,1.7-3.7v-4c0-1.4-0.6-2.7-1.6-3.6c-1-0.9-2.3-1.4-3.7-1.4
			c-0.3,0-0.6,0-0.9,0l0-0.7c0-0.2,0-0.4,0-0.5c0.2-1.4-0.3-2.9-1.2-3.9c-0.9-1.1-2.3-1.7-3.7-1.7h-4.4c-1.5,0-2.9,0.7-3.8,1.8
			c-0.7,0.9-1.1,1.9-1.1,3c-0.2-0.7-0.6-1.4-1.1-2c-0.9-1.1-2.3-1.7-3.8-1.7h-4.5c-1.5,0-2.9,0.6-3.8,1.8c-0.9,1.1-1.4,2.6-1.1,4
			c0.1,0.4,0.1,0.9,0.1,1.3c0,0.3,0,0.7,0,1c-0.3,0-0.5,0-0.8,0.1c-0.6,0-1.1,0.1-1.6,0.1c-1.4,0-2.8,0.6-3.7,1.7
			c-0.9,1.1-1.4,2.5-1.3,3.9L743,82c-0.1-0.2-0.2-0.4-0.4-0.6c-1.1-1.8-2.7-3.2-4.6-4.3c0.2-0.4,0.4-0.9,0.5-1.3l1-4
			c0.3-1.4,0.1-2.9-0.8-4.1c-0.8-1.2-2.2-1.9-3.6-2.1c-0.7-0.1-1.6-0.2-2.7-0.4c-1.2-0.2-2.5-0.4-3.9-0.7c-1.3-0.3-2.6-0.5-3.9-0.8
			c-1.1-0.3-2.1-0.5-2.8-0.7c-1.3-0.4-2.7-0.3-3.9,0.4c-1.2,0.7-2.1,1.8-2.4,3.1l-0.7,2.8c-0.7,0.2-1.4,0.5-2,1
			c-1.1,0.9-1.7,2.2-1.8,3.6c0,0.8-0.1,1.7-0.2,2.7c-0.1,1-0.2,2.1-0.3,3.2c-0.1,1.1-0.2,2.1-0.4,3.2c-0.1,1.1-0.3,2-0.4,3
			c-0.1,0.9-0.3,1.6-0.4,2.2c-0.5,2.6,1.1,5.2,3.7,5.9l0.5,0.1c0,0.4,0.1,0.9,0.2,1.3l1.3,4.2c0.6,2,2.3,3.4,4.4,3.5
			c1.8,0.2,3.4,0.2,4.9,0.2c2,0,3.8-0.1,5.5-0.4c3.2-0.5,5.8-1.4,7.9-2.7c2.4-1.4,4.2-3.3,5.3-5.5c1.1-2.1,1.6-4.4,1.6-6.8
			c0-1-0.1-1.9-0.3-2.8c0.2,0.2,0.4,0.5,0.7,0.7c1.1,0.8,2.5,1.2,3.8,1c0.3,0,0.7-0.1,1.2-0.2c0,0,0,0,0,0c0,0.3,0,0.6,0,0.8
			c0,0.9,0,1.6,0,2c0,0.1,0,0.1,0,0.2c0.1,1.9,0.2,3.4,0.5,4.8c0.5,2.1,1.4,3.8,2.9,5.1c1.4,1.2,3.2,2.1,5.4,2.5
			c1.7,0.3,3.8,0.5,6.4,0.5c1.2,0,2.6,0,3.9-0.1c1.3-0.1,2.6-0.1,3.8-0.2c1.3-0.1,2.3-0.2,3.2-0.3c1.7-0.2,3.1-1.3,3.9-2.8v0.6
			c0,2.8,2.2,5,5,5h11.8c2.8,0,5-2.2,5-5V76.7C801.8,74,799.6,71.7,796.8,71.7z M729,88.7c-0.5,0.2-1.1,0.4-2.1,0.5
			c-0.3,0.1-0.7,0.1-1.1,0.1C726.8,89,727.9,88.8,729,88.7z M764.1,71.4c0-0.4,0.1-0.8,0.1-1.2c0-0.1,0-0.2,0-0.3
			c0,0.3,0,0.6,0.1,0.9c0,0.2,0,0.4,0,0.5L764.1,71.4C764.1,71.4,764.1,71.4,764.1,71.4z"/>
	</g>
	<g>
		<path class="st23" d="M460.4,32.4h9.5v2.5l-1.3,0c-1.8-0.1-3.5,0.9-4.4,2.4s-1,3.5-0.1,5.1c0.1,0.2,0.3,0.6,0.6,1.2
			c0.2,0.6,0.3,0.8,0.3,0.9c0.4,2.4,2.5,4.1,4.9,4.1c1.6,0,3.1,0,4.3-0.1c1.6-0.1,3-0.3,4.3-0.8c2.5-0.9,3.8-2.4,4.4-3.6
			c0.7-1.3,1-2.9,1-4.7V38l0.9,0.5c2,1.2,4.7,0.8,6.2-1c0.9-1,1.7-2.1,2.6-3.3c0,0.1,0,0.3-0.1,0.4c-0.2,1.1-0.5,2-0.9,2.7
			c-0.7,1.3-0.7,2.8-0.2,4.2s1.7,2.4,3,2.9c0,0,0.1,0,0.4,0.2c0.4,0.2,0.7,0.3,1,0.5c0.2,0.1,0.4,0.2,0.6,0.3
			c0.4,0.2,0.8,0.4,1.2,0.5c0.8,1.7,2.5,2.9,4.6,2.9h3.4c2.8,0,5-2.2,5-5v-0.5l1.9-0.7c0.1,0.1,0.2,0.3,0.2,0.6
			c0.1,0.4,0.2,0.6,0.2,0.6c0.1,2.6,2.2,4.7,4.9,4.8c1.1,0,2.1,0,3.2,0.1c1.3,0,2.3,0,3.2-0.2c1.3-0.2,2.4-0.5,3.4-1
			c1.2-0.6,2.3-1.5,3.3-2.8c0.8-1,1.3-2.3,1.8-4c0.3-1.3,0.6-2.9,0.8-5c0.1-0.5,0.1-1.1,0.2-1.7l2.8,2.1c0.4,0.3,0.9,0.6,1.4,0.7
			c0.1,3.5,1.5,5.7,2.7,6.9c1.5,1.5,3.5,2.6,5.9,3.1c1.8,0.4,3.9,0.7,6.1,0.7c1.2,0,2.4,0,3.7-0.1c1.3-0.1,2.6-0.1,3.9-0.3
			c1.2-0.1,2.2-0.2,3.1-0.3c2.5-0.3,4.3-2.3,4.4-4.8l0.1-4.1c0.1-1.5-0.6-3-1.7-4c-1.1-1-2.7-1.4-4.2-1.1c-0.5,0.1-1,0.2-1.6,0.3
			c0-0.2,0-0.5,0-0.7c1.1-0.5,2.1-0.9,3-1.2l1.2-0.5c0.5-0.2,0.9-0.3,1.4-0.5c0.3-0.1,0.6-0.2,0.8-0.3c1.4-0.4,2.6-1.3,3.2-2.6
			c0.6-1.3,0.7-2.8,0.1-4.2l-1.6-3.8c-0.5-1.3-1.6-2.3-2.9-2.7c-0.2-0.1-0.4-0.1-0.6-0.2v-1.9c0-1.5-0.6-2.9-1.8-3.8
			c-1.1-0.9-2.6-1.4-4.1-1.1c-1.2,0.2-2.5,0.4-3.9,0.5c-0.2-0.5-0.4-0.9-0.7-1.3c-0.9-1.2-2.2-1.9-3.6-2l-4.2-0.4
			c-1.3-0.1-2.7,0.3-3.7,1.2c-0.9,0.8-1.5,1.8-1.6,3c-0.2,0-0.4,0-0.6,0c-1.1-0.1-2-0.2-2.8-0.3c-1.4-0.2-2.9,0.3-3.9,1.2
			c-0.4,0.3-0.7,0.7-1,1.2c-0.9-0.9-2.1-1.4-3.5-1.4h-5.7c0.1-1-0.2-2-0.7-2.9c-0.7-1.2-1.9-2-3.2-2.3l-4-0.9
			c-2.6-0.6-5.3,1-5.9,3.6c0,0.1,0,0.1-0.1,0.2c-0.6-1.1-1.6-2-2.7-2.4l-3.4-1.2C503.6,5,502.2,5,501,5.6c-1.2,0.6-2.1,1.6-2.6,2.9
			c-0.2,0.7-0.6,1.5-0.9,2.4c0,0.1-0.1,0.2-0.1,0.3c-0.8,0.4-1.5,0.9-2,1.7l-0.9,1.3c0-0.1,0-0.3,0-0.4c-0.1-1.4-0.8-2.8-1.9-3.6
			l-2.8-2.2c-1.2-0.9-2.8-1.3-4.3-0.9l-0.3,0.1h-21.2c-2.8,0-5,2.2-5,5v3.5c0,1.2,0.4,2.3,1.1,3.2c-2.6,0.2-4.6,2.4-4.6,5v3.7
			C455.4,30.2,457.7,32.4,460.4,32.4z M535.3,24.2c0-0.4,0-0.7,0-1.1c0.2,0.1,0.4,0.3,0.6,0.4C535.8,23.8,535.6,24,535.3,24.2z
			 M492.6,17.9c0,0.4,0,0.8,0,1.2l-0.4-0.2c-0.1-0.1-0.3-0.1-0.4-0.2C492,18.5,492.3,18.2,492.6,17.9z"/>
		<path class="st23" d="M575.7,25.8C575.7,25.8,575.7,25.9,575.7,25.8c-0.8,1.5-1.3,2.9-1.7,4.2c-0.5,1.5-0.7,3.1-0.7,4.6
			c0,2.8,0.9,5.4,2.6,7.5c1.6,1.9,3.7,3.3,6.3,4.2c2.3,0.8,4.9,1.2,7.9,1.2c2.3,0,4.4-0.1,6.2-0.3c1.7-0.2,3.1-0.4,4.3-0.6
			c2.3-0.4,4-2.3,4.1-4.7l0.2-4.1c0.1-1-0.2-1.9-0.7-2.8c0,0,0,0,0,0l2-2.9c1.3-1.9,1.1-4.4-0.3-6.1c-0.3-0.3-0.5-0.6-0.8-1
			c-0.2-0.2-0.4-0.5-0.6-0.8c0.2,0,0.3-0.1,0.5-0.1c1.3-0.4,2.3-1.2,2.9-2.3l0.1,0.9c0.1,1.4,0.8,2.6,1.9,3.5
			c0.4,0.3,0.9,0.6,1.4,0.7l-0.2,0.3c-0.6,0.8-1.2,1.6-1.8,2.4c-0.6,0.7-1.1,1.4-1.5,1.9c-1.4,1.7-1.5,4.2-0.2,6.1l2.5,3.6
			c0.9,1.3,2.3,2,3.9,2.1c0.2,0.9,0.6,1.7,1.2,2.4c0.9,1.1,2.3,1.7,3.7,1.7h4.5c1.4,0,2.8-0.6,3.7-1.7c0.9-1.1,1.4-2.5,1.2-3.9
			c0-0.3-0.1-0.7-0.1-1.2c0-0.4-0.1-0.8-0.1-1.1c0-1-0.1-2-0.1-3c0-1,0-2-0.1-2.9c0-1,0-2,0-2.9c0-0.4,0-0.8,0-1.2
			c0.7-0.6,1.3-1.3,2-1.8c-0.1,0.4-0.1,0.8-0.2,1.2c-0.2,1.2-0.3,2.4-0.5,3.6c-0.2,1.3-0.2,2.6-0.2,3.7c0,3,0.8,5.4,2.5,7.2
			c1.8,1.9,4.1,3,6.9,3c2.1,0,4.1-0.4,5.9-1.2c1-0.5,1.9-1,2.8-1.7c0.6,1,1.6,1.8,2.7,2.2l4.5,1.5c0.5,0.2,1.1,0.3,1.6,0.3
			c1.9,0,3.7-1.1,4.6-2.9c0.3-0.7,0.6-1.4,0.9-2.1c0.7,0.9,1.6,1.7,2.6,2.3c2.4,1.5,5.5,2.2,9.5,2.2c1.6,0,3-0.1,4.4-0.2
			c1.3-0.1,2.4-0.2,3.5-0.4c1.1-0.1,2-0.6,2.8-1.3c0.1,0.1,0.3,0.3,0.5,0.6c0.4,0.5,0.6,0.8,0.6,0.9c0.9,1.7,2.6,2.6,4.4,2.6
			c0.8,0,1.5-0.2,2.2-0.5c2.4-1.2,4.6-2.6,6.3-4.3c0.3,2.4,2.3,4.3,4.8,4.4c1.2,0,2.5,0.1,3.6,0.1c1.3,0,2.3,0,3.2-0.1
			c1.2-0.1,2.3-0.3,3.3-0.7c1.3-0.5,2.6-1.3,3.6-2.4c1-1.1,1.8-2.6,2.4-4.5c0.4-1.4,0.8-3.3,1.1-5.7c0.1-1,0.2-2.1,0.4-3.3
			c0.2,0.6,0.6,1.2,1.1,1.7l3.9,4c1.1,1.1,2.6,1.6,4.1,1.5c1.5-0.2,2.9-1,3.7-2.3c0.3-0.4,0.6-0.9,0.9-1.4c0.4-0.5,0.7-1,1.1-1.5
			c0.4-0.5,0.9-1.2,1.4-1.9c0.5-0.7,1-1.4,1.5-2.1l0.6-0.8c0.6,0.7,1.2,1.5,1.9,2.3c0.8,1,1.6,1.9,2.4,2.9c0.8,0.9,1.7,1.9,2.6,3
			c1,1.1,1.9,2.1,2.9,3.2c1,1.1,2,2,2.9,2.9c0.9,0.9,2.2,1.4,3.5,1.4c0.1,0,0.1,0,0.2,0c1.4-0.1,2.7-0.7,3.6-1.7l3.3-3.9
			c1.8-2.1,1.6-5.2-0.5-7c-0.8-0.7-1.6-1.4-2.3-2.2c-0.8-0.7-1.5-1.5-2.2-2.2c-0.7-0.8-1.4-1.5-2.1-2.2c-0.7-0.7-1.3-1.3-1.8-1.9
			c-0.7-0.8-1.4-1.6-2.2-2.5c-0.8-1-1.7-2-2.6-3c-1-1.1-1.9-2.1-2.8-3c-2.4-2.3-5-3.4-7.6-3.2c-2.5,0.2-4.8,1.6-6.8,3.9
			c-0.6,0.7-1.2,1.5-1.9,2.3c-0.6,0.8-1.2,1.5-1.8,2.3c-0.6,0.7-1.2,1.5-1.7,2.1c-0.4,0.5-0.8,1-1.2,1.3c0,0-0.1,0.1-0.1,0.1
			c-0.4,0.5-0.9,0.9-1.3,1.3c-0.4,0.3-0.7,0.7-1.1,1c-0.5,0.4-0.9,0.9-1.2,1.4c0-0.2,0-0.4,0-0.6c0.1-0.4,0.1-0.9,0.1-1.3
			c0-0.2,0-0.4,0-0.7c0-0.1,0-0.3,0-0.4c2.3-0.4,4.1-2.5,4.1-4.9V16c0-2.8-2.2-5-5-5h-9.4v-1c0-2.8-2.2-5-5-5h-4c-2.8,0-5,2.2-5,5v1
			h-9.1c-2.8,0-5,2.2-5,5v2.3c-0.5-0.2-1-0.4-1.6-0.5c-1.2-0.1-2.4-0.2-3.6-0.3c-0.8,0-1.6,0-2.5-0.1v-1.8c0-1.5-0.7-3-1.9-3.9
			c-1-0.8-2.2-1.2-3.4-1.1c-0.1-0.6-0.4-1.2-0.8-1.7c-0.9-1.2-2.2-2-3.7-2.1l-4.9-0.4c-1.5-0.1-3,0.4-4,1.5c-1,1.1-1.5,2.6-1.4,4.1
			c0,0,0,0.1,0,0.3c-0.3,0-0.5,0-0.8,0c-0.6,0-1.3-0.1-2.1-0.2c-1.4-0.2-2.9,0.3-3.9,1.3c-1.1,1-1.6,2.4-1.6,3.8l0.1,4
			c0.1,2.6,2.2,4.8,4.8,4.9c0.2,0,0.4,0,0.6,0c-0.1,0.3-0.2,0.6-0.3,0.9c-0.5,1.4-1,2.8-1.5,4.3c-0.2,0.5-0.4,1-0.6,1.5
			c-0.4-1.7-1.6-3.2-3.3-3.8c-0.8-0.3-1.6-0.3-2.4-0.2c0.2-1.2,0.3-2.4,0.4-3.5c0.1-1.3,0.2-2.5,0.2-3.6c0-1.8-0.4-3.5-1.1-4.9
			c-0.8-1.7-2.2-3-3.8-3.9c-1.5-0.9-3.4-1.3-5.5-1.3c-1.4,0-2.9,0.3-4.4,0.8c0.2-1.4-0.1-2.8-1-3.9c-0.9-1.2-2.3-1.9-3.8-1.9
			l-4.7-0.1c-1.5,0-3,0.6-3.9,1.7c-1,1.1-1.4,2.7-1.1,4.2c0,0.2,0.1,0.4,0.1,0.6c-0.5,0-0.9,0-1.3,0c-0.3,0-0.7,0-1,0
			c-1.5-0.1-2.9,0.5-3.9,1.6c-0.3,0.3-0.6,0.7-0.8,1.1l-0.1-0.9c-0.2-1.5-1-2.8-2.2-3.6c-1.2-0.8-2.8-1-4.2-0.6
			c-0.8,0.2-1.7,0.5-2.5,0.7c-0.1-0.3-0.1-0.6-0.2-1c-0.5-2.6-2.9-4.3-5.5-4l-4.4,0.5c-1.5,0.2-2.9,1-3.7,2.4
			c-0.6,1-0.9,2.2-0.7,3.4c-0.2,0-0.5,0-0.7,0c-1.8-0.1-3.8-0.3-5.8-0.5c-1.4-0.2-2.9,0.3-3.9,1.3c-1.1,1-1.7,2.4-1.7,3.8l0.1,4.1
			C572.5,23.3,573.8,25.1,575.7,25.8z M704.8,33.4h1.2c-0.1,0.6-0.2,1.2-0.2,1.6c-0.2,0-0.3,0-0.5,0c-0.3,0-0.7,0-1,0
			C704.4,34.4,704.6,33.9,704.8,33.4z M683.2,30.5c1.1-0.9,1.7-2.3,1.8-3.7l0.1-2.7c0.7,0.3,1.4,0.5,2.2,0.5h5.1
			c-0.1,0.8-0.3,1.7-0.5,2.5c-0.3,1.3-0.7,2.5-1.3,3.6c-0.5,1-1.3,2-2.2,2.9c-0.8,0.7-1.7,1.4-2.9,2c-0.3-0.9-0.8-1.8-1.6-2.4
			c-1.2-1-2.7-1.4-4.2-1.1c-1.1,0.2-2.2,0.4-3.3,0.5c-1,0.1-2,0.2-3,0.2c0.1-0.5,0.1-1,0.1-1.6c1.1,0,2.1,0,3.1,0.1
			c1,0.1,1.9,0.2,2.7,0.3C680.7,31.9,682.1,31.4,683.2,30.5z"/>
		<path class="st23" d="M590.7,66c-0.2-1.4-0.9-2.6-2-3.4l-3-2.2c-1.2-0.9-2.8-1.2-4.3-0.8l-0.3,0.1h-24.3c-1.9,0-3.5,1.1-4.4,2.6
			c-0.9-1-2.2-1.6-3.7-1.6h-8.6c-0.6-2.1-2.5-3.6-4.8-3.6h-4.1c-2.3,0-4.2,1.5-4.8,3.6H518c-2,0-3.8,1.2-4.6,3
			c-0.6-0.2-1.1-0.3-1.8-0.3H506c0.1-1-0.2-2-0.7-2.9c-0.7-1.2-1.9-2-3.2-2.3l-4-0.9c-2.6-0.6-5.3,1-5.9,3.6c0,0.1,0,0.1-0.1,0.2
			c-0.6-1.1-1.6-2-2.7-2.4l-3.4-1.2c-1.3-0.4-2.6-0.4-3.8,0.2c-1.2,0.6-2.1,1.6-2.6,2.9c-0.2,0.7-0.6,1.5-0.9,2.4
			c0,0.1-0.1,0.2-0.1,0.3c-0.8,0.4-1.5,0.9-2,1.7l-0.9,1.3c0-0.1,0-0.3,0-0.4c-0.1-1.4-0.8-2.8-1.9-3.6l-2.8-2.2
			c-1.2-0.9-2.8-1.3-4.3-0.9l-0.3,0.1H445c-1.3,0-2.5,0.5-3.4,1.3c-0.7-2-2.5-3.5-4.7-3.5h-11.8c-2.8,0-5,2.2-5,5v23.1
			c0,2.8,2.2,5,5,5h3.8c2.8,0,5-2.2,5-5V70.5h3c1.3,0,2.5-0.5,3.4-1.3c0.2,0.6,0.5,1.2,0.9,1.6c-2.6,0.2-4.6,2.4-4.6,5v3.7
			c0,2.8,2.2,5,5,5h9.5v2.5l-1.3,0c-1.8-0.1-3.5,0.9-4.4,2.4c-0.9,1.6-1,3.5-0.1,5.1c0.1,0.2,0.3,0.6,0.6,1.2
			c0.2,0.6,0.3,0.8,0.3,0.9c0.4,2.4,2.5,4.1,4.9,4.1c1.6,0,3.1,0,4.3-0.1c1.6-0.1,3-0.3,4.3-0.8c2.5-0.9,3.8-2.4,4.4-3.6
			c0.7-1.3,1-2.9,1-4.7V90l0.9,0.5c2,1.2,4.7,0.8,6.2-1c0.9-1,1.7-2.1,2.6-3.3c0,0.1,0,0.3-0.1,0.4c-0.2,1.1-0.5,2-0.9,2.7
			c-0.7,1.3-0.7,2.8-0.2,4.2s1.7,2.4,3,2.9c0,0,0.1,0,0.4,0.2c0.4,0.2,0.7,0.3,1,0.5c0.2,0.1,0.4,0.2,0.6,0.3
			c0.4,0.2,0.8,0.4,1.2,0.5c0.8,1.7,2.5,2.9,4.6,2.9h3.4c2.8,0,5-2.2,5-5v-0.5l1.9-0.7c0.1,0.1,0.2,0.3,0.2,0.6
			c0.1,0.4,0.2,0.6,0.2,0.6c0.1,2.6,2.2,4.7,4.9,4.8c1.1,0,2.1,0,3.2,0.1c1.3,0,2.3,0,3.2-0.2c1.3-0.2,2.4-0.5,3.4-1
			c1.2-0.6,2.3-1.5,3.3-2.8c0.1-0.1,0.1-0.2,0.2-0.2c0.1,0.2,0.3,0.4,0.4,0.6c0.2,0.3,0.2,0.4,0.2,0.4c0.7,2,2.6,3.3,4.7,3.3
			c0.4,0,0.9-0.1,1.3-0.2c2.8-0.8,5.1-1.7,7-2.9c1.6-1,3-2.1,4-3.4c0.1,0.3,0.2,0.5,0.3,0.8c0.8,2,2.3,3.5,4.3,4.3
			c1.3,0.5,2.9,0.8,4.9,0.8h4.9c2,0,3.7-0.4,5.1-1.2c1.2-0.7,2.8-2,3.7-4.7c0.5-1.3,0.8-3,1-5.2c0.1-1.4-0.4-2.8-1.3-3.8
			c0.5-0.8,0.8-1.7,0.8-2.7v-3.6c0-1.2-0.4-2.2-1.1-3.1c0.2-0.6,0.3-1.2,0.3-1.8v-1.6c0.8,0.6,1.9,1,3,1h7.6
			c-0.1,0.3-0.1,0.6-0.1,0.9v12.5l-2.3-0.1c-1.8-0.1-3.5,0.9-4.4,2.4c-0.9,1.5-1,3.4-0.1,5c0.1,0.2,0.4,0.7,0.7,1.4
			c0.3,0.7,0.4,1,0.4,1.2c0.5,2.3,2.5,3.9,4.9,3.9c1.9,0,3.5,0,4.9-0.1c1.7-0.1,3.2-0.4,4.5-0.8c2.5-0.9,3.8-2.4,4.5-3.6
			c0.8-1.4,1.1-3,1.1-5V80.3c0.8-0.6,1.6-1.2,2.4-1.9c1.6-1.3,3.2-2.7,4.7-4.2c1.5-1.5,2.9-3,4-4.4C590.5,68.8,590.9,67.4,590.7,66z
			 M473.7,69.9c0,0.4,0,0.8,0,1.2l-0.4-0.2c-0.1-0.1-0.3-0.1-0.4-0.2C473.1,70.5,473.4,70.2,473.7,69.9z M515.7,87.4
			C515.7,87.3,515.7,87.3,515.7,87.4c0.1-0.1,0.1,0,0.1,0C515.8,87.4,515.8,87.4,515.7,87.4z"/>
		<path class="st23" d="M699.6,60.2H686c-1.4,0-2.7,0.6-3.6,1.5h-2.3c-0.4-1.9-1.9-3.4-3.9-3.8l-3.7-0.8c-1.3-0.3-2.7,0-3.8,0.8
			c-1.1,0.8-1.9,1.9-2.1,3.2c-0.3,1.8-0.8,3.6-1.4,5.3c-0.1,0.3-0.2,0.6-0.4,0.9c-0.4-0.3-0.8-0.5-1.3-0.8c-1.1-0.7-2.2-1.3-3.3-2
			c-1.2-0.7-2.3-1.3-3.3-1.7c-1.6-0.8-3.4-0.6-4.9,0.3c-0.9-0.2-1.8-0.3-2.7,0c0,0,0,0-0.1,0c-0.1-1.1-0.5-2.2-1.2-3.1
			c-0.9-1.1-2.3-1.7-3.7-1.7h-4.5c-1.5,0-3,0.7-3.9,1.9c-0.9,1.2-1.3,2.7-1,4.1c0,0,0,0.1,0,0.1l0,0.1c-0.4,0-0.9-0.1-1.5-0.1
			c-1.4-0.2-2.9,0.3-3.9,1.3s-1.7,2.4-1.6,3.8l0.1,3.2c0-0.1,0-0.1-0.1-0.2c-0.9-2.3-2.3-4.3-4-6.1c-1.7-1.7-3.8-3.1-6.2-4.1
			c-2.4-0.9-5-1.4-7.8-1.4c-2.9,0-5.7,0.5-8.3,1.6c-2.6,1-4.8,2.5-6.8,4.4c-1.9,1.8-3.5,4-4.6,6.4c-1.1,2.5-1.7,5.1-1.7,7.9
			c0,2.7,0.5,5.1,1.4,7.3c1,2.3,2.4,4.2,4.1,5.6c2,1.6,4.2,2.4,6.6,2.4c1.7,0,3.3-0.4,4.8-1.2l0.9,1.4c0.9,1.5,2.5,2.3,4.2,2.3
			c0.2,0,0.5,0,0.7-0.1c3.7-0.5,6.9-1.6,9.5-3.3c2.7-1.7,4.9-4,6.3-6.7c0.2,1.4,0.7,2.7,1.6,3.9c0.9,1.3,2,2.4,3.3,3.4
			c1.2,0.9,2.5,1.5,3.9,2c1.5,0.5,3,0.8,4.4,0.8c1.6,0,3.1-0.4,4.4-1.1c0.1,0,0.2-0.1,0.3-0.2c1,0.8,2.3,1.2,3.7,1.1
			c0.7-0.1,1.4-0.1,2.2-0.2c1-0.1,2-0.2,3-0.4c0.1,0,0.1,0,0.2,0c2.5-0.6,4.5-1.5,6.2-2.7c1-0.7,1.8-1.5,2.6-2.4
			c0.2,1.4,1,2.7,2.1,3.5c0,0,0.1,0.1,0.2,0.2c0.3,0.3,0.6,0.6,0.9,0.9c0.1,0.1,0.2,0.3,0.3,0.4c0.7,1.2,1.9,2,3.3,2.2
			c0.3,0.1,0.6,0.1,0.9,0.1c1,0,2.1-0.3,2.9-1c1.9-1.4,3.5-2.9,4.8-4.7c0.1,0.2,0.3,0.4,0.4,0.5c0.8,1.2,2.2,2,3.6,2.2
			c0.9,1.2,2.3,1.9,4,1.9h3.7c1.3,0,2.4-0.5,3.3-1.2c0.8,0.5,1.7,0.7,2.6,0.7h3.9c2.8,0,5-2.2,5-5v-29
			C704.6,62.5,702.3,60.2,699.6,60.2z M613.9,82.7c0.1-0.4,0.3-0.9,0.4-1.3c0.2-0.5,0.3-1.1,0.5-1.6c0,0,0,0,0,0
			c0,0.7-0.1,1.4-0.3,1.9C614.3,82.1,614.2,82.4,613.9,82.7z M629.3,81.2c-0.1,0.1-0.1,0.2-0.2,0.3c0-0.5,0.1-1,0.1-1.5
			c0-1.2-0.1-2.4-0.3-3.6c0.8,1,1.9,1.8,3.2,2C631,79.2,630.1,80.2,629.3,81.2z M665.1,88.3c0.3-1.1,0.4-2.3,0.4-3.5
			c0-0.1,0-0.3,0-0.4c0.7,0.4,1.5,0.7,2.4,0.7c-0.2,0.3-0.3,0.6-0.5,0.8C666.8,86.7,666,87.5,665.1,88.3z"/>
		<path class="st23" d="M792.8,67.7H789c-2.8,0-5,2.2-5,5v14.6h-3c-1.9,0-3.5,1.1-4.4,2.6l0-1.1c0-1.5-0.6-3-1.8-4
			c-0.5-0.4-1-0.7-1.5-0.9c0-0.1,0-0.1,0-0.2c0,0,0-0.1,0-0.1c0.2-0.8,0.3-1.8,0.4-3c0-0.2,0-0.3,0-0.5c0.3,0,0.5,0,0.7,0
			c0.1,0,0.3,0,0.3,0c1.4,0.2,2.9-0.3,3.9-1.2c1.1-0.9,1.7-2.3,1.7-3.7v-4c0-1.4-0.6-2.7-1.6-3.6c-1-0.9-2.3-1.4-3.7-1.4
			c-0.3,0-0.6,0-0.9,0l0-0.7c0-0.2,0-0.4,0-0.5c0.2-1.4-0.3-2.9-1.2-3.9c-0.9-1.1-2.3-1.7-3.7-1.7h-4.4c-1.5,0-2.9,0.7-3.8,1.8
			c-0.7,0.9-1.1,1.9-1.1,3c-0.2-0.7-0.6-1.4-1.1-2c-0.9-1.1-2.3-1.7-3.8-1.7h-4.5c-1.5,0-2.9,0.6-3.8,1.8c-0.9,1.1-1.4,2.6-1.1,4
			c0.1,0.4,0.1,0.9,0.1,1.3c0,0.3,0,0.7,0,1c-0.3,0-0.5,0-0.8,0.1c-0.6,0-1.1,0.1-1.6,0.1c-1.4,0-2.8,0.6-3.7,1.7
			c-0.9,1.1-1.4,2.5-1.3,3.9L739,78c-0.1-0.2-0.2-0.4-0.4-0.6c-1.1-1.8-2.7-3.2-4.6-4.3c0.2-0.4,0.4-0.9,0.5-1.3l1-4
			c0.3-1.4,0.1-2.9-0.8-4.1c-0.8-1.2-2.2-1.9-3.6-2.1c-0.7-0.1-1.6-0.2-2.7-0.4c-1.2-0.2-2.5-0.4-3.9-0.7c-1.3-0.3-2.6-0.5-3.9-0.8
			c-1.1-0.3-2.1-0.5-2.8-0.7c-1.3-0.4-2.7-0.3-3.9,0.4c-1.2,0.7-2.1,1.8-2.4,3.1l-0.7,2.8c-0.7,0.2-1.4,0.5-2,1
			c-1.1,0.9-1.7,2.2-1.8,3.6c0,0.8-0.1,1.7-0.2,2.7c-0.1,1-0.2,2.1-0.3,3.2c-0.1,1.1-0.2,2.1-0.4,3.2c-0.1,1.1-0.3,2-0.4,3
			c-0.1,0.9-0.3,1.6-0.4,2.2c-0.5,2.6,1.1,5.2,3.7,5.9l0.5,0.1c0,0.4,0.1,0.9,0.2,1.3l1.3,4.2c0.6,2,2.3,3.4,4.4,3.5
			c1.8,0.2,3.4,0.2,4.9,0.2c2,0,3.8-0.1,5.5-0.4c3.2-0.5,5.8-1.4,7.9-2.7c2.4-1.4,4.2-3.3,5.3-5.5c1.1-2.1,1.6-4.4,1.6-6.8
			c0-1-0.1-1.9-0.3-2.8c0.2,0.2,0.4,0.5,0.7,0.7c1.1,0.8,2.5,1.2,3.8,1c0.3,0,0.7-0.1,1.2-0.2c0,0,0,0,0,0c0,0.3,0,0.6,0,0.8
			c0,0.9,0,1.6,0,2c0,0.1,0,0.1,0,0.2c0.1,1.9,0.2,3.4,0.5,4.8c0.5,2.1,1.4,3.8,2.9,5.1c1.4,1.2,3.2,2.1,5.4,2.5
			c1.7,0.3,3.8,0.5,6.4,0.5c1.2,0,2.6,0,3.9-0.1c1.3-0.1,2.6-0.1,3.8-0.2c1.3-0.1,2.3-0.2,3.2-0.3c1.7-0.2,3.1-1.3,3.9-2.8v0.6
			c0,2.8,2.2,5,5,5h11.8c2.8,0,5-2.2,5-5V72.7C797.8,70,795.6,67.7,792.8,67.7z M725,84.7c-0.5,0.2-1.1,0.4-2.1,0.5
			c-0.3,0.1-0.7,0.1-1.1,0.1C722.8,85,723.9,84.8,725,84.7z M760.1,67.4c0-0.4,0.1-0.8,0.1-1.2c0-0.1,0-0.2,0-0.3
			c0,0.3,0,0.6,0.1,0.9c0,0.2,0,0.4,0,0.5L760.1,67.4C760.1,67.4,760.1,67.4,760.1,67.4z"/>
	</g>
	<g>
		<path class="st1" d="M460.4,23.8H490v3.7h-29.6V23.8z M463.9,12.1h22.3v3.5h-22.3V12.1z M474.9,26.7h4v12.7c0,1-0.2,1.8-0.4,2.4
			c-0.3,0.6-0.9,1-1.7,1.2c-0.8,0.3-1.7,0.5-2.9,0.5c-1.2,0.1-2.5,0.1-4.1,0.1c-0.1-0.6-0.3-1.2-0.6-1.9c-0.3-0.7-0.6-1.3-0.9-1.8
			c0.7,0,1.5,0,2.3,0.1c0.8,0,1.5,0,2.1,0c0.6,0,1,0,1.3,0c0.3,0,0.6-0.1,0.7-0.2c0.1-0.1,0.2-0.3,0.2-0.5V26.7z M468.9,20.1
			l1.9-2.9c1,0.4,2.1,0.8,3.3,1.2c1.2,0.5,2.4,0.9,3.7,1.4c1.2,0.5,2.4,0.9,3.5,1.4c1.1,0.5,2,0.9,2.8,1.2l-2.1,3.3
			c-0.7-0.4-1.6-0.8-2.7-1.3c-1.1-0.5-2.2-1-3.4-1.5c-1.2-0.5-2.4-1-3.6-1.5C471.1,21,469.9,20.5,468.9,20.1z M484.7,12.1h1l0.9-0.2
			l2.8,2.2c-1,1-2.1,2-3.4,3.1c-1.2,1-2.5,2-3.9,3c-1.3,0.9-2.6,1.8-3.9,2.4c-0.2-0.3-0.4-0.6-0.7-0.9s-0.6-0.6-0.9-1
			c-0.3-0.3-0.6-0.6-0.8-0.8c1.1-0.6,2.2-1.3,3.3-2.1c1.1-0.8,2.2-1.7,3.2-2.6c1-0.9,1.7-1.7,2.3-2.4V12.1z M488.7,23.8h0.8l0.7-0.3
			l3.1,1.4c-0.8,1.7-1.8,3.3-2.8,5c-1.1,1.7-2.1,3.1-3.2,4.3l-3.3-1.9c0.6-0.7,1.1-1.4,1.7-2.3c0.6-0.9,1.1-1.8,1.6-2.7
			c0.5-0.9,1-1.9,1.4-2.8V23.8z"/>
		<path class="st1" d="M499.2,31.1l3.2,0.6c-0.2,1.7-0.5,3.4-0.9,5.1c-0.4,1.7-0.9,3.1-1.4,4.2c-0.2-0.1-0.5-0.3-0.9-0.5
			c-0.4-0.2-0.7-0.4-1.1-0.5c-0.4-0.2-0.7-0.3-1-0.4c0.6-1.1,1-2.4,1.3-3.9S499,32.6,499.2,31.1z M497.5,26c1.7,0,3.6-0.1,5.9-0.2
			c2.3-0.1,4.7-0.2,7.1-0.3l0,3.1c-2.3,0.2-4.5,0.3-6.7,0.5c-2.2,0.1-4.2,0.3-6,0.4L497.5,26z M497.6,18.4l1.8-2.6
			c0.6,0.6,1.3,1.2,2,1.8c0.7,0.7,1.3,1.3,1.9,2c0.6,0.6,1,1.2,1.3,1.8l-2,3c-0.3-0.6-0.7-1.2-1.3-1.9c-0.5-0.7-1.1-1.4-1.8-2.1
			C498.8,19.6,498.2,18.9,497.6,18.4z M503.1,10.1l3.4,1.2c-0.5,0.9-1,1.8-1.5,2.8c-0.5,1-1,1.9-1.5,2.8s-1,1.7-1.5,2.3l-2.6-1.1
			c0.5-0.7,0.9-1.5,1.4-2.5c0.5-0.9,0.9-1.9,1.3-2.9C502.5,11.8,502.8,10.9,503.1,10.1z M507.5,14.3l3.3,1.4
			c-0.9,1.4-1.8,2.8-2.8,4.3c-1,1.5-2.1,2.9-3.1,4.3c-1,1.4-2,2.6-3,3.6l-2.3-1.2c0.7-0.8,1.4-1.7,2.1-2.7c0.7-1,1.5-2.1,2.2-3.2
			c0.7-1.1,1.4-2.2,2-3.3C506.4,16.3,507,15.3,507.5,14.3z M503.4,27.7h3.4v16.1h-3.4V27.7z M506.5,22.9l2.8-1.2
			c0.5,0.8,1,1.6,1.4,2.6c0.5,0.9,0.9,1.8,1.2,2.7c0.3,0.9,0.6,1.6,0.8,2.3l-3,1.4c-0.2-0.7-0.4-1.5-0.7-2.4
			c-0.3-0.9-0.7-1.8-1.1-2.7C507.4,24.6,507,23.7,506.5,22.9z M507.2,31.8l2.8-0.9c0.5,1.1,1,2.3,1.4,3.5c0.4,1.3,0.8,2.4,1,3.3
			l-3.1,1.1c-0.2-0.9-0.5-2.1-0.9-3.4C508.1,34.1,507.7,32.9,507.2,31.8z M515.9,10.1l4,0.9c-0.5,1.8-1.1,3.5-1.8,5.2
			c-0.7,1.7-1.5,3.3-2.3,4.8c-0.8,1.5-1.7,2.8-2.6,3.9c-0.3-0.2-0.6-0.5-1-0.8c-0.4-0.3-0.9-0.6-1.3-0.9c-0.4-0.3-0.8-0.5-1.1-0.7
			c0.9-1,1.8-2.1,2.6-3.4c0.8-1.3,1.5-2.7,2.1-4.3C515,13.2,515.5,11.6,515.9,10.1z M514.4,26.1l3.1-1.5c0.6,0.8,1.3,1.7,1.9,2.7
			c0.6,1,1.2,1.9,1.7,2.9c0.5,0.9,0.9,1.8,1.2,2.6l-3.3,1.8c-0.2-0.8-0.6-1.6-1.1-2.6c-0.5-1-1-2-1.6-3
			C515.7,27.9,515.1,27,514.4,26.1z M515.3,16.3h13.1V20h-13.1V16.3z M526.9,16.3h3.7c0,0.5,0,0.9,0,1.2c0,0.3,0,0.5,0,0.7
			c-0.1,4-0.3,7.4-0.4,10.2c-0.1,2.8-0.3,5.1-0.5,6.9c-0.2,1.8-0.4,3.2-0.7,4.2c-0.3,1-0.6,1.8-0.9,2.2c-0.5,0.6-1,1.1-1.5,1.3
			c-0.5,0.3-1.1,0.4-1.9,0.5c-0.6,0.1-1.5,0.1-2.5,0.1c-1,0-2.1,0-3.1-0.1c0-0.6-0.2-1.2-0.4-2c-0.2-0.7-0.5-1.4-0.9-1.9
			c1.2,0.1,2.2,0.2,3.2,0.2c1,0,1.7,0,2.2,0c0.4,0,0.7,0,0.9-0.1c0.2-0.1,0.5-0.2,0.6-0.5c0.3-0.3,0.6-0.9,0.8-1.9
			c0.2-1,0.4-2.3,0.6-4.1c0.2-1.8,0.3-4,0.5-6.6c0.1-2.7,0.3-5.9,0.4-9.6V16.3z"/>
		<path class="st1" d="M551.5,11.8c-0.1,0.7-0.3,1.5-0.6,2.5c-0.3,1-0.6,2.2-1.1,3.4c-0.4,0.9-0.8,1.9-1.4,2.9
			c-0.5,1-1.1,1.9-1.7,2.7c0.4-0.2,0.8-0.4,1.3-0.5c0.5-0.1,1-0.2,1.6-0.3s1-0.1,1.5-0.1c1.5,0,2.7,0.4,3.7,1.3
			c1,0.9,1.5,2.1,1.5,3.7c0,0.5,0,1.1,0,1.8c0,0.7,0,1.4,0,2.2c0,0.8,0,1.5,0.1,2.3c0,0.7,0,1.4,0,2h-3.9c0-0.4,0.1-0.9,0.1-1.5
			c0-0.6,0-1.2,0.1-1.9c0-0.7,0-1.3,0-1.9c0-0.6,0-1.1,0-1.6c0-1.1-0.3-1.9-0.9-2.4c-0.6-0.5-1.3-0.7-2.1-0.7
			c-1.1,0-2.1,0.2-3.2,0.7c-1,0.5-1.9,1.1-2.6,1.8c-0.5,0.5-1.1,1.1-1.6,1.8c-0.5,0.6-1.1,1.4-1.7,2.2l-3.5-2.6c1.6-1.5,3-3,4.1-4.3
			c1.2-1.4,2.1-2.7,2.9-4c0.8-1.3,1.4-2.6,1.9-3.8c0.4-1,0.7-2,0.9-3c0.2-1,0.4-2,0.4-2.9L551.5,11.8z M538.3,15.3
			c0.9,0.1,2,0.2,3.2,0.3c1.2,0.1,2.2,0.1,3.1,0.1c1.6,0,3.3,0,5.2-0.1c1.9-0.1,3.8-0.2,5.7-0.4c1.9-0.2,3.7-0.4,5.5-0.7v3.7
			c-1.3,0.2-2.6,0.4-4.1,0.5c-1.5,0.1-2.9,0.2-4.4,0.3c-1.5,0.1-2.9,0.1-4.3,0.2c-1.4,0-2.6,0.1-3.7,0.1c-0.5,0-1.1,0-1.8,0
			c-0.7,0-1.4,0-2.1-0.1c-0.7,0-1.5-0.1-2.1-0.1V15.3z M566.5,25.1c-0.4,0.1-0.8,0.2-1.2,0.4c-0.5,0.2-0.9,0.3-1.4,0.5
			c-0.5,0.2-0.9,0.3-1.3,0.5c-1.2,0.5-2.6,1.1-4.2,1.7c-1.6,0.7-3.2,1.4-4.9,2.3c-1.1,0.6-2.1,1.2-2.9,1.7c-0.8,0.6-1.4,1.2-1.8,1.8
			c-0.4,0.6-0.6,1.3-0.6,2c0,0.6,0.1,1,0.4,1.4c0.2,0.4,0.6,0.6,1.1,0.8c0.5,0.2,1.1,0.3,1.8,0.4c0.7,0.1,1.5,0.1,2.4,0.1
			c1.5,0,3.2-0.1,5-0.3c1.8-0.2,3.5-0.4,5.1-0.7l-0.1,4.1c-0.8,0.1-1.8,0.2-3,0.3c-1.2,0.1-2.4,0.2-3.6,0.2c-1.2,0-2.4,0.1-3.5,0.1
			c-1.8,0-3.5-0.2-4.9-0.5c-1.5-0.3-2.6-0.9-3.5-1.8c-0.9-0.9-1.3-2-1.3-3.5c0-1.2,0.3-2.3,0.8-3.3c0.6-1,1.3-1.9,2.2-2.7
			c0.9-0.8,1.9-1.5,3-2.2c1.1-0.6,2.2-1.2,3.2-1.8c1.1-0.6,2.2-1.1,3.1-1.5c0.9-0.4,1.8-0.8,2.6-1.2c0.8-0.3,1.6-0.7,2.3-1
			c0.6-0.3,1.3-0.6,1.9-0.9c0.6-0.3,1.2-0.6,1.8-0.9L566.5,25.1z"/>
		<path class="st1" d="M577.4,17c2.2,0.3,4.2,0.4,6.2,0.5c1.9,0.1,3.7,0.1,5.5,0.1c1.7-0.1,3.3-0.2,4.7-0.3c1.1-0.1,2.1-0.3,3.2-0.5
			c1.1-0.2,2.1-0.4,3.1-0.6c1-0.2,2-0.5,2.9-0.8l0.5,4c-0.8,0.2-1.7,0.5-2.6,0.6c-0.9,0.2-1.9,0.4-2.9,0.5c-1,0.2-2,0.3-2.9,0.4
			c-2.4,0.3-5,0.4-7.9,0.4c-2.9,0-6.1-0.1-9.6-0.4L577.4,17z M584.1,29.1c-0.6,0.8-1,1.7-1.3,2.5c-0.3,0.8-0.5,1.6-0.5,2.4
			c0,1.6,0.7,2.7,2,3.4c1.4,0.7,3.3,1.1,5.8,1.1c1.9,0,3.7-0.1,5.3-0.2c1.6-0.2,3-0.4,4.2-0.6l-0.2,4.1c-1,0.2-2.3,0.4-3.9,0.6
			c-1.6,0.2-3.5,0.3-5.6,0.3c-2.4,0-4.5-0.3-6.2-0.9c-1.8-0.6-3.1-1.5-4.1-2.6c-1-1.2-1.4-2.6-1.4-4.3c0-1.1,0.2-2.1,0.5-3.2
			c0.3-1,0.8-2.2,1.4-3.3L584.1,29.1z M590.5,15.1c-0.1-0.4-0.3-0.9-0.5-1.5s-0.4-1.2-0.6-1.7l4.4-0.5c0.2,0.9,0.4,1.7,0.6,2.6
			c0.2,0.9,0.5,1.8,0.8,2.7c0.3,0.9,0.6,1.7,0.9,2.5c0.6,1.5,1.2,3,2,4.5c0.8,1.5,1.5,2.6,2.1,3.5c0.3,0.4,0.6,0.8,0.9,1.2
			c0.3,0.4,0.6,0.7,0.9,1.1l-2,2.9c-0.5-0.1-1.1-0.2-1.9-0.3c-0.7-0.1-1.6-0.2-2.4-0.3c-0.9-0.1-1.8-0.2-2.6-0.3
			c-0.9-0.1-1.7-0.1-2.4-0.2l0.3-3.4c0.6,0,1.3,0.1,2,0.2c0.7,0.1,1.4,0.1,2,0.2c0.6,0.1,1.1,0.1,1.5,0.1c-0.5-0.7-0.9-1.5-1.5-2.4
			c-0.5-0.9-1-1.9-1.5-2.9c-0.5-1-0.9-2-1.3-3c-0.4-1-0.7-1.9-1-2.7C590.9,16.3,590.7,15.6,590.5,15.1z"/>
		<path class="st1" d="M620.3,21.3c-0.4,0-0.8,0.1-1.4,0.2c-0.6,0.1-1.2,0.2-1.9,0.3c-0.7,0.1-1.4,0.2-2.1,0.3
			c-0.7,0.1-1.4,0.2-2,0.3l-0.4-4.2c0.5,0,0.9,0,1.4,0c0.4,0,1,0,1.5-0.1c0.6,0,1.2-0.1,2-0.2c0.8-0.1,1.6-0.2,2.4-0.3
			c0.8-0.1,1.6-0.2,2.3-0.4s1.3-0.3,1.7-0.4l1.3,1.7c-0.2,0.3-0.4,0.6-0.7,1.1c-0.3,0.4-0.6,0.9-0.8,1.3c-0.3,0.4-0.5,0.8-0.7,1.2
			l-1.8,6.2c-0.4,0.6-0.9,1.3-1.5,2.2c-0.6,0.9-1.2,1.7-1.8,2.7c-0.6,0.9-1.3,1.9-1.9,2.8c-0.6,0.9-1.2,1.7-1.7,2.4l-2.5-3.6
			c0.5-0.6,1-1.2,1.6-2c0.6-0.8,1.2-1.6,1.9-2.5c0.6-0.9,1.3-1.7,1.9-2.6c0.6-0.9,1.2-1.7,1.7-2.4c0.5-0.8,1-1.4,1.3-1.9L620,22
			L620.3,21.3z M619.9,14.6c0-0.5,0-1,0-1.5c0-0.5,0-1-0.1-1.6l4.7,0.1c-0.1,0.6-0.3,1.3-0.4,2.4c-0.2,1-0.3,2.2-0.4,3.6
			c-0.1,1.4-0.3,2.8-0.4,4.3c-0.1,1.5-0.2,3-0.3,4.4c-0.1,1.5-0.1,2.9-0.1,4.1c0,1,0,2,0,3c0,1,0,2,0.1,3c0,1,0.1,2.1,0.1,3.2
			c0,0.3,0.1,0.7,0.1,1.2c0,0.5,0.1,1,0.1,1.3h-4.5c0-0.4,0.1-0.9,0.1-1.3c0-0.5,0-0.9,0-1.2c0-1.2,0-2.2,0.1-3.2c0-1,0-2,0.1-3.1
			c0-1.1,0-2.3,0.1-3.8c0-0.6,0.1-1.3,0.1-2.1c0-0.9,0.1-1.8,0.2-2.9c0.1-1,0.1-2.1,0.2-3.2c0.1-1.1,0.1-2.1,0.2-3
			c0.1-0.9,0.1-1.8,0.2-2.4C619.9,15.3,619.9,14.9,619.9,14.6z M645,38.5c-0.9,0.8-1.9,1.5-3,2c-1.1,0.5-2.4,0.8-3.8,0.8
			c-1.3,0-2.3-0.4-3.1-1.3c-0.8-0.9-1.2-2.2-1.2-3.9c0-1,0.1-2,0.2-3.2c0.1-1.1,0.3-2.3,0.4-3.4c0.2-1.2,0.3-2.3,0.5-3.3
			c0.1-1.1,0.2-2,0.2-2.8c0-0.9-0.2-1.6-0.7-2.1c-0.4-0.5-1.1-0.7-1.9-0.7c-0.8,0-1.8,0.3-2.8,0.8c-1,0.6-2.1,1.3-3.2,2.2
			c-1.1,0.9-2.1,1.8-3.1,2.9c-1,1-1.9,2-2.6,3v-5c0.5-0.5,1-1,1.7-1.7c0.7-0.6,1.5-1.3,2.4-2c0.9-0.7,1.8-1.4,2.8-2
			c1-0.6,2-1.1,3-1.5c1-0.4,2-0.6,2.9-0.6c1.2,0,2.3,0.2,3.1,0.7c0.8,0.4,1.4,1.1,1.8,1.8c0.4,0.8,0.6,1.7,0.6,2.7
			c0,0.9-0.1,1.9-0.2,3c-0.1,1.1-0.3,2.3-0.4,3.4c-0.2,1.2-0.3,2.3-0.4,3.4c-0.1,1.1-0.2,2.1-0.2,3c0,0.5,0.1,0.9,0.4,1.3
			c0.3,0.3,0.6,0.5,1.2,0.5c0.7,0,1.5-0.2,2.3-0.7c0.8-0.5,1.7-1.1,2.5-2L645,38.5z"/>
		<path class="st1" d="M655.6,17.5c1.4,0,2.9-0.1,4.5-0.2c1.6-0.1,3.2-0.3,4.8-0.6c1.6-0.3,3.2-0.6,4.7-1v4
			c-1.5,0.3-3.1,0.6-4.7,0.9c-1.7,0.2-3.3,0.4-4.9,0.6c-1.6,0.1-3.1,0.2-4.4,0.2c-0.8,0-1.6,0-2.3-0.1c-0.7,0-1.4-0.1-2-0.1l-0.1-4
			c0.9,0.1,1.7,0.2,2.4,0.2S654.9,17.5,655.6,17.5z M664.4,12c-0.1,0.5-0.3,1-0.4,1.7c-0.1,0.7-0.3,1.2-0.3,1.6
			c-0.2,0.8-0.4,1.8-0.6,3c-0.2,1.2-0.5,2.4-0.8,3.7c-0.3,1.3-0.6,2.5-0.9,3.7c-0.3,1.3-0.7,2.7-1.2,4.1c-0.5,1.5-0.9,3-1.5,4.5
			c-0.5,1.5-1,3-1.6,4.3c-0.5,1.4-1,2.6-1.5,3.7l-4.5-1.5c0.6-0.9,1.1-2,1.7-3.3c0.6-1.3,1.1-2.7,1.7-4.2c0.6-1.5,1.1-3,1.6-4.5
			c0.5-1.5,0.9-2.9,1.2-4.1c0.2-0.9,0.5-1.7,0.7-2.6c0.2-0.9,0.4-1.8,0.6-2.6c0.2-0.9,0.3-1.6,0.5-2.4c0.1-0.7,0.2-1.4,0.3-1.9
			c0.1-0.6,0.1-1.3,0.1-1.9c0-0.6,0-1.2,0-1.6L664.4,12z M668.5,31.8c-0.1,0.5-0.3,1.1-0.4,1.6c-0.1,0.6-0.1,1-0.1,1.4
			c0,0.4,0.1,0.8,0.2,1.2c0.2,0.4,0.4,0.7,0.8,0.9c0.4,0.3,0.9,0.5,1.6,0.6c0.7,0.2,1.6,0.2,2.6,0.2c1.2,0,2.4-0.1,3.6-0.2
			c1.2-0.1,2.5-0.3,3.7-0.6l-0.1,4.1c-1,0.1-2.1,0.2-3.3,0.3c-1.2,0.1-2.5,0.2-3.9,0.2c-3,0-5.3-0.5-6.8-1.5c-1.6-1-2.4-2.4-2.4-4.2
			c0-0.8,0.1-1.6,0.2-2.4c0.1-0.8,0.3-1.5,0.4-2.3L668.5,31.8z M666.9,22.9c1-0.1,2.1-0.2,3.3-0.2c1.2-0.1,2.4-0.1,3.5-0.1
			c1,0,2.1,0,3.2,0.1c1.1,0,2.1,0.1,3.1,0.2l-0.1,3.9c-0.9-0.1-1.9-0.2-2.9-0.3c-1-0.1-2.1-0.1-3.2-0.1c-1.2,0-2.4,0-3.5,0.1
			c-1.1,0.1-2.3,0.2-3.4,0.3V22.9z"/>
		<path class="st1" d="M697.8,18.2h4.3c-0.1,1.9-0.2,3.9-0.4,5.8c-0.2,2-0.5,3.9-1,5.8c-0.5,1.9-1.2,3.7-2.1,5.5
			c-0.9,1.7-2.1,3.3-3.6,4.8c-1.5,1.5-3.4,2.8-5.6,3.9c-0.3-0.5-0.7-1.1-1.2-1.7c-0.5-0.6-1-1.1-1.5-1.5c2.1-1,3.8-2.1,5.1-3.4
			c1.3-1.3,2.4-2.7,3.2-4.2c0.8-1.5,1.4-3.1,1.7-4.8c0.4-1.7,0.6-3.4,0.8-5.1C697.7,21.5,697.8,19.8,697.8,18.2z M687.2,16h32.5v3.7
			h-32.5V16z M699.2,24.7h14v3.6h-14V24.7z M701.3,9.9h4v7.5h-4V9.9z M711.7,24.7h4c0,0.4,0,0.8,0,1c0,0.3,0,0.5-0.1,0.7
			c-0.2,3.3-0.5,6.1-0.7,8.2c-0.3,2.1-0.6,3.8-0.9,4.9c-0.3,1.2-0.7,2-1.2,2.5c-0.5,0.6-1,0.9-1.6,1.1c-0.6,0.2-1.3,0.3-2.1,0.4
			c-0.7,0-1.6,0.1-2.7,0.1c-1.1,0-2.3,0-3.5-0.1c0-0.6-0.2-1.2-0.4-1.9c-0.3-0.7-0.6-1.3-1-1.9c1.3,0.1,2.5,0.2,3.6,0.2
			c1.1,0,2,0.1,2.5,0.1c0.4,0,0.7,0,1-0.1c0.3-0.1,0.5-0.2,0.7-0.4c0.4-0.3,0.7-1,1-2.1c0.3-1.1,0.5-2.6,0.8-4.6
			c0.2-2,0.4-4.5,0.6-7.5L711.7,24.7z"/>
		<path class="st1" d="M724.8,30.1c0.5-0.4,1-0.8,1.4-1.3c0.5-0.4,0.9-0.9,1.4-1.4c0.5-0.5,1-1,1.5-1.7c0.5-0.7,1.1-1.4,1.7-2.1
			c0.6-0.8,1.2-1.5,1.8-2.3c0.6-0.8,1.2-1.5,1.7-2.1c1.2-1.4,2.4-2.1,3.5-2.2c1.1-0.1,2.4,0.5,3.7,1.7c0.8,0.8,1.6,1.7,2.5,2.7
			c0.9,1,1.7,2,2.6,3c0.8,1,1.6,1.9,2.3,2.7c0.6,0.6,1.2,1.3,1.9,2c0.7,0.7,1.4,1.5,2.1,2.2c0.8,0.8,1.5,1.6,2.4,2.3
			c0.8,0.8,1.6,1.5,2.5,2.3l-3.3,3.9c-0.9-0.8-1.8-1.8-2.7-2.8c-0.9-1-1.9-2-2.8-3.1c-0.9-1-1.8-2-2.6-2.9c-0.7-0.9-1.5-1.8-2.3-2.8
			c-0.8-1-1.6-1.9-2.3-2.8c-0.7-0.9-1.4-1.7-1.9-2.3c-0.5-0.5-0.9-0.8-1.2-0.9c-0.3-0.1-0.7-0.1-1,0.1c-0.3,0.2-0.6,0.5-1,1
			c-0.4,0.5-0.8,1-1.3,1.7c-0.5,0.7-1,1.3-1.5,2.1c-0.5,0.7-1.1,1.4-1.6,2.1c-0.5,0.7-1,1.3-1.4,1.8c-0.4,0.6-0.8,1.1-1.2,1.7
			c-0.4,0.6-0.7,1.1-1,1.5L724.8,30.1z"/>
		<path class="st25" d="M425.1,62h11.8v3.5h-8v19.6h-3.8V62z"/>
		<path class="st25" d="M441.5,75.8h29.6v3.7h-29.6V75.8z M445,64.1h22.3v3.5H445V64.1z M456,78.7h4v12.7c0,1-0.2,1.8-0.4,2.4
			c-0.3,0.6-0.9,1-1.7,1.2c-0.8,0.3-1.7,0.5-2.9,0.5c-1.2,0.1-2.5,0.1-4.1,0.1c-0.1-0.6-0.3-1.2-0.6-1.9c-0.3-0.7-0.6-1.3-0.9-1.8
			c0.7,0,1.5,0,2.3,0.1c0.8,0,1.5,0,2.1,0c0.6,0,1,0,1.3,0c0.3,0,0.6-0.1,0.7-0.2c0.1-0.1,0.2-0.3,0.2-0.5V78.7z M450,72.1l1.9-2.9
			c1,0.4,2.1,0.8,3.3,1.2c1.2,0.5,2.4,0.9,3.7,1.4c1.2,0.5,2.4,0.9,3.5,1.4c1.1,0.5,2,0.9,2.8,1.2l-2.1,3.3
			c-0.7-0.4-1.6-0.8-2.7-1.3c-1.1-0.5-2.2-1-3.4-1.5c-1.2-0.5-2.4-1-3.6-1.5C452.2,73,451,72.5,450,72.1z M465.8,64.1h1l0.9-0.2
			l2.8,2.2c-1,1-2.1,2-3.4,3.1c-1.2,1-2.5,2-3.9,3c-1.3,0.9-2.6,1.8-3.9,2.4c-0.2-0.3-0.4-0.6-0.7-0.9s-0.6-0.6-0.9-1
			c-0.3-0.3-0.6-0.6-0.8-0.8c1.1-0.6,2.2-1.3,3.3-2.1c1.1-0.8,2.2-1.7,3.2-2.6c1-0.9,1.7-1.7,2.3-2.4V64.1z M469.8,75.8h0.8l0.7-0.3
			l3.1,1.4c-0.8,1.7-1.8,3.3-2.8,5c-1.1,1.7-2.1,3.1-3.2,4.3l-3.3-1.9c0.6-0.7,1.1-1.4,1.7-2.3c0.6-0.9,1.1-1.8,1.6-2.7
			c0.5-0.9,1-1.9,1.4-2.8V75.8z"/>
		<path class="st25" d="M480.3,83.1l3.2,0.6c-0.2,1.7-0.5,3.4-0.9,5.1c-0.4,1.7-0.9,3.1-1.4,4.2c-0.2-0.1-0.5-0.3-0.9-0.5
			c-0.4-0.2-0.7-0.4-1.1-0.5c-0.4-0.2-0.7-0.3-1-0.4c0.6-1.1,1-2.4,1.3-3.9S480.1,84.6,480.3,83.1z M478.6,78c1.7,0,3.6-0.1,5.9-0.2
			c2.3-0.1,4.7-0.2,7.1-0.3l0,3.1c-2.3,0.2-4.5,0.3-6.7,0.5c-2.2,0.1-4.2,0.3-6,0.4L478.6,78z M478.7,70.4l1.8-2.6
			c0.6,0.6,1.3,1.2,2,1.8c0.7,0.7,1.3,1.3,1.9,2c0.6,0.6,1,1.2,1.3,1.8l-2,3c-0.3-0.6-0.7-1.2-1.3-1.9c-0.5-0.7-1.1-1.4-1.8-2.1
			C479.9,71.6,479.3,70.9,478.7,70.4z M484.2,62.1l3.4,1.2c-0.5,0.9-1,1.8-1.5,2.8c-0.5,1-1,1.9-1.5,2.8s-1,1.7-1.5,2.3l-2.6-1.1
			c0.5-0.7,0.9-1.5,1.4-2.5c0.5-0.9,0.9-1.9,1.3-2.9C483.6,63.8,483.9,62.9,484.2,62.1z M488.6,66.3l3.3,1.4
			c-0.9,1.4-1.8,2.8-2.8,4.3c-1,1.5-2.1,2.9-3.1,4.3c-1,1.4-2,2.6-3,3.6l-2.3-1.2c0.7-0.8,1.4-1.7,2.1-2.7c0.7-1,1.5-2.1,2.2-3.2
			c0.7-1.1,1.4-2.2,2-3.3C487.5,68.3,488.1,67.3,488.6,66.3z M484.5,79.7h3.4v16.1h-3.4V79.7z M487.6,74.9l2.8-1.2
			c0.5,0.8,1,1.6,1.4,2.6c0.5,0.9,0.9,1.8,1.2,2.7c0.3,0.9,0.6,1.6,0.8,2.3l-3,1.4c-0.2-0.7-0.4-1.5-0.7-2.4
			c-0.3-0.9-0.7-1.8-1.1-2.7C488.5,76.6,488.1,75.7,487.6,74.9z M488.3,83.8l2.8-0.9c0.5,1.1,1,2.3,1.4,3.5c0.4,1.3,0.8,2.4,1,3.3
			l-3.1,1.1c-0.2-0.9-0.5-2.1-0.9-3.4C489.2,86.1,488.8,84.9,488.3,83.8z M497,62.1l4,0.9c-0.5,1.8-1.1,3.5-1.8,5.2
			c-0.7,1.7-1.5,3.3-2.3,4.8c-0.8,1.5-1.7,2.8-2.6,3.9c-0.3-0.2-0.6-0.5-1-0.8c-0.4-0.3-0.9-0.6-1.3-0.9c-0.4-0.3-0.8-0.5-1.1-0.7
			c0.9-1,1.8-2.1,2.6-3.4c0.8-1.3,1.5-2.7,2.1-4.3C496.1,65.2,496.6,63.6,497,62.1z M495.5,78.1l3.1-1.5c0.6,0.8,1.3,1.7,1.9,2.7
			c0.6,1,1.2,1.9,1.7,2.9c0.5,0.9,0.9,1.8,1.2,2.6l-3.3,1.8c-0.2-0.8-0.6-1.6-1.1-2.6c-0.5-1-1-2-1.6-3
			C496.8,79.9,496.2,79,495.5,78.1z M496.4,68.3h13.1V72h-13.1V68.3z M508,68.3h3.7c0,0.5,0,0.9,0,1.2c0,0.3,0,0.5,0,0.7
			c-0.1,4-0.3,7.4-0.4,10.2c-0.1,2.8-0.3,5.1-0.5,6.9c-0.2,1.8-0.4,3.2-0.7,4.2c-0.3,1-0.6,1.8-0.9,2.2c-0.5,0.6-1,1.1-1.5,1.3
			c-0.5,0.3-1.1,0.4-1.9,0.5c-0.6,0.1-1.5,0.1-2.5,0.1c-1,0-2.1,0-3.1-0.1c0-0.6-0.2-1.2-0.4-2c-0.2-0.7-0.5-1.4-0.9-1.9
			c1.2,0.1,2.2,0.2,3.2,0.2c1,0,1.7,0,2.2,0c0.4,0,0.7,0,0.9-0.1c0.2-0.1,0.5-0.2,0.6-0.5c0.3-0.3,0.6-0.9,0.8-1.9
			c0.2-1,0.4-2.3,0.6-4.1c0.2-1.8,0.3-4,0.5-6.6c0.1-2.7,0.3-5.9,0.4-9.6V68.3z"/>
		<path class="st25" d="M526.2,81.7h4.2c-0.2,1.7-0.4,3.2-0.8,4.7c-0.4,1.4-1,2.7-1.8,3.9c-0.8,1.2-2,2.2-3.4,3.1
			c-1.5,0.9-3.4,1.7-5.7,2.3c-0.1-0.3-0.3-0.7-0.5-1.2c-0.2-0.4-0.5-0.9-0.8-1.3c-0.3-0.4-0.6-0.7-0.9-1c2.1-0.5,3.7-1,5-1.7
			c1.2-0.7,2.2-1.5,2.9-2.4c0.7-0.9,1.1-1.9,1.4-3C525.9,84.2,526.1,83,526.2,81.7z M517.3,78.9h32.2v3.6h-32.2V78.9z M518,65.7
			h30.7V74h-4.1v-4.6h-22.7V74H518V65.7z M523.8,72.4h18.9v3.5h-18.9V72.4z M531.2,62.1h4.1v6.3h-4.1V62.1z M535.5,81.2h3.9v9.2
			c0,0.6,0.1,0.9,0.3,1.1c0.2,0.2,0.6,0.2,1.3,0.2c0.2,0,0.4,0,0.8,0c0.3,0,0.7,0,1.2,0c0.4,0,0.8,0,1.2,0c0.4,0,0.7,0,0.9,0
			c0.4,0,0.7-0.1,0.9-0.3c0.2-0.2,0.4-0.6,0.4-1.3c0.1-0.6,0.1-1.6,0.2-2.9c0.3,0.2,0.6,0.4,1,0.6c0.4,0.2,0.9,0.4,1.3,0.5
			c0.4,0.2,0.8,0.3,1.2,0.4c-0.1,1.7-0.4,3-0.7,4c-0.3,0.9-0.8,1.6-1.4,2c-0.6,0.4-1.5,0.5-2.6,0.5c-0.2,0-0.5,0-1,0
			c-0.4,0-0.9,0-1.5,0c-0.5,0-1,0-1.5,0c-0.5,0-0.8,0-1,0c-1.3,0-2.3-0.1-3-0.4c-0.7-0.3-1.2-0.8-1.5-1.5c-0.3-0.7-0.4-1.7-0.4-2.9
			V81.2z"/>
		<path class="st25" d="M556.8,64.7h25.4v3.8h-25.4V64.7z M569.3,74.4h4.1v16.7c0,1.1-0.2,2-0.5,2.6c-0.3,0.6-0.9,1-1.8,1.3
			c-0.8,0.3-1.9,0.5-3.2,0.5c-1.3,0.1-2.8,0.1-4.6,0.1c-0.1-0.6-0.3-1.2-0.6-2c-0.3-0.8-0.6-1.4-0.9-1.9c0.9,0,1.8,0,2.6,0.1
			c0.9,0,1.7,0,2.3,0c0.7,0,1.2,0,1.4,0c0.4,0,0.7-0.1,0.8-0.2c0.2-0.1,0.2-0.3,0.2-0.6V74.4z M580.7,64.7h1l0.9-0.3l3,2.2
			c-1.1,1.3-2.3,2.7-3.7,4c-1.4,1.4-2.8,2.7-4.3,3.9c-1.5,1.2-3,2.3-4.5,3.2c-0.2-0.3-0.4-0.6-0.8-0.9c-0.3-0.3-0.7-0.7-1-1
			c-0.3-0.3-0.6-0.6-0.9-0.8c1-0.6,1.9-1.3,2.9-2.1c1-0.8,1.9-1.6,2.9-2.5c0.9-0.9,1.7-1.7,2.5-2.6c0.8-0.8,1.4-1.6,1.9-2.3V64.7z"
			/>
		<path class="st25" d="M612,67.9c-0.3,1.8-0.6,3.8-1,5.8c-0.4,2.1-0.9,4.1-1.5,6.2c-0.7,2.4-1.5,4.5-2.4,6.2c-0.9,1.7-1.9,3-3,4
			c-1.1,0.9-2.3,1.4-3.5,1.4c-1.2,0-2.4-0.4-3.5-1.3c-1.1-0.9-2-2.1-2.6-3.6c-0.7-1.5-1-3.3-1-5.3c0-2,0.4-4,1.3-5.8
			c0.8-1.8,2-3.4,3.5-4.9c1.5-1.4,3.2-2.5,5.2-3.3c2-0.8,4.1-1.2,6.4-1.2c2.2,0,4.2,0.4,5.9,1.1c1.8,0.7,3.3,1.7,4.5,3
			c1.2,1.3,2.2,2.7,2.9,4.4c0.7,1.7,1,3.5,1,5.4c0,2.5-0.5,4.8-1.6,6.7c-1,2-2.6,3.6-4.6,4.9c-2,1.3-4.5,2.1-7.5,2.6l-2.4-3.8
			c0.7-0.1,1.3-0.2,1.8-0.3c0.5-0.1,1-0.2,1.5-0.3c1.2-0.3,2.2-0.7,3.3-1.2c1-0.6,1.9-1.2,2.7-2.1c0.8-0.8,1.4-1.8,1.8-2.9
			c0.4-1.1,0.7-2.4,0.7-3.7c0-1.4-0.2-2.8-0.7-4c-0.4-1.2-1.1-2.2-2-3.2s-1.9-1.6-3.1-2.1c-1.2-0.5-2.7-0.7-4.3-0.7
			c-1.9,0-3.7,0.3-5.2,1c-1.5,0.7-2.8,1.6-3.8,2.7c-1,1.1-1.8,2.3-2.4,3.6c-0.5,1.3-0.8,2.5-0.8,3.7c0,1.3,0.2,2.3,0.5,3.2
			c0.3,0.9,0.7,1.5,1.2,1.9c0.5,0.4,0.9,0.6,1.4,0.6c0.5,0,1.1-0.3,1.6-0.8c0.5-0.5,1-1.3,1.6-2.5c0.5-1.1,1-2.5,1.6-4.3
			c0.5-1.7,1-3.6,1.4-5.5c0.4-2,0.7-3.9,0.8-5.8L612,67.9z"/>
		<path class="st25" d="M644.2,63.5c0,0.2-0.1,0.5-0.1,0.8c0,0.4-0.1,0.7-0.1,1.1c0,0.4-0.1,0.7-0.1,1c0,0.7-0.1,1.4-0.1,2.3
			c0,0.8-0.1,1.7-0.1,2.7c0,0.9,0,1.9-0.1,2.8c0,0.9,0,1.8,0,2.7c0,1,0,2,0,3.2c0,1.2,0,2.3,0.1,3.5s0.1,2.2,0.1,3.2
			c0,0.9,0,1.7,0,2.2c0,1.4-0.2,2.4-0.5,3.2c-0.3,0.8-0.8,1.3-1.3,1.6c-0.6,0.3-1.2,0.5-1.9,0.5c-0.8,0-1.7-0.2-2.6-0.5
			c-0.9-0.3-1.8-0.8-2.7-1.4c-0.8-0.6-1.5-1.3-2.1-2.1c-0.5-0.8-0.8-1.6-0.8-2.5c0-1.2,0.4-2.3,1.3-3.4c0.9-1.1,2-2.1,3.4-3.1
			c1.4-0.9,2.9-1.7,4.5-2.3c1.6-0.6,3.3-1,5-1.3c1.7-0.3,3.2-0.4,4.6-0.4c1.8,0,3.5,0.3,4.9,0.9c1.5,0.6,2.6,1.5,3.5,2.6
			c0.9,1.1,1.3,2.5,1.3,4.1c0,1.4-0.3,2.7-0.8,3.9c-0.6,1.2-1.4,2.1-2.6,3c-1.2,0.8-2.7,1.5-4.5,1.9c-0.8,0.2-1.6,0.3-2.4,0.4
			s-1.5,0.1-2.2,0.2l-1.5-4.2c0.8,0,1.5,0,2.3,0c0.7,0,1.4-0.1,2.1-0.2c1-0.2,1.9-0.5,2.8-0.9c0.8-0.4,1.5-0.9,2-1.6
			c0.5-0.7,0.7-1.5,0.7-2.4c0-0.9-0.2-1.6-0.7-2.2c-0.5-0.6-1.1-1.1-2-1.4c-0.8-0.3-1.8-0.5-2.9-0.5c-1.5,0-3.1,0.2-4.6,0.5
			c-1.5,0.3-3,0.8-4.5,1.3c-1.1,0.4-2.1,0.9-2.9,1.5c-0.9,0.6-1.6,1.2-2.1,1.8c-0.5,0.6-0.8,1.2-0.8,1.8c0,0.3,0.1,0.6,0.3,0.9
			c0.2,0.3,0.5,0.5,0.8,0.8c0.3,0.2,0.7,0.4,1,0.5c0.3,0.1,0.7,0.2,0.9,0.2c0.3,0,0.6-0.1,0.8-0.4c0.2-0.2,0.3-0.7,0.3-1.3
			c0-0.6,0-1.6,0-2.8c0-1.2-0.1-2.6-0.1-4.1c0-1.5-0.1-2.9-0.1-4.3c0-1,0-2.1,0-3.2c0-1.1,0-2.1,0-3.1c0-1,0-1.9,0-2.6
			c0-0.8,0-1.3,0-1.7c0-0.3,0-0.6,0-1c0-0.4,0-0.8-0.1-1.2c0-0.4-0.1-0.7-0.1-0.9H644.2z M632.8,69.5c1,0.1,1.9,0.2,2.7,0.2
			c0.8,0,1.5,0,2.2,0c0.9,0,1.9,0,3.1-0.1c1.1-0.1,2.3-0.2,3.4-0.4c1.2-0.2,2.3-0.3,3.4-0.6c1.1-0.2,2.1-0.5,3.1-0.7l0.1,4
			c-1,0.2-2.1,0.4-3.2,0.6c-1.2,0.2-2.4,0.4-3.5,0.5c-1.2,0.1-2.3,0.3-3.4,0.3c-1.1,0.1-2,0.1-2.8,0.1c-1.2,0-2.1,0-2.8,0
			c-0.7,0-1.4-0.1-2.1-0.1L632.8,69.5z M654.7,67.4c0.9,0.4,1.9,1,3,1.6c1.1,0.6,2.2,1.2,3.2,1.9c1,0.6,1.8,1.2,2.5,1.7l-2,3.3
			c-0.4-0.4-1-0.8-1.7-1.3c-0.7-0.5-1.5-1-2.3-1.5c-0.8-0.5-1.6-1-2.4-1.4c-0.8-0.4-1.4-0.8-2-1.1L654.7,67.4z"/>
		<path class="st25" d="M671.5,62.1l3.7,0.8c-0.3,1.6-0.7,3.1-1.2,4.7c-0.5,1.5-1,3-1.6,4.3c-0.6,1.3-1.2,2.5-1.9,3.6
			c-0.2-0.2-0.5-0.5-0.9-0.7c-0.4-0.3-0.8-0.6-1.2-0.8c-0.4-0.3-0.8-0.5-1-0.6c1-1.3,1.9-3,2.6-5C670.6,66.2,671.2,64.2,671.5,62.1z
			 M674.9,68.5h3.9v7c0,1.5-0.1,3.2-0.3,5c-0.2,1.8-0.6,3.6-1.2,5.4c-0.6,1.8-1.5,3.6-2.6,5.2c-1.1,1.7-2.6,3.2-4.4,4.5
			c-0.2-0.3-0.4-0.6-0.8-1c-0.3-0.4-0.7-0.8-1-1.1c-0.4-0.4-0.7-0.6-0.9-0.8c1.7-1.2,3-2.5,4-3.9c1-1.4,1.7-2.9,2.2-4.5
			c0.5-1.5,0.8-3.1,1-4.6c0.2-1.5,0.2-2.9,0.2-4.2V68.5z M668,76.5h17v3.6h-17V76.5z M671.7,66.7H684v3.6h-12.3V66.7z M677.8,81.4
			c0.3,0.2,0.7,0.6,1.2,1.2c0.5,0.6,1.1,1.2,1.7,1.8c0.6,0.7,1.2,1.3,1.8,2c0.6,0.7,1.2,1.3,1.6,1.8s0.8,0.9,1,1.2l-2.6,3.3
			c-0.3-0.5-0.7-1.1-1.2-1.7c-0.5-0.6-1-1.3-1.5-2c-0.5-0.7-1.1-1.4-1.6-2.1c-0.5-0.7-1.1-1.3-1.5-1.9c-0.5-0.6-0.9-1.1-1.2-1.5
			L677.8,81.4z M686,65.2h13.6v29h-3.9V68.8h-5.9v25.8H686V65.2z M687.7,88.3h10.1V92h-10.1V88.3z"/>
		<path class="st25" d="M716.4,70.8c-0.1,0.5-0.2,1.2-0.4,2c-0.1,0.8-0.3,1.6-0.4,2.5c-0.1,0.9-0.3,1.7-0.4,2.5s-0.2,1.5-0.3,2
			c1.7-1.3,3.4-2.2,5.2-2.8c1.8-0.6,3.7-0.9,5.7-0.9c2,0,3.8,0.4,5.2,1.1c1.5,0.7,2.6,1.7,3.3,2.9c0.8,1.2,1.2,2.5,1.2,4
			c0,1.6-0.4,3.1-1.1,4.5c-0.7,1.4-1.8,2.5-3.4,3.5c-1.6,0.9-3.6,1.6-6.1,2s-5.6,0.4-9.2,0.1l-1.3-4.2c3.7,0.5,6.7,0.5,9.2,0.1
			c2.5-0.4,4.3-1.1,5.6-2.2c1.2-1.1,1.9-2.4,1.9-3.9c0-0.8-0.2-1.6-0.7-2.2c-0.5-0.6-1.1-1.2-2-1.5c-0.9-0.4-1.8-0.6-2.9-0.6
			c-2.1,0-4.1,0.4-5.9,1.2c-1.8,0.8-3.3,1.9-4.4,3.3c-0.3,0.4-0.6,0.7-0.8,1c-0.2,0.3-0.4,0.6-0.5,1l-3.7-0.9
			c0.1-0.7,0.3-1.5,0.4-2.5c0.1-0.9,0.3-2,0.4-3.1c0.1-1.1,0.3-2.2,0.4-3.3c0.1-1.1,0.2-2.2,0.3-3.3c0.1-1.1,0.2-2,0.2-2.8
			L716.4,70.8z M716.4,63.8c0.8,0.3,1.9,0.5,3.2,0.8c1.3,0.3,2.6,0.6,4,0.8c1.4,0.3,2.7,0.5,4,0.7c1.3,0.2,2.3,0.3,3.1,0.4l-1,4
			c-0.7-0.1-1.6-0.2-2.6-0.4c-1-0.2-2.1-0.4-3.2-0.6c-1.1-0.2-2.3-0.4-3.3-0.7c-1.1-0.2-2.1-0.4-3-0.6c-0.9-0.2-1.6-0.4-2.2-0.5
			L716.4,63.8z"/>
		<path class="st25" d="M743.6,73.8c0.5,0,1.2,0,1.9-0.1c0.7,0,1.5-0.1,2.4-0.2c0.7-0.1,1.8-0.2,3.3-0.3c1.4-0.1,3.1-0.3,4.9-0.5
			c1.8-0.2,3.7-0.3,5.7-0.5c2-0.2,3.9-0.3,5.7-0.5c1.8-0.1,3.5-0.3,4.9-0.4c0.5,0,1-0.1,1.6-0.1c0.6,0,1.1-0.1,1.6-0.1v4
			c-0.2,0-0.5,0-0.9,0s-0.8,0-1.3,0c-0.4,0-0.8,0-1.1,0.1c-0.9,0-2.1,0-3.4,0.1c-1.4,0.1-2.8,0.2-4.4,0.3c-1.5,0.1-3.1,0.3-4.8,0.4
			c-1.6,0.2-3.2,0.3-4.6,0.5c-1.5,0.2-2.8,0.3-4,0.4c-1.2,0.1-2.2,0.2-2.9,0.3c-0.4,0-0.8,0.1-1.3,0.2c-0.5,0.1-1,0.2-1.5,0.2
			c-0.5,0.1-0.9,0.1-1.2,0.2L743.6,73.8z M755.3,65.6c-0.1,0.5-0.1,1.1-0.1,1.6c0,0.6,0,1.2,0,1.9c0,0.7,0,1.6,0,2.7
			c0,1.1,0,2.3,0,3.6c0,1.3,0,2.6,0,3.8c0,1.3,0,2.4,0,3.4c0,1,0,1.8,0,2.4c0,0.9,0.1,1.7,0.2,2.2c0.1,0.6,0.3,1.1,0.7,1.4
			c0.4,0.3,1,0.6,1.7,0.7c0.8,0.1,1.9,0.2,3.3,0.2c1.2,0,2.5,0,3.8-0.1c1.3-0.1,2.6-0.2,3.8-0.3c1.2-0.1,2.2-0.3,3.1-0.5l-0.1,4.4
			c-0.8,0.1-1.8,0.2-3,0.3c-1.2,0.1-2.4,0.2-3.7,0.2c-1.3,0.1-2.5,0.1-3.7,0.1c-2.3,0-4.1-0.1-5.4-0.4c-1.3-0.3-2.4-0.7-3-1.3
			c-0.7-0.6-1.1-1.4-1.4-2.5c-0.2-1-0.4-2.3-0.4-3.9c0-0.5,0-1.2,0-2.1c0-0.9,0-1.9,0-3s0-2.3,0-3.4c0-1.2,0-2.3,0-3.3
			c0-1.1,0-2,0-2.8c0-0.8,0-1.3,0-1.7c0-0.7,0-1.3-0.1-1.9c0-0.6-0.1-1.2-0.2-1.8H755.3z M769.5,64.5c0,0.2,0,0.5-0.1,0.8
			c0,0.4,0,0.7-0.1,1.1c0,0.4,0,0.7,0,1c0,0.8,0,1.5-0.1,2.3c0,0.8,0,1.5,0,2.2c0,0.7,0,1.3-0.1,2c0,1-0.1,2.1-0.1,3.2
			c0,1.1-0.1,2.2-0.2,3.2c-0.1,1-0.2,1.8-0.3,2.4c-0.2,0.9-0.5,1.5-1,1.8c-0.5,0.3-1.2,0.5-2.1,0.5c-0.4,0-1,0-1.6-0.1
			c-0.7-0.1-1.4-0.1-2-0.2c-0.6-0.1-1.2-0.2-1.6-0.2l0.1-3.5c0.6,0.1,1.2,0.2,1.9,0.3c0.7,0.1,1.2,0.1,1.5,0.1
			c0.4,0,0.7-0.1,0.8-0.2c0.2-0.1,0.3-0.3,0.3-0.7c0.1-0.5,0.1-1,0.2-1.8c0-0.7,0.1-1.5,0.1-2.4c0-0.9,0.1-1.7,0.1-2.5
			c0-0.6,0-1.3,0-2c0-0.7,0-1.4,0-2.1s0-1.4,0-2.1c0-0.3,0-0.6,0-1c0-0.4-0.1-0.8-0.1-1.2c0-0.4-0.1-0.7-0.1-0.9H769.5z"/>
		<path class="st25" d="M792.8,95.8h-11.8v-3.5h8V72.7h3.8V95.8z"/>
	</g>
	<rect y="0" class="st2" width="810" height="419.4"/>
</g>
<g>
	<g>
		<defs>
			<rect id="SVGID_00000108297060321311988050000002697874228716607113_" x="830" width="1653" height="3454.6"/>
		</defs>
		<clipPath id="SVGID_00000052799014430439164830000000762639354536425866_">
			<use xlink:href="#SVGID_00000108297060321311988050000002697874228716607113_"  style="overflow:visible;"/>
		</clipPath>
		<g style="clip-path:url(#SVGID_00000052799014430439164830000000762639354536425866_);">
			
				<image style="overflow:visible;" width="2372" height="4388" xlink:href="YOYAKUMA/---WEBグラフィック/---パーツ/---機能/screencapture-e86244f07b8e453b924f805d432e33cc-vfs-cloud9-ap-northeast-1-amazonaws-home-2023-12-20-17_43_30.png"  transform="matrix(0.7873 0 0 0.7873 722.7767 0)">
			</image>
		</g>
	</g>
</g>
</svg>
