<?xml version="1.0" encoding="utf-8"?>
<!-- Generator: Adobe Illustrator 28.1.0, SVG Export Plug-In . SVG Version: 6.00 Build 0)  -->
<svg version="1.1" id="レイヤー_1" xmlns="http://www.w3.org/2000/svg" xmlns:xlink="http://www.w3.org/1999/xlink" x="0px"
	 y="0px" viewBox="0 0 405 204.6" style="enable-background:new 0 0 405 204.6;" xml:space="preserve">
<style type="text/css">
	.st0{clip-path:url(#SVGID_00000100364108472646774280000004511131950978225074_);}
	.st1{fill:#FFFFFF;}
	.st2{fill:none;}
	.st3{fill:#B3B3B3;}
	.st4{fill:#CCCCCC;}
	.st5{fill:#2E384C;}
	.st6{fill:#80DEF0;}
	.st7{clip-path:url(#SVGID_00000021821877179431157960000018072575247810317193_);}
	.st8{fill:#F001BC;}
	.st9{fill:#F29400;}
	.st10{fill:#59C2E1;}
	.st11{fill:#E6E6E6;}
	.st12{fill:#9CDBED;}
	.st13{fill:#F29600;}
	.st14{fill:#796A56;}
	.st15{fill:none;stroke:#9BDAED;stroke-width:2.0612;stroke-linecap:round;stroke-linejoin:round;stroke-miterlimit:10;}
	.st16{fill:none;stroke:#999999;stroke-width:4.3393;stroke-linecap:round;stroke-linejoin:round;stroke-miterlimit:10;}
	.st17{clip-path:url(#SVGID_00000098207801966570183510000001431881906243916424_);fill:#3C3C3C;}
	.st18{clip-path:url(#SVGID_00000098207801966570183510000001431881906243916424_);fill:#282828;}
	.st19{fill:none;stroke:#FF0000;stroke-width:4;stroke-linecap:round;stroke-linejoin:round;stroke-miterlimit:10;}
	.st20{fill:#FF0000;}
	.st21{fill:none;stroke:#FF0000;stroke-width:10;stroke-miterlimit:10;}
	.st22{fill:#3C3C3C;}
	.st23{fill:#00BDE1;}
	.st24{fill:#D2830E;}
	.st25{fill:#FFFF00;}
	.st26{fill:#17A1BF;}
	.st27{clip-path:url(#SVGID_00000020397401791589023580000006726984902211888516_);}
	.st28{fill:none;stroke:#FF0000;stroke-width:9.6103;stroke-miterlimit:10;}
	.st29{fill:#6C757D;}
	.st30{fill:#D0D0D0;}
	.st31{clip-path:url(#SVGID_00000011725832090879320400000017832627950431459484_);}
	.st32{clip-path:url(#SVGID_00000026854103804816038970000009189362205680355715_);}
	.st33{fill:#7F7F7F;}
	.st34{fill:#3F3F3F;}
	.st35{fill:#FEF4E4;}
	.st36{fill:#9BDAED;}
	.st37{opacity:0.3;fill:#F29600;}
	.st38{fill:#FFFFFF;stroke:#F29600;stroke-width:5.92;stroke-linecap:round;stroke-linejoin:round;}
	.st39{fill:#CCF2F9;}
	.st40{fill:none;stroke:#FFFFFF;stroke-width:0;stroke-linecap:round;stroke-linejoin:round;}
	.st41{fill:none;stroke:#F29600;stroke-width:5.92;stroke-linecap:round;stroke-linejoin:round;}
</style>
<g>
	<g>
		<defs>
			<rect id="SVGID_00000082352505553727139880000003271638699050213020_" x="-830" width="810" height="497.6"/>
		</defs>
		<clipPath id="SVGID_00000095304319669433891440000006471502157253871513_">
			<use xlink:href="#SVGID_00000082352505553727139880000003271638699050213020_"  style="overflow:visible;"/>
		</clipPath>
		<g style="clip-path:url(#SVGID_00000095304319669433891440000006471502157253871513_);">
			
				<image style="overflow:visible;" width="2896" height="2062" xlink:href="YOYAKUMA/---WEBグラフィック/スクリーンショット 2023-10-20 15.40.47.png"  transform="matrix(0.4549 0 0 0.4549 -1064.4661 -74.3776)">
			</image>
		</g>
	</g>
</g>
<g>
	<defs>
		<rect id="SVGID_00000170977964850277713830000016700048140226051229_" x="-226" y="385.9" width="126" height="111.7"/>
	</defs>
	<clipPath id="SVGID_00000014595403688178277100000015057282887422114726_">
		<use xlink:href="#SVGID_00000170977964850277713830000016700048140226051229_"  style="overflow:visible;"/>
	</clipPath>
	<g style="clip-path:url(#SVGID_00000014595403688178277100000015057282887422114726_);">
		
			<image style="overflow:visible;" width="2896" height="2062" xlink:href="YOYAKUMA/---WEBグラフィック/スクリーンショット 2023-10-20 15.40.47.png"  transform="matrix(0.4549 0 0 0.4549 -689.9177 -74.3776)">
		</image>
	</g>
</g>
<rect class="st2" width="405" height="204.6"/>
<path class="st13" d="M196.8,116.8c-0.4,0-0.8-0.2-1.1-0.5c-0.6-0.6-0.5-1.6,0.1-2.1L216,95.5c0.3-0.3,0.6-0.4,1-0.4l81.8-0.2
	c22.9,0,41.6-18.6,41.6-41.6s-18.6-41.6-41.6-41.6H106.2c-22.9,0-41.6,18.6-41.6,41.6s18.6,41.6,41.6,41.6l86.6,0.2
	c0.8,0,1.5,0.7,1.5,1.5c0,0.8-0.7,1.5-1.5,1.5c0,0,0,0,0,0l-86.6-0.2c-24.6,0-44.6-20-44.6-44.6s20-44.6,44.6-44.6h192.7
	c24.6,0,44.6,20,44.6,44.6s-20,44.6-44.6,44.6l-81.2,0.2l-19.9,18.4C197.5,116.7,197.1,116.8,196.8,116.8z"/>
<path class="st13" d="M190.7,127.3c-1-2.4-3.6-3.7-6.2-3l-11.4,3.1c-2.3,0.6-3.8,2.7-3.8,5c0,32.2,26.1,58.3,58.3,58.3
	c2.3,0,4.4-1.6,5-3.8l3.1-11.4c0.7-2.5-0.6-5.2-3-6.2l-12.5-5.2c-2.1-0.9-4.6-0.3-6,1.5l-5.3,6.4c-9.2-4.3-16.6-11.7-20.9-20.9
	l6.4-5.2c1.8-1.5,2.4-3.9,1.5-6L190.7,127.3L190.7,127.3z"/>
<g>
	<g>
		<defs>
			<rect id="SVGID_00000076568471603152898360000012632372704064132503_" x="425" width="810" height="497.6"/>
		</defs>
		<clipPath id="SVGID_00000061435189670863706650000002854356966478756527_">
			<use xlink:href="#SVGID_00000076568471603152898360000012632372704064132503_"  style="overflow:visible;"/>
		</clipPath>
		<g style="clip-path:url(#SVGID_00000061435189670863706650000002854356966478756527_);">
			
				<image style="overflow:visible;" width="2894" height="2354" xlink:href="YOYAKUMA/---WEBグラフィック/スクリーンショット 2023-10-20 16.15.45.png"  transform="matrix(0.3349 0 0 0.3349 370.892 -116.026)">
			</image>
		</g>
	</g>
</g>
<g>
	<path class="st13" d="M83.9,35.8h16.4v2H83.9V35.8z M85.9,29.3h12.4v2H85.9V29.3z M92,37.4h2.2v7.1c0,0.6-0.1,1-0.2,1.3
		c-0.2,0.3-0.5,0.5-0.9,0.7c-0.4,0.2-1,0.3-1.6,0.3c-0.6,0-1.4,0-2.3,0c-0.1-0.3-0.2-0.7-0.3-1.1c-0.2-0.4-0.3-0.7-0.5-1
		c0.4,0,0.8,0,1.3,0c0.4,0,0.8,0,1.1,0c0.3,0,0.6,0,0.7,0c0.2,0,0.3,0,0.4-0.1c0.1,0,0.1-0.1,0.1-0.3V37.4z M88.6,33.7l1.1-1.6
		c0.5,0.2,1.2,0.4,1.8,0.7c0.7,0.3,1.4,0.5,2,0.8c0.7,0.3,1.3,0.5,1.9,0.8c0.6,0.3,1.1,0.5,1.5,0.7l-1.1,1.8
		c-0.4-0.2-0.9-0.4-1.5-0.7c-0.6-0.3-1.2-0.5-1.9-0.8c-0.7-0.3-1.3-0.6-2-0.8C89.8,34.2,89.2,34,88.6,33.7z M97.4,29.3H98l0.5-0.1
		l1.5,1.2c-0.6,0.6-1.2,1.1-1.9,1.7c-0.7,0.6-1.4,1.1-2.1,1.7c-0.7,0.5-1.5,1-2.2,1.4c-0.1-0.1-0.2-0.3-0.4-0.5
		c-0.2-0.2-0.3-0.4-0.5-0.5c-0.2-0.2-0.3-0.3-0.4-0.4c0.6-0.3,1.2-0.7,1.9-1.2c0.6-0.5,1.2-0.9,1.8-1.4c0.5-0.5,1-0.9,1.3-1.3V29.3z
		 M99.6,35.8h0.4l0.4-0.2l1.7,0.8c-0.5,0.9-1,1.8-1.6,2.8c-0.6,0.9-1.2,1.7-1.8,2.4L97,40.5c0.3-0.4,0.6-0.8,0.9-1.3
		c0.3-0.5,0.6-1,0.9-1.5c0.3-0.5,0.5-1,0.8-1.5V35.8z"/>
	<path class="st13" d="M105.4,39.8l1.8,0.3c-0.1,1-0.3,1.9-0.5,2.8c-0.2,0.9-0.5,1.7-0.8,2.3c-0.1-0.1-0.3-0.2-0.5-0.3
		c-0.2-0.1-0.4-0.2-0.6-0.3c-0.2-0.1-0.4-0.2-0.5-0.2c0.3-0.6,0.5-1.3,0.7-2.2C105.2,41.5,105.4,40.7,105.4,39.8z M104.5,37
		c0.9,0,2-0.1,3.3-0.1c1.3-0.1,2.6-0.1,3.9-0.2l0,1.7c-1.3,0.1-2.5,0.2-3.7,0.3c-1.2,0.1-2.3,0.2-3.3,0.2L104.5,37z M104.5,32.8
		l1-1.5c0.4,0.3,0.7,0.6,1.1,1c0.4,0.4,0.7,0.7,1,1.1s0.6,0.7,0.7,1l-1.1,1.7c-0.2-0.3-0.4-0.7-0.7-1.1c-0.3-0.4-0.6-0.8-1-1.2
		C105.3,33.4,104.9,33.1,104.5,32.8z M107.6,28.2l1.9,0.7c-0.3,0.5-0.5,1-0.8,1.6c-0.3,0.5-0.6,1-0.9,1.5c-0.3,0.5-0.6,0.9-0.8,1.3
		l-1.5-0.6c0.3-0.4,0.5-0.9,0.8-1.4s0.5-1.1,0.7-1.6C107.3,29.1,107.5,28.6,107.6,28.2z M110,30.5l1.8,0.8c-0.5,0.8-1,1.6-1.6,2.4
		c-0.6,0.8-1.1,1.6-1.7,2.4c-0.6,0.8-1.1,1.4-1.7,2l-1.3-0.7c0.4-0.4,0.8-0.9,1.2-1.5c0.4-0.6,0.8-1.2,1.2-1.8s0.8-1.2,1.1-1.8
		C109.5,31.6,109.8,31,110,30.5z M107.8,37.9h1.9v8.9h-1.9V37.9z M109.5,35.3l1.5-0.7c0.3,0.4,0.5,0.9,0.8,1.4
		c0.3,0.5,0.5,1,0.7,1.5c0.2,0.5,0.3,0.9,0.4,1.3l-1.6,0.8c-0.1-0.4-0.2-0.8-0.4-1.3c-0.2-0.5-0.4-1-0.6-1.5
		C110,36.2,109.8,35.7,109.5,35.3z M109.9,40.2l1.6-0.5c0.3,0.6,0.5,1.3,0.8,2c0.2,0.7,0.4,1.3,0.5,1.8l-1.7,0.6
		c-0.1-0.5-0.3-1.1-0.5-1.9C110.4,41.5,110.2,40.8,109.9,40.2z M114.7,28.1l2.2,0.5c-0.3,1-0.6,1.9-1,2.9c-0.4,0.9-0.8,1.8-1.3,2.7
		s-1,1.5-1.5,2.1c-0.1-0.1-0.3-0.3-0.6-0.4c-0.2-0.2-0.5-0.3-0.7-0.5c-0.2-0.2-0.5-0.3-0.6-0.4c0.5-0.5,1-1.2,1.4-1.9
		c0.4-0.7,0.8-1.5,1.2-2.4C114.2,29.9,114.5,29,114.7,28.1z M113.9,37.1l1.7-0.9c0.4,0.5,0.7,1,1.1,1.5c0.4,0.5,0.7,1.1,1,1.6
		c0.3,0.5,0.5,1,0.6,1.4l-1.9,1c-0.1-0.4-0.3-0.9-0.6-1.5c-0.3-0.5-0.6-1.1-0.9-1.7S114.3,37.6,113.9,37.1z M114.4,31.6h7.3v2h-7.3
		V31.6z M120.8,31.6h2.1c0,0.3,0,0.5,0,0.6c0,0.2,0,0.3,0,0.4c-0.1,2.2-0.1,4.1-0.2,5.6c-0.1,1.5-0.2,2.8-0.3,3.8
		c-0.1,1-0.2,1.8-0.4,2.4c-0.1,0.6-0.3,1-0.5,1.2c-0.3,0.3-0.5,0.6-0.8,0.7c-0.3,0.1-0.6,0.2-1.1,0.3c-0.3,0.1-0.8,0.1-1.4,0.1
		c-0.6,0-1.2,0-1.7,0c0-0.3-0.1-0.7-0.2-1.1c-0.1-0.4-0.3-0.8-0.5-1.1c0.6,0.1,1.2,0.1,1.8,0.1c0.5,0,0.9,0,1.2,0
		c0.2,0,0.4,0,0.5-0.1c0.1,0,0.3-0.1,0.4-0.3c0.2-0.2,0.3-0.5,0.5-1.1c0.1-0.5,0.2-1.3,0.3-2.3c0.1-1,0.2-2.2,0.2-3.7
		c0.1-1.5,0.1-3.3,0.2-5.3V31.6z"/>
	<path class="st13" d="M131.7,33.7l2.1,0.3c-0.3,1.9-0.8,3.7-1.4,5.3c-0.6,1.6-1.3,3-2.3,4.2c-0.9,1.2-2,2.3-3.3,3.1
		c-0.1-0.1-0.2-0.3-0.4-0.5c-0.2-0.2-0.4-0.4-0.5-0.6c-0.2-0.2-0.4-0.4-0.5-0.5c1.2-0.7,2.3-1.6,3.1-2.7c0.8-1.1,1.5-2.3,2-3.8
		C131.1,37,131.5,35.5,131.7,33.7z M125.9,31.3h9.5v2h-9.5V31.3z M126.4,36.1l1.5-1.2c0.6,0.6,1.2,1.3,1.8,2
		c0.6,0.7,1.2,1.5,1.8,2.2c0.6,0.7,1.1,1.5,1.6,2.2c0.5,0.7,0.8,1.4,1.1,2l-1.7,1.5c-0.3-0.6-0.6-1.3-1.1-2c-0.5-0.7-1-1.5-1.5-2.2
		c-0.6-0.8-1.1-1.5-1.8-2.3S127,36.8,126.4,36.1z M129.5,28.2h2.1v4.3h-2.1V28.2z M134.6,37.3l1.7-0.8c0.3,0.4,0.6,0.9,0.9,1.4
		c0.3,0.5,0.6,1,0.8,1.5s0.4,1,0.5,1.3l-1.9,0.9c-0.1-0.4-0.2-0.9-0.5-1.4c-0.2-0.5-0.5-1-0.8-1.6C135.3,38.3,135,37.8,134.6,37.3z
		 M134.7,32.7h9.5v2.1h-9.5V32.7z M139.9,28.2h2.1v16c0,0.6-0.1,1.1-0.2,1.4c-0.1,0.3-0.4,0.6-0.8,0.8c-0.3,0.2-0.8,0.3-1.4,0.4
		c-0.6,0.1-1.3,0.1-2.1,0.1c0-0.2-0.1-0.5-0.1-0.7c-0.1-0.3-0.2-0.5-0.2-0.8c-0.1-0.3-0.2-0.5-0.3-0.7c0.6,0,1.1,0,1.6,0
		c0.5,0,0.8,0,1,0c0.2,0,0.3,0,0.4-0.1s0.1-0.2,0.1-0.4V28.2z"/>
	<path class="st13" d="M152.3,28.1l2.2,0.5c-0.7,1.1-1.6,2.1-2.7,3.2c-1,1-2.2,1.9-3.6,2.8c-0.1-0.2-0.2-0.3-0.4-0.5
		c-0.2-0.2-0.4-0.4-0.5-0.5c-0.2-0.2-0.4-0.3-0.5-0.4c0.9-0.5,1.6-1,2.3-1.5c0.7-0.6,1.3-1.1,1.8-1.7
		C151.5,29.2,152,28.6,152.3,28.1z M155.7,40.8l1.5,0.8c-0.5,0.5-1.2,1-1.9,1.5c-0.7,0.5-1.5,0.9-2.3,1.3c-0.8,0.4-1.6,0.8-2.5,1.1
		c-0.8,0.3-1.7,0.6-2.5,0.8c-0.1-0.2-0.3-0.5-0.5-0.8c-0.2-0.3-0.5-0.6-0.7-0.8c0.8-0.2,1.6-0.4,2.5-0.7c0.8-0.3,1.7-0.6,2.5-0.9
		c0.8-0.3,1.5-0.7,2.2-1.1C154.6,41.6,155.2,41.2,155.7,40.8z M155.6,35.9l1.6,0.8c-0.7,0.6-1.6,1.1-2.6,1.5c-1,0.5-2.1,0.9-3.2,1.2
		s-2.2,0.7-3.2,0.9c-0.1-0.1-0.2-0.3-0.3-0.5c-0.1-0.2-0.3-0.4-0.4-0.6c-0.1-0.2-0.3-0.3-0.4-0.5c1-0.2,2.1-0.4,3.1-0.7
		c1.1-0.3,2.1-0.6,3-1C154.2,36.7,155,36.3,155.6,35.9z M154.4,38.9l1.4,0.7c-0.6,0.5-1.3,0.9-2.1,1.4c-0.8,0.4-1.7,0.8-2.7,1.2
		c-0.9,0.3-1.8,0.6-2.7,0.8c-0.1-0.2-0.3-0.5-0.5-0.8c-0.2-0.3-0.4-0.5-0.6-0.7c0.9-0.2,1.7-0.4,2.6-0.6c0.9-0.3,1.8-0.6,2.6-0.9
		C153.2,39.7,153.9,39.3,154.4,38.9z M149.1,32.2h14v4.9h-14V32.2z M151.1,33.8v1.7h9.9v-1.7H151.1z M152.1,29.4h5.9v1.6h-5.9V29.4z
		 M152.2,38.6l1.4-1.1c1,0.5,1.8,1.1,2.5,1.8c0.6,0.7,1.1,1.3,1.5,2s0.5,1.4,0.5,2c0,0.6-0.1,1.2-0.3,1.7c-0.2,0.5-0.6,0.9-1,1.2
		c-0.4,0.2-0.7,0.4-1,0.5c-0.3,0.1-0.7,0.1-1.2,0.2c-0.2,0-0.5,0-0.8,0c-0.3,0-0.6,0-0.9,0c0-0.3-0.1-0.6-0.2-1
		c-0.1-0.4-0.2-0.7-0.4-1c0.3,0,0.7,0,1,0.1c0.3,0,0.6,0,0.9,0s0.5,0,0.7,0c0.2,0,0.4-0.1,0.6-0.3c0.3-0.2,0.5-0.5,0.6-1
		c0.1-0.4,0-1-0.2-1.5c-0.2-0.6-0.6-1.2-1.2-1.8C154,39.8,153.2,39.2,152.2,38.6z M154.8,33.1h2.1v3.5h-2.1V33.1z M157.2,29.4h0.5
		l0.3-0.1l1.5,1c-0.2,0.4-0.5,0.8-0.8,1.2c-0.3,0.4-0.6,0.8-1,1.2c-0.3,0.4-0.7,0.7-1,1c-0.2-0.2-0.5-0.3-0.8-0.5
		c-0.3-0.2-0.6-0.4-0.8-0.5c0.3-0.3,0.6-0.6,0.8-0.9c0.3-0.3,0.5-0.7,0.7-1.1c0.2-0.4,0.4-0.7,0.5-0.9V29.4z M158,36.3
		c0.4,1.3,0.9,2.5,1.5,3.5c0.6,1.1,1.4,2,2.4,2.8c0.9,0.8,2,1.4,3.3,1.8c-0.1,0.1-0.3,0.3-0.5,0.5c-0.2,0.2-0.3,0.4-0.5,0.7
		c-0.2,0.2-0.3,0.4-0.4,0.6c-1.3-0.5-2.5-1.3-3.5-2.2c-1-0.9-1.8-2-2.5-3.2c-0.7-1.2-1.2-2.6-1.7-4.2L158,36.3z M163,37.2l1.7,1.3
		c-0.5,0.3-1,0.7-1.6,1c-0.6,0.3-1.1,0.7-1.7,1c-0.6,0.3-1.1,0.6-1.6,0.8l-1.4-1.1c0.5-0.2,1-0.5,1.5-0.8c0.6-0.3,1.1-0.7,1.6-1
		C162.2,37.9,162.6,37.5,163,37.2z"/>
	<path class="st13" d="M183.5,33.4c-0.3,0.2-0.6,0.3-0.9,0.5c-0.3,0.2-0.6,0.3-1,0.5c-0.3,0.2-0.7,0.3-1.2,0.6
		c-0.5,0.2-1,0.5-1.5,0.7c-0.5,0.3-1.1,0.6-1.6,0.8c-0.5,0.3-1,0.6-1.5,0.9c-0.9,0.6-1.6,1.1-2.1,1.8c-0.5,0.6-0.8,1.3-0.8,2
		c0,0.7,0.4,1.3,1.1,1.7c0.7,0.4,1.8,0.6,3.2,0.6c0.7,0,1.5,0,2.2-0.1c0.8-0.1,1.6-0.2,2.3-0.3c0.7-0.1,1.4-0.2,2-0.4l0,2.6
		c-0.5,0.1-1.2,0.2-1.8,0.2c-0.7,0.1-1.4,0.1-2.1,0.2c-0.8,0-1.6,0.1-2.4,0.1c-1,0-1.9-0.1-2.7-0.2c-0.8-0.2-1.6-0.4-2.2-0.7
		c-0.6-0.3-1.1-0.8-1.5-1.4c-0.3-0.6-0.5-1.3-0.5-2.1c0-0.8,0.2-1.6,0.5-2.2c0.4-0.7,0.9-1.3,1.5-1.9c0.6-0.6,1.3-1.1,2.1-1.6
		c0.5-0.3,1-0.7,1.5-1c0.5-0.3,1.1-0.6,1.6-0.9c0.5-0.3,1-0.5,1.5-0.8c0.5-0.2,0.8-0.4,1.2-0.6c0.3-0.2,0.7-0.4,0.9-0.6
		c0.3-0.2,0.5-0.4,0.8-0.6L183.5,33.4z M173.4,29.3c0.3,0.9,0.7,1.7,1,2.5c0.4,0.8,0.7,1.6,1.1,2.3c0.4,0.7,0.7,1.3,1,1.9l-2,1.2
		c-0.4-0.6-0.7-1.3-1.1-2c-0.4-0.8-0.8-1.6-1.1-2.4c-0.4-0.8-0.8-1.7-1.1-2.5L173.4,29.3z"/>
	<path class="st13" d="M191.1,29.4h13.7v17.1h-2.3v-15h-9.2v15h-2.2V29.4z M192.6,43.1h10.9v2.2h-10.9V43.1z M192.6,36.2h10.9v2.1
		h-10.9V36.2z"/>
	<path class="st13" d="M210.3,29.4h2v15.3h-2V29.4z M211.3,29.4h5.1v13.5h-5.1V41h3.1v-9.7h-3.1V29.4z M211.4,35.1h4V37h-4V35.1z
		 M216.7,34.2h11.6v1.9h-11.6V34.2z M216.8,38h11.3v1.9h-11.3V38z M217.5,30.4h10.2v1.9h-10.2V30.4z M217.7,41.2l1.7-1
		c0.3,0.3,0.6,0.7,1,1.1c0.3,0.4,0.6,0.8,0.9,1.2c0.3,0.4,0.5,0.7,0.6,1.1l-1.8,1.1c-0.1-0.3-0.3-0.7-0.6-1.1
		c-0.3-0.4-0.5-0.8-0.8-1.2C218.4,41.9,218,41.6,217.7,41.2z M224,36h2.1v8.6c0,0.5-0.1,1-0.2,1.2c-0.1,0.3-0.4,0.5-0.8,0.7
		c-0.4,0.2-0.8,0.3-1.4,0.3c-0.5,0-1.2,0.1-2,0.1c0-0.3-0.1-0.6-0.3-1c-0.1-0.4-0.3-0.7-0.4-1c0.5,0,1,0,1.5,0c0.5,0,0.8,0,1,0
		c0.2,0,0.3,0,0.3-0.1c0.1,0,0.1-0.1,0.1-0.3V36z M221.4,28.1h2.1v7.3h-2.1V28.1z"/>
	<path class="st13" d="M235.1,46.4c-0.4-0.5-0.9-1-1.4-1.5s-1-1-1.5-1.5s-1-0.9-1.5-1.3l1.9-1.6c0.5,0.4,1,0.8,1.5,1.4
		s1.1,1,1.6,1.6c0.5,0.5,0.9,1,1.3,1.5L235.1,46.4z"/>
	<path class="st13" d="M259.5,28.9c0,0.1,0,0.3,0,0.5c0,0.2,0,0.4-0.1,0.6c0,0.2,0,0.4,0,0.6c0,0.4,0,0.8-0.1,1.3c0,0.5,0,1,0,1.5
		c0,0.5,0,1,0,1.6s0,1,0,1.5c0,0.5,0,1.1,0,1.8c0,0.6,0,1.3,0,1.9c0,0.6,0,1.2,0.1,1.8c0,0.5,0,0.9,0,1.2c0,0.8-0.1,1.4-0.3,1.8
		c-0.2,0.4-0.4,0.7-0.7,0.9c-0.3,0.2-0.7,0.3-1.1,0.3c-0.5,0-0.9-0.1-1.5-0.3c-0.5-0.2-1-0.5-1.5-0.8c-0.5-0.3-0.8-0.7-1.1-1.2
		c-0.3-0.4-0.5-0.9-0.5-1.4c0-0.6,0.2-1.3,0.7-1.9c0.5-0.6,1.1-1.2,1.9-1.7c0.8-0.5,1.6-1,2.5-1.3c0.9-0.3,1.8-0.6,2.8-0.7
		c0.9-0.2,1.8-0.2,2.6-0.2c1,0,1.9,0.2,2.7,0.5c0.8,0.3,1.5,0.8,1.9,1.5c0.5,0.6,0.7,1.4,0.7,2.3c0,0.8-0.2,1.5-0.5,2.1
		s-0.8,1.2-1.4,1.6c-0.6,0.5-1.5,0.8-2.5,1.1c-0.5,0.1-0.9,0.2-1.3,0.2c-0.4,0-0.9,0.1-1.2,0.1l-0.8-2.3c0.4,0,0.8,0,1.3,0
		c0.4,0,0.8-0.1,1.2-0.1c0.6-0.1,1.1-0.3,1.5-0.5c0.5-0.2,0.8-0.5,1.1-0.9c0.3-0.4,0.4-0.8,0.4-1.3c0-0.5-0.1-0.9-0.4-1.2
		c-0.3-0.3-0.6-0.6-1.1-0.8c-0.5-0.2-1-0.3-1.6-0.3c-0.9,0-1.7,0.1-2.6,0.3c-0.9,0.2-1.7,0.4-2.5,0.7c-0.6,0.2-1.1,0.5-1.6,0.8
		c-0.5,0.3-0.9,0.6-1.2,1c-0.3,0.3-0.4,0.7-0.4,1c0,0.2,0.1,0.3,0.2,0.5c0.1,0.2,0.3,0.3,0.4,0.4c0.2,0.1,0.4,0.2,0.6,0.3
		c0.2,0.1,0.4,0.1,0.5,0.1c0.2,0,0.3-0.1,0.5-0.2c0.1-0.1,0.2-0.4,0.2-0.7c0-0.4,0-0.9,0-1.6s0-1.4,0-2.2c0-0.8,0-1.6,0-2.4
		c0-0.6,0-1.2,0-1.8c0-0.6,0-1.2,0-1.7c0-0.5,0-1,0-1.5s0-0.7,0-1c0-0.1,0-0.3,0-0.5c0-0.2,0-0.4,0-0.6c0-0.2,0-0.4-0.1-0.5H259.5z
		 M253.2,32.3c0.6,0.1,1.1,0.1,1.5,0.1c0.4,0,0.8,0,1.2,0c0.5,0,1.1,0,1.7-0.1c0.6,0,1.3-0.1,1.9-0.2c0.6-0.1,1.3-0.2,1.9-0.3
		s1.2-0.3,1.7-0.4l0,2.2c-0.5,0.1-1.1,0.2-1.8,0.3c-0.7,0.1-1.3,0.2-2,0.3s-1.3,0.1-1.9,0.2c-0.6,0-1.1,0.1-1.5,0.1
		c-0.6,0-1.2,0-1.6,0c-0.4,0-0.8,0-1.1-0.1L253.2,32.3z M265.4,31.1c0.5,0.2,1.1,0.5,1.7,0.9c0.6,0.3,1.2,0.7,1.8,1
		c0.6,0.3,1,0.7,1.4,0.9l-1.1,1.8c-0.2-0.2-0.6-0.5-1-0.7c-0.4-0.3-0.8-0.5-1.3-0.8c-0.5-0.3-0.9-0.5-1.3-0.8
		c-0.4-0.2-0.8-0.4-1.1-0.6L265.4,31.1z"/>
	<path class="st13" d="M285,30.1h0.4l0.4-0.1l1.5,0.8c-0.6,1.5-1.3,2.9-2.3,4.2c-0.9,1.3-2,2.4-3.2,3.4c-1.2,1-2.5,1.9-3.9,2.7
		c-1.4,0.8-2.8,1.4-4.2,1.8c-0.1-0.2-0.2-0.4-0.3-0.7c-0.1-0.2-0.3-0.5-0.5-0.7c-0.2-0.2-0.3-0.4-0.5-0.6c1.3-0.4,2.7-0.9,4-1.6
		c1.3-0.7,2.5-1.5,3.6-2.4c1.1-0.9,2.1-1.9,3-3c0.9-1.1,1.5-2.3,2-3.6V30.1z M279.2,28.1l2.4,0.5c-0.5,0.9-1.2,1.9-1.9,2.8
		c-0.7,0.9-1.6,1.8-2.5,2.6s-2,1.6-3.2,2.3c-0.1-0.2-0.2-0.4-0.4-0.6c-0.2-0.2-0.4-0.4-0.5-0.6s-0.4-0.4-0.5-0.5
		c1.1-0.6,2.1-1.2,3-2c0.9-0.7,1.6-1.5,2.2-2.2C278.3,29.5,278.8,28.8,279.2,28.1z M276,34.3l1.6-1.4c0.5,0.3,1,0.7,1.5,1.1
		c0.5,0.4,1,0.8,1.5,1.3c0.5,0.4,0.9,0.8,1.1,1.2L280,38c-0.3-0.4-0.6-0.8-1.1-1.2s-0.9-0.9-1.5-1.3C277,35,276.5,34.6,276,34.3z
		 M280.4,37.9h8.3v1.9h-8.3v6.9h-2.1v-7.3l1.6-1.6H280.4z M278.6,30.1h7.2V32h-7.2V30.1z M279.5,44.1h9.1V46h-9.1V44.1z M287.6,37.9
		h2.2v8.9h-2.2V37.9z"/>
	<path class="st13" d="M293.9,31.2H312v2h-18.1V31.2z M295,34.6h6.3v1.8h-4.3v10.3h-2V34.6z M296.2,37.9h5.3v1.6h-5.3V37.9z
		 M296.2,41h5.3v1.6h-5.3V41z M296.7,28.9l2-0.7c0.4,0.4,0.7,0.8,1.1,1.3c0.4,0.5,0.6,0.9,0.8,1.3l-2.2,0.8
		c-0.1-0.4-0.4-0.8-0.7-1.3C297.5,29.7,297.1,29.3,296.7,28.9z M300.7,34.6h2.1v10c0,0.5-0.1,0.8-0.2,1.1c-0.1,0.3-0.3,0.5-0.7,0.6
		c-0.3,0.2-0.7,0.3-1.2,0.3c-0.5,0-1,0.1-1.6,0.1c-0.1-0.3-0.1-0.6-0.3-0.9c-0.1-0.4-0.3-0.7-0.4-0.9c0.4,0,0.8,0,1.2,0
		c0.4,0,0.6,0,0.7,0c0.1,0,0.2,0,0.3-0.1c0,0,0.1-0.1,0.1-0.2V34.6z M304.7,34.8h2V43h-2V34.8z M307,28.1l2.3,0.7
		c-0.4,0.6-0.8,1.2-1.2,1.9s-0.8,1.2-1.2,1.6l-1.9-0.7c0.2-0.3,0.5-0.7,0.7-1.1c0.2-0.4,0.5-0.8,0.7-1.2
		C306.7,28.8,306.9,28.5,307,28.1z M308.7,34.3h2.1v10.2c0,0.5-0.1,1-0.2,1.3c-0.1,0.3-0.4,0.5-0.8,0.7c-0.4,0.2-0.8,0.3-1.4,0.3
		c-0.5,0-1.2,0.1-1.9,0c-0.1-0.3-0.2-0.6-0.3-1c-0.1-0.4-0.3-0.7-0.5-1c0.5,0,1,0,1.5,0c0.5,0,0.8,0,1,0c0.2,0,0.3,0,0.3-0.1
		c0.1-0.1,0.1-0.1,0.1-0.3V34.3z"/>
	<path class="st13" d="M319.1,46.4c-0.4-0.5-0.9-1-1.4-1.5s-1-1-1.5-1.5s-1-0.9-1.5-1.3l1.9-1.6c0.5,0.4,1,0.8,1.5,1.4
		s1.1,1,1.6,1.6c0.5,0.5,0.9,1,1.3,1.5L319.1,46.4z"/>
	<path class="st13" d="M110.4,67.8h16.4v2h-16.4V67.8z M112.4,61.3h12.4v2h-12.4V61.3z M118.5,69.4h2.2v7.1c0,0.6-0.1,1-0.2,1.3
		c-0.2,0.3-0.5,0.5-0.9,0.7c-0.4,0.2-1,0.3-1.6,0.3c-0.6,0-1.4,0-2.3,0c-0.1-0.3-0.2-0.7-0.3-1.1c-0.2-0.4-0.3-0.7-0.5-1
		c0.4,0,0.8,0,1.3,0c0.4,0,0.8,0,1.1,0c0.3,0,0.6,0,0.7,0c0.2,0,0.3,0,0.4-0.1c0.1,0,0.1-0.1,0.1-0.3V69.4z M115.1,65.7l1.1-1.6
		c0.5,0.2,1.2,0.4,1.8,0.7c0.7,0.3,1.4,0.5,2,0.8c0.7,0.3,1.3,0.5,1.9,0.8c0.6,0.3,1.1,0.5,1.5,0.7l-1.1,1.8
		c-0.4-0.2-0.9-0.4-1.5-0.7c-0.6-0.3-1.2-0.5-1.9-0.8c-0.7-0.3-1.3-0.6-2-0.8C116.3,66.2,115.7,66,115.1,65.7z M123.9,61.3h0.6
		l0.5-0.1l1.5,1.2c-0.6,0.6-1.2,1.1-1.9,1.7c-0.7,0.6-1.4,1.1-2.1,1.7c-0.7,0.5-1.5,1-2.2,1.4c-0.1-0.1-0.2-0.3-0.4-0.5
		c-0.2-0.2-0.3-0.4-0.5-0.5c-0.2-0.2-0.3-0.3-0.4-0.4c0.6-0.3,1.2-0.7,1.9-1.2c0.6-0.5,1.2-0.9,1.8-1.4c0.5-0.5,1-0.9,1.3-1.3V61.3z
		 M126.1,67.8h0.4l0.4-0.2l1.7,0.8c-0.5,0.9-1,1.8-1.6,2.8c-0.6,0.9-1.2,1.7-1.8,2.4l-1.8-1.1c0.3-0.4,0.6-0.8,0.9-1.3
		c0.3-0.5,0.6-1,0.9-1.5c0.3-0.5,0.5-1,0.8-1.5V67.8z"/>
	<path class="st13" d="M131.9,71.8l1.8,0.3c-0.1,1-0.3,1.9-0.5,2.8c-0.2,0.9-0.5,1.7-0.8,2.3c-0.1-0.1-0.3-0.2-0.5-0.3
		c-0.2-0.1-0.4-0.2-0.6-0.3c-0.2-0.1-0.4-0.2-0.5-0.2c0.3-0.6,0.5-1.3,0.7-2.2C131.7,73.5,131.9,72.7,131.9,71.8z M131,69
		c0.9,0,2-0.1,3.3-0.1c1.3-0.1,2.6-0.1,3.9-0.2l0,1.7c-1.3,0.1-2.5,0.2-3.7,0.3c-1.2,0.1-2.3,0.2-3.3,0.2L131,69z M131,64.8l1-1.5
		c0.4,0.3,0.7,0.6,1.1,1c0.4,0.4,0.7,0.7,1,1.1s0.6,0.7,0.7,1l-1.1,1.7c-0.2-0.3-0.4-0.7-0.7-1.1c-0.3-0.4-0.6-0.8-1-1.2
		C131.8,65.4,131.4,65.1,131,64.8z M134.1,60.2l1.9,0.7c-0.3,0.5-0.5,1-0.8,1.6c-0.3,0.5-0.6,1-0.9,1.5c-0.3,0.5-0.6,0.9-0.8,1.3
		l-1.5-0.6c0.3-0.4,0.5-0.9,0.8-1.4s0.5-1.1,0.7-1.6C133.8,61.1,134,60.6,134.1,60.2z M136.5,62.5l1.8,0.8c-0.5,0.8-1,1.6-1.6,2.4
		c-0.6,0.8-1.1,1.6-1.7,2.4c-0.6,0.8-1.1,1.4-1.7,2l-1.3-0.7c0.4-0.4,0.8-0.9,1.2-1.5c0.4-0.6,0.8-1.2,1.2-1.8s0.8-1.2,1.1-1.8
		C136,63.6,136.3,63,136.5,62.5z M134.3,69.9h1.9v8.9h-1.9V69.9z M136,67.3l1.5-0.7c0.3,0.4,0.5,0.9,0.8,1.4c0.3,0.5,0.5,1,0.7,1.5
		c0.2,0.5,0.3,0.9,0.4,1.3l-1.6,0.8c-0.1-0.4-0.2-0.8-0.4-1.3c-0.2-0.5-0.4-1-0.6-1.5C136.5,68.2,136.3,67.7,136,67.3z M136.4,72.2
		l1.6-0.5c0.3,0.6,0.5,1.3,0.8,2c0.2,0.7,0.4,1.3,0.5,1.8l-1.7,0.6c-0.1-0.5-0.3-1.1-0.5-1.9C136.9,73.5,136.7,72.8,136.4,72.2z
		 M141.2,60.1l2.2,0.5c-0.3,1-0.6,1.9-1,2.9c-0.4,0.9-0.8,1.8-1.3,2.7s-1,1.5-1.5,2.1c-0.1-0.1-0.3-0.3-0.6-0.4
		c-0.2-0.2-0.5-0.3-0.7-0.5c-0.2-0.2-0.5-0.3-0.6-0.4c0.5-0.5,1-1.2,1.4-1.9c0.4-0.7,0.8-1.5,1.2-2.4C140.7,61.9,141,61,141.2,60.1z
		 M140.4,69.1l1.7-0.9c0.4,0.5,0.7,1,1.1,1.5c0.4,0.5,0.7,1.1,1,1.6c0.3,0.5,0.5,1,0.6,1.4l-1.9,1c-0.1-0.4-0.3-0.9-0.6-1.5
		c-0.3-0.5-0.6-1.1-0.9-1.7S140.8,69.6,140.4,69.1z M140.9,63.6h7.3v2h-7.3V63.6z M147.3,63.6h2.1c0,0.3,0,0.5,0,0.6
		c0,0.2,0,0.3,0,0.4c-0.1,2.2-0.1,4.1-0.2,5.6c-0.1,1.5-0.2,2.8-0.3,3.8c-0.1,1-0.2,1.8-0.4,2.4c-0.1,0.6-0.3,1-0.5,1.2
		c-0.3,0.3-0.5,0.6-0.8,0.7c-0.3,0.1-0.6,0.2-1.1,0.3c-0.3,0.1-0.8,0.1-1.4,0.1c-0.6,0-1.2,0-1.7,0c0-0.3-0.1-0.7-0.2-1.1
		c-0.1-0.4-0.3-0.8-0.5-1.1c0.6,0.1,1.2,0.1,1.8,0.1c0.5,0,0.9,0,1.2,0c0.2,0,0.4,0,0.5-0.1c0.1,0,0.3-0.1,0.4-0.3
		c0.2-0.2,0.3-0.5,0.5-1.1c0.1-0.5,0.2-1.3,0.3-2.3c0.1-1,0.2-2.2,0.2-3.7c0.1-1.5,0.1-3.3,0.2-5.3V63.6z"/>
	<path class="st13" d="M159.9,60.7h2.5c0,0.5-0.1,1.3-0.1,2.1c-0.1,0.9-0.2,1.8-0.4,2.9c-0.2,1.1-0.5,2.2-0.8,3.4
		c-0.4,1.2-0.9,2.3-1.5,3.5c-0.6,1.2-1.4,2.3-2.4,3.3c-1,1-2.1,2-3.5,2.8c-0.2-0.3-0.4-0.6-0.8-0.9c-0.3-0.3-0.7-0.6-1-0.8
		c1.3-0.7,2.5-1.6,3.4-2.5s1.7-2,2.2-3c0.6-1.1,1-2.1,1.3-3.2s0.5-2.1,0.7-3.1c0.1-1,0.2-1.8,0.3-2.6S159.9,61.1,159.9,60.7z
		 M162.3,61.2c0,0.2,0,0.6,0.1,1.2c0,0.6,0.1,1.2,0.2,2c0.1,0.8,0.3,1.6,0.6,2.5c0.2,0.9,0.6,1.8,1,2.8c0.4,0.9,0.9,1.9,1.5,2.8
		c0.6,0.9,1.4,1.7,2.2,2.5c0.9,0.8,1.9,1.4,3.1,2c-0.3,0.3-0.7,0.5-1,0.9c-0.3,0.3-0.5,0.6-0.7,0.9c-1.2-0.6-2.3-1.3-3.2-2.2
		s-1.7-1.8-2.3-2.8c-0.6-1-1.2-2-1.6-3c-0.4-1-0.8-2-1-3c-0.3-1-0.5-1.9-0.6-2.8c-0.1-0.9-0.2-1.6-0.3-2.2c-0.1-0.6-0.1-1.1-0.1-1.3
		L162.3,61.2z"/>
	<path class="st13" d="M177.2,64.5l1.4,0.8c-0.3,0.5-0.8,1.1-1.2,1.6s-1,1-1.6,1.5c-0.6,0.5-1.2,0.9-1.7,1.2
		c-0.1-0.2-0.3-0.5-0.5-0.8c-0.2-0.3-0.4-0.6-0.6-0.8c0.5-0.2,1.1-0.5,1.6-0.9c0.5-0.4,1.1-0.8,1.5-1.3
		C176.6,65.4,177,64.9,177.2,64.5z M173.1,70.7h10v1.7h-10V70.7z M179.6,71.8l2,0.2c-0.2,1-0.4,1.9-0.8,2.7
		c-0.4,0.8-0.9,1.4-1.5,1.9c-0.6,0.5-1.3,1-2.2,1.3c-0.9,0.4-1.9,0.7-3.1,0.9c-0.1-0.3-0.2-0.6-0.3-1c-0.2-0.3-0.3-0.6-0.5-0.8
		c1.3-0.2,2.5-0.5,3.3-0.9c0.9-0.4,1.6-0.9,2-1.7C179,73.8,179.4,72.9,179.6,71.8z M173.3,63.6h9.8v1.7h-9.8V63.6z M176.7,69.2
		l2,0.4c-0.3,0.7-0.7,1.4-1,2.1c-0.4,0.7-0.8,1.4-1.1,2.1c-0.4,0.7-0.7,1.3-1,1.8l-1.9-0.6c0.3-0.5,0.6-1.1,1-1.8
		c0.4-0.7,0.7-1.4,1.1-2.1C176.1,70.4,176.4,69.8,176.7,69.2z M173.9,61.2l1.5-0.6c0.3,0.4,0.5,0.8,0.8,1.3c0.2,0.5,0.4,0.9,0.5,1.2
		l-1.6,0.7c-0.1-0.4-0.2-0.8-0.4-1.3C174.3,62,174.1,61.6,173.9,61.2z M175.2,75l1.1-1.4c0.8,0.3,1.6,0.6,2.4,1
		c0.8,0.4,1.5,0.8,2.2,1.2c0.7,0.4,1.2,0.8,1.7,1.1l-1.5,1.5c-0.4-0.4-1-0.8-1.6-1.2c-0.6-0.4-1.3-0.8-2.1-1.2
		C176.8,75.6,176,75.3,175.2,75z M177.2,60.1h2v9.3h-2V60.1z M179,65.1c0.2,0.1,0.4,0.2,0.8,0.4c0.3,0.2,0.7,0.4,1.1,0.6
		c0.4,0.2,0.7,0.4,1,0.6c0.3,0.2,0.5,0.3,0.7,0.4l-1.1,1.5c-0.2-0.2-0.4-0.4-0.7-0.6c-0.3-0.2-0.6-0.5-1-0.8c-0.3-0.3-0.7-0.5-1-0.8
		c-0.3-0.2-0.6-0.4-0.8-0.6L179,65.1z M181,60.4l1.8,0.7c-0.3,0.5-0.6,0.9-1,1.3c-0.3,0.4-0.6,0.8-0.9,1.1l-1.4-0.6
		c0.2-0.3,0.5-0.8,0.7-1.3C180.6,61.3,180.8,60.8,181,60.4z M188.5,65l2.2,0.2c-0.3,2.3-0.7,4.3-1.4,6.1c-0.6,1.7-1.5,3.2-2.5,4.5
		c-1.1,1.3-2.4,2.3-4.1,3.2c-0.1-0.2-0.2-0.4-0.3-0.6c-0.1-0.2-0.3-0.5-0.5-0.7c-0.2-0.2-0.3-0.4-0.5-0.6c1.5-0.7,2.8-1.6,3.7-2.7
		c1-1.1,1.7-2.4,2.2-4C187.9,68.8,188.3,67,188.5,65z M184.8,60.1l2.2,0.3c-0.2,1.3-0.5,2.7-0.8,3.9c-0.3,1.3-0.7,2.4-1.2,3.5
		c-0.5,1.1-1,2-1.6,2.8c-0.1-0.1-0.3-0.3-0.5-0.5c-0.2-0.2-0.4-0.4-0.6-0.6c-0.2-0.2-0.4-0.3-0.6-0.5c0.6-0.7,1-1.5,1.5-2.5
		c0.4-1,0.8-2,1-3.1S184.6,61.3,184.8,60.1z M185.7,65.4c0.3,1.7,0.7,3.4,1.2,4.9c0.5,1.5,1.2,2.8,2,4c0.8,1.1,1.9,2,3.1,2.7
		c-0.2,0.1-0.3,0.3-0.5,0.5c-0.2,0.2-0.4,0.4-0.5,0.7c-0.2,0.2-0.3,0.5-0.4,0.6c-1.3-0.8-2.4-1.8-3.3-3.1c-0.9-1.3-1.6-2.8-2.1-4.4
		c-0.5-1.7-1-3.5-1.3-5.5L185.7,65.4z M184.5,63.8h7.3v2h-7.3V63.8z"/>
	<path class="st13" d="M198.6,78.4c-0.4-0.5-0.9-1-1.4-1.5s-1-1-1.5-1.5s-1-0.9-1.5-1.3l1.9-1.6c0.5,0.4,1,0.8,1.5,1.4
		s1.1,1,1.6,1.6c0.5,0.5,0.9,1,1.3,1.5L198.6,78.4z"/>
	<path class="st13" d="M215.7,63.4h17.5v4h-2v-2.6h-13.6v2.6h-1.9V63.4z M217,60.9h14.8v1.6H217V60.9z M217.5,69.7h2V77h-2V69.7z
		 M218.1,67.7h4.4v1.2h-4.4V67.7z M218.5,65.6h4v1.2h-4V65.6z M218.6,72.2h11.5v1.3h-11.5V72.2z M218.6,69.7h12.8V76h-12.8v-1.5
		h10.6v-3.4h-10.6V69.7z M223.2,70.5h2.1v5.7c0,0.4,0.1,0.6,0.3,0.7c0.2,0.1,0.6,0.2,1.2,0.2c0.1,0,0.3,0,0.6,0s0.6,0,0.9,0
		c0.3,0,0.7,0,1,0c0.3,0,0.6,0,0.9,0s0.5,0,0.6,0c0.3,0,0.6,0,0.8-0.2c0.2-0.1,0.3-0.3,0.4-0.6c0.1-0.3,0.1-0.8,0.2-1.4
		c0.2,0.2,0.5,0.3,0.9,0.4c0.3,0.1,0.7,0.2,0.9,0.3c-0.1,0.8-0.2,1.4-0.4,1.9c-0.2,0.4-0.5,0.8-0.9,0.9c-0.4,0.2-1,0.3-1.7,0.3
		c-0.1,0-0.3,0-0.6,0c-0.3,0-0.6,0-1,0c-0.4,0-0.7,0-1.1,0c-0.4,0-0.7,0-1,0c-0.3,0-0.5,0-0.6,0c-0.9,0-1.5-0.1-2-0.2
		s-0.8-0.4-1-0.8c-0.2-0.4-0.3-0.9-0.3-1.5V70.5z M223.3,61.6h2.1v7.6h-2.1V61.6z M226.3,65.6h4v1.2h-4V65.6z M226.3,67.7h4.5v1.2
		h-4.5V67.7z"/>
	<path class="st13" d="M236.1,63.6h7.6v1.7h-7.6V63.6z M237,72h1.8v6.8H237V72z M237,66.4h6V68h-6V66.4z M237,69.2h6v1.6h-6V69.2z
		 M237.2,60.8h5.9v1.6h-5.9V60.8z M238.1,72h5v6h-5v-1.7h3.2v-2.6h-3.2V72z M243.8,66h11.1v2h-11.1V66z M252.8,60.4l1.5,1.8
		c-0.9,0.3-1.9,0.5-2.9,0.7c-1.1,0.2-2.2,0.4-3.3,0.5c-1.1,0.1-2.2,0.2-3.3,0.3c0-0.3-0.1-0.6-0.2-0.9c-0.1-0.4-0.2-0.7-0.4-0.9
		c0.8-0.1,1.5-0.1,2.3-0.2c0.8-0.1,1.6-0.2,2.3-0.3c0.8-0.1,1.5-0.3,2.1-0.4C251.7,60.7,252.2,60.6,252.8,60.4z M244.9,70.8h9.1v7.9
		h-2.1v-6h-4.9v6.1h-2V70.8z M246.3,75.9h6.6v1.9h-6.6V75.9z M248.2,62.2h2.2v9.6h-2.2V62.2z"/>
	<path class="st13" d="M264.5,66.2l1.7,0.8c-0.5,0.6-1,1.1-1.6,1.6c-0.6,0.5-1.3,1-2,1.5c-0.7,0.5-1.4,0.9-2.2,1.2
		c-0.7,0.4-1.5,0.7-2.2,1c-0.1-0.2-0.2-0.3-0.4-0.5c-0.2-0.2-0.3-0.4-0.5-0.6c-0.2-0.2-0.3-0.4-0.5-0.5c0.7-0.2,1.4-0.5,2.1-0.8
		c0.7-0.3,1.4-0.7,2.1-1c0.7-0.4,1.3-0.8,1.9-1.2C263.6,67.1,264.1,66.7,264.5,66.2z M257.5,65.6h17.8v1.8h-17.8V65.6z M272.4,60.3
		l1.4,1.6c-1,0.2-2.1,0.4-3.3,0.5c-1.2,0.2-2.4,0.3-3.7,0.4c-1.3,0.1-2.6,0.2-3.9,0.2s-2.6,0.1-3.8,0.1c0-0.2-0.1-0.5-0.2-0.8
		c-0.1-0.3-0.2-0.6-0.3-0.8c1.2,0,2.4-0.1,3.7-0.2c1.3-0.1,2.5-0.2,3.7-0.3c1.2-0.1,2.4-0.2,3.4-0.4
		C270.7,60.6,271.6,60.5,272.4,60.3z M260.1,71h13v7.8h-2.2v-6.2h-8.8v6.2h-2.1V71z M260.3,63.5l1.8-0.7c0.3,0.4,0.6,0.8,0.9,1.3
		c0.3,0.5,0.5,0.9,0.6,1.2l-1.9,0.8c-0.1-0.3-0.3-0.8-0.6-1.2C260.9,64.3,260.6,63.9,260.3,63.5z M260.9,73.9h11.2v1.4h-11.2V73.9z
		 M260.9,76.6h11.2v1.6h-11.2V76.6z M265.3,62.1h2.1v8.5h-2.1V62.1z M265.4,72h2v5.7h-2V72z M268.2,66.3c0.4,0.4,0.9,0.9,1.5,1.3
		c0.6,0.4,1.2,0.8,1.9,1.2s1.4,0.7,2.2,1c0.7,0.3,1.5,0.5,2.2,0.7c-0.2,0.1-0.3,0.3-0.5,0.5c-0.2,0.2-0.3,0.4-0.5,0.7
		c-0.2,0.2-0.3,0.4-0.4,0.6c-0.7-0.2-1.5-0.5-2.2-0.9c-0.7-0.4-1.5-0.8-2.2-1.2c-0.7-0.5-1.4-0.9-2-1.5c-0.6-0.5-1.2-1.1-1.6-1.6
		L268.2,66.3z M270.5,62.5l2.4,0.6c-0.3,0.5-0.7,1.1-1,1.6c-0.3,0.5-0.6,1-0.9,1.3l-1.8-0.6c0.2-0.3,0.3-0.6,0.5-0.9
		c0.2-0.3,0.3-0.7,0.5-1C270.3,63.1,270.4,62.8,270.5,62.5z"/>
	<path class="st13" d="M278.4,68.3h18v1.9h-18V68.3z M282.8,68.8l2.3,0.3c-0.2,0.6-0.4,1.3-0.6,1.9c-0.2,0.7-0.4,1.3-0.7,1.9
		c-0.2,0.6-0.4,1.2-0.6,1.7l-2.3-0.4c0.2-0.5,0.4-1,0.6-1.7c0.2-0.6,0.5-1.3,0.7-1.9C282.4,70,282.6,69.4,282.8,68.8z M281,60.9h13
		v6.2h-13V60.9z M282.7,71.6h9.9v2h-9.9V71.6z M283.1,62.8v2.5h8.7v-2.5H283.1z M291.8,71.6h2.3c0,0.2,0,0.4-0.1,0.6
		c0,0.1,0,0.3,0,0.4c-0.1,1.1-0.3,2-0.5,2.8c-0.2,0.7-0.3,1.3-0.5,1.8s-0.4,0.8-0.7,1c-0.3,0.3-0.6,0.4-0.9,0.5
		c-0.3,0.1-0.7,0.2-1.2,0.2c-0.4,0-0.9,0-1.5,0c-0.6,0-1.3,0-2,0c0-0.3-0.1-0.7-0.2-1c-0.1-0.4-0.3-0.7-0.5-1c0.5,0,0.9,0.1,1.4,0.1
		c0.5,0,0.9,0,1.2,0c0.4,0,0.6,0,0.8,0c0.2,0,0.4,0,0.6,0c0.1,0,0.3-0.1,0.4-0.2c0.2-0.1,0.4-0.4,0.5-0.8s0.3-0.9,0.4-1.6
		c0.1-0.7,0.3-1.5,0.4-2.5L291.8,71.6z"/>
</g>
</svg>
