<?xml version="1.0" encoding="utf-8"?>
<!-- Generator: Adobe Illustrator 28.0.0, SVG Export Plug-In . SVG Version: 6.00 Build 0)  -->
<svg version="1.1" id="レイヤー_1" xmlns="http://www.w3.org/2000/svg" xmlns:xlink="http://www.w3.org/1999/xlink" x="0px"
	 y="0px" viewBox="0 0 98.9 98.9" style="enable-background:new 0 0 98.9 98.9;" xml:space="preserve">
<style type="text/css">
	.st0{fill:#D9F5FA;}
	.st1{fill:#F5AB33;}
	.st2{opacity:0.1;}
	.st3{fill:#33CAE7;}
	.st4{opacity:0.3;fill:#B1C3C9;}
	.st5{opacity:0.3;fill:#5B91B5;}
	.st6{opacity:0.3;fill:#73B8E6;}
	.st7{fill:#B3B3B3;}
	.st8{fill:#CCCCCC;}
	.st9{fill:#2E384C;}
	.st10{clip-path:url(#SVGID_00000132797425669166148240000012641951137212139435_);}
	.st11{fill:#666666;}
	.st12{fill:#E85151;}
	.st13{fill:#FFD759;}
	.st14{fill:#4BD961;}
	.st15{fill:none;}
	.st16{fill:#F7C066;}
	.st17{clip-path:url(#SVGID_00000076584152198373633730000009695661849299895443_);}
	.st18{clip-path:url(#SVGID_00000123422357566243695190000007172032330332481932_);}
	.st19{clip-path:url(#SVGID_00000111161229267854145530000015954619954590494395_);}
	.st20{clip-path:url(#SVGID_00000111161229267854145530000015954619954590494395_);fill:#FEF4E4;}
	.st21{fill:#FFFFFF;}
	.st22{fill:#80DEF0;}
	.st23{clip-path:url(#SVGID_00000065759915928890931500000011491975946435785913_);}
	.st24{clip-path:url(#SVGID_00000008834782893350277110000014862525094713477527_);}
	.st25{fill:#F001BC;}
	.st26{fill:#F29400;}
	.st27{fill:#40CDE8;}
	.st28{fill:#F5B040;}
</style>
<path class="st28" d="M98.9,55.7V43.1L85.6,40c-0.9-3.3-2.2-6.4-3.9-9.3l7.2-11.7L80,10l-11.7,7.2c-2.9-1.7-6-3-9.3-3.9L55.7,0H43.1
	L40,13.3c-3.3,0.9-6.4,2.2-9.3,3.9L18.9,10L10,18.9l7.2,11.7c-1.7,2.9-3,6-3.9,9.3L0,43.1l0,12.6l13.3,3.2c0.9,3.3,2.2,6.4,3.9,9.3
	L10,80l8.9,8.9l11.7-7.2c2.9,1.7,6,3,9.3,3.9l3.2,13.3l12.6,0l3.2-13.3c3.3-0.9,6.4-2.2,9.3-3.9L80,88.9l8.9-8.9l-7.2-11.7
	c1.7-2.9,3-6,3.9-9.3L98.9,55.7z M49.4,71.9C37,71.9,27,61.8,27,49.4S37,27,49.4,27C61.8,27,71.9,37,71.9,49.4S61.8,71.9,49.4,71.9z
	"/>
</svg>
