<?xml version="1.0" encoding="utf-8"?>
<!-- Generator: Adobe Illustrator 28.0.0, SVG Export Plug-In . SVG Version: 6.00 Build 0)  -->
<svg version="1.1" id="レイヤー_1" xmlns="http://www.w3.org/2000/svg" xmlns:xlink="http://www.w3.org/1999/xlink" x="0px"
	 y="0px" viewBox="0 0 1200 793.9" style="enable-background:new 0 0 1200 793.9;" xml:space="preserve">
<style type="text/css">
	.st0{fill:#F3A11A;}
	.st1{fill:#FBFBFB;}
	.st2{fill:#F29600;}
	.st3{fill:#FCEACC;}
	.st4{fill:none;}
	.st5{fill:#FFFFFF;}
	.st6{fill:#80DEF0;}
	.st7{fill:#F8CA7F;}
	.st8{fill:#4D4D4D;}
	.st9{fill:#FFE964;}
	.st10{fill:#FFFF00;}
	.st11{fill:none;stroke:url(#);stroke-width:6.8925;stroke-linecap:round;stroke-linejoin:round;}
	.st12{fill:#DADBDB;}
	.st13{fill:#251E1C;}
	.st14{fill:#66D7ED;}
	.st15{fill:#727171;}
	.st16{fill:#FEF4E5;}
	.st17{fill:#CCCCCC;}
	.st18{fill:none;stroke:#808080;stroke-width:1.5318;stroke-miterlimit:10;}
	.st19{fill:#E85151;}
	.st20{fill:#FFD759;}
	.st21{fill:#4BD961;}
	.st22{fill:none;stroke:#E6E6E6;stroke-width:1.8093;stroke-miterlimit:10;}
	.st23{fill:#999999;}
	.st24{fill:none;stroke:#CED4DA;stroke-width:1.8093;stroke-miterlimit:10;}
	.st25{fill:#59C2E1;}
	.st26{fill:#796A56;}
	.st27{fill:#9CDBED;}
	.st28{fill:none;stroke:#F29600;stroke-width:1.8093;stroke-miterlimit:10;}
	.st29{fill:none;stroke:#797979;stroke-width:1.7231;stroke-miterlimit:10;}
	.st30{fill:#F2F2F2;}
	.st31{fill:#EAECEF;}
</style>
<rect x="0" class="st1" width="1200" height="793.9"/>
<path class="st8" d="M773.7,308.7l-8.4,3.5c-3.5,1.5-7.6-0.3-9.1-3.8l0,0c-1.5-3.5,0.3-7.6,3.8-9.1l8.4-3.5c3.5-1.5,7.6,0.3,9.1,3.8
	l0,0C779,303.2,777.3,307.2,773.7,308.7z"/>
<path class="st8" d="M771.4,302.2c-1.2,0-2.3-0.9-2.4-2.2c-0.2-1.3,0.8-2.5,2.1-2.7c4.8-0.6,7.9-2.4,9.4-5.6
	c5.2-11.5-10-38-16.3-47.2c-0.8-1.1-0.5-2.6,0.6-3.4c1.1-0.8,2.6-0.5,3.4,0.6c1,1.4,24.2,35.6,16.7,51.9c-2.2,4.8-6.7,7.7-13.2,8.4
	C771.6,302.2,771.5,302.2,771.4,302.2z"/>
<polygon class="st12" points="767.8,574.6 886.2,581.8 1022.2,547.8 1010.5,528.4 920.2,528.4 762,562 762,574.6 "/>
<path class="st7" d="M652.5,272.5c-1.6-1.9-3-4-4.3-6.1c-4.8-8-7.8-17.4-8.5-26.8c-0.7-10.6-1.9-21.2,0.4-31.6
	c3.6-16.6,8.2-31.8,20.1-43c3.4-3.2,7.2-5.9,11.3-8c1.2-0.6,2.4-1.2,3.7-1.6c0.7-0.3,1.5-0.4,2.2-0.7c1.8-0.8,4.1-2.2,6.2-3.2
	c3.1-1.4,6.3-2.7,9.5-3.8c5.6-1.9,11.5-3.1,17.4-3.4c9.3-0.6,18.7,1.2,27.1,5.3c6.1,2.9,11.6,6.9,16.3,11.7c1.9,2,3.8,4.1,5.3,6.4
	c2.3,3.5,6.6,13.9,18.1,21.3c8.4,5.4,5.2,19,0.6,27.9C778,216.9,707.8,312.2,652.5,272.5z"/>
<path class="st7" d="M639,474.6c-1.6-10.7-3.5-21.3-5.9-31.8c-0.4-2-1.2-3.7-3.3-4.3c-0.6-0.2-1.2-0.2-1.8-0.5
	c-0.4-0.2-1.1-0.9-1.6-1.4c-2.8-2.4-6.7-3.8-10.4-4c-1.5-0.1-3.2,0.2-4.5,1c-20.8,2.4-41.5,6.5-61.6,12.2
	c-8.8,2.5-18.3,4.8-25.6,10.5c-7.5,5.7-10.8,14.5-12.1,23.6c-2.4,17.2,0.6,34.5,5.1,51.1c4.6,16.8,12.9,37.4,17.4,56.2l107.8-21.4
	v-1.9C642.7,542.4,642.1,495.9,639,474.6z"/>
<path class="st5" d="M892.4,407.6l-36.5-11.8c-2.5-0.8-5.1,0.7-5.7,3.2L836,459.4c-6.4-8.6-30.3-43.4-35.1-53
	c-25.7-50.7-41.4-60-41.4-60c-35-25-120.4,0.1-120.4,0.1l-9.1-1.2c-7.8,1.4-20.4,10.7-20.4,10.7c-27.2,17.5-17.5,56.3-17.5,56.3
	c13.6,76.7,27,158.6,27,158.6l159.8-30.7l8.4-57.6l36.3,36.3c33.2,30.9,53.3-22.8,53.3-22.8L897,416
	C897.9,412.4,895.9,408.7,892.4,407.6z"/>
<path class="st8" d="M604.4,485.4c-1.2,0-2.2-0.8-2.4-2c-4.4-25.4-8.5-49.1-12.3-70.5c-0.3-1.1-2.5-10.6-1.5-22.3
	c1.3-16.3,8.2-28.9,20-36.5c1.1-0.8,13.3-9.6,21.3-11.1c0.2,0,0.5-0.1,0.7,0l8.6,1.1c3.4-1,23.5-6.5,47-9.4c34.7-4.2,59.9-1,75,9.7
	c0.6,0.3,2.9,1.9,6.7,6c0.9,1,0.9,2.5-0.1,3.4c-1,0.9-2.5,0.9-3.4-0.1c-3.8-3.9-5.8-5.2-5.8-5.2c0,0-0.1-0.1-0.2-0.1
	c-33.6-24-117.5,0.2-118.3,0.4c-0.3,0.1-0.7,0.1-1,0.1l-8.7-1.1c-7.2,1.5-18.9,10.1-19,10.2c0,0-0.1,0.1-0.1,0.1
	c-25.4,16.3-16.5,53.3-16.4,53.7c0,0.1,0,0.1,0,0.2c3.8,21.4,7.9,45.2,12.3,70.6c0.2,1.3-0.7,2.6-2,2.8
	C604.7,485.4,604.6,485.4,604.4,485.4z"/>
<path class="st8" d="M619.3,572.2c-1.2,0-2.2-0.8-2.4-2c0-0.3-5-29.8-11.8-69.4c-0.2-1.3,0.7-2.6,2-2.8c1.3-0.2,2.6,0.7,2.8,2
	c6.8,39.6,11.8,69.1,11.9,69.4c0.2,1.3-0.7,2.6-2,2.8C619.6,572.2,619.4,572.2,619.3,572.2z"/>
<path class="st8" d="M778.9,542.7c-0.1,0-0.2,0-0.4,0c-1.3-0.2-2.2-1.4-2.1-2.8l8.4-57.6c0.1-0.9,0.8-1.7,1.6-2
	c0.9-0.3,1.8-0.1,2.5,0.6l36.3,36.3c0.9,0.9,0.9,2.5,0,3.4c-0.9,0.9-2.5,0.9-3.4,0L789,487.8l-7.7,52.8
	C781.1,541.8,780.1,542.7,778.9,542.7z"/>
<path class="st8" d="M826.6,452.8c-0.7,0-1.5-0.3-1.9-1c-6.4-8.6-20.9-34.2-26-44.3c-9.8-19.4-19.3-34.9-28.1-46.2
	c-0.8-1.1-0.6-2.6,0.4-3.4c1.1-0.8,2.6-0.6,3.4,0.4c9,11.5,18.7,27.3,28.6,47c5,9.9,19.3,35.2,25.5,43.5c0.8,1.1,0.6,2.6-0.5,3.4
	C827.7,452.6,827.1,452.8,826.6,452.8z"/>
<path class="st5" d="M904.1,528c-1.2-3.3-2.8-6.4-4.8-9.3l-2.8-4c-2.8-4-6.9-6.9-11.6-8.2c-5-1.4-9.2-1-9.2-1l-33.9,3
	c-15.5,3-57.5,3.7-66.7,3.9c-0.6-2-0.9-3.1-0.9-3.1l-99.5,4.4c-9.7-12.6-22.3-99.4-22.3-99.4c-4.9-41.1-28.8-46.9-28.8-46.9
	l-2.3,165.4l9.7,22.3c7.8,17.5,35.9,10.7,35.9,10.7l110.8-14.4c1.1-2.4,1.6-5.4,1.8-8.7l6.8-1.2c12.6,12.1,53.9,2.9,53.9,2.9
	l7.8-1.5l8.7,6.8c14.6,11.2,14.1-1,14.1-1c4.9,4.4,7.1,6.1,10.6,6c6.5-0.2,5.4-7,5.4-7c3.6,4.5,7.7,4,9.5,3.4
	c3.9-1.2,2.6-8.3,2.6-8.3c2.9,2.9,6.4,1.3,6.4,1.3C908.8,543.1,906.2,534.1,904.1,528z"/>
<path class="st8" d="M881.2,557.3c-3.4,0-5.9-1.4-8.9-3.9c-0.5,1.1-1.4,2.2-2.8,2.9c-3.4,1.7-8,0.3-14.3-4.5l-7.9-6.1l-6.7,1.2
	c-2.2,0.5-40.9,8.9-55.1-2.7l-15.9,2.7c-1.3,0.2-2.5-0.6-2.8-1.8c-0.1-0.5-3-13.2-0.8-23.2c0.3-1.3,1.6-2.1,2.9-1.8
	c1.3,0.3,2.1,1.6,1.8,2.9c-1.5,6.6-0.4,14.9,0.3,18.8l14.7-2.5c0.8-0.1,1.5,0.1,2.1,0.6c9.6,9.2,40.6,4.8,51.7,2.3c0,0,0.1,0,0.1,0
	l7.8-1.5c0.7-0.1,1.4,0,1.9,0.5l8.7,6.8c6.5,5,8.7,4.3,9.1,4.1c0.9-0.4,1.1-2.3,1.1-3c0-1,0.5-1.9,1.4-2.3c0.9-0.4,1.9-0.3,2.6,0.4
	c4.7,4.2,6.4,5.5,8.9,5.4c1.7,0,2.2-0.7,2.4-0.9c0.8-1,0.8-2.7,0.7-3.3c-0.2-1.1,0.4-2.1,1.4-2.6c1-0.4,2.2-0.2,2.9,0.7
	c2.7,3.3,5.5,3.1,6.9,2.6c1.2-0.4,1.3-3.8,1-5.5c-0.2-1,0.3-2.1,1.3-2.6c0.9-0.5,2.1-0.3,2.8,0.4c1.6,1.5,3.4,1,3.7,0.9
	c0.4-0.7,0.6-4.3-2.6-13.3c-1.1-3.1-2.6-6-4.5-8.7l-2.8-4c-2.5-3.6-6.2-6.2-10.2-7.3c-4.5-1.2-8.3-1-8.4-1l-21.4,1.3
	c-1.3,0.1-2.5-0.9-2.6-2.3c-0.1-1.3,0.9-2.5,2.3-2.6l21.3-1.3c0.1,0,4.7-0.4,10,1.1c5.1,1.4,9.7,4.7,12.9,9.2l2.8,4
	c2.2,3,3.9,6.4,5.1,9.8c4.2,11.6,4.1,17.8,0,19.4c-1.1,0.5-2.8,0.8-4.7,0.4c-0.5,4.6-3,6.1-4.4,6.5c-1.2,0.4-4.7,1.2-8.4-0.9
	c-0.3,0.7-0.7,1.4-1.2,2c-1,1.2-2.8,2.5-6,2.6C881.4,557.3,881.3,557.3,881.2,557.3z"/>
<path class="st8" d="M773.2,514.9c-1.3,0-2.4-1.1-2.4-2.4c0-1.3,1.1-2.4,2.4-2.5c0.5,0,51-0.5,68-3.8c1.3-0.3,2.6,0.6,2.8,1.9
	c0.3,1.3-0.6,2.6-1.9,2.8C824.7,514.3,775.3,514.8,773.2,514.9C773.2,514.9,773.2,514.9,773.2,514.9z"/>
<path class="st8" d="M870.8,551.3c-0.8,0-1.5-0.4-2-1l-8.9-12.7c-0.3-0.4-0.6-0.8-0.9-1.1c-3-3.4-4.6-4-4.9-4h-17.4
	c-1.3,0-2.4-1.1-2.4-2.4s1.1-2.4,2.4-2.4h17.4c1.1,0,4,0.6,8.5,5.7c0.4,0.5,0.8,1,1.2,1.6l8.9,12.7c0.8,1.1,0.5,2.6-0.6,3.4
	C871.8,551.1,871.3,551.3,870.8,551.3z M854.5,532.3L854.5,532.3L854.5,532.3z M854.6,532.3C854.5,532.3,854.5,532.3,854.6,532.3
	C854.5,532.3,854.5,532.3,854.6,532.3z M854.2,532.3L854.2,532.3L854.2,532.3z"/>
<path class="st8" d="M886.9,550.3c-0.9,0-1.7-0.5-2.2-1.3l-6.1-12.1c-1.7-3.4-4-6.5-6.6-9.2l-1.7-1.7c-2.4-2.4-5.3-4-8.6-4.7
	c-5.7-1.2-12.7-1.5-12.8-1.5c-1.3-0.1-2.4-1.2-2.3-2.5c0.1-1.3,1.2-2.4,2.5-2.3c0.3,0,7.4,0.4,13.5,1.6c4.2,0.9,8.1,3,11.1,6.1
	l1.7,1.7c3,3.1,5.5,6.6,7.5,10.4l6.1,12.1c0.6,1.2,0.1,2.7-1.1,3.3C887.6,550.2,887.2,550.3,886.9,550.3z"/>
<path class="st8" d="M899,545.5c-0.9,0-1.8-0.5-2.2-1.4l-5-11.1c-1.1-2.5-2.5-4.9-4-7.1l-3.4-5c-1.9-2.8-4.7-4.8-8-5.6
	c-4.6-1.2-9.3-1-9.3-1c-1.3,0-2.5-1-2.5-2.3c0-1.3,1-2.5,2.3-2.5c0.2,0,5.4-0.2,10.7,1.2c4.4,1.1,8.2,3.8,10.8,7.6l3.4,5
	c1.7,2.5,3.2,5.1,4.4,7.9l5,11.1c0.6,1.2,0,2.7-1.2,3.2C899.7,545.4,899.3,545.5,899,545.5z"/>
<path class="st5" d="M734.8,339.1c-6.1-13.9-0.6-30.3-0.6-30.3c36.9-7.2,34.5-69.6,34.5-69.6c-0.1-16.5,0-18.3,0-18.3
	c-43.4,6-53.8-40.5-53.8-40.5c-31.6,21.4-42.4,76.5-42.4,76.5l0.7,16c2.5,27.6-4.8,50.2-4.8,50.2c-5.2,12.6-30.1,23.4-30.1,23.4
	c22.5,2.7,44.2,20.1,44.2,20.1c27.1,26.5,57.7,22.6,57.7,22.6c31.5-6.7,4.2-44,4.2-44L734.8,339.1z"/>
<path class="st8" d="M762.5,241c-0.1,2.1-1.8,3.8-3.9,3.7c-2.1-0.1-3.8-1.8-3.7-4c0.1-2.1,1.8-3.8,4-3.7
	C760.9,237.1,762.6,238.9,762.5,241z"/>
<path class="st8" d="M724.6,239.8c-0.1,2.1-1.8,3.8-3.9,3.7c-2.1-0.1-3.8-1.8-3.7-4c0.1-2.1,1.8-3.8,4-3.7
	C723,235.9,724.6,237.7,724.6,239.8z"/>
<path class="st8" d="M743.9,263.4l4.3,0c1.3,0,2.3,1,2.4,2.3c0,1.3-1,2.3-2.3,2.4l-4.3,0c-1.3,0-2.3-1-2.4-2.3
	C741.6,264.5,742.6,263.4,743.9,263.4z"/>
<path class="st8" d="M734.2,311.2c-0.1,0-0.1,0-0.2,0c-29-2.3-44.6-21.1-45.2-21.9c-0.8-1-0.7-2.6,0.4-3.4c1-0.8,2.6-0.7,3.4,0.4
	l0,0c0.1,0.2,15,18,41.9,20.2c1.3,0.1,2.3,1.3,2.2,2.6C736.6,310.3,735.5,311.2,734.2,311.2z"/>
<path class="st13" d="M673.5,296.7c-0.1,0-0.1,0-0.2,0c-1.3-0.1-2.3-1.2-2.3-2.6c0.5-7,0.4-13.9-0.1-20.5l-6.1-11
	c-0.6-1.2-0.2-2.6,0.9-3.3c1.2-0.6,2.7-0.2,3.3,0.9l6.3,11.4c0.2,0.3,0.3,0.6,0.3,1c0.6,7,0.7,14.4,0.2,21.8
	C675.8,295.8,674.8,296.7,673.5,296.7z"/>
<path class="st8" d="M679.8,381.1c-0.5,0-1-0.2-1.4-0.5c-12-8.8-19.1-18.3-20-19.7c-5.7-6-8.5-8-20.7-12.2c-0.9-0.3-1.6-1.2-1.6-2.2
	c0-1,0.5-1.9,1.5-2.3c0,0,3.8-1.6,8.5-4.3c10.9-6,18.1-12.4,20.3-17.8c0-0.1,0.1-0.2,0.2-0.3c0,0,2.1-3.8,3.6-14.9
	c0.2-1.3,1.4-2.3,2.7-2.1c1.3,0.2,2.3,1.4,2.1,2.7c-1.4,11.2-3.6,15.6-4.1,16.6c-3.5,8.2-14.1,15.4-22.4,20
	c-1.3,0.7-2.5,1.4-3.6,1.9c8.6,3.3,11.9,5.9,17.3,11.6c0.1,0.1,0.2,0.2,0.2,0.3c0.1,0.1,7.1,10,19,18.7c1.1,0.8,1.3,2.3,0.5,3.4
	C681.2,380.8,680.5,381.1,679.8,381.1z"/>
<path class="st8" d="M736.5,347.3c-0.8,0-1.6-0.4-2.1-1.2c-8-13.8-2.7-36.9-2.5-37.8c0.2-1,1-1.7,2-1.8
	c34.7-5.5,32.5-66.5,32.5-67.1c-0.1-1.3,1-2.5,2.3-2.5c1.3-0.1,2.5,1,2.5,2.3c0,0.7,0.6,16.5-3.4,33.3
	c-5.3,22.1-16.1,35.3-31.5,38.6c-1,5.2-3.7,22.5,2.3,32.7c0.7,1.2,0.3,2.6-0.9,3.3C737.3,347.2,736.9,347.3,736.5,347.3z"/>
<path class="st8" d="M775.6,222.6c-14.6,0-27.1-6.8-36.3-19.9c-7.4-10.5-9.9-21.2-10-21.6c-0.3-1.3,0.5-2.6,1.8-2.9
	c1.3-0.3,2.6,0.5,2.9,1.8c0,0.1,2.5,10.4,9.4,20.1c9,12.7,20.9,18.6,35.5,17.6c1.3-0.1,2.5,0.9,2.6,2.2c0.1,1.3-0.9,2.5-2.2,2.6
	C778,222.6,776.8,222.6,775.6,222.6z"/>
<path class="st8" d="M768.2,232.5C768.2,232.5,768.2,232.5,768.2,232.5c-1.4,0-2.5-1.1-2.4-2.5c0.1-7.5,1.5-16.1,1.6-16.4
	c0.2-1.3,1.5-2.2,2.8-2c1.3,0.2,2.2,1.5,2,2.8c0,0.1-1.4,8.6-1.5,15.8C770.6,231.4,769.5,232.5,768.2,232.5z"/>
<path class="st8" d="M787.3,474.1c-0.1,0-0.3,0-0.4,0c-1.3-0.2-2.2-1.5-2-2.8c2.5-13.6,0-26.2,0-26.3l-12.3-54.3
	c-0.3-1.3,0.5-2.6,1.8-2.9c1.3-0.3,2.6,0.5,2.9,1.8l12.3,54.4c0.1,0.6,2.7,13.6,0,28.2C789.5,473.2,788.5,474.1,787.3,474.1z"/>
<path class="st8" d="M651.3,533.3c-0.8,0-1.7-0.4-2.1-1.2c-0.7-1.2-0.2-2.6,0.9-3.3l15.5-8.7c1.2-0.7,2.6-0.2,3.3,0.9
	c0.7,1.2,0.2,2.6-0.9,3.3l-15.5,8.7C652.2,533.2,651.7,533.3,651.3,533.3z"/>
<path class="st12" d="M934.1,441l-47.9,140.8l144.8-24.1l55.3-138.3c1.4-3.9-0.9-8-4.6-9.1c-0.9-0.3-1.9-0.3-2.9-0.2l-130,17.4
	C943.3,427.5,936,435.8,934.1,441z"/>
<path class="st8" d="M1047.1,518.9c-0.3,0-0.6-0.1-0.9-0.2c-1.2-0.5-1.8-1.9-1.3-3.2l39.2-96.9c0.4-1.2,0.3-2.5-0.2-3.6
	c-0.6-1.1-1.6-2-2.8-2.3c-0.5-0.2-1.1-0.2-1.9-0.1l-117.9,15.8c-1.3,0.2-2.5-0.8-2.7-2.1c-0.2-1.3,0.8-2.5,2.1-2.7l117.9-15.8
	c1.4-0.2,2.7-0.1,3.9,0.3c2.5,0.7,4.6,2.5,5.7,4.8c1.2,2.3,1.3,5,0.5,7.5c0,0,0,0.1,0,0.1l-39.2,97
	C1049,518.3,1048.1,518.9,1047.1,518.9z"/>
<path class="st8" d="M898.5,582.2c-1.2,0-2.2-0.8-2.4-2c-0.2-1.3,0.7-2.6,2-2.8l131.1-21.8l12.1-30.5c0.5-1.2,1.9-1.9,3.1-1.4
	c1.2,0.5,1.9,1.9,1.4,3.1l-12.6,31.8c-0.3,0.8-1,1.4-1.9,1.5l-132.5,22.1C898.8,582.2,898.6,582.2,898.5,582.2z"/>
<path class="st8" d="M889.5,574.5c-0.3,0-0.5,0-0.8-0.1c-1.3-0.4-1.9-1.8-1.5-3.1l44.6-131.1c0,0,0,0,0-0.1c2.2-6,10.1-15,17-15
	c0,0,0,0,0.1,0c1.3,0,2.4,1.1,2.4,2.4c0,1.3-1.1,2.4-2.4,2.4c0,0,0,0,0,0c-3.9,0-10.6,6.9-12.4,11.8l-44.6,131.1
	C891.4,573.9,890.5,574.5,889.5,574.5z"/>
<path class="st8" d="M506.9,593.9c-1.1,0-2.2-0.8-2.4-2c-0.2-1.3,0.6-2.6,1.9-2.8l117.9-22.1c1.3-0.2,2.6,0.6,2.8,1.9
	c0.2,1.3-0.6,2.6-1.9,2.8l-117.9,22.1C507.2,593.8,507.1,593.9,506.9,593.9z"/>
<path class="st8" d="M872,573c0,0-0.1,0-0.1,0l-83-3.7c-1.3-0.1-2.4-1.2-2.3-2.5c0.1-1.3,1.2-2.4,2.5-2.3l83,3.7
	c1.3,0.1,2.4,1.2,2.3,2.5C874.3,572,873.2,573,872,573z"/>
<path class="st8" d="M886.2,584.2c0,0-0.1,0-0.1,0L767.7,577H762c-1.3,0-2.4-1.1-2.4-2.4V562c0-1.2,0.8-2.2,2-2.4l34.5-6.4
	c1.3-0.2,2.6,0.6,2.8,1.9c0.2,1.3-0.6,2.6-1.9,2.8l-32.5,6.1v8.2h3.4c0,0,0.1,0,0.1,0l118.4,7.2c1.3,0.1,2.4,1.2,2.3,2.6
	C888.6,583.2,887.5,584.2,886.2,584.2z"/>
<ellipse transform="matrix(0.6177 -0.7864 0.7864 0.6177 -5.4473 973.8296)" class="st5" cx="998.9" cy="492.5" rx="12.7" ry="9.4"/>
<path class="st8" d="M738.7,295.3c0,0-0.1,0-0.1,0c-5.1-0.2-9.1-3.5-11.5-9.4c-1.7-4.1-2-8.1-2.1-8.3c-0.1-0.7,0.2-1.4,0.7-1.9
	c0.5-0.5,1.2-0.8,2-0.7c6.9,0.8,20.2,0.4,20.4,0.4c1.3,0,2.5,1,2.5,2.4c0,1.3-1,2.5-2.4,2.5c-0.5,0-10.5,0.3-17.9-0.2
	c0.8,3.8,3,10,8.3,10.4c0.5-0.1,3.1-0.8,5.6-5.5c0.6-1.2,2.1-1.6,3.3-1c1.2,0.6,1.6,2.1,1,3.3C744.3,295,739.3,295.3,738.7,295.3
	C738.7,295.3,738.7,295.3,738.7,295.3z"/>
<path class="st8" d="M713.6,226.2c-1,0-2-0.7-2.3-1.7c-0.4-1.3,0.3-2.6,1.6-3c8.7-2.7,14.1,0,14.3,0.1c1.2,0.6,1.7,2.1,1.1,3.3
	c-0.6,1.2-2.1,1.7-3.2,1.1c-0.2-0.1-4.1-1.8-10.7,0.2C714.1,226.2,713.9,226.2,713.6,226.2z"/>
<path class="st8" d="M654.8,569.6c-1,0-2.1,0-3.1-0.1c-11.4-0.7-19.4-5.3-23-13.3l-8.1-17.8c-0.6-1.2,0-2.7,1.2-3.2
	c1.2-0.6,2.7,0,3.2,1.2l8.1,17.8c6.9,15.4,32.9,9.4,33.2,9.3c0.1,0,0.2,0,0.3,0l107.5-13.9c1.3-0.2,2.5,0.8,2.7,2.1
	c0.2,1.3-0.8,2.5-2.1,2.7l-107.4,13.9C666.4,568.5,661.2,569.6,654.8,569.6z"/>
<path class="st8" d="M652.3,416.8c-1.2,0-2.3-0.9-2.4-2.1c-1.3-11.2-5.1-26.8-15.3-37.2c-6.1-6.2-11.6-7.6-11.7-7.7
	c-1.3-0.3-2.1-1.6-1.8-2.9c0.3-1.3,1.6-2.1,2.9-1.8c1,0.3,25.7,6.7,30.7,49c0.2,1.3-0.8,2.5-2.1,2.7
	C652.5,416.8,652.4,416.8,652.3,416.8z"/>
<g>
	<path class="st14" d="M813.6,269.9c0,0,0.1-0.1,0.1-0.1c1-1.4,2.9-1.7,4.3-0.7l5.7,4.1c1.4,1,1.7,2.9,0.7,4.3
		c-1,1.4-2.9,1.7-4.3,0.7l-5.7-4.1C813,273.1,812.7,271.2,813.6,269.9z"/>
	<path class="st14" d="M815.8,256c0.7-1,1.9-1.6,3.1-1.3l5.8,1.1c1.7,0.3,2.7,1.9,2.4,3.6c-0.3,1.7-1.9,2.7-3.6,2.4l-5.8-1.1
		c-1.7-0.3-2.7-1.9-2.4-3.6C815.4,256.7,815.6,256.4,815.8,256z"/>
	<path class="st14" d="M809.5,223.3c0.9-1.4,2.8-1.8,4.2-0.9c1.4,0.9,1.9,2.8,1,4.2l-3.8,6c-0.9,1.4-2.8,1.9-4.2,1
		c-1.4-0.9-1.9-2.8-1-4.2L809.5,223.3C809.5,223.4,809.5,223.4,809.5,223.3z"/>
	<path class="st14" d="M813,241.3c0.2-0.3,0.5-0.7,0.9-0.9l5-3.2c1.4-0.9,3.3-0.5,4.2,0.9c0.9,1.4,0.5,3.3-0.9,4.2l-5,3.2
		c-1.4,0.9-3.3,0.5-4.2-0.9C812.3,243.6,812.3,242.3,813,241.3z"/>
</g>
<path class="st7" d="M677.3,257.6c0,0-6.5,21.1,10.9,37.1c15.2,13.9-36.4,5.1-47.3-10.9c0,0-17.5-19.6,1.5-83.6L677.3,257.6z"/>
<path class="st8" d="M666.9,231.3c-0.1,0-0.2,0-0.3,0c-2-0.1-3.5-1.8-3.3-3.8c1.7-27.1,9.9-47,24.3-59.3
	c16.5-14.1,35-12.6,35.8-12.5c2,0.2,3.4,1.9,3.2,3.9c-0.2,2-1.9,3.4-3.9,3.2l0,0c-0.2,0-16.4-1.3-30.6,10.9
	c-12.8,11-20.1,29.2-21.7,54.2C670.3,229.9,668.8,231.3,666.9,231.3z"/>
<g>
	
		<ellipse transform="matrix(0.9998 -2.024394e-02 2.024394e-02 0.9998 -4.8957 13.566)" class="st5" cx="667.6" cy="248.6" rx="15.7" ry="21.3"/>
	<path class="st8" d="M666.5,271.9c-4.3-0.4-8.3-2.8-11.4-6.8c-3.3-4.3-5.2-10.1-5.4-16.2c-0.1-6.1,1.5-12,4.7-16.4
		c3.3-4.6,7.8-7.3,12.7-7.4c4.9-0.1,9.5,2.3,13,6.8c3.3,4.3,5.2,10.1,5.4,16.2c0.1,6.1-1.5,12-4.7,16.4c-3.3,4.6-7.8,7.3-12.7,7.4
		C667.5,272,667,272,666.5,271.9z M668.3,229.5c-0.4,0-0.7,0-1.1,0c-3.5,0.1-6.8,2-9.3,5.6c-2.6,3.7-4,8.6-3.9,13.8
		c0.1,5.2,1.7,10.1,4.5,13.7c2.6,3.4,6,5.2,9.5,5.2c3.5-0.1,6.8-2,9.3-5.6c2.6-3.7,4-8.6,3.9-13.8c-0.1-5.2-1.7-10.1-4.5-13.7
		C674.4,231.6,671.4,229.8,668.3,229.5z"/>
</g>
<g>
	
		<ellipse transform="matrix(0.9998 -2.024611e-02 2.024611e-02 0.9998 -4.8989 13.4795)" class="st8" cx="663.3" cy="248.7" rx="11.4" ry="15.4"/>
	<path class="st8" d="M662.4,265.6c-3.1-0.3-6-2-8.2-4.9c-2.4-3.1-3.8-7.3-3.9-11.7c-0.2-9.3,5.5-17.1,12.6-17.2
		c7.1-0.1,13.1,7.3,13.3,16.7v0c0.2,9.3-5.5,17.1-12.6,17.2C663.2,265.6,662.8,265.6,662.4,265.6z M663.8,234.9c-0.3,0-0.5,0-0.8,0
		c-5.4,0.1-9.7,6.4-9.6,14c0.1,3.8,1.2,7.3,3.2,9.9c1.9,2.5,4.3,3.8,6.9,3.7c5.4-0.1,9.7-6.4,9.6-14
		C673,241.2,668.9,235.4,663.8,234.9z"/>
</g>
<g>
	<path class="st5" d="M750.3,440.1c-0.8-6.1-1.7-11.8-2.6-16.9c-0.3,0.6-0.9,1.1-1.6,1.1c-1,0-1.7-0.8-1.7-1.7s0.8-1.7,1.7-1.7
		c0.5,0,0.9,0.2,1.3,0.5c-0.6-3.3-1.2-6.3-1.7-8.9c-0.7-0.2-1.3-0.9-1.3-1.7c0-0.5,0.3-1,0.7-1.4c-1.3-6.3-2.3-10-2.3-10l-21.1,3.6
		c0.6,2,1.1,4.1,1.6,6.1c0.6,0.3,1,0.9,1,1.6c0,0.4-0.1,0.8-0.4,1.1c1.2,5.3,2.1,10.7,2.9,16.1c0.2-0.7,0.9-1.2,1.6-1.2
		c1,0,1.7,0.8,1.7,1.7c0,1-0.8,1.7-1.7,1.7c-0.6,0-1.1-0.3-1.4-0.7c0.4,3,0.8,6.1,1,9.1c0.1,0,0.2,0,0.4,0c1,0,1.7,0.8,1.7,1.7
		c0,1-0.8,1.7-1.7,1.7c0,0,0,0-0.1,0c0.2,2.8,0.4,5.6,0.6,8.4c0.7,0.2,1.2,0.9,1.2,1.7c0,0.7-0.4,1.3-1,1.6c0.1,3,0.2,5.9,0.3,8.8
		c0.5,0.3,0.8,0.8,0.8,1.4c0,0.6-0.3,1.1-0.7,1.4c0,3.1,0,6.1,0,9.1c0.4,0.3,0.7,0.8,0.7,1.4c0,0.6-0.3,1.1-0.7,1.4
		c-0.1,3.1-0.1,6.1-0.2,8.9c0.6,0.3,1,0.9,1,1.5c0,0.7-0.4,1.4-1.1,1.6c-0.1,3.1-0.3,5.9-0.5,8.5c0.9,0.1,1.6,0.8,1.6,1.7
		c0,1-0.8,1.7-1.7,1.7c0,0,0,0-0.1,0c-0.3,4.1-0.6,7.1-0.8,8.5c0.2-0.1,0.5-0.2,0.8-0.2c0.8,0,1.4,0.5,1.6,1.2l8.7-0.3
		c0.3-0.5,0.9-0.9,1.5-0.9c0.6,0,1.1,0.3,1.5,0.8l7.6-0.3c0.7-2.9,1.4-6,1.9-9.1c-0.5-0.3-0.9-0.9-0.9-1.5c0-0.8,0.6-1.5,1.3-1.7
		c0.4-2.8,0.6-5.6,0.8-8.4c-0.1,0-0.3,0.1-0.4,0.1c-1,0-1.7-0.8-1.7-1.7s0.8-1.7,1.7-1.7c0.2,0,0.4,0,0.6,0.1
		c0.1-2.9,0.2-5.8,0.2-8.7c-0.3,0.1-0.5,0.2-0.8,0.2c-1,0-1.7-0.8-1.7-1.7c0-1,0.8-1.7,1.7-1.7c0.3,0,0.6,0.1,0.8,0.2
		c0-2.9-0.1-5.8-0.2-8.7c-0.2,0.1-0.4,0.1-0.6,0.1c-1,0-1.7-0.8-1.7-1.7s0.8-1.7,1.7-1.7c0.1,0,0.3,0,0.4,0.1
		c-0.2-2.8-0.4-5.6-0.6-8.4c-0.9-0.1-1.5-0.8-1.5-1.7c0-0.8,0.5-1.4,1.2-1.6c-0.3-3.2-0.7-6.4-1.1-9.5c-0.1-0.2-0.1-0.4-0.1-0.6
		C750.3,440.2,750.3,440.2,750.3,440.1z M728.4,418.4c-1,0-1.7-0.8-1.7-1.7s0.8-1.7,1.7-1.7s1.7,0.8,1.7,1.7
		S729.3,418.4,728.4,418.4z M728.4,406.6c-1,0-1.7-0.8-1.7-1.7c0-1,0.8-1.7,1.7-1.7s1.7,0.8,1.7,1.7
		C730.1,405.8,729.3,406.6,728.4,406.6z M734.3,507c-1,0-1.7-0.8-1.7-1.7c0-1,0.8-1.7,1.7-1.7c1,0,1.7,0.8,1.7,1.7
		C736,506.2,735.3,507,734.3,507z M734.3,495.2c-1,0-1.7-0.8-1.7-1.7c0-1,0.8-1.7,1.7-1.7c1,0,1.7,0.8,1.7,1.7
		C736,494.4,735.3,495.2,734.3,495.2z M734.3,483.4c-1,0-1.7-0.8-1.7-1.7s0.8-1.7,1.7-1.7c1,0,1.7,0.8,1.7,1.7
		S735.3,483.4,734.3,483.4z M734.3,471.6c-1,0-1.7-0.8-1.7-1.7s0.8-1.7,1.7-1.7c1,0,1.7,0.8,1.7,1.7S735.3,471.6,734.3,471.6z
		 M734.3,459.8c-1,0-1.7-0.8-1.7-1.7c0-1,0.8-1.7,1.7-1.7c1,0,1.7,0.8,1.7,1.7C736,459,735.3,459.8,734.3,459.8z M734.3,447.9
		c-1,0-1.7-0.8-1.7-1.7c0-1,0.8-1.7,1.7-1.7c1,0,1.7,0.8,1.7,1.7C736,447.2,735.3,447.9,734.3,447.9z M734.3,436.1
		c-1,0-1.7-0.8-1.7-1.7s0.8-1.7,1.7-1.7c1,0,1.7,0.8,1.7,1.7S735.3,436.1,734.3,436.1z M734.3,424.3c-1,0-1.7-0.8-1.7-1.7
		s0.8-1.7,1.7-1.7c1,0,1.7,0.8,1.7,1.7S735.3,424.3,734.3,424.3z M734.3,412.5c-1,0-1.7-0.8-1.7-1.7c0-1,0.8-1.7,1.7-1.7
		c1,0,1.7,0.8,1.7,1.7C736,411.7,735.3,412.5,734.3,412.5z M740.2,501.1c-1,0-1.7-0.8-1.7-1.7s0.8-1.7,1.7-1.7s1.7,0.8,1.7,1.7
		S741.2,501.1,740.2,501.1z M740.2,489.3c-1,0-1.7-0.8-1.7-1.7s0.8-1.7,1.7-1.7s1.7,0.8,1.7,1.7S741.2,489.3,740.2,489.3z
		 M740.2,477.5c-1,0-1.7-0.8-1.7-1.7c0-1,0.8-1.7,1.7-1.7s1.7,0.8,1.7,1.7C741.9,476.7,741.2,477.5,740.2,477.5z M740.2,465.7
		c-1,0-1.7-0.8-1.7-1.7s0.8-1.7,1.7-1.7s1.7,0.8,1.7,1.7S741.2,465.7,740.2,465.7z M740.2,453.9c-1,0-1.7-0.8-1.7-1.7
		s0.8-1.7,1.7-1.7s1.7,0.8,1.7,1.7S741.2,453.9,740.2,453.9z M740.2,442c-1,0-1.7-0.8-1.7-1.7c0-1,0.8-1.7,1.7-1.7s1.7,0.8,1.7,1.7
		C741.9,441.3,741.2,442,740.2,442z M740.2,430.2c-1,0-1.7-0.8-1.7-1.7c0-1,0.8-1.7,1.7-1.7s1.7,0.8,1.7,1.7
		C741.9,429.4,741.2,430.2,740.2,430.2z M740.2,418.4c-1,0-1.7-0.8-1.7-1.7s0.8-1.7,1.7-1.7s1.7,0.8,1.7,1.7
		S741.2,418.4,740.2,418.4z M740.2,406.6c-1,0-1.7-0.8-1.7-1.7c0-1,0.8-1.7,1.7-1.7s1.7,0.8,1.7,1.7
		C741.9,405.8,741.2,406.6,740.2,406.6z M746.1,507c-1,0-1.7-0.8-1.7-1.7c0-1,0.8-1.7,1.7-1.7s1.7,0.8,1.7,1.7
		C747.8,506.2,747.1,507,746.1,507z M746.1,495.2c-1,0-1.7-0.8-1.7-1.7c0-1,0.8-1.7,1.7-1.7s1.7,0.8,1.7,1.7
		C747.8,494.4,747.1,495.2,746.1,495.2z M746.1,483.4c-1,0-1.7-0.8-1.7-1.7s0.8-1.7,1.7-1.7s1.7,0.8,1.7,1.7
		S747.1,483.4,746.1,483.4z M746.1,471.6c-1,0-1.7-0.8-1.7-1.7s0.8-1.7,1.7-1.7s1.7,0.8,1.7,1.7S747.1,471.6,746.1,471.6z
		 M746.1,459.8c-1,0-1.7-0.8-1.7-1.7c0-1,0.8-1.7,1.7-1.7s1.7,0.8,1.7,1.7C747.8,459,747.1,459.8,746.1,459.8z M746.1,447.9
		c-1,0-1.7-0.8-1.7-1.7c0-1,0.8-1.7,1.7-1.7s1.7,0.8,1.7,1.7C747.8,447.2,747.1,447.9,746.1,447.9z M746.1,436.1
		c-1,0-1.7-0.8-1.7-1.7s0.8-1.7,1.7-1.7s1.7,0.8,1.7,1.7S747.1,436.1,746.1,436.1z"/>
	<path class="st0" d="M746.1,503.5c-1,0-1.7,0.8-1.7,1.7c0,1,0.8,1.7,1.7,1.7s1.7-0.8,1.7-1.7C747.8,504.3,747.1,503.5,746.1,503.5z
		"/>
	<path class="st0" d="M750.3,499.4c0,0.6,0.3,1.2,0.9,1.5c0.2-1,0.3-2.1,0.5-3.2C750.8,497.9,750.3,498.6,750.3,499.4z"/>
	<path class="st0" d="M740.2,497.6c-1,0-1.7,0.8-1.7,1.7s0.8,1.7,1.7,1.7s1.7-0.8,1.7-1.7S741.2,497.6,740.2,497.6z"/>
	<path class="st0" d="M740.2,509.4c-0.7,0-1.2,0.4-1.5,0.9l3-0.1C741.3,509.8,740.8,509.4,740.2,509.4z"/>
	<path class="st0" d="M734.3,503.5c-1,0-1.7,0.8-1.7,1.7c0,1,0.8,1.7,1.7,1.7c1,0,1.7-0.8,1.7-1.7
		C736,504.3,735.3,503.5,734.3,503.5z"/>
	<path class="st0" d="M730.1,499.4c0-0.9-0.7-1.6-1.6-1.7c-0.1,1.2-0.2,2.4-0.2,3.5c0,0,0,0,0.1,0
		C729.3,501.1,730.1,500.3,730.1,499.4z"/>
	<path class="st0" d="M728.4,509.4c-0.3,0-0.6,0.1-0.8,0.2c-0.1,0.7-0.1,1.1-0.1,1.1l2.6-0.1C729.8,509.9,729.1,509.4,728.4,509.4z"
		/>
	<path class="st0" d="M746.1,491.7c-1,0-1.7,0.8-1.7,1.7c0,1,0.8,1.7,1.7,1.7s1.7-0.8,1.7-1.7C747.8,492.5,747.1,491.7,746.1,491.7z
		"/>
	<path class="st0" d="M734.3,491.7c-1,0-1.7,0.8-1.7,1.7c0,1,0.8,1.7,1.7,1.7c1,0,1.7-0.8,1.7-1.7
		C736,492.5,735.3,491.7,734.3,491.7z"/>
	<path class="st0" d="M746.1,479.9c-1,0-1.7,0.8-1.7,1.7s0.8,1.7,1.7,1.7s1.7-0.8,1.7-1.7S747.1,479.9,746.1,479.9z"/>
	<path class="st0" d="M750.3,475.7c0,1,0.8,1.7,1.7,1.7c0.3,0,0.6-0.1,0.8-0.2c0-1,0-2,0-3c-0.2-0.1-0.5-0.2-0.8-0.2
		C751,474,750.3,474.8,750.3,475.7z"/>
	<path class="st0" d="M740.2,474c-1,0-1.7,0.8-1.7,1.7c0,1,0.8,1.7,1.7,1.7s1.7-0.8,1.7-1.7C741.9,474.8,741.2,474,740.2,474z"/>
	<path class="st0" d="M750.3,487.5c0,1,0.8,1.7,1.7,1.7c0.1,0,0.3,0,0.4-0.1c0.1-1.1,0.1-2.2,0.2-3.3c-0.2-0.1-0.4-0.1-0.6-0.1
		C751,485.8,750.3,486.6,750.3,487.5z"/>
	<path class="st0" d="M740.2,485.8c-1,0-1.7,0.8-1.7,1.7s0.8,1.7,1.7,1.7s1.7-0.8,1.7-1.7S741.2,485.8,740.2,485.8z"/>
	<path class="st0" d="M734.3,479.9c-1,0-1.7,0.8-1.7,1.7s0.8,1.7,1.7,1.7c1,0,1.7-0.8,1.7-1.7S735.3,479.9,734.3,479.9z"/>
	<path class="st0" d="M730.1,475.7c0-0.6-0.3-1.1-0.7-1.4c0,0.9,0,1.9,0,2.8C729.8,476.8,730.1,476.3,730.1,475.7z"/>
	<path class="st0" d="M730.1,487.5c0-0.7-0.4-1.3-1-1.5c0,1.1-0.1,2.1-0.1,3.2C729.7,488.9,730.1,488.3,730.1,487.5z"/>
	<path class="st0" d="M746.1,468.1c-1,0-1.7,0.8-1.7,1.7s0.8,1.7,1.7,1.7s1.7-0.8,1.7-1.7S747.1,468.1,746.1,468.1z"/>
	<path class="st0" d="M734.3,468.1c-1,0-1.7,0.8-1.7,1.7s0.8,1.7,1.7,1.7c1,0,1.7-0.8,1.7-1.7S735.3,468.1,734.3,468.1z"/>
	<path class="st0" d="M746.1,456.3c-1,0-1.7,0.8-1.7,1.7c0,1,0.8,1.7,1.7,1.7s1.7-0.8,1.7-1.7C747.8,457.1,747.1,456.3,746.1,456.3z
		"/>
	<path class="st0" d="M750.3,452.1c0,0.9,0.7,1.6,1.5,1.7c-0.1-1.1-0.2-2.3-0.3-3.4C750.8,450.7,750.3,451.3,750.3,452.1z"/>
	<path class="st0" d="M740.2,450.4c-1,0-1.7,0.8-1.7,1.7s0.8,1.7,1.7,1.7s1.7-0.8,1.7-1.7S741.2,450.4,740.2,450.4z"/>
	<path class="st0" d="M750.3,463.9c0,1,0.8,1.7,1.7,1.7c0.2,0,0.4,0,0.6-0.1c-0.1-1.1-0.1-2.2-0.2-3.3c-0.1,0-0.3-0.1-0.4-0.1
		C751,462.2,750.3,463,750.3,463.9z"/>
	<path class="st0" d="M740.2,462.2c-1,0-1.7,0.8-1.7,1.7s0.8,1.7,1.7,1.7s1.7-0.8,1.7-1.7S741.2,462.2,740.2,462.2z"/>
	<path class="st0" d="M734.3,456.3c-1,0-1.7,0.8-1.7,1.7c0,1,0.8,1.7,1.7,1.7c1,0,1.7-0.8,1.7-1.7
		C736,457.1,735.3,456.3,734.3,456.3z"/>
	<path class="st0" d="M730.1,452.1c0-0.8-0.5-1.4-1.2-1.7c0.1,1.1,0.1,2.2,0.2,3.2C729.7,453.4,730.1,452.8,730.1,452.1z"/>
	<path class="st0" d="M730.1,463.9c0-0.6-0.3-1.1-0.8-1.4c0,0.9,0,1.9,0.1,2.8C729.8,465,730.1,464.5,730.1,463.9z"/>
	<path class="st0" d="M746.1,444.5c-1,0-1.7,0.8-1.7,1.7c0,1,0.8,1.7,1.7,1.7s1.7-0.8,1.7-1.7C747.8,445.2,747.1,444.5,746.1,444.5z
		"/>
	<path class="st0" d="M734.3,444.5c-1,0-1.7,0.8-1.7,1.7c0,1,0.8,1.7,1.7,1.7c1,0,1.7-0.8,1.7-1.7
		C736,445.2,735.3,444.5,734.3,444.5z"/>
	<path class="st0" d="M746.1,432.6c-1,0-1.7,0.8-1.7,1.7s0.8,1.7,1.7,1.7s1.7-0.8,1.7-1.7S747.1,432.6,746.1,432.6z"/>
	<path class="st0" d="M740.2,426.7c-1,0-1.7,0.8-1.7,1.7c0,1,0.8,1.7,1.7,1.7s1.7-0.8,1.7-1.7C741.9,427.5,741.2,426.7,740.2,426.7z
		"/>
	<path class="st0" d="M750.3,440.3c0,0.2,0,0.4,0.1,0.6c0-0.3-0.1-0.5-0.1-0.8C750.3,440.2,750.3,440.2,750.3,440.3z"/>
	<path class="st0" d="M740.2,438.6c-1,0-1.7,0.8-1.7,1.7c0,1,0.8,1.7,1.7,1.7s1.7-0.8,1.7-1.7C741.9,439.3,741.2,438.6,740.2,438.6z
		"/>
	<path class="st0" d="M734.3,432.6c-1,0-1.7,0.8-1.7,1.7s0.8,1.7,1.7,1.7c1,0,1.7-0.8,1.7-1.7S735.3,432.6,734.3,432.6z"/>
	<path class="st0" d="M728.4,430.2c1,0,1.7-0.8,1.7-1.7c0-1-0.8-1.7-1.7-1.7c-0.8,0-1.4,0.5-1.6,1.2c0.1,0.5,0.1,1,0.2,1.6
		C727.3,429.9,727.8,430.2,728.4,430.2z"/>
	<path class="st0" d="M730.1,440.3c0-1-0.8-1.7-1.7-1.7c-0.1,0-0.3,0-0.4,0c0.1,1.1,0.2,2.3,0.3,3.4c0,0,0,0,0.1,0
		C729.3,442,730.1,441.3,730.1,440.3z"/>
	<path class="st0" d="M746.1,420.8c-1,0-1.7,0.8-1.7,1.7s0.8,1.7,1.7,1.7c0.7,0,1.3-0.4,1.6-1.1c-0.1-0.6-0.2-1.3-0.3-1.9
		C747,421,746.6,420.8,746.1,420.8z"/>
	<path class="st0" d="M734.3,420.8c-1,0-1.7,0.8-1.7,1.7s0.8,1.7,1.7,1.7c1,0,1.7-0.8,1.7-1.7S735.3,420.8,734.3,420.8z"/>
	<path class="st0" d="M744.4,410.8c0,0.8,0.5,1.5,1.3,1.7c-0.2-1.1-0.4-2.1-0.6-3C744.6,409.7,744.4,410.2,744.4,410.8z"/>
	<path class="st0" d="M740.2,403.1c-1,0-1.7,0.8-1.7,1.7c0,1,0.8,1.7,1.7,1.7s1.7-0.8,1.7-1.7C741.9,403.9,741.2,403.1,740.2,403.1z
		"/>
	<path class="st0" d="M740.2,414.9c-1,0-1.7,0.8-1.7,1.7s0.8,1.7,1.7,1.7s1.7-0.8,1.7-1.7S741.2,414.9,740.2,414.9z"/>
	<path class="st0" d="M734.3,409c-1,0-1.7,0.8-1.7,1.7c0,1,0.8,1.7,1.7,1.7c1,0,1.7-0.8,1.7-1.7C736,409.8,735.3,409,734.3,409z"/>
	<path class="st0" d="M723.2,409.2c0.2,0.9,0.4,1.7,0.6,2.6c0.2-0.3,0.4-0.7,0.4-1.1C724.2,410.1,723.8,409.5,723.2,409.2z"/>
	<path class="st0" d="M728.4,403.1c-1,0-1.7,0.8-1.7,1.7c0,1,0.8,1.7,1.7,1.7s1.7-0.8,1.7-1.7C730.1,403.9,729.3,403.1,728.4,403.1z
		"/>
	<circle class="st0" cx="728.4" cy="416.7" r="1.7"/>
</g>
<path class="st8" d="M728.2,503.7c-0.1,0-0.2,0-0.2,0c-1.3-0.1-2.3-1.3-2.2-2.7c4.5-46.2-6.6-95.9-9-105.8
	c-12.6-0.4-20.4-2.6-29.2-7.9c-1.1-0.7-1.5-2.2-0.8-3.3c0.7-1.1,2.2-1.5,3.3-0.8c8.4,5.2,15.7,7,28.6,7.3c1.1,0,2,0.8,2.3,1.8
	c0.1,0.6,14.6,57,9.5,109.2C730.5,502.7,729.4,503.7,728.2,503.7z"/>
<path class="st8" d="M750,502.2c-0.1,0-0.2,0-0.3,0c-1.3-0.2-2.3-1.4-2.1-2.7c6.6-58-9.4-109.1-9.6-109.6c-0.3-1,0-2.1,0.9-2.7
	c7.3-5.5,10.6-12.9,9.7-22c-0.6-7.1-3.6-12.6-3.6-12.6c-0.6-1.2-0.2-2.6,1-3.3c1.2-0.6,2.6-0.2,3.3,1c0.1,0.2,12.8,24.1-6.1,39.8
	c2.7,9.3,15.3,56.7,9.3,110C752.3,501.3,751.2,502.2,750,502.2z"/>
<path class="st8" d="M674.6,516.2c-0.8,0-1.5-0.3-1.9-0.9c-7.2-9.4-14.6-51-20.1-86.3c-0.2-1.3,0.7-2.6,2-2.8c1.3-0.2,2.6,0.7,2.8,2
	c2.8,17.8,11.2,71,18.5,83l86.7-3.7c1.3-0.1,2.5,1,2.5,2.3c0.1,1.3-1,2.5-2.3,2.5l-88,3.7C674.7,516.2,674.7,516.2,674.6,516.2z"/>
<path class="st8" d="M727.6,403.5c-2.4,0-5.1-0.3-7.8-1.3c-1.3-0.5-1.9-1.9-1.5-3.1c0.5-1.3,1.9-1.9,3.1-1.5c6.1,2.2,13.1,0,13.1,0
	c1.3-0.4,2.6,0.3,3.1,1.6c0.4,1.3-0.3,2.6-1.5,3.1C735.9,402.3,732.2,403.5,727.6,403.5z"/>
<g>
	<polygon class="st15" points="1042.1,388.3 1048.5,391.4 1043.4,406.7 999,412.5 992.5,408.9 996.1,393.6 1033.7,389.1 	"/>
	<path class="st8" d="M999,414.9c-0.4,0-0.8-0.1-1.2-0.3l-6.5-3.6c-1-0.5-1.4-1.6-1.2-2.7l3.6-15.3c0.2-1,1.1-1.7,2.1-1.8l37.6-4.5
		c1.3-0.2,2.5,0.8,2.7,2.1c0.2,1.3-0.8,2.5-2.1,2.7l-36,4.3l-2.8,11.8l4.2,2.4l42.1-5.5l3.9-11.7l-3.9-1.5c-1.2-0.5-1.9-1.9-1.4-3.1
		c0.5-1.2,1.9-1.9,3.1-1.4l6,2.4c1.2,0.5,1.8,1.8,1.4,3l-5.1,15.3c-0.3,0.9-1.1,1.5-2,1.6l-44.4,5.8
		C999.2,414.9,999.1,414.9,999,414.9z"/>
</g>
<g>
	<polygon class="st15" points="1009,424 1015,411.8 1026.7,409.6 1019.9,422.5 	"/>
	<path class="st8" d="M1009,426.4c-0.8,0-1.5-0.4-2-1c-0.5-0.7-0.6-1.7-0.2-2.5l6.1-12.2c0.3-0.7,1-1.2,1.7-1.3l11.6-2.2
		c0.9-0.2,1.8,0.2,2.4,0.9c0.6,0.7,0.6,1.7,0.2,2.6l-6.8,12.9c-0.4,0.7-1,1.2-1.8,1.3l-10.9,1.5
		C1009.2,426.4,1009.1,426.4,1009,426.4z M1016.6,413.9l-3.5,7l5.1-0.7l3.9-7.4L1016.6,413.9z"/>
</g>
<path class="st8" d="M999,414.9c-0.2,0-0.4,0-0.6-0.1c-1.3-0.3-2.1-1.7-1.7-3l3.3-12.4c0.3-1.3,1.7-2.1,3-1.7c1.3,0.3,2.1,1.7,1.7,3
	l-3.3,12.4C1001.1,414.2,1000.1,414.9,999,414.9z"/>
<path class="st8" d="M831.4,476c-0.2,0-0.4,0-0.6-0.1c-1.3-0.3-2.1-1.6-1.8-2.9l18.9-74.6c0.3-1.3,1.7-2.1,2.9-1.8
	c1.3,0.3,2.1,1.6,1.8,2.9l-18.9,74.6C833.4,475.3,832.5,476,831.4,476z"/>
<path class="st8" d="M876.8,498.6c-0.2,0-0.4,0-0.6-0.1c-1.3-0.3-2.1-1.6-1.8-2.9l20.2-80.2c0.3-1.3,1.6-2.1,2.9-1.8
	c1.3,0.3,2.1,1.6,1.8,2.9l-20.2,80.2C878.9,497.8,877.9,498.6,876.8,498.6z"/>
<g>
	<path class="st5" d="M858.1,403.8l4.7-20c-16.6-26.4-7.1-53.4-7.1-53.4c1-4.4-2.4-22.8-2.9-26.2c-0.6-4.4,7.4-3.5,10.2,0
		c3,3.7,5.3,16.4,5.3,16.4l3.1-3.7c1.8-22.1,3.1-37.4,5-44.3c0.9-3.4,3.7-7.9,6.3-9.1c6.8-3.2,4.8,8.8,4.8,8.8
		c-1.8,8.6-0.7,47.7-0.7,47.7c6.1,3.1,8,12.9,8,12.9c3.7,3.1,5.5,9.8,5.5,9.8c8,6.8-8,44.2-8,44.2l-3,17.7l-1.2,6.9
		c0,0-1.9,0.5-6.1,0C877.2,410.8,869.4,409,858.1,403.8z"/>
	<path class="st8" d="M889.3,407c-0.1,0-0.3,0-0.4,0c-1.3-0.2-2.2-1.5-2-2.8l3-17.7c0-0.2,0.1-0.4,0.2-0.5
		c7.3-17.2,12.7-38,8.7-41.4c-0.4-0.3-0.6-0.7-0.8-1.2c-0.5-1.7-2.2-6.5-4.7-8.6c-0.4-0.4-0.7-0.9-0.8-1.4
		c-0.5-2.4-2.6-9.1-6.7-11.2c-0.8-0.4-1.3-1.2-1.3-2.1c0-1.6-1.1-39.3,0.7-48.2c0.5-2.9,0.2-5.8-0.3-6.5c-0.1,0-0.4,0-1,0.3
		c-1.7,0.8-4.2,4.6-5,7.5c-1.6,6-2.8,20-4.4,37.6l-0.5,6.3c0,0.5-0.2,1-0.6,1.3l-3.1,3.7c-0.6,0.7-1.6,1-2.5,0.8
		c-0.9-0.2-1.6-1-1.8-1.9c-0.8-4.7-2.9-12.9-4.8-15.3c-1.5-1.8-5-2.4-5.9-2c0,0,0,0,0,0.1c0.3,1.9,3,25.6,1.8,30.7
		c-0.3,1.3-1.6,2.1-2.9,1.8c-1.3-0.3-2.1-1.6-1.8-2.9c0.9-3.6-1.2-24.5-1.9-28.9c-0.3-2.3,0.7-4.3,2.8-5.2c3.4-1.5,9.1,0.1,11.6,3.3
		c1.8,2.2,3.3,6.9,4.3,10.9l0.3-3.2c1.5-17.9,2.8-32,4.5-38.4c1.1-3.9,4.3-9.1,7.6-10.6c2.9-1.4,4.9-0.7,6,0.2
		c3.4,2.6,2.6,9.2,2.2,11.2c0,0,0,0.1,0,0.1c-1.4,6.4-1.1,32-0.7,45.8c5.1,3.5,7.2,10.6,7.8,13c3.2,3.1,4.9,8,5.5,9.8
		c3.6,3.9,3.4,12.4-0.8,26.6c-2.8,9.4-6.3,17.9-7,19.6l-3,17.4C891.5,406.1,890.4,407,889.3,407z"/>
	<path class="st8" d="M882,413.8c-0.1,0-0.2,0-0.3,0c-0.8-0.1-1.7-0.1-2.8-0.1c-5.1-0.1-12.9-0.4-22.3-8c-0.7-0.6-1-1.5-0.8-2.4
		l4.5-19c-9.7-16.1-9-32.6-8.6-41.5c0.1-1.3,1.2-2.4,2.5-2.3c1.3,0.1,2.4,1.2,2.3,2.5c-0.5,11.9-0.3,25.7,8.4,39.6
		c0.3,0.5,0.5,1.2,0.3,1.8l-4.3,18.5c7.6,5.7,13.7,5.9,18.2,6c1.2,0,2.2,0.1,3.2,0.2c1.3,0.2,2.3,1.4,2.1,2.7
		C884.2,412.9,883.2,413.8,882,413.8z"/>
	<path class="st8" d="M868.3,322.9c-0.7,0-1.5-0.3-1.9-1c-0.8-1.1-0.6-2.6,0.5-3.4c2.9-2.2,10.8-1.5,14-1.1c1.3,0.2,2.3,1.4,2.1,2.7
		c-0.2,1.3-1.4,2.3-2.7,2.1c-4.6-0.6-9.5-0.5-10.5,0.2C869.3,322.8,868.8,322.9,868.3,322.9z"/>
	<path class="st8" d="M875.4,370.8c-1.2,0-2.3-0.3-3.3-0.8c-2-1.1-2.9-3.1-3.2-4.5c-4.5-2.6-5.4-7.7-5.2-11c-2.3-3.2-3.4-9-3.6-10.2
		c-1.3-7.2,5.2-22.9,6-24.7c0.5-1.2,1.9-1.8,3.2-1.3c1.2,0.5,1.8,2,1.3,3.2c-1.9,4.4-6.6,17-5.7,22c0.5,2.8,1.7,7.2,3,8.5
		c0.5,0.6,0.8,1.3,0.7,2.1c0,0.2-0.8,5.8,3.4,7.5c0.9,0.4,1.5,1.2,1.5,2.2c0,0.4,0.3,1.6,1,2c0.3,0.2,1.7,0.6,5.1-1.2
		c0.7-0.5,3.5-3,4.6-5.7c0.3-0.8,1.1-1.4,2-1.5l5.8-0.6c1.3-0.1,2.5,0.8,2.7,2.2c0.1,1.3-0.8,2.5-2.2,2.7l-4.5,0.5
		c-2,3.6-5.5,6.3-5.6,6.4c-0.1,0.1-0.2,0.1-0.3,0.2C879.6,370.1,877.3,370.8,875.4,370.8z"/>
	<path class="st8" d="M871.1,366.2c-0.4,0-0.8-0.1-1.1-0.3c-1.2-0.6-1.6-2.1-1-3.3l8.3-15.7c0.1-0.2,0.3-0.4,0.4-0.6
		c6.8-6.8,16.7-5.4,17.1-5.3c1.3,0.2,2.2,1.4,2,2.8c-0.2,1.3-1.4,2.2-2.8,2c-0.1,0-7.7-1-12.7,3.7l-8.1,15.3
		C872.8,365.8,871.9,366.2,871.1,366.2z"/>
	<path class="st8" d="M866.2,356.1c-0.2,0-0.5,0-0.7-0.1c-1.3-0.4-2-1.8-1.6-3l6.1-19.7c0.1-0.3,0.2-0.5,0.4-0.8
		c4.1-5.2,15.5-3.2,17.8-2.7c1.3,0.3,2.2,1.6,1.9,2.9c-0.3,1.3-1.6,2.2-2.9,1.9c-4.1-0.8-10.7-1.1-12.7,0.7l-6,19.1
		C868.2,355.4,867.2,356.1,866.2,356.1z"/>
</g>
<g>
	<path class="st8" d="M412.7,330.8l-8.4,3.5c-3.5,1.5-7.6-0.3-9.1-3.8l0,0c-1.5-3.5,0.3-7.6,3.8-9.1l8.4-3.5
		c3.5-1.5,7.6,0.3,9.1,3.8l0,0C417.9,325.3,416.2,329.4,412.7,330.8z"/>
	<path class="st8" d="M410.3,324.3c-1.2,0-2.3-0.9-2.4-2.2c-0.2-1.3,0.8-2.5,2.1-2.7c4.8-0.6,7.9-2.4,9.4-5.6
		c5.2-11.5-10-38-16.3-47.2c-0.8-1.1-0.5-2.6,0.6-3.4c1.1-0.8,2.6-0.5,3.4,0.6c1,1.4,24.2,35.6,16.7,51.9c-2.2,4.8-6.7,7.7-13.2,8.4
		C410.5,324.3,410.4,324.3,410.3,324.3z"/>
	<g>
		<path class="st14" d="M450.1,286.1c0,0,0.1-0.1,0.1-0.1c1-1.4,2.9-1.7,4.3-0.7l5.7,4.1c1.4,1,1.7,2.9,0.7,4.3
			c-1,1.4-2.9,1.7-4.3,0.7l-5.7-4.1C449.6,289.2,449.2,287.4,450.1,286.1z"/>
		<path class="st14" d="M452.4,272.2c0.7-1,1.9-1.6,3.1-1.3l5.8,1.1c1.7,0.3,2.7,1.9,2.4,3.6c-0.3,1.7-1.9,2.7-3.6,2.4l-5.8-1.1
			c-1.7-0.3-2.7-1.9-2.4-3.6C452,272.9,452.2,272.5,452.4,272.2z"/>
		<path class="st14" d="M446.1,239.5c0.9-1.4,2.8-1.8,4.2-0.9c1.4,0.9,1.9,2.8,1,4.2l-3.8,6c-0.9,1.4-2.8,1.9-4.2,1
			c-1.4-0.9-1.9-2.8-1-4.2L446.1,239.5C446.1,239.6,446.1,239.5,446.1,239.5z"/>
		<path class="st14" d="M449.6,257.5c0.2-0.3,0.5-0.7,0.9-0.9l5-3.2c1.4-0.9,3.3-0.5,4.2,0.9c0.9,1.4,0.5,3.3-0.9,4.2l-5,3.2
			c-1.4,0.9-3.3,0.5-4.2-0.9C448.9,259.8,448.9,258.5,449.6,257.5z"/>
	</g>
	<path class="st7" d="M250.8,512.1c-1.6-10.5-3.5-21-5.9-31.4c-0.4-1.9-1.2-3.6-3.2-4.3c-0.6-0.2-1.2-0.2-1.7-0.5
		c-0.4-0.2-1-0.9-1.6-1.4c-2.8-2.4-6.7-3.8-10.3-3.9c-1.5-0.1-3.1,0.2-4.4,1c-20.6,2.4-41,6.4-60.9,12.1c-8.7,2.5-18,4.8-25.3,10.4
		c-7.4,5.7-10.7,14.3-12,23.3c-2.4,17,0.6,34.1,5.1,50.5c4.6,16.6,12.7,37,17.2,55.5l106.6-21.1v-1.9
		C254.5,579.1,253.9,533.1,250.8,512.1z"/>
	<path class="st5" d="M208.2,605.6c0,0-14.6-149.8-14.6-191.8c0,0-1.7-39.7,14-52.9l57.8-33.1l25.8-21.2l56.2,54.2l10.5-15.7
		l16.8,16.9c0,0,16.2-1.1,28,16.2c0,0,6.5,12.9,9.7,33.4c0,0,30.7,110.8,35.6,115.2l98.2,5.4l-6.5,43.1L411.4,584l-202.8,31.3
		L208.2,605.6z"/>
	<path class="st5" d="M208.2,605.6c0,0-14.6-149.8-14.6-191.8c0,0-1.7-39.7,14-52.9l57.8-33.1l25.8-21.2l56.2,54.2l10.5-15.7
		l16.8,16.9c0,0,16.2-1.1,28,16.2c0,0,6.5,12.9,9.7,33.4c0,0,30.7,112.5,35.6,115.2l98.2,5.4l-6.5,43.1L411.4,584l-202.8,31.3
		L208.2,605.6z"/>
	<path class="st14" d="M208.2,605.6c0,0-14.6-149.8-14.6-191.8c0,0-1.7-39.7,14-52.9l57.8-33.1l25.8-21.2l56.2,54.2l10.5-15.7
		l16.8,16.9c0,0,16.2-1.1,28,16.2c0,0,6.5,12.9,9.7,33.4c0,0,32.3,114.9,35.6,115.2l98.2,5.4l-6.5,43.1L411.4,584l-202.8,31.3
		L208.2,605.6z"/>
	<polygon class="st12" points="377,614.5 494.1,621.6 628.6,588 617.1,568.8 527.7,568.8 371.3,602.1 371.3,614.5 	"/>
	<path class="st8" d="M396.1,604.8c0.5-0.5,1.2-0.7,1.9-0.7l82.1,3.7c0.7,0,1.4,0.3,1.9,0.9c0.5,0.5,0.7,1.2,0.7,1.9
		c-0.1,1.4-1.3,2.6-2.7,2.6l-82.2-3.7c-1.5-0.1-2.6-1.3-2.6-2.8C395.3,606,395.6,605.3,396.1,604.8z"/>
	<path class="st5" d="M513.2,568.5c-1.2-3.3-2.8-6.3-4.8-9.1l-2.8-3.9c-2.8-3.9-6.8-6.9-11.4-8.1c-4.9-1.4-9.1-1-9.1-1l-33.5,3
		c-15.4,3-56.8,3.7-65.9,3.8c-0.5-1.9-0.9-3.1-0.9-3.1l-98.3,4.4c-9.6-12.5-22.1-98.3-22.1-98.3c-4.8-40.7-28.5-50.5-28.5-50.5
		l-11,162.2l18.3,27.5c7.7,17.3,35.5,10.6,35.5,10.6l109.5-14.3c1.1-2.4,1.6-5.4,1.8-8.6l6.8-1.2c12.5,12,53.3,2.9,53.3,2.9l7.7-1.4
		l8.6,6.7c14.4,11,13.9-1,13.9-1c4.8,4.4,7,6,10.5,5.9c6.4-0.2,5.4-6.9,5.4-6.9c3.6,4.4,7.6,3.9,9.4,3.4c3.8-1.2,2.6-8.2,2.6-8.2
		c2.9,2.8,6.3,1.3,6.3,1.3C517.8,583.4,515.3,574.4,513.2,568.5z"/>
	<path class="st14" d="M513.2,568.5c-1.2-3.3-2.8-6.3-4.8-9.1l-2.8-3.9c-2.8-3.9-6.8-6.9-11.4-8.1c-4.9-1.4-9.1-1-9.1-1l-33.5,3
		c-15.4,3-56.8,3.7-65.9,3.8c-0.5-1.9-0.9-3.1-0.9-3.1l-98.3,4.4c-9.6-12.5-22.1-98.3-22.1-98.3c-4.8-40.7-28.5-50.5-28.5-50.5
		l-11,162.2l18.3,27.5c7.7,17.3,35.5,10.6,35.5,10.6l109.5-14.3c1.1-2.4,1.6-5.4,1.8-8.6l6.8-1.2c12.5,12,53.3,2.9,53.3,2.9l7.7-1.4
		l8.6,6.7c14.4,11,13.9-1,13.9-1c4.8,4.4,7,6,10.5,5.9c6.4-0.2,5.4-6.9,5.4-6.9c3.6,4.4,7.6,3.9,9.4,3.4c3.8-1.2,2.6-8.2,2.6-8.2
		c2.9,2.8,6.3,1.3,6.3,1.3C517.8,583.4,515.3,574.4,513.2,568.5z"/>
	<path class="st5" d="M380,553.1c9.1-0.1,56.1-0.9,71.5-3.9l33.5-3c0,0,4.2-0.3,9.1,1c4.6,1.3,8.7,4.2,11.4,8.1l2.8,3.9
		c2,2.8,3.6,5.9,4.8,9.1c2.1,6,4.7,14.9,1.3,16.2c0,0-3.4,1.5-6.3-1.3c0,0,1.2,6.9-2.6,8.2c-1.8,0.6-5.8,1.1-9.4-3.4
		c0,0,1.1,6.8-5.4,6.9c-3.4,0.1-5.7-1.6-10.5-5.9c0,0,0.5,12-13.9,1l-8.6-6.7l-7.7,1.4c0,0-40.8,9.1-53.3-2.9L390,583l-13.8,2.3
		C376.2,585.3,373.1,563.9,380,553.1z"/>
	<g>
		<path class="st8" d="M375.2,562.3c0.3-1.5,1.8-2.4,3.2-2.1c1.5,0.3,2.4,1.8,2.1,3.2c-1.4,6.3-0.5,14,0.3,18.2l14.2-2.4
			c0.8-0.1,1.7,0.1,2.3,0.7c9.4,9,39.9,4.6,50.8,2.2l7.8-1.5c0.8-0.1,1.5,0,2.2,0.5l8.6,6.7c6.4,4.9,8.4,4.1,8.6,4
			c0.5-0.3,0.8-1.2,0.9-2l-8.2-11.8c-0.3-0.4-0.6-0.8-0.9-1.1c-2.8-3.2-4.3-3.8-4.6-3.9h-17.2c-1.5,0-2.7-1.2-2.7-2.7
			c0-1.5,1.2-2.7,2.7-2.7h17.2c0,0,0.1,0,0.1,0c1.1,0,4,0.6,8.5,5.7c0.4,0.5,0.9,1,1.2,1.6l8.6,12.3c4.3,3.8,6,5,8.2,5
			c0.1,0,0.1,0,0.2,0c1.5,0,2-0.6,2.1-0.8c0.6-0.7,0.7-2,0.7-2.7l-5.8-11.5c-1.7-3.3-3.9-6.4-6.5-9.1l-1.7-1.7
			c-2.3-2.3-5.2-3.9-8.4-4.6c-5.6-1.1-12.5-1.5-12.6-1.5c-0.7,0-1.4-0.3-1.9-0.9c-0.5-0.5-0.7-1.2-0.7-1.9c0.1-1.4,1.3-2.6,2.7-2.6
			c0,0,0.1,0,0.1,0c0.3,0,7.4,0.4,13.4,1.6c4.3,0.9,8.1,3,11.2,6.1l1.7,1.7c3,3.1,5.5,6.6,7.4,10.4l5.9,11.6c2.5,3,5,2.8,6.3,2.3
			c0.9-0.3,1.1-3,0.8-4.8l-4.8-10.6c-1.1-2.4-2.4-4.8-3.9-7l-3.4-4.9c-1.8-2.7-4.6-4.6-7.7-5.4c-4.5-1.1-9.1-1-9.2-1
			c0,0-0.1,0-0.1,0c-1.4,0-2.6-1.1-2.7-2.6c-0.1-1.5,1.1-2.7,2.6-2.8c0.2,0,5.4-0.2,10.7,1.2c4.4,1.1,8.2,3.8,10.8,7.6l3.4,4.9
			c1.7,2.5,3.2,5.1,4.4,7.8l4.7,10.4c1.2,0.9,2.4,0.7,2.9,0.6c0.3-0.9,0.3-4.5-2.7-12.8c-1.1-3-2.6-5.9-4.4-8.5L502,557
			c-2.5-3.5-6-6-10-7.1c-4.4-1.2-8.1-0.9-8.2-0.9l-21.1,1.3c-0.1,0-0.1,0-0.2,0c-1.4,0-2.6-1.1-2.7-2.5c-0.1-1.5,1.1-2.8,2.5-2.9
			l21.1-1.2c0,0,4.6-0.4,10,1.1c5.1,1.4,9.7,4.7,12.9,9.2l2.8,3.9c2.2,3,3.9,6.3,5.1,9.8c4.2,11.7,4.1,17.9-0.2,19.6
			c-0.5,0.2-2.3,0.9-4.5,0.5c-0.6,4.5-3.1,5.9-4.5,6.4c-1.3,0.4-4.7,1.2-8.3-0.8c-0.3,0.6-0.7,1.2-1.1,1.8c-1,1.2-2.9,2.6-6.1,2.7
			c-0.1,0-0.2,0-0.3,0c-3.4,0-5.9-1.4-8.7-3.7c-0.6,1.2-1.5,2.1-2.7,2.7c-3.4,1.8-8.2,0.3-14.4-4.5l-7.7-6l-6.4,1.2
			c-1.6,0.4-40.4,8.8-54.7-2.6l-15.5,2.7c-1.4,0.2-2.8-0.7-3.1-2.1C375.6,584,373,572,375.2,562.3z"/>
		<path class="st8" d="M450.6,551.9c-17.4,3.4-66.1,3.9-68.2,3.9h0c-1.5,0-2.7-1.2-2.7-2.7c0-1.5,1.2-2.7,2.7-2.7
			c2.1,0,50.6-0.6,67.2-3.8c1.5-0.3,2.9,0.7,3.2,2.1C453.1,550.2,452.1,551.6,450.6,551.9z"/>
	</g>
	<path class="st12" d="M541.5,482.4l-47.3,139.2l143.1-23.8L692,461.1c1.4-3.9-0.9-7.9-4.6-9c-0.9-0.3-1.9-0.3-2.8-0.2L556,469.1
		C550.6,469.1,543.4,477.3,541.5,482.4z"/>
	<path class="st8" d="M565.3,467.9c0.1,0.7,0.5,1.4,1,1.8c0.6,0.4,1.3,0.6,2,0.5l116.6-15.6c0.7-0.1,1.2-0.1,1.7,0.1
		c1.1,0.3,2,1.1,2.6,2.2c0.5,1,0.6,2.2,0.2,3.3L650.7,556c-0.3,0.7-0.3,1.4,0,2.1c0.3,0.7,0.8,1.2,1.5,1.5c0.3,0.1,0.7,0.2,1,0.2
		c1.1,0,2.1-0.7,2.5-1.7l38.7-95.9c0,0,0-0.1,0-0.1c0.9-2.5,0.7-5.2-0.5-7.6c-1.2-2.4-3.3-4.2-5.9-4.9c-1.2-0.4-2.5-0.5-4-0.3
		l-116.6,15.6c-0.7,0.1-1.4,0.5-1.8,1C565.4,466.5,565.2,467.2,565.3,467.9z M694.2,462L694.2,462L694.2,462L694.2,462L694.2,462z"
		/>
	<path class="st8" d="M505.8,617l129.5-21.6l11.9-30c0.3-0.7,0.8-1.2,1.4-1.5c0.7-0.3,1.4-0.3,2.1,0c0.7,0.3,1.2,0.8,1.5,1.4
		c0.3,0.7,0.3,1.4,0,2.1l-12.4,31.4c-0.3,0.9-1.1,1.5-2.1,1.7l-131,21.8c-0.1,0-0.3,0-0.4,0c-1.3,0-2.4-0.9-2.7-2.3
		C503.4,618.6,504.3,617.2,505.8,617z"/>
	<path class="st8" d="M494.8,611.2l44.1-129.6c0,0,0-0.1,0-0.1c2.2-6,10.2-15.1,17.1-15.1c0.7,0,1.4,0.3,1.9,0.8
		c0.5,0.5,0.8,1.2,0.8,1.9c0,1.5-1.2,2.7-2.7,2.7c-3.7,0-10.2,6.8-12,11.5l-44.1,129.6c-0.4,1.1-1.4,1.8-2.6,1.8
		c-0.3,0-0.6,0-0.9-0.1C495.1,614.1,494.3,612.6,494.8,611.2z"/>
	<path class="st8" d="M116.9,629.6c0.4-0.6,1-1,1.7-1.1l116.5-21.9c0.7-0.1,1.4,0,2,0.4c0.6,0.4,1,1,1.1,1.7c0.1,0.7,0,1.4-0.4,2
		c-0.4,0.6-1,1-1.7,1.1l-116.5,21.9c-0.2,0-0.3,0-0.5,0c-1.3,0-2.4-0.9-2.7-2.2C116.3,631,116.5,630.2,116.9,629.6z"/>
	<path class="st5" d="M616.2,530c0.1,6-4.7,12.5-10.6,14.3c-5.9,1.9-10.7-1.5-10.8-7.5c-0.1-6,4.7-12.5,10.6-14.3
		C611.3,520.6,616.2,523.9,616.2,530z"/>
	<path class="st8" d="M227.6,576.7c0.3-0.7,0.8-1.2,1.4-1.5c0.7-0.3,1.4-0.3,2.1-0.1c0.7,0.3,1.2,0.8,1.5,1.4l11.6,17.7
		c6.7,15,32.2,9.1,32.4,9c0.1,0,0.2,0,0.3-0.1l106.3-13.8c1.5-0.2,2.8,0.9,3,2.3c0.2,1.5-0.9,2.8-2.3,3l-106.1,13.7
		c-1,0.2-6.1,1.3-12.5,1.3c-1.1,0-2.1,0-3.1-0.1c-11.4-0.7-19.4-5.3-22.9-13.3l-11.6-17.7C227.4,578.1,227.3,577.4,227.6,576.7z"/>
	<path class="st5" d="M367.9,359.3c0,0,0.8,97.5-18.4,125.9l-73.4-152.6l10-15.8l57.6,48L367.9,359.3z"/>
	<path class="st12" d="M330.2,437.1l6.9-44.8l-5.1-12.6c-0.6-1-0.8,0.8,0,0l7.9-7.5c0.5-0.4,1.1-0.7,1.7-0.7h11.3c0.8,0,1.5,0.4,2,1
		l2.9,3.8c0.6,0.8,0.7,1.8,0.3,2.6l-6,12.5c3.7,12.3,4.4,55.8,4.5,57.9c0,0.3-1.1,9.8-1.2,10.2l-8,29.6c-0.3,0.9-1.2,1.6-2.2,1.6
		c-0.1,0,4.4-5.6,4.4-5.6c-0.9,0-4.3-6.2-4.7-7L330.2,437.1C330,436.6,330.1,437.6,330.2,437.1z"/>
	<path class="st8" d="M340.3,529.4c0,4.8,3.9,8.8,8.8,8.8c4.8,0,8.8-3.9,8.8-8.8c0-4.8-3.9-8.8-8.8-8.8
		C344.3,520.6,340.3,524.5,340.3,529.4z M345.4,529.4c0-2.1,1.7-3.7,3.7-3.7c2.1,0,3.7,1.7,3.7,3.7c0,2.1-1.7,3.7-3.7,3.7
		C347.1,533.1,345.4,531.4,345.4,529.4z"/>
	<path class="st14" d="M314.1,175.1c2.3-1.6,12-7.9,25.8-10.4c14.2-2.6,35.6-1.5,56.6,18.5c3.6,1.3,23.3,9.2,27,25.5
		c2.5,11.2-3.2,23.6-16.9,36.7c-0.2,0.2-0.4,0.3-0.6,0.4l-38.7,20.3c-0.1,0-0.1,0.1-0.2,0.1l-52.7,21.4l-10.8,6.5
		c-0.4,0.3-0.9,0.4-1.4,0.4c-0.7,0-1.5-0.4-1.9-1c-0.7-0.9-16.2-22.1-20.9-57.2C279.2,235.8,272.8,183,314.1,175.1z"/>
	<g>
		<path class="st5" d="M273.6,313.4c0,0,64.2,125,78.4,182.6c0,0-60.9-100.9-80.1-113.4l18.4-9.2l-25.9-5l-12.9-35.8L273.6,313.4z"
			/>
		<path class="st5" d="M360.4,344.7c0,0,7.5,47-8.3,128.8l-2.5,11.7L352,496c0,0,33.4-79.2,31.7-111.7l-13.3-5l11.7-4.2l-9.8-22.8
			L360.4,344.7z"/>
	</g>
	<g>
		<path class="st14" d="M273.6,313.4c0,0,64.2,125,78.4,182.6c0,0-60.9-100.9-80.1-113.4l18.4-9.2l-25.9-5l-12.9-35.8L273.6,313.4z"
			/>
		<path class="st14" d="M360.4,344.7c0,0,7.5,47-8.3,128.8l-2.5,11.7L352,496c0,0,33.4-79.2,31.7-111.7l-13.3-5l11.7-4.2l-9.8-22.8
			L360.4,344.7z"/>
	</g>
	<path class="st5" d="M289.7,302.2l3.8,3.5c2.3-8.9,5.4-22.8,5.1-28.8c0,0-14.5-19.1-5-29.7c0,0,12.5-12.9,19.5,3.1l1.7,3.1
		c1.1,2,3,3.3,5.3,3.6l0,0c1.3-0.1,2.4-1.1,2.4-2.4c0.2-3.9,1.7-11.5,9.8-14c0,0,20.4-9.5,23.9-22.7c0.9-3.5,3.7-6.2,7.2-7
		c1.2-0.3,2.4-0.5,3.7-0.8c14-3,16.9-5.8,28.5-1.4c16.9,6.4,13.1,16.4,14.7,18.3c0,0,1.3-2.9-0.3,10c0,0-5.1,29.9-2.5,39.6
		c0,0,0,4.3-1.6,10c-1.8,10.8-6.6,27-19.9,43c-5.5,6.6-14.5,8.8-22.6,5.9c-2.8-1-4.7-0.8-7.1-1.6c-0.3,1.8,0.6,0,0.4,2.9l0,0
		l5.8,14.4l1.3,11.7l-0.2,15.5l-14.2-15.2l0,0l0,0l-16.5,14l-7.2,2L275,317.6L289.7,302.2z"/>
	<path class="st8" d="M230.4,347.2l12.5-7.7c1.1-0.7,2.7-0.4,3.4,0.8c0.7,1.1,0.4,2.7-0.8,3.4l-12.7,7.8c-0.1,0.1-0.2,0.1-0.3,0.2
		c-0.3,0.1-33.4,14.2-33.3,35.3c0,1.3-1.1,2.5-2.4,2.5c0,0,0,0,0,0c-1.3,0-2.4-1.1-2.4-2.4C194.1,363.3,227.3,348.5,230.4,347.2z"/>
	<path class="st8" d="M221.2,372.5c0.6-0.5,1.3-0.7,2-0.7c0.3,0,28.2,2,34.2,38.3l0,0.2c1.5,9.6,15.1,94.5,27.8,123.4
		c0.3,0.7,0.3,1.4,0,2.1c-0.3,0.7-0.8,1.2-1.5,1.5c-0.4,0.2-0.7,0.2-1.1,0.2c-1.1,0-2.1-0.6-2.5-1.6
		c-12.2-27.7-24.6-102.1-28.1-124.2l-0.1-0.7c-5.3-31.8-28.1-33.6-29.1-33.7c-1.5-0.1-2.7-1.4-2.6-2.9
		C220.3,373.7,220.6,373,221.2,372.5z"/>
	<path class="st8" d="M192.2,397.9c0.5-0.5,1.2-0.8,1.9-0.9c0.7,0,1.4,0.2,1.9,0.7c0.5,0.5,0.9,1.2,0.9,2
		c0.1,4.4,3.1,107.6,10,154.7c0,0.1,0,0.1,0,0.2c0.1,1.7,3.4,41.2,3.9,50.9c0,0.7-0.2,1.4-0.7,2c-0.5,0.5-1.2,0.9-1.9,0.9l-0.1,0
		c-1.5,0-2.7-1.1-2.7-2.6c-0.4-9.1-3.5-46.4-3.8-50.6c-7.2-48.9-10.1-154.3-10.1-155.3C191.5,399.1,191.7,398.4,192.2,397.9z"/>
	<path class="st8" d="M203.1,490.8c0.4-1.4,2-2.3,3.4-1.8c1.3,0.4,2.1,1.7,1.9,3c0.1,4.1,10.4,46.2,19,75.1c0.2,0.7,0.1,1.4-0.2,2.1
		c-0.4,0.6-0.9,1.1-1.6,1.3c-0.3,0.1-0.5,0.1-0.8,0.1c-1.2,0-2.3-0.8-2.6-2C216.9,550.8,201.9,494.6,203.1,490.8z"/>
	<path class="st8" d="M263.6,543.4c0.5-0.5,1.2-0.7,1.9-0.7c0.9,0,87.1,2.1,114.8,0c0.1,0,0.1,0,0.2,0c1.4,0,2.6,1.1,2.8,2.5
		c0.1,1.5-1,2.8-2.5,3c-8.3,0.6-22.6,1-42.5,1c-33.8,0-72.5-0.9-72.9-1c-0.7,0-1.4-0.3-1.9-0.9c-0.5-0.5-0.8-1.2-0.8-2
		C262.7,544.7,263,543.9,263.6,543.4z"/>
	<g>
		<path class="st8" d="M302.1,427.4c1.3,0,2.4-1.1,2.4-2.4c0-1.3-1-2.5-2.4-2.5l-35.2-0.7c-1.4,0-2.5,1-2.5,2.4c0,1.3,1,2.5,2.4,2.5
			L302.1,427.4C302.1,427.4,302.1,427.4,302.1,427.4z"/>
		<path class="st8" d="M302,427.7l-35.2-0.7c-1.5,0-2.7-1.3-2.7-2.8c0-1.5,1.2-2.6,2.8-2.7l35.2,0.7c1.5,0,2.7,1.3,2.7,2.8
			C304.8,426.5,303.6,427.7,302,427.7C302.1,427.7,302,427.7,302,427.7z M264.7,424.1c0,1.2,0.9,2.2,2.1,2.2L302,427h0.1
			c1.2,0,2.1-0.9,2.1-2.1c0-1.2-0.9-2.2-2.1-2.2l-35.2-0.7C265.7,422.1,264.7,423,264.7,424.1z"/>
	</g>
	<path class="st8" d="M445.4,526.4c0.1-0.7,0.5-1.4,1.1-1.8c0.6-0.4,1.3-0.6,2-0.5c21.8,3.5,68.8,3.6,69.3,3.6
		c1.5,0,2.7,1.2,2.7,2.7s-1.2,2.7-2.7,2.7c-1.9,0-47.9,0-70.2-3.6C446.1,529.3,445.1,527.9,445.4,526.4z"/>
	<path class="st8" d="M381.6,361.9c0.6-1.4,2.3-2,3.6-1.4c8.5,3.9,15.8,11.8,21.1,22.8c4.1,8.6,5.6,16.2,5.6,16.5
		c12.9,54.3,33.5,116.9,33.7,117.4c0.5,1.4-0.2,3-1.7,3.5c-0.3,0.1-0.6,0.2-0.9,0.2c-1.2,0-2.2-0.7-2.6-1.8
		c-0.2-0.5-21.1-64-33.9-118.1c-0.1-0.3-5.4-27.1-23.6-35.4c-0.7-0.3-1.2-0.9-1.4-1.5C381.2,363.3,381.3,362.6,381.6,361.9z"/>
	<path class="st8" d="M393.6,524.3c4.9-40.9,0.7-128.6,0.7-129.5c-0.1-1.5,1.1-2.8,2.6-2.9c1.5,0,2.8,1.1,2.9,2.6
		c0,0.9,4.2,89.2-0.7,130.3c-0.1,1.1-0.7,11.1,0,20.5c0.1,0.7-0.2,1.4-0.7,2c-0.5,0.6-1.2,0.9-1.9,0.9c-0.1,0-0.1,0-0.2,0
		c-1.4,0-2.6-1.1-2.7-2.6C392.8,535.3,393.6,524.4,393.6,524.3z"/>
	<g>
		<path class="st8" d="M344,500.7c0.3,0,0.5,0,0.8-0.1c1.3-0.4,2-1.8,1.5-3.1c-6.5-19.5-44.5-82.5-46.1-85c-0.7-1.1-2.2-1.5-3.4-0.7
			c-1.1,0.7-1.5,2.2-0.7,3.4c0.4,0.6,39.3,65,45.6,83.9C342,500,343,500.7,344,500.7z"/>
		<path class="st8" d="M341.4,499.1c-6.2-18.7-45.2-83.3-45.5-83.8c-0.4-0.6-0.5-1.4-0.4-2.1c0.2-0.7,0.6-1.3,1.2-1.7
			c0.6-0.4,1.4-0.5,2.1-0.4c0.7,0.2,1.3,0.6,1.7,1.2c2.2,3.4,39.7,65.9,46.1,85.1c0.2,0.7,0.2,1.4-0.1,2.1c-0.3,0.7-0.9,1.1-1.6,1.4
			c-0.3,0.1-0.6,0.1-0.9,0.1C342.8,501,341.8,500.2,341.4,499.1z M297,412c-0.5,0.3-0.8,0.8-0.9,1.3c-0.1,0.6,0,1.1,0.3,1.6
			c0.4,0.6,39.2,64.8,45.6,84c0.3,0.9,1.1,1.5,2,1.5c0.2,0,0.5,0,0.7-0.1c0.5-0.2,1-0.6,1.2-1.1c0.3-0.5,0.3-1.1,0.1-1.6
			c-6.4-19.1-43.9-81.5-46.1-84.9c-0.3-0.5-0.8-0.8-1.3-0.9c-0.2,0-0.3,0-0.5,0C297.7,411.6,297.3,411.7,297,412z"/>
	</g>
	<g>
		<path class="st8" d="M249.8,330.5l22.1-19.2c0.6-0.5,1.5-0.8,2.3-0.6c0.8,0.2,1.5,0.7,1.9,1.5c0.6,1.1,49.4,100.9,72.3,165.4
			l1-4.6c4.7-24.4,8.2-53.1,9.5-78.7c0.1-1.5,1.3-2.6,2.8-2.6c0,0,0.1,0,0.1,0c1.5,0.1,2.7,1.4,2.6,2.9c-1.4,25.9-4.9,54.9-9.6,79.6
			l-2.5,11.7c-0.1,0.5-0.3,0.9-0.6,1.2c2.4,7.3,4.4,14,5.9,19.8c0.4,1.5-0.5,3-2,3.3c-0.2,0.1-0.4,0.1-0.7,0.1
			c-1.3,0-2.4-0.9-2.7-2.1c-12.6-51.2-68.3-168.2-79.3-190.2l-18,15.7l11.7,32.6l24.3,4.7c1.2,0.2,2,1.2,2.2,2.3
			c0.2,1.2-0.4,2.3-1.5,2.8l-14.5,7.2c4.8,4.3,11.2,11.7,19.5,22.5c0.4,0.6,0.6,1.3,0.5,2c-0.1,0.7-0.5,1.4-1.1,1.8
			c-0.6,0.4-1.3,0.6-2,0.5c-0.7-0.1-1.4-0.5-1.8-1.1c-12.5-16.3-18.7-22.1-21.8-24.1c-0.8-0.5-1.3-1.5-1.2-2.5
			c0.1-1,0.6-1.9,1.5-2.3l11.1-5.6l-17.9-3.5c-0.9-0.2-1.7-0.9-2.1-1.8L249,333.5C248.6,332.5,248.9,331.3,249.8,330.5z"/>
		<path class="st8" d="M355.4,487.1c-0.2-0.7-0.1-1.4,0.2-2.1c4.3-8,18.9-38.6,25.2-98.9l-11.4-4.3c-1.1-0.4-1.8-1.4-1.8-2.6
			c0-1.1,0.7-2.2,1.8-2.6l8.9-3.2l-8.3-19.3l-6.2-4c0.6,6.4,1.3,17,1,32c0,1.5-1.3,2.7-2.8,2.7h0c-1.5,0-2.7-1.3-2.7-2.8
			c0.5-23.8-1.6-36.4-1.7-36.9c-0.2-1.1,0.3-2.2,1.2-2.8c0.9-0.6,2.1-0.6,3,0l11.9,7.7c0.5,0.3,0.8,0.7,1,1.2l9.8,22.8
			c0.3,0.7,0.3,1.5,0,2.2c-0.3,0.7-0.9,1.2-1.6,1.5l-4.6,1.6l6.3,2.4c1.2,0.4,1.9,1.6,1.8,2.9c-0.6,6.7-6.3,66.6-26,103
			c-0.5,0.9-1.4,1.4-2.4,1.4c-0.5,0-0.9-0.1-1.3-0.3C356.1,488.4,355.6,487.8,355.4,487.1z"/>
	</g>
	<path class="st8" d="M362.4,256c-2.2-0.1-4,1.6-4.1,3.8c-0.1,2.2,1.6,4,3.8,4.1c2.2,0.1,4-1.6,4.1-3.8
		C366.3,257.9,364.6,256.1,362.4,256z"/>
	<path class="st8" d="M394.3,262.5c-0.1,2.2,1.6,4,3.8,4.1c2.2,0.1,4-1.6,4.1-3.8c0.1-2.2-1.6-4-3.8-4.1
		C396.2,258.6,394.4,260.3,394.3,262.5z"/>
	<g>
		<path class="st8" d="M326.5,184c6.1-2.8,21.3,9.9,27.6,15.4c1.2,1,1.3,2.8,0.2,4c-0.5,0.6-1.3,0.9-2.1,0.9c0,0-0.1,0-0.1,0
			c-0.7,0-1.3-0.3-1.8-0.7c-15.4-13.7-21.1-14.4-21.9-14.4c-1.3,0.4-2.7-0.3-3.3-1.5C324.4,186.3,325.1,184.7,326.5,184z"/>
		<path class="st8" d="M354.1,240.3c6.6-1.5,13.7,1,14.5,1.3c1.5,0.5,2.2,2.2,1.7,3.6c-0.4,1.1-1.5,1.8-2.7,1.8
			c-0.3,0-0.7-0.1-1-0.2c-0.1,0-6.2-2.2-11.3-1.1c-0.3,0.1-0.6,0.1-0.9,0.1c-1.2-0.1-2.2-1-2.5-2.2
			C351.6,242.1,352.6,240.6,354.1,240.3z"/>
	</g>
	<path class="st8" d="M324.2,298.6c0.7-0.3,1.5-0.3,2.2,0c0.7,0.3,1.2,0.9,1.5,1.6c6.9,17.5,26.1,29.1,29.8,30.2l0.2,0.1
		c7.6,2.4,16.2,5.2,23.8-2.5c23.9-24.3,21.9-54.9,21.9-55.2c-0.6-8.3,1.8-18.7,1.9-19.1c0.4-1.5,1.9-2.4,3.4-2.1
		c1.5,0.4,2.5,1.9,2.1,3.4c0,0.1-2.3,10.1-1.8,17.5c0.1,1.4,2.1,33.5-23.5,59.6c-4.5,4.6-9.6,6.8-15.7,6.8c-0.3,0-0.5,0-0.8,0
		c-4.7-0.2-9.2-1.6-13.1-2.8l-0.2-0.1c-4.9-1.6-25.5-13.9-33.3-33.6C322,300.8,322.7,299.2,324.2,298.6z"/>
	<g>
		<path class="st8" d="M410.5,243.9c1.3,0,2.4-0.9,2.6-2.2l1.2-10.8c0-0.1,0-0.2,0-0.4c-0.4-10-3.8-17.3-10.2-21.7
			c-13.2-9-34.1-1.9-35-1.6c-1.3,0.5-2,1.9-1.5,3.2c0.5,1.3,1.9,2,3.2,1.6c0.2-0.1,19.4-6.6,30.5,1c5,3.4,7.7,9.3,8,17.5l-1.2,10.6
			c-0.2,1.4,0.8,2.6,2.2,2.8C410.4,243.9,410.4,243.9,410.5,243.9z"/>
		<path class="st8" d="M410.3,244.2c-0.7-0.1-1.4-0.5-1.9-1c-0.5-0.6-0.7-1.3-0.6-2.1l1.2-10.6c-0.4-8.1-3-13.9-7.9-17.3
			c-11-7.5-30-1-30.2-1c-1.5,0.5-3.1-0.3-3.6-1.7c-0.5-1.5,0.3-3.1,1.7-3.6c0.9-0.3,21.9-7.5,35.3,1.6c6.5,4.4,10,11.8,10.4,21.9
			c0,0.1,0,0.3,0,0.4l-1.2,10.8c-0.2,1.4-1.4,2.5-2.8,2.5C410.5,244.2,410.4,244.2,410.3,244.2z M412.8,241.7l1.2-10.8
			c0-0.1,0-0.2,0-0.3c-0.4-9.9-3.8-17.1-10.1-21.4c-13.1-8.9-33.8-1.9-34.7-1.6c-1.2,0.4-1.8,1.7-1.4,2.8c0.4,1.2,1.7,1.8,2.8,1.4
			c0.2-0.1,19.5-6.6,30.8,1c5.1,3.5,7.8,9.4,8.2,17.8l-1.2,10.6c-0.1,0.6,0.1,1.2,0.5,1.6c0.4,0.5,0.9,0.8,1.5,0.8
			c0.1,0,0.1,0,0.2,0l0,0.3l0-0.3C411.7,243.7,412.7,242.8,412.8,241.7z"/>
	</g>
	<g>
		<path class="st8" d="M279.1,311.2l10.2-10.1c1.1-1,2.8-1.1,3.8,0l54.6,53l4.3-12.2c0.5-1.4,2.1-2.2,3.5-1.7
			c1.4,0.5,2.2,2.1,1.7,3.5l-5.7,16.3c-0.3,0.9-1,1.5-2,1.8c-0.2,0-0.4,0.1-0.6,0.1c-0.7,0-1.4-0.3-1.9-0.8l-55.7-54.1l-8.3,8.2
			c-0.5,0.5-1.2,0.8-1.9,0.8c0,0,0,0,0,0c-0.7,0-1.4-0.3-1.9-0.8C278,314,278.1,312.3,279.1,311.2z"/>
		<path class="st8" d="M294.4,340.7c0.6-0.4,1.3-0.6,2-0.5c0.7,0.1,1.4,0.5,1.8,1.1l29.6,38.8l18.9-15.6c0.6-0.5,1.3-0.7,2-0.6
			c0.7,0.1,1.4,0.5,1.9,1l8.9,11.4c0.5,0.6,0.7,1.3,0.6,2c-0.1,0.7-0.5,1.4-1,1.8c-0.6,0.5-1.3,0.7-2,0.6c-0.7-0.1-1.4-0.5-1.8-1
			l-7.2-9.2l-19,15.7c-0.5,0.4-1.1,0.6-1.8,0.6c-0.1,0-0.2,0-0.3,0c-0.7-0.1-1.4-0.5-1.9-1.1l-31.3-41
			C293,343.3,293.2,341.6,294.4,340.7z"/>
	</g>
	<g>
		<path class="st8" d="M309.5,270.2L309.5,270.2c-1.5,0-2.7-1.3-2.7-2.8c-0.1-7.8-3.7-9.1-3.8-9.2c-1.5-0.4-2.4-1.9-2-3.4
			c0.2-0.7,0.6-1.4,1.3-1.7c0.6-0.4,1.4-0.5,2.1-0.3c0.3,0.1,7.9,2.1,8,14.6c0,1.6-1.2,2.8-2.8,2.8L309.5,270.2z"/>
		<path class="st8" d="M288.1,254.4c0.7-5.8,4.1-11,9.3-13.7c3.3-1.8,6.4-2.1,9.5-0.9c5.9,2.2,8.6,9.4,8.8,9.7
			c0.5,1.4-0.2,3-1.6,3.5c-1.4,0.5-3-0.2-3.5-1.6c0-0.1-2-5.1-5.5-6.4c-1.5-0.6-3.1-0.3-4.9,0.6c-3.6,1.9-6,5.5-6.5,9.5
			c-0.4,3.7,0.2,9.4,4.8,16.8c0.1,0.1,0.3,0.3,0.4,0.4c3.6,5.5,7.8,4.9,7.9,4.9c1.5-0.2,2.8,0.8,3.1,2.2c0.2,1.4-0.7,2.8-2.1,3.1
			c-0.1,0-0.5,0.1-1.3,0.1c-1.3,0-3.4-0.2-5.7-1.4l-2.8,16.3c-0.2,1.3-1.3,2.2-2.6,2.3c0,0-0.1,0-0.1,0c-0.2,0-0.3,0-0.5,0
			c-0.7-0.1-1.4-0.5-1.8-1.1c-0.4-0.6-0.6-1.3-0.5-2l3.2-19C288.4,267.5,287.5,259.4,288.1,254.4z"/>
	</g>
	<path class="st8" d="M370.8,599.4l34.1-6.4c0.7-0.1,1.4,0,2,0.4c0.6,0.4,1,1,1.1,1.7c0.1,0.7,0,1.4-0.4,2c-0.4,0.6-1,1-1.7,1.1
		l-31.9,6v7.5h3.1c0.1,0,0.1,0,0.2,0l117.1,7.1c1.5,0.1,2.6,1.4,2.5,2.9c-0.1,1.4-1.3,2.5-2.7,2.5c-0.1,0-0.1,0-0.2,0l-117-7.1h-5.7
		c-1.5,0-2.7-1.2-2.7-2.7v-12.5C368.6,600.8,369.5,599.6,370.8,599.4z"/>
	<path class="st8" d="M382.2,286.2l4.3,0c1.3,0,2.4,1,2.4,2.3c0,1.3-1,2.3-2.3,2.4l-4.3,0c-1.3,0-2.3-1-2.4-2.3
		C379.8,287.2,380.9,286.2,382.2,286.2z"/>
	<path class="st8" d="M376.9,318c0,0-0.1,0-0.1,0c-5.1-0.2-9.1-3.5-11.5-9.4c-1.7-4.1-2-8.1-2.1-8.3c-0.1-0.7,0.2-1.4,0.7-1.9
		c0.5-0.5,1.2-0.8,2-0.7c6.9,0.8,20.2,0.4,20.4,0.4c1.3,0,2.5,1,2.5,2.4c0,1.3-1,2.5-2.4,2.5c-0.5,0-10.5,0.3-17.9-0.2
		c0.8,3.8,3,10,8.3,10.4c0.5-0.1,3.1-0.8,5.6-5.5c0.6-1.2,2.1-1.6,3.3-1c1.2,0.6,1.6,2.1,1,3.3C382.6,317.7,377.5,318,376.9,318
		C377,318,377,318,376.9,318z"/>
	<path class="st8" d="M298.4,241c-0.1,0-0.2,0-0.3,0c-2-0.1-3.5-1.8-3.3-3.8c1.7-27.1,9.9-47,24.3-59.3c16.5-14.1,35-12.6,35.8-12.5
		c2,0.2,3.4,1.9,3.2,3.9c-0.2,2-1.9,3.4-3.9,3.2l0,0c-0.2,0-16.4-1.3-30.6,10.9c-12.8,11-20.1,29.2-21.7,54.2
		C301.8,239.5,300.3,241,298.4,241z"/>
	<g>
		
			<ellipse transform="matrix(0.9998 -2.024394e-02 2.024394e-02 0.9998 -5.1672 6.1084)" class="st5" cx="299.1" cy="258.3" rx="15.7" ry="21.3"/>
		<path class="st8" d="M298,281.6c-4.3-0.4-8.3-2.8-11.4-6.8c-3.3-4.3-5.2-10.1-5.4-16.2c-0.1-6.1,1.5-12,4.7-16.4
			c3.3-4.6,7.8-7.3,12.7-7.4c4.9-0.1,9.5,2.3,13,6.8c3.3,4.3,5.2,10.1,5.4,16.2c0.1,6.1-1.5,12-4.7,16.4c-3.3,4.6-7.8,7.3-12.7,7.4
			C299.1,281.7,298.5,281.7,298,281.6z M299.8,239.2c-0.4,0-0.7,0-1.1,0c-3.5,0.1-6.8,2-9.3,5.6c-2.6,3.7-4,8.6-3.9,13.8
			c0.1,5.2,1.7,10.1,4.5,13.7c2.6,3.4,6,5.2,9.5,5.2c3.5-0.1,6.8-2,9.3-5.6c2.6-3.7,4-8.6,3.9-13.8c-0.1-5.2-1.7-10.1-4.5-13.7
			C305.9,241.3,303,239.5,299.8,239.2z"/>
	</g>
	<g>
		
			<ellipse transform="matrix(0.9998 -2.024611e-02 2.024611e-02 0.9998 -5.1704 6.021)" class="st8" cx="294.8" cy="258.4" rx="11.4" ry="15.4"/>
		<path class="st8" d="M293.9,275.3c-3.1-0.3-6-2-8.2-4.9c-2.4-3.1-3.8-7.3-3.9-11.7c-0.2-9.3,5.5-17.1,12.6-17.2
			c7.1-0.1,13.1,7.3,13.3,16.7v0c0.2,9.3-5.5,17.1-12.6,17.2C294.7,275.3,294.3,275.3,293.9,275.3z M295.3,244.6c-0.3,0-0.5,0-0.8,0
			c-5.4,0.1-9.7,6.4-9.6,14c0.1,3.8,1.2,7.3,3.2,9.9c1.9,2.5,4.3,3.8,6.9,3.7c5.4-0.1,9.7-6.4,9.6-14
			C304.5,250.9,300.4,245,295.3,244.6z"/>
	</g>
	<g>
		<polygon class="st15" points="649.1,429.3 655.5,432.5 650.4,447.8 606,453.6 599.5,449.9 603.1,434.7 640.7,430.1 		"/>
		<path class="st8" d="M606,456c-0.4,0-0.8-0.1-1.2-0.3l-6.5-3.6c-1-0.5-1.4-1.6-1.2-2.7l3.6-15.3c0.2-1,1.1-1.7,2.1-1.8l37.6-4.5
			c1.3-0.2,2.5,0.8,2.7,2.1c0.2,1.3-0.8,2.5-2.1,2.7l-36,4.3l-2.8,11.8l4.2,2.4l42.1-5.5l3.9-11.7l-3.9-1.5
			c-1.2-0.5-1.9-1.9-1.4-3.1c0.5-1.2,1.9-1.9,3.1-1.4l6,2.4c1.2,0.5,1.8,1.8,1.4,3l-5.1,15.3c-0.3,0.9-1.1,1.5-2,1.6l-44.4,5.8
			C606.2,456,606.1,456,606,456z"/>
	</g>
	<g>
		<polygon class="st15" points="615.9,465 622,452.9 633.6,450.7 626.8,463.6 		"/>
		<path class="st8" d="M615.9,467.5c-0.8,0-1.5-0.4-2-1c-0.5-0.7-0.6-1.7-0.2-2.5l6.1-12.2c0.3-0.7,1-1.2,1.7-1.3l11.6-2.2
			c0.9-0.2,1.8,0.2,2.4,0.9c0.6,0.7,0.6,1.7,0.2,2.6l-6.8,12.9c-0.4,0.7-1,1.2-1.8,1.3l-10.9,1.5C616.2,467.5,616,467.5,615.9,467.5
			z M623.6,455l-3.5,7l5.1-0.7l3.9-7.4L623.6,455z"/>
	</g>
	<path class="st8" d="M606,456c-0.2,0-0.4,0-0.6-0.1c-1.3-0.3-2.1-1.7-1.7-3l3.3-12.4c0.3-1.3,1.7-2.1,3-1.7c1.3,0.3,2.1,1.7,1.7,3
		l-3.3,12.4C608.1,455.3,607.1,456,606,456z"/>
</g>
</svg>
