<?xml version="1.0" encoding="utf-8"?>
<!-- Generator: Adobe Illustrator 28.0.0, SVG Export Plug-In . SVG Version: 6.00 Build 0)  -->
<svg version="1.1" id="レイヤー_1" xmlns="http://www.w3.org/2000/svg" xmlns:xlink="http://www.w3.org/1999/xlink" x="0px"
	 y="0px" viewBox="0 0 1200 793.9" style="enable-background:new 0 0 1200 793.9;" xml:space="preserve">
<style type="text/css">
	.st0{fill:#F3A11A;}
	.st1{fill:#FBFBFB;}
	.st2{fill:#F29600;}
	.st3{fill:#FCEACC;}
	.st4{fill:none;}
	.st5{fill:#FFFFFF;}
	.st6{fill:#80DEF0;}
	.st7{fill:#F8CA7F;}
	.st8{fill:#4D4D4D;}
	.st9{fill:#FFE964;}
	.st10{fill:#FFFF00;}
	.st11{fill:none;stroke:url(#);stroke-width:6.8925;stroke-linecap:round;stroke-linejoin:round;}
	.st12{fill:#DADBDB;}
	.st13{fill:#251E1C;}
	.st14{fill:#66D7ED;}
	.st15{fill:#727171;}
	.st16{fill:#FEF4E5;}
	.st17{fill:#CCCCCC;}
	.st18{fill:none;stroke:#808080;stroke-width:1.5318;stroke-miterlimit:10;}
	.st19{fill:#E85151;}
	.st20{fill:#FFD759;}
	.st21{fill:#4BD961;}
	.st22{fill:none;stroke:#E6E6E6;stroke-width:1.8093;stroke-miterlimit:10;}
	.st23{fill:#999999;}
	.st24{fill:none;stroke:#CED4DA;stroke-width:1.8093;stroke-miterlimit:10;}
	.st25{fill:#59C2E1;}
	.st26{fill:#796A56;}
	.st27{fill:#9CDBED;}
	.st28{fill:none;stroke:#F29600;stroke-width:1.8093;stroke-miterlimit:10;}
	.st29{fill:none;stroke:#797979;stroke-width:1.7231;stroke-miterlimit:10;}
	.st30{fill:#F2F2F2;}
	.st31{fill:#EAECEF;}
</style>
<rect x="0" class="st1" width="1200" height="793.9"/>
<g>
	<path class="st5" d="M476.8,229.8l43.9,42.6l-4.4,13.1c0,0,5.9,18.9,5.7,38.6l5,6.5c0,0-16.4,5.6-22.8,21c0,0-14.5-13.8-21-22.7
		c-6.5-8.9-16.7-25-21.9-31.8c-5.2-6.8-10.9-16.9-10.1-26.5l-20.2-19.9L476.8,229.8z"/>
	<path class="st5" d="M602.7,260.5l-6.9-4.9c0,0-19.2-23-26.7-25.2c0,0-3.4-1.3-11.7,4.4c0,0-6.9-2.5-13.8,5.9
		c0,0-24.9-10.7-30.1-11.3c-5.2-0.6-7.1,3.1-3.4,9.3c3.8,6.2,27.7,12.3,27.7,12.3s-3.9,8.2-2.1,11.4c1.9,3.2,11.8,6,11.8,6
		s-6.9,3.9-9.6,7.8c-2.7,4-3.1,11-0.2,11.3c2.9,0.4,16.9-9.3,21.2-9.3s10.5,3.7,15.8,4.7c5.3,1,11.9,1.4,15.7,1.5
		C590.4,284.6,595.6,268.8,602.7,260.5z"/>
	<path class="st5" d="M674,212.7c0,0-7.8,7.7-19.4,13.3c-11.6,5.6-21.4,9.2-31.7,16.7c0,0-1.5-20.4-11.4-35.2c0,0-10.3,8.9-17.5,9.7
		s-15.9-6.4-26.4-28.1l-11.4-2.8c0,0,4.6-6,3.5-17.5c-1.1-11.5-3.5-13.6-3.5-13.6s-5.1,0.8-10.1-3c-5-3.8-15.3-17.8-4-34.9l4-7.2
		c0,0,11.6-39.8,51.7-41.3c40.2-1.5,73.4,32.7,67.8,64.6l-0.9,6.7c0,0,13.7-1.4,24.7,12.9c11,14.3,6.5,32.5,10.1,40.9
		c3.6,8.4,15.9,16.5,22.6,22.8c6.7,6.3,4.8,21.9,0,32.2c0,0-11.4,17.9-21.2,25.1c0,0,3.4-22.1-3.9-33.7
		C689.7,228.5,674,212.7,674,212.7z"/>
	<polygon class="st9" points="426.6,245.6 434.8,253.9 478.2,231.2 469.6,222.8 	"/>
	<path class="st9" d="M487.1,290.4l31.6-19.9l8.3,8l-31,20.3C495.9,298.8,489.3,295.6,487.1,290.4z"/>
	<path class="st7" d="M589,423.9c-22.4-3.7-51.7-33.1-69.7-48.8c-18.1-15.7-18.7-19.3-8.3-34.4c10.4-15.1,28-9.5,28-9.5l34.3,24.5
		h7.8c0,0,2.7-20.8,4.5-37.7c1.8-16.9,2.2-28.3,11.5-48.2c9.3-20,31.4-30.8,48.4-39.5c17-8.6,28.5-17.6,28.5-17.6
		s18.7,15.5,25.2,27.5c6.4,12.1,1.8,29.5,1.8,29.5h4.9c0,0,4.2,3.8,9.6-14.9c0,0,4.7-4.3,8.5-11.5l1.3,17.3c0,0,4.1,38.6-3.1,155
		h-113C609.1,415.7,604.4,426.4,589,423.9z"/>
	<g>
		<path class="st8" d="M390.7,314.1c-1.3,0-2.4-0.9-2.6-2.2c-0.2-1.5,0.7-2.8,2.2-3.1l8.3-1.4c1.5-0.3,2.8,0.7,3.1,2.2
			c0.2,1.5-0.7,2.8-2.2,3.1l-8.3,1.4C391,314.1,390.9,314.1,390.7,314.1z"/>
	</g>
	<g>
		<path class="st8" d="M399.9,331.5c-0.8,0-1.6-0.4-2.2-1.1c-0.9-1.2-0.6-2.9,0.5-3.8l7.4-5.6c1.2-0.9,2.9-0.6,3.8,0.5
			c0.9,1.2,0.6,2.9-0.5,3.8l-7.4,5.6C401,331.3,400.5,331.5,399.9,331.5z"/>
	</g>
	<g>
		<path class="st8" d="M414,345.2c-0.5,0-0.9-0.1-1.3-0.4c-1.3-0.7-1.7-2.4-1-3.7l4.6-7.9c0.7-1.3,2.4-1.7,3.7-1
			c1.3,0.7,1.7,2.4,1,3.7l-4.6,7.9C415.8,344.7,414.9,345.2,414,345.2z"/>
	</g>
	<path class="st8" d="M574.3,162.5c-0.3-1.5-1.8-2.4-3.3-2c-1.5,0.3-2.4,1.8-2,3.3c0.3,1.5,1.8,2.4,3.3,2
		C573.7,165.4,574.6,164,574.3,162.5z"/>
	<path class="st8" d="M593.6,219.9c-4.8,0-8.9-2.4-12.9-6.2c-6.4-6-12.9-18.4-14.8-22.3c-4.1-1-10.8-2.7-10.9-2.7
		c-0.9-0.2-1.6-0.9-1.9-1.7c-0.3-0.9-0.1-1.8,0.4-2.5c4.1-5.4,4.9-15.6,1.9-23.8c-3.3-8.7-3.7-18.6-3.8-19c-0.1-1.5,1.1-2.7,2.6-2.8
		c1.5-0.1,2.7,1.1,2.8,2.6c0,0.1,0.4,9.4,3.4,17.3c2.7,7.2,3.5,17.7-0.5,25.7c2.7,0.7,6.3,1.6,8.5,2.1c0.8,0.2,1.4,0.7,1.8,1.4
		c0.1,0.2,7.5,15.5,14.2,21.8c5.1,4.8,11.5,10.8,31.1-9.9c1-1.1,2.7-1.1,3.8-0.1c1.1,1,1.1,2.7,0.1,3.8
		C608.1,215.4,600.1,219.9,593.6,219.9z"/>
	<path class="st8" d="M586.5,208.5c-0.1,0-0.1,0-0.2,0c-1.5-0.1-2.6-1.4-2.5-2.9c0.3-3.9,0-8.5-0.4-11.6c-2.6,1.4-4.6,3-4.6,3.1
		c-1.1,1-2.8,0.8-3.8-0.3c-1-1.1-0.8-2.8,0.3-3.8c0.2-0.2,4.6-3.9,9.6-5.4c0.7-0.2,1.6-0.1,2.2,0.3c0.7,0.4,1.1,1.1,1.2,1.9
		c0.1,0.4,1.3,9.1,0.8,16.2C589,207.4,587.9,208.5,586.5,208.5z"/>
	<path class="st8" d="M617.8,176.2c-1.5,0-2.7-1.2-2.7-2.7c0-1.5,1.2-2.7,2.7-2.7c1.4,0,2.1-0.5,2.4-0.9c0.7-0.8,1.9-3.1,1.2-9.3
		c-0.9-7.9-1.8-13.2-6.8-14c-1.3-0.2-2.4-0.1-3.2,0.5c-1.6,1.1-2.1,3.5-2.1,3.6c-0.3,1.5-1.6,2.4-3.1,2.2c-1.5-0.3-2.4-1.6-2.2-3.1
		c0.1-0.5,0.9-4.6,4.3-7c2-1.4,4.5-1.9,7.3-1.4c9.3,1.6,10.4,11.5,11.2,18.7c0.7,6.3-0.1,10.8-2.5,13.5
		C622.6,175.3,620.4,176.2,617.8,176.2z"/>
	<path class="st8" d="M627.3,225.2c-0.4,0-0.8-0.1-1.2-0.3c-1.3-0.7-1.8-2.3-1.2-3.6c2.8-5.3,3.3-17.1-3-25.2
		c-1.8-2.3-4.9-5.1-8.3-8.1c-7.5-6.7-16.9-15.1-18.7-24.8c-2.6-14.1,4-20.9,4.3-21.2c1.1-1,2.8-1,3.8,0c1,1,1,2.7,0,3.8
		c-0.2,0.3-4.9,5.3-2.9,16.4c1.4,7.9,10,15.5,16.9,21.7c3.5,3.1,6.9,6.1,9,8.8c7.2,9.3,7.5,23.3,3.5,30.9
		C629.3,224.7,628.3,225.2,627.3,225.2z"/>
	<path class="st8" d="M606.6,141.3c-0.2,0-0.4,0-0.6-0.1c-14-3.5-20.3-15.7-20.6-16.2c-0.7-1.3-0.1-2.9,1.2-3.6
		c1.3-0.7,2.9-0.1,3.6,1.2l0,0c0.1,0.1,5.5,10.5,17.1,13.4c1.4,0.4,2.3,1.8,2,3.3C608.9,140.5,607.8,141.3,606.6,141.3z"/>
	<path class="st8" d="M589.1,150.7c-1,0-2-0.6-2.5-1.6c-1.8-4-4.7-5.9-7.9-8c-2.6-1.7-5.2-3.5-7.3-6.3c-4.8-6.5-3.9-18.7-3.9-19.2
		c0.1-1.5,1.4-2.6,2.9-2.5c1.5,0.1,2.6,1.4,2.5,2.9c-0.2,3-0.1,11.6,2.9,15.7c1.5,2.1,3.6,3.5,5.9,5c3.5,2.3,7.4,4.9,9.8,10.3
		c0.6,1.4,0,2.9-1.3,3.6C589.9,150.6,589.5,150.7,589.1,150.7z"/>
	<path class="st8" d="M574.8,149.8c-0.4,0-0.9-0.1-1.3-0.3c-9.8-5.5-16.9-12.4-20.3-19.9c-3.4-7.5-0.3-16.3-0.2-16.7
		c0.5-1.4,2-2.1,3.4-1.6c1.4,0.5,2.1,2,1.6,3.4l0,0c0,0.1-2.5,7.2,0,12.7c3,6.5,9.2,12.5,18,17.5c1.3,0.7,1.8,2.4,1,3.7
		C576.7,149.3,575.7,149.8,574.8,149.8z"/>
	<path class="st8" d="M546.1,154.7c-0.7,0-1.3-0.2-1.8-0.7c-19.7-18.7-4.4-38.4-4.3-38.6c0.9-1.2,2.6-1.3,3.8-0.4
		c1.2,0.9,1.3,2.6,0.4,3.8c-0.5,0.7-12.3,16.1,3.8,31.3c1.1,1,1.1,2.7,0.1,3.8C547.6,154.5,546.9,154.7,546.1,154.7z"/>
	<path class="st8" d="M636.3,182.9c-5.4,0-8.9-1.4-9.2-1.5c-1.4-0.6-2-2.1-1.5-3.5c0.6-1.4,2.1-2,3.5-1.5c0.4,0.2,10.2,3.9,21.8-3.2
		c1.3-0.8,2.9-0.4,3.7,0.9c0.8,1.3,0.4,2.9-0.9,3.7C647.1,181.8,641,182.9,636.3,182.9z"/>
	<g>
		<path class="st9" d="M439,171.4c-1,0-1.8,0.1-2.6,0.1c-24.4,0-44.3-19.8-44.3-44.3c0-24.4,19.8-44.3,44.2-44.3
			c24.4,0,44.2,19.8,44.2,44.3c0,20.3-13.7,37.4-32.4,42.6l0,0l-1.7,14L439,171.4L439,171.4z"/>
		<path class="st8" d="M446.4,186.5c-0.9,0-1.8-0.5-2.3-1.3l-6.7-11.1c-0.4,0-0.8,0-1.1,0c-25.9,0-47-21.1-47-46.9
			c0-25.9,21-46.9,46.9-46.9c25.9,0,46.9,21.1,46.9,46.9c0,20.4-13.3,38.5-32.6,44.7l-1.5,12.3c-0.1,1.1-1,2.1-2.1,2.3
			C446.8,186.5,446.6,186.5,446.4,186.5z M438.9,168.7c0.9,0,1.8,0.5,2.3,1.3l3.4,5.7l0.7-6.2c0.1-1,0.8-1.9,1.8-2.2
			c0.1,0,0.3-0.1,0.4-0.1c17.8-5.1,30.2-21.5,30.2-40c0-22.9-18.6-41.6-41.6-41.6c-22.9,0-41.5,18.7-41.5,41.6
			c0,22.9,18.7,41.6,41.6,41.6c0.8,0,1.6,0,2.4-0.1C438.8,168.7,438.9,168.7,438.9,168.7z"/>
	</g>
	<g>
		<rect x="410.3" y="109.4" class="st5" width="51.1" height="35.9"/>
		<path class="st8" d="M461.3,147.9h-51.1c-1.5,0-2.8-1.2-2.8-2.7v-35.8c0-1.5,1.3-2.7,2.8-2.7h51.1c1.5,0,2.7,1.2,2.7,2.7v35.8
			C464,146.7,462.8,147.9,461.3,147.9z M412.9,142.6h45.7v-30.5h-45.7V142.6z"/>
	</g>
	<path class="st8" d="M436,134c-0.6,0-1.2-0.2-1.7-0.6l-18.3-14.3c-1.2-0.9-1.4-2.6-0.5-3.8c0.9-1.2,2.6-1.4,3.8-0.5l16.6,13
		l16.6-13c1.2-0.9,2.9-0.7,3.8,0.5c0.9,1.2,0.7,2.9-0.5,3.8l-18.3,14.3C437.2,133.8,436.6,134,436,134z"/>
	<path class="st8" d="M687.2,293.1c-0.8,0-1.5-0.3-2.1-0.9c-1-1.1-0.8-2.8,0.3-3.8c19.7-16.7,16.8-42.4,7.2-53.7
		c-3.1-3.6-7-7.2-11.2-11c-9.1-8.3-19.3-17.7-24.4-31c-7.3-19.2-3.6-33.9-3.4-34.6c0.4-1.4,1.9-2.3,3.3-1.9c1.4,0.4,2.3,1.8,1.9,3.3
		c0,0.2-3.4,13.8,3.2,31.3c4.6,12.1,14.4,21,23,28.9c4.3,3.9,8.4,7.6,11.6,11.5c11,13,14.5,42.3-7.8,61.3
		C688.4,292.9,687.8,293.1,687.2,293.1z"/>
	<path class="st8" d="M706,272.4c-0.6,0-1.1-0.2-1.6-0.6c-1.2-0.9-1.4-2.6-0.5-3.8c2.6-3.4,11.1-15.8,9.6-31.3
		c-1.2-12.7-8.9-22.4-25.8-32.3c-16-9.3-19.1-21.8-19.3-22.3c-0.4-1.4,0.5-2.9,2-3.2c1.4-0.4,2.9,0.5,3.2,2
		c0,0.1,2.9,10.8,16.8,18.9c13.1,7.7,26.7,18,28.4,36.4c1.6,17.4-7.8,31.2-10.7,35C707.7,272,706.9,272.4,706,272.4z"/>
	<path class="st8" d="M724.8,246.1c-0.3,0-0.6,0-0.9-0.1c-1.4-0.5-2.2-2-1.7-3.4c0-0.1,4.1-12.5-0.6-21c-1.8-3.4-5.1-5.8-8.9-8.6
		c-6.1-4.5-12.9-9.6-16.6-20.3c-0.8-2.5-1-5.7-1.2-9.9c-0.4-9.7-1.1-22.9-11.3-32c-13.4-11.9-20.9-7.1-21.2-6.9
		c-1.2,0.9-2.9,0.6-3.7-0.6c-0.9-1.2-0.6-2.9,0.6-3.8c0.4-0.3,11-7.6,27.9,7.3c12,10.6,12.7,25.8,13.2,35.8c0.2,3.6,0.3,6.7,0.9,8.4
		c3.1,9.1,9,13.5,14.7,17.8c4.1,3.1,8,6,10.4,10.4c5.8,10.5,1.1,24.7,0.9,25.3C727,245.4,725.9,246.1,724.8,246.1z"/>
	<path class="st8" d="M665.7,135.9c-0.1,0-0.1,0-0.2,0c-1.5-0.1-2.6-1.4-2.5-2.9c1.7-21.4-7-37.4-28-51.8
		c-17.5-12.1-40.8-13.3-60.9-3.2c-16.9,8.5-25.5,32.7-25.5,32.9c-0.5,1.4-2,2.1-3.4,1.7c-1.4-0.5-2.1-2-1.7-3.4
		c0.4-1.1,9.4-26.5,28.2-35.9c21.8-10.9,47.2-9.6,66.3,3.6c22.4,15.5,32.1,33.5,30.3,56.7C668.3,134.9,667.1,135.9,665.7,135.9z"/>
	<path class="st8" d="M653.4,146.2c-0.3,0-0.6-0.1-0.9-0.2c-8.5-3.2-15.6-9.9-15.9-10.2c-1.1-1-1.1-2.7-0.1-3.8
		c1-1.1,2.7-1.1,3.8-0.1l0,0c0.1,0.1,6.7,6.3,14.1,9.1c1.4,0.5,2.1,2.1,1.6,3.5C655.5,145.6,654.5,146.2,653.4,146.2z"/>
	<path class="st8" d="M643.7,159c-3.3,0-5.9-0.9-6.2-0.9c-1.4-0.5-2.2-2-1.7-3.4c0.5-1.4,2-2.2,3.4-1.7l0,0c1.8,0.6,7.1,1.5,9.8-1.1
		c1.1-1,2.8-1,3.8,0.1c1,1.1,1,2.8-0.1,3.8C650.1,158.3,646.7,159,643.7,159z"/>
	<path class="st8" d="M581.1,358.3c-0.1,0-0.3,0-0.4,0c-1.5-0.2-2.5-1.6-2.3-3c0-0.3,4-27.7,5.4-48.1c1.4-21.6,8.4-39.6,20.9-53.4
		c12.4-13.8,34.3-23.5,44.8-28.2l0.2-0.1c9.8-4.4,20.1-12.1,20.2-12.2c1.2-0.9,2.9-0.7,3.8,0.5c0.9,1.2,0.7,2.9-0.5,3.8
		c-0.4,0.3-10.8,8.2-21.2,12.9l-0.2,0.1c-10.2,4.5-31.3,13.9-43,26.8c-11.6,12.9-18.2,29.8-19.5,50.1c-1.3,20.7-5.4,48.3-5.4,48.6
		C583.5,357.3,582.4,358.3,581.1,358.3z"/>
	<path class="st8" d="M577.7,379.4c-0.1,0-0.2,0-0.3,0c-1.5-0.2-2.5-1.5-2.4-3l0.9-9c0.2-1.5,1.5-2.6,3-2.4c1.5,0.2,2.5,1.5,2.4,3
		l-0.9,9C580.2,378.4,579.1,379.4,577.7,379.4z"/>
	<path class="st8" d="M722.1,418c0,0-0.1,0-0.1,0c-1.5-0.1-2.6-1.3-2.5-2.8c0-0.8,4.1-76,4.6-102.8c0.5-26.6-1.6-52.8-1.6-53
		c-0.1-1.5,1-2.8,2.5-2.9c1.5-0.1,2.8,1,2.9,2.5c0,0.3,2.2,26.7,1.7,53.6c-0.5,26.8-4.6,102.2-4.6,102.9
		C724.7,416.9,723.6,418,722.1,418z"/>
	<path class="st8" d="M496.4,300.9c-0.9,0-1.7-0.4-2.3-1.2c-0.8-1.2-0.4-2.9,0.8-3.7l27.6-17.9l-53.5-52L431,246.3l42.8,43.3
		c1,1.1,1,2.8,0,3.8c-1.1,1-2.8,1-3.8,0l-45.3-45.9c-0.6-0.6-0.9-1.5-0.7-2.3c0.1-0.8,0.6-1.6,1.4-2l43-22.8c1-0.5,2.3-0.4,3.1,0.4
		l57.3,55.7c0.6,0.6,0.9,1.4,0.8,2.2c-0.1,0.8-0.5,1.5-1.2,2l-30.5,19.7C497.5,300.8,496.9,300.9,496.4,300.9z"/>
	<path class="st8" d="M440,253.2c-1,0-1.9-0.5-2.4-1.4c-0.7-1.3-0.2-2.9,1.1-3.6l32.5-17.1c1.3-0.7,2.9-0.2,3.6,1.1
		c0.7,1.3,0.2,2.9-1.1,3.6l-32.5,17.1C440.9,253.1,440.4,253.2,440,253.2z"/>
	<path class="st8" d="M489.3,292.1c-0.9,0-1.8-0.4-2.3-1.3c-0.8-1.3-0.4-2.9,0.8-3.7l24.2-15.2c1.3-0.8,2.9-0.4,3.7,0.8
		c0.8,1.3,0.4,2.9-0.8,3.7l-24.2,15.2C490.3,292,489.8,292.1,489.3,292.1z"/>
	<path class="st8" d="M508.5,322.7c-1.2,0-2.3-0.8-2.6-2c-4-14.2-9.5-18.3-14.5-21.9c-1.4-1-2.8-2-4-3.2c-2.6-2.5-4.4-7.3-6.2-12.5
		c-1.5-4.1-4.2-11.7-6.2-11.7c-1.1,0-1.4,0.3-1.5,0.4c-0.5,0.5-1,2.1-0.6,6.3c0.5,4.9,3.3,18.4,3.3,18.5c0.3,1.5-0.6,2.9-2.1,3.2
		c-1.5,0.3-2.9-0.6-3.2-2.1c-0.1-0.6-2.9-13.9-3.4-19.1c-0.4-3.7-0.4-7.8,1.9-10.4c0.9-1,2.6-2.2,5.6-2.2c5.7,0.1,8.4,7.5,11.2,15.3
		c1.5,4.1,3.2,8.8,4.9,10.4c1,0.9,2.1,1.8,3.5,2.8c5.1,3.7,12,8.8,16.5,24.8c0.4,1.4-0.4,2.9-1.9,3.3
		C509,322.6,508.8,322.7,508.5,322.7z"/>
	<path class="st8" d="M522,327.1c-1.5,0-2.7-1.4-2.7-2.9c-0.2-15.7-3.9-33-4-33.2c-0.3-1.4,0.6-2.9,2.1-3.2c1.5-0.3,2.9,0.6,3.2,2
		c0.2,0.7,3.8,18,4.1,34.3C524.7,325.7,523.5,327.1,522,327.1C522,327.1,522,327.1,522,327.1z"/>
	<path class="st8" d="M497.8,347.4c-0.6,0-1.2-0.2-1.7-0.6c-9.4-7.4-21.7-24.8-26.2-32.1c-4.8-7.7-10-15.2-15.3-21.7
		c-6-7.4-6.6-20.7-6.6-21.3c-0.1-1.5,1.1-2.7,2.6-2.8c1.5-0.1,2.7,1.1,2.8,2.6c0,0.2,0.6,12.1,5.5,18.1c5.4,6.6,10.8,14.3,15.6,22.3
		c4.3,7,16.1,23.8,24.9,30.7c1.2,0.9,1.4,2.6,0.4,3.8C499.4,347,498.6,347.4,497.8,347.4z"/>
	<path class="st8" d="M538.1,290.4c-0.3,0-0.5,0-0.7-0.1c-0.9-0.1-3.2-0.8-3.9-4.1c-1-4.3,0.9-11.4,4.9-14.2c0.7-0.5,1.5-1,2.3-1.5
		c3.8-2.5,6.4-4.4,6.1-6.6c-0.4-3.5-4.8-8.7-13.6-11.6c-20.9-7-24.1-10.5-25.1-11.6c-2.5-2.8-4-7.9-2-11.4c0.6-1.1,2.6-3.6,7.1-2.6
		c6.2,1.4,35,13.1,36.2,13.6c1.4,0.6,2,2.1,1.5,3.5c-0.6,1.4-2.1,2-3.5,1.5c-8.2-3.3-30.5-12.2-35.3-13.3c0,0-1.1-0.2-1.3,0
		c-0.5,0.8-0.1,3.5,1.3,5c1,1.1,5.2,4.2,22.8,10.1c9.8,3.3,16.5,9.6,17.2,16.2c0.6,5.7-4.5,9-8.5,11.7c-0.7,0.5-1.5,1-2.1,1.4
		c-2.2,1.6-3.3,6.8-2.9,8.6c1.7-0.4,5.7-2.7,8.2-4.1c3.9-2.2,7.2-4.1,9.6-4.6c3.7-0.7,7.3,0.7,10.8,2c1.6,0.6,3.2,1.2,4.9,1.7
		c4.6,1.2,8.4,0.4,8.4,0.3c1.4-0.3,2.9,0.6,3.2,2c0.3,1.4-0.5,2.9-2,3.2c-0.2,0-5.1,1.2-11-0.4c-1.9-0.5-3.7-1.2-5.4-1.8
		c-3-1.2-5.7-2.2-7.9-1.7c-1.6,0.3-5,2.2-8,4C544.2,288.5,540.7,290.4,538.1,290.4z"/>
	<path class="st8" d="M543.6,242.9c-0.7,0-1.4-0.3-2-0.9c-1-1.1-0.9-2.8,0.2-3.8c2.1-2,7.5-6.6,11.1-6.6c3.2,0,7.3,1,7.5,1.1
		c1.4,0.4,2.3,1.8,1.9,3.3c-0.4,1.4-1.8,2.3-3.3,1.9c0,0-3.6-0.9-6.1-0.9c-1.1,0.1-4.6,2.5-7.5,5.1
		C544.9,242.6,544.2,242.9,543.6,242.9z"/>
	<path class="st8" d="M596.2,259c-0.9,0-1.7-0.4-2.2-1.2c-7.5-10.8-23.2-24.1-26-24.9c-1.7-0.4-5.9,1.8-8.2,3.6
		c-1.2,0.9-2.9,0.7-3.8-0.5c-0.9-1.2-0.7-2.9,0.5-3.8c1.3-0.9,7.8-5.6,12.6-4.5c5.2,1.2,22.1,16.9,29.2,27c0.8,1.2,0.5,2.9-0.7,3.7
		C597.2,258.8,596.7,259,596.2,259z"/>
	<path class="st8" d="M543.6,269.2c-0.3,0-0.5,0-0.8-0.1c-0.5-0.2-5.3-1.6-8.1-3.5c-3.6-2.5-1.7-9.6-0.3-13.6c0.5-1.4,2-2.1,3.4-1.6
		c1.4,0.5,2.1,2,1.6,3.4c-1.1,3-1.7,6.4-1.4,7.6c1.8,1.2,5.1,2.3,6.3,2.6c1.4,0.4,2.2,1.9,1.8,3.3
		C545.8,268.4,544.7,269.2,543.6,269.2z"/>
	<path class="st8" d="M593,426.4c-17.2,0-36-15.7-45.3-23.4c-15.3-12.8-35.5-30.3-42.9-37.6c-2.9-2.9-4.3-6.6-4.1-10.6
		c0.4-6.7,5.5-14.6,13.7-20.9c11.6-9.1,24.7-5.3,25.2-5.2c0.3,0.1,0.6,0.2,0.8,0.4l34.1,24.4c1.2,0.9,1.5,2.5,0.6,3.7
		c-0.9,1.2-2.5,1.5-3.7,0.6l-33.7-24.1c-2.1-0.5-11.5-2.3-20,4.3c-6.9,5.4-11.3,11.9-11.6,17c-0.2,2.5,0.7,4.7,2.5,6.5
		c7,6.9,27.1,24.4,42.5,37.3c16.9,14.1,38.3,29.1,52.7,18.8c16.6-11.8,29.2-63.8,35-104.7c4.5-31.8-9-43.2-13.2-45.9
		c-5.2-3.3-10.9-3.8-14.9-1.2c-1.2,0.8-2.9,0.4-3.7-0.8c-0.8-1.2-0.4-2.9,0.8-3.7c5.8-3.7,13.8-3.3,20.7,1.2
		c13.1,8.4,18.9,27.5,15.6,51.1C638,357.6,625,409.2,607,422C602.6,425.1,597.9,426.4,593,426.4z"/>
	<path class="st8" d="M622.3,242c-1.4,0-2.6-1.1-2.7-2.5c-0.8-16.5-9.6-30.2-9.7-30.4c-0.8-1.2-0.4-2.9,0.8-3.7
		c1.2-0.8,2.9-0.4,3.7,0.8c0.4,0.6,9.6,15.1,10.5,33c0.1,1.5-1.1,2.7-2.5,2.8C622.4,242,622.4,242,622.3,242z"/>
</g>
<g>
	<g>
		<path class="st5" d="M415.4,490.6c0,0-4-27.3-2.2-48.3c1.9-21,12.1-74.2-46.3-71.1c0,0-18.2-12-34.3-4.5
			c-16.1,7.4-29.6,27.3-29.6,27.3s-2.5,3.5,0,7c0,0-10.1,4.3-12.2,15.6c-2.1,11.3,8.7,22.5,8.3,30.5c0,0,4.7,4,7.3-0.4
			c0,0,2.5,15-6.1,28.9l15.4,4.6c0,0,6.9,25.1,13.9,30.7c7,5.6,19.3-3.4,27.8-10.8l7.6,19.6C364.9,519.6,407.1,503.8,415.4,490.6z"
			/>
		<path class="st5" d="M335.7,560.5l-5.9-4.5c0,0-22.9-25.2-29-27.3c-6.1-2.1-11,4.2-11,4.2s-7.1-1.6-15.4,6.1L239.2,526
			c0,0-8.4-2.4-5.8,7c2.6,9.4,34.2,18.5,34.2,18.5s-2.5,9.2-0.8,12c1.8,2.8,11.6,5.7,11.6,5.7s-7.6,3.9-10.4,8.3
			c-2.8,4.4-7.2,15.9,2.2,12c9.4-3.9,18-10.3,30.5-6.5c12.5,3.8,15.4,1.2,15.4,1.2l8.1,3.4L335.7,560.5z"/>
		<path class="st5" d="M151.3,544.9l45.2-24l60.3,58.6l-11.4,7.4c0,0,6.1,17.1,6.2,40.5l3.2,4.6l-22.8,22.1c0,0-8.5-5.4-17.1-16.6
			c-8.6-11.2-22.6-35.1-27-39.6c-4.4-4.5-10.7-10.6-11.3-27.3L151.3,544.9z"/>
		<path class="st6" d="M468.6,562.3c-4.8-44.8-31.2-54.8-38.3-56.6l-8.1-18.4c-0.4-0.8-1-1.4-1.8-1.7c-0.8-0.3-1.7-0.2-2.5,0.2
			l-62.5,32.7c-1.6,0.8-11.4,6.3-5.8,24.8c-4.5,3.5-15.7,13.1-22.9,27.6c-7.9,15.9-10.6,42.8-12.7,64.4c-0.9,9.3-1.7,17.5-2.8,22.9
			c-3.3-1.4-8.8-3.9-14.1-7.6l-0.5-0.3c-8.5-6-14.2-10-23-11.2l-12.2-10.6c-0.7-0.6-1.6-0.9-2.6-0.7c-0.3,0-29.1,5.2-31.1,33.7
			c-0.1,0.9,0.3,1.8,1,2.5l14.9,14.3l0.2,1.7c0.1,0.8,0.4,1.5,1,2c0.2,0.2,18,16.8,36.3,30.8c6.1,4.7,27.5,19.8,47.2,19.8
			c6.6,0,12.1-1.6,16.5-5.3h117.7c1.6,0,3-1.2,3.1-2.9C465.6,723.2,473.8,610.9,468.6,562.3z"/>
		<g>
			<path class="st8" d="M251.7,629.7c-1.4,0-2.6-1-2.6-2.4c-0.3-16.6-4.1-34.6-4.2-34.8c-0.3-1.4,0.6-2.8,2-3.1
				c1.4-0.3,2.8,0.6,3.1,2c0.2,0.8,4,18.6,4.3,35.7C254.4,628.6,253.2,629.7,251.7,629.7C251.8,629.7,251.7,629.7,251.7,629.7z"/>
			<path class="st8" d="M226.3,651.7c-0.6,0-1.1-0.2-1.6-0.6c-9.8-7.7-22.8-26.1-27.5-33.7c-5-8.1-10.6-16.1-16.1-22.9
				c-6.2-7.7-6.9-21.7-6.9-22.3c-0.1-1.4,1.1-2.7,2.5-2.7c1.4,0,2.7,1.1,2.7,2.5c0,0.1,0.6,12.8,5.8,19.2c5.6,7,11.3,15.1,16.4,23.4
				c4.6,7.4,17,25.1,26.3,32.4c1.1,0.9,1.3,2.5,0.4,3.7C227.8,651.4,227.1,651.7,226.3,651.7z"/>
			<path class="st8" d="M266.6,592.9c-0.3,0-0.5,0-0.8-0.1c-2-0.3-3.5-1.8-4.1-4.1c-1.1-4.2,1-10.9,7.3-15.9c1-0.8,2.2-1.6,3.2-2.3
				c3.7-2.5,6-4.3,5.8-6.6c-0.4-3.8-5.4-7.7-14.6-11.4c-18-7.2-27.4-11.9-30.4-15.3c-2.6-2.9-4.1-8.2-2.1-11.7
				c0.7-1.1,2.7-3.6,7.2-2.6c6.5,1.4,40.8,15.8,42.3,16.4c1.3,0.6,2,2.1,1.4,3.4c-0.6,1.3-2.1,2-3.4,1.4c-9.8-4.1-36.3-15-41.4-16.1
				c-0.5-0.1-1.3-0.2-1.5,0.1c-0.6,1-0.1,3.8,1.4,5.6c2.3,2.6,11.9,7.3,28.5,13.9c11.4,4.6,17.2,9.7,17.8,15.7
				c0.6,5.5-4.2,8.8-8.1,11.4c-1.1,0.7-2.1,1.4-2.9,2.1c-3.7,2.9-5.2,6.4-5.5,8.8c-0.1,1,0,1.6,0.1,1.8c1.8-0.1,7.6-2.7,11.1-4.3
				c4.2-1.9,7.8-3.5,10-3.9c5.2-1,10.5,0.2,16.4,1.8c5,1.3,11.2,0.3,11.2,0.3c1.4-0.2,2.8,0.7,3,2.2c0.2,1.4-0.7,2.8-2.2,3
				c-0.3,0-7.3,1.2-13.4-0.4c-5.3-1.4-9.9-2.5-14-1.7c-1.7,0.3-5.3,2-8.9,3.6C273.7,591,269.4,592.9,266.6,592.9z"/>
			<path class="st8" d="M274.5,541.8c-0.7,0-1.4-0.3-1.9-0.8c-1-1.1-0.9-2.7,0.1-3.7c2.2-2.1,7.8-6.8,11.5-6.8
				c3.4,0,7.6,1.1,7.8,1.1c1.4,0.4,2.2,1.8,1.9,3.2c-0.4,1.4-1.8,2.3-3.2,1.9c0,0-3.8-1-6.5-1c-1.1,0.1-4.9,2.7-8,5.5
				C275.8,541.5,275.1,541.8,274.5,541.8z"/>
			<path class="st8" d="M329.8,558.7c-0.8,0-1.7-0.4-2.2-1.1c-7.9-11.5-24.5-25.5-27.4-26.2c-2-0.4-6.4,2-8.8,3.8
				c-1.2,0.9-2.8,0.6-3.7-0.5c-0.9-1.2-0.6-2.8,0.5-3.7c1.3-1,8.1-5.9,13.1-4.7c5.4,1.2,23.4,17.9,30.6,28.4
				c0.8,1.2,0.5,2.8-0.7,3.6C330.9,558.5,330.3,558.7,329.8,558.7z"/>
			<path class="st8" d="M274.5,569.4c-0.3,0-0.5,0-0.8-0.1c-0.6-0.2-5.6-1.7-8.4-3.7c-3.7-2.6-1.7-9.9-0.2-14.1
				c0.5-1.4,2-2.1,3.4-1.6c1.4,0.5,2.1,2,1.6,3.4c-1.2,3.2-1.9,7-1.5,8.2c1.9,1.2,5.5,2.5,6.7,2.8c1.4,0.4,2.2,1.9,1.8,3.3
				C276.7,568.7,275.6,569.4,274.5,569.4z"/>
			<path class="st8" d="M313.1,447.2c0.3,1.6,1.8,2.6,3.4,2.4c1.6-0.3,2.6-1.8,2.4-3.4c-0.3-1.6-1.8-2.6-3.4-2.4
				C313.9,444.1,312.8,445.6,313.1,447.2z"/>
			<path class="st8" d="M352.6,437.8C352.6,437.8,352.6,437.8,352.6,437.8c-13.9,0-19.5-10.3-24.1-18.7c-1.8-3.4-3.6-6.6-5.6-8.4
				c-2.1-1.9-4.1-2.8-5.7-2.8c-1.5,0.1-2.5,1-2.5,1c-1,1.1-2.6,1.2-3.7,0.2c-1.1-1-1.2-2.6-0.2-3.7c0.2-0.3,2.4-2.6,6.1-2.8
				c3.2-0.2,6.4,1.2,9.6,4.2c2.6,2.4,4.6,6,6.6,9.8c4.2,7.9,8.6,16,19.4,16.1c1.4,0,2.6,1,2.6,2.5
				C355.2,436.7,354,437.8,352.6,437.8z"/>
			<path class="st8" d="M359.7,429.6c-0.3,0-0.6-0.1-0.9-0.2c-9.7-3.7-14.1-18.6-14.3-19.2c-0.4-1.4,0.4-2.8,1.8-3.2
				c1.4-0.4,2.8,0.4,3.2,1.8c1,3.6,5.1,13.5,11.1,15.8c1.4,0.5,2,2,1.5,3.4C361.7,429,360.7,429.6,359.7,429.6z"/>
			<path class="st8" d="M358.2,470.5c-1.2,0-2-0.3-2.2-0.3c-1.4-0.5-2.1-2-1.6-3.3c0.5-1.4,2-2.1,3.3-1.6c0.2,0.1,3,0.6,4.9-5.1
				c1.9-5.7,2.5-14-0.1-18.8c-1-1.9-2.4-3-4.3-3.5c-2-0.5-3.5-0.4-4.6,0.4c-1.9,1.4-2.2,4.5-2.2,4.5c-0.1,1.4-1.4,2.5-2.8,2.4
				c-1.4-0.1-2.5-1.3-2.4-2.8c0-0.6,0.5-5.6,4.3-8.4c2.4-1.7,5.4-2.1,9-1.2c3.3,0.8,5.9,2.9,7.6,6.1c3.5,6.4,2.7,16.1,0.4,23
				c-1.3,4-3.4,6.6-6,7.9C360.4,470.3,359.1,470.5,358.2,470.5z"/>
			<path class="st8" d="M385.8,487.3c-0.9,0-1.7-0.4-2.2-1.2l-11.1-17.5l-8.5-3.1c-1.4-0.5-2.1-2-1.6-3.4c0.5-1.4,2-2.1,3.4-1.6
				l9.4,3.4c0.5,0.2,1,0.6,1.3,1.1l11.5,18.2c0.8,1.2,0.4,2.8-0.8,3.6C386.7,487.2,386.2,487.3,385.8,487.3z"/>
			<path class="st8" d="M299.1,449.7c-0.2,0-0.4,0-0.6-0.1c-1.4-0.3-2.3-1.7-2-3.1c0.5-2.1-1-4.9-2.8-8.3c-3-5.7-7-13.5-5-24.3
				c2.4-12.9,14.9-15.9,15.4-16.1c1.4-0.3,2.8,0.6,3.1,2c0.3,1.4-0.5,2.8-2,3.1c-0.4,0.1-9.7,2.5-11.5,11.9
				c-1.7,9,1.6,15.4,4.5,20.9c2.2,4.2,4.1,7.9,3.3,11.9C301.4,448.9,300.3,449.7,299.1,449.7z"/>
			<path class="st8" d="M303.1,396.6c-0.5,0-1-0.1-1.4-0.4c-1.2-0.8-1.5-2.4-0.7-3.6c0.6-0.8,13.8-20.7,28.9-27.5
				c16.9-7.6,31.9-1,41.5,5.9c1.2,0.8,1.4,2.5,0.6,3.7c-0.8,1.2-2.5,1.4-3.7,0.6c-8.5-6.1-21.7-12-36.3-5.4
				c-13.7,6.2-26.5,25.4-26.7,25.6C304.7,396.2,303.9,396.6,303.1,396.6z"/>
			<path class="st8" d="M335.2,514.8c-0.8,0-1.7-0.1-2.5-0.2c-6.1-1.1-9.4-6.4-11.3-10.2c-3.4-6.8-6.7-18-7.9-22.1
				c-8.8-2.2-14-4.2-14.2-4.3c-0.7-0.3-1.3-0.9-1.5-1.6c-0.2-0.7-0.2-1.5,0.2-2.2c0.1-0.1,5.2-8.6,6.5-17.2c0.7-4.8-1-11.5-2.6-18
				c-1.3-5.1-2.5-10-2.6-14.1c-0.3-11,4.3-15.7,4.8-16.2c1-1,2.7-1,3.7,0.1c1,1,1,2.7-0.1,3.7c-0.2,0.2-3.4,3.7-3.2,12.3
				c0.1,3.5,1.2,8.1,2.5,12.9c1.7,7,3.6,14.2,2.7,20c-1,6.6-3.8,12.9-5.6,16.4c2.6,0.9,6.7,2.2,12.2,3.4c0.9,0.2,1.7,0.9,1.9,1.9
				c0,0.1,4,14.8,7.9,22.6c2.3,4.6,4.6,6.8,7.5,7.4c5,0.9,12.5-3.1,21.8-11.5c0.6-0.6,1.5-0.8,2.3-0.6c0.8,0.2,1.5,0.8,1.9,1.6
				l4.6,11.1c0.6,1.3-0.1,2.9-1.4,3.4c-1.3,0.5-2.9-0.1-3.4-1.4l-3.2-7.7C347.9,511.3,341,514.8,335.2,514.8z"/>
			<path class="st8" d="M310.4,434.9c-1.1,0-2.1-0.7-2.5-1.7c-0.5-1.4,0.2-2.9,1.6-3.4c0.2-0.1,4-1.5,7.9-1.3
				c1.4,0.1,2.6,1.3,2.5,2.7c-0.1,1.4-1.3,2.6-2.7,2.5c-2.9-0.1-5.9,1-5.9,1C311,434.9,310.7,434.9,310.4,434.9z"/>
			<path class="st8" d="M328.3,502.6c-0.2,0-0.4,0-0.6-0.1c-1.4-0.3-2.3-1.7-2-3.1c1.1-4.9,1.2-10.5,1.2-14.1
				c-3.4,1.7-5.8,3.3-5.8,3.3c-1.2,0.8-2.8,0.5-3.6-0.8c-0.8-1.2-0.5-2.8,0.8-3.6c0.2-0.1,4.5-2.9,10.1-5.4c0.8-0.3,1.7-0.3,2.4,0.1
				c0.7,0.4,1.2,1.2,1.3,2c0,0.4,0.9,10.7-1.1,19.5C330.5,501.8,329.5,502.6,328.3,502.6z"/>
			<path class="st8" d="M415.4,492.1c-1.2,0-2.3-0.8-2.6-2.1c-5-23.9-2.1-51.7-0.7-65c1.7-15.7,1.1-31.9-14-43.8
				c-14.6-11.5-28.2-7.6-28.7-7.5c-1.4,0.4-2.8-0.4-3.3-1.8c-0.4-1.4,0.4-2.8,1.7-3.3c0.7-0.2,16.7-4.8,33.5,8.4
				c17.2,13.5,17.7,32.1,16,48.5c-1.4,13.1-4.2,40.2,0.6,63.4c0.3,1.4-0.6,2.8-2,3.1C415.8,492,415.6,492.1,415.4,492.1z"/>
			<path class="st8" d="M392.6,485.6c-0.9,0-1.9-0.5-2.3-1.4c-0.7-1.3-0.2-2.9,1.1-3.5c0.4-0.2,9-4.6,21.8-4.2
				c1.4,0,2.6,1.3,2.5,2.7c0,1.4-1.3,2.6-2.7,2.5c-11.5-0.4-19.1,3.6-19.2,3.6C393.4,485.5,393,485.6,392.6,485.6z"/>
			<path class="st8" d="M352.8,546.1c-1,0-1.9-0.5-2.3-1.4c-0.7-1.3-0.1-2.9,1.2-3.5l64.6-32.7c1.3-0.7,2.9-0.1,3.5,1.2
				c0.7,1.3,0.1,2.9-1.2,3.5L354,545.9C353.6,546,353.2,546.1,352.8,546.1z"/>
			<path class="st8" d="M343.6,726.2c-0.8,0-1.5-0.3-2-0.9c-0.9-1.1-0.8-2.8,0.3-3.7c15.7-13,24.2-56.2,28.8-79.4l0.5-2.7
				c4.6-23.2,8.9-45.2-1.7-63.2c-9.7-16.5-24.2-10.4-24.8-10.1c-1.3,0.6-2.9,0-3.5-1.3c-0.6-1.3,0-2.9,1.3-3.5
				c0.2-0.1,19.3-8.4,31.5,12.3c11.6,19.8,6.9,43.7,2.3,66.9l-0.5,2.7c-5,25.5-13.4,68.2-30.6,82.4
				C344.8,726,344.2,726.2,343.6,726.2z"/>
			<path class="st8" d="M309,679.3c-0.2,0-0.5,0-0.7-0.1c-1.4-0.4-2.2-1.8-1.8-3.2l4.5-16.8c0.4-1.4,1.8-2.2,3.2-1.8
				c1.4,0.4,2.2,1.8,1.8,3.2l-4.5,16.8C311.3,678.6,310.2,679.3,309,679.3z"/>
			<path class="st8" d="M245.5,679.5c-0.1,0-0.3,0-0.4,0c-1.4-0.2-2.4-1.5-2.2-3c3.6-24.9,26.5-33.4,27.5-33.7
				c1.4-0.5,2.9,0.2,3.4,1.6c0.5,1.4-0.2,2.9-1.6,3.4l0,0c-0.9,0.3-20.9,7.8-24.1,29.6C247.9,678.5,246.8,679.5,245.5,679.5z"/>
		</g>
	</g>
	<polygon class="st9" points="151.3,544.9 160.1,554.1 205.4,529.4 196.6,520.8 	"/>
	<polygon class="st9" points="215.1,592.4 248.4,571 256.9,579.5 226.3,602.4 	"/>
	<path class="st8" d="M224.9,602.9c-0.9,0-1.7-0.4-2.2-1.2c-0.8-1.2-0.4-2.8,0.8-3.6l29.3-19l-56.6-55l-40.4,21.5l45.2,45.8
		c1,1,1,2.7,0,3.7c-1,1-2.7,1-3.7,0l-47.7-48.3c-0.6-0.6-0.9-1.4-0.7-2.2c0.1-0.8,0.6-1.5,1.4-1.9l45.2-24c1-0.5,2.2-0.4,3.1,0.4
		l60.3,58.6c0.6,0.6,0.9,1.3,0.8,2.1c-0.1,0.8-0.5,1.5-1.2,1.9l-32.1,20.8C225.8,602.7,225.4,602.9,224.9,602.9z"/>
	<path class="st8" d="M165.5,552.7c-0.9,0-1.9-0.5-2.3-1.4c-0.7-1.3-0.2-2.9,1.1-3.5l34.2-18c1.3-0.7,2.9-0.2,3.5,1.1
		c0.7,1.3,0.2,2.9-1.1,3.5l-34.2,18C166.3,552.6,165.9,552.7,165.5,552.7z"/>
	<path class="st8" d="M217.4,593.6c-0.9,0-1.7-0.4-2.2-1.2c-0.8-1.2-0.4-2.8,0.8-3.6l25.4-16c1.2-0.8,2.8-0.4,3.6,0.8
		c0.8,1.2,0.4,2.8-0.8,3.6l-25.4,16C218.3,593.4,217.8,593.6,217.4,593.6z"/>
	<path class="st8" d="M237.6,625.7c-1.1,0-2.2-0.8-2.5-1.9c-4.2-15-10.1-19.4-15.3-23.2c-1.5-1.1-2.9-2.1-4.2-3.4
		c-2.7-2.6-4.5-7.7-6.5-13c-1.7-4.6-4.5-12.4-6.8-12.5c-1.3-0.1-1.6,0.4-1.7,0.5c-0.8,0.9-1,3.1-0.6,6.7c0.5,5.1,3.4,19.4,3.5,19.5
		c0.3,1.4-0.6,2.8-2,3.1c-1.4,0.3-2.8-0.6-3.1-2c-0.1-0.6-3-14.7-3.6-20.1c-0.4-3.8-0.5-8.1,2-10.8c1.4-1.5,3.3-2.3,5.7-2.2
		c5.9,0.1,8.7,7.8,11.6,15.9c1.6,4.4,3.4,9.3,5.2,11c1,1,2.3,1.9,3.7,2.9c5.3,3.9,12.6,9.2,17.3,26c0.4,1.4-0.4,2.8-1.8,3.2
		C238.1,625.7,237.8,625.7,237.6,625.7z"/>
	<g>
		<path class="st9" d="M190,475.8c-1,0-1.8,0.1-2.6,0.1c-24.4,0-44.3-19.8-44.3-44.3c0-24.4,19.8-44.3,44.2-44.3
			c24.4,0,44.2,19.8,44.2,44.3c0,20.3-13.7,37.4-32.4,42.6l0,0l-1.7,14L190,475.8L190,475.8z"/>
		<path class="st8" d="M197.5,490.9c-0.9,0-1.8-0.5-2.3-1.3l-6.7-11.1c-0.4,0-0.8,0-1.1,0c-25.9,0-47-21.1-47-46.9
			c0-25.9,21-46.9,46.9-46.9c25.9,0,46.9,21.1,46.9,46.9c0,20.4-13.3,38.5-32.6,44.7l-1.5,12.3c-0.1,1.1-1,2.1-2.1,2.3
			C197.8,490.9,197.7,490.9,197.5,490.9z M190,473.1c0.9,0,1.8,0.5,2.3,1.3l3.4,5.7l0.7-6.2c0.1-1,0.8-1.9,1.8-2.2
			c0.1,0,0.3-0.1,0.4-0.1c17.8-5.1,30.2-21.5,30.2-40c0-22.9-18.6-41.6-41.6-41.6c-22.9,0-41.5,18.7-41.5,41.6
			c0,22.9,18.7,41.6,41.6,41.6c0.8,0,1.6,0,2.4-0.1C189.8,473.1,189.9,473.1,190,473.1z"/>
	</g>
	<g>
		<rect x="161.3" y="413.8" class="st5" width="51.1" height="35.9"/>
		<path class="st8" d="M212.4,452.3h-51.1c-1.5,0-2.8-1.2-2.8-2.7v-35.8c0-1.5,1.3-2.7,2.8-2.7h51.1c1.5,0,2.7,1.2,2.7,2.7v35.8
			C215,451.1,213.9,452.3,212.4,452.3z M164,447h45.7v-30.5H164V447z"/>
	</g>
	<path class="st8" d="M187,438.4c-0.6,0-1.2-0.2-1.7-0.6l-18.3-14.3c-1.2-0.9-1.4-2.6-0.5-3.8c0.9-1.2,2.6-1.4,3.8-0.5l16.6,13
		l16.6-13c1.2-0.9,2.9-0.7,3.8,0.5c0.9,1.2,0.7,2.9-0.5,3.8l-18.3,14.3C188.2,438.2,187.6,438.4,187,438.4z"/>
</g>
<g>
	<g>
		<path class="st5" d="M927.8,607.1l20-73l151.7,10.3l-24.4,88.4l-3.5,4l-48.8,27.5l-41.9-2.8l-3.5-1.3c0,0-8,4.8-18.9,5.9l-6.7,2.1
			l-25.4,14.5l-46.3-14.5l-17.7-47.4c0,0,27.8-16.2,33.1-19.9C900.8,597.2,909.5,598.2,927.8,607.1z"/>
		<path class="st5" d="M656.5,720.7h125.9c0,0,0.5-67.1,0-83.9c-0.5-16.8-4.7-23.5-20.2-28c-15.5-4.5-74.9-14.2-74.9-14.2
			s-26.6-11.1-30.3,11.9L656.5,720.7z"/>
		<path class="st5" d="M867.9,453c0,0-5.8,4.9-9.5,1.5c0,0-0.7,16.8,8.9,27l-14.2,6.6c0,0-6.1,22.6-15.4,29.5
			c-9.3,6.9-25.9-11.6-25.9-11.6l-10.3,27.5l14.5,8.7l-57.2,36.1c0,0-46.5,9.1-65-21c0,0-1.7-24.3,11.3-38.6
			c13-14.4,30.9-30.3,39.5-59.9l1.6-8.9c0,0,3.4-36.9,11.4-52.3c8-15.4,24.6-21.3,42.1-18.5l7.6,0.8c0,0,12.9-9.3,25.3-3.7
			c12.4,5.5,26.6,24.5,26.6,24.5l3.3,2.8c0,0,8.4,0,12.1,11.7C878.3,426.7,874.7,438.9,867.9,453z"/>
		<path class="st6" d="M1029.1,458c0.7-22.1-16.6-40.6-38.7-41.4c-22.1-0.7-40.6,16.6-41.4,38.7c-0.7,19.8,13.2,36.8,32,40.6
			l6.3,11.8l7.1-11.4C1013.5,493.8,1028.4,477.8,1029.1,458z"/>
		<path class="st7" d="M807.2,476.6c-3.9,0-7,3.1-7,7c0,3.9,3.1,7,7,7c3.9,0,7-3.1,7-7C814.2,479.8,811.1,476.6,807.2,476.6z"/>
		<path class="st7" d="M907.7,650.9c-0.8-0.3-1.6-0.3-2.3,0.1l-24.6,10.8c-5.1-16.2-26.6-84.3-34.6-98.2c-9.2-16.1-28.2-24-29-24.3
			c-0.4-0.2-0.9-0.3-1.4-0.2l-32.2,2.2c-1.5,0.1-2.7,1.2-2.9,2.7c-4.3,29.8-20.8,31.1-21.9,31.2c-52.6-1.4-61.7-19-61.7-19.1
			c-0.6-1.3-2-2.1-3.4-1.8c-1.4,0.2-2.5,1.4-2.6,2.8l-3.3,35.7c-0.1,1.5,0.8,2.9,2.3,3.3c0.5,0.1,48.4,12.7,67,17.3
			c19.7,4.9,18,25,17.9,25.9c0,0.1,0,0.2,0,0.3v82.2c0,1.7,1.4,3.2,3.1,3.2h41.1c1.6,0,2.9-1.1,3.1-2.7l5.5-35.9
			c2.6,6,5.7,13.2,7,16.5c1.8,4.5,8.9,19.4,25.7,19.4c2.4,0,5-0.3,7.6-1c18.6-4.6,58.6-22.3,60.3-23.1c1-0.4,1.7-1.3,1.8-2.4
			C935.9,661.6,908,651,907.7,650.9z"/>
		<path class="st8" d="M853.8,456.4c-0.3,1.6-1.8,2.6-3.4,2.4c-1.6-0.3-2.6-1.8-2.4-3.4c0.3-1.6,1.8-2.6,3.4-2.4
			C853,453.2,854,454.8,853.8,456.4z"/>
		<path class="st5" d="M985.9,473C985.9,473,985.9,473,985.9,473c-0.9,0-1.7-0.6-2.3-1.2l-13.9-15.2c-1.2-1.3-1.1-3.3,0.2-4.5
			c1.3-1.2,3.3-1.1,4.4,0.2l11.6,12.6l18.8-19.9c1.2-1.3,3.2-1.3,4.4-0.1c1.3,1.2,1.3,3.2,0.1,4.4l-21.1,22.5
			C987.6,472.5,986.8,473,985.9,473z"/>
		<path class="st8" d="M855.4,446.2c-0.3,0-0.6-0.1-0.9-0.2c0,0-3.1-1.1-5.9-1c-1.5,0-2.7-1.1-2.7-2.5c-0.1-1.4,1.1-2.7,2.5-2.7
			c3.9-0.2,7.8,1.2,7.9,1.3c1.4,0.5,2.1,2,1.6,3.4C857.5,445.5,856.5,446.2,855.4,446.2z"/>
		<path class="st8" d="M838.6,509.7c-1.2,0-2.3-0.8-2.6-2c-2-9-0.1-18.4,0-18.8c0.2-0.8,0.7-1.4,1.4-1.8c0.7-0.4,1.5-0.4,2.3-0.1
			c5.7,2.5,9.2,5.5,9.3,5.6c1.1,1,1.2,2.6,0.3,3.7c-1,1.1-2.6,1.2-3.7,0.3l0,0c0,0-1.8-1.5-4.9-3.2c-0.3,3.2-0.6,8.3,0.5,13.2
			c0.3,1.4-0.6,2.8-2,3.1C839,509.7,838.8,509.7,838.6,509.7z"/>
		<path class="st8" d="M657,723.3c-1.4,0-2.6-1.2-2.6-2.6V610.4c0-8.1,2.3-14,6.8-17.6c6.6-5.3,15.4-3.4,15.8-3.3l26,6.2
			c1.4,0.3,2.3,1.7,1.9,3.2c-0.3,1.4-1.8,2.3-3.2,1.9l-26-6.2c0,0-6.7-1.4-11.4,2.3c-3.2,2.6-4.8,7.1-4.8,13.5v110.3
			C659.6,722.1,658.5,723.3,657,723.3z"/>
		<path class="st8" d="M1075.2,635.4c-0.2,0-0.5,0-0.7-0.1c-1.4-0.4-2.2-1.8-1.8-3.2l23.5-85.3l-146.4-9.9l-18.2,65.9
			c-0.4,1.4-1.8,2.2-3.2,1.8c-1.4-0.4-2.2-1.8-1.8-3.2l18.7-68c0.3-1.2,1.5-2,2.7-1.9l151.7,10.3c0.8,0.1,1.5,0.5,2,1.1
			c0.5,0.6,0.6,1.5,0.4,2.2l-24.4,88.4C1077.4,634.6,1076.4,635.4,1075.2,635.4z"/>
		<path class="st8" d="M1067.1,634.2c-0.1,0-0.1,0-0.2,0l-53.4-3.6c-1.4-0.1-2.5-1.3-2.4-2.8c0.1-1.4,1.3-2.5,2.8-2.4l53.4,3.6
			c1.4,0.1,2.5,1.3,2.4,2.8C1069.7,633.1,1068.5,634.2,1067.1,634.2z"/>
		<path class="st8" d="M1022.9,666.9c-0.1,0-0.1,0-0.2,0l-41.9-2.8c-1.4-0.1-2.5-1.3-2.4-2.8c0.1-1.4,1.3-2.5,2.8-2.4l41.1,2.8
			l48.1-27.1c1.3-0.7,2.9-0.3,3.6,1c0.7,1.3,0.3,2.9-1,3.6l-48.8,27.5C1023.8,666.8,1023.4,666.9,1022.9,666.9z"/>
		<path class="st8" d="M958.7,668.7c-1.4,0-2.5-1.1-2.6-2.4c-0.1-1.4,1-2.7,2.4-2.8c22.1-1.6,31.8-18.7,36-26.1
			c0.4-0.7,0.8-1.4,1.1-1.9c4.1-6.9,7.7-7.3,8.7-7.3c1.4,0,2.6,1.2,2.6,2.7c0,1.4-1.1,2.5-2.4,2.6c-0.3,0.1-2,0.8-4.4,4.8
			c-0.3,0.5-0.6,1.1-1,1.8c-4.6,8.1-15.3,27-40.2,28.7C958.8,668.7,958.7,668.7,958.7,668.7z"/>
		<path class="st8" d="M883.9,645.1c-3.3,0-6.9-1.2-10.7-4.4c-1.1-0.9-1.2-2.6-0.3-3.7c0.9-1.1,2.6-1.2,3.7-0.3
			c6.4,5.5,11.5,2.8,18.1-1.5c2.2-1.4,4.2-2.8,6.2-3.4c5.2-1.5,9-0.8,15.4,0.2c2,0.3,4.2,0.7,6.9,1.1c1.4,0.2,3.3,0.2,4.2-0.8
			c0.7-0.8,0.9-2.2,0.9-3.3c-13-2.4-23.5-8.3-23.9-8.5c-0.8-0.4-1.3-1.2-1.3-2.1c-0.1-0.9,0.3-1.7,1-2.3l5.7-4.6
			c1.1-0.9,2.8-0.7,3.7,0.4c0.9,1.1,0.7,2.8-0.4,3.7l-2.5,2c4.3,2,12.1,5.2,20.6,6.5c1.1,0.2,1.9,1,2.2,2c0.1,0.6,1.2,6.1-2,9.7
			c-2,2.1-4.9,3-8.8,2.4c-2.7-0.4-5-0.8-7-1.1c-6.2-1-9.1-1.5-13.1-0.3c-1.2,0.3-2.9,1.5-4.8,2.7C894,642,889.3,645.1,883.9,645.1z"
			/>
		<path class="st8" d="M807.8,480.5c-1.2,0-2.5-0.4-3.7-1.1c-3.3-2-6-6.5-7-12.1c-1-5.4-0.6-12.9,2.6-17.5c1.6-2.3,3.9-3.7,6.5-4.1
			c7.7-1.2,11.1,4.9,11.8,8.3c0.3,1.4-0.6,2.8-2,3.1c-1.4,0.3-2.8-0.6-3.1-2c-0.2-0.8-1.4-5-5.8-4.3c-1.2,0.2-2.2,0.8-3,2
			c-2.2,3.1-2.6,9.2-1.8,13.5c0.9,4.9,3,7.7,4.5,8.5c0.8,0.4,1.2,0.4,1.5,0.3c1.4-0.5,2.9,0.3,3.3,1.6c0.5,1.4-0.3,2.9-1.6,3.3
			C809.3,480.4,808.5,480.5,807.8,480.5z"/>
		<path class="st8" d="M815.6,455.7c-1.3,0-2.4-0.9-2.6-2.2c-0.2-1.4,0.7-2.8,2.2-3c2.1-0.4,6.7-4.1,12.7-13.4
			c1.3-2,2.6-4.3,3.9-6.5c3.9-6.7,7.5-13.1,12.3-15.7c3-1.6,5.3-1.3,6.8-0.7c3.3,1.3,4.6,4.7,4.7,5c0.5,1.4-0.2,2.9-1.6,3.4
			c-1.4,0.5-2.8-0.2-3.3-1.6c-0.2-0.4-0.8-1.6-1.7-1.9c-0.6-0.2-1.4-0.1-2.4,0.5c-3.5,1.9-7,7.9-10.3,13.7c-1.3,2.3-2.6,4.6-4,6.8
			c-4.3,6.7-10.5,14.8-16.3,15.7C815.9,455.6,815.7,455.7,815.6,455.7z"/>
		<path class="st8" d="M833.3,521.3c-6.5,0-14.4-4.7-24.5-14.5c-1-1-1.1-2.7,0-3.7c1-1,2.7-1.1,3.7,0c9.4,9.2,16.7,13.5,21.7,13
			c2.6-0.3,4.7-2,6.8-5.2c4.9-7.7,9.6-23.3,9.6-23.4c0.2-0.8,0.8-1.4,1.6-1.7c4-1.5,8.3-3.6,11-5c-7.2-9.8-8.6-25.3-6.7-33.2
			c2.8-11.2,3.3-19.8,3.3-19.9c0.1-1.4,1.3-2.6,2.8-2.5c1.4,0.1,2.5,1.3,2.5,2.8c0,0.4-0.6,9.1-3.5,20.8c-1.8,7.5,0.2,23.3,7.6,30.9
			c0.6,0.6,0.8,1.4,0.7,2.2c-0.1,0.8-0.6,1.5-1.3,1.9c-0.3,0.2-6.9,3.8-13.3,6.3c-1.2,4-5.3,16.4-9.8,23.5c-3,4.6-6.4,7.1-10.6,7.6
			C834.4,521.3,833.9,521.3,833.3,521.3z"/>
		<path class="st8" d="M810.7,449.8c-0.3,0-0.6-0.1-0.9-0.2c-1.4-0.5-2.1-2-1.6-3.4c3.4-9.3,8.5-17.8,8.7-18.2
			c0.7-1.2,2.4-1.6,3.6-0.9c1.2,0.7,1.6,2.4,0.9,3.6c-0.1,0.1-5,8.4-8.3,17.3C812.8,449.1,811.8,449.8,810.7,449.8z"/>
		<path class="st8" d="M867.9,455.7c-0.4,0-0.8-0.1-1.2-0.3c-1.3-0.7-1.8-2.3-1.1-3.5c7.3-13.9,9.8-25.3,7.3-33.8
			c-3.1-10.6-10.4-12-10.8-12c-1.4-0.2-2.4-1.6-2.2-3c0.2-1.4,1.5-2.4,3-2.2c0.4,0.1,10.9,1.8,15,15.8c2.9,10,0.4,22.3-7.7,37.7
			C869.7,455.1,868.8,455.7,867.9,455.7z"/>
		<path class="st8" d="M758.8,579.9c-1.3,0-2.4-0.9-2.6-2.2c-0.2-1.4,0.7-2.8,2.1-3c21.6-3.8,24.4-44.1,25.9-65.8
			c0.3-4.6,0.6-8.2,0.9-10.7c2-13.2,9.1-21.5,9.4-21.8c1-1.1,2.6-1.2,3.7-0.2c1.1,1,1.2,2.6,0.2,3.7c-0.1,0.1-6.5,7.5-8.2,19.1
			c-0.3,2.3-0.6,6-0.9,10.3c-1.6,23.1-4.6,66.1-30.2,70.6C759.1,579.9,758.9,579.9,758.8,579.9z"/>
		<path class="st8" d="M859.2,403.2c-0.7,0-1.3-0.3-1.9-0.8c-0.2-0.2-5.6-5.6-13.4-15c-9.7-11.6-22.6-13.2-36.5-4.5
			c-1.2,0.8-2.8,0.4-3.6-0.8c-0.8-1.2-0.4-2.8,0.8-3.6c16.2-10.1,32-8,43.3,5.6c7.7,9.2,13.1,14.6,13.1,14.7c1,1,1,2.7,0,3.7
			C860.5,403,859.9,403.2,859.2,403.2z"/>
		<path class="st8" d="M931.3,683c-0.9,0-1.8-0.5-2.3-1.3c-0.7-1.2-0.3-2.9,0.9-3.6l20.7-12.2c1.2-0.7,2.9-0.3,3.6,0.9
			c0.7,1.2,0.3,2.9-0.9,3.6l-20.7,12.2C932.2,682.9,931.8,683,931.3,683z"/>
		<path class="st8" d="M746.2,452.5c-0.1,0-0.3,0-0.5,0c-1.4-0.2-2.4-1.6-2.1-3c0.6-3.5,1.1-7.6,1.6-12c2.2-18.5,5-41.4,19.4-52.5
			c17.8-13.7,35.1-8.5,35.8-8.3c1.4,0.4,2.2,1.9,1.7,3.3c-0.4,1.4-1.9,2.1-3.3,1.7c-0.7-0.2-15.5-4.5-31,7.4
			c-12.6,9.8-15.3,31.5-17.4,49c-0.5,4.5-1.1,8.7-1.7,12.3C748.6,451.6,747.5,452.5,746.2,452.5z"/>
		<path class="st8" d="M693.8,559.9c-1.4,0-2.5-1-2.6-2.4c-2-27.6,12.8-42.7,24.7-54.7c4.2-4.3,8.2-8.3,11.1-12.5
			c10.3-14.8,15-32.1,15.1-32.2c0.4-1.4,1.8-2.2,3.2-1.9c1.4,0.4,2.2,1.8,1.9,3.2c-0.2,0.7-5,18.4-15.8,33.9
			c-3.2,4.5-7.3,8.7-11.7,13.2c-11.8,11.9-25.1,25.4-23.2,50.6c0.1,1.4-1,2.7-2.4,2.8C693.9,559.9,693.9,559.9,693.8,559.9z"/>
		<path class="st8" d="M707.9,569.3c0,0-0.1,0-0.1,0c-1.4-0.1-2.6-1.3-2.5-2.7c1.2-27.5,11.4-40,11.9-40.5c0.9-1.1,2.6-1.3,3.7-0.3
			c1.1,0.9,1.3,2.6,0.3,3.7c-0.2,0.2-9.6,11.9-10.7,37.3C710.4,568.2,709.3,569.3,707.9,569.3z"/>
		<path class="st8" d="M739.9,579.9c-0.9,0-1.8-0.5-2.3-1.4c-0.7-1.3-0.2-2.9,1.1-3.6c20.7-11.2,24.8-60.6,24.8-61.1
			c0.1-1.4,1.4-2.5,2.8-2.4c1.4,0.1,2.5,1.4,2.4,2.8c-0.2,2.1-4.3,52.7-27.6,65.3C740.8,579.8,740.3,579.9,739.9,579.9z"/>
		<path class="st8" d="M727.3,573.6c-0.6,0-1.2-0.2-1.7-0.6c-1.1-0.9-1.3-2.6-0.3-3.7c9.9-11.9,16.8-30.5,16.9-30.7
			c0.5-1.4,2-2,3.4-1.6c1.4,0.5,2.1,2,1.6,3.4c-0.3,0.8-7.3,19.6-17.7,32.2C728.8,573.3,728.1,573.6,727.3,573.6z"/>
		<path class="st8" d="M804.4,512.3c-0.5,0-1-0.1-1.4-0.4c-8.2-5.4-15.6-8.5-15.7-8.5c-1.3-0.6-2-2.1-1.4-3.4c0.6-1.3,2.1-2,3.4-1.4
			c0.3,0.1,8,3.3,16.6,9c1.2,0.8,1.5,2.4,0.7,3.6C806.1,511.9,805.3,512.3,804.4,512.3z"/>
		<path class="st8" d="M802.8,532.7c-0.3,0-0.6-0.1-0.9-0.2c-1.4-0.5-2.1-2-1.6-3.4l6.3-17.3c0.5-1.4,2-2.1,3.4-1.6
			c1.4,0.5,2.1,2,1.6,3.4l-6.3,17.3C804.9,532.1,803.9,532.7,802.8,532.7z"/>
		<path class="st8" d="M809.7,541.5c-0.5,0-1-0.1-1.4-0.4l-9.3-6.1l0,0c0,0-6.4-3.9-12.9-5.9c-1.4-0.4-2.2-1.9-1.7-3.3
			c0.4-1.4,1.9-2.2,3.3-1.7c7.1,2.2,13.9,6.3,14.2,6.5l9.4,6.2c1.2,0.8,1.5,2.4,0.7,3.6C811.3,541.1,810.5,541.5,809.7,541.5z"/>
		<path class="st8" d="M806,611.4c-0.1,0-0.3,0-0.4,0c-1.4-0.2-2.4-1.6-2.2-3c0.2-1.4,5.6-33.8,18.6-42.3
			c10.5-6.9,17.8-3.9,18.1-3.8c1.3,0.6,1.9,2.1,1.4,3.4c-0.6,1.3-2.1,1.9-3.4,1.4c-0.3-0.1-5.2-1.9-13.2,3.3
			c-9.2,6-14.9,30-16.3,38.7C808.4,610.5,807.2,611.4,806,611.4z"/>
		<path class="st8" d="M828.5,685.3c-1.1,0-2.1-0.6-2.5-1.7l-22.5-59.8c-0.5-1.4,0.2-2.9,1.5-3.4c1.4-0.5,2.9,0.2,3.4,1.5l22.5,59.8
			c0.5,1.4-0.2,2.9-1.5,3.4C829.1,685.3,828.8,685.3,828.5,685.3z"/>
		<path class="st8" d="M883,672c-1,0-2-0.6-2.4-1.7l-2.8-7.1c-0.5-1.3,0.1-2.9,1.5-3.4c1.3-0.5,2.9,0.1,3.4,1.5l2.8,7.1
			c0.5,1.3-0.1,2.9-1.5,3.4C883.7,671.9,883.3,672,883,672z"/>
	</g>
	<polygon class="st9" points="1084.7,555.3 1066.6,620.3 997.3,616.1 982.4,609.9 970.7,605.8 961.9,613.8 937.1,611 956,545.7 	"/>
	<path class="st8" d="M1066.5,623.4c-0.1,0-0.1,0-0.2,0l-66.6-4.5c-1.4-0.1-2.5-1.3-2.4-2.8c0.1-1.4,1.3-2.5,2.8-2.4l64.5,4.3
		l16.8-61.7L958,548l-15.8,57.8c-0.4,1.4-1.8,2.2-3.2,1.8c-1.4-0.4-2.2-1.8-1.8-3.2l16.3-59.9c0.3-1.2,1.5-2,2.7-1.9l128.7,8.7
		c0.8,0.1,1.5,0.5,2,1.1c0.5,0.6,0.6,1.5,0.4,2.2l-18.2,66.9C1068.8,622.6,1067.7,623.4,1066.5,623.4z"/>
	<path class="st8" d="M914.5,656.5c-1,0-1.9-0.5-2.4-1.5c-0.6-1.3-0.1-2.9,1.2-3.5l25.5-12.7c6.7-7.1,11.8-13.7,16.4-19.6
		c3.7-4.8,6.9-8.9,10-12c2.6-2.6,5.3-3.7,8.1-3.4c2.8,0.3,5,2.1,6.2,3.5c2.2-0.5,4-0.1,5.1,0.5c1.9,0.9,3.1,2.4,3.9,3.7
		c2.5-0.6,4.7-0.4,6.6,0.8c2,1.2,3.2,3.1,3.9,4.7c2.2-0.5,4.5-0.4,6.6,0.4c7.5,2.7,11.9,12.7,14.5,18.7c0.5,1.1,0.9,2,1.2,2.6
		c1.7,3.2,1.2,6.6-1.2,8.6c-2.1,1.8-5.9,2.3-9.5-0.5c-4.8-3.7-10.3-9.5-10.6-9.7c-1-1.1-0.9-2.7,0.1-3.7c1.1-1,2.7-1,3.7,0.1
		c0.1,0.1,5.5,5.8,9.9,9.2c1.4,1,2.5,1.1,3,0.6c0.5-0.4,0.4-1.3-0.1-2.2c-0.4-0.7-0.8-1.7-1.3-2.9c-2.1-4.9-6.1-13.9-11.5-15.9
		c-1.7-0.6-3.5-0.5-5.4,0.5c-0.8,0.4-1.7,0.4-2.4,0c-0.8-0.4-1.3-1.2-1.3-2c-0.1-0.8-0.7-3.1-2.1-3.9c-1-0.6-2.5-0.5-4.4,0.4
		c-0.7,0.3-1.5,0.3-2.2,0c-0.7-0.3-1.2-0.9-1.4-1.6c-0.2-0.6-0.9-2.3-2.2-2.9c-0.3-0.1-1.1-0.5-2.8,0.3c-1.2,0.5-2.6,0.1-3.3-1
		c-0.4-0.7-1.9-2.5-3.7-2.7c-1.1-0.1-2.4,0.5-3.8,1.9c-2.9,2.9-6,6.9-9.6,11.5c-4.5,5.7-10,12.9-17,20.3c-0.2,0.2-0.5,0.4-0.7,0.5
		l-25.9,12.9C915.3,656.4,914.9,656.5,914.5,656.5z"/>
	<path class="st8" d="M948.6,625.3c-7.3,0-19.4-2.5-39-7.9c-1.4-0.4-2.2-1.8-1.8-3.2c0.4-1.4,1.8-2.2,3.2-1.8
		c15.8,4.4,34.7,9.2,41.3,7.4c2.1-0.6,3.2-2.2,3.8-3.6c-19.4-1.9-35.9-8.8-43.2-11.8l-0.5-0.2c-6-2.5-11.2-2.7-15.7-0.7
		c-3.6,1.6-20.8,12.9-27.1,17.1c-1.2,0.8-2.8,0.5-3.6-0.7c-0.8-1.2-0.5-2.8,0.7-3.6c2.4-1.6,23.2-15.5,27.9-17.5
		c5.8-2.6,12.5-2.3,19.8,0.7l0.5,0.2c7.4,3.1,24.8,10.3,44.6,11.6c1.4,0.1,2.5,1.3,2.4,2.8c0,0.4-0.6,8.8-8.2,10.9
		C952.3,625.1,950.6,625.3,948.6,625.3z"/>
	<polygon class="st5" points="1035.9,570.1 1029.5,598.2 985.6,593.8 992.9,566.7 	"/>
	<path class="st8" d="M1029,600.2c-0.1,0-0.1,0-0.2,0l-44-3c-0.8-0.1-1.5-0.4-1.9-1.1c-0.5-0.6-0.6-1.4-0.4-2.2l7.1-27.9
		c0.3-1.2,1.5-2.1,2.7-2l43.9,3c0.8,0.1,1.5,0.4,1.9,1.1c0.5,0.6,0.6,1.4,0.4,2.2l-7.1,27.9C1031.2,599.4,1030.2,600.2,1029,600.2z
		 M988.4,592.2l38.6,2.6l5.8-22.7l-38.6-2.6L988.4,592.2z"/>
	<path class="st8" d="M1010.6,584.7c-0.6,0-1.2-0.2-1.7-0.6l-18.4-15.4c-1.1-0.9-1.3-2.6-0.3-3.7c0.9-1.1,2.6-1.3,3.7-0.3L1011,579
		l24-11.7c1.3-0.6,2.9-0.1,3.5,1.2c0.6,1.3,0.1,2.9-1.2,3.5l-25.5,12.5C1011.4,584.6,1011,584.7,1010.6,584.7z"/>
</g>
</svg>
