<?xml version="1.0" encoding="utf-8"?>
<!-- Generator: Adobe Illustrator 28.1.0, SVG Export Plug-In . SVG Version: 6.00 Build 0)  -->
<svg version="1.1" id="レイヤー_1" xmlns="http://www.w3.org/2000/svg" xmlns:xlink="http://www.w3.org/1999/xlink" x="0px"
	 y="0px" viewBox="0 0 1200 793.9" style="enable-background:new 0 0 1200 793.9;" xml:space="preserve">
<style type="text/css">
	.st0{fill:#F3A11A;}
	.st1{fill:#FBFBFB;}
	.st2{fill:#FFFFFF;}
	.st3{fill:#80DEF0;}
	.st4{fill:#F8CA7F;}
	.st5{fill:#4D4D4D;}
	.st6{fill:#FFE964;}
	.st7{fill:#FFFF00;}
	.st8{fill:#F29600;}
	.st9{fill:#FCEACC;}
	.st10{fill:none;stroke:url(#);stroke-width:6.8925;stroke-linecap:round;stroke-linejoin:round;}
	.st11{fill:none;}
	.st12{fill:#DADBDB;}
	.st13{fill:#251E1C;}
	.st14{fill:#66D7ED;}
	.st15{fill:#727171;}
	.st16{fill:#FEF4E5;}
	.st17{fill:#CCCCCC;}
	.st18{fill:none;stroke:#808080;stroke-width:1.5318;stroke-miterlimit:10;}
	.st19{fill:#E85151;}
	.st20{fill:#FFD759;}
	.st21{fill:#4BD961;}
	.st22{fill:none;stroke:#E6E6E6;stroke-width:1.8093;stroke-miterlimit:10;}
	.st23{fill:#59C2E1;}
	.st24{fill:#796A56;}
	.st25{fill:#9CDBED;}
	.st26{fill:none;stroke:#F29600;stroke-width:1.8093;stroke-miterlimit:10;}
	.st27{fill:none;stroke:#797979;stroke-width:1.7231;stroke-miterlimit:10;}
	.st28{fill:#F2F2F2;}
	.st29{fill:#EAECEF;}
	.st30{fill:#AAAAAA;}
</style>
<rect x="0" class="st1" width="1200" height="793.9"/>
<g>
	<path class="st16" d="M51.4,717c0,8.4,6.9,15.3,15.3,15.3h1081.8V123.2H51.4V717z"/>
</g>
<path class="st2" d="M1075.8,192.1H696.7h-18.4h-48.5h-23.3h-48.5h-18.4H124.2c-10.1,0-18.4,8.3-18.4,18.4v455v48.5v18.4h18.4h48.5
	h366.7h18.4h48.5h23.3h48.5h18.4h330.5h48.5h18.4v-18.4v-48.5v-455C1094.1,200.3,1085.9,192.1,1075.8,192.1z"/>
<path class="st17" d="M1133.3,61.6H678.6H66.7c-8.4,0-15.3,6.9-15.3,15.3v46.3h627.2h470V76.9C1148.6,68.5,1141.7,61.6,1133.3,61.6z
	"/>
<path class="st2" d="M882.6,77.3H600H317.4c-4.2,0-7.7,3.4-7.7,7.7v16.5c0,4.2,3.4,7.7,7.7,7.7H600h282.6c4.2,0,7.7-3.4,7.7-7.7V85
	C890.3,80.7,886.8,77.3,882.6,77.3z"/>
<line class="st18" x1="51.4" y1="123.2" x2="1148.6" y2="123.2"/>
<g>
	<path class="st8" d="M465.8,265.7h29.7v3.7h-29.7V265.7z M469.2,253.9h22.4v3.5h-22.4V253.9z M480.3,268.6h4.1v12.8
		c0,1-0.2,1.8-0.5,2.4c-0.3,0.6-0.9,1-1.7,1.2c-0.8,0.3-1.7,0.5-2.9,0.5c-1.2,0.1-2.5,0.1-4.1,0.1c-0.1-0.6-0.3-1.2-0.6-1.9
		c-0.3-0.7-0.6-1.3-0.9-1.8c0.7,0,1.5,0,2.3,0.1c0.8,0,1.5,0,2.1,0c0.6,0,1,0,1.3,0c0.3,0,0.6-0.1,0.7-0.2c0.1-0.1,0.2-0.3,0.2-0.5
		V268.6z M474.3,262l2-2.9c1,0.4,2.1,0.8,3.3,1.2c1.2,0.5,2.4,0.9,3.7,1.4c1.2,0.5,2.4,1,3.5,1.4c1.1,0.5,2,0.9,2.8,1.2l-2.1,3.3
		c-0.7-0.4-1.7-0.8-2.7-1.3c-1.1-0.5-2.2-1-3.4-1.5c-1.2-0.5-2.4-1-3.7-1.5C476.4,262.9,475.3,262.4,474.3,262z M490.1,253.9h1
		l0.9-0.2l2.8,2.2c-1,1-2.1,2-3.4,3.1c-1.3,1-2.6,2-3.9,3c-1.3,0.9-2.6,1.8-3.9,2.5c-0.2-0.3-0.4-0.6-0.7-0.9
		c-0.3-0.3-0.6-0.6-0.9-1c-0.3-0.3-0.6-0.6-0.8-0.8c1.1-0.6,2.2-1.3,3.3-2.1c1.1-0.8,2.2-1.7,3.2-2.6c1-0.9,1.8-1.7,2.3-2.4V253.9z
		 M494.2,265.7h0.8l0.7-0.3l3.1,1.4c-0.8,1.7-1.8,3.3-2.8,5c-1.1,1.7-2.1,3.1-3.2,4.3l-3.3-1.9c0.6-0.7,1.1-1.5,1.7-2.3
		c0.6-0.9,1.1-1.8,1.6-2.8c0.5-1,1-1.9,1.4-2.8V265.7z"/>
	<path class="st8" d="M505.6,273l3.2,0.6c-0.2,1.7-0.5,3.4-0.9,5.1c-0.4,1.7-0.9,3.1-1.4,4.3c-0.2-0.1-0.5-0.3-0.9-0.5
		c-0.4-0.2-0.7-0.4-1.1-0.5c-0.4-0.2-0.7-0.3-1-0.4c0.6-1.1,1-2.4,1.3-3.9C505.2,276.1,505.4,274.6,505.6,273z M503.9,268
		c1.7,0,3.7-0.1,6-0.2c2.3-0.1,4.7-0.2,7.1-0.3l0,3.1c-2.3,0.2-4.5,0.3-6.7,0.5s-4.2,0.3-6,0.4L503.9,268z M504,260.2l1.8-2.6
		c0.7,0.6,1.3,1.2,2,1.8c0.7,0.7,1.3,1.3,1.9,2c0.6,0.7,1,1.3,1.3,1.8l-2,3c-0.3-0.6-0.7-1.2-1.3-1.9c-0.5-0.7-1.1-1.4-1.8-2.1
		C505.2,261.5,504.6,260.8,504,260.2z M509.6,252l3.4,1.2c-0.5,0.9-1,1.9-1.5,2.8c-0.5,1-1.1,1.9-1.6,2.8c-0.5,0.9-1,1.7-1.5,2.3
		l-2.6-1.1c0.5-0.7,0.9-1.6,1.4-2.5c0.5-0.9,0.9-1.9,1.3-2.9C508.9,253.7,509.3,252.8,509.6,252z M513.9,256.2l3.3,1.4
		c-0.9,1.4-1.8,2.8-2.9,4.3c-1,1.5-2.1,3-3.1,4.3c-1.1,1.4-2,2.6-3,3.6l-2.4-1.2c0.7-0.8,1.4-1.7,2.2-2.8c0.7-1,1.5-2.1,2.2-3.2
		c0.7-1.1,1.4-2.2,2-3.3C512.9,258.2,513.4,257.2,513.9,256.2z M509.8,269.6h3.4v16.1h-3.4V269.6z M512.9,264.8l2.8-1.2
		c0.5,0.8,1,1.7,1.4,2.6c0.5,0.9,0.9,1.8,1.2,2.7c0.3,0.9,0.6,1.7,0.8,2.4l-3,1.4c-0.2-0.7-0.4-1.5-0.7-2.4
		c-0.3-0.9-0.7-1.8-1.1-2.8C513.9,266.5,513.4,265.6,512.9,264.8z M513.7,273.8l2.9-0.9c0.5,1.1,1,2.3,1.4,3.6
		c0.4,1.3,0.8,2.4,1,3.3l-3.1,1.1c-0.2-0.9-0.5-2.1-0.9-3.4C514.6,276.1,514.1,274.9,513.7,273.8z M522.4,251.9l4,0.9
		c-0.5,1.8-1.1,3.5-1.8,5.2c-0.7,1.7-1.5,3.3-2.3,4.8c-0.8,1.5-1.7,2.8-2.6,3.9c-0.3-0.2-0.6-0.5-1-0.8c-0.4-0.3-0.9-0.6-1.3-0.9
		c-0.4-0.3-0.8-0.5-1.1-0.7c0.9-1,1.8-2.1,2.6-3.5c0.8-1.3,1.5-2.7,2.1-4.3C521.5,255,522,253.5,522.4,251.9z M520.9,268.1l3.1-1.6
		c0.7,0.8,1.3,1.8,1.9,2.7c0.6,1,1.2,1.9,1.7,2.9c0.5,1,0.9,1.8,1.2,2.6l-3.4,1.8c-0.2-0.8-0.6-1.6-1.1-2.6c-0.5-1-1-2-1.6-3
		C522.2,269.9,521.6,268.9,520.9,268.1z M521.8,258.2h13.2v3.7h-13.2V258.2z M533.4,258.2h3.7c0,0.5,0,0.9,0,1.2s0,0.5,0,0.7
		c-0.1,4-0.3,7.4-0.4,10.2c-0.1,2.8-0.3,5.1-0.5,6.9c-0.2,1.8-0.4,3.2-0.7,4.3c-0.3,1-0.6,1.8-0.9,2.3c-0.5,0.6-1,1.1-1.5,1.3
		c-0.5,0.3-1.2,0.4-1.9,0.5c-0.6,0.1-1.5,0.1-2.5,0.1c-1,0-2.1,0-3.1-0.1c0-0.6-0.2-1.2-0.4-2c-0.2-0.7-0.5-1.4-0.9-1.9
		c1.2,0.1,2.2,0.2,3.2,0.2c1,0,1.7,0,2.2,0c0.4,0,0.7,0,0.9-0.1c0.2-0.1,0.5-0.2,0.7-0.5c0.3-0.3,0.6-1,0.8-1.9
		c0.2-1,0.4-2.3,0.6-4.1c0.2-1.8,0.3-4,0.5-6.7c0.1-2.7,0.3-5.9,0.4-9.6V258.2z"/>
	<path class="st8" d="M543.2,272.5c0.5-0.4,1-0.9,1.4-1.2c0.4-0.4,0.9-0.9,1.4-1.4c0.4-0.4,0.9-1,1.5-1.6c0.5-0.6,1.1-1.3,1.8-2.1
		c0.6-0.8,1.3-1.5,1.9-2.3c0.7-0.8,1.3-1.5,1.9-2.2c1-1.2,2.1-1.9,3.2-2c1.1-0.1,2.3,0.4,3.6,1.7c0.8,0.7,1.7,1.5,2.5,2.4
		c0.9,0.9,1.7,1.8,2.6,2.6c0.8,0.9,1.6,1.7,2.3,2.5c0.8,0.9,1.7,1.9,2.8,2.9c1,1.1,2.1,2.2,3.1,3.4c1.1,1.2,2.1,2.2,3,3.2l-3.5,3.8
		c-0.8-1-1.7-2.1-2.6-3.2c-0.9-1.1-1.8-2.2-2.7-3.3c-0.9-1.1-1.7-2-2.4-2.8c-0.5-0.6-1.1-1.3-1.8-2c-0.6-0.7-1.3-1.4-1.9-2.1
		c-0.6-0.7-1.2-1.3-1.8-1.9s-1-1-1.3-1.4c-0.6-0.6-1.2-0.9-1.6-0.9c-0.4,0-0.9,0.4-1.5,1.1c-0.4,0.5-0.8,1-1.3,1.7
		c-0.5,0.7-1,1.3-1.5,2c-0.5,0.7-1,1.4-1.5,2.1c-0.5,0.7-0.9,1.3-1.3,1.7c-0.4,0.5-0.8,1.1-1.2,1.7c-0.4,0.6-0.8,1.1-1.1,1.6
		L543.2,272.5z M565.6,260.5c0-0.8,0.2-1.6,0.6-2.3c0.4-0.7,1-1.3,1.7-1.7c0.7-0.4,1.5-0.6,2.3-0.6c0.8,0,1.6,0.2,2.3,0.6
		c0.7,0.4,1.3,1,1.7,1.7c0.4,0.7,0.6,1.5,0.6,2.3c0,0.8-0.2,1.6-0.6,2.3c-0.4,0.7-1,1.3-1.7,1.7c-0.7,0.4-1.5,0.6-2.3,0.6
		c-0.8,0-1.6-0.2-2.3-0.6c-0.7-0.4-1.3-1-1.7-1.7C565.8,262.2,565.6,261.4,565.6,260.5z M567.7,260.5c0,0.7,0.2,1.2,0.7,1.7
		c0.5,0.5,1,0.7,1.7,0.7c0.7,0,1.2-0.2,1.7-0.7c0.5-0.5,0.7-1,0.7-1.7c0-0.7-0.2-1.2-0.7-1.7c-0.5-0.5-1-0.7-1.7-0.7
		c-0.7,0-1.2,0.2-1.7,0.7C568,259.3,567.7,259.9,567.7,260.5z"/>
	<path class="st8" d="M584.1,266.1c0.4,0,0.9,0.1,1.6,0.1c0.6,0,1.3,0.1,2,0.1c0.7,0,1.4,0,2,0c0.6,0,1.3,0,2.1,0s1.8,0,2.9,0
		c1.1,0,2.2,0,3.3,0s2.3,0,3.4,0c1.1,0,2.2,0,3.2,0c1,0,1.9,0,2.7,0c0.8,0,1.4,0,1.9,0c0.9,0,1.7,0,2.4-0.1c0.7-0.1,1.3-0.1,1.8-0.1
		v5.1c-0.4,0-1-0.1-1.8-0.1c-0.8,0-1.6-0.1-2.3-0.1c-0.4,0-1,0-1.8,0s-1.7,0-2.7,0c-1,0-2.1,0-3.2,0s-2.3,0-3.4,0s-2.2,0-3.3,0
		c-1.1,0-2,0-2.9,0s-1.6,0-2.1,0c-1,0-2,0-3.1,0.1c-1,0-1.9,0.1-2.5,0.1V266.1z"/>
	<path class="st8" d="M624.7,262.6c0.6,0.3,1.3,0.7,2,1.1c0.7,0.4,1.5,0.9,2.3,1.4c0.8,0.5,1.5,0.9,2.2,1.4c0.7,0.4,1.2,0.8,1.7,1.2
		l-2.4,3.6c-0.5-0.4-1.1-0.8-1.8-1.2c-0.7-0.4-1.4-0.9-2.2-1.4c-0.8-0.5-1.5-0.9-2.2-1.4c-0.7-0.4-1.4-0.8-2-1.1L624.7,262.6z
		 M623.9,280.1c1.4-0.2,2.7-0.5,4.1-0.9c1.4-0.4,2.8-0.8,4.2-1.3c1.4-0.5,2.7-1.1,4-1.8c2-1.2,3.9-2.5,5.7-3.9
		c1.8-1.4,3.3-3,4.8-4.6c1.4-1.6,2.6-3.3,3.5-5l2.5,4.4c-1.6,2.5-3.7,4.8-6.2,7.1s-5.2,4.2-8.1,5.9c-1.2,0.7-2.6,1.4-4,2
		c-1.4,0.6-2.9,1.1-4.3,1.6c-1.4,0.4-2.7,0.8-3.7,1L623.9,280.1z M630.2,254.3c0.6,0.3,1.2,0.7,2,1.2c0.7,0.5,1.5,0.9,2.3,1.4
		c0.8,0.5,1.5,1,2.2,1.4c0.7,0.4,1.2,0.8,1.7,1.2l-2.4,3.5c-0.5-0.3-1.1-0.7-1.8-1.2c-0.7-0.5-1.4-0.9-2.2-1.4
		c-0.7-0.5-1.5-0.9-2.2-1.4s-1.4-0.8-2-1.2L630.2,254.3z M645.9,255c0.3,0.5,0.7,1.1,1.1,1.7c0.4,0.7,0.8,1.3,1.2,2
		c0.4,0.7,0.7,1.3,1,1.9l-2.8,1.2c-0.3-0.7-0.7-1.4-1-2c-0.3-0.6-0.7-1.2-1-1.9c-0.4-0.6-0.8-1.2-1.2-1.8L645.9,255z M650.8,253.3
		c0.4,0.5,0.7,1,1.2,1.6c0.4,0.6,0.8,1.3,1.2,2c0.4,0.7,0.7,1.3,1,1.8l-2.8,1.3c-0.4-0.7-0.7-1.4-1.1-2c-0.4-0.6-0.7-1.2-1.1-1.8
		c-0.4-0.6-0.8-1.2-1.2-1.7L650.8,253.3z"/>
	<path class="st8" d="M667.9,252.1l3.7,1.2c-0.8,2-1.7,4.1-2.8,6.1c-1.1,2.1-2.2,4-3.5,5.8c-1.2,1.8-2.5,3.4-3.9,4.8
		c-0.1-0.3-0.3-0.8-0.5-1.3c-0.3-0.5-0.5-1-0.8-1.6c-0.3-0.5-0.5-1-0.8-1.3c1.1-1.1,2.2-2.4,3.3-3.9c1-1.5,2-3.1,2.9-4.8
		C666.5,255.6,667.3,253.8,667.9,252.1z M664.2,261.9l3.9-3.9v0v27.6h-3.9V261.9z M677.3,252.3l3.7,1c-0.7,2-1.5,3.9-2.4,5.8
		c-0.9,1.9-1.9,3.7-2.9,5.3c-1.1,1.7-2.1,3.1-3.3,4.4c-0.2-0.2-0.5-0.5-0.8-0.9c-0.4-0.3-0.7-0.7-1.1-1c-0.4-0.3-0.7-0.6-1-0.8
		c1.1-1.1,2.1-2.4,3.1-3.9c1-1.5,1.9-3.1,2.7-4.8C676,255.7,676.7,254,677.3,252.3z M676.3,257.9h17.3v3.7h-19.1L676.3,257.9z
		 M679,259.1h4v26.6h-4V259.1z M680.9,273.8h12.2v3.6h-12.2V273.8z M681,265.8h11.7v3.5H681V265.8z"/>
	<path class="st8" d="M701.5,257.6h4.1v10.5c0,1.3,0,2.8-0.1,4.4c-0.1,1.6-0.3,3.2-0.5,4.8c-0.3,1.6-0.7,3.2-1.2,4.7
		c-0.5,1.5-1.2,2.9-2,4.1c-0.2-0.3-0.5-0.6-0.9-0.9c-0.4-0.4-0.8-0.7-1.2-1c-0.4-0.3-0.8-0.5-1.1-0.7c1-1.5,1.7-3.1,2.1-4.9
		c0.4-1.8,0.7-3.6,0.8-5.4c0.1-1.8,0.2-3.5,0.2-5.1V257.6z M703.9,265.5h8.5v3.5h-8.5V265.5z M704.1,257.6H732v3.8h-27.9V257.6z
		 M710.9,265.5h3.8c0,0.4,0,0.7,0,0.9c0,0.2,0,0.4,0,0.6c0,2.6-0.1,4.7-0.2,6.4c-0.1,1.7-0.2,2.9-0.3,3.8c-0.1,0.9-0.4,1.5-0.7,1.9
		c-0.3,0.4-0.7,0.7-1.1,0.9c-0.4,0.2-0.8,0.3-1.4,0.4c-0.5,0.1-1.1,0.1-1.8,0.1c-0.7,0-1.6,0-2.4,0c0-0.6-0.1-1.2-0.3-1.9
		c-0.2-0.7-0.4-1.3-0.7-1.8c0.7,0.1,1.4,0.1,2,0.1c0.6,0,1.1,0,1.4,0c0.2,0,0.5,0,0.6-0.1c0.2-0.1,0.3-0.2,0.5-0.3
		c0.1-0.2,0.3-0.7,0.4-1.4c0.1-0.7,0.2-1.8,0.2-3.2c0-1.4,0.1-3.4,0.1-5.8V265.5z M726.1,263.5l3.9,0.9c-1.5,4.7-3.6,8.8-6.2,12.4
		c-2.6,3.6-5.8,6.5-9.4,8.7c-0.2-0.3-0.5-0.6-0.8-1c-0.3-0.4-0.7-0.8-1.1-1.2c-0.4-0.4-0.7-0.7-1-1c3.5-1.9,6.5-4.4,9-7.7
		C723,271.5,724.8,267.8,726.1,263.5z M716.3,252h4.1c0,3.1,0,6,0.3,8.9c0.2,2.9,0.6,5.6,1,8.1c0.4,2.5,1,4.7,1.6,6.5
		c0.6,1.9,1.3,3.3,2,4.4c0.7,1,1.5,1.6,2.3,1.6c0.5,0,0.8-0.5,1.1-1.5c0.2-1,0.4-2.7,0.5-5c0.4,0.4,1,0.9,1.6,1.3
		c0.6,0.4,1.2,0.7,1.7,0.9c-0.2,2.2-0.5,3.9-0.9,5.1c-0.4,1.2-0.9,2-1.6,2.5c-0.7,0.5-1.6,0.7-2.6,0.7c-1.3,0-2.4-0.4-3.5-1.3
		c-1-0.9-2-2.1-2.8-3.7c-0.8-1.6-1.5-3.4-2.1-5.5c-0.6-2.1-1.1-4.4-1.4-6.9c-0.4-2.5-0.7-5.1-0.8-7.8
		C716.4,257.5,716.3,254.8,716.3,252z M721.6,254.1l2.4-2.4c0.7,0.4,1.4,0.8,2.2,1.2c0.8,0.5,1.5,0.9,2.2,1.4
		c0.7,0.5,1.3,0.9,1.7,1.3l-2.5,2.6c-0.4-0.4-1-0.9-1.6-1.4c-0.7-0.5-1.4-1-2.2-1.5C723,254.9,722.3,254.5,721.6,254.1z"/>
</g>
<g>
	<path class="st18" d="M663.3,732.3c8.4,0,22.2,0,30.6,0h439.4c8.4,0,15.3-6.9,15.3-15.3V76.9c0-8.4-6.9-15.3-15.3-15.3H693.9
		c-8.4,0-22.2,0-30.6,0H66.7c-8.4,0-15.3,6.9-15.3,15.3V717c0,8.4,6.9,15.3,15.3,15.3H663.3z"/>
</g>
<circle class="st19" cx="88.8" cy="93.2" r="11.7"/>
<circle class="st20" cx="124.9" cy="93.2" r="11.7"/>
<circle class="st21" cx="161.1" cy="93.2" r="11.7"/>
<line class="st22" x1="160.1" y1="331" x2="1039.9" y2="331"/>
<g>
	<g>
		<path class="st8" d="M300.5,442.9c-19.6,0-35.6-16-35.6-35.6c0-19.6,16-35.6,35.6-35.6c19.6,0,35.6,16,35.6,35.6
			C336.1,426.9,320.1,442.9,300.5,442.9z M300.5,376.7c-16.9,0-30.7,13.8-30.7,30.7s13.8,30.7,30.7,30.7s30.7-13.8,30.7-30.7
			S317.4,376.7,300.5,376.7z"/>
		<g>
			<g>
				<path class="st8" d="M258.7,473.9l1.8,0.7c-0.5,0.8-1,1.6-1.7,2.3c-0.7,0.7-1.4,1.4-2.2,2c-0.8,0.6-1.6,1.1-2.5,1.4
					c-0.1-0.2-0.2-0.4-0.4-0.5c-0.2-0.2-0.3-0.4-0.5-0.6c-0.2-0.2-0.3-0.4-0.5-0.5c0.8-0.3,1.6-0.7,2.3-1.2c0.8-0.5,1.5-1,2.1-1.6
					C257.7,475.1,258.2,474.5,258.7,473.9z M252.9,473.4h21v1.8h-21V473.4z M254,464.5h18.9v1.8H254V464.5z M254.8,481.3h17.4v1.8
					h-17.4V481.3z M257.4,462.5h2.1v11.9h-2.1V462.5z M257.9,477.5H269v1.8h-11.1V477.5z M258.6,467.5h9.5v1.6h-9.5V467.5z
					 M258.6,470.4h9.5v1.6h-9.5V470.4z M262.3,475.8h2.2v6.5h-2.2V475.8z M268.3,473.9c0.4,0.6,0.9,1.2,1.6,1.8
					c0.6,0.6,1.3,1.1,2.1,1.5c0.8,0.5,1.5,0.8,2.3,1.1c-0.1,0.1-0.3,0.3-0.5,0.5c-0.2,0.2-0.4,0.4-0.5,0.6c-0.2,0.2-0.3,0.4-0.4,0.6
					c-0.8-0.4-1.6-0.8-2.4-1.4c-0.8-0.6-1.5-1.2-2.2-1.9c-0.7-0.7-1.2-1.4-1.7-2.2L268.3,473.9z M267.4,462.5h2.2v11.9h-2.2V462.5z"
					/>
				<path class="st8" d="M286.7,467.9l2,0.6c-0.7,1.6-1.5,3.2-2.4,4.7c-1,1.5-2,2.8-3.2,4c-1.2,1.2-2.4,2.2-3.8,3
					c-0.1-0.2-0.3-0.4-0.4-0.6c-0.2-0.2-0.4-0.4-0.6-0.7c-0.2-0.2-0.4-0.4-0.5-0.5c0.9-0.5,1.9-1.1,2.8-1.9c0.9-0.7,1.7-1.6,2.5-2.5
					c0.8-0.9,1.5-1.9,2.1-2.9C285.8,470,286.3,469,286.7,467.9z M278.5,467.1h20.1v2.2h-20.1V467.1z M283.2,477.4h10.7v2.2h-10.7
					V477.4z M287.4,462.5h2.3v21.2h-2.3V462.5z M290.4,468c0.6,1.4,1.4,2.8,2.3,4.1c0.9,1.3,2,2.5,3.1,3.6c1.2,1.1,2.4,1.9,3.7,2.6
					c-0.2,0.2-0.4,0.3-0.6,0.6c-0.2,0.2-0.4,0.5-0.6,0.7s-0.3,0.5-0.5,0.7c-1.3-0.8-2.6-1.8-3.8-2.9c-1.2-1.2-2.2-2.5-3.2-4
					c-1-1.5-1.8-3-2.4-4.6L290.4,468z"/>
				<path class="st8" d="M303.8,466.9l1.6,0.2c0,0.6-0.1,1.3-0.2,2c-0.1,0.8-0.2,1.5-0.3,2.2c-0.1,0.7-0.3,1.4-0.4,2l-1.6-0.5
					c0.2-0.5,0.3-1.1,0.5-1.8c0.1-0.7,0.3-1.4,0.3-2.1C303.7,468.2,303.8,467.5,303.8,466.9z M305.7,462.5h2v21.2h-2V462.5z
					 M307.6,466.3l1.4-0.6c0.2,0.5,0.5,1.1,0.7,1.7c0.3,0.6,0.4,1.1,0.6,1.5l-1.5,0.7c-0.1-0.4-0.3-1-0.5-1.6
					C308.1,467.4,307.8,466.8,307.6,466.3z M309.3,469.8h15v1.6h-15V469.8z M310,464.2h13.6v1.6H310V464.2z M310.6,467H323v1.5
					h-12.4V467z M310.9,472.5h10.1v1.6h-8v9.5h-2V472.5z M312.4,475.6h8.6v1.6h-8.6V475.6z M312.4,478.6h8.6v1.6h-8.6V478.6z
					 M315.6,462.5h2.1v7.8h-2.1V462.5z M320.5,472.5h2.1v8.9c0,0.5-0.1,0.9-0.2,1.2c-0.1,0.3-0.4,0.5-0.7,0.7
					c-0.4,0.2-0.8,0.2-1.4,0.3c-0.5,0-1.2,0-2,0c0-0.3-0.1-0.6-0.2-0.9c-0.1-0.4-0.2-0.7-0.4-0.9c0.5,0,1,0,1.5,0s0.8,0,0.9,0
					c0.3,0,0.4-0.1,0.4-0.4V472.5z"/>
				<path class="st8" d="M328.3,468.5h10.3v1.8h-10.3V468.5z M328.7,473.3h9.6v1.8h-9.6V473.3z M328.9,477.3h9.1v1.8h-9.1V477.3z
					 M329.1,464.7h8.6v1.8h-8.6V464.7z M329.8,470.6l1.6-0.4c0.2,0.5,0.5,1,0.6,1.5c0.2,0.6,0.3,1,0.4,1.4l-1.7,0.5
					c0-0.4-0.2-0.9-0.3-1.4C330.2,471.6,330,471,329.8,470.6z M332.5,462.5h2v6.6h-2V462.5z M332.5,474.1h2v9.5h-2V474.1z
					 M335.6,470.1l1.8,0.5c-0.2,0.5-0.4,1.1-0.7,1.6c-0.2,0.5-0.4,1-0.6,1.4l-1.6-0.5c0.1-0.3,0.2-0.6,0.4-0.9
					c0.1-0.3,0.3-0.7,0.4-1.1C335.4,470.7,335.5,470.4,335.6,470.1z M339.1,463.5h8.3v1.9h-6.3v18.3h-2V463.5z M340.2,471.3h7.3v1.8
					h-7.3V471.3z M346.9,471.3h0.4l0.4-0.1l1.3,0.5c-0.3,1.7-0.7,3.3-1.3,4.8c-0.6,1.5-1.3,2.9-2.2,4.1c-0.9,1.2-1.9,2.3-3.1,3.1
					c-0.2-0.2-0.4-0.5-0.7-0.8c-0.3-0.3-0.5-0.5-0.8-0.7c1.1-0.7,2.1-1.7,2.9-2.8c0.8-1.1,1.5-2.3,2-3.7c0.5-1.3,0.9-2.7,1.1-4.1
					V471.3z M342.8,472.5c0.4,1.4,0.9,2.6,1.6,3.9c0.7,1.2,1.5,2.3,2.4,3.3c0.9,1,1.9,1.7,3,2.3c-0.2,0.2-0.5,0.5-0.8,0.8
					c-0.3,0.3-0.5,0.7-0.7,0.9c-1.1-0.7-2.2-1.5-3.1-2.6c-0.9-1.1-1.7-2.3-2.4-3.7c-0.7-1.4-1.2-2.8-1.7-4.4L342.8,472.5z
					 M346.4,463.5h2v4.4c0,0.5-0.1,0.9-0.2,1.2c-0.1,0.3-0.4,0.5-0.8,0.7c-0.4,0.1-0.9,0.2-1.5,0.3c-0.6,0-1.3,0.1-2.2,0.1
					c0-0.3-0.1-0.6-0.2-1c-0.1-0.4-0.3-0.7-0.4-0.9c0.4,0,0.8,0,1.2,0c0.4,0,0.7,0,1,0c0.3,0,0.5,0,0.6,0c0.2,0,0.3,0,0.4-0.1
					c0.1,0,0.1-0.1,0.1-0.2V463.5z"/>
			</g>
		</g>
		<g>
			<g>
				<path d="M528.6,464.1h15v19.1h-1.8v-17.4h-11.4v17.5h-1.8V464.1z M529.7,480.1h12.8v1.7h-12.8V480.1z M529.8,472h12.8v1.7h-12.8
					V472z"/>
				<path d="M554.6,469.6l1.1,0.5c-0.2,0.8-0.5,1.6-0.8,2.5c-0.3,0.9-0.7,1.7-1.1,2.6c-0.4,0.8-0.8,1.6-1.2,2.4
					c-0.4,0.7-0.9,1.4-1.3,1.9c-0.1-0.2-0.2-0.5-0.4-0.8c-0.2-0.3-0.3-0.6-0.5-0.8c0.4-0.5,0.8-1,1.3-1.6c0.4-0.6,0.8-1.3,1.2-2.1
					c0.4-0.7,0.7-1.5,1.1-2.3C554.2,471.1,554.4,470.3,554.6,469.6z M558,462.9l1.2,1.3c-0.7,0.3-1.5,0.5-2.4,0.8
					c-0.9,0.2-1.8,0.5-2.8,0.6c-1,0.2-1.9,0.3-2.8,0.4c0-0.2-0.1-0.4-0.2-0.7c-0.1-0.3-0.2-0.5-0.3-0.7c0.9-0.2,1.7-0.3,2.6-0.5
					c0.9-0.2,1.8-0.4,2.6-0.6S557.4,463.1,558,462.9z M550.8,469h8.3v1.6h-8.3V469z M554.6,464.5h1.7v19.1h-1.7V464.5z M556.2,471.9
					c0.2,0.1,0.4,0.4,0.7,0.7c0.3,0.3,0.6,0.6,1,1c0.3,0.3,0.7,0.7,0.9,1c0.3,0.3,0.5,0.5,0.6,0.7l-1,1.3c-0.1-0.2-0.3-0.5-0.6-0.9
					c-0.3-0.4-0.5-0.7-0.8-1.1c-0.3-0.4-0.6-0.8-0.9-1.1c-0.3-0.3-0.5-0.6-0.7-0.8L556.2,471.9z M558.4,481.5h13.3v1.5h-13.3V481.5z
					 M559.4,472.7h11.8v1.5h-11.8V472.7z M559.9,477h10.8v1.5h-10.8V477z M560.3,463.5h10.2v7.2h-10.2V463.5z M561.9,465v4.2h6.9
					V465H561.9z M564.4,473.3h1.7v9.2h-1.7V473.3z"/>
				<path d="M586.3,470.6c0.5,0,0.9,0.1,1.2,0.3c0.4,0.2,0.7,0.5,0.9,0.9c0.2,0.4,0.3,0.8,0.3,1.2c0,0.4-0.1,0.8-0.3,1.2
					c-0.2,0.4-0.5,0.7-0.9,0.9c-0.4,0.2-0.8,0.3-1.2,0.3c-0.4,0-0.8-0.1-1.2-0.3c-0.4-0.2-0.7-0.5-0.9-0.9c-0.2-0.4-0.3-0.8-0.3-1.2
					c0-0.5,0.1-0.9,0.3-1.2s0.5-0.7,0.9-0.9C585.4,470.8,585.8,470.6,586.3,470.6z"/>
				<path d="M605.1,473.1l1.8,0.2c-0.3,2.3-0.9,4.3-1.6,6.1c-0.7,1.7-1.8,3.2-3,4.3c-0.1-0.1-0.2-0.2-0.4-0.4
					c-0.2-0.1-0.4-0.3-0.5-0.4c-0.2-0.1-0.3-0.3-0.5-0.4c1.3-1,2.2-2.3,2.9-3.9C604.4,477.1,604.8,475.2,605.1,473.1z M601.9,465.2
					H621v5h-1.8v-3.3h-15.7v3.3h-1.7V465.2z M606.2,476.1c0.4,1.2,0.9,2.1,1.6,2.8c0.6,0.7,1.4,1.3,2.2,1.6c0.8,0.4,1.8,0.6,2.8,0.8
					c1,0.1,2.1,0.2,3.3,0.2c0.2,0,0.4,0,0.8,0s0.8,0,1.3,0c0.5,0,1,0,1.5,0c0.5,0,1,0,1.4,0c0.4,0,0.7,0,0.9,0
					c-0.1,0.1-0.2,0.3-0.3,0.5c-0.1,0.2-0.2,0.4-0.2,0.6c-0.1,0.2-0.1,0.4-0.1,0.6h-1.1h-4.2c-1.4,0-2.6-0.1-3.8-0.3
					c-1.2-0.2-2.2-0.5-3.1-1s-1.7-1.1-2.5-2c-0.7-0.9-1.3-2-1.8-3.4L606.2,476.1z M604.8,469.6h13.4v1.6h-13.4V469.6z M610.5,462.6
					h1.8v3.7h-1.8V462.6z M610.5,470.4h1.8V482l-1.8-0.3V470.4z M611.4,475h7.7v1.6h-7.7V475z"/>
				<path d="M632.8,479.7l1.6,1.1c-0.6,0.4-1.3,0.7-2.1,1.1c-0.8,0.4-1.7,0.7-2.5,1c-0.9,0.3-1.7,0.5-2.5,0.7
					c-0.1-0.2-0.3-0.4-0.6-0.7c-0.3-0.3-0.5-0.5-0.7-0.6c0.8-0.2,1.6-0.4,2.5-0.7c0.9-0.3,1.7-0.6,2.4-0.9
					C631.8,480.4,632.4,480,632.8,479.7z M628.5,469.9h16.3v9.9h-16.3V469.9z M629.5,463.4h14.4v5.2h-14.4V463.4z M630.2,471.2v1.6
					H643v-1.6H630.2z M630.2,474v1.6H643V474H630.2z M630.2,476.8v1.6H643v-1.6H630.2z M631.2,464.8v2.4h10.9v-2.4H631.2z
					 M638.4,480.9l1.5-1.1c0.8,0.2,1.7,0.5,2.5,0.8c0.9,0.3,1.7,0.6,2.6,0.9c0.8,0.3,1.5,0.6,2.1,0.9l-1.5,1.2
					c-0.6-0.3-1.3-0.6-2.1-0.9c-0.8-0.3-1.7-0.7-2.6-1C640.1,481.4,639.2,481.2,638.4,480.9z"/>
				<path d="M656.1,467.4l1.1,0.7c-0.4,0.6-0.8,1.3-1.4,1.9c-0.6,0.6-1.2,1.2-1.9,1.8c-0.7,0.5-1.3,1-2,1.4
					c-0.1-0.2-0.2-0.4-0.4-0.7c-0.2-0.3-0.4-0.5-0.5-0.6c0.6-0.3,1.3-0.7,1.9-1.1c0.6-0.5,1.2-1,1.8-1.6
					C655.3,468.6,655.8,468,656.1,467.4z M651.2,474.8h11.2v1.4h-11.2V474.8z M658.9,475.6l1.6,0.2c-0.2,1.1-0.5,2.1-0.9,2.9
					c-0.4,0.8-1,1.6-1.6,2.2c-0.7,0.6-1.5,1.1-2.5,1.6c-1,0.4-2.1,0.8-3.4,1.1c-0.1-0.2-0.2-0.5-0.3-0.8c-0.1-0.3-0.3-0.5-0.4-0.7
					c1.6-0.3,2.9-0.7,4-1.2c1-0.5,1.8-1.2,2.4-2.1C658.2,478,658.6,476.9,658.9,475.6z M651.3,466.8h11v1.4h-11V466.8z M655.4,472.8
					l1.6,0.4c-0.4,0.7-0.7,1.5-1.2,2.3c-0.4,0.8-0.8,1.6-1.2,2.4c-0.4,0.8-0.8,1.5-1.1,2.1l-1.5-0.5c0.3-0.6,0.7-1.2,1.1-2
					c0.4-0.8,0.8-1.6,1.2-2.4C654.8,474.2,655.1,473.5,655.4,472.8z M652.2,463.6l1.3-0.5c0.3,0.5,0.6,1,0.9,1.5
					c0.3,0.5,0.5,1,0.6,1.4l-1.4,0.6c-0.1-0.4-0.3-0.9-0.5-1.5C652.8,464.6,652.5,464.1,652.2,463.6z M653.4,479.1l0.9-1.2
					c0.9,0.3,1.8,0.7,2.7,1.2c0.9,0.4,1.7,0.9,2.5,1.3c0.8,0.5,1.4,0.9,2,1.3l-1.2,1.2c-0.5-0.4-1.2-0.9-1.9-1.3
					c-0.7-0.5-1.6-0.9-2.4-1.3C655.2,479.9,654.3,479.5,653.4,479.1z M656,462.5h1.6V473H656V462.5z M657.5,468.2
					c0.2,0.1,0.5,0.3,0.9,0.5c0.4,0.2,0.8,0.5,1.3,0.8c0.5,0.3,0.9,0.6,1.3,0.8c0.4,0.2,0.7,0.4,0.8,0.6l-1,1.2
					c-0.2-0.2-0.5-0.4-0.8-0.7c-0.4-0.3-0.8-0.6-1.2-0.9c-0.4-0.3-0.8-0.6-1.2-0.9c-0.4-0.3-0.7-0.5-0.9-0.7L657.5,468.2z
					 M660.3,463l1.5,0.6c-0.3,0.5-0.7,1.1-1,1.6c-0.4,0.5-0.7,1-1,1.4l-1.2-0.6c0.3-0.4,0.6-0.9,0.9-1.5
					C659.8,464,660.1,463.4,660.3,463z M669.1,467.7l1.8,0.2c-0.4,2.6-0.9,5-1.6,7c-0.7,2-1.7,3.7-2.9,5.2c-1.2,1.4-2.8,2.7-4.7,3.7
					c-0.1-0.2-0.2-0.3-0.3-0.5c-0.1-0.2-0.2-0.4-0.4-0.6c-0.1-0.2-0.3-0.3-0.4-0.5c1.8-0.9,3.3-1.9,4.4-3.3c1.1-1.3,2-2.9,2.7-4.8
					C668.4,472.2,668.8,470.1,669.1,467.7z M664.7,462.5l1.7,0.3c-0.2,1.5-0.6,2.9-0.9,4.3c-0.4,1.4-0.8,2.7-1.4,3.8
					c-0.5,1.2-1.1,2.2-1.8,3.1c-0.1-0.1-0.2-0.2-0.4-0.4s-0.3-0.3-0.5-0.4c-0.2-0.1-0.3-0.3-0.5-0.4c0.6-0.8,1.2-1.8,1.7-2.8
					c0.5-1.1,0.9-2.3,1.2-3.5C664.2,465.2,664.5,463.9,664.7,462.5z M665,468.2c0.3,2.1,0.8,4.1,1.4,5.9c0.6,1.8,1.4,3.4,2.4,4.8
					c1,1.4,2.2,2.4,3.6,3.2c-0.1,0.1-0.3,0.3-0.4,0.4c-0.2,0.2-0.3,0.3-0.4,0.5c-0.1,0.2-0.3,0.4-0.3,0.5c-1.5-0.9-2.7-2.1-3.7-3.6
					s-1.9-3.2-2.5-5.2c-0.6-2-1.2-4.1-1.5-6.4L665,468.2z M664.1,466.8h8.1v1.6h-8.1V466.8z"/>
			</g>
		</g>
		<g>
			<g>
				<path d="M881.6,474.5h1.9c-0.1,1.1-0.3,2.1-0.6,3.1c-0.3,0.9-0.7,1.8-1.2,2.6c-0.5,0.8-1.2,1.4-2.1,2c-0.9,0.6-2,1.1-3.4,1.5
					c-0.1-0.2-0.1-0.3-0.3-0.5c-0.1-0.2-0.2-0.4-0.4-0.5c-0.1-0.2-0.3-0.3-0.4-0.4c1.3-0.3,2.3-0.7,3.2-1.2c0.8-0.5,1.4-1.1,1.9-1.7
					c0.5-0.6,0.8-1.4,1-2.2C881.4,476.3,881.5,475.4,881.6,474.5z M875.6,473.4h20.3v1.6h-20.3V473.4z M876.1,465h19.2v4.8h-1.8
					v-3.2h-15.7v3.2h-1.7V465z M879.5,469.2H892v1.6h-12.4V469.2z M884.8,462.6h1.8v3.6h-1.8V462.6z M887.4,474.4h1.7v6.4
					c0,0.3,0.1,0.5,0.2,0.6c0.1,0.1,0.4,0.1,0.9,0.1c0.1,0,0.3,0,0.6,0c0.3,0,0.6,0,0.9,0c0.4,0,0.7,0,1,0c0.3,0,0.5,0,0.7,0
					c0.3,0,0.5-0.1,0.7-0.2c0.1-0.1,0.2-0.4,0.3-0.9c0.1-0.4,0.1-1.1,0.1-2c0.1,0.1,0.3,0.2,0.5,0.3c0.2,0.1,0.4,0.2,0.6,0.2
					c0.2,0.1,0.4,0.1,0.5,0.2c-0.1,1.1-0.2,1.9-0.3,2.4c-0.2,0.6-0.4,1-0.8,1.2c-0.3,0.2-0.8,0.3-1.4,0.3c-0.1,0-0.3,0-0.7,0
					s-0.7,0-1.1,0s-0.8,0-1.1,0c-0.3,0-0.6,0-0.7,0c-0.7,0-1.3-0.1-1.6-0.2c-0.4-0.1-0.6-0.4-0.8-0.7c-0.2-0.3-0.2-0.8-0.2-1.4
					V474.4z"/>
				<path d="M901.7,464.3h16.5v1.7h-16.5V464.3z M910,470.4h1.8v11c0,0.6-0.1,1-0.3,1.3c-0.2,0.3-0.5,0.5-0.9,0.6
					c-0.4,0.1-1.1,0.2-1.8,0.2c-0.8,0-1.7,0-2.9,0c0-0.2-0.1-0.5-0.3-0.9c-0.1-0.3-0.3-0.6-0.4-0.9c0.6,0,1.2,0,1.8,0s1.1,0,1.5,0
					c0.4,0,0.7,0,0.9,0c0.2,0,0.4,0,0.5-0.1c0.1-0.1,0.1-0.2,0.1-0.4V470.4z M917.6,464.3h0.4l0.4-0.1l1.3,1
					c-0.7,0.8-1.5,1.6-2.4,2.5c-0.9,0.8-1.8,1.6-2.8,2.3c-1,0.7-2,1.4-2.9,1.9c-0.1-0.1-0.2-0.3-0.3-0.4s-0.3-0.3-0.4-0.4
					s-0.3-0.3-0.4-0.4c0.6-0.4,1.3-0.8,2-1.3c0.7-0.5,1.3-1,2-1.5c0.6-0.5,1.2-1.1,1.7-1.6c0.5-0.5,1-1,1.3-1.5V464.3z"/>
			</g>
		</g>
		<g>
			<path class="st8" d="M302.8,417.6h-3.3v-14.3h-4.4v-2.4c2.5-0.1,4.3-0.5,5-3.8h2.6V417.6z"/>
		</g>
		<path class="st17" d="M600,442.9c-19.6,0-35.6-16-35.6-35.6c0-19.6,16-35.6,35.6-35.6s35.6,16,35.6,35.6
			C635.6,426.9,619.6,442.9,600,442.9z M600,376.7c-16.9,0-30.7,13.8-30.7,30.7S583.1,438,600,438c16.9,0,30.7-13.8,30.7-30.7
			S616.9,376.7,600,376.7z"/>
		<g>
			<path class="st17" d="M608.2,417.6H591c0.2-3.8,2.2-5.9,7.6-9.1c5.1-3.1,6.1-3.8,6.1-5.9c0-2.3-2.2-3.3-4.6-3.3
				c-4.7,0-5.3,2.9-5.4,5.2h-3.4c0.1-1,0.2-3.1,1.4-4.7c2-2.8,5.4-3.3,7.4-3.3c4.9,0,8,2.5,8,6.1c0,2.6-1.3,4.5-5.5,6.9
				c-4.9,2.9-5.7,3.6-7,5.4h12.7V417.6z"/>
		</g>
		<path class="st17" d="M899.5,442.9c-19.6,0-35.6-16-35.6-35.6c0-19.6,16-35.6,35.6-35.6c19.6,0,35.6,16,35.6,35.6
			C935,426.9,919.1,442.9,899.5,442.9z M899.5,376.7c-16.9,0-30.7,13.8-30.7,30.7s13.8,30.7,30.7,30.7c16.9,0,30.7-13.8,30.7-30.7
			S916.4,376.7,899.5,376.7z"/>
		<g>
			<path class="st17" d="M897.6,405.5h1.7c2.3,0,4.4-1.1,4.4-3.2c0-3-3.8-3-4.5-3c-3.6,0-4.7,1.6-4.8,3.9H891c0.1-1,0.4-3.2,2.2-4.8
				c2-1.7,4.9-1.9,6.1-1.9c4.8,0,7.7,2.3,7.7,5.5c0,3.4-2.7,4.2-3.8,4.6c3.4,0.9,4.2,3.1,4.2,5c0,3.3-2.4,6.6-8.5,6.6
				c-1.9,0-8.1-0.1-8.6-7.4h3.4c0.2,2.8,1.5,4.5,5,4.5c0.8,0,5.3,0,5.3-3.8c0-3.1-2.9-3.7-4.6-3.7h-2V405.5z"/>
		</g>
		<rect x="365.1" y="403.1" class="st17" width="174.9" height="4.9"/>
		<rect x="662.3" y="403.1" class="st17" width="174.9" height="4.9"/>
	</g>
	<polygon class="st11" points="950.3,371 248.9,371 249.7,484.5 951.1,484.5 	"/>
</g>
<g>
	<g>
		<g>
			<g>
				<path class="st8" d="M180.3,155.9c-0.1-0.1-0.2-0.3-0.4-0.3l-2.6-0.5c-0.3-0.1-0.6,0.1-0.6,0.4c-2,5.9-3,8.3-3.8,10.1
					c-2-3.8-2.6-5-4.8-10.2c-0.1-0.3-0.4-0.4-0.7-0.3l-2.5,0.7c-0.2,0-0.3,0.2-0.4,0.3c-0.1,0.1-0.1,0.3,0,0.5
					c2.7,6,3.4,7.4,6.4,12.7c-1.3,2.4-1.7,3-2.2,3.9l-0.3,0.5c-0.1,0.2-0.1,0.3,0,0.5c0.1,0.2,0.2,0.3,0.4,0.3l2.6,0.6
					c0,0,0.1,0,0.1,0c0.2,0,0.4-0.1,0.5-0.3c4.2-9.2,4.7-10.2,8.1-18.4C180.4,156.2,180.4,156,180.3,155.9z"/>
				<path class="st8" d="M190.7,155.1c-2,0-3.5,0.5-4.8,1.1c-0.2,0.1-0.4,0.3-0.3,0.6l0.3,2.4c0,0.2,0.1,0.4,0.3,0.4
					c0.2,0.1,0.4,0.1,0.5,0c1.3-0.8,2.5-1.4,4.1-1.4c3.6,0,6.4,3.1,6.4,7.1c0,3.6-2.2,6.3-5.2,6.6c-1.3,0.1-2.6-0.3-3.5-1.1
					c-0.9-0.8-1.3-1.9-1.3-3.2c0-3.5,2.8-4.6,4.1-5.1c0.2-0.1,0.3-0.2,0.3-0.3c0.1-0.2,0-0.3-0.1-0.5l-1-1.6
					c-0.1-0.2-0.4-0.3-0.7-0.2l-0.1,0c-1.6,0.5-6.5,2.2-6.2,7.9c0.3,4.6,3.4,7.3,8.3,7.3c5.2,0,9.1-4.1,9.1-9.6
					C201,159.4,196.7,155.1,190.7,155.1z"/>
				<path class="st8" d="M219.7,155.9c-0.1-0.1-0.2-0.3-0.4-0.3l-2.6-0.5c-0.3-0.1-0.6,0.1-0.6,0.4c-2,5.9-3,8.3-3.8,10.1
					c-2-3.8-2.6-5-4.8-10.2c-0.1-0.3-0.4-0.4-0.7-0.3l-2.5,0.7c-0.2,0-0.3,0.2-0.4,0.3c-0.1,0.1-0.1,0.3,0,0.5
					c2.7,6,3.4,7.4,6.4,12.7c-1.3,2.4-1.7,3-2.2,3.9l-0.3,0.5c-0.1,0.2-0.1,0.3,0,0.5c0.1,0.2,0.2,0.3,0.4,0.3l2.6,0.6
					c0,0,0.1,0,0.1,0c0.2,0,0.4-0.1,0.5-0.3c4.2-9.2,4.7-10.2,8.1-18.4C219.8,156.2,219.8,156,219.7,155.9z"/>
				<path class="st8" d="M238.8,173.9c-0.1-0.2-0.5-1.2-0.8-1.8l-0.9-2.1c-2.5-5.8-4.3-10.6-5.8-14.5c-0.1-0.2-0.3-0.4-0.6-0.4
					l-2.1,0.2c-0.2,0-0.4,0.2-0.5,0.3c-0.9,2.3-2.1,5.2-3.3,8.1c-1.5,3.7-3,7.5-4.2,10.4c-0.1,0.2-0.1,0.4,0,0.5
					c0.1,0.2,0.3,0.3,0.4,0.3l2.5,0.2c0.3,0,0.5-0.1,0.6-0.4c0.5-1.7,1.3-3.8,1.6-4.6c0,0,0,0,0,0c1-0.1,1.7-0.2,2-0.2
					c0.7,0,1.8,0.1,2.6,0.2c0.3,0,0.6-0.1,0.6-0.4l0.4-1.8c0-0.2,0-0.3-0.1-0.5c-0.1-0.1-0.3-0.2-0.4-0.2c-0.7,0-2.1,0.1-3.3,0.1
					c-0.3,0-0.5,0-0.7,0l0.7-2c0.7-1.9,1.3-3.6,1.9-5.3c1.7,4.7,3.7,10,5.6,14.7c0.1,0.2,0.3,0.3,0.5,0.3c0,0,0.1,0,0.1,0l2.6-0.4
					c0.2,0,0.3-0.1,0.4-0.3C238.9,174.2,238.9,174,238.8,173.9z"/>
				<path class="st8" d="M323.8,173.9c-0.1-0.2-0.5-1.2-0.8-1.8l-0.9-2.1c-2.5-5.8-4.4-10.8-5.8-14.5c-0.1-0.2-0.3-0.4-0.6-0.4
					l-2.1,0.2c-0.2,0-0.4,0.2-0.5,0.3c-0.9,2.3-2.1,5.2-3.3,8.2c-1.5,3.7-3,7.5-4.2,10.3c-0.1,0.2-0.1,0.4,0,0.5
					c0.1,0.2,0.3,0.3,0.4,0.3l2.5,0.2c0.3,0,0.5-0.1,0.6-0.4c0.5-1.7,1.3-3.8,1.6-4.6c0,0,0,0,0,0c1-0.1,1.7-0.2,2-0.2
					c0.7,0,1.8,0.1,2.6,0.2c0.3,0,0.6-0.1,0.6-0.4l0.4-1.8c0-0.2,0-0.3-0.1-0.5c-0.1-0.1-0.3-0.2-0.4-0.2c-0.7,0-2.1,0.1-3.3,0.1
					c-0.3,0-0.5,0-0.7,0l0.7-2c0.7-1.9,1.3-3.6,1.9-5.3c1.7,4.7,3.7,10,5.6,14.7c0.1,0.2,0.3,0.3,0.5,0.3c0,0,0.1,0,0.1,0l2.6-0.4
					c0.2,0,0.3-0.1,0.4-0.3C323.9,174.2,323.9,174,323.8,173.9z"/>
				<path class="st8" d="M257.2,172.4l-1.5-1.2l-1.1-1c-2.1-1.8-2.6-2.2-5.6-5.7c3.1-3.2,3.6-3.8,6.8-7.5c0.1-0.1,0.2-0.3,0.1-0.5
					c0-0.2-0.2-0.3-0.3-0.4l-2.4-1.1c-0.2-0.1-0.5,0-0.7,0.2c-2.8,3.8-3.5,4.6-6.4,7.7c0.1-1.7,0.2-4,0.4-7l0-0.3
					c0-0.2-0.1-0.3-0.2-0.4c-0.1-0.1-0.3-0.2-0.5-0.1l-2.7,0.4c-0.3,0-0.5,0.3-0.5,0.6v18.5c0,0.3,0.3,0.6,0.6,0.6h2.6
					c0.2,0,0.3-0.1,0.4-0.2c0.1-0.1,0.2-0.3,0.2-0.4c-0.1-2.1-0.3-5-0.3-8.2c3.1,3.6,3.9,4.5,7.9,8.6c0.1,0.1,0.3,0.2,0.4,0.2
					c0.1,0,0.2,0,0.3-0.1l2.4-1.6c0.1-0.1,0.2-0.3,0.3-0.4C257.4,172.7,257.4,172.6,257.2,172.4z"/>
				<path class="st8" d="M276.5,171.9l-0.1-1.9l0-0.6c0-1-0.1-2.5-0.1-3.4c0-1.6,0-4.3,0.4-10.3c0-0.2-0.1-0.3-0.2-0.4
					c-0.1-0.1-0.3-0.2-0.4-0.2l-2.6,0.2c-0.3,0-0.5,0.3-0.5,0.6v10.6c-1.8,3.4-3.5,5.1-5.1,5.1c-0.4,0-0.8-0.2-1.2-0.6
					c-1-1.1-1.6-3.4-1.4-5.8l0.6-9.5c0-0.2-0.1-0.3-0.2-0.4c-0.1-0.1-0.3-0.2-0.5-0.1l-2.9,0.4c-0.3,0-0.5,0.3-0.5,0.6v8.6
					c0,2.4,0.4,10.4,5.5,10.4c2.4,0,4.3-1.8,5.6-3.5v2.9c0,0.3,0.3,0.6,0.6,0.6h2.5c0.2,0,0.3-0.1,0.4-0.2c0.1-0.1,0.2-0.3,0.2-0.4
					l0-0.4C276.6,173.6,276.6,173.2,276.5,171.9z"/>
				<path class="st8" d="M301,155.6c0-0.2-0.1-0.3-0.2-0.4c-0.1-0.1-0.3-0.1-0.4-0.1l-2.9,0.3c-0.2,0-0.4,0.2-0.5,0.4l-0.1,0.3
					c-1.8,5.6-2.3,6.9-4.7,13.3c-3-7.4-3.5-8.9-4.9-13.9c-0.1-0.3-0.3-0.4-0.6-0.4l-2.8,0.2c-0.3,0-0.5,0.2-0.5,0.5l-0.9,18.7
					c0,0.2,0,0.3,0.2,0.4c0.1,0.1,0.3,0.2,0.4,0.2h2.3c0.3,0,0.6-0.2,0.6-0.6l0.1-12c2,5.7,2.5,6.9,4.7,12.2
					c0.1,0.2,0.3,0.3,0.5,0.3c0,0,0,0,0.1,0l1.6-0.2c0.2,0,0.4-0.1,0.5-0.3c2.2-5.2,3-7.5,4.6-12.2l0.3,12.1c0,0.3,0.3,0.5,0.6,0.5
					h2.5c0.2,0,0.3-0.1,0.4-0.2c0.1-0.1,0.2-0.3,0.2-0.4L301,155.6z"/>
			</g>
			<g>
				<path class="st23" d="M151.5,153.9C151.5,153.9,151.5,153.9,151.5,153.9c-0.4-0.5,0.3-1,0.3-1l0,0c1.5-1.1,2.5-2.9,2.5-4.9
					c0-3.4-2.8-6.1-6.4-6.1c-3.1,0-5.7,2.2-6.3,5l0,0c0,0-0.2,0.7-0.9,0.5c0,0,0,0,0,0c-3-0.9-6.3-1.4-9.8-1.4
					c-3.5,0-6.8,0.5-9.8,1.4c0,0,0,0,0,0c-0.7,0.2-0.9-0.5-0.9-0.5l0,0c-0.5-2.9-3.1-5-6.3-5c-3.5,0-6.4,2.8-6.4,6.1
					c0,2,1,3.8,2.5,4.9l0,0c0,0,0.7,0.5,0.3,1c0,0,0,0,0,0c-2,2.3-3.1,5-3.1,7.9c0,8.8,10.6,15.9,23.7,15.9
					c13.1,0,23.7-7.1,23.7-15.9C154.6,158.9,153.5,156.2,151.5,153.9z"/>
				<g>
					<circle class="st24" cx="124.3" cy="157.5" r="1.9"/>
					<circle class="st24" cx="137.6" cy="157.5" r="1.9"/>
				</g>
				<g>
					<path class="st11" d="M117.8,148C117.8,148,117.8,148,117.8,148C117.8,148,117.8,148,117.8,148z"/>
					<path class="st25" d="M117.8,148C117.8,148,117.8,148,117.8,148c0-2-1.7-3.7-3.8-3.7c-2.1,0-3.8,1.6-3.8,3.7
						c0,1.4,0.9,2.6,2.1,3.2c0.1,0,0.7,0.2,1.4-0.3c0,0,0,0,0,0c1.1-0.8,2.3-1.5,3.6-2.1c0,0,0,0,0,0
						C117.7,148.6,117.8,148.1,117.8,148z"/>
				</g>
				<g>
					<path class="st11" d="M144.1,148C144.1,148,144.1,148,144.1,148C144.1,148,144.1,148,144.1,148z"/>
					<path class="st25" d="M144.1,148C144.1,148,144.1,148,144.1,148c0-2,1.7-3.7,3.8-3.7c2.1,0,3.8,1.6,3.8,3.7
						c0,1.4-0.9,2.6-2.1,3.2c-0.1,0-0.7,0.2-1.4-0.3c0,0,0,0,0,0c-1.1-0.8-2.3-1.5-3.6-2.1c0,0,0,0,0,0
						C144.1,148.6,144.1,148.1,144.1,148z"/>
				</g>
				<path class="st2" d="M138.5,166.5c0-2.4-1-3.7-3-5.4c-2.1-1.7-2.8-4.6-3.1-6c0,0-0.3-1.3-1.5-1.3c-1.3,0-1.5,1.3-1.5,1.3
					c-0.3,1.4-1,4.3-3.1,6c-2.1,1.7-3,3-3,5.4c0,0-0.1,2.5,2.1,4.3c2.2,1.8,3.5,1.1,4,0.5l0.6-0.8c0,0,0.4-0.6,0.9-0.6
					s0.9,0.6,0.9,0.6l0.6,0.8c0.5,0.6,1.7,1.3,4-0.5C138.7,169,138.5,166.5,138.5,166.5z"/>
				<path class="st8" d="M133.9,162.4c-0.6-0.1-2-0.2-2.7-0.2v0h-0.8v0c-0.7,0-2,0-2.6,0.2c-0.8,0.2-1.3,0.9-0.6,2
					c0.7,1.1,2.6,3.9,3.7,3.9c1.1,0,3-2.9,3.7-3.9C135.3,163.3,134.7,162.6,133.9,162.4z"/>
			</g>
		</g>
		<g>
			<path class="st23" d="M169.7,142.6c0,0.1,0,0.1,0.1,0.1c0.2,0.2,0.3,0.2,0.2,0.3c0,0,0,0,0,0c0,0.1,0,0.1,0.1,0.1h1.3
				c0.3,0,0.6,0,0.7,0c0.5,0,0.7,0.5,0.7,0.6c0,0.3-1.3,1.5-1.6,1.5c-0.2,0-0.6-0.4-0.6-0.6c0-0.1,0.1-0.1,0.4-0.3
				c0.1,0,0.4-0.3,0.4-0.3c0-0.1-0.1-0.1-0.2-0.1h-1.6c-0.2,0-0.2,0.1-0.2,0.2v1.9c0,0.2,0,0.4,0,0.7c0,1-0.9,1.1-1.7,1.1
				c-0.1,0-0.3,0-0.4-0.1c-0.1-0.1-0.1-0.5-0.1-0.6c0-0.1,0-0.2,0.2-0.2c0,0,0.1,0,0.2,0c0.1,0,0.3,0,0.4,0c0.6,0,0.6-0.2,0.6-0.7
				v-2c0-0.2-0.1-0.2-0.2-0.2h-2c-0.3,0-0.7,0-1,0c-0.2,0-0.2-0.1-0.2-0.4c0-0.3,0-0.4,0.2-0.4c0.3,0,0.7,0,1,0h2.4
				c0,0,0.1,0,0.1-0.1c0,0,0,0,0-0.1c-0.4-0.3-0.8-0.6-1.3-0.9c-0.1,0-0.2-0.1-0.2-0.2c0-0.2,0.3-0.6,0.5-0.6c0.1,0,0.7,0.4,0.9,0.5
				c0.1,0,0.1,0.1,0.2,0.1c0.1,0,0.1,0,0.2-0.1c0.1-0.1,0.9-0.5,0.9-0.7c0-0.1-0.1-0.1-0.2-0.1h-2.4c-0.3,0-0.7,0-1,0
				c-0.2,0-0.2-0.1-0.2-0.4c0-0.4,0-0.4,0.2-0.4c0.3,0,0.7,0,1,0h2.9c0.2,0,0.5,0,0.7,0c0.2,0,0.3,0.1,0.4,0.2
				c0.1,0.1,0.3,0.3,0.3,0.4c0,0.3-1.6,1.3-1.9,1.5C169.8,142.5,169.7,142.6,169.7,142.6z"/>
			<path class="st23" d="M177.1,143.7C177.1,143.6,177.1,143.6,177.1,143.7c-0.1-0.2-0.1-0.3-0.1-0.4c0-0.2,0.4-0.3,0.5-0.3
				c0.1,0,0.1,0.1,0.2,0.2c0.2,0.4,0.3,0.6,0.4,0.9c0.1,0.2,0.2,0.5,0.2,0.5c0,0.2-0.5,0.3-0.6,0.3c-0.1,0-0.2-0.1-0.2-0.2
				c0-0.1-0.1-0.2-0.2-0.2c-0.1,0-0.2,0-0.3,0c-0.2,0-0.2,0.1-0.2,0.3v1.8c0,0.4,0,0.8,0,1.1c0,0.3-0.1,0.3-0.5,0.3
				c-0.4,0-0.5,0-0.5-0.3c0-0.4,0-0.8,0-1.1v-1.7c0-0.1-0.1-0.2-0.2-0.2c0,0-0.2,0-0.2,0c-0.2,0-0.3,0-0.5,0.1c-0.1,0-0.1,0-0.1,0.1
				c0,0.1-0.1,0.1-0.1,0.1c-0.1,0-0.1-0.1-0.2-0.4c0-0.1,0-0.2-0.1-0.4c0,0,0-0.1,0-0.1c0-0.1,0.1-0.1,0.4-0.1c0.1,0,0.2,0,0.3,0
				c0.2,0,0.2-0.1,0.3-0.2c0.1-0.1,0.1-0.2,0.2-0.3c0,0,0.1-0.1,0.1-0.2c0-0.1,0-0.1-0.1-0.2c-0.3-0.3-0.6-0.6-1-0.9
				c-0.1,0-0.1-0.1-0.1-0.2c0-0.1,0.1-0.3,0.2-0.4c0-0.1,0.1-0.2,0.2-0.2c0.1,0,0.1,0.1,0.1,0.1c0,0,0.1,0,0.1,0
				c0.1,0,0.1,0,0.1-0.1c0.2-0.4,0.4-0.9,0.5-1.3c0-0.1,0-0.1,0.1-0.1c0.1,0,0.6,0.2,0.6,0.2c0.1,0,0.2,0.1,0.2,0.1
				c0,0.1-0.1,0.1-0.2,0.1c-0.1,0-0.1,0-0.1,0.1c-0.2,0.5-0.4,0.9-0.7,1.3c0,0,0,0.1,0,0.1c0,0.1,0,0.1,0.1,0.2l0.2,0.2
				c0,0,0.1,0.1,0.1,0.1c0.1,0,0.1,0,0.2-0.1c0.2-0.4,0.4-0.7,0.6-1.2c0-0.1,0.1-0.1,0.1-0.1c0.1,0,0.3,0.1,0.5,0.2
				c0.1,0,0.1,0.1,0.1,0.1c0.1,0,0.3,0.1,0.3,0.2c0,0.1-0.1,0.1-0.1,0.1c-0.1,0-0.1,0-0.2,0.1c-0.2,0.4-1,1.5-1.3,1.9c0,0,0,0,0,0.1
				c0,0.1,0.1,0.1,0.1,0.1c0.2,0,0.3,0,0.5,0C177,143.8,177.1,143.8,177.1,143.7z M175.7,145.4c0.1,0,0.1,0.1,0.1,0.1
				c0,0.1-0.1,0.1-0.1,0.1c-0.1,0-0.1,0.1-0.1,0.2c-0.1,0.3-0.3,1.2-0.4,1.5c0,0.1-0.1,0.2-0.2,0.2c-0.1,0-0.6-0.1-0.6-0.3
				c0-0.1,0.1-0.3,0.1-0.4c0.1-0.4,0.3-1.1,0.3-1.5c0-0.1,0-0.1,0.1-0.1C175.1,145.2,175.6,145.3,175.7,145.4z M177.8,146.9
				c-0.1,0-0.2-0.1-0.2-0.2c-0.1-0.3-0.3-0.9-0.4-1.1c0-0.1-0.1-0.1-0.1-0.2c0-0.2,0.5-0.3,0.5-0.3c0.1,0,0.1,0,0.2,0.1
				c0,0,0.3,0.7,0.3,0.8c0,0.1,0.2,0.5,0.2,0.6C178.3,146.8,177.8,146.9,177.8,146.9z M178.6,143.4c0,0.1-0.1,0.2-0.2,0.2
				c-0.2,0-0.7-0.2-0.7-0.4c0-0.1,0.1-0.1,0.1-0.2c0.5-0.8,1-1.9,1.2-2.8c0-0.1,0-0.1,0.1-0.1c0.1,0,0.4,0.1,0.6,0.1
				c0.2,0,0.4,0.1,0.4,0.2c0,0.1-0.1,0.1-0.1,0.1c-0.1,0-0.1,0.1-0.2,0.4c0,0.1-0.1,0.4-0.2,0.7c0,0,0,0,0,0.1
				c0,0.1,0.1,0.1,0.2,0.2h1.2c0.3,0,0.5,0,0.8,0c0.4,0,0.4,0.3,0.4,0.7c0,1.2-0.1,3.2-0.3,4.4c-0.1,0.4-0.2,0.8-0.6,1
				c-0.3,0.2-0.9,0.2-1.3,0.2c-0.4,0-0.5-0.1-0.5-0.3c0-0.1-0.1-0.3-0.1-0.5c0-0.2,0-0.2,0.2-0.2c0.1,0,0.4,0,0.6,0
				c0.3,0,0.7,0,0.8-0.6c0.2-0.7,0.3-2.8,0.3-3.6c0-0.4-0.1-0.3-0.7-0.3h-1.2c-0.2,0-0.2,0-0.3,0.2
				C178.9,143,178.8,143.2,178.6,143.4z M179.7,145.8c-0.1,0-0.2-0.1-0.2-0.2c-0.2-0.5-0.4-0.9-0.6-1.4c0,0-0.1-0.1-0.1-0.2
				c0-0.2,0.5-0.4,0.6-0.4c0.1,0,0.1,0.1,0.2,0.1c0.1,0.2,0.3,0.5,0.4,0.8c0.1,0.2,0.4,0.8,0.4,0.9
				C180.3,145.6,179.7,145.8,179.7,145.8z"/>
			<path class="st23" d="M186,140.6c0,0.1,0.1,0.1,0.1,0.1h0.7c0.3,0,0.5,0,0.8,0c0.2,0,0.2,0.1,0.2,0.4c0,0.3,0,0.4-0.2,0.4
				c-0.2,0-0.4,0-0.6,0c-0.1,0-0.2,0-0.2,0.1c0,0,0,0.1,0,0.1c0,0.1,0.1,0.3,0.1,0.4c0,0.2-0.5,0.3-0.7,0.3c-0.1,0-0.1-0.1-0.2-0.3
				c0-0.1-0.1-0.2-0.1-0.4c-0.1-0.2-0.1-0.2-0.3-0.2c-0.2,0-0.2,0.1-0.3,0.2c-0.1,0.1-0.4,0.7-0.6,0.7c-0.1,0-0.7-0.2-0.7-0.4
				c0-0.1,0.1-0.1,0.1-0.2c0.4-0.5,0.7-1,0.9-1.6c0-0.1,0-0.1,0.1-0.1c0,0,0.7,0.1,0.8,0.1c0.1,0,0.2,0,0.2,0.1
				c0,0.1-0.1,0.1-0.1,0.1C186,140.5,186,140.5,186,140.6C186,140.6,186,140.6,186,140.6z M189.1,141.4c-0.2,0-0.3,0-0.4,0.2
				c-0.1,0.1-0.1,0.2-0.2,0.3c0,0,0,0,0,0.1c0,0,0,0.1,0.1,0.1c0.1,0,0.1,0,0.1,0.1c0,0.1,0,0.1-0.1,0.1c0,0,0,0-0.1,0.1l0,0
				c0,0,0,0,0,0.1c0,0.1,0.1,0.2,0.2,0.2h1.6c0.3,0,0.6,0,1,0c0.2,0,0.5,0.1,0.5,0.3c0,0.1,0,0.3,0,0.5v0.3c0,0.1,0,0.3,0,0.3
				c0,0.2-0.2,0.2-0.5,0.2c-0.3,0-0.5,0-0.5-0.2c0-0.1,0-0.2,0-0.4v-0.2c0-0.2-0.1-0.2-0.2-0.2h-5.2c-0.2,0-0.2,0.1-0.2,0.2v0.2
				c0,0.1,0,0.2,0,0.4c0,0.2-0.2,0.2-0.5,0.2c-0.3,0-0.5,0-0.5-0.2c0-0.1,0-0.2,0-0.3v-0.3c0-0.2,0-0.4,0-0.4c0-0.3,0.2-0.4,0.7-0.4
				c0.2,0,0.5,0,0.8,0h1.6c0.2,0,0.2-0.1,0.2-0.2c0-0.1,0-0.1,0-0.2c0,0,0-0.1,0-0.1c0-0.1,0.1-0.1,0.2-0.1c0.1,0,0.2,0,0.2,0
				c0,0,0,0,0,0c0,0,0,0,0,0c-0.1,0-0.3-0.1-0.3-0.2c0-0.1,0.1-0.1,0.1-0.2c0.3-0.3,0.6-0.9,0.8-1.3c0-0.1,0-0.1,0.1-0.1
				c0,0,0.6,0.1,0.6,0.1c0.1,0,0.3,0,0.3,0.1c0,0.1-0.1,0.1-0.1,0.1c-0.1,0-0.1,0-0.1,0.1c0,0,0,0,0,0.1c0,0.1,0.1,0.1,0.1,0.1h1.4
				c0.3,0,0.6,0,0.9,0c0.2,0,0.2,0.1,0.2,0.4c0,0.3,0,0.4-0.2,0.4c-0.3,0-0.6,0-0.9,0h-0.2c0,0-0.2,0-0.2,0.2c0,0.1,0,0.1,0,0.1
				c0,0.1,0.1,0.2,0.1,0.3c0,0.2-0.6,0.3-0.7,0.3c-0.1,0-0.1-0.1-0.2-0.2c0-0.2-0.1-0.3-0.2-0.5c-0.1-0.2-0.2-0.2-0.3-0.2H189.1z
				 M186.8,145.5c-0.1,0-0.2,0.1-0.2,0.2v0.1c0,0.1,0.1,0.2,0.2,0.2h2.7c0.2,0,0.5,0,0.7,0c0.3,0,0.5,0.1,0.5,0.4c0,0.2,0,0.3,0,0.5
				v0.4c0,0.3,0,0.5,0,0.8c0,0.2-0.1,0.2-0.5,0.2c-0.4,0-0.5,0-0.5-0.2c0-0.1-0.1-0.1-0.1-0.1h-2.8c-0.1,0-0.1,0-0.1,0.1
				c0,0.2-0.1,0.2-0.5,0.2c-0.4,0-0.5,0-0.5-0.2c0-0.2,0-0.5,0-0.8v-2.6c0-0.2,0-0.4,0-0.6c0-0.3,0.2-0.4,0.5-0.4c0.3,0,0.5,0,0.8,0
				h2.1c0.3,0,0.5,0,0.8,0c0.3,0,0.5,0,0.5,0.4c0,0.2,0,0.3,0,0.5v0.2c0,0.2,0,0.3,0,0.5c0,0.3-0.2,0.3-0.4,0.3c-0.3,0-0.5,0-0.8,0
				H186.8z M186.6,144.6c0,0.1,0.1,0.2,0.2,0.2h2.3c0.1,0,0.2-0.1,0.2-0.2v-0.1c0-0.1-0.1-0.2-0.2-0.2h-2.3
				C186.7,144.3,186.6,144.4,186.6,144.6L186.6,144.6z M189.5,147.1c0.1,0,0.2-0.1,0.2-0.2v-0.1c0-0.1-0.1-0.2-0.2-0.2h-2.7
				c-0.1,0-0.2,0.1-0.2,0.2v0.1c0,0.1,0.1,0.2,0.2,0.2H189.5z"/>
			<path class="st23" d="M196,142.9c0.2,0,0.2,0.1,0.2,0.4c0,0.3,0,0.4-0.2,0.4c-0.1,0-0.4,0-0.5,0c-0.2,0-0.2,0.1-0.2,0.2v1.1
				c0,0.1,0,0.2,0.2,0.2c0,0,0,0,0.1,0c0.1,0,0.5-0.2,0.6-0.2c0.2,0,0.2,0.3,0.2,0.5c0,0.3,0,0.3-0.2,0.4c-0.6,0.2-1.5,0.5-2.1,0.7
				c-0.2,0.1-0.2,0.1-0.3,0.2c0,0.1-0.1,0.1-0.1,0.1c-0.1,0-0.1-0.1-0.2-0.3c0-0.1-0.2-0.6-0.2-0.7c0-0.1,0.1-0.1,0.4-0.2
				c0.1,0,0.3-0.1,0.6-0.1c0.2,0,0.2-0.1,0.2-0.3V144c0-0.2-0.1-0.2-0.2-0.2c-0.2,0-0.4,0-0.5,0c-0.2,0-0.2-0.1-0.2-0.4
				c0-0.3,0-0.4,0.2-0.4c0,0,0.5,0,0.5,0c0.2,0,0.2-0.1,0.2-0.2v-1c0-0.2-0.1-0.2-0.2-0.2c-0.2,0-0.5,0-0.6,0
				c-0.2,0-0.2-0.1-0.2-0.4c0-0.3,0-0.4,0.2-0.4c0.2,0,0.5,0,0.8,0h1c0.3,0,0.5,0,0.8,0c0.2,0,0.2,0.1,0.2,0.4c0,0.3,0,0.4-0.2,0.4
				c-0.1,0-0.5,0-0.6,0c-0.2,0-0.2,0.1-0.2,0.2v1c0,0.2,0.1,0.2,0.2,0.2C195.6,142.9,195.9,142.9,196,142.9z M197.5,144.4
				c-0.1,0-0.1,0-0.1,0.1c0,0.1-0.1,0.1-0.4,0.1c-0.3,0-0.5,0-0.5-0.2c0-0.2,0-0.5,0-0.7v-2.4c0-0.2,0-0.4,0-0.6
				c0-0.3,0.2-0.4,0.5-0.4c0.2,0,0.4,0,0.6,0h2.1c0.2,0,0.4,0,0.6,0c0.3,0,0.5,0.1,0.5,0.4c0,0.2,0,0.4,0,0.6v2.4c0,0.2,0,0.5,0,0.7
				c0,0.2-0.1,0.2-0.4,0.2c-0.2,0-0.3,0-0.4-0.1c-0.1-0.1-0.1-0.1-0.2-0.2h-0.5c-0.2,0-0.2,0.1-0.2,0.2v0.4c0,0.2,0.1,0.2,0.2,0.2
				h0.3c0.3,0,0.7,0,1,0c0.2,0,0.2,0.1,0.2,0.4c0,0.3,0,0.4-0.2,0.4c-0.3,0-0.7,0-1,0h-0.3c-0.2,0-0.2,0.1-0.2,0.2v0.4
				c0,0.2,0.1,0.2,0.2,0.2h0.6c0.3,0,0.6,0,1,0c0.2,0,0.2,0.1,0.2,0.4c0,0.3,0,0.4-0.2,0.4c-0.3,0-0.6,0-1,0h-3.3c-0.3,0-0.6,0-1,0
				c-0.2,0-0.2-0.1-0.2-0.4c0-0.3,0-0.4,0.2-0.4c0.3,0,0.6,0,1,0h1.2c0.2,0,0.2-0.1,0.2-0.2v-0.4c0-0.2-0.1-0.2-0.2-0.2h-0.3
				c-0.3,0-0.7,0-1,0c-0.2,0-0.2-0.1-0.2-0.4c0-0.3,0-0.4,0.2-0.4c0.3,0,0.7,0,1,0h0.3c0.2,0,0.2-0.1,0.2-0.2v-0.4
				c0-0.2-0.1-0.2-0.2-0.2H197.5z M198.3,141.4c0-0.2-0.1-0.2-0.2-0.2h-0.4c-0.2,0-0.2,0.1-0.2,0.2v0.4c0,0.2,0.1,0.2,0.2,0.2h0.4
				c0.2,0,0.2-0.1,0.2-0.2V141.4z M197.7,142.7c-0.2,0-0.2,0.1-0.2,0.2v0.4c0,0.2,0.1,0.2,0.2,0.2h0.4c0.2,0,0.2-0.1,0.2-0.2V143
				c0-0.2-0.1-0.2-0.2-0.2H197.7z M199.8,142c0.2,0,0.2-0.1,0.2-0.2v-0.4c0-0.2-0.1-0.2-0.2-0.2h-0.4c-0.2,0-0.2,0.1-0.2,0.2v0.4
				c0,0.2,0.1,0.2,0.2,0.2H199.8z M199.2,143.4c0,0.2,0.1,0.2,0.2,0.2h0.4c0.2,0,0.2-0.1,0.2-0.2V143c0-0.2-0.1-0.2-0.2-0.2h-0.4
				c-0.2,0-0.2,0.1-0.2,0.2V143.4z"/>
			<path class="st23" d="M206.2,140.5c0,0,0.1,0,0.1,0.1s-0.1,0.1-0.1,0.2c-0.1,0.1-0.1,0.4-0.2,0.5c0,0.1-0.1,0.4-0.1,0.4
				c0,0.1,0,0.1,0.1,0.1s0.4-0.1,0.5-0.1c0,0,0.1,0,0.1,0c0.1,0,0.1,0.2,0.1,0.3c0,0.1,0,0.3,0,0.5c0,0.2-0.1,0.2-0.9,0.4
				c-0.3,0.1-0.3,0.1-0.4,0.4c-0.4,1.1-0.9,2.2-1.5,3.2c-0.1,0.1-0.1,0.1-0.2,0.1c-0.2,0-0.8-0.3-0.8-0.4c0-0.1,0.1-0.2,0.2-0.3
				c0.4-0.6,0.8-1.4,1.1-2.1c0-0.1,0.2-0.5,0.2-0.5c0-0.1,0-0.1-0.1-0.1c-0.1,0-0.8,0.1-1,0.1c-0.2,0-0.2-0.1-0.2-0.3
				c0-0.1-0.1-0.4-0.1-0.5c0-0.1,0.1-0.1,0.2-0.1h0.4c0.3,0,0.6,0,0.9,0c0.1,0,0.2,0,0.3-0.1c0.1-0.2,0.3-1.2,0.3-1.5
				c0-0.1,0-0.2,0.1-0.2C205.3,140.2,206,140.5,206.2,140.5z M207.4,143.2c0.1,0,0.2,0.1,0.2,0.2c0,0,0,0.3,0,0.5
				c0,0.3,0,1.5,0.1,1.7c0,0.1,0.1,0.2,0.3,0.2c0,0,0.1,0,0.1,0c0.2,0.1,1.3,0.6,1.3,0.8c0,0.1-0.3,0.7-0.6,0.7
				c-0.1,0-0.2-0.1-0.2-0.1c-0.1-0.1-0.6-0.4-0.7-0.4c-0.1,0-0.1,0.1-0.1,0.2c-0.1,0.7-0.6,0.9-1.2,0.9c-0.7,0-1.6-0.4-1.6-1.2
				c0-0.8,0.8-1.1,1.5-1.1h0.2c0.1,0,0.2,0,0.2-0.2c0-0.3-0.1-1.6-0.2-1.9c0,0,0-0.1,0-0.1c0-0.1,0.1-0.2,0.2-0.2
				C207,143.1,207.3,143.1,207.4,143.2z M205.8,146.5c0,0.3,0.4,0.4,0.6,0.4c0.3,0,0.5-0.2,0.5-0.5c0-0.2,0-0.3-0.5-0.3
				C206.2,146.2,205.8,146.3,205.8,146.5z M209.7,143.1c0,0.2-0.5,0.6-0.7,0.6c-0.1,0-0.2-0.1-0.2-0.2c-0.3-0.4-0.7-0.8-1.1-1.1
				c0,0-0.1-0.1-0.1-0.1c0-0.1,0.4-0.6,0.6-0.6C208.4,141.7,209.7,142.9,209.7,143.1z"/>
			<path class="st23" d="M213.4,142.2c0.1,0,0.2,0.1,0.2,0.1c0,0.1,0,0.1-0.1,0.1c-0.1,0.1-0.2,0.2-0.2,0.3
				c-0.1,0.4-0.1,0.8-0.2,1.2c0,0.1,0,0.1,0,0.2c0,0.1,0,0.1,0.1,0.1c0,0,0.1,0,0.1-0.1c0.7-0.5,1.2-0.8,2-0.8
				c1.1,0,1.9,0.7,1.9,1.9c0,1.3-0.9,1.8-2,2.1c-0.3,0.1-0.9,0.2-1.2,0.2c-0.2,0-0.2-0.1-0.3-0.2c-0.1-0.1-0.2-0.4-0.2-0.6
				c0-0.1,0.1-0.2,0.2-0.2c0.4,0,0.8-0.1,1.2-0.2c0.6-0.2,1.3-0.4,1.3-1.2c0-0.6-0.5-0.9-1.1-0.9c-0.9,0-1.9,0.8-2.4,1.5
				c-0.1,0.1-0.1,0.2-0.3,0.2c-0.1,0-0.7-0.1-0.7-0.3c0-0.1,0.1-0.2,0.1-0.3c0.1-0.3,0.2-0.6,0.2-0.9c0.1-0.6,0.2-1.3,0.2-1.9
				c0-0.1,0-0.1,0-0.2c0-0.3,0-0.4,0.2-0.4C212.7,142,213.3,142.2,213.4,142.2z M213.6,140.3c0.1,0,0.9,0.5,1,0.6
				c0.1,0.1,0.7,0.4,0.7,0.5c0,0.2-0.4,0.7-0.6,0.7c-0.1,0-0.2-0.1-0.3-0.2c-0.3-0.3-0.7-0.5-1.1-0.8c-0.1-0.1-0.2-0.1-0.2-0.2
				C213.1,140.9,213.4,140.3,213.6,140.3z"/>
			<path class="st23" d="M224.6,141.3c0.2,0,0.5,0,0.7,0c0.4,0,0.6,0.1,0.6,0.5c0,0.3,0,0.5,0,0.8v3.6c0,0.3,0,0.5,0,0.8
				c0,0.3-0.1,0.3-0.4,0.3c-0.5,0-0.5,0-0.5-0.2c0-0.2-0.2-0.2-0.4-0.2h-2.7c-0.3,0-0.5,0-0.8,0c-0.1,0-0.3,0-0.4,0
				c-0.2,0-0.2-0.2-0.2-0.5c0-0.3,0-0.4,0.2-0.4c0.3,0,0.7,0,1.1,0h2.9c0.1,0,0.2-0.1,0.2-0.2v-0.9c0-0.1-0.1-0.2-0.2-0.2h-2.8
				c-0.4,0-0.9,0-1.1,0c-0.2,0-0.2-0.1-0.2-0.4c0-0.4,0-0.5,0.2-0.5c0.1,0,0.2,0,0.4,0c0.3,0,0.5,0,0.8,0h2.8c0.1,0,0.2-0.1,0.2-0.2
				v-0.9c0-0.1-0.1-0.2-0.2-0.2h-2.9c-0.4,0-0.8,0-1.1,0c-0.2,0-0.2-0.2-0.2-0.5c0-0.4,0-0.5,0.2-0.5c0.3,0,0.7,0,1.1,0H224.6z"/>
			<path class="st23" d="M230.6,142.9c0.1,0,0.2-0.2,0.2-0.3l-0.1-0.7c-0.1-0.3-0.1-0.7-0.2-1c0,0,0-0.1,0-0.2
				c0-0.1,0.2-0.1,0.4-0.1c0.2,0,0.4,0,0.6,0c0.1,0,0.2,0,0.2,0.1c0,0,0,0.1,0,0.1c0,0.1,0,0.1,0,0.2c0,0.1,0.1,0.7,0.1,0.8l0.1,0.6
				c0,0.1,0.2,0.2,0.3,0.2l2-0.4c0.3-0.1,0.9-0.2,1-0.2c0.2,0,0.7,0.5,0.7,0.7c0,0.1-0.1,0.2-0.1,0.2c-0.4,0.4-0.9,1.2-1.2,1.7
				c-0.2,0.2-0.3,0.5-0.5,0.5c-0.2,0-0.7-0.2-0.7-0.4c0-0.1,0.1-0.2,0.1-0.2c0.1-0.1,0.9-1.1,0.9-1.2c0-0.1-0.1-0.1-0.1-0.1
				c0,0-0.2,0-0.2,0l-1.5,0.3c-0.2,0-0.2,0.2-0.2,0.3l0.5,2.5c0,0.2,0.3,1.2,0.3,1.3c0,0.1-0.1,0.2-0.1,0.2c-0.1,0-0.6,0.1-0.7,0.1
				c-0.2,0-0.2-0.2-0.3-0.7c0-0.2-0.1-0.5-0.2-0.8l-0.5-2.5c0-0.2-0.2-0.2-0.3-0.2l-1,0.2c-0.1,0-1.2,0.2-1.2,0.2
				c-0.1,0-0.1-0.1-0.2-0.2c0-0.1-0.1-0.5-0.1-0.6c0-0.2,0.1-0.2,0.7-0.3c0.2,0,0.4-0.1,0.6-0.1L230.6,142.9z"/>
			<path class="st23" d="M242.8,141.8c0.2,0,0.3,0,0.5-0.1c0,0,0.1,0,0.1,0c0.2,0,0.6,0.5,0.6,0.6c0,0,0,0.1-0.1,0.2
				c-0.1,0.1-0.2,0.3-0.3,0.5c-0.9,1.7-1.7,3-3.4,4.1c-0.2,0.1-1,0.7-1.2,0.7c-0.2,0-0.8-0.4-0.8-0.6c0-0.1,0.1-0.1,0.2-0.2
				c1.4-0.6,2.6-1.6,3.4-2.9c0.2-0.2,0.7-1.1,0.7-1.3c0-0.1-0.1-0.1-0.3-0.1h-1.7c-0.2,0-0.3,0.1-0.4,0.2c-0.2,0.2-1.2,1.5-1.4,1.5
				c-0.1,0-0.8-0.3-0.8-0.5c0-0.1,0-0.1,0.1-0.1c0.9-0.7,2-2.1,2.4-3.2c0-0.1,0.1-0.2,0.1-0.2c0,0,0.3,0.1,0.5,0.2
				c0.1,0,0.5,0.2,0.5,0.3c0,0,0,0.1-0.1,0.1c-0.1,0-0.2,0.1-0.3,0.4c0,0.1-0.2,0.2-0.2,0.3c0,0.1,0.1,0.1,0.2,0.2H242.8z"/>
			<path class="st23" d="M252.4,142.2c0.2,0,0.4,0,0.5,0c0,0,0.1,0,0.1,0c0.2,0,0.6,0.6,0.6,0.7c0,0.1-0.1,0.2-0.3,0.3
				c-0.1,0.1-0.2,0.1-0.2,0.2c-0.8,0.7-1.5,1.5-2.4,2.2c-0.1,0.1-0.2,0.1-0.2,0.3c0,0.1,0.1,0.2,0.1,0.3c0.1,0.1,0.3,0.5,0.3,0.5
				c0,0.2-0.6,0.5-0.7,0.5c-0.1,0-0.1-0.1-0.2-0.2c-0.4-0.7-1-1.4-1.6-1.9c-0.1-0.1-0.2-0.2-0.2-0.2c0-0.1,0.5-0.5,0.7-0.5
				c0.1,0,0.6,0.5,0.7,0.6c0.1,0.1,0.1,0.1,0.2,0.1c0.1,0,0.2,0,0.2-0.1c0.4-0.3,0.8-0.7,1.1-1c0.1-0.1,0.6-0.5,0.6-0.6
				c0-0.1-0.2-0.1-0.3-0.1h-3.7c-0.4,0-0.8,0-1.1,0c-0.2,0-0.2-0.2-0.2-0.4c0-0.5,0-0.6,0.2-0.6c0.4,0,0.8,0,1.2,0H252.4z"/>
		</g>
	</g>
	<g>
		<path class="st8" d="M264.9,137.5c0,0.1,0.1,0.2,0.2,0.2h1.2c0.4,0,0.9,0,1.3,0c0.3,0,0.3,0.1,0.3,0.6c0,0.5,0,0.6-0.3,0.6
			c-0.4,0-0.7,0-1.1,0c-0.1,0-0.3,0.1-0.3,0.2c0,0,0,0.1,0,0.1c0,0.1,0.2,0.5,0.2,0.6c0,0.3-0.9,0.4-1.1,0.4c-0.2,0-0.2-0.1-0.3-0.4
			c0-0.1-0.1-0.4-0.2-0.7c-0.1-0.3-0.2-0.3-0.5-0.4c-0.3,0-0.4,0.1-0.5,0.3c-0.1,0.2-0.7,1.1-1,1.1c-0.2,0-1.1-0.3-1.1-0.6
			c0-0.1,0.1-0.2,0.1-0.3c0.6-0.8,1.2-1.7,1.6-2.6c0-0.1,0.1-0.1,0.2-0.1c0.1,0,1.2,0.2,1.3,0.2c0.1,0,0.3,0.1,0.3,0.2
			c0,0.1-0.1,0.1-0.2,0.2c-0.1,0-0.2,0-0.3,0.2C264.9,137.5,264.9,137.5,264.9,137.5z M270.1,138.9c-0.3,0-0.4,0.1-0.6,0.3
			c-0.1,0.2-0.2,0.4-0.4,0.5c0,0,0,0.1,0,0.1c0,0.1,0.1,0.1,0.1,0.1c0.1,0,0.2,0,0.2,0.2c0,0.1-0.1,0.1-0.2,0.2
			c-0.1,0-0.1,0.1-0.1,0.1l0,0c0,0,0,0.1,0,0.1c0,0.2,0.2,0.3,0.4,0.3h2.6c0.5,0,1.1,0,1.6,0c0.4,0,0.8,0.1,0.8,0.6
			c0,0.1,0,0.4,0,0.8v0.6c0,0.2,0,0.4,0,0.6c0,0.3-0.3,0.3-0.8,0.3c-0.5,0-0.8,0-0.8-0.3c0-0.2,0-0.4,0-0.6v-0.3
			c0-0.3-0.1-0.4-0.4-0.4h-8.6c-0.3,0-0.4,0.1-0.4,0.4v0.3c0,0.2,0,0.4,0,0.6c0,0.3-0.3,0.3-0.8,0.3c-0.5,0-0.8,0-0.8-0.3
			c0-0.2,0-0.4,0-0.6v-0.6c0-0.3,0-0.6,0-0.7c0-0.5,0.4-0.6,1.1-0.6c0.4,0,0.8,0,1.3,0h2.6c0.3,0,0.4-0.1,0.4-0.4c0-0.1,0-0.2,0-0.3
			c0,0,0-0.1,0-0.1c0-0.2,0.2-0.2,0.3-0.2c0.1,0,0.3,0,0.4,0c0,0,0,0,0,0c0,0,0,0,0,0c-0.2-0.1-0.5-0.2-0.5-0.4
			c0-0.1,0.1-0.2,0.2-0.3c0.5-0.5,1-1.5,1.3-2.2c0-0.1,0.1-0.2,0.2-0.2c0.1,0,0.9,0.2,1.1,0.2c0.2,0,0.5,0.1,0.5,0.2
			c0,0.1-0.1,0.1-0.2,0.2c-0.1,0-0.1,0.1-0.2,0.2c0,0,0,0.1,0,0.1c0,0.1,0.1,0.2,0.2,0.2h2.4c0.5,0,1,0,1.4,0c0.3,0,0.3,0.2,0.3,0.6
			c0,0.4,0,0.6-0.3,0.6c-0.4,0-0.9,0-1.4,0h-0.4c0,0-0.3,0-0.3,0.3c0,0.1,0,0.1,0.1,0.2c0.1,0.2,0.2,0.4,0.2,0.5
			c0,0.3-0.9,0.5-1.1,0.5c-0.2,0-0.2-0.1-0.3-0.3c-0.1-0.3-0.2-0.5-0.3-0.8c-0.1-0.3-0.3-0.4-0.5-0.4H270.1z M266.2,145.7
			c-0.2,0-0.3,0.1-0.3,0.3v0.1c0,0.2,0.1,0.3,0.3,0.3h4.4c0.4,0,0.8,0,1.2,0c0.5,0,0.8,0.1,0.8,0.6c0,0.3,0,0.6,0,0.9v0.6
			c0,0.4,0,0.8,0,1.3c0,0.3-0.2,0.3-0.8,0.3c-0.7,0-0.8,0-0.8-0.3c0-0.2-0.1-0.2-0.2-0.2h-4.6c-0.2,0-0.2,0.1-0.2,0.2
			c0,0.3-0.1,0.3-0.8,0.3c-0.6,0-0.8,0-0.8-0.4c0-0.4,0-0.8,0-1.3v-4.3c0-0.4,0-0.7,0-0.9c0-0.5,0.3-0.6,0.8-0.6c0.4,0,0.9,0,1.3,0
			h3.5c0.4,0,0.9,0,1.3,0c0.4,0,0.8,0.1,0.8,0.6c0,0.3,0,0.5,0,0.8v0.4c0,0.3,0,0.5,0,0.8c0,0.5-0.3,0.6-0.7,0.6c-0.4,0-0.9,0-1.3,0
			H266.2z M266,144.2c0,0.2,0.1,0.4,0.4,0.4h3.8c0.2,0,0.4-0.1,0.4-0.4v-0.1c0-0.2-0.1-0.4-0.4-0.4h-3.8c-0.2,0-0.4,0.1-0.4,0.4
			V144.2z M270.8,148.3c0.2,0,0.3-0.1,0.3-0.4v-0.2c0-0.2-0.1-0.4-0.3-0.4h-4.4c-0.2,0-0.4,0.1-0.4,0.4v0.2c0,0.2,0.1,0.4,0.4,0.4
			H270.8z"/>
		<path class="st8" d="M281.5,141.4c0.3,0,0.3,0.2,0.3,0.7c0,0.5,0,0.7-0.3,0.7c-0.1,0-0.6,0-0.8,0c-0.3,0-0.4,0.1-0.4,0.4v1.7
			c0,0.2,0.1,0.3,0.3,0.3c0,0,0.1,0,0.1,0c0.1-0.1,0.9-0.3,1-0.3c0.3,0,0.3,0.5,0.3,0.8c0,0.5-0.1,0.5-0.3,0.6
			c-0.9,0.4-2.5,0.9-3.5,1.1c-0.4,0.1-0.4,0.1-0.4,0.3c0,0.1-0.1,0.2-0.2,0.2c-0.1,0-0.2-0.1-0.3-0.4c-0.1-0.2-0.3-1-0.3-1.2
			c0-0.2,0.1-0.2,0.6-0.3c0.2,0,0.5-0.1,1-0.2c0.3-0.1,0.4-0.2,0.4-0.5v-2.1c0-0.3-0.1-0.4-0.4-0.4c-0.3,0-0.6,0-0.9,0
			c-0.3,0-0.3-0.2-0.3-0.7c0-0.5,0-0.7,0.3-0.7c0,0,0.8,0,0.8,0c0.3,0,0.4-0.1,0.4-0.4v-1.7c0-0.3-0.1-0.4-0.4-0.4
			c-0.3,0-0.8,0-1.1,0c-0.3,0-0.3-0.2-0.3-0.7c0-0.5,0-0.7,0.3-0.7c0.4,0,0.8,0,1.3,0h1.6c0.4,0,0.9,0,1.3,0c0.3,0,0.3,0.2,0.3,0.7
			c0,0.5,0,0.7-0.3,0.7c-0.1,0-0.8,0-0.9,0c-0.3,0-0.4,0.1-0.4,0.4v1.7c0,0.3,0.1,0.4,0.4,0.4C280.9,141.4,281.4,141.4,281.5,141.4z
			 M284.1,143.8c-0.1,0-0.2,0.1-0.2,0.2c-0.1,0.2-0.2,0.2-0.7,0.2c-0.6,0-0.8,0-0.8-0.3c0-0.4,0-0.8,0-1.2v-3.9c0-0.3,0-0.6,0-1
			c0-0.5,0.3-0.6,0.8-0.6c0.4,0,0.7,0,1.1,0h3.5c0.4,0,0.7,0,1.1,0c0.4,0,0.8,0.1,0.8,0.6c0,0.3,0,0.6,0,1v3.9c0,0.4,0,0.8,0,1.2
			c0,0.3-0.2,0.3-0.7,0.3c-0.4,0-0.5,0-0.7-0.1c-0.1-0.1-0.2-0.2-0.3-0.3h-0.8c-0.3,0-0.4,0.1-0.4,0.4v0.7c0,0.3,0.1,0.4,0.4,0.4
			h0.6c0.5,0,1.1,0,1.6,0c0.4,0,0.3,0.2,0.3,0.7c0,0.5,0,0.7-0.3,0.7c-0.5,0-1.1,0-1.6,0h-0.6c-0.3,0-0.4,0.1-0.4,0.4v0.7
			c0,0.3,0.1,0.4,0.4,0.4h1.1c0.5,0,1.1,0,1.6,0c0.4,0,0.4,0.2,0.4,0.7c0,0.5,0,0.7-0.4,0.7c-0.5,0-1.1,0-1.6,0h-5.4
			c-0.5,0-1.1,0-1.6,0c-0.4,0-0.4-0.2-0.4-0.7c0-0.5,0-0.7,0.4-0.7c0.5,0,1.1,0,1.6,0h2.1c0.3,0,0.4-0.1,0.4-0.4V147
			c0-0.3-0.1-0.4-0.4-0.4h-0.6c-0.5,0-1.1,0-1.6,0c-0.4,0-0.4-0.2-0.4-0.7c0-0.5,0-0.7,0.4-0.7c0.5,0,1.1,0,1.6,0h0.6
			c0.3,0,0.4-0.1,0.4-0.4v-0.7c0-0.3-0.1-0.4-0.4-0.4H284.1z M285.3,138.9c0-0.3-0.2-0.4-0.4-0.4h-0.6c-0.3,0-0.4,0.1-0.4,0.4v0.6
			c0,0.3,0.2,0.4,0.4,0.4h0.6c0.3,0,0.4-0.2,0.4-0.4V138.9z M284.3,141.1c-0.3,0-0.4,0.2-0.4,0.4v0.7c0,0.3,0.2,0.4,0.4,0.4h0.6
			c0.3,0,0.4-0.2,0.4-0.4v-0.7c0-0.3-0.2-0.4-0.4-0.4H284.3z M287.8,139.9c0.3,0,0.4-0.2,0.4-0.4v-0.6c0-0.3-0.2-0.4-0.4-0.4h-0.6
			c-0.3,0-0.4,0.1-0.4,0.4v0.6c0,0.3,0.2,0.4,0.4,0.4H287.8z M286.8,142.1c0,0.3,0.2,0.4,0.4,0.4h0.6c0.3,0,0.4-0.2,0.4-0.4v-0.7
			c0-0.3-0.2-0.4-0.4-0.4h-0.6c-0.3,0-0.4,0.2-0.4,0.4V142.1z"/>
		<path class="st8" d="M300.7,140.1c0.3,0,0.7,0,1,0c0.5,0,0.7,0.1,0.7,0.6c0,0.3,0,0.6,0,0.9v3.3c0,0.3,0,0.6,0,0.9
			c0,0.5-0.2,0.6-0.7,0.6c-0.3,0-0.7,0-1,0h-3.5c-0.3,0-0.7,0-1,0c-0.5,0-0.7-0.1-0.7-0.6c0-0.3,0-0.6,0-0.9v-3.3c0-0.3,0-0.6,0-0.9
			c0-0.5,0.2-0.6,0.7-0.6c0.3,0,0.7,0,1,0h0.6c0.3,0,0.4-0.1,0.4-0.4V139c0-0.3-0.1-0.4-0.4-0.4h-3.2c-0.6,0-1.2,0-1.8,0
			c-0.4,0-0.4-0.2-0.4-0.7c0-0.5,0-0.7,0.4-0.7c0.6,0,1.2,0,1.8,0h8.7c0.6,0,1.2,0,1.8,0c0.4,0,0.4,0.2,0.4,0.7c0,0.5,0,0.7-0.4,0.7
			c-0.6,0-1.2,0-1.8,0h-3.2c-0.3,0-0.4,0.1-0.4,0.4v0.7c0,0.3,0.1,0.4,0.4,0.4H300.7z M303.5,141.5c0-0.4,0-0.9-0.1-1.2
			c0,0,0-0.1,0-0.1c0-0.2,0.1-0.2,0.3-0.2c0.3,0,0.9,0,1.2,0.1c0.1,0,0.4,0,0.4,0.2c0,0.1-0.1,0.1-0.2,0.2c-0.2,0.1-0.2,0.5-0.2,0.9
			v6.1c0,0.7,0,1.3,0,2c0,0.5-0.2,0.5-0.8,0.5c-0.7,0-0.8,0-0.8-0.5c0-0.2-0.1-0.3-0.3-0.3h-8.2c-0.2,0-0.3,0.1-0.3,0.3v0.1
			c0,0.4-0.2,0.4-0.8,0.4c-0.6,0-0.8,0-0.8-0.5c0-0.7,0-1.3,0-2v-6c0-0.4,0-0.9-0.1-1.2c0-0.1,0-0.1,0-0.1c0-0.2,0.1-0.2,0.3-0.2
			c0.3,0,1,0,1.2,0.1c0.1,0,0.4,0,0.4,0.2c0,0.1-0.1,0.1-0.2,0.2c-0.2,0.1-0.2,0.4-0.2,0.9v6c0,0.3,0.1,0.4,0.4,0.4h8.2
			c0.3,0,0.4-0.1,0.4-0.4V141.5z M297.9,142.6c0.3,0,0.4-0.2,0.4-0.4v-0.4c0-0.3-0.2-0.4-0.4-0.4h-0.5c-0.3,0-0.4,0.1-0.4,0.4v0.4
			c0,0.3,0.1,0.4,0.4,0.4H297.9z M298.3,144.2c0-0.3-0.2-0.4-0.4-0.4h-0.5c-0.3,0-0.4,0.2-0.4,0.4v0.6c0,0.3,0.1,0.4,0.4,0.4h0.5
			c0.3,0,0.4-0.2,0.4-0.4V144.2z M299.7,142.2c0,0.3,0.2,0.4,0.4,0.4h0.6c0.3,0,0.4-0.2,0.4-0.4v-0.4c0-0.3-0.1-0.4-0.4-0.4h-0.6
			c-0.3,0-0.4,0.1-0.4,0.4V142.2z M300.1,143.8c-0.3,0-0.4,0.2-0.4,0.4v0.6c0,0.3,0.2,0.4,0.4,0.4h0.6c0.3,0,0.4-0.2,0.4-0.4v-0.6
			c0-0.3-0.1-0.4-0.4-0.4H300.1z"/>
		<path class="st8" d="M314.5,140.1c0,0.2,0.1,0.2,0.3,0.2h3.2c0.5,0,0.9,0,1.4,0c0.6,0,0.9,0.1,0.9,0.7c0,0.4,0,0.8,0,1.2v5.7
			c0,0.5,0,1.1,0,1.6c0,0.4-0.2,0.4-0.8,0.4c-0.6,0-0.8,0-0.8-0.4v-0.1c0-0.2-0.1-0.3-0.3-0.3h-7.7c-0.2,0-0.3,0.1-0.3,0.3v0.1
			c0,0.4-0.2,0.4-0.8,0.4c-0.6,0-0.8,0-0.8-0.4c0-0.5,0-1.1,0-1.6v-5.7c0-0.4,0-0.8,0-1.2c0-0.6,0.3-0.7,0.9-0.7c0.5,0,0.9,0,1.4,0
			h1.3c0.3,0,0.4-0.1,0.6-0.3c0.2-0.3,0.4-0.7,0.6-1.1c0,0,0-0.1,0-0.1c0-0.2-0.2-0.2-0.3-0.2h-3c-0.6,0-1.2,0-1.8,0
			c-0.4,0-0.4-0.2-0.4-0.7c0-0.6,0-0.7,0.4-0.7c0.6,0,1.2,0,1.8,0h8.7c0.6,0,1.2,0,1.8,0c0.4,0,0.4,0.2,0.4,0.7c0,0.6,0,0.7-0.4,0.7
			c-0.6,0-1.2,0-1.8,0h-3c-0.3,0-0.4,0.1-0.6,0.3c-0.2,0.4-0.4,0.7-0.6,1.1C314.5,140,314.5,140.1,314.5,140.1z M311.8,142.1
			c0-0.3-0.2-0.4-0.4-0.4h-0.9c-0.3,0-0.4,0.2-0.4,0.4v5.2c0,0.3,0.2,0.4,0.4,0.4h0.9c0.3,0,0.4-0.1,0.4-0.4V142.1z M313.7,141.7
			c-0.3,0-0.4,0.2-0.4,0.4v0.3c0,0.3,0.2,0.4,0.4,0.4h1.4c0.3,0,0.4-0.1,0.4-0.4v-0.3c0-0.3-0.2-0.4-0.4-0.4H313.7z M313.7,144.1
			c-0.3,0-0.4,0.1-0.4,0.4v0.3c0,0.3,0.2,0.4,0.4,0.4h1.4c0.3,0,0.4-0.2,0.4-0.4v-0.3c0-0.3-0.2-0.4-0.4-0.4H313.7z M315.1,147.7
			c0.3,0,0.4-0.1,0.4-0.4v-0.4c0-0.3-0.2-0.4-0.4-0.4h-1.4c-0.3,0-0.4,0.2-0.4,0.4v0.4c0,0.3,0.2,0.4,0.4,0.4H315.1z M318.2,147.7
			c0.3,0,0.4-0.1,0.4-0.4v-5.2c0-0.3-0.1-0.4-0.4-0.4h-0.9c-0.3,0-0.4,0.2-0.4,0.4v5.2c0,0.3,0.2,0.4,0.4,0.4H318.2z"/>
	</g>
</g>
<rect x="160.1" y="560.7" class="st8" width="879.7" height="1.8"/>
<g>
	<path class="st8" d="M688.5,591.5H511.5c-17.3,0-31.3-14-31.3-31.3c0-17.3,14-31.3,31.3-31.3h176.9c17.3,0,31.3,14,31.3,31.3
		C719.8,577.4,705.8,591.5,688.5,591.5z"/>
	<g>
		<path class="st2" d="M515.8,560.6l1.9,0.7c-0.5,0.8-1.1,1.6-1.8,2.4c-0.7,0.8-1.5,1.4-2.3,2.1c-0.8,0.6-1.7,1.1-2.6,1.5
			c-0.1-0.2-0.2-0.4-0.4-0.6c-0.2-0.2-0.4-0.4-0.5-0.6c-0.2-0.2-0.4-0.4-0.5-0.5c0.8-0.3,1.6-0.7,2.4-1.2c0.8-0.5,1.5-1.1,2.2-1.7
			C514.8,561.9,515.4,561.3,515.8,560.6z M509.8,560.1h22.1v1.9h-22.1V560.1z M510.9,550.7h19.8v1.9h-19.8V550.7z M511.8,568.3H530
			v1.9h-18.3V568.3z M514.5,548.6h2.3v12.5h-2.3V548.6z M515,564.4h11.7v1.8H515V564.4z M515.8,553.9h10v1.6h-10V553.9z M515.8,557
			h10v1.6h-10V557z M519.6,562.6h2.3v6.8h-2.3V562.6z M525.9,560.6c0.4,0.7,1,1.3,1.6,1.9c0.7,0.6,1.4,1.1,2.2,1.6
			c0.8,0.5,1.6,0.9,2.4,1.2c-0.1,0.1-0.3,0.3-0.5,0.5c-0.2,0.2-0.4,0.4-0.6,0.6c-0.2,0.2-0.3,0.4-0.4,0.6c-0.8-0.4-1.7-0.9-2.5-1.5
			c-0.8-0.6-1.6-1.3-2.3-2c-0.7-0.7-1.3-1.5-1.8-2.3L525.9,560.6z M525,548.6h2.3v12.5H525V548.6z"/>
		<path class="st2" d="M545.3,554.3l2.1,0.7c-0.7,1.7-1.5,3.3-2.6,4.9c-1,1.6-2.1,3-3.4,4.2c-1.2,1.2-2.6,2.3-3.9,3.1
			c-0.1-0.2-0.3-0.4-0.5-0.6c-0.2-0.2-0.4-0.5-0.6-0.7c-0.2-0.2-0.4-0.4-0.6-0.6c1-0.5,2-1.2,2.9-2c0.9-0.8,1.8-1.7,2.7-2.6
			c0.8-1,1.6-2,2.2-3.1C544.3,556.5,544.8,555.4,545.3,554.3z M536.7,553.5h21.1v2.3h-21.1V553.5z M541.5,564.3h11.2v2.3h-11.2
			V564.3z M546,548.6h2.4v22.3H546V548.6z M549.1,554.4c0.6,1.5,1.4,2.9,2.4,4.3c1,1.4,2.1,2.6,3.3,3.8c1.2,1.1,2.5,2,3.9,2.7
			c-0.2,0.2-0.4,0.4-0.6,0.6c-0.2,0.2-0.4,0.5-0.6,0.7c-0.2,0.3-0.4,0.5-0.5,0.7c-1.4-0.8-2.7-1.8-4-3.1c-1.2-1.2-2.4-2.6-3.4-4.2
			c-1-1.5-1.9-3.2-2.6-4.8L549.1,554.4z"/>
		<path class="st2" d="M563.2,553.3l1.7,0.2c0,0.6-0.1,1.4-0.2,2.1s-0.2,1.6-0.3,2.4c-0.1,0.8-0.3,1.5-0.5,2.1l-1.7-0.6
			c0.2-0.6,0.3-1.2,0.5-1.9c0.1-0.7,0.3-1.5,0.4-2.2C563.1,554.6,563.2,553.9,563.2,553.3z M565.2,548.6h2.1v22.2h-2.1V548.6z
			 M567.2,552.6l1.5-0.6c0.3,0.5,0.5,1.1,0.8,1.8c0.3,0.6,0.5,1.2,0.6,1.6l-1.5,0.7c-0.1-0.5-0.3-1-0.5-1.7
			C567.7,553.8,567.4,553.2,567.2,552.6z M568.9,556.3h15.7v1.7h-15.7V556.3z M569.7,550.4H584v1.7h-14.3V550.4z M570.3,553.3h13.1
			v1.6h-13.1V553.3z M570.6,559.2h10.6v1.7h-8.4v10h-2.1V559.2z M572.2,562.4h9v1.7h-9V562.4z M572.3,565.6h9v1.6h-9V565.6z
			 M575.6,548.6h2.2v8.2h-2.2V548.6z M580.8,559.2h2.2v9.4c0,0.5-0.1,0.9-0.2,1.2c-0.1,0.3-0.4,0.5-0.8,0.7
			c-0.4,0.2-0.9,0.3-1.4,0.3c-0.6,0-1.3,0-2.1,0c0-0.3-0.1-0.6-0.3-1c-0.1-0.4-0.3-0.7-0.4-1c0.6,0,1.1,0,1.6,0c0.5,0,0.8,0,1,0
			c0.3,0,0.4-0.1,0.4-0.4V559.2z"/>
		<path class="st2" d="M588.9,554.9h10.8v1.9h-10.8V554.9z M589.3,560h10.1v1.9h-10.1V560z M589.5,564.2h9.6v1.9h-9.6V564.2z
			 M589.7,550.9h9v1.9h-9V550.9z M590.5,557.1l1.7-0.4c0.3,0.5,0.5,1,0.7,1.6c0.2,0.6,0.3,1.1,0.4,1.5l-1.8,0.5
			c0-0.4-0.2-0.9-0.3-1.5C590.9,558.2,590.7,557.6,590.5,557.1z M593.3,548.7h2.1v7h-2.1V548.7z M593.3,560.8h2.1v10h-2.1V560.8z
			 M596.6,556.6l1.9,0.5c-0.2,0.6-0.5,1.1-0.7,1.7s-0.4,1-0.7,1.4l-1.6-0.5c0.1-0.3,0.3-0.6,0.4-1c0.1-0.4,0.3-0.7,0.4-1.1
			C596.4,557.3,596.5,556.9,596.6,556.6z M600.3,549.7h8.7v2h-6.6v19.2h-2.1V549.7z M601.4,557.9h7.6v1.8h-7.6V557.9z M608.4,557.9
			h0.4l0.4-0.1l1.4,0.5c-0.3,1.8-0.7,3.5-1.4,5.1c-0.6,1.6-1.4,3-2.3,4.3c-0.9,1.3-2,2.4-3.3,3.3c-0.2-0.3-0.4-0.5-0.7-0.8
			c-0.3-0.3-0.6-0.5-0.8-0.7c1.2-0.8,2.2-1.8,3-2.9c0.9-1.2,1.6-2.4,2.1-3.8c0.5-1.4,0.9-2.8,1.2-4.3V557.9z M604.1,559.2
			c0.4,1.4,1,2.8,1.7,4.1c0.7,1.3,1.5,2.4,2.5,3.5c1,1,2,1.8,3.2,2.4c-0.3,0.2-0.5,0.5-0.8,0.9c-0.3,0.4-0.5,0.7-0.7,1
			c-1.2-0.7-2.3-1.6-3.3-2.8c-1-1.1-1.8-2.4-2.5-3.9c-0.7-1.4-1.3-3-1.8-4.6L604.1,559.2z M607.9,549.7h2.1v4.6
			c0,0.5-0.1,0.9-0.2,1.2s-0.4,0.5-0.8,0.7c-0.4,0.1-0.9,0.2-1.6,0.3c-0.6,0-1.4,0.1-2.3,0.1c0-0.3-0.1-0.7-0.2-1
			c-0.1-0.4-0.3-0.7-0.4-1c0.4,0,0.9,0,1.3,0c0.4,0,0.8,0,1.1,0c0.3,0,0.5,0,0.6,0c0.2,0,0.3,0,0.4-0.1c0.1,0,0.1-0.1,0.1-0.3V549.7
			z"/>
		<path class="st2" d="M628.2,552.4c-0.2,1.2-0.4,2.5-0.6,3.9s-0.6,2.7-1,4.1c-0.5,1.6-1,3-1.6,4.1c-0.6,1.1-1.3,2-2,2.6
			c-0.7,0.6-1.4,0.9-2.2,0.9c-0.8,0-1.5-0.3-2.2-0.8c-0.7-0.6-1.2-1.3-1.7-2.3c-0.4-1-0.6-2.2-0.6-3.5c0-1.3,0.3-2.6,0.8-3.8
			c0.6-1.2,1.3-2.3,2.3-3.2c1-0.9,2.1-1.7,3.4-2.2c1.3-0.5,2.7-0.8,4.2-0.8c1.4,0,2.7,0.2,3.9,0.7c1.2,0.5,2.2,1.1,3,1.9
			c0.8,0.8,1.5,1.8,1.9,2.9c0.4,1.1,0.6,2.3,0.6,3.5c0,1.7-0.3,3.2-1,4.5c-0.7,1.3-1.7,2.4-3.1,3.2c-1.3,0.8-3,1.4-4.9,1.7l-1.4-2.3
			c0.4,0,0.8-0.1,1.2-0.2c0.4-0.1,0.7-0.1,1-0.2c0.8-0.2,1.5-0.4,2.2-0.8c0.7-0.4,1.3-0.8,1.9-1.4c0.5-0.6,1-1.2,1.3-2
			c0.3-0.8,0.5-1.6,0.5-2.6c0-1-0.2-1.9-0.5-2.7c-0.3-0.8-0.8-1.5-1.3-2.1c-0.6-0.6-1.3-1.1-2.2-1.4c-0.9-0.3-1.8-0.5-2.9-0.5
			c-1.3,0-2.5,0.2-3.5,0.7c-1,0.5-1.9,1.1-2.6,1.8c-0.7,0.8-1.3,1.6-1.6,2.5c-0.4,0.9-0.6,1.7-0.6,2.5c0,0.9,0.1,1.7,0.3,2.3
			c0.2,0.6,0.5,1,0.8,1.3c0.3,0.3,0.7,0.4,1,0.4c0.4,0,0.7-0.2,1.1-0.5c0.4-0.4,0.7-0.9,1.1-1.7c0.4-0.8,0.7-1.8,1.1-3
			c0.4-1.2,0.7-2.4,0.9-3.7c0.2-1.3,0.4-2.6,0.5-3.8L628.2,552.4z"/>
		<path class="st2" d="M651.1,555l2.6,0.5c-0.6,2.4-1.3,4.6-2.2,6.5c-0.9,1.9-2,3.7-3.3,5.1c-1.3,1.5-2.8,2.7-4.5,3.8
			c-0.1-0.2-0.3-0.4-0.6-0.6c-0.3-0.2-0.5-0.5-0.8-0.7c-0.3-0.2-0.5-0.4-0.7-0.6c2.6-1.3,4.7-3.2,6.2-5.6
			C649.3,561.1,650.4,558.3,651.1,555z M646.3,550h6.8v2.3h-6.8V550z M652,550h2.3c0,0.7,0,1.6,0.1,2.6c0.1,1,0.2,2,0.4,3.1
			c0.2,1.1,0.5,2.2,1,3.4c0.4,1.2,1,2.3,1.7,3.5c0.7,1.2,1.6,2.3,2.7,3.3c1.1,1.1,2.4,2.1,3.9,3c-0.2,0.1-0.4,0.3-0.6,0.5
			c-0.2,0.2-0.5,0.5-0.7,0.7c-0.2,0.3-0.4,0.5-0.5,0.7c-1.6-1-2.9-2-4-3.2c-1.1-1.2-2.1-2.4-2.8-3.7c-0.8-1.3-1.4-2.6-1.8-3.9
			c-0.5-1.3-0.8-2.6-1-3.8c-0.2-1.2-0.4-2.4-0.5-3.4C652,551.7,652,550.8,652,550z"/>
		<path class="st2" d="M676.8,548.7h2.4v4.5c0,1.1-0.1,2.2-0.2,3.5c-0.1,1.2-0.3,2.5-0.6,3.8c-0.3,1.3-0.8,2.5-1.5,3.8
			c-0.7,1.2-1.5,2.5-2.6,3.6c-1.1,1.2-2.5,2.2-4.1,3.2c-0.1-0.2-0.3-0.4-0.5-0.6c-0.2-0.2-0.4-0.5-0.6-0.7c-0.2-0.2-0.4-0.4-0.6-0.5
			c1.6-0.9,2.8-1.9,3.9-2.9c1-1,1.8-2.1,2.4-3.3c0.6-1.1,1.1-2.3,1.4-3.4c0.3-1.1,0.5-2.3,0.6-3.4c0.1-1.1,0.1-2.1,0.1-3.1V548.7z
			 M669.1,553.7h18.5v2.3h-18.5V553.7z M686.7,553.7h2.4c0,0.3,0,0.5,0,0.7c0,0.2,0,0.3,0,0.4c-0.1,2.4-0.3,4.5-0.4,6.3
			c-0.1,1.7-0.3,3.2-0.4,4.3c-0.2,1.1-0.3,2-0.5,2.7c-0.2,0.6-0.4,1.1-0.7,1.4c-0.3,0.4-0.7,0.7-1,0.8c-0.3,0.1-0.8,0.2-1.3,0.3
			c-0.4,0-1,0.1-1.7,0.1c-0.7,0-1.4,0-2.2-0.1c0-0.3-0.1-0.7-0.2-1.2c-0.1-0.4-0.3-0.8-0.6-1.2c0.8,0.1,1.5,0.1,2.2,0.1
			c0.7,0,1.2,0,1.5,0c0.3,0,0.5,0,0.6-0.1s0.3-0.1,0.5-0.3c0.2-0.2,0.4-0.6,0.6-1.2c0.2-0.6,0.3-1.5,0.5-2.5
			c0.1-1.1,0.3-2.5,0.4-4.1c0.1-1.7,0.2-3.6,0.3-6V553.7z"/>
	</g>
</g>
<g>
	<path d="M167.5,610.6l2.6,0.7c-0.5,1.3-1.1,2.5-1.9,3.7c-0.7,1.2-1.5,2.3-2.3,3.4c-0.8,1-1.6,2-2.5,2.7c-0.1-0.2-0.4-0.3-0.6-0.6
		c-0.3-0.2-0.5-0.4-0.8-0.6c-0.3-0.2-0.5-0.4-0.7-0.5c0.9-0.7,1.7-1.5,2.5-2.5c0.8-0.9,1.5-2,2.1-3.1
		C166.5,612.9,167.1,611.8,167.5,610.6z M162.3,628.9c1.1,0,2.4-0.1,3.8-0.1c1.4,0,2.9-0.1,4.4-0.2s3.2-0.1,4.8-0.2
		c1.6-0.1,3.2-0.2,4.8-0.2l-0.1,2.2c-2.1,0.1-4.2,0.3-6.3,0.4c-2.1,0.1-4.1,0.2-6,0.3c-1.9,0.1-3.6,0.2-5.1,0.3L162.3,628.9z
		 M170,618.7l2.7,0.7c-0.4,0.9-0.8,1.9-1.2,2.9c-0.4,1-0.9,1.9-1.4,2.9c-0.5,1-0.9,1.9-1.4,2.8c-0.5,0.9-0.9,1.7-1.4,2.4l-2.1-0.7
		c0.4-0.7,0.9-1.6,1.3-2.5c0.5-0.9,0.9-1.8,1.3-2.8c0.4-1,0.8-1.9,1.2-2.9C169.4,620.5,169.7,619.6,170,618.7z M176.6,610.7
		c0.4,0.8,0.8,1.5,1.3,2.3c0.5,0.8,1.1,1.6,1.7,2.4c0.6,0.8,1.2,1.5,1.8,2.2c0.6,0.7,1.2,1.3,1.7,1.8c-0.2,0.1-0.4,0.3-0.7,0.6
		s-0.5,0.5-0.7,0.7c-0.2,0.2-0.4,0.5-0.6,0.7c-0.6-0.6-1.1-1.3-1.8-2c-0.6-0.8-1.2-1.6-1.9-2.4c-0.6-0.9-1.2-1.7-1.8-2.6
		c-0.6-0.9-1.1-1.7-1.5-2.6L176.6,610.7z M174.6,624l2.2-1c0.7,0.8,1.4,1.8,2.2,2.7c0.7,1,1.4,1.9,2,2.9s1.1,1.8,1.5,2.5l-2.3,1.2
		c-0.4-0.8-0.9-1.6-1.5-2.6c-0.6-1-1.3-2-2-3C176,625.8,175.3,624.9,174.6,624z"/>
	<path d="M188.6,611h2.2v21.3h-2.2V611z M189.7,614.3h6.4v1.6h-6.4V614.3z M189.9,611h7.6v8.3h-7.6v-1.7h5.5v-4.9h-5.5V611z
		 M192.2,624.7h12.6v1.9h-12.6V624.7z M195.1,621.3h1.9v4.5c0,0.4,0,0.8-0.1,1.4c-0.1,0.5-0.3,1.1-0.5,1.7s-0.6,1.2-1,1.8
		c-0.4,0.6-1,1.1-1.6,1.5c-0.2-0.2-0.4-0.4-0.7-0.7c-0.3-0.3-0.6-0.5-0.8-0.6c0.8-0.5,1.3-1,1.7-1.6c0.4-0.6,0.7-1.3,0.8-1.9
		c0.2-0.6,0.2-1.2,0.2-1.6V621.3z M192.6,620.7h11.8v1.8h-11.8V620.7z M207.5,611v1.7h-5.9v5h5.9v1.7h-8.1V611H207.5z M199.9,621.2
		h2v10.6h-2V621.2z M200.8,614.3h6.5v1.6h-6.5V614.3z M206.4,611h2.3v18.5c0,0.6-0.1,1.1-0.2,1.5c-0.2,0.4-0.4,0.6-0.8,0.8
		c-0.4,0.2-0.9,0.3-1.5,0.4c-0.6,0-1.4,0.1-2.3,0.1c0-0.2-0.1-0.4-0.1-0.7c-0.1-0.3-0.2-0.5-0.2-0.8c-0.1-0.3-0.2-0.5-0.3-0.7
		c0.6,0,1.2,0,1.7,0s0.9,0,1.1,0c0.2,0,0.3-0.1,0.4-0.1s0.1-0.2,0.1-0.4V611z"/>
	<path d="M213.8,614h9.3v1.8h-9.3V614z M214.9,623.8h2v8.2h-2V623.8z M214.9,617.3h7.3v1.8h-7.3V617.3z M214.9,620.5h7.3v1.8h-7.3
		V620.5z M215,610.8h7.1v1.8H215V610.8z M216,623.8h6.2v7.1H216v-1.8h4.2v-3.5H216V623.8z M224.7,610.7h2.1v2.9
		c0,0.7-0.1,1.5-0.2,2.3c-0.2,0.8-0.4,1.6-0.9,2.3c-0.4,0.7-1.1,1.4-1.9,2c-0.1-0.1-0.2-0.3-0.5-0.5c-0.2-0.2-0.4-0.4-0.6-0.6
		c-0.2-0.2-0.4-0.3-0.6-0.4c0.8-0.5,1.3-1.1,1.7-1.6c0.4-0.6,0.6-1.2,0.7-1.8c0.1-0.6,0.2-1.2,0.2-1.7V610.7z M232.6,620.4h0.4
		l0.4-0.1l1.5,0.6c-0.4,1.6-1,3-1.7,4.2c-0.7,1.2-1.6,2.3-2.6,3.3c-1,0.9-2.1,1.7-3.3,2.4c-1.2,0.6-2.5,1.2-3.8,1.6
		c-0.1-0.2-0.2-0.4-0.3-0.7c-0.1-0.2-0.3-0.5-0.5-0.7c-0.2-0.2-0.3-0.4-0.5-0.6c1.2-0.3,2.4-0.7,3.5-1.3s2.1-1.2,3-2
		s1.7-1.7,2.4-2.7c0.7-1,1.2-2.2,1.5-3.5V620.4z M223.4,620.4h10.1v2.1h-10.1V620.4z M226.5,622.5c0.8,1.9,2.1,3.5,3.8,4.9
		c1.7,1.4,3.7,2.4,6,2.9c-0.2,0.1-0.3,0.3-0.5,0.6c-0.2,0.2-0.4,0.5-0.5,0.7s-0.3,0.5-0.4,0.6c-2.4-0.7-4.5-1.9-6.3-3.4
		c-1.7-1.6-3.1-3.5-4.1-5.7L226.5,622.5z M225.6,610.7h5.9v2h-5.9V610.7z M230.4,610.7h2.1v5.7c0,0.3,0,0.5,0.1,0.6
		c0,0.1,0.2,0.1,0.3,0.1c0,0,0.1,0,0.3,0c0.1,0,0.3,0,0.4,0c0.1,0,0.2,0,0.3,0c0.1,0,0.2-0.1,0.3-0.2c0.1-0.1,0.1-0.4,0.1-0.7
		c0-0.4,0.1-0.9,0.1-1.7c0.2,0.2,0.5,0.3,0.9,0.5c0.4,0.1,0.7,0.3,1,0.3c0,1-0.2,1.7-0.3,2.2c-0.2,0.5-0.4,0.9-0.7,1.1
		c-0.3,0.2-0.7,0.3-1.2,0.3c-0.1,0-0.3,0-0.5,0c-0.2,0-0.4,0-0.6,0c-0.2,0-0.4,0-0.5,0c-0.5,0-1-0.1-1.3-0.2
		c-0.3-0.2-0.5-0.4-0.7-0.8c-0.1-0.4-0.2-0.9-0.2-1.6V610.7z"/>
	<path d="M244.4,621.2l2.4,0.2c-0.3,2.4-0.9,4.6-1.7,6.4c-0.8,1.8-1.9,3.4-3.2,4.5c-0.1-0.1-0.3-0.3-0.5-0.5
		c-0.2-0.2-0.5-0.4-0.7-0.6c-0.2-0.2-0.5-0.3-0.6-0.5c1.3-1,2.3-2.3,3-4C243.7,625.2,244.2,623.3,244.4,621.2z M241.2,612.6h20.3
		v5.6h-2.3v-3.4h-15.7v3.4h-2.2V612.6z M246.1,624.3c0.4,1.2,0.9,2.1,1.6,2.8c0.6,0.7,1.4,1.3,2.2,1.7c0.8,0.4,1.8,0.6,2.8,0.8
		c1,0.1,2.1,0.2,3.2,0.2c0.2,0,0.5,0,1,0c0.4,0,0.9,0,1.4,0c0.5,0,1,0,1.6,0c0.5,0,1,0,1.5,0c0.5,0,0.8,0,1.1,0
		c-0.1,0.2-0.2,0.4-0.3,0.7c-0.1,0.3-0.2,0.6-0.3,0.9c-0.1,0.3-0.2,0.5-0.2,0.8h-1.2h-4.6c-1.4,0-2.7-0.1-3.9-0.3
		c-1.2-0.2-2.3-0.5-3.2-1s-1.8-1.2-2.5-2.1c-0.7-0.9-1.4-2.1-1.9-3.6L246.1,624.3z M244.5,617.3h13.7v2.2h-13.7V617.3z M250.1,610
		h2.4v4.1h-2.4V610z M250.1,618.5h2.4v11.9l-2.4-0.3V618.5z M251.3,623h8.1v2.1h-8.1V623z"/>
</g>
<g>
	<circle class="st30" cx="338.2" cy="677.6" r="16.9"/>
	<circle class="st8" cx="177.1" cy="677.6" r="16.9"/>
	<circle class="st2" cx="338.2" cy="677.6" r="10.2"/>
	<path class="st2" d="M177.1,687.4c-5.5,0-9.9-4.4-9.9-9.9s4.4-9.9,9.9-9.9s9.9,4.4,9.9,9.9S182.5,687.4,177.1,687.4z M177.1,670.3
		c-4,0-7.2,3.2-7.2,7.2c0,4,3.2,7.2,7.2,7.2s7.2-3.2,7.2-7.2C184.3,673.6,181.1,670.3,177.1,670.3z"/>
	<g>
		<path d="M217.2,668.8l1.8,0.5c-0.5,1.2-1,2.3-1.7,3.3c-0.6,1.1-1.3,2.1-2,3c-0.7,0.9-1.5,1.7-2.2,2.4c-0.1-0.1-0.2-0.2-0.4-0.4
			c-0.2-0.1-0.4-0.3-0.6-0.4c-0.2-0.1-0.4-0.3-0.5-0.3c0.8-0.6,1.5-1.4,2.2-2.2c0.7-0.9,1.4-1.8,1.9-2.8
			C216.3,670.9,216.8,669.8,217.2,668.8z M212.4,685.2c1,0,2.1-0.1,3.3-0.1c1.2,0,2.5-0.1,3.9-0.2c1.4-0.1,2.8-0.1,4.3-0.2
			c1.5-0.1,2.9-0.1,4.3-0.2l0,1.5c-1.9,0.1-3.7,0.2-5.6,0.3s-3.7,0.2-5.4,0.3c-1.7,0.1-3.2,0.2-4.5,0.2L212.4,685.2z M219.4,675.9
			l1.9,0.5c-0.3,0.8-0.7,1.6-1.1,2.5c-0.4,0.9-0.8,1.7-1.2,2.6c-0.4,0.9-0.8,1.7-1.3,2.5c-0.4,0.8-0.8,1.5-1.2,2.2l-1.5-0.5
			c0.4-0.7,0.8-1.4,1.2-2.2c0.4-0.8,0.8-1.7,1.2-2.5c0.4-0.9,0.8-1.8,1.1-2.6C218.8,677.4,219.1,676.6,219.4,675.9z M224.8,668.8
			c0.4,0.7,0.8,1.4,1.3,2.2c0.5,0.7,1,1.5,1.6,2.2c0.6,0.7,1.1,1.4,1.7,2c0.6,0.6,1.1,1.2,1.6,1.6c-0.1,0.1-0.3,0.2-0.5,0.4
			c-0.2,0.2-0.3,0.3-0.5,0.5c-0.2,0.2-0.3,0.3-0.4,0.5c-0.5-0.5-1-1.1-1.6-1.8c-0.6-0.7-1.1-1.4-1.7-2.2c-0.6-0.8-1.1-1.6-1.6-2.4
			c-0.5-0.8-1-1.6-1.4-2.3L224.8,668.8z M223.5,680.6l1.5-0.7c0.7,0.8,1.3,1.6,2,2.4c0.7,0.9,1.3,1.7,1.9,2.5c0.6,0.8,1,1.6,1.4,2.2
			l-1.6,0.9c-0.3-0.7-0.8-1.4-1.4-2.3c-0.6-0.8-1.2-1.7-1.8-2.6C224.7,682.1,224.1,681.3,223.5,680.6z"/>
		<path d="M235.8,669.1h1.6v18.7h-1.6V669.1z M236.6,672.1h6v1.1h-6V672.1z M236.8,669.1h6.8v7.2h-6.8V675h5.3v-4.7h-5.3V669.1z
			 M238.9,681.3h11.4v1.4h-11.4V681.3z M241.6,678.1h1.4v3.9c0,0.3,0,0.7-0.1,1.2c-0.1,0.5-0.2,1-0.4,1.5c-0.2,0.5-0.5,1.1-0.9,1.6
			s-0.9,1-1.5,1.4c-0.1-0.2-0.3-0.3-0.5-0.5c-0.2-0.2-0.4-0.3-0.6-0.5c0.7-0.4,1.2-1,1.6-1.5c0.4-0.6,0.6-1.2,0.8-1.7
			c0.1-0.6,0.2-1.1,0.2-1.5V678.1z M239.2,677.6h10.6v1.3h-10.6V677.6z M252.6,669.1v1.2H247v4.7h5.6v1.2h-7.1v-7.2H252.6z
			 M245.9,678h1.4v9.3h-1.4V678z M246.4,672.1h6v1.1h-6V672.1z M251.8,669.1h1.6v16.6c0,0.5-0.1,0.8-0.2,1.1
			c-0.1,0.3-0.3,0.5-0.6,0.6c-0.3,0.1-0.8,0.2-1.3,0.2c-0.5,0-1.2,0-2,0c0-0.1,0-0.3-0.1-0.5c-0.1-0.2-0.1-0.4-0.2-0.6
			c-0.1-0.2-0.1-0.4-0.2-0.5c0.6,0,1.1,0,1.6,0c0.5,0,0.8,0,1,0c0.2,0,0.3-0.1,0.3-0.1c0.1-0.1,0.1-0.2,0.1-0.4V669.1z"/>
	</g>
	<g>
		<path d="M372,681.5c0.8-0.1,1.7-0.3,2.7-0.4c1-0.2,2.2-0.3,3.3-0.5c1.2-0.2,2.3-0.4,3.5-0.6l0.1,1.4c-1.1,0.2-2.2,0.4-3.3,0.6
			c-1.1,0.2-2.2,0.4-3.2,0.6c-1,0.2-2,0.4-2.8,0.5L372,681.5z M378.3,668.3h1.6v9.9c0,0.7-0.1,1.5-0.2,2.3c-0.1,0.9-0.4,1.8-0.8,2.7
			c-0.4,0.9-1,1.8-1.8,2.6c-0.8,0.8-1.8,1.5-3.1,2.2c-0.1-0.2-0.3-0.4-0.5-0.6c-0.2-0.2-0.4-0.4-0.6-0.6c1-0.4,1.8-0.9,2.4-1.5
			c0.7-0.6,1.2-1.2,1.6-1.8c0.4-0.6,0.7-1.3,0.9-1.9c0.2-0.6,0.4-1.3,0.4-1.8c0.1-0.6,0.1-1.1,0.1-1.5V668.3z M372.8,671.4h6.3v1.5
			h-6.3V671.4z M373,676.2h6v1.5h-6V676.2z M383.4,668.3h1.6v19.5h-1.6V668.3z M384.2,676.2h6.6v1.5h-6.6V676.2z M384.3,671.4h6.9
			v1.5h-6.9V671.4z M384.3,681.1h7.3v1.5h-7.3V681.1z"/>
		<path d="M401.3,668.8l1.8,0.5c-0.5,1.2-1,2.3-1.7,3.3c-0.6,1.1-1.3,2.1-2,3c-0.7,0.9-1.5,1.7-2.2,2.4c-0.1-0.1-0.2-0.2-0.4-0.4
			c-0.2-0.1-0.4-0.3-0.6-0.4c-0.2-0.1-0.4-0.3-0.5-0.3c0.8-0.6,1.5-1.4,2.2-2.2c0.7-0.9,1.4-1.8,1.9-2.8
			C400.4,670.9,400.9,669.8,401.3,668.8z M396.5,685.2c1,0,2.1-0.1,3.3-0.1c1.2,0,2.5-0.1,3.9-0.2c1.4-0.1,2.8-0.1,4.3-0.2
			c1.5-0.1,2.9-0.1,4.3-0.2l0,1.5c-1.9,0.1-3.7,0.2-5.6,0.3s-3.7,0.2-5.4,0.3c-1.7,0.1-3.2,0.2-4.5,0.2L396.5,685.2z M403.5,675.9
			l1.9,0.5c-0.3,0.8-0.7,1.6-1.1,2.5c-0.4,0.9-0.8,1.7-1.2,2.6c-0.4,0.9-0.8,1.7-1.3,2.5c-0.4,0.8-0.8,1.5-1.2,2.2l-1.5-0.5
			c0.4-0.7,0.8-1.4,1.2-2.2c0.4-0.8,0.8-1.7,1.2-2.5c0.4-0.9,0.8-1.8,1.1-2.6C402.9,677.4,403.2,676.6,403.5,675.9z M408.9,668.8
			c0.4,0.7,0.8,1.4,1.3,2.2c0.5,0.7,1,1.5,1.6,2.2c0.6,0.7,1.1,1.4,1.7,2c0.6,0.6,1.1,1.2,1.6,1.6c-0.1,0.1-0.3,0.2-0.5,0.4
			c-0.2,0.2-0.3,0.3-0.5,0.5c-0.2,0.2-0.3,0.3-0.4,0.5c-0.5-0.5-1-1.1-1.6-1.8c-0.6-0.7-1.1-1.4-1.7-2.2c-0.6-0.8-1.1-1.6-1.6-2.4
			c-0.5-0.8-1-1.6-1.4-2.3L408.9,668.8z M407.6,680.6l1.5-0.7c0.7,0.8,1.3,1.6,2,2.4c0.7,0.9,1.3,1.7,1.9,2.5c0.6,0.8,1,1.6,1.4,2.2
			l-1.6,0.9c-0.3-0.7-0.8-1.4-1.4-2.3c-0.6-0.8-1.2-1.7-1.8-2.6C408.8,682.1,408.2,681.3,407.6,680.6z"/>
		<path d="M419.9,669.1h1.6v18.7h-1.6V669.1z M420.7,672.1h6v1.1h-6V672.1z M420.8,669.1h6.8v7.2h-6.8V675h5.3v-4.7h-5.3V669.1z
			 M423,681.3h11.4v1.4H423V681.3z M425.7,678.1h1.4v3.9c0,0.3,0,0.7-0.1,1.2c-0.1,0.5-0.2,1-0.4,1.5c-0.2,0.5-0.5,1.1-0.9,1.6
			s-0.9,1-1.5,1.4c-0.1-0.2-0.3-0.3-0.5-0.5c-0.2-0.2-0.4-0.3-0.6-0.5c0.7-0.4,1.2-1,1.6-1.5c0.4-0.6,0.6-1.2,0.8-1.7
			c0.1-0.6,0.2-1.1,0.2-1.5V678.1z M423.3,677.6h10.6v1.3h-10.6V677.6z M436.7,669.1v1.2h-5.6v4.7h5.6v1.2h-7.1v-7.2H436.7z
			 M430,678h1.4v9.3H430V678z M430.5,672.1h6v1.1h-6V672.1z M435.9,669.1h1.6v16.6c0,0.5-0.1,0.8-0.2,1.1c-0.1,0.3-0.3,0.5-0.6,0.6
			c-0.3,0.1-0.8,0.2-1.3,0.2c-0.5,0-1.2,0-2,0c0-0.1,0-0.3-0.1-0.5c-0.1-0.2-0.1-0.4-0.2-0.6c-0.1-0.2-0.1-0.4-0.2-0.5
			c0.6,0,1.1,0,1.6,0c0.5,0,0.8,0,1,0c0.2,0,0.3-0.1,0.3-0.1c0.1-0.1,0.1-0.2,0.1-0.4V669.1z"/>
	</g>
</g>
</svg>
