<?xml version="1.0" encoding="utf-8"?>
<!-- Generator: Adobe Illustrator 28.0.0, SVG Export Plug-In . SVG Version: 6.00 Build 0)  -->
<svg version="1.1" id="レイヤー_1" xmlns="http://www.w3.org/2000/svg" xmlns:xlink="http://www.w3.org/1999/xlink" x="0px"
	 y="0px" viewBox="0 0 1200 793.9" style="enable-background:new 0 0 1200 793.9;" xml:space="preserve">
<style type="text/css">
	.st0{fill:#F3A11A;}
	.st1{fill:#FBFBFB;}
	.st2{fill:#F29600;}
	.st3{fill:#FCEACC;}
	.st4{fill:none;}
	.st5{fill:#FFFFFF;}
	.st6{fill:#80DEF0;}
	.st7{fill:#F8CA7F;}
	.st8{fill:#4D4D4D;}
	.st9{fill:#FFE964;}
	.st10{fill:#FFFF00;}
	.st11{fill:none;stroke:url(#);stroke-width:6.8925;stroke-linecap:round;stroke-linejoin:round;}
	.st12{fill:#DADBDB;}
	.st13{fill:#251E1C;}
	.st14{fill:#66D7ED;}
	.st15{fill:#727171;}
	.st16{fill:#FEF4E5;}
	.st17{fill:#CCCCCC;}
	.st18{fill:none;stroke:#808080;stroke-width:1.5318;stroke-miterlimit:10;}
	.st19{fill:#E85151;}
	.st20{fill:#FFD759;}
	.st21{fill:#4BD961;}
	.st22{fill:none;stroke:#E6E6E6;stroke-width:1.8093;stroke-miterlimit:10;}
	.st23{fill:#999999;}
	.st24{fill:none;stroke:#CED4DA;stroke-width:1.8093;stroke-miterlimit:10;}
	.st25{fill:#59C2E1;}
	.st26{fill:#796A56;}
	.st27{fill:#9CDBED;}
	.st28{fill:none;stroke:#F29600;stroke-width:1.8093;stroke-miterlimit:10;}
	.st29{fill:none;stroke:#797979;stroke-width:1.7231;stroke-miterlimit:10;}
	.st30{fill:#F2F2F2;}
	.st31{fill:#EAECEF;}
</style>
<rect class="st1" width="1200" height="793.9"/>
<path class="st8" d="M278.5,208.3l-6.1,2.5c-2.5,1-5.5-0.2-6.5-2.7l0,0c-1-2.5,0.2-5.5,2.7-6.5l6.1-2.5c2.5-1,5.5,0.2,6.5,2.7l0,0
	C282.3,204.3,281,207.2,278.5,208.3z"/>
<path class="st8" d="M276.8,203.6c-0.9,0-1.6-0.7-1.7-1.5c-0.1-1,0.6-1.8,1.5-1.9c3.5-0.4,5.7-1.7,6.8-4c3.8-8.3-7.2-27.3-11.8-34
	c-0.5-0.8-0.3-1.9,0.5-2.4c0.8-0.5,1.9-0.3,2.4,0.5c0.7,1,17.4,25.6,12.1,37.4c-1.6,3.5-4.8,5.5-9.5,6.1
	C276.9,203.6,276.9,203.6,276.8,203.6z"/>
<polygon class="st12" points="274.2,399.8 359.5,405 457.5,380.5 449.1,366.5 384,366.5 270,390.8 270,399.8 "/>
<path class="st7" d="M191.2,182.2c-1.1-1.4-2.1-2.9-3.1-4.4c-3.5-5.8-5.6-12.6-6.1-19.3c-0.5-7.6-1.4-15.3,0.3-22.8
	c2.6-12,5.9-22.9,14.5-31c2.4-2.3,5.2-4.3,8.2-5.8c0.9-0.4,1.8-0.8,2.7-1.2c0.5-0.2,1.1-0.3,1.6-0.5c1.3-0.6,3-1.6,4.4-2.3
	c2.2-1,4.5-1.9,6.8-2.7c4.1-1.3,8.3-2.2,12.5-2.5c6.7-0.4,13.4,0.9,19.5,3.8c4.4,2.1,8.3,5,11.7,8.4c1.4,1.4,2.7,2.9,3.9,4.6
	c1.6,2.5,4.8,10,13,15.4c6,3.9,3.7,13.7,0.4,20.1C281.5,142.1,231,210.8,191.2,182.2z"/>
<path class="st7" d="M181.4,327.8c-1.1-7.7-2.6-15.3-4.3-22.9c-0.3-1.4-0.9-2.6-2.4-3.1c-0.4-0.1-0.9-0.2-1.3-0.3
	c-0.3-0.1-0.8-0.7-1.1-1c-2-1.7-4.9-2.8-7.5-2.9c-1.1,0-2.3,0.1-3.2,0.7c-15,1.8-29.9,4.7-44.4,8.8c-6.3,1.8-13.2,3.5-18.4,7.5
	c-5.4,4.1-7.8,10.4-8.7,17c-1.7,12.4,0.4,24.9,3.7,36.8c3.3,12.1,9.3,26.9,12.6,40.5l77.7-15.4v-1.4
	C184.1,376.7,183.6,343.1,181.4,327.8z"/>
<path class="st5" d="M364,279.5l-26.3-8.5c-1.8-0.6-3.6,0.5-4.1,2.3l-10.3,43.5c-4.6-6.2-21.8-31.2-25.3-38.2
	c-18.5-36.5-29.8-43.2-29.8-43.2c-25.2-18-86.7,0.1-86.7,0.1l-6.6-0.8c-5.6,1-14.7,7.7-14.7,7.7C140.6,255,147.6,283,147.6,283
	c9.8,55.3,19.5,114.2,19.5,114.2l115.1-22.1l6.1-41.5l26.1,26.1c23.9,22.3,38.4-16.4,38.4-16.4l14.6-57.8
	C368,283,366.5,280.3,364,279.5z"/>
<path class="st8" d="M156.5,335.6c-0.8,0-1.6-0.6-1.7-1.5c-3.2-18.3-6.2-35.4-8.9-50.8c-0.2-0.8-1.8-7.6-1.1-16.1
	c1-11.8,5.9-20.9,14.4-26.3c0.8-0.6,9.6-6.9,15.4-8c0.2,0,0.4,0,0.5,0l6.2,0.8c2.4-0.7,16.9-4.7,33.8-6.7c25-3.1,43.2-0.7,54,7
	c0.4,0.3,2.1,1.4,4.9,4.3c0.7,0.7,0.6,1.8-0.1,2.5c-0.7,0.7-1.8,0.6-2.5-0.1c-2.7-2.8-4.2-3.8-4.2-3.8c0,0-0.1-0.1-0.1-0.1
	c-24.2-17.3-84.6,0.1-85.2,0.3c-0.2,0.1-0.5,0.1-0.7,0.1l-6.3-0.8c-5.2,1.1-13.6,7.3-13.7,7.3c0,0-0.1,0-0.1,0.1
	c-18.3,11.8-11.9,38.4-11.8,38.7c0,0,0,0.1,0,0.1c2.7,15.4,5.7,32.5,8.9,50.9c0.2,1-0.5,1.9-1.4,2
	C156.7,335.6,156.6,335.6,156.5,335.6z"/>
<path class="st8" d="M167.2,398.1c-0.8,0-1.6-0.6-1.7-1.5c0-0.2-3.6-21.4-8.5-50c-0.2-1,0.5-1.9,1.4-2c1-0.2,1.9,0.5,2,1.4
	c4.9,28.6,8.5,49.8,8.5,50c0.2,1-0.5,1.9-1.4,2C167.4,398.1,167.3,398.1,167.2,398.1z"/>
<path class="st8" d="M282.2,376.9c-0.1,0-0.2,0-0.3,0c-1-0.1-1.6-1-1.5-2l6.1-41.5c0.1-0.7,0.6-1.2,1.2-1.4c0.6-0.2,1.3,0,1.8,0.4
	l26.1,26.1c0.7,0.7,0.7,1.8,0,2.5c-0.7,0.7-1.8,0.7-2.5,0l-23.7-23.7l-5.6,38.1C283.8,376.2,283.1,376.9,282.2,376.9z"/>
<path class="st8" d="M316.6,312.1c-0.5,0-1.1-0.2-1.4-0.7c-4.6-6.2-15-24.6-18.7-31.9c-7.1-14-13.9-25.1-20.3-33.3
	c-0.6-0.8-0.5-1.9,0.3-2.5c0.8-0.6,1.9-0.5,2.5,0.3c6.5,8.3,13.5,19.7,20.6,33.8c3.6,7.2,13.9,25.3,18.4,31.4
	c0.6,0.8,0.4,1.9-0.4,2.4C317.3,312,317,312.1,316.6,312.1z"/>
<path class="st5" d="M372.4,366.3c-0.8-2.4-2-4.6-3.5-6.7l-2-2.9c-2-2.9-5-5-8.3-5.9c-3.6-1-6.6-0.8-6.6-0.8l-24.4,2.2
	c-11.2,2.2-41.4,2.7-48,2.8c-0.4-1.4-0.7-2.2-0.7-2.2l-71.7,3.2c-7-9.1-16.1-71.6-16.1-71.6c-3.5-29.6-20.8-33.8-20.8-33.8
	l-1.6,119.2l7,16.1c5.6,12.6,25.9,7.7,25.9,7.7l79.8-10.4c0.8-1.7,1.2-3.9,1.3-6.3l4.9-0.8c9.1,8.7,38.8,2.1,38.8,2.1l5.6-1l6.3,4.9
	c10.5,8,10.1-0.7,10.1-0.7c3.5,3.2,5.1,4.4,7.6,4.3c4.7-0.1,3.9-5,3.9-5c2.6,3.2,5.5,2.9,6.9,2.5c2.8-0.9,1.9-5.9,1.9-5.9
	c2.1,2.1,4.6,1,4.6,1C375.8,377.2,373.9,370.6,372.4,366.3z"/>
<path class="st8" d="M355.9,387.4c-2.4,0-4.2-1-6.4-2.8c-0.4,0.8-1,1.6-2,2.1c-2.4,1.3-5.8,0.2-10.3-3.3l-5.7-4.4l-4.8,0.9
	c-1.6,0.4-29.5,6.4-39.7-1.9l-11.4,2c-0.9,0.2-1.8-0.4-2-1.3c-0.1-0.4-2.2-9.5-0.6-16.7c0.2-0.9,1.1-1.5,2.1-1.3
	c0.9,0.2,1.5,1.1,1.3,2.1c-1.1,4.8-0.3,10.8,0.2,13.6l10.6-1.8c0.5-0.1,1.1,0.1,1.5,0.5c6.9,6.6,29.2,3.4,37.2,1.7c0,0,0,0,0.1,0
	l5.6-1c0.5-0.1,1,0,1.4,0.3l6.3,4.9c4.7,3.6,6.3,3.1,6.5,2.9c0.6-0.3,0.8-1.6,0.8-2.2c0-0.7,0.4-1.3,1-1.6c0.6-0.3,1.4-0.2,1.9,0.3
	c3.4,3,4.6,3.9,6.4,3.9c1.2,0,1.6-0.5,1.7-0.6c0.6-0.7,0.6-2,0.5-2.4c-0.1-0.8,0.3-1.5,1-1.9c0.7-0.3,1.6-0.1,2.1,0.5
	c1.9,2.4,3.9,2.2,5,1.9c0.9-0.3,0.9-2.7,0.7-4c-0.1-0.7,0.2-1.5,0.9-1.8c0.7-0.4,1.5-0.2,2,0.3c1.1,1.1,2.4,0.7,2.7,0.6
	c0.3-0.5,0.4-3.1-1.9-9.6c-0.8-2.2-1.9-4.3-3.3-6.2l-2-2.9c-1.8-2.6-4.5-4.4-7.4-5.3c-3.2-0.9-6-0.7-6-0.7l-15.4,0.9
	c-1,0.1-1.8-0.7-1.8-1.6c-0.1-1,0.7-1.8,1.6-1.8l15.4-0.9c0.1,0,3.4-0.3,7.2,0.8c3.7,1,7,3.4,9.3,6.6l2,2.9c1.6,2.2,2.8,4.6,3.7,7.1
	c3,8.4,3,12.8,0,14c-0.8,0.3-2,0.6-3.4,0.3c-0.3,3.3-2.1,4.4-3.2,4.7c-0.9,0.3-3.4,0.9-6.1-0.7c-0.2,0.5-0.5,1-0.9,1.5
	c-0.7,0.8-2,1.8-4.3,1.9C356,387.4,356,387.4,355.9,387.4z"/>
<path class="st8" d="M278.1,356.8c-1,0-1.7-0.8-1.7-1.7c0-1,0.8-1.8,1.7-1.8c0.4,0,36.7-0.4,49-2.8c1-0.2,1.9,0.4,2.1,1.4
	c0.2,0.9-0.4,1.9-1.4,2.1C315.2,356.4,279.6,356.8,278.1,356.8C278.1,356.8,278.1,356.8,278.1,356.8z"/>
<path class="st8" d="M348.4,383c-0.6,0-1.1-0.3-1.4-0.7l-6.4-9.2c-0.2-0.3-0.4-0.6-0.6-0.8c-2.1-2.4-3.3-2.9-3.5-2.9h-12.5
	c-1,0-1.7-0.8-1.7-1.7c0-1,0.8-1.7,1.7-1.7h12.6c0.8,0,2.9,0.4,6.1,4.1c0.3,0.4,0.6,0.7,0.9,1.1l6.4,9.2c0.6,0.8,0.4,1.9-0.4,2.4
	C349.1,382.9,348.8,383,348.4,383z M336.7,369.4L336.7,369.4L336.7,369.4z M336.7,369.4C336.7,369.4,336.7,369.4,336.7,369.4
	C336.7,369.4,336.7,369.4,336.7,369.4z M336.5,369.4L336.5,369.4L336.5,369.4z"/>
<path class="st8" d="M360,382.3c-0.6,0-1.3-0.3-1.6-1l-4.4-8.7c-1.2-2.4-2.8-4.7-4.8-6.7l-1.2-1.2c-1.7-1.7-3.8-2.9-6.2-3.4
	c-4.1-0.8-9.2-1.1-9.2-1.1c-1,0-1.7-0.9-1.7-1.8c0-1,0.9-1.7,1.8-1.7c0.2,0,5.3,0.3,9.7,1.2c3.1,0.6,5.8,2.1,8,4.4l1.2,1.2
	c2.2,2.2,4,4.7,5.4,7.5l4.4,8.7c0.4,0.9,0.1,1.9-0.8,2.4C360.5,382.3,360.3,382.3,360,382.3z"/>
<path class="st8" d="M368.7,378.8c-0.7,0-1.3-0.4-1.6-1l-3.6-8c-0.8-1.8-1.8-3.5-2.9-5.1l-2.5-3.6c-1.4-2-3.4-3.4-5.7-4
	c-3.3-0.8-6.7-0.7-6.7-0.7c-1,0-1.8-0.7-1.8-1.7c0-1,0.7-1.8,1.7-1.8c0.2,0,3.9-0.1,7.7,0.8c3.2,0.8,5.9,2.7,7.8,5.4l2.5,3.6
	c1.2,1.8,2.3,3.7,3.2,5.7l3.6,8c0.4,0.9,0,1.9-0.9,2.3C369.2,378.8,369,378.8,368.7,378.8z"/>
<path class="st5" d="M250.4,230.2c-4.4-10-0.4-21.8-0.4-21.8c26.6-5.2,24.9-50.2,24.9-50.2c-0.1-11.9,0-13.2,0-13.2
	c-31.3,4.3-38.7-29.2-38.7-29.2c-22.8,15.4-30.5,55.1-30.5,55.1l0.5,11.5c1.8,19.9-3.4,36.2-3.4,36.2c-3.7,9.1-21.7,16.8-21.7,16.8
	c16.2,1.9,31.9,14.5,31.9,14.5c19.5,19.1,41.6,16.2,41.6,16.2c22.7-4.8,3-31.7,3-31.7L250.4,230.2z"/>
<path class="st8" d="M270.4,159.5c0,1.5-1.3,2.7-2.8,2.7c-1.5,0-2.7-1.3-2.7-2.8c0-1.5,1.3-2.7,2.8-2.7
	C269.2,156.7,270.4,158,270.4,159.5z"/>
<path class="st8" d="M243.1,158.6c0,1.5-1.3,2.7-2.8,2.7c-1.5,0-2.7-1.3-2.7-2.8c0-1.5,1.3-2.7,2.8-2.7
	C241.9,155.8,243.1,157.1,243.1,158.6z"/>
<path class="st8" d="M257,175.7l3.1,0c0.9,0,1.7,0.7,1.7,1.7c0,0.9-0.7,1.7-1.7,1.7l-3.1,0c-0.9,0-1.7-0.7-1.7-1.7
	C255.3,176.4,256.1,175.7,257,175.7z"/>
<path class="st8" d="M250,210.1c0,0-0.1,0-0.1,0c-20.9-1.7-32.1-15.2-32.6-15.8c-0.6-0.8-0.5-1.9,0.3-2.5c0.7-0.6,1.8-0.5,2.5,0.3
	l0,0c0.1,0.1,10.8,13,30.2,14.5c1,0.1,1.7,0.9,1.6,1.9C251.7,209.4,250.9,210.1,250,210.1z"/>
<path class="st13" d="M206.3,199.7c0,0-0.1,0-0.1,0c-1-0.1-1.7-0.9-1.6-1.9c0.3-5,0.3-10-0.1-14.8l-4.4-7.9
	c-0.5-0.8-0.2-1.9,0.7-2.4c0.8-0.5,1.9-0.2,2.4,0.7l4.6,8.2c0.1,0.2,0.2,0.4,0.2,0.7c0.5,5.1,0.5,10.4,0.1,15.7
	C207.9,199,207.2,199.7,206.3,199.7z"/>
<path class="st8" d="M210.8,260.5c-0.4,0-0.7-0.1-1-0.3c-8.6-6.3-13.7-13.2-14.4-14.2c-4.1-4.3-6.2-5.8-14.9-8.8
	c-0.7-0.2-1.2-0.9-1.2-1.6c0-0.7,0.4-1.4,1.1-1.7c0,0,2.7-1.2,6.1-3.1c7.8-4.4,13-8.9,14.6-12.8c0-0.1,0.1-0.2,0.1-0.2
	c0,0,1.5-2.8,2.6-10.8c0.1-1,1-1.6,2-1.5c1,0.1,1.6,1,1.5,2c-1,8-2.6,11.3-3,12c-2.5,5.9-10.1,11.1-16.1,14.4
	c-0.9,0.5-1.8,1-2.6,1.4c6.2,2.4,8.6,4.3,12.4,8.3c0.1,0.1,0.1,0.1,0.2,0.2c0,0.1,5.1,7.2,13.7,13.5c0.8,0.6,0.9,1.7,0.4,2.4
	C211.8,260.2,211.3,260.5,210.8,260.5z"/>
<path class="st8" d="M251.6,236.1c-0.6,0-1.2-0.3-1.5-0.9c-5.8-9.9-2-26.6-1.8-27.3c0.2-0.7,0.7-1.2,1.4-1.3
	c25-4,23.4-47.9,23.4-48.4c0-1,0.7-1.8,1.7-1.8c1,0,1.8,0.7,1.8,1.7c0,0.5,0.5,11.9-2.4,24c-3.8,15.9-11.6,25.5-22.7,27.8
	c-0.7,3.8-2.7,16.2,1.6,23.6c0.5,0.8,0.2,1.9-0.6,2.4C252.2,236,251.9,236.1,251.6,236.1z"/>
<path class="st8" d="M279.9,146.3c-10.6,0-19.6-4.9-26.2-14.3c-5.3-7.6-7.2-15.2-7.2-15.6c-0.2-0.9,0.4-1.9,1.3-2.1
	c0.9-0.2,1.9,0.4,2.1,1.3c0,0.1,1.8,7.5,6.8,14.5c6.5,9.2,15.1,13.4,25.6,12.7c1-0.1,1.8,0.7,1.9,1.6c0.1,1-0.7,1.8-1.6,1.9
	C281.6,146.2,280.7,146.3,279.9,146.3z"/>
<path class="st8" d="M274.5,153.4C274.5,153.4,274.5,153.4,274.5,153.4c-1,0-1.8-0.8-1.7-1.8c0.1-5.4,1.1-11.6,1.1-11.8
	c0.2-1,1.1-1.6,2-1.5c1,0.2,1.6,1,1.5,2c0,0.1-1,6.2-1.1,11.3C276.2,152.6,275.4,153.4,274.5,153.4z"/>
<path class="st8" d="M288.3,327.4c-0.1,0-0.2,0-0.3,0c-0.9-0.2-1.6-1.1-1.4-2c1.8-9.8,0-18.8,0-18.9l-8.9-39.1
	c-0.2-0.9,0.4-1.9,1.3-2.1c0.9-0.2,1.9,0.4,2.1,1.3l8.9,39.2c0.1,0.4,1.9,9.8,0,20.3C289.8,326.8,289.1,327.4,288.3,327.4z"/>
<path class="st8" d="M190.3,370.1c-0.6,0-1.2-0.3-1.5-0.9c-0.5-0.8-0.2-1.9,0.7-2.4l11.2-6.3c0.8-0.5,1.9-0.2,2.4,0.7
	c0.5,0.8,0.2,1.9-0.7,2.4l-11.2,6.3C190.9,370,190.6,370.1,190.3,370.1z"/>
<path class="st12" d="M394,303.6L359.5,405l104.3-17.4l39.9-99.6c1-2.8-0.6-5.8-3.3-6.6c-0.7-0.2-1.4-0.2-2.1-0.1l-93.7,12.5
	C400.6,293.9,395.4,299.9,394,303.6z"/>
<path class="st8" d="M475.4,359.7c-0.2,0-0.4,0-0.7-0.1c-0.9-0.4-1.3-1.4-1-2.3l28.2-69.8c0.3-0.9,0.2-1.8-0.2-2.6
	c-0.4-0.8-1.1-1.4-2-1.7c-0.4-0.1-0.8-0.1-1.3-0.1l-84.9,11.4c-1,0.1-1.8-0.5-2-1.5c-0.1-1,0.5-1.8,1.5-2l84.9-11.4
	c1-0.1,1.9-0.1,2.8,0.2c1.8,0.5,3.3,1.8,4.1,3.5c0.9,1.7,1,3.6,0.3,5.4c0,0,0,0,0,0.1l-28.2,69.9
	C476.8,359.3,476.1,359.7,475.4,359.7z"/>
<path class="st8" d="M368.4,405.3c-0.8,0-1.6-0.6-1.7-1.5c-0.2-1,0.5-1.9,1.4-2l94.5-15.7l8.7-22c0.4-0.9,1.4-1.3,2.3-1
	c0.9,0.4,1.3,1.4,1,2.3l-9,22.9c-0.2,0.6-0.7,1-1.3,1.1l-95.4,15.9C368.5,405.3,368.5,405.3,368.4,405.3z"/>
<path class="st8" d="M361.9,399.8c-0.2,0-0.4,0-0.6-0.1c-0.9-0.3-1.4-1.3-1.1-2.2l32.1-94.5c0,0,0,0,0,0c1.6-4.3,7.3-10.8,12.2-10.8
	c0,0,0,0,0,0c1,0,1.7,0.8,1.7,1.8c0,1-0.8,1.7-1.7,1.7c0,0,0,0,0,0c-2.8,0-7.6,5-8.9,8.5l-32.1,94.4
	C363.3,399.3,362.6,399.8,361.9,399.8z"/>
<path class="st8" d="M86.3,413.7c-0.8,0-1.6-0.6-1.7-1.4c-0.2-0.9,0.4-1.9,1.4-2l84.9-16c0.9-0.2,1.9,0.4,2,1.4
	c0.2,0.9-0.4,1.9-1.4,2l-84.9,16C86.5,413.7,86.4,413.7,86.3,413.7z"/>
<path class="st8" d="M349.2,398.7C349.2,398.7,349.2,398.7,349.2,398.7l-59.9-2.7c-1,0-1.7-0.9-1.7-1.8c0-1,0.9-1.7,1.8-1.7
	l59.8,2.7c1,0,1.7,0.9,1.7,1.8C350.9,397.9,350.2,398.7,349.2,398.7z"/>
<path class="st8" d="M359.5,406.8c0,0-0.1,0-0.1,0l-85.3-5.2H270c-1,0-1.7-0.8-1.7-1.7v-9.1c0-0.8,0.6-1.6,1.4-1.7l24.8-4.6
	c0.9-0.2,1.9,0.4,2,1.4c0.2,0.9-0.4,1.9-1.4,2l-23.4,4.4v5.9h2.4c0,0,0.1,0,0.1,0l85.3,5.2c1,0.1,1.7,0.9,1.6,1.9
	C361.2,406.1,360.4,406.8,359.5,406.8z"/>
<ellipse transform="matrix(0.6177 -0.7864 0.7864 0.6177 -99.4586 476.8203)" class="st5" cx="440.7" cy="340.7" rx="9.2" ry="6.8"/>
<path class="st8" d="M253.2,198.6C253.2,198.6,253.2,198.6,253.2,198.6c-3.7-0.2-6.6-2.5-8.4-6.8c-1.2-3-1.5-5.9-1.5-6
	c0-0.5,0.1-1,0.5-1.4c0.4-0.4,0.9-0.5,1.4-0.5c4.9,0.5,14.6,0.3,14.7,0.3c1,0,1.8,0.7,1.8,1.7c0,1-0.7,1.8-1.7,1.8
	c-0.4,0-7.6,0.2-12.9-0.1c0.6,2.7,2.2,7.2,6,7.5c0.3-0.1,2.2-0.6,4-4c0.5-0.9,1.5-1.2,2.4-0.7c0.9,0.5,1.2,1.5,0.7,2.4
	C257.3,198.4,253.6,198.6,253.2,198.6C253.2,198.6,253.2,198.6,253.2,198.6z"/>
<path class="st8" d="M235.2,148.9c-0.7,0-1.4-0.5-1.7-1.2c-0.3-0.9,0.2-1.9,1.2-2.2c6.3-1.9,10.1,0,10.3,0.1
	c0.9,0.4,1.2,1.5,0.8,2.4c-0.4,0.9-1.5,1.2-2.3,0.8c-0.2-0.1-2.9-1.3-7.7,0.1C235.5,148.9,235.3,148.9,235.2,148.9z"/>
<path class="st8" d="M192.8,396.2c-0.7,0-1.5,0-2.2-0.1c-8.2-0.5-14-3.8-16.5-9.6l-5.8-12.8c-0.4-0.9,0-1.9,0.9-2.3
	c0.9-0.4,1.9,0,2.3,0.9l5.8,12.9c4.9,11.1,23.7,6.8,23.9,6.7c0.1,0,0.1,0,0.2,0l77.4-10c1-0.1,1.8,0.6,2,1.5c0.1,1-0.6,1.8-1.5,2
	l-77.3,10C201.1,395.4,197.4,396.2,192.8,396.2z"/>
<path class="st8" d="M191,286.1c-0.9,0-1.6-0.7-1.7-1.5c-1-8.1-3.6-19.3-11-26.8c-4.4-4.4-8.4-5.5-8.4-5.5c-0.9-0.2-1.5-1.2-1.3-2.1
	c0.2-0.9,1.2-1.5,2.1-1.3c0.8,0.2,18.5,4.8,22.1,35.3c0.1,1-0.6,1.8-1.5,1.9C191.1,286.1,191.1,286.1,191,286.1z"/>
<g>
	<path class="st14" d="M307.2,180.3C307.2,180.3,307.2,180.3,307.2,180.3c0.8-1.1,2.2-1.3,3.1-0.6l4.1,3c1,0.7,1.2,2.1,0.5,3.1
		c-0.7,1-2.1,1.2-3.1,0.5l-4.1-3C306.8,182.6,306.5,181.3,307.2,180.3z"/>
	<path class="st14" d="M308.8,170.3c0.5-0.7,1.4-1.1,2.3-1l4.2,0.8c1.2,0.2,2,1.4,1.7,2.6c-0.2,1.2-1.4,2-2.6,1.7l-4.2-0.8
		c-1.2-0.2-2-1.4-1.7-2.6C308.5,170.9,308.6,170.6,308.8,170.3z"/>
	<path class="st14" d="M304.3,146.8c0.7-1,2-1.3,3-0.6c1,0.6,1.3,2,0.7,3l-2.7,4.3c-0.7,1-2,1.3-3,0.7c-1-0.6-1.3-2-0.7-3
		L304.3,146.8C304.2,146.8,304.3,146.8,304.3,146.8z"/>
	<path class="st14" d="M306.8,159.7c0.2-0.2,0.4-0.5,0.7-0.6l3.6-2.3c1-0.7,2.4-0.4,3,0.7c0.7,1,0.4,2.4-0.7,3l-3.6,2.3
		c-1,0.7-2.4,0.4-3-0.7C306.2,161.4,306.3,160.4,306.8,159.7z"/>
</g>
<path class="st7" d="M209,171.5c0,0-4.7,15.2,7.9,26.7c10.9,10-26.2,3.7-34.1-7.9c0,0-12.6-14.1,1-60.3L209,171.5z"/>
<path class="st8" d="M201.5,152.5c-0.1,0-0.1,0-0.2,0c-1.4-0.1-2.5-1.3-2.4-2.7c1.3-19.5,7.1-33.9,17.5-42.7
	c11.9-10.2,25.2-9.1,25.8-9c1.4,0.1,2.5,1.4,2.3,2.8c-0.1,1.4-1.4,2.5-2.8,2.3l0,0c-0.1,0-11.8-0.9-22,7.9
	c-9.2,7.9-14.4,21-15.6,39.1C204,151.5,202.8,152.5,201.5,152.5z"/>
<g>
	
		<ellipse transform="matrix(0.9998 -2.024394e-02 2.024394e-02 0.9998 -3.2984 4.1236)" class="st5" cx="202" cy="165" rx="11.3" ry="15.3"/>
	<path class="st8" d="M201.2,181.8c-3.1-0.3-6-2-8.2-4.9c-2.4-3.1-3.8-7.3-3.9-11.7c-0.1-4.4,1.1-8.6,3.4-11.8
		c2.4-3.3,5.6-5.2,9.2-5.3c3.5-0.1,6.9,1.7,9.4,4.9c2.4,3.1,3.8,7.3,3.9,11.7c0.1,4.4-1.1,8.6-3.4,11.8c-2.4,3.3-5.6,5.2-9.2,5.3
		C202,181.8,201.6,181.8,201.2,181.8z M202.5,151.2c-0.3,0-0.5,0-0.8,0c-2.5,0.1-4.9,1.5-6.7,4c-1.9,2.7-2.9,6.2-2.8,10
		c0.1,3.8,1.2,7.3,3.2,9.9c1.9,2.5,4.3,3.8,6.9,3.7c2.5-0.1,4.9-1.5,6.7-4c1.9-2.7,2.9-6.2,2.8-10c-0.1-3.8-1.2-7.3-3.2-9.9
		C206.9,152.7,204.8,151.4,202.5,151.2z"/>
</g>
<g>
	
		<ellipse transform="matrix(0.9998 -2.024611e-02 2.024611e-02 0.9998 -3.3007 4.0606)" class="st8" cx="198.9" cy="165" rx="8.2" ry="11.1"/>
	<path class="st8" d="M198.3,177.2c-2.2-0.2-4.3-1.4-5.9-3.5c-1.7-2.3-2.7-5.3-2.8-8.4c-0.1-6.7,3.9-12.3,9.1-12.4
		c5.1-0.1,9.4,5.3,9.6,12v0c0.1,6.7-3.9,12.3-9.1,12.4C198.9,177.2,198.6,177.2,198.3,177.2z M199.3,155.1c-0.2,0-0.4,0-0.6,0
		c-3.9,0.1-7,4.6-6.9,10.1c0.1,2.7,0.9,5.3,2.3,7.1c1.4,1.8,3.1,2.7,5,2.7c3.9-0.1,7-4.6,6.9-10.1
		C205.9,159.7,202.9,155.4,199.3,155.1z"/>
</g>
<g>
	<polygon class="st15" points="471.8,265.6 476.4,267.9 472.7,278.9 440.8,283.1 436.1,280.5 438.7,269.4 465.8,266.2 	"/>
	<path class="st8" d="M440.8,284.8c-0.3,0-0.6-0.1-0.8-0.2l-4.7-2.6c-0.7-0.4-1-1.2-0.9-1.9l2.6-11c0.2-0.7,0.8-1.2,1.5-1.3
		l27.1-3.3c1-0.1,1.8,0.6,1.9,1.5c0.1,1-0.6,1.8-1.5,1.9l-25.9,3.1l-2,8.5l3.1,1.7l30.3-4l2.8-8.4l-2.8-1.1c-0.9-0.4-1.3-1.4-1-2.3
		c0.4-0.9,1.4-1.3,2.3-1l4.3,1.7c0.9,0.3,1.3,1.3,1,2.2l-3.7,11c-0.2,0.6-0.8,1.1-1.4,1.2l-32,4.2
		C440.9,284.8,440.9,284.8,440.8,284.8z"/>
</g>
<g>
	<polygon class="st15" points="447.9,291.3 452.3,282.5 460.7,281 455.8,290.3 	"/>
	<path class="st8" d="M447.9,293.1c-0.6,0-1.1-0.3-1.4-0.7c-0.4-0.5-0.4-1.2-0.1-1.8l4.4-8.8c0.2-0.5,0.7-0.8,1.2-0.9l8.4-1.6
		c0.7-0.1,1.3,0.1,1.7,0.7c0.4,0.5,0.5,1.3,0.1,1.9l-4.9,9.3c-0.3,0.5-0.8,0.8-1.3,0.9l-7.9,1C448.1,293.1,448,293.1,447.9,293.1z
		 M453.5,284.1l-2.5,5l3.7-0.5l2.8-5.3L453.5,284.1z"/>
</g>
<path class="st8" d="M440.8,284.8c-0.1,0-0.3,0-0.4-0.1c-0.9-0.2-1.5-1.2-1.2-2.1l2.4-8.9c0.2-0.9,1.2-1.5,2.1-1.2
	c0.9,0.2,1.5,1.2,1.2,2.1l-2.4,8.9C442.3,284.3,441.6,284.8,440.8,284.8z"/>
<path class="st8" d="M320,328.8c-0.1,0-0.3,0-0.4-0.1c-0.9-0.2-1.5-1.2-1.3-2.1l13.6-53.8c0.2-0.9,1.2-1.5,2.1-1.3
	c0.9,0.2,1.5,1.2,1.3,2.1l-13.6,53.8C321.5,328.3,320.8,328.8,320,328.8z"/>
<path class="st8" d="M352.8,345.1c-0.1,0-0.3,0-0.4-0.1c-0.9-0.2-1.5-1.2-1.3-2.1l14.6-57.8c0.2-0.9,1.2-1.5,2.1-1.3
	c0.9,0.2,1.5,1.2,1.3,2.1l-14.6,57.8C354.2,344.6,353.5,345.1,352.8,345.1z"/>
<g>
	<path class="st5" d="M339.3,276.8l3.4-14.4c-11.9-19-5.1-38.5-5.1-38.5c0.8-3.1-1.7-16.4-2.1-18.9c-0.5-3.2,5.3-2.5,7.3,0
		c2.2,2.7,3.8,11.8,3.8,11.8l2.2-2.7c1.3-15.9,2.2-26.9,3.6-31.9c0.7-2.4,2.7-5.7,4.5-6.5c4.9-2.3,3.5,6.3,3.5,6.3
		c-1.3,6.2-0.5,34.4-0.5,34.4c4.4,2.2,5.8,9.3,5.8,9.3c2.7,2.2,4,7.1,4,7.1c5.8,4.9-5.8,31.9-5.8,31.9l-2.2,12.7l-0.8,5
		c0,0-1.4,0.3-4.4,0C353,281.9,347.4,280.5,339.3,276.8z"/>
	<path class="st8" d="M361.7,279.1c-0.1,0-0.2,0-0.3,0c-1-0.2-1.6-1.1-1.4-2l2.2-12.7c0-0.1,0.1-0.3,0.1-0.4
		c5.3-12.4,9.2-27.4,6.2-29.8c-0.3-0.2-0.5-0.5-0.6-0.9c-0.3-1.2-1.6-4.7-3.4-6.2c-0.3-0.3-0.5-0.6-0.6-1c-0.3-1.7-1.8-6.6-4.8-8.1
		c-0.6-0.3-0.9-0.9-1-1.5c0-1.2-0.8-28.3,0.5-34.7c0.3-2.1,0.2-4.2-0.2-4.6c-0.1,0-0.3,0-0.7,0.2c-1.2,0.6-3,3.3-3.6,5.4
		c-1.2,4.3-2.1,14.4-3.1,27.1l-0.4,4.6c0,0.4-0.2,0.7-0.4,1l-2.2,2.7c-0.4,0.5-1.1,0.7-1.8,0.6c-0.7-0.2-1.2-0.7-1.3-1.4
		c-0.6-3.4-2.1-9.3-3.5-11c-1.1-1.3-3.6-1.7-4.3-1.4c0,0,0,0,0,0.1c0.2,1.4,2.2,18.4,1.3,22.1c-0.2,0.9-1.2,1.5-2.1,1.3
		c-0.9-0.2-1.5-1.2-1.3-2.1c0.6-2.6-0.9-17.6-1.3-20.8c-0.2-1.7,0.5-3.1,2-3.7c2.4-1.1,6.5,0.1,8.4,2.4c1.3,1.6,2.4,5,3.1,7.8
		l0.2-2.3c1.1-12.9,2-23,3.3-27.7c0.8-2.8,3.1-6.5,5.5-7.7c2.1-1,3.5-0.5,4.3,0.1c2.4,1.8,1.8,6.7,1.6,8.1c0,0,0,0,0,0.1
		c-1,4.6-0.8,23-0.5,33c3.7,2.5,5.2,7.6,5.6,9.4c2.3,2.2,3.5,5.7,3.9,7.1c2.6,2.8,2.4,8.9-0.6,19.2c-2,6.8-4.5,12.9-5,14.1
		l-2.1,12.5C363.3,278.5,362.6,279.1,361.7,279.1z"/>
	<path class="st8" d="M356.5,284c-0.1,0-0.1,0-0.2,0c-0.6-0.1-1.2-0.1-2-0.1c-3.7-0.1-9.3-0.3-16.1-5.8c-0.5-0.4-0.8-1.1-0.6-1.8
		l3.2-13.7c-7-11.6-6.5-23.5-6.2-29.9c0-1,0.9-1.7,1.8-1.7c1,0,1.7,0.9,1.7,1.8c-0.4,8.5-0.2,18.5,6.1,28.5c0.2,0.4,0.3,0.9,0.2,1.3
		l-3.1,13.3c5.4,4.1,9.9,4.2,13.1,4.3c0.8,0,1.6,0,2.3,0.1c1,0.1,1.6,1,1.5,1.9C358.1,283.4,357.3,284,356.5,284z"/>
	<path class="st8" d="M346.6,218.5c-0.5,0-1.1-0.2-1.4-0.7c-0.6-0.8-0.4-1.9,0.4-2.5c2.1-1.6,7.8-1.1,10.1-0.8c1,0.1,1.6,1,1.5,2
		c-0.1,1-1,1.6-2,1.5c-3.3-0.4-6.9-0.4-7.6,0.1C347.3,218.4,347,218.5,346.6,218.5z"/>
	<path class="st8" d="M351.7,253c-0.9,0-1.7-0.2-2.4-0.6c-1.5-0.8-2.1-2.2-2.3-3.2c-3.3-1.8-3.9-5.6-3.8-7.9
		c-1.7-2.3-2.4-6.5-2.6-7.3c-0.9-5.2,3.8-16.5,4.3-17.8c0.4-0.9,1.4-1.3,2.3-0.9c0.9,0.4,1.3,1.4,0.9,2.3
		c-1.4,3.2-4.7,12.3-4.1,15.8c0.3,2,1.2,5.2,2.2,6.2c0.4,0.4,0.6,1,0.5,1.5c0,0.2-0.6,4.2,2.5,5.4c0.6,0.3,1.1,0.9,1.1,1.6
		c0,0.3,0.2,1.2,0.7,1.4c0.2,0.1,1.2,0.5,3.7-0.9c0.5-0.4,2.5-2.1,3.3-4.1c0.2-0.6,0.8-1,1.4-1.1l4.2-0.4c1-0.1,1.8,0.6,1.9,1.6
		c0.1,1-0.6,1.8-1.6,1.9l-3.2,0.3c-1.4,2.6-3.9,4.5-4.1,4.6c-0.1,0.1-0.1,0.1-0.2,0.1C354.7,252.5,353.1,253,351.7,253z"/>
	<path class="st8" d="M348.6,249.7c-0.3,0-0.6-0.1-0.8-0.2c-0.9-0.5-1.2-1.5-0.7-2.4l6-11.3c0.1-0.2,0.2-0.3,0.3-0.4
		c4.9-4.9,12-3.9,12.3-3.8c1,0.1,1.6,1,1.5,2c-0.1,1-1,1.6-2,1.5c-0.1,0-5.6-0.7-9.2,2.7l-5.8,11
		C349.8,249.4,349.2,249.7,348.6,249.7z"/>
	<path class="st8" d="M345.1,242.4c-0.2,0-0.3,0-0.5-0.1c-0.9-0.3-1.4-1.3-1.1-2.2l4.4-14.2c0.1-0.2,0.2-0.4,0.3-0.6
		c3-3.8,11.2-2.3,12.8-2c0.9,0.2,1.6,1.1,1.4,2.1c-0.2,0.9-1.1,1.6-2.1,1.4c-2.9-0.6-7.7-0.8-9.2,0.5l-4.3,13.8
		C346.5,242,345.8,242.4,345.1,242.4z"/>
</g>
<g>
	<path class="st8" d="M543.2,455.5l-6.1,2.5c-2.5,1-5.5-0.2-6.5-2.7l0,0c-1-2.5,0.2-5.5,2.7-6.5l6.1-2.5c2.5-1,5.5,0.2,6.5,2.7l0,0
		C547,451.5,545.7,454.5,543.2,455.5z"/>
	<path class="st8" d="M541.5,450.8c-0.9,0-1.6-0.7-1.7-1.5c-0.1-1,0.6-1.8,1.5-1.9c3.5-0.4,5.7-1.7,6.8-4c3.8-8.3-7.2-27.3-11.8-34
		c-0.5-0.8-0.3-1.9,0.5-2.4c0.8-0.5,1.9-0.3,2.4,0.5c0.7,1,17.4,25.6,12.1,37.4c-1.6,3.5-4.8,5.5-9.5,6.1
		C541.6,450.8,541.6,450.8,541.5,450.8z"/>
	<g>
		<path class="st14" d="M570.2,423.3C570.2,423.2,570.2,423.2,570.2,423.3c0.8-1.1,2.2-1.3,3.1-0.6l4.1,3c1,0.7,1.2,2.1,0.5,3.1
			c-0.7,1-2.1,1.2-3.1,0.5l-4.1-3C569.8,425.6,569.5,424.2,570.2,423.3z"/>
		<path class="st14" d="M571.8,413.3c0.5-0.7,1.4-1.1,2.3-1l4.2,0.8c1.2,0.2,2,1.4,1.7,2.6c-0.2,1.2-1.4,2-2.6,1.7l-4.2-0.8
			c-1.2-0.2-2-1.4-1.7-2.6C571.5,413.8,571.6,413.5,571.8,413.3z"/>
		<path class="st14" d="M567.3,389.7c0.7-1,2-1.3,3-0.6c1,0.6,1.3,2,0.7,3l-2.7,4.3c-0.7,1-2,1.3-3,0.7c-1-0.6-1.3-2-0.7-3
			L567.3,389.7C567.3,389.8,567.3,389.7,567.3,389.7z"/>
		<path class="st14" d="M569.8,402.7c0.2-0.2,0.4-0.5,0.7-0.6l3.6-2.3c1-0.7,2.4-0.4,3,0.7c0.7,1,0.4,2.4-0.7,3l-3.6,2.3
			c-1,0.7-2.4,0.4-3-0.7C569.3,404.3,569.3,403.4,569.8,402.7z"/>
	</g>
	<path class="st7" d="M426.6,586.1c-1.1-7.6-2.5-15.2-4.2-22.6c-0.3-1.4-0.9-2.6-2.3-3.1c-0.4-0.1-0.9-0.2-1.2-0.3
		c-0.3-0.1-0.8-0.7-1.1-1c-2-1.7-4.8-2.7-7.4-2.8c-1.1,0-2.3,0.1-3.2,0.7c-14.8,1.7-29.5,4.6-43.9,8.7c-6.2,1.8-13,3.4-18.2,7.5
		c-5.3,4.1-7.7,10.3-8.6,16.8c-1.7,12.2,0.4,24.6,3.7,36.4c3.3,12,9.2,26.6,12.4,40l76.8-15.2v-1.4
		C429.2,634.4,428.8,601.2,426.6,586.1z"/>
	<path class="st5" d="M395.8,653.5c0,0-10.5-107.9-10.5-138.2c0,0-1.2-28.6,10.1-38.1l41.7-23.8l18.6-15.3l40.5,39l7.5-11.3
		l12.1,12.2c0,0,11.7-0.8,20.2,11.7c0,0,4.7,9.3,7,24.1c0,0,22.1,79.9,25.6,83l70.7,3.9l-4.7,31.1l-92.5,6.2l-146.1,22.5
		L395.8,653.5z"/>
	<path class="st5" d="M395.8,653.5c0,0-10.5-107.9-10.5-138.2c0,0-1.2-28.6,10.1-38.1l41.7-23.8l18.6-15.3l40.5,39l7.5-11.3
		l12.1,12.2c0,0,11.7-0.8,20.2,11.7c0,0,4.7,9.3,7,24.1c0,0,22.1,81,25.6,83l70.7,3.9l-4.7,31.1l-92.5,6.2l-146.1,22.5L395.8,653.5z
		"/>
	<path class="st14" d="M395.8,653.5c0,0-10.5-107.9-10.5-138.2c0,0-1.2-28.6,10.1-38.1l41.7-23.8l18.6-15.3l40.5,39l7.5-11.3
		l12.1,12.2c0,0,11.7-0.8,20.2,11.7c0,0,4.7,9.3,7,24.1c0,0,23.3,82.8,25.6,83l70.7,3.9l-4.7,31.1l-92.5,6.2l-146.1,22.5
		L395.8,653.5z"/>
	<polygon class="st12" points="517.5,659.9 601.9,665 698.7,640.8 690.4,627 626,627 513.4,650.9 513.4,659.9 	"/>
	<path class="st8" d="M531.2,652.9c0.4-0.4,0.9-0.5,1.4-0.5l59.1,2.7c0.5,0,1,0.2,1.3,0.6c0.4,0.4,0.5,0.9,0.5,1.4
		c0,1-0.9,1.9-1.9,1.9l-59.2-2.7c-1.1,0-1.9-1-1.9-2C530.6,653.7,530.9,653.3,531.2,652.9z"/>
	<path class="st5" d="M615.6,626.7c-0.8-2.3-2-4.6-3.4-6.6l-2-2.8c-2-2.8-4.9-4.9-8.2-5.9c-3.6-1-6.6-0.7-6.6-0.7l-24.1,2.2
		c-11.1,2.2-40.9,2.7-47.5,2.8c-0.4-1.4-0.7-2.2-0.7-2.2l-70.8,3.2c-6.9-9-15.9-70.8-15.9-70.8c-3.5-29.3-20.5-36.4-20.5-36.4
		l-7.9,116.9l13.2,19.8c5.5,12.5,25.6,7.6,25.6,7.6l78.9-10.3c0.8-1.7,1.2-3.9,1.3-6.2l4.9-0.8c9,8.6,38.4,2.1,38.4,2.1l5.5-1
		l6.2,4.8c10.4,8,10-0.7,10-0.7c3.5,3.1,5.1,4.3,7.6,4.3c4.6-0.1,3.9-5,3.9-5c2.6,3.2,5.5,2.8,6.8,2.4c2.8-0.9,1.9-5.9,1.9-5.9
		c2.1,2,4.5,1,4.5,1C618.9,637.5,617.1,631,615.6,626.7z"/>
	<path class="st14" d="M615.6,626.7c-0.8-2.3-2-4.6-3.4-6.6l-2-2.8c-2-2.8-4.9-4.9-8.2-5.9c-3.6-1-6.6-0.7-6.6-0.7l-24.1,2.2
		c-11.1,2.2-40.9,2.7-47.5,2.8c-0.4-1.4-0.7-2.2-0.7-2.2l-70.8,3.2c-6.9-9-15.9-70.8-15.9-70.8c-3.5-29.3-20.5-36.4-20.5-36.4
		l-7.9,116.9l13.2,19.8c5.5,12.5,25.6,7.6,25.6,7.6l78.9-10.3c0.8-1.7,1.2-3.9,1.3-6.2l4.9-0.8c9,8.6,38.4,2.1,38.4,2.1l5.5-1
		l6.2,4.8c10.4,8,10-0.7,10-0.7c3.5,3.1,5.1,4.3,7.6,4.3c4.6-0.1,3.9-5,3.9-5c2.6,3.2,5.5,2.8,6.8,2.4c2.8-0.9,1.9-5.9,1.9-5.9
		c2.1,2,4.5,1,4.5,1C618.9,637.5,617.1,631,615.6,626.7z"/>
	<path class="st5" d="M519.7,615.6c6.5-0.1,40.4-0.6,51.5-2.8l24.1-2.2c0,0,3-0.2,6.6,0.7c3.3,0.9,6.2,3,8.2,5.9l2,2.8
		c1.4,2,2.6,4.2,3.4,6.6c1.5,4.3,3.4,10.7,0.9,11.7c0,0-2.5,1.1-4.5-1c0,0,0.9,5-1.9,5.9c-1.3,0.4-4.2,0.8-6.8-2.4
		c0,0,0.8,4.9-3.9,5c-2.5,0.1-4.1-1.1-7.6-4.3c0,0,0.3,8.6-10,0.7l-6.2-4.8l-5.5,1c0,0-29.4,6.6-38.4-2.1l-4.9,0.8l-9.9,1.6
		C516.9,638.8,514.7,623.5,519.7,615.6z"/>
	<g>
		<path class="st8" d="M516.2,622.2c0.2-1,1.3-1.7,2.3-1.5c1,0.2,1.7,1.3,1.5,2.3c-1,4.5-0.3,10.1,0.2,13.1l10.2-1.8
			c0.6-0.1,1.2,0.1,1.7,0.5c6.8,6.5,28.7,3.3,36.6,1.6l5.6-1.1c0.5-0.1,1.1,0,1.6,0.4l6.2,4.8c4.6,3.5,6.1,3,6.2,2.9
			c0.4-0.2,0.6-0.9,0.6-1.5l-5.9-8.5c-0.2-0.3-0.4-0.5-0.6-0.8c-2-2.3-3.1-2.7-3.3-2.8h-12.4c-1.1,0-1.9-0.9-1.9-1.9
			c0-1.1,0.9-1.9,1.9-1.9h12.4c0,0,0.1,0,0.1,0c0.8,0,2.9,0.5,6.1,4.1c0.3,0.4,0.6,0.7,0.9,1.1l6.2,8.9c3.1,2.8,4.3,3.6,5.9,3.6
			c0,0,0.1,0,0.1,0c1.1,0,1.4-0.4,1.5-0.5c0.4-0.5,0.5-1.4,0.5-1.9l-4.2-8.3c-1.2-2.4-2.8-4.6-4.7-6.5l-1.2-1.2
			c-1.6-1.7-3.7-2.8-6-3.3c-4-0.8-9-1.1-9.1-1.1c-0.5,0-1-0.3-1.3-0.6c-0.3-0.4-0.5-0.9-0.5-1.4c0.1-1,0.9-1.9,1.9-1.9
			c0,0,0.1,0,0.1,0c0.2,0,5.3,0.3,9.7,1.2c3.1,0.6,5.8,2.1,8,4.4l1.2,1.2c2.2,2.2,4,4.7,5.4,7.5l4.3,8.4c1.8,2.1,3.6,2,4.6,1.7
			c0.6-0.2,0.8-2.1,0.6-3.5l-3.5-7.7c-0.8-1.8-1.7-3.5-2.8-5l-2.4-3.5c-1.3-1.9-3.3-3.3-5.5-3.9c-3.2-0.8-6.6-0.7-6.6-0.7
			c0,0,0,0-0.1,0c-1,0-1.9-0.8-1.9-1.9c0-1.1,0.8-2,1.9-2c0.2,0,3.9-0.1,7.7,0.8c3.2,0.8,5.9,2.7,7.8,5.5l2.4,3.5
			c1.2,1.8,2.3,3.7,3.2,5.6l3.4,7.5c0.9,0.7,1.8,0.5,2.1,0.4c0.2-0.6,0.2-3.2-1.9-9.2c-0.8-2.2-1.9-4.2-3.2-6.1l-2-2.8
			c-1.8-2.5-4.3-4.3-7.2-5.1c-3.2-0.9-5.9-0.7-5.9-0.7l-15.2,0.9c0,0-0.1,0-0.1,0c-1,0-1.9-0.8-2-1.8c-0.1-1.1,0.8-2,1.8-2.1
			l15.2-0.9c0,0,3.3-0.3,7.2,0.8c3.7,1,7,3.4,9.3,6.6l2,2.8c1.6,2.2,2.8,4.6,3.7,7.1c3,8.4,3,12.9-0.2,14.1
			c-0.4,0.2-1.6,0.6-3.3,0.4c-0.4,3.2-2.2,4.3-3.3,4.6c-0.9,0.3-3.4,0.8-6-0.6c-0.2,0.5-0.5,0.9-0.8,1.3c-0.7,0.9-2.1,1.9-4.4,1.9
			c-0.1,0-0.1,0-0.2,0c-2.5,0-4.2-1-6.3-2.7c-0.5,0.8-1.1,1.5-1.9,1.9c-2.5,1.3-5.9,0.2-10.4-3.2l-5.5-4.3l-4.6,0.9
			c-1.2,0.3-29.1,6.3-39.4-1.9l-11.2,1.9c-1,0.2-2-0.5-2.2-1.5C516.5,637.9,514.6,629.3,516.2,622.2z"/>
		<path class="st8" d="M570.5,614.8c-12.6,2.4-47.6,2.8-49.1,2.8h0c-1.1,0-1.9-0.9-1.9-1.9c0-1.1,0.9-2,1.9-2
			c1.5,0,36.5-0.4,48.4-2.7c1.1-0.2,2.1,0.5,2.3,1.5C572.3,613.5,571.6,614.6,570.5,614.8z"/>
	</g>
	<path class="st12" d="M636,564.7L601.9,665L705,647.9l39.4-98.5c1-2.8-0.6-5.7-3.3-6.5c-0.7-0.2-1.4-0.2-2-0.1l-92.6,12.4
		C642.5,555.1,637.3,561,636,564.7z"/>
	<path class="st8" d="M653.1,554.3c0.1,0.5,0.3,1,0.8,1.3c0.4,0.3,0.9,0.4,1.4,0.4l84-11.2c0.5-0.1,0.9,0,1.2,0.1
		c0.8,0.2,1.5,0.8,1.9,1.6c0.4,0.7,0.4,1.6,0.2,2.4l-27.9,69c-0.2,0.5-0.2,1,0,1.5c0.2,0.5,0.6,0.9,1.1,1c0.2,0.1,0.5,0.1,0.7,0.1
		c0.8,0,1.5-0.5,1.8-1.2l27.9-69.1c0,0,0-0.1,0-0.1c0.6-1.8,0.5-3.8-0.3-5.5c-0.9-1.7-2.4-3-4.2-3.5c-0.9-0.3-1.8-0.3-2.9-0.2
		l-84,11.2c-0.5,0.1-1,0.3-1.3,0.7C653.2,553.2,653.1,553.7,653.1,554.3z M746,550L746,550L746,550L746,550L746,550z"/>
	<path class="st8" d="M610.3,661.7l93.3-15.5l8.5-21.6c0.2-0.5,0.6-0.9,1-1.1c0.5-0.2,1-0.2,1.5,0c0.5,0.2,0.9,0.6,1.1,1
		c0.2,0.5,0.2,1,0,1.5l-8.9,22.6c-0.3,0.6-0.8,1.1-1.5,1.2l-94.4,15.7c-0.1,0-0.2,0-0.3,0c-1,0-1.8-0.7-1.9-1.6
		C608.5,662.8,609.2,661.8,610.3,661.7z"/>
	<path class="st8" d="M602.3,657.5l31.8-93.4c0,0,0-0.1,0-0.1c1.6-4.3,7.3-10.9,12.3-10.9c0.5,0,1,0.2,1.4,0.6
		c0.4,0.4,0.6,0.9,0.6,1.4c0,1.1-0.9,1.9-2,1.9c-2.7,0-7.4,4.9-8.6,8.3L606,658.7c-0.3,0.8-1,1.3-1.8,1.3c-0.2,0-0.4,0-0.6-0.1
		C602.5,659.6,602,658.5,602.3,657.5z"/>
	<path class="st8" d="M330.1,670.8c0.3-0.4,0.7-0.7,1.2-0.8l84-15.8c0.5-0.1,1,0,1.5,0.3c0.4,0.3,0.7,0.7,0.8,1.2
		c0.1,0.5,0,1-0.3,1.5c-0.3,0.4-0.7,0.7-1.2,0.8l-84,15.8c-0.1,0-0.2,0-0.4,0c-0.9,0-1.7-0.7-1.9-1.6
		C329.7,671.7,329.8,671.2,330.1,670.8z"/>
	<path class="st5" d="M689.8,599c0.1,4.4-3.4,9-7.6,10.3c-4.3,1.4-7.7-1.1-7.8-5.4c-0.1-4.4,3.4-9,7.6-10.3
		C686.3,592.2,689.8,594.6,689.8,599z"/>
	<path class="st8" d="M409.8,632.7c0.2-0.5,0.5-0.9,1-1.1c0.5-0.2,1-0.2,1.5-0.1c0.5,0.2,0.9,0.5,1.1,1l8.4,12.7
		c4.8,10.8,23.2,6.6,23.4,6.5c0.1,0,0.1,0,0.2,0l76.6-9.9c1.1-0.1,2,0.6,2.2,1.7c0.1,1.1-0.6,2-1.7,2.2l-76.5,9.9
		c-0.7,0.2-4.4,1-9,1c-0.8,0-1.5,0-2.2-0.1c-8.2-0.5-14-3.8-16.5-9.6l-8.4-12.7C409.7,633.7,409.7,633.2,409.8,632.7z"/>
	<path class="st5" d="M510.9,476c0,0,0.6,70.3-13.2,90.7l-52.9-109.9l7.2-11.4l41.5,34.6L510.9,476z"/>
	<path class="st12" d="M483.8,532.1l5-32.3l-3.6-9.1c-0.4-0.7-0.6,0.6,0,0l5.7-5.4c0.3-0.3,0.8-0.5,1.3-0.5h8.1
		c0.6,0,1.1,0.3,1.4,0.7l2.1,2.7c0.4,0.5,0.5,1.3,0.2,1.9l-4.3,9c2.6,8.9,3.1,40.2,3.2,41.7c0,0.2-0.8,7.1-0.9,7.3l-5.8,21.4
		c-0.2,0.7-0.9,1.1-1.6,1.2c0,0,3.2-4,3.1-4c-0.7,0-3.1-4.4-3.4-5L483.8,532.1C483.6,531.7,483.7,532.5,483.8,532.1z"/>
	<path class="st8" d="M491.1,598.5c0,3.5,2.8,6.3,6.3,6.3c3.5,0,6.3-2.8,6.3-6.3c0-3.5-2.8-6.3-6.3-6.3
		C493.9,592.2,491.1,595.1,491.1,598.5z M494.7,598.5c0-1.5,1.2-2.7,2.7-2.7c1.5,0,2.7,1.2,2.7,2.7c0,1.5-1.2,2.7-2.7,2.7
		C495.9,601.2,494.7,600,494.7,598.5z"/>
	<path class="st14" d="M472.1,343.3c1.6-1.1,8.6-5.7,18.6-7.5c10.3-1.9,25.6-1.1,40.8,13.4c2.6,1,16.8,6.6,19.4,18.4
		c1.8,8.1-2.3,17-12.1,26.4c-0.1,0.1-0.3,0.2-0.4,0.3L510.4,409c-0.1,0-0.1,0.1-0.2,0.1l-37.9,15.4l-7.8,4.7c-0.3,0.2-0.7,0.3-1,0.3
		c-0.5,0-1.1-0.3-1.4-0.7c-0.5-0.6-11.7-15.9-15.1-41.2C447.1,387,442.4,349,472.1,343.3z"/>
	<g>
		<path class="st5" d="M443,443c0,0,46.3,90.1,56.5,131.5c0,0-43.9-72.7-57.7-81.7l13.2-6.6l-18.6-3.6l-9.3-25.8L443,443z"/>
		<path class="st5" d="M505.5,465.5c0,0,5.4,33.9-6,92.8l-1.8,8.4l1.8,7.8c0,0,24-57,22.8-80.5l-9.6-3.6l8.4-3l-7.1-16.4
			L505.5,465.5z"/>
	</g>
	<g>
		<path class="st14" d="M443,443c0,0,46.3,90.1,56.5,131.5c0,0-43.9-72.7-57.7-81.7l13.2-6.6l-18.6-3.6l-9.3-25.8L443,443z"/>
		<path class="st14" d="M505.5,465.5c0,0,5.4,33.9-6,92.8l-1.8,8.4l1.8,7.8c0,0,24-57,22.8-80.5l-9.6-3.6l8.4-3l-7.1-16.4
			L505.5,465.5z"/>
	</g>
	<path class="st5" d="M454.6,434.9l2.7,2.5c1.6-6.4,3.9-16.4,3.7-20.8c0,0-10.5-13.8-3.6-21.4c0,0,9-9.3,14.1,2.3l1.2,2.3
		c0.8,1.4,2.2,2.4,3.8,2.6l0,0c0.9-0.1,1.7-0.8,1.8-1.8c0.2-2.8,1.2-8.3,7-10.1c0,0,14.7-6.9,17.2-16.3c0.7-2.5,2.7-4.5,5.2-5
		c0.8-0.2,1.7-0.4,2.7-0.6c10.1-2.2,12.2-4.2,20.5-1c12.2,4.6,9.4,11.8,10.6,13.2c0,0,1-2.1-0.2,7.2c0,0-3.7,21.5-1.8,28.5
		c0,0,0,3.1-1.2,7.2c-1.3,7.8-4.8,19.5-14.4,30.9c-4,4.7-10.5,6.3-16.3,4.3c-2-0.7-3.4-0.6-5.1-1.2c-0.2,1.3,0.5,0,0.3,2.1l0,0
		l4.2,10.4l0.9,8.4l-0.1,11.2l-10.2-11l0,0l0,0L485.6,489l-5.2,1.4L444,446L454.6,434.9z"/>
	<path class="st8" d="M411.8,467.3l9-5.6c0.8-0.5,1.9-0.3,2.4,0.6c0.5,0.8,0.3,1.9-0.6,2.4l-9.1,5.6c-0.1,0-0.2,0.1-0.2,0.1
		c-0.2,0.1-24.1,10.3-24,25.4c0,1-0.8,1.8-1.7,1.8c0,0,0,0,0,0c-1,0-1.8-0.8-1.8-1.7C385.7,478.9,409.6,468.2,411.8,467.3z"/>
	<path class="st8" d="M405.2,485.6c0.4-0.4,0.9-0.5,1.4-0.5c0.2,0,20.3,1.4,24.6,27.6l0,0.1c1.1,6.9,10.9,68.1,20,88.9
		c0.2,0.5,0.2,1,0,1.5c-0.2,0.5-0.6,0.9-1,1.1c-0.3,0.1-0.5,0.2-0.8,0.2c-0.8,0-1.5-0.5-1.8-1.2c-8.8-20-17.7-73.5-20.3-89.5
		l-0.1-0.5c-3.8-22.9-20.3-24.2-21-24.3c-1.1-0.1-1.9-1-1.9-2.1C404.6,486.4,404.8,485.9,405.2,485.6z"/>
	<path class="st8" d="M384.4,503.8c0.4-0.4,0.9-0.6,1.4-0.6c0.5,0,1,0.2,1.4,0.5c0.4,0.4,0.6,0.9,0.6,1.4
		c0.1,3.1,2.2,77.5,7.2,111.5c0,0,0,0.1,0,0.1c0.1,1.2,2.4,29.7,2.8,36.6c0,0.5-0.2,1-0.5,1.4c-0.4,0.4-0.8,0.6-1.4,0.6l-0.1,0
		c-1.1,0-1.9-0.8-2-1.9c-0.3-6.5-2.5-33.4-2.8-36.4c-5.2-35.2-7.2-111.2-7.3-111.9C383.8,504.7,384,504.2,384.4,503.8z"/>
	<path class="st8" d="M392.2,570.7c0.3-1,1.4-1.6,2.5-1.3c0.9,0.3,1.5,1.2,1.4,2.1c0.1,3,7.5,33.3,13.7,54.1c0.1,0.5,0.1,1-0.2,1.5
		c-0.3,0.5-0.7,0.8-1.2,1c-0.2,0.1-0.4,0.1-0.6,0.1c-0.9,0-1.7-0.6-1.9-1.4C402.1,614,391.3,573.5,392.2,570.7z"/>
	<path class="st8" d="M435.8,608.7c0.4-0.3,0.9-0.5,1.4-0.5c0.6,0,62.8,1.5,82.7,0c0,0,0.1,0,0.1,0c1,0,1.9,0.8,2,1.8
		c0.1,1.1-0.7,2-1.8,2.1c-6,0.5-16.3,0.7-30.6,0.7c-24.3,0-52.2-0.7-52.5-0.7c-0.5,0-1-0.2-1.4-0.6c-0.4-0.4-0.6-0.9-0.5-1.4
		C435.1,609.6,435.4,609,435.8,608.7z"/>
	<g>
		<path class="st8" d="M463.5,525.1c1,0,1.7-0.8,1.8-1.7c0-1-0.8-1.8-1.7-1.8l-25.4-0.5c-1,0-1.8,0.8-1.8,1.7c0,1,0.8,1.8,1.7,1.8
			L463.5,525.1C463.5,525.1,463.5,525.1,463.5,525.1z"/>
		<path class="st8" d="M463.5,525.3l-25.4-0.5c-1.1,0-2-0.9-1.9-2c0-1.1,0.9-1.9,2-1.9l25.4,0.5c1.1,0,2,0.9,1.9,2
			C465.5,524.4,464.6,525.3,463.5,525.3C463.5,525.3,463.5,525.3,463.5,525.3z M436.6,522.7c0,0.8,0.7,1.6,1.5,1.6l25.4,0.5h0
			c0.8,0,1.5-0.7,1.5-1.5c0-0.8-0.7-1.6-1.5-1.6l-25.4-0.5C437.3,521.3,436.6,521.9,436.6,522.7z"/>
	</g>
	<path class="st8" d="M566.7,596.4c0.1-0.5,0.4-1,0.8-1.3c0.4-0.3,1-0.4,1.5-0.3c15.7,2.5,49.6,2.6,49.9,2.6c1.1,0,2,0.9,2,2
		s-0.9,2-2,2c-1.4,0-34.5,0-50.6-2.6C567.3,598.5,566.6,597.5,566.7,596.4z"/>
	<path class="st8" d="M520.8,477.9c0.5-1,1.6-1.4,2.6-1c6.1,2.8,11.4,8.5,15.2,16.4c3,6.2,4,11.6,4.1,11.9
		c9.3,39.1,24.2,84.2,24.3,84.6c0.4,1-0.2,2.2-1.2,2.5c-0.2,0.1-0.4,0.1-0.7,0.1c-0.8,0-1.6-0.5-1.9-1.3
		c-0.1-0.4-15.2-46.1-24.4-85.1c0-0.2-3.9-19.5-17-25.5c-0.5-0.2-0.8-0.6-1-1.1C520.5,478.9,520.6,478.4,520.8,477.9z"/>
	<path class="st8" d="M529.4,594.9c3.6-29.5,0.5-92.6,0.5-93.3c-0.1-1.1,0.8-2,1.9-2.1c1.1,0,2,0.8,2.1,1.9c0,0.6,3.1,64.3-0.5,93.8
		c0,0.8-0.5,8,0,14.7c0,0.5-0.1,1-0.5,1.4c-0.3,0.4-0.8,0.6-1.4,0.7c0,0-0.1,0-0.1,0c-1,0-1.9-0.8-2-1.8
		C528.9,602.8,529.4,595,529.4,594.9z"/>
	<g>
		<path class="st8" d="M493.7,577.9c0.2,0,0.4,0,0.6-0.1c0.9-0.3,1.4-1.3,1.1-2.2c-4.7-14-32.1-59.4-33.2-61.2
			c-0.5-0.8-1.6-1.1-2.4-0.5c-0.8,0.5-1.1,1.6-0.5,2.4c0.3,0.4,28.3,46.8,32.8,60.4C492.3,577.4,493,577.9,493.7,577.9z"/>
		<path class="st8" d="M491.8,576.7c-4.5-13.4-32.5-60-32.8-60.4c-0.3-0.4-0.4-1-0.3-1.5c0.1-0.5,0.4-1,0.9-1.2
			c0.4-0.3,1-0.4,1.5-0.3c0.5,0.1,1,0.4,1.2,0.9c1.6,2.5,28.6,47.5,33.2,61.3c0.2,0.5,0.1,1-0.1,1.5c-0.2,0.5-0.6,0.8-1.1,1
			c-0.2,0.1-0.4,0.1-0.6,0.1C492.8,578.1,492.1,577.5,491.8,576.7z M459.8,514c-0.3,0.2-0.6,0.6-0.7,1c-0.1,0.4,0,0.8,0.2,1.2
			c0.3,0.4,28.3,46.7,32.9,60.5c0.2,0.6,0.8,1.1,1.5,1.1c0.2,0,0.3,0,0.5-0.1c0.4-0.1,0.7-0.4,0.9-0.8c0.2-0.4,0.2-0.8,0.1-1.2
			c-4.6-13.8-31.6-58.7-33.2-61.2c-0.2-0.3-0.6-0.6-1-0.7c-0.1,0-0.2,0-0.3,0C460.4,513.7,460.1,513.8,459.8,514z"/>
	</g>
	<g>
		<path class="st8" d="M425.8,455.3l15.9-13.8c0.5-0.4,1.1-0.6,1.7-0.5c0.6,0.1,1.1,0.5,1.4,1c0.4,0.8,35.6,72.7,52.1,119.2l0.7-3.3
			c3.4-17.5,5.9-38.2,6.9-56.7c0.1-1,0.9-1.9,2-1.9c0,0,0,0,0.1,0c1.1,0.1,1.9,1,1.9,2.1c-1,18.7-3.5,39.6-6.9,57.3l-1.8,8.4
			c-0.1,0.3-0.2,0.6-0.5,0.9c1.7,5.2,3.2,10.1,4.2,14.3c0.3,1.1-0.4,2.1-1.4,2.4c-0.2,0-0.3,0.1-0.5,0.1c-0.9,0-1.7-0.6-1.9-1.5
			c-9.1-36.9-49.2-121.2-57.2-137.1l-12.9,11.3l8.4,23.5l17.5,3.4c0.8,0.2,1.5,0.8,1.6,1.7c0.1,0.8-0.3,1.7-1.1,2l-10.4,5.2
			c3.5,3.1,8.1,8.4,14.1,16.2c0.3,0.4,0.5,0.9,0.4,1.5c-0.1,0.5-0.3,1-0.8,1.3c-0.4,0.3-0.9,0.5-1.5,0.4c-0.5-0.1-1-0.3-1.3-0.8
			c-9-11.8-13.5-15.9-15.7-17.4c-0.6-0.4-0.9-1.1-0.9-1.8c0-0.7,0.5-1.3,1.1-1.7l8-4l-12.9-2.5c-0.7-0.1-1.3-0.6-1.5-1.3l-9.3-25.8
			C425,456.7,425.2,455.8,425.8,455.3z"/>
		<path class="st8" d="M501.9,568.1c-0.2-0.5-0.1-1,0.2-1.5c3.1-5.7,13.6-27.8,18.2-71.3l-8.2-3.1c-0.8-0.3-1.3-1-1.3-1.9
			c0-0.8,0.5-1.6,1.3-1.8l6.4-2.3l-6-13.9l-4.5-2.9c0.5,4.6,0.9,12.3,0.7,23.1c0,1.1-0.9,1.9-2,1.9h0c-1.1,0-2-0.9-1.9-2
			c0.4-17.1-1.1-26.2-1.2-26.6c-0.1-0.8,0.2-1.6,0.9-2c0.7-0.4,1.5-0.4,2.2,0l8.6,5.5c0.3,0.2,0.6,0.5,0.7,0.9l7.1,16.4
			c0.2,0.5,0.2,1.1,0,1.6c-0.2,0.5-0.6,0.9-1.1,1.1l-3.3,1.2l4.6,1.7c0.8,0.3,1.4,1.1,1.3,2.1c-0.4,4.8-4.5,48-18.8,74.2
			c-0.3,0.6-1,1-1.7,1c-0.3,0-0.7-0.1-0.9-0.2C502.4,569,502,568.6,501.9,568.1z"/>
	</g>
	<path class="st8" d="M507,401.6c-1.6-0.1-2.9,1.2-2.9,2.8c-0.1,1.6,1.2,2.9,2.8,2.9s2.9-1.2,2.9-2.8
		C509.8,403,508.5,401.7,507,401.6z"/>
	<path class="st8" d="M530,406.3c-0.1,1.6,1.2,2.9,2.8,2.9c1.6,0.1,2.9-1.2,2.9-2.8c0.1-1.6-1.2-2.9-2.8-2.9
		C531.3,403.4,530,404.7,530,406.3z"/>
	<g>
		<path class="st8" d="M481.1,349.7c4.4-2,15.4,7.1,19.9,11.1c0.8,0.7,0.9,2,0.2,2.9c-0.4,0.4-0.9,0.7-1.5,0.7c0,0,0,0-0.1,0
			c-0.5,0-0.9-0.2-1.3-0.5c-11.1-9.9-15.2-10.3-15.8-10.4c-1,0.3-2-0.2-2.4-1.1C479.6,351.4,480.1,350.2,481.1,349.7z"/>
		<path class="st8" d="M501,390.3c4.8-1.1,9.9,0.7,10.4,0.9c1,0.4,1.6,1.6,1.2,2.6c-0.3,0.8-1.1,1.3-1.9,1.3c-0.2,0-0.5,0-0.7-0.1
			c0,0-4.4-1.6-8.1-0.8c-0.2,0-0.4,0.1-0.7,0c-0.9-0.1-1.6-0.7-1.8-1.6C499.2,391.6,499.9,390.5,501,390.3z"/>
	</g>
	<path class="st8" d="M479.4,432.3c0.5-0.2,1.1-0.2,1.6,0c0.5,0.2,0.9,0.6,1.1,1.1c5,12.6,18.8,21,21.4,21.8l0.1,0
		c5.5,1.8,11.7,3.7,17.1-1.8c17.2-17.5,15.8-39.5,15.8-39.8c-0.4-6,1.3-13.5,1.4-13.8c0.3-1.1,1.3-1.8,2.4-1.5
		c1.1,0.3,1.8,1.4,1.5,2.4c0,0.1-1.7,7.3-1.3,12.6c0.1,1,1.5,24.1-16.9,42.9c-3.2,3.3-6.9,4.9-11.3,4.9c-0.2,0-0.4,0-0.6,0
		c-3.4-0.1-6.6-1.1-9.4-2l-0.1,0c-3.5-1.1-18.4-10-24-24.2C477.8,433.9,478.4,432.7,479.4,432.3z"/>
	<g>
		<path class="st8" d="M541.6,392.9c0.9,0,1.8-0.7,1.9-1.6l0.9-7.8c0-0.1,0-0.2,0-0.3c-0.3-7.2-2.8-12.5-7.4-15.6
			c-9.5-6.5-24.6-1.4-25.2-1.1c-0.9,0.3-1.4,1.4-1.1,2.3c0.3,0.9,1.4,1.4,2.3,1.1c0.1,0,14-4.7,22,0.7c3.6,2.4,5.5,6.7,5.8,12.6
			l-0.8,7.7c-0.1,1,0.6,1.9,1.6,2C541.5,392.9,541.6,392.9,541.6,392.9z"/>
		<path class="st8" d="M541.4,393.1c-0.5-0.1-1-0.3-1.4-0.7c-0.3-0.4-0.5-1-0.4-1.5l0.8-7.6c-0.3-5.8-2.2-10-5.7-12.4
			c-7.9-5.4-21.6-0.7-21.8-0.7c-1.1,0.4-2.2-0.2-2.6-1.3c-0.4-1.1,0.2-2.2,1.3-2.6c0.6-0.2,15.8-5.4,25.4,1.2
			c4.7,3.2,7.2,8.5,7.5,15.8c0,0.1,0,0.2,0,0.3l-0.9,7.8c-0.1,1-1,1.8-2,1.8C541.6,393.1,541.5,393.1,541.4,393.1z M543.3,391.3
			l0.9-7.8c0-0.1,0-0.2,0-0.2c-0.3-7.1-2.7-12.3-7.3-15.4c-9.4-6.4-24.4-1.3-25-1.1c-0.8,0.3-1.3,1.2-1,2c0.3,0.8,1.2,1.3,2,1
			c0.1,0,14.1-4.8,22.2,0.7c3.6,2.5,5.6,6.8,5.9,12.8l-0.8,7.7c0,0.4,0.1,0.8,0.3,1.2c0.3,0.3,0.6,0.5,1.1,0.6c0,0,0.1,0,0.1,0
			l0,0.2l0-0.2C542.5,392.7,543.2,392.1,543.3,391.3z"/>
	</g>
	<g>
		<path class="st8" d="M447,441.4l7.3-7.3c0.8-0.8,2-0.8,2.8,0l39.3,38.2l3.1-8.8c0.4-1,1.5-1.6,2.5-1.2c1,0.4,1.6,1.5,1.2,2.5
			l-4.1,11.7c-0.2,0.6-0.8,1.1-1.4,1.3c-0.1,0-0.3,0.1-0.5,0.1c-0.5,0-1-0.2-1.4-0.6l-40.2-39l-5.9,5.9c-0.4,0.4-0.9,0.6-1.4,0.6
			c0,0,0,0,0,0c-0.5,0-1-0.2-1.4-0.6C446.2,443.4,446.2,442.2,447,441.4z"/>
		<path class="st8" d="M458,462.6c0.4-0.3,0.9-0.5,1.5-0.4c0.5,0.1,1,0.3,1.3,0.8l21.3,27.9l13.6-11.3c0.4-0.3,1-0.5,1.5-0.4
			c0.5,0.1,1,0.3,1.3,0.7l6.4,8.2c0.3,0.4,0.5,0.9,0.4,1.5c-0.1,0.5-0.3,1-0.7,1.3c-0.4,0.3-0.9,0.5-1.5,0.4c-0.5-0.1-1-0.3-1.3-0.7
			l-5.2-6.6L483,495.3c-0.4,0.3-0.8,0.5-1.3,0.5c-0.1,0-0.1,0-0.2,0c-0.5-0.1-1-0.3-1.3-0.8l-22.5-29.6
			C457,464.5,457.1,463.3,458,462.6z"/>
	</g>
	<g>
		<path class="st8" d="M468.8,411.8L468.8,411.8c-1.1,0-2-0.9-2-2c0-5.7-2.6-6.6-2.7-6.6c-1.1-0.3-1.7-1.4-1.4-2.5
			c0.1-0.5,0.5-1,0.9-1.3c0.5-0.3,1-0.4,1.5-0.2c0.2,0.1,5.7,1.5,5.8,10.5C471,410.9,470.1,411.8,468.8,411.8L468.8,411.8z"/>
		<path class="st8" d="M453.4,400.5c0.5-4.2,3-7.9,6.7-9.9c2.3-1.3,4.6-1.5,6.8-0.7c4.3,1.6,6.2,6.7,6.3,7c0.4,1-0.1,2.2-1.2,2.5
			c-1,0.4-2.2-0.1-2.6-1.2c0,0-1.5-3.7-4-4.6c-1.1-0.4-2.2-0.3-3.5,0.5c-2.6,1.4-4.3,4-4.7,6.9c-0.3,2.6,0.1,6.7,3.5,12.1
			c0.1,0.1,0.2,0.2,0.3,0.3c2.6,3.9,5.6,3.6,5.7,3.5c1.1-0.1,2,0.6,2.2,1.6c0.2,1-0.5,2-1.5,2.2c-0.1,0-0.4,0.1-0.9,0.1
			c-0.9,0-2.4-0.2-4.1-1l-2,11.8c-0.2,0.9-0.9,1.6-1.9,1.6c0,0,0,0-0.1,0c-0.1,0-0.2,0-0.3,0c-0.5-0.1-1-0.4-1.3-0.8
			c-0.3-0.4-0.4-1-0.3-1.5l2.3-13.7C453.6,409.9,453,404.1,453.4,400.5z"/>
	</g>
	<path class="st8" d="M513,649l24.5-4.6c0.5-0.1,1,0,1.5,0.3c0.4,0.3,0.7,0.7,0.8,1.2c0.1,0.5,0,1-0.3,1.5c-0.3,0.4-0.7,0.7-1.2,0.8
		l-23,4.3v5.4h2.2c0,0,0.1,0,0.1,0l84.4,5.1c1.1,0.1,1.9,1,1.8,2.1c-0.1,1-0.9,1.8-1.9,1.8c0,0-0.1,0-0.1,0l-84.3-5.1h-4.1
		c-1.1,0-1.9-0.9-1.9-1.9v-9C511.4,650,512.1,649.2,513,649z"/>
	<path class="st8" d="M521.2,423.3l3.1,0c0.9,0,1.7,0.7,1.7,1.7c0,0.9-0.7,1.7-1.7,1.7l-3.1,0c-0.9,0-1.7-0.7-1.7-1.7
		C519.5,424.1,520.3,423.3,521.2,423.3z"/>
	<path class="st8" d="M517.4,446.3C517.4,446.3,517.4,446.3,517.4,446.3c-3.7-0.2-6.6-2.5-8.4-6.8c-1.2-3-1.5-5.9-1.5-6
		c0-0.5,0.1-1,0.5-1.4c0.4-0.4,0.9-0.5,1.4-0.5c4.9,0.5,14.6,0.3,14.7,0.3c1,0,1.8,0.7,1.8,1.7c0,1-0.7,1.8-1.7,1.8
		c-0.4,0-7.6,0.2-12.9-0.1c0.6,2.7,2.2,7.2,6,7.5c0.3-0.1,2.2-0.6,4-4c0.5-0.9,1.5-1.2,2.4-0.7c0.9,0.5,1.2,1.5,0.7,2.4
		C521.5,446.1,517.9,446.3,517.4,446.3C517.5,446.3,517.4,446.3,517.4,446.3z"/>
	<path class="st8" d="M460.9,390.8c-0.1,0-0.1,0-0.2,0c-1.4-0.1-2.5-1.3-2.4-2.7c1.3-19.5,7.1-33.9,17.5-42.7
		c11.9-10.2,25.2-9.1,25.8-9c1.4,0.1,2.5,1.4,2.3,2.8c-0.1,1.4-1.4,2.5-2.8,2.3l0,0c-0.1,0-11.8-0.9-22,7.9
		c-9.2,7.9-14.4,21-15.6,39.1C463.3,389.8,462.2,390.8,460.9,390.8z"/>
	<g>
		
			<ellipse transform="matrix(0.9998 -2.024394e-02 2.024394e-02 0.9998 -8.0687 9.4227)" class="st5" cx="461.4" cy="403.2" rx="11.3" ry="15.3"/>
		<path class="st8" d="M460.5,420.1c-3.1-0.3-6-2-8.2-4.9c-2.4-3.1-3.8-7.3-3.9-11.7c-0.1-4.4,1.1-8.6,3.4-11.8
			c2.4-3.3,5.6-5.2,9.2-5.3c3.5-0.1,6.9,1.7,9.4,4.9c2.4,3.1,3.8,7.3,3.9,11.7c0.1,4.4-1.1,8.6-3.4,11.8c-2.4,3.3-5.6,5.2-9.2,5.3
			C461.3,420.1,460.9,420.1,460.5,420.1z M461.9,389.5c-0.3,0-0.5,0-0.8,0c-2.5,0.1-4.9,1.5-6.7,4c-1.9,2.7-2.9,6.2-2.8,10
			c0.1,3.8,1.2,7.3,3.2,9.9c1.9,2.5,4.3,3.8,6.9,3.7c2.5-0.1,4.9-1.5,6.7-4c1.9-2.7,2.9-6.2,2.8-10c-0.1-3.8-1.2-7.3-3.2-9.9
			C466.3,391,464.1,389.7,461.9,389.5z"/>
	</g>
	<g>
		
			<ellipse transform="matrix(0.9998 -2.024611e-02 2.024611e-02 0.9998 -8.0715 9.3603)" class="st8" cx="458.2" cy="403.3" rx="8.2" ry="11.1"/>
		<path class="st8" d="M457.6,415.5c-2.2-0.2-4.3-1.4-5.9-3.5c-1.7-2.3-2.7-5.3-2.8-8.4c-0.1-6.7,3.9-12.3,9.1-12.4
			c5.1-0.1,9.4,5.3,9.6,12v0c0.1,6.7-3.9,12.3-9.1,12.4C458.2,415.5,457.9,415.5,457.6,415.5z M458.6,393.4c-0.2,0-0.4,0-0.6,0
			c-3.9,0.1-7,4.6-6.9,10.1c0.1,2.7,0.9,5.3,2.3,7.1c1.4,1.8,3.1,2.7,5,2.7c3.9-0.1,7-4.6,6.9-10.1
			C465.2,397.9,462.3,393.7,458.6,393.4z"/>
	</g>
	<g>
		<polygon class="st15" points="713.5,526.5 718.1,528.8 714.4,539.8 682.5,543.9 677.7,541.3 680.4,530.3 707.5,527.1 		"/>
		<path class="st8" d="M682.5,545.7c-0.3,0-0.6-0.1-0.8-0.2l-4.7-2.6c-0.7-0.4-1-1.2-0.9-1.9l2.6-11c0.2-0.7,0.8-1.2,1.5-1.3
			l27.1-3.3c1-0.1,1.8,0.6,1.9,1.5c0.1,1-0.6,1.8-1.5,1.9l-25.9,3.1l-2,8.5l3.1,1.7l30.3-4l2.8-8.4l-2.8-1.1c-0.9-0.4-1.3-1.4-1-2.3
			c0.4-0.9,1.4-1.3,2.3-1l4.3,1.7c0.9,0.3,1.3,1.3,1,2.2l-3.7,11c-0.2,0.6-0.8,1.1-1.4,1.2l-32,4.2
			C682.6,545.7,682.5,545.7,682.5,545.7z"/>
	</g>
	<g>
		<polygon class="st15" points="689.6,552.2 694,543.4 702.4,541.9 697.5,551.2 		"/>
		<path class="st8" d="M689.6,553.9c-0.6,0-1.1-0.3-1.4-0.7c-0.4-0.5-0.4-1.2-0.1-1.8l4.4-8.8c0.2-0.5,0.7-0.8,1.2-0.9l8.4-1.6
			c0.7-0.1,1.3,0.1,1.7,0.7c0.4,0.5,0.5,1.3,0.1,1.9L699,552c-0.3,0.5-0.8,0.8-1.3,0.9l-7.9,1C689.8,553.9,689.7,553.9,689.6,553.9z
			 M695.2,545l-2.5,5l3.7-0.5l2.8-5.3L695.2,545z"/>
	</g>
	<path class="st8" d="M682.5,545.7c-0.1,0-0.3,0-0.4-0.1c-0.9-0.2-1.5-1.2-1.2-2.1l2.4-8.9c0.2-0.9,1.2-1.5,2.1-1.2
		c0.9,0.2,1.5,1.2,1.2,2.1l-2.4,8.9C683.9,545.2,683.2,545.7,682.5,545.7z"/>
</g>
<g>
	<path class="st5" d="M261.6,303c-0.6-4.4-1.2-8.5-1.9-12.1c-0.2,0.4-0.6,0.8-1.2,0.8c-0.7,0-1.3-0.6-1.3-1.3s0.6-1.3,1.3-1.3
		c0.4,0,0.7,0.2,0.9,0.4c-0.4-2.4-0.8-4.5-1.2-6.4c-0.5-0.1-0.9-0.6-0.9-1.2c0-0.4,0.2-0.7,0.5-1c-1-4.5-1.7-7.2-1.7-7.2l-15.2,2.6
		c0.4,1.5,0.8,2.9,1.2,4.4c0.4,0.2,0.7,0.6,0.7,1.1c0,0.3-0.1,0.5-0.3,0.8c0.9,3.8,1.5,7.7,2.1,11.6c0.2-0.5,0.6-0.8,1.2-0.8
		c0.7,0,1.3,0.6,1.3,1.3c0,0.7-0.6,1.3-1.3,1.3c-0.4,0-0.8-0.2-1-0.5c0.3,2.2,0.5,4.4,0.8,6.6c0.1,0,0.2,0,0.3,0
		c0.7,0,1.3,0.6,1.3,1.3c0,0.7-0.6,1.3-1.3,1.3c0,0,0,0,0,0c0.2,2,0.3,4.1,0.4,6.1c0.5,0.2,0.9,0.6,0.9,1.2c0,0.5-0.3,1-0.8,1.2
		c0.1,2.1,0.2,4.3,0.2,6.3c0.3,0.2,0.5,0.6,0.5,1c0,0.4-0.2,0.8-0.5,1c0,2.2,0,4.4,0,6.5c0.3,0.2,0.5,0.6,0.5,1c0,0.4-0.2,0.8-0.5,1
		c0,2.2-0.1,4.4-0.2,6.4c0.4,0.2,0.7,0.6,0.7,1.1c0,0.5-0.3,1-0.8,1.2c-0.1,2.2-0.2,4.3-0.3,6.1c0.6,0.1,1.1,0.6,1.1,1.2
		c0,0.7-0.6,1.3-1.3,1.3c0,0,0,0,0,0c-0.2,3-0.4,5.1-0.5,6.2c0.2-0.1,0.4-0.2,0.6-0.2c0.6,0,1,0.4,1.2,0.9l6.2-0.2
		c0.2-0.4,0.6-0.6,1.1-0.6c0.4,0,0.8,0.2,1.1,0.6l5.5-0.2c0.5-2.1,1-4.3,1.3-6.6c-0.4-0.2-0.6-0.6-0.6-1.1c0-0.6,0.4-1.1,0.9-1.2
		c0.3-2,0.5-4,0.6-6.1c-0.1,0-0.2,0-0.3,0c-0.7,0-1.3-0.6-1.3-1.3s0.6-1.3,1.3-1.3c0.2,0,0.3,0,0.4,0.1c0.1-2.1,0.2-4.2,0.2-6.2
		c-0.2,0.1-0.4,0.2-0.6,0.2c-0.7,0-1.3-0.6-1.3-1.3c0-0.7,0.6-1.3,1.3-1.3c0.2,0,0.4,0.1,0.6,0.2c0-2.1-0.1-4.2-0.2-6.2
		c-0.1,0-0.3,0.1-0.4,0.1c-0.7,0-1.3-0.6-1.3-1.3s0.6-1.3,1.3-1.3c0.1,0,0.2,0,0.3,0c-0.1-2-0.3-4.1-0.4-6.1
		c-0.6-0.1-1.1-0.6-1.1-1.2c0-0.6,0.4-1,0.9-1.2c-0.2-2.3-0.5-4.6-0.8-6.9c-0.1-0.1-0.1-0.3-0.1-0.5C261.6,303,261.6,303,261.6,303z
		 M245.8,287.3c-0.7,0-1.3-0.6-1.3-1.3s0.6-1.3,1.3-1.3s1.3,0.6,1.3,1.3S246.5,287.3,245.8,287.3z M245.8,278.8
		c-0.7,0-1.3-0.6-1.3-1.3c0-0.7,0.6-1.3,1.3-1.3s1.3,0.6,1.3,1.3C247.1,278.2,246.5,278.8,245.8,278.8z M250.1,351.2
		c-0.7,0-1.3-0.6-1.3-1.3c0-0.7,0.6-1.3,1.3-1.3c0.7,0,1.3,0.6,1.3,1.3C251.3,350.6,250.8,351.2,250.1,351.2z M250.1,342.6
		c-0.7,0-1.3-0.6-1.3-1.3c0-0.7,0.6-1.3,1.3-1.3c0.7,0,1.3,0.6,1.3,1.3C251.3,342.1,250.8,342.6,250.1,342.6z M250.1,334.1
		c-0.7,0-1.3-0.6-1.3-1.3s0.6-1.3,1.3-1.3c0.7,0,1.3,0.6,1.3,1.3S250.8,334.1,250.1,334.1z M250.1,325.6c-0.7,0-1.3-0.6-1.3-1.3
		s0.6-1.3,1.3-1.3c0.7,0,1.3,0.6,1.3,1.3S250.8,325.6,250.1,325.6z M250.1,317.1c-0.7,0-1.3-0.6-1.3-1.3c0-0.7,0.6-1.3,1.3-1.3
		c0.7,0,1.3,0.6,1.3,1.3C251.3,316.5,250.8,317.1,250.1,317.1z M250.1,308.6c-0.7,0-1.3-0.6-1.3-1.3c0-0.7,0.6-1.3,1.3-1.3
		c0.7,0,1.3,0.6,1.3,1.3C251.3,308,250.8,308.6,250.1,308.6z M250.1,300.1c-0.7,0-1.3-0.6-1.3-1.3s0.6-1.3,1.3-1.3
		c0.7,0,1.3,0.6,1.3,1.3S250.8,300.1,250.1,300.1z M250.1,291.6c-0.7,0-1.3-0.6-1.3-1.3s0.6-1.3,1.3-1.3c0.7,0,1.3,0.6,1.3,1.3
		S250.8,291.6,250.1,291.6z M250.1,283.1c-0.7,0-1.3-0.6-1.3-1.3c0-0.7,0.6-1.3,1.3-1.3c0.7,0,1.3,0.6,1.3,1.3
		C251.3,282.5,250.8,283.1,250.1,283.1z M254.3,346.9c-0.7,0-1.3-0.6-1.3-1.3s0.6-1.3,1.3-1.3s1.3,0.6,1.3,1.3
		S255,346.9,254.3,346.9z M254.3,338.4c-0.7,0-1.3-0.6-1.3-1.3s0.6-1.3,1.3-1.3s1.3,0.6,1.3,1.3S255,338.4,254.3,338.4z
		 M254.3,329.9c-0.7,0-1.3-0.6-1.3-1.3c0-0.7,0.6-1.3,1.3-1.3s1.3,0.6,1.3,1.3C255.6,329.3,255,329.9,254.3,329.9z M254.3,321.4
		c-0.7,0-1.3-0.6-1.3-1.3s0.6-1.3,1.3-1.3s1.3,0.6,1.3,1.3S255,321.4,254.3,321.4z M254.3,312.9c-0.7,0-1.3-0.6-1.3-1.3
		s0.6-1.3,1.3-1.3s1.3,0.6,1.3,1.3S255,312.9,254.3,312.9z M254.3,304.3c-0.7,0-1.3-0.6-1.3-1.3c0-0.7,0.6-1.3,1.3-1.3
		s1.3,0.6,1.3,1.3C255.6,303.8,255,304.3,254.3,304.3z M254.3,295.8c-0.7,0-1.3-0.6-1.3-1.3c0-0.7,0.6-1.3,1.3-1.3s1.3,0.6,1.3,1.3
		C255.6,295.3,255,295.8,254.3,295.8z M254.3,287.3c-0.7,0-1.3-0.6-1.3-1.3s0.6-1.3,1.3-1.3s1.3,0.6,1.3,1.3S255,287.3,254.3,287.3z
		 M254.3,278.8c-0.7,0-1.3-0.6-1.3-1.3c0-0.7,0.6-1.3,1.3-1.3s1.3,0.6,1.3,1.3C255.6,278.2,255,278.8,254.3,278.8z M258.6,351.2
		c-0.7,0-1.3-0.6-1.3-1.3c0-0.7,0.6-1.3,1.3-1.3s1.3,0.6,1.3,1.3C259.8,350.6,259.3,351.2,258.6,351.2z M258.6,342.6
		c-0.7,0-1.3-0.6-1.3-1.3c0-0.7,0.6-1.3,1.3-1.3s1.3,0.6,1.3,1.3C259.8,342.1,259.3,342.6,258.6,342.6z M258.6,334.1
		c-0.7,0-1.3-0.6-1.3-1.3s0.6-1.3,1.3-1.3s1.3,0.6,1.3,1.3S259.3,334.1,258.6,334.1z M258.6,325.6c-0.7,0-1.3-0.6-1.3-1.3
		s0.6-1.3,1.3-1.3s1.3,0.6,1.3,1.3S259.3,325.6,258.6,325.6z M258.6,317.1c-0.7,0-1.3-0.6-1.3-1.3c0-0.7,0.6-1.3,1.3-1.3
		s1.3,0.6,1.3,1.3C259.8,316.5,259.3,317.1,258.6,317.1z M258.6,308.6c-0.7,0-1.3-0.6-1.3-1.3c0-0.7,0.6-1.3,1.3-1.3
		s1.3,0.6,1.3,1.3C259.8,308,259.3,308.6,258.6,308.6z M258.6,300.1c-0.7,0-1.3-0.6-1.3-1.3s0.6-1.3,1.3-1.3s1.3,0.6,1.3,1.3
		S259.3,300.1,258.6,300.1z"/>
	<path class="st0" d="M258.6,348.6c-0.7,0-1.3,0.6-1.3,1.3c0,0.7,0.6,1.3,1.3,1.3s1.3-0.6,1.3-1.3
		C259.8,349.2,259.3,348.6,258.6,348.6z"/>
	<path class="st0" d="M261.6,345.6c0,0.5,0.2,0.9,0.6,1.1c0.1-0.8,0.2-1.5,0.3-2.3C262,344.6,261.6,345.1,261.6,345.6z"/>
	<path class="st0" d="M254.3,344.4c-0.7,0-1.3,0.6-1.3,1.3s0.6,1.3,1.3,1.3s1.3-0.6,1.3-1.3S255,344.4,254.3,344.4z"/>
	<path class="st0" d="M254.3,352.9c-0.5,0-0.9,0.3-1.1,0.6l2.1-0.1C255.1,353.1,254.8,352.9,254.3,352.9z"/>
	<path class="st0" d="M250.1,348.6c-0.7,0-1.3,0.6-1.3,1.3c0,0.7,0.6,1.3,1.3,1.3c0.7,0,1.3-0.6,1.3-1.3
		C251.3,349.2,250.8,348.6,250.1,348.6z"/>
	<path class="st0" d="M247.1,345.6c0-0.6-0.5-1.2-1.1-1.2c-0.1,0.9-0.1,1.7-0.2,2.5c0,0,0,0,0,0
		C246.5,346.9,247.1,346.3,247.1,345.6z"/>
	<path class="st0" d="M245.8,352.9c-0.2,0-0.4,0.1-0.6,0.2c-0.1,0.5-0.1,0.8-0.1,0.8l1.9-0.1C246.8,353.3,246.4,352.9,245.8,352.9z"
		/>
	<path class="st0" d="M258.6,340.1c-0.7,0-1.3,0.6-1.3,1.3c0,0.7,0.6,1.3,1.3,1.3s1.3-0.6,1.3-1.3
		C259.8,340.7,259.3,340.1,258.6,340.1z"/>
	<path class="st0" d="M250.1,340.1c-0.7,0-1.3,0.6-1.3,1.3c0,0.7,0.6,1.3,1.3,1.3c0.7,0,1.3-0.6,1.3-1.3
		C251.3,340.7,250.8,340.1,250.1,340.1z"/>
	<path class="st0" d="M258.6,331.6c-0.7,0-1.3,0.6-1.3,1.3s0.6,1.3,1.3,1.3s1.3-0.6,1.3-1.3S259.3,331.6,258.6,331.6z"/>
	<path class="st0" d="M261.6,328.6c0,0.7,0.6,1.3,1.3,1.3c0.2,0,0.4-0.1,0.6-0.2c0-0.7,0-1.5,0-2.2c-0.2-0.1-0.4-0.2-0.6-0.2
		C262.1,327.4,261.6,327.9,261.6,328.6z"/>
	<path class="st0" d="M254.3,327.4c-0.7,0-1.3,0.6-1.3,1.3c0,0.7,0.6,1.3,1.3,1.3s1.3-0.6,1.3-1.3
		C255.6,327.9,255,327.4,254.3,327.4z"/>
	<path class="st0" d="M261.6,337.1c0,0.7,0.6,1.3,1.3,1.3c0.1,0,0.2,0,0.3,0c0.1-0.8,0.1-1.6,0.1-2.4c-0.1-0.1-0.3-0.1-0.4-0.1
		C262.1,335.9,261.6,336.4,261.6,337.1z"/>
	<path class="st0" d="M254.3,335.9c-0.7,0-1.3,0.6-1.3,1.3s0.6,1.3,1.3,1.3s1.3-0.6,1.3-1.3S255,335.9,254.3,335.9z"/>
	<path class="st0" d="M250.1,331.6c-0.7,0-1.3,0.6-1.3,1.3s0.6,1.3,1.3,1.3c0.7,0,1.3-0.6,1.3-1.3S250.8,331.6,250.1,331.6z"/>
	<path class="st0" d="M247.1,328.6c0-0.4-0.2-0.8-0.5-1c0,0.7,0,1.3,0,2C246.9,329.4,247.1,329,247.1,328.6z"/>
	<path class="st0" d="M247.1,337.1c0-0.5-0.3-0.9-0.7-1.1c0,0.8-0.1,1.5-0.1,2.3C246.7,338.1,247.1,337.7,247.1,337.1z"/>
	<path class="st0" d="M258.6,323.1c-0.7,0-1.3,0.6-1.3,1.3s0.6,1.3,1.3,1.3s1.3-0.6,1.3-1.3S259.3,323.1,258.6,323.1z"/>
	<path class="st0" d="M250.1,323.1c-0.7,0-1.3,0.6-1.3,1.3s0.6,1.3,1.3,1.3c0.7,0,1.3-0.6,1.3-1.3S250.8,323.1,250.1,323.1z"/>
	<path class="st0" d="M258.6,314.6c-0.7,0-1.3,0.6-1.3,1.3c0,0.7,0.6,1.3,1.3,1.3s1.3-0.6,1.3-1.3
		C259.8,315.2,259.3,314.6,258.6,314.6z"/>
	<path class="st0" d="M261.6,311.6c0,0.6,0.5,1.2,1.1,1.2c-0.1-0.8-0.1-1.6-0.2-2.4C261.9,310.6,261.6,311,261.6,311.6z"/>
	<path class="st0" d="M254.3,310.3c-0.7,0-1.3,0.6-1.3,1.3s0.6,1.3,1.3,1.3s1.3-0.6,1.3-1.3S255,310.3,254.3,310.3z"/>
	<path class="st0" d="M261.6,320.1c0,0.7,0.6,1.3,1.3,1.3c0.1,0,0.3,0,0.4-0.1c0-0.8-0.1-1.6-0.1-2.4c-0.1,0-0.2,0-0.3,0
		C262.1,318.9,261.6,319.4,261.6,320.1z"/>
	<path class="st0" d="M254.3,318.9c-0.7,0-1.3,0.6-1.3,1.3s0.6,1.3,1.3,1.3s1.3-0.6,1.3-1.3S255,318.9,254.3,318.9z"/>
	<path class="st0" d="M250.1,314.6c-0.7,0-1.3,0.6-1.3,1.3c0,0.7,0.6,1.3,1.3,1.3c0.7,0,1.3-0.6,1.3-1.3
		C251.3,315.2,250.8,314.6,250.1,314.6z"/>
	<path class="st0" d="M247.1,311.6c0-0.6-0.4-1-0.9-1.2c0,0.8,0.1,1.6,0.1,2.3C246.8,312.6,247.1,312.1,247.1,311.6z"/>
	<path class="st0" d="M247.1,320.1c0-0.4-0.2-0.8-0.5-1c0,0.7,0,1.4,0,2C246.9,320.9,247.1,320.5,247.1,320.1z"/>
	<path class="st0" d="M258.6,306.1c-0.7,0-1.3,0.6-1.3,1.3c0,0.7,0.6,1.3,1.3,1.3s1.3-0.6,1.3-1.3
		C259.8,306.7,259.3,306.1,258.6,306.1z"/>
	<path class="st0" d="M250.1,306.1c-0.7,0-1.3,0.6-1.3,1.3c0,0.7,0.6,1.3,1.3,1.3c0.7,0,1.3-0.6,1.3-1.3
		C251.3,306.7,250.8,306.1,250.1,306.1z"/>
	<path class="st0" d="M258.6,297.6c-0.7,0-1.3,0.6-1.3,1.3s0.6,1.3,1.3,1.3s1.3-0.6,1.3-1.3S259.3,297.6,258.6,297.6z"/>
	<path class="st0" d="M254.3,293.3c-0.7,0-1.3,0.6-1.3,1.3c0,0.7,0.6,1.3,1.3,1.3s1.3-0.6,1.3-1.3
		C255.6,293.9,255,293.3,254.3,293.3z"/>
	<path class="st0" d="M261.6,303.1c0,0.2,0,0.3,0.1,0.5c0-0.2-0.1-0.4-0.1-0.6C261.6,303,261.6,303,261.6,303.1z"/>
	<path class="st0" d="M254.3,301.8c-0.7,0-1.3,0.6-1.3,1.3c0,0.7,0.6,1.3,1.3,1.3s1.3-0.6,1.3-1.3
		C255.6,302.4,255,301.8,254.3,301.8z"/>
	<path class="st0" d="M250.1,297.6c-0.7,0-1.3,0.6-1.3,1.3s0.6,1.3,1.3,1.3c0.7,0,1.3-0.6,1.3-1.3S250.8,297.6,250.1,297.6z"/>
	<path class="st0" d="M245.8,295.8c0.7,0,1.3-0.6,1.3-1.3c0-0.7-0.6-1.3-1.3-1.3c-0.5,0-1,0.4-1.2,0.8c0.1,0.4,0.1,0.8,0.2,1.1
		C245,295.6,245.4,295.8,245.8,295.8z"/>
	<path class="st0" d="M247.1,303.1c0-0.7-0.6-1.3-1.3-1.3c-0.1,0-0.2,0-0.3,0c0.1,0.8,0.2,1.6,0.2,2.5c0,0,0,0,0,0
		C246.5,304.3,247.1,303.8,247.1,303.1z"/>
	<path class="st0" d="M258.6,289.1c-0.7,0-1.3,0.6-1.3,1.3s0.6,1.3,1.3,1.3c0.5,0,1-0.3,1.2-0.8c-0.1-0.5-0.2-0.9-0.2-1.4
		C259.3,289.2,258.9,289.1,258.6,289.1z"/>
	<path class="st0" d="M250.1,289.1c-0.7,0-1.3,0.6-1.3,1.3s0.6,1.3,1.3,1.3c0.7,0,1.3-0.6,1.3-1.3S250.8,289.1,250.1,289.1z"/>
	<path class="st0" d="M257.3,281.8c0,0.6,0.4,1.1,0.9,1.2c-0.2-0.8-0.3-1.5-0.5-2.2C257.5,281.1,257.3,281.4,257.3,281.8z"/>
	<path class="st0" d="M254.3,276.3c-0.7,0-1.3,0.6-1.3,1.3c0,0.7,0.6,1.3,1.3,1.3s1.3-0.6,1.3-1.3
		C255.6,276.9,255,276.3,254.3,276.3z"/>
	<path class="st0" d="M254.3,284.8c-0.7,0-1.3,0.6-1.3,1.3s0.6,1.3,1.3,1.3s1.3-0.6,1.3-1.3S255,284.8,254.3,284.8z"/>
	<path class="st0" d="M250.1,280.6c-0.7,0-1.3,0.6-1.3,1.3c0,0.7,0.6,1.3,1.3,1.3c0.7,0,1.3-0.6,1.3-1.3
		C251.3,281.1,250.8,280.6,250.1,280.6z"/>
	<path class="st0" d="M242.1,280.7c0.2,0.6,0.3,1.3,0.4,1.9c0.2-0.2,0.3-0.5,0.3-0.8C242.8,281.3,242.5,280.9,242.1,280.7z"/>
	<path class="st0" d="M245.8,276.3c-0.7,0-1.3,0.6-1.3,1.3c0,0.7,0.6,1.3,1.3,1.3s1.3-0.6,1.3-1.3
		C247.1,276.9,246.5,276.3,245.8,276.3z"/>
	<circle class="st0" cx="245.8" cy="286.1" r="1.3"/>
</g>
<path class="st8" d="M245.7,348.7c-0.1,0-0.1,0-0.2,0c-1-0.1-1.7-0.9-1.6-1.9c3.2-33.3-4.7-69.1-6.5-76.2c-9.1-0.3-14.7-1.9-21-5.7
	c-0.8-0.5-1.1-1.6-0.6-2.4c0.5-0.8,1.6-1.1,2.4-0.6c6.1,3.7,11.3,5.1,20.6,5.2c0.8,0,1.5,0.6,1.7,1.3c0.1,0.4,10.5,41.1,6.9,78.7
	C247.3,348.1,246.5,348.7,245.7,348.7z"/>
<path class="st8" d="M261.4,347.7c-0.1,0-0.1,0-0.2,0c-1-0.1-1.6-1-1.5-1.9c4.7-41.8-6.8-78.6-6.9-79c-0.2-0.7,0-1.5,0.6-1.9
	c5.3-4,7.6-9.3,7-15.9c-0.5-5.1-2.6-9.1-2.6-9.1c-0.5-0.8-0.1-1.9,0.7-2.4c0.8-0.5,1.9-0.2,2.4,0.7c0.1,0.2,9.2,17.3-4.4,28.7
	c1.9,6.7,11,40.9,6.7,79.3C263,347,262.3,347.7,261.4,347.7z"/>
<path class="st8" d="M207.1,357.7c-0.5,0-1.1-0.3-1.4-0.7c-5.2-6.8-10.5-36.8-14.5-62.1c-0.2-1,0.5-1.8,1.5-2c1-0.1,1.8,0.5,2,1.5
	c2,12.9,8.1,51.2,13.3,59.8l62.4-2.6c0.9,0,1.8,0.7,1.8,1.7s-0.7,1.8-1.7,1.8L207.1,357.7C207.1,357.7,207.1,357.7,207.1,357.7z"/>
<path class="st8" d="M245.2,276.6c-1.7,0-3.7-0.2-5.6-0.9c-0.9-0.3-1.4-1.3-1-2.2c0.3-0.9,1.3-1.4,2.2-1c4.4,1.6,9.4,0,9.5,0
	c0.9-0.3,1.9,0.2,2.2,1.1c0.3,0.9-0.2,1.9-1.1,2.2C251.2,275.7,248.6,276.6,245.2,276.6z"/>
</svg>
