<?xml version="1.0" encoding="utf-8"?>
<!-- Generator: Adobe Illustrator 28.0.0, SVG Export Plug-In . SVG Version: 6.00 Build 0)  -->
<svg version="1.1" id="レイヤー_1" xmlns="http://www.w3.org/2000/svg" xmlns:xlink="http://www.w3.org/1999/xlink" x="0px"
	 y="0px" viewBox="0 0 1200 793.9" style="enable-background:new 0 0 1200 793.9;" xml:space="preserve">
<style type="text/css">
	.st0{fill:#FBFBFB;}
	.st1{fill:#FFFF00;}
	.st2{fill:#F29600;}
	.st3{fill:#FCEACC;}
	.st4{fill:#FFFFFF;}
	.st5{fill:none;}
	.st6{fill:#80DEF0;}
	.st7{fill:#F8CA7F;}
	.st8{fill:#4D4D4D;}
	.st9{fill:#FFE964;}
	.st10{fill:none;stroke:#FFFF00;stroke-width:49.798;stroke-miterlimit:10;}
	.st11{fill:none;stroke:#F29600;stroke-width:5.514;stroke-linecap:round;stroke-linejoin:round;stroke-miterlimit:10;}
	.st12{fill:none;stroke:#F29600;stroke-width:13.7849;stroke-linecap:round;stroke-linejoin:round;stroke-miterlimit:10;}
	.st13{fill:#FCEACC;stroke:#F29600;stroke-width:5.514;stroke-linecap:round;stroke-linejoin:round;stroke-miterlimit:10;}
	.st14{fill:none;stroke:#F29600;stroke-width:8.6156;stroke-miterlimit:10;}
	.st15{fill:none;stroke:#FFFFFF;stroke-width:6.8925;stroke-linecap:round;stroke-linejoin:round;}
	.st16{fill:#DADBDB;}
	.st17{fill:#251E1C;}
	.st18{fill:#66D7ED;}
	.st19{fill:url(#);}
	.st20{fill:#727171;}
	.st21{fill:#FEF4E5;}
	.st22{fill:#CCCCCC;}
	.st23{fill:none;stroke:#808080;stroke-width:1.5318;stroke-miterlimit:10;}
	.st24{fill:#E85151;}
	.st25{fill:#FFD759;}
	.st26{fill:#4BD961;}
	.st27{fill:none;stroke:#E6E6E6;stroke-width:1.8093;stroke-miterlimit:10;}
	.st28{fill:#999999;}
	.st29{fill:none;stroke:#CED4DA;stroke-width:1.8093;stroke-miterlimit:10;}
	.st30{fill:#59C2E1;}
	.st31{fill:#796A56;}
	.st32{fill:#9CDBED;}
	.st33{fill:none;stroke:#F29600;stroke-width:1.8093;stroke-miterlimit:10;}
	.st34{fill:none;stroke:#797979;stroke-width:1.7231;stroke-miterlimit:10;}
	.st35{fill:#F2F2F2;}
	.st36{fill:#EAECEF;}
</style>
<g>
	<rect class="st0" width="1200" height="793.9"/>
	<g>
		<g>
			<path class="st4" d="M1012,613.7l16.2-58.9l122.4,8.3l-19.7,71.3l-2.8,3.2l-39.3,22.2l-33.8-2.3l-2.8-1c0,0-6.5,3.8-15.2,4.7
				l-5.4,1.7l-20.5,11.7l-37.4-11.7l-14.3-38.2c0,0,22.4-13.1,26.7-16.1C990.2,605.7,997.1,606.5,1012,613.7z"/>
			<path class="st4" d="M793.1,705.3h101.5c0,0,0.4-54.1,0-67.7c-0.4-13.5-3.8-18.9-16.3-22.6c-12.5-3.6-60.4-11.5-60.4-11.5
				s-21.5-9-24.4,9.6L793.1,705.3z"/>
			<path class="st4" d="M963.6,489.4c0,0-4.7,4-7.6,1.2c0,0-0.6,13.5,7.2,21.8l-11.4,5.3c0,0-4.9,18.3-12.4,23.8
				c-7.5,5.5-20.9-9.4-20.9-9.4l-8.3,22.2l11.7,7l-46.1,29.1c0,0-37.5,7.4-52.4-16.9c0,0-1.3-19.6,9.1-31.1
				c10.5-11.6,24.9-24.4,31.9-48.3l1.3-7.2c0,0,2.7-29.8,9.2-42.2c6.4-12.4,19.9-17.2,34-14.9l6.2,0.6c0,0,10.4-7.5,20.4-3
				c10,4.5,21.5,19.7,21.5,19.7l2.7,2.3c0,0,6.8,0,9.8,9.4C972,468.2,969.1,478,963.6,489.4z"/>
			<path class="st6" d="M1093.6,493.4c0.6-17.8-13.4-32.8-31.2-33.4c-17.8-0.6-32.8,13.4-33.4,31.2c-0.5,16,10.6,29.6,25.8,32.7
				l5.1,9.5l5.7-9.2C1081,522.3,1093.1,509.4,1093.6,493.4z"/>
			<path class="st7" d="M914.7,508.4c-3.1,0-5.7,2.5-5.7,5.7c0,3.1,2.5,5.7,5.7,5.7s5.7-2.5,5.7-5.7
				C920.3,511,917.8,508.4,914.7,508.4z"/>
			<path class="st7" d="M995.8,649c-0.6-0.2-1.3-0.2-1.9,0.1l-19.9,8.7c-4.1-13.1-21.5-68-27.9-79.2c-7.4-13-22.8-19.4-23.4-19.6
				c-0.4-0.1-0.7-0.2-1.1-0.2l-26,1.8c-1.2,0.1-2.2,1-2.3,2.2c-3.5,24-16.8,25.1-17.7,25.2c-42.4-1.1-49.7-15.3-49.8-15.4
				c-0.5-1.1-1.6-1.7-2.7-1.5c-1.1,0.2-2,1.1-2.1,2.3l-2.6,28.8c-0.1,1.2,0.7,2.4,1.9,2.7c0.4,0.1,39,10.2,54.1,13.9
				c15.9,3.9,14.5,20.2,14.5,20.9c0,0.1,0,0.2,0,0.3v66.3c0,1.4,1.1,2.6,2.5,2.6h33.1c1.3,0,2.3-0.9,2.5-2.2l4.5-28.9
				c2.1,4.9,4.6,10.6,5.6,13.3c1.4,3.7,7.2,15.6,20.7,15.6c2,0,4-0.3,6.1-0.8c15-3.7,47.3-18,48.6-18.6c0.8-0.3,1.3-1.1,1.5-1.9
				C1018.4,657.6,996,649.1,995.8,649z"/>
			<path class="st8" d="M952.2,492.1c-0.2,1.3-1.5,2.1-2.8,1.9c-1.3-0.2-2.1-1.5-1.9-2.8c0.2-1.3,1.5-2.1,2.8-1.9
				C951.6,489.6,952.4,490.8,952.2,492.1z"/>
			<path class="st4" d="M1058.8,505.5C1058.8,505.5,1058.8,505.5,1058.8,505.5c-0.7,0-1.4-0.4-1.9-1l-11.2-12.3
				c-0.9-1-0.9-2.7,0.2-3.6c1-0.9,2.6-0.9,3.6,0.1l9.4,10.2l15.2-16.1c1-1,2.6-1.1,3.6-0.1c1,1,1.1,2.6,0.1,3.6l-17,18.2
				C1060.2,505.1,1059.5,505.5,1058.8,505.5z"/>
			<path class="st8" d="M953.5,483.9c-0.2,0-0.5,0-0.7-0.1c0,0-2.5-0.9-4.8-0.8c-1.2,0-2.1-0.9-2.2-2c0-1.2,0.9-2.1,2-2.2
				c3.2-0.1,6.3,1,6.4,1c1.1,0.4,1.7,1.6,1.3,2.7C955.2,483.3,954.4,483.9,953.5,483.9z"/>
			<path class="st8" d="M940,535.1c-1,0-1.8-0.7-2.1-1.7c-1.6-7.3-0.1-14.8,0-15.2c0.1-0.6,0.5-1.2,1.1-1.4c0.6-0.3,1.2-0.3,1.8-0.1
				c4.6,2,7.4,4.4,7.5,4.5c0.9,0.8,1,2.1,0.2,3c-0.8,0.9-2.1,1-3,0.2l0,0c0,0-1.5-1.2-3.9-2.6c-0.3,2.6-0.5,6.7,0.4,10.6
				c0.3,1.1-0.5,2.3-1.6,2.5C940.3,535.1,940.1,535.1,940,535.1z"/>
			<path class="st8" d="M793.5,707.4c-1.2,0-2.1-0.9-2.1-2.1v-89c0-6.5,1.8-11.3,5.5-14.2c5.3-4.3,12.4-2.8,12.7-2.7l21,5
				c1.1,0.3,1.8,1.4,1.6,2.5c-0.3,1.1-1.4,1.8-2.5,1.6l-21-5c0,0-5.4-1.1-9.2,1.9c-2.6,2.1-3.9,5.7-3.9,10.9v89
				C795.6,706.4,794.7,707.4,793.5,707.4z"/>
			<path class="st8" d="M1130.8,636.5c-0.2,0-0.4,0-0.6-0.1c-1.1-0.3-1.8-1.5-1.5-2.6l19-68.8l-118.1-8l-14.7,53.2
				c-0.3,1.1-1.5,1.8-2.6,1.5c-1.1-0.3-1.8-1.5-1.5-2.6l15.1-54.8c0.3-1,1.2-1.6,2.2-1.5l122.4,8.3c0.6,0,1.2,0.4,1.6,0.9
				c0.4,0.5,0.5,1.2,0.3,1.8l-19.7,71.3C1132.6,635.9,1131.8,636.5,1130.8,636.5z"/>
			<path class="st8" d="M1124.3,635.5c0,0-0.1,0-0.1,0l-43-2.9c-1.2-0.1-2-1.1-2-2.3c0.1-1.2,1.1-2,2.3-2l43,2.9
				c1.2,0.1,2,1.1,2,2.3C1126.4,634.7,1125.4,635.5,1124.3,635.5z"/>
			<path class="st8" d="M1088.7,661.9c0,0-0.1,0-0.1,0l-33.8-2.3c-1.2-0.1-2-1.1-2-2.3c0.1-1.2,1.1-2,2.3-2l33.2,2.2l38.8-21.9
				c1-0.6,2.3-0.2,2.9,0.8c0.6,1,0.2,2.3-0.8,2.9l-39.3,22.2C1089.4,661.8,1089,661.9,1088.7,661.9z"/>
			<path class="st8" d="M1036.8,663.4c-1.1,0-2-0.9-2.1-2c-0.1-1.2,0.8-2.2,2-2.3c17.8-1.3,25.7-15.1,29-21c0.3-0.6,0.6-1.1,0.9-1.6
				c3.3-5.5,6.2-5.9,7-5.9c1.2,0,2.1,1,2.1,2.2c0,1.1-0.9,2-1.9,2.1c-0.2,0.1-1.6,0.6-3.6,3.9c-0.2,0.4-0.5,0.9-0.8,1.5
				c-3.7,6.5-12.3,21.7-32.4,23.2C1036.9,663.4,1036.9,663.4,1036.8,663.4z"/>
			<path class="st8" d="M976.5,644.3c-2.7,0-5.6-0.9-8.6-3.5c-0.9-0.8-1-2.1-0.2-3c0.8-0.9,2.1-1,3-0.2c5.2,4.4,9.3,2.3,14.6-1.2
				c1.8-1.2,3.4-2.3,5-2.7c4.2-1.2,7.3-0.7,12.4,0.2c1.6,0.3,3.4,0.6,5.5,0.9c1.1,0.2,2.6,0.2,3.4-0.6c0.6-0.6,0.8-1.7,0.8-2.7
				c-10.5-1.9-18.9-6.7-19.3-6.9c-0.6-0.3-1-1-1.1-1.7c-0.1-0.7,0.2-1.4,0.8-1.8l4.6-3.7c0.9-0.7,2.2-0.6,3,0.3
				c0.7,0.9,0.6,2.2-0.3,3l-2,1.6c3.5,1.6,9.7,4.2,16.6,5.2c0.9,0.1,1.6,0.8,1.7,1.6c0.1,0.5,1,4.9-1.6,7.8c-1.6,1.7-4,2.4-7.1,2
				c-2.2-0.3-4-0.6-5.6-0.9c-5-0.8-7.3-1.2-10.6-0.3c-1,0.3-2.4,1.2-3.8,2.2C984.7,641.8,980.9,644.3,976.5,644.3z"/>
			<path class="st8" d="M915.2,511.6c-1,0-2-0.3-3-0.9c-2.7-1.6-4.8-5.2-5.6-9.8c-0.8-4.4-0.5-10.4,2.1-14.1c1.3-1.8,3.1-3,5.2-3.3
				c6.2-1,8.9,4,9.5,6.7c0.2,1.1-0.5,2.3-1.6,2.5c-1.1,0.2-2.3-0.5-2.5-1.6c-0.2-0.7-1.1-4-4.7-3.4c-1,0.2-1.8,0.7-2.4,1.6
				c-1.8,2.5-2.1,7.4-1.4,10.9c0.7,3.9,2.4,6.2,3.6,6.9c0.6,0.4,1,0.3,1.2,0.2c1.1-0.4,2.3,0.2,2.7,1.3c0.4,1.1-0.2,2.3-1.3,2.7
				C916.3,511.5,915.7,511.6,915.2,511.6z"/>
			<path class="st8" d="M921.4,491.5c-1,0-1.9-0.7-2.1-1.8c-0.2-1.2,0.6-2.2,1.7-2.4c1.7-0.3,5.4-3.3,10.3-10.8
				c1.1-1.6,2.1-3.5,3.1-5.3c3.1-5.4,6.1-10.6,9.9-12.7c2.4-1.3,4.3-1,5.5-0.6c2.7,1,3.7,3.8,3.8,4.1c0.4,1.1-0.2,2.3-1.3,2.7
				c-1.1,0.4-2.3-0.2-2.7-1.3c-0.1-0.3-0.6-1.3-1.4-1.6c-0.5-0.2-1.1-0.1-1.9,0.4c-2.8,1.5-5.6,6.4-8.3,11.1c-1,1.8-2.1,3.7-3.2,5.5
				c-3.4,5.4-8.5,11.9-13.1,12.7C921.7,491.5,921.5,491.5,921.4,491.5z"/>
			<path class="st8" d="M935.7,544.5c-5.3,0-11.6-3.8-19.7-11.7c-0.8-0.8-0.9-2.2,0-3c0.8-0.8,2.2-0.9,3,0
				c7.6,7.4,13.5,10.9,17.5,10.5c2.1-0.2,3.8-1.6,5.5-4.2c4-6.2,7.7-18.8,7.7-18.9c0.2-0.6,0.7-1.2,1.3-1.4c3.2-1.2,6.7-2.9,8.9-4
				c-5.8-7.9-7-20.4-5.4-26.8c2.2-9.1,2.7-16,2.7-16c0.1-1.2,1.1-2.1,2.2-2c1.2,0.1,2.1,1.1,2,2.2c0,0.3-0.5,7.3-2.8,16.8
				c-1.5,6,0.1,18.8,6.1,24.9c0.5,0.5,0.7,1.1,0.6,1.8c-0.1,0.7-0.5,1.2-1.1,1.5c-0.2,0.1-5.5,3.1-10.7,5.1
				c-1,3.2-4.3,13.2-7.9,18.9c-2.4,3.7-5.2,5.7-8.6,6.1C936.6,544.5,936.2,544.5,935.7,544.5z"/>
			<path class="st8" d="M917.5,486.8c-0.2,0-0.5,0-0.7-0.1c-1.1-0.4-1.7-1.6-1.3-2.7c2.8-7.5,6.9-14.4,7-14.7c0.6-1,1.9-1.3,2.9-0.7
				c1,0.6,1.3,1.9,0.7,2.9c0,0.1-4.1,6.8-6.7,13.9C919.2,486.3,918.3,486.8,917.5,486.8z"/>
			<path class="st8" d="M963.6,491.5c-0.3,0-0.7-0.1-1-0.2c-1-0.5-1.4-1.8-0.9-2.9c5.9-11.2,7.9-20.4,5.9-27.2
				c-2.5-8.5-8.4-9.7-8.7-9.7c-1.1-0.2-1.9-1.3-1.7-2.4c0.2-1.1,1.2-1.9,2.4-1.8c0.4,0.1,8.8,1.5,12.1,12.7c2.3,8,0.3,18-6.2,30.4
				C965.1,491.1,964.3,491.5,963.6,491.5z"/>
			<path class="st8" d="M875.6,591.8c-1,0-1.9-0.7-2.1-1.8c-0.2-1.2,0.6-2.2,1.7-2.4c17.4-3,19.7-35.6,20.9-53.1
				c0.3-3.7,0.5-6.6,0.8-8.6c1.6-10.6,7.4-17.3,7.6-17.6c0.8-0.9,2.1-1,3-0.2c0.9,0.8,1,2.1,0.2,3c-0.1,0.1-5.2,6.1-6.6,15.4
				c-0.3,1.8-0.5,4.8-0.7,8.3c-1.3,18.6-3.7,53.3-24.4,56.9C875.9,591.7,875.7,591.8,875.6,591.8z"/>
			<path class="st8" d="M956.6,449.2c-0.5,0-1.1-0.2-1.5-0.6c-0.2-0.2-4.5-4.5-10.8-12.1c-7.8-9.3-18.3-10.6-29.5-3.6
				c-1,0.6-2.3,0.3-2.9-0.7c-0.6-1-0.3-2.3,0.7-2.9c13-8.1,25.8-6.5,35,4.5c6.2,7.4,10.5,11.8,10.6,11.8c0.8,0.8,0.8,2.2,0,3
				C957.7,449,957.1,449.2,956.6,449.2z"/>
			<path class="st8" d="M1014.8,674.9c-0.7,0-1.4-0.4-1.8-1c-0.6-1-0.3-2.3,0.7-2.9l16.7-9.8c1-0.6,2.3-0.3,2.9,0.7
				c0.6,1,0.3,2.3-0.7,2.9l-16.7,9.8C1015.5,674.8,1015.1,674.9,1014.8,674.9z"/>
			<path class="st8" d="M865.5,489c-0.1,0-0.2,0-0.4,0c-1.2-0.2-1.9-1.3-1.7-2.4c0.5-2.8,0.9-6.2,1.3-9.7
				c1.8-14.9,4.1-33.4,15.6-42.4c14.3-11.1,28.3-6.9,28.9-6.7c1.1,0.3,1.7,1.5,1.4,2.7c-0.3,1.1-1.5,1.7-2.6,1.4
				c-0.5-0.2-12.5-3.7-25,6c-10.2,7.9-12.3,25.4-14,39.5c-0.4,3.6-0.8,7-1.4,9.9C867.4,488.3,866.5,489,865.5,489z"/>
			<path class="st8" d="M823.2,575.6c-1.1,0-2-0.8-2.1-2c-1.7-22.3,10.3-34.4,19.9-44.1c3.4-3.4,6.6-6.7,9-10.1
				c8.3-11.9,12.1-25.9,12.1-26c0.3-1.1,1.5-1.8,2.6-1.5c1.1,0.3,1.8,1.5,1.5,2.6c-0.2,0.6-4,14.8-12.8,27.3
				c-2.6,3.7-5.9,7-9.4,10.6c-9.5,9.6-20.2,20.5-18.7,40.8c0.1,1.2-0.8,2.2-2,2.3C823.3,575.6,823.3,575.6,823.2,575.6z"/>
			<path class="st8" d="M834.5,583.2C834.5,583.2,834.5,583.2,834.5,583.2c-1.3-0.1-2.2-1-2.1-2.2c0.9-22.1,9.2-32.2,9.6-32.7
				c0.8-0.9,2.1-1,3-0.3c0.9,0.8,1,2.1,0.3,3c-0.1,0.2-7.7,9.6-8.6,30.1C836.6,582.3,835.7,583.2,834.5,583.2z"/>
			<path class="st8" d="M860.4,591.8c-0.8,0-1.5-0.4-1.9-1.1c-0.6-1-0.2-2.3,0.9-2.9c16.7-9,20-48.9,20-49.3c0.1-1.2,1.1-2,2.3-1.9
				c1.2,0.1,2,1.1,1.9,2.3c-0.1,1.7-3.5,42.5-22.2,52.7C861.1,591.7,860.7,591.8,860.4,591.8z"/>
			<path class="st8" d="M850.2,586.7c-0.5,0-1-0.2-1.3-0.5c-0.9-0.7-1-2.1-0.3-3c7.9-9.6,13.5-24.6,13.6-24.8
				c0.4-1.1,1.6-1.7,2.7-1.3c1.1,0.4,1.7,1.6,1.3,2.7c-0.2,0.6-5.9,15.8-14.3,26C851.4,586.4,850.8,586.7,850.2,586.7z"/>
			<path class="st8" d="M912.4,537.2c-0.4,0-0.8-0.1-1.2-0.4c-6.6-4.4-12.6-6.9-12.7-6.9c-1.1-0.4-1.6-1.7-1.1-2.8
				c0.4-1.1,1.7-1.6,2.8-1.2c0.3,0.1,6.4,2.7,13.4,7.3c1,0.6,1.2,2,0.6,2.9C913.8,536.9,913.1,537.2,912.4,537.2z"/>
			<path class="st8" d="M911.1,553.7c-0.2,0-0.5,0-0.7-0.1c-1.1-0.4-1.7-1.6-1.3-2.7l5.1-14c0.4-1.1,1.6-1.7,2.7-1.3
				c1.1,0.4,1.7,1.6,1.3,2.7l-5.1,14C912.8,553.2,912,553.7,911.1,553.7z"/>
			<path class="st8" d="M916.6,560.8c-0.4,0-0.8-0.1-1.2-0.3l-7.5-5l0,0c0,0-5.2-3.2-10.4-4.8c-1.1-0.3-1.7-1.5-1.4-2.6
				c0.3-1.1,1.5-1.7,2.6-1.4c5.7,1.8,11.2,5.1,11.4,5.3l7.6,5c1,0.6,1.2,2,0.6,2.9C918,560.4,917.3,560.8,916.6,560.8z"/>
			<path class="st8" d="M913.7,617.1c-0.1,0-0.2,0-0.3,0c-1.2-0.2-1.9-1.3-1.8-2.4c0.2-1.1,4.5-27.2,15-34.1
				c8.5-5.6,14.3-3.1,14.6-3c1.1,0.5,1.6,1.7,1.1,2.8c-0.5,1.1-1.7,1.6-2.8,1.1c-0.2-0.1-4.2-1.5-10.6,2.7
				c-7.4,4.9-12,24.2-13.1,31.2C915.6,616.4,914.7,617.1,913.7,617.1z"/>
			<path class="st8" d="M931.8,676.8c-0.9,0-1.7-0.5-2-1.4l-18.1-48.2c-0.4-1.1,0.1-2.3,1.2-2.7c1.1-0.4,2.3,0.1,2.7,1.2l18.1,48.2
				c0.4,1.1-0.1,2.3-1.2,2.7C932.3,676.7,932.1,676.8,931.8,676.8z"/>
			<path class="st8" d="M975.8,666c-0.8,0-1.6-0.5-2-1.3l-2.3-5.7c-0.4-1.1,0.1-2.3,1.2-2.7c1.1-0.4,2.3,0.1,2.7,1.2l2.3,5.7
				c0.4,1.1-0.1,2.3-1.2,2.7C976.3,665.9,976.1,666,975.8,666z"/>
		</g>
		<g>
			<path class="st4" d="M666.4,510.7c0,0-3.3-22-1.8-39c1.5-17,9.7-59.9-37.3-57.3c0,0-14.7-9.7-27.7-3.7c-13,6-23.9,22-23.9,22
				s-2,2.8,0,5.6c0,0-8.2,3.5-9.8,12.6c-1.7,9.1,7,18.2,6.7,24.6c0,0,3.8,3.2,5.9-0.3c0,0,2,12.1-5,23.3l12.4,3.7
				c0,0,5.6,20.2,11.2,24.8c5.6,4.5,15.5-2.7,22.4-8.7l6.1,15.8C625.7,534.1,659.7,521.3,666.4,510.7z"/>
			<path class="st4" d="M602.1,567.1l-4.7-3.6c0,0-18.5-20.4-23.4-22c-4.9-1.7-8.9,3.4-8.9,3.4s-5.7-1.3-12.4,5l-28.4-10.6
				c0,0-6.8-2-4.7,5.6c2.1,7.6,27.5,14.9,27.5,14.9s-2.1,7.4-0.6,9.6c1.4,2.3,9.3,4.6,9.3,4.6s-6.1,3.2-8.4,6.7s-5.8,12.8,1.8,9.7
				c7.5-3.2,14.6-8.3,24.6-5.2c10.1,3,12.4,0.9,12.4,0.9l6.5,2.7L602.1,567.1z"/>
			<path class="st4" d="M453.4,554.5l36.5-19.4l48.7,47.3l-9.2,6c0,0,5,13.8,5,32.6l2.6,3.7l-18.4,17.9c0,0-6.8-4.3-13.8-13.4
				c-7-9-18.2-28.3-21.7-31.9c-3.5-3.6-8.7-8.6-9.1-22.1L453.4,554.5z"/>
			<path class="st6" d="M709.3,568.5c-3.9-36.1-25.1-44.2-30.9-45.7l-6.5-14.8c-0.3-0.6-0.8-1.1-1.5-1.4c-0.7-0.2-1.4-0.2-2,0.1
				L618,533.1c-1.3,0.6-9.2,5-4.6,20c-3.6,2.8-12.7,10.6-18.5,22.2c-6.4,12.8-8.5,34.5-10.3,52c-0.7,7.5-1.4,14.1-2.2,18.5
				c-2.7-1.1-7.1-3.1-11.4-6.1l-0.4-0.3c-6.9-4.8-11.5-8.1-18.6-9l-9.9-8.5c-0.6-0.5-1.3-0.7-2.1-0.6c-0.2,0-23.5,4.2-25.1,27.2
				c-0.1,0.8,0.2,1.5,0.8,2l12,11.5l0.1,1.3c0.1,0.6,0.3,1.2,0.8,1.6c0.1,0.1,14.5,13.5,29.3,24.8c4.9,3.8,22.2,16,38.1,16
				c5.3,0,9.8-1.3,13.3-4.2h94.9c1.3,0,2.4-1,2.5-2.3C706.9,698.3,713.5,607.7,709.3,568.5z"/>
			<g>
				<path class="st8" d="M534.4,622.8c-1.2,0-2.1-0.8-2.1-2c-0.2-13.4-3.3-27.9-3.4-28c-0.2-1.1,0.5-2.2,1.6-2.5
					c1.1-0.2,2.3,0.5,2.5,1.6c0.1,0.6,3.3,15,3.5,28.8C536.5,622,535.6,622.8,534.4,622.8C534.4,622.8,534.4,622.8,534.4,622.8z"/>
				<path class="st8" d="M513.9,640.6c-0.5,0-0.9-0.1-1.3-0.5c-7.9-6.2-18.4-21-22.2-27.2c-4-6.6-8.5-13-13-18.5
					c-5-6.2-5.6-17.5-5.6-18c-0.1-1.2,0.9-2.2,2-2.2c1.1,0,2.2,0.9,2.2,2c0,0.1,0.5,10.3,4.7,15.5c4.5,5.6,9.1,12.2,13.3,18.9
					c3.7,6,13.7,20.2,21.2,26.1c0.9,0.7,1.1,2.1,0.4,3C515.1,640.4,514.5,640.6,513.9,640.6z"/>
				<path class="st8" d="M546.4,593.2c-0.2,0-0.4,0-0.6,0c-1.6-0.3-2.9-1.5-3.3-3.3c-0.9-3.4,0.8-8.8,5.9-12.8
					c0.8-0.7,1.7-1.3,2.6-1.9c3-2,4.9-3.5,4.7-5.3c-0.3-3.1-4.4-6.2-11.7-9.2c-14.5-5.8-22.1-9.6-24.5-12.3
					c-2.1-2.3-3.3-6.6-1.7-9.4c0.5-0.9,2.2-2.9,5.8-2.1c5.3,1.2,32.9,12.7,34.1,13.2c1.1,0.5,1.6,1.7,1.1,2.8
					c-0.5,1.1-1.7,1.6-2.8,1.1c-7.9-3.3-29.3-12.1-33.4-13c-0.4-0.1-1.1-0.2-1.2,0.1c-0.4,0.8-0.1,3.1,1.2,4.5
					c1.9,2.1,9.6,5.9,23,11.2c9.2,3.7,13.9,7.8,14.4,12.7c0.5,4.5-3.4,7.1-6.5,9.2c-0.9,0.6-1.7,1.1-2.4,1.7c-3,2.3-4.2,5.2-4.4,7.1
					c-0.1,0.8,0,1.3,0.1,1.5c1.4-0.1,6.1-2.2,9-3.5c3.4-1.5,6.3-2.8,8.1-3.2c4.2-0.8,8.5,0.2,13.2,1.4c4,1.1,9,0.3,9.1,0.3
					c1.2-0.2,2.2,0.6,2.4,1.7c0.2,1.2-0.6,2.2-1.7,2.4c-0.2,0-5.9,0.9-10.8-0.4c-4.2-1.1-8-2-11.3-1.4c-1.4,0.3-4.3,1.6-7.2,2.9
					C552.1,591.7,548.6,593.2,546.4,593.2z"/>
				<path class="st8" d="M552.7,551.9c-0.6,0-1.1-0.2-1.6-0.7c-0.8-0.9-0.7-2.2,0.1-3c1.8-1.7,6.3-5.5,9.3-5.5
					c2.7,0,6.1,0.9,6.3,0.9c1.1,0.3,1.8,1.4,1.5,2.6c-0.3,1.1-1.4,1.8-2.6,1.5c0,0-3.1-0.8-5.2-0.8c-0.9,0-4,2.1-6.4,4.4
					C553.8,551.8,553.3,551.9,552.7,551.9z"/>
				<path class="st8" d="M597.4,565.6c-0.7,0-1.3-0.3-1.7-0.9c-6.4-9.3-19.8-20.6-22.1-21.2c-1.6-0.4-5.2,1.6-7.1,3
					c-0.9,0.7-2.3,0.5-3-0.4c-0.7-0.9-0.5-2.3,0.4-3c1.1-0.8,6.5-4.7,10.6-3.8c4.3,1,18.8,14.5,24.7,22.9c0.7,1,0.4,2.3-0.5,2.9
					C598.2,565.5,597.8,565.6,597.4,565.6z"/>
				<path class="st8" d="M552.7,574.3c-0.2,0-0.4,0-0.6-0.1c-0.5-0.1-4.5-1.4-6.8-3c-3-2.1-1.4-8-0.2-11.4c0.4-1.1,1.6-1.7,2.7-1.3
					c1.1,0.4,1.7,1.6,1.3,2.7c-0.9,2.6-1.5,5.7-1.2,6.6c1.5,1,4.4,2,5.4,2.3c1.1,0.3,1.8,1.5,1.4,2.6
					C554.5,573.7,553.7,574.3,552.7,574.3z"/>
				<path class="st8" d="M583.9,475.7c0.2,1.3,1.5,2.1,2.8,1.9c1.3-0.2,2.1-1.5,1.9-2.8c-0.2-1.3-1.5-2.1-2.8-1.9
					C584.5,473.2,583.7,474.4,583.9,475.7z"/>
				<path class="st8" d="M615.7,468.1C615.7,468.1,615.7,468.1,615.7,468.1c-11.2,0-15.8-8.3-19.4-15.1c-1.5-2.8-2.9-5.3-4.5-6.8
					c-1.7-1.5-3.3-2.3-4.6-2.2c-1.2,0.1-2,0.8-2,0.8c-0.8,0.9-2.1,1-3,0.2c-0.9-0.8-0.9-2.1-0.2-3c0.2-0.2,1.9-2.1,5-2.2
					c2.6-0.1,5.2,1,7.7,3.4c2.1,1.9,3.7,4.9,5.3,7.9c3.4,6.4,7,12.9,15.7,13c1.2,0,2.1,0.8,2.1,2
					C617.8,467.3,616.9,468.1,615.7,468.1z"/>
				<path class="st8" d="M621.5,461.5c-0.2,0-0.5,0-0.7-0.1c-7.8-3-11.4-15-11.5-15.5c-0.3-1.1,0.3-2.3,1.4-2.6
					c1.1-0.3,2.3,0.3,2.6,1.4c0.8,2.9,4.1,10.9,9,12.7c1.1,0.4,1.6,1.6,1.2,2.7C623.1,461,622.3,461.5,621.5,461.5z"/>
				<path class="st8" d="M620.2,494.5c-1,0-1.6-0.2-1.8-0.3c-1.1-0.4-1.7-1.6-1.3-2.7c0.4-1.1,1.6-1.7,2.7-1.3
					c0.2,0.1,2.4,0.5,4-4.1c1.6-4.6,2-11.3,0-15.2c-0.8-1.5-1.9-2.4-3.4-2.8c-1.6-0.4-2.8-0.3-3.7,0.3c-1.5,1.1-1.7,3.6-1.8,3.6
					c-0.1,1.2-1.1,2-2.2,2c-1.2-0.1-2-1.1-2-2.2c0-0.5,0.4-4.5,3.5-6.8c1.9-1.4,4.4-1.7,7.2-1c2.6,0.7,4.7,2.4,6.1,4.9
					c2.8,5.2,2.2,13,0.3,18.5c-1.1,3.2-2.7,5.4-4.9,6.4C622,494.3,621,494.5,620.2,494.5z"/>
				<path class="st8" d="M642.5,508c-0.7,0-1.4-0.3-1.8-1l-8.9-14.1l-6.9-2.5c-1.1-0.4-1.7-1.6-1.3-2.7c0.4-1.1,1.6-1.7,2.7-1.3
					l7.5,2.8c0.4,0.2,0.8,0.5,1.1,0.9l9.3,14.7c0.6,1,0.3,2.3-0.7,2.9C643.3,507.9,642.9,508,642.5,508z"/>
				<path class="st8" d="M572.6,477.7c-0.1,0-0.3,0-0.5,0c-1.1-0.2-1.9-1.4-1.6-2.5c0.4-1.7-0.8-3.9-2.2-6.7
					c-2.4-4.6-5.7-10.9-4-19.6c1.9-10.4,12-12.9,12.5-13c1.1-0.3,2.3,0.4,2.5,1.6c0.3,1.1-0.4,2.3-1.6,2.5c-0.3,0.1-7.8,2-9.3,9.6
					c-1.4,7.3,1.3,12.4,3.6,16.9c1.8,3.4,3.3,6.4,2.6,9.6C574.5,477,573.6,477.7,572.6,477.7z"/>
				<path class="st8" d="M575.8,434.8c-0.4,0-0.8-0.1-1.2-0.4c-1-0.6-1.2-2-0.6-2.9c0.4-0.7,11.1-16.7,23.3-22.2
					c13.7-6.1,25.8-0.8,33.5,4.7c0.9,0.7,1.2,2,0.5,3c-0.7,0.9-2,1.2-3,0.5c-6.8-4.9-17.5-9.6-29.3-4.3c-11.1,5-21.4,20.5-21.5,20.6
					C577.2,434.5,576.5,434.8,575.8,434.8z"/>
				<path class="st8" d="M601.7,530.2c-0.7,0-1.3-0.1-2-0.2c-4.9-0.9-7.5-5.1-9.1-8.2c-2.8-5.5-5.4-14.5-6.4-17.8
					c-7.1-1.7-11.3-3.4-11.5-3.5c-0.6-0.2-1-0.7-1.2-1.3c-0.2-0.6-0.1-1.2,0.2-1.8c0-0.1,4.2-7,5.2-13.9c0.6-3.9-0.8-9.3-2.1-14.5
					c-1-4.1-2-8.1-2.1-11.4c-0.2-8.8,3.5-12.6,3.9-13c0.8-0.8,2.2-0.8,3,0.1c0.8,0.8,0.8,2.2,0,3c-0.2,0.2-2.8,3-2.6,9.9
					c0.1,2.8,1,6.5,2,10.4c1.4,5.6,2.9,11.4,2.2,16.2c-0.8,5.3-3.1,10.4-4.6,13.2c2.1,0.7,5.4,1.7,9.8,2.8c0.8,0.2,1.4,0.8,1.6,1.5
					c0,0.1,3.2,11.9,6.4,18.2c1.9,3.7,3.7,5.5,6.1,6c4,0.7,10.1-2.5,17.6-9.3c0.5-0.5,1.2-0.7,1.9-0.5c0.7,0.2,1.2,0.6,1.5,1.3
					l3.7,8.9c0.4,1.1-0.1,2.3-1.1,2.8c-1.1,0.4-2.3-0.1-2.8-1.1l-2.5-6.2C611.9,527.4,606.4,530.2,601.7,530.2z"/>
				<path class="st8" d="M581.7,465.8c-0.9,0-1.7-0.5-2-1.4c-0.4-1.1,0.2-2.3,1.3-2.7c0.1,0,3.2-1.2,6.4-1c1.2,0,2.1,1,2,2.2
					c0,1.2-1,2.1-2.2,2c-2.3-0.1-4.8,0.8-4.8,0.8C582.2,465.7,582,465.8,581.7,465.8z"/>
				<path class="st8" d="M596.1,520.4c-0.2,0-0.3,0-0.5-0.1c-1.1-0.3-1.9-1.4-1.6-2.5c0.9-4,1-8.5,0.9-11.4
					c-2.8,1.4-4.7,2.7-4.7,2.7c-1,0.6-2.3,0.4-2.9-0.6c-0.6-1-0.4-2.3,0.6-2.9c0.1-0.1,3.6-2.4,8.1-4.4c0.6-0.3,1.3-0.2,1.9,0.1
					c0.6,0.3,1,1,1,1.6c0,0.3,0.7,8.6-0.9,15.8C598,519.7,597.1,520.4,596.1,520.4z"/>
				<path class="st8" d="M666.4,511.9c-1,0-1.9-0.7-2.1-1.7c-4.1-19.3-1.7-41.7-0.6-52.4c1.3-12.7,0.9-25.7-11.3-35.3
					c-11.7-9.2-22.7-6.2-23.2-6c-1.1,0.3-2.3-0.3-2.6-1.4c-0.3-1.1,0.3-2.3,1.4-2.6c0.5-0.2,13.5-3.9,27,6.8
					c13.9,10.9,14.3,25.9,12.9,39.1c-1.1,10.5-3.4,32.4,0.5,51.1c0.2,1.1-0.5,2.3-1.6,2.5C666.7,511.9,666.6,511.9,666.4,511.9z"/>
				<path class="st8" d="M648,506.7c-0.8,0-1.5-0.4-1.9-1.1c-0.5-1-0.1-2.3,0.9-2.9c0.3-0.2,7.2-3.7,17.6-3.4c1.2,0,2.1,1,2,2.2
					c0,1.2-1,2.1-2.2,2c-9.3-0.3-15.4,2.9-15.5,2.9C648.6,506.6,648.3,506.7,648,506.7z"/>
				<path class="st8" d="M615.9,555.5c-0.8,0-1.5-0.4-1.9-1.2c-0.5-1-0.1-2.3,0.9-2.8l52.1-26.4c1-0.5,2.3-0.1,2.8,0.9
					c0.5,1,0.1,2.3-0.9,2.8l-52.1,26.4C616.6,555.4,616.2,555.5,615.9,555.5z"/>
				<path class="st8" d="M608.5,700.7c-0.6,0-1.2-0.3-1.6-0.8c-0.7-0.9-0.6-2.2,0.3-3c12.7-10.5,19.5-45.3,23.2-64l0.4-2.2
					c3.7-18.7,7.2-36.4-1.4-51c-7.9-13.3-19.5-8.4-20-8.2c-1.1,0.5-2.3,0-2.8-1.1c-0.5-1.1,0-2.3,1.1-2.8c0.2-0.1,15.6-6.8,25.4,9.9
					c9.4,16,5.6,35.3,1.9,54l-0.4,2.2c-4,20.6-10.8,55-24.7,66.5C609.4,700.6,609,700.7,608.5,700.7z"/>
				<path class="st8" d="M580.6,662.9c-0.2,0-0.4,0-0.6-0.1c-1.1-0.3-1.8-1.5-1.5-2.6l3.7-13.6c0.3-1.1,1.5-1.8,2.6-1.5
					c1.1,0.3,1.8,1.5,1.5,2.6l-3.7,13.6C582.4,662.3,581.6,662.9,580.6,662.9z"/>
				<path class="st8" d="M529.4,663c-0.1,0-0.2,0-0.3,0c-1.2-0.2-2-1.2-1.8-2.4c2.9-20.1,21.4-26.9,22.2-27.2
					c1.1-0.4,2.3,0.2,2.7,1.3c0.4,1.1-0.2,2.3-1.3,2.7l0,0c-0.7,0.2-16.8,6.3-19.4,23.8C531.3,662.3,530.4,663,529.4,663z"/>
			</g>
		</g>
		<polygon class="st9" points="453.4,554.5 460.5,561.9 497,542 489.9,535.1 		"/>
		<polygon class="st9" points="504.9,592.8 531.7,575.6 538.6,582.4 513.9,600.9 		"/>
		<g>
			<path class="st4" d="M675.7,240.7l35.4,34.4l-3.5,10.5c0,0,4.8,15.3,4.6,31.1l4,5.2c0,0-13.3,4.5-18.4,16.9
				c0,0-11.7-11.1-16.9-18.3c-5.2-7.2-13.5-20.2-17.6-25.6c-4.2-5.5-8.8-13.7-8.2-21.4l-16.3-16.1L675.7,240.7z"/>
			<path class="st4" d="M777.3,265.5l-5.6-3.9c0,0-15.5-18.6-21.5-20.3c0,0-2.8-1-9.4,3.5c0,0-5.6-2-11.2,4.8c0,0-20.1-8.6-24.3-9.1
				c-4.2-0.5-5.8,2.5-2.7,7.5c3,5,22.4,10,22.4,10s-3.2,6.6-1.7,9.2c1.5,2.6,9.5,4.8,9.5,4.8s-5.5,3.1-7.7,6.3
				c-2.2,3.2-2.5,8.8-0.1,9.1c2.4,0.3,13.7-7.5,17.1-7.5s8.5,3,12.7,3.8c4.2,0.8,9.6,1.1,12.6,1.2
				C767.4,284.9,771.6,272.1,777.3,265.5z"/>
			<path class="st4" d="M834.8,226.9c0,0-6.3,6.2-15.6,10.7c-9.4,4.5-17.3,7.4-25.5,13.5c0,0-1.2-16.5-9.2-28.4
				c0,0-8.3,7.2-14.1,7.8c-5.8,0.6-12.8-5.2-21.3-22.6l-9.2-2.3c0,0,3.7-4.8,2.8-14.1c-0.9-9.3-2.8-11-2.8-11s-4.2,0.6-8.2-2.5
				c-4-3.1-12.4-14.4-3.3-28.2l3.3-5.8c0,0,9.3-32.1,41.7-33.3c32.4-1.2,59.2,26.4,54.7,52.1l-0.8,5.4c0,0,11.1-1.1,19.9,10.4
				c8.9,11.5,5.3,26.2,8.1,33c2.9,6.8,12.8,13.3,18.2,18.4c5.4,5.1,3.9,17.7,0,26c0,0-9.2,14.4-17.1,20.2c0,0,2.8-17.8-3.1-27.2
				C847.5,239.7,834.8,226.9,834.8,226.9z"/>
			<polygon class="st9" points="635.2,253.5 641.9,260.2 676.9,241.8 669.9,235 			"/>
			<path class="st9" d="M684.1,289.6l25.5-16.1l6.7,6.5l-25,16.3C691.2,296.3,685.8,293.7,684.1,289.6z"/>
			<path class="st7" d="M766.2,397.2c-18.1-3-41.7-26.7-56.2-39.4c-14.6-12.7-15.1-15.6-6.7-27.8c8.4-12.2,22.6-7.6,22.6-7.6
				l27.7,19.8h6.3c0,0,2.2-16.8,3.7-30.4c1.5-13.7,1.8-22.8,9.3-38.9c7.5-16.1,25.3-24.9,39-31.8c13.7-6.9,23-14.2,23-14.2
				s15.1,12.5,20.3,22.2c5.2,9.7,1.4,23.8,1.4,23.8h3.9c0,0,3.4,3.1,7.7-12c0,0,3.8-3.5,6.9-9.2l1,14c0,0,3.3,31.1-2.5,125h-91.2
				C782.5,390.6,778.7,399.3,766.2,397.2z"/>
			<g>
				<path class="st8" d="M606.3,308.7c-1,0-2-0.7-2.1-1.8c-0.2-1.2,0.6-2.3,1.8-2.5l6.7-1.1c1.2-0.2,2.3,0.6,2.5,1.8
					c0.2,1.2-0.6,2.3-1.8,2.5l-6.7,1.1C606.6,308.7,606.4,308.7,606.3,308.7z"/>
			</g>
			<g>
				<path class="st8" d="M613.7,322.7c-0.7,0-1.3-0.3-1.7-0.9c-0.7-1-0.5-2.3,0.4-3l6-4.5c1-0.7,2.3-0.5,3,0.4c0.7,1,0.5,2.3-0.4,3
					l-6,4.5C614.6,322.6,614.2,322.7,613.7,322.7z"/>
			</g>
			<g>
				<path class="st8" d="M625.1,333.7c-0.4,0-0.7-0.1-1.1-0.3c-1-0.6-1.4-1.9-0.8-3l3.7-6.3c0.6-1,1.9-1.4,3-0.8
					c1,0.6,1.4,1.9,0.8,3l-3.7,6.3C626.6,333.4,625.8,333.7,625.1,333.7z"/>
			</g>
			<path class="st8" d="M754.4,186.4c-0.3-1.2-1.5-1.9-2.6-1.6c-1.2,0.3-1.9,1.5-1.7,2.6c0.3,1.2,1.5,1.9,2.6,1.7
				C753.9,188.8,754.6,187.6,754.4,186.4z"/>
			<path class="st8" d="M769.9,232.7c-3.9,0-7.2-2-10.4-5c-5.1-4.8-10.4-14.8-12-18c-3.3-0.8-8.7-2.2-8.8-2.2
				c-0.7-0.2-1.3-0.7-1.5-1.4c-0.2-0.7-0.1-1.5,0.3-2c3.3-4.3,4-12.6,1.5-19.2c-2.6-7-3-15-3-15.3c-0.1-1.2,0.9-2.2,2.1-2.3
				c1.2-0.1,2.2,0.9,2.3,2.1c0,0.1,0.4,7.6,2.8,14c2.2,5.8,2.8,14.3-0.4,20.7c2.2,0.6,5.1,1.3,6.9,1.7c0.6,0.2,1.2,0.6,1.4,1.2
				c0.1,0.1,6.1,12.5,11.5,17.6c4.1,3.9,9.3,8.7,25.1-8c0.8-0.9,2.2-0.9,3.1-0.1c0.9,0.8,0.9,2.2,0.1,3.1
				C781.7,229.1,775.2,232.7,769.9,232.7z"/>
			<path class="st8" d="M764.2,223.5c-0.1,0-0.1,0-0.2,0c-1.2-0.1-2.1-1.1-2-2.3c0.2-3.2,0-6.9-0.3-9.3c-2.1,1.1-3.7,2.5-3.7,2.5
				c-0.9,0.8-2.3,0.7-3.1-0.3c-0.8-0.9-0.7-2.3,0.2-3.1c0.1-0.1,3.7-3.1,7.7-4.3c0.6-0.2,1.3-0.1,1.8,0.2c0.5,0.3,0.9,0.9,1,1.5
				c0,0.3,1.1,7.3,0.7,13.1C766.3,222.6,765.3,223.5,764.2,223.5z"/>
			<path class="st8" d="M789.5,197.5c-1.2,0-2.2-1-2.2-2.2c0-1.2,1-2.2,2.2-2.2c1.2,0,1.7-0.4,1.9-0.7c0.6-0.7,1.5-2.5,1-7.5
				c-0.7-6.4-1.5-10.6-5.5-11.3c-1.1-0.2-1.9,0-2.6,0.4c-1.3,0.9-1.7,2.8-1.7,2.9c-0.2,1.2-1.3,2-2.5,1.8c-1.2-0.2-2-1.3-1.8-2.5
				c0.1-0.4,0.7-3.7,3.5-5.7c1.6-1.1,3.6-1.5,5.9-1.2c7.5,1.3,8.4,9.3,9,15.1c0.6,5.1-0.1,8.7-2,10.9
				C793.4,196.7,791.6,197.5,789.5,197.5z"/>
			<path class="st8" d="M797.2,237c-0.3,0-0.7-0.1-1-0.2c-1.1-0.6-1.5-1.9-0.9-2.9c2.2-4.3,2.6-13.8-2.4-20.3
				c-1.5-1.9-4-4.1-6.7-6.5c-6.1-5.4-13.6-12.2-15-20c-2.1-11.4,3.3-16.9,3.5-17.1c0.8-0.8,2.2-0.8,3.1,0c0.8,0.8,0.8,2.2,0,3
				c-0.2,0.2-3.9,4.3-2.3,13.3c1.2,6.3,8.1,12.5,13.7,17.5c2.8,2.5,5.5,4.9,7.2,7.1c5.8,7.5,6,18.8,2.9,25
				C798.7,236.6,798,237,797.2,237z"/>
			<path class="st8" d="M780.4,169.3c-0.2,0-0.3,0-0.5-0.1c-11.3-2.8-16.4-12.6-16.6-13c-0.5-1.1-0.1-2.4,1-2.9
				c1.1-0.5,2.4-0.1,2.9,0.9l0,0c0,0.1,4.5,8.5,13.8,10.8c1.2,0.3,1.9,1.5,1.6,2.6C782.3,168.6,781.4,169.3,780.4,169.3z"/>
			<path class="st8" d="M766.4,176.9c-0.8,0-1.6-0.5-2-1.3c-1.4-3.2-3.8-4.8-6.3-6.4c-2.1-1.4-4.2-2.8-5.9-5.1
				c-3.8-5.3-3.2-15.1-3.1-15.5c0.1-1.2,1.1-2.1,2.3-2c1.2,0.1,2.1,1.1,2,2.3c-0.2,2.4-0.1,9.3,2.3,12.7c1.2,1.7,2.9,2.8,4.8,4
				c2.8,1.9,5.9,4,7.9,8.3c0.5,1.1,0,2.4-1.1,2.9C767,176.8,766.7,176.9,766.4,176.9z"/>
			<path class="st8" d="M754.8,176.2c-0.4,0-0.7-0.1-1.1-0.3c-7.9-4.4-13.6-10-16.4-16.1c-2.7-6-0.3-13.2-0.2-13.5
				c0.4-1.1,1.6-1.7,2.8-1.3c1.1,0.4,1.7,1.6,1.3,2.8l0,0c0,0.1-2,5.8,0,10.2c2.4,5.2,7.4,10.1,14.5,14.1c1,0.6,1.4,1.9,0.8,2.9
				C756.3,175.8,755.6,176.2,754.8,176.2z"/>
			<path class="st8" d="M731.7,180.1c-0.5,0-1.1-0.2-1.5-0.6c-15.9-15.1-3.6-30.9-3.5-31.1c0.7-0.9,2.1-1.1,3-0.3
				c0.9,0.7,1.1,2.1,0.3,3c-0.4,0.5-9.9,12.9,3,25.3c0.9,0.8,0.9,2.2,0.1,3.1C732.8,179.9,732.3,180.1,731.7,180.1z"/>
			<path class="st8" d="M804.4,202.9c-4.3,0-7.2-1.1-7.4-1.2c-1.1-0.4-1.6-1.7-1.2-2.8c0.4-1.1,1.7-1.6,2.8-1.2
				c0.3,0.1,8.3,3.1,17.6-2.6c1-0.6,2.4-0.3,3,0.7c0.6,1,0.3,2.4-0.7,3C813.1,202,808.2,202.9,804.4,202.9z"/>
			<g>
				<path class="st9" d="M645.2,193.6c-0.8,0-1.5,0.1-2.1,0.1c-19.7,0-35.8-16-35.8-35.7c0-19.7,16-35.7,35.7-35.7
					c19.7,0,35.7,16,35.7,35.7c0,16.4-11,30.2-26.1,34.4l0,0l-1.3,11.3L645.2,193.6L645.2,193.6z"/>
				<path class="st8" d="M651.2,205.8c-0.7,0-1.5-0.4-1.9-1.1l-5.4-9c-0.3,0-0.6,0-0.9,0c-20.9,0-37.9-17-37.9-37.9
					c0-20.9,17-37.9,37.8-37.9c20.9,0,37.9,17,37.9,37.9c0,16.4-10.7,31.1-26.3,36.1l-1.2,9.9c-0.1,0.9-0.8,1.7-1.7,1.9
					C651.5,205.8,651.4,205.8,651.2,205.8z M645.2,191.4c0.7,0,1.5,0.4,1.9,1.1l2.8,4.6l0.6-5c0.1-0.8,0.6-1.5,1.4-1.8
					c0.1,0,0.2-0.1,0.3-0.1c14.3-4.1,24.3-17.3,24.3-32.3c0-18.5-15-33.5-33.5-33.5c-18.5,0-33.5,15-33.5,33.5
					c0,18.5,15.1,33.5,33.6,33.5c0.6,0,1.3,0,1.9-0.1C645.1,191.4,645.1,191.4,645.2,191.4z"/>
			</g>
			<g>
				<rect x="622.1" y="143.6" class="st4" width="41.2" height="28.9"/>
				<path class="st8" d="M663.3,174.7h-41.2c-1.2,0-2.2-1-2.2-2.2v-28.9c0-1.2,1-2.2,2.2-2.2h41.2c1.2,0,2.1,1,2.1,2.2v28.9
					C665.4,173.7,664.5,174.7,663.3,174.7z M624.2,170.4h36.9v-24.6h-36.9V170.4z"/>
			</g>
			<path class="st8" d="M642.8,163.4c-0.5,0-0.9-0.2-1.3-0.5l-14.7-11.5c-0.9-0.7-1.1-2.1-0.4-3c0.7-0.9,2.1-1.1,3-0.4l13.4,10.5
				l13.4-10.5c0.9-0.7,2.3-0.6,3,0.4c0.7,0.9,0.6,2.3-0.4,3L644.2,163C643.8,163.3,643.3,163.4,642.8,163.4z"/>
			<path class="st8" d="M845.5,291.8c-0.6,0-1.2-0.3-1.7-0.8c-0.8-0.9-0.7-2.3,0.3-3.1c15.9-13.5,13.5-34.2,5.8-43.3
				c-2.5-2.9-5.6-5.8-9-8.9c-7.3-6.7-15.6-14.3-19.7-25c-5.9-15.5-2.9-27.4-2.7-27.9c0.3-1.2,1.5-1.8,2.6-1.5
				c1.2,0.3,1.8,1.5,1.5,2.6c0,0.2-2.8,11.1,2.6,25.2c3.7,9.7,11.6,17,18.5,23.3c3.5,3.2,6.7,6.2,9.4,9.3
				c8.9,10.5,11.7,34.2-6.3,49.4C846.4,291.6,845.9,291.8,845.5,291.8z"/>
			<path class="st8" d="M860.7,275c-0.5,0-0.9-0.1-1.3-0.4c-1-0.7-1.1-2.1-0.4-3c2.1-2.8,8.9-12.8,7.8-25.2
				c-1-10.3-7.2-18.1-20.8-26c-12.9-7.5-15.4-17.5-15.5-18c-0.3-1.2,0.4-2.3,1.6-2.6c1.2-0.3,2.3,0.4,2.6,1.6
				c0,0.1,2.4,8.7,13.5,15.3c10.6,6.2,21.5,14.5,22.9,29.4c1.3,14-6.3,25.2-8.6,28.3C861.9,274.7,861.3,275,860.7,275z"/>
			<path class="st8" d="M875.8,253.8c-0.2,0-0.5,0-0.7-0.1c-1.1-0.4-1.7-1.6-1.4-2.7c0-0.1,3.3-10.1-0.4-16.9
				c-1.5-2.7-4.1-4.7-7.2-7c-4.9-3.6-10.4-7.8-13.4-16.4c-0.7-2-0.8-4.6-1-8c-0.4-7.8-0.9-18.5-9.1-25.8
				c-10.8-9.6-16.8-5.7-17.1-5.6c-1,0.7-2.3,0.5-3-0.5c-0.7-1-0.5-2.3,0.5-3c0.4-0.3,8.9-6.2,22.5,5.8c9.7,8.5,10.2,20.8,10.6,28.9
				c0.1,2.9,0.2,5.4,0.7,6.8c2.5,7.4,7.3,10.9,11.9,14.3c3.3,2.5,6.5,4.8,8.4,8.4c4.6,8.5,0.9,19.9,0.8,20.4
				C877.5,253.3,876.7,253.8,875.8,253.8z"/>
			<path class="st8" d="M828.1,165c-0.1,0-0.1,0-0.2,0c-1.2-0.1-2.1-1.1-2-2.3c1.3-17.2-5.6-30.1-22.5-41.8
				c-14.1-9.7-32.9-10.7-49.1-2.6c-13.6,6.8-20.5,26.3-20.6,26.5c-0.4,1.1-1.6,1.7-2.8,1.3c-1.1-0.4-1.7-1.6-1.3-2.8
				c0.3-0.9,7.6-21.4,22.7-29c17.6-8.8,38.1-7.7,53.5,2.9c18.1,12.5,25.9,27,24.4,45.7C830.2,164.1,829.2,165,828.1,165z"/>
			<path class="st8" d="M818.2,173.3c-0.3,0-0.5,0-0.8-0.1c-6.8-2.6-12.6-8-12.8-8.2c-0.9-0.8-0.9-2.2-0.1-3.1
				c0.8-0.9,2.2-0.9,3.1-0.1l0,0c0.1,0.1,5.4,5,11.4,7.3c1.1,0.4,1.7,1.7,1.3,2.8C819.9,172.7,819.1,173.3,818.2,173.3z"/>
			<path class="st8" d="M810.4,183.6c-2.7,0-4.8-0.7-5-0.7c-1.1-0.4-1.8-1.6-1.4-2.7c0.4-1.1,1.6-1.7,2.7-1.4l0,0
				c1.5,0.5,5.7,1.2,7.9-0.9c0.9-0.8,2.2-0.8,3.1,0.1c0.8,0.9,0.8,2.2-0.1,3.1C815.6,183,812.8,183.6,810.4,183.6z"/>
			<path class="st8" d="M759.9,344.3c-0.1,0-0.2,0-0.3,0c-1.2-0.2-2-1.3-1.8-2.5c0-0.2,3.3-22.3,4.3-38.8
				c1.1-17.4,6.8-31.9,16.8-43.1c10-11.1,27.6-18.9,36.1-22.7l0.1-0.1c7.9-3.5,16.2-9.8,16.3-9.9c1-0.7,2.3-0.5,3,0.4
				c0.7,1,0.5,2.3-0.4,3c-0.4,0.3-8.7,6.6-17.1,10.4l-0.1,0.1c-8.2,3.6-25.3,11.2-34.6,21.7c-9.4,10.4-14.7,24-15.7,40.4
				c-1.1,16.7-4.3,39-4.4,39.2C761.8,343.5,760.9,344.3,759.9,344.3z"/>
			<path class="st8" d="M757.1,361.4c-0.1,0-0.2,0-0.2,0c-1.2-0.1-2.1-1.2-1.9-2.4l0.8-7.2c0.1-1.2,1.2-2.1,2.4-1.9
				c1.2,0.1,2.1,1.2,1.9,2.4l-0.8,7.2C759.2,360.6,758.2,361.4,757.1,361.4z"/>
			<path class="st8" d="M873.6,392.5c0,0-0.1,0-0.1,0c-1.2-0.1-2.1-1.1-2-2.3c0-0.6,3.3-61.3,3.7-82.9c0.4-21.5-1.3-42.6-1.3-42.8
				c-0.1-1.2,0.8-2.2,2-2.3c1.2-0.1,2.2,0.8,2.3,2c0,0.2,1.8,21.5,1.3,43.2c-0.4,21.6-3.7,82.4-3.7,83
				C875.7,391.6,874.8,392.5,873.6,392.5z"/>
			<path class="st8" d="M691.6,298.1c-0.7,0-1.4-0.3-1.8-1c-0.7-1-0.4-2.3,0.6-3l22.3-14.4l-43.2-41.9L638.8,254l34.5,35
				c0.8,0.9,0.8,2.2,0,3.1c-0.9,0.8-2.2,0.8-3.1,0l-36.5-37c-0.5-0.5-0.7-1.2-0.6-1.9c0.1-0.7,0.5-1.3,1.1-1.6l34.7-18.4
				c0.8-0.4,1.9-0.3,2.5,0.4l46.3,44.9c0.5,0.5,0.7,1.1,0.6,1.8c-0.1,0.7-0.4,1.2-1,1.6l-24.6,15.9C692.4,298,692,298.1,691.6,298.1
				z"/>
			<path class="st8" d="M646.1,259.6c-0.8,0-1.5-0.4-1.9-1.2c-0.6-1.1-0.2-2.4,0.9-2.9l26.2-13.8c1.1-0.6,2.4-0.2,2.9,0.9
				c0.6,1.1,0.2,2.4-0.9,2.9l-26.2,13.8C646.8,259.5,646.4,259.6,646.1,259.6z"/>
			<path class="st8" d="M685.8,291c-0.7,0-1.4-0.4-1.8-1c-0.6-1-0.3-2.4,0.7-3l19.5-12.3c1-0.6,2.4-0.3,3,0.7c0.6,1,0.3,2.4-0.7,3
				L687,290.6C686.6,290.9,686.2,291,685.8,291z"/>
			<path class="st8" d="M701.3,315.6c-0.9,0-1.8-0.6-2.1-1.6c-3.2-11.5-7.7-14.8-11.7-17.7c-1.2-0.8-2.2-1.6-3.2-2.6
				c-2.1-2-3.5-5.9-5-10.1c-1.2-3.3-3.4-9.4-5-9.4c-0.9,0-1.1,0.3-1.2,0.3c-0.4,0.4-0.8,1.7-0.5,5c0.4,3.9,2.6,14.8,2.7,15
				c0.2,1.2-0.5,2.3-1.7,2.6c-1.2,0.2-2.3-0.5-2.6-1.7c-0.1-0.5-2.3-11.2-2.7-15.4c-0.3-3-0.4-6.3,1.6-8.4c0.7-0.8,2.1-1.8,4.5-1.7
				c4.6,0.1,6.8,6,9,12.3c1.2,3.3,2.6,7.1,3.9,8.4c0.8,0.8,1.7,1.4,2.8,2.2c4.1,3,9.7,7.1,13.3,20c0.3,1.2-0.4,2.3-1.5,2.7
				C701.7,315.6,701.5,315.6,701.3,315.6z"/>
			<path class="st8" d="M712.2,319.2c-1.2,0-2.1-1.1-2.2-2.3c-0.2-12.7-3.2-26.6-3.2-26.8c-0.3-1.2,0.5-2.4,1.7-2.6
				c1.2-0.3,2.3,0.5,2.6,1.6c0.1,0.6,3.1,14.6,3.3,27.7C714.4,318,713.4,319.2,712.2,319.2C712.2,319.2,712.2,319.2,712.2,319.2z"/>
			<path class="st8" d="M692.7,335.5c-0.5,0-0.9-0.2-1.3-0.5c-7.5-5.9-17.5-20-21.1-25.9c-3.8-6.2-8.1-12.3-12.3-17.5
				c-4.8-6-5.3-16.7-5.4-17.2c-0.1-1.2,0.9-2.2,2.1-2.3c1.2-0.1,2.2,0.9,2.3,2.1c0,0.2,0.5,9.8,4.4,14.6c4.3,5.4,8.7,11.6,12.6,18
				c3.5,5.7,13,19.2,20.1,24.8c0.9,0.7,1.1,2.1,0.4,3C693.9,335.2,693.3,335.5,692.7,335.5z"/>
			<path class="st8" d="M725.2,289.6c-0.2,0-0.4,0-0.6,0c-0.7-0.1-2.6-0.7-3.2-3.3c-0.8-3.4,0.8-9.2,4-11.5c0.6-0.4,1.2-0.8,1.8-1.2
				c3.1-2,5.1-3.5,4.9-5.3c-0.3-2.9-3.8-7-10.9-9.4c-16.9-5.6-19.4-8.4-20.3-9.4c-2-2.2-3.2-6.4-1.6-9.2c0.5-0.9,2.1-2.9,5.7-2.1
				c5,1.1,28.2,10.5,29.2,10.9c1.1,0.5,1.6,1.7,1.2,2.8c-0.5,1.1-1.7,1.6-2.8,1.2c-6.6-2.7-24.6-9.9-28.5-10.7c0,0-0.9-0.2-1,0
				c-0.4,0.7-0.1,2.8,1.1,4.1c0.8,0.9,4.2,3.4,18.4,8.2c7.9,2.6,13.3,7.7,13.9,13c0.5,4.6-3.6,7.3-6.9,9.4c-0.6,0.4-1.2,0.8-1.7,1.2
				c-1.8,1.3-2.7,5.5-2.3,6.9c1.3-0.3,4.6-2.2,6.6-3.3c3.1-1.8,5.8-3.3,7.8-3.7c3-0.6,5.9,0.5,8.7,1.6c1.3,0.5,2.6,1,3.9,1.3
				c3.7,1,6.8,0.3,6.8,0.3c1.2-0.3,2.3,0.5,2.6,1.6c0.3,1.2-0.4,2.3-1.6,2.6c-0.2,0-4.1,1-8.9-0.3c-1.5-0.4-3-1-4.4-1.5
				c-2.5-0.9-4.6-1.8-6.3-1.4c-1.3,0.2-4,1.8-6.4,3.2C730.1,288.1,727.3,289.6,725.2,289.6z"/>
			<path class="st8" d="M729.6,251.2c-0.6,0-1.2-0.2-1.6-0.7c-0.8-0.9-0.8-2.2,0.1-3.1c1.7-1.6,6-5.3,8.9-5.3c2.6,0,5.9,0.8,6,0.9
				c1.2,0.3,1.9,1.5,1.6,2.6c-0.3,1.2-1.5,1.9-2.6,1.6c0,0-2.9-0.7-4.9-0.7c-0.9,0.1-3.7,2-6,4.1
				C730.7,251.1,730.1,251.2,729.6,251.2z"/>
			<path class="st8" d="M772,264.2c-0.7,0-1.4-0.3-1.8-0.9c-6-8.7-18.7-19.4-20.9-20c-1.4-0.3-4.7,1.5-6.6,2.9c-1,0.7-2.3,0.5-3-0.4
				c-0.7-1-0.5-2.3,0.4-3c1-0.8,6.3-4.5,10.2-3.6c4.2,1,17.9,13.6,23.5,21.8c0.7,1,0.4,2.3-0.6,3C772.9,264.1,772.5,264.2,772,264.2
				z"/>
			<path class="st8" d="M729.6,272.5c-0.2,0-0.4,0-0.6-0.1c-0.4-0.1-4.3-1.3-6.5-2.9c-2.9-2-1.4-7.8-0.2-11c0.4-1.1,1.7-1.7,2.8-1.3
				c1.1,0.4,1.7,1.7,1.3,2.8c-0.9,2.4-1.4,5.2-1.2,6.1c1.5,0.9,4.1,1.8,5.1,2.1c1.1,0.3,1.8,1.6,1.4,2.7
				C731.4,271.8,730.5,272.5,729.6,272.5z"/>
			<path class="st8" d="M769.4,399.2c-13.9,0-29.1-12.7-36.5-18.9c-12.4-10.3-28.7-24.5-34.6-30.3c-2.3-2.3-3.5-5.3-3.3-8.6
				c0.3-5.4,4.5-11.8,11.1-16.9c9.4-7.3,19.9-4.3,20.3-4.2c0.2,0.1,0.4,0.2,0.6,0.3l27.5,19.7c1,0.7,1.2,2.1,0.5,3
				c-0.7,1-2.1,1.2-3,0.5l-27.2-19.5c-1.7-0.4-9.3-1.8-16.1,3.5c-5.5,4.3-9.1,9.6-9.4,13.7c-0.1,2.1,0.5,3.8,2,5.2
				c5.6,5.6,21.8,19.7,34.3,30.1c13.7,11.4,30.9,23.4,42.5,15.1c13.4-9.5,23.6-51.4,28.2-84.5c3.6-25.7-7.2-34.8-10.7-37
				c-4.2-2.7-8.8-3-12-0.9c-1,0.6-2.3,0.4-3-0.7c-0.6-1-0.4-2.3,0.7-3c4.7-3,11.1-2.6,16.7,0.9c10.6,6.8,15.3,22.2,12.6,41.3
				c-5,35.5-15.5,77.1-30,87.4C777.2,398.2,773.4,399.2,769.4,399.2z"/>
			<path class="st8" d="M793.1,250.5c-1.1,0-2.1-0.9-2.2-2.1c-0.7-13.3-7.7-24.4-7.8-24.5c-0.6-1-0.4-2.3,0.6-3c1-0.6,2.3-0.4,3,0.6
				c0.3,0.5,7.8,12.1,8.5,26.6c0.1,1.2-0.9,2.2-2.1,2.3C793.2,250.5,793.1,250.5,793.1,250.5z"/>
		</g>
		<path class="st8" d="M512.7,601.2c-0.7,0-1.4-0.3-1.8-1c-0.6-1-0.4-2.3,0.6-2.9l23.6-15.3l-45.7-44.4L456.9,555l36.4,36.9
			c0.8,0.8,0.8,2.2,0,3c-0.8,0.8-2.2,0.8-3,0l-38.4-39c-0.5-0.5-0.7-1.1-0.6-1.8c0.1-0.7,0.5-1.2,1.1-1.5l36.5-19.4
			c0.8-0.4,1.8-0.3,2.5,0.4l48.7,47.3c0.5,0.4,0.7,1.1,0.6,1.7s-0.4,1.2-1,1.6l-25.9,16.7C513.5,601.1,513.1,601.2,512.7,601.2z"/>
		<path class="st8" d="M464.8,560.7c-0.8,0-1.5-0.4-1.9-1.1c-0.5-1-0.1-2.3,0.9-2.9l27.6-14.5c1-0.5,2.3-0.1,2.9,0.9
			c0.5,1,0.1,2.3-0.9,2.9l-27.6,14.5C465.5,560.7,465.2,560.7,464.8,560.7z"/>
		<path class="st8" d="M506.7,593.7c-0.7,0-1.4-0.3-1.8-1c-0.6-1-0.3-2.3,0.7-2.9l20.5-12.9c1-0.6,2.3-0.3,2.9,0.7
			c0.6,1,0.3,2.3-0.7,2.9l-20.5,12.9C507.4,593.6,507.1,593.7,506.7,593.7z"/>
		<path class="st8" d="M523,619.7c-0.9,0-1.8-0.6-2-1.5c-3.4-12.1-8.1-15.6-12.3-18.7c-1.2-0.9-2.4-1.7-3.4-2.7
			c-2.2-2.1-3.7-6.2-5.2-10.5c-1.4-3.7-3.6-10-5.4-10.1c-1-0.1-1.3,0.3-1.4,0.4c-0.6,0.7-0.8,2.5-0.5,5.4c0.4,4.1,2.8,15.6,2.8,15.8
			c0.2,1.1-0.5,2.3-1.6,2.5c-1.1,0.2-2.3-0.5-2.5-1.6c-0.1-0.5-2.4-11.8-2.9-16.2c-0.3-3.1-0.4-6.6,1.6-8.7c1.1-1.2,2.7-1.8,4.6-1.8
			c4.8,0.1,7,6.3,9.4,12.8c1.3,3.5,2.7,7.5,4.2,8.9c0.8,0.8,1.8,1.5,3,2.4c4.3,3.1,10.1,7.4,13.9,21c0.3,1.1-0.3,2.3-1.5,2.6
			C523.4,619.6,523.2,619.7,523,619.7z"/>
		<g>
			<path class="st9" d="M484.6,498.7c-0.8,0-1.5,0.1-2.1,0.1c-19.7,0-35.8-16-35.8-35.7c0-19.7,16-35.7,35.7-35.7
				c19.7,0,35.7,16,35.7,35.7c0,16.4-11,30.2-26.1,34.4l0,0l-1.3,11.3L484.6,498.7L484.6,498.7z"/>
			<path class="st8" d="M490.6,510.9c-0.7,0-1.5-0.4-1.9-1.1l-5.4-9c-0.3,0-0.6,0-0.9,0c-20.9,0-37.9-17-37.9-37.9
				c0-20.9,17-37.9,37.8-37.9c20.9,0,37.9,17,37.9,37.9c0,16.4-10.7,31.1-26.3,36.1l-1.2,9.9c-0.1,0.9-0.8,1.7-1.7,1.9
				C490.9,510.9,490.8,510.9,490.6,510.9z M484.6,496.6c0.7,0,1.5,0.4,1.9,1.1l2.8,4.6l0.6-5c0.1-0.8,0.6-1.5,1.4-1.8
				c0.1,0,0.2-0.1,0.3-0.1c14.3-4.1,24.3-17.3,24.3-32.3c0-18.5-15-33.5-33.5-33.5c-18.5,0-33.5,15-33.5,33.5
				c0,18.5,15.1,33.5,33.6,33.5c0.6,0,1.3,0,1.9-0.1C484.5,496.6,484.5,496.6,484.6,496.6z"/>
		</g>
		<g>
			<rect x="461.5" y="448.7" class="st4" width="41.2" height="28.9"/>
			<path class="st8" d="M502.6,479.8h-41.2c-1.2,0-2.2-1-2.2-2.2v-28.9c0-1.2,1-2.2,2.2-2.2h41.2c1.2,0,2.1,1,2.1,2.2v28.9
				C504.8,478.8,503.8,479.8,502.6,479.8z M463.6,475.5h36.9V451h-36.9V475.5z"/>
		</g>
		<path class="st8" d="M482.2,468.6c-0.5,0-0.9-0.2-1.3-0.5l-14.7-11.5c-0.9-0.7-1.1-2.1-0.4-3c0.7-0.9,2.1-1.1,3-0.4l13.4,10.5
			l13.4-10.5c0.9-0.7,2.3-0.6,3,0.4c0.7,0.9,0.6,2.3-0.4,3l-14.7,11.5C483.2,468.4,482.7,468.6,482.2,468.6z"/>
		<polygon class="st9" points="1138.5,571.9 1123.9,624.3 1068,621 1056,616 1046.5,612.6 1039.4,619.1 1019.4,616.8 1034.7,564.2 
					"/>
		<path class="st8" d="M1123.8,626.8c0,0-0.1,0-0.1,0l-53.7-3.6c-1.2-0.1-2-1.1-2-2.3c0.1-1.2,1.1-2,2.3-2l52,3.5l13.6-49.8
			l-99.5-6.7l-12.7,46.6c-0.3,1.1-1.5,1.8-2.6,1.5c-1.1-0.3-1.8-1.5-1.5-2.6l13.2-48.3c0.3-1,1.2-1.6,2.2-1.6l103.8,7
			c0.6,0,1.2,0.4,1.6,0.9c0.4,0.5,0.5,1.2,0.3,1.8l-14.7,53.9C1125.6,626.2,1124.8,626.8,1123.8,626.8z"/>
		<path class="st8" d="M1001.2,653.5c-0.8,0-1.5-0.4-1.9-1.2c-0.5-1-0.1-2.3,1-2.8l20.6-10.2c5.4-5.7,9.5-11.1,13.2-15.8
			c3-3.9,5.6-7.2,8.1-9.7c2.1-2.1,4.3-3,6.5-2.7c2.3,0.3,4,1.7,5,2.8c1.8-0.4,3.2-0.1,4.1,0.4c1.5,0.7,2.5,1.9,3.1,3
			c2-0.5,3.8-0.3,5.4,0.6c1.6,1,2.6,2.5,3.1,3.8c1.8-0.4,3.6-0.3,5.3,0.3c6,2.2,9.6,10.3,11.7,15.1c0.4,0.9,0.7,1.6,1,2.1
			c1.3,2.6,1,5.3-1,7c-1.7,1.4-4.7,1.9-7.7-0.4c-3.9-2.9-8.3-7.6-8.5-7.8c-0.8-0.8-0.8-2.2,0.1-3c0.8-0.8,2.2-0.8,3,0.1
			c0,0,4.4,4.6,8,7.4c1.1,0.8,2,0.8,2.4,0.5c0.4-0.3,0.4-1-0.1-1.8c-0.3-0.6-0.7-1.4-1.1-2.4c-1.7-3.9-4.9-11.2-9.3-12.8
			c-1.4-0.5-2.8-0.4-4.4,0.4c-0.6,0.3-1.3,0.3-2,0c-0.6-0.3-1-0.9-1.1-1.6c-0.1-0.6-0.6-2.5-1.7-3.2c-0.8-0.5-2-0.4-3.5,0.3
			c-0.6,0.2-1.2,0.2-1.7,0c-0.5-0.3-1-0.7-1.1-1.3c-0.1-0.5-0.8-1.9-1.8-2.3c-0.2-0.1-0.9-0.4-2.2,0.2c-1,0.4-2.1,0.1-2.7-0.8
			c-0.3-0.6-1.6-2-3-2.2c-0.9-0.1-1.9,0.4-3,1.5c-2.3,2.3-4.8,5.6-7.7,9.3c-3.6,4.6-8.1,10.4-13.7,16.4c-0.2,0.2-0.4,0.3-0.6,0.4
			l-20.9,10.4C1001.9,653.4,1001.5,653.5,1001.2,653.5z"/>
		<path class="st8" d="M1028.7,628.3c-5.9,0-15.7-2-31.5-6.4c-1.1-0.3-1.8-1.5-1.5-2.6c0.3-1.1,1.5-1.8,2.6-1.5
			c12.7,3.5,28,7.4,33.3,5.9c1.7-0.5,2.6-1.8,3-2.9c-15.7-1.5-29-7.1-34.9-9.5l-0.4-0.2c-4.8-2-9.1-2.2-12.6-0.6
			c-2.9,1.3-16.7,10.4-21.8,13.8c-1,0.6-2.3,0.4-2.9-0.6c-0.6-1-0.4-2.3,0.6-2.9c1.9-1.3,18.7-12.5,22.5-14.2
			c4.7-2.1,10.1-1.9,16,0.6l0.4,0.2c6,2.5,20,8.3,36,9.4c1.2,0.1,2,1.1,2,2.2c0,0.3-0.5,7.1-6.6,8.8
			C1031.7,628.2,1030.4,628.3,1028.7,628.3z"/>
		<polygon class="st4" points="1099.1,583.9 1093.9,606.5 1058.5,603 1064.4,581.1 		"/>
		<path class="st8" d="M1093.5,608.1c0,0-0.1,0-0.1,0l-35.4-2.4c-0.6,0-1.2-0.4-1.6-0.9c-0.4-0.5-0.5-1.2-0.3-1.8l5.8-22.5
			c0.3-1,1.2-1.7,2.2-1.6l35.4,2.4c0.6,0,1.2,0.4,1.6,0.9c0.4,0.5,0.5,1.2,0.3,1.8l-5.8,22.5
			C1095.3,607.4,1094.5,608.1,1093.5,608.1z M1060.8,601.6l31.2,2.1l4.7-18.3l-31.2-2.1L1060.8,601.6z"/>
		<path class="st8" d="M1078.7,595.6c-0.5,0-1-0.2-1.4-0.5l-14.8-12.5c-0.9-0.8-1-2.1-0.3-3c0.8-0.9,2.1-1,3-0.3L1079,591l19.4-9.4
			c1.1-0.5,2.3-0.1,2.8,1c0.5,1,0.1,2.3-1,2.8l-20.6,10.1C1079.3,595.6,1079,595.6,1078.7,595.6z"/>
	</g>
</g>
</svg>
