<?xml version="1.0" encoding="utf-8"?>
<!-- Generator: Adobe Illustrator 28.0.0, SVG Export Plug-In . SVG Version: 6.00 Build 0)  -->
<svg version="1.1" id="レイヤー_1" xmlns="http://www.w3.org/2000/svg" xmlns:xlink="http://www.w3.org/1999/xlink" x="0px"
	 y="0px" viewBox="0 0 1200 793.9" style="enable-background:new 0 0 1200 793.9;" xml:space="preserve">
<style type="text/css">
	.st0{fill:none;}
	.st1{fill:#FBFBFB;}
	.st2{fill:#F3A11A;}
	.st3{fill:#F29600;}
	.st4{fill:#FCEACC;}
	.st5{fill:#FFFFFF;}
	.st6{fill:#80DEF0;}
	.st7{fill:#F8CA7F;}
	.st8{fill:#4D4D4D;}
	.st9{fill:#FFE964;}
	.st10{fill:#FFFF00;}
	
		.st11{fill:none;stroke:url(#新規パターンスウォッチ_1);stroke-width:6.8925;stroke-linecap:round;stroke-linejoin:round;}
	.st12{fill:#DADBDB;}
	.st13{fill:#251E1C;}
	.st14{fill:#66D7ED;}
	.st15{fill:#727171;}
	.st16{fill:#FEF4E5;}
	.st17{fill:#CCCCCC;}
	.st18{fill:none;stroke:#808080;stroke-width:1.5318;stroke-miterlimit:10;}
	.st19{fill:#E85151;}
	.st20{fill:#FFD759;}
	.st21{fill:#4BD961;}
	.st22{fill:none;stroke:#E6E6E6;stroke-width:1.8093;stroke-miterlimit:10;}
	.st23{fill:#999999;}
	.st24{fill:none;stroke:#CED4DA;stroke-width:1.8093;stroke-miterlimit:10;}
	.st25{fill:#59C2E1;}
	.st26{fill:#796A56;}
	.st27{fill:#9CDBED;}
	.st28{fill:none;stroke:#F29600;stroke-width:1.8093;stroke-miterlimit:10;}
	.st29{fill:none;stroke:#797979;stroke-width:1.7231;stroke-miterlimit:10;}
	.st30{fill:#F2F2F2;}
	.st31{fill:#EAECEF;}
</style>
<pattern  x="1397.5" y="6693.5" width="37.2" height="26.2" patternUnits="userSpaceOnUse" id="新規パターンスウォッチ_1" viewBox="0 -26.2 37.2 26.2" style="overflow:visible;">
	<g>
		<rect x="0" y="-26.2" class="st0" width="37.2" height="26.2"/>
		<rect x="0" y="-26.2" class="st1" width="37.2" height="26.2"/>
	</g>
</pattern>
<rect class="st1" width="1200" height="793.9"/>
<g>
	<rect x="504.3" y="224.4" class="st10" width="564.2" height="49.8"/>
	<g>
		<g>
			<path class="st3" d="M682.2,242l39.1-50.5c1.5-2,2.5-3.9,3.1-5.7c0.4-1.7,0.5-3.2,0.5-4.7c0-3.9-1.2-7.3-3.5-10.1
				c-2.4-2.9-5.9-4.4-10.3-4.5c-3.9,0-7.2,1.3-9.8,3.9c-2.7,2.6-4.3,6.3-4.8,11h-14.3c0.4-8.6,3.2-15.7,8.4-21.3
				c5.3-5.5,11.7-8.2,19.4-8.3c8.6,0.1,15.6,2.9,20.9,8.5c5.4,5.5,8.2,12.5,8.3,21c0,6.8-2,12.9-6,18.1L701,241.2h38.2v14.7h-57.1
				V242z"/>
			<path class="st3" d="M751.9,241.2h14.3v14.7l-14.3,10.8V241.2z"/>
			<path class="st3" d="M781.4,255.9c0,0,0.4-0.9,1.2-2.6c0.8-1.7,2-4,3.3-6.7c1.4-2.7,2.9-5.8,4.6-9.1c1.7-3.4,3.4-6.7,5-9.9
				c1.7-3.3,3.2-6.3,4.6-9c1.4-2.7,2.6-4.9,3.5-6.4c-1.4,0.8-2.9,1.3-4.6,1.5c-1.7,0.2-3.7,0.2-6,0.1c-3.1-0.1-5.8-0.7-8.2-1.7
				c-2.3-1-4.4-2.3-6.1-3.9s-3.1-3.3-4.2-5.2c-1.1-1.9-2-3.8-2.7-5.6c-0.7-1.8-1.2-3.5-1.5-5.1c-0.3-1.6-0.5-2.8-0.5-3.7
				c0-0.3,0-0.8,0-1.6c0-0.8,0-1.6,0-2.5c0-0.9,0-1.9,0-2.8c0-0.9,0.1-1.7,0.2-2.4c0-0.3,0.2-1.2,0.5-2.5c0.3-1.3,0.7-3,1.5-4.8
				c0.7-1.9,1.7-3.9,3-6.1c1.3-2.1,2.9-4.2,5-6.1c2.1-1.9,4.6-3.5,7.6-4.9c3-1.4,6.5-2.2,10.7-2.6c4.3-0.4,8.1-0.1,11.4,0.8
				c3.3,0.9,6.1,2.2,8.5,3.9c2.4,1.7,4.3,3.7,5.9,5.9c1.6,2.3,2.8,4.6,3.6,6.9s1.5,4.6,1.7,6.8c0.3,2.2,0.3,4.1,0.1,5.6
				c-0.3,2.3-0.6,4.4-0.9,6.2c-0.3,1.8-0.7,3.6-1.2,5.2c-0.4,1.7-1,3.3-1.5,4.9c-0.6,1.6-1.2,3.4-2,5.2c-0.2,0.5-0.7,1.7-1.5,3.4
				c-0.8,1.7-1.9,3.9-3.1,6.4c-1.3,2.5-2.6,5.3-4.1,8.4c-1.5,3.1-3,6.2-4.6,9.3c-3.6,7.4-7.7,15.6-12.2,24.6H781.4z M784.6,181.2
				c0,1.8,0.1,3.9,0.3,6.1c0.2,2.2,0.7,4.3,1.7,6.3c0.9,2,2.4,3.6,4.4,5c2,1.4,4.8,2.2,8.4,2.4c1.8,0.1,3.4-0.1,4.9-0.7
				c1.5-0.5,2.8-1.3,3.9-2.2c1.1-0.9,2.1-1.9,2.9-3c0.8-1.1,1.5-2.3,2.1-3.4c0.5-1.1,0.9-2.1,1.2-3.1c0.2-0.9,0.4-1.7,0.4-2.3
				c0-1.2-0.1-2.5-0.1-4c0-1.5-0.2-2.9-0.4-4.5c-0.3-1.5-0.7-3-1.3-4.4c-0.6-1.4-1.5-2.6-2.6-3.6c-1.1-1-2.6-1.9-4.4-2.4
				c-1.8-0.6-4-0.8-6.6-0.7c-2.9,0.1-5.3,0.9-7.2,2.2c-1.9,1.3-3.3,2.8-4.4,4.4c-1.1,1.6-1.8,3.2-2.3,4.7
				C784.8,179.5,784.6,180.6,784.6,181.2z"/>
			<path class="st3" d="M842.4,225.8c0.1-10,4.2-17.7,12.2-23.2c-3.1-2.7-5.5-5.8-7.2-9.3c-2-3.3-3-7.1-3-11.6
				c0.1-8.6,2.9-15.7,8.4-21.3c5.2-5.6,11.9-8.4,20.2-8.5c8.4,0.1,15.2,2.9,20.5,8.5c5.4,5.6,8.1,12.7,8.2,21.3
				c0,4.5-0.9,8.4-2.8,11.6c-1.9,3.5-4.4,6.6-7.5,9.3c8,5.5,12.1,13.3,12.2,23.2c-0.1,9.3-3.1,16.7-8.9,22.3
				c-5.9,5.7-13.2,8.6-21.7,8.7c-8.5-0.1-15.7-3-21.4-8.7C845.6,242.5,842.5,235.1,842.4,225.8z M856.7,225.6
				c0.1,4.7,1.8,8.6,5,11.6c3.1,3.2,6.9,4.8,11.3,4.8c4.6,0,8.4-1.6,11.5-4.8c3.1-3,4.7-6.9,4.8-11.6c-0.1-4.8-1.7-8.8-4.8-11.8
				c-3.1-3-6.9-4.5-11.5-4.6c-4.4,0.1-8.2,1.6-11.3,4.6C858.5,216.9,856.8,220.8,856.7,225.6z M858.6,181.4c0.1,4.8,1.6,8.4,4.5,11
				c2.8,2.6,6.1,3.9,9.9,3.9c3.9,0,7.2-1.3,10.1-3.9c2.8-2.5,4.3-6.2,4.3-11c-0.1-4.9-1.5-8.7-4.3-11.2c-2.9-2.4-6.2-3.6-10.1-3.6
				c-3.7,0-7,1.2-9.9,3.6C860.2,172.7,858.7,176.4,858.6,181.4z"/>
			<path class="st3" d="M917.9,181.5c0.1-9.5,3-16.8,8.9-22c5.4-5.1,11.9-7.6,19.5-7.6c7.8,0,14.4,2.5,19.8,7.6
				c5.5,5.1,8.4,12.5,8.6,22V227c-0.2,9.5-3,16.8-8.6,21.9c-5.4,5.1-12.1,7.7-19.8,7.8c-7.6-0.1-14.1-2.7-19.5-7.8
				c-5.8-5.1-8.8-12.4-8.9-21.9V181.5z M960.3,182.4c-0.3-10.4-5-15.6-14.1-15.8c-9.2,0.2-13.9,5.5-14.1,15.8v43.8
				c0.2,10.5,4.9,15.7,14.1,15.8c9.1-0.1,13.9-5.4,14.1-15.8V182.4z"/>
		</g>
		<g>
			<path class="st3" d="M1007.8,226.2v29h-12v-67.4h64.1v57.1c0,7.2-4.4,10.2-14.9,10.2c-1.4,0-2.1-0.2-3.2-0.3
				c-0.7-7.3-2.7-10.7-3.7-12.6c1.7,0.5,4,1.1,7.2,1.1c3,0,3-0.8,3-3.4v-13.6H1007.8z M1022,198.8h-14.2v16.5h14.2V198.8z
				 M1033.6,215.3h14.5v-16.5h-14.5V215.3z"/>
		</g>
		<g>
			<path class="st3" d="M536.1,230.3c-2.8,15.4-10.8,21.9-15,25.1c-1.8-2.4-6.2-6.3-9.5-8c13.9-9.3,13.8-23.8,13.8-31.4v-28.9h47.7
				v56.4c0,8.2-2,11.5-17.1,10.9c-0.2-3.6-2.1-9.8-3.8-12.5c1.2,0.2,4.4,0.8,6.2,0.8c2.6,0,2.7-1.6,2.7-4.3v-8.2H536.1z
				 M561.1,203.3v-5.4H537v5.4H561.1z M561.1,219.3v-5.5H537v5.5H561.1z"/>
			<path class="st3" d="M623.9,208.3c-2.7,4.6-4.7,7.8-8.1,11.7c6.5,3.5,9.5,4.5,11.7,5.3v-25.9h6.5c1-1.9,1.4-2.8,2.1-4.4h-9v-8.3
				h33.2v8.3h-13.1c-0.8,1.8-1.6,3.4-2.1,4.4h13.5V240h-7c4,3.7,7.1,5.6,11.7,7.8c-2.8,2.4-5.1,4.8-7.5,7.7c-1.9-1.1-8.6-5-14-11.3
				l4.2-4.3H637l3.2,2.8c0.8,0.7,1.3,1.1,1.3,1.7c0,0.5-0.6,0.8-1.2,0.8h-0.7c-2.7,3.1-7.8,7.5-12.9,10.6c-1.8-2.7-3-4.4-5-6.2v4.4
				h-8.5v-3h-6.6v3.9h-9.3v-20c-0.4,0.2-1,0.5-1.4,0.8c-3-4-3.7-4.8-6.9-7.5c5.6-1.8,9.7-4.3,13.3-7c-1.5-1.2-2.4-2-3.1-2.6
				c-0.8,0.7-1.2,1.1-2.6,2.3c-1.7-2.1-5.9-5.1-7.5-6.1c2.7-1.9,6.6-4.8,10-9.6h-7.5v-14.5h12.6v-5.9l11.6,0.8c0.5,0,1.4,0.1,1.4,1
				c0,0.9-1.1,1.4-2.1,1.9v2.3h11.2v14.5h-5.7L623.9,208.3z M617.9,204.1v-5.6h-18.1v5.3c1.3-2.1,2-3.6,2.4-4.8l9.5,2.4
				c0.6,0.2,1.1,0.5,1.1,1.1c0,0.8-0.9,0.9-2.4,1.1c-0.2,0.2-0.2,0.4-0.3,0.5H617.9z M605.6,211.3c-0.2,0.3-0.6,0.8-0.9,1.2
				c0.8,0.7,1.8,1.4,3.7,2.7c1.2-1.4,1.8-2.4,2.9-4H605.6z M615.4,229.5c-2.6-1.3-4.2-2.1-5.8-3.1c-1.3,1.1-2.4,2-3.8,3.1H615.4z
				 M613.3,243.2v-5.9h-6.6v5.9H613.3z M627.6,225.9c-0.8,0.9-3.4,6.2-4,7.2c-0.6-0.2-1.2-0.5-1.8-0.7v14.7c3.4-2,7.2-5,9.4-7.2
				h-3.6V225.9z M649.2,210.6v-3H637v3H649.2z M637,217.3v3.4h12.2v-3.4H637z M637,227.5v3.4h12.2v-3.4H637z"/>
		</g>
		<g>
			<path class="st3" d="M1005.1,155.2c-1.1,1.1-3.9,3.8-3.9,8.8c0,5,2.7,7.7,3.9,8.8l-1.3,1.2c-1-0.9-4.4-4.1-4.4-10.1
				c0-5.9,3.4-9.2,4.4-10.1L1005.1,155.2z"/>
			<path class="st3" d="M1013,173.6h-1.9v-8.4c-0.6,2-1.1,3.2-2,5c-0.4-0.4-0.7-0.7-1.8-1.4c2.1-2.9,3.2-5.7,3.6-7.2h-3v-1.8h3.2
				v-2.6c-1.3,0.4-2,0.5-2.6,0.6c-0.3-0.7-0.6-1.1-1.1-1.7c2-0.2,5-1,6.9-2.1l1.2,1.5c0.1,0.2,0.2,0.3,0.2,0.4
				c0,0.1-0.2,0.2-0.3,0.2c-0.2,0-0.4-0.1-0.5-0.2c-1,0.4-1.4,0.5-1.9,0.7v3.2h2.4v1.8h-2.4v0.4c0.8,1.6,1.4,2.5,2.6,3.8
				c-0.2,0.2-1,0.8-1.5,1.4c-0.1-0.4-0.9-1.9-1.1-2.2V173.6z M1020,166.3c0.2,0.1,0.4,0.1,0.4,0.3c0,0.2-0.3,0.3-0.5,0.3
				c-0.3,1.8-0.9,4.8-4.6,7c-0.4-0.7-1.1-1.3-1.6-1.7c1.3-0.5,4.1-2,4.2-6.4L1020,166.3z M1021.3,158.9c1.5-2,2.2-3.8,2.5-4.6
				l2.1,0.8c0.2,0.1,0.4,0.1,0.4,0.3c0,0.3-0.3,0.3-0.6,0.2c-0.7,1.5-1.1,2.2-1.9,3.3h2.5v6.9h-2.6v4.7c0,0.7,0,0.8,0.9,0.8
				c0.7,0,1.1,0,1.3-2.2c0.4,0.3,1,0.8,1.8,1.1c-0.4,3.1-1.6,3.1-2.3,3.1h-1.8c-1.7,0-1.9-1.1-1.9-2.1v-5.4h-5.4v-6.9h2.3
				c-0.4-0.9-1.3-2.6-2.2-3.6l1.8-0.9c1,1.2,2.1,3.2,2.3,3.6c-1,0.4-1.4,0.6-1.9,0.9H1021.3z M1018.2,160.7v3.2h6v-3.2H1018.2z"/>
			<path class="st3" d="M1036.4,157.7v2h-2.1v3.4c1.2-0.4,1.9-0.7,2.5-0.9c0,0.2-0.1,0.7-0.1,1.3c0,0.3,0,0.4,0,0.6
				c-0.6,0.2-1.3,0.5-2.4,0.9v6.3c0,1.8-1,2.3-3.9,2.2c-0.1-0.7-0.4-1.6-0.7-2.2c0.3,0.1,0.7,0.1,1.2,0.1c1.2,0,1.2-0.4,1.2-0.9
				v-4.8c-0.3,0.1-1.8,0.6-2.1,0.7c-0.1,0.3-0.1,0.6-0.4,0.6c-0.2,0-0.3-0.2-0.3-0.4l-0.3-2.1c0.5-0.1,1.2-0.3,3.1-0.8v-4h-2.7v-2
				h2.7v-3.4l2.2,0.1c0.2,0,0.5,0,0.5,0.3c0,0.2-0.2,0.3-0.6,0.4v2.6H1036.4z M1037.1,159.4v-2h2.2c0-0.5,0.1-2.7,0.1-3.1l2.3,0.1
				c0.2,0,0.5,0,0.5,0.2c0,0.2-0.2,0.3-0.5,0.4c0,0.6,0,1.3-0.1,2.4h7.1v2h-7.2c-0.1,0.5-0.2,1.6-0.3,2.3h5.3l1,0.9
				c-0.5,2.2-1.6,4.8-2.7,6.4c0.3,0.3,1.9,1.9,4.3,3.1c-0.8,0.4-1.4,1.3-1.6,1.6c-2.7-1.8-3.3-2.4-3.9-3.1c-1.1,1.2-2.2,2.2-4,3.2
				c-0.3-0.4-0.7-0.8-1.7-1.5c0.7-0.3,2.7-1.3,4.5-3.3c-0.9-1.3-1.5-2.5-1.9-3.5c-0.7,2.4-1.9,5.5-4.2,7.8c-0.2-0.3-0.8-0.9-1.7-1.3
				c4.3-4.4,4.7-10.6,4.8-12.7H1037.1z M1041.7,163.8c0.6,1.9,1.4,3.2,1.7,3.7c0.8-1.2,1.2-2.5,1.6-3.7H1041.7z"/>
			<path class="st3" d="M1051.2,172.9c1.1-1.1,3.9-3.8,3.9-8.8c0-5-2.7-7.7-3.9-8.8l1.3-1.2c0.9,0.9,4.4,4.1,4.4,10.1
				c0,6-3.4,9.2-4.4,10.1L1051.2,172.9z"/>
		</g>
		<g>
			<path class="st3" d="M899.7,284.4c-1.1,1.1-3.9,3.8-3.9,8.8s2.7,7.7,3.9,8.8l-1.3,1.2c-1-0.9-4.4-4.1-4.4-10.1
				c0-5.9,3.4-9.2,4.4-10.1L899.7,284.4z"/>
			<path class="st3" d="M907.6,302.8h-1.9v-8.4c-0.6,2-1.1,3.2-2,5c-0.4-0.4-0.7-0.7-1.8-1.4c2.1-2.9,3.2-5.7,3.6-7.2h-3v-1.8h3.2
				v-2.6c-1.3,0.4-2,0.5-2.6,0.6c-0.3-0.7-0.6-1.1-1.1-1.7c2-0.2,5-1,6.9-2.1l1.2,1.5c0.1,0.2,0.2,0.3,0.2,0.4
				c0,0.1-0.2,0.2-0.3,0.2c-0.2,0-0.4-0.1-0.5-0.2c-1,0.4-1.4,0.5-1.9,0.7v3.2h2.4v1.8h-2.4v0.4c0.8,1.6,1.4,2.5,2.6,3.8
				c-0.2,0.2-1,0.8-1.5,1.4c-0.1-0.4-0.9-1.9-1.1-2.2V302.8z M914.6,295.5c0.2,0.1,0.4,0.1,0.4,0.3c0,0.2-0.3,0.3-0.5,0.3
				c-0.3,1.8-0.9,4.8-4.6,7c-0.4-0.7-1.1-1.3-1.6-1.7c1.3-0.5,4.1-2,4.2-6.4L914.6,295.5z M915.9,288c1.5-2,2.2-3.8,2.5-4.6l2.1,0.8
				c0.2,0.1,0.4,0.1,0.4,0.3c0,0.3-0.3,0.3-0.6,0.2c-0.7,1.5-1.1,2.2-1.9,3.3h2.5v6.9h-2.6v4.7c0,0.7,0,0.8,0.9,0.8
				c0.7,0,1.1,0,1.3-2.2c0.4,0.3,1,0.8,1.8,1.1c-0.4,3.1-1.6,3.1-2.3,3.1H918c-1.7,0-1.9-1.1-1.9-2.1v-5.4h-5.4V288h2.3
				c-0.4-0.9-1.3-2.6-2.2-3.6l1.8-0.9c1,1.2,2.1,3.2,2.3,3.6c-1,0.4-1.4,0.6-1.9,0.9H915.9z M912.8,289.9v3.2h6v-3.2H912.8z"/>
			<path class="st3" d="M929,291.3v6.9c0,1.1,0.8,1.7,1.5,1.9c1.1,0.3,3.9,0.3,5.2,0.3c1.9,0,5.1-0.1,7.8-0.3
				c-0.3,0.5-0.7,1.5-0.8,2.3h-9.5c-3.5,0-4.7-0.8-5.5-2.1c-1.1,0.8-1.3,0.9-2.8,1.9c0,0.4,0,0.7-0.3,0.7c-0.2,0-0.3-0.2-0.4-0.4
				l-0.8-2c1.3-0.5,2.3-1.1,3.3-1.9v-5.2H924v-2.1H929z M925.7,283.7c1.3,0.9,3,2.3,3.9,3.3c-0.5,0.5-1.4,1.2-1.6,1.5
				c-1.9-1.9-3.3-2.9-3.9-3.3L925.7,283.7z M935.7,288.5c0-0.3-0.1-1.1-0.1-2.2h-3.5v-2.1h5.7c-0.2,0.9-0.2,1.7-0.2,2
				c0,1,0.2,3.6,0.7,5.3c0.4,1.4,1.7,3.9,4.7,6.2c-1.1,0.8-1.1,0.9-1.6,1.6c-0.8-0.6-4.4-3.5-5.4-8.2c-1.5,5.3-4.3,7.8-4.9,8.3
				c-0.2-0.3-0.7-1.2-1.7-1.7c1.2-1,4.5-4.2,5.1-9.4L935.7,288.5z"/>
			<path class="st3" d="M956.8,291.5h1.4c1.9,0,3.6-0.9,3.6-2.6c0-2.4-3-2.4-3.6-2.4c-2.9,0-3.8,1.3-3.9,3.1h-2.7
				c0.1-0.8,0.3-2.6,1.8-3.9c1.6-1.4,3.9-1.5,5-1.5c3.9,0,6.2,1.8,6.2,4.4c0,2.7-2.2,3.4-3.1,3.7c2.7,0.7,3.4,2.5,3.4,4.1
				c0,2.7-1.9,5.4-6.9,5.4c-1.6,0-6.5-0.1-6.9-5.9h2.7c0.2,2.3,1.2,3.7,4.1,3.7c0.7,0,4.3,0,4.3-3.1c0-2.5-2.3-3-3.7-3h-1.6V291.5z"
				/>
			<path class="st3" d="M971.1,301.2c0,2-1.6,2.3-2.7,2.4v-1c1.2-0.2,1.3-0.7,1.3-1.3h-1.3v-2.8h2.7V301.2z"/>
			<path class="st3" d="M988.6,301.2h-13.9c0.2-3.1,1.8-4.7,6.1-7.4c4.1-2.5,5-3,5-4.8c0-1.9-1.8-2.6-3.7-2.6
				c-3.8,0-4.3,2.4-4.4,4.2H975c0.1-0.8,0.2-2.5,1.1-3.8c1.6-2.3,4.4-2.6,5.9-2.6c4,0,6.4,2,6.4,4.9c0,2.1-1,3.6-4.4,5.6
				c-4,2.3-4.6,2.9-5.7,4.3h10.2V301.2z"/>
			<path class="st3" d="M1005,284.6v2.2c-2,1.4-3.5,3.7-4.6,6.2c-1.5,3.5-1.7,6.4-1.8,8.2h-2.8c0.1-7.1,4.2-12.5,6.3-14.4h-10.6
				v-2.2H1005z"/>
			<path class="st3" d="M1021.7,296.6c0,2.1-1.3,5.1-6.9,5.1c-1.2,0-3.6-0.1-5.3-1.5c-1-0.8-1.7-2.1-1.7-3.6c0-3.4,2.7-4.1,3.5-4.3
				c-0.8-0.3-3-1-3-3.7c0-2.4,2.1-4.4,6.4-4.4c4.4,0,6.4,2.2,6.4,4.4c0,2.7-2.2,3.4-3,3.7C1020.4,292.9,1021.7,294.3,1021.7,296.6z
				 M1010.5,296.3c0,2.5,2.5,3.1,4.2,3.1c1.6,0,4.3-0.5,4.3-3.1c0-1.7-1.4-3.1-4.2-3.1C1011.8,293.3,1010.5,294.6,1010.5,296.3z
				 M1011,289c0,2.5,3.2,2.5,3.7,2.5c0.5,0,3.7,0,3.7-2.5c0-0.5-0.2-2.6-3.7-2.6C1011.3,286.4,1011,288.3,1011,289z"/>
			<path class="st3" d="M1032.8,294.5v8.3h-2.3v-18.4h17.2v15.4c0,2.2-0.9,3-3.9,3c-0.3,0-0.5,0-0.8,0c-0.1-1.4-0.5-2.1-0.8-2.5
				c0.9,0.2,1.6,0.2,1.9,0.2c1.1,0,1.3-0.3,1.3-1.3v-4.6H1032.8z M1037.9,286.5h-5.1v5.8h5.1V286.5z M1040.1,292.4h5.2v-5.8h-5.2
				V292.4z"/>
			<path class="st3" d="M1051.3,302.1c1.1-1.1,3.9-3.8,3.9-8.8s-2.7-7.7-3.9-8.8l1.3-1.2c0.9,0.9,4.4,4.1,4.4,10.1
				c0,6-3.4,9.2-4.4,10.1L1051.3,302.1z"/>
		</g>
	</g>
</g>
<g>
	<g>
		<path class="st3" d="M603.1,491.9H499c-1.5,0-2.8-1.2-2.8-2.8v-13.5c0-1.5,1.2-2.8,2.8-2.8s2.8,1.2,2.8,2.8v10.7h98.6V365.4h-10.4
			c-1.5,0-2.8-1.2-2.8-2.8s1.2-2.8,2.8-2.8h13.2c1.5,0,2.8,1.2,2.8,2.8v126.4C605.8,490.7,604.6,491.9,603.1,491.9z"/>
	</g>
	<g>
		<path class="st3" d="M616.2,505.4H512.1c-1.5,0-2.8-1.2-2.8-2.8v-13.5c0-1.5,1.2-2.8,2.8-2.8c1.5,0,2.8,1.2,2.8,2.8v10.7h98.6
			V378.9h-10.4c-1.5,0-2.8-1.2-2.8-2.8s1.2-2.8,2.8-2.8h13.2c1.5,0,2.8,1.2,2.8,2.8v126.4C619,504.2,617.8,505.4,616.2,505.4z"/>
	</g>
	<path class="st3" d="M574.1,419.4h-72.6c-1.5,0-2.8-1.2-2.8-2.8s1.2-2.8,2.8-2.8h72.6c1.5,0,2.8,1.2,2.8,2.8
		S575.7,419.4,574.1,419.4z"/>
	<path class="st3" d="M574.1,436.3h-72.6c-1.5,0-2.8-1.2-2.8-2.8s1.2-2.8,2.8-2.8h72.6c1.5,0,2.8,1.2,2.8,2.8
		S575.7,436.3,574.1,436.3z"/>
	<path class="st3" d="M549.5,460.4h-23.4c-3.8,0-6.9-3.1-6.9-6.9s3.1-6.9,6.9-6.9h23.4c3.8,0,6.9,3.1,6.9,6.9
		S553.4,460.4,549.5,460.4z"/>
	<path class="st3" d="M589.9,478.4H485.8c-1.5,0-2.8-1.2-2.8-2.8V349.2c0-1.5,1.2-2.8,2.8-2.8h104.1c1.5,0,2.8,1.2,2.8,2.8v126.4
		C592.7,477.2,591.4,478.4,589.9,478.4z M488.6,472.9h98.6V352h-98.6V472.9z"/>
	<g>
		<rect x="501.6" y="366" class="st4" width="72.6" height="35"/>
		<path class="st3" d="M574.1,403.7h-72.6c-1.5,0-2.8-1.2-2.8-2.8v-35c0-1.5,1.2-2.8,2.8-2.8h72.6c1.5,0,2.8,1.2,2.8,2.8v35
			C576.9,402.4,575.7,403.7,574.1,403.7z M504.3,398.2h67.1v-29.4h-67.1V398.2z"/>
	</g>
</g>
<g>
	<g>
		<circle class="st4" cx="786.5" cy="397.5" r="14.2"/>
		<path class="st3" d="M786.5,414.5c-9.4,0-17-7.6-17-17s7.6-17,17-17s17,7.6,17,17S795.8,414.5,786.5,414.5z M786.5,386
			c-6.3,0-11.5,5.2-11.5,11.5s5.2,11.5,11.5,11.5s11.5-5.2,11.5-11.5S792.8,386,786.5,386z"/>
	</g>
	<g>
		<path class="st3" d="M811.4,474.9h-49.9c-1.5,0-2.8-1.2-2.8-2.8v-40.6c0-4.2,0.8-8,2.4-11.2c0.7-1.4,2.3-1.9,3.7-1.3
			c1.4,0.7,1.9,2.3,1.3,3.7c-1.2,2.5-1.8,5.4-1.8,8.8v37.9h44.4v-37.9c0-15.2-12.2-16.8-13.5-17h-17.3c-0.6,0.1-3.9,0.6-7.1,2.7
			c-1.3,0.9-3,0.5-3.8-0.7c-0.9-1.3-0.5-3,0.7-3.8c4.7-3.3,9.6-3.7,9.8-3.7c0.1,0,0.2,0,0.2,0h17.5c0.1,0,0.1,0,0.2,0
			c6.5,0.5,18.7,5.9,18.7,22.5v40.6C814.1,473.6,812.9,474.9,811.4,474.9z"/>
	</g>
	<g>
		<path class="st3" d="M750.1,403.7c-7.7,0-13.9-6.2-13.9-13.9s6.2-13.9,13.9-13.9s13.9,6.2,13.9,13.9S757.8,403.7,750.1,403.7z
			 M750.1,381.4c-4.6,0-8.4,3.8-8.4,8.4s3.8,8.4,8.4,8.4s8.4-3.8,8.4-8.4S754.8,381.4,750.1,381.4z"/>
		<path class="st3" d="M734.7,451.3h-4.1c-1.5,0-2.8-1.2-2.8-2.8v-32.9c0-0.9,0-6.5,4.3-11.1c3.9-4.2,10-6.3,18-6.3
			c8.2,0,14.4,2.2,18.3,6.6c3.2,3.6,3.9,7.6,4,9.7c0.1,1.5-1.1,2.8-2.6,2.9c-1.5,0.1-2.8-1.1-2.9-2.6c-0.2-3.3-2.3-11.1-16.8-11.1
			c-6.5,0-11.2,1.5-14,4.5c-3,3.2-2.8,7.1-2.8,7.1c0,0.1,0,0.1,0,0.2v30.2h1.4c1.5,0,2.8,1.2,2.8,2.8S736.2,451.3,734.7,451.3z"/>
		<path class="st3" d="M760,451.3h-17.6c-1.5,0-2.8-1.2-2.8-2.8s1.2-2.8,2.8-2.8H760c1.5,0,2.8,1.2,2.8,2.8S761.5,451.3,760,451.3z"
			/>
	</g>
	<g>
		<path class="st3" d="M822.8,403.7c-7.7,0-13.9-6.2-13.9-13.9s6.2-13.9,13.9-13.9c7.7,0,13.9,6.2,13.9,13.9
			S830.5,403.7,822.8,403.7z M822.8,381.4c-4.6,0-8.4,3.8-8.4,8.4s3.8,8.4,8.4,8.4c4.6,0,8.4-3.8,8.4-8.4S827.4,381.4,822.8,381.4z"
			/>
		<path class="st3" d="M842.4,451.3h-4.1c-1.5,0-2.8-1.2-2.8-2.8s1.2-2.8,2.8-2.8h1.4v-30.2c0-0.1,0-0.1,0-0.2c0-0.1,0.1-4-2.9-7.2
			c-2.8-3-7.5-4.5-13.9-4.5c-14.5,0-16.6,7.8-16.8,11.1c-0.1,1.5-1.4,2.7-2.9,2.6c-1.5-0.1-2.7-1.4-2.6-2.9c0.1-2.1,0.8-6.1,4-9.7
			c3.9-4.4,10-6.6,18.3-6.6c8,0,14.1,2.1,18,6.3c4.4,4.7,4.4,10.2,4.3,11.1v32.9C845.1,450.1,843.9,451.3,842.4,451.3z"/>
		<path class="st3" d="M830.5,451.3h-17.6c-1.5,0-2.8-1.2-2.8-2.8s1.2-2.8,2.8-2.8h17.6c1.5,0,2.8,1.2,2.8,2.8
			S832,451.3,830.5,451.3z"/>
	</g>
	<g>
		<path class="st3" d="M786.5,505.2c-25,0-48.8-12-63.7-32c-0.9-1.2-0.7-2.9,0.6-3.9c1.2-0.9,2.9-0.7,3.9,0.6
			c14.1,18.9,35.7,29.8,59.3,29.8c35.7,0,66.2-25.5,72.6-60.6c0.3-1.5,1.7-2.5,3.2-2.2c1.5,0.3,2.5,1.7,2.2,3.2
			C857.6,477.9,824.8,505.2,786.5,505.2z"/>
		<path class="st3" d="M720.1,466.9c-1,0-1.9-0.5-2.4-1.4c-6.9-12-10.6-25.7-10.6-39.6c0-43.7,35.6-79.3,79.3-79.3
			c43.7,0,79.3,35.6,79.3,79.3c0,1.6-0.1,3.2-0.2,5.2c-0.1,1.5-1.4,2.7-2.9,2.6c-1.5-0.1-2.7-1.4-2.6-2.9c0.1-1.9,0.2-3.4,0.2-4.9
			c0-40.7-33.1-73.8-73.8-73.8c-40.7,0-73.8,33.1-73.8,73.8c0,12.9,3.4,25.7,9.9,36.9c0.8,1.3,0.3,3-1,3.8
			C721.1,466.8,720.6,466.9,720.1,466.9z"/>
	</g>
</g>
<path class="st3" d="M1051,508.4h-58.3c-1.5,0-2.8-1.2-2.8-2.8s1.2-2.8,2.8-2.8h58.3c1.5,0,2.8,1.2,2.8,2.8S1052.5,508.4,1051,508.4
	z"/>
<polygon class="st4" points="1095.2,467.5 1095.2,472.8 1089.5,477.3 956.1,477.3 949.9,475.1 948.1,469.7 948.1,466.2 
	1088.3,465.3 "/>
<g>
	<path class="st3" d="M1088,481H955.8c-6.3,0-11.4-5.1-11.4-11.4V386c0-6.3,5.1-11.4,11.4-11.4h6.9c1.5,0,2.8,1.2,2.8,2.8
		s-1.2,2.8-2.8,2.8h-6.9c-3.2,0-5.9,2.6-5.9,5.9v83.6c0,3.2,2.6,5.9,5.9,5.9H1088c3.2,0,5.9-2.6,5.9-5.9V386c0-3.2-2.6-5.9-5.9-5.9
		h-6.9c-1.5,0-2.8-1.2-2.8-2.8s1.2-2.8,2.8-2.8h6.9c6.3,0,11.4,5.1,11.4,11.4v83.6C1099.3,475.9,1094.2,481,1088,481z"/>
</g>
<path class="st3" d="M1096.6,469H947.2c-1.5,0-2.8-1.2-2.8-2.8s1.2-2.8,2.8-2.8h149.4c1.5,0,2.8,1.2,2.8,2.8S1098.1,469,1096.6,469z
	"/>
<g>
	<path class="st3" d="M1004.6,508.4c-1.5,0-2.8-1.2-2.8-2.8v-27.3c0-1.5,1.2-2.8,2.8-2.8s2.8,1.2,2.8,2.8v27.3
		C1007.4,507.1,1006.1,508.4,1004.6,508.4z"/>
	<path class="st3" d="M1039.2,508.4c-1.5,0-2.8-1.2-2.8-2.8v-27.3c0-1.5,1.2-2.8,2.8-2.8s2.8,1.2,2.8,2.8v27.3
		C1041.9,507.1,1040.7,508.4,1039.2,508.4z"/>
</g>
<g>
	<path class="st3" d="M1002.1,426.7c0-1.4,0.6-2.2,2.4-2.2c1.1,0,2.6,0.1,2.6,2.2v0.5h9.4c0.8,0,2.3,0.1,2.3,2.1
		c0,1.6-0.5,2.4-2.3,2.4h-19.4c-0.7,0-1.1,0.4-1.1,1v6.5c0,6.5-1.4,11.2-1.7,12.1c-0.5,1.7-1.1,2.7-2.6,2.7c-1.6,0-2.6-1.1-2.6-2.4
		c0-0.6,0-0.6,1.1-3.6c0.8-2.2,1.2-5.4,1.2-8.7v-7.9c0-3.3,1.6-4.2,4.2-4.2h6.5V426.7z M997.2,453.4c-0.5,0-2.3,0-2.3-2.3
		c0-2,1.4-2.1,2.9-2.3c1.3-3.3,2.3-6.7,3.4-10.1c0.2-0.5,0.8-3.1,1-3.7c0.4-1.5,0.7-2.5,2.5-2.5c0.3,0,2.6,0,2.6,1.9
		c0,0.9-0.5,2.5-1.8,6.2c-1.5,4.6-1.6,4.7-2.9,7.9c3.8-0.3,5.6-0.4,9.2-0.9c-0.7-1.6-0.9-2-2.6-5.3c-0.2-0.3-0.4-0.8-0.4-1.2
		c0-1.2,1.3-2,2.4-2c0.7,0,1.3,0.3,1.7,1c0.9,1.4,2.8,5.1,4.2,8.1c0.7,1.6,1.3,2.9,1.3,3.8c0,1.6-1.6,2.2-2.5,2.2
		c-1.5,0-1.8-0.7-2.5-2.5C1007.3,452.5,997.7,453.4,997.2,453.4z"/>
	<path class="st3" d="M1035.3,428.6V427c0-1,0.2-2.3,2.2-2.3c1.9,0,2.6,0.6,2.6,2.3v1.6h7.9c0.6,0,2.3,0,2.3,2.1
		c0,1.9-1.2,2.1-2.3,2.1h-7.9v3.1h9.8c0.5,0,2.2,0,2.2,2c0,1.5-0.6,2.2-2.2,2.2H1025c-0.5,0-2.3,0-2.3-2c0-1.6,0.8-2.2,2.3-2.2h10.3
		v-3.1h-5.7c-1.5,2.2-2,2.7-3.1,2.7c-1.4,0-2.8-1.1-2.8-2.3c0-0.8,0.2-1.1,1.8-3c1.1-1.4,1.8-2.8,2.2-3.7c0.5-1,0.8-1.5,2-1.5
		c0.5,0,2.8,0.2,2.8,2c0,0.6-0.1,1-0.4,1.6H1035.3z M1049.3,449.9c0,2.9-1.3,3.8-3.8,3.8h-16.2c-2.5,0-3.8-0.9-3.8-3.8v-4.4
		c0-2.9,1.3-3.8,3.8-3.8h16.2c2.4,0,3.8,0.8,3.8,3.8V449.9z M1044.5,446.6c0-0.6-0.3-0.9-0.8-0.9h-12.4c-0.6,0-0.9,0.3-0.9,0.9v2
		c0,0.6,0.3,0.9,0.9,0.9h12.4c0.5,0,0.8-0.2,0.8-0.9V446.6z"/>
</g>
<path class="st3" d="M1021.9,418.3c-21.1,0-38.2-17.1-38.2-38.2s17.1-38.2,38.2-38.2c21.1,0,38.2,17.1,38.2,38.2
	S1043,418.3,1021.9,418.3z M1021.9,350.5c-16.3,0-29.6,13.3-29.6,29.6s13.3,29.6,29.6,29.6c16.3,0,29.6-13.3,29.6-29.6
	S1038.2,350.5,1021.9,350.5z"/>
<rect x="1017.2" y="346.6" transform="matrix(0.7092 -0.705 0.705 0.7092 28.7391 830.7368)" class="st3" width="8.6" height="67.8"/>
<g>
	<g>
		<path class="st11" d="M991.3,379c1.2,0,1.9,0.6,1.9,1.9c0,1.4-0.7,2-1.9,2h-18.9c-1.2,0-1.9-0.6-1.9-1.9c0-1.4,0.7-2,1.9-2H991.3z
			"/>
		<path class="st11" d="M1006.2,374.1c-0.5,0-1.8,0-1.8-1.7c0-1.4,0.7-1.9,1.8-1.9h9.1c1,0,3.1,0,3.3,2.6c0,0.7,0,2.5,0,3.4
			c0,2.8-0.1,8.6-0.5,11.5c-0.6,4.1-1.7,4.4-4.7,4.4c-1.8,0-2.3-0.1-2.7-0.2c-1.4-0.3-1.4-1.6-1.4-1.8c0-0.7,0.4-1.7,1.6-1.7
			c0.3,0,1.6,0.1,1.9,0.1c1,0,1.4,0,1.8-3.8c0.3-2.9,0.3-9.4,0.3-9.7c0-1.1,0-1.3-0.6-1.3h-1.8c-0.1,8.1-1.2,11.8-3.4,14.5
			c-2.4,2.9-5.7,4.1-6.9,4.1c-0.9,0-1.9-0.9-1.9-2c0-0.8,0.7-1.2,0.9-1.3c0.4-0.2,2.2-0.8,2.6-0.9c-0.5,0.1-0.7,0.1-1.2,0.1
			c-2.4,0-2.6,0-3.2-0.2c-1.3-0.5-1.3-1.4-1.3-2.8v-5.2c-0.2,0-0.3,0-0.5,0c-0.9,0-1.5-0.8-1.5-1.9c0-0.9,0.4-1.4,1.4-1.6l0.7-0.1
			v-5.2c0-0.4,0-1.8,1.7-1.8c1.5,0,1.9,0.7,1.9,1.8v4.4l3-0.7c0.1,0,0.4-0.1,0.7-0.1c1,0,1.5,1,1.5,1.9c0,0.8-0.5,1.4-1.3,1.6
			l-3.9,0.9v5c0,0.5,0.2,0.5,0.8,0.5c0.6,0,0.7-0.5,0.8-1.6c0.1-0.8,0.2-1.7,1.4-1.7c1.5,0,1.7,0.8,1.7,1.6c0,0.4-0.1,1.7-0.4,2.8
			c-0.1,0.5-0.3,1.1-0.7,1.5c3-2.6,3.5-7.3,3.5-13.4H1006.2z"/>
		<path class="st11" d="M1027.6,386c-0.6,1.1-1,1.9-2.1,1.9c-0.9,0-2.1-0.6-2.1-1.8c0-0.5,0.1-0.7,0.9-2.1c0.2-0.4,1.3-2.3,2.8-6.4
			c-1.8,0.1-3.5,0.1-3.5-1.9c0-1.8,1.5-1.8,2.1-1.8c0.5,0,2.2,0,2.7,0c0.1-0.4,0.5-2.1,0.7-2.4c0.4-1.1,1.2-1.2,1.7-1.2
			c1.1,0,2.1,0.6,2.1,1.5c0,0.3-0.1,0.7-0.4,1.8c1-0.1,1.2-0.1,1.4-0.1c1.2,0,1.5,1,1.5,1.7c0,1.6-0.7,2-4.2,2.3
			C1030.1,380.2,1029,383.2,1027.6,386z M1035.7,379.7c0-1.4,0.9-1.7,1.6-1.7c1.9,0,2,1.4,2.1,1.8c0,0.7,0.1,2.9,0.2,4
			c1.4,0.6,2.5,1.1,3.6,1.9c0.7,0.5,1,0.8,1,1.5c0,0.9-0.7,2.1-1.8,2.1c-0.3,0-0.6-0.1-0.8-0.2c-0.3-0.2-1.6-1-2-1.2
			c-0.1,1.1-0.4,1.7-0.8,2.2c-1.1,1.4-3.2,1.6-4.3,1.6c-3.3,0-5.7-1.7-5.7-4.4c0-2.2,1.6-4.5,5.6-4.5c0.6,0,1.1,0,1.4,0.1
			C1035.8,382.4,1035.7,380.2,1035.7,379.7z M1034,386c-0.7,0-1.8,0.2-1.8,1.2c0,1.1,1.4,1.3,2,1.3c1.9,0,1.9-0.8,1.8-2.1
			C1035.6,386.3,1034.9,386,1034,386z M1042.3,375.2c1.3,0.7,1.9,1,1.9,2c0,0.9-0.6,2.1-1.6,2.1c-0.5,0-0.7-0.1-2.3-1
			c-1.3-0.7-1.9-1-2.7-1.3c-0.6-0.2-1.2-0.5-1.2-1.4c0-1.2,0.9-2,1.9-2C1039,373.6,1041.3,374.7,1042.3,375.2z"/>
		<path class="st11" d="M1052.4,373.1c0-1.5,0.1-2.7,2.1-2.7c2.2,0,2.1,1.4,2,2.9l-0.4,10.1c-0.1,1.7-0.2,4.5,3.4,4.5
			c1.6,0,4.3-0.5,6.3-5.1c0.6-1.4,0.9-2,2-2c0.8,0,2.1,0.6,2.1,1.8c0,1.3-1.6,3.9-1.7,4c-1,1.6-3.5,5.1-8.7,5.1
			c-4.2,0-6.2-2.1-7-3.9c-0.5-1.1-0.6-2.2-0.5-4.4L1052.4,373.1z"/>
	</g>
	<g>
		<path class="st3" d="M991.3,379c1.2,0,1.9,0.6,1.9,1.9c0,1.4-0.7,2-1.9,2h-18.9c-1.2,0-1.9-0.6-1.9-1.9c0-1.4,0.7-2,1.9-2H991.3z"
			/>
		<path class="st3" d="M1006.2,374.1c-0.5,0-1.8,0-1.8-1.7c0-1.4,0.7-1.9,1.8-1.9h9.1c1,0,3.1,0,3.3,2.6c0,0.7,0,2.5,0,3.4
			c0,2.8-0.1,8.6-0.5,11.5c-0.6,4.1-1.7,4.4-4.7,4.4c-1.8,0-2.3-0.1-2.7-0.2c-1.4-0.3-1.4-1.6-1.4-1.8c0-0.7,0.4-1.7,1.6-1.7
			c0.3,0,1.6,0.1,1.9,0.1c1,0,1.4,0,1.8-3.8c0.3-2.9,0.3-9.4,0.3-9.7c0-1.1,0-1.3-0.6-1.3h-1.8c-0.1,8.1-1.2,11.8-3.4,14.5
			c-2.4,2.9-5.7,4.1-6.9,4.1c-0.9,0-1.9-0.9-1.9-2c0-0.8,0.7-1.2,0.9-1.3c0.4-0.2,2.2-0.8,2.6-0.9c-0.5,0.1-0.7,0.1-1.2,0.1
			c-2.4,0-2.6,0-3.2-0.2c-1.3-0.5-1.3-1.4-1.3-2.8v-5.2c-0.2,0-0.3,0-0.5,0c-0.9,0-1.5-0.8-1.5-1.9c0-0.9,0.4-1.4,1.4-1.6l0.7-0.1
			v-5.2c0-0.4,0-1.8,1.7-1.8c1.5,0,1.9,0.7,1.9,1.8v4.4l3-0.7c0.1,0,0.4-0.1,0.7-0.1c1,0,1.5,1,1.5,1.9c0,0.8-0.5,1.4-1.3,1.6
			l-3.9,0.9v5c0,0.5,0.2,0.5,0.8,0.5c0.6,0,0.7-0.5,0.8-1.6c0.1-0.8,0.2-1.7,1.4-1.7c1.5,0,1.7,0.8,1.7,1.6c0,0.4-0.1,1.7-0.4,2.8
			c-0.1,0.5-0.3,1.1-0.7,1.5c3-2.6,3.5-7.3,3.5-13.4H1006.2z"/>
		<path class="st3" d="M1027.6,386c-0.6,1.1-1,1.9-2.1,1.9c-0.9,0-2.1-0.6-2.1-1.8c0-0.5,0.1-0.7,0.9-2.1c0.2-0.4,1.3-2.3,2.8-6.4
			c-1.8,0.1-3.5,0.1-3.5-1.9c0-1.8,1.5-1.8,2.1-1.8c0.5,0,2.2,0,2.7,0c0.1-0.4,0.5-2.1,0.7-2.4c0.4-1.1,1.2-1.2,1.7-1.2
			c1.1,0,2.1,0.6,2.1,1.5c0,0.3-0.1,0.7-0.4,1.8c1-0.1,1.2-0.1,1.4-0.1c1.2,0,1.5,1,1.5,1.7c0,1.6-0.7,2-4.2,2.3
			C1030.1,380.2,1029,383.2,1027.6,386z M1035.7,379.7c0-1.4,0.9-1.7,1.6-1.7c1.9,0,2,1.4,2.1,1.8c0,0.7,0.1,2.9,0.2,4
			c1.4,0.6,2.5,1.1,3.6,1.9c0.7,0.5,1,0.8,1,1.5c0,0.9-0.7,2.1-1.8,2.1c-0.3,0-0.6-0.1-0.8-0.2c-0.3-0.2-1.6-1-2-1.2
			c-0.1,1.1-0.4,1.7-0.8,2.2c-1.1,1.4-3.2,1.6-4.3,1.6c-3.3,0-5.7-1.7-5.7-4.4c0-2.2,1.6-4.5,5.6-4.5c0.6,0,1.1,0,1.4,0.1
			C1035.8,382.4,1035.7,380.2,1035.7,379.7z M1034,386c-0.7,0-1.8,0.2-1.8,1.2c0,1.1,1.4,1.3,2,1.3c1.9,0,1.9-0.8,1.8-2.1
			C1035.6,386.3,1034.9,386,1034,386z M1042.3,375.2c1.3,0.7,1.9,1,1.9,2c0,0.9-0.6,2.1-1.6,2.1c-0.5,0-0.7-0.1-2.3-1
			c-1.3-0.7-1.9-1-2.7-1.3c-0.6-0.2-1.2-0.5-1.2-1.4c0-1.2,0.9-2,1.9-2C1039,373.6,1041.3,374.7,1042.3,375.2z"/>
		<path class="st3" d="M1052.4,373.1c0-1.5,0.1-2.7,2.1-2.7c2.2,0,2.1,1.4,2,2.9l-0.4,10.1c-0.1,1.7-0.2,4.5,3.4,4.5
			c1.6,0,4.3-0.5,6.3-5.1c0.6-1.4,0.9-2,2-2c0.8,0,2.1,0.6,2.1,1.8c0,1.3-1.6,3.9-1.7,4c-1,1.6-3.5,5.1-8.7,5.1
			c-4.2,0-6.2-2.1-7-3.9c-0.5-1.1-0.6-2.2-0.5-4.4L1052.4,373.1z"/>
	</g>
</g>
<g>
	<g>
		<path class="st3" d="M461.7,552h-9.5c-0.6,0-1.7-0.1-1.7-1.6c0-1.6,1.3-1.6,1.7-1.6h10.5c-0.7-0.6-2-1.7-2.9-2.3
			c-1.7-1.1-2-1.3-2-1.9c0-0.7,0.6-1.7,1.7-1.7c0.4,0,0.9,0.2,1.1,0.3c0.7,0.3,1.4,0.8,3.5,2.3c0.6-0.3,1.7-0.8,2.8-1.5
			c0.4-0.2,1-0.7,1-0.9c0-0.3-0.4-0.3-0.6-0.3h-13.1c-0.8,0-1.7-0.2-1.7-1.6c0-1.6,1.2-1.6,1.7-1.6H471c0.9,0,2.7,0,2.7,2.2
			c0,1.2-0.7,1.8-1.3,2.3c-1,0.8-3.9,2.4-6,3.3c0.7,0.7,0.9,0.9,1,1.2h5.9c1,0,2.8,0,2.8,2.3c0,0.9-0.3,1.6-0.7,2.1
			c-0.7,1-2.1,2.7-3.8,4.2c-1.6,1.5-1.8,1.5-2.3,1.5c-1,0-2-1-2-1.9c0-0.6,0.1-0.7,1.6-1.9c1.6-1.3,2.5-2.6,2.5-2.8
			c0-0.3-0.4-0.3-0.6-0.3h-5.6v9.4c0,0.7,0,2.5-1.5,3.1c-0.8,0.4-3.1,0.4-4.2,0.4c-0.7,0-2.3,0-2.8-0.2c-0.5-0.2-1-0.8-1-1.7
			c0-1.7,1.5-1.7,1.9-1.7c0.2,0,1.9,0.1,2.3,0.1c0.9,0,1.5,0,1.5-1.1V552z"/>
		<path class="st3" d="M483.8,553.4c-0.7,0.1-2.4,0.2-3,0.2c-0.3,0-1.4,0-1.4-1.6c0-0.6,0.3-1,0.6-1.2c0.2-0.2,0.4-0.2,1.8-0.2
			c0.3-0.4,0.6-0.6,1.2-1.5c-0.9-1.3-1.9-2.3-2.3-2.6c-1.1-1.1-1.2-1.2-1.2-1.8c0-0.6,0.5-1.7,1.6-1.7c0.4,0,0.5,0.1,0.7,0.2
			c0.4-0.6,0.9-1.5,1.3-2.3c0.7-1.4,1-1.9,1.8-1.9c0.6,0,1.9,0.5,1.9,1.5c0,0.5-0.2,0.9-0.8,2c-0.6,1-1.4,2.3-1.9,3
			c0.3,0.4,0.4,0.6,0.8,1c0.9-1.5,1.4-2.2,2-3.3c0.6-1.1,0.8-1.4,1.6-1.4c0.8,0,1.9,0.5,1.9,1.5c0,0.5-0.2,0.8-0.9,1.8
			c-2.2,3.4-3,4.4-3.8,5.3c1.4-0.1,1.6-0.1,2.3-0.2c-0.2-0.6-0.4-1.1-0.4-1.4c0-0.7,0.8-1,1.3-1c0.7,0,0.9,0.5,1.4,1.5
			c0.1,0.3,1.2,3.1,1.2,3.9c0,0.9-1,1.2-1.4,1.2c-0.8,0-0.9-0.5-1.2-1.5c-0.3,0.1-1.6,0.2-1.8,0.3v10.5c0,0.8-0.2,1.5-1.7,1.5
			c-1.5,0-1.5-1.1-1.5-1.5V553.4z M483,556c0,0.4-0.2,4-0.5,5.5c-0.2,1.1-0.4,1.5-1.4,1.5c-0.4,0-1.5-0.1-1.5-1.2
			c0-0.5,0.5-2.7,0.6-3.2c0.1-0.5,0.3-2.8,0.3-3.1c0.1-0.8,0.9-0.8,1.2-0.8C482.9,554.8,483,555.5,483,556z M490.6,556.8
			c0.1,0.6,0.5,2.8,0.5,3.9c0,0.7-0.1,1.4-1.3,1.4c-1.2,0-1.2-0.4-1.4-2.1c-0.2-1.6-0.3-2.2-0.4-2.9c-0.1-0.8-0.2-1-0.2-1.3
			c0-1,0.9-1.1,1.4-1.1C490.2,554.7,490.3,555.5,490.6,556.8z M501.4,542.7c3.1,0,3.2,1.8,3.2,4.1c0,5.4-0.2,12.3-0.7,14.6
			c-0.2,1.3-0.9,3-2.6,3.3c-0.6,0.1-1.3,0.2-3.5,0.2c-2,0-2.4-0.1-2.8-0.2c-0.7-0.3-1-1-1-1.7c0-1.7,1.5-1.7,2-1.7
			c0.4,0,2.1,0.1,2.4,0.1c1.8,0,1.9-0.5,2.2-2.3c0.4-2.8,0.5-8.5,0.5-11.6c0-1,0-1.6-1-1.6h-5c-1,2.2-1.7,3.3-1.8,3.4
			c-0.4,0.6-0.7,0.8-1.2,0.8c-0.9,0-1.8-0.7-1.8-1.7c0-0.5,0.2-0.8,0.6-1.5c1.5-2.3,2.2-4.7,2.7-6.6c0.2-0.7,0.4-1.4,1.6-1.4
			c0.5,0,1.7,0.1,1.7,1.2c0,0.5-0.2,1.1-0.6,2.6H501.4z M497.1,551.8c0.4,0.8,1.5,3,1.5,3.7c0,0.9-1,1.5-1.9,1.5
			c-1,0-1.2-0.5-1.7-1.9c-0.4-1-0.6-1.4-1.5-3.3c-0.2-0.4-0.3-0.7-0.3-1.1c0-0.8,0.8-1.3,1.5-1.4
			C495.8,549.3,496.1,549.9,497.1,551.8z"/>
		<path class="st3" d="M523.3,546.1c3.2,4.5,5.8,7.9,9.6,12.4c0.7,0.8,0.9,1.2,0.9,1.8c0,1.2-1,2.2-2.1,2.2c-0.8,0-1.3-0.6-2.3-1.8
			c-3.3-4.1-6.4-8.4-9.4-12.7c-0.5-0.7-0.6-0.9-1-0.9c-0.4,0-0.5,0.1-1.2,1.2c-1.8,2.5-4.6,6.5-5.5,7.4c-0.2,0.2-0.6,0.6-1.2,0.6
			c-1,0-2.1-0.9-2.1-2c0-0.6,0.2-0.8,1.7-2.6c1.6-2,3.5-4.5,5.2-6.8c0.8-1.1,1.7-2.3,3.3-2.3C520.6,542.5,521.2,543.2,523.3,546.1z
			 M534.4,545.1c0,2.2-1.8,4-4,4c-2.2,0-4-1.8-4-4c0-2.2,1.8-4,4-4C532.6,541.1,534.4,542.8,534.4,545.1z M528.3,545.1
			c0,1.2,1,2.1,2.1,2.1s2.1-0.9,2.1-2.1c0-1.2-1-2.1-2.1-2.1C529.3,543,528.3,543.9,528.3,545.1z"/>
		<path class="st3" d="M560.5,550.3c0.6,0,1.9,0,1.9,1.8c0,1.7-1.4,1.7-1.9,1.7h-20.4c-0.6,0-1.9,0-1.9-1.7c0-1.8,1.3-1.8,1.9-1.8
			H560.5z"/>
		<path class="st3" d="M569.7,546.8c0.9,0,3.4,1,4.4,1.5c2.2,0.9,2.9,1.2,2.9,2.3c0,1-0.7,2-1.7,2c-0.4,0-0.4,0-2.5-0.9
			c-0.7-0.3-3.9-1.5-4.1-1.7c-0.5-0.3-0.7-0.9-0.7-1.3C568,547.7,568.6,546.8,569.7,546.8z M569.7,561.6c0-1.2,0.7-1.4,2.6-2
			c1.4-0.4,6.6-2.3,11.6-7.5c1.3-1.4,2.5-2.9,3.6-4.4c0.4-0.6,0.8-1,1.5-1c1,0,2.1,1,2.1,2c0,1.5-4,6.3-8.1,9.5
			c-5.5,4.3-10.6,5.7-11.5,5.7C570.3,563.8,569.7,562.6,569.7,561.6z M572.2,540.2c0.8,0,3.7,1.2,4.7,1.6c1.7,0.7,2.5,1,2.5,2.1
			c0,1-0.7,1.9-1.6,1.9c-0.4,0-0.6-0.1-2.3-0.9c-0.6-0.3-4-1.6-4.1-1.7c-0.3-0.2-0.7-0.6-0.7-1.3
			C570.5,541.2,571.1,540.2,572.2,540.2z M588.4,543.8c0,0.7-0.6,1.2-1.2,1.2c-0.7,0-0.9-0.5-1.2-1.2c-0.6-1.2-1.2-2.1-1.7-2.8
			c-0.1-0.2-0.3-0.5-0.3-0.7c0-1,1.1-1.3,1.6-1.1C586.3,539.4,588.4,543.1,588.4,543.8z M592.7,543.4c0,0.8-0.8,1.2-1.3,1.2
			c-0.7,0-0.8-0.3-1.2-1.2c-0.4-1-0.9-1.8-1.5-2.7c-0.4-0.6-0.5-0.7-0.5-1c0-0.3,0.2-1.1,1.3-1.1c0.1,0,0.2,0,0.3,0
			C590.7,538.8,592.7,542.8,592.7,543.4z"/>
		<path class="st3" d="M602.3,563.4c0,0.7-0.2,1.7-1.6,1.7c-1.4,0-1.9-0.4-1.9-1.7v-12.1c-0.9,1.1-1.2,1.7-2,1.7
			c-1,0-1.8-0.9-1.8-2.1c0-0.8,0.1-0.9,2.2-3.5c0.7-0.8,2.1-3,3.5-7.1c0.2-0.7,0.5-1.2,1.5-1.2c0.9,0,1.8,0.4,1.8,1.4
			c0,1-1.1,3.6-1.6,4.8V563.4z M619.5,542.6c0.4,0,1.7,0,1.7,1.6c0,1.3-0.5,1.8-1.7,1.8h-7v3.3h6.4c0.6,0,1.7,0.1,1.7,1.6
			c0,1-0.4,1.7-1.7,1.7h-6.4v3.4h6.4c0.4,0,1.7,0,1.7,1.6c0,1.3-0.5,1.8-1.7,1.8h-6.4v4.1c0,0.6-0.1,1.7-1.6,1.7
			c-1.3,0-1.9-0.4-1.9-1.7v-17c-0.4,0.8-1.5,2.8-2.6,4.1c-0.3,0.4-0.6,0.8-1.3,0.8c-1,0-1.9-0.9-1.9-1.9c0-0.3,0.1-0.6,0.5-1.1
			c1.6-2.2,2.8-3.8,3.9-7.1c0.1-0.2,0.4-1.4,0.5-1.6c0.3-0.5,0.8-0.6,1.4-0.6c0.6,0,1.9,0.1,1.9,1.4c0,0.6-0.5,1.8-0.7,2.3H619.5z"
			/>
		<path class="st3" d="M648.4,543.1c0.8,0,1.7,0.2,1.7,1.5c0,1.2-0.3,1.8-1.7,1.8h-6.8c0.2,2.6,0.5,5.5,1.1,8.1
			c0.6-1.1,1.4-2.6,2.2-5.3c0.4-1.1,0.6-1.6,1.6-1.6c1,0,1.8,0.6,1.8,1.5c0,0.5-0.1,0.9-0.3,1.6c-1.3,3.7-2.9,6.3-4,7.8
			c0.5,1,1.4,2.7,2.2,2.7c0.6,0,0.9-0.9,1.3-2c0.4-1.2,0.8-1.4,1.4-1.4c0.6,0,1.6,0.3,1.6,1.4c0,0.5-1.1,6-4,6
			c-2.7,0-4.3-2.9-4.9-3.9c-2,1.8-4.6,3.6-5.8,3.6c-1,0-1.7-1-1.7-1.9c0-0.6,0.3-1,1.2-1.5c2.8-1.6,3.7-2.3,5-3.5
			c-1.2-3.6-1.8-9.1-2-11.4h-7.9c-0.6,0-0.9,0.3-0.9,0.9v1.6h3.7c2,0,3.5,0.3,3.5,3.3c0,3.4-0.2,6.8-1,8.3c-0.6,1-1.4,1.4-3.5,1.4
			c-1.4,0-1.5,0-1.9-0.3c-0.6-0.4-0.6-1.2-0.6-1.5c0-1.2,0.5-1.8,1.4-1.8c1.3,0,1.4,0,1.8-0.5c0.5-0.7,0.5-4.1,0.5-5
			c0-0.9-0.3-0.9-1.1-0.9h-2.8v1.4c0,2.7-0.3,5.4-0.9,8c-0.7,3-1.4,3.5-2.3,3.5c-0.6,0-2.1-0.4-2.1-1.8c0-0.4,0.1-0.7,0.5-1.6
			c0.9-2.2,1.4-4.4,1.4-8.3v-6.8c0-2.5,1.1-3.2,3.2-3.2h8.9c-0.1-1.5-0.1-2.5-0.1-2.6c0-0.7,0-1.8,1.7-1.8c1.8,0,1.8,1.1,1.8,1.8
			c0,0.5,0,1.1,0.1,2.6h4.3c-0.4-0.5-0.5-0.6-1.4-1.4c-0.6-0.6-0.9-0.8-0.9-1.3c0-0.9,1.1-1.4,1.7-1.4c0.6,0,1,0.4,2,1.2
			c0.9,0.9,1.4,1.4,1.4,2c0,0.5-0.4,0.8-0.5,1H648.4z"/>
		<path class="st3" d="M515.5,591.1c1.3,0,3.7,0.2,3.7,3.3c0,1.9-0.5,3.7-3.6,3.7h-0.9v5h2.1c1.7,0,3.7,0.4,3.7,3.3
			c0,2.5-0.8,3.8-3.7,3.8h-2.1v5.2h1c2.3,0,3.6,1.1,3.6,3.3c0,2.4-0.8,3.7-3.7,3.7h-39.3c-1,0-3.8-0.1-3.8-3.4
			c0-2.7,1.3-3.7,3.8-3.7h2.6v-5.2H475c-1,0-3.7-0.1-3.7-3.3c0-2.4,0.8-3.8,3.7-3.8h4.5v-3.3c-2.7,2.4-3.6,2.8-4.7,2.8
			c-2.3,0-3.7-2.4-3.7-4c0-1.5,0.4-1.8,3.5-4.3c1.9-1.6,3.2-3.1,4.9-5.3c1.2-1.5,2.4-1.5,2.9-1.5c1.7,0,4.4,1.2,4,3.6H515.5z
			 M482.8,626c0,1.1-0.4,2.4-1.6,4.9c-2.6,5.6-3.8,5.9-5.3,5.9c-2,0-4.5-1.4-4.5-3.8c0-0.9,0.1-1.1,1.9-3.7c0.6-0.9,1.2-2.2,2.4-4.5
			c0.5-0.9,1.1-1.8,3-1.8C479.4,622.8,482.8,623.2,482.8,626z M493.4,626c0.2,1.4,0.4,4.9,0.4,7c0,1.4,0,3.8-4.1,3.8
			c-1.8,0-3.9-0.4-3.9-3.5c0-0.6,0.1-3.4,0.1-4c-0.2-3.7-0.1-4,0.4-4.8c0.8-1.2,2.3-1.4,3.3-1.4C491.9,623.1,493.2,623.9,493.4,626z
			 M489.4,598.1h-3.2v5h3.2V598.1z M489.4,610.2h-3.2v5.2h3.2V610.2z M498.6,598.1h-3.3v5h3.3V598.1z M498.6,610.2h-3.3v5.2h3.3
			V610.2z M505.7,627.9c0.5,1.4,1.3,4,1.3,5.4c0,3.2-4.1,3.2-4.6,3.2c-3.1,0-3.4-1.7-3.8-4.3c-0.2-1-1.3-5.3-1.3-6.3
			c0-2.3,2.7-2.8,4.1-2.8C504.1,623.1,504.3,623.8,505.7,627.9z M507.9,598.1h-3.3v5h3.3V598.1z M507.9,610.2h-3.3v5.2h3.3V610.2z
			 M518.1,627.2c0.9,1.4,2.4,4.1,2.4,5.5c0,2.9-3.5,3.7-4.8,3.7c-2.2,0-2.5-0.7-4.3-4.7c-0.3-0.6-1.6-3.3-1.9-3.8
			c-0.2-0.4-0.5-1.1-0.5-1.8c0-2.6,3.2-3.3,4.1-3.3C515.5,622.8,515.6,623,518.1,627.2z"/>
		<path class="st3" d="M537.6,593.1v-2.2c0-1,0-3.3,3.4-3.3c2.9,0,3.8,1,3.8,3.3v2.2h5.9c1,0,3.8,0.1,3.8,3.2c0,2.3-0.8,3.7-3.8,3.7
			h-5.9v2.7h7.1c1.8,0,3.7,0.5,3.7,3.4c0,3.2-1.9,3.6-3.7,3.6h-7.1v2.5h3.4c5.3,0,6.4,1,6.4,6.4v9.9c0,4.5-1.7,5.2-5.1,5.2
			c-2.8,0-4-0.4-4.7-2.3v1.8c0,1.2-0.2,3.8-3.4,3.8c-2.5,0-3.9-0.8-3.9-3.8v-14.3h-2.2c-0.6,0-0.9,0.4-0.9,1v10.7
			c0,0.8,0,3.8-3.3,3.8c-2.6,0-3.6-1.3-3.6-3.8v-12.1c0-5.4,1-6.4,6.4-6.4h3.7v-2.5h-8.1c-0.9,0-3.8,0-3.8-3.4
			c0-2.5,1.3-3.4,3.2-3.6c-1.8-0.4-3-1.3-3-3.2c0-0.7,0.1-0.9,1.1-3.4c0.9-2.1,1.2-3.2,1.9-5.4c0.5-1.6,1.1-2.4,2.9-2.4
			c0.9,0,3.8,0.2,3.8,2.8c0,0.7-0.3,1.5-0.4,1.9H537.6z M532.9,600c-0.6,1.5-1.1,2.3-2.3,2.7h7V600H532.9z M544.8,618.9v8.4
			c0.5-1.2,1.2-1.3,1.7-1.3c1.1-0.2,1.2-0.2,1.2-1v-5.1c0-0.6-0.4-1-1-1H544.8z M563,622.2c0,0.9,0,3.3-3.4,3.3
			c-3.2,0-3.5-1.9-3.5-3.3v-27.5c0-0.8,0-3.3,3.4-3.3c3.3,0,3.5,2.1,3.5,3.3V622.2z M565.9,591.4c0-1.3,0.2-3.7,3.6-3.7
			c3.2,0,3.7,1.9,3.7,3.7v38.9c0,6.3-3.5,6.3-9.8,6.3c-3.2,0-6.6,0-6.6-4.3c0-3.9,3.2-3.9,4.2-3.9c4.6,0,4.8,0,4.8-1.9V591.4z"/>
		<path class="st3" d="M588.6,633.2c0,1-0.1,3.8-3.4,3.8c-2.5,0-3.8-0.9-3.8-3.8v-37.6c0-5.4,1-6.5,6.4-6.5h6.2c3.2,0,6.5,0,6.5,5
			c0,2.6-0.7,5-3.1,10.1c-0.2,0.4-1,2.3-1,2.5c0,0.3,0.2,0.5,0.5,0.7c2.9,2.8,4.2,7.4,4.2,11.2c0,8.3-5,8.3-7.7,8.3
			c-2.5,0-4.2-0.1-4.8-2.6V633.2z M588.6,621.3c0.2-0.5,0.5-1.7,2-1.8c1.5-0.1,2.5-0.2,2.5-2.7c0-1.8-0.7-4-2.7-6.7
			c-0.9-1.3-1.2-1.7-1.2-2.7c0-0.8,0.3-1.3,1-3c0.6-1.4,2.5-6.7,2.5-7.3c0-0.8-0.7-0.8-1-0.8h-2c-0.7,0-1,0.4-1,1V621.3z
			 M609.5,613.9v13.4c2.1-0.4,3.4-0.6,4.4-0.6c2.7,0,2.8,3.2,2.8,3.7c0,2.7-1.3,3-6.2,4.1c-1,0.2-9.1,1.9-10.4,1.9
			c-2.9,0-3.3-3.1-3.3-4c0-2.9,1.3-3.2,5.2-3.7v-33.1c0-5.3,0.9-6.4,6.4-6.4H621c5.3,0,6.4,1,6.4,6.4v12c0,5.4-1,6.4-6.4,6.4h-2.4
			c0.4,2.1,0.8,3.4,1.2,4.6c1.1-0.9,1.3-1,3.2-2.7c1-0.9,1.8-1,2.5-1c2.1,0,3.5,2.2,3.5,3.9c0,1.1-0.5,1.9-2.4,3.4
			c-0.6,0.5-2.2,1.7-3.5,2.6c1.1,1.5,1.4,1.9,4.9,5.2c0.8,0.8,1.2,1.7,1.2,2.6c0,2.4-2.3,4.3-4.3,4.3c-2.9,0-6-4.6-8-7.9
			c-3.9-6.5-4.7-12.1-5-14.9H609.5z M620,599v-2.2c0-0.6-0.3-1-1-1h-8.5c-0.7,0-1,0.4-1,1v2.2H620z M620,604.4h-10.5v3.3h9.5
			c0.7,0,1-0.4,1-1V604.4z"/>
	</g>
</g>
<g>
	<g>
		<path class="st3" d="M711.6,552H702c-0.6,0-1.7-0.1-1.7-1.6c0-1.6,1.3-1.6,1.7-1.6h10.5c-0.7-0.6-2-1.7-2.9-2.3
			c-1.7-1.1-2-1.3-2-1.9c0-0.7,0.6-1.7,1.7-1.7c0.4,0,0.9,0.2,1.1,0.3c0.7,0.3,1.4,0.8,3.5,2.3c0.6-0.3,1.7-0.8,2.8-1.5
			c0.4-0.2,1-0.7,1-0.9c0-0.3-0.4-0.3-0.6-0.3h-13.1c-0.8,0-1.7-0.2-1.7-1.6c0-1.6,1.2-1.6,1.7-1.6h16.8c0.9,0,2.7,0,2.7,2.2
			c0,1.2-0.7,1.8-1.3,2.3c-1,0.8-3.9,2.4-6,3.3c0.7,0.7,0.9,0.9,1,1.2h5.9c1,0,2.8,0,2.8,2.3c0,0.9-0.3,1.6-0.7,2.1
			c-0.7,1-2.1,2.7-3.8,4.2c-1.6,1.5-1.8,1.5-2.3,1.5c-1,0-2-1-2-1.9c0-0.6,0.1-0.7,1.6-1.9c1.6-1.3,2.5-2.6,2.5-2.8
			c0-0.3-0.4-0.3-0.6-0.3h-5.6v9.4c0,0.7,0,2.5-1.5,3.1c-0.8,0.4-3.1,0.4-4.2,0.4c-0.7,0-2.3,0-2.8-0.2c-0.5-0.2-1-0.8-1-1.7
			c0-1.7,1.5-1.7,1.9-1.7c0.2,0,1.9,0.1,2.3,0.1c0.9,0,1.5,0,1.5-1.1V552z"/>
		<path class="st3" d="M733.7,553.4c-0.7,0.1-2.4,0.2-3,0.2c-0.3,0-1.4,0-1.4-1.6c0-0.6,0.3-1,0.6-1.2c0.2-0.2,0.4-0.2,1.8-0.2
			c0.3-0.4,0.6-0.6,1.2-1.5c-0.9-1.3-1.9-2.3-2.3-2.6c-1.1-1.1-1.2-1.2-1.2-1.8c0-0.6,0.5-1.7,1.6-1.7c0.4,0,0.5,0.1,0.7,0.2
			c0.4-0.6,0.9-1.5,1.3-2.3c0.7-1.4,1-1.9,1.8-1.9c0.6,0,1.9,0.5,1.9,1.5c0,0.5-0.2,0.9-0.8,2c-0.6,1-1.4,2.3-1.9,3
			c0.3,0.4,0.4,0.6,0.8,1c0.9-1.5,1.4-2.2,2-3.3c0.6-1.1,0.8-1.4,1.6-1.4c0.8,0,1.9,0.5,1.9,1.5c0,0.5-0.2,0.8-0.9,1.8
			c-2.2,3.4-3,4.4-3.8,5.3c1.4-0.1,1.6-0.1,2.3-0.2c-0.2-0.6-0.4-1.1-0.4-1.4c0-0.7,0.8-1,1.3-1c0.7,0,0.9,0.5,1.4,1.5
			c0.1,0.3,1.2,3.1,1.2,3.9c0,0.9-1,1.2-1.4,1.2c-0.8,0-0.9-0.5-1.2-1.5c-0.3,0.1-1.6,0.2-1.8,0.3v10.5c0,0.8-0.2,1.5-1.7,1.5
			c-1.5,0-1.5-1.1-1.5-1.5V553.4z M732.9,556c0,0.4-0.2,4-0.5,5.5c-0.2,1.1-0.4,1.5-1.4,1.5c-0.4,0-1.5-0.1-1.5-1.2
			c0-0.5,0.5-2.7,0.6-3.2c0.1-0.5,0.3-2.8,0.3-3.1c0.1-0.8,0.9-0.8,1.2-0.8C732.8,554.8,732.9,555.5,732.9,556z M740.5,556.8
			c0.1,0.6,0.5,2.8,0.5,3.9c0,0.7-0.1,1.4-1.3,1.4c-1.2,0-1.2-0.4-1.4-2.1c-0.2-1.6-0.3-2.2-0.4-2.9c-0.1-0.8-0.2-1-0.2-1.3
			c0-1,0.9-1.1,1.4-1.1C740.1,554.7,740.2,555.5,740.5,556.8z M751.3,542.7c3.1,0,3.2,1.8,3.2,4.1c0,5.4-0.2,12.3-0.7,14.6
			c-0.2,1.3-0.9,3-2.6,3.3c-0.6,0.1-1.3,0.2-3.5,0.2c-2,0-2.4-0.1-2.8-0.2c-0.7-0.3-1-1-1-1.7c0-1.7,1.5-1.7,2-1.7
			c0.4,0,2.1,0.1,2.4,0.1c1.8,0,1.9-0.5,2.2-2.3c0.4-2.8,0.5-8.5,0.5-11.6c0-1,0-1.6-1-1.6h-5c-1,2.2-1.7,3.3-1.8,3.4
			c-0.4,0.6-0.7,0.8-1.2,0.8c-0.9,0-1.8-0.7-1.8-1.7c0-0.5,0.2-0.8,0.6-1.5c1.5-2.3,2.2-4.7,2.7-6.6c0.2-0.7,0.4-1.4,1.6-1.4
			c0.5,0,1.7,0.1,1.7,1.2c0,0.5-0.2,1.1-0.6,2.6H751.3z M747,551.8c0.4,0.8,1.5,3,1.5,3.7c0,0.9-1,1.5-1.9,1.5c-1,0-1.2-0.5-1.7-1.9
			c-0.4-1-0.6-1.4-1.5-3.3c-0.2-0.4-0.3-0.7-0.3-1.1c0-0.8,0.8-1.3,1.5-1.4C745.7,549.3,746,549.9,747,551.8z"/>
		<path class="st3" d="M781,561.6c0,0.6,0,2.3-1.4,2.9c-0.6,0.3-0.9,0.4-6.8,0.4c-1.6,0-3,0-3-1.9c0-1.7,1.2-1.7,2-1.7
			c0.6,0,3.3,0.1,3.5,0.1c1.4,0,2.1,0,2.1-1.1v-17h-17.6c-0.5,0-1.7-0.1-1.7-1.5c0-1.2,0.4-1.8,1.7-1.8h22.8c0.6,0,1.7,0.1,1.7,1.5
			c0,1.2-0.4,1.7-1.7,1.7H781V561.6z M774.3,555.7c0,2.5-1,3.2-3.2,3.2h-7.3c-2.2,0-3.2-0.7-3.2-3.2v-6.8c0-2.5,1.1-3.2,3.2-3.2h7.3
			c2.1,0,3.2,0.7,3.2,3.2V555.7z M771,549.7c0-0.6-0.3-1-1-1H765c-0.7,0-0.9,0.4-0.9,1v5.1c0,0.6,0.3,1,0.9,1h5.1c0.7,0,1-0.4,1-1
			V549.7z"/>
		<path class="st3" d="M790.2,540.8c0.6-1.5,0.7-1.9,1.8-1.9c0.9,0,1.8,0.5,1.8,1.3c0,0.5-0.2,0.8-0.8,2c-0.4,0.7-0.7,1.2-0.9,1.6
			c1.9-0.1,2.2-0.1,4.1-0.3c-0.9-1.6-1-1.7-1-2.1c0-0.8,0.8-1.3,1.6-1.3c0.8,0,1.1,0.4,2,2c1.8,3.1,1.9,3.4,1.9,3.8
			c0,0.8-0.9,1.5-1.7,1.5c-0.9,0-1.1-0.5-1.6-1.5c-4.4,0.6-8.5,0.9-8.9,0.9c-1.2,0-1.4-1-1.4-1.6c0-1.4,0.9-1.4,1.8-1.4
			C789.7,542,790,541.3,790.2,540.8z M791.6,559.1v4.3c0,0.5,0,1.7-1.5,1.7c-1.2,0-1.7-0.4-1.7-1.7V551c0-2.5,0.5-3.1,3.1-3.1h4.8
			c2.5,0,3.1,0.6,3.1,3.1v10.7c0,2.6-0.7,3.1-3.3,3.1c-0.5,0-1.4,0-1.8-0.1c-0.7-0.2-0.8-1.2-0.8-1.5c0-1.4,0.9-1.4,1.7-1.4
			c0.7,0,1.1,0,1.1-0.7v-2H791.6z M791.6,552.4h4.6v-1c0-0.4-0.2-0.7-0.7-0.7h-3.2c-0.5,0-0.7,0.2-0.7,0.7V552.4z M796.2,554.8h-4.6
			v1.8h4.6V554.8z M804.7,547.2c0,1,0.5,1,1.8,1c0.4,0,2.4,0,2.6-0.1c0.5-0.1,0.6-0.4,0.8-1.8c0.2-1.1,0.3-1.7,1.5-1.7
			c0.2,0,1.8,0,1.8,1.5c0,0.6-0.3,3.2-1,4.2c-0.7,0.9-1.2,0.9-4.8,0.9c-3,0-3.2,0-3.6-0.1c-2.5-0.2-2.5-2.2-2.5-3v-7.7
			c0-0.6,0.1-1.7,1.6-1.7c1.2,0,1.8,0.4,1.8,1.7v1.8c1.5-0.4,3.5-1.3,4.1-1.6c1.6-0.8,1.7-0.9,2.1-0.9c0.8,0,1.5,0.8,1.5,1.7
			c0,0.9-0.6,1.2-2.2,1.8c-2.6,1-4.5,1.5-5.5,1.7V547.2z M804.7,560.6c0,1,0.5,1,1.7,1h0.9c1.8,0,1.9,0,2.1-0.2
			c0.2-0.2,0.3-0.6,0.5-1.9c0.1-1,0.2-1.8,1.6-1.8c0.2,0,1.8,0,1.8,1.4c0,0.1-0.2,3.7-1.1,4.7c-0.7,0.8-1.5,0.9-5,0.9
			c-3.8,0-4.2-0.1-4.7-0.4c-1.1-0.6-1.2-1.7-1.2-2.7v-8.3c0-0.6,0.1-1.7,1.6-1.7c1.1,0,1.8,0.3,1.8,1.7v1.9c1.3-0.5,2.9-1,4.1-1.7
			c1.4-0.8,1.6-0.9,2-0.9c1,0,1.6,1.1,1.6,1.8c0,0.7-0.3,1-2.3,1.9c-0.7,0.3-2.5,1-5.4,1.9V560.6z"/>
		<path class="st3" d="M827.3,540.8c0-0.5,0-1.8,1.9-1.8c1.9,0,1.9,1.2,1.9,1.8v2.6c0,2.1,0.3,7.9,3.6,12.3c1.6,2.2,3.7,3.9,6.1,5.2
			c0.7,0.4,1.3,0.7,1.3,1.7c0,0.8-0.6,2.1-2,2.1c-1.4,0-4.7-2.8-6.5-4.8c-2.2-2.4-3.6-5.5-4.4-8.6c-1.3,5-3.2,7.4-5,9.2
			c-1.6,1.6-4.6,4.2-6,4.2c-1.2,0-2-1.1-2-2.1c0-0.9,0.5-1.2,1-1.5c3.6-2,7.6-4.8,9.4-12.2c0.3-1.2,0.6-5,0.6-5.4V540.8z"/>
		<path class="st3" d="M846.5,556.3c-0.9,0-1.4-0.5-1.4-1.4c0-1,0.6-1.4,1.5-1.4h2.7c0.6-1.4,0.6-1.6,0.8-1.7
			c0.3-0.3,0.6-0.3,0.8-0.3c-0.1-0.2-0.1-0.3-0.1-0.7v-2.4c-0.1,0.1-2.9,3.4-4.2,3.4c-1,0-1.5-0.9-1.5-1.8c0-0.6,0.2-0.7,1.8-1.7
			c1.3-0.8,2.1-1.6,2.7-2.2h-3c-0.4,0-1.4,0-1.4-1.3c0-1.2,0.8-1.3,1.4-1.3h4.2v-3c0-0.4,0-1.5,1.5-1.5c1.3,0,1.7,0.5,1.7,1.5v3h3.8
			c0.4,0,1.4,0,1.4,1.3c0,1.3-1,1.4-1.4,1.4h-2.7c0.9,1,1,1.1,2.5,2.3c0.3,0.2,0.5,0.5,0.5,1c1.9-2.8,2.6-5.1,3.4-8.8
			c0.2-0.9,0.5-1.5,1.7-1.5c0.3,0,1.8,0,1.8,1.2c0,0.3-0.5,2.2-0.7,2.8h5.2c0.5,0,1.6,0.1,1.6,1.7c0,1.7-1.2,1.7-1.7,1.7
			c-0.2,4-0.9,7.9-2.8,11.5c0.9,1.2,1.1,1.4,3.5,3.4c0.8,0.7,0.9,1.2,0.9,1.5c0,1-0.8,2-1.8,2c-0.5,0-1-0.1-2.4-1.5
			c-1.2-1.1-1.9-2-2.2-2.5c-0.9,1.1-2,2-3.8,3.3c-0.9,0.6-1.2,0.7-1.5,0.7c-0.7,0-1.5-0.4-1.7-1.4c-0.2,0.2-0.4,0.4-1,0.4
			c-0.3,0-0.6-0.1-1.2-0.5c-0.6-0.4-1.2-0.7-1.9-1.1c-2.4,1.8-5.5,2.6-6.6,2.6c-1,0-1.4-1-1.4-1.7c0-1,0.8-1.2,1.3-1.3
			c2-0.4,3.4-1,3.6-1.1c-0.7-0.3-1.8-0.6-2.5-0.9c-0.4-0.2-0.9-0.6-0.9-1.3c0-0.5,0.2-1,0.3-1.1c0.4-0.6,0.4-0.7,0.7-1.2H846.5z
			 M848,543.3c-0.7,0-0.8-0.2-1.3-1.2c-0.6-1.2-0.7-1.3-0.7-1.6c0-0.6,0.7-1.1,1.5-1.1c0.7,0,0.9,0.2,1.3,0.9
			c0.2,0.3,0.8,1.2,0.8,1.9C849.7,542.7,849.1,543.3,848,543.3z M851.2,556.3c-0.1,0.2-0.3,0.6-0.4,0.9c-0.3,0.6-0.3,0.6-0.3,0.8
			c0,0.1,0,0.2,0.2,0.4c0.1,0.1,1.9,0.6,2.3,0.8c0.4-0.5,1-1.2,1.5-2.8H851.2z M857.5,556.3c-0.6,2.3-1.3,3.3-1.7,3.9
			c0.3,0.1,1.6,0.8,1.8,0.9c0.1,0.1,0.4,0.2,0.5,0.8c0.2-0.2,1.4-0.9,1.6-1c1.4-0.9,2.1-1.5,3.1-2.8c-0.5-1-1.5-3.1-2.1-6.3
			c-0.4,0.5-0.8,1.2-1.7,1.2c-0.9,0-1.9-0.9-1.8-1.9c-0.1,0-0.2,0.1-0.4,0.1c-0.7,0-1.4-0.8-2.8-2.6v2.3c0,0.7-0.2,1.4-1.2,1.5
			c0.1,0.1,0.1,0.2,0.1,0.3c0,0.4-0.2,0.7-0.3,1h5.4c0.8,0,1.5,0.4,1.5,1.4c0,1.2-0.9,1.4-1.5,1.4H857.5z M858.8,540.5
			c0,0.7-0.9,1.9-1,2.1c-0.3,0.4-0.6,0.7-1.2,0.7c-0.6,0-1.5-0.3-1.5-1.2c0-0.3,0.1-0.4,0.6-1.4c0.7-1.2,0.8-1.4,1.6-1.4
			C857.4,539.3,858.8,539.4,858.8,540.5z M863.3,546.5c-0.1,0.4-0.2,0.5-0.3,0.7c0.2,2.3,0.6,4.9,1.7,7.4c1-2.7,1.4-5.2,1.5-8.1
			H863.3z"/>
		<path class="st3" d="M750.9,591.1c1.3,0,3.7,0.2,3.7,3.3c0,1.9-0.5,3.7-3.6,3.7h-0.9v5h2.1c1.7,0,3.7,0.4,3.7,3.3
			c0,2.5-0.8,3.8-3.7,3.8h-2.1v5.2h1c2.3,0,3.6,1.1,3.6,3.3c0,2.4-0.8,3.7-3.7,3.7h-39.3c-1,0-3.8-0.1-3.8-3.4
			c0-2.7,1.3-3.7,3.8-3.7h2.6v-5.2h-3.9c-1,0-3.7-0.1-3.7-3.3c0-2.4,0.8-3.8,3.7-3.8h4.5v-3.3c-2.7,2.4-3.6,2.8-4.7,2.8
			c-2.3,0-3.7-2.4-3.7-4c0-1.5,0.4-1.8,3.5-4.3c1.9-1.6,3.2-3.1,4.9-5.3c1.2-1.5,2.4-1.5,2.9-1.5c1.7,0,4.4,1.2,4,3.6H750.9z
			 M718.2,626c0,1.1-0.4,2.4-1.6,4.9c-2.6,5.6-3.8,5.9-5.3,5.9c-2,0-4.5-1.4-4.5-3.8c0-0.9,0.1-1.1,1.9-3.7c0.6-0.9,1.2-2.2,2.4-4.5
			c0.5-0.9,1.1-1.8,3-1.8C714.8,622.8,718.2,623.2,718.2,626z M728.8,626c0.2,1.4,0.4,4.9,0.4,7c0,1.4,0,3.8-4.1,3.8
			c-1.8,0-3.9-0.4-3.9-3.5c0-0.6,0.1-3.4,0.1-4c-0.2-3.7-0.1-4,0.4-4.8c0.8-1.2,2.3-1.4,3.3-1.4C727.3,623.1,728.6,623.9,728.8,626z
			 M724.8,598.1h-3.2v5h3.2V598.1z M724.8,610.2h-3.2v5.2h3.2V610.2z M734.1,598.1h-3.3v5h3.3V598.1z M734.1,610.2h-3.3v5.2h3.3
			V610.2z M741.1,627.9c0.5,1.4,1.3,4,1.3,5.4c0,3.2-4.1,3.2-4.6,3.2c-3.1,0-3.4-1.7-3.8-4.3c-0.2-1-1.3-5.3-1.3-6.3
			c0-2.3,2.7-2.8,4.1-2.8C739.5,623.1,739.8,623.8,741.1,627.9z M743.3,598.1H740v5h3.3V598.1z M743.3,610.2H740v5.2h3.3V610.2z
			 M753.5,627.2c0.9,1.4,2.4,4.1,2.4,5.5c0,2.9-3.5,3.7-4.8,3.7c-2.2,0-2.5-0.7-4.3-4.7c-0.3-0.6-1.6-3.3-1.9-3.8
			c-0.2-0.4-0.5-1.1-0.5-1.8c0-2.6,3.2-3.3,4.1-3.3C751,622.8,751,623,753.5,627.2z"/>
		<path class="st3" d="M773,593.1v-2.2c0-1,0-3.3,3.4-3.3c2.9,0,3.8,1,3.8,3.3v2.2h5.9c1,0,3.8,0.1,3.8,3.2c0,2.3-0.8,3.7-3.8,3.7
			h-5.9v2.7h7.1c1.8,0,3.7,0.5,3.7,3.4c0,3.2-1.9,3.6-3.7,3.6h-7.1v2.5h3.4c5.3,0,6.4,1,6.4,6.4v9.9c0,4.5-1.7,5.2-5.1,5.2
			c-2.8,0-4-0.4-4.7-2.3v1.8c0,1.2-0.2,3.8-3.4,3.8c-2.5,0-3.9-0.8-3.9-3.8v-14.3h-2.2c-0.6,0-0.9,0.4-0.9,1v10.7
			c0,0.8,0,3.8-3.3,3.8c-2.6,0-3.6-1.3-3.6-3.8v-12.1c0-5.4,1-6.4,6.4-6.4h3.7v-2.5h-8.1c-0.9,0-3.8,0-3.8-3.4
			c0-2.5,1.3-3.4,3.2-3.6c-1.8-0.4-3-1.3-3-3.2c0-0.7,0.1-0.9,1.1-3.4c0.9-2.1,1.2-3.2,1.9-5.4c0.5-1.6,1.1-2.4,2.9-2.4
			c0.9,0,3.8,0.2,3.8,2.8c0,0.7-0.3,1.5-0.4,1.9H773z M768.3,600c-0.6,1.5-1.1,2.3-2.3,2.7h7V600H768.3z M780.2,618.9v8.4
			c0.5-1.2,1.2-1.3,1.7-1.3c1.1-0.2,1.2-0.2,1.2-1v-5.1c0-0.6-0.4-1-1-1H780.2z M798.5,622.2c0,0.9,0,3.3-3.4,3.3
			c-3.2,0-3.5-1.9-3.5-3.3v-27.5c0-0.8,0-3.3,3.4-3.3c3.3,0,3.5,2.1,3.5,3.3V622.2z M801.3,591.4c0-1.3,0.2-3.7,3.6-3.7
			c3.2,0,3.7,1.9,3.7,3.7v38.9c0,6.3-3.5,6.3-9.8,6.3c-3.2,0-6.6,0-6.6-4.3c0-3.9,3.2-3.9,4.2-3.9c4.5,0,4.8,0,4.8-1.9V591.4z"/>
		<path class="st3" d="M824,633.2c0,1-0.1,3.8-3.4,3.8c-2.5,0-3.8-0.9-3.8-3.8v-37.6c0-5.4,1-6.5,6.4-6.5h6.2c3.2,0,6.5,0,6.5,5
			c0,2.6-0.7,5-3,10.1c-0.2,0.4-1,2.3-1,2.5c0,0.3,0.2,0.5,0.5,0.7c2.9,2.8,4.2,7.4,4.2,11.2c0,8.3-5,8.3-7.6,8.3
			c-2.5,0-4.2-0.1-4.8-2.6V633.2z M824,621.3c0.2-0.5,0.5-1.7,2-1.8c1.5-0.1,2.5-0.2,2.5-2.7c0-1.8-0.7-4-2.7-6.7
			c-0.9-1.3-1.2-1.7-1.2-2.7c0-0.8,0.3-1.3,1-3c0.6-1.4,2.5-6.7,2.5-7.3c0-0.8-0.7-0.8-1-0.8h-2c-0.7,0-1,0.4-1,1V621.3z M845,613.9
			v13.4c2.1-0.4,3.4-0.6,4.4-0.6c2.7,0,2.8,3.2,2.8,3.7c0,2.7-1.3,3-6.2,4.1c-1,0.2-9.1,1.9-10.4,1.9c-2.9,0-3.3-3.1-3.3-4
			c0-2.9,1.3-3.2,5.2-3.7v-33.1c0-5.3,0.9-6.4,6.4-6.4h12.6c5.3,0,6.4,1,6.4,6.4v12c0,5.4-1,6.4-6.4,6.4h-2.4
			c0.4,2.1,0.8,3.4,1.2,4.6c1.1-0.9,1.3-1,3.2-2.7c1-0.9,1.8-1,2.5-1c2.1,0,3.5,2.2,3.5,3.9c0,1.1-0.5,1.9-2.4,3.4
			c-0.6,0.5-2.2,1.7-3.5,2.6c1.1,1.5,1.4,1.9,4.9,5.2c0.8,0.8,1.2,1.7,1.2,2.6c0,2.4-2.3,4.3-4.3,4.3c-2.9,0-6-4.6-8-7.9
			c-3.9-6.5-4.7-12.1-5-14.9H845z M855.4,599v-2.2c0-0.6-0.3-1-1-1h-8.5c-0.7,0-1,0.4-1,1v2.2H855.4z M855.4,604.4H845v3.3h9.5
			c0.7,0,1-0.4,1-1V604.4z"/>
	</g>
</g>
<g>
	<g>
		<path class="st3" d="M975.7,540.4c0-0.8,0.2-1.6,1.7-1.6c0.8,0,1.9,0.1,1.9,1.6v1h9c0.6,0,1.7,0.1,1.7,1.5c0,1.2-0.4,1.8-1.7,1.8
			h-17.6c-0.8,0-1.2,0.4-1.2,1.2v6c0,4.8-0.9,8.4-1.7,10.8c-0.5,1.3-0.9,2.1-2,2.1c-1.1,0-2-0.7-2-1.8c0-0.4,0-0.4,1-2.9
			c0.8-2.1,1.2-5,1.2-8.1v-6.8c0-2.8,1.2-3.7,3.7-3.7h5.9V540.4z M970.4,564c-0.4,0-1.7,0-1.7-1.7c0-1.5,0.9-1.5,2.8-1.7
			c0.2-0.4,0.6-1.3,1.1-2.9c0.4-1.1,1.4-4.4,2.1-6.8c0.1-0.4,0.7-2.7,0.9-3.3c0.4-1.4,0.6-2.2,1.9-2.2c0.7,0,2,0.2,2,1.4
			c0,0.6-0.7,2.6-0.9,3.4c-2,6.3-2.3,7.1-3.5,9.9c5.7-0.4,6.2-0.4,9.5-0.9c-0.2-0.6-1.1-2.3-2-4c-1-1.8-1-1.9-1-2.3
			c0-0.8,0.9-1.5,1.8-1.5c0.8,0,1.2,0.4,2.4,2.6c1.3,2.5,3.9,7.4,3.9,8.7c0,1.3-1.2,1.7-1.8,1.7c-1.1,0-1.3-0.5-2.1-2.3
			C981.4,563.1,970.7,564,970.4,564z"/>
		<path class="st3" d="M1004.6,542.6v-1.9c0-0.6,0.1-1.7,1.7-1.7c1.4,0,1.9,0.4,1.9,1.7v1.9h7.6c0.4,0,1.7,0,1.7,1.5
			c0,1.4-1,1.5-1.7,1.5h-7.6v3.4h9.3c0.7,0,1.7,0.1,1.7,1.5c0,1.2-0.6,1.5-1.7,1.5h-22.7c-0.4,0-1.7,0-1.7-1.5
			c0-1.2,0.6-1.6,1.7-1.6h9.8v-3.4h-5.7c-0.3,0.5-0.9,1.3-1.6,2c-0.3,0.3-0.6,0.7-1.3,0.7c-1,0-2-0.8-2-1.7c0-0.6,0.1-0.7,1.6-2.5
			c1.3-1.6,2.1-3.3,2.4-3.8c0.4-0.7,0.6-1.1,1.5-1.1c0.5,0,2,0.2,2,1.4c0,0.3,0,0.7-0.6,1.9H1004.6z M1016.5,561.2
			c0,2.4-1,3.2-3.2,3.2H999c-2.2,0-3.2-0.7-3.2-3.2v-3.9c0-2.4,1-3.2,3.2-3.2h14.3c2.2,0,3.2,0.8,3.2,3.2V561.2z M1012.9,558.1
			c0-0.6-0.3-1-0.9-1h-11.7c-0.7,0-1,0.3-1,1v2.4c0,0.7,0.4,0.9,1,0.9h11.7c0.6,0,0.9-0.3,0.9-0.9V558.1z"/>
		<path class="st3" d="M1037.9,552.3c0.7,1.6,1.2,2.5,2.1,3.7c1.8-1.2,1.8-1.2,3.4-2.6c0.7-0.7,0.9-0.8,1.4-0.8
			c0.9,0,1.8,0.7,1.8,1.7c0,0.6-0.3,1-0.8,1.4c-0.8,0.6-2.7,1.9-3.6,2.5c0.7,0.6,2,1.7,4.2,2.8c1,0.5,1.5,0.8,1.5,1.7
			c0,0.9-0.7,1.9-1.7,1.9c-1.4,0-4.6-2.3-6.6-4.2c-2.7-2.6-3.8-5.2-4.8-7.9c-1,1.1-1.8,1.9-2.8,2.8v5.2c2.3-0.4,2.6-0.4,4.7-0.8
			c0.4-0.1,0.7-0.1,0.7-0.1c0.9,0,1.3,0.7,1.3,1.6c0,1.1-0.6,1.3-1,1.4c-0.2,0.1-2.3,0.5-2.7,0.6c-1.5,0.3-8.2,1.3-9.1,1.3
			c-1.5,0-1.5-1.6-1.5-1.7c0-1.2,0.9-1.4,1.4-1.5c0.4-0.1,2.4-0.3,2.9-0.3v-3.6c-1.9,1-3.9,2-5.1,2c-1.1,0-1.5-1.2-1.5-1.9
			c0-1,0.8-1.3,1.3-1.4c2.3-0.7,4.7-1.6,7.4-3.9h-7.3c-0.7,0-1.5-0.2-1.5-1.4c0-1.4,1-1.4,1.5-1.4h9.9V548h-7.9
			c-0.9,0-1.5-0.3-1.5-1.4c0-1.3,1-1.4,1.5-1.4h7.9v-1.3h-9.2c-1,0-1.5-0.4-1.5-1.5c0-1.4,1-1.4,1.5-1.4h9.2v-0.9
			c0-1.2,0.9-1.3,1.9-1.3c0.7,0,1.6,0.2,1.6,1.3v0.9h9.2c1,0,1.5,0.4,1.5,1.5c0,1.4-1.1,1.4-1.5,1.4h-9.2v1.3h7.9
			c1,0,1.5,0.5,1.5,1.4c0,1.3-1.1,1.3-1.5,1.3h-7.9v1.5h9.9c0.7,0,1.4,0.2,1.4,1.4c0,1.4-0.9,1.4-1.4,1.4H1037.9z"/>
		<path class="st3" d="M1065.8,561.4c0,3.5-1.9,3.5-5.3,3.5c-0.6,0-1.5,0-2-0.1c-1.2-0.3-1.3-1.5-1.3-1.8c0-1.7,1.2-1.7,1.8-1.7
			c0.3,0,1.8,0.1,2,0.1c0.6,0,1.2,0,1.2-0.9v-10.1h-9.7c-0.3,0-1.6,0-1.6-1.6c0-1.4,1-1.7,1.6-1.7h22.9c0.3,0,1.6,0,1.6,1.6
			c0,1.5-1,1.7-1.6,1.7h-9.6V561.4z M1058.7,553.4c0,0.8-1.2,4.4-3,7.4c-1.2,2.1-1.7,2.5-2.5,2.5c-0.8,0-2-0.7-2-1.8
			c0-0.6,0.1-0.6,1.5-2.7c1.3-1.9,2.1-4.4,2.6-5.9c0.3-0.8,0.9-1,1.4-1C1057.3,551.9,1058.7,552.2,1058.7,553.4z M1073.7,539.9
			c0.4,0,1.7,0,1.7,1.6c0,1.5-1.1,1.7-1.7,1.7h-19.3c-0.3,0-1.7,0-1.7-1.6c0-1.4,0.9-1.7,1.7-1.7H1073.7z M1072.6,552.9
			c0.7,1.9,1.4,4,2.8,6c1.4,2,1.4,2.1,1.4,2.6c0,1-1.2,1.8-2.1,1.8c-0.6,0-1.2-0.2-2.3-2.3c-1.9-3.4-3.1-6.7-3.1-7.6
			c0-1.4,2-1.4,2-1.4C1071.9,551.9,1072.4,552.2,1072.6,552.9z"/>
		<path class="st3" d="M959.4,607.7c2.5,0,4,1.3,4,4.1c0,3-1.5,4.3-4,4.3H919c-2.6,0-4-1.3-4-4.1c0-3,1.5-4.3,4-4.3H959.4z"/>
		<path class="st3" d="M990,597.3c-1.1,0-3.9-0.1-3.9-3.6c0-3.1,1.4-4,3.9-4h19.6c2.1,0,6.7,0.1,7.1,5.6c0.1,1.5,0.1,5.4,0.1,7.2
			c0,5.9-0.3,18.5-1.1,24.7c-1.2,8.7-3.7,9.5-10,9.5c-3.9,0-4.9-0.2-5.7-0.4c-2.9-0.6-3-3.4-3-3.9c0-1.4,0.8-3.6,3.4-3.6
			c0.7,0,3.5,0.3,4.1,0.3c2.1,0,3.1,0,3.8-8.1c0.6-6.2,0.6-20.1,0.6-20.8c0-2.3,0-2.7-1.3-2.7h-3.9c-0.2,17.3-2.5,25.2-7.2,31
			c-5.1,6.3-12.3,8.7-14.8,8.7c-2,0-4-1.9-4-4.3c0-1.8,1.4-2.5,2-2.8c0.8-0.4,4.7-1.7,5.5-2c-1.1,0.2-1.6,0.2-2.5,0.2
			c-5.2,0-5.6,0-6.9-0.5c-2.7-1-2.7-3.1-2.7-6v-11.2c-0.4,0.1-0.6,0.1-1,0.1c-1.9,0-3.3-1.7-3.3-4c0-1.9,0.9-3,2.9-3.5l1.4-0.3
			v-11.2c0-0.9,0-3.9,3.7-3.9c3.3,0,4,1.6,4,3.9v9.4l6.4-1.5c0.3-0.1,0.9-0.2,1.5-0.2c2.1,0,3.3,2.2,3.3,4.1c0,1.8-1,3-2.8,3.5
			l-8.3,1.9v10.6c0,1.1,0.4,1.1,1.7,1.1c1.3,0,1.4-1,1.7-3.4c0.2-1.7,0.4-3.6,3-3.6c3.2,0,3.6,1.7,3.6,3.4c0,0.8-0.2,3.6-0.8,5.9
			c-0.3,1.1-0.7,2.3-1.4,3.3c6.5-5.5,7.5-15.7,7.5-28.7H990z"/>
		<path class="st3" d="M1034.4,622.6c-1.2,2.3-2.1,4-4.5,4c-1.9,0-4.6-1.2-4.6-3.8c0-1.1,0.2-1.4,1.9-4.5c0.4-0.8,2.7-5,6-13.6
			c-3.9,0.2-7.5,0.3-7.5-4.1c0-3.9,3.2-3.9,4.4-3.9c1.1,0,4.8,0,5.8-0.1c0.2-0.8,1.1-4.4,1.4-5.2c0.8-2.3,2.6-2.6,3.7-2.6
			c2.4,0,4.6,1.2,4.6,3.3c0,0.7-0.2,1.4-0.8,3.8c2.2-0.3,2.5-0.3,2.9-0.3c2.6,0,3.3,2.2,3.3,3.7c0,3.5-1.4,4.2-8.9,4.9
			C1039.9,610.3,1037.5,616.7,1034.4,622.6z M1051.9,609.3c0-2.9,1.9-3.6,3.5-3.6c4.1,0,4.3,2.9,4.4,3.8c0.1,1.5,0.3,6.2,0.4,8.6
			c2.9,1.2,5.4,2.3,7.8,4c1.4,1,2.1,1.8,2.1,3.3c0,2-1.4,4.6-3.8,4.6c-0.7,0-1.2-0.2-1.7-0.5c-0.6-0.4-3.5-2.2-4.2-2.5
			c-0.2,2.3-0.8,3.7-1.7,4.8c-2.3,2.9-6.9,3.4-9.3,3.4c-7.1,0-12.3-3.6-12.3-9.5c0-4.8,3.5-9.7,11.9-9.7c1.3,0,2.3,0.1,3,0.2
			C1052.2,615,1051.9,610.3,1051.9,609.3z M1048.3,622.7c-1.4,0-3.9,0.5-3.9,2.6c0,2.3,2.9,2.7,4.2,2.7c4.1,0,4-1.8,3.9-4.5
			C1051.7,623.2,1050.1,622.7,1048.3,622.7z M1066,599.6c2.7,1.4,4.1,2.1,4.1,4.2c0,2-1.3,4.5-3.5,4.5c-1.1,0-1.5-0.2-5-2.2
			c-2.8-1.6-4-2.1-5.8-2.8c-1.2-0.5-2.6-1.1-2.6-3.1c0-2.6,2-4.2,4-4.2C1059,596,1063.8,598.5,1066,599.6z"/>
		<path class="st3" d="M1086.3,595c0.1-3.2,0.3-5.8,4.4-5.8c4.7,0,4.4,3,4.3,6.2l-0.8,21.6c-0.2,3.6-0.4,9.7,7.3,9.7
			c3.5,0,9.2-1.1,13.6-10.9c1.3-2.9,1.9-4.2,4.2-4.2c1.8,0,4.6,1.2,4.6,3.9c0,2.8-3.5,8.3-3.7,8.6c-2.2,3.4-7.4,10.9-18.7,10.9
			c-9.1,0-13.3-4.4-14.9-8.3c-1-2.3-1.3-4.8-1.1-9.5L1086.3,595z"/>
	</g>
</g>
<rect x="930" y="334" class="st0" width="183.7" height="183.7"/>
<rect x="694.6" y="334" class="st0" width="183.7" height="183.7"/>
<rect x="459.2" y="334" class="st0" width="183.7" height="183.7"/>
</svg>
