<?xml version="1.0" encoding="utf-8"?>
<!-- Generator: Adobe Illustrator 28.0.0, SVG Export Plug-In . SVG Version: 6.00 Build 0)  -->
<svg version="1.1" id="レイヤー_1" xmlns="http://www.w3.org/2000/svg" xmlns:xlink="http://www.w3.org/1999/xlink" x="0px"
	 y="0px" viewBox="0 0 1200 793.9" style="enable-background:new 0 0 1200 793.9;" xml:space="preserve">
<style type="text/css">
	.st0{fill:#F3A11A;}
	.st1{fill:#FBFBFB;}
	.st2{fill:#FFFFFF;}
	.st3{fill:#80DEF0;}
	.st4{fill:#F8CA7F;}
	.st5{fill:#4D4D4D;}
	.st6{fill:#FFE964;}
	.st7{fill:#FFFF00;}
	.st8{fill:#F29600;}
	.st9{fill:#FCEACC;}
	.st10{fill:none;stroke:url(#);stroke-width:6.8925;stroke-linecap:round;stroke-linejoin:round;}
	.st11{fill:none;}
	.st12{fill:#DADBDB;}
	.st13{fill:#251E1C;}
	.st14{fill:#66D7ED;}
	.st15{fill:#727171;}
	.st16{fill:#FEF4E5;}
	.st17{fill:#CCCCCC;}
	.st18{fill:none;stroke:#808080;stroke-width:1.5318;stroke-miterlimit:10;}
	.st19{fill:#E85151;}
	.st20{fill:#FFD759;}
	.st21{fill:#4BD961;}
	.st22{fill:none;stroke:#E6E6E6;stroke-width:1.8093;stroke-miterlimit:10;}
	.st23{fill:#999999;}
	.st24{fill:none;stroke:#CED4DA;stroke-width:1.8093;stroke-miterlimit:10;}
	.st25{fill:#59C2E1;}
	.st26{fill:#796A56;}
	.st27{fill:#9CDBED;}
	.st28{fill:none;stroke:#F29600;stroke-width:1.8093;stroke-miterlimit:10;}
	.st29{fill:none;stroke:#797979;stroke-width:1.7231;stroke-miterlimit:10;}
	.st30{fill:#F2F2F2;}
	.st31{fill:#EAECEF;}
</style>
<rect x="0" y="0" class="st1" width="1200" height="793.9"/>
<g>
	<g>
		<g>
			<g>
				<path class="st8" d="M335.2,518.9H185.6c-2.2,0-4-1.8-4-4v-19.4c0-2.2,1.8-4,4-4s4,1.8,4,4V511h141.7V337.2h-15
					c-2.2,0-4-1.8-4-4c0-2.2,1.8-4,4-4h18.9c2.2,0,4,1.8,4,4V515C339.2,517.2,337.4,518.9,335.2,518.9z"/>
			</g>
			<g>
				<path class="st8" d="M354.2,538.3H204.5c-2.2,0-4-1.8-4-4V515c0-2.2,1.8-4,4-4s4,1.8,4,4v15.4h141.7V356.6h-15c-2.2,0-4-1.8-4-4
					c0-2.2,1.8-4,4-4h18.9c2.2,0,4,1.8,4,4v181.8C358.1,536.6,356.4,538.3,354.2,538.3z"/>
			</g>
			<path class="st8" d="M293.7,414.8H189.3c-2.2,0-4-1.8-4-4c0-2.2,1.8-4,4-4h104.3c2.2,0,4,1.8,4,4
				C297.6,413,295.9,414.8,293.7,414.8z"/>
			<path class="st8" d="M293.7,439.1H189.3c-2.2,0-4-1.8-4-4s1.8-4,4-4h104.3c2.2,0,4,1.8,4,4S295.9,439.1,293.7,439.1z"/>
			<path class="st8" d="M258.3,473.7h-33.6c-5.5,0-9.9-4.4-9.9-9.9s4.4-9.9,9.9-9.9h33.6c5.5,0,9.9,4.4,9.9,9.9
				S263.8,473.7,258.3,473.7z"/>
			<path class="st8" d="M316.3,499.6H166.7c-2.2,0-4-1.8-4-4V313.8c0-2.2,1.8-4,4-4h149.6c2.2,0,4,1.8,4,4v181.8
				C320.3,497.8,318.5,499.6,316.3,499.6z M170.6,491.6h141.7V317.8H170.6V491.6z"/>
			<g>
				<rect x="189.3" y="337.9" class="st9" width="104.3" height="50.2"/>
				<path class="st8" d="M293.7,392.1H189.3c-2.2,0-4-1.8-4-4v-50.2c0-2.2,1.8-4,4-4h104.3c2.2,0,4,1.8,4,4v50.2
					C297.6,390.4,295.9,392.1,293.7,392.1z M193.3,384.2h96.4v-42.3h-96.4V384.2z"/>
			</g>
		</g>
		<g>
			<g>
				<circle class="st9" cx="598.9" cy="383.3" r="20.5"/>
				<path class="st8" d="M598.9,407.7c-13.5,0-24.4-11-24.4-24.4c0-13.5,11-24.4,24.4-24.4s24.4,11,24.4,24.4
					C623.3,396.8,612.3,407.7,598.9,407.7z M598.9,366.8c-9.1,0-16.5,7.4-16.5,16.5s7.4,16.5,16.5,16.5s16.5-7.4,16.5-16.5
					S608,366.8,598.9,366.8z"/>
			</g>
			<g>
				<path class="st8" d="M634.7,494.5H563c-2.2,0-4-1.8-4-4v-58.4c0-6.1,1.2-11.5,3.4-16.1c1-2,3.3-2.8,5.3-1.8c2,1,2.8,3.3,1.8,5.3
					c-1.7,3.5-2.6,7.8-2.6,12.6v54.4h63.8v-54.4c0-21.8-17.6-24.2-19.5-24.4h-24.8c-0.8,0.1-5.6,0.8-10.1,3.9
					c-1.8,1.2-4.3,0.8-5.5-1c-1.2-1.8-0.8-4.3,1-5.5c6.8-4.7,13.8-5.3,14.1-5.3c0.1,0,0.2,0,0.3,0h25.2c0.1,0,0.2,0,0.3,0
					c9.3,0.8,26.9,8.5,26.9,32.3v58.4C638.7,492.7,636.9,494.5,634.7,494.5z"/>
			</g>
			<g>
				<path class="st8" d="M546.6,392.2c-11,0-20-9-20-20c0-11,9-20,20-20c11,0,20,9,20,20C566.7,383.2,557.7,392.2,546.6,392.2z
					 M546.6,360.1c-6.7,0-12.1,5.4-12.1,12.1c0,6.7,5.4,12.1,12.1,12.1c6.7,0,12.1-5.4,12.1-12.1
					C558.7,365.5,553.3,360.1,546.6,360.1z"/>
				<path class="st8" d="M524.4,460.6h-5.9c-2.2,0-4-1.8-4-4v-47.4c0-1.3-0.1-9.3,6.2-16c5.6-6,14.3-9,25.9-9
					c11.9,0,20.7,3.2,26.3,9.4c4.6,5.2,5.6,11,5.8,13.9c0.1,2.2-1.5,4.1-3.7,4.2c-2.2,0.1-4.1-1.5-4.2-3.7
					c-0.3-4.8-3.3-15.9-24.2-15.9c-9.3,0-16.1,2.2-20.1,6.5c-4.3,4.6-4.1,10.2-4.1,10.3c0,0.1,0,0.2,0,0.2v43.5h2c2.2,0,4,1.8,4,4
					S526.6,460.6,524.4,460.6z"/>
				<path class="st8" d="M560.8,460.6h-25.3c-2.2,0-4-1.8-4-4s1.8-4,4-4h25.3c2.2,0,4,1.8,4,4S563,460.6,560.8,460.6z"/>
			</g>
			<g>
				<path class="st8" d="M651.1,392.2c-11,0-20-9-20-20c0-11,9-20,20-20c11,0,20,9,20,20C671.1,383.2,662.1,392.2,651.1,392.2z
					 M651.1,360.1c-6.7,0-12.1,5.4-12.1,12.1c0,6.7,5.4,12.1,12.1,12.1c6.7,0,12.1-5.4,12.1-12.1
					C663.2,365.5,657.8,360.1,651.1,360.1z"/>
				<path class="st8" d="M679.2,460.6h-5.9c-2.2,0-4-1.8-4-4s1.8-4,4-4h2v-43.5c0-0.1,0-0.2,0-0.2c0-0.2,0.2-5.8-4.2-10.4
					c-4.1-4.3-10.8-6.4-20-6.4c-20.9,0-23.9,11.2-24.2,15.9c-0.1,2.2-2,3.8-4.2,3.7c-2.2-0.1-3.8-2-3.7-4.2c0.2-3,1.2-8.8,5.8-13.9
					c5.6-6.3,14.4-9.4,26.3-9.4c11.6,0,20.3,3,25.9,9c6.3,6.7,6.3,14.7,6.2,16v47.4C683.2,458.9,681.4,460.6,679.2,460.6z"/>
				<path class="st8" d="M662.2,460.6h-25.3c-2.2,0-4-1.8-4-4s1.8-4,4-4h25.3c2.2,0,4,1.8,4,4S664.4,460.6,662.2,460.6z"/>
			</g>
			<g>
				<path class="st8" d="M598.9,538.1c-35.9,0-70.1-17.2-91.5-46c-1.3-1.8-0.9-4.2,0.8-5.5c1.8-1.3,4.2-0.9,5.5,0.8
					c20.3,27.2,51.3,42.9,85.2,42.9c51.3,0,95.2-36.6,104.4-87c0.4-2.2,2.5-3.6,4.6-3.2c2.2,0.4,3.6,2.5,3.2,4.6
					C701.2,498.8,654,538.1,598.9,538.1z"/>
				<path class="st8" d="M503.5,483c-1.4,0-2.7-0.7-3.4-2c-10-17.3-15.3-37-15.3-56.9c0-62.9,51.2-114,114-114s114,51.2,114,114
					c0,2.3-0.1,4.7-0.3,7.5c-0.1,2.2-2,3.8-4.2,3.7c-2.2-0.1-3.8-2-3.7-4.2c0.2-2.7,0.3-4.9,0.3-7c0-58.5-47.6-106.1-106.1-106.1
					c-58.5,0-106.1,47.6-106.1,106.1c0,18.6,4.9,36.9,14.2,53c1.1,1.9,0.4,4.3-1.4,5.4C504.9,482.9,504.2,483,503.5,483z"/>
			</g>
		</g>
		<path class="st8" d="M979.2,542.7h-83.8c-2.2,0-4-1.8-4-4c0-2.2,1.8-4,4-4h83.8c2.2,0,4,1.8,4,4
			C983.1,540.9,981.4,542.7,979.2,542.7z"/>
		<polygon class="st9" points="1042.7,483.8 1042.7,491.6 1034.5,497.9 842.7,497.9 833.9,494.8 831.3,487.1 831.3,482 
			1032.8,480.7 		"/>
		<g>
			<path class="st8" d="M1032.3,503.4h-190c-9,0-16.3-7.3-16.3-16.3V366.8c0-9,7.3-16.3,16.3-16.3h9.9c2.2,0,4,1.8,4,4
				c0,2.2-1.8,4-4,4h-9.9c-4.6,0-8.4,3.8-8.4,8.4V487c0,4.6,3.8,8.4,8.4,8.4h190c4.6,0,8.4-3.8,8.4-8.4V366.8c0-4.6-3.8-8.4-8.4-8.4
				h-9.9c-2.2,0-4-1.8-4-4c0-2.2,1.8-4,4-4h9.9c9,0,16.3,7.3,16.3,16.3V487C1048.6,496,1041.3,503.4,1032.3,503.4z"/>
		</g>
		<path class="st8" d="M1044.7,486H829.9c-2.2,0-4-1.8-4-4c0-2.2,1.8-4,4-4h214.8c2.2,0,4,1.8,4,4
			C1048.6,484.2,1046.9,486,1044.7,486z"/>
		<g>
			<path class="st8" d="M912.5,542.7c-2.2,0-4-1.8-4-4v-39.3c0-2.2,1.8-4,4-4s4,1.8,4,4v39.3C916.4,540.9,914.7,542.7,912.5,542.7z"
				/>
			<path class="st8" d="M962.1,542.7c-2.2,0-4-1.8-4-4v-39.3c0-2.2,1.8-4,4-4s4,1.8,4,4v39.3C966.1,540.9,964.3,542.7,962.1,542.7z"
				/>
		</g>
		<g>
			<path class="st8" d="M908.8,425.3c0-2,0.8-3.1,3.4-3.1c1.6,0,3.7,0.1,3.7,3.1v0.8h13.5c1.2,0,3.3,0.2,3.3,3
				c0,2.3-0.8,3.5-3.3,3.5h-27.8c-1,0-1.5,0.5-1.5,1.5v9.4c0,9.4-2,16.1-2.4,17.4c-0.8,2.4-1.6,3.8-3.7,3.8c-2.2,0-3.8-1.6-3.8-3.4
				c0-0.8,0-0.9,1.5-5.1c1.1-3.2,1.8-7.7,1.8-12.6v-11.3c0-4.8,2.2-6.1,6.1-6.1h9.3V425.3z M901.8,463.6c-0.7,0-3.3,0-3.3-3.3
				c0-2.9,2-3.1,4.2-3.3c1.8-4.8,3.3-9.6,4.8-14.5c0.2-0.8,1.2-4.5,1.4-5.3c0.6-2.2,1-3.7,3.5-3.7c0.5,0,3.7,0,3.7,2.7
				c0,1.2-0.8,3.7-2.5,8.9c-2.2,6.6-2.3,6.8-4.2,11.4c5.4-0.4,8-0.6,13.3-1.3c-1.1-2.4-1.3-2.9-3.7-7.7c-0.2-0.4-0.5-1.1-0.5-1.7
				c0-1.8,1.8-2.9,3.5-2.9c1,0,1.8,0.5,2.5,1.5c1.3,2,4,7.4,6,11.6c1.1,2.3,1.8,4.2,1.8,5.4c0,2.4-2.2,3.2-3.5,3.2
				c-2.1,0-2.6-1.1-3.7-3.7C916.3,462.3,902.5,463.6,901.8,463.6z"/>
			<path class="st8" d="M956.5,428v-2.3c0-1.4,0.4-3.3,3.2-3.3c2.8,0,3.8,0.8,3.8,3.3v2.3h11.3c0.8,0,3.3,0,3.3,3
				c0,2.7-1.7,3.1-3.3,3.1h-11.3v4.5h14c0.8,0,3.2,0,3.2,2.9c0,2.1-0.9,3.2-3.2,3.2h-35.9c-0.7,0-3.3,0-3.3-2.9
				c0-2.3,1.2-3.1,3.3-3.1h14.8v-4.5h-8.2c-2.1,3.1-2.9,3.9-4.5,3.9c-2,0-4-1.5-4-3.3c0-1.1,0.3-1.5,2.5-4.3c1.6-2.1,2.5-4,3.1-5.3
				c0.7-1.5,1.2-2.2,2.8-2.2c0.7,0,4,0.2,4,2.8c0,0.8-0.2,1.4-0.6,2.3H956.5z M976.7,458.6c0,4.2-1.9,5.4-5.4,5.4H948
				c-3.5,0-5.4-1.2-5.4-5.4v-6.3c0-4.2,1.9-5.4,5.4-5.4h23.2c3.5,0,5.4,1.2,5.4,5.4V458.6z M969.7,453.9c0-0.9-0.5-1.2-1.2-1.2
				h-17.8c-0.8,0-1.2,0.4-1.2,1.2v2.9c0,0.9,0.4,1.2,1.2,1.2h17.8c0.7,0,1.2-0.3,1.2-1.2V453.9z"/>
		</g>
		<path class="st8" d="M937.3,413.2c-30.3,0-54.9-24.6-54.9-54.9c0-30.3,24.6-54.9,54.9-54.9c30.3,0,54.9,24.6,54.9,54.9
			C992.2,388.6,967.6,413.2,937.3,413.2z M937.3,315.7c-23.5,0-42.6,19.1-42.6,42.6c0,23.5,19.1,42.6,42.6,42.6
			c23.5,0,42.6-19.1,42.6-42.6C979.8,334.8,960.8,315.7,937.3,315.7z"/>
		
			<rect x="930.5" y="310.1" transform="matrix(0.7092 -0.705 0.705 0.7092 19.3619 764.6717)" class="st8" width="12.4" height="97.5"/>
		<g>
			<path class="st1" d="M893.3,367.3h-27.1c-4.5,0-7.7-3.2-7.7-7.7c0-4.6,3.1-7.8,7.7-7.8h27.1c4.5,0,7.7,3.2,7.7,7.7
				C901,364.1,897.9,367.3,893.3,367.3z M893.3,361.7L893.3,361.7v-5V361.7z"/>
			<path class="st1" d="M909,381.3c-4.1,0-7.5-3.4-7.7-7.6c-3.1-2.2-3.1-5.8-3.1-7.7v-4c-1.8-1.4-2.9-3.6-2.9-6.2
				c0-2.5,1.1-4.6,2.9-5.9v-4.1c0-4.4,3-7.6,7.4-7.6c2.3,0,4.2,0.7,5.5,2c1-0.5,2.2-0.7,3.5-0.7h13.1c8.4,0,9.6,6.4,9.7,8.4
				c0.1,1.1,0.1,3.1,0.1,5.2c0,4.3-0.2,12.8-0.8,17.2c-1.2,8.8-5.5,10.6-11.6,10.6c-2.6,0-3.8-0.1-5-0.4c-1.4-0.3-2.6-0.9-3.5-1.8
				C914,380.5,911.1,381.3,909,381.3z"/>
			<path class="st1" d="M955.5,380c-5.2,0-9.5-2.2-11.6-5.8c-0.5,0.1-1,0.1-1.5,0.1c-3.9,0-8-2.9-8-7.5c0-2,0.6-3,1.9-5.4
				c0.5-0.9,1-2,1.6-3.2c-0.3-0.2-0.7-0.5-1-0.8c-1-1-2.2-2.7-2.2-5.6c0-3.8,2.5-7.6,8-7.6c0-0.1,0-0.1,0.1-0.2c1-3.1,3.7-5,7.2-5
				c3.9,0,6.9,2.2,7.8,5.3c0.1,0,0.2,0.1,0.2,0.1c0.9-0.4,1.8-0.5,2.8-0.5c1.5,0,3.5,0.5,8.2,2.9c2,1,5.4,2.8,5.4,7.2
				c0,3-1.7,6.2-4.6,7.5c0.4,0.2,0.7,0.4,1.1,0.7c0.9,0.7,3.6,2.5,3.6,6.3c0,3.9-2.9,8-7.5,8c-0.6,0-1.2-0.1-1.6-0.2
				C962.2,379.5,957.9,380,955.5,380z M957,368.8l-0.4,1.2c0,0,0.1,0,0.1,0C956.8,369.6,957,369.2,957,368.8z M955.3,367.1
				c-0.8,0-1.7,0.1-2.3,0.4l3.8-0.2c0,0,0-0.1-0.1-0.1c0,0,0,0-0.1,0C956.3,367.1,955.9,367.1,955.3,367.1z M941.4,364.7l1.4,0.7
				c0,0,0,0,0,0L941.4,364.7C941.4,364.7,941.4,364.7,941.4,364.7z"/>
			<path class="st1" d="M991.3,379.9c-10,0-13.5-6.1-14.6-8.7c-1.1-2.6-1.2-5.1-1.1-8.4l0.5-14.8c0.2-7.2,4.4-8.7,7.9-8.7
				c2.4,0,4.4,0.8,5.8,2.2c2.2,2.3,2.1,5.2,2,6.9c0,0,0,0.1,0,0.2l-0.6,14.5c0,0.3,0,0.9,0,1.4c0.8,0,2.6,0,4.6-4.4
				c0.9-2.1,2.5-5.8,7.3-5.8c3.9,0,8,2.9,8,7.6c0,2.2-1,4.7-3.2,8.3c0,0.1-0.1,0.1-0.1,0.2C1004,376.7,998.4,379.9,991.3,379.9z
				 M1001.4,361.5L1001.4,361.5L1001.4,361.5z M981.1,348.2L981.1,348.2L981.1,348.2z"/>
		</g>
		<g>
			<path class="st8" d="M893.3,356.7c1.7,0,2.7,0.9,2.7,2.7c0,2-1,2.9-2.7,2.9h-27.1c-1.7,0-2.7-0.9-2.7-2.7c0-2,1-2.9,2.7-2.9
				H893.3z"/>
			<path class="st8" d="M914.7,349.7c-0.7,0-2.6,0-2.6-2.4c0-2.1,0.9-2.7,2.6-2.7h13.1c1.4,0,4.5,0,4.8,3.8c0.1,1,0.1,3.6,0.1,4.8
				c0,4-0.2,12.4-0.8,16.5c-0.8,5.9-2.5,6.3-6.7,6.3c-2.6,0-3.3-0.1-3.8-0.2c-2-0.4-2-2.3-2-2.6c0-0.9,0.5-2.4,2.3-2.4
				c0.5,0,2.4,0.2,2.7,0.2c1.4,0,2.1,0,2.6-5.4c0.4-4.1,0.4-13.5,0.4-14c0-1.5,0-1.8-0.9-1.8h-2.6c-0.1,11.6-1.7,16.9-4.9,20.8
				c-3.4,4.2-8.2,5.9-10,5.9c-1.4,0-2.7-1.3-2.7-2.9c0-1.2,0.9-1.7,1.4-1.9c0.6-0.2,3.2-1.1,3.7-1.3c-0.7,0.1-1.1,0.1-1.7,0.1
				c-3.5,0-3.8,0-4.6-0.3c-1.8-0.7-1.8-2.1-1.8-4.1v-7.5c-0.2,0-0.4,0.1-0.7,0.1c-1.2,0-2.2-1.1-2.2-2.7c0-1.3,0.6-2,2-2.4l0.9-0.2
				v-7.5c0-0.6,0-2.6,2.5-2.6c2.2,0,2.7,1.1,2.7,2.6v6.3l4.3-1c0.2,0,0.6-0.1,1-0.1c1.4,0,2.2,1.5,2.2,2.7c0,1.2-0.7,2-1.9,2.3
				l-5.6,1.3v7.1c0,0.7,0.2,0.7,1.1,0.7c0.9,0,0.9-0.7,1.1-2.3c0.1-1.1,0.2-2.4,2-2.4c2.1,0,2.4,1.1,2.4,2.3c0,0.6-0.1,2.4-0.5,4
				c-0.2,0.8-0.5,1.6-1,2.2c4.4-3.7,5.1-10.5,5-19.3H914.7z"/>
			<path class="st8" d="M945.4,366.8c-0.8,1.5-1.4,2.7-3,2.7c-1.2,0-3.1-0.8-3.1-2.6c0-0.7,0.1-1,1.3-3.1c0.3-0.5,1.8-3.3,4-9.2
				c-2.6,0.1-5.1,0.2-5.1-2.7c0-2.6,2.1-2.6,2.9-2.6c0.7,0,3.2,0,3.9,0c0.1-0.5,0.8-3,0.9-3.5c0.5-1.6,1.7-1.7,2.5-1.7
				c1.6,0,3.1,0.8,3.1,2.2c0,0.5-0.1,1-0.6,2.5c1.5-0.2,1.7-0.2,2-0.2c1.8,0,2.2,1.5,2.2,2.5c0,2.4-1,2.8-6,3.3
				C949,358.5,947.5,362.8,945.4,366.8z M957.1,357.8c0-2,1.3-2.4,2.4-2.4c2.8,0,2.9,1.9,2.9,2.6c0.1,1,0.2,4.1,0.3,5.8
				c1.9,0.8,3.6,1.6,5.2,2.7c0.9,0.7,1.4,1.2,1.4,2.2c0,1.4-0.9,3.1-2.6,3.1c-0.5,0-0.8-0.1-1.1-0.3c-0.4-0.2-2.4-1.5-2.8-1.7
				c-0.1,1.6-0.6,2.5-1.1,3.2c-1.6,1.9-4.6,2.3-6.2,2.3c-4.8,0-8.2-2.4-8.2-6.4c0-3.2,2.3-6.5,8-6.5c0.9,0,1.5,0.1,2,0.1
				C957.3,361.6,957.1,358.5,957.1,357.8z M954.7,366.8c-1,0-2.6,0.3-2.6,1.7c0,1.5,1.9,1.8,2.8,1.8c2.7,0,2.7-1.2,2.6-3.1
				C957,367.1,955.9,366.8,954.7,366.8z M966.5,351.3c1.8,0.9,2.7,1.4,2.7,2.8c0,1.3-0.9,3.1-2.4,3.1c-0.7,0-1-0.1-3.3-1.5
				c-1.9-1.1-2.7-1.4-3.9-1.9c-0.8-0.3-1.8-0.8-1.8-2.1c0-1.7,1.4-2.8,2.7-2.8C961.9,348.9,965.1,350.5,966.5,351.3z"/>
			<path class="st8" d="M981.1,348.2c0.1-2.1,0.2-3.9,3-3.9c3.1,0,3,2,2.9,4.1l-0.6,14.5c-0.1,2.4-0.2,6.5,4.9,6.5
				c2.3,0,6.2-0.8,9.1-7.3c0.9-2,1.2-2.8,2.8-2.8c1.2,0,3.1,0.8,3.1,2.6c0,1.9-2.4,5.5-2.5,5.8c-1.5,2.3-5,7.3-12.5,7.3
				c-6.1,0-8.9-2.9-10-5.6c-0.7-1.6-0.9-3.2-0.8-6.3L981.1,348.2z"/>
		</g>
		<g>
			<g>
				<path class="st8" d="M132.1,605.4h-13.7c-0.9,0-2.4-0.1-2.4-2.3c0-2.3,1.8-2.3,2.4-2.3h15.1c-1-0.8-2.9-2.4-4.2-3.2
					c-2.5-1.5-2.9-1.9-2.9-2.7c0-1.1,0.9-2.4,2.5-2.4c0.6,0,1.3,0.3,1.5,0.4c1,0.5,2.1,1.1,5,3.4c0.9-0.4,2.4-1.1,4.1-2.2
					c0.6-0.4,1.5-1,1.5-1.3c0-0.4-0.6-0.4-0.8-0.4h-18.9c-1.1,0-2.4-0.3-2.4-2.3c0-2.3,1.8-2.3,2.4-2.3h24.2c1.2,0,3.8,0,3.8,3.2
					c0,1.7-1,2.6-1.9,3.3c-1.4,1.1-5.7,3.5-8.6,4.7c1,1,1.2,1.2,1.5,1.8h8.5c1.4,0,4,0,4,3.3c0,1.3-0.5,2.3-1,3.1
					c-1,1.5-3,3.9-5.4,6c-2.3,2.1-2.7,2.1-3.3,2.1c-1.5,0-2.8-1.4-2.8-2.7c0-0.9,0.1-1,2.3-2.7c2.3-1.8,3.6-3.7,3.6-4
					c0-0.5-0.6-0.5-0.8-0.5h-8v13.5c0,1.1,0,3.5-2.2,4.5c-1.1,0.5-4.4,0.5-6,0.5c-1,0-3.2,0-4-0.3c-0.7-0.3-1.4-1.2-1.4-2.4
					c0-2.5,2.2-2.5,2.8-2.5c0.2,0,2.7,0.1,3.2,0.1c1.3,0,2.2,0,2.2-1.5V605.4z"/>
				<path class="st8" d="M163.9,607.4c-1.1,0.1-3.5,0.3-4.2,0.3c-0.5,0-2,0-2-2.3c0-0.9,0.4-1.5,0.8-1.8c0.4-0.2,0.6-0.2,2.6-0.3
					c0.4-0.5,0.8-0.9,1.7-2.2c-1.3-1.8-2.8-3.3-3.2-3.7c-1.6-1.5-1.8-1.7-1.8-2.5c0-0.9,0.7-2.5,2.3-2.5c0.5,0,0.8,0.1,1,0.3
					c0.6-0.9,1.3-2.2,1.9-3.3c1.1-2,1.4-2.7,2.6-2.7c0.9,0,2.7,0.7,2.7,2.1c0,0.7-0.3,1.2-1.2,2.8c-0.8,1.4-2,3.2-2.7,4.2
					c0.4,0.5,0.6,0.8,1.1,1.4c1.3-2.1,2-3.2,2.9-4.7c0.9-1.6,1.2-2.1,2.3-2.1c1.2,0,2.7,0.8,2.7,2.2c0,0.7-0.3,1.2-1.3,2.7
					c-3.2,4.9-4.4,6.3-5.5,7.6c2-0.2,2.3-0.2,3.3-0.3c-0.4-0.9-0.6-1.5-0.6-2.1c0-1.1,1.1-1.5,1.8-1.5c1,0,1.3,0.7,1.9,2.2
					c0.2,0.4,1.7,4.4,1.7,5.6c0,1.3-1.4,1.7-2,1.7c-1.1,0-1.3-0.7-1.7-2.1c-0.5,0.1-2.3,0.4-2.7,0.4v15.1c0,1.2-0.3,2.1-2.4,2.1
					c-2.2,0-2.2-1.5-2.2-2.1V607.4z M162.7,611.2c0,0.6-0.3,5.8-0.8,8c-0.3,1.5-0.6,2.2-1.9,2.2c-0.6,0-2.2-0.1-2.2-1.7
					c0-0.8,0.7-3.9,0.8-4.6c0.1-0.7,0.4-4.1,0.5-4.5c0.2-1.2,1.3-1.2,1.8-1.2C162.5,609.4,162.7,610.4,162.7,611.2z M173.6,612.2
					c0.2,0.8,0.8,4,0.8,5.6c0,1-0.1,2-1.9,2c-1.7,0-1.8-0.6-2.1-3c-0.3-2.3-0.4-3.2-0.6-4.1c-0.2-1.1-0.2-1.4-0.2-1.9
					c0-1.5,1.3-1.6,2-1.6C173,609.3,173.2,610.4,173.6,612.2z M189.1,592c4.5,0,4.6,2.5,4.6,5.9c0,7.8-0.4,17.7-1,21
					c-0.4,1.8-1.3,4.2-3.7,4.8c-0.9,0.2-1.8,0.3-5,0.3c-2.9,0-3.5-0.1-4-0.3c-1-0.4-1.4-1.5-1.4-2.4c0-2.4,2.1-2.4,2.8-2.4
					c0.6,0,3,0.1,3.5,0.1c2.6,0,2.8-0.7,3.1-3.3c0.5-4,0.7-12.2,0.7-16.7c0-1.5,0-2.3-1.5-2.3h-7.1c-1.4,3.2-2.5,4.7-2.7,5
					c-0.6,0.8-1,1.1-1.8,1.1c-1.3,0-2.7-1-2.7-2.4c0-0.7,0.2-1.1,0.9-2.1c2.2-3.2,3.2-6.8,3.9-9.5c0.3-1,0.6-2,2.3-2
					c0.7,0,2.5,0.2,2.5,1.7c0,0.7-0.2,1.5-0.9,3.7H189.1z M183,605.1c0.6,1.2,2.2,4.3,2.2,5.3c0,1.2-1.4,2.2-2.8,2.2
					c-1.4,0-1.7-0.8-2.5-2.7c-0.6-1.5-0.8-1.9-2.2-4.7c-0.2-0.5-0.5-1-0.5-1.5c0-1.1,1.1-1.9,2.2-2.1
					C181,601.5,181.6,602.4,183,605.1z"/>
				<path class="st8" d="M220.5,596.9c4.6,6.4,8.4,11.3,13.8,17.8c1,1.2,1.3,1.7,1.3,2.5c0,1.7-1.5,3.1-3,3.1
					c-1.1,0-1.9-0.8-3.3-2.6c-4.7-5.9-9.2-12.1-13.5-18.3c-0.7-1-0.9-1.3-1.5-1.3c-0.6,0-0.7,0.2-1.8,1.7c-2.5,3.6-6.6,9.3-7.9,10.7
					c-0.4,0.4-0.9,0.8-1.8,0.8c-1.4,0-3-1.3-3-2.9c0-0.9,0.2-1.2,2.4-3.8c2.3-2.8,5-6.5,7.4-9.8c1.1-1.5,2.4-3.2,4.8-3.2
					C216.8,591.7,217.5,592.8,220.5,596.9z M236.5,595.4c0,3.1-2.6,5.7-5.7,5.7c-3.2,0-5.7-2.6-5.7-5.7c0-3.2,2.6-5.7,5.7-5.7
					C233.9,589.7,236.5,592.2,236.5,595.4z M227.8,595.4c0,1.7,1.4,3,3,3c1.6,0,3-1.3,3-3c0-1.7-1.4-3-3-3
					C229.2,592.4,227.8,593.7,227.8,595.4z"/>
				<path class="st8" d="M274.1,602.9c0.8,0,2.7,0,2.7,2.6c0,2.4-2,2.4-2.7,2.4h-29.3c-0.8,0-2.7,0-2.7-2.5c0-2.5,1.9-2.5,2.7-2.5
					H274.1z"/>
				<path class="st8" d="M287.2,597.8c1.3,0,4.9,1.5,6.4,2.1c3.2,1.3,4.1,1.7,4.1,3.3c0,1.5-1.1,2.9-2.4,2.9c-0.5,0-0.6,0-3.5-1.3
					c-1-0.4-5.6-2.2-5.9-2.4c-0.7-0.4-1-1.2-1-1.9C284.9,599.2,285.7,597.8,287.2,597.8z M287.3,619.2c0-1.7,1-2.1,3.8-2.9
					c2-0.6,9.5-3.3,16.6-10.8c1.9-2,3.6-4.2,5.2-6.4c0.6-0.8,1.1-1.5,2.2-1.5c1.5,0,3,1.4,3,2.9c0,2.1-5.8,9-11.6,13.6
					c-7.9,6.2-15.2,8.2-16.5,8.2C288.1,622.3,287.3,620.5,287.3,619.2z M290.8,588.5c1.2,0,5.3,1.7,6.7,2.3c2.5,1.1,3.5,1.5,3.5,3.1
					c0,1.4-1,2.8-2.3,2.8c-0.5,0-0.8-0.1-3.4-1.2c-0.9-0.4-5.8-2.3-5.9-2.4c-0.5-0.3-1-0.9-1-1.8
					C288.4,589.9,289.3,588.5,290.8,588.5z M314.1,593.6c0,1-0.8,1.7-1.7,1.7c-1,0-1.3-0.7-1.8-1.7c-0.8-1.8-1.7-3-2.4-4
					c-0.2-0.3-0.5-0.7-0.5-1.1c0-1.4,1.5-1.8,2.3-1.6C311.2,587.3,314.1,592.6,314.1,593.6z M320.2,593.1c0,1.1-1.1,1.7-1.8,1.7
					c-1,0-1.1-0.5-1.7-1.8c-0.6-1.5-1.3-2.7-2.1-3.9c-0.6-0.9-0.7-1-0.7-1.4c0-0.5,0.4-1.6,1.9-1.6c0.2,0,0.3,0,0.4,0
					C317.4,586.5,320.2,592.1,320.2,593.1z"/>
				<path class="st8" d="M334.1,621.7c0,1-0.2,2.4-2.3,2.4c-2,0-2.8-0.6-2.8-2.4v-17.4c-1.2,1.6-1.8,2.4-2.9,2.4
					c-1.4,0-2.6-1.3-2.6-3c0-1.1,0.1-1.2,3.1-5.1c1-1.2,3.1-4.3,5-10.3c0.3-1,0.7-1.7,2.2-1.7c1.3,0,2.7,0.6,2.7,2
					c0,1.5-1.6,5.2-2.3,6.9V621.7z M358.9,591.9c0.6,0,2.4,0,2.4,2.3c0,1.8-0.7,2.6-2.4,2.6h-10v4.8h9.2c0.9,0,2.4,0.2,2.4,2.3
					c0,1.5-0.6,2.4-2.4,2.4h-9.2v4.8h9.2c0.6,0,2.4,0,2.4,2.3c0,1.8-0.8,2.5-2.4,2.5h-9.2v5.8c0,0.9-0.2,2.4-2.3,2.4
					c-1.9,0-2.7-0.6-2.7-2.4v-24.4c-0.6,1.1-2.2,4-3.7,5.9c-0.4,0.5-0.9,1.1-1.9,1.1c-1.5,0-2.7-1.3-2.7-2.8c0-0.4,0.1-0.8,0.7-1.6
					c2.3-3.1,4-5.5,5.7-10.1c0.1-0.4,0.6-2,0.8-2.3c0.4-0.7,1.2-0.9,2-0.9c0.8,0,2.7,0.1,2.7,2c0,0.9-0.7,2.7-1,3.3H358.9z"/>
				<path class="st8" d="M400.3,592.6c1.1,0,2.4,0.3,2.4,2.1c0,1.7-0.4,2.6-2.4,2.6h-9.8c0.2,3.8,0.7,8,1.5,11.6
					c0.9-1.6,2-3.7,3.2-7.6c0.5-1.6,0.9-2.3,2.3-2.3c1.4,0,2.6,0.9,2.6,2.1c0,0.7-0.1,1.2-0.5,2.3c-1.8,5.3-4.2,9-5.7,11.2
					c0.7,1.4,2,3.8,3.1,3.8c0.9,0,1.3-1.2,1.9-2.8c0.6-1.8,1.1-2.1,2-2.1c0.8,0,2.3,0.4,2.3,1.9c0,0.7-1.5,8.6-5.8,8.6
					c-3.9,0-6.2-4.1-7-5.5c-2.9,2.7-6.6,5.1-8.4,5.1c-1.4,0-2.5-1.5-2.5-2.7c0-0.8,0.4-1.4,1.7-2.2c4.1-2.3,5.3-3.2,7.1-5.1
					c-1.8-5.2-2.6-13.1-2.8-16.4h-11.3c-0.9,0-1.3,0.4-1.3,1.3v2.3h5.3c2.9,0,5,0.4,5,4.8c0,4.8-0.3,9.8-1.4,11.9c-0.8,1.4-2,2-5,2
					c-2,0-2.2,0-2.8-0.4c-0.9-0.6-0.9-1.8-0.9-2.2c0-1.8,0.7-2.5,2-2.5c1.8,0,2.1,0,2.5-0.7c0.7-1,0.8-5.8,0.8-7.2
					c0-1.3-0.4-1.3-1.5-1.3h-4v2c0,3.9-0.4,7.7-1.3,11.4c-1,4.3-1.9,5.1-3.4,5.1c-0.8,0-3-0.5-3-2.6c0-0.6,0.1-1,0.7-2.3
					c1.3-3.2,2-6.3,2-11.9v-9.7c0-3.6,1.6-4.6,4.6-4.6h12.8c-0.1-2.1-0.1-3.6-0.1-3.7c0-1,0-2.5,2.4-2.5c2.5,0,2.5,1.6,2.5,2.5
					c0,0.8,0,1.5,0.1,3.7h6.1c-0.6-0.7-0.8-0.8-2-2c-0.8-0.8-1.2-1.2-1.2-1.9c0-1.2,1.6-2,2.5-2c0.8,0,1.5,0.5,2.8,1.7
					c1.3,1.2,2,2,2,2.8c0,0.8-0.5,1.2-0.7,1.4H400.3z"/>
				<path class="st8" d="M209.4,661.6c1.9,0,5.4,0.3,5.4,4.8c0,2.7-0.7,5.4-5.1,5.4h-1.3v7.2h3c2.4,0,5.4,0.5,5.4,4.8
					c0,3.6-1.1,5.4-5.4,5.4h-3v7.5h1.4c3.3,0,5.1,1.6,5.1,4.8c0,3.4-1.2,5.4-5.4,5.4H153c-1.4,0-5.4-0.1-5.4-4.8
					c0-3.9,1.9-5.3,5.4-5.3h3.8v-7.5h-5.6c-1.5,0-5.4-0.1-5.4-4.8c0-3.5,1.2-5.4,5.4-5.4h6.5v-4.7c-3.9,3.5-5.1,4-6.8,4
					c-3.3,0-5.4-3.4-5.4-5.8c0-2.2,0.5-2.6,5.1-6.2c2.8-2.2,4.5-4.5,7.1-7.6c1.8-2.2,3.5-2.2,4.2-2.2c2.5,0,6.3,1.8,5.8,5.1H209.4z
					 M162.3,711.7c0,1.6-0.6,3.5-2.2,7c-3.8,8.1-5.4,8.5-7.7,8.5c-2.8,0-6.5-2-6.5-5.5c0-1.3,0.1-1.6,2.7-5.4
					c0.9-1.3,1.8-3.1,3.4-6.5c0.7-1.3,1.6-2.6,4.3-2.6C157.4,707.1,162.3,707.6,162.3,711.7z M177.6,711.7c0.2,2,0.6,7,0.6,10.1
					c0,2,0,5.5-5.9,5.5c-2.5,0-5.6-0.6-5.6-5c0-0.9,0.1-4.9,0.1-5.8c-0.2-5.4-0.1-5.8,0.5-6.9c1.1-1.7,3.3-2,4.8-2
					C175.4,707.6,177.3,708.8,177.6,711.7z M171.8,671.7h-4.6v7.2h4.6V671.7z M171.8,689.1h-4.6v7.5h4.6V689.1z M185.1,671.7h-4.7
					v7.2h4.7V671.7z M185.1,689.1h-4.7v7.5h4.7V689.1z M195.2,714.4c0.7,2.1,1.9,5.8,1.9,7.7c0,4.5-5.9,4.6-6.6,4.6
					c-4.5,0-4.8-2.4-5.5-6.2c-0.2-1.4-1.9-7.7-1.9-9c0-3.3,3.9-4,5.9-4C192.9,707.5,193.3,708.6,195.2,714.4z M198.4,671.7h-4.8v7.2
					h4.8V671.7z M198.4,689.1h-4.8v7.5h4.8V689.1z M213.1,713.4c1.3,2.1,3.4,5.9,3.4,7.9c0,4.2-5,5.4-6.8,5.4c-3.1,0-3.6-1-6.2-6.8
					c-0.4-0.9-2.3-4.7-2.7-5.4c-0.3-0.6-0.7-1.6-0.7-2.6c0-3.8,4.6-4.8,5.9-4.8C209.4,707.1,209.5,707.3,213.1,713.4z"/>
				<path class="st8" d="M241.1,664.4v-3.1c0-1.5,0-4.8,4.9-4.8c4.2,0,5.5,1.5,5.5,4.8v3.1h8.5c1.5,0,5.4,0.1,5.4,4.6
					c0,3.3-1.1,5.3-5.4,5.3h-8.5v3.9h10.3c2.5,0,5.4,0.7,5.4,4.8c0,4.5-2.7,5.2-5.4,5.2h-10.3v3.6h4.8c7.7,0,9.2,1.4,9.2,9.2v14.3
					c0,6.5-2.5,7.5-7.4,7.5c-4.1,0-5.8-0.5-6.7-3.3v2.6c0,1.8-0.2,5.4-4.8,5.4c-3.6,0-5.6-1.2-5.6-5.4v-20.5h-3.2
					c-0.9,0-1.3,0.5-1.3,1.4v15.4c0,1.2,0,5.4-4.8,5.4c-3.8,0-5.2-1.9-5.2-5.4V701c0-7.7,1.4-9.2,9.2-9.2h5.3v-3.6h-11.7
					c-1.3,0-5.5,0-5.5-4.8c0-3.6,1.9-4.9,4.5-5.1c-2.5-0.6-4.4-1.9-4.4-4.5c0-1,0.1-1.3,1.6-4.8c1.3-3,1.8-4.6,2.7-7.8
					c0.7-2.3,1.6-3.4,4.2-3.4c1.3,0,5.4,0.3,5.4,4.1c0,1-0.4,2.2-0.5,2.7H241.1z M234.3,674.3c-0.9,2.2-1.6,3.3-3.3,3.9h10v-3.9
					H234.3z M251.5,701.5v12c0.7-1.7,1.8-1.9,2.4-1.9c1.6-0.2,1.8-0.2,1.8-1.4V703c0-0.9-0.5-1.4-1.4-1.4H251.5z M277.7,706.2
					c0,1.3,0,4.7-4.9,4.7c-4.6,0-5.1-2.7-5.1-4.7v-39.5c0-1.2,0-4.8,4.9-4.8c4.7,0,5.1,3,5.1,4.8V706.2z M281.8,662
					c0-1.9,0.2-5.4,5.1-5.4c4.6,0,5.4,2.7,5.4,5.4v56c0,9-5.1,9-14,9c-4.5,0-9.4,0-9.4-6.2c0-5.6,4.6-5.6,6.1-5.6
					c6.5,0,6.9,0,6.9-2.7V662z"/>
				<path class="st8" d="M314.4,722.1c0,1.4-0.1,5.4-4.9,5.4c-3.6,0-5.5-1.3-5.5-5.4V668c0-7.7,1.4-9.3,9.2-9.3h8.9
					c4.6,0,9.3,0,9.3,7.2c0,3.7-1,7.2-4.4,14.6c-0.2,0.5-1.5,3.3-1.5,3.6c0,0.4,0.3,0.7,0.7,1c4.2,4.1,6,10.7,6,16.1
					c0,11.9-7.2,11.9-11,11.9c-3.6,0-6-0.1-6.8-3.7V722.1z M314.4,705c0.2-0.7,0.7-2.5,2.8-2.6c2.2-0.1,3.6-0.3,3.6-3.9
					c0-2.5-1-5.7-3.9-9.7c-1.3-1.9-1.8-2.5-1.8-3.9c0-1.1,0.4-1.9,1.4-4.3c0.9-2,3.6-9.7,3.6-10.6c0-1.1-1-1.2-1.4-1.2h-2.8
					c-1,0-1.4,0.6-1.4,1.5V705z M344.5,694.3v19.3c3-0.6,4.9-0.9,6.3-0.9c3.9,0,4.1,4.6,4.1,5.3c0,3.9-1.9,4.3-8.8,5.9
					c-1.5,0.3-13.2,2.7-15,2.7c-4.2,0-4.7-4.5-4.7-5.8c0-4.2,1.9-4.5,7.4-5.4v-47.6c0-7.7,1.3-9.2,9.2-9.2h18.1
					c7.7,0,9.2,1.4,9.2,9.2v17.2c0,7.7-1.5,9.2-9.2,9.2h-3.4c0.5,3,1.2,4.9,1.8,6.6c1.6-1.3,1.9-1.5,4.6-3.9
					c1.5-1.3,2.5-1.5,3.6-1.5c3,0,5.1,3.1,5.1,5.6c0,1.6-0.7,2.7-3.4,4.8c-0.9,0.7-3.2,2.5-5.1,3.7c1.6,2.2,2.1,2.7,7.1,7.5
					c1.2,1.1,1.7,2.5,1.7,3.7c0,3.5-3.3,6.2-6.2,6.2c-4.2,0-8.7-6.6-11.5-11.4c-5.6-9.3-6.7-17.4-7.1-21.5H344.5z M359.6,672.9v-3.1
					c0-0.9-0.4-1.4-1.4-1.4h-12.3c-1,0-1.4,0.6-1.4,1.4v3.1H359.6z M359.6,680.7h-15.1v4.7h13.7c1,0,1.4-0.5,1.4-1.4V680.7z"/>
			</g>
		</g>
		<g>
			<g>
				<path class="st8" d="M491.3,605.4h-13.7c-0.9,0-2.4-0.1-2.4-2.3c0-2.3,1.8-2.3,2.4-2.3h15.1c-1-0.8-2.9-2.4-4.2-3.2
					c-2.5-1.5-2.9-1.9-2.9-2.7c0-1.1,0.9-2.4,2.5-2.4c0.6,0,1.3,0.3,1.5,0.4c1,0.5,2.1,1.1,5,3.4c0.9-0.4,2.4-1.1,4.1-2.2
					c0.6-0.4,1.5-1,1.5-1.3c0-0.4-0.6-0.4-0.8-0.4h-18.9c-1.1,0-2.4-0.3-2.4-2.3c0-2.3,1.8-2.3,2.4-2.3h24.2c1.2,0,3.8,0,3.8,3.2
					c0,1.7-1,2.6-1.9,3.3c-1.4,1.1-5.7,3.5-8.6,4.7c1,1,1.2,1.2,1.5,1.8h8.5c1.4,0,4,0,4,3.3c0,1.3-0.5,2.3-1,3.1
					c-1,1.5-3,3.9-5.4,6c-2.3,2.1-2.7,2.1-3.3,2.1c-1.5,0-2.8-1.4-2.8-2.7c0-0.9,0.1-1,2.3-2.7c2.3-1.8,3.6-3.7,3.6-4
					c0-0.5-0.6-0.5-0.8-0.5h-8v13.5c0,1.1,0,3.5-2.2,4.5c-1.1,0.5-4.4,0.5-6,0.5c-1,0-3.2,0-4-0.3c-0.7-0.3-1.4-1.2-1.4-2.4
					c0-2.5,2.2-2.5,2.8-2.5c0.2,0,2.7,0.1,3.2,0.1c1.3,0,2.2,0,2.2-1.5V605.4z"/>
				<path class="st8" d="M523.1,607.4c-1.1,0.1-3.5,0.3-4.2,0.3c-0.5,0-2,0-2-2.3c0-0.9,0.4-1.5,0.8-1.8c0.4-0.2,0.6-0.2,2.6-0.3
					c0.4-0.5,0.8-0.9,1.7-2.2c-1.3-1.8-2.8-3.3-3.2-3.7c-1.6-1.5-1.8-1.7-1.8-2.5c0-0.9,0.7-2.5,2.3-2.5c0.5,0,0.8,0.1,1,0.3
					c0.6-0.9,1.3-2.2,1.9-3.3c1.1-2,1.4-2.7,2.6-2.7c0.9,0,2.7,0.7,2.7,2.1c0,0.7-0.3,1.2-1.2,2.8c-0.8,1.4-2,3.2-2.7,4.2
					c0.4,0.5,0.6,0.8,1.1,1.4c1.3-2.1,2-3.2,2.9-4.7c0.9-1.6,1.2-2.1,2.3-2.1c1.2,0,2.7,0.8,2.7,2.2c0,0.7-0.3,1.2-1.3,2.7
					c-3.2,4.9-4.4,6.3-5.5,7.6c2-0.2,2.3-0.2,3.3-0.3c-0.4-0.9-0.6-1.5-0.6-2.1c0-1.1,1.1-1.5,1.8-1.5c1,0,1.3,0.7,1.9,2.2
					c0.2,0.4,1.7,4.4,1.7,5.6c0,1.3-1.4,1.7-2,1.7c-1.1,0-1.3-0.7-1.7-2.1c-0.5,0.1-2.3,0.4-2.7,0.4v15.1c0,1.2-0.3,2.1-2.4,2.1
					c-2.2,0-2.2-1.5-2.2-2.1V607.4z M521.9,611.2c0,0.6-0.3,5.8-0.8,8c-0.3,1.5-0.6,2.2-1.9,2.2c-0.6,0-2.2-0.1-2.2-1.7
					c0-0.8,0.7-3.9,0.8-4.6c0.1-0.7,0.4-4.1,0.5-4.5c0.2-1.2,1.3-1.2,1.8-1.2C521.7,609.4,521.9,610.4,521.9,611.2z M532.8,612.2
					c0.2,0.8,0.8,4,0.8,5.6c0,1-0.1,2-1.9,2c-1.7,0-1.8-0.6-2.1-3c-0.3-2.3-0.4-3.2-0.6-4.1c-0.2-1.1-0.2-1.4-0.2-1.9
					c0-1.5,1.3-1.6,2-1.6C532.2,609.3,532.4,610.4,532.8,612.2z M548.3,592c4.5,0,4.6,2.5,4.6,5.9c0,7.8-0.4,17.7-1,21
					c-0.4,1.8-1.3,4.2-3.7,4.8c-0.9,0.2-1.8,0.3-5,0.3c-2.9,0-3.5-0.1-4-0.3c-1-0.4-1.4-1.5-1.4-2.4c0-2.4,2.1-2.4,2.8-2.4
					c0.6,0,3,0.1,3.5,0.1c2.6,0,2.8-0.7,3.1-3.3c0.5-4,0.7-12.2,0.7-16.7c0-1.5,0-2.3-1.5-2.3h-7.1c-1.4,3.2-2.5,4.7-2.7,5
					c-0.6,0.8-1,1.1-1.8,1.1c-1.3,0-2.7-1-2.7-2.4c0-0.7,0.2-1.1,0.9-2.1c2.2-3.2,3.2-6.8,3.9-9.5c0.3-1,0.6-2,2.3-2
					c0.7,0,2.5,0.2,2.5,1.7c0,0.7-0.2,1.5-0.9,3.7H548.3z M542.2,605.1c0.6,1.2,2.2,4.3,2.2,5.3c0,1.2-1.4,2.2-2.8,2.2
					c-1.4,0-1.7-0.8-2.5-2.7c-0.6-1.5-0.8-1.9-2.2-4.7c-0.2-0.5-0.5-1-0.5-1.5c0-1.1,1.1-1.9,2.2-2.1
					C540.2,601.5,540.8,602.4,542.2,605.1z"/>
				<path class="st8" d="M591,619.2c0,0.9,0,3.3-2,4.1c-0.9,0.4-1.2,0.5-9.7,0.5c-2.3,0-4.2,0-4.2-2.8c0-2.5,1.8-2.5,2.9-2.5
					c0.8,0,4.7,0.1,5,0.1c2,0,3,0,3-1.6v-24.4h-25.3c-0.8,0-2.4-0.1-2.4-2.2c0-1.7,0.6-2.5,2.4-2.5h32.7c0.8,0,2.4,0.1,2.4,2.2
					c0,1.7-0.6,2.5-2.4,2.5H591V619.2z M581.4,610.7c0,3.5-1.5,4.6-4.6,4.6h-10.5c-3.1,0-4.6-1.1-4.6-4.6v-9.8
					c0-3.5,1.5-4.6,4.6-4.6h10.5c3,0,4.6,1,4.6,4.6V610.7z M576.7,602c0-0.9-0.4-1.4-1.4-1.4H568c-1,0-1.3,0.5-1.3,1.4v7.3
					c0,0.9,0.4,1.4,1.3,1.4h7.3c1,0,1.4-0.5,1.4-1.4V602z"/>
				<path class="st8" d="M604.2,589.3c0.9-2.2,1.1-2.7,2.5-2.7c1.3,0,2.5,0.7,2.5,1.8c0,0.7-0.3,1.2-1.2,2.9c-0.6,1.1-1,1.8-1.2,2.3
					c2.8-0.2,3.1-0.2,5.9-0.4c-1.3-2.3-1.4-2.4-1.4-3c0-1.1,1.2-1.8,2.3-1.8c1.1,0,1.6,0.6,2.9,2.9c2.7,4.4,2.7,4.9,2.7,5.5
					c0,1.2-1.3,2.2-2.5,2.2c-1.2,0-1.5-0.7-2.3-2.2c-6.4,0.9-12.3,1.3-12.8,1.3c-1.7,0-1.9-1.4-1.9-2.3c0-1.9,1.2-2,2.5-2
					C603.5,591,603.9,590,604.2,589.3z M606.3,615.6v6.1c0,0.7,0,2.4-2.2,2.4c-1.7,0-2.5-0.6-2.5-2.4v-17.7c0-3.6,0.8-4.4,4.4-4.4
					h6.9c3.6,0,4.4,0.8,4.4,4.4v15.4c0,3.8-1,4.5-4.8,4.5c-0.7,0-2,0-2.6-0.2c-1.1-0.3-1.2-1.7-1.2-2.2c0-2.1,1.3-2.1,2.5-2.1
					c1,0,1.5,0,1.5-1.1v-2.8H606.3z M606.3,605.9h6.5v-1.4c0-0.6-0.3-1-1-1h-4.6c-0.7,0-1,0.4-1,1V605.9z M612.8,609.4h-6.5v2.5h6.5
					V609.4z M625.1,598.6c0,1.4,0.7,1.4,2.6,1.4c0.6,0,3.4,0,3.8-0.1c0.8-0.2,0.8-0.6,1.1-2.5c0.2-1.6,0.4-2.5,2.2-2.5
					c0.3,0,2.6,0,2.6,2.1c0,0.9-0.4,4.6-1.4,6.1c-1,1.3-1.8,1.3-6.9,1.3c-4.3,0-4.6,0-5.2-0.1c-3.5-0.2-3.6-3.2-3.6-4.2v-11
					c0-0.8,0.1-2.4,2.3-2.4c1.8,0,2.6,0.6,2.6,2.4v2.5c2.2-0.6,5-1.9,5.9-2.3c2.3-1.1,2.4-1.2,3-1.2c1.1,0,2.1,1.2,2.1,2.5
					c0,1.3-0.8,1.8-3.1,2.7c-3.7,1.4-6.5,2.1-8,2.5V598.6z M625.1,617.7c0,1.5,0.8,1.5,2.4,1.5h1.2c2.6,0,2.7,0,3-0.3
					c0.4-0.3,0.4-0.8,0.7-2.8c0.2-1.4,0.4-2.5,2.3-2.5c0.2,0,2.6,0,2.6,2.1c0,0.2-0.2,5.3-1.5,6.8c-1,1.1-2.2,1.2-7.1,1.2
					c-5.4,0-6-0.2-6.7-0.6c-1.6-0.9-1.7-2.4-1.7-3.8v-11.9c0-0.9,0.1-2.4,2.3-2.4c1.6,0,2.6,0.4,2.6,2.4v2.7
					c1.9-0.7,4.2-1.5,5.9-2.5c2-1.2,2.3-1.3,2.9-1.3c1.4,0,2.3,1.5,2.3,2.5c0,1-0.4,1.5-3.2,2.7c-1,0.4-3.5,1.5-7.8,2.7V617.7z"/>
				<path class="st8" d="M657.5,589.3c0-0.7,0-2.6,2.7-2.6c2.7,0,2.8,1.8,2.8,2.6v3.8c0,3,0.5,11.4,5.1,17.7
					c2.3,3.1,5.3,5.6,8.8,7.4c1,0.5,1.9,1.1,1.9,2.5c0,1.1-0.9,3-2.9,3c-1.9,0-6.8-4-9.3-6.9c-3.2-3.5-5.1-7.8-6.3-12.4
					c-1.9,7.1-4.6,10.7-7.2,13.3c-2.3,2.3-6.6,6-8.6,6c-1.7,0-2.9-1.6-2.9-3.1c0-1.3,0.7-1.7,1.5-2.2c5.1-2.9,10.9-6.9,13.5-17.6
					c0.4-1.7,0.8-7.1,0.8-7.8V589.3z"/>
				<path class="st8" d="M685.1,611.5c-1.3,0-2-0.7-2-1.9c0-1.5,0.8-2,2.1-2h3.8c0.8-2,0.9-2.3,1.1-2.5c0.4-0.4,0.9-0.4,1.2-0.4
					c-0.1-0.4-0.1-0.5-0.1-1.1v-3.4c-0.1,0.1-4.2,4.9-6.1,4.9c-1.4,0-2.2-1.3-2.2-2.5c0-0.9,0.3-1,2.6-2.5c1.8-1.1,3.1-2.3,3.9-3.2
					h-4.3c-0.6,0-2.1,0-2.1-1.9c0-1.7,1.1-1.9,2.1-1.9h6.1v-4.3c0-0.6,0-2.1,2.1-2.1c1.8,0,2.4,0.7,2.4,2.1v4.3h5.5
					c0.6,0,2.1,0,2.1,1.9c0,1.9-1.4,1.9-2.1,1.9h-3.9c1.3,1.4,1.5,1.5,3.6,3.2c0.4,0.4,0.7,0.7,0.7,1.4c2.7-4.1,3.8-7.4,4.9-12.6
					c0.3-1.3,0.7-2.2,2.4-2.2c0.4,0,2.6,0,2.6,1.8c0,0.4-0.8,3.2-1,4h7.5c0.7,0,2.3,0.1,2.3,2.4c0,2.5-1.7,2.5-2.5,2.5
					c-0.2,5.7-1.3,11.4-4,16.5c1.3,1.7,1.6,2,5.1,4.9c1.2,1,1.2,1.8,1.2,2.2c0,1.4-1.2,2.9-2.6,2.9c-0.8,0-1.4-0.2-3.4-2.1
					c-1.8-1.6-2.8-2.9-3.2-3.6c-1.3,1.5-2.9,2.9-5.5,4.7c-1.3,0.9-1.8,1-2.2,1c-1,0-2.1-0.6-2.5-2c-0.3,0.3-0.6,0.6-1.4,0.6
					c-0.5,0-0.8-0.1-1.7-0.7c-0.9-0.6-1.8-1.1-2.7-1.6c-3.5,2.5-7.9,3.8-9.5,3.8c-1.4,0-2.1-1.4-2.1-2.4c0-1.4,1.1-1.7,1.9-1.8
					c2.8-0.5,5-1.5,5.2-1.6c-1-0.4-2.6-0.9-3.5-1.3c-0.6-0.2-1.3-0.9-1.3-1.9c0-0.7,0.4-1.4,0.5-1.6c0.6-0.9,0.6-1,1-1.8H685.1z
					 M687.3,592.8c-1,0-1.1-0.2-1.9-1.7c-0.9-1.7-1-1.9-1-2.3c0-0.9,1-1.5,2.2-1.5c1,0,1.3,0.4,1.8,1.2c0.3,0.4,1.2,1.7,1.2,2.8
					C689.7,592,688.9,592.8,687.3,592.8z M691.9,611.5c-0.2,0.4-0.4,0.8-0.6,1.2c-0.4,0.8-0.5,0.9-0.5,1.1c0,0.1,0,0.4,0.3,0.5
					c0.2,0.1,2.8,0.9,3.3,1.1c0.6-0.7,1.5-1.7,2.2-4H691.9z M700.8,611.5c-0.8,3.4-1.9,4.8-2.4,5.6c0.4,0.2,2.3,1.1,2.5,1.2
					c0.1,0.1,0.5,0.4,0.7,1.1c0.3-0.2,1.9-1.2,2.3-1.5c1.9-1.3,3-2.2,4.5-4c-0.8-1.5-2.2-4.4-3-9c-0.5,0.7-1.1,1.7-2.4,1.7
					c-1.3,0-2.7-1.2-2.6-2.8c-0.1,0-0.3,0.1-0.6,0.1c-1,0-1.9-1.2-4-3.7v3.3c0,1.1-0.2,1.9-1.7,2.1c0.1,0.2,0.1,0.3,0.1,0.4
					c0,0.5-0.2,1.1-0.4,1.5h7.7c1.2,0,2.2,0.5,2.2,2c0,1.7-1.3,1.9-2.2,1.9H700.8z M702.8,588.8c0,1-1.3,2.8-1.5,3
					c-0.4,0.6-0.8,1-1.7,1c-0.8,0-2.1-0.5-2.1-1.7c0-0.5,0.1-0.6,0.9-2c1-1.8,1.1-2,2.3-2C700.7,587.2,702.8,587.3,702.8,588.8z
					 M709.2,597.5c-0.2,0.6-0.2,0.7-0.4,1c0.3,3.2,0.9,7.1,2.5,10.6c1.5-3.8,2-7.5,2.1-11.6H709.2z"/>
				<path class="st8" d="M547.8,661.6c1.9,0,5.4,0.3,5.4,4.8c0,2.7-0.7,5.4-5.1,5.4h-1.3v7.2h3c2.4,0,5.4,0.5,5.4,4.8
					c0,3.6-1.1,5.4-5.4,5.4h-3v7.5h1.4c3.3,0,5.1,1.6,5.1,4.8c0,3.4-1.2,5.4-5.4,5.4h-56.6c-1.4,0-5.4-0.1-5.4-4.8
					c0-3.9,1.9-5.3,5.4-5.3h3.8v-7.5h-5.6c-1.5,0-5.4-0.1-5.4-4.8c0-3.5,1.2-5.4,5.4-5.4h6.5v-4.7c-3.9,3.5-5.1,4-6.8,4
					c-3.3,0-5.4-3.4-5.4-5.8c0-2.2,0.5-2.6,5.1-6.2c2.8-2.2,4.5-4.5,7.1-7.6c1.8-2.2,3.5-2.2,4.2-2.2c2.5,0,6.3,1.8,5.8,5.1H547.8z
					 M500.7,711.7c0,1.6-0.6,3.5-2.2,7c-3.8,8.1-5.4,8.5-7.7,8.5c-2.8,0-6.5-2-6.5-5.5c0-1.3,0.1-1.6,2.7-5.4
					c0.9-1.3,1.8-3.1,3.4-6.5c0.7-1.3,1.6-2.6,4.3-2.6C495.8,707.1,500.7,707.6,500.7,711.7z M516,711.7c0.2,2,0.6,7,0.6,10.1
					c0,2,0,5.5-5.9,5.5c-2.5,0-5.6-0.6-5.6-5c0-0.9,0.1-4.9,0.1-5.8c-0.2-5.4-0.1-5.8,0.5-6.9c1.1-1.7,3.3-2,4.8-2
					C513.8,707.6,515.7,708.8,516,711.7z M510.2,671.7h-4.6v7.2h4.6V671.7z M510.2,689.1h-4.6v7.5h4.6V689.1z M523.5,671.7h-4.7v7.2
					h4.7V671.7z M523.5,689.1h-4.7v7.5h4.7V689.1z M533.6,714.4c0.7,2.1,1.9,5.8,1.9,7.7c0,4.5-5.9,4.6-6.6,4.6
					c-4.5,0-4.8-2.4-5.5-6.2c-0.2-1.4-1.9-7.7-1.9-9c0-3.3,3.9-4,5.9-4C531.3,707.5,531.7,708.6,533.6,714.4z M536.8,671.7h-4.8v7.2
					h4.8V671.7z M536.8,689.1h-4.8v7.5h4.8V689.1z M551.5,713.4c1.3,2.1,3.4,5.9,3.4,7.9c0,4.2-5,5.4-6.8,5.4c-3.1,0-3.6-1-6.2-6.8
					c-0.4-0.9-2.3-4.7-2.7-5.4c-0.3-0.6-0.7-1.6-0.7-2.6c0-3.8,4.6-4.8,5.9-4.8C547.8,707.1,547.9,707.3,551.5,713.4z"/>
				<path class="st8" d="M579.5,664.4v-3.1c0-1.5,0-4.8,4.9-4.8c4.2,0,5.5,1.5,5.5,4.8v3.1h8.5c1.5,0,5.4,0.1,5.4,4.6
					c0,3.3-1.1,5.3-5.4,5.3h-8.5v3.9h10.3c2.5,0,5.4,0.7,5.4,4.8c0,4.5-2.7,5.2-5.4,5.2h-10.3v3.6h4.8c7.7,0,9.2,1.4,9.2,9.2v14.3
					c0,6.5-2.5,7.5-7.4,7.5c-4.1,0-5.8-0.5-6.7-3.3v2.6c0,1.8-0.2,5.4-4.8,5.4c-3.6,0-5.6-1.2-5.6-5.4v-20.5h-3.2
					c-0.9,0-1.3,0.5-1.3,1.4v15.4c0,1.2,0,5.4-4.8,5.4c-3.8,0-5.2-1.9-5.2-5.4V701c0-7.7,1.4-9.2,9.2-9.2h5.3v-3.6h-11.7
					c-1.3,0-5.5,0-5.5-4.8c0-3.6,1.9-4.9,4.5-5.1c-2.5-0.6-4.4-1.9-4.4-4.5c0-1,0.1-1.3,1.6-4.8c1.3-3,1.8-4.6,2.7-7.8
					c0.7-2.3,1.6-3.4,4.2-3.4c1.3,0,5.4,0.3,5.4,4.1c0,1-0.4,2.2-0.5,2.7H579.5z M572.7,674.3c-0.9,2.2-1.6,3.3-3.3,3.9h10v-3.9
					H572.7z M589.9,701.5v12c0.7-1.7,1.8-1.9,2.4-1.9c1.6-0.2,1.8-0.2,1.8-1.4V703c0-0.9-0.5-1.4-1.4-1.4H589.9z M616.1,706.2
					c0,1.3,0,4.7-4.9,4.7c-4.6,0-5.1-2.7-5.1-4.7v-39.5c0-1.2,0-4.8,4.9-4.8c4.7,0,5.1,3,5.1,4.8V706.2z M620.2,662
					c0-1.9,0.2-5.4,5.1-5.4c4.6,0,5.4,2.7,5.4,5.4v56c0,9-5.1,9-14,9c-4.5,0-9.4,0-9.4-6.2c0-5.6,4.6-5.6,6.1-5.6
					c6.5,0,6.9,0,6.9-2.7V662z"/>
				<path class="st8" d="M652.8,722.1c0,1.4-0.1,5.4-4.9,5.4c-3.6,0-5.5-1.3-5.5-5.4V668c0-7.7,1.4-9.3,9.2-9.3h8.9
					c4.6,0,9.3,0,9.3,7.2c0,3.7-1,7.2-4.4,14.6c-0.2,0.5-1.5,3.3-1.5,3.6c0,0.4,0.3,0.7,0.7,1c4.2,4.1,6,10.7,6,16.1
					c0,11.9-7.2,11.9-11,11.9c-3.6,0-6-0.1-6.8-3.7V722.1z M652.8,705c0.2-0.7,0.7-2.5,2.8-2.6c2.2-0.1,3.6-0.3,3.6-3.9
					c0-2.5-1-5.7-3.9-9.7c-1.3-1.9-1.8-2.5-1.8-3.9c0-1.1,0.4-1.9,1.4-4.3c0.9-2,3.6-9.7,3.6-10.6c0-1.1-1-1.2-1.4-1.2h-2.8
					c-1,0-1.4,0.6-1.4,1.5V705z M682.9,694.3v19.3c3-0.6,4.9-0.9,6.3-0.9c3.9,0,4.1,4.6,4.1,5.3c0,3.9-1.9,4.3-8.8,5.9
					c-1.5,0.3-13.2,2.7-15,2.7c-4.2,0-4.7-4.5-4.7-5.8c0-4.2,1.9-4.5,7.4-5.4v-47.6c0-7.7,1.3-9.2,9.2-9.2h18.1
					c7.7,0,9.2,1.4,9.2,9.2v17.2c0,7.7-1.5,9.2-9.2,9.2h-3.4c0.5,3,1.2,4.9,1.8,6.6c1.6-1.3,1.9-1.5,4.6-3.9
					c1.5-1.3,2.5-1.5,3.6-1.5c3,0,5.1,3.1,5.1,5.6c0,1.6-0.7,2.7-3.4,4.8c-0.9,0.7-3.2,2.5-5.1,3.7c1.6,2.2,2.1,2.7,7.1,7.5
					c1.2,1.1,1.7,2.5,1.7,3.7c0,3.5-3.3,6.2-6.2,6.2c-4.2,0-8.7-6.6-11.5-11.4c-5.6-9.3-6.7-17.4-7.1-21.5H682.9z M698,672.9v-3.1
					c0-0.9-0.4-1.4-1.4-1.4h-12.3c-1,0-1.4,0.6-1.4,1.4v3.1H698z M698,680.7h-15.1v4.7h13.7c1,0,1.4-0.5,1.4-1.4V680.7z"/>
			</g>
		</g>
		<g>
			<g>
				<path class="st8" d="M870.9,588.8c0-1.1,0.3-2.3,2.5-2.3c1.2,0,2.7,0.1,2.7,2.3v1.4H889c0.8,0,2.4,0.1,2.4,2.2
					c0,1.7-0.6,2.5-2.4,2.5h-25.3c-1.2,0-1.7,0.6-1.7,1.7v8.6c0,6.9-1.2,12-2.4,15.4c-0.7,1.9-1.3,3-2.8,3c-1.5,0-2.9-1.1-2.9-2.6
					c0-0.6,0-0.6,1.4-4.2c1.2-3.1,1.8-7.1,1.8-11.6v-9.8c0-4,1.7-5.3,5.3-5.3h8.4V588.8z M863.3,622.7c-0.5,0-2.5,0-2.5-2.5
					c0-2.1,1.3-2.2,4-2.4c0.3-0.6,0.8-1.9,1.5-4.2c0.6-1.6,2.1-6.3,3.1-9.7c0.2-0.6,1-3.9,1.2-4.7c0.6-2,0.8-3.1,2.7-3.1
					c1,0,2.8,0.3,2.8,2.1c0,0.9-1,3.8-1.3,5c-2.9,9-3.2,10.1-5.1,14.3c8.2-0.6,8.9-0.6,13.7-1.2c-0.4-0.8-1.6-3.3-2.9-5.7
					c-1.4-2.6-1.4-2.7-1.4-3.2c0-1.2,1.3-2.1,2.6-2.1c1.1,0,1.7,0.6,3.4,3.8c1.9,3.5,5.6,10.6,5.6,12.5c0,1.8-1.7,2.4-2.6,2.4
					c-1.5,0-1.9-0.8-3-3.4C879.1,621.4,863.7,622.7,863.3,622.7z"/>
				<path class="st8" d="M912.4,591.8v-2.8c0-0.9,0.2-2.5,2.4-2.5c2,0,2.8,0.6,2.8,2.5v2.8h10.9c0.6,0,2.4,0,2.4,2.2
					c0,2-1.4,2.2-2.4,2.2h-10.9v4.9h13.4c1,0,2.4,0.2,2.4,2.2c0,1.7-0.9,2.2-2.4,2.2h-32.6c-0.6,0-2.4,0-2.4-2.1
					c0-1.7,0.9-2.3,2.4-2.3h14.1v-4.9h-8.1c-0.4,0.7-1.3,1.8-2.3,2.9c-0.4,0.5-0.9,1-1.9,1c-1.5,0-2.9-1.2-2.9-2.5
					c0-0.9,0.2-1.1,2.3-3.5c1.9-2.3,3-4.7,3.4-5.5c0.5-1,0.9-1.6,2.1-1.6c0.7,0,2.9,0.3,2.9,2.1c0,0.4,0,1-0.9,2.7H912.4z
					 M929.5,618.6c0,3.5-1.5,4.6-4.6,4.6h-20.6c-3.1,0-4.6-1.1-4.6-4.6V613c0-3.4,1.5-4.6,4.6-4.6h20.6c3.1,0,4.6,1.1,4.6,4.6V618.6
					z M924.4,614.1c0-0.9-0.4-1.4-1.3-1.4h-16.8c-1,0-1.4,0.5-1.4,1.4v3.4c0,1,0.6,1.3,1.4,1.3H923c0.9,0,1.3-0.4,1.3-1.3V614.1z"/>
				<path class="st8" d="M960.3,605.9c1,2.3,1.7,3.6,3,5.3c2.5-1.7,2.6-1.7,4.8-3.7c1.1-1,1.2-1.1,2-1.1c1.3,0,2.6,1.1,2.6,2.4
					c0,0.9-0.5,1.4-1.2,2c-1.1,0.9-3.8,2.7-5.2,3.6c1,0.9,2.9,2.5,6.1,4.1c1.4,0.7,2.2,1.1,2.2,2.4c0,1.3-1,2.8-2.4,2.8
					c-2.1,0-6.6-3.2-9.4-6.1c-3.9-3.8-5.5-7.5-6.9-11.3c-1.4,1.6-2.5,2.8-4,4v7.5c3.4-0.6,3.7-0.6,6.7-1.2c0.6-0.1,1-0.1,1-0.1
					c1.2,0,1.9,1,1.9,2.3c0,1.6-0.8,1.9-1.5,2c-0.3,0.1-3.3,0.7-3.8,0.8c-2.1,0.5-11.7,1.9-13.1,1.9c-2.1,0-2.1-2.3-2.1-2.5
					c0-1.8,1.3-2,2-2.1c0.6-0.1,3.5-0.4,4.1-0.5v-5.2c-2.8,1.4-5.7,2.9-7.3,2.9c-1.5,0-2.1-1.8-2.1-2.7c0-1.5,1.1-1.8,1.8-2
					c3.3-1,6.7-2.3,10.6-5.6h-10.4c-1,0-2.1-0.3-2.1-2.1c0-2,1.5-2,2.1-2h14.2v-2.1h-11.4c-1.2,0-2.1-0.5-2.1-2
					c0-1.8,1.4-1.9,2.1-1.9h11.4v-1.9h-13.2c-1.5,0-2.1-0.6-2.1-2.2c0-1.9,1.5-2,2.1-2h13.2v-1.3c0-1.7,1.3-1.9,2.7-1.9
					c1.1,0,2.3,0.3,2.3,1.9v1.3h13.2c1.4,0,2.1,0.6,2.1,2.2c0,2-1.5,2-2.1,2h-13.2v1.9H970c1.5,0,2.1,0.7,2.1,2.1
					c0,1.8-1.5,1.9-2.1,1.9h-11.3v2.1h14.2c1.1,0,2.1,0.3,2.1,2.1c0,1.9-1.3,2-2.1,2H960.3z"/>
				<path class="st8" d="M1000.4,618.9c0,5-2.7,5-7.6,5c-0.8,0-2.1,0-2.8-0.2c-1.7-0.4-1.9-2.1-1.9-2.7c0-2.5,1.7-2.5,2.6-2.5
					c0.5,0,2.5,0.1,2.9,0.1c0.8,0,1.7,0,1.7-1.3v-14.5h-13.9c-0.5,0-2.3,0-2.3-2.3c0-2.1,1.4-2.4,2.3-2.4h32.9c0.5,0,2.3,0,2.3,2.3
					c0,2.1-1.4,2.4-2.3,2.4h-13.8V618.9z M990.1,607.4c0,1.1-1.8,6.4-4.3,10.7c-1.8,3-2.4,3.6-3.5,3.6c-1.1,0-2.9-1-2.9-2.5
					c0-0.8,0.1-0.9,2.1-3.9c1.9-2.8,3.1-6.3,3.8-8.5c0.4-1.2,1.3-1.4,2-1.4C988.1,605.3,990.1,605.7,990.1,607.4z M1011.6,588
					c0.5,0,2.4,0,2.4,2.3c0,2.2-1.6,2.4-2.4,2.4h-27.8c-0.5,0-2.4,0-2.4-2.3c0-2,1.3-2.4,2.4-2.4H1011.6z M1010.1,606.7
					c1,2.7,2,5.8,4,8.6c1.9,2.9,2,3,2,3.8c0,1.4-1.7,2.5-3,2.5c-0.9,0-1.7-0.3-3.4-3.3c-2.7-4.9-4.5-9.7-4.5-11
					c0-2.1,2.8-2.1,2.9-2.1C1009.1,605.3,1009.8,605.7,1010.1,606.7z"/>
				<path class="st8" d="M847.4,685.3c3.6,0,5.8,1.9,5.8,5.9c0,4.4-2.2,6.2-5.8,6.2h-58.1c-3.7,0-5.8-1.9-5.8-5.9
					c0-4.4,2.2-6.2,5.8-6.2H847.4z"/>
				<path class="st8" d="M891.5,670.4c-1.6,0-5.6-0.1-5.6-5.2c0-4.5,2-5.8,5.6-5.8h28.2c3,0,9.7,0.1,10.3,8.1
					c0.1,2.2,0.1,7.8,0.1,10.3c0,8.5-0.4,26.5-1.6,35.4c-1.7,12.6-5.3,13.6-14.4,13.6c-5.6,0-7.1-0.2-8.2-0.5
					c-4.2-0.9-4.3-4.9-4.3-5.6c0-2,1.1-5.2,4.8-5.2c1,0,5.1,0.4,5.9,0.4c3,0,4.5,0,5.5-11.6c0.8-8.8,0.8-28.8,0.8-29.9
					c0-3.3,0-3.9-1.9-3.9H911c-0.2,24.9-3.6,36.3-10.4,44.6c-7.4,9.1-17.6,12.6-21.3,12.6c-2.9,0-5.8-2.7-5.8-6.2c0-2.6,2-3.6,2.9-4
					c1.2-0.5,6.8-2.4,7.9-2.8c-1.6,0.3-2.3,0.3-3.6,0.3c-7.4,0-8.1,0-9.9-0.7c-3.9-1.5-3.9-4.5-3.9-8.7v-16.1
					c-0.5,0.1-0.9,0.1-1.5,0.1c-2.7,0-4.8-2.5-4.8-5.8c0-2.7,1.3-4.4,4.2-5.1l2-0.4v-16.1c0-1.3,0-5.6,5.3-5.6
					c4.7,0,5.8,2.3,5.8,5.6v13.5l9.1-2.2c0.4-0.1,1.3-0.3,2.2-0.3c3,0,4.8,3.2,4.8,5.9c0,2.6-1.4,4.4-4.1,5l-12,2.7v15.3
					c0,1.6,0.5,1.6,2.5,1.6c1.9,0,2-1.4,2.4-4.8c0.2-2.5,0.5-5.1,4.3-5.1c4.5,0,5.1,2.5,5.1,4.8c0,1.2-0.3,5.2-1.1,8.5
					c-0.4,1.6-1,3.3-2.1,4.7c9.4-7.9,10.9-22.5,10.8-41.3H891.5z"/>
				<path class="st8" d="M955.3,706.9c-1.7,3.3-3,5.7-6.5,5.7c-2.7,0-6.6-1.8-6.6-5.5c0-1.6,0.3-2.1,2.7-6.5
					c0.6-1.1,3.9-7.1,8.6-19.6c-5.6,0.2-10.9,0.4-10.9-5.9c0-5.6,4.5-5.6,6.3-5.6c1.6,0,6.9,0,8.3-0.1c0.3-1.1,1.6-6.4,2-7.4
					c1.1-3.3,3.7-3.7,5.4-3.7c3.4,0,6.6,1.7,6.6,4.7c0,1-0.2,2.1-1.2,5.4c3.2-0.4,3.6-0.4,4.2-0.4c3.8,0,4.8,3.1,4.8,5.3
					c0,5.1-2.1,6.1-12.8,7C963.1,689.2,959.8,698.4,955.3,706.9z M980.4,687.7c0-4.2,2.8-5.1,5.1-5.1c5.9,0,6.2,4.2,6.3,5.5
					c0.1,2.2,0.4,8.8,0.6,12.3c4.2,1.7,7.7,3.3,11.2,5.7c2,1.4,3,2.6,3,4.7c0,2.9-2,6.6-5.5,6.6c-1,0-1.7-0.3-2.5-0.7
					c-0.8-0.5-5.1-3.1-6-3.6c-0.2,3.3-1.2,5.4-2.4,6.8c-3.3,4.2-9.9,4.8-13.3,4.8c-10.2,0-17.6-5.2-17.6-13.7c0-6.8,5-14,17.2-14
					c1.9,0,3.3,0.1,4.4,0.3C980.8,695.9,980.4,689.2,980.4,687.7z M975.2,707c-2.1,0-5.6,0.7-5.6,3.7c0,3.3,4.2,3.9,6.1,3.9
					c5.9,0,5.7-2.5,5.6-6.5C980.1,707.7,977.8,707,975.2,707z M1000.6,673.8c3.9,2,5.9,3,5.9,6.1c0,2.8-1.9,6.5-5.1,6.5
					c-1.6,0-2.2-0.3-7.1-3.2c-4-2.3-5.8-3-8.3-4.1c-1.8-0.7-3.8-1.6-3.8-4.5c0-3.7,2.9-6,5.8-6
					C990.6,668.6,997.5,672.1,1000.6,673.8z"/>
				<path class="st8" d="M1029.9,667.1c0.1-4.6,0.4-8.4,6.4-8.4c6.7,0,6.4,4.4,6.2,8.8l-1.2,31c-0.2,5.1-0.5,14,10.6,14
					c5,0,13.2-1.6,19.5-15.6c1.9-4.2,2.7-6.1,6-6.1c2.6,0,6.6,1.8,6.6,5.6c0,4.1-5.1,11.9-5.4,12.4c-3.1,4.9-10.7,15.6-26.8,15.6
					c-13.1,0-19.1-6.3-21.4-12c-1.4-3.3-1.9-6.8-1.6-13.6L1029.9,667.1z"/>
			</g>
		</g>
		<rect x="805.2" y="292" class="st11" width="264.1" height="264.1"/>
		<rect x="466.8" y="292" class="st11" width="264.1" height="264.1"/>
		<rect x="128.4" y="292" class="st11" width="264.1" height="264.1"/>
	</g>
	<g>
		<rect x="193.3" y="170.7" class="st7" width="811" height="71.6"/>
		<g>
			<g>
				<path class="st8" d="M448.9,196l56.2-72.6c2.2-2.9,3.7-5.6,4.4-8.2c0.5-2.4,0.8-4.6,0.8-6.7c0-5.6-1.7-10.4-5-14.6
					c-3.5-4.1-8.4-6.3-14.8-6.4c-5.7,0-10.4,1.9-14.1,5.6c-3.9,3.7-6.2,9-6.9,15.8h-20.5c0.5-12.3,4.5-22.5,12-30.6
					c7.6-7.9,16.9-11.9,27.9-12c12.4,0.1,22.4,4.2,30.1,12.2c7.8,7.9,11.8,18,11.9,30.2c0,9.8-2.9,18.5-8.7,26.1L476,194.8h54.9
					v21.2h-82V196z"/>
				<path class="st8" d="M549.2,194.8h20.5v21.2l-20.5,15.5V194.8z"/>
				<path class="st8" d="M591.5,215.9c-0.1,0,0.5-1.2,1.7-3.7c1.2-2.5,2.8-5.7,4.8-9.6c2-3.9,4.2-8.3,6.6-13.1
					c2.4-4.8,4.8-9.6,7.2-14.2c2.4-4.7,4.6-9,6.7-12.9c2.1-3.9,3.7-7,5-9.3c-2,1.2-4.2,1.8-6.7,2.1c-2.5,0.2-5.3,0.3-8.6,0.2
					c-4.5-0.1-8.4-0.9-11.8-2.4c-3.4-1.5-6.3-3.4-8.7-5.6c-2.4-2.2-4.5-4.7-6.1-7.5s-2.9-5.4-3.9-8c-1-2.6-1.7-5.1-2.1-7.3
					c-0.4-2.3-0.7-4.1-0.7-5.3c0-0.4,0-1.2-0.1-2.2c0-1.1-0.1-2.3-0.1-3.6s0-2.7,0.1-4c0-1.4,0.1-2.5,0.3-3.5
					c0.1-0.5,0.3-1.7,0.7-3.6c0.4-1.9,1.1-4.3,2.1-7c1-2.7,2.4-5.6,4.3-8.7c1.8-3.1,4.2-6,7.2-8.7c3-2.7,6.6-5.1,10.9-7
					c4.3-2,9.4-3.2,15.3-3.8c6.2-0.5,11.6-0.2,16.3,1.1c4.7,1.3,8.8,3.2,12.2,5.6c3.4,2.4,6.2,5.3,8.4,8.5c2.2,3.3,4,6.6,5.2,9.9
					c1.3,3.4,2.1,6.6,2.5,9.8c0.4,3.2,0.5,5.9,0.2,8.1c-0.4,3.3-0.8,6.3-1.3,8.9c-0.5,2.6-1,5.1-1.7,7.5c-0.6,2.4-1.4,4.7-2.2,7
					c-0.8,2.3-1.8,4.8-2.8,7.5c-0.3,0.7-1,2.4-2.2,4.9c-1.2,2.5-2.7,5.6-4.5,9.2c-1.8,3.6-3.8,7.7-5.9,12.1
					c-2.1,4.4-4.3,8.9-6.6,13.4c-5.2,10.6-11.1,22.4-17.5,35.4H591.5z M596.1,108.5c0,2.6,0.1,5.6,0.4,8.8c0.3,3.2,1.1,6.2,2.4,9
					c1.3,2.8,3.4,5.2,6.3,7.2c2.8,2,6.9,3.1,12,3.4c2.6,0.1,4.9-0.2,7-1c2.1-0.8,4-1.8,5.6-3.1c1.6-1.3,3-2.7,4.2-4.4
					c1.2-1.6,2.2-3.2,3-4.8c0.8-1.6,1.3-3.1,1.7-4.4c0.3-1.4,0.5-2.4,0.5-3.3c-0.1-1.7-0.1-3.6-0.2-5.7c0-2.1-0.2-4.2-0.6-6.4
					c-0.4-2.2-1-4.3-1.9-6.3c-0.9-2-2.1-3.7-3.8-5.2c-1.6-1.5-3.7-2.7-6.3-3.5c-2.5-0.8-5.7-1.2-9.5-1c-4.2,0.2-7.7,1.3-10.3,3.2
					c-2.7,1.9-4.8,4-6.4,6.3c-1.6,2.3-2.6,4.5-3.3,6.7C596.4,106.2,596.1,107.7,596.1,108.5z"/>
				<path class="st8" d="M679.3,172.6c0.1-14.3,6-25.5,17.5-33.4c-4.4-3.9-7.9-8.3-10.4-13.3c-2.9-4.7-4.4-10.2-4.4-16.7
					c0.1-12.4,4.2-22.6,12.1-30.6c7.5-8,17.2-12.1,29-12.2c12,0.1,21.9,4.2,29.5,12.2c7.7,8.1,11.6,18.3,11.7,30.6
					c0,6.4-1.3,12-4,16.7c-2.8,5-6.4,9.5-10.8,13.3c11.5,7.9,17.4,19.1,17.5,33.4c-0.1,13.4-4.4,24.1-12.8,32.1
					c-8.5,8.2-18.9,12.4-31.3,12.5c-12.3-0.1-22.5-4.3-30.8-12.5C683.8,196.7,679.4,186,679.3,172.6z M699.8,172.4
					c0.1,6.8,2.5,12.4,7.2,16.7c4.4,4.6,9.8,6.8,16.2,6.8c6.6,0,12.1-2.3,16.5-6.8c4.5-4.4,6.8-9.9,7-16.7c-0.1-6.9-2.5-12.6-7-16.9
					c-4.4-4.3-9.9-6.5-16.5-6.6c-6.4,0.1-11.8,2.3-16.2,6.6C702.3,159.8,700,165.5,699.8,172.4z M702.6,108.8
					c0.1,6.9,2.3,12.1,6.4,15.8c4.1,3.8,8.8,5.6,14.2,5.6c5.5,0,10.4-1.9,14.5-5.6c4-3.6,6.1-8.9,6.2-15.8
					c-0.1-7.1-2.2-12.4-6.2-16.1c-4.1-3.5-8.9-5.2-14.5-5.2c-5.4,0-10.1,1.7-14.2,5.2C704.9,96.3,702.7,101.7,702.6,108.8z"/>
				<path class="st8" d="M787.7,108.9c0.1-13.7,4.4-24.2,12.7-31.6c7.8-7.3,17.2-11,28-11c11.2,0,20.7,3.7,28.5,11
					c8,7.4,12.1,17.9,12.3,31.6v65.4C869,188,864.9,198.6,857,206c-7.8,7.3-17.3,11.1-28.5,11.2c-10.9-0.1-20.2-3.9-28-11.2
					c-8.4-7.4-12.6-17.9-12.7-31.5V108.9z M848.7,110.2c-0.4-14.9-7.2-22.5-20.3-22.7c-13.2,0.3-19.9,7.9-20.2,22.7v63
					c0.3,15,7,22.6,20.2,22.7c13.1-0.1,19.9-7.7,20.3-22.7V110.2z"/>
			</g>
			<g>
				<path class="st8" d="M916.9,173.2v41.7h-17.3V118h92.1v82c0,10.4-6.3,14.7-21.5,14.7c-2.1,0-3-0.2-4.6-0.4
					c-1-10.5-3.8-15.4-5.4-18.1c2.4,0.7,5.7,1.5,10.3,1.5c4.3,0,4.3-1.2,4.3-4.9v-19.6H916.9z M937.4,133.9h-20.5v23.8h20.5V133.9z
					 M954,157.6h20.8v-23.8H954V157.6z"/>
			</g>
			<g>
				<path class="st8" d="M239,179.1c-4.1,22.1-15.5,31.4-21.6,36.1c-2.6-3.4-8.9-9.1-13.7-11.5c20-13.4,19.8-34.2,19.8-45.1v-41.5
					h68.5v81.1c0,11.8-2.8,16.5-24.6,15.7c-0.3-5.1-3.1-14.1-5.5-18c1.8,0.3,6.4,1.2,9,1.2c3.7,0,3.9-2.3,3.9-6.2v-11.8H239z
					 M274.9,140.3v-7.8h-34.7v7.8H274.9z M274.9,163.3v-7.9h-34.7v7.9H274.9z"/>
				<path class="st8" d="M365.2,147.4c-3.8,6.7-6.8,11.3-11.6,16.9c9.3,5,13.7,6.5,16.9,7.6v-37.2h9.3c1.4-2.7,2-4.1,3-6.4h-12.9
					v-11.9h47.7v11.9h-18.8c-1.2,2.6-2.3,4.8-3.1,6.4H415v58.5H405c5.7,5.3,10.2,8,16.8,11.3c-4.1,3.4-7.3,6.9-10.7,11.1
					c-2.7-1.6-12.4-7.2-20.1-16.2l6-6.1h-12.8l4.6,4.1c1.2,1,1.9,1.5,1.9,2.4c0,0.8-0.9,1.1-1.8,1.1h-1
					c-3.9,4.5-11.2,10.8-18.5,15.2c-2.6-3.9-4.4-6.4-7.1-9v6.4h-12.3V209h-9.5v5.6H327v-28.8c-0.5,0.3-1.4,0.8-2,1.1
					c-4.3-5.7-5.4-6.9-10-10.8c8.1-2.6,13.9-6.1,19.1-10.1c-2.2-1.8-3.5-2.8-4.5-3.7c-1.1,1-1.8,1.6-3.7,3.3
					c-2.4-3-8.4-7.3-10.8-8.8c3.9-2.7,9.5-6.9,14.3-13.8h-10.7v-20.8h18.2v-8.5l16.6,1.1c0.7,0,2,0.1,2,1.4s-1.5,2.1-3.1,2.7v3.3
					h16.1v20.8h-8.2L365.2,147.4z M356.6,141.5v-8h-25.9v7.7c1.9-3,2.8-5.1,3.5-6.9l13.7,3.4c0.9,0.2,1.6,0.8,1.6,1.5
					c0,1.2-1.3,1.3-3.5,1.5c-0.2,0.3-0.3,0.5-0.4,0.8H356.6z M338.8,151.8c-0.3,0.4-0.9,1.2-1.3,1.8c1.2,1,2.5,2,5.3,3.9
					c1.8-2.1,2.6-3.4,4.2-5.7H338.8z M353,178c-3.7-1.9-6-3.1-8.3-4.5c-1.9,1.6-3.4,2.8-5.5,4.5H353z M349.9,197.7v-8.5h-9.5v8.5
					H349.9z M370.5,172.8c-1.1,1.3-4.8,8.9-5.8,10.4c-0.9-0.3-1.8-0.7-2.5-1v21.1c4.8-2.8,10.3-7.2,13.5-10.3h-5.1V172.8z
					 M401.6,150.8v-4.4h-17.5v4.4H401.6z M384.1,160.4v4.8h17.5v-4.8H384.1z M384.1,175.1v4.9h17.5v-4.9H384.1z"/>
			</g>
			<g>
				<path class="st8" d="M913.1,71.2c-1.6,1.6-5.5,5.5-5.5,12.7c0,7.2,3.9,11.1,5.5,12.7l-1.9,1.8c-1.4-1.3-6.3-5.9-6.3-14.5
					c0-8.5,4.9-13.2,6.3-14.5L913.1,71.2z"/>
				<path class="st8" d="M924.4,97.7h-2.7v-12c-0.9,2.9-1.6,4.7-2.9,7.2c-0.5-0.6-0.9-0.9-2.6-2c3-4.2,4.6-8.2,5.2-10.3h-4.3V78h4.5
					v-3.7c-1.9,0.6-2.8,0.7-3.7,0.9c-0.5-1-0.8-1.5-1.6-2.5c2.9-0.2,7.2-1.4,9.9-3l1.7,2.2c0.2,0.2,0.3,0.4,0.3,0.5
					c0,0.2-0.2,0.3-0.4,0.3c-0.2,0-0.5-0.2-0.7-0.3c-1.4,0.6-2,0.8-2.7,1V78h3.5v2.5h-3.5v0.6c1.1,2.3,2,3.6,3.7,5.5
					c-0.3,0.3-1.4,1.1-2.1,2c-0.2-0.5-1.3-2.7-1.6-3.2V97.7z M934.5,87.2c0.3,0.1,0.6,0.2,0.6,0.5c0,0.3-0.4,0.4-0.7,0.4
					c-0.4,2.5-1.2,6.9-6.7,10c-0.6-1-1.5-1.9-2.3-2.5c1.8-0.7,5.9-2.9,6.1-9.2L934.5,87.2z M936.4,76.4c2.1-2.9,3.1-5.4,3.5-6.5
					l3,1.1c0.2,0.1,0.5,0.2,0.5,0.4c0,0.4-0.5,0.4-0.8,0.3c-1,2.1-1.6,3.2-2.8,4.7h3.6v9.9h-3.7v6.8c0,1,0,1.2,1.2,1.2
					c1,0,1.5,0,1.8-3.2c0.5,0.5,1.5,1.2,2.6,1.6c-0.6,4.4-2.3,4.4-3.3,4.4h-2.6c-2.5,0-2.7-1.6-2.7-3v-7.8H929v-9.9h3.3
					c-0.6-1.3-1.9-3.7-3.1-5.2l2.6-1.3c1.5,1.8,3,4.6,3.3,5.2c-1.4,0.5-2,0.9-2.7,1.3H936.4z M931.9,79.1v4.6h8.6v-4.6H931.9z"/>
				<path class="st8" d="M958.1,74.8v2.9h-3.1v4.9c1.7-0.5,2.8-0.9,3.6-1.3c-0.1,0.3-0.1,1-0.1,1.9c0,0.5,0,0.6,0.1,0.9
					c-0.8,0.3-1.8,0.8-3.5,1.3v9c0,2.6-1.4,3.3-5.6,3.2c-0.1-1-0.5-2.3-1-3.2c0.5,0.1,1,0.2,1.8,0.2c1.7,0,1.8-0.5,1.8-1.3v-6.8
					c-0.5,0.2-2.6,0.9-3.1,1c-0.1,0.5-0.2,0.8-0.5,0.8c-0.3,0-0.4-0.3-0.4-0.6l-0.5-3c0.8-0.2,1.8-0.4,4.5-1.2v-5.8h-3.9v-2.9h3.9
					V70l3.2,0.2c0.3,0,0.7,0,0.7,0.4c0,0.3-0.3,0.4-0.8,0.6v3.7H958.1z M959.1,77.2v-2.8h3.2c0-0.7,0.1-3.8,0.1-4.5l3.2,0.1
					c0.3,0,0.7,0,0.7,0.3c0,0.3-0.2,0.5-0.8,0.6c0,0.9,0,1.8-0.1,3.5h10.2v2.8h-10.3c-0.1,0.8-0.2,2.2-0.4,3.4h7.6l1.4,1.3
					c-0.7,3.1-2.3,6.8-3.9,9.2c0.4,0.4,2.7,2.8,6.1,4.4c-1.1,0.6-2,1.8-2.3,2.3c-3.9-2.5-4.7-3.4-5.6-4.4c-1.5,1.7-3.1,3.2-5.8,4.6
					c-0.4-0.5-1-1.2-2.5-2.1c1.1-0.5,3.9-1.8,6.4-4.8c-1.3-1.8-2.1-3.6-2.7-5c-1,3.5-2.8,7.9-6,11.2c-0.3-0.4-1.2-1.4-2.5-1.9
					c6.2-6.4,6.8-15.2,6.9-18.3H959.1z M965.7,83.5c0.8,2.8,2,4.6,2.4,5.3c1.1-1.7,1.8-3.5,2.3-5.3H965.7z"/>
				<path class="st8" d="M979.3,96.6c1.6-1.6,5.5-5.5,5.5-12.7c0-7.2-3.9-11.1-5.5-12.7l1.9-1.8c1.4,1.3,6.3,5.9,6.3,14.5
					c0,8.6-4.9,13.2-6.3,14.5L979.3,96.6z"/>
			</g>
			<g>
				<path class="st8" d="M761.6,256.8c-1.6,1.6-5.5,5.5-5.5,12.7c0,7.2,3.9,11.1,5.5,12.7l-1.9,1.8c-1.4-1.3-6.3-5.9-6.3-14.5
					c0-8.5,4.9-13.2,6.3-14.5L761.6,256.8z"/>
				<path class="st8" d="M772.9,283.3h-2.7v-12c-0.9,2.9-1.6,4.7-2.9,7.2c-0.5-0.6-0.9-0.9-2.6-2c3-4.2,4.6-8.2,5.2-10.3h-4.3v-2.5
					h4.5v-3.7c-1.9,0.6-2.8,0.7-3.7,0.9c-0.5-1-0.8-1.5-1.6-2.5c2.9-0.2,7.2-1.4,9.9-3l1.7,2.2c0.2,0.2,0.3,0.4,0.3,0.5
					c0,0.2-0.2,0.3-0.4,0.3c-0.2,0-0.5-0.2-0.7-0.3c-1.4,0.6-2,0.8-2.7,1v4.5h3.5v2.5h-3.5v0.6c1.1,2.3,2,3.6,3.7,5.5
					c-0.3,0.3-1.4,1.1-2.1,2c-0.2-0.5-1.3-2.7-1.6-3.2V283.3z M783,272.8c0.3,0.1,0.6,0.2,0.6,0.5c0,0.3-0.4,0.4-0.7,0.4
					c-0.4,2.5-1.2,6.9-6.7,10c-0.6-1-1.5-1.9-2.3-2.5c1.8-0.7,5.8-2.9,6.1-9.2L783,272.8z M784.9,262.1c2.1-2.9,3.1-5.4,3.5-6.5
					l3,1.1c0.2,0.1,0.5,0.2,0.5,0.4c0,0.4-0.5,0.4-0.8,0.3c-1,2.1-1.6,3.2-2.8,4.7h3.6v9.9h-3.7v6.8c0,1,0,1.2,1.2,1.2
					c1,0,1.5,0,1.8-3.2c0.5,0.5,1.5,1.2,2.6,1.6c-0.6,4.4-2.3,4.4-3.3,4.4h-2.6c-2.5,0-2.7-1.6-2.7-3V272h-7.8v-9.9h3.3
					c-0.6-1.3-1.9-3.7-3.1-5.2l2.6-1.3c1.5,1.8,3,4.6,3.3,5.2c-1.4,0.5-2,0.9-2.7,1.3H784.9z M780.4,264.7v4.6h8.6v-4.6H780.4z"/>
				<path class="st8" d="M803.7,266.8v9.9c0,1.6,1.2,2.4,2.2,2.7c1.5,0.4,5.6,0.4,7.4,0.4c2.7,0,7.4-0.2,11.2-0.4
					c-0.4,0.7-1,2.1-1.2,3.3h-13.6c-5.1,0-6.8-1.1-7.9-3.1c-1.6,1.2-1.8,1.4-4,2.8c0,0.6-0.1,1-0.4,1c-0.3,0-0.4-0.3-0.5-0.6
					l-1.2-2.9c1.8-0.7,3.3-1.6,4.8-2.8v-7.5h-4v-3H803.7z M798.9,255.8c1.8,1.2,4.3,3.4,5.7,4.7c-0.8,0.7-2,1.8-2.3,2.2
					c-2.7-2.8-4.8-4.2-5.6-4.7L798.9,255.8z M813.3,262.7c0-0.4-0.1-1.6-0.1-3.2h-5v-3.1h8.2c-0.2,1.3-0.2,2.4-0.2,2.9
					c0,1.5,0.3,5.1,1,7.7c0.6,2,2.4,5.6,6.8,8.9c-1.5,1.2-1.6,1.3-2.3,2.3c-1.2-0.8-6.3-5-7.8-11.8c-2.2,7.7-6.2,11.2-7.1,11.9
					c-0.2-0.5-0.9-1.8-2.5-2.5c1.8-1.4,6.5-6,7.4-13.6L813.3,262.7z"/>
				<path class="st8" d="M843.7,267h2c2.7,0,5.1-1.2,5.1-3.7c0-3.5-4.4-3.5-5.2-3.5c-4.2,0-5.4,1.8-5.6,4.5h-3.9
					c0.2-1.2,0.4-3.7,2.6-5.5c2.3-2,5.6-2.2,7.1-2.2c5.5,0,8.9,2.6,8.9,6.4c0,3.9-3.2,4.9-4.4,5.3c3.9,1,4.9,3.5,4.9,5.8
					c0,3.9-2.7,7.7-9.9,7.7c-2.2,0-9.4-0.2-10-8.5h3.9c0.2,3.2,1.7,5.3,5.8,5.3c1,0,6.2,0,6.2-4.4c0-3.6-3.4-4.3-5.3-4.3h-2.3V267z"
					/>
				<path class="st8" d="M864.2,281c0,2.9-2.3,3.3-3.9,3.4V283c1.8-0.2,1.9-1.1,1.9-1.9h-1.9V277h3.9V281z"/>
				<path class="st8" d="M889.4,281.1h-20c0.3-4.5,2.5-6.8,8.8-10.6c5.9-3.6,7.1-4.4,7.1-6.9c0-2.7-2.5-3.8-5.3-3.8
					c-5.5,0-6.1,3.4-6.3,6h-3.9c0.1-1.2,0.3-3.6,1.6-5.5c2.3-3.3,6.3-3.8,8.5-3.8c5.7,0,9.2,2.9,9.2,7.1c0,3.1-1.5,5.2-6.4,8
					c-5.7,3.3-6.7,4.2-8.2,6.2h14.7V281.1z"/>
				<path class="st8" d="M912.9,257.2v3.2c-2.9,2-5,5.4-6.6,8.9c-2.2,5-2.5,9.2-2.6,11.8h-4c0.2-10.3,6-18,9-20.7h-15.3v-3.2H912.9z
					"/>
				<path class="st8" d="M936.9,274.4c0,3.1-1.9,7.3-10,7.3c-1.7,0-5.2-0.2-7.5-2.1c-1.4-1.2-2.5-3-2.5-5.2c0-4.8,3.9-5.9,5.1-6.2
					c-1.2-0.4-4.3-1.5-4.3-5.3c0-3.5,3-6.4,9.2-6.4c6.4,0,9.2,3.1,9.2,6.4c0,3.9-3.1,4.9-4.3,5.3C935,269.1,936.9,271.1,936.9,274.4
					z M920.8,274c0,3.6,3.5,4.4,6.1,4.4c2.4,0,6.1-0.7,6.1-4.4c0-2.5-2-4.4-6.1-4.4C922.8,269.6,920.8,271.6,920.8,274z
					 M921.6,263.5c0,3.5,4.6,3.5,5.3,3.5c0.7,0,5.4,0,5.4-3.5c0-0.7-0.3-3.7-5.4-3.7C922,259.8,921.6,262.5,921.6,263.5z"/>
				<path class="st8" d="M952.8,271.3v11.9h-3.3v-26.4h24.7v22.1c0,3.2-1.3,4.3-5.6,4.3c-0.5,0-0.8,0-1.2-0.1
					c-0.2-2.1-0.7-3-1.1-3.6c1.3,0.3,2.4,0.3,2.8,0.3c1.6,0,1.8-0.5,1.8-1.8v-6.6H952.8z M960.2,259.9h-7.4v8.4h7.4V259.9z
					 M963.4,268.3h7.5v-8.4h-7.5V268.3z"/>
				<path class="st8" d="M979.5,282.2c1.6-1.6,5.5-5.5,5.5-12.7c0-7.2-3.9-11.1-5.5-12.7l1.9-1.8c1.4,1.3,6.3,5.9,6.3,14.5
					c0,8.6-4.9,13.2-6.3,14.5L979.5,282.2z"/>
			</g>
		</g>
	</g>
</g>
</svg>
