<?xml version="1.0" encoding="utf-8"?>
<!-- Generator: Adobe Illustrator 28.0.0, SVG Export Plug-In . SVG Version: 6.00 Build 0)  -->
<svg version="1.1" id="レイヤー_1" xmlns="http://www.w3.org/2000/svg" xmlns:xlink="http://www.w3.org/1999/xlink" x="0px"
	 y="0px" viewBox="0 0 170 40" style="enable-background:new 0 0 170 40;" xml:space="preserve">
<style type="text/css">
	.st0{fill:#F29600;}
	.st1{fill:#FFFF00;}
	.st2{clip-path:url(#SVGID_00000182500979396461859130000001184755641136542388_);}
	.st3{fill:#FBDFB2;}
	.st4{fill:#FFFFF4;}
	.st5{fill:none;}
</style>
<g>
	<path class="st0" d="M150,40H20C9,40,0,31,0,20S9,0,20,0h130c11,0,20,9,20,20S161,40,150,40z"/>
	<g>
		<g>
			<path class="st1" d="M44,11.1l-3.4,2.5V9.9L44,7.4h3.4v24.3H44V11.1z"/>
			<path class="st1" d="M76.6,13.5c-0.1,0.2-0.2,0.5-0.3,0.8c-0.1,0.3-0.2,0.6-0.2,0.8c-0.1,0.6-0.3,1.3-0.5,2.1
				c-0.2,0.8-0.5,1.6-0.8,2.4c-0.3,0.8-0.7,1.7-1.1,2.5s-0.9,1.6-1.4,2.2c-0.8,1-1.6,1.9-2.6,2.8c-1,0.9-2.1,1.6-3.3,2.3
				s-2.6,1.3-4.1,1.8l-2.5-2.7c1.7-0.4,3.1-0.9,4.3-1.5c1.2-0.6,2.3-1.3,3.2-2c0.9-0.8,1.7-1.6,2.4-2.4c0.6-0.7,1.1-1.5,1.5-2.4
				c0.4-0.9,0.8-1.7,1-2.6c0.3-0.9,0.5-1.7,0.6-2.4c-0.3,0-0.7,0-1.3,0c-0.6,0-1.3,0-2.1,0c-0.8,0-1.7,0-2.5,0c-0.9,0-1.7,0-2.6,0
				c-0.8,0-1.5,0-2.2,0s-1.1,0-1.4,0c-0.6,0-1.1,0-1.6,0s-0.9,0-1.2,0.1v-3.2c0.3,0,0.5,0.1,0.9,0.1c0.3,0,0.7,0.1,1,0.1
				c0.4,0,0.7,0,0.9,0c0.2,0,0.6,0,1.1,0c0.5,0,1.1,0,1.8,0c0.7,0,1.4,0,2.1,0c0.7,0,1.5,0,2.2,0c0.7,0,1.4,0,2.1,0
				c0.6,0,1.2,0,1.7,0c0.5,0,0.8,0,1,0c0.2,0,0.5,0,0.8,0c0.3,0,0.6-0.1,0.9-0.2L76.6,13.5z M73.8,11.6c0-0.5,0.1-1,0.4-1.5
				c0.3-0.5,0.6-0.8,1.1-1.1c0.4-0.3,0.9-0.4,1.5-0.4c0.6,0,1.1,0.1,1.5,0.4c0.4,0.3,0.8,0.6,1.1,1.1c0.3,0.5,0.4,0.9,0.4,1.5
				c0,0.5-0.1,1-0.4,1.5s-0.6,0.8-1.1,1.1c-0.4,0.3-0.9,0.4-1.5,0.4c-0.5,0-1-0.1-1.5-0.4c-0.4-0.3-0.8-0.6-1.1-1.1
				C73.9,12.6,73.8,12.1,73.8,11.6z M75.2,11.6c0,0.4,0.1,0.8,0.4,1.1c0.3,0.3,0.7,0.4,1.1,0.4s0.8-0.1,1.1-0.4
				c0.3-0.3,0.5-0.7,0.5-1.1c0-0.4-0.2-0.8-0.5-1.1c-0.3-0.3-0.7-0.4-1.1-0.4s-0.8,0.1-1.1,0.4C75.4,10.8,75.2,11.2,75.2,11.6z"/>
			<path class="st1" d="M103.4,17.9c-0.1,0.2-0.2,0.3-0.3,0.5c-0.1,0.2-0.1,0.3-0.2,0.5c-0.4,1.2-0.9,2.4-1.4,3.7
				c-0.6,1.2-1.3,2.3-2.3,3.4c-1.3,1.4-2.7,2.6-4.2,3.4c-1.6,0.9-3.1,1.5-4.8,2L88,28.8c1.9-0.4,3.5-1,5-1.8
				c1.5-0.8,2.7-1.7,3.7-2.7c0.7-0.7,1.3-1.5,1.7-2.3c0.4-0.8,0.8-1.6,1-2.4c-0.2,0-0.5,0-1,0c-0.5,0-1,0-1.7,0c-0.7,0-1.4,0-2.1,0
				s-1.5,0-2.3,0s-1.5,0-2.2,0c-0.7,0-1.3,0-1.9,0s-1,0-1.3,0c-0.3,0-0.7,0-1.2,0c-0.5,0-1,0.1-1.5,0.1v-2.9c0.5,0,1,0.1,1.5,0.1
				c0.5,0,0.9,0,1.3,0c0.2,0,0.6,0,1.1,0c0.5,0,1.1,0,1.8,0s1.4,0,2.2,0c0.8,0,1.6,0,2.4,0s1.5,0,2.2,0s1.3,0,1.8,0s0.9,0,1.1,0
				c0.4,0,0.7,0,1-0.1c0.3,0,0.5-0.1,0.7-0.2L103.4,17.9z M86.5,10.8c0.3,0,0.7,0.1,1.2,0.1s0.9,0,1.3,0c0.3,0,0.8,0,1.4,0
				c0.7,0,1.4,0,2.2,0c0.8,0,1.6,0,2.5,0s1.6,0,2.2,0s1.1,0,1.4,0c0.4,0,0.9,0,1.3,0s0.9-0.1,1.2-0.1v2.9c-0.3,0-0.7-0.1-1.2-0.1
				c-0.5,0-1,0-1.4,0c-0.3,0-0.8,0-1.4,0s-1.4,0-2.2,0c-0.8,0-1.6,0-2.5,0c-0.8,0-1.6,0-2.2,0s-1.1,0-1.4,0c-0.4,0-0.8,0-1.3,0
				c-0.5,0-0.9,0-1.2,0.1V10.8z"/>
			<path class="st1" d="M109.7,27.8c1.4-0.2,2.6-0.5,3.8-0.8s2.3-0.8,3.3-1.2c1-0.4,1.9-0.9,2.7-1.4c1.4-0.8,2.7-1.8,3.8-2.9
				c1.2-1.1,2.2-2.2,3-3.4c0.9-1.2,1.6-2.3,2.1-3.4l1.7,3.1c-0.6,1.1-1.4,2.2-2.3,3.4c-0.9,1.1-1.9,2.2-3.1,3.2
				c-1.1,1-2.4,1.9-3.7,2.7c-0.9,0.5-1.8,1-2.8,1.5c-1,0.5-2,0.9-3.2,1.3c-1.1,0.4-2.3,0.7-3.6,0.9L109.7,27.8z M112.6,11
				c0.4,0.3,0.9,0.7,1.5,1.1c0.6,0.4,1.2,0.9,1.8,1.4s1.2,1,1.8,1.5c0.6,0.5,1,0.9,1.4,1.3l-2.3,2.3c-0.3-0.3-0.7-0.7-1.2-1.2
				c-0.5-0.5-1.1-1-1.7-1.5c-0.6-0.5-1.2-1-1.8-1.5c-0.6-0.5-1.1-0.9-1.6-1.2L112.6,11z"/>
		</g>
	</g>
</g>
</svg>
