<?xml version="1.0" encoding="utf-8"?>
<!-- Generator: Adobe Illustrator 28.0.0, SVG Export Plug-In . SVG Version: 6.00 Build 0)  -->
<svg version="1.1" id="レイヤー_1" xmlns="http://www.w3.org/2000/svg" xmlns:xlink="http://www.w3.org/1999/xlink" x="0px"
	 y="0px" viewBox="0 0 436.2 194.3" style="enable-background:new 0 0 436.2 194.3;" xml:space="preserve">
<style type="text/css">
	.st0{fill:#F29600;}
	.st1{fill:#FFFF00;}
	.st2{clip-path:url(#SVGID_00000009574175715346380140000005124321560304546200_);}
	.st3{fill:#FBDFB2;}
	.st4{fill:#FFFFF4;}
	.st5{fill:none;}
</style>
<g>
	<defs>
		<rect id="SVGID_1_" width="436.2" height="194.3"/>
	</defs>
	<clipPath id="SVGID_00000160895132166327285520000014897459011407393668_">
		<use xlink:href="#SVGID_1_"  style="overflow:visible;"/>
	</clipPath>
	<g style="clip-path:url(#SVGID_00000160895132166327285520000014897459011407393668_);">
		<g>
			<path class="st0" d="M11.2,135.9H5.1c-0.4,0-1.1-0.1-1.1-1c0-1,0.8-1,1.1-1h6.7c-0.4-0.4-1.3-1.1-1.9-1.4
				c-1.1-0.7-1.3-0.8-1.3-1.2c0-0.5,0.4-1.1,1.1-1.1c0.3,0,0.6,0.1,0.7,0.2c0.4,0.2,0.9,0.5,2.2,1.5c0.4-0.2,1.1-0.5,1.8-1
				c0.3-0.2,0.7-0.4,0.7-0.6c0-0.2-0.2-0.2-0.4-0.2H6.4c-0.5,0-1.1-0.1-1.1-1c0-1,0.8-1,1.1-1h10.7c0.5,0,1.7,0,1.7,1.4
				c0,0.8-0.5,1.2-0.8,1.5c-0.6,0.5-2.5,1.5-3.8,2.1c0.5,0.4,0.5,0.5,0.7,0.8h3.8c0.6,0,1.8,0,1.8,1.5c0,0.6-0.2,1-0.4,1.4
				c-0.4,0.7-1.3,1.7-2.4,2.7c-1,0.9-1.2,0.9-1.5,0.9c-0.7,0-1.2-0.6-1.2-1.2c0-0.4,0.1-0.4,1-1.2c1-0.8,1.6-1.6,1.6-1.8
				c0-0.2-0.2-0.2-0.4-0.2h-3.6v6c0,0.5,0,1.6-1,2c-0.5,0.2-2,0.2-2.7,0.2c-0.5,0-1.4,0-1.8-0.1c-0.3-0.1-0.6-0.5-0.6-1.1
				c0-1.1,1-1.1,1.2-1.1c0.1,0,1.2,0,1.4,0c0.6,0,1,0,1-0.7V135.9z"/>
			<path class="st0" d="M25.3,136.8c-0.5,0-1.5,0.1-1.9,0.1c-0.2,0-0.9,0-0.9-1c0-0.4,0.2-0.7,0.4-0.8c0.2-0.1,0.3-0.1,1.1-0.1
				c0.2-0.2,0.4-0.4,0.8-1c-0.6-0.8-1.2-1.5-1.4-1.7c-0.7-0.7-0.8-0.8-0.8-1.1c0-0.4,0.3-1.1,1-1.1c0.2,0,0.3,0.1,0.5,0.1
				c0.3-0.4,0.6-1,0.8-1.5c0.5-0.9,0.6-1.2,1.1-1.2c0.4,0,1.2,0.3,1.2,0.9c0,0.3-0.1,0.5-0.5,1.2c-0.4,0.6-0.9,1.4-1.2,1.9
				c0.2,0.2,0.3,0.4,0.5,0.6c0.6-1,0.9-1.4,1.3-2.1c0.4-0.7,0.5-0.9,1-0.9c0.5,0,1.2,0.3,1.2,1c0,0.3-0.1,0.5-0.6,1.2
				c-1.4,2.2-1.9,2.8-2.4,3.4c0.9-0.1,1-0.1,1.5-0.1c-0.2-0.4-0.3-0.7-0.3-0.9c0-0.5,0.5-0.7,0.8-0.7c0.4,0,0.6,0.3,0.9,1
				c0.1,0.2,0.8,2,0.8,2.5c0,0.6-0.6,0.7-0.9,0.7c-0.5,0-0.6-0.3-0.8-0.9c-0.2,0-1,0.2-1.2,0.2v6.7c0,0.5-0.1,1-1.1,1
				c-1,0-1-0.7-1-1V136.8z M24.8,138.4c0,0.3-0.1,2.6-0.3,3.5c-0.1,0.7-0.3,1-0.9,1c-0.3,0-1-0.1-1-0.7c0-0.3,0.3-1.7,0.4-2
				c0-0.3,0.2-1.8,0.2-2c0.1-0.5,0.6-0.5,0.8-0.5C24.7,137.6,24.8,138.1,24.8,138.4z M29.6,138.9c0.1,0.4,0.3,1.8,0.3,2.5
				c0,0.4,0,0.9-0.8,0.9c-0.8,0-0.8-0.3-0.9-1.3c-0.1-1-0.2-1.4-0.2-1.8c-0.1-0.5-0.1-0.6-0.1-0.8c0-0.7,0.6-0.7,0.9-0.7
				C29.4,137.6,29.5,138.1,29.6,138.9z M36.5,129.9c2,0,2.1,1.1,2.1,2.6c0,3.5-0.2,7.9-0.5,9.3c-0.2,0.8-0.6,1.9-1.7,2.1
				c-0.4,0.1-0.8,0.1-2.2,0.1c-1.3,0-1.5,0-1.8-0.1c-0.4-0.2-0.6-0.7-0.6-1.1c0-1.1,1-1.1,1.2-1.1c0.2,0,1.3,0,1.5,0
				c1.1,0,1.2-0.3,1.4-1.5c0.2-1.8,0.3-5.4,0.3-7.4c0-0.7,0-1-0.7-1h-3.2c-0.6,1.4-1.1,2.1-1.2,2.2c-0.3,0.4-0.5,0.5-0.8,0.5
				c-0.6,0-1.2-0.5-1.2-1.1c0-0.3,0.1-0.5,0.4-1c1-1.4,1.4-3,1.7-4.2c0.1-0.4,0.2-0.9,1-0.9c0.3,0,1.1,0.1,1.1,0.8
				c0,0.3-0.1,0.7-0.4,1.7H36.5z M33.8,135.7c0.3,0.5,1,1.9,1,2.4c0,0.5-0.6,1-1.2,1c-0.6,0-0.8-0.3-1.1-1.2c-0.2-0.7-0.4-0.9-1-2.1
				c-0.1-0.2-0.2-0.4-0.2-0.7c0-0.5,0.5-0.8,1-0.9C32.9,134.1,33.2,134.5,33.8,135.7z"/>
			<path class="st0" d="M50.5,132.1c2.1,2.8,3.7,5,6.1,7.9c0.5,0.5,0.6,0.8,0.6,1.1c0,0.8-0.7,1.4-1.3,1.4c-0.5,0-0.8-0.4-1.5-1.1
				c-2.1-2.6-4.1-5.4-6-8.1c-0.3-0.4-0.4-0.6-0.7-0.6c-0.3,0-0.3,0.1-0.8,0.7c-1.1,1.6-2.9,4.1-3.5,4.8c-0.2,0.2-0.4,0.4-0.8,0.4
				c-0.6,0-1.4-0.6-1.4-1.3c0-0.4,0.1-0.5,1.1-1.7c1-1.2,2.2-2.9,3.3-4.4c0.5-0.7,1.1-1.4,2.1-1.4C48.8,129.8,49.2,130.3,50.5,132.1
				z M57.6,131.4c0,1.4-1.1,2.5-2.5,2.5c-1.4,0-2.6-1.1-2.6-2.5c0-1.4,1.2-2.6,2.6-2.6C56.4,128.9,57.6,130,57.6,131.4z M53.7,131.4
				c0,0.8,0.6,1.3,1.3,1.3c0.7,0,1.3-0.6,1.3-1.3c0-0.8-0.6-1.3-1.3-1.3C54.4,130.1,53.7,130.7,53.7,131.4z"/>
			<path class="st0" d="M74.3,134.8c0.4,0,1.2,0,1.2,1.2c0,1.1-0.9,1.1-1.2,1.1h-13c-0.4,0-1.2,0-1.2-1.1c0-1.1,0.8-1.1,1.2-1.1
				H74.3z"/>
			<path class="st0" d="M80.1,132.5c0.6,0,2.2,0.7,2.8,1c1.4,0.6,1.8,0.8,1.8,1.5c0,0.7-0.5,1.3-1.1,1.3c-0.2,0-0.2,0-1.6-0.6
				c-0.4-0.2-2.5-1-2.6-1.1c-0.3-0.2-0.5-0.5-0.5-0.8C79.1,133.1,79.5,132.5,80.1,132.5z M80.2,142c0-0.8,0.5-0.9,1.7-1.3
				c0.9-0.3,4.2-1.5,7.4-4.8c0.8-0.9,1.6-1.9,2.3-2.8c0.2-0.4,0.5-0.7,1-0.7c0.7,0,1.3,0.6,1.3,1.3c0,0.9-2.6,4-5.2,6.1
				c-3.5,2.8-6.8,3.6-7.3,3.6C80.5,143.4,80.2,142.6,80.2,142z M81.7,128.3c0.5,0,2.3,0.7,3,1c1.1,0.5,1.6,0.7,1.6,1.4
				c0,0.6-0.5,1.2-1,1.2c-0.2,0-0.4-0.1-1.5-0.5c-0.4-0.2-2.6-1-2.6-1.1c-0.2-0.1-0.5-0.4-0.5-0.8C80.7,129,81.1,128.3,81.7,128.3z
				 M92.1,130.6c0,0.4-0.4,0.7-0.8,0.7c-0.4,0-0.6-0.3-0.8-0.8c-0.4-0.8-0.8-1.3-1.1-1.8c-0.1-0.1-0.2-0.3-0.2-0.5
				c0-0.6,0.7-0.8,1-0.7C90.8,127.8,92.1,130.2,92.1,130.6z M94.8,130.4c0,0.5-0.5,0.7-0.8,0.7c-0.4,0-0.5-0.2-0.8-0.8
				c-0.3-0.7-0.6-1.2-1-1.7c-0.3-0.4-0.3-0.5-0.3-0.6c0-0.2,0.2-0.7,0.8-0.7c0.1,0,0.1,0,0.2,0C93.5,127.5,94.8,130,94.8,130.4z"/>
			<path class="st0" d="M101,143.1c0,0.4-0.1,1.1-1,1.1c-0.9,0-1.2-0.3-1.2-1.1v-7.7c-0.5,0.7-0.8,1.1-1.3,1.1
				c-0.6,0-1.2-0.6-1.2-1.3c0-0.5,0-0.5,1.4-2.3c0.4-0.5,1.4-1.9,2.2-4.6c0.1-0.4,0.3-0.8,1-0.8c0.6,0,1.2,0.3,1.2,0.9
				c0,0.7-0.7,2.3-1,3.1V143.1z M112,129.9c0.3,0,1.1,0,1.1,1c0,0.8-0.3,1.1-1.1,1.1h-4.4v2.1h4.1c0.4,0,1.1,0.1,1.1,1
				c0,0.7-0.3,1.1-1.1,1.1h-4.1v2.1h4.1c0.3,0,1.1,0,1.1,1c0,0.8-0.3,1.1-1.1,1.1h-4.1v2.6c0,0.4-0.1,1.1-1,1.1
				c-0.8,0-1.2-0.2-1.2-1.1v-10.8c-0.3,0.5-1,1.8-1.7,2.6c-0.2,0.2-0.4,0.5-0.8,0.5c-0.7,0-1.2-0.6-1.2-1.2c0-0.2,0-0.4,0.3-0.7
				c1-1.4,1.8-2.4,2.5-4.5c0.1-0.2,0.3-0.9,0.3-1c0.2-0.3,0.5-0.4,0.9-0.4c0.4,0,1.2,0.1,1.2,0.9c0,0.4-0.3,1.2-0.4,1.5H112z"/>
			<path class="st0" d="M130.4,130.2c0.5,0,1.1,0.1,1.1,1c0,0.7-0.2,1.1-1.1,1.1H126c0.1,1.7,0.3,3.5,0.7,5.1
				c0.4-0.7,0.9-1.6,1.4-3.4c0.2-0.7,0.4-1,1-1c0.6,0,1.2,0.4,1.2,0.9c0,0.3-0.1,0.5-0.2,1c-0.8,2.4-1.9,4-2.6,5
				c0.3,0.6,0.9,1.7,1.4,1.7c0.4,0,0.6-0.5,0.8-1.2c0.3-0.8,0.5-0.9,0.9-0.9c0.4,0,1,0.2,1,0.9c0,0.3-0.7,3.8-2.6,3.8
				c-1.7,0-2.8-1.8-3.1-2.5c-1.3,1.2-2.9,2.3-3.7,2.3c-0.6,0-1.1-0.7-1.1-1.2c0-0.4,0.2-0.6,0.8-1c1.8-1,2.4-1.4,3.2-2.3
				c-0.8-2.3-1.2-5.8-1.2-7.3h-5c-0.4,0-0.6,0.2-0.6,0.6v1h2.4c1.3,0,2.2,0.2,2.2,2.1c0,2.1-0.1,4.4-0.6,5.3
				c-0.4,0.6-0.9,0.9-2.2,0.9c-0.9,0-1,0-1.2-0.2c-0.4-0.3-0.4-0.8-0.4-1c0-0.8,0.3-1.1,0.9-1.1c0.8,0,0.9,0,1.1-0.3
				c0.3-0.5,0.3-2.6,0.3-3.2c0-0.6-0.2-0.6-0.7-0.6h-1.8v0.9c0,1.7-0.2,3.4-0.6,5.1c-0.5,1.9-0.9,2.3-1.5,2.3
				c-0.4,0-1.3-0.2-1.3-1.1c0-0.3,0.1-0.4,0.3-1c0.6-1.4,0.9-2.8,0.9-5.3v-4.3c0-1.6,0.7-2,2-2h5.7c0-1,0-1.6,0-1.6
				c0-0.4,0-1.1,1.1-1.1c1.1,0,1.1,0.7,1.1,1.1c0,0.3,0,0.7,0,1.6h2.7c-0.3-0.3-0.3-0.4-0.9-0.9c-0.4-0.4-0.5-0.5-0.5-0.8
				c0-0.5,0.7-0.9,1.1-0.9c0.4,0,0.7,0.2,1.2,0.8c0.6,0.5,0.9,0.9,0.9,1.2c0,0.3-0.2,0.5-0.3,0.6H130.4z"/>
			<path class="st0" d="M45.6,160.8c0.8,0,2.4,0.1,2.4,2.1c0,1.2-0.3,2.4-2.3,2.4h-0.6v3.2h1.4c1.1,0,2.4,0.2,2.4,2.1
				c0,1.6-0.5,2.4-2.4,2.4h-1.4v3.3h0.6c1.5,0,2.3,0.7,2.3,2.1c0,1.5-0.5,2.4-2.4,2.4H20.5c-0.6,0-2.4,0-2.4-2.1
				c0-1.7,0.8-2.3,2.4-2.3h1.7V173h-2.5c-0.7,0-2.4,0-2.4-2.1c0-1.6,0.5-2.4,2.4-2.4h2.9v-2.1c-1.7,1.6-2.3,1.8-3,1.8
				c-1.5,0-2.4-1.5-2.4-2.6c0-1,0.2-1.2,2.2-2.8c1.2-1,2-2,3.1-3.4c0.8-1,1.6-1,1.8-1c1.1,0,2.8,0.8,2.6,2.3H45.6z M24.7,183.1
				c0,0.7-0.3,1.6-1,3.1c-1.7,3.6-2.4,3.8-3.4,3.8c-1.3,0-2.9-0.9-2.9-2.4c0-0.6,0.1-0.7,1.2-2.4c0.4-0.6,0.8-1.4,1.5-2.9
				c0.3-0.6,0.7-1.2,1.9-1.2C22.5,181,24.7,181.3,24.7,183.1z M31.4,183.1c0.1,0.9,0.3,3.1,0.3,4.5c0,0.9,0,2.4-2.6,2.4
				c-1.1,0-2.5-0.3-2.5-2.2c0-0.4,0-2.2,0-2.6c-0.1-2.4-0.1-2.6,0.2-3.1c0.5-0.8,1.5-0.9,2.1-0.9C30.5,181.2,31.3,181.8,31.4,183.1z
				 M28.9,165.3h-2v3.2h2V165.3z M28.9,173h-2v3.3h2V173z M34.8,165.3h-2.1v3.2h2.1V165.3z M34.8,173h-2.1v3.3h2.1V173z M39.3,184.3
				c0.3,0.9,0.8,2.6,0.8,3.4c0,2-2.6,2-2.9,2c-2,0-2.1-1.1-2.4-2.8c-0.1-0.6-0.8-3.4-0.8-4c0-1.5,1.7-1.8,2.6-1.8
				C38.3,181.2,38.4,181.7,39.3,184.3z M40.7,165.3h-2.1v3.2h2.1V165.3z M40.7,173h-2.1v3.3h2.1V173z M47.2,183.9
				c0.6,0.9,1.5,2.6,1.5,3.5c0,1.8-2.2,2.4-3,2.4c-1.4,0-1.6-0.4-2.7-3c-0.2-0.4-1-2.1-1.2-2.4c-0.1-0.3-0.3-0.7-0.3-1.2
				c0-1.7,2-2.1,2.6-2.1C45.6,181,45.6,181.1,47.2,183.9z"/>
			<path class="st0" d="M59.6,162.1v-1.4c0-0.7,0-2.1,2.2-2.1c1.9,0,2.4,0.7,2.4,2.1v1.4H68c0.7,0,2.4,0,2.4,2
				c0,1.5-0.5,2.3-2.4,2.3h-3.8v1.7h4.6c1.1,0,2.4,0.3,2.4,2.1c0,2-1.2,2.3-2.4,2.3h-4.6v1.6h2.1c3.4,0,4.1,0.6,4.1,4.1v6.3
				c0,2.9-1.1,3.3-3.3,3.3c-1.8,0-2.6-0.2-3-1.5v1.2c0,0.8-0.1,2.4-2.1,2.4c-1.6,0-2.5-0.5-2.5-2.4v-9.1h-1.4
				c-0.4,0-0.6,0.2-0.6,0.6v6.8c0,0.5,0,2.4-2.1,2.4c-1.7,0-2.3-0.8-2.3-2.4v-7.7c0-3.4,0.6-4.1,4.1-4.1h2.3v-1.6h-5.2
				c-0.6,0-2.4,0-2.4-2.1c0-1.6,0.8-2.2,2-2.3c-1.1-0.3-1.9-0.9-1.9-2c0-0.4,0.1-0.6,0.7-2.1c0.6-1.3,0.8-2,1.2-3.5
				c0.3-1,0.7-1.5,1.9-1.5c0.6,0,2.4,0.1,2.4,1.8c0,0.4-0.2,1-0.2,1.2H59.6z M56.6,166.5c-0.4,1-0.7,1.5-1.5,1.7h4.5v-1.7H56.6z
				 M64.3,178.6v5.3c0.3-0.8,0.8-0.8,1.1-0.9c0.7-0.1,0.8-0.1,0.8-0.6v-3.2c0-0.4-0.2-0.6-0.6-0.6H64.3z M75.9,180.7
				c0,0.6,0,2.1-2.2,2.1c-2,0-2.2-1.2-2.2-2.1v-17.6c0-0.5,0-2.1,2.2-2.1c2.1,0,2.2,1.3,2.2,2.1V180.7z M77.7,161
				c0-0.9,0.1-2.4,2.3-2.4c2,0,2.4,1.2,2.4,2.4v24.9c0,4-2.2,4-6.2,4c-2,0-4.2,0-4.2-2.8c0-2.5,2-2.5,2.7-2.5c2.9,0,3.1,0,3.1-1.2
				V161z"/>
			<path class="st0" d="M92.2,187.7c0,0.6,0,2.4-2.2,2.4c-1.6,0-2.4-0.6-2.4-2.4v-24c0-3.4,0.6-4.1,4.1-4.1h4c2,0,4.1,0,4.1,3.2
				c0,1.7-0.5,3.2-1.9,6.5c-0.1,0.2-0.7,1.5-0.7,1.6c0,0.2,0.1,0.3,0.3,0.5c1.8,1.8,2.7,4.8,2.7,7.1c0,5.3-3.2,5.3-4.9,5.3
				c-1.6,0-2.7,0-3-1.7V187.7z M92.2,180.1c0.1-0.3,0.3-1.1,1.3-1.2s1.6-0.1,1.6-1.7c0-1.1-0.4-2.5-1.7-4.3
				c-0.6-0.8-0.8-1.1-0.8-1.7c0-0.5,0.2-0.9,0.6-1.9c0.4-0.9,1.6-4.3,1.6-4.7c0-0.5-0.4-0.5-0.6-0.5h-1.3c-0.4,0-0.6,0.3-0.6,0.7
				V180.1z M105.6,175.4v8.6c1.4-0.3,2.2-0.4,2.8-0.4c1.7,0,1.8,2,1.8,2.3c0,1.7-0.9,1.9-3.9,2.6c-0.7,0.1-5.8,1.2-6.7,1.2
				c-1.9,0-2.1-2-2.1-2.6c0-1.9,0.9-2,3.3-2.4v-21.1c0-3.4,0.6-4.1,4.1-4.1h8c3.4,0,4.1,0.6,4.1,4.1v7.7c0,3.4-0.7,4.1-4.1,4.1h-1.5
				c0.2,1.3,0.5,2.2,0.8,2.9c0.7-0.6,0.8-0.7,2-1.7c0.7-0.6,1.1-0.7,1.6-0.7c1.4,0,2.2,1.4,2.2,2.5c0,0.7-0.3,1.2-1.5,2.1
				c-0.4,0.3-1.4,1.1-2.2,1.7c0.7,1,0.9,1.2,3.1,3.3c0.5,0.5,0.8,1.1,0.8,1.7c0,1.6-1.5,2.8-2.8,2.8c-1.8,0-3.9-2.9-5.1-5
				c-2.5-4.1-3-7.7-3.2-9.5H105.6z M112.3,165.9v-1.4c0-0.4-0.2-0.6-0.6-0.6h-5.4c-0.5,0-0.6,0.3-0.6,0.6v1.4H112.3z M112.3,169.3
				h-6.7v2.1h6.1c0.5,0,0.6-0.2,0.6-0.6V169.3z"/>
		</g>
	</g>
	<g style="clip-path:url(#SVGID_00000160895132166327285520000014897459011407393668_);">
		<g>
			<path class="st0" d="M170.8,135.9h-6.1c-0.4,0-1.1-0.1-1.1-1c0-1,0.8-1,1.1-1h6.7c-0.4-0.4-1.3-1.1-1.9-1.4
				c-1.1-0.7-1.3-0.8-1.3-1.2c0-0.5,0.4-1.1,1.1-1.1c0.3,0,0.6,0.1,0.7,0.2c0.4,0.2,0.9,0.5,2.2,1.5c0.4-0.2,1.1-0.5,1.8-1
				c0.3-0.2,0.7-0.4,0.7-0.6c0-0.2-0.2-0.2-0.4-0.2H166c-0.5,0-1.1-0.1-1.1-1c0-1,0.8-1,1.1-1h10.7c0.5,0,1.7,0,1.7,1.4
				c0,0.8-0.5,1.2-0.8,1.5c-0.6,0.5-2.5,1.5-3.8,2.1c0.5,0.4,0.5,0.5,0.7,0.8h3.8c0.6,0,1.8,0,1.8,1.5c0,0.6-0.2,1-0.4,1.4
				c-0.4,0.7-1.3,1.7-2.4,2.7c-1,0.9-1.2,0.9-1.5,0.9c-0.7,0-1.2-0.6-1.2-1.2c0-0.4,0.1-0.4,1-1.2c1-0.8,1.6-1.6,1.6-1.8
				c0-0.2-0.2-0.2-0.4-0.2h-3.6v6c0,0.5,0,1.6-1,2c-0.5,0.2-2,0.2-2.7,0.2c-0.5,0-1.4,0-1.8-0.1c-0.3-0.1-0.6-0.5-0.6-1.1
				c0-1.1,1-1.1,1.2-1.1c0.1,0,1.2,0,1.4,0c0.6,0,1,0,1-0.7V135.9z"/>
			<path class="st0" d="M184.9,136.8c-0.5,0-1.5,0.1-1.9,0.1c-0.2,0-0.9,0-0.9-1c0-0.4,0.2-0.7,0.4-0.8c0.2-0.1,0.3-0.1,1.1-0.1
				c0.2-0.2,0.4-0.4,0.8-1c-0.6-0.8-1.2-1.5-1.4-1.7c-0.7-0.7-0.8-0.8-0.8-1.1c0-0.4,0.3-1.1,1-1.1c0.2,0,0.3,0.1,0.5,0.1
				c0.3-0.4,0.6-1,0.8-1.5c0.5-0.9,0.6-1.2,1.1-1.2c0.4,0,1.2,0.3,1.2,0.9c0,0.3-0.1,0.5-0.5,1.2c-0.4,0.6-0.9,1.4-1.2,1.9
				c0.2,0.2,0.3,0.4,0.5,0.6c0.6-1,0.9-1.4,1.3-2.1c0.4-0.7,0.5-0.9,1-0.9c0.5,0,1.2,0.3,1.2,1c0,0.3-0.1,0.5-0.6,1.2
				c-1.4,2.2-1.9,2.8-2.4,3.4c0.9-0.1,1-0.1,1.5-0.1c-0.2-0.4-0.3-0.7-0.3-0.9c0-0.5,0.5-0.7,0.8-0.7c0.4,0,0.6,0.3,0.9,1
				c0.1,0.2,0.8,2,0.8,2.5c0,0.6-0.6,0.7-0.9,0.7c-0.5,0-0.6-0.3-0.8-0.9c-0.2,0-1,0.2-1.2,0.2v6.7c0,0.5-0.1,1-1.1,1
				c-1,0-1-0.7-1-1V136.8z M184.4,138.4c0,0.3-0.1,2.6-0.3,3.5c-0.1,0.7-0.3,1-0.9,1c-0.3,0-1-0.1-1-0.7c0-0.3,0.3-1.7,0.4-2
				c0-0.3,0.2-1.8,0.2-2c0.1-0.5,0.6-0.5,0.8-0.5C184.3,137.6,184.4,138.1,184.4,138.4z M189.2,138.9c0.1,0.4,0.3,1.8,0.3,2.5
				c0,0.4,0,0.9-0.8,0.9c-0.8,0-0.8-0.3-0.9-1.3c-0.1-1-0.2-1.4-0.2-1.8c-0.1-0.5-0.1-0.6-0.1-0.8c0-0.7,0.6-0.7,0.9-0.7
				C189,137.6,189.1,138.1,189.2,138.9z M196.1,129.9c2,0,2.1,1.1,2.1,2.6c0,3.5-0.2,7.9-0.5,9.3c-0.2,0.8-0.6,1.9-1.7,2.1
				c-0.4,0.1-0.8,0.1-2.2,0.1c-1.3,0-1.5,0-1.8-0.1c-0.4-0.2-0.6-0.7-0.6-1.1c0-1.1,1-1.1,1.2-1.1c0.2,0,1.3,0,1.5,0
				c1.1,0,1.2-0.3,1.4-1.5c0.2-1.8,0.3-5.4,0.3-7.4c0-0.7,0-1-0.7-1h-3.2c-0.6,1.4-1.1,2.1-1.2,2.2c-0.3,0.4-0.5,0.5-0.8,0.5
				c-0.6,0-1.2-0.5-1.2-1.1c0-0.3,0.1-0.5,0.4-1c1-1.4,1.4-3,1.7-4.2c0.1-0.4,0.2-0.9,1-0.9c0.3,0,1.1,0.1,1.1,0.8
				c0,0.3-0.1,0.7-0.4,1.7H196.1z M193.4,135.7c0.3,0.5,1,1.9,1,2.4c0,0.5-0.6,1-1.2,1c-0.6,0-0.8-0.3-1.1-1.2
				c-0.2-0.7-0.4-0.9-1-2.1c-0.1-0.2-0.2-0.4-0.2-0.7c0-0.5,0.5-0.8,1-0.9C192.5,134.1,192.8,134.5,193.4,135.7z"/>
			<path class="st0" d="M215.1,142c0,0.4,0,1.5-0.9,1.8c-0.4,0.2-0.5,0.2-4.3,0.2c-1,0-1.9,0-1.9-1.2c0-1.1,0.8-1.1,1.3-1.1
				c0.4,0,2.1,0,2.2,0c0.9,0,1.3,0,1.3-0.7v-10.8h-11.2c-0.3,0-1.1,0-1.1-1c0-0.7,0.2-1.1,1.1-1.1h14.5c0.4,0,1.1,0,1.1,1
				c0,0.7-0.2,1.1-1.1,1.1h-1.1V142z M210.8,138.2c0,1.6-0.7,2-2,2h-4.6c-1.4,0-2-0.5-2-2v-4.4c0-1.6,0.7-2,2-2h4.6c1.3,0,2,0.5,2,2
				V138.2z M208.7,134.4c0-0.4-0.2-0.6-0.6-0.6h-3.3c-0.4,0-0.6,0.2-0.6,0.6v3.3c0,0.4,0.2,0.6,0.6,0.6h3.3c0.4,0,0.6-0.2,0.6-0.6
				V134.4z"/>
			<path class="st0" d="M220.9,128.7c0.4-1,0.5-1.2,1.1-1.2c0.6,0,1.1,0.3,1.1,0.8c0,0.3-0.1,0.5-0.5,1.3c-0.2,0.5-0.4,0.8-0.5,1
				c1.2-0.1,1.4-0.1,2.6-0.2c-0.6-1-0.6-1.1-0.6-1.3c0-0.5,0.5-0.8,1-0.8c0.5,0,0.7,0.3,1.3,1.3c1.2,2,1.2,2.2,1.2,2.4
				c0,0.5-0.6,1-1.1,1c-0.5,0-0.7-0.3-1-1c-2.8,0.4-5.5,0.6-5.7,0.6c-0.8,0-0.9-0.6-0.9-1c0-0.9,0.5-0.9,1.1-0.9
				C220.6,129.5,220.8,129,220.9,128.7z M221.9,140.4v2.7c0,0.3,0,1.1-1,1.1c-0.7,0-1.1-0.3-1.1-1.1v-7.9c0-1.6,0.3-2,2-2h3.1
				c1.6,0,2,0.4,2,2v6.8c0,1.7-0.4,2-2.1,2c-0.3,0-0.9,0-1.2-0.1c-0.5-0.1-0.5-0.8-0.5-1c0-0.9,0.6-0.9,1.1-0.9c0.4,0,0.7,0,0.7-0.5
				v-1.2H221.9z M221.9,136.1h2.9v-0.6c0-0.3-0.1-0.4-0.4-0.4h-2.1c-0.3,0-0.4,0.2-0.4,0.4V136.1z M224.8,137.6h-2.9v1.1h2.9V137.6z
				 M230.2,132.8c0,0.6,0.3,0.6,1.1,0.6c0.3,0,1.5,0,1.7,0c0.3-0.1,0.4-0.3,0.5-1.1c0.1-0.7,0.2-1.1,1-1.1c0.1,0,1.1,0,1.1,0.9
				c0,0.4-0.2,2.1-0.6,2.7c-0.4,0.6-0.8,0.6-3.1,0.6c-1.9,0-2.1,0-2.3,0c-1.6-0.1-1.6-1.4-1.6-1.9v-4.9c0-0.4,0.1-1.1,1-1.1
				c0.8,0,1.2,0.2,1.2,1.1v1.1c1-0.3,2.2-0.8,2.6-1c1-0.5,1.1-0.5,1.3-0.5c0.5,0,1,0.5,1,1.1c0,0.6-0.4,0.8-1.4,1.2
				c-1.6,0.6-2.9,0.9-3.5,1.1V132.8z M230.2,141.3c0,0.7,0.3,0.7,1.1,0.7h0.5c1.2,0,1.2,0,1.3-0.1c0.2-0.1,0.2-0.4,0.3-1.2
				c0.1-0.6,0.2-1.1,1-1.1c0.1,0,1.1,0,1.1,0.9c0,0.1-0.1,2.3-0.7,3c-0.4,0.5-1,0.5-3.2,0.5c-2.4,0-2.7-0.1-3-0.3
				c-0.7-0.4-0.7-1.1-0.7-1.7v-5.3c0-0.4,0.1-1.1,1-1.1c0.7,0,1.2,0.2,1.2,1.1v1.2c0.8-0.3,1.9-0.7,2.6-1.1c0.9-0.5,1-0.6,1.3-0.6
				c0.6,0,1,0.7,1,1.1c0,0.4-0.2,0.7-1.4,1.2c-0.4,0.2-1.6,0.7-3.4,1.2V141.3z"/>
			<path class="st0" d="M244.6,128.7c0-0.3,0-1.1,1.2-1.1c1.2,0,1.2,0.8,1.2,1.1v1.7c0,1.3,0.2,5,2.3,7.8c1,1.4,2.4,2.5,3.9,3.3
				c0.4,0.2,0.8,0.5,0.8,1.1c0,0.5-0.4,1.3-1.3,1.3c-0.9,0-3-1.8-4.2-3c-1.4-1.5-2.3-3.5-2.8-5.5c-0.8,3.2-2.1,4.7-3.2,5.9
				c-1,1-2.9,2.7-3.8,2.7c-0.7,0-1.3-0.7-1.3-1.4c0-0.6,0.3-0.8,0.7-1c2.3-1.3,4.9-3.1,6-7.8c0.2-0.8,0.4-3.2,0.4-3.4V128.7z"/>
			<path class="st0" d="M256.9,138.6c-0.6,0-0.9-0.3-0.9-0.9c0-0.7,0.4-0.9,0.9-0.9h1.7c0.4-0.9,0.4-1,0.5-1.1
				c0.2-0.2,0.4-0.2,0.5-0.2c-0.1-0.2-0.1-0.2-0.1-0.5v-1.5c-0.1,0.1-1.8,2.2-2.7,2.2c-0.6,0-1-0.6-1-1.1c0-0.4,0.1-0.5,1.1-1.1
				c0.8-0.5,1.4-1,1.7-1.4H257c-0.3,0-0.9,0-0.9-0.8c0-0.8,0.5-0.8,0.9-0.8h2.7v-1.9c0-0.3,0-1,1-1c0.8,0,1.1,0.3,1.1,1v1.9h2.4
				c0.3,0,0.9,0,0.9,0.8c0,0.8-0.6,0.9-0.9,0.9h-1.7c0.6,0.6,0.7,0.7,1.6,1.4c0.2,0.2,0.3,0.3,0.3,0.6c1.2-1.8,1.7-3.3,2.2-5.6
				c0.1-0.6,0.3-1,1.1-1c0.2,0,1.2,0,1.2,0.8c0,0.2-0.3,1.4-0.4,1.8h3.3c0.3,0,1,0,1,1.1c0,1.1-0.8,1.1-1.1,1.1
				c-0.1,2.5-0.6,5.1-1.8,7.3c0.6,0.8,0.7,0.9,2.3,2.2c0.5,0.5,0.5,0.8,0.5,1c0,0.6-0.5,1.3-1.1,1.3c-0.3,0-0.6-0.1-1.5-0.9
				c-0.8-0.7-1.2-1.3-1.4-1.6c-0.6,0.7-1.3,1.3-2.4,2.1c-0.6,0.4-0.8,0.4-1,0.4c-0.5,0-0.9-0.3-1.1-0.9c-0.1,0.1-0.3,0.3-0.6,0.3
				c-0.2,0-0.4,0-0.8-0.3c-0.4-0.2-0.8-0.5-1.2-0.7c-1.5,1.1-3.5,1.7-4.2,1.7c-0.6,0-0.9-0.6-0.9-1.1c0-0.6,0.5-0.7,0.8-0.8
				c1.2-0.2,2.2-0.7,2.3-0.7c-0.4-0.2-1.1-0.4-1.6-0.6c-0.2-0.1-0.6-0.4-0.6-0.8c0-0.3,0.2-0.6,0.2-0.7c0.2-0.4,0.3-0.5,0.4-0.8
				H256.9z M257.9,130.3c-0.4,0-0.5-0.1-0.8-0.8c-0.4-0.8-0.4-0.8-0.4-1c0-0.4,0.4-0.7,1-0.7c0.4,0,0.6,0.2,0.8,0.5
				c0.1,0.2,0.5,0.8,0.5,1.2C258.9,129.9,258.6,130.3,257.9,130.3z M259.9,138.6c-0.1,0.2-0.2,0.4-0.3,0.5c-0.2,0.4-0.2,0.4-0.2,0.5
				c0,0.1,0,0.2,0.1,0.2c0.1,0,1.2,0.4,1.5,0.5c0.3-0.3,0.7-0.8,1-1.8H259.9z M263.9,138.6c-0.4,1.5-0.8,2.1-1.1,2.5
				c0.2,0.1,1,0.5,1.1,0.5c0.1,0,0.2,0.2,0.3,0.5c0.1-0.1,0.9-0.5,1-0.7c0.9-0.6,1.3-1,2-1.8c-0.3-0.7-1-2-1.3-4
				c-0.2,0.3-0.5,0.7-1.1,0.7c-0.6,0-1.2-0.5-1.1-1.2c-0.1,0-0.1,0.1-0.3,0.1c-0.4,0-0.9-0.5-1.8-1.7v1.5c0,0.5-0.1,0.9-0.8,0.9
				c0,0.1,0.1,0.1,0.1,0.2c0,0.2-0.1,0.5-0.2,0.7h3.4c0.5,0,1,0.2,1,0.9c0,0.8-0.6,0.9-1,0.9H263.9z M264.8,128.5
				c0,0.4-0.6,1.2-0.7,1.3c-0.2,0.2-0.4,0.5-0.8,0.5c-0.4,0-1-0.2-1-0.7c0-0.2,0-0.3,0.4-0.9c0.4-0.8,0.5-0.9,1-0.9
				C263.8,127.8,264.8,127.8,264.8,128.5z M267.6,132.3c-0.1,0.3-0.1,0.3-0.2,0.5c0.1,1.4,0.4,3.1,1.1,4.7c0.7-1.7,0.9-3.3,1-5.2
				H267.6z"/>
			<path class="st0" d="M195.9,160.8c0.8,0,2.4,0.1,2.4,2.1c0,1.2-0.3,2.4-2.3,2.4h-0.6v3.2h1.4c1.1,0,2.4,0.2,2.4,2.1
				c0,1.6-0.5,2.4-2.4,2.4h-1.4v3.3h0.6c1.5,0,2.3,0.7,2.3,2.1c0,1.5-0.5,2.4-2.4,2.4h-25.1c-0.6,0-2.4,0-2.4-2.1
				c0-1.7,0.8-2.3,2.4-2.3h1.7V173H170c-0.7,0-2.4,0-2.4-2.1c0-1.6,0.5-2.4,2.4-2.4h2.9v-2.1c-1.7,1.6-2.3,1.8-3,1.8
				c-1.5,0-2.4-1.5-2.4-2.6c0-1,0.2-1.2,2.2-2.8c1.2-1,2-2,3.1-3.4c0.8-1,1.6-1,1.8-1c1.1,0,2.8,0.8,2.6,2.3H195.9z M175,183.1
				c0,0.7-0.3,1.6-1,3.1c-1.7,3.6-2.4,3.8-3.4,3.8c-1.3,0-2.9-0.9-2.9-2.4c0-0.6,0.1-0.7,1.2-2.4c0.4-0.6,0.8-1.4,1.5-2.9
				c0.3-0.6,0.7-1.2,1.9-1.2C172.8,181,175,181.3,175,183.1z M181.8,183.1c0.1,0.9,0.3,3.1,0.3,4.5c0,0.9,0,2.4-2.6,2.4
				c-1.1,0-2.5-0.3-2.5-2.2c0-0.4,0-2.2,0-2.6c-0.1-2.4-0.1-2.6,0.2-3.1c0.5-0.8,1.5-0.9,2.1-0.9
				C180.8,181.2,181.6,181.8,181.8,183.1z M179.2,165.3h-2v3.2h2V165.3z M179.2,173h-2v3.3h2V173z M185.1,165.3h-2.1v3.2h2.1V165.3z
				 M185.1,173h-2.1v3.3h2.1V173z M189.6,184.3c0.3,0.9,0.8,2.6,0.8,3.4c0,2-2.6,2-2.9,2c-2,0-2.1-1.1-2.4-2.8
				c-0.1-0.6-0.8-3.4-0.8-4c0-1.5,1.7-1.8,2.6-1.8C188.6,181.2,188.8,181.7,189.6,184.3z M191,165.3h-2.1v3.2h2.1V165.3z M191,173
				h-2.1v3.3h2.1V173z M197.5,183.9c0.6,0.9,1.5,2.6,1.5,3.5c0,1.8-2.2,2.4-3,2.4c-1.4,0-1.6-0.4-2.7-3c-0.2-0.4-1-2.1-1.2-2.4
				c-0.1-0.3-0.3-0.7-0.3-1.2c0-1.7,2-2.1,2.6-2.1C195.9,181,196,181.1,197.5,183.9z"/>
			<path class="st0" d="M210,162.1v-1.4c0-0.7,0-2.1,2.2-2.1c1.9,0,2.4,0.7,2.4,2.1v1.4h3.8c0.7,0,2.4,0,2.4,2
				c0,1.5-0.5,2.3-2.4,2.3h-3.8v1.7h4.6c1.1,0,2.4,0.3,2.4,2.1c0,2-1.2,2.3-2.4,2.3h-4.6v1.6h2.1c3.4,0,4.1,0.6,4.1,4.1v6.3
				c0,2.9-1.1,3.3-3.3,3.3c-1.8,0-2.6-0.2-3-1.5v1.2c0,0.8-0.1,2.4-2.1,2.4c-1.6,0-2.5-0.5-2.5-2.4v-9.1h-1.4
				c-0.4,0-0.6,0.2-0.6,0.6v6.8c0,0.5,0,2.4-2.1,2.4c-1.7,0-2.3-0.8-2.3-2.4v-7.7c0-3.4,0.6-4.1,4.1-4.1h2.3v-1.6h-5.2
				c-0.6,0-2.4,0-2.4-2.1c0-1.6,0.8-2.2,2-2.3c-1.1-0.3-1.9-0.9-1.9-2c0-0.4,0.1-0.6,0.7-2.1c0.6-1.3,0.8-2,1.2-3.5
				c0.3-1,0.7-1.5,1.9-1.5c0.6,0,2.4,0.1,2.4,1.8c0,0.4-0.2,1-0.2,1.2H210z M207,166.5c-0.4,1-0.7,1.5-1.5,1.7h4.5v-1.7H207z
				 M214.6,178.6v5.3c0.3-0.8,0.8-0.8,1.1-0.9c0.7-0.1,0.8-0.1,0.8-0.6v-3.2c0-0.4-0.2-0.6-0.6-0.6H214.6z M226.2,180.7
				c0,0.6,0,2.1-2.2,2.1c-2,0-2.2-1.2-2.2-2.1v-17.6c0-0.5,0-2.1,2.2-2.1c2.1,0,2.2,1.3,2.2,2.1V180.7z M228.1,161
				c0-0.9,0.1-2.4,2.3-2.4c2,0,2.4,1.2,2.4,2.4v24.9c0,4-2.2,4-6.2,4c-2,0-4.2,0-4.2-2.8c0-2.5,2-2.5,2.7-2.5c2.9,0,3.1,0,3.1-1.2
				V161z"/>
			<path class="st0" d="M242.5,187.7c0,0.6,0,2.4-2.2,2.4c-1.6,0-2.4-0.6-2.4-2.4v-24c0-3.4,0.6-4.1,4.1-4.1h4c2,0,4.1,0,4.1,3.2
				c0,1.7-0.5,3.2-1.9,6.5c-0.1,0.2-0.7,1.5-0.7,1.6c0,0.2,0.1,0.3,0.3,0.5c1.8,1.8,2.7,4.8,2.7,7.1c0,5.3-3.2,5.3-4.9,5.3
				c-1.6,0-2.7,0-3-1.7V187.7z M242.5,180.1c0.1-0.3,0.3-1.1,1.3-1.2s1.6-0.1,1.6-1.7c0-1.1-0.4-2.5-1.7-4.3
				c-0.6-0.8-0.8-1.1-0.8-1.7c0-0.5,0.2-0.9,0.6-1.9c0.4-0.9,1.6-4.3,1.6-4.7c0-0.5-0.4-0.5-0.6-0.5h-1.3c-0.4,0-0.6,0.3-0.6,0.7
				V180.1z M255.9,175.4v8.6c1.4-0.3,2.2-0.4,2.8-0.4c1.8,0,1.8,2,1.8,2.3c0,1.7-0.9,1.9-3.9,2.6c-0.7,0.1-5.8,1.2-6.7,1.2
				c-1.9,0-2.1-2-2.1-2.6c0-1.9,0.9-2,3.3-2.4v-21.1c0-3.4,0.6-4.1,4.1-4.1h8c3.4,0,4.1,0.6,4.1,4.1v7.7c0,3.4-0.7,4.1-4.1,4.1h-1.5
				c0.2,1.3,0.5,2.2,0.8,2.9c0.7-0.6,0.8-0.7,2-1.7c0.7-0.6,1.1-0.7,1.6-0.7c1.4,0,2.2,1.4,2.2,2.5c0,0.7-0.3,1.2-1.5,2.1
				c-0.4,0.3-1.4,1.1-2.2,1.7c0.7,1,0.9,1.2,3.1,3.3c0.5,0.5,0.8,1.1,0.8,1.7c0,1.6-1.5,2.8-2.8,2.8c-1.8,0-3.9-2.9-5.1-5
				c-2.5-4.1-3-7.7-3.2-9.5H255.9z M262.6,165.9v-1.4c0-0.4-0.2-0.6-0.6-0.6h-5.4c-0.5,0-0.6,0.3-0.6,0.6v1.4H262.6z M262.6,169.3
				h-6.7v2.1h6.1c0.5,0,0.6-0.2,0.6-0.6V169.3z"/>
		</g>
	</g>
	<g style="clip-path:url(#SVGID_00000160895132166327285520000014897459011407393668_);">
		<g>
			<path class="st0" d="M340.5,128.5c0-0.5,0.1-1,1.1-1c0.5,0,1.2,0.1,1.2,1v0.6h5.7c0.4,0,1.1,0,1.1,1c0,0.8-0.3,1.1-1.1,1.1h-11.2
				c-0.5,0-0.8,0.3-0.8,0.8v3.8c0,3.1-0.5,5.3-1.1,6.9c-0.3,0.8-0.6,1.3-1.2,1.3c-0.7,0-1.3-0.5-1.3-1.1c0-0.2,0-0.3,0.6-1.8
				c0.5-1.4,0.8-3.2,0.8-5.2v-4.3c0-1.8,0.7-2.4,2.4-2.4h3.7V128.5z M337.1,143.5c-0.2,0-1.1,0-1.1-1.1c0-1,0.6-1,1.8-1.1
				c0.1-0.3,0.4-0.8,0.7-1.8c0.2-0.7,0.9-2.8,1.4-4.3c0.1-0.3,0.5-1.7,0.5-2.1c0.2-0.9,0.4-1.4,1.2-1.4c0.4,0,1.2,0.1,1.2,0.9
				c0,0.4-0.4,1.7-0.6,2.2c-1.3,4-1.4,4.5-2.3,6.3c3.6-0.3,3.9-0.3,6.1-0.5c-0.2-0.4-0.7-1.5-1.3-2.6c-0.6-1.2-0.6-1.2-0.6-1.4
				c0-0.5,0.6-1,1.1-1c0.5,0,0.7,0.2,1.5,1.7c0.8,1.6,2.5,4.7,2.5,5.5c0,0.8-0.8,1.1-1.2,1.1c-0.7,0-0.8-0.3-1.3-1.5
				C344.1,143,337.3,143.5,337.1,143.5z"/>
			<path class="st0" d="M358.9,129.8v-1.2c0-0.4,0.1-1.1,1.1-1.1c0.9,0,1.2,0.3,1.2,1.1v1.2h4.8c0.3,0,1.1,0,1.1,1
				c0,0.9-0.6,1-1.1,1h-4.8v2.2h5.9c0.4,0,1.1,0.1,1.1,1c0,0.7-0.4,1-1.1,1h-14.5c-0.2,0-1.1,0-1.1-1c0-0.8,0.4-1,1.1-1h6.2v-2.2
				h-3.6c-0.2,0.3-0.6,0.8-1,1.3c-0.2,0.2-0.4,0.4-0.8,0.4c-0.7,0-1.3-0.5-1.3-1.1c0-0.4,0.1-0.5,1-1.6c0.8-1,1.4-2.1,1.5-2.4
				c0.2-0.5,0.4-0.7,0.9-0.7c0.3,0,1.3,0.1,1.3,0.9c0,0.2,0,0.5-0.4,1.2H358.9z M366.5,141.7c0,1.5-0.7,2-2,2h-9.1c-1.4,0-2-0.5-2-2
				v-2.5c0-1.5,0.7-2,2-2h9.1c1.4,0,2,0.5,2,2V141.7z M364.2,139.7c0-0.4-0.2-0.6-0.6-0.6h-7.5c-0.4,0-0.6,0.2-0.6,0.6v1.5
				c0,0.4,0.2,0.6,0.6,0.6h7.5c0.4,0,0.6-0.2,0.6-0.6V139.7z"/>
			<path class="st0" d="M380.2,136.1c0.4,1,0.8,1.6,1.3,2.4c1.1-0.7,1.2-0.8,2.1-1.6c0.5-0.4,0.5-0.5,0.9-0.5c0.6,0,1.2,0.5,1.2,1.1
				c0,0.4-0.2,0.6-0.5,0.9c-0.5,0.4-1.7,1.2-2.3,1.6c0.5,0.4,1.3,1.1,2.7,1.8c0.6,0.3,1,0.5,1,1.1c0,0.6-0.4,1.2-1.1,1.2
				c-0.9,0-2.9-1.4-4.2-2.7c-1.7-1.7-2.4-3.3-3.1-5c-0.6,0.7-1.1,1.2-1.8,1.8v3.3c1.5-0.2,1.7-0.3,3-0.5c0.2-0.1,0.4-0.1,0.5-0.1
				c0.5,0,0.8,0.5,0.8,1c0,0.7-0.4,0.8-0.7,0.9c-0.1,0-1.5,0.3-1.7,0.4c-1,0.2-5.2,0.8-5.8,0.8c-0.9,0-0.9-1-0.9-1.1
				c0-0.8,0.6-0.9,0.9-0.9c0.3,0,1.5-0.2,1.8-0.2v-2.3c-1.2,0.6-2.5,1.3-3.2,1.3c-0.7,0-1-0.8-1-1.2c0-0.7,0.5-0.8,0.8-0.9
				c1.5-0.5,3-1,4.7-2.5H371c-0.5,0-1-0.1-1-0.9c0-0.9,0.7-0.9,1-0.9h6.3v-1h-5c-0.5,0-0.9-0.2-0.9-0.9c0-0.8,0.6-0.9,0.9-0.9h5
				v-0.8h-5.8c-0.7,0-0.9-0.3-0.9-1c0-0.9,0.7-0.9,0.9-0.9h5.8v-0.6c0-0.7,0.6-0.8,1.2-0.8c0.5,0,1,0.1,1,0.8v0.6h5.9
				c0.6,0,0.9,0.2,0.9,1c0,0.9-0.7,0.9-0.9,0.9h-5.9v0.8h5c0.7,0,0.9,0.3,0.9,0.9c0,0.8-0.7,0.8-0.9,0.8h-5v1h6.3
				c0.5,0,0.9,0.1,0.9,0.9c0,0.9-0.6,0.9-0.9,0.9H380.2z"/>
			<path class="st0" d="M398,141.9c0,2.2-1.2,2.2-3.4,2.2c-0.4,0-1,0-1.2-0.1c-0.8-0.2-0.8-1-0.8-1.2c0-1.1,0.8-1.1,1.1-1.1
				c0.2,0,1.1,0,1.3,0c0.4,0,0.8,0,0.8-0.6v-6.4h-6.2c-0.2,0-1,0-1-1c0-0.9,0.6-1.1,1-1.1h14.6c0.2,0,1,0,1,1c0,0.9-0.6,1.1-1,1.1
				H398V141.9z M393.4,136.7c0,0.5-0.8,2.8-1.9,4.8c-0.8,1.3-1.1,1.6-1.6,1.6c-0.5,0-1.3-0.5-1.3-1.1c0-0.4,0-0.4,1-1.7
				c0.8-1.2,1.4-2.8,1.7-3.8c0.2-0.5,0.6-0.6,0.9-0.6C392.6,135.8,393.4,136,393.4,136.7z M403,128.1c0.2,0,1.1,0,1.1,1
				c0,1-0.7,1.1-1.1,1.1h-12.3c-0.2,0-1.1,0-1.1-1c0-0.9,0.6-1.1,1.1-1.1H403z M402.3,136.4c0.4,1.2,0.9,2.6,1.8,3.8
				c0.9,1.3,0.9,1.3,0.9,1.7c0,0.6-0.7,1.1-1.3,1.1c-0.4,0-0.7-0.1-1.5-1.5c-1.2-2.2-2-4.3-2-4.9c0-0.9,1.2-0.9,1.3-0.9
				C401.9,135.8,402.2,136,402.3,136.4z"/>
			<path class="st0" d="M330.1,171.4c1.6,0,2.6,0.8,2.6,2.6c0,1.9-1,2.7-2.6,2.7h-25.8c-1.7,0-2.6-0.9-2.6-2.6c0-1.9,1-2.7,2.6-2.7
				H330.1z"/>
			<path class="st0" d="M349.6,164.7c-0.7,0-2.5,0-2.5-2.3c0-2,0.9-2.6,2.5-2.6h12.5c1.4,0,4.3,0,4.6,3.6c0.1,1,0.1,3.5,0.1,4.6
				c0,3.8-0.2,11.8-0.7,15.7c-0.8,5.6-2.3,6-6.4,6c-2.5,0-3.1-0.1-3.7-0.2c-1.9-0.4-1.9-2.2-1.9-2.5c0-0.9,0.5-2.3,2.1-2.3
				c0.4,0,2.2,0.2,2.6,0.2c1.4,0,2,0,2.4-5.1c0.4-3.9,0.4-12.8,0.4-13.3c0-1.5,0-1.8-0.8-1.8h-2.5c-0.1,11.1-1.6,16.1-4.6,19.8
				c-3.3,4-7.8,5.6-9.5,5.6c-1.3,0-2.6-1.2-2.6-2.7c0-1.2,0.9-1.6,1.3-1.8c0.5-0.2,3-1.1,3.5-1.3c-0.7,0.1-1,0.1-1.6,0.1
				c-3.3,0-3.6,0-4.4-0.3c-1.8-0.7-1.8-2-1.8-3.9v-7.2c-0.2,0-0.4,0.1-0.7,0.1c-1.2,0-2.1-1.1-2.1-2.6c0-1.2,0.6-1.9,1.9-2.2
				l0.9-0.2v-7.1c0-0.6,0-2.5,2.3-2.5c2.1,0,2.6,1,2.6,2.5v6l4.1-1c0.2,0,0.6-0.1,1-0.1c1.3,0,2.1,1.4,2.1,2.6
				c0,1.2-0.6,1.9-1.8,2.2l-5.3,1.2v6.8c0,0.7,0.2,0.7,1.1,0.7c0.8,0,0.9-0.6,1.1-2.1c0.1-1.1,0.2-2.3,1.9-2.3c2,0,2.3,1.1,2.3,2.1
				c0,0.5-0.1,2.3-0.5,3.8c-0.2,0.7-0.5,1.5-0.9,2.1c4.2-3.5,4.8-10,4.8-18.4H349.6z"/>
			<path class="st0" d="M378,181c-0.8,1.5-1.3,2.5-2.9,2.5c-1.2,0-2.9-0.8-2.9-2.4c0-0.7,0.1-0.9,1.2-2.9c0.3-0.5,1.7-3.2,3.8-8.7
				c-2.5,0.1-4.8,0.2-4.8-2.6c0-2.5,2-2.5,2.8-2.5c0.7,0,3.1,0,3.7,0c0.1-0.5,0.7-2.8,0.9-3.3c0.5-1.5,1.7-1.6,2.4-1.6
				c1.5,0,2.9,0.8,2.9,2.1c0,0.5-0.1,0.9-0.5,2.4c1.4-0.2,1.6-0.2,1.9-0.2c1.7,0,2.1,1.4,2.1,2.3c0,2.2-0.9,2.7-5.7,3.1
				C381.4,173.1,380,177.2,378,181z M389.1,172.4c0-1.9,1.2-2.3,2.2-2.3c2.6,0,2.8,1.8,2.8,2.4c0.1,1,0.2,3.9,0.3,5.5
				c1.8,0.8,3.4,1.5,5,2.5c0.9,0.6,1.3,1.2,1.3,2.1c0,1.3-0.9,2.9-2.4,2.9c-0.5,0-0.8-0.1-1.1-0.3c-0.4-0.2-2.2-1.4-2.7-1.6
				c-0.1,1.5-0.5,2.4-1.1,3c-1.5,1.8-4.4,2.1-5.9,2.1c-4.5,0-7.8-2.3-7.8-6.1c0-3,2.2-6.2,7.6-6.2c0.9,0,1.5,0.1,1.9,0.1
				C389.3,176.1,389.1,173.1,389.1,172.4z M386.8,181c-0.9,0-2.5,0.3-2.5,1.7c0,1.5,1.8,1.7,2.7,1.7c2.6,0,2.5-1.1,2.5-2.9
				C389,181.3,388,181,386.8,181z M398.1,166.2c1.8,0.9,2.6,1.4,2.6,2.7c0,1.3-0.9,2.9-2.2,2.9c-0.7,0-1-0.1-3.2-1.4
				c-1.8-1-2.6-1.4-3.7-1.8c-0.8-0.3-1.7-0.7-1.7-2c0-1.7,1.3-2.7,2.6-2.7C393.6,164,396.7,165.5,398.1,166.2z"/>
			<path class="st0" d="M411.1,163.3c0.1-2,0.2-3.7,2.8-3.7c3,0,2.8,1.9,2.8,3.9l-0.5,13.8c-0.1,2.3-0.2,6.2,4.7,6.2
				c2.2,0,5.9-0.7,8.7-6.9c0.8-1.9,1.2-2.7,2.7-2.7c1.2,0,2.9,0.8,2.9,2.5c0,1.8-2.2,5.3-2.4,5.5c-1.4,2.2-4.8,6.9-11.9,6.9
				c-5.8,0-8.5-2.8-9.5-5.3c-0.6-1.5-0.8-3-0.7-6L411.1,163.3z"/>
		</g>
	</g>
	<g style="clip-path:url(#SVGID_00000160895132166327285520000014897459011407393668_);">
		<path class="st0" d="M387,108h-37.2c-1,0-1.8-0.8-1.8-1.8s0.8-1.8,1.8-1.8H387c1,0,1.8,0.8,1.8,1.8S388,108,387,108z"/>
		<polygon class="st3" points="415.2,81.9 415.2,85.3 411.6,88.1 326.4,88.1 322.5,86.8 321.3,83.3 321.3,81.1 410.8,80.5 		"/>
		<g>
			<path class="st0" d="M410.6,90.6h-84.4c-4,0-7.3-3.3-7.3-7.3V29.9c0-4,3.3-7.3,7.3-7.3h4.4c1,0,1.8,0.8,1.8,1.8s-0.8,1.8-1.8,1.8
				h-4.4c-2.1,0-3.7,1.7-3.7,3.7v53.4c0,2.1,1.7,3.7,3.7,3.7h84.4c2.1,0,3.7-1.7,3.7-3.7V29.9c0-2.1-1.7-3.7-3.7-3.7h-4.4
				c-1,0-1.8-0.8-1.8-1.8s0.8-1.8,1.8-1.8h4.4c4,0,7.3,3.3,7.3,7.3v53.4C417.9,87.3,414.6,90.6,410.6,90.6z"/>
		</g>
		<path class="st0" d="M416.1,82.8h-95.4c-1,0-1.8-0.8-1.8-1.8s0.8-1.8,1.8-1.8h95.4c1,0,1.8,0.8,1.8,1.8S417.1,82.8,416.1,82.8z"/>
		<g>
			<path class="st0" d="M357.4,108c-1,0-1.8-0.8-1.8-1.8V88.8c0-1,0.8-1.8,1.8-1.8s1.8,0.8,1.8,1.8v17.5
				C359.2,107.2,358.4,108,357.4,108z"/>
			<path class="st0" d="M379.4,108c-1,0-1.8-0.8-1.8-1.8V88.8c0-1,0.8-1.8,1.8-1.8s1.8,0.8,1.8,1.8v17.5
				C381.2,107.2,380.4,108,379.4,108z"/>
		</g>
		<g>
			<path class="st0" d="M355.8,55.9c0-0.9,0.4-1.4,1.5-1.4c0.7,0,1.7,0,1.7,1.4v0.3h6c0.5,0,1.4,0.1,1.4,1.3c0,1-0.3,1.5-1.4,1.5
				h-12.4c-0.4,0-0.7,0.2-0.7,0.7v4.2c0,4.2-0.9,7.1-1.1,7.7c-0.3,1.1-0.7,1.7-1.7,1.7c-1,0-1.7-0.7-1.7-1.5c0-0.4,0-0.4,0.7-2.3
				c0.5-1.4,0.8-3.4,0.8-5.6v-5c0-2.1,1-2.7,2.7-2.7h4.1V55.9z M352.7,72.9c-0.3,0-1.5,0-1.5-1.5c0-1.3,0.9-1.4,1.9-1.4
				c0.8-2.1,1.5-4.3,2.1-6.5c0.1-0.3,0.5-2,0.6-2.3c0.3-1,0.5-1.6,1.6-1.6c0.2,0,1.7,0,1.7,1.2c0,0.6-0.3,1.6-1.1,3.9
				c-1,2.9-1,3-1.9,5.1c2.4-0.2,3.5-0.3,5.9-0.6c-0.5-1-0.6-1.3-1.6-3.4c-0.1-0.2-0.2-0.5-0.2-0.8c0-0.8,0.8-1.3,1.5-1.3
				c0.4,0,0.8,0.2,1.1,0.7c0.6,0.9,1.8,3.3,2.7,5.1c0.5,1,0.8,1.9,0.8,2.4c0,1-1,1.4-1.6,1.4c-1,0-1.1-0.5-1.6-1.6
				C359.1,72.3,353,72.9,352.7,72.9z"/>
			<path class="st0" d="M377,57.1v-1c0-0.6,0.2-1.5,1.4-1.5c1.2,0,1.7,0.4,1.7,1.5v1h5c0.4,0,1.4,0,1.4,1.3c0,1.2-0.8,1.4-1.4,1.4
				h-5v2h6.2c0.3,0,1.4,0,1.4,1.3c0,1-0.4,1.4-1.4,1.4h-15.9c-0.3,0-1.4,0-1.4-1.3c0-1,0.5-1.4,1.4-1.4h6.6v-2h-3.7
				c-0.9,1.4-1.3,1.7-2,1.7c-0.9,0-1.8-0.7-1.8-1.5c0-0.5,0.1-0.7,1.1-1.9c0.7-0.9,1.1-1.8,1.4-2.4c0.3-0.7,0.5-1,1.2-1
				c0.3,0,1.8,0.1,1.8,1.2c0,0.4-0.1,0.6-0.3,1H377z M385.9,70.7c0,1.9-0.8,2.4-2.4,2.4h-10.3c-1.6,0-2.4-0.6-2.4-2.4v-2.8
				c0-1.9,0.9-2.4,2.4-2.4h10.3c1.5,0,2.4,0.5,2.4,2.4V70.7z M382.9,68.6c0-0.4-0.2-0.6-0.5-0.6h-7.9c-0.4,0-0.6,0.2-0.6,0.6v1.3
				c0,0.4,0.2,0.6,0.6,0.6h7.9c0.3,0,0.5-0.1,0.5-0.6V68.6z"/>
		</g>
		<path class="st0" d="M368.4,50.5C355,50.5,344,39.6,344,26.1S355,1.7,368.4,1.7s24.4,10.9,24.4,24.4S381.9,50.5,368.4,50.5z
			 M368.4,7.2c-10.4,0-18.9,8.5-18.9,18.9S358,45,368.4,45s18.9-8.5,18.9-18.9S378.8,7.2,368.4,7.2z"/>
		
			<rect x="365.4" y="4.7" transform="matrix(0.7092 -0.705 0.705 0.7092 88.4407 267.2053)" class="st0" width="5.5" height="43.3"/>
		<g>
			<g>
				<path class="st4" d="M348.9,30.1h-12c-2,0-3.4-1.4-3.4-3.4c0-2,1.4-3.5,3.4-3.5h12c2,0,3.4,1.4,3.4,3.4
					C352.3,28.7,350.9,30.1,348.9,30.1z M348.9,27.6L348.9,27.6v-2.2V27.6z"/>
				<path class="st4" d="M355.9,36.4c-1.8,0-3.3-1.5-3.4-3.4c-1.4-1-1.4-2.6-1.4-3.4v-1.8c-0.8-0.6-1.3-1.6-1.3-2.8
					c0-1.1,0.5-2,1.3-2.6v-1.8c0-2,1.4-3.4,3.3-3.4c1,0,1.9,0.3,2.5,0.9c0.5-0.2,1-0.3,1.6-0.3h5.8c3.8,0,4.3,2.8,4.3,3.7
					c0,0.5,0,1.4,0,2.3c0,1.9-0.1,5.7-0.4,7.6c-0.5,3.9-2.5,4.7-5.2,4.7c-1.2,0-1.7,0-2.2-0.2c-0.6-0.1-1.1-0.4-1.5-0.8
					C358.1,36,356.8,36.4,355.9,36.4z M352.9,24.1C352.9,24.1,352.9,24.1,352.9,24.1C352.9,24.1,352.9,24.1,352.9,24.1z"/>
				<path class="st4" d="M376.5,35.8c-2.3,0-4.2-1-5.2-2.6c-0.2,0-0.4,0.1-0.7,0.1c-1.7,0-3.6-1.3-3.6-3.3c0-0.9,0.3-1.4,0.8-2.4
					c0.2-0.3,0.4-0.8,0.7-1.4c-0.1-0.1-0.3-0.2-0.4-0.3c-0.4-0.4-1-1.2-1-2.5c0-1.7,1.1-3.4,3.5-3.4c0,0,0,0,0,0c0,0,0-0.1,0-0.1
					c0.5-1.4,1.7-2.2,3.2-2.2c1.7,0,3.1,1,3.5,2.3c0,0,0.1,0,0.1,0.1c0.4-0.2,0.8-0.2,1.3-0.2c0.7,0,1.6,0.2,3.6,1.3
					c0.9,0.5,2.4,1.2,2.4,3.2c0,1.3-0.8,2.8-2,3.3c0.2,0.1,0.3,0.2,0.5,0.3c0.4,0.3,1.6,1.1,1.6,2.8c0,1.7-1.3,3.6-3.3,3.6
					c-0.3,0-0.5,0-0.7-0.1C379.5,35.5,377.6,35.8,376.5,35.8z M377.2,30.8l-0.2,0.5c0,0,0,0,0,0C377.1,31.2,377.2,31,377.2,30.8z
					 M376.4,30c-0.4,0-0.8,0-1,0.2l1.7-0.1c0,0,0,0,0-0.1c0,0,0,0,0,0C376.9,30,376.7,30,376.4,30z M370.3,29l0.6,0.3c0,0,0,0,0,0
					L370.3,29C370.3,29,370.3,29,370.3,29z"/>
				<path class="st4" d="M392.4,35.7c-4.4,0-6-2.7-6.5-3.8c-0.5-1.1-0.5-2.3-0.5-3.7l0.2-6.6c0.1-3.2,2-3.9,3.5-3.9
					c1.1,0,2,0.3,2.6,1c1,1,0.9,2.3,0.9,3.1l-0.2,6.5c0,0.1,0,0.4,0,0.6c0.4,0,1.2,0,2-1.9c0.4-0.9,1.1-2.6,3.3-2.6
					c1.7,0,3.6,1.3,3.6,3.4c0,1-0.4,2.1-1.4,3.7c0,0,0,0.1-0.1,0.1C398.1,34.3,395.6,35.7,392.4,35.7z M396.9,27.6L396.9,27.6
					L396.9,27.6z M387.9,21.6L387.9,21.6L387.9,21.6z"/>
			</g>
			<g>
				<path class="st0" d="M348.9,25.4c0.8,0,1.2,0.4,1.2,1.2c0,0.9-0.4,1.3-1.2,1.3h-12c-0.8,0-1.2-0.4-1.2-1.2
					c0-0.9,0.5-1.3,1.2-1.3H348.9z"/>
				<path class="st0" d="M358.4,22.3c-0.3,0-1.2,0-1.2-1.1c0-0.9,0.4-1.2,1.2-1.2h5.8c0.6,0,2,0,2.1,1.7c0,0.4,0,1.6,0,2.1
					c0,1.8-0.1,5.5-0.3,7.3c-0.4,2.6-1.1,2.8-3,2.8c-1.2,0-1.5,0-1.7-0.1c-0.9-0.2-0.9-1-0.9-1.2c0-0.4,0.2-1.1,1-1.1
					c0.2,0,1,0.1,1.2,0.1c0.6,0,0.9,0,1.1-2.4c0.2-1.8,0.2-6,0.2-6.2c0-0.7,0-0.8-0.4-0.8h-1.2c0,5.2-0.7,7.5-2.2,9.2
					c-1.5,1.9-3.6,2.6-4.4,2.6c-0.6,0-1.2-0.6-1.2-1.3c0-0.5,0.4-0.7,0.6-0.8c0.2-0.1,1.4-0.5,1.6-0.6c-0.3,0.1-0.5,0.1-0.8,0.1
					c-1.5,0-1.7,0-2-0.1c-0.8-0.3-0.8-0.9-0.8-1.8v-3.3c-0.1,0-0.2,0-0.3,0c-0.6,0-1-0.5-1-1.2c0-0.6,0.3-0.9,0.9-1l0.4-0.1v-3.3
					c0-0.3,0-1.2,1.1-1.2c1,0,1.2,0.5,1.2,1.2v2.8l1.9-0.4c0.1,0,0.3-0.1,0.4-0.1c0.6,0,1,0.7,1,1.2c0,0.5-0.3,0.9-0.8,1l-2.5,0.6
					v3.2c0,0.3,0.1,0.3,0.5,0.3c0.4,0,0.4-0.3,0.5-1c0-0.5,0.1-1.1,0.9-1.1c0.9,0,1.1,0.5,1.1,1c0,0.2-0.1,1.1-0.2,1.8
					c-0.1,0.3-0.2,0.7-0.4,1c1.9-1.6,2.2-4.7,2.2-8.6H358.4z"/>
				<path class="st0" d="M372,29.9c-0.4,0.7-0.6,1.2-1.3,1.2c-0.6,0-1.4-0.4-1.4-1.1c0-0.3,0.1-0.4,0.6-1.4c0.1-0.2,0.8-1.5,1.8-4.1
					c-1.2,0-2.2,0.1-2.2-1.2c0-1.2,0.9-1.2,1.3-1.2c0.3,0,1.4,0,1.7,0c0.1-0.2,0.3-1.3,0.4-1.5c0.2-0.7,0.8-0.8,1.1-0.8
					c0.7,0,1.4,0.4,1.4,1c0,0.2,0,0.4-0.2,1.1c0.7-0.1,0.7-0.1,0.9-0.1c0.8,0,1,0.6,1,1.1c0,1-0.4,1.3-2.6,1.4
					C373.7,26.2,373,28.1,372,29.9z M377.2,25.9c0-0.9,0.6-1.1,1-1.1c1.2,0,1.3,0.9,1.3,1.1c0,0.4,0.1,1.8,0.1,2.6
					c0.9,0.4,1.6,0.7,2.3,1.2c0.4,0.3,0.6,0.5,0.6,1c0,0.6-0.4,1.4-1.1,1.4c-0.2,0-0.4-0.1-0.5-0.2c-0.2-0.1-1-0.6-1.2-0.8
					c0,0.7-0.2,1.1-0.5,1.4c-0.7,0.9-2,1-2.8,1c-2.1,0-3.6-1.1-3.6-2.8c0-1.4,1-2.9,3.6-2.9c0.4,0,0.7,0,0.9,0.1
					C377.3,27.6,377.2,26.2,377.2,25.9z M376.2,29.9c-0.4,0-1.2,0.1-1.2,0.8c0,0.7,0.9,0.8,1.3,0.8c1.2,0,1.2-0.5,1.2-1.4
					C377.2,30,376.7,29.9,376.2,29.9z M381.4,23c0.8,0.4,1.2,0.6,1.2,1.3c0,0.6-0.4,1.4-1,1.4c-0.3,0-0.4-0.1-1.5-0.7
					c-0.8-0.5-1.2-0.6-1.7-0.8c-0.4-0.2-0.8-0.3-0.8-0.9c0-0.8,0.6-1.2,1.2-1.2C379.4,21.9,380.8,22.7,381.4,23z"/>
				<path class="st0" d="M387.9,21.6c0-1,0.1-1.7,1.3-1.7c1.4,0,1.3,0.9,1.3,1.8l-0.2,6.4c0,1.1-0.1,2.9,2.2,2.9c1,0,2.7-0.3,4-3.2
					c0.4-0.9,0.6-1.3,1.2-1.3c0.5,0,1.4,0.4,1.4,1.2c0,0.8-1,2.5-1.1,2.6c-0.6,1-2.2,3.2-5.6,3.2c-2.7,0-4-1.3-4.4-2.5
					c-0.3-0.7-0.4-1.4-0.3-2.8L387.9,21.6z"/>
			</g>
		</g>
		<rect x="309.8" class="st5" width="117.3" height="114"/>
	</g>
	<g style="clip-path:url(#SVGID_00000160895132166327285520000014897459011407393668_);">
		<g>
			<g>
				<path class="st0" d="M101.1,97.5H34.6c-1,0-1.8-0.8-1.8-1.8v-8.6c0-1,0.8-1.8,1.8-1.8s1.8,0.8,1.8,1.8V94h62.9V16.8h-6.6
					c-1,0-1.8-0.8-1.8-1.8s0.8-1.8,1.8-1.8h8.4c1,0,1.8,0.8,1.8,1.8v80.7C102.8,96.7,102,97.5,101.1,97.5z"/>
			</g>
			<g>
				<path class="st0" d="M109.5,106.1H43c-1,0-1.8-0.8-1.8-1.8v-8.6c0-1,0.8-1.8,1.8-1.8s1.8,0.8,1.8,1.8v6.9h62.9V25.4h-6.6
					c-1,0-1.8-0.8-1.8-1.8s0.8-1.8,1.8-1.8h8.4c1,0,1.8,0.8,1.8,1.8v80.7C111.2,105.3,110.4,106.1,109.5,106.1z"/>
			</g>
			<path class="st0" d="M82.6,51.2H36.3c-1,0-1.8-0.8-1.8-1.8s0.8-1.8,1.8-1.8h46.3c1,0,1.8,0.8,1.8,1.8S83.6,51.2,82.6,51.2z"/>
			<path class="st0" d="M82.6,62H36.3c-1,0-1.8-0.8-1.8-1.8s0.8-1.8,1.8-1.8h46.3c1,0,1.8,0.8,1.8,1.8S83.6,62,82.6,62z"/>
			<path class="st0" d="M66.9,77.4H52c-2.4,0-4.4-2-4.4-4.4s2-4.4,4.4-4.4h14.9c2.4,0,4.4,2,4.4,4.4S69.3,77.4,66.9,77.4z"/>
			<path class="st0" d="M92.7,88.9H26.2c-1,0-1.8-0.8-1.8-1.8V6.4c0-1,0.8-1.8,1.8-1.8h66.5c1,0,1.8,0.8,1.8,1.8v80.7
				C94.4,88.1,93.6,88.9,92.7,88.9z M28,85.3h62.9V8.1H28V85.3z"/>
			<g>
				<rect x="36.3" y="17.1" class="st3" width="46.3" height="22.3"/>
				<path class="st0" d="M82.6,41.2H36.3c-1,0-1.8-0.8-1.8-1.8V17.1c0-1,0.8-1.8,1.8-1.8h46.3c1,0,1.8,0.8,1.8,1.8v22.3
					C84.4,40.4,83.6,41.2,82.6,41.2z M38,37.6h42.8V18.9H38V37.6z"/>
			</g>
		</g>
		<rect x="9.2" class="st5" width="117.3" height="114"/>
	</g>
	<g style="clip-path:url(#SVGID_00000160895132166327285520000014897459011407393668_);">
		<g>
			<g>
				<circle class="st3" cx="218.1" cy="37.2" r="9.1"/>
				<path class="st0" d="M218.1,48.1c-6,0-10.8-4.9-10.8-10.8s4.9-10.8,10.8-10.8S229,31.2,229,37.2S224.1,48.1,218.1,48.1z
					 M218.1,29.9c-4,0-7.3,3.3-7.3,7.3s3.3,7.3,7.3,7.3c4,0,7.3-3.3,7.3-7.3S222.2,29.9,218.1,29.9z"/>
			</g>
			<g>
				<path class="st0" d="M234,86.6h-31.8c-1,0-1.8-0.8-1.8-1.8V58.9c0-2.7,0.5-5.1,1.5-7.2c0.4-0.9,1.5-1.2,2.4-0.8
					c0.9,0.4,1.2,1.5,0.8,2.4c-0.8,1.6-1.2,3.5-1.2,5.6v24.2h28.3V58.9c0-9.6-7.8-10.7-8.7-10.8h-11c-0.4,0-2.5,0.4-4.5,1.8
					c-0.8,0.6-1.9,0.3-2.4-0.5c-0.6-0.8-0.3-1.9,0.5-2.4c3-2.1,6.1-2.4,6.3-2.4c0,0,0.1,0,0.1,0h11.2c0,0,0.1,0,0.1,0
					c4.1,0.3,11.9,3.8,11.9,14.3v25.9C235.8,85.8,235,86.6,234,86.6z"/>
			</g>
			<g>
				<path class="st0" d="M194.9,41.2c-4.9,0-8.9-4-8.9-8.9c0-4.9,4-8.9,8.9-8.9c4.9,0,8.9,4,8.9,8.9
					C203.8,37.2,199.8,41.2,194.9,41.2z M194.9,26.9c-3,0-5.4,2.4-5.4,5.4c0,3,2.4,5.4,5.4,5.4s5.4-2.4,5.4-5.4
					C200.3,29.3,197.9,26.9,194.9,26.9z"/>
				<path class="st0" d="M185.1,71.6h-2.6c-1,0-1.8-0.8-1.8-1.8v-21c0-0.6,0-4.1,2.8-7.1c2.5-2.7,6.4-4,11.5-4
					c2.3,0,13.6,0.5,14.3,10.4c0.1,1-0.7,1.8-1.6,1.9c-1,0.1-1.8-0.7-1.9-1.6c-0.1-2.1-1.4-7.1-10.7-7.1c-4.1,0-7.1,1-8.9,2.8
					c-1.9,2-1.9,4.5-1.9,4.6l0,19.4h0.9c1,0,1.8,0.8,1.8,1.8S186,71.6,185.1,71.6z"/>
				<path class="st0" d="M201.2,71.6H190c-1,0-1.8-0.8-1.8-1.8s0.8-1.8,1.8-1.8h11.2c1,0,1.8,0.8,1.8,1.8S202.2,71.6,201.2,71.6z"/>
			</g>
			<g>
				<path class="st0" d="M241.3,41.2c-4.9,0-8.9-4-8.9-8.9c0-4.9,4-8.9,8.9-8.9s8.9,4,8.9,8.9C250.2,37.2,246.2,41.2,241.3,41.2z
					 M241.3,26.9c-3,0-5.4,2.4-5.4,5.4c0,3,2.4,5.4,5.4,5.4s5.4-2.4,5.4-5.4C246.7,29.3,244.3,26.9,241.3,26.9z"/>
				<path class="st0" d="M253.8,71.6h-2.6c-1,0-1.8-0.8-1.8-1.8s0.8-1.8,1.8-1.8h0.9V48.8c0,0,0-0.1,0-0.1c0-0.1,0.1-2.6-1.9-4.6
					c-1.8-1.9-4.8-2.8-8.9-2.8c-9.3,0-10.6,5-10.7,7.1c-0.1,1-0.9,1.7-1.9,1.6c-1-0.1-1.7-0.9-1.6-1.9c0.6-9.9,12-10.4,14.3-10.4
					c5.1,0,9,1.3,11.5,4c2.8,3,2.8,6.5,2.8,7.1v21C255.6,70.8,254.8,71.6,253.8,71.6z"/>
				<path class="st0" d="M246.2,71.6H235c-1,0-1.8-0.8-1.8-1.8s0.8-1.8,1.8-1.8h11.2c1,0,1.8,0.8,1.8,1.8S247.2,71.6,246.2,71.6z"/>
			</g>
			<g>
				<path class="st0" d="M218.1,106c-15.9,0-31.1-7.6-40.7-20.4c-0.6-0.8-0.4-1.9,0.4-2.5c0.8-0.6,1.9-0.4,2.5,0.4
					c9,12.1,22.8,19,37.8,19c22.8,0,42.3-16.3,46.3-38.7c0.2-1,1.1-1.6,2-1.4c1,0.2,1.6,1.1,1.4,2C263.6,88.5,242.6,106,218.1,106z"
					/>
				<path class="st0" d="M175.8,81.5c-0.6,0-1.2-0.3-1.5-0.9c-4.4-7.7-6.8-16.4-6.8-25.3c0-27.9,22.7-50.6,50.6-50.6
					c27.9,0,50.6,22.7,50.6,50.6c0,1,0,2.1-0.1,3.3c-0.1,1-0.9,1.7-1.9,1.6c-1-0.1-1.7-0.9-1.6-1.9c0.1-1.2,0.1-2.2,0.1-3.1
					c0-26-21.1-47.1-47.1-47.1S171,29.4,171,55.4c0,8.3,2.2,16.4,6.3,23.5c0.5,0.8,0.2,1.9-0.6,2.4
					C176.4,81.5,176.1,81.5,175.8,81.5z"/>
			</g>
		</g>
		<rect x="159.5" class="st5" width="117.3" height="114"/>
	</g>
</g>
</svg>
