<?xml version="1.0" encoding="utf-8"?>
<!-- Generator: Adobe Illustrator 28.1.0, SVG Export Plug-In . SVG Version: 6.00 Build 0)  -->
<svg version="1.1" id="レイヤー_1" xmlns="http://www.w3.org/2000/svg" xmlns:xlink="http://www.w3.org/1999/xlink" x="0px"
	 y="0px" viewBox="0 0 374.3 114.1" style="enable-background:new 0 0 374.3 114.1;" xml:space="preserve">
<style type="text/css">
	.st0{fill:none;stroke:#FF0000;stroke-width:4;stroke-linecap:round;stroke-linejoin:round;stroke-miterlimit:10;}
	.st1{fill:#FF0000;}
	.st2{fill:none;stroke:#FF0000;stroke-width:10;stroke-miterlimit:10;}
	.st3{fill:#FFFFFF;}
	.st4{fill:#59C2E1;}
	.st5{fill:#F29600;}
</style>
<g>
	<g>
		<g>
			<path class="st3" d="M219,111.3c-0.8-3.6-2.6-6.3-5.6-8c-4.4-2.6-9.6-2.7-14.6-2.9c-39.8-1-79.7-0.9-119.6,0.5
				c-14.9,0.5-30.2,1.1-44.3-4.2S7.9,78.6,6.1,62.1c-1.9-17.6,9.4-34.3,23.4-42.5C43.6,11.5,60,10.1,75.9,9.2
				c85.6-4.9,171.5,0.4,257.1,6.6c13.2,0.9,28,2.8,36.1,14.3c9.5,13.2,4.9,34.2-6.5,45.5s-27.2,15-42.4,16.1
				c-19.4,1.4-39-0.5-58.4,1.7C246.4,95.3,231.3,100.9,219,111.3z"/>
			<path class="st4" d="M347.8,79.4c3.1-1.6,6-3.6,8.8-6c0.3-0.3,0.7-0.6,1-0.9l1-0.9c0.7-0.6,1.3-1.3,1.9-2
				c1.2-1.4,2.4-2.9,3.4-4.5c4.2-6.4,6.9-14.2,7.2-22.4c0.1-4.1-0.4-8.3-1.8-12.2c-0.7-2-1.6-3.8-2.7-5.6c-0.2-0.4-0.5-0.9-0.8-1.3
				c-0.3-0.4-0.6-0.8-0.9-1.2c-0.3-0.4-0.6-0.8-0.9-1.2l-1-1.1c-2.8-2.8-6.1-5.1-9.6-6.6c-3.5-1.6-7.1-2.6-10.7-3.3
				c-3.6-0.7-7.3-1.1-11-1.5c-3.6-0.3-7.3-0.5-10.9-0.8c-7.3-0.5-14.5-1-21.8-1.5c-14.4-1-28.7-1.9-42.6-2.7
				c-13.8-0.8-27.3-1.5-40-2c-6.4-0.2-12.6-0.5-18.6-0.7c-6-0.2-11.8-0.4-17.4-0.5c-22.3-0.5-40.8-0.5-53.4-0.4
				C105.9,0.3,88.1,1,71.5,1.9c-8.3,0.5-16.4,1-24.5,2.6c-8,1.5-16.1,4.1-23.7,8.8c-3.8,2.4-7.3,5.3-10.6,8.8
				c-3.3,3.5-6.2,7.6-8.4,12.4C2,39.1,0.4,44.5,0.1,50.3c-0.3,5.8,0.7,11.9,3.3,17.6c2.5,5.6,6.3,10.7,11,15c2.4,2.1,4.9,4,7.7,5.7
				s5.8,3.1,8.9,4.2c6.3,2.3,13.1,3.4,20.2,3.9c7.1,0.5,14.6,0.3,22.4,0c7-0.2,20.5-0.5,36.6-0.7c16.2-0.1,35-0.1,52.5,0.2
				c8.8,0.2,17.3,0.3,25.1,0.4c1.9,0.1,3.8,0.1,5.7,0.1c1.8,0.1,3.6,0.1,5.2,0.2c1.7,0.1,3.2,0.3,4.7,0.6c1.4,0.3,2.8,0.8,4,1.3
				c2.4,1.1,4.1,2.8,5.3,4.5c0.6,0.9,1,1.7,1.3,2.5c0.1,0.4,0.3,0.8,0.4,1.1c0.1,0.4,0.2,0.7,0.2,1c0.2,1.3,0.2,2.2,0.2,2.7
				c0,0.5,0.2,0.5,0.5-0.1c0.4-0.8,0.8-2.2,0.6-4.2c-0.2-1.9-1-4.3-2.7-6.5c-0.8-1.1-1.8-2.1-3.1-3.1c-1.2-0.9-2.7-1.6-4.1-2.2
				c-3.1-1.1-6.5-1.5-10-1.8c-14.1-0.7-31.8-1-49.6-0.9c-17.8,0.1-35.9,0.6-50.5,1.1s-26,1.3-30.5,1.3c-2.4,0.1-5.5,0.1-9,0
				c-3.5-0.1-7.5-0.3-12-1c-1.1-0.2-2.2-0.3-3.3-0.5c-1.1-0.2-2.3-0.4-3.5-0.8c-2.4-0.5-4.8-1.3-7.2-2.2c-2.5-0.9-4.9-2.2-7.3-3.6
				c-2.4-1.5-4.8-3.2-7-5.1c-2.3-2-4.3-4.3-6.3-6.8c-0.4-0.7-0.9-1.3-1.4-2C8,71.6,7.6,71,7.2,70.2c-0.4-0.7-0.7-1.5-1.1-2.2
				c-0.2-0.4-0.3-0.8-0.5-1.1L5,65.8c-1.2-3.1-2.1-6.5-2.5-9.9c-0.3-3.4-0.1-7,0.5-10.5c1.4-6.9,4.7-13.5,9.1-18.8
				c4.3-5.4,9.8-9.8,15.7-12.8c5.9-3.1,12.2-5,18.4-6.3c3.1-0.7,6.2-1.1,9.3-1.5c3.1-0.4,6.1-0.7,9.1-0.9c5.9-0.4,11.7-0.7,17-0.9
				c2.7-0.1,5.3-0.3,7.8-0.4c2.5-0.1,4.9-0.2,7.3-0.3c2.3-0.1,4.5-0.2,6.6-0.2c2.1-0.1,4.1-0.1,6-0.2c3.7-0.1,7-0.2,9.7-0.2
				c5.3-0.1,8.3-0.1,8.3-0.1s3.4-0.1,9.6-0.1c6.1,0,15,0,25.7,0.2c10.8,0.1,23.5,0.4,37.4,0.9c13.9,0.5,29.1,1.1,44.7,2
				c15.6,0.9,31.6,1.8,47.4,2.9c7.9,0.5,15.7,1.1,23.3,1.6c3.8,0.3,7.6,0.5,11.3,0.8c3.7,0.3,7.4,0.5,10.9,1c3.5,0.5,7,1.1,10.3,2.2
				s6.4,2.4,9.2,4.2c2.8,1.8,5.1,4.1,7,6.8c0.9,1.3,1.7,2.7,2.4,4.2s1.2,3,1.5,4.4c0.8,3,1,6.1,0.9,8.9c-0.1,2.9-0.5,5.6-1.2,8.2
				c-1.3,5.1-3.3,9.3-5.4,12.5c-0.8,1.3-1.7,2.5-2.7,3.6c-1,1.1-2,2.2-3.1,3.2l-0.8,0.8c-0.2,0.3-0.5,0.5-0.8,0.7
				c-0.6,0.4-1.1,0.9-1.7,1.4c-0.6,0.4-1.2,0.8-1.8,1.3s-1.2,0.8-1.8,1.1l-0.9,0.5c-0.3,0.2-0.6,0.3-0.9,0.5c-0.6,0.3-1.2,0.7-1.9,1
				c-0.6,0.3-1.3,0.6-1.9,0.9c-0.6,0.3-1.3,0.5-1.9,0.8c-0.6,0.3-1.3,0.5-1.9,0.8c-0.6,0.2-1.3,0.5-2,0.7c-1.3,0.4-2.6,0.8-3.9,1.1
				c-10.5,2.8-21.1,3.2-31,3.3c-10,0.1-19.5-0.3-28.4-0.1c-8.9,0.1-17.3,0.7-24.9,2.1c-15.2,2.7-26.9,8.6-34.1,14.5
				c-1.8,1.5-3.3,2.8-4.6,4.2c-1.3,1.3-2.3,2.6-3.1,3.6c-0.2,0.3-0.4,0.5-0.6,0.8c-0.1,0.3-0.3,0.5-0.4,0.7
				c-0.3,0.4-0.5,0.9-0.7,1.3c-0.3,0.7-0.5,1.3-0.5,1.6c0,0.4,0.6,0,1.7-1c0.5-0.5,1.2-1.3,2.1-2c0.9-0.8,1.9-1.8,3.1-2.8
				c0.3-0.3,0.6-0.5,0.9-0.8c0.3-0.3,0.6-0.5,1-0.8c0.7-0.5,1.5-1.1,2.3-1.8c0.8-0.6,1.7-1.1,2.6-1.8c0.4-0.3,0.9-0.6,1.4-0.9
				c0.5-0.3,1-0.6,1.5-0.9c4.1-2.5,9.1-4.9,15.1-6.8c0.7-0.2,1.5-0.5,2.3-0.8c0.8-0.2,1.6-0.4,2.4-0.7c0.4-0.1,0.8-0.2,1.2-0.3
				c0.4-0.1,0.8-0.2,1.2-0.3c0.8-0.2,1.7-0.4,2.5-0.6c3.4-0.8,7.1-1.4,10.9-1.9c7.7-0.9,16.3-1.2,25.6-1.3
				c9.3-0.1,19.4,0.2,30.2-0.5c5.4-0.3,11-1,16.7-2.2c2.9-0.6,5.7-1.4,8.6-2.4C342.1,82.1,344.9,80.9,347.8,79.4z"/>
		</g>
	</g>
	<g>
		<path class="st5" d="M68.8,54.6c-0.5,0-0.7,0.2-0.7,0.7v0.4c0,1,0,2,0,3c0,0.7-0.2,0.7-1.3,0.7c-1,0-1.2,0-1.2-0.7c0-1,0-2,0-3.1
			v-5.1c0-0.1-0.1-0.3-0.2-0.3c-0.1,0-0.1,0-0.2,0.1c-0.5,0.5-2.9,2.9-3.4,2.9c-0.5,0-1.4-1.1-1.4-1.6c0-0.3,0.4-0.6,0.7-0.8
			c2.5-2,4.6-4.5,6.2-7.3c0-0.1,0-0.1,0-0.2c0-0.3-0.2-0.3-0.4-0.4H64c-1,0-1.9,0.1-2.9,0.1c-0.6,0-0.6-0.3-0.6-1.2
			c0-0.9,0-1.2,0.6-1.2c1,0,1.9,0,2.9,0h3.9c0.5,0,0.7-0.1,0.9-0.6c0.2-0.6,0.3-1.1,0.5-1.8c0.1-0.4,0.1-0.5,0.4-0.5
			c0.3,0,1.6,0.3,2,0.4c0.5,0.1,0.8,0.2,0.8,0.5c0,0.2-0.3,0.3-0.4,0.4c-0.3,0.1-0.4,0.4-0.5,0.7c0,0.1,0,0.2-0.1,0.3
			c0,0.1,0,0.1,0,0.2c0,0.3,0.2,0.4,0.5,0.4H78c1,0,1.9,0,2.9,0c0.6,0,0.6,0.2,0.6,1.2s0,1.2-0.6,1.2c-1,0-1.9-0.1-2.9-0.1h-7
			c-0.5,0-0.7,0.1-0.9,0.6c-0.2,0.4-0.5,0.9-0.7,1.3c0,0.1-0.1,0.1-0.1,0.2c0,0.2,0.2,0.3,0.4,0.3h4.8c0.6,0,1.2,0,1.8,0
			c0.9,0,1.2,0.3,1.2,1.2c0,0.7,0,1.3,0,2v6.1c0,0.6,0,1.2,0,1.8c0,0.7,0,1.6-0.6,2.2c-0.7,0.7-2.3,0.8-3.3,0.8
			c-0.5,0-1.1,0-1.3-0.5c-0.1-0.3-0.2-0.9-0.2-1.2c0-0.4,0.1-0.6,0.5-0.6c0.2,0,0.8,0,1.2,0c1.2,0,1.2-0.4,1.2-1.6v-0.4
			c0-0.5-0.2-0.7-0.7-0.7H68.8z M75.2,48.3c0-0.4-0.3-0.6-0.7-0.7h-5.7c-0.4,0-0.6,0.3-0.7,0.7v0.2c0,0.4,0.2,0.6,0.7,0.7h5.7
			c0.4,0,0.6-0.3,0.7-0.7V48.3z M75.2,51.8c0-0.4-0.3-0.6-0.7-0.7h-5.7c-0.4,0-0.6,0.3-0.7,0.7V52c0,0.4,0.2,0.6,0.7,0.7h5.7
			c0.4,0,0.6-0.3,0.7-0.7V51.8z"/>
		<path class="st5" d="M102.1,50.6c0.5-0.1,0.6-0.3,0.6-0.8v-8.9c0-0.8,0-1.6-0.1-2.2c0-0.1,0-0.2,0-0.2c0-0.3,0.2-0.3,0.4-0.3
			c0.4,0,1.5,0.1,2,0.1c0.2,0,0.6,0,0.6,0.3c0,0.2-0.1,0.2-0.3,0.3c-0.2,0.2-0.3,0.7-0.3,1.4v9c0,0.3,0.1,0.6,0.5,0.6h0.1
			c0.3-0.1,1.2-0.3,1.4-0.3c0.4,0,0.5,0.6,0.5,0.9c0,0.2,0.1,0.8,0.1,1c0,0.5-0.4,0.5-2.1,0.8c-0.5,0.1-0.6,0.3-0.6,0.8v2.2
			c0,1.2,0.1,2.4,0.1,3.7c0,0.7-0.3,0.7-1.2,0.7c-1,0-1.2,0-1.2-0.7c0-1.2,0.1-2.5,0.1-3.7v-1.7c0-0.3-0.1-0.6-0.5-0.6
			c0,0-0.1,0-0.1,0l-4.3,0.9c-0.2,0-1.9,0.5-2,0.5c-0.4,0-0.6-0.7-0.6-1.1c0-0.2-0.3-0.4-0.4-0.5c-0.4-0.3-1.5-1.9-1.8-2.4
			c0,0-0.1-0.1-0.2-0.1c-0.1,0-0.2,0.1-0.2,0.2v4.9c0,1.1,0,2.3,0,3.4c0,0.7-0.2,0.7-1.2,0.7c-0.9,0-1.2,0-1.2-0.7
			c0-1.2,0-2.3,0-3.4v-3.4c0-0.1,0-0.2-0.1-0.2c-0.1,0-0.1,0-0.1,0.1c-0.3,0.6-1.9,4-2.6,4c-0.4,0-1.6-1-1.6-1.4
			c0-0.2,0.1-0.3,0.2-0.5c1.4-1.5,2.9-4.1,3.6-6c0-0.1,0-0.1,0-0.2c0-0.3-0.2-0.4-0.5-0.4h-0.3c-0.8,0-1.6,0.1-2,0.1
			c-0.6,0-0.5-0.3-0.5-1.2c0-0.9,0-1.2,0.5-1.2c0.5,0,1.2,0,2,0h0.7c0.5,0,0.6-0.2,0.6-0.7v-4.2c0-0.5,0-1-0.1-1.5
			c0-0.1,0-0.2,0-0.3c0-0.3,0.1-0.4,0.4-0.4s1.8,0.1,2.2,0.1c0.1,0,0.4,0,0.4,0.3c0,0.2-0.2,0.3-0.3,0.3c-0.3,0.2-0.3,0.5-0.3,1.4
			v4.3c0,0.5,0.2,0.7,0.7,0.7h0.5c0.8,0,1.6,0,2,0c0.6,0,0.6,0.3,0.6,1.2c0,0.8,0,1.2-0.5,1.2c-0.5,0-1.2-0.1-2-0.1
			c-0.2,0-0.4,0.1-0.4,0.3c0,0.1,0,0.1,0.1,0.2c0.7,1,1.6,2,2.4,2.9c0.1,0.1,0.2,0.2,0.2,0.3c0.1,0.3,0.4,0.3,0.6,0.3
			c0.2,0,0.3,0,0.5-0.1L102.1,50.6z M88.1,44.7c-0.4,0-0.5-0.3-0.6-0.6c-0.2-0.6-0.9-2.7-1.2-3.3c0-0.1-0.2-0.4-0.2-0.5
			c0-0.4,1.1-0.7,1.4-0.7c0.4,0,0.7,0.5,1.2,1.9c0.1,0.4,0.7,2.1,0.7,2.4C89.5,44.5,88.4,44.7,88.1,44.7z M96.5,39.8
			c0.3,0.1,0.7,0.2,0.7,0.4c0,0.1-0.1,0.2-0.3,0.3c-0.3,0.1-0.3,0.1-0.5,0.8c-0.3,1-0.7,2.1-1.1,3c-0.1,0.2-0.2,0.4-0.5,0.4
			c-0.2,0-1.5-0.3-1.5-0.7c0-0.1,0.1-0.3,0.1-0.4c0.6-1.2,1-2.5,1.3-3.8c0-0.2,0-0.4,0.3-0.4C95.2,39.4,96.2,39.7,96.5,39.8z
			 M99.5,49.4c-0.2,0-0.4-0.3-0.8-0.7c-0.6-0.6-1.1-1.3-1.8-1.9c-0.1-0.1-0.3-0.2-0.3-0.4c0-0.4,1-1.3,1.5-1.3
			c0.2,0,1.3,1.1,1.5,1.3c0.3,0.3,1.4,1.3,1.4,1.7C101,48.4,100,49.4,99.5,49.4z M100.2,43.8c-0.2,0-0.3-0.2-0.6-0.5
			c-0.5-0.6-1.1-1.3-1.7-1.8c-0.1-0.1-0.3-0.2-0.3-0.4c0-0.4,1-1.3,1.4-1.3c0.2,0,0.3,0.1,0.4,0.3c0.4,0.4,0.8,0.8,1.2,1.2
			c0.3,0.4,1.1,1.1,1.1,1.3C101.8,42.9,100.8,43.8,100.2,43.8z"/>
		<path class="st5" d="M117.7,46.4c0-0.1-0.1-0.3-0.3-0.3c-0.1,0-0.1,0-0.2,0.1c-0.6,0.5-3.3,2.4-4,2.4c-0.5,0-1.3-1.2-1.3-1.7
			c0-0.3,0.3-0.4,0.6-0.6c3.4-1.8,7.1-4.8,9-8.1c0.1-0.2,0.2-0.4,0.5-0.4c0.3,0,2.1,0.5,2.5,0.6c0.2,0,0.4,0.1,0.4,0.3
			c0,0.2-0.3,0.3-0.5,0.4c-0.1,0-0.1,0.1-0.1,0.1c0,0,0,0.1,0,0.1c2.3,2.9,5.2,5.3,8.5,6.8c0.6,0.3,0.8,0.3,0.8,0.6
			c0,0.5-0.6,1.8-1.2,1.8c-0.7,0-3.7-2.1-4.4-2.6c0,0-0.1-0.1-0.2-0.1c-0.2,0-0.2,0.2-0.3,0.3v0.5c0,0.6,0,0.9-0.5,0.9
			c-0.6,0-1.5,0-2.2,0h-4.4c-0.7,0-1.6,0-2.3,0c-0.5,0-0.5-0.4-0.5-1.1V46.4z M120.3,55.8c0,0.1-0.1,0.1-0.1,0.2
			c0,0.2,0.2,0.3,0.4,0.3c1.9-0.1,3.8-0.2,5.7-0.4c0.2,0,0.3-0.1,0.3-0.3c0-0.2-0.1-0.3-0.2-0.4c-0.3-0.4-1.1-1.3-1.1-1.4
			c0-0.4,1.4-1.1,1.8-1.1c0.2,0,0.4,0.1,0.6,0.3c0.6,0.7,1.4,1.7,1.9,2.5c0.3,0.4,2,2.8,2,3.1c0,0.5-1.5,1.1-1.9,1.1
			c-0.3,0-0.4-0.2-0.8-0.8c-0.1-0.1-0.2-0.3-0.3-0.5c-0.2-0.3-0.4-0.5-0.8-0.5c-0.1,0-0.1,0-0.2,0c-2,0.2-3.9,0.4-5.9,0.6
			c-2,0.2-3.7,0.3-6,0.5c-0.2,0-0.3,0.1-0.5,0.3c-0.1,0.1-0.1,0.2-0.3,0.2c-0.3,0-0.3-0.3-0.5-0.9c-0.1-0.2-0.4-1.5-0.4-1.7
			c0-0.3,0.2-0.3,1.2-0.3l1.1-0.1c0.5,0,0.7-0.1,0.9-0.6c0.7-1.2,1.2-2.4,1.8-3.6c0-0.1,0-0.1,0-0.2c0-0.3-0.2-0.3-0.5-0.4h-1.9
			c-1,0-2,0-3,0c-0.6,0-0.5-0.4-0.5-1.2c0-0.8,0-1.2,0.5-1.2c1,0,2,0,3,0h11.3c1,0,2,0,3,0c0.6,0,0.5,0.4,0.5,1.2
			c0,0.7,0,1.2-0.5,1.2c-1,0-2,0-3,0h-6c-0.1,0-0.1,0-0.1,0s0,0,0.1,0.1c0.2,0.1,0.3,0.1,0.3,0.3c0,0.2-0.2,0.3-0.4,0.3
			c-0.3,0-0.4,0.1-0.5,0.3C121.3,53.8,120.7,55,120.3,55.8z M122.7,41.1c-0.2,0-0.3,0.1-0.4,0.2c-1.1,1.4-2.2,2.5-3.6,3.7
			c-0.1,0-0.1,0.1-0.1,0.2c0,0.2,0.1,0.2,0.2,0.2c0.5,0,1.1,0,1.6,0h4.4c0.6,0,1.1,0,1.7,0c0.1,0,0.3-0.1,0.3-0.2
			c0-0.1,0-0.1-0.1-0.2c-1.2-1-2.6-2.5-3.6-3.7C123,41.1,122.8,41.1,122.7,41.1z"/>
		<path class="st5" d="M150.8,55.8c0-0.2-0.1-0.2-0.3-0.2h-4.1c-0.2,0-0.3,0.1-0.3,0.3c0,0.1,0,0.1,0.1,0.2c0.2,0.2,0.8,0.9,0.8,1.2
			c0,0.1-0.1,0.2-0.2,0.2c-0.1,0-0.2,0-0.3,0c-0.1,0-0.2,0-0.2,0c-0.3,0-1.3,0.5-1.7,0.7c-1,0.4-4.3,1.5-5.3,1.5
			c-0.8,0-1.2-1.5-1.2-1.8c0-0.3,0.3-0.3,0.9-0.4c1.6-0.2,3.8-0.8,5.3-1.5c0.1,0,0.1-0.1,0.1-0.1c0-0.1-0.1-0.1-0.2-0.1h-0.2
			c-0.7,0-1.4,0-2.1,0c-0.7,0-1.5-0.1-1.5-1c0-0.5,0-1,0-1.6v-5.4c0-0.5,0-1,0-1.5c0-0.9,0.7-1,1.5-1c0.7,0,1.4,0,2.1,0h9.2
			c0.7,0,1.4,0,2.1,0c0.7,0,1.5,0.1,1.5,1c0,0.5,0,1.1,0,1.6V53c0,0.5,0,1,0,1.6c0,0.9-0.7,1-1.4,1c-0.7,0-1.4,0-2.2,0h-0.3
			c-0.1,0-0.2,0-0.2,0.1c0,0.1,0,0.1,0.1,0.1c1.8,0.8,3.7,1.4,5.7,1.7c0.3,0,0.6,0.1,0.6,0.5c0,0.3-0.5,1.7-1.1,1.7
			c-0.7,0-3.4-0.8-4.2-1.1c-1-0.4-2.1-0.9-3-1.4c-0.2-0.1-0.4-0.2-0.4-0.4c0-0.2,0.4-0.6,0.5-0.8C150.7,55.9,150.8,55.8,150.8,55.8z
			 M155.3,41.9c0,0.4,0,0.8,0,1.2c0,0.8-0.5,0.9-1.1,0.9c-0.6,0-1.2,0-1.8,0h-7.7c-0.6,0-1.2,0-1.8,0c-0.7,0-1.2-0.1-1.2-0.9
			c0-0.4,0-0.8,0-1.2v-1.2c0-0.4,0-0.8,0-1.2c0-0.8,0.5-0.9,1.1-0.9c0.6,0,1.2,0,1.8,0h7.7c0.6,0,1.2,0,1.8,0c0.7,0,1.2,0.1,1.2,0.9
			c0,0.4,0,0.8,0,1.2V41.9z M154.1,47.4c0-0.3-0.2-0.6-0.6-0.6h-10.2c-0.4,0-0.6,0.2-0.6,0.6v0.2c0,0.3,0.2,0.6,0.6,0.6h10.2
			c0.3,0,0.6-0.2,0.6-0.6V47.4z M143.4,49.6c-0.4,0-0.6,0.2-0.6,0.6v0.1c0,0.3,0.2,0.6,0.6,0.6h10.2c0.3,0,0.6-0.2,0.6-0.6v-0.1
			c0-0.3-0.2-0.6-0.6-0.6H143.4z M143.4,52.4c-0.4,0-0.6,0.2-0.6,0.6v0.2c0,0.3,0.2,0.6,0.6,0.6h10.2c0.3,0,0.6-0.2,0.6-0.6V53
			c0-0.3-0.2-0.6-0.6-0.6H143.4z M144.1,41.4c0,0.4,0.3,0.6,0.7,0.7h7.4c0.4,0,0.6-0.3,0.7-0.7v-0.2c0-0.4-0.3-0.6-0.7-0.7h-7.4
			c-0.4,0-0.6,0.3-0.7,0.7V41.4z"/>
		<path class="st5" d="M166.2,42.4c3.5-0.2,7-0.6,10.5-1c1.8-0.2,3.6-0.5,5.4-0.7c0.1,0,0.2,0,0.3,0c0.4,0,0.4,0.3,0.5,0.6
			c0.1,0.4,0.2,1.3,0.2,1.8c0,0.5-0.5,0.5-1.1,0.5c-1.4,0-2.6,0-4,0.5c-1.8,0.7-3.1,1.8-4.1,3.6c-0.7,1.3-1.2,2.8-1.2,4.2
			c0,2.8,1.8,3.5,4.2,3.5c0.4,0,0.9,0,1.2,0c0.4,0,0.6,0,0.6,0.4c0,0.5-0.2,1.5-0.4,2c-0.2,0.4-0.4,0.4-0.8,0.4
			c-4.1,0-7.6-1.3-7.6-6c0-2.4,1-5.1,2.6-6.9c0.3-0.3,0.4-0.5,0.4-0.6c0-0.2-0.2-0.3-0.4-0.3s-1.3,0.2-1.5,0.2
			c-1.6,0.2-3.8,0.6-5.3,1c-0.1,0-0.2,0-0.4,0c-0.3,0-0.5-0.5-0.5-0.8c-0.1-0.4-0.3-1.3-0.3-1.7C164.8,42.4,165.1,42.5,166.2,42.4z
			 M182.1,48.2c0,0.4-1,1-1.2,1c-0.2,0-0.2-0.2-0.3-0.3c-0.5-0.7-1-1.4-1.5-2c-0.1-0.1-0.2-0.2-0.2-0.3c0-0.3,1-0.9,1.2-0.9
			C180.3,45.7,182.1,47.9,182.1,48.2z M185,46.9c0,0.3-0.9,1-1.2,1c-0.2,0-0.3-0.2-0.4-0.3c-0.4-0.6-1.1-1.5-1.6-2
			c-0.1-0.1-0.2-0.2-0.2-0.3c0-0.3,0.9-0.9,1.2-0.9C183.1,44.4,185,46.6,185,46.9z"/>
		<path class="st5" d="M195.8,40.8c0.2,0.1,0.6,0.2,0.6,0.5c0,0.1-0.1,0.2-0.2,0.2c-0.6,0.3-0.7,0.5-1,1.2c-0.8,2-1.3,5.1-1.3,7.3
			c0,0.4,0.1,2.7,0.5,2.7c0.2,0,0.3-0.3,0.5-0.9c0.1-0.3,0.4-1.1,0.6-1.1c0.3,0,1,0.5,1,0.8c0,0.3-1.2,3-1.2,4.4c0,0.4,0,0.8,0,1.2
			c0,0.9-1.7,1.2-1.8,1.2c-0.4,0-0.6-0.5-0.8-0.8c-1.1-2.3-1.4-4.8-1.4-7.4c0-2.3,0.3-4.5,0.8-6.7c0.3-1.1,0.6-2.1,0.9-3.1
			c0-0.2,0.1-0.4,0.3-0.4c0.2,0,0.9,0.3,1.5,0.6C195.4,40.7,195.7,40.8,195.8,40.8z M205.4,40.1c0.1,0,0.2,0.1,0.2,0.2
			c0,0.2-0.1,0.3-0.3,0.5c-0.1,0.2-0.3,0.6-0.3,1.7v0.7c0,0.3,0.1,0.6,0.5,0.6c0.4,0,2-0.5,2.4-0.6c0.1,0,0.3-0.1,0.4-0.1
			c0.5,0,0.6,1.7,0.6,2c0,0.5-0.2,0.6-3,1c-0.5,0.1-0.8,0.2-0.8,0.8c0,0.5,0.2,4.2,0.2,4.8c0,0.6,0.3,0.7,0.8,0.9
			c1,0.5,1.8,1,2.6,1.7c0.3,0.2,0.6,0.5,0.6,0.9c0,0.6-0.8,1.7-1.4,1.7c-0.3,0-0.5-0.2-0.7-0.4c-0.3-0.3-1.5-1.3-1.8-1.3
			c-0.2,0-0.3,0.2-0.4,0.4c-0.4,1.5-2,2-3.5,2c-1.9,0-4-0.9-4-3.1c0-2.2,1.9-3,3.8-3c0.3,0,0.6,0,0.9,0.1h0.2c0.3,0,0.5-0.2,0.5-0.5
			c0-0.6-0.1-2.9-0.1-3.6c0-0.2,0-0.9-0.6-0.9c-0.2,0-1.9,0.1-2.9,0.1h-0.3c-0.6,0-1.6,0-1.8-0.2c-0.2-0.1-0.2-1.5-0.2-1.8
			s0-0.6,0.4-0.6c0.3,0,2.4,0.2,3.7,0.2h0.4c0.6,0,1.1,0,1.1-0.6c0-0.5-0.2-2.8-0.3-3.4c0-0.1,0-0.2,0-0.2c0-0.2,0.1-0.3,0.3-0.3
			C203.1,39.7,204.9,40,205.4,40.1z M201.7,53.6c-0.6,0-1.7,0.2-1.7,0.9c0,0.8,1.2,1,1.8,1c0.9,0,1.5-0.3,1.5-1.3
			C203.2,53.6,202.1,53.6,201.7,53.6z"/>
		<path class="st5" d="M225.7,39.2c0.1,0,0.4,0.1,0.4,0.3s-0.2,0.3-0.4,0.4c-0.2,0.2-0.4,1-0.4,1.3c-0.1,0.2-0.3,1-0.3,1.1
			c0,0.2,0.1,0.3,0.3,0.3s1.2-0.3,1.4-0.4c0.1,0,0.2,0,0.2,0c0.3,0,0.3,0.4,0.4,0.7c0,0.3,0.1,0.9,0.1,1.3c0,0.5-0.3,0.6-2.5,1
			c-0.9,0.1-0.8,0.3-1.1,1.1c-1.1,3-2.4,5.8-3.9,8.5c-0.1,0.2-0.2,0.3-0.5,0.3c-0.5,0-2.1-0.7-2.1-1.2c0-0.2,0.3-0.7,0.4-0.9
			c1-1.6,2.1-3.8,2.9-5.5c0.1-0.3,0.6-1.3,0.6-1.5c0-0.1-0.1-0.3-0.3-0.3c-0.2,0-2,0.2-2.6,0.2c-0.4,0-0.5-0.2-0.6-0.8
			c0-0.3-0.2-1.2-0.2-1.4c0-0.3,0.2-0.4,0.4-0.4h1.1c0.8,0,1.7,0,2.5-0.1c0.3,0,0.5-0.1,0.7-0.4c0.4-0.6,0.8-3.3,0.8-4
			c0-0.2,0-0.4,0.2-0.4C223.3,38.5,225.3,39,225.7,39.2z M229.2,46.3c0.3,0.1,0.5,0.2,0.5,0.5c0,0,0,0.8,0,1.3
			c0,0.7,0.1,4.2,0.2,4.7c0.1,0.4,0.4,0.5,0.7,0.6c0.1,0,0.2,0.1,0.2,0.1c0.6,0.2,3.4,1.5,3.4,2.1c0,0.4-0.9,1.8-1.5,1.8
			c-0.2,0-0.5-0.2-0.6-0.3c-0.4-0.3-1.5-1.1-1.9-1.1c-0.3,0-0.4,0.3-0.4,0.6c-0.3,1.8-1.7,2.4-3.3,2.4c-1.9,0-4.2-1-4.2-3.3
			c0-2.2,2.1-3,4-3h0.6c0.3,0,0.5-0.1,0.5-0.4c0-0.8-0.4-4.2-0.4-5.2c0-0.1,0-0.2,0-0.3c0-0.4,0.2-0.5,0.6-0.5
			C227.9,46.1,228.7,46.2,229.2,46.3z M224.7,55.5c0,0.7,1,1.1,1.6,1.1c0.9,0,1.2-0.5,1.2-1.3c0-0.5,0-0.7-1.2-0.7
			C225.7,54.6,224.7,54.7,224.7,55.5z M235.2,46.3c0,0.6-1.4,1.7-1.8,1.7c-0.2,0-0.4-0.3-0.5-0.4c-0.7-1.1-1.9-2.3-3-3.1
			c-0.1-0.1-0.3-0.2-0.3-0.4c0-0.3,1.1-1.7,1.6-1.7C231.7,42.4,235.2,45.7,235.2,46.3z"/>
		<path class="st5" d="M246.3,42.9c0.2,0,0.5,0.1,0.5,0.3c0,0.1-0.1,0.2-0.2,0.3c-0.3,0.3-0.4,0.7-0.4,1.2c-0.1,0.8-0.2,1.7-0.2,2.5
			c0,1.6,0.1,3.5,0.8,5c0.3,0.7,1.1,2.1,1.9,2.1c0.7,0,1.4-1.1,1.7-1.6c0.1-0.2,0.3-0.6,0.6-0.6c0.5,0,1.7,1,1.7,1.4
			c0,0.5-1.1,1.7-1.4,2.1c-0.7,0.8-1.4,1.5-2.6,1.5c-1.8,0-3.2-1.6-4-3.1c-1.2-2.3-1.4-5.3-1.4-7.8c0-0.4,0.1-3.4,0.1-3.6
			c0-0.2,0.2-0.3,0.3-0.3C244.1,42.4,245.9,42.9,246.3,42.9z M256.1,42.5c0.5,0,2.5,1.5,3.7,3.7c0.7,1.3,1.4,3.6,1.4,5
			c0,0.5-0.2,0.6-0.6,0.7c-0.4,0.1-0.9,0.2-1.3,0.2c-0.8,0-0.7-0.3-0.8-0.9c-0.3-2.8-1.3-5.1-3.6-6.8c-0.1-0.1-0.2-0.2-0.2-0.4
			C254.6,43.5,255.6,42.5,256.1,42.5z"/>
		<path class="st5" d="M269.5,51.1v-5.1c0-0.5-0.2-0.6-0.6-0.7c-0.5,0-1,0.1-1.5,0.1c-0.5,0-0.5-0.3-0.5-1.2c0-0.9,0-1.2,0.5-1.2
			c0.2,0,1.2,0,1.5,0c0.5,0,0.7-0.2,0.7-0.7v-1.8c0-0.6,0-1.3-0.1-1.9c0-0.1,0-0.2,0-0.3c0-0.3,0.2-0.3,0.4-0.3
			c0.4,0,1.8,0.1,2.2,0.1c0.2,0,0.5,0.1,0.5,0.3c0,0.2-0.1,0.2-0.4,0.4c-0.2,0.1-0.3,0.4-0.3,1.2v2.3c0,0.5,0.2,0.7,0.6,0.7
			c0.6,0,1.1,0,1.6,0c0.5,0,0.5,0.3,0.5,1.2c0,0.9,0,1.2-0.5,1.2c-0.4,0-1.1,0-1.6-0.1c-0.5,0-0.6,0.2-0.6,0.7v4.1
			c0,0.2,0.1,0.5,0.4,0.5c0.1,0,0.2,0,0.2-0.1c0.1,0,0.3-0.1,0.6-0.3c0.5-0.2,1.1-0.5,1.2-0.5c0.4,0,0.4,1.3,0.4,1.6
			c0,0.4-0.1,0.6-0.4,0.7c-1.7,0.9-3.9,1.8-5.7,2.5c-0.4,0.2-0.5,0.2-0.5,0.4c-0.1,0.3-0.2,0.5-0.4,0.5c-0.3,0-0.3-0.3-0.5-0.8
			c-0.1-0.3-0.6-1.4-0.6-1.7c0-0.3,0.3-0.4,0.6-0.5c0.6-0.1,1.1-0.3,1.7-0.6C269.4,51.8,269.5,51.6,269.5,51.1z M283.4,53.2
			c-1,2.3-2.8,4.6-4.8,6.1c-0.2,0.1-0.5,0.4-0.7,0.4c-0.4,0-1.2-0.6-1.2-1c0-0.2,0.3-0.5,0.5-0.6c1.6-1,3.3-3.1,4.2-4.7
			c0-0.1,0-0.1,0-0.2c0-0.3-0.2-0.3-0.4-0.4h-0.2c-0.4,0-0.6,0.1-0.8,0.4c-0.7,1.1-1.5,2.1-2.4,3c-0.9,0.9-1.4,1.2-2.4,1.9
			c-0.1,0.1-0.2,0.1-0.3,0.1c-0.4,0-1.1-0.7-1.1-1.1c0-0.2,0.4-0.4,0.6-0.5c1.5-0.9,2.6-1.9,3.7-3.3c0-0.1,0.1-0.1,0.1-0.2
			c0-0.2-0.2-0.3-0.4-0.3h-0.1c-0.4,0-0.6,0.1-0.9,0.4c-0.9,0.9-1.8,1.8-2.8,2.4c-0.2,0.1-0.5,0.4-0.7,0.4c-0.4,0-1.2-0.8-1.2-1.2
			c0-0.2,0.2-0.4,0.6-0.6c1.7-1.1,3-2.3,4.1-4.1c0-0.1,0.1-0.1,0.1-0.2c0-0.2-0.2-0.3-0.4-0.3c-0.6,0-1.5,0-2,0
			c-0.5,0-0.5-0.4-0.5-1.1s0-1.1,0.5-1.1c0.9,0,1.8,0.1,2.7,0.1h7.8c0.9,0,1.8-0.1,2.7-0.1c0.5,0,0.5,0.4,0.5,1.1s0,1.1-0.5,1.1
			c-0.9,0-1.8,0-2.7,0h-5.1c-0.4,0-0.5,0.1-0.6,0.4c0,0.1-0.1,0.1-0.1,0.2c0,0.1,0,0.1,0,0.2c0,0.2,0.2,0.3,0.4,0.3h4.8
			c0.6,0,1.2,0,1.8,0c0.9,0,1.1,0.5,1.1,1.3c0,1.5-0.2,4.5-0.7,5.9c-0.6,1.6-1.9,1.8-3.4,1.8c-1.1,0-1.5,0-1.5-1.8
			c0-0.3,0-0.6,0.4-0.6c0.2,0,0.6,0,0.8,0.1c0.2,0,0.3,0,0.5,0c0.7,0,0.9-0.1,1.1-0.8c0.2-0.7,0.4-2.4,0.4-3.2
			c0-0.5-0.3-0.4-0.6-0.5C283.7,52.8,283.6,52.9,283.4,53.2z M286,44.1c0,0.4,0,0.9,0,1.3c0,0.8-0.4,1.1-1.2,1.1c-0.6,0-1.2,0-1.8,0
			h-3.9c-0.6,0-1.2,0-1.8,0c-0.8,0-1.2-0.2-1.2-1.1c0-0.5,0-0.9,0-1.3v-2.9c0-0.5,0-0.9,0-1.3c0-0.8,0.4-1.1,1.2-1.1
			c0.6,0,1.2,0,1.8,0h3.9c0.6,0,1.2,0,1.8,0c0.8,0,1.2,0.2,1.2,1.1c0,0.4,0,0.9,0,1.3V44.1z M283.2,41.9c0.3,0,0.6-0.2,0.6-0.6v-0.2
			c0-0.3-0.2-0.6-0.6-0.6H279c-0.3,0-0.6,0.2-0.6,0.6v0.2c0,0.3,0.2,0.6,0.6,0.6H283.2z M279,43.3c-0.3,0-0.6,0.2-0.6,0.6v0.2
			c0,0.3,0.2,0.6,0.6,0.6h4.2c0.3,0,0.6-0.2,0.6-0.6v-0.2c0-0.3-0.2-0.6-0.6-0.6H279z"/>
		<path class="st5" d="M298.2,46.8c0-0.1-0.1-0.3-0.2-0.3c-0.1,0-0.1,0-0.2,0.1c-0.6,0.5-3.1,2.4-3.7,2.4c-0.5,0-1.5-1.2-1.5-1.7
			c0-0.3,0.4-0.5,0.6-0.6c2.6-1.5,5.1-3.5,6.9-5.8c0.6-0.7,1.5-1.9,1.9-2.8c0.1-0.2,0.2-0.3,0.4-0.3c0.3,0,1.9,0.4,2.3,0.5
			c0.2,0,0.5,0.1,0.5,0.4c0,0.2-0.1,0.3-0.3,0.3c-0.1,0-0.1,0.1-0.1,0.2c0,0,0,0.1,0,0.1c2.1,3.1,5.2,5.4,8.5,7.2
			c0.5,0.3,0.7,0.4,0.7,0.6c0,0.4-0.7,1.9-1.2,1.9c-0.5,0-3.6-2.2-4.2-2.7c-0.1-0.1-0.2-0.1-0.3-0.1c-0.2,0-0.2,0.2-0.2,0.4v0.5
			c0,0.6,0,1-0.5,1c-0.8,0-1.6,0-2.3,0h-4.4c-0.8,0-1.6,0-2.3,0c-0.5,0-0.5-0.5-0.5-1.1V46.8z M299.5,58.2c-0.4,0-0.6,0.1-0.6,0.5
			v0.2c0,0.6-0.4,0.6-1.3,0.6c-0.9,0-1.2,0-1.2-0.6c0-0.1,0-1.5,0-1.8v-4.3c0-0.5,0-1,0-1.4c0-1.1,0.7-1.3,1.7-1.3
			c0.6,0,1.2,0,1.8,0h6.7c0.6,0,1.2,0,1.8,0c1,0,1.7,0.2,1.7,1.3c0,0.5,0,1,0,1.4v4.3c0,0.6,0,1.3,0,1.7c0,0.6-0.3,0.6-1.3,0.6
			c-1,0-1.3,0-1.3-0.6v-0.3c0-0.3-0.1-0.5-0.6-0.5H299.5z M306.9,56c0.4,0,0.6-0.3,0.7-0.7v-2.3c0-0.4-0.3-0.6-0.7-0.7h-7.3
			c-0.4,0-0.6,0.2-0.7,0.7v2.3c0,0.4,0.3,0.6,0.7,0.7H306.9z M303.3,41.2c-0.2,0-0.3,0.1-0.4,0.2c-1.2,1.5-2.4,2.7-3.7,4
			c-0.1,0.1-0.1,0.1-0.1,0.2c0,0.2,0.1,0.2,0.3,0.2c0.6,0,1.1,0,1.7,0h4.4c1.6,0,1.9,0,1.9-0.3c0-0.2-0.3-0.4-0.6-0.7
			c-0.1-0.1-0.2-0.1-0.3-0.2c-1-0.9-2.1-2.1-2.9-3.2C303.6,41.3,303.5,41.2,303.3,41.2z"/>
	</g>
</g>
</svg>
