<?xml version="1.0" encoding="utf-8"?>
<!-- Generator: Adobe Illustrator 28.0.0, SVG Export Plug-In . SVG Version: 6.00 Build 0)  -->
<svg version="1.1" id="レイヤー_1" xmlns="http://www.w3.org/2000/svg" xmlns:xlink="http://www.w3.org/1999/xlink" x="0px"
	 y="0px" viewBox="0 0 385.2 103.6" style="enable-background:new 0 0 385.2 103.6;" xml:space="preserve">
<style type="text/css">
	.st0{fill:#F29600;}
	.st1{fill:#FFFF00;}
	.st2{clip-path:url(#SVGID_00000157296322743092653980000017033647308426229914_);}
	.st3{fill:#FBDFB2;}
	.st4{fill:#FFFFF4;}
	.st5{fill:none;}
</style>
<g>
	<rect y="48.3" class="st1" width="385.2" height="34"/>
	<g>
		<g>
			<path class="st0" d="M120.5,61.6l26.7-34.5c1-1.4,1.7-2.7,2.1-3.9c0.3-1.1,0.4-2.2,0.4-3.2c0-2.6-0.8-5-2.4-6.9c-1.7-2-4-3-7-3.1
				c-2.7,0-4.9,0.9-6.7,2.7c-1.8,1.8-2.9,4.3-3.3,7.5h-9.8c0.2-5.9,2.2-10.7,5.7-14.5c3.6-3.7,8-5.6,13.3-5.7
				c5.9,0.1,10.6,2,14.3,5.8c3.7,3.8,5.6,8.6,5.7,14.4c0,4.6-1.4,8.8-4.1,12.4l-22,28.4h26.1v10h-39V61.6z"/>
			<path class="st0" d="M168.1,61h9.8v10l-9.8,7.3V61z"/>
			<path class="st0" d="M188.2,71.1c0,0,0.2-0.6,0.8-1.8c0.6-1.2,1.3-2.7,2.3-4.6c0.9-1.9,2-3.9,3.1-6.2c1.2-2.3,2.3-4.5,3.4-6.8
				c1.1-2.2,2.2-4.3,3.2-6.1c1-1.9,1.8-3.3,2.4-4.4c-0.9,0.5-2,0.9-3.2,1c-1.2,0.1-2.5,0.1-4.1,0.1c-2.1-0.1-4-0.5-5.6-1.2
				c-1.6-0.7-3-1.6-4.1-2.7c-1.2-1.1-2.1-2.2-2.9-3.6c-0.8-1.3-1.4-2.6-1.9-3.8c-0.5-1.2-0.8-2.4-1-3.5c-0.2-1.1-0.3-1.9-0.3-2.5
				c0-0.2,0-0.5,0-1.1c0-0.5,0-1.1,0-1.7c0-0.6,0-1.3,0-1.9c0-0.6,0.1-1.2,0.1-1.6c0-0.2,0.1-0.8,0.3-1.7c0.2-0.9,0.5-2,1-3.3
				c0.5-1.3,1.2-2.7,2-4.1c0.9-1.5,2-2.8,3.4-4.1c1.4-1.3,3.1-2.4,5.2-3.3c2-0.9,4.5-1.5,7.3-1.8c2.9-0.3,5.5-0.1,7.8,0.5
				c2.2,0.6,4.2,1.5,5.8,2.7s2.9,2.5,4,4.1s1.9,3.1,2.5,4.7c0.6,1.6,1,3.1,1.2,4.6c0.2,1.5,0.2,2.8,0.1,3.8c-0.2,1.6-0.4,3-0.6,4.2
				c-0.2,1.2-0.5,2.4-0.8,3.6c-0.3,1.1-0.7,2.2-1,3.3s-0.8,2.3-1.4,3.6c-0.1,0.4-0.5,1.1-1,2.3c-0.6,1.2-1.3,2.7-2.1,4.4
				c-0.9,1.7-1.8,3.6-2.8,5.8c-1,2.1-2.1,4.2-3.1,6.4c-2.5,5-5.3,10.6-8.3,16.8H188.2z M190.4,20c0,1.3,0.1,2.6,0.2,4.2
				c0.1,1.5,0.5,2.9,1.1,4.3c0.6,1.3,1.6,2.5,3,3.4c1.4,1,3.3,1.5,5.7,1.6c1.2,0.1,2.3-0.1,3.3-0.5c1-0.4,1.9-0.9,2.7-1.5
				c0.8-0.6,1.4-1.3,2-2.1c0.6-0.8,1-1.5,1.4-2.3c0.4-0.8,0.6-1.5,0.8-2.1c0.2-0.6,0.2-1.2,0.2-1.5c0-0.8-0.1-1.7-0.1-2.7
				c0-1-0.1-2-0.3-3c-0.2-1-0.5-2-0.9-3c-0.4-1-1-1.8-1.8-2.5c-0.8-0.7-1.8-1.3-3-1.7c-1.2-0.4-2.7-0.6-4.5-0.5
				c-2,0.1-3.6,0.6-4.9,1.5c-1.3,0.9-2.3,1.9-3,3c-0.7,1.1-1.3,2.2-1.5,3.2C190.5,18.9,190.4,19.6,190.4,20z"/>
			<path class="st0" d="M229.9,50.5c0.1-6.8,2.8-12.1,8.3-15.9c-2.1-1.8-3.7-3.9-4.9-6.3c-1.4-2.2-2.1-4.9-2.1-7.9
				c0.1-5.9,2-10.7,5.8-14.6c3.6-3.8,8.2-5.7,13.8-5.8c5.7,0.1,10.4,2,14,5.8c3.7,3.8,5.5,8.7,5.6,14.6c0,3.1-0.6,5.7-1.9,7.9
				c-1.3,2.4-3,4.5-5.1,6.3c5.5,3.8,8.3,9.1,8.3,15.9c-0.1,6.3-2.1,11.4-6.1,15.2c-4,3.9-9,5.9-14.8,5.9c-5.8-0.1-10.7-2-14.6-5.9
				C232,61.9,229.9,56.8,229.9,50.5z M239.6,50.4c0.1,3.2,1.2,5.9,3.4,7.9c2.1,2.2,4.7,3.2,7.7,3.2c3.1,0,5.7-1.1,7.8-3.2
				c2.1-2.1,3.2-4.7,3.3-7.9c-0.1-3.3-1.2-6-3.3-8c-2.1-2-4.7-3.1-7.8-3.2c-3,0.1-5.6,1.1-7.7,3.2C240.8,44.4,239.7,47.1,239.6,50.4
				z M241,20.2c0.1,3.3,1.1,5.8,3.1,7.5c1.9,1.8,4.2,2.7,6.7,2.7c2.6,0,4.9-0.9,6.9-2.7c1.9-1.7,2.9-4.2,3-7.5
				c-0.1-3.4-1.1-5.9-3-7.6c-1.9-1.7-4.2-2.5-6.9-2.5c-2.5,0-4.8,0.8-6.7,2.5C242,14.2,241,16.8,241,20.2z"/>
			<path class="st0" d="M281.4,20.2c0.1-6.5,2.1-11.5,6-15c3.7-3.5,8.2-5.2,13.3-5.2c5.3,0,9.8,1.7,13.5,5.2c3.8,3.5,5.7,8.5,5.9,15
				v31.1c-0.1,6.5-2.1,11.5-5.9,15c-3.7,3.5-8.2,5.3-13.5,5.3c-5.2-0.1-9.6-1.8-13.3-5.3c-4-3.5-6-8.5-6-15V20.2z M310.4,20.9
				c-0.2-7.1-3.4-10.7-9.6-10.8c-6.3,0.1-9.5,3.7-9.6,10.8v29.9c0.1,7.1,3.3,10.7,9.6,10.8c6.2-0.1,9.5-3.7,9.6-10.8V20.9z"/>
		</g>
		<g>
			<path class="st0" d="M342.8,50.7v19.8h-8.2v-46h43.7v38.9c0,4.9-3,7-10.2,7c-1,0-1.4-0.1-2.2-0.2c-0.5-5-1.8-7.3-2.5-8.6
				c1.1,0.3,2.7,0.7,4.9,0.7c2,0,2-0.6,2-2.3v-9.3H342.8z M352.5,32.1h-9.7v11.3h9.7V32.1z M360.4,43.4h9.9V32.1h-9.9V43.4z"/>
		</g>
		<g>
			<path class="st0" d="M20.7,53.6c-1.9,10.5-7.4,14.9-10.2,17.2c-1.2-1.6-4.2-4.3-6.5-5.5c9.5-6.3,9.4-16.2,9.4-21.4V24.1H46v38.5
				c0,5.6-1.4,7.9-11.7,7.4c-0.2-2.4-1.5-6.7-2.6-8.5c0.8,0.2,3,0.6,4.3,0.6c1.8,0,1.9-1.1,1.9-3v-5.6H20.7z M37.8,35.1v-3.7H21.3
				v3.7H37.8z M37.8,46.1v-3.7H21.3v3.7H37.8z"/>
			<path class="st0" d="M80.7,38.5c-1.8,3.2-3.2,5.4-5.5,8c4.4,2.4,6.5,3.1,8,3.6V32.4h4.4c0.7-1.3,0.9-1.9,1.4-3h-6.1v-5.7h22.7
				v5.7h-8.9c-0.6,1.2-1.1,2.3-1.5,3h9.2v27.8h-4.8c2.7,2.5,4.8,3.8,8,5.4c-1.9,1.6-3.5,3.3-5.1,5.3c-1.3-0.8-5.9-3.4-9.6-7.7
				l2.9-2.9h-6.1l2.2,1.9c0.6,0.5,0.9,0.7,0.9,1.1c0,0.4-0.4,0.5-0.8,0.5h-0.5c-1.9,2.1-5.3,5.1-8.8,7.2c-1.2-1.9-2.1-3-3.4-4.3v3
				h-5.8v-2h-4.5v2.7h-6.3V56.7c-0.3,0.2-0.7,0.4-0.9,0.5c-2-2.7-2.5-3.3-4.7-5.1c3.8-1.2,6.6-2.9,9-4.8c-1-0.8-1.7-1.4-2.1-1.8
				C63.3,46,63,46.3,62,47.1c-1.1-1.4-4-3.5-5.1-4.2c1.9-1.3,4.5-3.3,6.8-6.6h-5.1v-9.9h8.6v-4.1l7.9,0.5c0.3,0,0.9,0.1,0.9,0.7
				s-0.7,1-1.5,1.3v1.6h7.6v9.9h-3.9L80.7,38.5z M76.6,35.7v-3.8H64.3v3.6c0.9-1.4,1.4-2.4,1.7-3.3l6.5,1.6c0.4,0.1,0.8,0.4,0.8,0.7
				c0,0.6-0.6,0.6-1.7,0.7c-0.1,0.2-0.2,0.3-0.2,0.4H76.6z M68.2,40.6c-0.2,0.2-0.4,0.6-0.6,0.8c0.6,0.5,1.2,0.9,2.5,1.9
				c0.8-1,1.2-1.6,2-2.7H68.2z M74.9,53c-1.8-0.9-2.9-1.5-4-2.1c-0.9,0.8-1.6,1.4-2.6,2.1H74.9z M73.4,62.4v-4.1h-4.5v4.1H73.4z
				 M83.2,50.6c-0.5,0.6-2.3,4.2-2.8,4.9c-0.4-0.2-0.8-0.3-1.2-0.5v10c2.3-1.4,4.9-3.4,6.4-4.9h-2.4V50.6z M98,40.1v-2.1h-8.3v2.1
				H98z M89.6,44.7v2.3H98v-2.3H89.6z M89.6,51.7V54H98v-2.3H89.6z"/>
		</g>
		<g>
			<path class="st0" d="M341.1,2.5c-0.8,0.7-2.8,2.5-2.8,6c0,3.5,2,5.3,2.8,6l-0.7,0.7c-2.9-2.5-3.1-5.5-3.1-6.7
				c0-1.2,0.2-4.2,3.1-6.7L341.1,2.5z"/>
			<path class="st0" d="M347.9,3.1c-0.1,0-0.1,0-0.3-0.1c-0.3,0.1-0.7,0.3-1.4,0.6v2.3h1.8v1h-1.8v0.2c0.1,0.3,0.6,1.5,1.7,2.7
				c-0.1,0.1-0.5,0.4-0.8,0.8c-0.4-0.8-0.7-1.4-0.9-1.8v6h-1V8.5c-0.7,2.1-1.3,3.2-1.7,4c-0.3-0.3-0.4-0.4-0.9-0.7
				c1.5-2.1,2.2-4,2.5-4.9h-2.2v-1h2.4V3.9c-0.8,0.2-1.4,0.3-1.8,0.4c-0.2-0.4-0.3-0.6-0.6-1c1.4-0.1,3.2-0.6,4.6-1.4l0.7,0.8
				c0.1,0.1,0.1,0.1,0.1,0.2C348.1,3.1,348,3.1,347.9,3.1z M350.9,10.2c-0.2,1.2-0.7,3.4-3.3,4.8c-0.2-0.3-0.4-0.6-0.9-1
				c1-0.4,3-1.4,3.1-4.5l1.1,0.3c0.1,0,0.3,0.1,0.3,0.2C351.2,10.2,351.1,10.2,350.9,10.2z M354.4,14.6h-1.1c-1.2,0-1.2-0.7-1.2-1.4
				V9.5h-3.7V5.1h3.4c0.6-0.7,1.2-1.7,1.8-3.1l1.1,0.4c0.1,0,0.2,0.1,0.2,0.2s-0.2,0.1-0.4,0.1c-0.5,1.1-0.8,1.6-1.4,2.3h1.8v4.4
				h-1.8v3.3c0,0.6,0,0.6,0.7,0.6c0.6,0,0.9,0,1-1.5c0.3,0.2,0.6,0.4,1,0.6C355.6,14.6,354.9,14.6,354.4,14.6z M350.1,5
				c-0.4-0.8-0.9-1.8-1.5-2.5l0.9-0.5c0.7,0.9,1.3,2,1.5,2.5C350.6,4.6,350.4,4.7,350.1,5z M354,6.1h-4.4v2.5h4.4V6.1z"/>
			<path class="st0" d="M361.9,4.4v1.1h-1.6v2.6c0.9-0.3,1.3-0.5,1.8-0.7c0,0.1-0.1,0.7,0,1.1c-0.3,0.1-0.8,0.4-1.7,0.7v4.1
				c0,1.4-0.6,1.6-2.4,1.6c0-0.5-0.2-0.9-0.3-1.2c0.2,0,0.4,0.1,0.8,0.1c0.8,0,0.8-0.2,0.8-0.6V9.6c-0.3,0.1-1.3,0.4-1.5,0.5
				c0,0.2-0.1,0.4-0.3,0.4c-0.2,0-0.2-0.1-0.2-0.3L357,9c0.7-0.2,1.5-0.4,2.2-0.6v-3h-1.9V4.4h1.9V2l1.2,0.1c0.1,0,0.3,0,0.3,0.2
				c0,0.2-0.2,0.2-0.4,0.3v1.8H361.9z M362.4,5.3V4.2h1.6c0-0.4,0.1-1.9,0.1-2.2l1.2,0c0.1,0,0.3,0,0.3,0.2s-0.1,0.2-0.4,0.3
				c0,0.6,0,1.1,0,1.7h4.9v1.1h-5c-0.1,1-0.2,1.5-0.2,1.8h3.7l0.6,0.5c-0.2,1-0.8,2.8-1.9,4.3c0.9,0.9,1.9,1.6,3,2.1
				c-0.5,0.3-0.8,0.7-0.9,0.9c-1.4-0.9-2.1-1.4-2.8-2.2c-0.9,1-1.8,1.7-2.9,2.3c-0.2-0.2-0.4-0.5-0.9-0.8c0.6-0.3,1.8-0.9,3.1-2.3
				c-0.8-1.1-1.2-2.1-1.4-2.7c-0.9,3.4-2.4,5-2.9,5.5c-0.4-0.5-0.7-0.6-0.9-0.7c2.7-2.7,3.2-6.5,3.3-8.7H362.4z M365.1,8.1
				c0.3,0.9,0.6,1.9,1.4,2.9c0.9-1.3,1.2-2.5,1.3-2.9H365.1z"/>
			<path class="st0" d="M372.4,15.2l-0.7-0.7c0.8-0.7,2.8-2.5,2.8-6c0-3.5-2-5.3-2.8-6l0.7-0.7c2.7,2.3,3.1,5,3.1,6.7
				S375.1,12.9,372.4,15.2z"/>
		</g>
	</g>
	<g>
		<path class="st0" d="M276.9,90.9c-0.8,0.7-2.8,2.5-2.8,6c0,3.5,2,5.3,2.8,6l-0.7,0.7c-2.9-2.5-3.1-5.5-3.1-6.7
			c0-1.2,0.2-4.2,3.1-6.7L276.9,90.9z"/>
		<path class="st0" d="M283.8,91.5c-0.1,0-0.1,0-0.3-0.1c-0.3,0.1-0.7,0.3-1.4,0.6v2.3h1.8v1H282v0.2c0.1,0.3,0.6,1.5,1.7,2.7
			c-0.1,0.1-0.5,0.4-0.8,0.8c-0.4-0.8-0.7-1.4-0.9-1.8v6h-1v-6.4c-0.7,2.1-1.3,3.2-1.7,4c-0.3-0.3-0.4-0.4-0.9-0.7
			c1.5-2.1,2.2-4,2.5-4.9h-2.2v-1h2.4v-1.9c-0.8,0.2-1.4,0.3-1.8,0.4c-0.2-0.4-0.3-0.6-0.6-1c1.4-0.1,3.2-0.6,4.6-1.4l0.7,0.8
			c0.1,0.1,0.1,0.1,0.1,0.2C284,91.5,283.9,91.5,283.8,91.5z M286.8,98.6c-0.2,1.2-0.7,3.4-3.3,4.8c-0.2-0.3-0.4-0.6-0.9-1
			c1-0.4,3-1.4,3.1-4.5l1.1,0.3c0.1,0,0.3,0.1,0.3,0.2C287.1,98.6,286.9,98.6,286.8,98.6z M290.3,103h-1.1c-1.2,0-1.2-0.7-1.2-1.4
			V98h-3.7v-4.4h3.4c0.6-0.7,1.2-1.7,1.8-3.1l1.1,0.4c0.1,0,0.2,0.1,0.2,0.2c0,0.1-0.2,0.1-0.4,0.1c-0.5,1.1-0.8,1.6-1.4,2.3h1.8V98
			h-1.8v3.3c0,0.6,0,0.6,0.7,0.6c0.6,0,0.9,0,1-1.5c0.3,0.2,0.6,0.4,1,0.6C291.5,103,290.8,103,290.3,103z M285.9,93.4
			c-0.4-0.8-0.9-1.8-1.5-2.5l0.9-0.5c0.7,0.9,1.3,2,1.5,2.5C286.5,93,286.3,93.1,285.9,93.4z M289.8,94.5h-4.4V97h4.4V94.5z"/>
		<path class="st0" d="M305.5,102.9h-6.2c-2.2,0-3.1-0.3-3.8-1.4c-0.8,0.7-1.3,1.1-1.8,1.4c0,0.2,0,0.5-0.2,0.5
			c-0.1,0-0.3-0.2-0.3-0.3l-0.4-1c0.5-0.2,1.1-0.5,2.2-1.3v-3.7h-2v-1.1h3.2v4.4c0,0.4,0.1,1.2,1.2,1.5c0.4,0.1,0.8,0.2,3.4,0.2
			c3,0,4.5-0.1,5.1-0.2C305.8,101.9,305.6,102.3,305.5,102.9z M295.9,93.8c-1-1.1-1.8-1.8-2.7-2.4l0.8-0.8c0.9,0.6,2,1.6,2.8,2.3
			C296.2,93.4,296,93.6,295.9,93.8z M304.7,100.8c-1.7-1.4-3.2-3.3-3.7-5.9c-0.6,2.5-2,4.7-3.4,5.9c-0.2-0.3-0.4-0.5-1-0.8
			c2-1.7,3.2-4,3.5-6.4l0.7,0.1c-0.1-0.8-0.1-1.4-0.1-1.8h-2.4v-1.1h3.5c0,0.3,0,0.6,0,1.1c0,2.2,0.2,5.3,3.8,7.9
			C305,100.5,304.9,100.6,304.7,100.8z"/>
		<path class="st0" d="M312.4,98.6c0.1,0.9,0.2,2.7,2.6,2.7c2,0,2.7-1.1,2.7-2.3c0-1.8-1.6-2.2-2.4-2.2h-1.1v-1.1h1
			c1.5,0,2.4-0.8,2.4-1.9c0-1.2-1-1.8-2.3-1.8c-2.3,0-2.5,1.7-2.6,2.4h-1.4c0.1-0.7,0.4-3.6,4.1-3.6c2.1,0,3.7,1.1,3.7,2.9
			c0,1.9-1.5,2.4-2,2.5c1.4,0.3,2.2,1.4,2.2,2.7c0,1.5-0.8,3.5-4,3.5c-1.3,0-4-0.2-4.2-3.9H312.4z"/>
		<path class="st0" d="M322.7,102.2c0,0.4,0,1.2-1.5,1.4v-0.5c0.7-0.1,0.7-0.5,0.7-0.8h-0.7v-1.6h1.5V102.2z"/>
		<path class="st0" d="M333.1,101v1.2h-8.2c0.1-2.3,1.4-3.2,3.4-4.6c2.7-1.9,3.4-2.3,3.4-3.6c0-1.4-1.3-2-2.5-2
			c-2.6,0-2.7,2.3-2.7,3H325c0.1-2.7,1.6-4.3,4.2-4.3c2.2,0,3.8,1.2,3.8,3.2c0,1.4-0.6,2.4-2.9,3.8c-2.6,1.6-3.1,2.2-3.4,3.1H333.1z
			"/>
		<path class="st0" d="M342.9,91.2v1.2c-1.6,1.3-4.2,4.6-4.3,9.8h-1.4c0-3.8,2-7.7,4.2-9.8h-6.5v-1.2H342.9z"/>
		<path class="st0" d="M353,99.2c0,1.2-0.6,3.4-4.1,3.4c-3.5,0-4.1-2.2-4.1-3.4c0-2.3,1.8-2.8,2.2-2.9c-1.2-0.4-1.9-1.1-1.9-2.5
			c0-1.8,1.5-2.9,3.8-2.9c2.5,0,3.8,1.2,3.8,2.9c0,1.3-0.7,2.1-1.9,2.5C351.2,96.4,353,96.9,353,99.2z M346.1,99.1
			c0,2,1.7,2.3,2.7,2.3c1,0,2.7-0.3,2.7-2.3c0-1.4-1-2.2-2.7-2.2C347.1,96.8,346.1,97.7,346.1,99.1z M346.4,94
			c0,1.7,1.9,1.8,2.4,1.8c0.5,0,2.4-0.1,2.4-1.8c0-1.1-0.9-1.9-2.4-1.9C346.4,92.1,346.4,93.8,346.4,94z"/>
		<path class="st0" d="M367,103.2c-0.1-0.7-0.2-1-0.4-1.3c0.4,0.1,0.8,0.1,1.2,0.1c0.8,0,1-0.2,1-1v-3.4H360v5.6h-1.2V91.1h11.2
			v10.1C370.1,102.7,369.7,103.3,367,103.2z M363.8,92.3H360v4.3h3.8V92.3z M368.9,92.3H365v4.3h3.9V92.3z"/>
		<path class="st0" d="M373.3,103.6l-0.7-0.7c0.8-0.7,2.8-2.5,2.8-6c0-3.5-2-5.3-2.8-6l0.7-0.7c2.7,2.3,3.1,5,3.1,6.7
			S376,101.3,373.3,103.6z"/>
	</g>
</g>
</svg>
