<?xml version="1.0" encoding="utf-8"?>
<!-- Generator: Adobe Illustrator 28.0.0, SVG Export Plug-In . SVG Version: 6.00 Build 0)  -->
<svg version="1.1" id="レイヤー_1" xmlns="http://www.w3.org/2000/svg" xmlns:xlink="http://www.w3.org/1999/xlink" x="0px"
	 y="0px" viewBox="0 0 104.2 80.8" style="enable-background:new 0 0 104.2 80.8;" xml:space="preserve">
<style type="text/css">
	.st0{fill:none;}
	.st1{fill:#F29600;}
	.st2{fill:#808080;}
</style>
<g>
	<path class="st0" d="M38.9,35.5c7.1,0,12.9-5.8,12.9-12.9c0-7.1-5.8-12.9-12.9-12.9C31.8,9.7,26,15.5,26,22.6
		C26,29.8,31.8,35.5,38.9,35.5z"/>
	<path class="st1" d="M38.9,39.9c9.5,0,17.2-7.7,17.2-17.2S48.4,5.4,38.9,5.4c-9.5,0-17.2,7.7-17.2,17.2S29.4,39.9,38.9,39.9z
		 M38.9,9.7c7.1,0,12.9,5.8,12.9,12.9c0,7.1-5.8,12.9-12.9,12.9c-7.1,0-12.9-5.8-12.9-12.9C26,15.5,31.8,9.7,38.9,9.7z"/>
	<path class="st1" d="M16.2,69.9c-2.5,0-2.9-1.4-3-1.9v-6.5c0-3.7,1.4-6.7,4.4-9.7c3-2.9,8.1-4.1,11.9-2.8c0.2,0.1,5.1,1.7,9.4,1.7
		c4.3,0,9.2-1.7,9.4-1.7c1.2-0.4,2.4-0.6,3.7-0.5c0.3-1.6,1-3,1.9-4.2c-2.4-0.3-4.8-0.1-7,0.6c0,0-4.4,1.5-8,1.5
		c-3.5,0-7.9-1.5-8-1.5c-5.4-1.9-12.2-0.3-16.4,3.8c-3.9,3.8-5.7,7.9-5.7,12.8v6.6l0,0.1c0.1,2.4,2.1,6.1,7.3,6.1h37.7
		C53,73,52.3,71.5,52,69.9H16.2z"/>
	<path class="st1" d="M88.5,44.2h-2v-4.5v-1.8c0-6-4.9-10.9-10.9-10.9c-6,0-10.9,4.9-10.9,10.9v1.8v4.5h-2c-1.5,0-2.9,0.5-3.9,1.4
		c-1.2,0.9-2,2.2-2.3,3.8c-0.1,0.4-0.1,0.8-0.1,1.2v17.3c0,0.7,0.1,1.4,0.3,2c0.8,2.4,3,4.1,5.6,4.3c0.2,0,0.3,0,0.5,0h25.8
		c3.5,0,6.4-2.9,6.4-6.4V50.6C94.9,47.1,92,44.2,88.5,44.2z M69,39.7v-1.8c0-3.6,2.9-6.6,6.6-6.6c3.6,0,6.6,2.9,6.6,6.6v1.8v4.5H69
		V39.7z M90.5,67.9c0,1.1-0.9,2-2,2H68.6h-5.9c-0.1,0-0.3,0-0.4,0c-0.9-0.2-1.6-1-1.6-2V52.2v-1.6c0-1.1,0.9-2,2-2h0.4h25.4
		c1.1,0,2,0.9,2,2V67.9z"/>
	<circle class="st1" cx="75.6" cy="59.5" r="4.5"/>
	<rect x="0" class="st0" width="104.2" height="80.8"/>
</g>
</svg>
