<?xml version="1.0" encoding="utf-8"?>
<!-- Generator: Adobe Illustrator 28.0.0, SVG Export Plug-In . SVG Version: 6.00 Build 0)  -->
<svg version="1.1" id="レイヤー_1" xmlns="http://www.w3.org/2000/svg" xmlns:xlink="http://www.w3.org/1999/xlink" x="0px"
	 y="0px" viewBox="0 0 83.3 64.6" style="enable-background:new 0 0 83.3 64.6;" xml:space="preserve">
<style type="text/css">
	.st0{fill:none;}
	.st1{fill:#F29600;}
	.st2{fill:#808080;}
</style>
<g>
	<ellipse transform="matrix(0.1222 -0.9925 0.9925 0.1222 9.3553 46.8132)" class="st0" cx="31.1" cy="18.1" rx="10.3" ry="10.3"/>
	<path class="st2" d="M31.1,31.9c7.6,0,13.8-6.2,13.8-13.8S38.7,4.3,31.1,4.3c-7.6,0-13.8,6.2-13.8,13.8S23.5,31.9,31.1,31.9z
		 M31.1,7.8c5.7,0,10.3,4.6,10.3,10.3s-4.6,10.3-10.3,10.3c-5.7,0-10.3-4.6-10.3-10.3S25.5,7.8,31.1,7.8z"/>
	<path class="st2" d="M12.9,56c-2,0-2.3-1.1-2.4-1.5v-5.2c0-3,1.1-5.4,3.5-7.8c2.4-2.3,6.5-3.3,9.5-2.2c0.2,0.1,4.1,1.4,7.5,1.4
		c3.4,0,7.3-1.3,7.5-1.4c0.9-0.3,1.9-0.4,3-0.4c0.2-1.2,0.8-2.4,1.5-3.4c-1.9-0.3-3.8-0.1-5.6,0.5c0,0-3.5,1.2-6.4,1.2
		c-2.8,0-6.3-1.2-6.4-1.2c-4.4-1.5-9.7-0.3-13.1,3.1C8.6,42,7.1,45.3,7.1,49.2v5.3l0,0.1c0.1,2,1.7,4.9,5.8,4.9h30.2
		c-0.7-1-1.3-2.2-1.5-3.5H12.9z"/>
	<path class="st2" d="M70.8,35.4h-1.6v-3.6v-1.4c0-4.8-3.9-8.7-8.7-8.7c-4.8,0-8.7,3.9-8.7,8.7v1.4v3.6h-1.6c-1.2,0-2.3,0.4-3.1,1.1
		c-0.9,0.7-1.6,1.8-1.9,3c-0.1,0.3-0.1,0.6-0.1,1v13.9c0,0.6,0.1,1.1,0.3,1.6c0.7,1.9,2.4,3.3,4.6,3.4c0.1,0,0.2,0,0.2,0h20.7
		c2.8,0,5.1-2.3,5.1-5.1V40.5C75.9,37.7,73.6,35.4,70.8,35.4z M55.2,31.8v-1.4c0-2.9,2.4-5.2,5.2-5.2c2.9,0,5.2,2.4,5.2,5.2v1.4v3.6
		H55.2V31.8z M72.4,54.3c0,0.9-0.7,1.6-1.6,1.6H54.9h-4.7c-0.1,0-0.2,0-0.3,0c-0.7-0.2-1.3-0.8-1.3-1.6V41.8v-1.3
		c0-0.9,0.7-1.6,1.6-1.6h0.4h20.3c0.9,0,1.6,0.7,1.6,1.6V54.3z"/>
	<rect x="0" class="st0" width="83.3" height="64.6"/>
	<circle class="st2" cx="60.5" cy="47.6" r="3.6"/>
</g>
</svg>
