<?xml version="1.0" encoding="utf-8"?>
<!-- Generator: Adobe Illustrator 28.0.0, SVG Export Plug-In . SVG Version: 6.00 Build 0)  -->
<svg version="1.1" id="レイヤー_1" xmlns="http://www.w3.org/2000/svg" xmlns:xlink="http://www.w3.org/1999/xlink" x="0px"
	 y="0px" viewBox="0 0 75 75" style="enable-background:new 0 0 75 75;" xml:space="preserve">
<style type="text/css">
	.st0{fill:#00BDE1;}
	.st1{fill:#FFFFFF;}
	.st2{fill:#4D4D4D;}
	.st3{fill:#80DEF0;}
	.st4{fill:none;}
	.st5{fill:#FFD273;}
	.st6{fill:#F8CA7F;}
	.st7{fill:#2E2E2E;}
	.st8{fill:#66D7ED;}
	.st9{fill:url(#);}
	.st10{fill:none;stroke:#2E2E2E;stroke-width:0;stroke-linecap:round;stroke-linejoin:round;}
	.st11{fill:#FFCF32;}
	.st12{fill:#353535;}
</style>
<g>
	<circle class="st0" cx="37.5" cy="37.5" r="37.5"/>
	<g>
		<path class="st1" d="M9.2,30.2v-8.8h2.5c0.7,0,1.2,0.1,1.7,0.2c0.5,0.2,0.9,0.4,1.2,0.8c0.3,0.4,0.4,0.9,0.4,1.5
			c0,0.6-0.1,1.1-0.4,1.5c-0.3,0.4-0.7,0.7-1.1,0.9c-0.5,0.2-1.1,0.3-1.7,0.3h-1.5v3.5H9.2z M10.4,25.8h1.3c0.8,0,1.3-0.1,1.7-0.4
			c0.4-0.3,0.6-0.7,0.6-1.4c0-0.6-0.2-1.1-0.6-1.3c-0.4-0.2-1-0.4-1.7-0.4h-1.3V25.8z"/>
		<path class="st1" d="M17.4,30.2v-8.8h2.7c0.6,0,1.1,0.1,1.6,0.2c0.5,0.2,0.8,0.4,1.1,0.8c0.3,0.4,0.4,0.8,0.4,1.5
			c0,0.6-0.1,1.1-0.4,1.5c-0.3,0.4-0.6,0.7-1.1,0.9c-0.5,0.2-1,0.3-1.6,0.3h-1.6v3.7H17.4z M18.5,25.6H20c0.7,0,1.2-0.1,1.6-0.4
			s0.6-0.7,0.6-1.3c0-0.6-0.2-1-0.6-1.2c-0.4-0.2-0.9-0.3-1.6-0.3h-1.5V25.6z M22.3,30.2l-2.3-4l0.9-0.6l2.7,4.6H22.3z"/>
		<path class="st1" d="M28.9,30.4c-0.7,0-1.4-0.2-1.9-0.6c-0.6-0.4-1-0.9-1.3-1.6c-0.3-0.7-0.5-1.5-0.5-2.4c0-0.9,0.2-1.8,0.5-2.4
			c0.3-0.7,0.8-1.2,1.3-1.6c0.6-0.4,1.2-0.5,1.9-0.5s1.4,0.2,1.9,0.5s1,0.9,1.3,1.6c0.3,0.7,0.5,1.5,0.5,2.4c0,0.9-0.2,1.7-0.5,2.4
			c-0.3,0.7-0.8,1.2-1.3,1.6C30.3,30.2,29.6,30.4,28.9,30.4z M28.9,29.4c0.5,0,1-0.1,1.4-0.4c0.4-0.3,0.7-0.7,0.9-1.3
			c0.2-0.5,0.3-1.2,0.3-1.9c0-0.7-0.1-1.4-0.3-1.9c-0.2-0.5-0.5-0.9-0.9-1.2c-0.4-0.3-0.9-0.4-1.4-0.4c-0.5,0-1,0.1-1.4,0.4
			s-0.7,0.7-0.9,1.2c-0.2,0.5-0.3,1.2-0.3,1.9c0,0.7,0.1,1.4,0.3,1.9c0.2,0.5,0.5,1,0.9,1.3C27.9,29.2,28.4,29.4,28.9,29.4z"/>
		<path class="st1" d="M35.2,30.2v-8.8h2.6c0.6,0,1.1,0.1,1.6,0.2c0.5,0.1,0.8,0.4,1.1,0.7c0.3,0.3,0.4,0.7,0.4,1.2
			c0,0.3-0.1,0.6-0.1,0.8c-0.1,0.3-0.2,0.5-0.4,0.7c-0.2,0.2-0.4,0.3-0.7,0.4v0.1c0.5,0.1,0.9,0.3,1.3,0.7c0.3,0.4,0.5,0.8,0.5,1.4
			c0,0.6-0.1,1.1-0.4,1.4c-0.3,0.4-0.7,0.7-1.2,0.9c-0.5,0.2-1.1,0.3-1.7,0.3H35.2z M36.3,25.1h1.3c0.8,0,1.3-0.1,1.6-0.4
			c0.3-0.3,0.5-0.6,0.5-1.1c0-0.5-0.2-0.9-0.5-1.1c-0.3-0.2-0.9-0.3-1.6-0.3h-1.4V25.1z M36.3,29.3h1.5c0.8,0,1.3-0.1,1.8-0.4
			c0.4-0.3,0.6-0.7,0.6-1.3c0-0.6-0.2-1-0.6-1.2c-0.4-0.3-1-0.4-1.8-0.4h-1.5V29.3z"/>
		<path class="st1" d="M43.7,30.2v-8.8h1.1v7.8h3.9v0.9H43.7z"/>
		<path class="st1" d="M50.8,30.2v-8.8h5.1v0.9h-4v2.8h3.3v0.9h-3.3v3.2H56v0.9H50.8z"/>
		<path class="st1" d="M58.4,30.2v-8.8h1.3l1.7,4.7c0.1,0.3,0.2,0.6,0.3,0.9s0.2,0.6,0.3,0.9h0c0.1-0.3,0.2-0.6,0.3-0.9
			s0.2-0.6,0.3-0.9l1.7-4.7h1.3v8.8h-1v-4.9c0-0.3,0-0.5,0-0.8c0-0.3,0-0.6,0.1-0.9s0-0.6,0.1-0.8h0l-0.7,2l-1.7,4.6h-0.7L60,24.7
			l-0.7-2h0c0,0.3,0.1,0.5,0.1,0.8s0,0.6,0,0.9s0,0.6,0,0.8v4.9H58.4z"/>
	</g>
	<g>
		<path class="st1" d="M30.8,57.8v-2.1c1.9-1.8,3.5-3.4,4.8-4.8c1.4-1.4,2.4-2.7,3.1-3.9c0.7-1.2,1.1-2.3,1.1-3.3
			c0-0.7-0.1-1.3-0.4-1.8c-0.3-0.5-0.6-0.9-1.1-1.2c-0.5-0.3-1.1-0.4-1.8-0.4c-0.8,0-1.5,0.2-2.1,0.7c-0.6,0.4-1.2,1-1.8,1.6l-2-2
			c0.9-1,1.9-1.8,2.9-2.3c1-0.5,2.2-0.8,3.6-0.8c1.3,0,2.4,0.3,3.4,0.8c1,0.5,1.7,1.2,2.2,2.1c0.5,0.9,0.8,2,0.8,3.3
			c0,1.2-0.3,2.4-1,3.6c-0.7,1.2-1.6,2.5-2.7,3.8c-1.1,1.3-2.3,2.6-3.7,4c0.5-0.1,1.1-0.1,1.7-0.2c0.6,0,1.2-0.1,1.7-0.1h4.9v3.1
			H30.8z"/>
	</g>
</g>
</svg>
