<?xml version="1.0" encoding="utf-8"?>
<!-- Generator: Adobe Illustrator 28.0.0, SVG Export Plug-In . SVG Version: 6.00 Build 0)  -->
<svg version="1.1" id="レイヤー_1" xmlns="http://www.w3.org/2000/svg" xmlns:xlink="http://www.w3.org/1999/xlink" x="0px"
	 y="0px" viewBox="0 0 280 137.7" style="enable-background:new 0 0 280 137.7;" xml:space="preserve">
<style type="text/css">
	.st0{fill:#00BDE1;}
	.st1{fill:#FFFFFF;}
	.st2{fill:#4D4D4D;}
	.st3{fill:#80DEF0;}
	.st4{fill:#F8CA7F;}
	.st5{fill:none;}
	.st6{fill:#FFD273;}
	.st7{fill:#2E2E2E;}
	.st8{fill:#66D7ED;}
	.st9{fill:url(#);}
	.st10{fill:none;stroke:#2E2E2E;stroke-width:0;stroke-linecap:round;stroke-linejoin:round;}
	.st11{fill:#FFCF32;}
	.st12{fill:#353535;}
</style>
<g>
	<path class="st1" d="M157.3,126.2l-2-5.6l-20.1-55.3l-7.5-20.5c-0.7-2-3-3.7-5.1-3.7H83c-0.9,0-1.6,0.3-2.1,0.9l0,0l-2.4,2.4l0,0
		c-0.8,0.7-1,1.8-0.6,3.1l29.6,81.4c0.7,2,3,3.7,5.1,3.7h39.5c0.9,0,1.6-0.3,2.1-0.9l2.4-2.4c0.1-0.1,0.2-0.2,0.3-0.3l0,0l0,0
		C157.5,128.4,157.7,127.4,157.3,126.2z"/>
	<path class="st2" d="M152.3,134h-39.5c-2.6,0-5.4-2-6.4-4.6L76.7,47.9c-0.6-1.8-0.3-3.5,0.9-4.6L80,41c0.7-0.8,1.8-1.3,3.1-1.3
		h39.5c2.6,0,5.4,2,6.4,4.6l7.5,20.5c0.3,0.7-0.1,1.5-0.8,1.8c-0.7,0.3-1.5-0.1-1.8-0.8l-7.5-20.5c-0.5-1.5-2.3-2.8-3.7-2.8H83
		c-0.3,0-0.7,0.1-1,0.4c0,0-0.1,0.1-0.1,0.1l-2.3,2.3c0,0-0.1,0.1-0.1,0.1c-0.3,0.3-0.4,0.9-0.2,1.6l29.6,81.4
		c0.5,1.5,2.3,2.8,3.7,2.8h39.5c0.3,0,0.7-0.1,1-0.4c0,0,0.1-0.1,0.1-0.1l2.4-2.4c0,0,0.1-0.1,0.1-0.1c0,0,0.1-0.1,0.1-0.1
		c0,0,0,0,0,0c0.3-0.3,0.3-0.9,0-1.5l-2-5.6c-0.3-0.7,0.1-1.5,0.8-1.8c0.7-0.3,1.5,0.1,1.8,0.8l2,5.6c0.6,1.6,0.4,3.1-0.5,4.2
		c0,0,0,0,0,0c-0.1,0.2-0.3,0.3-0.4,0.4l-2.3,2.3C154.6,133.5,153.5,134,152.3,134z M157,129L157,129L157,129z"/>
	<polygon class="st3" points="86,47.2 111.4,116.9 148.9,116.9 123.5,47.2 	"/>
	<path class="st2" d="M152,128.9h-36.6c-0.8,0-1.4-0.6-1.4-1.4s0.6-1.4,1.4-1.4H152c0.8,0,1.4,0.6,1.4,1.4S152.8,128.9,152,128.9z"
		/>
	<path class="st2" d="M137.5,123.1h-7.7c-0.8,0-1.4-0.6-1.4-1.4s0.6-1.4,1.4-1.4h7.7c0.8,0,1.4,0.6,1.4,1.4S138.3,123.1,137.5,123.1
		z"/>
	<path class="st1" d="M193.8,13.9c-9.9-11.8-27.4-13.4-39.2-3.5c-10.8,9-13,24.4-5.8,36l-3.7,8.2l8.8-2.2
		c10.1,9.1,25.7,9.6,36.4,0.6C202.1,43.2,203.7,25.7,193.8,13.9z"/>
	<path class="st2" d="M172.5,61c-0.2,0-0.4,0-0.6,0c-6.8-0.1-13.2-2.6-18.3-7l-8.1,2c-0.5,0.1-1.1-0.1-1.4-0.5
		c-0.3-0.4-0.4-1-0.2-1.5l3.4-7.6c-3.4-5.8-4.7-12.6-3.6-19.3c1.1-7,4.7-13.3,10.1-17.9c6-5,13.6-7.4,21.3-6.7
		c7.8,0.7,14.8,4.4,19.8,10.4c10.3,12.4,8.7,30.8-3.7,41.2C186,58.6,179.3,61,172.5,61z M153.9,51.1c0.3,0,0.7,0.1,0.9,0.4
		c9.7,8.7,24.6,9,34.6,0.6c11.2-9.4,12.7-26.1,3.3-37.3c-4.5-5.4-10.9-8.7-17.9-9.4c-7-0.6-13.9,1.5-19.3,6.1
		c-10,8.4-12.4,23.1-5.5,34.2c0.2,0.4,0.3,0.9,0.1,1.3l-2.5,5.7l6-1.5C153.7,51.1,153.8,51.1,153.9,51.1z"/>
	<path class="st2" d="M169.8,41.5C169.8,41.5,169.8,41.5,169.8,41.5c-1.3,0-2.4-0.5-3.3-1.4l-5.4-5.8c-1.7-1.8-1.6-4.6,0.2-6.3
		c1.8-1.7,4.6-1.6,6.3,0.2l2.3,2.5l7.4-7.4c1.7-1.7,4.6-1.7,6.3,0c1.7,1.7,1.7,4.6,0,6.3L173,40.2C172.1,41.1,171,41.5,169.8,41.5z"
		/>
	<path class="st4" d="M179.2,25l-9.3,9.3l-4.1-4.4c-0.7-0.8-1.9-0.8-2.7-0.1c-0.8,0.7-0.8,1.9-0.1,2.7l5.4,5.8
		c0.4,0.4,0.8,0.6,1.4,0.6c0,0,0,0,0,0c0.5,0,1-0.2,1.3-0.6l10.7-10.7c0.7-0.7,0.7-2,0-2.7C181.1,24.3,179.9,24.3,179.2,25z"/>
	<path class="st1" d="M179.2,77.3c-2.9-1.5-8.6-1.4-8.6-1.4s-4.4-1.9-6.7-2.5c-2.3-0.5-8.1,0.9-8.1,0.9s-16.4-3.2-20.1-2.3
		c-1.7,0.5-5.1,2.8-9.3,5.8c-4.8,3.4-9.1,4.5-8.6,8c0.4,3.1,5.9,3,9.2,1.9c3.3-1.1,11.4-5.2,11.4-5.2l9.3,2.7c0,0-1.7,5.6-1.6,7.4
		c0.2,1.8,2.6,5.3,2.6,5.3l-1.4,0.6c0,0-10.2-1.2-11.6,2.2c-1.7,3.9,2.2,5.2,2.2,5.2l8.9,3.8c0,0,3.8,2.7,6,3.3
		c2.3,0.6,8.4,0.1,12.6,1c12.3,2.7,12.3-1,16.7,0.5c4.4,1.5,15.4,7.7,15.4,7.7l13.3-24.9c0,0-11.4-5.4-16-8
		C190.2,86.8,181.3,78.4,179.2,77.3z"/>
	<path class="st2" d="M197.6,123.7c-0.2,0-0.4-0.1-0.6-0.2c-0.1-0.1-10.9-6.2-15.1-7.6c-1.4-0.5-2.2-0.3-3.6,0
		c-2.3,0.5-5.4,1.2-13-0.5c-2.2-0.5-5-0.6-7.5-0.6c-2.2-0.1-4-0.1-5.2-0.4c-2.3-0.6-5.6-2.9-6.3-3.5l-8.7-3.8
		c-0.4-0.1-2.2-0.9-3.1-2.7c-0.6-1.2-0.5-2.7,0.1-4.2c0.8-1.9,3.2-3,7.5-3.2c1.9-0.1,3.7,0,4.7,0.1c-0.8-1.3-1.8-3.1-1.9-4.4
		c-0.1-1.5,0.7-4.7,1.2-6.6l-7.6-2.2c-1.8,0.9-8.1,4.1-11.1,5c-2.8,0.9-6.9,1.2-9.1-0.3c-1-0.6-1.6-1.6-1.7-2.7
		c-0.4-3.4,2.4-5.1,5.6-7c1.1-0.6,2.3-1.4,3.5-2.2l0.7-0.5c4.2-2.9,7.2-5,9-5.5c3.7-1,17.8,1.7,20.4,2.2c1.3-0.3,6.2-1.4,8.5-0.8
		c2,0.5,5.7,2,6.7,2.4c1.2,0,6.2,0.1,8.9,1.6c1,0.5,2.7,2,5.8,4.5c3.3,2.8,7.4,6.2,9.9,7.6c4.5,2.5,15.8,7.9,15.9,8
		c0.6,0.3,0.9,1.1,0.6,1.7c-0.3,0.6-1.1,0.9-1.7,0.6c-0.5-0.2-11.5-5.5-16.1-8c-2.8-1.6-6.8-4.9-10.3-7.9c-2.2-1.9-4.5-3.8-5.3-4.2
		c-2.1-1.1-6.5-1.3-8-1.3c-0.2,0-0.4,0-0.5-0.1c0,0-4.4-1.9-6.5-2.4c-1.4-0.3-5.4,0.4-7.5,0.9c-0.2,0-0.4,0-0.6,0
		c-6.2-1.2-17-2.9-19.5-2.3c-1.4,0.4-4.6,2.6-8.2,5.1l-0.7,0.5c-1.3,0.9-2.6,1.7-3.7,2.3c-3.1,1.9-4.6,2.8-4.4,4.5
		c0,0.2,0.1,0.6,0.6,0.9c1.4,0.9,4.7,0.7,7,0c3.2-1,11.1-5,11.2-5.1c0.3-0.1,0.6-0.2,0.9-0.1l9.3,2.7c0.3,0.1,0.6,0.3,0.8,0.6
		c0.2,0.3,0.2,0.7,0.1,1c-0.7,2.2-1.6,5.8-1.5,6.9c0.1,1,1.5,3.3,2.4,4.6c0.2,0.3,0.3,0.7,0.2,1.1c-0.1,0.4-0.4,0.7-0.7,0.8
		l-1.4,0.6c-0.2,0.1-0.4,0.1-0.7,0.1c-3.9-0.5-9.6-0.2-10.2,1.4c-0.4,0.8-0.4,1.6-0.1,2.1c0.4,0.9,1.6,1.3,1.6,1.3c0,0,0.1,0,0.1,0
		l8.9,3.8c0.1,0,0.2,0.1,0.2,0.1c1,0.7,4,2.7,5.6,3.1c0.9,0.2,2.7,0.3,4.6,0.3c2.6,0.1,5.5,0.2,7.9,0.7c7.1,1.6,9.9,0.9,11.9,0.5
		c1.5-0.3,2.9-0.6,5,0.1c4.5,1.5,15.2,7.6,15.6,7.8c0.6,0.4,0.8,1.1,0.5,1.8C198.4,123.4,198,123.7,197.6,123.7z"/>
	<path class="st2" d="M148.5,101.5c-0.4,0-0.9-0.2-1.1-0.6c-0.4-0.6-0.1-1.4,0.5-1.8c3-1.7,6-2.6,7.6-3l-0.3-4.9
		c0-0.7,0.5-1.3,1.2-1.4c0.7,0,1.3,0.5,1.4,1.2l0.4,6c0,0.6-0.4,1.2-1,1.3c0,0-4,0.8-7.9,3C149,101.4,148.8,101.5,148.5,101.5z"/>
	<path class="st2" d="M153.1,89.3c-0.2,0-0.4,0-0.6-0.1l-5.5-2.7c-0.6-0.3-0.9-1.1-0.6-1.7c0.3-0.6,1.1-0.9,1.7-0.6l5.5,2.7
		c0.6,0.3,0.9,1.1,0.6,1.7C154,89,153.6,89.3,153.1,89.3z"/>
	<rect class="st5" width="280" height="137.7"/>
</g>
</svg>
