<?xml version="1.0" encoding="utf-8"?>
<!-- Generator: Adobe Illustrator 28.0.0, SVG Export Plug-In . SVG Version: 6.00 Build 0)  -->
<svg version="1.1" id="レイヤー_1" xmlns="http://www.w3.org/2000/svg" xmlns:xlink="http://www.w3.org/1999/xlink" x="0px"
	 y="0px" viewBox="0 0 280 172.8" style="enable-background:new 0 0 280 172.8;" xml:space="preserve">
<style type="text/css">
	.st0{fill:#00BDE1;}
	.st1{fill:#FFFFFF;}
	.st2{fill:#4D4D4D;}
	.st3{fill:#80DEF0;}
	.st4{fill:none;}
	.st5{fill:#FFD273;}
	.st6{fill:#F8CA7F;}
	.st7{fill:#2E2E2E;}
	.st8{fill:#66D7ED;}
	.st9{fill:url(#);}
	.st10{fill:none;stroke:#2E2E2E;stroke-width:0;stroke-linecap:round;stroke-linejoin:round;}
	.st11{fill:#FFCF32;}
	.st12{fill:#353535;}
</style>
<g>
	<path class="st4" d="M82.3,73c0-0.2,0-0.3,0-0.5C82.3,72.7,82.3,72.9,82.3,73z"/>
	<path class="st4" d="M82.1,76.3c0-0.2,0-0.4,0-0.5C82.1,75.9,82.1,76.1,82.1,76.3z"/>
	<path class="st4" d="M79.2,79.8C79.2,79.8,79.1,79.8,79.2,79.8C79.1,79.8,79.2,79.8,79.2,79.8z"/>
	<path class="st4" d="M79.3,79.7C79.3,79.7,79.3,79.7,79.3,79.7C79.3,79.7,79.3,79.7,79.3,79.7z"/>
	<path class="st4" d="M82.2,74.7c0-0.2,0-0.4,0-0.6C82.2,74.3,82.2,74.5,82.2,74.7z"/>
	<path class="st4" d="M68,128.9C68,128.9,68,128.9,68,128.9C68,128.9,68,128.9,68,128.9z"/>
	<path class="st4" d="M82,77.8c0-0.1,0-0.3,0-0.4C82,77.5,82,77.7,82,77.8z"/>
	<path class="st4" d="M72.3,71.4c-0.1,0-0.1,0-0.2,0.1C72.2,71.4,72.3,71.4,72.3,71.4z"/>
	<path class="st4" d="M81.8,79.2c0-0.1,0-0.1,0-0.2C81.8,79.1,81.8,79.2,81.8,79.2z"/>
	<path class="st4" d="M79.6,79C79.6,79,79.6,79.1,79.6,79C79.6,79.1,79.6,79,79.6,79z"/>
	<path class="st4" d="M76.8,72.1C76.8,72.1,76.8,72.2,76.8,72.1C76.8,72.2,76.8,72.1,76.8,72.1z"/>
	<path class="st4" d="M76.7,72C76.7,72,76.7,72,76.7,72C76.7,72,76.7,72,76.7,72z"/>
	<path class="st4" d="M79.6,78.8c0,0.1,0,0.1,0,0.2C79.6,78.9,79.6,78.8,79.6,78.8z"/>
	<path class="st4" d="M72.9,71.2c-0.1,0-0.1,0-0.2,0.1C72.8,71.3,72.8,71.2,72.9,71.2z"/>
	<path class="st4" d="M75.8,71.7c0.1,0,0.1,0,0.2,0C75.9,71.7,75.9,71.7,75.8,71.7z"/>
	<path class="st4" d="M76.2,71.7C76.2,71.7,76.3,71.7,76.2,71.7C76.3,71.7,76.2,71.7,76.2,71.7z"/>
	<path class="st4" d="M76.1,71.7C76.1,71.7,76.1,71.7,76.1,71.7C76.1,71.7,76.1,71.7,76.1,71.7z"/>
	<path class="st4" d="M76.5,71.9C76.5,71.9,76.5,71.9,76.5,71.9C76.5,71.9,76.5,71.9,76.5,71.9z"/>
	<polygon class="st4" points="76.4,71.8 76.4,71.8 76.4,71.8 	"/>
	<polygon class="st4" points="105.2,54.9 105.2,54.9 105.2,54.9 	"/>
	<path class="st4" d="M105.5,54.7C105.5,54.7,105.5,54.7,105.5,54.7C105.5,54.7,105.5,54.7,105.5,54.7z"/>
	<path class="st4" d="M105.3,54.8C105.4,54.7,105.4,54.7,105.3,54.8C105.4,54.7,105.4,54.7,105.3,54.8z"/>
	<path class="st4" d="M105.8,54.6C105.8,54.5,105.8,54.5,105.8,54.6C105.8,54.5,105.8,54.5,105.8,54.6z"/>
	<path class="st4" d="M79.6,79.2C79.6,79.2,79.6,79.2,79.6,79.2C79.6,79.2,79.6,79.2,79.6,79.2z"/>
	<path class="st4" d="M105.9,54.5C105.9,54.5,106,54.5,105.9,54.5C106,54.5,105.9,54.5,105.9,54.5z"/>
	<path class="st4" d="M105.1,55.2C105.1,55.2,105.1,55.2,105.1,55.2C105.1,55.2,105.1,55.2,105.1,55.2z"/>
	<path class="st4" d="M107.3,40.5C107.3,40.5,107.3,40.5,107.3,40.5C107.3,40.5,107.3,40.5,107.3,40.5
		C107.3,40.5,107.3,40.5,107.3,40.5z"/>
	<path class="st4" d="M105.1,55.1C105.1,55.1,105.1,55.1,105.1,55.1C105.1,55.1,105.1,55.1,105.1,55.1z"/>
	<path class="st4" d="M106.7,55c0,0.1,0,0.1,0.1,0.2C106.8,55.1,106.7,55,106.7,55z"/>
	<path class="st4" d="M76,70.4c0,0,0.1,0,0.1,0C76,70.4,76,70.4,76,70.4C76,70.4,76,70.4,76,70.4z"/>
	<path class="st4" d="M73.4,71.1c-0.1,0-0.1,0-0.2,0C73.3,71.1,73.4,71.1,73.4,71.1z"/>
	<path class="st4" d="M74.4,70.8C74.4,70.8,74.4,70.8,74.4,70.8C74.4,70.8,74.4,70.8,74.4,70.8z"/>
	<path class="st4" d="M74,70.9c0,0-0.1,0-0.1,0C73.9,70.9,73.9,70.9,74,70.9z"/>
	<path class="st4" d="M106.2,54.6C106.3,54.6,106.3,54.6,106.2,54.6C106.3,54.6,106.3,54.6,106.2,54.6z"/>
	<path class="st4" d="M106,54.5c0,0,0.1,0,0.1,0C106.1,54.5,106.1,54.5,106,54.5z"/>
	<path class="st4" d="M106.6,54.8c0,0,0,0.1,0.1,0.1C106.7,54.9,106.6,54.9,106.6,54.8z"/>
	<path class="st4" d="M106.4,54.6c0,0,0.1,0,0.1,0.1C106.4,54.7,106.4,54.6,106.4,54.6z"/>
	<path class="st4" d="M106.5,54.7c0,0,0.1,0.1,0.1,0.1C106.6,54.8,106.5,54.7,106.5,54.7z"/>
	<path class="st4" d="M105,55.4C105,55.4,105,55.4,105,55.4C105,55.4,105,55.4,105,55.4z"/>
	<path class="st4" d="M200.1,47.8C200.1,47.8,200.1,47.8,200.1,47.8C200.1,47.8,200.1,47.8,200.1,47.8z"/>
	<path class="st4" d="M199.6,47.7C199.6,47.7,199.6,47.7,199.6,47.7C199.6,47.7,199.6,47.7,199.6,47.7z"/>
	<polygon class="st4" points="199.9,47.7 199.9,47.7 199.9,47.7 	"/>
	<path class="st4" d="M200,47.7C199.9,47.7,199.9,47.7,200,47.7L200,47.7C199.9,47.7,199.9,47.7,200,47.7z"/>
	<path class="st4" d="M200,47.7C200,47.8,200,47.8,200,47.7C200,47.8,200,47.8,200,47.7z"/>
	<path class="st4" d="M200,47.8C200,47.8,200,47.8,200,47.8C200,47.8,200,47.8,200,47.8z"/>
	<path class="st4" d="M200.1,47.8C200.1,47.8,200.1,47.8,200.1,47.8C200.1,47.8,200.1,47.8,200.1,47.8z"/>
	<path class="st4" d="M200,47.8C200,47.8,200,47.8,200,47.8C200,47.8,200,47.8,200,47.8z"/>
	<path class="st11" d="M192.1,131.6c0.1,0,0.2,0,0.2,0c0,0,0,0,0,0C192.2,131.6,192.2,131.6,192.1,131.6
		C192.1,131.6,192.1,131.6,192.1,131.6z"/>
	<path class="st11" d="M99,42.2C99,42.2,99,42.2,99,42.2C99,42,99,42.2,99,42.2z"/>
	<path class="st11" d="M195.8,41.8c0,0,0.1,0,0.2,0C195.9,41.8,195.8,41.8,195.8,41.8z"/>
	<path class="st11" d="M115.3,60.2C115.2,60.3,115.2,60.3,115.3,60.2L115.3,60.2z"/>
	<path class="st11" d="M114.1,115.3C114.1,115.3,114.1,115.3,114.1,115.3C114.1,115.3,113.9,115.4,114.1,115.3z"/>
	<path class="st11" d="M107.3,40.5C107.3,40.5,107.3,40.5,107.3,40.5C107.3,40.5,107.3,40.5,107.3,40.5z"/>
	<path class="st11" d="M99.1,42.2C99.1,42.3,99.2,42.2,99.1,42.2L99.1,42.2z"/>
	<path class="st11" d="M114.3,115.3C114.3,115.3,114.3,115.3,114.3,115.3C114.3,115.3,114.3,115.3,114.3,115.3z"/>
	<path class="st11" d="M114.5,62.3C114.5,62.4,114.5,62.4,114.5,62.3L114.5,62.3z"/>
	<path class="st11" d="M99,120.3C99,120.3,99,120.2,99,120.3L99,120.3z"/>
	<path class="st11" d="M203.2,97.4c0,0,0-0.1,0-0.1c0,0,0,0,0-0.1C203.2,97.2,203.2,97.3,203.2,97.4z"/>
	<path class="st11" d="M203.2,97.4C203.1,97.4,203.1,97.4,203.2,97.4C203.1,97.4,203.1,97.4,203.2,97.4
		C203.1,97.4,203.1,97.4,203.2,97.4z"/>
	<path class="st11" d="M201.4,97.3C201.4,97.3,201.4,97.3,201.4,97.3C201.4,97.3,201.4,97.3,201.4,97.3
		C201.4,97.3,201.4,97.3,201.4,97.3z"/>
	<path class="st11" d="M201.4,97.2C201.4,97.2,201.4,97.2,201.4,97.2C201.4,97.2,201.4,97.2,201.4,97.2
		C201.4,97.3,201.4,97.3,201.4,97.2z"/>
	<path class="st11" d="M191.8,52.4c-0.1,0-0.3,0-0.4-0.1l-0.5,1C191.2,53.1,191.5,52.8,191.8,52.4z"/>
	<path class="st6" d="M86.7,61.2c0.8-0.8,1.7-1.6,2.6-2.5c-0.3,0-0.6,0-1,0c0,0.1,0,0.1,0,0.2c0,0.5-0.4,0.8-0.9,0.9
		c-2.2,0.2-4.5-0.3-6.3-1.6c-1-0.7-1.8-1.6-2.5-2.5c-0.5,0.7-0.4,1.7-0.3,2.5c0.2,1.1,0.5,2.2,0.6,3.4c0,1.3-0.5,2.3-1.5,3.1
		c-0.9,0.7-1.9,1.2-3,1.4c0.8,1.3,2.5,1.5,3.6,0.5c-0.5-0.1-0.8-0.4-0.8-0.9c0-0.5,0.4-0.9,0.9-0.9c0.2,0,0.5,0,0.7,0
		c0.1,0,0.2,0,0.4,0c0,0,0,0,0,0c0.1,0,0.1,0,0.2,0c0.2,0,0.4-0.1,0.6-0.2c0.1,0,0.2-0.1,0.3-0.1c0,0,0.1,0,0.1-0.1c0,0,0,0,0,0
		c0.4-0.2,0.8-0.4,1.2-0.7c0,0,0.2-0.1,0,0c0,0,0.1-0.1,0.1-0.1c0.1-0.1,0.2-0.2,0.3-0.2c0.2-0.2,0.3-0.3,0.5-0.5
		c0.3-0.4,0.9-0.3,1.2,0c0.4,0.3,0.3,0.9,0,1.2c-1.1,1.3-2.6,2.1-4.3,2.4c0.4,0.5,1,0.7,1.5,0.9l2.5-1.1
		C84.2,64.3,85.3,62.6,86.7,61.2z"/>
	<path class="st1" d="M79.1,34.9c0.5,0.1,0.7,0.6,0.6,1.1c-0.5,2.6-1.3,5.1-1.8,7.6c-0.4,2-0.6,3.9-0.1,5.9c0.4,1.5,0.8,2.7,1.6,4
		c0.8,1.3,1.8,2.6,3,3.4c1.5,1,3.2,1.3,5,1.1c0.4,0,0.8,0.3,0.9,0.7c0.3,0,0.6,0,1,0c0.2-0.2,0.4-0.4,0.6-0.6c1-1.1,1.6-2.5,2.1-4
		c0.5-1.3,0.7-2.7,0.9-4.1c0.2-1.3,0.4-2.6,0.8-3.8c0.2-0.6,0.4-1.2,0.9-1.6c0.5-0.4,1.1-0.7,1.7-0.7c0.2-1,0.4-2,1-2.7
		c0.5-0.5,1.2-0.7,1.9-0.7c0.8,0.1,1.4,0.7,1.7,1.4c0,0.1,0.1,0.2,0.1,0.3c1-0.1,1.9,0.7,2.2,1.6c0.3,0.7,0.3,1.5,0.3,2.3
		c0.2-0.1,0.5-0.1,0.8,0c1.2,0.6,1.4,2.2,1.3,3.4c0.5-0.4,1-0.8,1.4-1.2c-0.3-0.1-0.6-0.3-0.7-0.6c-0.1-0.5,0.2-0.9,0.6-1.1
		c0.9-0.3,1.6-1,2-1.8c0.2-0.4,0.3-0.7,0.4-1.2c0,0,0-0.1,0-0.1c0,0,0,0,0,0c0-0.1,0-0.1,0-0.2c0-0.1,0-0.2,0-0.4c0,0,0,0,0,0
		c0,0,0,0,0,0c0-0.1,0-0.1,0-0.2c0-0.2-0.1-0.3-0.1-0.5c0-0.1-0.1-0.2-0.1-0.2c0,0,0,0,0-0.1c0,0,0,0,0,0c-0.1-0.1-0.1-0.3-0.2-0.4
		c-0.1-0.1-0.2-0.3-0.3-0.4c0,0-0.1-0.1-0.1-0.1c-0.1-0.1-0.1-0.1-0.2-0.2c-0.1-0.1-0.1-0.1-0.2-0.2c0,0,0,0-0.1,0
		c-0.1,0-0.1-0.1-0.2-0.1c0,0-0.1,0-0.1-0.1c0,0-0.1-0.1-0.2-0.1c-0.1,0-0.2,0-0.2-0.1c0,0-0.1,0-0.1,0c-0.1,0-0.2,0-0.2,0
		c0,0-0.1,0-0.1,0c0,0-0.1,0-0.1,0c-0.1,0-0.2,0-0.3,0.1c-0.2,0.1-0.3,0.1-0.5,0.2c-0.4,0.2-0.9,0.1-1.2-0.3
		c-0.2-0.4-0.1-0.9,0.3-1.2c-0.3-0.4-0.5-0.9-0.7-1.4c-0.3,0.1-0.6,0.1-0.9-0.2c-1.7-1.7-2.9-3.9-3.6-6.2c-0.5-1.8-0.8-3.6-0.9-5.4
		c-1.2,1.3-2.6,2.4-4.2,3.3c-2.1,1.1-4.4,1.5-6.7,1.3c-0.5,0-0.9-0.4-0.9-0.9c0-0.1,0-0.2,0.1-0.4c-0.3-0.1-0.6-0.2-0.8-0.3
		c-1.1,0.4-2.2,0.5-3.3,0.5c-0.5,0-0.7-0.3-0.8-0.6c-0.2,0-0.5,0-0.7,0c-0.1,0.4-0.2,0.7-0.2,1.1c-0.1,0.5-0.7,0.7-1.1,0.6
		c-0.2,0-0.3-0.1-0.4-0.2c-0.5,1.5-1.1,2.9-1.5,4.4C78.7,34.8,78.9,34.8,79.1,34.9z M92.1,31.1c0.3-0.4,0.9-0.3,1.2,0
		c1.3,1.1,2.4,2.3,3.5,3.6c0.2,0.2,0.2,0.4,0.3,0.6c0,0.2-0.1,0.5-0.3,0.6c-0.1,0.2-0.4,0.3-0.6,0.3c-0.2,0-0.5-0.1-0.6-0.3
		c-1-1.3-2.2-2.5-3.5-3.6C91.7,32,91.8,31.4,92.1,31.1z M92.4,36c1.1,0,1.1,1.8,0,1.8C91.3,37.8,91.3,36,92.4,36z M84.3,36.6
		c0,0,0.1-0.1,0.1-0.1c0.1-0.1,0.2-0.2,0.3-0.2c0.2-0.2,0.3-0.4,0.5-0.5c0,0,0,0,0,0c0,0,0,0,0,0c0-0.1,0.1-0.1,0.1-0.2
		c0.1-0.1,0.1-0.2,0.2-0.3c0.1-0.2,0.2-0.4,0.3-0.7c0,0,0,0,0,0c0,0,0,0,0,0c0-0.1,0-0.1,0.1-0.2c0-0.1,0.1-0.2,0.1-0.3
		c0.1-0.2,0.1-0.5,0.2-0.7c0,0,0,0,0,0c0,0,0,0,0,0c0-0.1,0-0.1,0-0.2c0-0.1,0-0.2,0-0.4c0-0.5,0.4-0.9,0.9-0.9
		c0.5,0,0.9,0.4,0.9,0.9c0,2.4-1.4,4.7-3.5,5.8c-0.4,0.2-0.9,0.1-1.2-0.3c-0.2-0.4-0.1-1,0.3-1.2C83.8,36.9,84,36.8,84.3,36.6
		C84.3,36.6,84.5,36.5,84.3,36.6z M83.3,33.1c1.1,0,1.1,1.8,0,1.8C82.2,34.8,82.2,33.1,83.3,33.1z M82,41.7c0-0.1,0.1-0.1,0.1-0.2
		c0.1-0.1,0.1-0.2,0.2-0.2c0.1-0.1,0.2-0.1,0.3-0.2c0.1,0,0.2,0,0.3,0c0.1,0,0.2,0,0.3,0.1c0.3,0.1,0.5,0.3,0.8,0.4
		c0.1,0.1,0.2,0.2,0.3,0.3c0,0.1,0.1,0.1,0.1,0.2c0,0.2,0,0.3,0,0.5c0,0.1-0.1,0.1-0.1,0.2c-0.1,0.1-0.1,0.2-0.2,0.2
		c-0.1,0.1-0.2,0.1-0.3,0.2c-0.1,0-0.2,0-0.3,0c-0.1,0-0.2,0-0.3-0.1c-0.3-0.1-0.5-0.3-0.8-0.4c-0.1-0.1-0.2-0.2-0.3-0.3
		c0-0.1-0.1-0.1-0.1-0.2C81.9,42,81.9,41.8,82,41.7z M80.5,47.1c0.2-0.2,0.4-0.2,0.6-0.3c1.6-0.2,3.1,0.8,3.9,2.1
		c0.3,0.4,0.1,0.9-0.3,1.2c-0.4,0.3-1,0.1-1.2-0.3c0-0.1-0.1-0.1-0.1-0.2c0,0,0,0,0,0c-0.1-0.1-0.1-0.2-0.2-0.2
		c-0.1-0.1-0.2-0.2-0.3-0.2c0,0,0,0,0,0c0,0-0.1-0.1-0.1-0.1c-0.1-0.1-0.2-0.1-0.3-0.2c-0.1,0-0.1-0.1-0.2-0.1c0,0,0,0,0,0
		c0,0,0,0,0,0c-0.2-0.1-0.4-0.1-0.6-0.2c-0.2,0-0.4,0-0.6,0c-0.5,0-0.9-0.4-0.9-0.9C80.3,47.5,80.4,47.3,80.5,47.1z"/>
	<path class="st6" d="M91,17.9c0.1,0.5-0.2,0.9-0.6,1.1c-4.4,1.6-7.7,5.6-8.7,10.1c0.2,0,0.5,0,0.7,0c-0.1-0.5,0.1-1.1,0.8-1.1
		c2.9,0,5.7-1.4,7.3-3.8c0.3-0.4,0.8-0.6,1.2-0.3c0.4,0.2,0.6,0.8,0.3,1.2c-1.3,2-3.3,3.4-5.5,4.1c0.3,0.1,0.6,0.2,0.8,0.3
		c0.1-0.3,0.4-0.6,0.8-0.5c2.1,0.2,4.1-0.1,5.9-1.1c1.9-1,3.5-2.5,4.8-4.2c0.2-0.2,0.4-0.3,0.6-0.3c0.5-0.1,1.1,0.2,1.1,0.8
		c0.1,2.3,0.3,4.5,1,6.7c0.6,2.1,1.6,4,3.2,5.6c0.5,0.5,0.2,1.2-0.4,1.4c0.2,0.5,0.4,1,0.7,1.4c0,0,0,0,0.1,0
		c1.1-0.5,2.3-0.7,3.4-0.1c1.5,0.7,2.3,2.6,2.4,4.2c0.1,2.3-1.7,4.4-3.8,5.1c-0.1,0-0.3,0-0.4,0c-0.4,0.5-0.9,0.8-1.4,1.2
		c0,0.3,0,0.5,0,0.7c0,0.7-0.1,1.4-0.2,2c-0.1,0.6-0.1,1.2-0.1,1.8c0,0.2,0,0.3,0,0.5c0,0.1,0.1,0.1,0.1,0.2c0,0,0,0,0,0
		c0-0.1,0.1-0.1,0.1-0.2c0,0,0,0,0,0c0,0,0,0,0.1-0.1c0,0,0,0,0,0c0.1,0,0.2-0.1,0.3-0.1c0,0,0,0,0.1,0c0,0,0,0,0.1,0
		c0,0,0.1,0,0.1,0c0,0,0,0,0.1,0c0,0,0.1,0,0.1,0c0,0,0,0,0,0c0,0,0.1,0,0.1,0c0,0,0,0,0,0c0,0,0.1,0,0.1,0.1c0,0,0,0,0,0
		c0,0,0.1,0.1,0.1,0.1c0,0,0,0,0,0c0,0,0,0.1,0.1,0.1c0,0,0,0,0,0c0,0.1,0,0.1,0.1,0.2c0.7,2.7,1.4,5.6,0.5,8.3
		c-0.6,1.9-2.2,3.6-4.1,4.1c0.8,0.1,1.6,0.1,2.3-0.2c0,0,0,0,0-0.1c-0.1-0.4,0.2-1,0.6-1.1c0.3,0,0.5-0.1,0.8-0.2c0,0,0,0,0.1,0
		c0,0,0.1-0.1,0.1-0.1c0.1-0.1,0.2-0.1,0.4-0.2c0.1-0.1,0.2-0.1,0.3-0.2c0,0,0.1-0.1,0.1-0.1c0,0,0,0,0.1,0c0.2-0.2,0.4-0.4,0.6-0.6
		c0.1-0.1,0.1-0.1,0.2-0.2c0,0,0,0,0,0c0,0,0,0,0,0c0.1-0.1,0.2-0.2,0.2-0.3c0.1-0.1,0.1-0.2,0.2-0.3c0-0.1,0.1-0.1,0.1-0.2
		c0,0,0,0,0-0.1c0.1-0.2,0.2-0.5,0.2-0.7c0-0.1,0-0.1,0-0.2c0,0,0,0,0,0c0,0,0,0,0,0c0-0.1,0-0.3,0-0.4c0-0.5,0.4-0.9,0.9-0.9
		c0.5,0,0.9,0.4,0.9,0.9c-0.1,2.3-1.6,4.5-3.7,5.3c0.4,1,1.4,1.4,2.6,1.6c-0.4-0.7,0.4-1.7,1.2-1.2c0.6,0.4,1.2,0.8,1.9,1.2
		c1.2-0.2,2.4-0.7,3.4-1.5c-0.7,0-1.4-0.2-2-0.6c-1.3-1-1.8-2.6-1.8-4.2c0-1.5,0.5-3.1,1.6-4.2c0.8-0.8,2,0.4,1.2,1.2
		c-0.1,0.1-0.1,0.1-0.2,0.2c0,0,0,0,0,0c-0.1,0.1-0.2,0.3-0.2,0.4c0,0.1-0.1,0.1-0.1,0.2c0,0-0.1,0.1-0.1,0.2c0,0-0.1,0.1-0.1,0.2
		c0,0.1-0.1,0.1-0.1,0.2c-0.1,0.3-0.2,0.6-0.2,0.9c0,0,0,0,0,0c0,0,0,0.1,0,0.1c0,0.1,0,0.1,0,0.2c0,0.2,0,0.3,0,0.5
		c0,0.2,0,0.3,0,0.5c0,0,0,0.1,0,0.1c0,0,0,0.1,0,0.1c0,0.2,0.1,0.4,0.2,0.6c0.3-0.1,0.6-0.3,0.8-0.5c-0.4-0.3-0.6-1.1,0-1.5
		c1.7-1,3.1-2.6,3.9-4.4c0.1-0.3,0.3-0.7,0.3-1c0-0.2,0.1-0.3,0.1-0.5c0-0.1,0-0.3,0.1-0.3c0.1-0.7,0-1.5-0.1-2.2
		c-0.3-2.1-0.8-4.2-1.3-6.2c-0.5-2-1-4.1-1.3-6.1c-0.3-1.8-0.5-3.7-0.3-5.5c0.1-0.5,0.4-0.9,0.9-0.9c0,0,0,0,0.1,0
		c0-0.8-0.1-1.6-0.1-2.4c0,0,0,0-0.1,0c-0.5,0-0.8-0.4-0.9-0.9c-0.2-2.2-0.9-4.5-2.1-6.4c-2.1-3.5-5.5-6.4-9.3-7.9
		c-3.8-1.5-8-1.7-11.6,0.2c-0.9,0.5-1.7-0.6-1.2-1.3c-0.9,0.1-1.8,0.2-2.6,0.5C90.4,17.1,90.9,17.5,91,17.9z"/>
	<path class="st1" d="M201.6,132.9c-0.2,0.1-0.4,0-0.6,0c-0.3,0.2-0.6,0.2-0.9,0c-0.4-0.2-0.5-0.8-0.3-1.2c0.7-1.3,0.9-2.7,0.8-4.2
		c0,0,0-0.1,0-0.1c0,0,0-0.1,0-0.1c0-0.1,0-0.1,0-0.2c-1.1,1.3-2.5,2.3-4.1,2.9c-3,1.2-6.4,0.8-9.2-0.9c-2.4-1.5-4.6-3.4-6.8-5.3
		c-2.6-2.3-5.2-4.8-7.6-7.4c-2-2-3.9-4.1-5.8-6.2c-1.9-2-3.7-4.1-5.6-6.2c-1.3-1.4-2.6-2.9-4-4.2c-0.8-0.8,0.4-2,1.2-1.2
		c0.3,0.3,0.5,0.5,0.8,0.8c3.5,3.5,6.7,7.2,10,10.9c1.8,2,3.6,3.9,5.5,5.8c2.5,2.5,5,4.9,7.6,7.2c1,0.9,2.1,1.8,3.1,2.6
		c1.2,0.9,2.4,1.8,3.7,2.4c2.5,1.1,5.4,0.9,7.7-0.6c2.4-1.4,4-3.9,4.6-6.6c0.3-1.6,0.2-3.2,0.2-4.8c0-1.8-0.1-3.6-0.1-5.4
		c-0.1-3.1-0.1-6.3-0.2-9.4c0-1-0.1-2-0.1-3c0-0.3,0-0.6,0-0.9c0-0.1,0-0.1,0-0.2c-0.1-0.2,0-0.2,0-0.1c0,0,0,0,0,0
		c0-0.1,0-0.2,0-0.2c0.1-0.3,0.4-0.6,0.8-0.6c0.3-0.1,0.7,0,0.8,0.4c0.1,0.2,0.1,0.3,0.1,0.5c0,0,0,0,0,0c0-0.1,0,0,0,0.1
		c0,0,0,0.1,0,0.1c0.2,5.4,0.3,10.8,0.4,16.2c0.1,3.4,0.4,7-0.9,10.2c-0.2,0.5-0.5,1-0.8,1.5c0.7,1.8,0.7,3.8,0.1,5.7
		c4-1.1,8-2.2,11.9-3.4c0.3-0.1,0.6-0.2,0.8-0.3c2.4-0.7,4.9-1.5,7.3-2.4c3-1.1,6.3-2,8.9-3.9c1.3-1,2.3-2.2,3-3.7
		c0.6-1.4,0.7-2.8,0.6-4.3c-0.3-3.1-1.7-6.1-3.2-8.8c-3.6-7-7.4-13.9-11-20.9c-0.9-1.8-1.8-3.6-2.7-5.3c-0.9-1.8-1.7-3.7-2.7-5.4
		c-1.5-2.7-3.7-4.6-6.1-6.5c0,0.1-0.1,0.2-0.1,0.3c-0.3,0.8-0.6,1.5-1,2.3c-1.5,2.8-3.7,5.3-6,7.6c-0.5,0.5-1,0.9-1.4,1.4
		c-0.3,0.4-0.3,0.7-0.3,1.2c0,0.6,0.1,1,0.2,1.6c0.1,0.7,0.1,1.3,0.1,2c0.5,0.1,1,0.1,1.4,0.2c0.5,0.1,0.9,0.4,0.9,0.9
		c0,0.5,0,0.9,0,1.4c0.1,3.3,0.2,6.6,0.3,9.9c0,0.6-0.4,0.8-0.8,0.8c-0.4,0-0.9-0.3-0.9-0.8c0-0.5,0-0.9,0-1.4
		c-0.1-3.1-0.2-6.1-0.3-9.2c-0.4,0-0.8-0.1-1.1-0.1c-2.9-0.3-5.8-0.7-8.7-1c-1.5-0.2-3.1-0.4-4.6-0.5c0,0.7-0.1,1.4-0.1,2.1
		c-0.2,4.5-0.4,9-0.6,13.5c-0.1,2.8-0.2,5.7-0.4,8.5c0,1.1-1.8,1.1-1.8,0c0-1,0.1-2,0.1-3.1c0.2-4.5,0.4-9,0.6-13.5
		c0.1-2.8,0.2-5.7,0.4-8.5c0-0.4,0.4-0.9,0.9-0.9c0.3,0,0.6,0.1,1,0.1c0.5-3.9,0.9-7.8,0.2-11.7c-0.3-1.8-0.7-3.5-0.8-5.4
		c0-0.6,0-1.2,0.1-1.8c0.1-1.2,0.5-2.3,1-3.3c0.1-0.1,0.1-0.2,0.2-0.3c0.1-1.2,0.1-2.5-0.1-3.7c-4.7-0.3-9.1-2.1-12.7-5.1
		c-0.4-0.3-0.3-0.9,0-1.2c0.4-0.4,0.9-0.3,1.2,0c3.1,2.6,7,4.2,11.1,4.5c-0.2-0.9-0.6-1.7-0.9-2.6c-0.4-1.3-0.4-2.9,0.9-3.7
		c1.4-0.8,2.8,0.4,3.7,1.4c0.9,1,1.6,2.2,2,3.5c0,0.1,0,0.1,0,0.2c0.3-0.3,0.6-0.6,0.9-1c1.1-1.2,2-2.7,3.5-3.6c0.9-0.6,2-1.1,3.1-1
		c0-0.1,0-0.2,0-0.3c-0.5-0.1-0.9-0.5-0.8-1.1c0.7-2.7,0.8-5.6,0.3-8.3c-0.3-1.6-0.8-3.2-1.2-4.8c-0.2-0.6,0.3-1,0.8-1.1
		c-0.2-0.6-0.4-1.2-0.5-1.8c-0.2,0.4-0.4,0.8-0.7,1.1c-1.1,1.1-2.8,1.5-4.3,1.2c-1.7-0.4-2.9-2-3.6-3.6c-0.6,0.2-1.1,0.4-1.7,0.6
		c0.1,0.6,0.1,1.1,0,1.7c-0.1,1.3-0.6,2.7-1.7,3.6c-1.3,1.2-3.3,1.7-5.1,1.4c-1.7-0.3-3.1-1.7-3.9-3.3c-1,0.3-2,0.7-3,1
		c-1.1,0.3-1.5-1.3-0.5-1.7c1.3-0.4,2.5-0.8,3.8-1.2c0.5-0.1,0.9,0.2,1.1,0.6c0,0.1,0,0.1,0.1,0.2c0,0.1,0,0.1,0.1,0.2c0,0,0,0,0,0
		c0,0,0,0,0,0c0.2,0.4,0.4,0.8,0.7,1.2c0,0,0,0,0,0c0,0,0,0,0.1,0.1c0,0,0.1,0.1,0.1,0.1c0.1,0.1,0.2,0.2,0.3,0.3
		c0.1,0.1,0.2,0.2,0.3,0.3c0,0,0,0,0,0c0,0,0,0,0,0c0,0,0.1,0.1,0.1,0.1c0.5,0.3,0.9,0.5,1.5,0.5c1.3,0.1,2.7-0.4,3.5-1.4
		c0,0,0.1-0.1,0.1-0.1c0-0.1,0.1-0.1,0.1-0.2c0.1-0.1,0.1-0.2,0.2-0.4c0,0,0-0.1,0-0.1c0,0,0-0.1,0.1-0.1c0-0.1,0.1-0.2,0.1-0.4
		c0-0.1,0.1-0.3,0.1-0.4c0,0,0-0.1,0-0.1c0,0,0,0,0,0c0,0,0,0,0,0c0-0.2,0-0.4,0-0.7c0-0.2,0-0.4,0-0.6c0-0.1,0-0.2,0-0.2
		c0,0,0,0,0,0c0,0,0,0,0,0c0-0.1,0-0.3-0.1-0.4c-0.1-0.5,0.2-0.9,0.6-1c0.1-0.1,0.2-0.3,0.4-0.3c0.9-0.3,1.8-0.6,2.7-0.9
		c0.5-0.2,0.9,0.2,1.1,0.6c0,0,0-0.1,0,0.1c0.1,0.1,0.1,0.3,0.2,0.4c0.2,0.4,0.5,0.9,0.7,1.3c0.5,0.8,1.1,1.4,2.1,1.5
		c0.5,0.1,1.1,0,1.6-0.3c0.4-0.2,0.7-0.5,0.9-0.9c0.1-0.2,0.3-0.8,0.3-1c0-0.4,0-0.8,0-1.3c0,0,0-0.1,0-0.1c0,0,0,0,0,0
		c0-0.1,0-0.2,0-0.2c0-0.1,0-0.3-0.1-0.4c0-0.1-0.1-0.3-0.1-0.4c-0.2-0.6,0.2-1,0.7-1.1c-0.3-1-0.7-2.1-1.1-3.2
		c-0.1,0.3-0.3,0.5-0.6,0.6c-0.4,0.1-1-0.1-1.1-0.6c-0.4-1.9-1.3-3.7-2.5-5.2c-1-1.3-2.2-2.4-3.6-3.2c0.2,0.7,0.2,1.4,0.1,2.2
		c-0.2,1.3-0.6,2.6-1.3,3.7c-1.1,1.9-2.9,3.3-4.9,4c-1.6,1.9-4.2,3-6.7,2.9c-0.6,0.7-1.3,1.4-2.1,2c-0.9,0.7-1.9,1.4-3,1.6
		c0.1,0.6,0.3,1.1,0.6,1.7c0.4,0.9,0.9,1.7,1.3,2.6c0.1,0.2,0.1,0.5,0.1,0.7c0,0,0,0.1,0,0.1c0,0.5-0.4,0.9-0.9,0.9
		c-0.2,0-0.3,0-0.5,0c-1.2-0.1-2.3-0.1-3.5-0.2c0,0-0.1,0-0.1,0c-0.1,0-0.3,0-0.4,0c-0.2-0.1-0.3-0.1-0.5-0.2c0,0-0.2-0.1-0.2-0.1
		c-0.1,0-0.2,0-0.4,0c0,0-0.1,0-0.1,0c0,0,0,0,0,0c-0.4,0.1-0.7,0.2-0.9,0.5c-0.5,0.5-0.8,1.1-1,1.8c0,0.1,0,0.2-0.1,0.3
		c0,0,0,0,0,0c0,0,0,0.1,0,0.1c0,0.2,0,0.3,0,0.5c0,0,0,0,0,0c0,0,0,0,0,0.1c0,0.1,0,0.1,0.1,0.2c0.1,0.2,0.2,0.4,0.3,0.6
		c1.1,2,3.1,3.6,5.4,4c0.5,0.1,0.7,0.7,0.6,1.1c-0.1,0.5-0.6,0.7-1.1,0.6c-0.9-0.2-1.8-0.5-2.6-1l0.4,2.1c0.2-0.2,0.4-0.3,0.7-0.3
		c0.5,0,0.9,0.4,0.9,0.9c0,0.2,0,0.5,0,0.7c0,1.7,0.1,3.3,0.1,5c0,0.1,0,0.2-0.1,0.3c0.2,0.1,0.4,0.3,0.6,0.4
		c2.4,1.6,4.8,3.2,7.3,4.7c1.4,0.9,2.9,1.7,4.4,2.5c0.7,0.4,1.4,0.7,2.1,1.1c0.7,0.3,1.2,0.6,1.8,0.8c0.4,0.2,0.7,0.5,0.6,0.9
		c0,0.1,0,0.1,0,0.2c-0.1,0.4-0.6,0.8-1.1,0.6c-1.6-0.6-3.2-1.4-4.7-2.3c-4.4-2.4-8.6-5.1-12.7-7.9c-0.4-0.3-0.6-0.8-0.3-1.2
		c0.1-0.1,0.1-0.2,0.2-0.2c-0.2-0.2-0.4-0.3-0.5-0.3c-0.2,0.8-0.3,1.6-0.5,2.3c0.5,0,1.1,0.4,0.9,1.1c-0.6,2.3-1.3,4.6-1.9,6.9
		c-0.3,1.1-2,0.6-1.7-0.5c0,0,0,0,0,0c-0.1,0.1-0.3,0.2-0.4,0.4c0.1,0,0.2,0.1,0.3,0.2c0.4,0.4,0.3,0.9,0,1.2
		c-0.5,0.6-1,1.2-1.5,1.7c-1.7,2-3.8,3.6-5.9,5.1c-2.1,1.6-3.8,3.8-4.7,6.3c-1,2.5-1.3,5.2-1.3,7.9c0,1.4,0.1,2.7,0.3,4.1
		c0.2,1.5,0.6,3,0.8,4.5c1.2,7.4,2,14.7,2.7,22.2c0.7,7.2,1.5,14.5,2.5,21.7c0.1,1,0.4,2,0.5,3c0,0.1,0,0.1,0,0.1c0,0,0,0,0,0
		c0,0.1,0,0.2,0.1,0.3c0.1,0.2,0.1,0.4,0.2,0.5c0,0,0.1,0.2,0.1,0.3c0,0.1,0.1,0.2,0.2,0.3c0.1,0.2,0.2,0.4,0.4,0.6
		c0.3,0.5,0.6,1,0.9,1.4c0.9,1.3,1.7,2.3,2.7,3.5c0.3,0.4,0.4,0.9,0,1.2c-0.1,0.1-0.2,0.1-0.3,0.2c-0.1,0.8-0.3,1.6-0.5,2.4
		c0.5-0.5,1.7,0,1.4,0.9c-0.7,2.8-1.4,5.7-2.1,8.5c0,0.1,0.1,0.2,0.1,0.3c0,0,0,0.1,0.1,0.1c0,0,0,0,0,0c0,0,0.1,0.1,0.1,0.1
		c0,0,0,0,0.1,0.1c0,0,0.1,0,0.1,0.1c0,0,0,0,0,0c0,0,0,0,0,0c0.1,0,0.2,0,0.2,0.1c0,0,0,0,0,0c0,0,0,0,0.1,0c0.1,0,0.2,0,0.3,0
		c0,0,0,0,0.1,0c-0.1,0-0.1,0,0,0c0.1,0,0.2,0,0.3-0.1c0.1,0,0.2-0.1,0.2-0.1c0,0,0,0,0,0c0,0,0.1,0,0.1-0.1c0.1,0,0.2-0.1,0.2-0.1
		c0,0,0.1-0.1,0.1-0.1c0,0,0,0,0,0c0.1-0.1,0.2-0.1,0.2-0.2c0.1-0.1,0.1-0.1,0.2-0.2c0.2-0.4,0.4-0.8,0.5-1.1
		c1.3-2.8,2.6-5.6,3.9-8.4c0.4-0.8,1.6-0.4,1.6,0.4c0.1,2.9,0.3,5.7,0.4,8.6c0,0,0,0,0,0c0.1,0.1,0.2,0.2,0.3,0.3
		c2.1,2.8,5.4,4.6,8.8,5.7c3.2,1,6.5,1.5,9.9,1.7c3,0.2,6.1,0.3,9.1,0.2c3.3-0.1,6.6-0.9,9.6-2.4c3.6-1.9,6.7-4.8,9.4-7.8
		c0.1-0.1,0.2-0.2,0.3-0.2c-0.1-0.2-0.1-0.4-0.2-0.7c-0.5,0.1-1.1-0.2-1.1-0.8c0-1-0.1-1.9-0.1-2.9c-0.2-4.2-0.3-8.3-0.5-12.5
		c-0.1-2.6-0.2-5.3-0.3-7.9c0-0.6,0.5-0.9,1-0.8c-0.1-0.4-0.1-0.7-0.2-1.1c-0.8,0.2-1.5,0.5-2.3,0.7
		C209,130.9,205.3,131.9,201.6,132.9z M214.8,106.2c1.1-2.4,2.2-4.8,3.4-7.2c0.2-0.4,0.8-0.5,1.2-0.3c0.4,0.3,0.5,0.8,0.3,1.2
		c-1.1,2.4-2.2,4.8-3.4,7.2c-0.2,0.4-0.8,0.5-1.2,0.3C214.7,107.2,214.6,106.6,214.8,106.2z M209.8,109.7c0.4-2.1,0.7-4.2,0.9-6.4
		c0.9-7.6,1.2-15.2,1.1-22.8c0-1.1,1.7-1.1,1.8,0c0,2.2,0,4.4,0,6.6c-0.1,7.7-0.8,15.4-2.1,23.1c-0.1,0.5-0.7,0.7-1.1,0.6
		C209.9,110.6,209.7,110.2,209.8,109.7z M205.7,113c0.7-0.3,1.3-0.6,2-0.8c2.9-1.2,5.8-2.4,8.7-3.6c1.8-0.8,3.7-1.5,5.5-2.3
		c0.4-0.2,1,0.2,1.1,0.6c0.1,0.5-0.2,0.9-0.6,1.1c-0.7,0.3-1.3,0.6-2,0.8c-2.9,1.2-5.8,2.4-8.7,3.6c-1.2,0.5-2.4,1-3.6,1.5
		c2.9,3.5,3.1,8.5,1.6,12.7c-0.2,0.4-0.6,0.7-1.1,0.6c-0.4-0.1-0.8-0.6-0.6-1.1c1.4-3.8,1.3-8.4-1.6-11.5c-0.1,0-0.1,0-0.2,0.1
		c-0.4,0.2-1-0.2-1.1-0.6C204.9,113.6,205.3,113.2,205.7,113z M190.7,94.2c0.4,0,0.8,0.1,1.2,0.1c2.8,0.2,5.5,0.5,8.3,0.7
		c0.5,0,0.9,0.4,0.9,0.9c0,0.4-0.4,0.9-0.9,0.9c-0.4,0-0.8-0.1-1.2-0.1c-2.8-0.2-5.5-0.5-8.3-0.7c-0.5,0-0.9-0.4-0.9-0.9
		C189.8,94.6,190.2,94.1,190.7,94.2z M191.4,35c0-0.1,0-0.2,0.1-0.3c0.1-0.1,0.1-0.2,0.2-0.2c0.1-0.1,0.2-0.1,0.3-0.2
		c0.4-0.2,0.8-0.3,1.2-0.4c0.2,0,0.3,0,0.5,0c0.1,0,0.1,0.1,0.2,0.1c0.2,0.1,0.3,0.3,0.4,0.5c0,0.1,0,0.2,0,0.3c0,0.1,0,0.2-0.1,0.3
		c-0.1,0.1-0.1,0.2-0.2,0.2c-0.1,0.1-0.2,0.1-0.3,0.2c-0.4,0.2-0.8,0.3-1.2,0.4c-0.2,0-0.3,0-0.5,0c-0.1,0-0.1-0.1-0.2-0.1
		c-0.2-0.1-0.3-0.3-0.4-0.5C191.3,35.2,191.3,35.1,191.4,35z M190.5,42c0.6-0.5,1.2-1,1.9-1.3c1-0.5,2.1-0.8,3.2-0.7
		c0.4,0,0.8,0,1.1,0.2c0.6,0.4,0.6,1.3,0,1.7c-0.4,0.2-0.8,0.1-1.1-0.2c-0.1,0-0.2,0-0.4,0c-0.1,0-0.2,0-0.3,0c0,0-0.1,0-0.1,0
		c-0.1,0-0.1,0,0,0c0,0,0,0,0.1,0c-0.1,0-0.1,0-0.2,0c-0.3,0-0.5,0.1-0.8,0.2c-0.1,0-0.3,0.1-0.4,0.1c-0.1,0-0.1,0-0.2,0.1
		c0,0-0.1,0-0.1,0c-0.3,0.1-0.6,0.3-0.8,0.5c-0.1,0.1-0.2,0.1-0.2,0.2c0,0,0,0,0,0c0,0,0,0,0,0c-0.1,0.1-0.3,0.2-0.4,0.4
		c-0.4,0.3-0.9,0.3-1.2,0C190.1,43,190.1,42.4,190.5,42z M193.7,25.2c-1.1,0-1.1-1.8,0-1.8C194.8,23.4,194.8,25.2,193.7,25.2z
		 M189.8,18.5c1.4-0.1,2.8,0.3,4,1c0.4,0.3,0.5,0.8,0.3,1.2c-0.2,0.4-0.8,0.6-1.2,0.3c-0.3-0.2-0.5-0.3-0.8-0.4c0,0-0.1,0-0.1,0
		c-0.1,0-0.1,0-0.2-0.1c-0.1,0-0.3-0.1-0.4-0.1c-0.1,0-0.3-0.1-0.5-0.1c0,0-0.1,0-0.1,0c0,0,0.1,0,0.1,0c-0.1,0-0.2,0-0.2,0
		c-0.3,0-0.6,0-0.9,0c-0.5,0-0.9-0.4-0.9-0.9C188.9,18.9,189.4,18.5,189.8,18.5z M183.3,26.4c1.1,0,1.1,1.8,0,1.8
		C182.2,28.1,182.2,26.4,183.3,26.4z M167.4,60.2c1.3,1.4,2.8,2.6,4.3,3.8c3.9,3.2,8,6.1,12.1,8.8c0.3-1.4,0.6-2.8,1-4.2
		c0.3-1.1,1.9-0.6,1.7,0.5c-0.4,1.8-0.8,3.6-1.2,5.4c-0.1,0.5-0.8,0.8-1.3,0.5c-0.5-0.3-1.1-0.7-1.6-1.1c-2.6-1.8-5.2-3.6-7.8-5.5
		c-2.9-2.2-5.8-4.4-8.4-7C165.4,60.7,166.6,59.4,167.4,60.2z M156.9,72.7c-0.1-0.4,0.1-1,0.6-1.1c2.7-0.6,5.7-0.5,8.3,0.5
		c2.1,0.7,3.8,2,5.2,3.7c1.3,1.6,2.5,3.3,3.7,5c2.8,4,5.5,8.1,8.5,11.9c0.3,0.4,0.4,0.9,0,1.2c-0.3,0.3-0.9,0.4-1.2,0
		c-1.7-2.1-3.2-4.2-4.7-6.4c-1.4-2-2.8-4.1-4.2-6.1c-1.1-1.6-2.2-3.2-3.4-4.6c-1.3-1.6-3-2.7-4.9-3.3c-2.2-0.7-4.6-0.7-6.8-0.3
		C157.5,73.4,157,73.2,156.9,72.7z M180.6,133.7c-0.9,0.8-1.9,1.5-2.9,2.2c-0.9,0.6-2.1,1.5-3.2,1.4c-1-0.1-1.9-0.6-2.6-1.2
		c-0.1,0.4-0.3,0.7-0.5,1.1c-0.6,0.7-1.6,1.1-2.5,0.6c-0.7-0.3-1.1-1-1.4-1.7c-0.4-0.9-0.8-1.8-1.1-2.7c-0.3-0.9-0.7-1.8-1-2.7
		c-0.3-0.9-0.6-1.8-0.8-2.7c-0.2-1,0.1-1.9,0.8-2.6c0.7-0.6,1.4-1.2,2.1-1.8c0.4-0.3,0.7-0.6,1.1-0.9c0,0-0.1,0-0.1,0
		c-0.4,0-0.9,0-1.3,0.1c-0.9,1-1.7,1.9-2.5,2.9c-0.4,0.5-0.8,1-1.3,1.5c-0.5,0.5-1,1.1-1.6,1.5c-0.9,0.4-2,0.4-2.8-0.1
		c-0.8-0.5-1.1-1.4-1-2.4c0.1-0.5,0.3-0.9,0.6-1.3c0.4-0.5,0.7-0.9,1.1-1.4c0.7-0.9,1.3-1.9,2-2.9c1.1-1.4,2.3-3,4-3.5
		c0.8-0.3,1.7-0.4,2.5-0.4c1.1-0.1,2.2-0.2,3.3-0.3c0.3,0,0.7,0,0.9,0.2c0.1,0.1,0.2,0.2,0.2,0.4c0.1,0.4-0.1,1-0.6,1.1
		c-1.2,0.2-2.3,0.3-3.5,0.3c-0.8,0.1-1.5,0.1-2.3,0.4c-0.3,0.1-0.4,0.2-0.8,0.4c-0.3,0.2-0.5,0.4-0.7,0.6c-0.6,0.6-1.1,1.2-1.6,1.9
		c-0.6,0.8-1.2,1.7-1.7,2.5c-0.3,0.5-0.7,0.9-1,1.4c-0.1,0.2-0.3,0.4-0.5,0.6c-0.1,0.1-0.1,0.2-0.2,0.3c0,0,0,0.1,0,0.2
		c0,0.1,0,0.1,0,0.2c0,0,0,0,0,0c0,0,0,0,0,0.1c0,0,0,0,0,0.1c0,0,0,0,0,0c0,0,0,0.1,0.1,0.1c0,0,0.1,0.1,0.1,0.1
		c0,0,0.2,0.1,0.2,0.1c0.2,0.1,0.6,0.1,0.9,0c0.4-0.1,0.7-0.6,1-0.9c1.4-1.5,2.7-3.2,4.1-4.7c0.1-0.1,0.3-0.2,0.4-0.3
		c0.1,0,0.1-0.1,0.2-0.1c0.2-0.1,0.5-0.1,0.7-0.1c0.3,0,0.6,0,0.9,0c0.5,0,1,0,1.5-0.1c0.3,0,0.5,0.1,0.7,0.2
		c0.5-0.4,1.1-0.9,1.6-1.3c0.4-0.3,0.9-0.4,1.2,0c0.3,0.3,0.4,0.9,0,1.2c-1.4,1.2-2.9,2.4-4.3,3.6c-0.6,0.5-1.2,1-1.9,1.6
		c-0.5,0.4-1,0.7-0.9,1.4c0.1,0.7,0.4,1.5,0.7,2.2c0.2,0.7,0.5,1.5,0.8,2.2c0.3,0.7,0.6,1.5,0.9,2.2c0.2,0.6,0.5,1.3,0.9,1.8
		c0.2,0.3,0.5,0.3,0.7,0c0.4-0.5,0.3-1.3,0.2-1.8c0,0,0-0.1,0-0.1c-0.1-0.1-0.1-0.1-0.2-0.2c-0.2-0.3-0.1-0.7,0.1-1
		c-0.8-0.6-1.5-1.3-1.9-2.3c-0.4-1-0.2-2.1,0.6-2.9c0.4-0.4,0.8-0.7,1.2-1c0.5-0.4,0.9-0.7,1.4-1.1c0.9-0.7,1.8-1.4,2.7-2.1
		c0.4-0.3,0.9-0.4,1.2,0c0.3,0.3,0.4,0.9,0,1.2c-1.5,1.2-3.1,2.4-4.6,3.6c-0.3,0.2-0.6,0.4-0.8,0.7c-0.1,0.3-0.1,0.6,0,0.9
		c0.1,0.4,0.4,0.7,0.7,1c1.6-1.6,3.2-3.1,4.9-4.7c0.4-0.3,0.9-0.3,1.2,0c0.3,0.3,0.3,0.9,0,1.2c-1.6,1.6-3.3,3.2-4.9,4.7
		c0,0-0.1,0.1-0.1,0.1c0,0.2-0.1,0.3-0.2,0.4c0,0,0.1,0.1,0.1,0.1c0.4,0.6,0.8,1.2,1.4,1.7c0.4,0.4,1,0.9,1.6,0.9
		c0.4,0,0.8-0.3,1.2-0.5c0.4-0.3,0.9-0.5,1.3-0.8c0.8-0.5,1.6-1.1,2.3-1.8c0.3-0.3,0.7-0.3,1-0.2c0.1,0,0.1,0.1,0.2,0.2
		C180.9,132.7,181,133.4,180.6,133.7z M198.5,132.1c-1.1,0.2-2.1,0.4-3.2,0.6c-0.9,0.2-1.8,0.4-2.7,0.5c-0.5,0.1-1.1,0.1-1.6,0.2
		c-0.9,0.1-2,0-2.9-0.1c-1.3-0.1-2.6-0.3-3.9-0.8c-1.1-0.4-2-1-2.9-1.8c-0.2-0.2-0.4-0.3-0.6-0.4c0,0-0.1,0,0,0
		c-0.1,0-0.1,0-0.2,0.1c-0.1,0-0.1,0.1-0.2,0.1c-0.4,0.3-0.8,0.6-1.2,0.9c-1.1,0.9-2.3,1.8-3.4,2.7c-0.4,0.3-0.9,0.4-1.2,0
		c-0.3-0.3-0.4-0.9,0-1.2c1.3-1,2.5-2,3.8-3c0.6-0.5,1.2-1.1,1.9-1.3c0.6-0.2,1.2,0,1.7,0.4c0.5,0.3,0.8,0.7,1.3,1.1
		c0.3,0.3,0.9,0.6,1.4,0.8c1.1,0.5,2.4,0.7,3.6,0.8c1,0.1,1.9,0.2,2.9,0c0.3,0,0.7-0.1,1-0.1c0,0,0,0,0,0c0,0,0.2-0.1,0.2,0
		c1-0.2,2-0.4,3-0.6c0.9-0.2,1.8-0.4,2.7-0.5c0.5-0.1,0.9,0.1,1.1,0.6C199.2,131.5,198.9,132,198.5,132.1z M207.9,157.7
		c0-1.9,0-3.8-0.1-5.7c-0.3-6.1-1.1-12.1-1.6-18.2c0-0.5,0.4-0.9,0.9-0.9c0.5,0,0.8,0.4,0.9,0.9c0.2,1.9,0.3,3.8,0.5,5.7
		c0.6,6.1,1.2,12.1,1.2,18.2C209.7,158.9,207.9,158.9,207.9,157.7z"/>
	<path class="st6" d="M115.6,165.7c-0.2-2.6-0.5-5.3-0.9-7.9c-0.3-2.5-0.8-5-1.4-7.4c-1.3-4.8-3.5-9.1-6.4-13.1
		c-0.1-0.2-0.1-0.3-0.1-0.5c-0.3-0.1-0.5-0.5-0.5-0.8c0-0.2,0-0.4,0-0.6c0-1.3,0-2.5,0.1-3.8c-0.1,0.1-0.3,0.2-0.5,0.2
		c-2.7-0.2-5.3-0.4-8-0.6c-9.9-0.7-19.7-1.6-29.6-2.2c-0.1,0-0.1,0-0.2,0c0,0,0,0,0,0c-0.1,0-0.1,0-0.2-0.1
		c-0.1,0.1-0.1,0.2-0.2,0.3c0,0,0,0,0,0c0.5,0,0.9,0.4,0.9,0.9c-0.1,1.6-0.2,3.2-0.2,4.8c1,0.1,2,0.2,3,0.2c3,0.2,6,0.4,9,0.6
		c3.5,0.2,6.9,0.4,10.4,0.7c2.9,0.2,5.8,0.4,8.7,0.5c1.2,0.1,2.4,0.2,3.6,0.2c1.1,0.1,1.1,1.8,0,1.8c0,0,0,0-0.1,0
		c-1.5,0-2.9-0.2-4.4-0.3c-3-0.2-6-0.4-9-0.6c-3.5-0.2-6.9-0.4-10.4-0.7c-2.9-0.2-5.8-0.4-8.7-0.5c-1.1-0.1-2.2-0.1-3.3-0.2
		c0,0.1,0,0.1-0.1,0.2c0.4,0.1,0.8,0.5,0.7,1.1c-0.8,3.2-1.7,6.5-2.5,9.7c-1,3.8-2,7.6-3.1,11.4c-1.3,4.7-2.5,9.4-3.7,14H82
		c-0.3-2.3-0.6-4.7-1-7c-0.6-3.8-1.4-7.6-2.1-11.4c-0.9-4.7-1.6-9.5-2.1-14.2c-0.1-0.5,0.4-0.9,0.9-0.9c0.5,0,0.8,0.4,0.9,0.9
		c0.3,2.9,0.7,5.8,1.1,8.7c0.6,3.8,1.4,7.6,2.1,11.4c0.8,4.1,1.4,8.3,1.9,12.5h31.8C115.7,170.4,115.7,168,115.6,165.7z"/>
	<path class="st3" d="M167.9,8.7c-0.1,0-0.3,0.1-0.4,0.1c-2.2,0.7-4.1,2-5.7,3.6c-3.1,3.2-4.7,7.8-4.5,12.3
		c0.2,4.4,2.3,8.4,5.5,11.3c0.1-0.3,0.1-0.5,0.2-0.8c0.4-1,1-1.9,1.9-2.5c1-0.6,2.2-0.7,3.2-0.3c0.1,0,0.1,0,0.2,0
		c0.2,0,0.3,0,0.5,0c0.7,0,1.5,0.1,2.2,0.1c-0.8-1.4-1.5-2.9-1.6-4.5c-0.1-1.9,0.5-3.7,0.6-5.6c0.1-1.1,1.8-1.1,1.8,0
		c-0.1,1.4-0.4,2.8-0.6,4.3c0.7-0.2,1.3-0.6,1.9-1.1c0.8-0.7,1.5-1.5,2.2-2.3c0.6-0.7,1.2-1.5,1.6-2.4c0.4-1.1,0.4-2.3,0.1-3.4
		c-0.3-0.9,1.2-1.6,1.6-0.7c0,0.1,0.1,0.1,0.1,0.2c0,0,0,0,0,0c0,0,0,0,0,0c0.8,1.9,0.6,4.1-0.4,5.9c1.1-0.3,2.2-0.8,3-1.6
		c0-0.2,0.1-0.4,0.2-0.5c1.3-1.6,1.7-3.9,0.9-5.7c-0.2-0.4-0.1-0.9,0.3-1.2c0.4-0.2,1-0.1,1.2,0.3c0.8,1.6,1,3.4,0.5,5.1
		c0.7-0.6,1.4-1.2,1.9-2c0.5-0.9,0.9-1.9,1.1-3c0.2-1-0.1-2-0.6-2.9c-0.2-0.3-0.1-0.6,0-0.9c0.1-0.4,0.5-0.8,1.1-0.7
		c2.5,0.6,4.5,2.4,6.1,4.4c0.4,0.5,0.7,1,1,1.5c-0.2-1.6-0.8-3.2-1.7-4.6c-1.1-1.7-2.7-3.2-4.4-4.3c-1.9-1.2-3.8-2-6.1-2.4
		c-1.1-0.2-1.9-0.3-3.1-0.4c-0.5,0-1.1,0-1.6,0c-0.6,0-0.9,0.1-1.4,0.2c-0.5,0.1-1,0.2-1.5,0.3c-0.3,0.1-0.5,0.2-0.7,0.2
		c-0.1,0-0.2,0.1-0.3,0.1C174.1,5,174,5,174,5c0,0,0,0,0,0c0,0,0,0,0,0c-0.5,0.2-0.9,0.4-1.3,0.7c-0.2,0.1-0.4,0.3-0.6,0.4
		c-0.1,0.1-0.2,0.1-0.3,0.2c0,0,0,0,0,0c-0.1,0-0.1,0.1-0.2,0.1c-0.4,0.3-0.9,0.4-1.2,0c-0.1-0.1-0.2-0.2-0.2-0.4
		c-0.5,0.5-1.2,0.8-1.7,1.2C168.7,7.7,168.6,8.5,167.9,8.7z"/>
	<path class="st1" d="M113.8,110c-0.2-0.3-0.2-0.8,0.1-1.1c0.4-0.4,0.9-0.3,1.2,0c0.3,0.2,0.6,0.5,0.8,0.7c1.6,1.4,3.3,2.8,4.9,4.2
		c0.2-3.3,0.5-6.7,0.7-10c0.2-3.7,0.4-7.4,0.5-11.1c0-1.5,0-3.1-0.1-4.6c-0.1-1.6-0.1-3.1-0.1-4.7c0-0.3,0-0.6,0-0.8
		c0-0.1,0-0.2,0-0.3c0,0,0,0,0-0.1c0,0,0-0.1,0-0.1c-0.1-0.6-0.2-1.2-0.4-1.8c-0.2-0.7-0.4-1.6-0.7-2.2c-0.3-0.8-0.8-1.4-1.4-2
		c-2.5-2.7-5.9-4.5-9-6.5c-0.1-0.1-0.1-0.1-0.2-0.2c0-0.1-0.1-0.1-0.1-0.2c-1.1-0.2-2.1-0.6-2.6-1.6c-0.3,0.1-0.7,0.2-1.1,0.3
		c-0.5,0.1-0.9-0.1-1-0.5c-0.7,0.3-1.5,0.3-2.3,0.2c-0.5,0.1-1,0.2-1.5,0.1c-0.5,0-0.9-0.4-0.9-0.9c0-0.4,0.4-0.9,0.9-0.9
		c2.1,0.2,3.6-1.5,4.1-3.4c0.6-2.3,0-4.7-0.6-6.9c0-0.1,0-0.1,0-0.2c0,0,0,0,0,0c0-0.1,0-0.1,0-0.2c0,0,0,0,0,0c0-0.1,0-0.1,0-0.2
		c0,0,0,0,0,0c0-0.1,0.1-0.1,0.1-0.1c0,0,0,0,0,0c0-0.1-0.1-0.1-0.1-0.2c0,0,0,0.1,0,0.1c-0.2,1.6-0.7,2.9-1.6,4.2
		c-1.1,1.7-2.6,3.1-4.1,4.5c-0.7,0.7-1.5,1.3-2.2,2c-0.7,0.7-1.4,1.5-2,2.3c-1.1,1.3-2,2.6-1.9,4.4c0.1,1.2,0.2,2.4,0.3,3.6
		c0,0.7,0.1,1.3,0.1,2c0,0,0.1,0,0.1-0.1c0.5-0.3,1-0.6,1.6-1c3.7-2.2,7.4-4.5,11.1-6.7c0.5-0.3,1.1,0,1.2,0.5
		c0.1,0.4,0.1,0.8-0.4,1c-0.5,0.3-1,0.6-1.6,1c-3.7,2.2-7.4,4.5-11.1,6.7c-0.3,0.2-0.7,0.2-0.9,0c0,0.1,0,0.1,0,0.2
		c0.1,2.4,0.3,4.7,0.6,7c0.4,2.8,0.8,5.5,1.2,8.3c0.3,2,0.5,4,0.8,6c0.1,0.5-0.4,0.9-0.9,0.9c-0.5,0-0.8-0.4-0.9-0.9
		C94,95.6,93,90.4,92.4,85.2c-0.3-2.4-0.4-4.7-0.5-7.1c-0.1-1.2-0.1-2.3-0.2-3.5c-0.1-1.1-0.3-2.2-0.2-3.2c0.2-1.9,1.3-3.3,2.4-4.8
		c0.6-0.8,1.2-1.5,1.9-2.2c0.7-0.7,1.5-1.4,2.3-2.1c1.4-1.3,2.8-2.6,3.9-4.2c0.8-1.2,1.3-2.4,1.4-3.8c0.1-0.7,0-1.4,0.1-2.1
		c0.1-0.6,0.1-1.2,0.2-1.8c0.1-0.6,0.1-1.4,0-1.9c0,0-0.1-0.3-0.1-0.4c0-0.1,0-0.1-0.1-0.2c0,0,0,0,0,0c0,0,0,0,0,0
		c0,0,0-0.1-0.1-0.1c0,0,0,0,0,0c0,0,0,0,0,0c0,0,0,0,0,0c0,0-0.1,0-0.1-0.1c0,0.1,0,0.1,0,0.2c-0.2,2.9-0.6,5.8-1.2,8.7
		c-0.1,0.5-0.6,0.7-1.1,0.6c-0.5-0.1-0.7-0.6-0.6-1.1c0.5-2.4,0.9-4.7,1.1-7.1c0.1-1.1,0.2-2.2,0.2-3.3c0-0.5,0-1-0.2-1.4
		c-0.1-0.1-0.2-0.2-0.3-0.2c-0.1,0,0,0-0.1,0.1c0,0,0,0,0,0c0,0.1,0,0.2,0,0.2c0,0.8-0.1,1.6-0.1,2.4c-0.2,3.2-0.5,6.3-1,9.5
		c-0.1,0.5-0.7,0.7-1.1,0.6c-0.5-0.1-0.7-0.6-0.6-1.1c0.2-1.5,0.4-3,0.6-4.5c0.3-2.6,0.5-5.3,0.5-8c0-0.3,0-0.6-0.1-0.8
		c0,0-0.1-0.1-0.1-0.2c0,0,0,0,0,0c0,0,0,0,0,0c-0.1,0-0.3,0-0.4,0.1c-0.1,0.1-0.2,0.3-0.3,0.5c-0.1,0.2-0.2,0.6-0.3,0.9
		c-0.1,0.4-0.2,0.8-0.3,1.2c0.4,0.7,0.4,1.7,0.3,2.5c-0.3,2.5-0.7,5.1-1.1,7.6c-0.1,0.5-0.7,0.7-1.1,0.6c-0.5-0.1-0.7-0.6-0.6-1.1
		c0.2-1.6,0.5-3.3,0.7-4.9c0-0.3,0.1-0.6,0.1-0.9c0-0.1,0-0.3,0.1-0.4c0,0,0-0.2,0-0.2c0-0.4,0.1-0.7,0.1-1.1c0-0.4,0.1-1-0.1-1.4
		c-0.1-0.1-0.1-0.1-0.3-0.1c-0.2,0.1-0.3,0.2-0.4,0.4c-0.1,0.2-0.1,0.3-0.2,0.6c-0.1,0.3-0.2,0.5-0.2,0.8c-0.1,0.5-0.3,1.1-0.4,1.6
		c0,0,0,0.1,0,0.1c0,0,0,0.1,0,0.2c0,0.2,0,0.4-0.1,0.6c0,0.4-0.1,0.7-0.1,1.1c-0.1,0.7-0.2,1.4-0.4,2c-0.3,1.4-0.8,2.9-1.5,4.2
		c-1.3,2.6-3.7,4.1-5.5,6.3c-1.3,1.5-2.1,3.5-2.5,5.4c-0.1,0.5-0.7,0.7-1.1,0.6c-0.5-0.1-0.7-0.6-0.6-1.1c0.1-0.7,0.3-1.4,0.6-2.1
		L81,67.4L79.6,68c0.5,0.4,0.5,1.3-0.3,1.5c-1.1,0.3-2.2,0.5-3.2,0.8c0,0-0.1,0-0.1,0c0,0,0,0,0,0c-0.5,0.1-1,0.3-1.5,0.4
		c0,0,0,0,0,0c-0.1,0-0.3,0.1-0.4,0.1c0,0-0.1,0-0.1,0c-0.1,0-0.3,0.1-0.4,0.1c-0.1,0-0.1,0-0.2,0c-0.1,0-0.2,0.1-0.4,0.1
		c-0.1,0-0.1,0-0.2,0.1c-0.1,0-0.2,0.1-0.4,0.1c-0.1,0-0.1,0-0.2,0.1c-0.2,0.1-0.4,0.1-0.5,0.2c-0.1,0-0.1,0,0,0
		c-0.1,0-0.1,0.1-0.2,0.1c-0.1,0-0.1,0.1-0.2,0.1c-0.2,0.1-0.4,0.2-0.6,0.4c-0.4,0.3-0.8,0.6-1.1,0.9c-0.7,0.7-1.4,1.5-1.9,2.4
		c-0.4,0.6-0.8,1.2-1.1,1.8c0.2,0.1,0.4,0.2,0.5,0.4c1.1,2.2,2.4,4.3,3.6,6.5c0.2-0.3,0.5-0.4,0.9-0.3c0.4,0.1,0.8,0.6,0.6,1.1
		c-0.3,0.7-0.5,1.4-0.8,2.1c-0.9,2.4-1.9,4.8-2.3,7.3c0,0.1,0,0.3,0,0.3c0,0.1,0,0.2,0,0.3c0,0.3,0,0.6,0,0.9c0,0.8,0,1.6,0.1,2.4
		c0.1,1.9,0.3,3.8,0.5,5.7c0,0.5-0.4,0.9-0.9,0.9c-0.1,0-0.2,0-0.3-0.1c-0.3-0.1-0.5-0.5-0.6-0.8c-0.2-2.1-0.4-4.3-0.5-6.4
		C67,96.3,67,95,67.2,93.7c0.3-1.3,0.7-2.5,1.1-3.7c0.4-1.2,0.9-2.5,1.3-3.7c-0.1-0.1-0.2-0.1-0.2-0.2c-1.2-2.4-2.7-4.7-3.9-7.2
		c-0.2,0.3-0.3,0.6-0.5,0.9c-1.3,2.6-2.6,5.2-3.9,7.8c-1.5,3.1-3.1,6.3-4.7,9.4c-1.2,2.3-2.3,4.6-3.7,6.8c-0.3,0.5-0.8,0.5-1.2,0.3
		c-0.3,0.7-0.6,1.5-0.7,2.2c0.9-1,2.1-1.7,3.3-2.2c2.2-0.9,4.6-1.3,7-1.3c1.8-0.1,3.9,0.4,5.5,1.3c0.2,0.1,0.4,0.3,0.4,0.5
		c0.1,0.6-0.6,1.4-1.3,1c-0.2-0.1-0.3-0.2-0.5-0.2c0,0,0,0-0.1,0c0,0,0,0,0,0c-0.1,0-0.2-0.1-0.3-0.1c-0.2-0.1-0.5-0.2-0.7-0.2
		c-2.1-0.6-4.4-0.4-6.5,0c-1.8,0.4-3.8,0.9-5.2,2.3c0.1,0.2,0.1,0.4,0,0.6c-0.4,0.9-0.8,1.7-1.2,2.6c-0.3,0.6-0.5,1.3-0.3,1.9
		c0.4,1.4,1.9,2.2,3,2.8c2.5,1.2,5.3,1.8,8,2.3c2.3,0.4,4.5,0.9,6.8,1.3c5.2,0.9,10.4,1.5,15.6,2.2c0.3,0,0.5,0.3,0.6,0.6
		c0,0.2,0,0.3,0,0.5c-0.1,0.5-0.6,0.7-1.1,0.6c-2.8-0.4-5.7-0.8-8.6-1.2c-3.7-0.5-7.4-1.1-11-1.8l-0.2,1.4c0.2-0.2,0.5-0.3,0.8-0.2
		c0.4,0.1,0.8,0.6,0.6,1.1c-0.1,0.4-0.3,0.9-0.4,1.4c0,0,0,0.1,0,0.1c0.1,0.1,0.2,0.1,0.3,0.2c1.7,1.2,3.3,2.4,5,3.6
		c0.1,0.1,0.2,0.1,0.2,0.2c1.9,0.1,3.8,0.3,5.8,0.4c9.1,0.7,18.3,1.5,27.4,2.1c0.1,0,0.2,0,0.2,0c0.6,0.1,1.3,0.1,1.9,0.2
		c0.1,0,0.3,0,0.4,0.1c0.3-0.5,0.6-0.9,0.9-1.4c2.3-3.5,4.5-7,6.8-10.5c0.2-0.3,0.4-0.4,0.7-0.4c0-0.3,0-0.5,0-0.8
		c-0.4,0.1-0.8,0.1-1.2-0.1c-0.6-0.3-1-0.8-1.4-1.2c-0.6-0.6-1.2-1.1-1.8-1.7c-0.6-0.6-1.2-1.3-1.8-1.8c-0.4-0.3-0.3-0.9,0-1.2
		c0.4-0.4,0.9-0.3,1.2,0c1.3,1,2.3,2.4,3.5,3.4c0.3,0.3,0.7,0.7,1,1c0,0,0,0,0,0c0,0,0,0,0.1,0c0.2-0.1,0.4-0.2,0.6-0.3
		c0,0,0,0,0.1,0c0,0,0,0,0,0c0,0,0-0.1,0-0.1c-0.1-0.2-0.3-0.4-0.5-0.6c-0.6-0.6-1.3-1.2-1.9-1.8c-0.6-0.6-1.2-1.2-1.8-1.7
		c-0.5-0.4-1.1-0.7-1.7-1c-0.1-0.1-0.3-0.1-0.4-0.2c-0.1-0.1,0,0-0.1-0.1c-0.1,0-0.2-0.1-0.3-0.1c0,0-0.2,0-0.2,0
		c-0.6-0.1-1.1,0-1.7,0.1c-0.1,0-0.2,0-0.3-0.1c-3,1.3-6,2.7-9,4c-2.2,0.9-4.3,1.9-6.5,2.7c-1.3,0.5-2.6,0.8-4,0.6
		c-1.2-0.2-2.3-0.8-3.2-1.6c-1.3-1.3-2.1-2.9-2.5-4.7c-0.2,0.2-0.5,0.2-0.7,0.1c-0.4-0.1-0.8-0.3-1.2-0.4c-2.9-1-5.7-2-8.6-3
		c-0.4-0.2-0.7-0.6-0.6-1.1c0,0,0,0,0-0.1c0.2-0.4,0.6-0.7,1-0.5c0.4,0.1,0.8,0.3,1.2,0.4c2.8,1,5.7,2,8.5,3
		c-0.1-0.6-0.2-1.1-0.2-1.7c-0.1-1.7-0.1-3.4,0-5.2c0-1.3,0-2.6,0.1-3.8c0.1-4.6,0.7-9.2,1.1-13.8c0.2-1.6,0.3-3.2,0.5-4.8
		c0-0.1,0-0.1,0-0.2c0-0.4,0.1-0.8,0.1-1.3c0-0.1,0-0.3,0-0.4c0-0.4,0.1-0.7,0.1-1.1c0-0.2,0-0.4,0-0.5c0-0.3,0.1-0.7,0.1-1
		c0-0.2,0-0.4,0-0.6c0-0.4,0-0.7,0.1-1.1c0-0.2,0-0.3,0-0.5c0-0.5,0-1.1,0-1.6c0-1.1,1.8-1.1,1.8,0c0,0.4,0,0.7,0,1.1
		c-0.2,4.5-0.7,9-1.2,13.4c-0.4,4.3-1,8.7-1,13c0,1.5-0.1,3-0.1,4.5c0,1.7-0.1,3.3,0.2,5c0.4,2.4,1.2,5.1,3.4,6.3
		c0.9,0.5,2,0.6,3.1,0.3c1.1-0.3,2.1-0.7,3.1-1.1c2.2-0.9,4.3-1.8,6.4-2.7c2.8-1.2,5.7-2.5,8.5-3.8c0.3-0.1,0.6-0.1,0.9,0
		c-0.4-0.6-0.8-1.2-1.2-1.9c-1.2-1.9-2.4-3.7-3.8-5.3c-1.4-1.6-3-3-5-3.6c-0.5-0.1-0.7-0.6-0.6-1c0.1-0.5,0.5-0.8,1.1-0.7
		c1.3,0.4,2.4,1,3.5,1.9c3.5,2.7,5.5,6.7,8,10.3c0.2,0.3,0.1,0.8-0.2,1.1c0.5,0.2,1,0.5,1.4,0.7c0.5,0.3,1,0.7,1.4,1
		c1.1,0.9,2,1.9,3,2.8c0.7,0.6,1.5,1.3,1.7,2.2c0.2,0.9-0.3,1.6-1.1,2.1c0,0-0.1,0-0.1,0.1c1.6,0.1,3-0.7,4.3-1.7
		c-1.9-1.6-3.9-3.3-5.8-4.9C113.9,110.1,113.8,110,113.8,110z M101.2,116.4c0.2-0.4,0.8-0.6,1.2-0.3c1.4,1,2.8,2,4.3,3
		c0,0,0,0,0-0.1c0.1-0.1,0.2-0.3,0.2-0.4c0,0,0-0.2,0-0.2c0,0,0-0.1,0-0.1c0,0,0-0.1,0-0.1c0,0,0,0,0-0.1c0-0.1,0-0.1-0.1-0.2
		c0,0,0,0,0,0c0,0,0-0.1,0-0.1c0,0,0,0-0.1,0c0,0-0.1,0-0.1-0.1c-0.1-0.1-0.3-0.2-0.4-0.2c-1.4-0.8-2.7-1.5-4.1-2.3
		c-0.4-0.2-0.5-0.8-0.3-1.2c0.2-0.4,0.8-0.5,1.2-0.3c0.8,0.5,1.6,0.9,2.5,1.4c0.8,0.4,1.6,0.8,2.3,1.4c0.7,0.6,0.9,1.5,0.8,2.4
		c-0.1,0.7-0.6,1.4-1.1,1.9c0.2,0.3,0.2,0.7,0,1c0,0,0,0.1,0,0.1c0,0.2,0.1,1.4,0.6,1.3c-0.1,0,0.1-0.2,0.1-0.2
		c0.1-0.2,0.2-0.5,0.2-0.8c0.4-1.5,0.7-3,1-4.6c0.1-0.4,0.3-1.3,0.1-1.7c-0.2-0.2-0.5-0.3-0.7-0.5c-0.3-0.2-0.6-0.3-0.9-0.5
		c-1-0.6-2-1.2-3-1.8c-1-0.6-0.1-2.1,0.9-1.5c1.1,0.7,2.3,1.4,3.4,2.1c0.6,0.3,1.2,0.7,1.7,1.2c0.5,0.7,0.5,1.4,0.4,2.2
		c-0.2,1.5-0.5,3.1-0.9,4.6c-0.3,1.2-0.6,3.2-2.2,3.3c-0.7,0-1.4-0.4-1.8-1c-0.1-0.1-0.1-0.2-0.2-0.3c-0.3,0.5-0.7,1-1.3,1.2
		c-1,0.4-2.1-0.1-3.1-0.5c-0.9-0.4-1.8-0.9-2.7-1.4c-1-0.6-0.1-2.1,0.9-1.5c0.8,0.5,1.6,0.9,2.4,1.3c0.4,0.2,0.8,0.4,1.2,0.5
		c0.2,0.1,0.3,0.1,0.5,0.1c0,0,0,0,0,0c0.1,0,0.1-0.1,0.2-0.1c0,0,0,0,0,0c0,0,0,0,0,0c0,0,0.1-0.1,0.1-0.1c0,0,0,0,0-0.1
		c0-0.1,0.1-0.1,0.1-0.2c0.1-0.2,0.3-0.5,0.4-0.7c0.2-0.4,0.5-0.8,0.8-1.1c0,0,0-0.1-0.1-0.1c-1.5-1-2.9-2-4.4-3.1
		C101.1,117.3,101,116.9,101.2,116.4z M88.2,121.3c0.3-0.4,0.8-0.5,1.2-0.3c0.9,0.4,2,0.6,3.1,0.7c1,0,1.9-0.1,2.8-0.4
		c0.4-0.1,0.7-0.3,1.1-0.5c0.2-0.1,0.2-0.1,0.4-0.3c0.1-0.1,0.1-0.1,0.2-0.2c0,0,0,0,0,0c0,0,0,0,0-0.1c0.3-0.5,0.5-1,1-1.3
		c0.7-0.4,1.4-0.2,2,0.2c1.3,0.7,2.6,1.5,4,2.2c1,0.5,0.1,2.1-0.9,1.5c-1.4-0.8-2.8-1.5-4.2-2.3c0,0,0,0,0,0c0,0.1-0.1,0.2-0.2,0.3
		c-0.1,0.2-0.2,0.4-0.4,0.6c-0.3,0.4-0.6,0.7-1,0.9c-0.8,0.5-1.7,0.9-2.6,1.1c-2.1,0.4-4.3,0.2-6.2-0.7
		C88.1,122.3,88,121.7,88.2,121.3C88.2,121.3,88.2,121.3,88.2,121.3z M79.3,79.7C79.3,79.7,79.3,79.7,79.3,79.7
		c-0.1,0-0.1,0.1-0.1,0.1c0,0,0,0,0,0c-0.1,0-0.1,0.1-0.2,0.1c-0.5,0.1-0.9-0.2-1.1-0.6c-0.7-2.1-1.9-4.2-2.7-6.4
		c-0.2-0.4,0.2-1,0.6-1.1c0.1,0,0.1,0,0.2,0c0,0,0,0,0.1,0c0,0,0.1,0,0.1,0c0,0,0.1,0,0.1,0c0,0,0,0,0.1,0c0,0,0.1,0,0.1,0
		c0,0,0,0,0,0c0,0,0,0,0,0c0.1,0,0.1,0.1,0.2,0.1c0,0,0,0,0,0c0,0,0.1,0.1,0.1,0.1c0,0,0,0,0,0c0,0,0.1,0.1,0.1,0.1c0,0,0,0,0,0
		c0,0.1,0.1,0.1,0.1,0.2c0.7,2.1,1.9,4.2,2.7,6.4c0,0.1,0,0.1,0,0.2c0,0,0,0.1,0,0.1c0,0,0,0,0,0.1c0,0,0,0.1,0,0.1c0,0,0,0,0,0
		C79.5,79.4,79.4,79.5,79.3,79.7z M120.1,93.6c0.4,0.3,0.5,0.8,0.3,1.2c-1.8,4.1-3.9,8.2-6.1,12.1c-0.6,1-2.1,0.1-1.5-0.9
		c2.3-3.9,4.3-7.9,6.1-12.1C119.1,93.5,119.7,93.4,120.1,93.6z M107.6,80.4c-0.9,0.9-1.8,1.9-2.7,2.9c-2.6,2.9-5,5.9-7.4,9
		c-0.3,0.4-0.9,0.3-1.2,0c-0.4-0.4-0.3-0.9,0-1.2c0.3-0.4,0.6-0.7,0.9-1.1c1.4-1.8,2.8-3.5,4.3-5.3c1.6-1.9,3.2-3.8,5-5.6
		C107.1,78.3,108.4,79.6,107.6,80.4z M109.2,78.3c-1,0.5-1.9-1-0.9-1.5c3.2-1.7,7.1-1.8,10.4-0.3c0.4,0.2,0.5,0.8,0.3,1.2
		c-0.3,0.4-0.8,0.5-1.2,0.3C115.1,76.7,111.9,76.9,109.2,78.3z"/>
	<path class="st2" d="M198.5,31.5c0.4,1.6,0.9,3.2,1.2,4.8c0.5,2.8,0.4,5.6-0.3,8.3c-0.2,0.6,0.3,1,0.8,1.1c0.4,0.1,0.8-0.1,0.9-0.6
		c0.8-2.9,0.8-6,0.3-9c-0.3-1.7-0.8-3.4-1.2-5.1c-0.1-0.5-0.5-0.6-0.9-0.6C198.8,30.5,198.3,30.9,198.5,31.5z"/>
	<path class="st2" d="M189.8,20.2c0.3,0,0.6,0,0.9,0c0.1,0,0.2,0,0.2,0c0,0-0.1,0-0.1,0c0,0,0.1,0,0.1,0c0.2,0,0.3,0.1,0.5,0.1
		c0.1,0,0.3,0.1,0.4,0.1c0.1,0,0.1,0,0.2,0.1c0,0,0,0,0.1,0c0.3,0.1,0.6,0.3,0.8,0.4c0.4,0.2,1,0.1,1.2-0.3c0.2-0.4,0.1-0.9-0.3-1.2
		c-1.2-0.7-2.6-1.1-4-1c-0.5,0-0.9,0.4-0.9,0.9C189,19.8,189.3,20.3,189.8,20.2z"/>
	<path class="st2" d="M183.3,28.1c1.1,0,1.1-1.8,0-1.8C182.2,26.4,182.2,28.1,183.3,28.1z"/>
	<path class="st2" d="M193.7,25.2c1.1,0,1.1-1.8,0-1.8C192.5,23.4,192.5,25.2,193.7,25.2z"/>
	<path class="st2" d="M191.7,43.3c0.1-0.1,0.3-0.3,0.4-0.4c0,0,0,0,0,0c0,0,0,0,0,0c0.1-0.1,0.2-0.1,0.2-0.2
		c0.3-0.2,0.5-0.3,0.8-0.5c0,0,0.1,0,0.1,0c0.1,0,0.1-0.1,0.2-0.1c0.1,0,0.3-0.1,0.4-0.1c0.3-0.1,0.5-0.1,0.8-0.2c0.1,0,0.1,0,0.2,0
		c0,0,0,0-0.1,0c0,0,0.1,0,0.1,0c0.1,0,0.2,0,0.3,0c0.1,0,0.2,0,0.4,0c0.3,0.3,0.7,0.4,1.1,0.2c0.6-0.4,0.7-1.3,0-1.7
		c-0.3-0.2-0.7-0.2-1.1-0.2c-1.1,0-2.2,0.3-3.2,0.7c-0.7,0.3-1.4,0.8-1.9,1.3c-0.3,0.3-0.3,0.9,0,1.2
		C190.8,43.6,191.4,43.6,191.7,43.3z M195.9,41.8c-0.1,0-0.1,0-0.2,0C195.8,41.8,195.9,41.8,195.9,41.8z"/>
	<path class="st12" d="M194.8,41.8C194.8,41.8,194.7,41.8,194.8,41.8L194.8,41.8z"/>
	<path class="st2" d="M170.8,43.1c0.1-0.4-0.1-1-0.6-1.1c-2.3-0.4-4.3-2-5.4-4c-0.1-0.2-0.2-0.4-0.3-0.6c0-0.1,0-0.1-0.1-0.2
		c0,0,0,0,0-0.1c0,0,0,0,0,0c0-0.2,0-0.3,0-0.5c0,0,0-0.1,0-0.1c0,0,0,0,0,0c0-0.1,0-0.2,0.1-0.3c0.2-0.7,0.5-1.3,1-1.8
		c0.3-0.3,0.5-0.4,0.9-0.5c0,0,0,0,0,0c0,0,0.1,0,0.1,0c0.1,0,0.2,0,0.4,0c0,0,0.2,0,0.2,0.1c0.2,0,0.3,0.1,0.5,0.2
		c0.1,0.1,0.3,0.1,0.4,0c0,0,0.1,0,0.1,0c1.2,0.1,2.3,0.1,3.5,0.2c0.2,0,0.3,0,0.5,0c0.5,0,0.9-0.4,0.9-0.9c0,0,0-0.1,0-0.1
		c0.1-0.2,0.1-0.4-0.1-0.7c-0.4-0.9-0.9-1.7-1.3-2.6c-0.3-0.6-0.5-1.1-0.6-1.7c1.1-0.2,2.1-0.9,3-1.6c0.8-0.6,1.4-1.3,2.1-2
		c2.5,0.1,5.1-1,6.7-2.9c2-0.7,3.8-2.1,4.9-4c0.6-1.1,1.1-2.4,1.3-3.7c0.1-0.7,0-1.5-0.1-2.2c1.4,0.7,2.7,1.9,3.6,3.2
		c1.2,1.6,2.1,3.3,2.5,5.2c0.1,0.5,0.6,0.7,1.1,0.6c0.3-0.1,0.5-0.3,0.6-0.6c0-0.1,0-0.3,0-0.4c-0.1-0.4-0.2-0.8-0.3-1.1
		c0.2-0.1,0.4-0.4,0.4-0.7c0.1-2.5-0.4-5-1.6-7.2c-1.1-2.1-2.8-3.8-4.8-5.2c-3.8-2.7-8.7-4-13.3-3.4c-2.5,0.3-4.9,1.2-6.9,2.8
		c-0.2,0.2-0.3,0.5-0.2,0.8c0,0.2,0.1,0.3,0.2,0.4c0.4,0.4,0.9,0.3,1.2,0c0.1,0,0.1-0.1,0.2-0.1c0,0,0,0,0,0
		c0.1-0.1,0.2-0.1,0.3-0.2c0.2-0.1,0.4-0.3,0.6-0.4c0.4-0.3,0.9-0.5,1.3-0.7c0,0,0,0,0,0c0,0,0,0,0,0c0.1,0,0.1,0,0.2-0.1
		c0.1,0,0.2-0.1,0.3-0.1c0.2-0.1,0.5-0.2,0.7-0.2c0.5-0.1,1-0.3,1.5-0.3c0.5-0.1,0.8-0.1,1.4-0.2c0.5,0,1.1,0,1.6,0
		c1.2,0,2,0.1,3.1,0.4c2.2,0.5,4.2,1.2,6.1,2.4c1.7,1.1,3.3,2.6,4.4,4.3c0.9,1.4,1.5,3,1.7,4.6c-0.3-0.5-0.7-1-1-1.5
		c-1.5-2-3.6-3.7-6.1-4.4c-0.6-0.1-1,0.2-1.1,0.7c-0.2,0.2-0.2,0.6,0,0.9c0.5,0.9,0.7,1.9,0.6,2.9c-0.2,1-0.6,2.1-1.1,3
		c-0.5,0.8-1.1,1.5-1.9,2c0.5-1.7,0.3-3.5-0.5-5.1c-0.2-0.4-0.8-0.5-1.2-0.3c-0.4,0.3-0.5,0.8-0.3,1.2c0.8,1.9,0.4,4.2-0.9,5.7
		c-0.1,0.2-0.2,0.3-0.2,0.5c-0.8,0.8-1.9,1.4-3,1.6c1-1.8,1.2-3.9,0.4-5.9c0,0,0,0,0,0c0,0,0,0,0,0c0-0.1-0.1-0.1-0.1-0.2
		c-0.4-0.9-1.9-0.3-1.6,0.7c0.3,1.1,0.3,2.3-0.1,3.4c-0.3,0.9-1,1.7-1.6,2.4c-0.7,0.8-1.4,1.6-2.2,2.3c-0.6,0.5-1.2,0.9-1.9,1.1
		c0.1-1.4,0.5-2.8,0.6-4.3c0.1-1.1-1.7-1.1-1.8,0c-0.1,1.9-0.7,3.7-0.6,5.6c0.1,1.6,0.9,3.1,1.6,4.5c-0.7,0-1.5-0.1-2.2-0.1
		c-0.2,0-0.3,0-0.5,0c-0.1,0-0.1,0-0.2,0c-1-0.4-2.2-0.3-3.2,0.3c-0.9,0.6-1.5,1.5-1.9,2.5c-0.1,0.2-0.2,0.5-0.2,0.8
		c-3.2-2.9-5.3-6.9-5.5-11.3c-0.2-4.4,1.4-9,4.5-12.3c1.6-1.7,3.5-2.9,5.7-3.6c0.1,0,0.3-0.1,0.4-0.1c0.7-0.2,0.7-0.9,0.4-1.4
		c-0.2-0.3-0.5-0.4-0.9-0.3c-4.7,1.4-8.4,4.9-10.3,9.4c-2,4.6-2.2,9.9-0.2,14.6c1.1,2.6,2.9,4.9,5.1,6.8c0.2,0.2,0.5,0.3,0.8,0.2
		c0.5,1.4,1.4,2.6,2.5,3.6c0.6,0.5,1.2,0.9,1.8,1.3c0.8,0.5,1.7,0.8,2.6,1C170.2,43.8,170.7,43.6,170.8,43.1z"/>
	<path class="st2" d="M161.3,145.9c-1-1.2-1.8-2.2-2.7-3.5c-0.3-0.5-0.6-0.9-0.9-1.4c-0.1-0.2-0.2-0.4-0.4-0.6
		c-0.1-0.1-0.1-0.2-0.2-0.3c0,0-0.1-0.3-0.1-0.3c-0.1-0.2-0.1-0.4-0.2-0.5c0-0.1,0-0.2-0.1-0.3c0,0,0,0,0,0c0,0,0,0,0-0.1
		c-0.1-1-0.3-2-0.5-3c-1.1-7.2-1.8-14.5-2.5-21.7c-0.7-7.4-1.5-14.8-2.7-22.2c-0.2-1.5-0.6-3-0.8-4.5c-0.2-1.3-0.3-2.7-0.3-4.1
		c0-2.7,0.3-5.4,1.3-7.9c1-2.5,2.6-4.7,4.7-6.3c2.1-1.5,4.2-3.1,5.9-5.1c0.5-0.6,1-1.2,1.5-1.7c0.3-0.4,0.4-0.9,0-1.2
		c-0.1-0.1-0.2-0.2-0.3-0.2c-0.3-0.1-0.7-0.1-0.9,0.2c-0.9,1.1-1.8,2.2-2.8,3.1c-0.8,0.8-1.7,1.6-2.7,2.3c-1.2,1-2.5,1.8-3.6,3
		c-1,1-1.8,2.2-2.5,3.4c-2.8,5.1-2.7,11.2-1.7,16.8c1.4,7.3,2.2,14.7,2.9,22c0.8,7.4,1.5,14.8,2.5,22.1c0.3,1.8,0.5,3.7,0.8,5.5
		c0.1,0.9,0.7,1.9,1.1,2.7c1,1.7,2.3,3.4,3.6,4.9c0.1,0.1,0.2,0.2,0.3,0.3c0.2,0.3,0.6,0.3,0.9,0.2c0.1,0,0.2-0.1,0.3-0.2
		C161.6,146.7,161.6,146.2,161.3,145.9z"/>
	<path class="st2" d="M93.8,18c3.6-1.9,7.9-1.7,11.6-0.2c3.8,1.5,7.2,4.4,9.3,7.9c1.2,2,1.9,4.2,2.1,6.4c0,0.5,0.4,0.9,0.9,0.9
		c0,0,0,0,0.1,0c0.4,0,0.8-0.4,0.8-0.9c-0.3-4.6-2.7-8.8-6-11.9c-3.3-3.1-7.7-5.1-12.2-5.3c-2.5-0.1-5.1,0.4-7.3,1.6
		c-0.1,0.1-0.2,0.1-0.3,0.2C92.1,17.4,92.9,18.5,93.8,18z"/>
	<path class="st2" d="M95.6,36c0.1,0.2,0.4,0.3,0.6,0.3c0.2,0,0.5-0.1,0.6-0.3c0.2-0.2,0.3-0.4,0.3-0.6c0-0.2-0.1-0.4-0.3-0.6
		c-1-1.3-2.2-2.5-3.5-3.6c-0.4-0.3-0.9-0.4-1.2,0c-0.3,0.3-0.4,0.9,0,1.2C93.4,33.4,94.5,34.7,95.6,36z"/>
	<path class="st2" d="M81.2,48.6c0.2,0,0.4,0,0.6,0c0.2,0,0.4,0.1,0.6,0.2c0,0,0,0,0,0c0,0,0,0,0,0c0.1,0,0.1,0.1,0.2,0.1
		c0.1,0.1,0.2,0.1,0.3,0.2c0,0,0.1,0.1,0.1,0.1c0,0,0,0,0,0c0.1,0.1,0.2,0.2,0.3,0.2c0.1,0.1,0.1,0.2,0.2,0.2c0,0,0,0,0,0
		c0,0.1,0.1,0.1,0.1,0.2c0.2,0.4,0.8,0.6,1.2,0.3c0.4-0.2,0.6-0.8,0.3-1.2c-0.8-1.3-2.3-2.2-3.9-2.1c-0.2,0-0.4,0.1-0.6,0.3
		c-0.2,0.2-0.3,0.4-0.3,0.6C80.3,48.2,80.7,48.7,81.2,48.6z"/>
	<path class="st2" d="M107.3,48.4c2.1-0.7,3.9-2.8,3.8-5.1c-0.1-1.6-0.9-3.4-2.4-4.2c-1.1-0.5-2.3-0.4-3.4,0.1c0,0,0,0-0.1,0
		c-0.4,0.2-0.5,0.8-0.3,1.2c0.3,0.4,0.8,0.5,1.2,0.3c0.2-0.1,0.3-0.1,0.5-0.2c0.1,0,0.2,0,0.3-0.1c0,0,0,0,0.1,0c0,0,0.1,0,0.1,0
		c0.1,0,0.2,0,0.2,0c0,0,0.1,0,0.1,0c0.1,0,0.2,0,0.2,0.1c0,0,0.1,0,0.2,0.1c0,0,0.1,0.1,0.1,0.1c0.1,0,0.1,0.1,0.2,0.1
		c0,0,0,0,0.1,0c0.1,0.1,0.1,0.1,0.2,0.2c0.1,0.1,0.1,0.1,0.2,0.2c0,0,0.1,0.1,0.1,0.1c0.1,0.1,0.2,0.2,0.3,0.4
		c0.1,0.1,0.1,0.3,0.2,0.4c0,0,0,0,0,0c0,0,0,0,0,0.1c0,0.1,0.1,0.2,0.1,0.2c0,0.1,0.1,0.3,0.1,0.5c0,0.1,0,0.1,0,0.2c0,0,0,0,0,0
		c0,0,0,0,0,0c0,0.1,0,0.2,0,0.4c0,0.1,0,0.1,0,0.2c0,0,0,0,0,0c0,0,0,0.1,0,0.1c-0.1,0.4-0.2,0.8-0.4,1.2c-0.5,0.8-1.2,1.5-2,1.8
		c-0.4,0.2-0.7,0.6-0.6,1.1c0.1,0.3,0.4,0.6,0.7,0.6C107,48.4,107.2,48.4,107.3,48.4z M107.3,40.5C107.3,40.5,107.3,40.5,107.3,40.5
		C107.3,40.5,107.3,40.5,107.3,40.5C107.3,40.5,107.3,40.5,107.3,40.5z"/>
	<path class="st2" d="M116.9,36.2c-0.2,1.8,0,3.7,0.3,5.5c0.3,2.1,0.8,4.1,1.3,6.1c0.5,2.1,1,4.1,1.3,6.2c0.1,0.7,0.2,1.5,0.1,2.2
		c0,0,0,0.3-0.1,0.3c0,0.2-0.1,0.3-0.1,0.5c-0.1,0.3-0.2,0.7-0.3,1c-0.8,1.9-2.2,3.4-3.9,4.4c-0.6,0.4-0.5,1.1,0,1.5
		c0.2,0.2,0.6,0.3,0.9,0.1c1.7-1,3.2-2.5,4.2-4.3c0.7-1.3,1.3-2.8,1.2-4.3c-0.3-4.4-1.8-8.7-2.6-13c-0.4-2-0.7-4.2-0.5-6.2
		c0.1-0.4-0.4-0.8-0.8-0.9c0,0,0,0-0.1,0C117.3,35.4,117,35.8,116.9,36.2z"/>
	<path class="st2" d="M123.3,80.4c-0.4-1.6-0.9-3.3-1.9-4.6c-2.1-2.9-5.3-4.7-8.3-6.6c-0.6-0.4-1.3-0.8-1.9-1.2
		c-0.8-0.5-1.6,0.5-1.2,1.2c0,0.1,0.1,0.1,0.1,0.2c0.1,0.1,0.1,0.1,0.2,0.2c3.1,2,6.5,3.8,9,6.5c0.5,0.6,1,1.3,1.4,2
		c0.3,0.6,0.5,1.5,0.7,2.2c0.2,0.6,0.3,1.2,0.4,1.8c0,0,0,0.1,0,0.1c0,0,0,0.1,0,0.1c0,0.1,0,0.2,0,0.3c0,0.3,0,0.6,0,0.8
		c0.1,1.6,0,3.1,0.1,4.7c0.1,1.5,0.1,3.1,0.1,4.6c0,3.7-0.3,7.4-0.5,11.1c-0.2,3.3-0.5,6.7-0.7,10c-1.6-1.4-3.3-2.8-4.9-4.2
		c-0.3-0.2-0.6-0.5-0.8-0.7c-0.4-0.3-0.9-0.4-1.2,0c-0.3,0.3-0.3,0.8-0.1,1.1c0,0,0.1,0.1,0.1,0.1c1.9,1.6,3.9,3.3,5.8,4.9
		c0,0,0.1,0.1,0.1,0.1c0.3,0.2,0.6,0.5,0.8,0.7c0.4,0.3,0.9,0.4,1.2,0c0,0,0.1-0.1,0.1-0.2c0.4-0.1,0.6-0.4,0.6-0.8
		c0.5-7.1,1.1-14.2,1.3-21.3c0.1-3.2-0.1-6.5-0.2-9.7C123.7,82.7,123.6,81.6,123.3,80.4z"/>
	<path class="st2" d="M52.8,103.7c1.4-2.1,2.6-4.5,3.7-6.8c1.6-3.1,3.1-6.2,4.7-9.4c1.3-2.6,2.5-5.2,3.9-7.8
		c0.2-0.3,0.3-0.6,0.5-0.9c1.3,2.4,2.7,4.7,3.9,7.2c0.1,0.1,0.1,0.2,0.2,0.2c-0.5,1.2-0.9,2.5-1.3,3.7c-0.4,1.2-0.8,2.5-1.1,3.7
		C67,95,67,96.3,67.1,97.5c0.1,2.1,0.3,4.3,0.5,6.4c0,0.4,0.2,0.7,0.6,0.8c0.1,0,0.2,0.1,0.3,0.1c0.4,0,0.9-0.4,0.9-0.9
		c-0.2-1.9-0.4-3.8-0.5-5.7c0-0.8-0.1-1.6-0.1-2.4c0-0.3,0-0.6,0-0.9c0-0.1,0-0.2,0-0.3c0,0,0-0.3,0-0.3c0.5-2.5,1.4-5,2.3-7.3
		c0.3-0.7,0.5-1.4,0.8-2.1c0.2-0.4-0.2-1-0.6-1.1c-0.4-0.1-0.7,0.1-0.9,0.3c-1.2-2.2-2.4-4.3-3.6-6.5c-0.1-0.2-0.3-0.3-0.5-0.4
		c0.4-0.6,0.7-1.2,1.1-1.8c0.6-0.8,1.2-1.6,1.9-2.4c0.3-0.3,0.7-0.7,1.1-0.9c0.2-0.1,0.4-0.3,0.6-0.4c0.1,0,0.1-0.1,0.2-0.1
		c0.1,0,0.1-0.1,0.2-0.1c-0.1,0-0.1,0,0,0c0.2-0.1,0.4-0.1,0.5-0.2c0.1,0,0.1,0,0.2-0.1c0.1,0,0.2-0.1,0.4-0.1c0.1,0,0.1,0,0.2-0.1
		c0.1,0,0.2-0.1,0.4-0.1c0.1,0,0.1,0,0.2,0c0.1,0,0.3-0.1,0.4-0.1c0,0,0.1,0,0.1,0c0.1,0,0.3-0.1,0.4-0.1c0,0,0,0,0,0
		c0.5-0.1,1-0.3,1.5-0.4c0,0,0.1,0,0.1,0c1.1-0.3,2.1-0.6,3.2-0.8c0.8-0.2,0.8-1.1,0.3-1.5c-0.2-0.2-0.4-0.2-0.7-0.2
		c-2.4,0.6-4.8,1.1-7.1,1.9c-3.8,1.3-6,5-7.8,8.3c-1.3,2.4-2.5,4.8-3.6,7.3c-1.6,3.2-3.1,6.4-4.7,9.5c-1.4,2.7-2.7,5.5-4.3,8
		c-0.3,0.5-0.1,0.9,0.3,1.1C52,104.2,52.5,104.2,52.8,103.7z"/>
	<path class="st2" d="M83.8,122.5c0.5,0.1,0.9-0.1,1.1-0.6c0-0.1,0-0.3,0-0.5c-0.1-0.3-0.3-0.6-0.6-0.6c-5.2-0.7-10.4-1.3-15.6-2.2
		c-2.3-0.4-4.5-0.9-6.8-1.3c-2.7-0.5-5.5-1-8-2.3c-1.2-0.6-2.6-1.4-3-2.8c-0.2-0.6,0-1.3,0.3-1.9c0.4-0.9,0.9-1.7,1.2-2.6
		c0.1-0.2,0-0.4,0-0.6c1.4-1.3,3.4-1.9,5.2-2.3c2.1-0.4,4.4-0.6,6.5,0c0.2,0.1,0.5,0.2,0.7,0.2c0.1,0,0.2,0.1,0.3,0.1c0,0,0,0,0,0
		c0,0,0,0,0.1,0c0.2,0.1,0.3,0.1,0.5,0.2c0.7,0.4,1.4-0.3,1.3-1c0-0.2-0.2-0.4-0.4-0.5c-1.6-0.9-3.6-1.3-5.5-1.3
		c-2.3,0.1-4.8,0.4-7,1.3c-1.2,0.5-2.4,1.2-3.3,2.2c0,0,0,0,0,0c-0.3,0.3-0.3,0.7-0.1,1c0,0,0,0,0,0c0,0,0,0,0,0
		c-0.6,1.5-1.7,2.9-1.7,4.5c0,1.6,1.2,2.9,2.4,3.9c2.3,1.7,5.3,2.4,8.1,3c1.5,0.3,3.1,0.6,4.6,0.9c3.7,0.7,7.3,1.3,11,1.8
		C78.1,121.8,81,122.1,83.8,122.5z"/>
	<path class="st2" d="M113.9,118.2c-2.3,3.5-4.5,7-6.8,10.5c-0.3,0.5-0.6,0.9-0.9,1.4c-0.1-0.1-0.2-0.1-0.4-0.1
		c-0.6-0.1-1.3-0.1-1.9-0.2c-0.1,0-0.2,0-0.2,0c-9.1-0.6-18.3-1.4-27.4-2.1c-1.9-0.1-3.8-0.3-5.8-0.4c-0.1-0.1-0.1-0.2-0.2-0.2
		c-1.7-1.2-3.3-2.4-5-3.6c-0.1-0.1-0.2-0.1-0.3-0.2c0,0,0-0.1,0-0.1c0.1-0.5,0.3-0.9,0.4-1.4c0.1-0.4-0.2-1-0.6-1.1
		c-0.3-0.1-0.6,0-0.8,0.2c-0.1,0.1-0.2,0.2-0.3,0.4c-0.2,0.5-0.4,1.1-0.5,1.6c-0.1,0.3-0.2,0.7-0.1,1c0.1,0.3,0.4,0.6,0.7,0.7
		c1.3,0.9,2.5,1.8,3.8,2.8c-0.4,0.4-0.3,1.1,0.2,1.4c0.1,0,0.1,0.1,0.2,0.1c0,0,0,0,0,0c0.1,0,0.1,0,0.2,0
		c9.9,0.6,19.7,1.5,29.6,2.2c2.7,0.2,5.3,0.4,8,0.6c0.2,0,0.4-0.1,0.5-0.2c0,1.3,0,2.5-0.1,3.8c0,0.2,0,0.4,0,0.6
		c0,0.3,0.2,0.7,0.5,0.8c0,0.2,0,0.4,0.1,0.5c2.9,4,5.1,8.3,6.4,13.1c0.6,2.4,1.1,4.9,1.4,7.4c0.4,2.6,0.7,5.3,0.9,7.9
		c0.2,2.4,0.1,4.7,0,7.1h1.8c0.1-2.1,0.1-4.2,0-6.3c-0.1-2.6-0.5-5.3-0.8-7.9c-0.6-5.1-1.6-10-3.7-14.7c-1.2-2.7-2.7-5.1-4.4-7.5
		c-0.1-0.1-0.2-0.3-0.4-0.3c0,0,0-0.1,0-0.1c0-1.4,0-2.9,0.1-4.3c0-0.2,0-0.4,0-0.6c0-0.2,0-0.3-0.1-0.5c2.2-3.4,4.3-6.7,6.5-10.1
		c0.3-0.5,0.6-1,1-1.5c0.4-0.7-0.2-1.3-0.8-1.3C114.4,117.8,114.1,117.9,113.9,118.2z"/>
	<path class="st2" d="M79.1,137.2c3.5,0.2,6.9,0.4,10.4,0.7c3,0.2,6,0.4,9,0.6c1.5,0.1,2.9,0.3,4.4,0.3c0,0,0,0,0.1,0
		c1.1,0.1,1.1-1.7,0-1.8c-1.2-0.1-2.4-0.2-3.6-0.2c-2.9-0.2-5.8-0.4-8.7-0.5c-3.5-0.2-6.9-0.4-10.4-0.7c-3-0.2-6-0.4-9-0.6
		c-1-0.1-2-0.2-3-0.2c0.1-1.6,0.2-3.2,0.2-4.8c0-0.5-0.4-0.9-0.9-0.9c0,0,0,0,0,0c-0.1,0-0.2,0-0.3,0.1c-0.3,0.1-0.6,0.4-0.6,0.8
		c-0.1,1.6-0.2,3.2-0.2,4.8c-0.8,0.2-0.7,1.6,0.3,1.7c0.1,0,0.2,0,0.3,0c1.1,0.1,2.2,0.1,3.3,0.2C73.4,136.9,76.3,137.1,79.1,137.2z
		"/>
	<path class="st2" d="M104.8,36.4c-1.6-1.6-2.6-3.5-3.2-5.6c-0.6-2.2-0.8-4.4-1-6.7c0-0.7-0.7-0.9-1.1-0.8c-0.2,0-0.5,0.1-0.6,0.3
		c-1.4,1.6-2.9,3.1-4.8,4.2c-1.8,1-3.9,1.3-5.9,1.1c-0.3,0-0.6,0.2-0.8,0.5c-0.1,0.1-0.1,0.2-0.1,0.4c0,0.5,0.4,0.8,0.9,0.9
		c2.3,0.2,4.6-0.2,6.7-1.3c1.6-0.8,3-2,4.2-3.3c0.2,1.8,0.4,3.6,0.9,5.4c0.7,2.3,1.9,4.5,3.6,6.2c0.3,0.3,0.6,0.3,0.9,0.2
		C105,37.7,105.4,37,104.8,36.4z"/>
	<path class="st2" d="M105.3,52.4c0.1-0.7,0.2-1.4,0.2-2c0-0.2,0-0.5,0-0.7c0-1.3-0.1-2.8-1.3-3.4c-0.3-0.1-0.5-0.1-0.8,0
		c0-0.8,0-1.6-0.3-2.3c-0.3-0.9-1.3-1.7-2.2-1.6c0-0.1-0.1-0.2-0.1-0.3c-0.3-0.7-0.9-1.3-1.7-1.4c-0.7,0-1.4,0.2-1.9,0.7
		c-0.7,0.8-0.8,1.8-1,2.7c-0.6,0-1.2,0.2-1.7,0.7c-0.5,0.4-0.7,1-0.9,1.6c-0.4,1.3-0.6,2.5-0.8,3.8c-0.2,1.4-0.5,2.8-0.9,4.1
		c-0.5,1.4-1.1,2.8-2.1,4c-0.2,0.2-0.4,0.4-0.6,0.6c-0.8,0.9-1.7,1.6-2.6,2.5c-1.4,1.4-2.5,3.1-3.2,5c-0.3,0.7-0.4,1.4-0.6,2.1
		c-0.1,0.5,0.1,0.9,0.6,1.1c0.4,0.1,1-0.1,1.1-0.6c0.3-2,1.2-3.9,2.5-5.4c1.8-2.1,4.2-3.7,5.5-6.3c0.7-1.3,1.2-2.7,1.5-4.2
		c0.2-0.7,0.3-1.3,0.4-2c0.1-0.4,0.1-0.7,0.1-1.1c0-0.2,0.1-0.4,0.1-0.6c0,0,0-0.1,0-0.2c0,0,0-0.1,0-0.1c0.1-0.5,0.2-1.1,0.4-1.6
		c0.1-0.3,0.2-0.5,0.2-0.8c0.1-0.3,0.1-0.4,0.2-0.6c0.1-0.2,0.2-0.3,0.4-0.4c0.1-0.1,0.2-0.1,0.3,0.1c0.2,0.4,0.2,0.9,0.1,1.4
		c0,0.4-0.1,0.7-0.1,1.1c0,0,0,0.2,0,0.2c0,0.1,0,0.3-0.1,0.4c0,0.3-0.1,0.6-0.1,0.9c-0.2,1.6-0.5,3.3-0.7,4.9
		c-0.1,0.5,0.1,0.9,0.6,1.1c0.4,0.1,1-0.1,1.1-0.6c0.3-2.5,0.8-5,1.1-7.6c0.1-0.8,0.1-1.8-0.3-2.5c0.1-0.4,0.2-0.8,0.3-1.2
		c0.1-0.3,0.2-0.7,0.3-0.9c0.1-0.1,0.2-0.4,0.3-0.5c0.1-0.1,0.3-0.1,0.4-0.1c0,0,0,0,0,0c0,0,0,0,0,0c0,0,0.1,0.1,0.1,0.2
		c0.1,0.2,0.1,0.6,0.1,0.8c-0.1,2.7-0.3,5.3-0.5,8c-0.1,1.5-0.3,3-0.6,4.5c-0.1,0.5,0.1,0.9,0.6,1.1c0.4,0.1,1-0.1,1.1-0.6
		c0.5-3.1,0.8-6.3,1-9.5c0-0.8,0.1-1.6,0.1-2.4c0-0.1,0-0.2,0-0.2c0,0,0,0,0,0c0.1-0.1,0.1-0.1,0.1-0.1c0.1,0,0.2,0.1,0.3,0.2
		c0.3,0.4,0.2,1,0.2,1.4c0,1.1-0.1,2.2-0.2,3.3c-0.2,2.4-0.6,4.8-1.1,7.1c-0.1,0.5,0.1,0.9,0.6,1.1c0.4,0.1,1-0.1,1.1-0.6
		c0.6-2.9,1-5.8,1.2-8.7c0-0.1,0-0.1,0-0.2c0,0,0.1,0.1,0.1,0.1c0,0,0,0,0,0c0,0,0,0,0,0c0,0,0,0,0,0c0,0,0,0.1,0.1,0.1c0,0,0,0,0,0
		c0,0,0,0,0,0c0,0.1,0,0.1,0.1,0.2c0,0.1,0.1,0.4,0.1,0.4c0.1,0.5,0,1.3,0,1.9c0,0.6-0.1,1.2-0.2,1.8c-0.1,0.7-0.1,1.4-0.1,2.1
		c-0.1,1.4-0.6,2.6-1.4,3.8c-1.1,1.6-2.4,2.9-3.9,4.2c-0.8,0.7-1.5,1.3-2.3,2.1c-0.7,0.7-1.3,1.4-1.9,2.2c-1.2,1.4-2.2,2.9-2.4,4.8
		c-0.1,1.1,0.1,2.2,0.2,3.2c0.1,1.2,0.1,2.3,0.2,3.5c0.1,2.4,0.2,4.7,0.5,7.1c0.6,5.2,1.6,10.4,2.1,15.7c0.1,0.5,0.4,0.9,0.9,0.9
		c0.4,0,0.9-0.4,0.9-0.9c-0.2-2-0.5-4-0.8-6c-0.4-2.8-0.8-5.5-1.2-8.3c-0.3-2.3-0.5-4.7-0.6-7c0-0.1,0-0.1,0-0.2
		c0.2,0.2,0.6,0.2,0.9,0c3.7-2.2,7.4-4.5,11.1-6.7c0.5-0.3,1-0.6,1.6-1c0.4-0.3,0.5-0.7,0.4-1c-0.2-0.5-0.7-0.8-1.2-0.5
		c-3.7,2.2-7.4,4.5-11.1,6.7c-0.5,0.3-1,0.6-1.6,1c0,0-0.1,0-0.1,0.1c0-0.7-0.1-1.3-0.1-2c-0.1-1.2-0.2-2.4-0.3-3.6
		c-0.1-1.7,0.9-3.1,1.9-4.4c0.7-0.8,1.3-1.6,2-2.3c0.7-0.7,1.5-1.3,2.2-2c1.5-1.4,2.9-2.8,4.1-4.5c0.9-1.3,1.4-2.7,1.6-4.2
		c0,0,0-0.1,0-0.1c0-0.2,0-0.3,0-0.5C105.2,53.6,105.2,53,105.3,52.4z M99,42.2C99,42.2,99,42,99,42.2C99,42.2,99,42.2,99,42.2z
		 M99.1,42.2C99.2,42.2,99.1,42.3,99.1,42.2L99.1,42.2z"/>
	<path class="st2" d="M92,25c0.3-0.4,0.1-1-0.3-1.2c-0.4-0.3-0.9-0.1-1.2,0.3c-1.6,2.4-4.4,3.8-7.3,3.8c-0.7,0-0.9,0.6-0.8,1.1
		c0.1,0.3,0.4,0.6,0.8,0.6c1.1,0,2.3-0.2,3.3-0.5C88.7,28.4,90.7,26.9,92,25z"/>
	<path class="st2" d="M79.6,79.2c0,0,0-0.1,0-0.1c0,0,0,0,0-0.1c0,0,0-0.1,0-0.1c0-0.1,0-0.1,0-0.2c-0.8-2.2-1.9-4.3-2.7-6.4
		c0-0.1-0.1-0.1-0.1-0.2c0,0,0,0,0,0c0,0-0.1-0.1-0.1-0.1c0,0,0,0,0,0c0,0-0.1-0.1-0.1-0.1c0,0,0,0,0,0c-0.1,0-0.1-0.1-0.2-0.1
		c0,0,0,0,0,0c0,0-0.1,0-0.1,0c0,0,0,0-0.1,0c0,0-0.1,0-0.1,0c0,0-0.1,0-0.1,0c0,0,0,0-0.1,0c-0.1,0-0.1,0-0.2,0
		c-0.4,0.1-0.8,0.6-0.6,1.1c0.8,2.2,1.9,4.3,2.7,6.4c0.2,0.4,0.6,0.7,1.1,0.6c0.1,0,0.1,0,0.2-0.1c0,0,0,0,0,0c0,0,0.1-0.1,0.1-0.1
		c0,0,0,0,0,0C79.4,79.5,79.5,79.4,79.6,79.2C79.6,79.2,79.6,79.2,79.6,79.2z"/>
	<path class="st2" d="M114.5,63.7c0,0,0-0.1,0-0.1c0-0.2,0-0.3,0-0.5c0-0.2,0-0.3,0-0.5c0-0.1,0-0.1,0-0.2c0,0,0-0.1,0-0.1
		c0,0,0,0,0,0c0.1-0.3,0.1-0.6,0.2-0.9c0-0.1,0-0.1,0.1-0.2c0,0,0-0.1,0.1-0.2c0,0,0.1-0.1,0.1-0.2c0-0.1,0.1-0.1,0.1-0.2
		c0.1-0.1,0.2-0.3,0.2-0.4c0,0,0,0,0,0c0.1-0.1,0.1-0.1,0.2-0.2c0.8-0.8-0.4-2-1.2-1.2c-1.1,1.1-1.5,2.7-1.6,4.2
		c0,1.6,0.5,3.2,1.8,4.2c0.6,0.4,1.3,0.6,2,0.6c0.2,0,0.4,0,0.6,0c0.5-0.1,0.9-0.4,0.9-0.9c0-0.4-0.4-0.9-0.9-0.9
		c-0.2,0-0.4,0-0.5,0c-0.1,0-0.2,0-0.3,0c0,0,0,0,0,0c0,0-0.1,0-0.1,0c-0.1,0-0.3-0.1-0.4-0.1c0,0,0,0,0,0c0,0,0,0,0,0
		c-0.1,0-0.2-0.1-0.2-0.1c-0.1,0-0.1-0.1-0.1-0.1c0,0,0,0,0,0c-0.1-0.1-0.2-0.2-0.3-0.3c0,0-0.1-0.1-0.1-0.1c0-0.1-0.1-0.1-0.1-0.2
		c0-0.1-0.1-0.1-0.1-0.2c0,0,0-0.1-0.1-0.1c0-0.1,0-0.1-0.1-0.2c-0.1-0.2-0.1-0.4-0.2-0.6C114.5,63.8,114.5,63.8,114.5,63.7z
		 M115.3,60.2C115.2,60.3,115.2,60.3,115.3,60.2L115.3,60.2z M114.5,62.3C114.5,62.4,114.5,62.4,114.5,62.3L114.5,62.3z"/>
	<path class="st2" d="M197.2,24.7c0,0.1,0.1,0.2,0.1,0.4c0,0.1,0.1,0.3,0.1,0.4c0,0.1,0,0.2,0,0.2c0,0,0,0,0,0c0,0,0,0.1,0,0.1
		c0,0.4,0.1,0.8,0,1.3c0,0.2-0.2,0.8-0.3,1c-0.2,0.4-0.5,0.6-0.9,0.9c-0.5,0.3-1.1,0.3-1.6,0.3c-1-0.1-1.6-0.8-2.1-1.5
		c-0.3-0.4-0.5-0.8-0.7-1.3c-0.1-0.1-0.1-0.3-0.2-0.4c-0.1-0.1-0.1-0.1,0-0.1c-0.2-0.4-0.6-0.7-1.1-0.6c-0.9,0.3-1.8,0.6-2.7,0.9
		c-0.2,0.1-0.3,0.2-0.4,0.3c-0.4,0.1-0.7,0.5-0.6,1c0,0.1,0.1,0.3,0.1,0.4c0,0,0,0,0,0c0,0,0,0,0,0c0,0.1,0,0.2,0,0.2
		c0,0.2,0,0.4,0,0.6c0,0.2,0,0.4,0,0.7c0,0,0,0,0,0c0,0,0,0,0,0c0,0,0,0.1,0,0.1c0,0.1-0.1,0.3-0.1,0.4c0,0.1-0.1,0.2-0.1,0.4
		c0,0,0,0.1-0.1,0.1c0,0,0,0.1,0,0.1c-0.1,0.1-0.1,0.2-0.2,0.4c0,0.1-0.1,0.1-0.1,0.2c0,0-0.1,0.1-0.1,0.1c-0.8,1-2.2,1.5-3.5,1.4
		c-0.5,0-1-0.2-1.5-0.5c0,0-0.1-0.1-0.1-0.1c0,0,0,0,0,0c0,0,0,0,0,0c-0.1-0.1-0.2-0.2-0.3-0.3c-0.1-0.1-0.2-0.2-0.3-0.3
		c0,0-0.1-0.1-0.1-0.1c0,0,0-0.1-0.1-0.1c0,0,0,0,0,0c-0.3-0.4-0.5-0.8-0.7-1.2c0,0,0,0,0,0c0,0,0,0,0,0c0-0.1,0-0.1-0.1-0.2
		c0-0.1,0-0.1-0.1-0.2c-0.1-0.4-0.6-0.8-1.1-0.6c-1.3,0.4-2.5,0.8-3.8,1.2c-1.1,0.3-0.6,2,0.5,1.7c1-0.3,2-0.7,3-1
		c0.7,1.6,2.1,3,3.9,3.3c1.8,0.3,3.7-0.2,5.1-1.4c1-0.9,1.5-2.2,1.7-3.6c0.1-0.6,0-1.1,0-1.7c0.6-0.2,1.1-0.4,1.7-0.6
		c0.8,1.6,1.9,3.1,3.6,3.6c1.5,0.3,3.2,0,4.3-1.2c0.3-0.3,0.5-0.7,0.7-1.1c0.3-0.7,0.4-1.4,0.4-2.2c0-0.7-0.1-1.5-0.3-2.2
		c-0.2-0.5-0.6-0.7-1-0.6C197.4,23.7,197,24.1,197.2,24.7z"/>
	<path class="st1" d="M189,54.8c0,0.3,0,0.5,0.1,0.8c0.3-0.4,0.7-0.8,1-1.2c0.3-0.3,0.6-0.7,0.9-1l0.5-1c-0.2-0.1-0.4-0.3-0.5-0.5
		c-0.4-1.4-1.2-2.5-2.3-3.5c-0.3-0.3-0.8-0.7-1.1-0.2c-0.3,0.5,0,1.2,0.2,1.8C188.3,51.5,188.8,53.1,189,54.8z"/>
	<path class="st1" d="M207.6,63.9C207.6,64,207.7,64,207.6,63.9C207.6,63.9,207.6,63.9,207.6,63.9z"/>
	<path class="st1" d="M207.6,63.9c0,0,0-0.1-0.1-0.2c0,0-0.1-0.1-0.1-0.1c0,0,0,0,0-0.1c0,0,0,0,0,0c-0.1-0.1-0.1-0.2-0.2-0.2
		c0,0-0.1-0.1-0.1-0.1c-0.1-0.1-0.3-0.2-0.5-0.3c-0.7-0.5-1.5-0.9-2.1-1.5c-0.3-0.3-0.6-0.7-0.7-1.2c-0.1-0.6,0.1-1.2,0.1-1.9
		c0.1-0.7,0-1.3-0.5-1.8c-0.5-0.5-1.1-0.9-1.5-1.4c-0.3-0.4-0.4-0.8-0.6-1.2c-0.1-0.2-0.2-0.3-0.4-0.4c-0.2-0.1-0.4,0-0.6,0
		c-0.4,0.1-0.8,0.2-1.3,0.3c-1,0.2-1.6-1.1-0.7-1.6c0.6-0.4,0.9-1,1.3-1.5c0.3-0.5,0.9-1,1-1.7c0-0.5-0.3-1.1-0.7-1.2c0,0,0,0,0,0
		c0,0,0,0,0,0c0,0,0,0,0,0c0,0,0,0,0,0c0,0,0,0,0,0c0,0,0,0,0,0c0,0,0,0,0,0c0,0,0,0,0,0c0,0,0,0,0,0c0,0,0,0,0,0c0,0,0,0,0,0
		c0,0,0,0,0,0c0,0,0,0,0,0c-0.1,0-0.2,0-0.3,0c0,0-0.1,0-0.1,0c-0.2,0-0.6,0.1-0.8,0.3c-1.4,0.6-2.2,1.7-3.2,2.8
		c-1,1.2-2.1,2.3-3.2,3.5c-1,1.1-2,2.3-2.9,3.5c-0.9,1.2-1.6,2.5-1.8,4c-0.2,1.6,0,3.2,0.3,4.7c0.3,1.6,0.6,3.3,0.7,4.9
		c0.2,3.1-0.1,6.2-0.5,9.3c2.6,0.3,5.3,0.6,7.9,0.9c0.8,0.1,1.5,0.2,2.3,0.3c0-0.6,0-1.3-0.1-1.8c-0.1-0.5-0.2-1.1-0.2-1.7
		c0.1-1.6,1.1-2.5,2.2-3.6c2.2-2.1,4.2-4.4,5.7-7.1c0.4-0.6,0.7-1.3,0.9-2c0.1-0.4,0.3-0.7,0.4-1.1c0-0.2,0.1-0.3,0.1-0.5
		c0-0.1,0-0.1,0-0.2c0,0,0,0,0,0C207.6,64,207.6,64,207.6,63.9z"/>
	<path class="st2" d="M174.6,68.5c2.5,1.9,5.1,3.7,7.8,5.5c0.5,0.4,1.1,0.7,1.6,1.1c0.5,0.3,1.2,0,1.3-0.5c0.4-1.8,0.8-3.6,1.2-5.4
		c0.2-1.1-1.4-1.6-1.7-0.5c-0.3,1.4-0.6,2.8-1,4.2c-4.2-2.7-8.3-5.6-12.1-8.8c-1.5-1.2-2.9-2.5-4.3-3.8c-0.8-0.8-2,0.4-1.2,1.2
		C168.7,64.1,171.6,66.3,174.6,68.5z"/>
	<path class="st2" d="M167.1,51.2c-0.3,0.4-0.1,0.9,0.3,1.2c4.1,2.8,8.3,5.6,12.7,7.9c1.5,0.8,3.1,1.6,4.7,2.3
		c0.4,0.2,1-0.2,1.1-0.6c0-0.1,0-0.1,0-0.2c0-0.4-0.3-0.7-0.6-0.9c-0.6-0.2-1.1-0.5-1.8-0.8c-0.7-0.3-1.4-0.7-2.1-1.1
		c-1.5-0.8-3-1.6-4.4-2.5c-2.5-1.5-4.9-3-7.3-4.7c-0.2-0.1-0.4-0.3-0.6-0.4c0-0.1,0.1-0.2,0.1-0.3c0-1.7-0.1-3.3-0.1-5
		c0-0.2,0-0.5,0-0.7c0-0.5-0.4-0.9-0.9-0.9c-0.3,0-0.5,0.1-0.7,0.3c-0.1,0.1-0.2,0.3-0.2,0.5c0,1.7,0.1,3.3,0.1,5c0,0.1,0,0.3,0,0.4
		c-0.1,0-0.1,0.1-0.2,0.1C167.2,51.1,167.1,51.1,167.1,51.2z"/>
	<path class="st2" d="M190.7,95.9c2.8,0.2,5.5,0.5,8.3,0.7c0.4,0,0.8,0.1,1.2,0.1c0.5,0,0.9-0.4,0.9-0.9c0-0.5-0.4-0.8-0.9-0.9
		c-2.8-0.2-5.5-0.5-8.3-0.7c-0.4,0-0.8-0.1-1.2-0.1c-0.5,0-0.9,0.4-0.9,0.9C189.8,95.5,190.2,95.9,190.7,95.9z"/>
	<path class="st12" d="M201.4,97.3C201.4,97.3,201.4,97.3,201.4,97.3c0-0.1,0-0.1,0-0.1C201.4,97.1,201.4,97.1,201.4,97.3z"/>
	<path class="st12" d="M203.2,97.2C203.2,97.2,203.2,97.2,203.2,97.2C203.2,97.2,203.2,97.2,203.2,97.2
		C203.2,97.1,203.2,97.1,203.2,97.2z"/>
	<path class="st2" d="M157.9,73.3c2.2-0.4,4.6-0.4,6.8,0.3c2,0.6,3.6,1.7,4.9,3.3c1.2,1.4,2.3,3,3.4,4.6c1.4,2,2.8,4.1,4.2,6.1
		c1.5,2.2,3,4.3,4.7,6.4c0.3,0.4,0.9,0.3,1.2,0c0.4-0.4,0.3-0.9,0-1.2c-3-3.8-5.7-7.9-8.5-11.9c-1.2-1.7-2.4-3.4-3.7-5
		c-1.4-1.7-3.1-2.9-5.2-3.7c-2.6-1-5.6-1-8.3-0.5c-0.5,0.1-0.7,0.6-0.6,1.1C157,73.2,157.5,73.4,157.9,73.3z"/>
	<path class="st2" d="M81.5,30.2c0.1-0.4,0.1-0.8,0.2-1.1c1-4.5,4.3-8.5,8.7-10.1c0.4-0.2,0.7-0.6,0.6-1.1c-0.1-0.4-0.6-0.8-1.1-0.6
		c0,0,0,0,0,0c-4.2,1.5-7.5,4.8-9.2,8.9c-0.5,1.1-0.8,2.3-1,3.5c0,0.3,0,0.6,0.2,0.9c0.1,0.1,0.2,0.2,0.4,0.2
		C80.8,30.9,81.4,30.6,81.5,30.2z"/>
	<path class="st2" d="M234.2,105.9c-1.6-3.6-3.6-7.1-5.5-10.6c-1.8-3.5-3.7-7-5.5-10.5c-1.9-3.7-3.7-7.3-5.5-11
		c-0.8-1.6-1.6-3.2-2.7-4.7c-0.9-1.2-2.1-2.3-3.2-3.2c-0.7-0.6-1.4-1.1-2.1-1.6c-0.1-0.1-0.2-0.1-0.3-0.1c0,0,0-0.1,0-0.1
		c0.1-1-0.6-1.8-1.4-2.4c-0.4-0.3-0.7-0.5-1.1-0.7c-0.2-0.1-0.4-0.2-0.5-0.3c-0.1-0.1-0.2-0.1-0.3-0.2c0,0,0,0,0,0
		c-0.1,0-0.1-0.1-0.2-0.1c-0.1-0.1-0.1-0.1-0.2-0.2c0,0,0-0.1-0.1-0.1c0,0,0,0,0,0c0-0.1-0.1-0.1-0.1-0.2c0,0,0-0.1,0-0.2
		c0,0,0,0,0,0c0,0,0-0.1,0-0.1c0,0,0,0,0,0c0-0.1,0-0.2,0.1-0.2c0.1-0.4,0.2-0.9,0.2-1.4c0-1-0.3-1.9-1-2.6
		c-0.5-0.5-1.3-0.9-1.6-1.6c-0.2-0.4-0.3-0.9-0.6-1.2c-0.3-0.3-0.7-0.6-1.1-0.7c-0.1,0-0.2,0-0.3-0.1c0.1-0.1,0.2-0.3,0.3-0.4
		c0.2-0.3,0.5-0.6,0.6-0.9c0.7-1.4,0.3-3.3-1.1-4.1c-0.3-0.2-0.6-0.3-1-0.3c-1.1-0.1-2.2,0.4-3.1,1c-1.4,0.9-2.3,2.3-3.5,3.6
		c-0.3,0.3-0.6,0.6-0.9,1c0-0.1,0-0.1,0-0.2c-0.4-1.3-1.1-2.5-2-3.5c-0.9-1-2.3-2.2-3.7-1.4c-1.3,0.8-1.4,2.4-0.9,3.7
		c0.3,0.9,0.6,1.7,0.9,2.6c-4-0.3-8-1.9-11.1-4.5c-0.4-0.3-0.9-0.4-1.2,0c-0.3,0.3-0.4,0.9,0,1.2c3.6,3,8,4.8,12.7,5.1
		c0.2,1.2,0.2,2.5,0.1,3.7c-0.1,0.1-0.1,0.2-0.2,0.3c-0.6,1.1-0.9,2.2-1,3.3c-0.1,0.6-0.1,1.2-0.1,1.8c0.1,1.8,0.5,3.6,0.8,5.4
		c0.7,3.9,0.3,7.8-0.2,11.7c-0.3,0-0.6-0.1-1-0.1c-0.5-0.1-0.9,0.4-0.9,0.9c-0.1,2.8-0.2,5.7-0.4,8.5c-0.2,4.5-0.4,9-0.6,13.5
		c0,1-0.1,2-0.1,3.1c0,1.1,1.7,1.1,1.8,0c0.1-2.8,0.2-5.7,0.4-8.5c0.2-4.5,0.4-9,0.6-13.5c0-0.7,0.1-1.4,0.1-2.1
		c1.5,0.2,3.1,0.4,4.6,0.5c2.9,0.3,5.8,0.7,8.7,1c0.4,0,0.8,0.1,1.1,0.1c0.1,3.1,0.2,6.1,0.3,9.2c0,0.5,0,0.9,0,1.4
		c0,0.6,0.5,0.8,0.9,0.8c0.4,0,0.9-0.3,0.8-0.8c-0.1-3.3-0.2-6.6-0.3-9.9c0-0.5,0-0.9,0-1.4c0-0.5-0.4-0.8-0.9-0.9
		c-0.5-0.1-1-0.1-1.4-0.2c0-0.7,0-1.3-0.1-2c-0.1-0.6-0.2-1-0.2-1.6c0-0.5,0.1-0.8,0.3-1.2c0.4-0.6,0.9-1,1.4-1.4
		c2.3-2.2,4.5-4.7,6-7.6c0.4-0.7,0.7-1.5,1-2.3c0-0.1,0.1-0.2,0.1-0.3c2.4,1.8,4.6,3.8,6.1,6.5c1,1.8,1.8,3.6,2.7,5.4
		c0.9,1.8,1.8,3.6,2.7,5.3c3.6,7,7.4,13.9,11,20.9c1.4,2.7,2.9,5.7,3.2,8.8c0.1,1.5,0,2.9-0.6,4.3c-0.6,1.5-1.7,2.7-3,3.7
		c-2.6,2-5.9,2.8-8.9,3.9c-2.4,0.9-4.8,1.7-7.3,2.4c-0.3,0.1-0.6,0.2-0.8,0.3c-4,1.2-7.9,2.3-11.9,3.4c0.6-1.8,0.6-3.9-0.1-5.7
		c0.3-0.5,0.6-1,0.8-1.5c1.4-3.2,1-6.8,0.9-10.2c-0.1-5.4-0.2-10.8-0.4-16.2c0-0.1,0-0.1,0-0.1c0,0,0,0.1,0,0.1c0-0.1,0-0.1,0-0.2
		c0-0.2,0-0.3-0.1-0.5c-0.2-0.4-0.5-0.5-0.8-0.4c-0.3,0.1-0.6,0.3-0.8,0.6c0,0.1,0,0.2,0,0.2c0,0,0,0,0,0c0,0,0,0,0,0.1c0,0,0,0,0,0
		c0,0,0,0,0,0c0,0,0,0,0,0c0,0.1,0,0.1,0,0.2c0,0.3,0,0.6,0,0.9c0,1,0.1,2,0.1,3c0.1,3.1,0.2,6.3,0.2,9.4c0,1.8,0.1,3.6,0.1,5.4
		c0,1.6,0.1,3.2-0.2,4.8c-0.6,2.7-2.2,5.2-4.6,6.6c-2.3,1.4-5.2,1.7-7.7,0.6c-1.4-0.6-2.6-1.5-3.7-2.4c-1-0.8-2.1-1.7-3.1-2.6
		c-2.6-2.3-5.2-4.7-7.6-7.2c-1.9-1.9-3.7-3.8-5.5-5.8c-3.3-3.6-6.6-7.4-10-10.9c-0.3-0.3-0.5-0.5-0.8-0.8c-0.8-0.8-2.1,0.5-1.2,1.2
		c1.4,1.3,2.7,2.8,4,4.2c1.9,2,3.7,4.1,5.6,6.2c1.9,2.1,3.8,4.1,5.8,6.2c2.5,2.5,5,5,7.6,7.4c2.1,1.9,4.3,3.8,6.8,5.3
		c2.7,1.7,6.2,2.1,9.2,0.9c1.6-0.6,3-1.7,4.1-2.9c0,0.1,0,0.1,0,0.2c0,0,0,0.1,0,0.1c0,0,0,0.1,0,0.1c0.1,1.5-0.1,2.9-0.8,4.2
		c-0.2,0.4-0.1,1,0.3,1.2c0.3,0.2,0.7,0.1,0.9,0c0.2,0.1,0.4,0.1,0.6,0c3.7-1,7.4-2,11-3.1c0.8-0.2,1.5-0.5,2.3-0.7
		c2.1-0.6,4.2-1.3,6.3-2.1c1.4-0.5,2.8-1,4.2-1.5c1.7-0.6,3.3-1.2,4.9-2.1c3.1-1.7,5.4-4.6,5.9-8.1
		C236.6,112.1,235.5,108.8,234.2,105.9z M187.6,48.1c0.3-0.5,0.7-0.1,1.1,0.2c1.1,0.9,1.9,2.1,2.3,3.5c0.1,0.3,0.3,0.4,0.5,0.5
		c0.1,0.1,0.3,0.1,0.4,0.1c-0.3,0.3-0.6,0.6-0.9,1c-0.3,0.3-0.6,0.7-0.9,1c-0.3,0.4-0.7,0.8-1,1.2c0-0.3,0-0.5-0.1-0.8
		c-0.2-1.7-0.6-3.3-1.2-4.9C187.5,49.4,187.2,48.7,187.6,48.1z M207.6,64.3c0,0.2-0.1,0.3-0.1,0.5c-0.1,0.4-0.2,0.8-0.4,1.1
		c-0.3,0.7-0.6,1.3-0.9,2c-1.5,2.7-3.5,5-5.7,7.1c-1.1,1-2.1,2-2.2,3.6c0,0.6,0.1,1.2,0.2,1.7c0.1,0.6,0.1,1.2,0.1,1.8
		c-0.8-0.1-1.5-0.2-2.3-0.3c-2.6-0.3-5.3-0.6-7.9-0.9c0.4-3.1,0.7-6.2,0.5-9.3c-0.1-1.7-0.4-3.3-0.7-4.9c-0.3-1.6-0.6-3.2-0.3-4.7
		c0.2-1.5,0.9-2.8,1.8-4c0.9-1.2,1.9-2.4,2.9-3.5c1.1-1.2,2.2-2.3,3.2-3.5c0.9-1.1,1.8-2.2,3.2-2.8c0.3-0.1,0.6-0.2,0.8-0.3
		c0,0,0,0,0.1,0c0.1,0,0.2,0,0.3,0c0,0,0,0,0,0l0,0v0c0,0,0,0,0,0c0,0,0,0,0,0c0,0,0,0,0,0c0,0,0,0,0,0c0,0,0,0,0,0c0,0,0,0,0,0
		c0,0,0,0,0,0c0,0,0,0,0,0c0,0,0,0,0,0c0,0,0,0,0,0c0,0,0,0,0,0c0,0,0,0,0,0c0.4,0.2,0.7,0.7,0.7,1.2c0,0.6-0.6,1.2-1,1.7
		c-0.4,0.5-0.7,1.2-1.3,1.5c-0.9,0.5-0.3,1.8,0.7,1.6c0.4-0.1,0.8-0.2,1.3-0.3c0.2-0.1,0.4-0.1,0.6,0c0.2,0.1,0.3,0.2,0.4,0.4
		c0.2,0.4,0.3,0.8,0.6,1.2c0.4,0.5,1,0.9,1.5,1.4c0.5,0.5,0.5,1.1,0.5,1.8c-0.1,0.6-0.3,1.2-0.1,1.9c0.1,0.5,0.4,0.9,0.7,1.2
		c0.6,0.6,1.4,1,2.1,1.5c0.2,0.1,0.3,0.2,0.5,0.3c0,0,0.1,0.1,0.1,0.1c0.1,0.1,0.2,0.2,0.2,0.2c0,0,0,0,0,0c0,0,0,0,0,0.1
		c0,0,0,0.1,0.1,0.1c0,0,0,0.1,0.1,0.2c0,0.1,0,0.1,0,0.2c0,0,0,0,0,0C207.6,64.1,207.6,64.2,207.6,64.3z M207.6,63.9
		C207.6,63.9,207.6,63.9,207.6,63.9C207.7,64,207.6,64,207.6,63.9z M203.2,97.4C203.1,97.4,203.1,97.4,203.2,97.4
		C203.1,97.4,203.1,97.4,203.2,97.4C203.1,97.4,203.1,97.4,203.2,97.4z"/>
	<path class="st2" d="M180.4,132.3c-0.3-0.2-0.7-0.1-1,0.2c-0.7,0.6-1.5,1.2-2.3,1.8c-0.4,0.3-0.9,0.6-1.3,0.8
		c-0.4,0.2-0.8,0.5-1.2,0.5c-0.6,0-1.2-0.5-1.6-0.9c-0.5-0.5-0.9-1.1-1.4-1.7c0,0-0.1-0.1-0.1-0.1c0.1-0.1,0.2-0.3,0.2-0.4
		c0,0,0.1-0.1,0.1-0.1c1.6-1.6,3.3-3.2,4.9-4.7c0.3-0.3,0.3-0.9,0-1.2c-0.4-0.3-0.9-0.3-1.2,0c-1.6,1.6-3.2,3.1-4.9,4.7
		c-0.3-0.3-0.6-0.6-0.7-1c-0.1-0.3-0.2-0.6,0-0.9c0.1-0.3,0.5-0.5,0.8-0.7c1.5-1.2,3.1-2.4,4.6-3.6c0.4-0.3,0.3-0.9,0-1.2
		c-0.4-0.4-0.9-0.3-1.2,0c-0.9,0.7-1.8,1.4-2.7,2.1c-0.5,0.4-0.9,0.7-1.4,1.1c-0.4,0.3-0.8,0.6-1.2,1c-0.7,0.8-0.9,1.9-0.6,2.9
		c0.4,1,1.1,1.7,1.9,2.3c-0.2,0.3-0.3,0.7-0.1,1c0.1,0.1,0.1,0.1,0.2,0.2c0,0,0,0.1,0,0.1c0,0.6,0.2,1.3-0.2,1.8
		c-0.3,0.3-0.5,0.3-0.7,0c-0.4-0.5-0.6-1.2-0.9-1.8c-0.3-0.7-0.6-1.4-0.9-2.2c-0.3-0.7-0.5-1.5-0.8-2.2c-0.2-0.7-0.6-1.5-0.7-2.2
		c-0.1-0.7,0.4-1,0.9-1.4c0.6-0.5,1.2-1,1.9-1.6c1.4-1.2,2.9-2.4,4.3-3.6c0.4-0.3,0.3-0.9,0-1.2c-0.4-0.4-0.9-0.3-1.2,0
		c-0.5,0.4-1.1,0.9-1.6,1.3c-0.2-0.2-0.4-0.3-0.7-0.2c-0.5,0.1-1,0.1-1.5,0.1c-0.3,0-0.6,0-0.9,0c-0.2,0-0.5,0-0.7,0.1
		c-0.1,0-0.2,0.1-0.2,0.1c-0.1,0-0.3,0.1-0.4,0.3c-1.4,1.5-2.7,3.2-4.1,4.7c-0.3,0.3-0.6,0.8-1,0.9c-0.3,0.1-0.6,0.1-0.9,0
		c0,0-0.2-0.1-0.2-0.1c0,0-0.1-0.1-0.1-0.1c0,0-0.1-0.1-0.1-0.1c0,0,0,0,0,0c0,0,0,0,0-0.1c0,0,0,0,0-0.1c0,0,0,0,0,0
		c0-0.1,0-0.1,0-0.2c0,0,0-0.1,0-0.2c0-0.1,0.1-0.2,0.2-0.3c0.1-0.2,0.3-0.4,0.5-0.6c0.3-0.5,0.7-0.9,1-1.4c0.6-0.8,1.1-1.7,1.7-2.5
		c0.5-0.7,1-1.3,1.6-1.9c0.2-0.2,0.5-0.4,0.7-0.6c0.3-0.2,0.5-0.3,0.8-0.4c0.8-0.3,1.5-0.3,2.3-0.4c1.2-0.1,2.3-0.2,3.5-0.3
		c0.5-0.1,0.7-0.7,0.6-1.1c0-0.2-0.1-0.3-0.2-0.4c-0.2-0.2-0.5-0.3-0.9-0.2c-1.1,0.1-2.2,0.2-3.3,0.3c-0.9,0.1-1.7,0.1-2.5,0.4
		c-1.8,0.6-3,2.1-4,3.5c-0.7,0.9-1.3,1.9-2,2.9c-0.3,0.5-0.7,1-1.1,1.4c-0.3,0.4-0.6,0.8-0.6,1.3c-0.2,0.9,0.2,1.8,1,2.4
		c0.8,0.5,2,0.5,2.8,0.1c0.7-0.3,1.1-0.9,1.6-1.5c0.4-0.5,0.9-1,1.3-1.5c0.8-1,1.7-2,2.5-2.9c0.4,0,0.9,0,1.3-0.1c0,0,0.1,0,0.1,0
		c-0.4,0.3-0.7,0.6-1.1,0.9c-0.7,0.6-1.5,1.1-2.1,1.8c-0.7,0.7-1,1.6-0.8,2.6c0.2,0.9,0.5,1.8,0.8,2.7c0.3,0.9,0.6,1.8,1,2.7
		c0.4,0.9,0.7,1.8,1.1,2.7c0.3,0.7,0.7,1.4,1.4,1.7c0.9,0.4,1.9,0.1,2.5-0.6c0.3-0.3,0.4-0.7,0.5-1.1c0.7,0.7,1.5,1.2,2.6,1.2
		c1.2,0.1,2.3-0.8,3.2-1.4c1-0.7,2-1.4,2.9-2.2c0.4-0.3,0.3-0.9,0-1.2C180.6,132.4,180.5,132.3,180.4,132.3z"/>
	<path class="st2" d="M210.4,110.8c0.4,0.1,1-0.1,1.1-0.6c1.3-7.6,1.9-15.3,2.1-23.1c0-2.2,0-4.4,0-6.6c0-1.1-1.8-1.1-1.8,0
		c0.1,7.6-0.2,15.3-1.1,22.8c-0.3,2.1-0.6,4.3-0.9,6.4C209.7,110.2,209.9,110.6,210.4,110.8z"/>
	<path class="st2" d="M214.1,131c0.1,2.6,0.2,5.3,0.3,7.9c0.2,4.2,0.3,8.3,0.5,12.5c0,1,0.1,1.9,0.1,2.9c0,0.7,0.6,0.9,1.1,0.8
		c0.3-0.1,0.6-0.4,0.6-0.8c-0.1-2.6-0.2-5.3-0.3-7.9c-0.2-4.2-0.3-8.3-0.5-12.5c0-1-0.1-1.9-0.1-2.9c0-0.5-0.4-0.8-0.8-0.8
		C214.6,130.1,214.1,130.4,214.1,131z"/>
	<path class="st2" d="M165.2,61c0.6-2.3,1.3-4.6,1.9-6.9c0.2-0.7-0.4-1.1-0.9-1.1c-0.3,0-0.7,0.2-0.8,0.6c-0.6,2.3-1.3,4.6-1.9,6.9
		c0,0,0,0,0,0C163.3,61.6,164.9,62.1,165.2,61z"/>
	<path class="st2" d="M88.5,122.5c1.9,0.9,4.2,1.1,6.2,0.7c0.9-0.2,1.9-0.5,2.6-1.1c0.4-0.3,0.7-0.6,1-0.9c0.1-0.2,0.3-0.4,0.4-0.6
		c0.1-0.1,0.1-0.2,0.2-0.3c0,0,0,0,0,0c1.4,0.8,2.8,1.6,4.2,2.3c1,0.5,1.9-1,0.9-1.5c-1.3-0.7-2.6-1.5-4-2.2c-0.6-0.4-1.3-0.6-2-0.2
		c-0.5,0.3-0.7,0.8-1,1.3c0,0,0,0.1,0,0.1c0,0,0,0,0,0c-0.1,0.1-0.1,0.2-0.2,0.2c-0.2,0.2-0.2,0.2-0.4,0.3c-0.4,0.2-0.7,0.4-1.1,0.5
		c-0.9,0.3-1.8,0.4-2.8,0.4c-1,0-2.2-0.2-3.1-0.7c-0.4-0.2-0.9-0.1-1.2,0.3c0,0,0,0,0,0C88,121.7,88.1,122.3,88.5,122.5z M99,120.3
		C99,120.2,99,120.3,99,120.3L99,120.3z"/>
	<path class="st2" d="M101.5,117.6c1.5,1,2.9,2,4.4,3.1c0,0,0,0.1,0.1,0.1c-0.3,0.3-0.6,0.7-0.8,1.1c-0.1,0.2-0.3,0.5-0.4,0.7
		c0,0.1-0.1,0.1-0.1,0.2c0,0,0,0.1,0,0.1c0,0-0.1,0.1-0.1,0.1c0,0,0,0,0,0c0,0,0,0,0,0c0,0-0.1,0.1-0.2,0.1c0,0,0,0,0,0
		c-0.2,0-0.3,0-0.5-0.1c-0.4-0.1-0.8-0.3-1.2-0.5c-0.8-0.4-1.6-0.8-2.4-1.3c-1-0.6-1.8,0.9-0.9,1.5c0.9,0.5,1.7,1,2.7,1.4
		c1,0.4,2,0.9,3.1,0.5c0.6-0.2,1-0.7,1.3-1.2c0,0.1,0.1,0.2,0.2,0.3c0.4,0.6,1.1,1,1.8,1c1.6-0.1,1.9-2,2.2-3.3
		c0.4-1.5,0.7-3.1,0.9-4.6c0.1-0.8,0.1-1.6-0.4-2.2c-0.4-0.5-1.1-0.9-1.7-1.2c-1.1-0.7-2.3-1.4-3.4-2.1c-1-0.6-1.9,0.9-0.9,1.5
		c1,0.6,2,1.2,3,1.8c0.3,0.2,0.6,0.3,0.9,0.5c0.2,0.1,0.5,0.3,0.7,0.5c0.3,0.4,0,1.3-0.1,1.7c-0.2,1.5-0.6,3.1-1,4.6
		c-0.1,0.3-0.1,0.5-0.2,0.8c0,0-0.2,0.3-0.1,0.2c-0.5,0.1-0.5-1.1-0.6-1.3c0,0,0-0.1,0-0.1c0.2-0.3,0.1-0.7,0-1
		c0.5-0.6,1-1.2,1.1-1.9c0.2-0.9,0-1.8-0.8-2.4c-0.7-0.6-1.5-0.9-2.3-1.4c-0.8-0.5-1.6-0.9-2.5-1.4c-0.4-0.2-1-0.1-1.2,0.3
		c-0.2,0.4-0.1,1,0.3,1.2c1.4,0.8,2.7,1.5,4.1,2.3c0.1,0.1,0.3,0.1,0.4,0.2c0,0,0.1,0,0.1,0.1c0,0,0,0,0.1,0c0,0,0,0,0,0.1
		c0,0,0,0,0,0c0,0.1,0,0.1,0.1,0.2c0,0,0,0,0,0.1c0,0,0,0.1,0,0.1c0,0,0,0.1,0,0.1c0,0-0.1,0.2,0,0.2c0,0.1-0.1,0.3-0.2,0.4
		c0,0,0,0,0,0.1c-1.4-1-2.8-2-4.3-3c-0.4-0.3-1-0.1-1.2,0.3C101,116.9,101.1,117.3,101.5,117.6z"/>
	<path class="st2" d="M116.6,114.5c-0.2-1-1-1.6-1.7-2.2c-1-1-1.9-2-3-2.8c-0.5-0.4-0.9-0.7-1.4-1c-0.5-0.3-0.9-0.5-1.4-0.7
		c0.3-0.3,0.4-0.7,0.2-1.1c-2.5-3.6-4.5-7.6-8-10.3c-1.1-0.8-2.2-1.5-3.5-1.9c-0.6-0.2-1,0.2-1.1,0.7c-0.1,0.4,0.1,0.9,0.6,1
		c2,0.6,3.7,2.1,5,3.6c1.5,1.6,2.7,3.5,3.8,5.3c0.4,0.6,0.8,1.3,1.2,1.9c-0.3-0.1-0.6-0.1-0.9,0c-2.8,1.3-5.6,2.5-8.5,3.8
		c-2.1,0.9-4.3,1.8-6.4,2.7c-1,0.4-2,0.9-3.1,1.1c-1.1,0.3-2.2,0.2-3.1-0.3c-2.2-1.2-3-3.9-3.4-6.3c-0.3-1.6-0.3-3.3-0.2-5
		c0-1.5,0.1-3,0.1-4.5c0.1-4.3,0.6-8.7,1-13c0.4-4.5,1-9,1.2-13.4c0-0.4,0-0.7,0-1.1c0-1.1-1.7-1.1-1.8,0c0,0.5,0,1.1,0,1.6
		c0,0.2,0,0.3,0,0.5c0,0.4,0,0.7-0.1,1.1c0,0.2,0,0.4,0,0.6c0,0.3,0,0.7-0.1,1c0,0.2,0,0.4,0,0.5c0,0.4-0.1,0.7-0.1,1.1
		c0,0.1,0,0.3,0,0.4c0,0.4-0.1,0.8-0.1,1.3c0,0.1,0,0.1,0,0.2c-0.2,1.6-0.3,3.2-0.5,4.8c-0.5,4.6-1,9.2-1.1,13.8
		c0,1.3,0,2.6-0.1,3.8c-0.1,1.7-0.1,3.4,0,5.2c0,0.6,0.1,1.1,0.2,1.7c-2.8-1-5.7-2-8.5-3c-0.4-0.1-0.8-0.3-1.2-0.4
		c-0.4-0.1-0.9,0.1-1,0.5c0,0,0,0,0,0.1c-0.1,0.5,0.2,0.9,0.6,1.1c2.9,1,5.7,2,8.6,3c0.4,0.1,0.8,0.3,1.2,0.4c0.3,0.1,0.5,0,0.7-0.1
		c0.5,1.8,1.2,3.4,2.5,4.7c0.9,0.9,2,1.5,3.2,1.6c1.4,0.2,2.7-0.1,4-0.6c2.2-0.8,4.4-1.8,6.5-2.7c3-1.3,6-2.6,9-4
		c0.1,0,0.2,0.1,0.3,0.1c0.6-0.1,1.1-0.1,1.7-0.1c0,0,0.2,0,0.2,0c0.1,0,0.2,0.1,0.3,0.1c0.2,0.1,0,0,0.1,0.1
		c0.1,0.1,0.3,0.1,0.4,0.2c0.6,0.3,1.2,0.6,1.7,1c0.6,0.5,1.2,1.1,1.8,1.7c0.6,0.6,1.3,1.2,1.9,1.8c0.2,0.2,0.4,0.4,0.5,0.6
		c0,0.1,0,0.1,0,0.1c0,0,0,0,0,0c0,0,0,0-0.1,0c-0.2,0.1-0.4,0.2-0.6,0.3c0,0,0,0-0.1,0c0,0,0,0,0,0c-0.3-0.2-0.7-0.7-1-1
		c-1.2-1.1-2.2-2.4-3.5-3.4c-0.4-0.3-0.9-0.4-1.2,0c-0.3,0.3-0.4,0.9,0,1.2c0.7,0.5,1.3,1.2,1.8,1.8c0.6,0.6,1.2,1.2,1.8,1.7
		c0.5,0.4,0.9,0.9,1.4,1.2c0.4,0.2,0.8,0.2,1.2,0.1c0.3-0.1,0.5-0.2,0.8-0.3c0,0,0.1,0,0.1-0.1C116.3,116.2,116.8,115.5,116.6,114.5
		z M114.1,115.3C114.1,115.3,114.1,115.3,114.1,115.3C113.9,115.4,114.1,115.3,114.1,115.3z M114.3,115.3
		C114.3,115.3,114.3,115.3,114.3,115.3C114.3,115.3,114.3,115.3,114.3,115.3z"/>
	<path class="st2" d="M111.2,62.3c0-0.5-0.4-0.9-0.9-0.9c-0.5,0-0.9,0.4-0.9,0.9c0,0.1,0,0.3,0,0.4c0,0,0,0,0,0c0,0,0,0,0,0
		c0,0.1,0,0.1,0,0.2c-0.1,0.2-0.1,0.5-0.2,0.7c0,0,0,0.1,0,0.1c0,0.1-0.1,0.1-0.1,0.2c-0.1,0.1-0.1,0.2-0.2,0.3
		c-0.1,0.1-0.1,0.2-0.2,0.3c0,0,0,0,0,0c0,0,0,0,0,0c-0.1,0.1-0.1,0.1-0.2,0.2c-0.2,0.2-0.4,0.4-0.6,0.6c0,0,0,0-0.1,0
		c0,0-0.1,0.1-0.1,0.1c-0.1,0.1-0.2,0.1-0.3,0.2c-0.1,0.1-0.2,0.1-0.4,0.2c0,0-0.1,0-0.1,0.1c0,0-0.1,0-0.1,0
		c-0.3,0.1-0.5,0.2-0.8,0.2c-0.5,0.1-0.7,0.7-0.6,1.1c0,0,0,0,0,0.1c0.2,0.4,0.6,0.6,1,0.5c0.4-0.1,0.7-0.2,1.1-0.3
		C109.6,66.7,111.2,64.6,111.2,62.3z"/>
	<path class="st2" d="M215.1,107.4c0.4,0.2,1,0.1,1.2-0.3c1.1-2.4,2.2-4.8,3.4-7.2c0.2-0.4,0.1-0.9-0.3-1.2c-0.4-0.2-1-0.1-1.2,0.3
		c-1.1,2.4-2.2,4.8-3.4,7.2C214.6,106.6,214.7,107.2,215.1,107.4z"/>
	<path class="st2" d="M206.2,114.7c0.1,0,0.1,0,0.2-0.1c2.9,3.1,3,7.7,1.6,11.5c-0.2,0.4,0.2,1,0.6,1.1c0.5,0.1,0.9-0.2,1.1-0.6
		c1.5-4.2,1.3-9.2-1.6-12.7c1.2-0.5,2.4-1,3.6-1.5c2.9-1.2,5.8-2.4,8.7-3.6c0.7-0.3,1.3-0.6,2-0.8c0.4-0.2,0.7-0.6,0.6-1.1
		c-0.1-0.4-0.6-0.8-1.1-0.6c-1.8,0.8-3.7,1.5-5.5,2.3c-2.9,1.2-5.8,2.4-8.7,3.6c-0.7,0.3-1.3,0.6-2,0.8c-0.4,0.2-0.7,0.6-0.6,1.1
		C205.2,114.5,205.7,114.9,206.2,114.7z"/>
	<path class="st2" d="M207.9,133.8c0-0.5-0.4-0.9-0.9-0.9c-0.4,0-0.9,0.4-0.9,0.9c0.5,6.1,1.3,12.1,1.6,18.2
		c0.1,1.9,0.1,3.8,0.1,5.7c0,1.1,1.8,1.1,1.8,0c0-6.1-0.6-12.2-1.2-18.2C208.2,137.6,208,135.7,207.9,133.8z"/>
	<path class="st2" d="M198,130.4c-0.9,0.2-1.8,0.4-2.7,0.5c-1,0.2-2,0.3-3,0.6c0,0,0,0,0,0c0,0-0.2,0-0.2,0c0,0,0,0,0,0
		c0.1,0,0.1,0,0.2,0c0,0-0.2,0-0.2,0c0,0,0,0,0,0c-0.3,0-0.7,0.1-1,0.1c-1,0.1-1.9,0-2.9,0c-1.2-0.1-2.5-0.3-3.6-0.8
		c-0.5-0.2-1.1-0.5-1.4-0.8c-0.4-0.3-0.8-0.7-1.3-1.1c-0.5-0.3-1.1-0.5-1.7-0.4c-0.7,0.2-1.3,0.8-1.9,1.3c-1.3,1-2.5,2-3.8,3
		c-0.4,0.3-0.3,0.9,0,1.2c0.4,0.4,0.9,0.3,1.2,0c1.1-0.9,2.3-1.8,3.4-2.7c0.4-0.3,0.8-0.7,1.2-0.9c0.1,0,0.1-0.1,0.2-0.1
		c0.1-0.1,0.1-0.1,0.2-0.1c-0.1,0,0.1,0,0,0c0.2,0.1,0.4,0.3,0.6,0.4c0.9,0.8,1.8,1.4,2.9,1.8c1.2,0.5,2.5,0.7,3.9,0.8
		c0.9,0.1,2,0.2,2.9,0.1c0.5-0.1,1.1-0.1,1.6-0.2c0.9-0.2,1.8-0.4,2.7-0.5c1.1-0.2,2.1-0.4,3.2-0.6c0.5-0.1,0.7-0.6,0.6-1.1
		C198.9,130.6,198.5,130.4,198,130.4z"/>
	<path class="st2" d="M106.3,79.1c-1.8,1.8-3.4,3.7-5,5.6c-1.5,1.7-2.9,3.5-4.3,5.3c-0.3,0.4-0.6,0.7-0.9,1.1
		c-0.3,0.4-0.4,0.9,0,1.2c0.3,0.3,0.9,0.4,1.2,0c2.4-3.1,4.9-6.1,7.4-9c0.9-1,1.8-2,2.7-2.9C108.4,79.6,107.1,78.3,106.3,79.1z"/>
	<path class="st2" d="M117.8,78c0.4,0.2,0.9,0.1,1.2-0.3c0.2-0.4,0.1-1-0.3-1.2c-3.3-1.5-7.2-1.4-10.4,0.3c-1,0.5-0.1,2,0.9,1.5
		C111.9,76.9,115.1,76.7,117.8,78z"/>
	<path class="st2" d="M118.9,93.9c-1.8,4.1-3.9,8.2-6.1,12.1c-0.6,1,0.9,1.9,1.5,0.9c2.3-3.9,4.3-7.9,6.1-12.1
		c0.2-0.4,0.1-0.9-0.3-1.2C119.7,93.4,119.1,93.5,118.9,93.9z"/>
	<path class="st2" d="M107.3,63.4c0.9-2.7,0.2-5.6-0.5-8.3c0-0.1,0-0.1-0.1-0.2c0,0,0,0,0,0c0,0,0-0.1-0.1-0.1c0,0,0,0,0,0
		c0,0-0.1-0.1-0.1-0.1c0,0,0,0,0,0c0,0-0.1,0-0.1-0.1c0,0,0,0,0,0c0,0-0.1,0-0.1,0c0,0,0,0,0,0c0,0-0.1,0-0.1,0c0,0,0,0-0.1,0
		c0,0-0.1,0-0.1,0c0,0,0,0-0.1,0c0,0,0,0-0.1,0c-0.1,0-0.2,0.1-0.3,0.1c0,0,0,0,0,0c0,0-0.1,0-0.1,0.1c0,0,0,0,0,0
		c-0.1,0-0.1,0.1-0.1,0.2c0,0,0,0,0,0c0,0-0.1,0.1-0.1,0.1c0,0,0,0,0,0c0,0,0,0.1,0,0.2c0,0,0,0,0,0c0,0,0,0.1,0,0.2c0,0,0,0,0,0
		c0,0.1,0,0.1,0,0.2c0.6,2.2,1.2,4.6,0.6,6.9c-0.5,1.9-2,3.5-4.1,3.4c-0.5,0-0.9,0.4-0.9,0.9c0,0.5,0.4,0.8,0.9,0.9
		c0.5,0,1,0,1.5-0.1C105.1,67,106.6,65.3,107.3,63.4z"/>
	<path class="st2" d="M79,61.5c0-1.1-0.4-2.3-0.6-3.4c-0.1-0.8-0.2-1.8,0.3-2.5c0.7,1,1.5,1.8,2.5,2.5c1.8,1.3,4.1,1.9,6.3,1.6
		c0.5,0,0.9-0.4,0.9-0.9c0-0.1,0-0.1,0-0.2c-0.1-0.4-0.4-0.8-0.9-0.7c-1.8,0.2-3.5-0.2-5-1.1c-1.3-0.8-2.3-2-3-3.4
		c-0.7-1.3-1.2-2.5-1.6-4c-0.5-1.9-0.3-3.9,0.1-5.9c0.5-2.6,1.3-5.1,1.8-7.6c0.1-0.5-0.1-0.9-0.6-1.1c-0.2,0-0.4,0-0.6,0
		c-0.3,0.1-0.5,0.3-0.5,0.6c-0.9,4.6-3,9.3-2,14.1c0.3,1.5,0.9,3.1,1.6,4.5c-0.1,0-0.1,0.1-0.2,0.1c-0.8,1-1.1,2.1-1,3.3
		c0.1,1.1,0.4,2.1,0.6,3.2c0.1,0.8,0.1,1.6-0.4,2.1c-1,1-2.2,1.5-3.6,1.4c-0.5-0.1-0.9,0.4-0.9,0.9c0,0.5,0.4,0.8,0.9,0.9
		c0.4,0.1,0.9,0,1.3,0c1.1-0.2,2.1-0.7,3-1.4C78.4,63.8,79,62.8,79,61.5z"/>
	<path class="st2" d="M83.8,64.1c0.3-0.3,0.4-0.9,0-1.2c-0.3-0.3-0.9-0.4-1.2,0c-0.1,0.2-0.3,0.3-0.5,0.5c-0.1,0.1-0.2,0.2-0.3,0.2
		c0,0-0.1,0.1-0.1,0.1c0.1-0.1,0,0,0,0c-0.4,0.3-0.8,0.5-1.2,0.7c0,0,0,0,0,0c0,0-0.1,0-0.1,0.1c-0.1,0-0.2,0.1-0.3,0.1
		c-0.2,0.1-0.4,0.1-0.6,0.2c-0.1,0-0.1,0-0.2,0c0,0,0,0,0,0c-0.1,0-0.2,0-0.4,0c-0.2,0-0.5,0-0.7,0c-0.5,0-0.9,0.4-0.9,0.9
		c0,0.5,0.4,0.8,0.8,0.9c0,0,0,0,0.1,0c0.5,0,0.9,0,1.4-0.1C81.1,66.2,82.7,65.3,83.8,64.1z"/>
	<path class="st2" d="M83.3,38.2c0.3,0.4,0.8,0.5,1.2,0.3c2.1-1.1,3.5-3.4,3.5-5.8c0-0.5-0.4-0.9-0.9-0.9c-0.5,0-0.9,0.4-0.9,0.9
		c0,0.1,0,0.2,0,0.4c0,0.1,0,0.1,0,0.2c0,0,0,0,0,0c0,0,0,0,0,0c0,0.2-0.1,0.5-0.2,0.7c0,0.1-0.1,0.2-0.1,0.3c0,0.1,0,0.1-0.1,0.2
		c0,0,0,0,0,0c0,0,0,0,0,0c-0.1,0.2-0.2,0.4-0.3,0.7c-0.1,0.1-0.1,0.2-0.2,0.3c0,0.1-0.1,0.1-0.1,0.2c0,0,0,0,0,0c0,0,0,0,0,0
		c-0.2,0.2-0.3,0.4-0.5,0.5c-0.1,0.1-0.2,0.2-0.3,0.2c0,0-0.1,0.1-0.1,0.1c0.2-0.1,0,0-0.1,0c-0.2,0.1-0.4,0.3-0.6,0.4
		C83.2,37.2,83.1,37.8,83.3,38.2z"/>
	<path class="st2" d="M191.8,35.9c0.1,0,0.1,0.1,0.2,0.1c0.2,0,0.3,0,0.5,0c0.4-0.2,0.8-0.3,1.2-0.4c0.1,0,0.2-0.1,0.3-0.2
		c0.1-0.1,0.2-0.1,0.2-0.2c0.1-0.1,0.1-0.2,0.1-0.3c0-0.1,0-0.2,0-0.3c-0.1-0.2-0.2-0.4-0.4-0.5c-0.1,0-0.1-0.1-0.2-0.1
		c-0.2,0-0.3,0-0.5,0c-0.4,0.2-0.8,0.3-1.2,0.4c-0.1,0-0.2,0.1-0.3,0.2c-0.1,0.1-0.2,0.1-0.2,0.2c-0.1,0.1-0.1,0.2-0.1,0.3
		c0,0.1,0,0.2,0,0.3C191.4,35.6,191.6,35.8,191.8,35.9z"/>
	<path class="st2" d="M83.3,34.8c1.1,0,1.1-1.8,0-1.8C82.2,33.1,82.2,34.8,83.3,34.8z"/>
	<path class="st2" d="M92.4,37.8c1.1,0,1.1-1.8,0-1.8C91.3,36,91.3,37.8,92.4,37.8z"/>
	<path class="st2" d="M82.1,42.4c0.1,0.1,0.2,0.2,0.3,0.3c0.3,0.1,0.5,0.3,0.8,0.4c0.1,0.1,0.2,0.1,0.3,0.1c0.1,0,0.2,0,0.3,0
		c0.1,0,0.2-0.1,0.3-0.2c0.1-0.1,0.2-0.1,0.2-0.2c0-0.1,0.1-0.1,0.1-0.2c0-0.2,0-0.3,0-0.5c0-0.1-0.1-0.1-0.1-0.2
		c-0.1-0.1-0.2-0.2-0.3-0.3c-0.3-0.1-0.5-0.3-0.8-0.4c-0.1-0.1-0.2-0.1-0.3-0.1c-0.1,0-0.2,0-0.3,0c-0.1,0-0.2,0.1-0.3,0.2
		c-0.1,0.1-0.2,0.1-0.2,0.2c0,0.1-0.1,0.1-0.1,0.2c0,0.2,0,0.3,0,0.5C82,42.2,82,42.3,82.1,42.4z"/>
	<rect class="st4" width="280" height="172.8"/>
</g>
</svg>
