<?xml version="1.0" encoding="utf-8"?>
<!-- Generator: Adobe Illustrator 28.0.0, SVG Export Plug-In . SVG Version: 6.00 Build 0)  -->
<svg version="1.1" id="レイヤー_1" xmlns="http://www.w3.org/2000/svg" xmlns:xlink="http://www.w3.org/1999/xlink" x="0px"
	 y="0px" viewBox="0 0 366.7 254.1" style="enable-background:new 0 0 366.7 254.1;" xml:space="preserve">
<style type="text/css">
	.st0{fill:none;}
	.st1{fill:#FFFFFF;}
	.st2{fill:#F3A11A;}
	.st3{fill:#33CAE7;}
	.st4{opacity:0.6;fill:#F29600;}
	.st5{opacity:0.6;fill:#59C2E1;}
	.st6{fill:#F29600;}
	.st7{fill:#F8CA7F;}
	.st8{fill:#4D4D4D;}
	.st9{fill-rule:evenodd;clip-rule:evenodd;fill:#8CE1F1;}
	.st10{fill-rule:evenodd;clip-rule:evenodd;fill:#80DEF0;}
	.st11{fill:#D9F5FA;}
	.st12{fill:url(#SVGID_1_);}
	.st13{fill:url(#SVGID_00000085954002355187108180000000176328958175747757_);}
	.st14{fill:#00BDE1;}
</style>
<pattern  x="-753.9" y="-345.3" width="5" height="5.2" patternUnits="userSpaceOnUse" id="新規パターンスウォッチ_15" viewBox="0 -5.2 5 5.2" style="overflow:visible;">
	<g>
		<rect y="-5.2" class="st0" width="5" height="5.2"/>
		<rect x="0" y="-5.2" class="st1" width="5" height="5.2"/>
		<circle class="st2" cx="2.5" cy="-2.6" r="1.1"/>
	</g>
</pattern>
<pattern  x="-753.9" y="-345.3" width="5" height="5.2" patternUnits="userSpaceOnUse" id="新規パターンスウォッチ_16" viewBox="0 -5.2 5 5.2" style="overflow:visible;">
	<g>
		<rect y="-5.2" class="st0" width="5" height="5.2"/>
		<rect x="0" y="-5.2" class="st1" width="5" height="5.2"/>
		<circle class="st3" cx="2.5" cy="-2.6" r="1.1"/>
	</g>
</pattern>
<g>
	<g>
		<path class="st4" d="M190.2,0h-61.7c-2.6,0-4.7,2.1-4.7,4.7v44.7c0,2.6,2.1,4.7,4.7,4.7h13.9l-2.1,12c-0.1,0.8,0.2,1,0.8,0.5
			L156.3,54h33.9c2.6,0,4.7-2.1,4.7-4.7V4.7C194.9,2.1,192.8,0,190.2,0z"/>
		<path class="st5" d="M237,68.6c3.7-4.8,5.9-10.6,5.9-16.8c0-16.5-15.2-29.9-34-29.9c-18.8,0-34,13.4-34,29.9
			c0,16.5,15.2,29.9,34,29.9c6.8,0,13.2-1.8,18.6-4.9l13.1,5.8c0.7,0.3,1.1,0,0.8-0.8L237,68.6z"/>
		<g>
			<path class="st1" d="M167.7,42.4c-2.1,2-4.9,3.1-8.4,3.2c-2.8-0.1-5.1-0.8-7-2.1c-1.9-1.3-3.3-2.8-4.1-4.5
				c-0.3-0.6-0.5-1.1-0.7-1.6c-0.2-0.5-0.4-1.2-0.5-2c-0.2-1.5-0.4-4.3-0.4-8.5c0-4.3,0.1-7.1,0.4-8.5c0.3-1.4,0.7-2.6,1.2-3.5
				c0.9-1.7,2.2-3.2,4.1-4.5c1.9-1.3,4.2-2,7-2.1c2.8,0,5.2,0.7,7.1,2.1c1.9,1.3,3.2,2.8,4,4.5c0.6,0.9,1,2.1,1.2,3.5
				c0.2,1.4,0.3,4.3,0.3,8.5c0,3.8-0.1,6.5-0.2,8c-0.2,1.5-0.6,2.7-1,3.5l4.7,3.8l-3.2,3.8L167.7,42.4z M158.8,35.1l3.2-3.8l4.1,3.4
				c0.3-1.2,0.5-3.8,0.5-7.7c0-3.6-0.1-6.1-0.4-7.4c-0.3-1.2-0.7-2.3-1.4-3c-0.5-0.8-1.2-1.4-2.1-1.9c-0.9-0.5-2.1-0.7-3.3-0.8
				c-1.3,0-2.4,0.3-3.3,0.8c-0.9,0.5-1.7,1.1-2.2,1.9c-0.7,0.8-1.2,1.8-1.4,3c-0.3,1.3-0.4,3.8-0.4,7.4c0,3.6,0.1,6,0.4,7.3
				c0.2,1.3,0.7,2.3,1.4,3.1c0.6,0.8,1.3,1.4,2.2,1.8c0.9,0.6,2,0.8,3.3,0.8c1.7,0,3-0.4,4-1.3L158.8,35.1z"/>
		</g>
		<g>
			<path class="st1" d="M215.7,61h-13.4l-2.7,8.2h-5.7l12.9-36.6h4.5l12.9,36.6h-5.7L215.7,61z M214.2,56.1l-5.1-16H209l-5.1,16
				H214.2z"/>
		</g>
		<g>
			<path class="st1" d="M188.6,48.1c-0.5,0.4-1.1,0.7-1.7,1c-0.6,0.3-1.2,0.4-1.9,0.4c-1.2,0-2.2-0.4-3-1.2
				c-0.8-0.8-1.1-1.7-1.2-2.9c0-1.7,0.9-3,2.5-3.9c-0.3-0.4-0.6-0.8-0.8-1.2c-0.2-0.4-0.3-0.9-0.3-1.3c0-0.8,0.3-1.5,0.8-2.1
				c0.5-0.6,1.2-0.9,2.1-0.9c0.9,0,1.6,0.3,2.1,0.9c0.5,0.6,0.8,1.3,0.8,2.1c0,1.2-0.7,2.2-2.2,3l2.8,3.4c0.5-0.7,0.9-1.4,1.1-2.2
				l1.7,0.7c-0.2,0.5-0.4,1-0.7,1.5c-0.3,0.5-0.6,1-1,1.4l2.2,2.7h-2.2L188.6,48.1z M184.4,42.8c-1.3,0.8-1.9,1.6-1.9,2.6
				c0,0.7,0.3,1.3,0.7,1.7c0.5,0.5,1,0.7,1.7,0.7c0.8,0,1.7-0.4,2.6-1.2L184.4,42.8z M184,39c0,0.3,0.1,0.6,0.3,0.8
				c0.2,0.3,0.4,0.6,0.7,0.9c0.6-0.2,1-0.5,1.3-0.8c0.2-0.3,0.3-0.6,0.3-0.9c0-0.4-0.1-0.7-0.3-0.9c-0.2-0.2-0.6-0.4-0.9-0.4
				c-0.4,0-0.7,0.1-0.9,0.4C184.1,38.3,184,38.6,184,39z"/>
		</g>
	</g>
	<g>
		<g>
			<path class="st1" d="M144.6,140.3l-2.3-4.6c1.4-2.1,2.2-4.5,2.4-7.2c0.5-8.1-5.6-15-13.7-15.5c-8.1-0.5-15,5.6-15.5,13.7
				c-0.5,8.1,5.6,15,13.7,15.5c3.8,0.2,7.4-1,10.1-3.3l0,0L144.6,140.3z"/>
			<path class="st6" d="M130.1,143.2c-0.3,0-0.6,0-0.9,0c-8.5-0.5-15-7.9-14.5-16.4c0.5-8.1,7.3-14.5,15.4-14.5c0.3,0,0.6,0,0.9,0
				c8.5,0.5,15,7.9,14.5,16.4c-0.2,2.5-0.9,5-2.3,7.2l2.1,4.2c0.2,0.3,0.1,0.7-0.1,0.9c-0.2,0.3-0.6,0.4-0.9,0.3l-4.8-1.2
				C136.8,142,133.5,143.2,130.1,143.2z M130.1,113.9c-7.3,0-13.3,5.7-13.7,12.9c-0.5,7.6,5.3,14.1,12.9,14.6
				c3.5,0.2,6.9-0.9,9.6-3.1c0.3-0.2,0.6-0.2,0.9-0.1l3.3,0.8l-1.5-2.9c-0.1-0.3-0.1-0.6,0.1-0.9c1.3-2,2.1-4.3,2.2-6.7
				c0.5-7.6-5.3-14.1-12.9-14.6C130.6,114,130.3,113.9,130.1,113.9z"/>
			<path class="st6" d="M130,131.2c-0.5,0-0.9-0.4-0.9-0.9c0-2.8,1.6-3.6,2.7-4.1c1-0.5,1.3-0.7,1.3-1.5c0-0.3,0-1-1.2-1.5
				c-1.8-0.7-4.4-0.3-4.9,0.3c-0.9,0.9-0.4,1.7-0.3,1.9c0.3,0.4,0.2,0.9-0.2,1.2c-0.4,0.3-0.9,0.2-1.2-0.2c-0.5-0.7-1.1-2.5,0.4-4.1
				c1.2-1.2,4.6-1.6,6.8-0.7c1.5,0.6,2.3,1.7,2.3,3.1c0,1.9-1.3,2.6-2.2,3c-1,0.5-1.8,0.9-1.8,2.6
				C130.9,130.8,130.5,131.2,130,131.2z"/>
			<path class="st6" d="M131.2,133.2c0,0.6-0.5,1.2-1.2,1.2c-0.6,0-1.2-0.5-1.2-1.2c0-0.6,0.5-1.2,1.2-1.2
				C130.6,132.1,131.2,132.6,131.2,133.2z"/>
		</g>
		<g>
			<path class="st1" d="M34,135.6l-4.1-3.1c0.3-2.5,0-5-1-7.5c-3.1-7.5-11.6-11-19.1-7.9c-7.5,3.1-11,11.6-7.9,19.1
				c3.1,7.5,11.6,11,19.1,7.9c3.5-1.5,6.2-4.2,7.7-7.4l0,0L34,135.6z"/>
			<path class="st6" d="M15.5,146c-6.3,0-11.9-3.8-14.3-9.6c-1.6-3.8-1.6-8,0-11.8c1.6-3.8,4.6-6.8,8.4-8.4c1.9-0.8,3.9-1.2,5.9-1.2
				c6.3,0,11.9,3.8,14.3,9.6c1,2.4,1.3,4.9,1.1,7.4l3.7,2.8c0.3,0.2,0.4,0.5,0.3,0.9c-0.1,0.3-0.3,0.6-0.7,0.6l-4.9,1
				c-1.7,3.4-4.5,6-8,7.4C19.5,145.6,17.5,146,15.5,146z M15.5,116.8c-1.8,0-3.6,0.4-5.2,1c-3.4,1.4-6,4-7.5,7.4
				c-1.4,3.4-1.4,7.1,0,10.5c2.1,5.2,7.1,8.5,12.7,8.5c1.8,0,3.6-0.4,5.2-1c3.2-1.3,5.8-3.8,7.2-7c0.1-0.3,0.4-0.5,0.8-0.5l3.3-0.7
				l-2.6-2c-0.2-0.2-0.4-0.5-0.3-0.8c0.3-2.4,0-4.8-0.9-7C26,120.2,21.1,116.8,15.5,116.8z"/>
			<path class="st6" d="M15.4,133.9c-0.5,0-0.9-0.4-0.9-0.9c0-2.8,1.6-3.6,2.7-4.1c1-0.5,1.3-0.7,1.3-1.5c0-0.3,0-1-1.2-1.5
				c-1.8-0.7-4.4-0.3-4.9,0.3c-0.9,0.9-0.4,1.7-0.3,1.9c0.3,0.4,0.2,0.9-0.2,1.2c-0.4,0.3-0.9,0.2-1.2-0.2c-0.5-0.7-1.1-2.5,0.4-4.1
				c1.2-1.2,4.6-1.5,6.8-0.7c1.5,0.6,2.3,1.7,2.3,3.1c0,1.9-1.3,2.6-2.2,3c-1,0.5-1.8,0.9-1.8,2.6C16.2,133.6,15.8,133.9,15.4,133.9
				z"/>
			<circle class="st6" cx="15.4" cy="136" r="1.2"/>
		</g>
		<path class="st1" d="M189.9,158.5l1.2,0.7c9.7,0.1,10.9-17.7,8-29.8c-2.9-12.1-9.4-11.2-9.4-11.2c-3.4-3.2-12-4.9-20.3,0.7
			c-8.4,5.6-8.7,19.1-7.9,27.9c0.8,8.7,5,10.1,5,10.1s0.7,6.7,0.7,12.6c0,5.9-2.8,16.4-2.8,16.4l6.6,4.8l1.1,4.2
			c0,0,3,15.2,1.8,24.1c-1.2,8.8-5,34.1-5,34.1h23.4c0,0-3.1-21.1-4.4-29.7c-1.3-8.6-0.6-17.2,0.3-24.8c0.9-7.5,4.1-28.4,4.1-28.4
			c-5.1-1.9-4.3-9.7-4.3-9.7L189.9,158.5z M172.2,166.7l-1.9-8.8l3.2,2.1C173.7,165,172.2,166.7,172.2,166.7z"/>
		<path class="st7" d="M188.5,166c0,0,0.5,3.1,3.4,4.3c0,0-2,17.5-3.3,26.9c-1.3,9.4-1.7,17.4-1.2,21.7c0.5,4.2,4.9,34.7,4.9,34.7
			h26.6c0,0-2.5-32.9-4.1-45.9c-1.6-13.1-1.6-27.3-6.3-31.5c-4.7-4.2-11.6-5.5-11.6-5.5l-0.5-1.4C196.4,169.2,192.5,166.3,188.5,166
			z"/>
		<path class="st7" d="M167.4,167.8c0,0-1.6,13.4-3,18.2l7.8,5.6l0.5,2.6c0,0,2.5,16.3,1.4,24.9c-1.1,8.6-5.2,34.4-5.2,34.4h-13.9
			l3.3-37.6c0,0-4.3,6.5-9.2,7.5c-4.9,1.1-6.7-2.8-7.2-6.9c-0.5-4.1,2-18.8,4.1-26.9c2-8,5.8-15.5,10.6-16.9
			c4.8-1.5,7.9-1.9,7.9-1.9l0.7-1.5L167.4,167.8z"/>
		<path class="st8" d="M187.4,141.5c0,0.5-0.4,0.9-0.9,0.9c-0.5,0-0.9-0.4-0.9-0.9c0-0.5,0.4-0.9,0.9-0.9
			C187,140.6,187.4,141,187.4,141.5z"/>
		<path class="st8" d="M174.1,141.5c0,0.5,0.4,0.9,0.9,0.9c0.5,0,0.9-0.4,0.9-0.9c0-0.5-0.4-0.9-0.9-0.9
			C174.5,140.6,174.1,141,174.1,141.5z"/>
		<path class="st8" d="M189.3,138.4c-0.3,0-0.6-0.1-0.7-0.4c0,0-0.8-1.2-1.9-1.2c-1.2,0-1.9,0.8-2,0.8c-0.3,0.3-0.9,0.3-1.2,0
			c-0.3-0.3-0.3-0.9,0-1.2c0.1-0.1,1.3-1.3,3.2-1.3c2,0,3.2,1.9,3.3,1.9c0.3,0.4,0.1,0.9-0.2,1.2
			C189.6,138.4,189.4,138.4,189.3,138.4z"/>
		<path class="st8" d="M180.7,157.2c-1.3,0-2.4-1.1-2.4-2.5c0-1.4,1.1-2.5,2.4-2.5c1.3,0,2.4,1.1,2.4,2.5
			C183.2,156,182.1,157.2,180.7,157.2z M180.7,153.8c-0.4,0-0.7,0.4-0.7,0.8c0,0.5,0.3,0.8,0.7,0.8s0.7-0.4,0.7-0.8
			C181.4,154.2,181.1,153.8,180.7,153.8z"/>
		<path class="st8" d="M181.2,150.2h-1c-0.5,0-0.9-0.5-0.9-0.9c0-0.5,0.4-0.9,0.9-0.9h1c0.5,0,0.9,0.5,0.9,0.9
			C182.1,149.8,181.7,150.2,181.2,150.2z"/>
		<path class="st8" d="M172.3,192.7c-0.4,0-0.8-0.3-0.8-0.7l-0.4-3.2c-0.1-0.5,0.3-0.9,0.7-1c0.5-0.1,0.9,0.3,1,0.7l0.4,3.2
			c0.1,0.5-0.3,0.9-0.7,1C172.4,192.7,172.3,192.7,172.3,192.7z"/>
		<path class="st1" d="M58,109.7c0,0,6.7,3.1,14.1-1.7c0,0,6,3.5,8.7,8.1c0,0,2.2-2.2,4.3,0c2.1,2.1,3.9,8.2-1.1,9.1
			c0,0,3.3,8.8-3.3,14.9c0,0,0.5,0.8,1.5,0.8c1,0,1.8-1.9,2.7-1.1c1,0.8,3.2,6.5,5.2,15.9l2.5,3.8v3.2l-13.1,4.1l2.8,12.3
			c0,0-5.8,12.6-7.9,15.7c0,0-5.6-6.4-8.9-14.6c-3.3-8.2-6.4-22-6.6-26.6l5-7.2l0.8,0.4c0,0,0.4-2-0.1-5.6c0,0-3.2-2.6-4.7-5.4
			c0,0-2.5,2.8-5.8-1.5c-3.4-4.3-1.1-7,1.3-7.1c0,0-1.5-3.1-2-6.7C53.3,120.6,59.3,116.9,58,109.7z"/>
		<path class="st1" d="M77.2,221.2l3.9,0.2l0.2,1.2c0,0,2.8,0.1,5.5-1.6c2.7-1.8,5.6-2.1,9-1.3c3.5,0.8,7.8-1,11.9-6.2
			c0,0,3.1-0.6,2.3,3c-0.8,3.6-6.7,11.6-11.5,14.7c-4.8,3.1-10.8,0.5-17.5,1.5l-0.3,2.8l-5.2,0.9L77.2,221.2z"/>
		<path class="st7" d="M50.2,105.8c0,0,0.3-6,7.4-8.9c7.1-2.9,11-1.1,15.7,0.9c4.7,1.9,5.8,4.8,11.4,5.5c0,0-0.7,1.1-4.3,1.5
			c0,0,3.5,5.2,3.3,10l-2.9,1.4c0,0-3.3-5.4-8.9-8c0,0-6.1,4.6-14.3,1.5c0,0,2.3,6.3-4.3,10.9c0,0,0.6,4.6,2,6.8l-2.4,1.3
			c0,0-3.8-3.4-6.4-9.3C43.9,113.5,48.6,106.8,50.2,105.8z"/>
		<path class="st7" d="M58.9,153.7c0,0,2.4,19.4,9.4,31.5l3.6-20.6c0,0-1.7-2.9-1.7-5.8l2.6-6.1l1.2,0.2c0,0,1.5,5.4,3.9,7.3
			l-1.8,4.4c0,0,2.3,12.5,3.5,21.1l3.1-6.2L79,166.8l13.7-4.4l-1.2-3.5l-0.6,0.2l-1.8-8.4l6.3,2l1.2,0.7c0,0,11.3,0.6,16.7,5.4
			c5.4,4.8,6.8,13,4.3,24.8c-2.5,11.8-4.9,22.7-9.4,29c-4.5,6.4-10.1,7.2-10.1,7.2s-5.6-1-7.7-0.4c-2.2,0.7-5.3,2.8-8.8,2.7
			l-0.6-0.8l-3.7-0.2l-0.8,14.3l4.4-0.2l0.6-2.8c0,0,6-0.5,10.1,0c4.1,0.6,9.1-1.2,14.7-8.9c0,0,1,19.4,1,29.8H76.9l-2.7-7.3l-3,7.3
			H44l1.9-18.3c0,0-9.8,0.1-11.8-7.8c-2-7.8-1.6-32.9-1.6-41.8c0-8.9,0.4-23.7,8.3-27.1c7.9-3.4,11.9-3.6,11.9-3.6l0.4-0.5
			C53,154.5,57.8,152.1,58.9,153.7z"/>
		<g>
			<path class="st8" d="M74.4,119c0.2,0.5,0,1-0.5,1.2c-0.5,0.2-1,0-1.2-0.5c-0.2-0.5,0-1,0.5-1.2C73.7,118.3,74.2,118.5,74.4,119z"
				/>
			<path class="st8" d="M61.7,124.5c0.2,0.5,0.8,0.7,1.2,0.5c0.5-0.2,0.7-0.8,0.5-1.2c-0.2-0.5-0.8-0.7-1.2-0.5
				C61.8,123.5,61.5,124.1,61.7,124.5z"/>
			<path class="st8" d="M69.9,117.1c-0.1,0-0.2,0-0.3-0.1c-0.4-0.2-0.7-0.7-0.5-1.1c0-0.1,0.7-1.8,2.5-2.6c1.9-0.8,3.8,0.4,3.9,0.5
				c0.4,0.3,0.5,0.8,0.3,1.2c-0.3,0.4-0.8,0.5-1.2,0.3c0,0-1.3-0.8-2.3-0.3c-1.1,0.5-1.5,1.6-1.6,1.6
				C70.6,116.9,70.3,117.1,69.9,117.1z"/>
			<path class="st8" d="M58.1,122.9c0,0-0.1,0-0.1,0c-0.5-0.1-0.8-0.5-0.7-1c0-0.1,0.4-2.4,2.3-3.2c1.8-0.8,3.5-0.1,3.5-0.1
				c0.4,0.2,0.7,0.7,0.5,1.1c-0.2,0.4-0.7,0.6-1.1,0.5c0,0-1.1-0.4-2.2,0.1c-1,0.5-1.3,1.9-1.3,1.9
				C58.9,122.6,58.5,122.9,58.1,122.9z"/>
			<path class="st8" d="M70.6,129.5c-0.3,0-0.6-0.2-0.8-0.5c-0.2-0.4,0-0.9,0.4-1.1l1-0.4c0.4-0.2,0.9,0,1.1,0.4
				c0.2,0.4,0,0.9-0.4,1.1l-1,0.4C70.8,129.5,70.7,129.5,70.6,129.5z"/>
			<path class="st8" d="M71.8,137.1c-1.2,0-1.7-0.7-1.9-1.1c-0.3-0.7-0.2-1.6,0.3-2.4c0.5-0.8,1.2-1.4,2.1-1.8
				c0.6-0.3,1.3-0.4,2-0.4c1.3,0,2.4,0.6,2.8,1.4c0.3,0.6,0.5,2.1-2.8,3.6C73.8,136.8,72.7,137.1,71.8,137.1z M71.5,135.5
				c0,0,0.1,0,0.3,0c0.5,0,1.2-0.2,1.9-0.6c1.5-0.7,1.9-1.3,1.9-1.4c-0.1-0.1-0.5-0.4-1.3-0.4c-0.4,0-0.9,0.1-1.3,0.3
				c-0.6,0.3-1.1,0.7-1.4,1.2C71.5,135,71.5,135.4,71.5,135.5C71.5,135.5,71.5,135.5,71.5,135.5z"/>
			<path class="st8" d="M78.5,146.8c-0.3,0-0.6-0.2-0.8-0.5l-0.5-1c-0.2-0.4,0-0.9,0.4-1.1c0.4-0.2,0.9,0,1.1,0.4l0.5,1
				c0.2,0.4,0,0.9-0.4,1.1C78.8,146.8,78.6,146.8,78.5,146.8z"/>
			<path class="st8" d="M81.7,146.1c-0.5,0-0.9-0.4-0.9-0.9v-1c0-0.5,0.4-0.9,0.9-0.9s0.9,0.4,0.9,0.9v1
				C82.6,145.7,82.1,146.1,81.7,146.1z"/>
			<path class="st8" d="M76.5,205.7c0,1.4-1.1,2.5-2.5,2.5c-1.4,0-2.5-1.1-2.5-2.5c0-1.4,1.1-2.5,2.5-2.5
				C75.4,203.3,76.5,204.4,76.5,205.7z"/>
			<path class="st8" d="M39.1,223.5c-0.1,0-0.3,0-0.4-0.1c-0.4-0.2-0.6-0.7-0.4-1.1c2.5-4.9,7-7.4,7.2-7.5c0.4-0.2,0.9-0.1,1.2,0.3
				c0.2,0.4,0.1,0.9-0.3,1.2l0,0c0,0-4.3,2.3-6.5,6.7C39.7,223.3,39.4,223.5,39.1,223.5z"/>
			<g>
				<path class="st8" d="M57.9,103.9c0.1,0,5.8-2.5,11.5,2.4c0.2,0.1,0.4,0.2,0.5,0.2c0.2,0,0.5-0.1,0.7-0.3
					c0.3-0.4,0.3-0.9-0.1-1.2c-6.6-5.5-13-2.8-13.3-2.6c-0.4,0.2-0.6,0.7-0.4,1.1C57,103.9,57.5,104.1,57.9,103.9z"/>
				<path class="st8" d="M113.9,158.3c-4.2-3.7-8.9-4.4-13.9-5.1c-1.2-0.2-2.4-0.3-3.6-0.5c-0.2-0.2-0.3-0.3-0.3-0.4
					c-0.1-0.1-0.3-0.2-0.4-0.3l-5.6-1.6c-0.1,0-0.2,0-0.2,0c-0.8-3.4-1.8-7.3-2.5-8.8c-0.6-1.5-1.5-2.3-2.4-2.6
					c-1-0.3-1.7,0.2-2,0.4c-0.2,0.1-0.4,0.3-0.5,0.5c-0.1,0.1-0.2,0.2-0.3,0.3c0,0-0.1-0.1-0.1-0.1c4.9-4.9,3.6-11.6,3-14.1
					c1.4-0.4,2.4-1.5,2.7-3c0.6-2.9-1.2-7.1-2.9-8.1c-0.1-0.1-0.2-0.1-0.3-0.2c-0.1-3.1-1.1-6.4-2.8-9.4c1.9-0.2,3.3-0.8,3.3-0.9
					c0.3-0.2,0.5-0.5,0.5-0.9c-0.1-0.4-0.4-0.7-0.7-0.7c-3.1-0.4-8.4-3.9-8.8-4.2c-4.3-3.4-9.3-4.7-14.2-3.8
					c-10.5,2-12.1,8.8-12.3,10.6c-1,0.8-3.9,3.5-4.3,9c-0.4,6.1,3.9,12.1,6.6,14.8c0,0.1-0.1,0.2-0.1,0.4c-0.5,1.9,1.5,6.1,4,7.6
					c0.7,0.4,1.4,0.6,2.1,0.6c0.7,0,1.4-0.2,2-0.6c0.7,1.1,2.1,3,4.1,4.6c0,0.1,0,0.1,0,0.2c0,0,0.4,1.7,0.1,3.7c0,0,0,0-0.1,0
					c-0.2,0.1-0.4,0.2-0.5,0.4c0,0-1.9,3.7-4.2,6.1c0,0,0,0,0,0c-0.2-0.1-0.5-0.2-0.7-0.1l-5.6,1.6c-0.2,0-0.3,0.1-0.4,0.3
					c0,0-0.1,0.1-0.2,0.2c-1.8,0.2-9.7,1.4-14.3,5.3c-5.2,4.4-5.5,11.9-5.8,18.5l0,0.5c-0.3,6.6-0.9,31.5,0,41.5
					c0.9,10.1,2.4,14.7,12.9,16c-0.2,2-1.1,10.1-1.7,17.2c0,0.2,0.1,0.5,0.2,0.6c0.2,0.2,0.4,0.3,0.6,0.3h27c0.4,0,0.7-0.2,0.8-0.5
					l2-5.4l2,5.4c0.1,0.3,0.4,0.5,0.8,0.5h30.5c0.5,0,0.8-0.4,0.9-0.8c0.1-9.8-1-28.8-1-29c0-0.1-0.1-0.3-0.1-0.4
					c0.8-1.1,1.4-2.1,1.8-2.9c0.2-0.5,0.5-0.9,0.7-1.3c1.1-2.2,2.1-4.1,1.2-5.7c-0.4-0.7-0.9-1.1-1.4-1.3c5.3-8.5,8-22.2,8.6-25.8
					c0.1-0.7,0.2-1.3,0.4-2C120,175.3,121.8,165.3,113.9,158.3z M83.7,141c0.1-0.1,0.2-0.2,0.3-0.3c0.1-0.1,0.3-0.2,0.5-0.1
					c0.2,0.1,0.7,0.3,1.3,1.6c1.2,2.7,3.7,14.4,3.7,14.5c0.1,0.4,0.4,0.7,0.8,0.7c0.1,0,0.1,0,0.2,0c0.5-0.1,0.8-0.6,0.7-1
					c0-0.2-0.3-1.6-0.8-3.5c0-0.2,0.1-0.4,0.1-0.6l4.3,1.3c0.7,1,3.8,5.5,4.1,11.4l-2.7,0.4c-0.5-1.3-1-2.5-1.5-3.7
					c-0.2-0.4-0.6-0.6-1.1-0.5l-0.3,0.1l-1.1-2.7c-0.2-0.4-0.6-0.6-1.1-0.5L81,161.5c0,0-0.1,0-0.1-0.1c-1.6-1.1-4.4-3.4-4.9-4.8
					c-0.7-2.1-1.9-9.4-1.9-9.4c-0.1-0.5-0.5-0.8-1-0.7c-0.5,0.1-0.8,0.5-0.7,1c0,0.2,0.4,2.2,0.8,4.5c0,0,0,0,0,0c0,0,0,0,0,0
					c0,0,0,0,0,0c-0.9-0.4-1.6-0.9-2-1.6c-0.5-0.9,0.5-6.5,1.3-7.4c0.3-0.2,0.5-0.1,0.9,0c0.4,0.1,0.8,0.2,1.4,0.1
					c0.8-0.2,1.1-0.7,1.3-1c0.2-0.3,0.2-0.3,0.4-0.4c0.3-0.1,0.4,0,0.7,0.2c0.3,0.2,0.8,0.4,1.4,0.3c0.7-0.1,1.1-0.6,1.4-0.9
					c0.1-0.1,0.3-0.4,0.4-0.4c0.1,0,0.5,0.3,0.7,0.4c0.3,0.2,0.7,0.5,1.1,0.5C82.8,141.9,83.4,141.3,83.7,141z M69.8,161.8
					c0.2,0.8,0.6,1.8,1.2,2.9c-0.3,1.5-1.5,8.5-3.1,18.2c-4.2-9.6-6.6-19.8-7.7-25.6c2.5,3.7,7.3,6.5,7.6,6.7
					c0.1,0.1,0.3,0.1,0.4,0.1c0.1,0,0.2,0,0.3,0c0.2-0.1,0.4-0.2,0.5-0.5L69.8,161.8z M72.6,165.9h1.6c0.5,0,0.9-0.4,0.9-0.9
					c0-0.5-0.4-0.9-0.9-0.9h-1.5c-1.6-3-1.5-5-1.5-5c0-0.1,0-0.1,0-0.2l2.2-5.1c0.1,0,0.2,0.1,0.3,0.1c0.3,1.4,0.6,2.6,0.8,3.3
					c0.4,1,1.3,2.2,2.4,3.1c-0.2,1.3-0.4,2-1.3,3.9c-0.1,0.2-0.1,0.4-0.1,0.6c0,0.1,1.6,8.7,3.5,20.9c-1.5,3.1-3.1,5.9-4.8,8.3
					c-1.8-2.6-3.4-5.4-4.8-8.3C70.7,176,72.1,168.5,72.6,165.9z M80.2,182.9c-1.5-9.7-2.8-16.7-3.1-18.2c0.7-1.4,1-2.2,1.2-3.1
					c0.3,0.2,0.5,0.4,0.7,0.6l-0.2,0.1c-0.4,0.1-0.7,0.6-0.5,1.1l0.8,2.6l-0.3,0.1c-0.4,0.1-0.7,0.6-0.6,1c0,0.1,1.5,5.4,3.4,12.2
					C81.2,180.5,80.7,181.7,80.2,182.9z M80.7,165.4l-0.6-1.8L91,160l0.7,1.9L80.7,165.4z M46.8,114.4c0.4-5.6,3.7-7.8,3.8-7.9
					c0.2-0.2,0.4-0.4,0.4-0.7c0-0.3,0.3-7.3,11-9.4c4.4-0.8,8.9,0.4,12.9,3.5c0,0,0,0,0.1,0c0.2,0.1,3.4,2.3,6.5,3.6
					c-0.8,0.1-1.8,0.1-2.8-0.1c-0.5-0.1-0.9,0.2-1,0.7c-0.1,0.5,0.2,0.9,0.7,1c0.5,0.1,0.9,0.2,1.4,0.2c1.8,2.9,2.9,6.1,3.1,9
					c-0.7,0-1.3,0.3-1.8,0.6c-3.1-4.4-8.2-7.4-8.5-7.6c-0.3-0.2-0.6-0.2-0.9,0c-7.7,4.4-13,1.7-13.3,1.6c0,0,0,0,0,0
					c-0.6-1.9-1.4-3.1-1.5-3.1c-0.3-0.4-0.8-0.5-1.2-0.2c-0.4,0.3-0.5,0.8-0.2,1.2c0.2,0.3,4.3,5.9-1.4,12c-0.2-3.4,0.4-5.8,0.4-5.8
					c0.1-0.5-0.2-0.9-0.6-1c-0.5-0.1-0.9,0.2-1,0.6c-0.1,0.3-1.7,6.8,1.1,14.2c-0.5,0.2-1,0.5-1.5,0.9
					C50.1,125,46.5,119.7,46.8,114.4z M60.7,135.5c-0.2-0.4-0.7-0.6-1.1-0.4c-0.1,0.1-0.2,0.2-0.3,0.3c-0.9,0.8-1.8,0.9-2.7,0.3
					c-2.1-1.2-3.4-4.8-3.2-5.8c0.3-1.2,1.2-1.5,1.8-1.6c0.1,0,0.1,0,0.2,0c0.1,0,0.2,0,0.3-0.1c0.1,0,0.1,0,0.1,0
					c0.5,0,0.9-0.3,0.9-0.8c0.1-0.5-0.3-0.9-0.8-0.9c0,0,0,0,0,0c-0.8-1.9-1.2-3.8-1.5-5.5c4-3.6,4.7-7.3,4.4-10.1
					c2.1,0.7,7,1.6,13.3-1.9c1.3,0.8,5.3,3.6,7.6,7c-0.2,0.4-0.1,0.9,0.2,1.1c0.4,0.3,0.9,0.2,1.2-0.2c0,0,0.1-0.1,0.2-0.2
					c0,0,0.1-0.1,0.1-0.1c0.5-0.4,1.4-1,2.6-0.4c0.9,0.5,2.6,3.9,2.1,6.2c-0.2,1.1-0.9,1.7-2.2,1.8c-0.5,0-0.8,0.5-0.8,0.9
					c0,0.1,0,0.2,0.1,0.3c0.1,0.4,3,8.5-2.8,13.6c-0.2,0-0.3,0-0.5,0c-0.6,0.1-1,0.6-1.3,0.9c-0.1,0.1-0.3,0.3-0.4,0.4
					c0,0-0.2-0.1-0.3-0.1c-0.4-0.2-1-0.6-1.9-0.4c-0.9,0.2-1.3,0.8-1.5,1.1c-0.1,0.1-0.1,0.2-0.2,0.2c0,0,0,0,0,0
					c-0.2,0-0.3,0-0.6-0.1c-0.5-0.1-1.2-0.3-2.2,0.2c-0.2,0.1-0.5,0.3-1,1.2C64.1,142.1,60.7,135.5,60.7,135.5z M70.1,144.2
					c0,0.1,0,0.1-0.1,0.2c-0.2,0.7-0.5,2.2-0.7,3.6c-1.6-0.6-3-1.3-3.8-1.7c0.2-1.3,0.2-2.6,0.1-3.4C67,143.5,68.4,144,70.1,144.2z
					 M64.4,147.6c1,0.5,2.7,1.4,4.9,2.2c0,0.6,0.1,1.1,0.4,1.4c0.5,0.8,1.2,1.4,2.1,1.9l-3.9,8.9c-2.6-1.6-7.2-5.3-7.5-8.7
					C62.2,151.4,63.7,148.9,64.4,147.6z M48.4,166.9l4.5,0.8l-4.6,3.3c-0.3,0.2-0.4,0.6-0.3,0.9c2.9,11.5,13.8,22.3,22.2,25.8
					c0.1,0,0.2,0.1,0.3,0.1c0.3,0,0.7-0.2,0.8-0.5c0.2-0.4,0-0.9-0.5-1.1c-7.9-3.3-18.1-13.4-21.1-24.1l5.7-4.2
					c0.3-0.2,0.4-0.6,0.3-0.9c-0.1-0.3-0.3-0.6-0.7-0.6l-5.7-1c0.7-5.5,3.4-9.2,4-10.1l4.4-1.3c0.8,5,4.9,27.8,15.5,42
					c0.2,0.2,0.4,0.3,0.7,0.3c0.3,0,0.5-0.1,0.7-0.3c2.8-3.7,5.4-8.4,7.7-14c0.8,3,1.7,6.1,2.5,9.2c-2.6,2.2-5.3,3.9-7.8,4.9
					c-0.4,0.2-0.6,0.7-0.5,1.1c0.1,0.3,0.5,0.5,0.8,0.5c0.1,0,0.2,0,0.3-0.1c2.4-1,5-2.6,7.6-4.7c0.1,0.3,0.2,0.7,0.3,1
					c0.3,1,0.5,2.1,0.8,3.1c2.5,9.8,5.1,19.9,11,22c-0.8,0-1.8-0.1-3-0.3c-0.4-0.1-0.8-0.1-1.3-0.2c-3.4-0.4-5.9,1-7.5,1.9
					c-0.4,0.2-0.7,0.4-1,0.5c-0.8,0.3-2,0.3-2.8,0.3c0,0,0-0.1,0-0.1c0-0.4-0.4-0.8-0.8-0.8l-3.2-0.2c0-0.1,0-0.2,0-0.2
					c0-0.4-0.3-0.7-0.7-0.8c-12.3-2.4-25-5.9-27.8-6.7c-1.5-11.3-2.3-28.4-2.4-29.4l0.3-3.7c0-0.5-0.3-0.9-0.8-0.9
					c-0.5,0-0.9,0.3-0.9,0.8l0,0.5c-3.5-8.4-4.5-18.4-4.7-20.4c3.3-2,7.6-2.9,10-3.3c-1.2,2-2.7,5.4-3.2,9.8
					C47.7,166.4,48,166.8,48.4,166.9z M96.3,226.3c0.2,0.2,0.4,0.3,0.6,0.3c0.2,0,0.4-0.1,0.6-0.2c0,0,1.5-1.5,3.1-1.8
					c2.5-0.5,4.4-1.4,5.8-2.7c-1.6,2.5-4.5,5.7-6.7,7.5c-2.2,1.8-5.1,2.6-8.6,2.4l-0.6,0c-2.6-0.2-4.9-0.3-8.5,0
					c0.2-3.5,0.1-6.6,0-8.5c0.8,0,2.3,0,3.3-0.4c0.3-0.1,0.7-0.4,1.2-0.6c1.4-0.8,3.6-2.1,6.4-1.7c0.5,0.1,0.9,0.1,1.3,0.2
					c3.2,0.4,4.9,0.7,7.8-1.1c1.6-1,3.2-0.7,3.8-0.1c0.1,0.1,0.3,0.3-0.2,0.8c-1.6,1.8-3.8,2.4-5.3,2.7c-2.1,0.4-3.9,2.1-4,2.2
					C95.9,225.4,95.9,225.9,96.3,226.3z M106.5,252.4h-29l-2.6-7c-0.1-0.3-0.3-0.4-0.6-0.5c0,0,0,0,0,0c0,0,0,0,0,0
					c-0.4-0.1-0.8,0.1-1,0.5l-2.6,7H45.1c0.6-6.9,1.4-14.3,1.6-16.2c10.6,1,29.6,1.8,29.8,1.8c0,0,0,0,0,0c0.5,0,0.8-0.4,0.9-0.8
					c0-0.5-0.3-0.9-0.8-0.9c-0.2,0-20.6-0.8-30.8-1.9c-9.9-1.1-11.1-4.8-11.9-14.5c-0.9-9.9-0.3-34.8,0-41.3l0-0.5
					c0.3-6.6,0.6-13.4,5.2-17.2c0.1-0.1,0.2-0.2,0.3-0.3c0.4,3.8,1.8,14.6,6,22.9c0.1,2,0.9,19,2.4,30c0,0.3,0.3,0.6,0.6,0.7
					c0.1,0,14.2,4,27.8,6.7c0,2,0.1,8-0.4,13.6c0,0.5,0.3,0.9,0.8,0.9c0,0,0,0,0.1,0c0.4,0,0.8-0.3,0.9-0.8
					c0.3-4.8,0.4-9.8,0.4-12.5l2.4,0.1c0.1,1.9,0.4,7.2-0.2,12.3l-1.3,0.1c-0.5,0-0.8,0.5-0.8,0.9c0,0.4,0.4,0.8,0.8,0.8
					c0,0,0.1,0,0.1,0l2-0.2c0.4,0,0.7-0.3,0.8-0.7c0.1-0.7,0.2-1.4,0.2-2.1c3.7-0.3,5.9-0.2,8.5,0l0.6,0c0.4,0,0.8,0,1.2,0
					c3.4,0,6.3-0.9,8.6-2.8c1.5-1.3,3.3-3,4.8-4.9C105.8,230.3,106.5,244,106.5,252.4z M109.2,214.8c0.5,0.8-0.3,2.3-1.2,4.1
					c-0.1,0.3-0.3,0.5-0.4,0.8c0-0.6-0.2-1.1-0.5-1.4c-0.4-0.4-0.9-0.8-1.5-1c1-0.8,1.9-1.9,2.8-3.1
					C108.6,214.2,108.9,214.3,109.2,214.8z M116.6,184.6c-0.1,0.7-0.2,1.3-0.4,2c-1.4,7.8-4.5,19.7-9.1,26.3c0,0-0.1,0.1-0.1,0.2
					c-1.8,2.5-3.8,4.3-6,4.7c-7.3,1.3-10-9.5-12.9-21c-0.3-1-0.5-2.1-0.8-3.1c-2.8-10.7-6.3-23-7.2-26.3l13.4-4.3
					c5.4,13.7,13.5,34.3,13.5,34.5c0.2,0.4,0.7,0.7,1.1,0.5c0.4-0.2,0.7-0.7,0.5-1.1c0-0.1-1.9-5-4.5-11.6c1.2,0,3.2,0.1,5.1,1
					c0.1,0.1,0.2,0.1,0.4,0.1c0.3,0,0.6-0.2,0.8-0.5c0.2-0.4,0-0.9-0.4-1.1c-2.6-1.2-5.4-1.2-6.5-1.1c-1.3-3.2-2.6-6.7-4-10.3
					c0.2-0.6,0.4-1.3,0.6-1.9c0.1-0.3,0-0.7-0.3-0.9l-1.9-1.4c-0.3-0.7-0.6-1.5-0.9-2.2l3.1-0.5c0.4-0.1,0.7-0.4,0.7-0.9
					c-0.1-4.8-1.8-8.8-3.1-11.1c0.7,0.1,1.5,0.2,2.2,0.3c3.6,0.5,6.8,0.9,9.8,2.5c-2,1.5-6.8,6.1-8.3,18.6c-0.1,0.5,0.3,0.9,0.7,1
					c0,0,0.1,0,0.1,0c0.4,0,0.8-0.3,0.8-0.8c1.7-14.5,8.1-17.8,8.2-17.8c0,0,0,0,0,0c0.5,0.4,1,0.8,1.5,1.2
					C119.9,166,118.3,175,116.6,184.6z"/>
			</g>
		</g>
		<path class="st1" d="M333.7,167.8c0,0,0.7-2.4,0.6-4.8c-0.1-2.3,0-4.7,1.1-7.7c1.1-3-0.7-7.4,0.4-8.9c1.1-1.5,5.1-0.5,4.1,7
			c0,0,12.9-12.3,15-6.1c0,0,6.9-3.4,5.2,1.8c0,0,2.1,1.4-5.2,5.9c0,0,3.7-1.9,4.3,0.2c0.6,2.1-4.6,4.4-7,6.1
			c-2.3,1.7-3.4,6-7.9,6.5l-0.8,3.7L333.7,167.8z"/>
		<path class="st9" d="M280.7,162.8c0,0,1.8,17.2,8,25l-12.3,0l-2.4-4c0,0,0.2-5.5,1.9-9.1C277.7,171.2,279.7,166.9,280.7,162.8z"/>
		<path class="st9" d="M263,170.5c0,0-1.9,10.8,6.9,17.3l-1.2,0v15.6c0,0-3.3,3.5-4.7,4.6c-1.4,1.1-3.9,11.1-3.9,11.1
			s-3.7,7.6-0.5,13.2l5.8-2.7c0,0-1.1,3.3-5.1,4.5c-4,1.2-7.7-0.5-9.7-4c-2-3.5-2.8-6.9-2.2-11c0.5-4,3.4-13.2,4.5-18.6
			c1.2-5.4,3.2-16.3,3.8-21C257.4,174.9,258.5,172.5,263,170.5z"/>
		<path class="st10" d="M296,188.2c0,0,8.4-12.8,7.6-25l-3.1-3.8c0,0,4.8-0.3,9.4,3.7l0.6,1.2c0,0,6.2,0,8.2,2.3
			c2,2.3,5.9,8,8.2,14.6l4.5-13.6l14.3,3.6c0,0-2.6,13.3-5.1,22.4c-2.5,9.1-5.4,19.8-9.1,21.6c-3.7,1.8-9-0.9-12.3-9.8
			c0,0-1.5,7.1-1.2,12c0.3,4.9,2.6,28.6,2.1,36.1h-24.6l-4-8.4l-3.5,8.4h-24c0,0,0.5-13.6,2-24.2l0.7-1l-0.8-1.1l2.7-1.3V239h35.1
			v-51L296,188.2z"/>
		<path class="st11" d="M298,110.2c0,0-7.1-3.7-14-0.1c-6.9,3.6-14.9,10.7-9.3,27.2c0,0,1.3-4.6,4.6-2.8c0,0,0.6-4.3,2.8-6
			c0,0,2.7-0.2,5.2-1.9c0,0,7.1,2,11-4.6c0,0,5.3,3.3,6.9,12.5c0,0,2.5-1.8,4.1,1.2c0,0,3.7-5.4,0.9-15.2
			C307.5,110.7,299.9,108.9,298,110.2z"/>
		<path class="st11" d="M284.6,153.6c0,0-0.5,2.8-0.5,4.6c0.1,3.4-3.4,4.7-3.4,4.7s-1.6,7-3.2,9.4c-1.6,2.5-4.3,9.3-3,15.4l-5.1,0.2
			c0,0-7.6-5.9-6.5-16.1c1.1-10.2,10.5-13.9,12.8-17.2c2.3-3.3,4.2-9.1,4.2-9.1S280.9,151.8,284.6,153.6z"/>
		
			<pattern  id="SVGID_1_" xlink:href="#譁ｰ隕上ヱ繧ｿ繝ｼ繝ｳ繧ｹ繧ｦ繧ｩ繝メ_15" patternTransform="matrix(0.3444 -0.3444 0.3444 0.3444 -3104.2349 -6087.7271)">
		</pattern>
		<polygon class="st12" points="169.2,154.6 166.3,154.3 166.4,157 163.6,154.9 161.8,150.8 160.8,138.4 162.2,129.1 166.4,121.6 
			172.1,117.4 179.4,115.3 186.5,116 189.6,118.3 194.1,119.6 197.7,124.5 200.1,133.8 200.4,143.3 198.7,153.8 196,157.9 
			191.7,159.5 189.1,158.5 192.4,153.8 193.4,150 196.1,149.8 198.1,146.5 197.6,141.9 195.6,140.5 194.2,140.4 191.3,133.3 
			187.2,129.7 183.6,133.2 178.3,133.8 175.6,135.2 172.1,135.2 168,139.3 167.7,148.4 		"/>
		<path class="st8" d="M219.9,253.2c0-0.4-3.6-42.3-5.3-54.9c-0.5-3.5-0.8-6.3-1-8.8c-0.7-6.3-1-9.8-3.4-12.9
			c-3.2-4.1-11.6-6.4-12.5-6.6c-0.2-0.6-0.4-1-0.4-1c-0.1-0.2-0.2-0.3-0.3-0.4c-3.3-2.3-6.5-3.1-7.7-3.4c-0.5-2.3-0.3-4.5-0.3-4.6
			c0-0.1,0-0.2,0-0.2c0.5-0.4,1-0.9,1.5-1.4c0,0.1-0.1,0.2,0,0.4c0,0.4,0.4,0.8,0.9,0.8c0,0,0.1,0,0.1,0c8.2-0.7,9-8.2,9.4-11.8
			c0.5-4.8,1.4-12.8-1.5-21.7c-3.2-9.7-9.4-9.3-9.6-9.3c-0.1,0-0.1,0-0.1,0c-0.1-0.2-0.2-0.3-0.3-0.4c-0.3-0.2-7.1-5.2-17-0.5
			c-7,3.3-11,9.5-11.8,18.4c-0.3,3.3-1.5,20,5.3,22.7c0.3,1.8,0.6,4.1,0.8,6c0.1,1.2,0.2,2.4,0.1,3.6c-0.7,0.4-1.4,0.8-2.1,1.3
			c-0.1,0.1-0.2,0.2-0.3,0.4c0,0.1-0.2,0.4-0.4,1c-1.4,0.2-9.4,1.3-12.6,5.3c-3.7,4.7-6.1,11.3-8.2,22.6l-0.2,0.9
			c-2.1,11.3-4,21.1,1.3,24.7c1.1,0.7,2.2,1,3.3,1c3.5,0,7.1-3.1,9.7-6c-0.2,3.1-0.6,7.4-1.1,12.2c-0.7,7.2-1.5,15.4-1.9,22.6
			c0,0.2,0.1,0.5,0.2,0.6c0.2,0.2,0.4,0.3,0.6,0.3h64c0.2,0,0.5-0.1,0.6-0.3C219.8,253.6,219.9,253.4,219.9,253.2z M191.2,170.9
			c-0.2,1.2-0.4,3-0.7,5.1c0,0-0.1,0.1-0.1,0.1c0,0-4.5,4.6-9.6,4.6c-1.1,0-2.3-0.2-3.4-0.6c0.9-0.6,1.7-1.6,1.9-2.7
			c0.2-0.9,0.3-2.1,0-3c0.5-1,0.7-2.3,0.1-3.5c-0.1-0.1-0.2-0.3-0.2-0.4c0-0.3,0.1-0.6,0.1-1c0,0,0.1-0.1,0.1-0.1
			c0.9-1.7,1.1-3.5,0.5-4.8c-0.4-0.8-1.1-1.3-2-1.4c-1.7-0.3-3.1,1.8-3.7,2.8c-0.1,0-0.2,0-0.3,0.1c0.4-1.7,0.5-3.4,0.5-4.5
			c1.7,0.9,3.8,1.4,6.4,1.4c2.6,0,4.7-0.6,6.4-1.4C187.1,163.8,187.4,169.1,191.2,170.9z M174.2,177.5c0,0,1,4.6-0.8,7.7
			c-1.7,3-3.4,3.5-3.4,3.5c-0.1,0-0.2,0.1-0.3,0.2l-4.4-2.9c0.2-1,0.4-2.2,0.7-3.4c0.4-2,0.9-4.2,1.4-6.7c0.5-2.7,0.9-5.4,1-8.2
			c0,0,0,0,0,0c0.1-1.4,0-2.9-0.1-4.3c-0.3-3-0.9-6.8-1.2-8.4c0.4-0.1,0.7,0,1,0.1c0.9,0.5,1.5,2.5,2.1,5.1c0.8,3.4,0.8,6,0.7,6.9
			c-0.9,0.5-1.4,1.1-1.5,1.1c-0.3,0.3-0.3,0.9,0,1.2c0.3,0.3,0.9,0.3,1.2,0c0,0,2.1-2,5-2c0.7,0,1.2,0.2,1.5,0.6
			c0.3,0.3,0.4,0.8,0.4,1.2c-0.4-0.1-0.8-0.2-1.2-0.2c-3-0.2-5.7,2.2-5.8,2.3c-0.4,0.3-0.4,0.9-0.1,1.2c0.3,0.4,0.9,0.4,1.2,0.1
			c0,0,2.3-2,4.6-1.8c0.8,0,1.4,0.3,1.7,0.8c0.2,0.3,0.2,0.8,0.2,1.1c-0.3-0.2-0.7-0.3-1.3-0.3c-2.5-0.1-4.7,1.9-4.8,2
			c-0.4,0.3-0.4,0.9-0.1,1.2c0.3,0.4,0.9,0.4,1.2,0.1c0,0,1.8-1.6,3.6-1.6c0.5,0,0.7,0.2,0.8,0.3c0.3,0.4,0.4,1.4,0.1,2.5
			c-0.2,0.7-0.9,1.4-1.4,1.8c-0.1-0.9-0.2-1.6-0.2-1.6c-0.1-0.5-0.6-0.8-1-0.7C174.4,176.6,174.1,177.1,174.2,177.5z M172.6,160.6
			c0,0,0.2,1.8-0.2,3.9c-0.1-1.2-0.3-2.8-0.7-4.5c0-0.1-0.1-0.3-0.1-0.4c0.3,0.3,0.6,0.6,1,0.8C172.5,160.4,172.5,160.5,172.6,160.6
			z M178.3,166.9c-0.4-0.4-1-0.9-2.1-1.1c0.5-0.6,1-1.1,1.3-1c0.3,0,0.5,0.2,0.7,0.5C178.4,165.7,178.4,166.3,178.3,166.9z
			 M180.7,161.2c-11,0-11.8-11-11.8-11.5c0,0,0-0.1,0-0.1c0-0.1-0.6-4.1-0.4-9.5c0,0,0,0,0,0c0.1-0.1,1.9-1.5,3.9-3.9
			c0.4,0,0.8,0.1,1.2,0.1c2,0,3.8-0.5,5.2-1.5c0.4,0,0.8,0.1,1.3,0.1c2.2,0,4-0.6,5.4-1.9c0.7-0.6,1.3-1.4,1.8-2.1
			c1.4,0.9,4.6,3.6,5.8,9.6c-0.3,0.3-0.4,0.7-0.2,1.1c0.2,0.4,0.8,0.6,1.2,0.3c0.2-0.1,1.7-0.9,2.8,0.5c0.6,0.7,0.8,4.4-0.6,6.3
			c-0.5,0.8-1.2,1-2.1,0.9c-0.1-0.3-0.4-0.5-0.7-0.5c-0.5,0-0.9,0.3-0.9,0.8C192.5,150.1,191.7,161.2,180.7,161.2z M162.1,135.1
			c0.7-8.2,4.4-14,10.8-17c9-4.3,15,0.1,15.2,0.3c0.2,0.2,0.5,0.2,0.7,0.1c0.1,0.4,0.5,0.6,0.9,0.6c0.1,0,5.1-0.3,7.9,8.1
			c2.8,8.5,1.9,16.3,1.4,20.9c-0.5,4.7-1.6,9.7-7.9,10.3c-0.1,0-0.2,0-0.3,0.1c2.2-2.6,3-5.7,3.3-7.5c0.2,0,0.4,0,0.6,0
			c1.2,0,2.3-0.6,3-1.6c1.6-2.3,1.7-6.8,0.5-8.3c-1-1.3-2.3-1.6-3.4-1.4c-1.4-6.7-5.1-9.6-6.6-10.6c0.9-2.2,1-4.3,1-4.4
			c0-0.5-0.4-0.9-0.8-0.9c-0.5,0-0.9,0.4-0.9,0.8c0,0-0.1,4.5-2.9,6.8c-1,0.9-2.3,1.4-3.8,1.4c2.7-3.3,2.9-8,2.9-8.2
			c0-0.5-0.4-0.9-0.8-0.9c-0.5,0-0.9,0.4-0.9,0.8c0,0.1-0.2,5.4-3.4,8.1c-1.3,1.1-2.9,1.6-4.7,1.7c1.5-2,3-4.5,4-7.4
			c0.2-0.4-0.1-0.9-0.5-1.1c-0.4-0.2-0.9,0.1-1.1,0.5c-1.9,5.3-5.6,9.3-7.5,11.1c0.1-1.4,0.3-2.8,0.6-4.2c0.1-0.5-0.2-0.9-0.7-1
			c-0.5-0.1-0.9,0.2-1,0.7c-1.6,8.4-0.5,16-0.4,16.7c0,0.3,0.2,1.8,0.7,3.6c-0.6-0.1-1.4-0.1-2.2,0.2c-0.4,0.1-0.6,0.5-0.6,1
			c0,0,0.1,0.3,0.1,0.8C161.6,152.3,161.5,141.5,162.1,135.1z M166.5,169.3c-0.2,2.1-0.5,4.3-0.8,6.4c-0.4,2.5-0.9,4.7-1.3,6.6
			c-0.2,0.9-0.4,1.8-0.6,2.7l-1.1-0.7c-0.1-0.1-0.3-0.1-0.5-0.1c0.4-5.8,3-13,3.6-14.4C166,169.6,166.2,169.4,166.5,169.3z
			 M145.2,222c-4.3-2.9-2.6-12.2-0.6-22.9l0.2-0.9c2.6-13.7,5.3-18.6,7.9-21.9c2.3-2.9,8.2-4.1,10.6-4.5c-1.1,3.5-2.9,9.5-2.8,14.1
			l-2.5,3.2c0-0.1,0-0.2,0-0.3c0.1-2.3-1.4-6-1.4-6.2c-0.2-0.4-0.7-0.7-1.1-0.5c-0.4,0.2-0.7,0.7-0.5,1.1c0.4,1,1.4,3.9,1.3,5.5
			c0,0.6-0.3,1.6-0.7,2.7c-0.1,0.3-0.2,0.7-0.3,1.1l-9.5,12.3c-0.3,0.4-0.2,0.9,0.1,1.2c0.2,0.1,0.3,0.2,0.5,0.2
			c0.3,0,0.5-0.1,0.7-0.3l15.3-19.7l9.3,6.2c0.4,0.3,0.9,0.2,1.2-0.2c0.3-0.4,0.2-0.9-0.2-1.2l-1.3-0.9c0.9-0.5,2.2-1.6,3.6-4
			c0.8-1.4,1.1-3.1,1.2-4.6c1.6,0.6,3.1,0.9,4.6,0.9c4,0,7.5-2.3,9.4-3.8c-1,7-2.3,16.3-3.1,22.4c-1.5,11-0.6,17.7,0.5,25.4l0,0.1
			c1,7.2,3.6,24.1,3.9,25.9h-21.3c0.3-1.8,2.9-18.6,3.9-25.9l0-0.1c1-7.7,1.9-14.3,0.5-25.4c-0.3-2-0.6-4.4-0.9-6.9
			c-0.1-0.5-0.5-0.8-1-0.7c-0.3,0-0.6,0.3-0.7,0.6c-0.1,0.1-0.2,0.2-0.2,0.3c-0.1,0.1-8,13-12.6,19.1
			C153,221.4,148.5,224.2,145.2,222z M157.8,230.7c0.6-6,1.1-11.2,1.2-14.4c0,0,0-0.1,0-0.1c0.6-0.7,1-1.3,1.4-1.8
			c1.8-2.4,4.2-6,6.4-9.3c2.6,4.3,4.8,7.9,3.9,12.8c-0.1,0.5,0.2,0.9,0.7,1c0.1,0,0.1,0,0.2,0c0.4,0,0.8-0.3,0.8-0.7
			c1-5.5-1.5-9.7-4.2-14.1l-0.4-0.6c0,0,0,0,0,0c1.8-2.8,3.4-5.3,4.3-6.8c0.2,1.7,0.4,3.2,0.6,4.6c1.5,10.8,0.6,17.3-0.5,24.9l0,0.1
			c-1,7.6-3.9,25.8-3.9,26c0,0,0,0.1,0,0.1H156C156.4,245.4,157.1,237.6,157.8,230.7z M207.2,252.4
			C207.2,252.4,207.2,252.3,207.2,252.4c-0.4-7.2-1.2-15.3-1.9-22.4c-0.7-7.3-1.3-13.5-1.2-16.1c0.1-2.5,0.8-4.7,1.5-7
			c0.7-2.1,1.3-4.3,1.6-6.8c0.3-3.4-0.7-6.4-1.4-8.7c-0.4-1.1-0.7-2.1-0.7-2.7c-0.1-1.6,0.9-4.5,1.3-5.5c0.2-0.4,0-0.9-0.5-1.1
			c-0.4-0.2-0.9,0-1.1,0.5c-0.1,0.2-1.5,3.9-1.4,6.2c0,0.9,0.4,1.9,0.8,3.2c0.7,2.2,1.6,5,1.3,8c-0.2,2.3-0.8,4.3-1.5,6.4
			c-0.7,2.3-1.5,4.7-1.6,7.5c-0.1,2.7,0.5,8.7,1.2,16.3c0.7,7.1,1.5,15.1,1.9,22.2h-12.4c0,0,0-0.1,0-0.1c0-0.2-2.9-18.4-3.9-26
			l0-0.1c-1-7.6-1.9-14.1-0.5-24.9c1.5-10.8,4.4-31.7,4.4-31.9c0.1-0.5-0.3-0.9-0.7-1c-0.5-0.1-0.9,0.2-1,0.7
			c-0.7-0.5-1.3-1.2-1.7-2c1.4,0.4,3.6,1.1,5.9,2.7c0.6,1.6,3.8,10.4,3.6,16.4c-0.2,6.9-3.2,13.2-5.7,17.3l-0.4,0.6
			c-2.7,4.4-5.2,8.6-4.2,14.1c0.1,0.4,0.4,0.7,0.8,0.7c0.1,0,0.1,0,0.2,0c0.5-0.1,0.8-0.5,0.7-1c-0.9-4.9,1.4-8.6,4-12.9l0.4-0.6
			c2.6-4.3,5.7-10.9,5.9-18.2c0.1-4.6-1.6-10.7-2.8-14.3c2.5,0.8,8.2,2.8,10.5,5.7c2.1,2.7,2.4,5.8,3.1,12c0.2,2.4,0.6,5.3,1,8.9
			c1.5,11.5,4.7,47.6,5.2,53.9H207.2z"/>
		
			<pattern  id="SVGID_00000102528414762562538890000018078773527647203739_" xlink:href="#譁ｰ隕上ヱ繧ｿ繝ｼ繝ｳ繧ｹ繧ｦ繧ｩ繝メ_16" patternTransform="matrix(0.3444 -0.3444 0.3444 0.3444 -3105.0754 -6088.4609)">
		</pattern>
		<polygon style="fill:url(#SVGID_00000102528414762562538890000018078773527647203739_);" points="269,208.3 269,187.8 
			303.8,187.8 303.8,238.6 268.7,238.6 268.7,225.7 279.6,217.9 282.9,213.7 282.4,211.6 283.9,209.3 282.7,206.9 282.9,205.2 
			281.8,204.2 279.7,204.7 279.4,202.8 277.1,202.9 		"/>
		<g>
			<path class="st8" d="M298.9,134.3c0,0.5-0.4,0.9-0.9,0.9c-0.5,0-0.9-0.4-0.9-0.9c0-0.5,0.4-0.9,0.9-0.9
				C298.5,133.4,298.9,133.8,298.9,134.3z"/>
			<path class="st8" d="M285.6,134.3c0,0.5,0.4,0.9,0.9,0.9c0.5,0,0.9-0.4,0.9-0.9c0-0.5-0.4-0.9-0.9-0.9
				C286,133.4,285.6,133.8,285.6,134.3z"/>
			<path class="st8" d="M300.8,131.2c-0.3,0-0.6-0.1-0.7-0.4c0,0-0.8-1.2-1.9-1.2c-1.2,0-1.9,0.8-2,0.8c-0.3,0.3-0.9,0.3-1.2,0
				c-0.3-0.3-0.3-0.9,0-1.2c0.1-0.1,1.3-1.3,3.2-1.3c2,0,3.2,1.9,3.3,1.9c0.3,0.4,0.1,0.9-0.2,1.2
				C301.1,131.2,301,131.2,300.8,131.2z"/>
			<path class="st8" d="M292.8,142.9h-1c-0.5,0-0.9-0.4-0.9-0.9c0-0.5,0.4-0.9,0.9-0.9h1c0.5,0,0.9,0.4,0.9,0.9
				C293.6,142.5,293.3,142.9,292.8,142.9z"/>
			<path class="st8" d="M292.3,150.9c-3.1,0-4.5-2.8-4.9-4.3c-0.1-0.3,0-0.5,0.2-0.7c0.2-0.2,0.4-0.3,0.7-0.3h8.1
				c0.3,0,0.5,0.1,0.7,0.3c0.2,0.2,0.2,0.5,0.2,0.7C296.8,148.1,295.3,150.9,292.3,150.9z M289.5,147.4c0.4,0.8,1.3,1.9,2.8,1.9
				c1.5,0,2.3-1.1,2.8-1.9H289.5z"/>
			<path class="st8" d="M339.5,163c-0.3,0-0.5-0.1-0.7-0.4c-0.3-0.4-0.2-0.9,0.2-1.2c0.1-0.1,2-1.3,4.6-1.3c1.1,0,3.2-1.1,4.4-1.8
				c0.4-0.2,0.9-0.1,1.2,0.3c0.2,0.4,0.1,0.9-0.3,1.2c-0.3,0.2-3.4,2-5.2,2c-2.1,0-3.6,1-3.6,1C339.9,162.9,339.7,163,339.5,163z"/>
			<path class="st8" d="M360.8,148.7c0.2-0.3,0.3-0.6,0.3-1c0-0.4-0.1-1.1-0.7-1.8c-0.8-0.9-2.4-0.9-5.1,0.2c-0.3-0.7-0.8-1-1.2-1.2
				c-2.2-1-5.9,1-7.8,2.2c-2.2,1.4-4.2,3.1-5.5,4.2c0-0.6,0-1.2-0.1-1.8c-0.5-4-2.6-4.6-4.3-4.5c-0.5,0-0.9,0.2-1.1,0.6
				c-0.8,1-0.6,2.8-0.3,4.7c0.1,0.8,0.2,1.6,0.2,2.3c0,1-0.4,2-0.8,3.2c-0.5,1.4-0.9,2.9-1,4.4c0,0.7,0,1.3,0,1.9
				c0.1,1.7,0.1,3.1-0.4,4.8l-1.3-0.3c-0.4-0.1-0.9,0.1-1,0.6l-3.7,11.6c-2.1-5-5.5-11.7-8.4-13.5c-2.4-1.5-6.5-2.1-7.6-2.3
				c-0.1-0.3-0.2-0.4-0.3-0.5c-0.1-0.1-0.2-0.2-0.3-0.3c-0.1-0.1-3.1-2.1-4.5-2.8c-1.4-0.8-4.5-1.4-4.6-1.4c-0.1,0-0.2,0-0.3,0
				c-0.4-1.8-0.4-3.5-0.4-4.2c3.5-2.9,4.6-7.4,4.9-9.3c0.2,0,0.3,0,0.5,0c1.2,0,2.3-0.6,3-1.6c1.4-1.9,1.6-5.2,1-7.2
				c0.9-1.8,4.4-10.1-0.7-18.7c-6-10.1-11.3-8-11.9-7.7c-2.9-1.3-9.8-3.4-17.5,1.8c-10.2,6.9-9.1,20.9-6.2,26.5c0,0,0.1,0.1,0.1,0.1
				c0,1.8,0.4,3.9,1.3,5.2c0.8,1.1,1.8,1.6,3,1.6c0.2,0,0.3,0,0.5,0c0.3,2,1.4,6.4,4.9,9.3c0.1,1.2,0.1,5.9-2.6,8.1
				c-0.1-2.5-0.5-5.1-0.5-5.3c-0.1-0.5-0.5-0.8-1-0.7c-0.5,0.1-0.8,0.5-0.7,1c0,0,0.7,4.5,0.4,7c-0.3,2.5-2.3,7.3-3.7,9.7
				c-1.8,3.2-3.1,8.8-2.2,13.3h-3.3c0,0,0,0-0.1,0c0,0-4.8-3.7-6.2-10.6c-1.2-6,1.2-11.8,6.5-16.1c0.3-0.3,0.7-0.5,1-0.8
				c3.3-2.6,6.5-5.1,8.4-10.2c0.2-0.4-0.1-0.9-0.5-1.1c-0.4-0.2-0.9,0.1-1.1,0.5c-1.7,4.6-4.6,6.8-7.8,9.4c-0.3,0.3-0.7,0.5-1,0.8
				c-3.8,3-6.3,6.8-7.1,10.9c-1.2,0.5-4.2,2-5.4,5.5c-0.8,2.4-1.7,7.8-2.5,13c-0.6,3.7-1.1,7.2-1.6,9.3c-0.3,1.5-0.9,3.7-1.6,6.3
				c-2.1,8.4-3.7,14.6-3.6,16.2c-0.7,4.1,1.3,9.9,4.7,13.1c1.6,1.5,3.4,1.9,5.1,1.9c2.3,0,4.3-0.8,4.4-0.9c0.1-0.1,0.2-0.1,0.3-0.2
				c1.4-0.5,2.4-1.6,3-2.6c-0.6,4.3-1.6,12.8-2.1,21.5c0,0.2,0.1,0.5,0.2,0.6c0.2,0.2,0.4,0.3,0.6,0.3H288c0.3,0,0.7-0.2,0.8-0.5
				l2.8-6.5l3.1,6.6c0.1,0.3,0.4,0.5,0.8,0.5h24.7c0.5,0,0.9-0.4,0.9-0.9s-0.4-0.9-0.9-0.9H296l-3.7-7.8c-0.1-0.3-0.5-0.5-0.8-0.5
				c-0.3,0-0.6,0.2-0.8,0.5l-3.3,7.8h-22.6c0.6-10.7,2.1-20.9,2.4-23c0.4-0.6,0.5-1.3,0.5-1.4c0-0.1,0-0.3-0.1-0.4
				c0.1-0.1,0.3-0.1,0.4-0.2v11.5c0,0.5,0.6,0.9,1,0.9h35.2c0.5,0,0.7-0.4,0.7-0.9v-45c0.1,0,0.1-0.1,0.2-0.1
				c0.2-0.3,6.1-6.4,8.6-16c0.1-0.3,0-0.7-0.3-0.9c-1-0.7-2.5-1.8-3.5-2.5l3.4-0.9c0.4-0.1,0.7-0.5,0.6-0.9
				c-0.2-3.1-1.1-5.8-1.9-7.6c1.6,0.3,4.2,0.8,5.9,1.9c2.5,1.6,6.2,8.7,8.5,14.6c0,0,0,0,0,0.1l-4.3,13.7c-0.1,0.5,0.1,0.9,0.6,1.1
				c0.5,0.1,0.9-0.1,1.1-0.6l8.6-27.2l12.7,3c-0.6,2.8-2.6,12.4-5,21.7c-1.9,7.7-5.5,21.9-10.4,21.6c-6.3-0.4-9.1-9.4-9.1-9.5
				c0-0.1-0.1-0.2-0.2-0.3c0,0,0,0,0,0c0.4-2.5,0.8-4.9,0.9-6.8c0.2-3.1-0.2-6-0.6-8.6c-0.3-1.9-0.5-3.5-0.4-4.8
				c0.2-3,1.2-5.6,1.2-5.7c0.2-0.4-0.1-0.9-0.5-1.1c-0.4-0.2-0.9,0.1-1.1,0.5c0,0.1-1.1,2.9-1.3,6.1c-0.1,1.5,0.1,3.2,0.4,5.2
				c0.4,2.5,0.8,5.3,0.6,8.2c-0.1,1.9-0.5,4.2-0.9,6.7c-0.6,4-1.4,8.6-1.2,12.4c0.1,2.5,0.4,7,0.9,12.1c0.6,7.3,1.3,15.5,1.3,20.5
				c0,0.5,0.4,0.9,0.9,0.9c0,0,0,0,0,0c0.5,0,0.9-0.5,0.8-1c0-5-0.7-13.4-1.3-20.6c-0.4-5.1-0.8-9.6-0.9-12
				c-0.1-2.7,0.3-5.8,0.7-8.8c1.4,3,4.5,7.8,9.6,8.2c0.1,0,0.2,0,0.3,0c5.7,0,9-11.3,11.9-22.9c2.8-11.1,5.1-22.5,5.2-22.6
				c0.1-0.5-0.2-0.9-0.6-1l-11.3-2.7c0.6-1.9,0.5-3.5,0.4-5.2c0-0.6,0-1.2,0-1.8c0-1.3,0.4-2.6,0.9-3.9c0.4-1.3,0.8-2.5,0.8-3.7
				c0-0.7-0.1-1.6-0.2-2.5c-0.1-1-0.4-3-0.1-3.4c1-0.1,2.1,0.2,2.5,3c0.2,1.3,0,3.5,0,3.5c0,0.4,0.2,0.7,0.5,0.8
				c0.3,0.2,0.7,0.1,1-0.2c0,0,3.2-3.1,6.8-5.4c3.1-2,5.3-2.5,6.2-2.1c0.1,0.1,0.3,0.1,0.4,0.3c-0.3,0.1-0.6,0.3-0.9,0.4
				c-2,1-7.3,4.3-7.6,4.5c-0.4,0.3-0.5,0.8-0.3,1.2c0.2,0.3,0.4,0.4,0.7,0.4c0.2,0,0.3,0,0.5-0.1c0.1,0,5.5-3.4,7.4-4.4
				c4.7-2.3,5.5-1.7,5.5-1.7c0.2,0.3,0.2,0.5,0.2,0.5c0,0.1,0,0.2-0.1,0.3c-1.3-0.1-2.9,1-4.4,1.9l-0.4,0.2
				c-1.9,1.1-6.3,3.8-6.3,3.8l0.9,1.5c0,0,4.4-2.7,6.3-3.8l0.4-0.2c2.3-1.4,3.2-1.7,3.5-1.6c0,0,0.1,0,0.1,0c0,0,0,0,0,0
				c0.1,0.1,0.1,0.2,0.1,0.3c0,0.3-0.5,1-1.5,1.8c-2.2,1.6-4.6,3.4-4.6,3.4c0,0,0,0-0.1,0.1c-1.6,0.8-3,1.6-3,1.6l0.8,1.5
				c0,0,3.1-1.7,5.1-2.8c1.1-0.6,1.9-0.5,2.1-0.2c0.1,0.1,0,0.3-0.2,0.4c-0.7,0.9-2.3,1.9-3.7,3c-1.2,0.8-2.3,1.6-3.1,2.3
				c-0.6,0.5-1.1,1.2-1.6,1.9c-1.4,1.9-3,4.1-6,3.9c-0.5,0-0.9,0.3-0.9,0.8c0,0.5,0.3,0.9,0.8,0.9c0.1,0,0.2,0,0.3,0
				c3.7,0,5.6-2.7,7.1-4.6c0.5-0.7,0.9-1.3,1.4-1.7c0.7-0.7,1.8-1.4,2.9-2.2c1.6-1.1,3.2-2.2,4.1-3.2c0.7-0.8,0.8-1.9,0.2-2.6
				c-0.3-0.3-0.7-0.6-1.2-0.7c0.2-0.1,0.4-0.3,0.5-0.4c1.4-1,2.1-2,2.2-2.9C361.2,149.6,361.1,149.1,360.8,148.7z M281.1,112.6
				c9.1-6.1,16.7-1.2,17-1c0.4,0.3,0.9,0.2,1.2-0.2c0.1-0.2,0.2-0.4,0.1-0.6c1.6-0.1,4.8,0.8,8.7,7.2c4,6.7,2.1,13.4,1.1,16.1
				c-0.2-0.2-0.4-0.3-0.6-0.4c1-7.1-1.3-11-1.4-11.1c-0.2-0.4-0.8-0.5-1.2-0.3c-0.4,0.2-0.5,0.8-0.3,1.2c0,0,2,3.5,1.2,9.8
				c-0.3,0-0.7,0-1,0.1c-1.2-6.6-5-10.3-6.5-11.6c0.2-0.5,0.5-1,0.7-1.5c0.2-0.4-0.1-0.9-0.5-1.1c-0.4-0.2-0.9,0.1-1.1,0.5
				c-2.5,6.5-7.4,6.7-9.7,6.4c1.6-1.7,3-4.2,3.5-8c0.1-0.5-0.3-0.9-0.7-1c-0.5-0.1-0.9,0.3-1,0.7c-0.9,7-5,9-7.2,9.6
				c1.3-2.5,1.4-4.6,1.4-4.7c0-0.5-0.4-0.9-0.8-0.9c-0.5,0-0.9,0.4-0.9,0.8c0,0-0.1,2.5-2.1,5.4c-1.5,2.1-2.2,3.7-2.5,5.2
				c-1.1-0.2-2.7-0.1-3.8,1.4c0,0.1-0.1,0.1-0.1,0.2C272.9,129.2,272.7,118.2,281.1,112.6z M280.5,143.5c0-0.1,0-0.2,0-0.3
				c-0.2-0.4-0.6-0.7-1.1-0.5c-1.1,0.4-2,0.1-2.6-0.7c-1.4-1.9-1.1-5.5-0.6-6.3c0.9-1.2,2.1-0.8,2.6-0.6c0.2,0.2,0.4,0.3,0.6,0.3
				c0,0,0,0,0,0c0.3,0,0.6-0.3,0.8-0.6c0.1-0.1,0.1-0.2,0.1-0.4c0,0,0,0,0,0c0-1.5,0.6-3,2-5.1c0.4,0,2.7-0.3,5-1.9
				c0.4,0.1,1.5,0.4,2.9,0.4c2.5,0,5.9-0.8,8.4-4.5c1.5,1.3,5,5.1,5.8,11.3c0.1,0.4,0.4,0.7,0.8,0.7c0,0,0.1,0,0.1,0
				c0.1,0,0.2,0,0.3-0.1c0,0,0,0,0,0c0.2-0.1,1.7-0.9,2.8,0.5c0,0,0.1,0.1,0.1,0.2c0,0.1,0,0.1,0.1,0.2c0.4,1.2,0.5,4.2-0.8,5.9
				c-0.6,0.9-1.5,1.1-2.6,0.7c-0.4-0.2-0.9,0.1-1.1,0.5c0,0.1,0,0.2,0,0.3c0,0.7-0.8,11.5-11.8,11.5
				C281.3,155,280.5,144.2,280.5,143.5z M285.5,155.1c1.8,1,4,1.6,6.8,1.6c2.8,0,5-0.6,6.8-1.6c0.1,2.3,0.6,6.5,3.7,8.6c0,0,0,0,0,0
				c0,0.7-0.1,1.6-0.2,2.8c-0.1,0-0.3,0.1-0.4,0.2c0,0-3.5,2.5-10.2,2.5c-5.7,0-9-1.8-9.9-2.3c-0.2-1.4-0.2-2.5-0.2-3.2
				C284.9,161.5,285.4,157.4,285.5,155.1z M289.2,187c-4.2-7.1-6-13.6-6.7-18.1c1.7,0.8,5,1.9,9.6,1.9c5.3,0,8.8-1.4,10.3-2.2
				c-0.7,4.5-2.5,11.1-6.8,18.4H289.2z M277.2,174.5c1-1.7,2.4-4.8,3.2-7.5c0.5,4.5,2.1,11.8,6.8,19.9h-10.3
				c-0.5-0.8-1.5-2.3-1.9-3.1c0,0-0.1-0.1-0.1-0.1C275,180.4,275.9,176.8,277.2,174.5z M277.4,206c-1.8,1.1-6.3,4.4-7,5.2
				c-0.3,0.4-0.3,0.9,0.1,1.2c0.2,0.1,0.4,0.2,0.5,0.2c0.2,0,0.5-0.1,0.7-0.3c0.5-0.6,4.6-3.6,6.6-4.9c0.9-0.5,1.4-1.1,1.8-1.6
				c0.3-0.2,1.2-0.7,1.7-0.6c0.2,0,0.3,0.1,0.4,0.2c0.3,0.4-1.1,1.6-1.6,2c-0.1,0.1-0.2,0.2-0.3,0.2c-0.9,0.8-7.2,5.7-7.2,5.8
				c-0.4,0.3-0.4,0.8-0.1,1.2c0.2,0.2,0.4,0.3,0.7,0.3c0.2,0,0.4-0.1,0.5-0.2c0.3-0.2,6.3-5,7.3-5.8c0.1-0.1,0.2-0.1,0.3-0.2
				c0.1-0.1,0.2-0.2,0.3-0.3c0.2-0.1,0.5-0.3,0.9,0.2c0.3,0.4-1.4,2.1-2.1,2.8l-0.4,0.4c-1.3,1.3-5.4,4.1-5.5,4.1
				c-0.4,0.3-0.5,0.8-0.2,1.2c0.2,0.2,0.4,0.4,0.7,0.4c0.2,0,0.3,0,0.5-0.1c0.2-0.1,4.3-2.9,5.7-4.4l0.1-0.1c0.2,0,0.4,0.1,0.5,0.2
				c0,0,0,0.1-0.1,0.4c-0.4,1.1-3,3.7-6.6,6.4c-0.4,0.3-0.9,0.7-1.3,1.1c-2.5,2-6.2,5-9.4,5.2c-1.2-0.5-2.5-1.2-3.1-2.1
				c-0.8-1.2-0.8-3.2-0.6-4.6c0.3-2,1.3-5.1,1.9-6.7l0.1-0.5c0,0,0,0,0,0l0-0.2c0.5-1.5,1.2-3.7,2.2-4.3c0.7-0.5,1.8-1.4,2.6-2.3
				v2.5c-1.3,0.9-3.2,2-3.2,2c-0.4,0.2-0.6,0.7-0.3,1.2c0.2,0.4,0.7,0.6,1.2,0.3c0.1-0.1,2.8-1.6,4.2-2.7c1.5-1.2,6.8-4.6,7.9-5.1
				c0.4-0.2,0.8-0.3,1.1-0.3c0.1,0,0.2,0.1,0.2,0.2C279.3,204.7,278,205.6,277.4,206z M261.5,232.7c-0.1,0-0.2,0.1-0.4,0
				c0.3-0.1,0.9-0.4,1.6-0.7C262.4,232.2,262,232.5,261.5,232.7z M265.6,228.6c-0.5,0.3-3.5,1.8-5.3,2.6c-0.1,0-0.2,0.1-0.2,0.1
				c-0.6-1.4-1-3.6-0.8-6c0.1-0.7,0.1-1.4,0.3-2c0.2,0.7,0.4,1.3,0.8,1.9c1.2,1.8,3.9,2.8,5.3,3.3
				C265.6,228.5,265.6,228.5,265.6,228.6z M252.9,204.5c0.7-2.6,1.2-4.9,1.6-6.4c0.5-2.2,1.1-5.7,1.7-9.4c0.8-5.1,1.7-10.5,2.4-12.7
				c0.7-2.2,2.3-3.4,3.5-4c-0.1,1.6,0,3.2,0.3,4.8c1.1,5.6,4.2,9.2,5.8,10.7c-0.1,0.1-0.1,0.3-0.1,0.4v15.4
				c-0.3,0.3-0.7,0.7-1.1,1.1c-1.1-7.6-1.2-12.4-1.2-12.5c0-0.5-0.4-0.8-0.9-0.8c-0.5,0-0.8,0.4-0.8,0.9c0,0.1,0.1,5.4,1.3,13.5
				c0,0.1,0.1,0.2,0.1,0.3c-0.4,0.3-0.7,0.6-1,0.8c-0.7,0.5-1.2,1.2-1.7,2.1c-0.2-0.1-0.4-0.3-0.6-0.5c-0.5-0.5-1.2-1.1-2.1-1.4
				c-1.8-0.5-5,2.4-6.3,3.6c-0.3,0.3-0.3,0.9,0,1.2c0.2,0.2,0.4,0.3,0.6,0.3c0.2,0,0.4-0.1,0.6-0.2c1.9-1.8,4.1-3.3,4.6-3.2
				c0.5,0.2,1,0.6,1.4,1c0.3,0.3,0.7,0.7,1.1,0.9c-0.2,0.4-0.3,0.9-0.4,1.3c-1,0.3-3.6,1.2-5.6,1.2c-1.9,0-4.1,1-5.8,2.8
				C250.9,212.1,252,207.7,252.9,204.5z M253.5,232.3c-3-2.8-4.9-8.2-4.2-11.7c0,0,0,0,0,0c0-0.2,0.1-0.4,0.2-0.6
				c1.1-3.4,4.2-5.5,6.6-5.5c1.7,0,3.6-0.5,5-0.9c-0.3,1.1-0.8,2.4-1.1,3.7c-0.4,0.6-2,3.7-2.3,8c-0.2,3,0.3,6.6,1.9,8.3
				C257.8,233.8,255.3,234,253.5,232.3z M303.3,238.1h-33.5v-11.6c2-1.1,3.9-2.7,5.5-4c0.5-0.4,0.9-0.7,1.3-1
				c1.9-1.5,6.4-5.1,7.1-7.2c0.3-1,0.1-1.6-0.2-2c-0.2-0.2-0.4-0.4-0.6-0.5c1.3-1.4,2.2-2.8,1.2-4.1c-0.2-0.3-0.5-0.5-0.7-0.6
				c0.5-0.8,0.8-1.7,0.1-2.6c-0.4-0.5-0.9-0.8-1.5-0.9c-0.5-0.1-1,0-1.4,0.2c-0.1-0.2-0.1-0.4-0.2-0.6c-0.3-0.5-0.7-0.9-1.2-1.1
				c-0.7-0.2-1.5-0.1-2.4,0.4c-1,0.5-4.8,2.9-7,4.5v-18.1h33.5V238.1z M307.5,173.2c-0.3,0.1-0.6,0.3-0.6,0.7
				c-0.1,0.3,0.1,0.7,0.3,0.9c0,0,2.7,1.9,4.6,3.2c-1.8,6.4-5.2,11.2-6.9,13.4v-3.5c0-0.5-0.2-0.9-0.7-0.9h-6.8
				c7.6-13.4,7-24.2,7-24.7c0-0.5-0.4-0.8-0.9-0.8c-0.2,0-0.4,0.1-0.5,0.2c-0.5-0.5-0.9-1.1-1.3-1.8c1,0.2,2.6,0.7,3.4,1.1
				c1.1,0.6,3.5,2.2,4.2,2.6c0.4,0.8,2.1,4.2,2.6,8.3L307.5,173.2z"/>
		</g>
		<g>
			<path class="st1" d="M253.8,142.9L253.8,142.9c-1.3,0.9-2.8,0.3-3.7-1l-1.2-1.9l0,0c-2.1-3.1-7.2-1.1-10.2-5.8
				c-2.5-3.8-1.8-8.9,2-11.4c3.8-2.5,8.7-1.3,11.2,2.5c3.1,4.7-0.8,8.9,1.2,11.6h0l1.2,2C255.3,140.3,255.2,142,253.8,142.9
				L253.8,142.9L253.8,142.9z"/>
			<path class="st14" d="M255.1,138.5l-1.2-2c0,0,0,0,0-0.1c-0.7-0.9-0.5-2.2-0.2-3.8c0.4-2.2,0.9-4.9-1-7.7
				c-1.7-2.6-4.6-4.2-7.6-4.2c-1.7,0-3.4,0.5-4.8,1.5c-4.1,2.7-5.1,8.2-2.3,12.5c1.9,2.8,4.5,3.5,6.5,4c1.6,0.4,2.9,0.7,3.7,1.8
				c0.1,0.1,0.1,0.2,0.2,0.2l1.1,1.6c0.8,1.2,1.9,1.8,3.1,1.8c0.6,0,1.2-0.2,1.8-0.6c0.1-0.1,0.2-0.2,0.3-0.3
				c0.7-0.6,1.1-1.3,1.2-2.2C255.9,140.2,255.7,139.3,255.1,138.5z M244.9,137c-2-0.5-4-1-5.5-3.2c-2.3-3.5-1.5-8,1.8-10.2
				c1.2-0.8,2.5-1.2,3.9-1.2c2.4,0,4.7,1.3,6.1,3.4c1.5,2.3,1.1,4.4,0.8,6.5c-0.3,1.7-0.6,3.5,0.5,5l0.2,0.4l-3,1.9l-0.1-0.1
				c-0.1-0.1-0.1-0.2-0.2-0.2C248.3,137.8,246.5,137.4,244.9,137z M254.1,140.9c-0.1,0.5-0.3,0.9-0.7,1.2c-0.1,0.1-0.2,0.1-0.2,0.2
				c-0.2,0.1-0.4,0.2-0.7,0.2c-0.6,0-1.2-0.4-1.7-1.1l-0.2-0.3l2.9-1.9l0.1,0.2C254,139.9,254.2,140.4,254.1,140.9z"/>
			<g>
				<path class="st14" d="M230.1,125.9c-0.1,0-0.2,0-0.3-0.1l-2.7-1c-0.4-0.2-0.7-0.7-0.5-1.1c0.2-0.4,0.7-0.7,1.1-0.5l2.7,1
					c0.4,0.2,0.7,0.7,0.5,1.1C230.8,125.7,230.5,125.9,230.1,125.9z"/>
			</g>
			<g>
				<path class="st14" d="M232.7,121.3c-0.2,0-0.4-0.1-0.5-0.2l-2.3-1.8c-0.4-0.3-0.4-0.8-0.1-1.2c0.3-0.4,0.8-0.4,1.2-0.1l2.3,1.8
					c0.4,0.3,0.4,0.8,0.1,1.2C233.2,121.2,233,121.3,232.7,121.3z"/>
			</g>
			<g>
				<path class="st14" d="M246.6,115.1C246.6,115.1,246.6,115.1,246.6,115.1c-0.5,0-0.9-0.4-0.9-0.9l0.1-2.9c0-0.5,0.4-0.8,0.9-0.8
					c0.5,0,0.8,0.4,0.8,0.9l-0.1,2.9C247.5,114.7,247.1,115.1,246.6,115.1z"/>
			</g>
			<g>
				<path class="st14" d="M241.4,115.7c-0.4,0-0.7-0.2-0.8-0.6l-0.8-2.8c-0.1-0.5,0.1-0.9,0.6-1.1c0.5-0.1,0.9,0.1,1.1,0.6l0.8,2.8
					c0.1,0.5-0.1,0.9-0.6,1.1C241.6,115.7,241.5,115.7,241.4,115.7z"/>
			</g>
			<g>
				<path class="st14" d="M236.6,117.8c-0.3,0-0.6-0.1-0.7-0.4l-1.6-2.4c-0.3-0.4-0.1-0.9,0.2-1.2c0.4-0.3,0.9-0.1,1.2,0.2l1.6,2.4
					c0.3,0.4,0.1,0.9-0.2,1.2C237,117.8,236.8,117.8,236.6,117.8z"/>
			</g>
		</g>
	</g>
	<rect class="st0" width="366.7" height="254.1"/>
</g>
</svg>
