<?xml version="1.0" encoding="utf-8"?>
<!-- Generator: Adobe Illustrator 28.0.0, SVG Export Plug-In . SVG Version: 6.00 Build 0)  -->
<svg version="1.1" id="レイヤー_1" xmlns="http://www.w3.org/2000/svg" xmlns:xlink="http://www.w3.org/1999/xlink" x="0px"
	 y="0px" viewBox="0 0 519.3 72.5" style="enable-background:new 0 0 519.3 72.5;" xml:space="preserve">
<style type="text/css">
	.st0{fill:#F29600;}
</style>
<g>
	<g>
		<path class="st0" d="M29.7,64.4c-2.7-1.5-6.7-5.5-12.2-2.7c-3.5,1.6-4.9,0.1-3.4,2.6c1.4,2.5,4.5,6.3,9.9,4.6
			c5.4-1.7,6.4-3.7,7.5-3.5C32.6,65.6,29.7,64.4,29.7,64.4z"/>
		<path class="st0" d="M21.6,58.1c-1.1-1.5-5.3-5.6-9.5-4.8c-4.2,0.9-4.9,0.5-3.9,2.3c1,1.8,3.8,6.8,9.8,5.2
			C24,59.2,21.6,58.1,21.6,58.1z"/>
		<path class="st0" d="M15.7,50.9c-2.3-1.4-3.4-6-6.7-6.7s-5-1.2-5,0c0,1.2,0.9,7.6,8.5,8.3C15.4,52.7,16.9,51.7,15.7,50.9z"/>
		<path class="st0" d="M33,65.2c-1.2-3.9,3.2-8.4,0-13.7c-1.8-2.8-2.7-4.4-3.8-3.3c-1.1,1.1-3.9,4.8-3.2,8.3c0.7,3.5,3.6,7.6,6,8.4
			C34.3,65.7,33,65.2,33,65.2z"/>
		<path class="st0" d="M24.2,56.7c1-1.7,2.9-6.9-0.6-12c-1.7-1.6-5.1,2.3-4.8,5.6s5.3,9.3,5.1,8.6C23.5,57.4,24.2,56.7,24.2,56.7z"
			/>
		<path class="st0" d="M15.9,49.7c-0.1-0.4-3-4.1-2.7-7c0.3-2.9,2.9-4.9,3.6-5.7c0.9-0.1,3.8,4,2.5,8C18,49.1,16.4,51.2,15.9,49.7z"
			/>
		<path class="st0" d="M8.9,41.6c-1.4-2.4-1.7-7-4.3-8.2c-2.6-1.1-3.8-2.1-3.8-0.3c0,1.8-0.3,6.8,3.9,8.6
			C8.9,43.5,9.6,42.7,8.9,41.6z"/>
		<path class="st0" d="M11.6,41.9c1.3-1,4.8-3.7,3.6-8.7c-0.4-1.5-0.6-2.1-1.6-1.6c-0.9,0.5-3.7,2.2-3.9,5c-0.3,3.3,1.3,4.5,1.2,5.5
			c-0.1,0.7,0.2,0.8,0.3,0.7C11.5,42.3,11.6,41.9,11.6,41.9z"/>
		<path class="st0" d="M8.7,33.7c1.6-0.6,4.6-3.2,4.4-6.3c-0.2-3.1-0.3-2.6-1.5-2.2c-1.2,0.4-4,1.6-4,4.5c0,2.9,0.6,3.3,0.4,4
			c-0.3,1.2,0,1.2,0.2,0.8C8.5,34,8.7,33.7,8.7,33.7z"/>
		<path class="st0" d="M4.3,31.4c-1.7-0.7-2.8-1.8-3.7-4.1c-0.9-2.2-0.6-6.2,0.4-5.9c1,0.3,3.2,0.8,4,3.2c0.7,2.4,0.4,6.2,0.7,6.8
			c0.3,0.6,1,0.3,0.3,0.6C5.1,32.3,4.3,31.4,4.3,31.4z"/>
		<path class="st0" d="M6.8,25.4c-0.5-2.5,0.9-5.5,4.2-6.5c2.3-0.7,2-0.4,1.9,0.5c-0.1,0.9-0.6,3.6-2.2,4.7s-2.7,1.7-3.2,2
			C7.1,26.5,6.8,25.4,6.8,25.4z"/>
		<path class="st0" d="M4.1,21.3C2.7,20.1,1,18.1,2,14.9c1.3-2.2,1.3-2.9,1.8-2.3c0.4,0.7,2.9,2.2,2.7,4.8c-0.2,2.6-1.3,5.5-1.3,5.5
			L4.1,21.3z"/>
		<path class="st0" d="M7.7,18.5c2.2-0.3,5.5-0.7,6.1-4.8c0.2-0.5,0.1-0.8-0.9-0.7c-1,0.1-3-0.1-4,1.6S7.7,18.5,7.7,18.5z"/>
		<path class="st0" d="M6.6,13.2C6.2,12.5,3.8,10,6,7.2c0.5-1.8,1.2-1.7,1.9-0.5s0.9,4.4,0.1,6.1C7.1,14.5,7.3,14.3,6.6,13.2z"/>
		<path class="st0" d="M10.2,10.8c3,0.6,4.2-0.3,5.4-1.6s1.7-1.4,1.6-2c0-0.6-2.4-0.8-4-0.4C11.5,7.2,10.3,9.4,10.2,10.8z"/>
		<path class="st0" d="M12,5.6c2.8-0.2,6.1-1.9,6.6-4.7c0.5-1,0.5-1-1.3-0.9C15.6,0.1,12.6,1.3,12,5.6z"/>
		<path class="st0" d="M10.3,6.8c0.8-1.4,2-3.5,0.2-6.1C9.5,0.9,6.7,4,9.1,6.6C9.8,7.6,10.3,6.8,10.3,6.8z"/>
		<path class="st0" d="M13.2,3.2C9,8.9,2.6,20.7,5.8,34.1c1.7,7.1,6.5,15.1,12.7,21.4c4.7,4.7,10.3,8,15.2,11.4
			c1.5,1,4.7,3.5,6.5,5.3c1,1,2.2-0.3,1.3-1.1c-4-3.8-5.9-4.2-7.9-5.9C31,63.1-9.3,42.6,12.8,4.7C16.4,2.3,13.2,3.2,13.2,3.2z"/>
	</g>
	<g>
		<path class="st0" d="M487.9,65.4c1.2-0.1,2.1,1.8,7.5,3.5c5.4,1.7,8.5-2.1,9.9-4.6c1.4-2.5,0.1-1-3.4-2.6
			c-5.6-2.8-9.5,1.2-12.2,2.7C489.6,64.4,486.7,65.6,487.9,65.4z"/>
		<path class="st0" d="M501.3,60.8c6,1.6,8.8-3.4,9.8-5.2c1-1.8,0.3-1.4-3.9-2.3c-4.2-0.9-8.3,3.3-9.5,4.8
			C497.7,58.1,495.3,59.2,501.3,60.8z"/>
		<path class="st0" d="M506.9,52.5c7.6-0.7,8.5-7.1,8.5-8.3c0-1.2-1.7-0.7-5,0c-3.3,0.7-4.4,5.3-6.7,6.7
			C502.4,51.7,503.9,52.7,506.9,52.5z"/>
		<path class="st0" d="M487.3,64.9c2.3-0.8,5.2-4.9,6-8.4c0.7-3.4-2.1-7.2-3.2-8.3s-2,0.5-3.8,3.3c-3.3,5.3,1.2,9.7,0,13.7
			C486.3,65.2,485,65.7,487.3,64.9z"/>
		<path class="st0" d="M495.4,58.8c-0.2,0.7,4.9-5.2,5.1-8.6c0.3-3.3-3.1-7.2-4.8-5.6c-3.5,5.2-1.6,10.3-0.6,12
			C495.1,56.7,495.8,57.4,495.4,58.8z"/>
		<path class="st0" d="M500,45c-1.3-4,1.6-8.1,2.5-8c0.7,0.8,3.2,2.8,3.6,5.7c0.3,2.9-2.5,6.6-2.7,7C502.9,51.2,501.3,49.1,500,45z"
			/>
		<path class="st0" d="M514.6,41.8c4.2-1.8,4-6.8,3.9-8.6c0-1.8-1.2-0.8-3.8,0.3c-2.6,1.1-2.9,5.8-4.3,8.2
			C509.7,42.7,510.4,43.5,514.6,41.8z"/>
		<path class="st0" d="M508.1,42.7c0.1,0.1,0.4,0,0.3-0.7c-0.1-0.9,1.5-2.1,1.2-5.5c-0.3-2.8-3-4.5-3.9-5c-0.9-0.5-1.2,0.1-1.6,1.6
			c-1.3,5,2.3,7.7,3.6,8.7C507.7,41.9,507.8,42.3,508.1,42.7z"/>
		<path class="st0" d="M511.1,34.5c0.2,0.5,0.5,0.4,0.2-0.8c-0.2-0.7,0.5-1.1,0.4-4c0-2.9-2.8-4-4-4.5c-1.2-0.4-1.3-0.9-1.5,2.2
			c-0.2,3.1,2.9,5.7,4.4,6.3C510.6,33.7,510.8,34,511.1,34.5z"/>
		<path class="st0" d="M513.4,32c-0.7-0.3,0,0,0.3-0.6c0.3-0.6,0-4.3,0.7-6.8c0.7-2.4,3-2.9,4-3.2c1-0.3,1.3,3.7,0.4,5.9
			c-0.9,2.2-2,3.4-3.7,4.1C515,31.4,514.2,32.3,513.4,32z"/>
		<path class="st0" d="M511.7,26.2c-0.4-0.3-1.6-0.9-3.2-2s-2.1-3.8-2.2-4.7s-0.4-1.2,1.9-0.5c3.4,1,4.7,4,4.2,6.5
			C512.5,25.4,512.2,26.5,511.7,26.2z"/>
		<path class="st0" d="M514.1,22.9c0,0-1.1-2.8-1.3-5.5c-0.2-2.6,2.3-4.2,2.7-4.8c0.5-0.7,0.5,0.1,1.8,2.3c0.9,3.2-0.8,5.2-2.2,6.4
			L514.1,22.9z"/>
		<path class="st0" d="M510.4,14.7c-1.1-1.7-3.1-1.5-4-1.6c-1-0.1-1.1,0.2-0.9,0.7c0.6,4.1,3.9,4.5,6.1,4.8
			C511.6,18.5,511.5,16.3,510.4,14.7z"/>
		<path class="st0" d="M511.4,12.8c-0.9-1.7-0.7-4.9,0.1-6.1s1.4-1.3,1.9,0.5c2.2,2.7-0.2,5.3-0.6,6C512,14.3,512.2,14.5,511.4,12.8
			z"/>
		<path class="st0" d="M506.1,6.8c-1.6-0.4-4-0.2-4,0.4c0,0.6,0.4,0.8,1.6,2c1.2,1.3,2.4,2.2,5.4,1.6C509,9.4,507.8,7.2,506.1,6.8z"
			/>
		<path class="st0" d="M501.9,0c-1.8-0.1-1.8-0.1-1.3,0.9c0.5,2.8,3.9,4.5,6.6,4.7C506.7,1.3,503.7,0.1,501.9,0z"/>
		<path class="st0" d="M510.2,6.6c2.4-2.5-0.4-5.7-1.4-5.9c-1.8,2.6-0.5,4.7,0.2,6.1C509,6.8,509.5,7.6,510.2,6.6z"/>
		<path class="st0" d="M506.5,4.7c22.2,38-18.2,58.4-20.7,60.5c-2,1.6-3.9,2.1-7.9,5.9c-0.9,0.8,0.4,2.1,1.3,1.1
			c1.7-1.7,5-4.2,6.5-5.3c4.9-3.4,10.5-6.7,15.2-11.4c6.1-6.2,11-14.3,12.7-21.4c3.2-13.4-3.2-25.2-7.5-30.9
			C506.1,3.2,502.9,2.3,506.5,4.7z"/>
	</g>
	<g>
		<path class="st0" d="M59.7,20.6l2.9,0.7c-0.7,2.2-1.5,4.3-2.6,6.5c-1,2.2-2.3,4.2-3.7,6c-1.5,1.9-3.1,3.4-5,4.8
			c-0.1-0.2-0.3-0.4-0.5-0.7c-0.2-0.3-0.4-0.5-0.7-0.8c-0.2-0.3-0.4-0.5-0.6-0.6c1.3-0.9,2.5-2,3.6-3.2c1.1-1.2,2.1-2.5,2.9-3.9
			c0.9-1.4,1.6-2.8,2.2-4.3C58.8,23.5,59.3,22.1,59.7,20.6z M50.2,24.4h26.2V27H50.2V24.4z M55.8,29.9h15.1v2.5H58.5v15.7h-2.8V29.9
			z M57.8,35h13.5v2.4H57.8V35z M57.8,40h13.5v2.4H57.8V40z M70.3,29.9H73v15c0,0.8-0.1,1.3-0.3,1.8c-0.2,0.4-0.5,0.8-1.1,1
			c-0.5,0.2-1.2,0.3-2.1,0.4c-0.9,0-1.9,0.1-3.2,0.1c0-0.4-0.1-0.9-0.3-1.4c-0.2-0.5-0.4-1-0.5-1.4c0.6,0,1.2,0,1.7,0.1
			c0.6,0,1,0,1.5,0c0.4,0,0.7,0,0.9,0c0.3,0,0.4,0,0.5-0.1c0.1-0.1,0.1-0.2,0.1-0.5V29.9z"/>
		<path class="st0" d="M85.9,31.9l1.6,0.8c-0.3,1-0.6,2-0.9,3.1c-0.4,1.1-0.8,2.2-1.2,3.3c-0.4,1.1-0.9,2.1-1.4,3
			c-0.5,0.9-1,1.8-1.5,2.5c-0.1-0.3-0.2-0.6-0.4-0.9c-0.1-0.3-0.3-0.7-0.5-1c-0.2-0.3-0.3-0.6-0.5-0.9c0.6-0.8,1.2-1.7,1.8-2.8
			c0.6-1.1,1.2-2.3,1.7-3.5C85.2,34.2,85.6,33,85.9,31.9z M81.6,30.6h11.9v2.6H81.6V30.6z M81.8,23l2-0.5c0.3,0.7,0.6,1.4,0.8,2.3
			c0.2,0.8,0.4,1.6,0.6,2.4c0.2,0.8,0.3,1.5,0.3,2.1l-2.2,0.6c0-0.6-0.1-1.3-0.3-2.1s-0.3-1.6-0.5-2.4C82.2,24.4,82,23.6,81.8,23z
			 M86.3,20.7h2.6v27.4h-2.6V20.7z M88.9,33.5c0.2,0.2,0.4,0.4,0.7,0.8c0.3,0.4,0.6,0.8,1,1.2c0.4,0.5,0.7,0.9,1.1,1.4
			c0.4,0.5,0.7,0.9,1,1.3c0.3,0.4,0.5,0.7,0.6,0.8l-1.8,2.2c-0.2-0.4-0.4-0.9-0.8-1.5c-0.3-0.6-0.7-1.2-1.1-1.9
			c-0.4-0.7-0.8-1.3-1.2-1.8c-0.4-0.6-0.7-1-0.9-1.4L88.9,33.5z M91.4,22.3l2.4,0.6c-0.3,0.8-0.5,1.5-0.8,2.4s-0.6,1.6-0.8,2.4
			c-0.3,0.8-0.5,1.4-0.8,2l-1.8-0.5c0.2-0.6,0.4-1.3,0.7-2.1c0.2-0.8,0.5-1.6,0.7-2.5C91.2,23.8,91.3,23,91.4,22.3z M93.5,39.4
			l15.3-2.8l0.4,2.6L94,42L93.5,39.4z M94.1,31.9l1.3-2c0.6,0.3,1.2,0.6,1.8,1c0.6,0.4,1.2,0.8,1.8,1.2c0.6,0.4,1,0.8,1.4,1.1
			L99,35.5c-0.3-0.4-0.8-0.8-1.3-1.2c-0.6-0.4-1.1-0.9-1.8-1.3C95.3,32.6,94.7,32.2,94.1,31.9z M95.5,24.4l1.4-1.9
			c0.6,0.3,1.2,0.7,1.8,1.1c0.6,0.4,1.2,0.9,1.7,1.3c0.5,0.4,1,0.8,1.3,1.2l-1.5,2.1c-0.3-0.4-0.7-0.8-1.2-1.2
			c-0.5-0.5-1.1-0.9-1.7-1.4C96.7,25.2,96.1,24.8,95.5,24.4z M102.8,20.6h2.7v27.5h-2.7V20.6z"/>
		<path class="st0" d="M127.1,23.3c-0.8,1.2-1.8,2.4-3.1,3.6c-1.3,1.2-2.7,2.4-4.2,3.5c-1.6,1.1-3.2,2.1-4.9,2.9
			c-0.1-0.2-0.2-0.5-0.4-0.8c-0.2-0.3-0.4-0.6-0.6-0.8c-0.2-0.3-0.4-0.5-0.6-0.7c1.7-0.8,3.4-1.7,5-2.9c1.6-1.1,3-2.4,4.3-3.7
			c1.3-1.3,2.3-2.5,3-3.8h2.9c0.8,1.1,1.7,2.2,2.7,3.1c1,1,2,1.9,3.2,2.8c1.1,0.9,2.3,1.6,3.5,2.3c1.2,0.7,2.4,1.2,3.5,1.7
			c-0.3,0.4-0.7,0.8-1,1.2c-0.3,0.5-0.6,0.9-0.8,1.3c-1.5-0.7-3.1-1.6-4.6-2.7c-1.6-1-3-2.2-4.4-3.4C129.1,25.8,128,24.6,127.1,23.3
			z M114.9,35.4h24.7V38h-24.7V35.4z M115.1,44.4c1.8,0,3.8-0.1,6.1-0.2c2.3-0.1,4.8-0.2,7.3-0.3c2.6-0.1,5.2-0.2,7.7-0.3l-0.1,2.6
			c-2.5,0.1-4.9,0.3-7.4,0.4c-2.5,0.1-4.9,0.2-7.2,0.3c-2.3,0.1-4.3,0.2-6,0.2L115.1,44.4z M122.7,37.1l3.2,0.9
			c-0.5,1-0.9,1.9-1.4,2.9c-0.5,1-1,2-1.5,2.9c-0.5,0.9-1,1.7-1.5,2.5l-2.5-0.8c0.5-0.8,0.9-1.6,1.4-2.6c0.5-1,0.9-1.9,1.3-3
			C122.1,38.9,122.4,38,122.7,37.1z M120.1,29.7h14.1v2.6h-14.1V29.7z M129.9,40.2l2.4-1.3c0.9,0.8,1.8,1.6,2.7,2.5
			c0.9,0.9,1.7,1.8,2.4,2.7c0.7,0.9,1.3,1.7,1.8,2.5l-2.6,1.6c-0.4-0.8-1-1.6-1.8-2.5c-0.7-0.9-1.5-1.9-2.4-2.9
			C131.6,41.9,130.7,41,129.9,40.2z"/>
		<path class="st0" d="M154.1,42.8l2.6,1.7c-0.8,0.5-1.7,0.9-2.8,1.4c-1.1,0.5-2.2,0.9-3.3,1.3c-1.1,0.4-2.2,0.7-3.2,1
			c-0.2-0.3-0.6-0.6-1-1c-0.4-0.4-0.8-0.7-1.1-1c1-0.2,2.1-0.5,3.3-0.9c1.1-0.4,2.2-0.8,3.2-1.2C152.7,43.6,153.5,43.2,154.1,42.8z
			 M148.4,30.1h21.4v13h-21.4V30.1z M149.7,21.6h19v7h-19V21.6z M151.2,32.2v1.7h15.7v-1.7H151.2z M151.2,35.8v1.7h15.7v-1.7H151.2z
			 M151.2,39.4v1.8h15.7v-1.8H151.2z M152.5,23.9v2.6h13.2v-2.6H152.5z M161,44.8l2.5-1.8c1,0.3,2.2,0.6,3.3,1
			c1.2,0.4,2.3,0.8,3.4,1.2c1.1,0.4,2,0.8,2.8,1.1l-2.5,2c-0.8-0.4-1.7-0.7-2.7-1.2c-1.1-0.4-2.2-0.8-3.4-1.2
			C163.2,45.4,162.1,45.1,161,44.8z"/>
		<path class="st0" d="M187.6,21.7h0.5l0.5-0.1l1.8,1c-0.5,1.4-1.2,2.8-2.1,4c-0.9,1.2-1.8,2.4-2.9,3.4c-1.1,1-2.2,2-3.4,2.8
			c-1.2,0.8-2.4,1.5-3.6,2.1c-0.2-0.3-0.4-0.6-0.8-1.1c-0.3-0.4-0.6-0.7-0.9-1c1.1-0.5,2.2-1,3.3-1.8c1.1-0.7,2.1-1.5,3.1-2.5
			c1-0.9,1.9-1.9,2.6-3c0.8-1.1,1.4-2.2,1.8-3.3V21.7z M178.2,45.2h25.8v2.3h-25.8V45.2z M178.8,26.4l1.5-1.6c0.5,0.3,1,0.6,1.5,1
			c0.5,0.4,1,0.7,1.5,1.1c0.5,0.4,0.8,0.7,1.1,1.1l-1.6,1.7c-0.4-0.5-1-1-1.7-1.6C180.3,27.4,179.6,26.9,178.8,26.4z M179.9,21.7
			h8.6V24h-8.6V21.7z M182.6,33.2h16.8v7.9h-16.8V33.2z M184.3,41.5l2.6-0.7c0.4,0.6,0.8,1.3,1.1,2c0.3,0.7,0.6,1.4,0.7,1.9
			l-2.7,0.8c-0.1-0.6-0.3-1.2-0.7-2C185,42.9,184.7,42.2,184.3,41.5z M185.3,35.5v3.4h11.2v-3.4H185.3z M185.5,28.7h11v2.4h-11V28.7
			z M193.4,20.7c0.7,1.6,1.7,3.2,2.8,4.7c1.2,1.5,2.5,2.8,4,4c1.5,1.2,3.1,2.1,4.8,2.7c-0.2,0.2-0.4,0.4-0.7,0.7s-0.5,0.6-0.7,0.8
			c-0.2,0.3-0.4,0.5-0.5,0.8c-1.8-0.8-3.4-1.9-5-3.2c-1.5-1.3-2.9-2.8-4.1-4.4c-1.2-1.7-2.2-3.5-3.1-5.4L193.4,20.7z M195.2,40.8
			l2.7,0.7c-0.4,0.8-0.8,1.5-1.2,2.2c-0.4,0.7-0.7,1.3-1.1,1.9l-2.4-0.6c0.2-0.4,0.5-0.8,0.7-1.3c0.2-0.5,0.5-1,0.7-1.5
			C194.8,41.7,195,41.2,195.2,40.8z M198.7,20.9l2.1,1.5c-0.8,0.7-1.7,1.4-2.6,2.1s-1.8,1.3-2.5,1.8l-1.7-1.3c0.5-0.4,1-0.8,1.6-1.3
			c0.6-0.5,1.1-1,1.7-1.5C197.9,21.8,198.4,21.3,198.7,20.9z M202.1,24.4l2.1,1.5c-0.8,0.7-1.7,1.5-2.6,2.2c-1,0.7-1.9,1.4-2.7,1.9
			l-1.7-1.3c0.5-0.4,1.1-0.8,1.7-1.3c0.6-0.5,1.2-1,1.8-1.5C201.2,25.3,201.7,24.8,202.1,24.4z"/>
		<path class="st0" d="M214,20.6h1.5v0.6h0.8v0.7c-0.6,1.1-1.4,2.4-2.3,3.9c-1,1.4-2.2,2.8-3.7,4.2c-0.1-0.2-0.3-0.4-0.5-0.7
			c-0.2-0.2-0.4-0.5-0.6-0.7c-0.2-0.2-0.4-0.4-0.6-0.5c0.9-0.7,1.7-1.5,2.3-2.4c0.7-0.9,1.3-1.7,1.8-2.6
			C213.2,22.2,213.6,21.4,214,20.6z M209.4,44.8c1-0.2,2-0.3,3.2-0.6c1.2-0.2,2.5-0.5,3.8-0.7c1.3-0.3,2.7-0.5,4-0.8l0.2,2.4
			c-1.9,0.4-3.8,0.8-5.6,1.2c-1.9,0.4-3.6,0.7-5.1,1L209.4,44.8z M209.7,33.1h10.9v2.4h-10.9V33.1z M210.2,37.3l1.8-0.4
			c0.3,0.9,0.5,1.8,0.8,2.8c0.2,1,0.3,1.9,0.4,2.6l-2,0.5c0-0.8-0.1-1.6-0.3-2.7C210.7,39.1,210.4,38.2,210.2,37.3z M211.2,28h8.6
			v2.4h-8.6V28z M214.1,28.9h2.4V45l-2.4,0.4V28.9z M214.3,20.6h2c0.6,0.5,1.2,1.1,1.8,1.7c0.6,0.6,1.2,1.2,1.8,1.9
			c0.6,0.6,1,1.2,1.4,1.7l-1.8,2.1c-0.3-0.5-0.7-1.1-1.2-1.7c-0.5-0.7-1.1-1.3-1.7-2c-0.6-0.7-1.2-1.2-1.8-1.7h-0.5V20.6z
			 M218.4,36.6l2.1,0.5c-0.3,0.9-0.5,1.8-0.8,2.7c-0.3,0.9-0.5,1.7-0.7,2.4l-1.8-0.5c0.1-0.5,0.3-1,0.4-1.6c0.1-0.6,0.3-1.2,0.4-1.8
			C218.3,37.7,218.4,37.1,218.4,36.6z M220,43.8c0.8-0.4,1.7-1,2.7-1.7c1.1-0.7,2.2-1.4,3.3-2.2l0.8,2.1c-0.9,0.7-1.8,1.4-2.8,2.1
			c-1,0.7-1.9,1.3-2.7,1.9L220,43.8z M220.7,30.5h15.9v2.4h-15.9V30.5z M221.1,35.5l1.9-1.2c0.6,0.6,1.2,1.2,1.8,1.9
			c0.6,0.7,1.1,1.4,1.4,1.9l-2,1.3c-0.3-0.6-0.7-1.2-1.3-2C222.4,36.7,221.8,36,221.1,35.5z M222.2,21.7h12v10.2h-2.6v-7.8h-9.4
			V21.7z M222.8,26.2h10.3v2.2h-10.3V26.2z M227.2,31.7h2.6v13.7c0,0.6-0.1,1.1-0.2,1.5c-0.1,0.4-0.4,0.6-0.8,0.8
			c-0.4,0.2-0.9,0.3-1.5,0.4c-0.6,0-1.3,0.1-2.1,0.1c0-0.3-0.1-0.7-0.3-1.2c-0.1-0.5-0.3-0.9-0.5-1.2c0.5,0,1,0,1.4,0
			c0.4,0,0.7,0,0.9,0c0.2,0,0.3-0.1,0.3-0.1c0.1-0.1,0.1-0.2,0.1-0.3V31.7z M229.7,33.4c0.2,0.9,0.5,1.9,0.9,2.9c0.4,1,0.9,2,1.5,3
			c0.6,1,1.3,1.9,2.2,2.7c0.8,0.8,1.8,1.5,2.9,2.1c-0.2,0.2-0.4,0.4-0.6,0.7c-0.2,0.3-0.4,0.6-0.7,0.8c-0.2,0.3-0.4,0.6-0.5,0.8
			c-1.1-0.7-2-1.5-2.8-2.4c-0.8-0.9-1.5-1.9-2.1-3c-0.6-1.1-1.1-2.1-1.5-3.2c-0.4-1-0.7-2-1-2.9L229.7,33.4z M234.4,33.8l2.2,1.4
			c-0.6,0.7-1.2,1.4-1.9,2.1c-0.7,0.7-1.3,1.3-1.9,1.9l-1.8-1.2c0.4-0.4,0.7-0.8,1.1-1.3c0.4-0.5,0.8-1,1.2-1.5
			S234.1,34.2,234.4,33.8z"/>
		<path class="st0" d="M241.7,28.9c0.5,0,1,0,1.4,0c0.5,0,0.9,0,1.5,0c0.5,0,1-0.1,1.7-0.1c0.7,0,1.5-0.1,2.3-0.2
			c0.8-0.1,1.6-0.1,2.4-0.2c0.8-0.1,1.5-0.1,2.2-0.2c0.7,0,1.2-0.1,1.6-0.1c1,0,1.8,0.2,2.6,0.5c0.8,0.3,1.4,0.8,1.8,1.6
			c0.4,0.8,0.7,1.9,0.7,3.2c0,1.2-0.1,2.4-0.2,3.8c-0.1,1.4-0.3,2.7-0.5,3.9c-0.2,1.2-0.6,2.3-1,3.1c-0.5,1-1.1,1.7-1.9,2.1
			c-0.8,0.4-1.7,0.5-2.7,0.5c-0.6,0-1.2,0-1.8-0.1c-0.6-0.1-1.2-0.2-1.7-0.3l-0.5-3.1c0.4,0.1,0.9,0.2,1.3,0.3
			c0.5,0.1,0.9,0.2,1.3,0.2c0.4,0,0.8,0.1,1,0.1c0.5,0,1-0.1,1.4-0.3c0.4-0.2,0.8-0.6,1-1.1c0.3-0.6,0.5-1.4,0.7-2.4
			c0.2-1,0.3-2,0.4-3.1c0.1-1.1,0.1-2.2,0.1-3.2c0-0.9-0.1-1.5-0.4-1.9c-0.2-0.4-0.6-0.7-1-0.8c-0.5-0.1-1-0.2-1.6-0.2
			c-0.5,0-1.1,0-1.9,0.1c-0.8,0.1-1.7,0.2-2.6,0.3c-0.9,0.1-1.8,0.2-2.6,0.3c-0.8,0.1-1.4,0.2-1.9,0.2c-0.4,0-0.9,0.1-1.4,0.2
			c-0.6,0.1-1.1,0.2-1.5,0.2L241.7,28.9z M253,22.5c-0.1,0.3-0.2,0.6-0.2,1c-0.1,0.4-0.1,0.7-0.2,1c-0.1,0.4-0.1,0.9-0.3,1.5
			c-0.1,0.6-0.2,1.2-0.3,1.8c-0.1,0.6-0.2,1.2-0.4,1.8c-0.2,0.8-0.4,1.8-0.7,2.9c-0.3,1.1-0.6,2.3-1,3.5c-0.4,1.2-0.8,2.5-1.3,3.8
			c-0.5,1.3-1,2.5-1.6,3.7c-0.6,1.2-1.2,2.4-1.8,3.4l-3.1-1.2c0.7-0.9,1.3-1.9,1.9-3.1c0.6-1.1,1.1-2.3,1.6-3.5s0.9-2.4,1.3-3.6
			c0.4-1.2,0.7-2.3,1-3.3c0.3-1,0.5-1.9,0.7-2.6c0.3-1.3,0.5-2.5,0.7-3.8c0.2-1.3,0.3-2.5,0.3-3.6L253,22.5z M263.2,25.8
			c0.5,0.6,0.9,1.4,1.5,2.3c0.5,0.9,1,1.9,1.5,2.9c0.5,1,1,2,1.4,3c0.4,1,0.7,1.8,1,2.5l-2.9,1.4c-0.2-0.8-0.5-1.7-0.9-2.7
			c-0.4-1-0.8-2-1.2-3c-0.5-1-1-2-1.5-2.9c-0.5-0.9-1-1.7-1.6-2.3L263.2,25.8z M263.2,21.5c0.3,0.4,0.5,0.8,0.8,1.3
			c0.3,0.5,0.6,1,0.9,1.5c0.3,0.5,0.5,0.9,0.7,1.3l-2,0.8c-0.2-0.4-0.4-0.8-0.7-1.3c-0.3-0.5-0.6-1-0.8-1.5
			c-0.3-0.5-0.6-0.9-0.8-1.3L263.2,21.5z M266.6,20.3c0.3,0.4,0.5,0.8,0.9,1.3c0.3,0.5,0.6,1,0.9,1.5s0.5,0.9,0.7,1.3l-1.9,0.9
			c-0.3-0.6-0.7-1.3-1.1-2.1c-0.4-0.8-0.9-1.4-1.3-2L266.6,20.3z"/>
		<path class="st0" d="M276.4,26.5c1.7,0.2,3.4,0.3,5,0.4c1.6,0.1,3.1,0.1,4.5,0.1c1.4,0,2.7-0.1,3.8-0.2c0.8-0.1,1.7-0.2,2.6-0.4
			c0.9-0.1,1.7-0.3,2.6-0.5c0.9-0.2,1.7-0.4,2.4-0.7l0.4,3c-0.7,0.2-1.4,0.4-2.2,0.5c-0.8,0.2-1.6,0.3-2.4,0.4
			c-0.8,0.1-1.6,0.2-2.4,0.3c-1.9,0.2-4.1,0.3-6.4,0.4c-2.4,0-4.9-0.1-7.8-0.3L276.4,26.5z M281.6,36.3c-0.5,0.7-0.8,1.4-1.1,2.1
			c-0.2,0.7-0.4,1.3-0.4,2c0,1.3,0.6,2.3,1.7,2.9c1.2,0.6,2.8,0.9,4.9,1c1.6,0,3,0,4.3-0.2c1.3-0.1,2.5-0.3,3.5-0.5l-0.1,3
			c-0.9,0.2-2,0.3-3.3,0.5c-1.3,0.1-2.8,0.2-4.5,0.2c-1.9,0-3.6-0.2-5-0.7c-1.4-0.5-2.5-1.2-3.3-2.1c-0.8-0.9-1.2-2.1-1.2-3.5
			c0-0.9,0.1-1.7,0.4-2.6c0.3-0.8,0.6-1.7,1.1-2.6L281.6,36.3z M287.3,24.6c-0.1-0.3-0.2-0.7-0.4-1.2c-0.1-0.4-0.3-0.9-0.5-1.4
			l3.2-0.4c0.1,0.7,0.2,1.4,0.4,2.1c0.2,0.7,0.4,1.5,0.7,2.2c0.2,0.7,0.5,1.4,0.7,2.1c0.5,1.2,1,2.5,1.7,3.7c0.7,1.2,1.3,2.2,1.9,3
			c0.2,0.3,0.4,0.6,0.7,0.9c0.2,0.3,0.5,0.6,0.7,0.8l-1.5,2.1c-0.4-0.1-0.9-0.2-1.5-0.3c-0.6-0.1-1.3-0.2-2-0.2
			c-0.7-0.1-1.4-0.1-2.1-0.2c-0.7-0.1-1.3-0.1-1.9-0.2l0.2-2.5c0.5,0,1.1,0.1,1.7,0.1c0.6,0,1.2,0.1,1.7,0.1c0.5,0,1,0.1,1.3,0.1
			c-0.4-0.6-0.8-1.3-1.3-2.1c-0.4-0.8-0.9-1.6-1.3-2.5c-0.4-0.9-0.8-1.7-1.1-2.6c-0.3-0.8-0.6-1.6-0.8-2.3
			C287.6,25.7,287.4,25.1,287.3,24.6z"/>
		<path class="st0" d="M312.6,29.5c-0.3,0-0.6,0.1-1.1,0.1c-0.5,0.1-1,0.1-1.6,0.2c-0.6,0.1-1.2,0.2-1.8,0.2
			c-0.6,0.1-1.2,0.2-1.7,0.2l-0.3-3c0.4,0,0.7,0,1.1,0c0.3,0,0.7,0,1.2,0c0.4,0,1-0.1,1.6-0.2c0.6-0.1,1.3-0.1,1.9-0.2
			c0.7-0.1,1.3-0.2,1.9-0.3c0.6-0.1,1.1-0.2,1.4-0.3l1,1.2c-0.2,0.2-0.4,0.5-0.6,0.9c-0.2,0.3-0.5,0.7-0.7,1.1
			c-0.2,0.4-0.4,0.7-0.6,1l-1.3,4.7c-0.3,0.5-0.7,1.1-1.2,1.8c-0.5,0.7-1,1.5-1.5,2.2c-0.5,0.8-1.1,1.6-1.6,2.3
			c-0.5,0.8-1,1.4-1.4,2l-1.8-2.6c0.4-0.5,0.8-1,1.3-1.7c0.5-0.7,1-1.3,1.6-2.1c0.5-0.7,1.1-1.5,1.6-2.2c0.5-0.7,1-1.4,1.5-2
			c0.4-0.6,0.8-1.1,1-1.6l0.1-1.2L312.6,29.5z M312.3,24.3c0-0.4,0-0.8,0-1.2c0-0.4,0-0.8-0.1-1.2l3.4,0.1c-0.1,0.4-0.2,1-0.3,1.9
			c-0.1,0.9-0.3,1.8-0.4,3c-0.1,1.1-0.2,2.3-0.3,3.6c-0.1,1.2-0.2,2.5-0.3,3.7c-0.1,1.2-0.1,2.4-0.1,3.4c0,0.9,0,1.7,0,2.5
			c0,0.8,0,1.6,0,2.4c0,0.8,0.1,1.6,0.1,2.6c0,0.3,0,0.6,0.1,1c0,0.4,0.1,0.7,0.1,1.1h-3.2c0-0.3,0.1-0.7,0.1-1c0-0.4,0-0.7,0-0.9
			c0-1,0-1.8,0-2.6c0-0.8,0-1.6,0-2.4c0-0.8,0-1.8,0.1-3c0-0.5,0-1,0.1-1.8c0-0.7,0.1-1.5,0.1-2.4c0.1-0.9,0.1-1.8,0.2-2.7
			c0.1-0.9,0.1-1.8,0.2-2.6c0-0.8,0.1-1.5,0.1-2.1C312.3,24.8,312.3,24.5,312.3,24.3z M332.8,43.7c-0.8,0.7-1.6,1.3-2.5,1.7
			c-0.9,0.4-1.9,0.6-3,0.6c-1,0-1.9-0.3-2.5-1c-0.6-0.7-1-1.7-1-3c0-0.8,0.1-1.7,0.2-2.6c0.1-1,0.2-1.9,0.4-2.9
			c0.1-1,0.3-1.9,0.4-2.8c0.1-0.9,0.2-1.7,0.2-2.4c0-0.8-0.2-1.4-0.6-1.8c-0.4-0.4-1-0.6-1.7-0.6c-0.7,0-1.5,0.2-2.3,0.7
			c-0.9,0.4-1.7,1-2.6,1.7c-0.9,0.7-1.8,1.5-2.6,2.3s-1.6,1.7-2.2,2.5l0-3.7c0.4-0.4,0.8-0.9,1.4-1.4c0.6-0.5,1.2-1.1,2-1.7
			c0.7-0.6,1.5-1.1,2.3-1.6c0.8-0.5,1.6-0.9,2.5-1.2c0.8-0.3,1.6-0.5,2.4-0.5c1,0,1.8,0.2,2.4,0.5c0.6,0.4,1.1,0.8,1.4,1.5
			c0.3,0.6,0.5,1.4,0.5,2.2c0,0.7-0.1,1.6-0.2,2.5c-0.1,0.9-0.2,1.9-0.4,2.9c-0.1,1-0.3,1.9-0.4,2.9c-0.1,0.9-0.2,1.8-0.2,2.6
			c0,0.4,0.1,0.8,0.3,1.1c0.2,0.3,0.6,0.5,1,0.5c0.7,0,1.3-0.2,2.1-0.6c0.7-0.4,1.4-1,2.2-1.7L332.8,43.7z"/>
		<path class="st0" d="M338.1,25.6c0.6,0,1.1,0,1.6-0.1c0.5,0,0.9-0.1,1.2-0.1c0.5,0,1.3-0.1,2.2-0.2c0.9-0.1,1.9-0.2,3.1-0.3
			c1.1-0.1,2.4-0.2,3.7-0.3c1.3-0.1,2.6-0.2,4-0.3c1.1-0.1,2.1-0.2,3.1-0.3c1-0.1,1.9-0.1,2.8-0.2c0.9,0,1.6-0.1,2.3-0.1v3
			c-0.5,0-1.2,0-1.9,0c-0.7,0-1.4,0.1-2.1,0.1c-0.7,0.1-1.3,0.2-1.8,0.3c-1,0.3-1.9,0.8-2.7,1.4c-0.8,0.6-1.5,1.4-2.1,2.2
			c-0.6,0.8-1,1.7-1.3,2.6c-0.3,0.9-0.5,1.8-0.5,2.7c0,1.1,0.2,2,0.6,2.8c0.4,0.8,0.9,1.5,1.5,2.1c0.7,0.6,1.4,1,2.2,1.4
			c0.8,0.4,1.7,0.6,2.7,0.8c1,0.2,1.9,0.3,2.9,0.3l-1.1,3.1c-1.2,0-2.3-0.2-3.5-0.5c-1.1-0.3-2.2-0.7-3.2-1.2c-1-0.5-1.9-1.2-2.7-2
			c-0.8-0.8-1.4-1.7-1.8-2.7c-0.4-1-0.7-2.2-0.7-3.5c0-1.5,0.3-2.9,0.8-4.1c0.5-1.3,1.1-2.4,1.9-3.3s1.6-1.7,2.4-2.2
			c-0.6,0.1-1.3,0.2-2.2,0.3s-1.8,0.2-2.8,0.3c-1,0.1-2,0.2-3,0.4c-1,0.1-2,0.3-2.9,0.4c-0.9,0.1-1.7,0.3-2.3,0.4L338.1,25.6z"/>
		<path class="st0" d="M374.8,24.7c-0.1,0.3-0.1,0.6-0.1,1c0,0.4-0.1,0.8-0.1,1.2c0,0.4,0,0.7,0,1c0,0.6,0,1.3,0,2
			c0,0.8,0,1.5,0,2.3c0,0.8,0.1,1.6,0.1,2.3c0.2,1.6,0.4,2.9,0.7,4.1c0.3,1.2,0.7,2.1,1.2,2.7c0.5,0.7,1.1,1,1.7,1
			c0.4,0,0.7-0.2,1.1-0.5c0.3-0.4,0.7-0.8,1-1.4c0.3-0.6,0.6-1.2,0.8-1.9c0.2-0.7,0.5-1.4,0.6-2l2.3,2.8c-0.6,1.7-1.3,3-1.9,4
			c-0.6,1-1.3,1.7-1.9,2.2c-0.7,0.4-1.3,0.7-2.1,0.7c-1,0-1.9-0.3-2.8-1c-0.9-0.7-1.7-1.8-2.3-3.4c-0.7-1.6-1.1-3.7-1.4-6.3
			c-0.1-0.9-0.2-1.8-0.2-2.8c0-1-0.1-2-0.1-2.9c0-0.9,0-1.7,0-2.3c0-0.4,0-0.8,0-1.4c0-0.5-0.1-1-0.2-1.4L374.8,24.7z M390,25.5
			c0.5,0.7,1.1,1.5,1.6,2.4c0.5,0.9,1,1.9,1.4,3c0.4,1.1,0.8,2.2,1.1,3.3c0.3,1.1,0.6,2.2,0.8,3.3c0.2,1.1,0.4,2.1,0.4,3.1l-3.1,1.2
			c-0.1-1.3-0.3-2.6-0.6-4c-0.3-1.4-0.6-2.8-1.1-4.2c-0.4-1.4-0.9-2.7-1.5-3.9c-0.6-1.2-1.3-2.3-2-3.2L390,25.5z"/>
		<path class="st0" d="M417,21.9c0,0.3,0,0.6-0.1,0.9c0,0.3-0.1,0.7-0.1,1.1c0,0.3,0,0.8,0,1.5c0,0.6,0,1.3,0,2.1c0,0.8,0,1.5,0,2.3
			c0,0.8,0,1.5,0,2.1c0,0.9,0,1.9,0.1,3c0,1.1,0.1,2.1,0.2,3.1c0.1,1,0.1,2,0.2,2.9c0,0.9,0.1,1.6,0.1,2.1c0,0.8-0.2,1.5-0.6,2.1
			c-0.4,0.7-1,1.2-1.8,1.6c-0.8,0.4-1.9,0.6-3.2,0.6c-2.2,0-3.9-0.4-5.1-1.2c-1.2-0.8-1.8-1.9-1.8-3.4c0-1,0.3-1.8,0.8-2.5
			c0.6-0.7,1.4-1.3,2.4-1.7c1.1-0.4,2.3-0.6,3.8-0.6c1.6,0,3.1,0.2,4.5,0.5c1.4,0.4,2.7,0.8,3.8,1.4c1.2,0.6,2.2,1.1,3.1,1.7
			c0.9,0.6,1.6,1.1,2.3,1.6l-1.7,2.6c-0.7-0.6-1.5-1.3-2.3-1.9c-0.9-0.7-1.8-1.2-2.9-1.8c-1.1-0.5-2.2-1-3.3-1.3
			c-1.2-0.3-2.4-0.5-3.7-0.5c-1.3,0-2.2,0.2-2.9,0.6c-0.7,0.4-1,0.9-1,1.5c0,0.4,0.1,0.8,0.4,1.1c0.3,0.3,0.7,0.6,1.2,0.8
			c0.5,0.2,1.2,0.3,2.1,0.3c0.6,0,1.1-0.1,1.5-0.2c0.4-0.1,0.8-0.4,1.1-0.7c0.3-0.3,0.4-0.8,0.4-1.5c0-0.5,0-1.2-0.1-2.1
			c0-0.9-0.1-1.8-0.1-2.8c0-1-0.1-2-0.1-3c0-1-0.1-1.8-0.1-2.5c0-0.7,0-1.4,0-2.2c0-0.7,0-1.5,0-2.2c0-0.7,0-1.4,0-2
			c0-0.6,0-1.2,0-1.7c0-0.3,0-0.6,0-1c0-0.4-0.1-0.7-0.1-0.9H417z M405,31.3c0.5,0.1,1.1,0.2,1.7,0.2c0.7,0.1,1.3,0.1,2,0.2
			c0.7,0,1.4,0.1,2,0.1c0.6,0,1.2,0,1.6,0c1.6,0,3.1,0,4.5-0.1c1.4-0.1,2.8-0.2,4.1-0.3c1.3-0.1,2.6-0.3,3.8-0.4l0,2.8
			c-1,0.1-2,0.3-3,0.3c-1,0.1-1.9,0.2-2.9,0.2s-2,0.1-3.1,0.1c-1.1,0-2.3,0-3.5,0c-0.6,0-1.4,0-2.2,0c-0.9,0-1.8-0.1-2.6-0.1
			c-0.9-0.1-1.7-0.1-2.4-0.2L405,31.3z M405.2,24.9c0.5,0.1,1.1,0.2,1.7,0.2c0.7,0.1,1.3,0.2,2,0.2c0.7,0.1,1.4,0.1,2,0.1
			c0.6,0,1.2,0,1.7,0c2,0,3.9-0.1,5.9-0.2c2-0.1,4-0.4,6-0.7v2.7c-1.1,0.1-2.3,0.2-3.6,0.4c-1.3,0.1-2.7,0.2-4.1,0.3
			c-1.4,0.1-2.8,0.1-4.2,0.1c-0.7,0-1.4,0-2.4-0.1c-0.9-0.1-1.8-0.1-2.7-0.2c-0.9-0.1-1.7-0.2-2.3-0.2L405.2,24.9z"/>
		<path class="st0" d="M434.3,25.9c0.9,0,1.8,0,2.9-0.1c1.1,0,2.2,0,3.4-0.1c1.2,0,2.4-0.1,3.5-0.1c1.2,0,2.3,0,3.4-0.1
			c1.1,0,2,0,2.9,0c0.9,0,1.7,0,2.6,0c0.9,0,1.7,0,2.6,0c0.8,0,1.5,0,2.2,0s1.2,0,1.6,0l-0.1,2.8c-0.9,0-2-0.1-3.5-0.1
			c-1.5,0-3.3,0-5.5,0c-1.3,0-2.7,0-4,0c-1.4,0-2.8,0.1-4.2,0.1c-1.4,0-2.7,0.1-4,0.2c-1.3,0.1-2.5,0.1-3.6,0.2L434.3,25.9z
			 M450.1,34.6c0,1.5-0.2,2.7-0.6,3.6c-0.4,1-0.9,1.7-1.6,2.2c-0.7,0.5-1.6,0.7-2.6,0.7c-0.6,0-1.2-0.1-1.8-0.3
			c-0.6-0.2-1.1-0.5-1.6-1c-0.5-0.4-0.9-1-1.2-1.6c-0.3-0.6-0.4-1.4-0.4-2.2c0-1,0.3-2,0.8-2.8c0.5-0.8,1.2-1.4,2-1.9
			c0.8-0.5,1.8-0.7,2.7-0.7c1.2,0,2.3,0.3,3.1,0.8c0.8,0.6,1.4,1.3,1.9,2.2c0.4,0.9,0.6,2,0.6,3.2c0,1-0.1,2-0.4,3
			c-0.3,1-0.8,2-1.5,3c-0.7,1-1.6,1.9-2.8,2.7c-1.2,0.8-2.6,1.5-4.4,2l-2.5-2.5c1.3-0.3,2.5-0.6,3.6-1.1c1.1-0.5,2-1,2.8-1.7
			c0.8-0.7,1.4-1.5,1.8-2.4c0.4-0.9,0.6-2,0.6-3.3c0-1.2-0.3-2-0.8-2.6c-0.5-0.5-1.2-0.8-1.9-0.8c-0.5,0-0.9,0.1-1.3,0.3
			c-0.4,0.2-0.8,0.5-1,1c-0.3,0.4-0.4,0.9-0.4,1.5c0,0.8,0.3,1.5,0.8,1.9c0.5,0.5,1.2,0.7,1.9,0.7c0.6,0,1.1-0.2,1.5-0.5
			c0.4-0.3,0.7-0.8,0.8-1.5c0.2-0.7,0.1-1.6-0.1-2.7L450.1,34.6z M450.5,22c0,0.1,0,0.3-0.1,0.6c0,0.3-0.1,0.6-0.1,0.9
			c0,0.3,0,0.5,0,0.7c0,0.4,0,0.9,0,1.6c0,0.7,0,1.4,0,2.2c0,0.8,0,1.6,0,2.4c0,0.8,0,1.6,0,2.3c0,0.7,0,1.3,0,1.8l-2.9-1.2
			c0-0.3,0-0.8,0-1.4c0-0.6,0-1.2,0-2c0-0.7,0-1.5,0-2.2c0-0.7,0-1.4,0-2c0-0.6,0-1.1,0-1.4c0-0.5-0.1-0.9-0.1-1.3s-0.1-0.7-0.1-0.8
			H450.5z"/>
		<path class="st0" d="M469.3,38.4c0.9,0,1.7,0.2,2.3,0.6c0.7,0.4,1.2,1,1.7,1.7c0.4,0.7,0.6,1.5,0.6,2.3c0,0.9-0.2,1.6-0.6,2.3
			c-0.4,0.7-1,1.3-1.7,1.7c-0.7,0.4-1.5,0.6-2.3,0.6c-0.9,0-1.6-0.2-2.3-0.6c-0.7-0.4-1.3-1-1.7-1.7c-0.4-0.7-0.6-1.5-0.6-2.3
			c0-0.9,0.2-1.7,0.6-2.3c0.4-0.7,1-1.3,1.7-1.7C467.6,38.6,468.4,38.4,469.3,38.4z M469.3,45.9c0.8,0,1.5-0.3,2-0.8
			c0.6-0.6,0.8-1.2,0.8-2c0-0.5-0.1-1-0.4-1.4c-0.2-0.4-0.6-0.8-1-1c-0.4-0.3-0.9-0.4-1.5-0.4c-0.5,0-1,0.1-1.4,0.4
			c-0.4,0.3-0.8,0.6-1,1c-0.3,0.4-0.4,0.9-0.4,1.4c0,0.5,0.1,1,0.4,1.4c0.3,0.4,0.6,0.8,1,1C468.3,45.8,468.7,45.9,469.3,45.9z"/>
	</g>
</g>
</svg>
