<?xml version="1.0" encoding="utf-8"?>
<!-- Generator: Adobe Illustrator 27.7.0, SVG Export Plug-In . SVG Version: 6.00 Build 0)  -->
<svg version="1.1" id="レイヤー_1" xmlns="http://www.w3.org/2000/svg" xmlns:xlink="http://www.w3.org/1999/xlink" x="0px"
	 y="0px" viewBox="0 0 1080 143.4" style="enable-background:new 0 0 1080 143.4;" xml:space="preserve">
<style type="text/css">
	.st0{fill:#CCCCCC;}
	.st1{fill:#FFFFFF;}
</style>
<rect x="0" y="0" class="st0" width="1080" height="143.4"/>
<g>
	<path d="M28.5,91.7H47v23.3h-2.8V94.4H31.2v20.8h-2.7V91.7z M30.3,110.8h15.2v2.6H30.3V110.8z M30.3,101.1h15.1v2.6H30.3V101.1z"/>
	<path d="M54.7,91.7h2.4v20.8h-2.4V91.7z M56,91.7h7v18.4h-7v-2.3h4.5V94.1H56V91.7z M56.1,99.6h5.6v2.3h-5.6V99.6z M63.4,98.4h16
		v2.3h-16V98.4z M63.5,103.5h15.6v2.3H63.5V103.5z M64.5,93.1h13.9v2.3H64.5V93.1z M64.9,107.7l2.1-1.2c0.4,0.5,0.9,1,1.3,1.5
		c0.5,0.5,0.9,1.1,1.3,1.6c0.4,0.5,0.7,1,0.9,1.5l-2.2,1.3c-0.2-0.4-0.5-0.9-0.8-1.5c-0.4-0.6-0.8-1.1-1.2-1.7
		C65.8,108.7,65.4,108.2,64.9,107.7z M73.6,100.5h2.5v12.1c0,0.7-0.1,1.2-0.3,1.6c-0.2,0.4-0.5,0.7-1,0.9c-0.5,0.2-1.1,0.3-1.8,0.4
		s-1.6,0.1-2.7,0.1c-0.1-0.3-0.2-0.8-0.3-1.2s-0.3-0.9-0.5-1.2c0.8,0,1.5,0,2.2,0c0.7,0,1.1,0,1.3,0c0.2,0,0.4-0.1,0.5-0.1
		c0.1-0.1,0.1-0.2,0.1-0.4V100.5z M70,89.9h2.6v9.9H70V89.9z"/>
	<path d="M95.4,99.5c0.6,0,1.1,0.1,1.6,0.4c0.5,0.3,0.9,0.7,1.2,1.1s0.4,1,0.4,1.6c0,0.6-0.1,1.1-0.4,1.6c-0.3,0.5-0.7,0.9-1.1,1.2
		c-0.5,0.3-1,0.4-1.6,0.4c-0.6,0-1.1-0.1-1.6-0.4c-0.5-0.3-0.9-0.7-1.2-1.2c-0.3-0.5-0.4-1-0.4-1.6c0-0.6,0.1-1.1,0.4-1.6
		s0.7-0.9,1.2-1.2C94.3,99.7,94.8,99.5,95.4,99.5z"/>
	<path d="M122.5,90.7h2.9c0,0.8-0.1,1.7-0.2,2.9c-0.1,1.2-0.3,2.5-0.5,4c-0.2,1.5-0.6,3-1.1,4.6c-0.5,1.6-1.2,3.2-2,4.8
		c-0.9,1.6-2,3.1-3.3,4.5c-1.3,1.4-2.9,2.7-4.8,3.8c-0.2-0.3-0.5-0.7-0.9-1.1c-0.4-0.4-0.8-0.7-1.2-1c1.9-1,3.4-2.1,4.7-3.5
		c1.3-1.3,2.3-2.7,3.1-4.2s1.4-3,1.9-4.5s0.8-2.9,1-4.3c0.2-1.4,0.3-2.6,0.4-3.6S122.5,91.3,122.5,90.7z M125.3,91.3
		c0,0.3,0.1,0.9,0.1,1.6c0.1,0.8,0.2,1.7,0.4,2.7c0.2,1.1,0.4,2.2,0.8,3.5c0.3,1.2,0.8,2.5,1.4,3.8c0.6,1.3,1.3,2.6,2.1,3.8
		c0.9,1.3,1.9,2.4,3.1,3.5c1.2,1.1,2.6,2,4.2,2.7c-0.4,0.3-0.8,0.7-1.1,1.1s-0.6,0.8-0.9,1.1c-1.7-0.8-3.1-1.8-4.4-2.9
		c-1.3-1.2-2.3-2.4-3.2-3.8c-0.9-1.4-1.6-2.7-2.2-4.2s-1.1-2.8-1.4-4.2c-0.4-1.4-0.6-2.6-0.8-3.8c-0.2-1.2-0.3-2.2-0.4-3
		c-0.1-0.8-0.1-1.5-0.2-1.8L125.3,91.3z"/>
	<path d="M146.2,95.8l1.7,1c-0.5,0.8-1,1.5-1.7,2.3s-1.4,1.5-2.2,2.1c-0.8,0.6-1.6,1.2-2.4,1.6c-0.1-0.3-0.3-0.6-0.6-1
		s-0.5-0.7-0.8-0.9c0.8-0.3,1.5-0.7,2.3-1.3c0.8-0.5,1.5-1.1,2.1-1.8C145.3,97.2,145.8,96.5,146.2,95.8z M140.4,104.5h13.7v2.1
		h-13.7V104.5z M149.5,105.9l2.4,0.3c-0.3,1.4-0.6,2.6-1.1,3.6c-0.5,1-1.2,1.9-2,2.6c-0.8,0.7-1.8,1.4-3,1.9s-2.6,0.9-4.2,1.3
		c-0.1-0.4-0.2-0.8-0.4-1.2s-0.4-0.7-0.7-1c1.9-0.3,3.4-0.7,4.7-1.3c1.2-0.6,2.2-1.4,2.9-2.4C148.7,108.7,149.2,107.4,149.5,105.9z
		 M140.6,94.8H154v2.1h-13.4V94.8z M145.4,102.3l2.4,0.5c-0.4,0.9-0.9,1.9-1.4,2.9c-0.5,1-1,2-1.5,2.9c-0.5,0.9-1,1.8-1.4,2.5
		l-2.3-0.7c0.4-0.7,0.9-1.5,1.4-2.4c0.5-0.9,1-1.9,1.5-2.9C144.6,104.1,145,103.2,145.4,102.3z M141.5,91.3l1.9-0.8
		c0.4,0.5,0.7,1.2,1.1,1.8c0.3,0.7,0.5,1.2,0.7,1.7l-2,0.9c-0.1-0.5-0.3-1.1-0.6-1.7S141.8,91.9,141.5,91.3z M143.2,110.2l1.4-1.8
		c1.1,0.4,2.2,0.9,3.2,1.4s2.1,1.1,3,1.6s1.7,1.1,2.4,1.6l-1.8,1.9c-0.6-0.5-1.3-1.1-2.2-1.6c-0.9-0.6-1.8-1.1-2.9-1.6
		C145.3,111.1,144.3,110.6,143.2,110.2z M146.1,89.9h2.4v12.7h-2.4V89.9z M148.3,96.7c0.2,0.1,0.6,0.3,1.1,0.6s1,0.6,1.5,0.9
		c0.5,0.3,1,0.6,1.5,0.9c0.4,0.3,0.8,0.5,0.9,0.6l-1.4,1.8c-0.2-0.2-0.6-0.5-1-0.9s-0.9-0.7-1.4-1.1c-0.5-0.4-1-0.7-1.4-1.1
		c-0.4-0.3-0.8-0.6-1.1-0.8L148.3,96.7z M151.3,90.4l2.2,0.9c-0.4,0.6-0.8,1.2-1.3,1.9c-0.4,0.6-0.8,1.2-1.2,1.6l-1.7-0.8
		c0.3-0.5,0.7-1.1,1.1-1.8S151.1,90.9,151.3,90.4z M161.7,96.4l2.6,0.2c-0.4,3.2-1.1,5.9-1.9,8.3c-0.9,2.4-2,4.5-3.5,6.2
		c-1.5,1.7-3.4,3.2-5.7,4.4c-0.1-0.2-0.2-0.5-0.4-0.8c-0.2-0.3-0.4-0.6-0.6-0.9c-0.2-0.3-0.4-0.5-0.5-0.7c2.1-1,3.9-2.2,5.2-3.8
		c1.3-1.5,2.4-3.4,3.1-5.5C160.9,101.8,161.4,99.3,161.7,96.4z M156.5,89.9l2.6,0.4c-0.3,1.8-0.7,3.6-1.1,5.3s-1,3.3-1.6,4.7
		c-0.6,1.4-1.4,2.7-2.2,3.8c-0.1-0.2-0.3-0.4-0.6-0.6c-0.3-0.2-0.5-0.4-0.8-0.7c-0.3-0.2-0.5-0.4-0.7-0.5c0.8-1,1.5-2.1,2-3.4
		c0.6-1.3,1.1-2.7,1.5-4.3C156,93.2,156.3,91.6,156.5,89.9z M157.4,97c0.4,2.4,0.9,4.7,1.7,6.9c0.7,2.1,1.7,4,2.8,5.6
		c1.2,1.6,2.6,2.9,4.3,3.8c-0.2,0.2-0.4,0.4-0.7,0.6s-0.5,0.5-0.7,0.8c-0.2,0.3-0.4,0.5-0.5,0.8c-1.8-1.1-3.3-2.5-4.5-4.2
		c-1.2-1.8-2.2-3.8-3-6.2c-0.8-2.3-1.4-4.9-1.8-7.7L157.4,97z M156,95h9.9v2.4H156V95z"/>
	<path d="M184.1,94.4c-0.2,1.4-0.4,2.9-0.7,4.5c-0.3,1.6-0.7,3.1-1.1,4.7c-0.6,1.9-1.2,3.5-1.9,4.7c-0.7,1.3-1.4,2.3-2.2,3
		c-0.8,0.7-1.7,1-2.6,1c-0.9,0-1.8-0.3-2.6-0.9s-1.4-1.5-1.9-2.7c-0.5-1.1-0.7-2.5-0.7-4c0-1.5,0.3-3,0.9-4.4s1.5-2.6,2.6-3.7
		c1.1-1.1,2.4-1.9,3.9-2.5c1.5-0.6,3.1-0.9,4.8-0.9c1.7,0,3.1,0.3,4.5,0.8c1.3,0.5,2.5,1.3,3.4,2.2s1.7,2,2.2,3.3
		c0.5,1.3,0.7,2.6,0.7,4c0,1.9-0.4,3.6-1.2,5.1c-0.8,1.5-2,2.7-3.5,3.7s-3.4,1.6-5.7,1.9l-1.6-2.6c0.5-0.1,0.9-0.1,1.3-0.2
		c0.4-0.1,0.8-0.1,1.1-0.2c0.9-0.2,1.7-0.5,2.5-0.9c0.8-0.4,1.5-1,2.1-1.6c0.6-0.7,1.1-1.4,1.5-2.3s0.5-1.9,0.5-3
		c0-1.1-0.2-2.1-0.5-3.1c-0.3-0.9-0.9-1.8-1.5-2.5c-0.7-0.7-1.5-1.2-2.5-1.6c-1-0.4-2.1-0.6-3.4-0.6c-1.5,0-2.8,0.3-4,0.8
		c-1.2,0.5-2.2,1.2-3,2.1c-0.8,0.9-1.4,1.8-1.9,2.8c-0.4,1-0.6,2-0.6,2.9c0,1,0.1,1.9,0.4,2.6s0.6,1.2,1,1.5
		c0.4,0.3,0.8,0.5,1.2,0.5s0.8-0.2,1.2-0.6c0.4-0.4,0.8-1.1,1.3-2c0.4-0.9,0.9-2,1.3-3.4c0.4-1.3,0.8-2.7,1.1-4.2
		c0.3-1.5,0.5-3,0.6-4.4L184.1,94.4z"/>
	<path d="M203.9,109.6c0.6,1,1.5,1.7,2.6,2.2c1.1,0.5,2.4,0.7,4,0.8c0.8,0,1.8,0.1,2.9,0.1c1.2,0,2.4,0,3.6,0c1.3,0,2.5,0,3.7-0.1
		s2.2-0.1,3.1-0.2c-0.1,0.2-0.2,0.4-0.3,0.7c-0.1,0.3-0.2,0.6-0.3,0.9c-0.1,0.3-0.2,0.6-0.2,0.8c-0.8,0-1.8,0.1-2.9,0.1
		c-1.1,0-2.2,0-3.4,0.1c-1.2,0-2.3,0-3.4,0c-1.1,0-2,0-2.9-0.1c-1.8-0.1-3.3-0.4-4.5-0.9c-1.2-0.5-2.3-1.3-3.1-2.4
		c-0.6,0.6-1.2,1.1-1.7,1.7c-0.6,0.6-1.2,1.2-1.9,1.8l-1.3-2.5c0.6-0.4,1.2-0.9,1.9-1.5c0.7-0.5,1.3-1.1,1.9-1.7H203.9z M198.3,91.9
		l2.1-1.3c0.5,0.4,1,0.9,1.6,1.5c0.5,0.5,1,1.1,1.5,1.6c0.4,0.5,0.8,1,1,1.5l-2.2,1.5c-0.2-0.5-0.5-1-1-1.5
		c-0.4-0.6-0.9-1.1-1.4-1.7C199.3,92.9,198.8,92.4,198.3,91.9z M203.9,100.8v9.9h-2.4v-7.5h-3.1v-2.4H203.9z M205,105.7h18.5v2H205
		V105.7z M206.5,94.2h4.5v-1.5h-5.6v-1.7h7.8v5h-6.7V94.2z M210.7,107.7l2.3,0.8c-0.7,0.7-1.6,1.3-2.6,1.9s-2,1.1-2.9,1.6
		c-0.1-0.2-0.3-0.3-0.6-0.5c-0.2-0.2-0.5-0.4-0.7-0.6c-0.2-0.2-0.5-0.3-0.6-0.5c0.9-0.3,1.9-0.8,2.8-1.2
		C209.3,108.7,210.1,108.2,210.7,107.7z M205.8,101.4h16.8v1.9h-16.8V101.4z M205.8,94.2h2.2V97c0,0.3,0.1,0.4,0.2,0.5
		c0.1,0.1,0.4,0.1,0.8,0.1c0.1,0,0.3,0,0.5,0c0.2,0,0.5,0,0.8,0s0.6,0,0.8,0c0.3,0,0.4,0,0.5,0c0.3,0,0.5-0.1,0.6-0.2
		c0.1-0.1,0.2-0.5,0.2-1c0.2,0.1,0.5,0.3,0.9,0.4c0.4,0.1,0.7,0.2,1,0.3c-0.1,0.9-0.3,1.5-0.7,1.8c-0.3,0.3-0.9,0.5-1.7,0.5
		c-0.1,0-0.3,0-0.6,0c-0.3,0-0.6,0-1,0s-0.7,0-1,0c-0.3,0-0.5,0-0.6,0c-0.7,0-1.3-0.1-1.7-0.2c-0.4-0.1-0.7-0.4-0.9-0.7
		c-0.2-0.3-0.2-0.8-0.2-1.5V94.2z M209.7,99.7h2.5v7h-2.5V99.7z M215.6,94.2h4.4v-1.5h-5.6v-1.7h7.9v5h-6.7V94.2z M214.9,94.2h2.2
		v2.8c0,0.3,0.1,0.5,0.2,0.5c0.1,0.1,0.4,0.1,0.8,0.1c0.1,0,0.3,0,0.5,0c0.2,0,0.5,0,0.8,0c0.3,0,0.6,0,0.9,0c0.3,0,0.5,0,0.6,0
		c0.3,0,0.5-0.1,0.6-0.2c0.1-0.1,0.2-0.5,0.2-1.1c0.2,0.1,0.5,0.3,0.9,0.4c0.4,0.1,0.7,0.2,1,0.3c-0.1,0.9-0.3,1.6-0.7,1.9
		s-0.9,0.5-1.7,0.5c-0.1,0-0.3,0-0.7,0c-0.3,0-0.7,0-1,0c-0.4,0-0.7,0-1,0c-0.3,0-0.5,0-0.7,0c-0.7,0-1.3-0.1-1.7-0.2
		c-0.4-0.1-0.7-0.4-0.9-0.7c-0.2-0.3-0.2-0.8-0.2-1.5V94.2z M215.6,108.9l1.9-1.1c0.7,0.3,1.4,0.7,2.1,1c0.7,0.4,1.4,0.8,2,1.1
		s1.2,0.7,1.6,1.1l-2.6,1c-0.5-0.5-1.3-1-2.2-1.6C217.4,109.8,216.5,109.3,215.6,108.9z M216.1,99.7h2.5v7h-2.5V99.7z"/>
	<path d="M226.8,104.2c0.9-0.2,1.9-0.4,3-0.6c1.1-0.2,2.3-0.5,3.6-0.8s2.5-0.6,3.8-0.8l0.2,2.4c-1.7,0.4-3.5,0.8-5.2,1.3
		c-1.8,0.4-3.3,0.8-4.8,1.1L226.8,104.2z M227.2,95.4h10v2.4h-10V95.4z M231.2,90h2.5v22.5c0,0.7-0.1,1.2-0.3,1.6
		c-0.2,0.4-0.5,0.7-0.9,0.9c-0.4,0.2-1,0.3-1.7,0.4c-0.7,0.1-1.5,0.1-2.6,0.1c0-0.3-0.1-0.7-0.3-1.2c-0.2-0.5-0.3-0.9-0.5-1.2
		c0.7,0,1.3,0,1.9,0c0.6,0,1,0,1.2,0c0.2,0,0.3-0.1,0.4-0.1s0.1-0.2,0.1-0.4V90z M238.5,91.5h2.6v9.4c0,1.1-0.1,2.3-0.2,3.6
		c-0.1,1.3-0.3,2.6-0.6,3.9c-0.3,1.3-0.7,2.6-1.3,3.8c-0.6,1.2-1.3,2.3-2.3,3.3c-0.1-0.2-0.3-0.4-0.6-0.6c-0.2-0.2-0.5-0.5-0.8-0.7
		c-0.3-0.2-0.5-0.4-0.7-0.5c0.9-0.9,1.6-1.9,2.1-2.9c0.5-1.1,0.9-2.2,1.1-3.3s0.4-2.3,0.5-3.4c0.1-1.1,0.1-2.2,0.1-3.2V91.5z
		 M239.5,91.5h12.2V103h-12.2v-2.4h9.5V94h-9.5V91.5z M246.3,102c0.3,1.7,0.8,3.3,1.3,4.7s1.3,2.8,2.2,3.9c0.9,1.1,2,2,3.2,2.6
		c-0.2,0.2-0.4,0.4-0.6,0.7c-0.2,0.3-0.5,0.5-0.7,0.8c-0.2,0.3-0.4,0.5-0.5,0.8c-1.4-0.8-2.5-1.8-3.5-3.1c-1-1.3-1.8-2.8-2.4-4.5
		c-0.6-1.7-1.1-3.5-1.5-5.5L246.3,102z"/>
</g>
<g>
	<path d="M345.7,91c0,0.2-0.1,0.4-0.1,0.6c0,0.2,0,0.5-0.1,0.8c0,0.3-0.1,0.5-0.1,0.7c0,0.5,0,1-0.1,1.7c0,0.7-0.1,1.4-0.1,2.1
		c0,0.8,0,1.5-0.1,2.3s0,1.5,0,2.2c0,0.7,0,1.5,0,2.4c0,0.9,0,1.7,0.1,2.6c0,0.9,0,1.6,0.1,2.4c0,0.7,0,1.3,0,1.7
		c0,1-0.1,1.7-0.3,2.3c-0.2,0.5-0.5,0.9-0.9,1.2c-0.4,0.2-0.9,0.3-1.4,0.3c-0.6,0-1.2-0.1-1.9-0.4s-1.4-0.6-2-1
		c-0.6-0.4-1.1-1-1.5-1.5c-0.4-0.6-0.6-1.2-0.6-1.9c0-0.8,0.3-1.7,1-2.5c0.7-0.8,1.5-1.6,2.6-2.3c1.1-0.7,2.2-1.3,3.4-1.7
		c1.2-0.5,2.5-0.8,3.8-1c1.3-0.2,2.5-0.4,3.5-0.4c1.4,0,2.6,0.2,3.7,0.7c1.1,0.5,1.9,1.1,2.6,2c0.6,0.9,0.9,1.9,0.9,3.1
		c0,1.1-0.2,2.1-0.6,2.9c-0.4,0.9-1.1,1.6-2,2.2c-0.9,0.6-2,1.1-3.3,1.4c-0.6,0.1-1.2,0.2-1.8,0.3c-0.6,0.1-1.2,0.1-1.7,0.1l-1-2.8
		c0.5,0,1.1,0,1.7,0c0.6,0,1.1-0.1,1.6-0.2c0.8-0.1,1.5-0.4,2.1-0.7c0.7-0.3,1.2-0.8,1.6-1.3s0.6-1.2,0.6-2c0-0.7-0.2-1.3-0.6-1.8
		s-0.9-0.9-1.6-1.1c-0.7-0.3-1.4-0.4-2.3-0.4c-1.2,0-2.4,0.1-3.5,0.4c-1.2,0.2-2.3,0.6-3.5,1c-0.8,0.3-1.6,0.7-2.3,1.2
		c-0.7,0.5-1.2,0.9-1.7,1.4c-0.4,0.5-0.6,0.9-0.6,1.4c0,0.3,0.1,0.5,0.3,0.8s0.4,0.5,0.7,0.6s0.5,0.3,0.8,0.4
		c0.3,0.1,0.6,0.2,0.8,0.2c0.3,0,0.5-0.1,0.7-0.3c0.2-0.2,0.3-0.5,0.3-1c0-0.5,0-1.2,0-2.2c0-0.9-0.1-2-0.1-3.1c0-1.1,0-2.2,0-3.3
		c0-0.8,0-1.6,0-2.5c0-0.9,0-1.7,0-2.5c0-0.8,0-1.5,0-2.1c0-0.6,0-1,0-1.3c0-0.2,0-0.4,0-0.7c0-0.3,0-0.5-0.1-0.8
		c0-0.3,0-0.5-0.1-0.6H345.7z M337.2,95.8c0.8,0.1,1.5,0.2,2,0.2s1.1,0,1.6,0c0.7,0,1.4,0,2.3-0.1s1.7-0.2,2.6-0.3
		c0.9-0.1,1.8-0.3,2.6-0.4c0.9-0.2,1.6-0.4,2.3-0.6l0.1,2.7c-0.7,0.2-1.5,0.3-2.4,0.5c-0.9,0.1-1.8,0.3-2.7,0.4
		c-0.9,0.1-1.8,0.2-2.6,0.3c-0.8,0.1-1.5,0.1-2.2,0.1c-0.8,0-1.5,0-2.1,0s-1.1-0.1-1.5-0.1L337.2,95.8z M353.9,94.1
		c0.7,0.3,1.4,0.7,2.3,1.2c0.8,0.5,1.6,1,2.4,1.5c0.8,0.5,1.4,0.9,1.8,1.3l-1.3,2.2c-0.3-0.3-0.8-0.7-1.3-1
		c-0.5-0.4-1.1-0.7-1.7-1.1c-0.6-0.4-1.2-0.7-1.8-1.1s-1.1-0.6-1.5-0.8L353.9,94.1z"/>
	<path d="M381.6,96.9h0.5l0.4-0.1l1.8,1c-0.9,1.5-2.1,2.8-3.5,4c-1.4,1.2-3,2.2-4.7,3.1c-1.7,0.9-3.5,1.6-5.4,2.3
		c-1.9,0.6-3.8,1.1-5.7,1.5c-0.1-0.3-0.3-0.7-0.5-1.2c-0.2-0.4-0.5-0.8-0.7-1.1c1.8-0.3,3.6-0.7,5.4-1.3c1.8-0.5,3.5-1.2,5.1-2
		c1.6-0.8,3-1.6,4.3-2.6c1.3-1,2.3-2.1,3-3.3V96.9z M364.9,92.4h23.5v5.6h-2.6v-3.2h-18.3v3.2h-2.6V92.4z M373.2,94.9l2.8,0.5
		c-1,1.4-2.2,2.7-3.6,4c-1.4,1.3-3.2,2.4-5.2,3.4c-0.1-0.2-0.3-0.4-0.5-0.7c-0.2-0.2-0.4-0.5-0.6-0.7c-0.2-0.2-0.4-0.4-0.6-0.5
		c1.9-0.8,3.6-1.7,4.9-2.8C371.6,97.1,372.6,96,373.2,94.9z M369,107h15.5v8.5h-2.7v-6.3h-10.3v6.4H369V107z M372.4,98.5
		c1.1,1.3,2.5,2.4,4.2,3.4c1.7,1,3.7,1.8,5.9,2.4c2.2,0.6,4.5,1.1,7,1.4c-0.2,0.2-0.4,0.5-0.6,0.8c-0.2,0.3-0.4,0.6-0.6,0.9
		c-0.2,0.3-0.4,0.6-0.5,0.8c-2.5-0.4-4.8-0.9-7.1-1.7s-4.2-1.7-6.1-2.9c-1.8-1.2-3.4-2.5-4.6-4.1L372.4,98.5z M370.3,112.4h12.9v2.2
		h-12.9V112.4z M373.4,96.9h9v2h-10.8L373.4,96.9z M375.3,90h2.7v3.7h-2.7V90z"/>
	<path d="M396.7,97.4l1.5,0.5c-0.2,1.1-0.5,2.2-0.8,3.4s-0.7,2.3-1,3.5c-0.4,1.1-0.8,2.2-1.3,3.2c-0.4,1-0.9,1.8-1.4,2.5
		c-0.1-0.3-0.3-0.7-0.6-1.2c-0.2-0.4-0.5-0.8-0.7-1.1c0.4-0.6,0.9-1.3,1.3-2.2c0.4-0.8,0.8-1.7,1.2-2.7c0.4-1,0.7-1.9,1-3
		C396.3,99.3,396.5,98.3,396.7,97.4z M393.2,95.8h9v2.4h-9V95.8z M396.8,90h2.4v25.5h-2.4V90z M399,99.6c0.2,0.2,0.4,0.5,0.7,1
		c0.3,0.5,0.7,1,1,1.5c0.4,0.6,0.7,1.1,1,1.5c0.3,0.5,0.5,0.8,0.6,1l-1.4,1.9c-0.2-0.4-0.4-0.8-0.7-1.4c-0.3-0.5-0.6-1.1-0.9-1.7
		c-0.3-0.6-0.6-1.1-0.9-1.6c-0.3-0.5-0.5-0.9-0.7-1.2L399,99.6z M401.1,111.7c0.9-0.4,1.9-0.9,3.1-1.5s2.4-1.3,3.6-1.9l0.7,2.1
		c-1,0.6-2.1,1.2-3.2,1.8c-1.1,0.6-2.1,1.2-3,1.7L401.1,111.7z M402.1,100.6h16v2.2h-16V100.6z M402.7,93.3h15v2.1h-15V93.3z
		 M402.9,104.8l1.8-1.2c0.5,0.5,1.1,1.1,1.6,1.7c0.5,0.7,0.9,1.2,1.2,1.7l-1.9,1.3c-0.3-0.5-0.6-1.1-1.2-1.8
		C403.9,106,403.4,105.4,402.9,104.8z M403.5,96.9h13.7v2h-13.7V96.9z M404.6,90.7l2.1-0.7c0.3,0.5,0.6,1,0.9,1.6s0.5,1.1,0.7,1.5
		l-2.2,0.8c-0.1-0.4-0.3-1-0.6-1.6C405.3,91.8,405,91.2,404.6,90.7z M408.9,94.7h2.5v18.1c0,0.6-0.1,1.1-0.2,1.5
		c-0.1,0.4-0.4,0.6-0.8,0.8c-0.4,0.2-0.9,0.3-1.6,0.4c-0.6,0-1.4,0.1-2.2,0.1c0-0.3-0.1-0.7-0.3-1.2c-0.1-0.5-0.3-0.9-0.5-1.2
		c0.5,0,1,0,1.6,0c0.5,0,0.8,0,1,0c0.2,0,0.3,0,0.4-0.1c0.1-0.1,0.1-0.2,0.1-0.3V94.7z M411.3,103.5c0.4,1.3,1,2.5,1.7,3.7
		s1.5,2.1,2.5,3c1,0.9,2,1.5,3.2,2.1c-0.2,0.1-0.4,0.3-0.6,0.6c-0.2,0.2-0.4,0.5-0.6,0.8c-0.2,0.3-0.4,0.5-0.5,0.7
		c-1.2-0.6-2.3-1.5-3.3-2.5s-1.8-2.2-2.5-3.6c-0.7-1.3-1.3-2.8-1.7-4.3L411.3,103.5z M413.6,89.9l2.6,0.7c-0.4,0.6-0.7,1.2-1.1,1.8
		c-0.4,0.6-0.7,1.1-0.9,1.5l-2-0.6c0.3-0.5,0.5-1,0.8-1.7C413.2,91,413.4,90.4,413.6,89.9z M416,103.6l2,1.4c-0.6,0.7-1.2,1.3-1.9,2
		s-1.3,1.2-1.9,1.7l-1.7-1.3c0.4-0.3,0.8-0.7,1.2-1.1c0.4-0.4,0.8-0.9,1.2-1.3C415.3,104.4,415.7,104,416,103.6z"/>
	<path d="M422.5,95.3l1.9,0.2c0,0.7-0.1,1.6-0.2,2.5c-0.1,0.9-0.2,1.8-0.4,2.7c-0.2,0.9-0.3,1.7-0.5,2.4l-2-0.7
		c0.2-0.6,0.4-1.4,0.5-2.2s0.3-1.7,0.4-2.5C422.4,96.9,422.5,96.1,422.5,95.3z M424.8,90h2.4v25.5h-2.4V90z M427.1,94.6l1.7-0.7
		c0.3,0.6,0.6,1.3,0.9,2c0.3,0.7,0.5,1.4,0.7,1.9l-1.8,0.9c-0.1-0.5-0.3-1.2-0.6-2S427.4,95.2,427.1,94.6z M429.1,98.8h18v1.9h-18
		V98.8z M429.9,92h16.4v1.9h-16.4V92z M430.6,95.4h15v1.8h-15V95.4z M431,102.1h12.1v2h-9.7v11.4H431V102.1z M432.9,105.8h10.3v1.9
		h-10.3V105.8z M432.9,109.4h10.4v1.9h-10.4V109.4z M436.7,90h2.6v9.4h-2.6V90z M442.6,102.1h2.5v10.7c0,0.6-0.1,1.1-0.2,1.4
		c-0.1,0.4-0.4,0.6-0.9,0.8c-0.4,0.2-1,0.3-1.7,0.3c-0.7,0-1.5,0.1-2.4,0.1c-0.1-0.3-0.2-0.7-0.3-1.1c-0.1-0.4-0.3-0.8-0.5-1.1
		c0.6,0,1.3,0.1,1.8,0.1c0.6,0,1,0,1.1,0c0.3,0,0.5-0.2,0.5-0.5V102.1z"/>
	<path d="M450.6,97.2h12.4v2.2h-12.4V97.2z M451,103h11.6v2.2H451V103z M451.3,107.9h11v2.2h-11V107.9z M451.5,92.6h10.4v2.2h-10.4
		V92.6z M452.4,99.7l2-0.5c0.3,0.5,0.5,1.2,0.8,1.8c0.2,0.7,0.4,1.2,0.4,1.7l-2.1,0.6c-0.1-0.5-0.2-1.1-0.4-1.7
		C452.9,100.9,452.7,100.3,452.4,99.7z M455.7,90h2.4v8h-2.4V90z M455.7,104h2.4v11.5h-2.4V104z M459.4,99.2l2.2,0.5
		c-0.3,0.6-0.5,1.3-0.8,1.9s-0.5,1.2-0.8,1.6l-1.9-0.5c0.1-0.3,0.3-0.7,0.5-1.1c0.2-0.4,0.3-0.8,0.4-1.3
		C459.2,99.9,459.3,99.5,459.4,99.2z M463.7,91.2h10v2.3h-7.6v22h-2.4V91.2z M465,100.6h8.7v2.1H465V100.6z M472.9,100.6h0.5
		l0.4-0.1l1.6,0.6c-0.3,2-0.8,4-1.6,5.8c-0.7,1.8-1.6,3.5-2.7,5c-1.1,1.5-2.3,2.7-3.7,3.7c-0.2-0.3-0.5-0.6-0.8-0.9
		c-0.3-0.3-0.6-0.6-0.9-0.8c1.3-0.9,2.5-2,3.5-3.4c1-1.3,1.8-2.8,2.4-4.4c0.6-1.6,1.1-3.2,1.3-4.9V100.6z M468,102.1
		c0.5,1.6,1.1,3.2,1.9,4.7c0.8,1.5,1.7,2.8,2.8,4s2.3,2.1,3.7,2.7c-0.3,0.2-0.6,0.6-0.9,1c-0.3,0.4-0.6,0.8-0.8,1.1
		c-1.4-0.8-2.6-1.9-3.7-3.2s-2.1-2.8-2.9-4.5c-0.8-1.7-1.5-3.4-2-5.3L468,102.1z M472.4,91.2h2.4v5.3c0,0.6-0.1,1.1-0.2,1.4
		c-0.2,0.4-0.5,0.6-1,0.8c-0.5,0.2-1.1,0.3-1.8,0.3c-0.7,0-1.6,0.1-2.7,0.1c0-0.4-0.1-0.8-0.3-1.2s-0.3-0.8-0.5-1.1c0.5,0,1,0,1.5,0
		c0.5,0,0.9,0,1.2,0s0.6,0,0.7,0c0.2,0,0.4-0.1,0.4-0.1c0.1,0,0.1-0.1,0.1-0.3V91.2z"/>
</g>
<g>
	<path d="M618.6,94.6h21v2.6h-18.4v18.4h-2.6V94.6z M628.4,90h2.7v5.9c0,0.9-0.1,1.8-0.2,2.8s-0.3,2-0.6,3c-0.3,1-0.7,2-1.3,3
		c-0.6,1-1.3,1.9-2.2,2.8c-0.9,0.9-2,1.8-3.4,2.6c-0.1-0.2-0.3-0.4-0.5-0.6c-0.2-0.2-0.4-0.5-0.7-0.7s-0.5-0.4-0.7-0.6
		c1.3-0.7,2.4-1.4,3.2-2.2c0.8-0.8,1.5-1.6,2-2.5s0.9-1.7,1.1-2.6s0.4-1.7,0.5-2.6c0.1-0.8,0.1-1.6,0.1-2.4V90z M628.2,101.6l2-1.4
		c0.6,0.6,1.3,1.2,2.1,1.9c0.7,0.7,1.5,1.4,2.2,2.1c0.7,0.7,1.4,1.4,2,2c0.6,0.7,1.1,1.2,1.6,1.7l-2.1,1.7c-0.4-0.5-0.9-1.1-1.5-1.8
		s-1.2-1.4-1.9-2.1c-0.7-0.7-1.4-1.4-2.1-2.1C629.6,102.9,628.9,102.2,628.2,101.6z M638.4,94.6h2.6v17.7c0,0.8-0.1,1.3-0.3,1.8
		c-0.2,0.4-0.6,0.7-1.1,1c-0.5,0.2-1.2,0.3-2.1,0.4s-1.9,0.1-3.1,0.1c0-0.2-0.1-0.5-0.2-0.8c-0.1-0.3-0.2-0.6-0.3-0.9
		s-0.2-0.6-0.4-0.8c0.6,0,1.2,0,1.8,0.1c0.6,0,1.1,0,1.5,0c0.4,0,0.8,0,0.9,0c0.3,0,0.4-0.1,0.5-0.2c0.1-0.1,0.2-0.3,0.2-0.5V94.6z"
		/>
	<path d="M658.7,101.3c-0.7,1-1.7,2-2.9,3c-1.2,1-2.5,2-3.9,2.9c-1.4,0.9-2.9,1.8-4.4,2.4c-0.1-0.2-0.2-0.5-0.4-0.7
		s-0.4-0.5-0.5-0.8c-0.2-0.3-0.4-0.5-0.5-0.7c1.5-0.7,3-1.5,4.5-2.4c1.4-1,2.7-2,3.9-3c1.2-1.1,2.1-2.1,2.8-3.1h2.6
		c0.7,0.9,1.6,1.7,2.5,2.5c0.9,0.8,1.9,1.6,2.9,2.3c1,0.7,2.1,1.3,3.1,1.9c1.1,0.6,2.1,1,3.2,1.4c-0.3,0.3-0.6,0.7-0.9,1.1
		c-0.3,0.4-0.5,0.8-0.8,1.2c-1-0.5-2-1-3.1-1.6c-1.1-0.6-2.1-1.3-3.1-2c-1-0.7-1.9-1.5-2.8-2.2C660.1,102.8,659.3,102.1,658.7,101.3
		z M647,92.4h23.2v5.4h-2.7v-3.1h-18v3.1H647V92.4z M653.8,95.7l2.5,0.8c-0.6,0.8-1.3,1.6-2.1,2.4c-0.8,0.8-1.6,1.5-2.5,2.1
		c-0.9,0.7-1.7,1.2-2.6,1.7c-0.1-0.2-0.3-0.4-0.5-0.7c-0.2-0.3-0.4-0.5-0.7-0.8s-0.4-0.5-0.6-0.6c1.2-0.6,2.4-1.3,3.6-2.2
		C652.1,97.6,653.1,96.7,653.8,95.7z M651,106.1h15.4v9.3h-2.6v-7h-10.2v7.1H651V106.1z M652.2,112.3h13v2.3h-13V112.3z M657.2,90
		h2.7v3.7h-2.7V90z M660.7,97.2l1.8-1.5c0.8,0.5,1.7,1,2.6,1.6c0.9,0.6,1.8,1.2,2.6,1.8c0.8,0.6,1.5,1.2,2,1.7l-2,1.8
		c-0.5-0.5-1.1-1.1-1.9-1.8c-0.8-0.6-1.6-1.3-2.5-1.9C662.4,98.3,661.5,97.7,660.7,97.2z"/>
	<path d="M678.2,92.9l2.4,0.4c-0.3,2-0.6,3.9-1.1,5.7c-0.4,1.8-1,3.6-1.6,5.2c-0.6,1.6-1.4,3-2.3,4.2c-0.1-0.2-0.2-0.5-0.4-0.8
		s-0.4-0.6-0.5-0.9c-0.2-0.3-0.4-0.6-0.5-0.7c0.7-1,1.4-2.2,1.9-3.6c0.5-1.4,0.9-2.9,1.3-4.5S678,94.6,678.2,92.9z M675.2,91.7h9.8
		v2.4h-9.8V91.7z M677,99.8h2.1v14.5H677V99.8z M678.1,99.8h6.3v12.3h-6.3v-2.3h4V102h-4V99.8z M691.4,89.9l2.5,0.5
		c-0.8,2.9-1.8,5.5-3.2,7.7c-1.4,2.3-3,4.1-4.9,5.6c-0.1-0.2-0.3-0.4-0.5-0.6s-0.4-0.5-0.7-0.7c-0.2-0.2-0.4-0.4-0.6-0.6
		c1.9-1.3,3.4-2.9,4.6-5S690.8,92.5,691.4,89.9z M684.9,92.7h15.2v4.8h-2.3v-2.6h-10.7v2.6h-2.2V92.7z M689.3,98.7h10.2v2.2h-10.2
		v14.6h-2.5V101l2.2-2.3H689.3z M688.4,112.2h11.9v2.2h-11.9V112.2z M688.4,103.3H699v2h-10.5V103.3z M688.4,107.7H699v2h-10.5
		V107.7z M692.6,100.4h2.4v12.8h-2.4V100.4z M694.3,95.7l2.4,0.5c-0.3,0.7-0.7,1.4-1,2.1c-0.3,0.7-0.7,1.3-1,1.9l-2-0.6
		c0.3-0.5,0.6-1.2,0.9-2C693.9,96.9,694.1,96.3,694.3,95.7z"/>
	<path d="M703.6,94.5h9.9v2.1h-9.9V94.5z M704.8,105.8h2.2v9.4h-2.2V105.8z M704.8,98.3h7.9v2h-7.9V98.3z M704.8,102h7.9v2h-7.9V102
		z M704.9,90.9h7.7v2h-7.7V90.9z M706,105.8h6.8v8.2H706v-2.1h4.6v-4H706V105.8z M714.9,106.8l2.1,0.5c-0.1,0.8-0.2,1.7-0.4,2.5
		c-0.2,0.8-0.4,1.6-0.7,2.3c-0.3,0.7-0.7,1.3-1.1,1.9l-1.9-1.2c0.4-0.5,0.7-1,1-1.7c0.3-0.6,0.5-1.3,0.7-2.1
		C714.7,108.3,714.8,107.6,714.9,106.8z M719.4,92h2.4c-0.1,1.1-0.3,2.2-0.6,3.3s-0.6,2.1-1.1,3.1c-0.5,1-1.2,1.9-2,2.8
		c-0.8,0.9-1.8,1.6-3.1,2.2c-0.1-0.3-0.4-0.6-0.7-1c-0.3-0.4-0.6-0.7-0.9-0.9c1.1-0.5,2-1.1,2.8-1.9c0.7-0.7,1.3-1.5,1.7-2.4
		s0.7-1.7,1-2.7S719.3,92.9,719.4,92z M714.5,96.3l1.2-1.8c0.9,0.3,1.9,0.7,2.9,1.1s1.9,0.9,2.8,1.3c0.9,0.5,1.6,0.9,2.3,1.3l-1.3,2
		c-0.6-0.5-1.4-0.9-2.2-1.4c-0.9-0.5-1.8-1-2.8-1.4S715.4,96.6,714.5,96.3z M714.8,91.1h12.1v2.2h-12.1V91.1z M717.6,105.8h2.4v6.4
		c0,0.3,0,0.6,0.1,0.7c0.1,0.1,0.3,0.2,0.6,0.2c0.1,0,0.2,0,0.4,0c0.2,0,0.4,0,0.6,0s0.4,0,0.6,0c0.2,0,0.3,0,0.4,0
		c0.2,0,0.4-0.1,0.5-0.2c0.1-0.1,0.2-0.4,0.2-0.9c0.1-0.4,0.1-1.1,0.1-2c0.1,0.1,0.3,0.3,0.6,0.4s0.5,0.2,0.8,0.3
		c0.3,0.1,0.5,0.2,0.7,0.2c-0.1,1.2-0.2,2-0.4,2.7c-0.2,0.6-0.5,1.1-0.9,1.3c-0.4,0.2-0.9,0.4-1.5,0.4c-0.1,0-0.3,0-0.6,0
		c-0.2,0-0.5,0-0.8,0s-0.5,0-0.8,0c-0.2,0-0.4,0-0.6,0c-0.8,0-1.3-0.1-1.7-0.3s-0.7-0.5-0.8-1s-0.2-1.1-0.2-1.8V105.8z M718.1,103.6
		l1.5-1.5c0.6,0.3,1.2,0.6,1.8,1.1c0.6,0.4,1.2,0.8,1.8,1.3s1,0.8,1.3,1.2l-1.6,1.7c-0.3-0.4-0.8-0.8-1.3-1.3
		c-0.5-0.4-1.1-0.9-1.7-1.3C719.3,104.3,718.7,103.9,718.1,103.6z M725.8,91.1h2.4c0,0.3,0,0.5,0,0.6c0,0.2,0,0.3,0,0.4
		c-0.1,2.1-0.2,3.9-0.3,5.2c-0.1,1.3-0.2,2.4-0.4,3.1c-0.1,0.7-0.3,1.2-0.6,1.5c-0.2,0.3-0.5,0.5-0.7,0.6c-0.3,0.1-0.6,0.2-1,0.3
		c-0.3,0-0.8,0.1-1.3,0.1c-0.6,0-1.2,0-1.8,0c0-0.4-0.1-0.8-0.2-1.2c-0.1-0.4-0.3-0.8-0.5-1.2c0.5,0.1,1.1,0.1,1.5,0.1
		c0.5,0,0.8,0,1,0c0.4,0,0.7-0.1,0.9-0.3c0.2-0.2,0.3-0.6,0.4-1.2c0.1-0.6,0.2-1.5,0.3-2.7c0.1-1.2,0.2-2.8,0.2-4.8V91.1z
		 M724.4,107.1l2.1-0.9c0.5,0.7,1,1.4,1.4,2.2c0.4,0.8,0.8,1.6,1.1,2.4c0.3,0.8,0.5,1.5,0.6,2.1l-2.3,0.9c-0.1-0.6-0.3-1.3-0.6-2.1
		s-0.6-1.6-1-2.4C725.3,108.6,724.8,107.8,724.4,107.1z"/>
</g>
<g>
	<path d="M885.6,100.3h22.8v2.5h-22.8V100.3z M888.2,91.5h17.2v2.4h-17.2V91.5z M896.8,102.3h2.7v10.2c0,0.7-0.1,1.3-0.3,1.7
		c-0.2,0.4-0.6,0.7-1.2,0.9c-0.6,0.2-1.3,0.3-2.1,0.3c-0.9,0-1.9,0.1-3.1,0.1c-0.1-0.4-0.2-0.8-0.4-1.3c-0.2-0.5-0.4-0.9-0.6-1.2
		c0.6,0,1.2,0,1.8,0c0.6,0,1.1,0,1.6,0s0.8,0,0.9,0c0.3,0,0.4-0.1,0.5-0.1s0.1-0.2,0.1-0.4V102.3z M892,97.2l1.3-1.9
		c0.8,0.3,1.6,0.6,2.5,1c0.9,0.4,1.8,0.7,2.8,1.1s1.8,0.8,2.6,1.1c0.8,0.4,1.5,0.7,2.1,1l-1.4,2.2c-0.6-0.3-1.3-0.6-2-1
		c-0.8-0.4-1.7-0.8-2.6-1.2c-0.9-0.4-1.9-0.8-2.8-1.2C893.7,97.9,892.8,97.5,892,97.2z M904.4,91.5h0.7l0.6-0.2l1.9,1.5
		c-0.8,0.8-1.6,1.5-2.6,2.3c-1,0.8-1.9,1.5-3,2.2c-1,0.7-2,1.3-3,1.9c-0.1-0.2-0.3-0.4-0.5-0.6c-0.2-0.2-0.4-0.4-0.6-0.6
		c-0.2-0.2-0.4-0.4-0.5-0.5c0.8-0.4,1.7-1,2.6-1.6c0.9-0.6,1.7-1.3,2.5-2c0.8-0.7,1.4-1.3,1.9-1.9V91.5z M907.5,100.3h0.5l0.5-0.2
		l2.1,0.9c-0.7,1.2-1.4,2.5-2.3,3.8c-0.8,1.3-1.6,2.3-2.4,3.2l-2.2-1.3c0.4-0.5,0.9-1.1,1.3-1.8s0.9-1.4,1.3-2.1
		c0.4-0.7,0.8-1.4,1.1-2.1V100.3z"/>
	<path d="M915.3,105.9l2.2,0.4c-0.2,1.3-0.4,2.6-0.7,3.8c-0.3,1.3-0.7,2.3-1.1,3.2c-0.1-0.1-0.3-0.2-0.6-0.3
		c-0.2-0.1-0.5-0.3-0.8-0.4s-0.5-0.2-0.7-0.3c0.4-0.8,0.8-1.8,1.1-3C915,108.2,915.2,107.1,915.3,105.9z M913.9,102.2
		c1.3,0,2.8-0.1,4.5-0.2s3.5-0.1,5.4-0.2l0,2.1c-1.7,0.1-3.4,0.2-5.1,0.3c-1.7,0.1-3.2,0.2-4.5,0.3L913.9,102.2z M914,96.1l1.3-1.8
		c0.5,0.4,1,0.9,1.5,1.4c0.5,0.5,1,1,1.4,1.5s0.8,1,1,1.4l-1.3,2c-0.2-0.4-0.6-0.9-1-1.5c-0.4-0.5-0.9-1.1-1.4-1.6
		C915,97,914.5,96.5,914,96.1z M918.3,90l2.3,0.9c-0.4,0.7-0.7,1.4-1.1,2.1c-0.4,0.7-0.8,1.5-1.2,2.1c-0.4,0.7-0.8,1.3-1.1,1.8
		l-1.8-0.7c0.3-0.6,0.7-1.2,1.1-1.9c0.4-0.7,0.7-1.4,1-2.2C917.8,91.3,918.1,90.6,918.3,90z M921.6,93.2l2.3,0.9
		c-0.7,1-1.4,2.1-2.2,3.3c-0.8,1.1-1.6,2.3-2.4,3.3c-0.8,1.1-1.6,2-2.3,2.8l-1.6-0.8c0.5-0.6,1.1-1.3,1.6-2.1
		c0.6-0.8,1.1-1.6,1.7-2.5c0.5-0.9,1.1-1.7,1.6-2.6C920.8,94.7,921.2,93.9,921.6,93.2z M918.5,103.3h2.3v12.3h-2.3V103.3z
		 M920.8,99.7l1.9-0.8c0.4,0.6,0.8,1.2,1.1,1.9s0.7,1.4,0.9,2c0.3,0.7,0.5,1.2,0.6,1.8l-2,0.9c-0.1-0.5-0.3-1.1-0.6-1.8
		s-0.6-1.4-0.9-2.1C921.5,100.9,921.2,100.3,920.8,99.7z M921.4,106.4l2-0.6c0.4,0.8,0.8,1.8,1.1,2.7c0.3,1,0.6,1.8,0.7,2.5
		l-2.1,0.7c-0.1-0.7-0.4-1.6-0.7-2.6C922.1,108.1,921.8,107.2,921.4,106.4z M928.1,89.9l2.7,0.6c-0.4,1.3-0.8,2.6-1.4,3.9
		c-0.5,1.3-1.1,2.5-1.8,3.6s-1.3,2.1-2,2.9c-0.2-0.1-0.4-0.3-0.7-0.5c-0.3-0.2-0.6-0.4-0.9-0.6c-0.3-0.2-0.6-0.3-0.8-0.5
		c0.7-0.8,1.4-1.7,2-2.7c0.6-1,1.1-2.1,1.6-3.3C927.3,92.3,927.7,91.2,928.1,89.9z M926.9,102l2.1-1c0.5,0.6,1,1.3,1.5,2.1
		c0.5,0.7,0.9,1.5,1.3,2.2s0.7,1.4,0.9,2l-2.3,1.2c-0.2-0.6-0.5-1.3-0.9-2c-0.4-0.7-0.8-1.5-1.3-2.3S927.4,102.7,926.9,102z
		 M927.4,94.8h10.2v2.4h-10.2V94.8z M936.5,94.8h2.5c0,0.3,0,0.6,0,0.8s0,0.4,0,0.5c-0.1,3.1-0.2,5.7-0.3,7.8s-0.3,3.9-0.4,5.3
		c-0.1,1.4-0.3,2.5-0.5,3.2c-0.2,0.8-0.4,1.3-0.7,1.7c-0.3,0.5-0.7,0.8-1.1,0.9s-0.8,0.3-1.4,0.4c-0.5,0.1-1.1,0.1-1.9,0.1
		s-1.6,0-2.4-0.1c0-0.4-0.1-0.8-0.3-1.3c-0.2-0.5-0.4-0.9-0.6-1.3c0.9,0.1,1.7,0.1,2.5,0.1c0.8,0,1.3,0,1.7,0c0.3,0,0.5,0,0.7-0.1
		c0.2-0.1,0.3-0.2,0.5-0.4c0.2-0.2,0.4-0.7,0.6-1.5c0.2-0.7,0.3-1.8,0.5-3.1c0.1-1.3,0.3-3.1,0.4-5.1c0.1-2.1,0.2-4.5,0.3-7.4V94.8z
		"/>
	<path d="M950.4,104.7h2.8c-0.1,1.3-0.3,2.5-0.7,3.6c-0.3,1.1-0.8,2.1-1.4,3c-0.6,0.9-1.5,1.7-2.6,2.4c-1.1,0.7-2.5,1.3-4.3,1.7
		c-0.1-0.2-0.2-0.5-0.4-0.8s-0.3-0.6-0.5-0.8c-0.2-0.3-0.4-0.5-0.6-0.7c1.6-0.4,2.8-0.8,3.8-1.4c1-0.5,1.7-1.2,2.2-1.9
		c0.5-0.7,0.9-1.5,1.1-2.4C950.1,106.7,950.3,105.8,950.4,104.7z M943.4,102.9h24.5v2.4h-24.5V102.9z M944,92.8h23.3v6.2h-2.8v-3.7
		h-17.9v3.7H944V92.8z M948.3,97.9H963v2.4h-14.7V97.9z M954.2,90h2.8v4.6h-2.8V90z M957.4,104.4h2.6v7.3c0,0.4,0.1,0.7,0.2,0.8
		c0.1,0.1,0.5,0.2,1,0.2c0.1,0,0.3,0,0.6,0c0.3,0,0.6,0,1,0s0.7,0,1,0s0.6,0,0.7,0c0.3,0,0.6-0.1,0.7-0.2c0.2-0.2,0.3-0.5,0.4-1
		s0.1-1.3,0.1-2.3c0.2,0.1,0.4,0.3,0.7,0.4c0.3,0.1,0.6,0.2,0.9,0.4c0.3,0.1,0.6,0.2,0.8,0.3c-0.1,1.3-0.3,2.3-0.5,3
		c-0.2,0.7-0.6,1.2-1,1.5c-0.5,0.3-1.1,0.4-1.9,0.4c-0.1,0-0.4,0-0.8,0c-0.4,0-0.8,0-1.2,0c-0.4,0-0.8,0-1.2,0s-0.6,0-0.8,0
		c-0.9,0-1.7-0.1-2.2-0.3c-0.5-0.2-0.9-0.5-1.1-1c-0.2-0.5-0.3-1.2-0.3-2V104.4z"/>
	<path d="M973.6,92h19.6v2.6h-19.6V92z M983.3,99.3h2.8v13c0,0.8-0.1,1.4-0.4,1.8c-0.2,0.4-0.7,0.7-1.2,0.9
		c-0.6,0.2-1.4,0.3-2.3,0.4c-1,0-2.1,0.1-3.5,0.1c-0.1-0.4-0.2-0.8-0.4-1.3c-0.2-0.5-0.4-1-0.6-1.3c0.7,0,1.4,0.1,2.1,0.1
		c0.7,0,1.3,0,1.8,0c0.5,0,0.9,0,1.1,0c0.3,0,0.5,0,0.6-0.1c0.1-0.1,0.2-0.3,0.2-0.5V99.3z M992.2,92h0.7l0.6-0.2l2,1.5
		c-0.8,1-1.7,2-2.8,3c-1.1,1-2.2,2-3.4,2.9c-1.2,0.9-2.3,1.7-3.5,2.4c-0.1-0.2-0.3-0.4-0.5-0.6c-0.2-0.2-0.4-0.4-0.6-0.7
		c-0.2-0.2-0.4-0.4-0.6-0.5c0.8-0.5,1.5-1,2.3-1.6c0.8-0.6,1.5-1.2,2.3-1.9c0.7-0.7,1.4-1.3,2-2c0.6-0.6,1.1-1.2,1.5-1.8V92z"/>
</g>
<path d="M382.4,52.8h-9.9v-4h9.9V52.8z M357.6,52.8h-15v-4h15V52.8z M327.6,52.8h-15v-4h15V52.8z M297.6,52.8h-15v-4h15V52.8z
	 M267.6,52.8h-15v-4h15V52.8z M237.6,52.8h-15v-4h15V52.8z M207.6,52.8h-15v-4h15V52.8z M177.6,52.8h-15v-4h15V52.8z"/>
<path d="M649.9,52.8h-9.9v-4h9.9V52.8z M625.1,52.8h-15v-4h15V52.8z M595.1,52.8h-15v-4h15V52.8z M565.1,52.8h-15v-4h15V52.8z
	 M535.1,52.8h-15v-4h15V52.8z M505.1,52.8h-15v-4h15V52.8z M475.1,52.8h-15v-4h15V52.8z M445.1,52.8h-15v-4h15V52.8z"/>
<path d="M917.5,52.8h-9.9v-4h9.9V52.8z M892.6,52.8h-15v-4h15V52.8z M862.6,52.8h-15v-4h15V52.8z M832.6,52.8h-15v-4h15V52.8z
	 M802.6,52.8h-15v-4h15V52.8z M772.6,52.8h-15v-4h15V52.8z M742.6,52.8h-15v-4h15V52.8z M712.6,52.8h-15v-4h15V52.8z"/>
<g>
	<g>
		<path d="M414.4,59.3v2.4h-16.2c0.2-4.4,2.7-6.3,6.7-9c5.4-3.7,6.6-4.5,6.6-7c0-2.8-2.5-3.9-4.8-3.9c-5.1,0-5.3,4.5-5.4,6h-2.8
			c0.1-5.3,3.2-8.4,8.2-8.4c4.3,0,7.5,2.3,7.5,6.4c0,2.8-1.2,4.6-5.7,7.5c-5.1,3.2-6,4.3-6.7,6.1H414.4z"/>
	</g>
	<path d="M406.2,76.7c-14.2,0-25.8-11.6-25.8-25.8S392,25,406.2,25s25.8,11.6,25.8,25.8S420.5,76.7,406.2,76.7z M406.2,29
		c-12,0-21.8,9.8-21.8,21.8s9.8,21.8,21.8,21.8s21.8-9.8,21.8-21.8S418.3,29,406.2,29z"/>
</g>
<g>
	<g>
		<path d="M668.5,54.5c0.1,1.7,0.5,5.3,5.2,5.3c4,0,5.4-2.2,5.4-4.5c0-3.6-3.1-4.2-4.8-4.2h-2.1v-2.1h1.9c3,0,4.6-1.6,4.6-3.7
			c0-2.3-2-3.6-4.6-3.6c-4.5,0-4.9,3.3-5,4.7h-2.8c0.1-1.4,0.7-7.1,8-7.1c4.2,0,7.2,2.2,7.2,5.7c0,3.8-3,4.6-3.9,4.9
			c2.8,0.7,4.3,2.7,4.3,5.4c0,2.9-1.6,6.9-7.9,6.9c-2.6,0-7.8-0.4-8.2-7.7H668.5z"/>
	</g>
	<path d="M673.8,76.7c-14.2,0-25.8-11.6-25.8-25.8S659.5,25,673.8,25s25.8,11.6,25.8,25.8S688,76.7,673.8,76.7z M673.8,29
		c-12,0-21.8,9.8-21.8,21.8s9.8,21.8,21.8,21.8s21.8-9.8,21.8-21.8S685.8,29,673.8,29z"/>
</g>
<g>
	<path d="M138.7,76.7c-14.2,0-25.8-11.6-25.8-25.8S124.5,25,138.7,25s25.8,11.6,25.8,25.8S153,76.7,138.7,76.7z M138.7,29
		c-12,0-21.8,9.8-21.8,21.8s9.8,21.8,21.8,21.8s21.8-9.8,21.8-21.8S150.8,29,138.7,29z"/>
	<g>
		<path d="M140.9,61.6h-2.7V46.1h-4.5V44c2.3-0.1,4.3-0.7,5-4.1h2.2V61.6z"/>
	</g>
</g>
<g>
	<g>
		<circle cx="941.3" cy="50.8" r="23.8"/>
		<path d="M941.3,76.7c-14.2,0-25.8-11.6-25.8-25.8S927,25,941.3,25s25.8,11.6,25.8,25.8S955.5,76.7,941.3,76.7z M941.3,29
			c-12,0-21.8,9.8-21.8,21.8s9.8,21.8,21.8,21.8s21.8-9.8,21.8-21.8S953.3,29,941.3,29z"/>
	</g>
	<g>
		<path class="st1" d="M946.1,54.1h3.4v2.4h-3.4v5.1h-2.7v-5.1H933V54l10.4-14h2.8V54.1z M943.4,54.1V43.5l-7.9,10.6H943.4z"/>
	</g>
</g>
</svg>
