<?xml version="1.0" encoding="utf-8"?>
<!-- Generator: Adobe Illustrator 28.1.0, SVG Export Plug-In . SVG Version: 6.00 Build 0)  -->
<svg version="1.1" id="レイヤー_1" xmlns="http://www.w3.org/2000/svg" xmlns:xlink="http://www.w3.org/1999/xlink" x="0px"
	 y="0px" viewBox="0 0 835.2 157.8" style="enable-background:new 0 0 835.2 157.8;" xml:space="preserve">
<style type="text/css">
	.st0{fill:#CCCCCC;}
	.st1{fill:#FFFFFF;}
</style>
<g>
	<rect class="st0" width="835.2" height="157.8"/>
	<g>
		<path d="M22.6,100.9H43v25.7h-3.1v-22.8H25.5v22.9h-2.9V100.9z M24.5,121.8h16.7v2.9H24.5V121.8z M24.6,111.3h16.6v2.8H24.6V111.3
			z"/>
		<path d="M51.4,100.9h2.7v22.8h-2.7V100.9z M52.8,100.9h7.7v20.2h-7.7v-2.6h5v-15.1h-5V100.9z M53,109.6h6.1v2.5H53V109.6z
			 M61,108.3h17.5v2.5H61V108.3z M61.1,113.9h17.2v2.5H61.1V113.9z M62.1,102.4h15.3v2.5H62.1V102.4z M62.7,118.5l2.3-1.3
			c0.5,0.5,1,1.1,1.5,1.7c0.5,0.6,1,1.2,1.4,1.8c0.4,0.6,0.7,1.1,1,1.6l-2.5,1.5c-0.2-0.5-0.5-1-0.9-1.6c-0.4-0.6-0.8-1.2-1.3-1.9
			C63.7,119.5,63.2,119,62.7,118.5z M72.2,110.5H75v13.3c0,0.7-0.1,1.3-0.3,1.7c-0.2,0.4-0.5,0.7-1.1,0.9c-0.5,0.2-1.2,0.4-2,0.4
			c-0.8,0-1.8,0.1-3,0.1c-0.1-0.4-0.2-0.8-0.4-1.3c-0.2-0.5-0.4-1-0.6-1.3c0.9,0,1.7,0,2.4,0c0.7,0,1.2,0,1.5,0
			c0.2,0,0.4-0.1,0.5-0.1s0.1-0.2,0.1-0.4V110.5z M68.3,98.9h2.8v10.9h-2.8V98.9z"/>
		<path d="M96.2,109.5c0.6,0,1.2,0.2,1.8,0.5c0.5,0.3,0.9,0.7,1.3,1.3c0.3,0.5,0.5,1.1,0.5,1.8c0,0.6-0.2,1.2-0.5,1.7
			c-0.3,0.5-0.7,1-1.3,1.3s-1.1,0.5-1.8,0.5c-0.6,0-1.2-0.2-1.7-0.5c-0.5-0.3-1-0.7-1.3-1.3c-0.3-0.5-0.5-1.1-0.5-1.8
			s0.2-1.2,0.5-1.8c0.3-0.5,0.7-0.9,1.3-1.3C95,109.7,95.6,109.5,96.2,109.5z"/>
		<path d="M126,99.8h3.2c0,0.8-0.1,1.9-0.2,3.2c-0.1,1.3-0.3,2.8-0.6,4.4c-0.3,1.6-0.7,3.3-1.2,5.1c-0.5,1.8-1.3,3.5-2.2,5.2
			c-0.9,1.7-2.1,3.4-3.6,5c-1.5,1.6-3.2,2.9-5.3,4.1c-0.3-0.4-0.6-0.8-1-1.2c-0.4-0.4-0.9-0.8-1.4-1.1c2.1-1.1,3.8-2.4,5.2-3.8
			c1.4-1.4,2.5-3,3.4-4.6c0.9-1.6,1.6-3.3,2.1-4.9c0.5-1.6,0.9-3.2,1.1-4.7c0.2-1.5,0.4-2.8,0.4-4C125.9,101.4,126,100.5,126,99.8z
			 M129.1,100.5c0,0.4,0.1,1,0.1,1.8c0.1,0.8,0.2,1.8,0.4,3c0.2,1.2,0.5,2.4,0.9,3.8c0.4,1.4,0.9,2.8,1.5,4.2
			c0.6,1.4,1.4,2.9,2.4,4.2c0.9,1.4,2.1,2.7,3.4,3.8c1.3,1.2,2.9,2.2,4.7,3c-0.4,0.3-0.9,0.7-1.3,1.2s-0.7,0.9-1,1.2
			c-1.8-0.9-3.4-2-4.8-3.2s-2.6-2.7-3.5-4.1c-1-1.5-1.8-3-2.5-4.6c-0.7-1.6-1.2-3.1-1.6-4.6c-0.4-1.5-0.7-2.9-0.9-4.2
			c-0.2-1.3-0.3-2.4-0.4-3.3c-0.1-0.9-0.1-1.6-0.2-2L129.1,100.5z"/>
		<path d="M152.1,105.4l1.9,1.1c-0.5,0.8-1.1,1.7-1.9,2.5s-1.6,1.6-2.5,2.3c-0.9,0.7-1.7,1.3-2.6,1.8c-0.2-0.3-0.4-0.7-0.7-1.1
			c-0.3-0.4-0.6-0.8-0.8-1c0.8-0.3,1.7-0.8,2.5-1.4c0.8-0.6,1.6-1.2,2.3-2C151,106.9,151.6,106.2,152.1,105.4z M145.7,114.9h15.1
			v2.4h-15.1V114.9z M155.7,116.5l2.7,0.3c-0.3,1.5-0.7,2.8-1.2,4c-0.5,1.1-1.3,2.1-2.2,2.9c-0.9,0.8-2,1.5-3.3,2
			c-1.3,0.6-2.8,1-4.6,1.4c-0.1-0.4-0.2-0.8-0.5-1.3c-0.2-0.4-0.5-0.8-0.7-1.1c2.1-0.3,3.8-0.8,5.1-1.4c1.3-0.6,2.4-1.5,3.1-2.6
			C154.8,119.5,155.3,118.1,155.7,116.5z M145.9,104.3h14.7v2.3h-14.7V104.3z M151.2,112.5l2.7,0.6c-0.5,1-1,2.1-1.6,3.2
			c-0.6,1.1-1.1,2.2-1.7,3.2c-0.5,1-1.1,1.9-1.5,2.8l-2.5-0.8c0.5-0.8,1-1.7,1.5-2.7c0.6-1,1.1-2.1,1.6-3.2
			C150.3,114.5,150.8,113.5,151.2,112.5z M146.9,100.5l2.1-0.9c0.4,0.6,0.8,1.3,1.2,2c0.4,0.7,0.6,1.3,0.7,1.9l-2.2,1
			c-0.1-0.5-0.4-1.2-0.7-1.9C147.7,101.8,147.3,101.1,146.9,100.5z M148.8,121.2l1.5-2c1.2,0.5,2.4,1,3.6,1.6
			c1.2,0.6,2.3,1.2,3.3,1.8c1,0.6,1.9,1.2,2.6,1.7l-2,2.1c-0.7-0.6-1.5-1.2-2.5-1.8c-1-0.6-2-1.2-3.1-1.8
			C151.1,122.2,150,121.7,148.8,121.2z M152,98.9h2.7v14H152V98.9z M154.4,106.4c0.3,0.1,0.7,0.4,1.2,0.7c0.5,0.3,1.1,0.6,1.7,1
			c0.6,0.4,1.1,0.7,1.6,1s0.8,0.5,1,0.7l-1.5,2c-0.3-0.2-0.6-0.6-1.1-0.9c-0.5-0.4-1-0.8-1.5-1.2c-0.5-0.4-1-0.8-1.5-1.2
			c-0.5-0.4-0.9-0.7-1.2-0.9L154.4,106.4z M157.6,99.5l2.5,1c-0.5,0.7-0.9,1.4-1.4,2.1c-0.5,0.7-0.9,1.3-1.3,1.8l-1.9-0.9
			c0.4-0.5,0.8-1.2,1.2-2C157.1,100.7,157.4,100,157.6,99.5z M169.2,106.1l2.9,0.3c-0.5,3.5-1.2,6.5-2.1,9.2
			c-0.9,2.6-2.2,4.9-3.8,6.8c-1.6,1.9-3.7,3.5-6.2,4.8c-0.1-0.2-0.2-0.5-0.4-0.8s-0.4-0.7-0.6-1c-0.2-0.3-0.4-0.6-0.6-0.8
			c2.3-1.1,4.3-2.5,5.7-4.2c1.5-1.7,2.6-3.7,3.4-6.1C168.2,111.9,168.8,109.2,169.2,106.1z M163.4,98.9l2.9,0.4
			c-0.3,2-0.7,4-1.2,5.8c-0.5,1.9-1.1,3.6-1.8,5.2c-0.7,1.6-1.5,3-2.4,4.2c-0.1-0.2-0.4-0.4-0.6-0.6c-0.3-0.2-0.6-0.5-0.9-0.7
			c-0.3-0.3-0.6-0.4-0.8-0.6c0.9-1.1,1.6-2.3,2.2-3.8c0.6-1.4,1.2-3,1.6-4.7C162.8,102.5,163.2,100.7,163.4,98.9z M164.4,106.7
			c0.4,2.7,1,5.2,1.8,7.5c0.8,2.3,1.8,4.4,3.1,6.2c1.3,1.8,2.9,3.1,4.7,4.1c-0.2,0.2-0.5,0.4-0.7,0.7c-0.3,0.3-0.5,0.6-0.7,0.9
			c-0.2,0.3-0.4,0.6-0.6,0.8c-2-1.2-3.7-2.7-5-4.7c-1.3-1.9-2.4-4.2-3.3-6.8s-1.5-5.4-2-8.4L164.4,106.7z M162.9,104.5h10.9v2.6
			h-10.9V104.5z"/>
	</g>
	<g>
		<path d="M243.8,100.1c0,0.2-0.1,0.4-0.1,0.7c0,0.3,0,0.6-0.1,0.8c0,0.3-0.1,0.6-0.1,0.8c0,0.5,0,1.1-0.1,1.9
			c0,0.7-0.1,1.5-0.1,2.3s-0.1,1.7-0.1,2.5s0,1.6,0,2.4c0,0.8,0,1.7,0,2.6s0,1.9,0.1,2.9c0,0.9,0,1.8,0.1,2.6c0,0.8,0,1.4,0,1.9
			c0,1.1-0.1,1.9-0.4,2.5c-0.3,0.6-0.6,1-1,1.3c-0.4,0.2-1,0.4-1.6,0.4c-0.6,0-1.4-0.1-2.1-0.4c-0.8-0.3-1.5-0.7-2.2-1.1
			c-0.7-0.5-1.3-1-1.7-1.7c-0.4-0.6-0.7-1.3-0.7-2.1c0-0.9,0.4-1.8,1.1-2.8c0.7-0.9,1.7-1.8,2.8-2.5c1.2-0.8,2.4-1.4,3.7-1.9
			c1.4-0.5,2.8-0.9,4.2-1.1c1.4-0.3,2.7-0.4,3.9-0.4c1.5,0,2.9,0.3,4.1,0.8s2.1,1.2,2.8,2.2c0.7,0.9,1,2.1,1,3.4
			c0,1.2-0.2,2.3-0.7,3.2c-0.5,0.9-1.2,1.8-2.2,2.4c-1,0.7-2.2,1.2-3.7,1.5c-0.7,0.1-1.4,0.2-2,0.3c-0.7,0.1-1.3,0.1-1.8,0.2
			l-1.1-3.1c0.6,0,1.2,0,1.8,0c0.6,0,1.2-0.1,1.8-0.2c0.8-0.2,1.6-0.4,2.4-0.8s1.3-0.8,1.7-1.4c0.4-0.6,0.7-1.3,0.7-2.2
			c0-0.8-0.2-1.4-0.6-2c-0.4-0.5-1-0.9-1.7-1.2c-0.7-0.3-1.6-0.4-2.5-0.4c-1.3,0-2.6,0.1-3.9,0.4c-1.3,0.3-2.6,0.7-3.8,1.1
			c-0.9,0.4-1.8,0.8-2.5,1.3c-0.8,0.5-1.4,1-1.8,1.6c-0.4,0.5-0.7,1-0.7,1.5c0,0.3,0.1,0.6,0.3,0.9s0.4,0.5,0.7,0.7
			c0.3,0.2,0.6,0.4,0.9,0.5c0.3,0.1,0.6,0.2,0.9,0.2c0.3,0,0.5-0.1,0.7-0.3c0.2-0.2,0.3-0.6,0.3-1.1c0-0.6,0-1.4,0-2.4
			c0-1-0.1-2.2-0.1-3.4c0-1.2,0-2.4,0-3.6c0-0.9,0-1.8,0-2.7c0-0.9,0-1.8,0-2.7c0-0.9,0-1.6,0-2.3c0-0.7,0-1.1,0-1.5
			c0-0.2,0-0.5,0-0.8c0-0.3,0-0.6-0.1-0.9c0-0.3-0.1-0.5-0.1-0.7H243.8z M234.5,105.4c0.9,0.1,1.6,0.2,2.2,0.2c0.6,0,1.2,0,1.8,0
			c0.7,0,1.6,0,2.5-0.1c0.9-0.1,1.9-0.2,2.9-0.3s1.9-0.3,2.9-0.5c0.9-0.2,1.8-0.4,2.6-0.6l0.1,3c-0.8,0.2-1.7,0.4-2.7,0.5
			c-1,0.2-2,0.3-3,0.4c-1,0.1-1.9,0.2-2.8,0.3c-0.9,0.1-1.7,0.1-2.4,0.1c-0.9,0-1.7,0-2.3,0c-0.6,0-1.2-0.1-1.7-0.1L234.5,105.4z
			 M252.9,103.5c0.7,0.4,1.6,0.8,2.5,1.3c0.9,0.5,1.8,1.1,2.6,1.6s1.5,1,2,1.4l-1.5,2.4c-0.4-0.3-0.8-0.7-1.4-1.1
			c-0.6-0.4-1.2-0.8-1.9-1.2c-0.7-0.4-1.3-0.8-2-1.2s-1.2-0.7-1.7-0.9L252.9,103.5z"/>
		<path d="M283.4,106.6h0.5l0.5-0.1l1.9,1.1c-1,1.6-2.3,3.1-3.8,4.4c-1.5,1.3-3.2,2.4-5.1,3.4c-1.9,1-3.9,1.8-6,2.5
			s-4.2,1.3-6.3,1.7c-0.1-0.4-0.3-0.8-0.6-1.3c-0.3-0.5-0.5-0.9-0.8-1.2c2-0.3,4-0.8,5.9-1.4c2-0.6,3.9-1.3,5.6-2.2
			c1.8-0.8,3.4-1.8,4.7-2.9c1.4-1.1,2.5-2.3,3.3-3.6V106.6z M265,101.6h25.8v6.1h-2.9v-3.5h-20.1v3.5H265V101.6z M274.2,104.4
			l3.1,0.6c-1.1,1.5-2.4,3-4,4.4c-1.6,1.4-3.5,2.6-5.8,3.7c-0.1-0.2-0.3-0.5-0.5-0.7c-0.2-0.3-0.5-0.5-0.7-0.8
			c-0.2-0.3-0.5-0.4-0.7-0.6c2.1-0.9,3.9-1.9,5.4-3.1S273.4,105.6,274.2,104.4z M269.5,117.7h17.1v9.3h-2.9v-6.9h-11.3v7h-2.8V117.7
			z M273.2,108.3c1.2,1.4,2.7,2.7,4.6,3.7c1.9,1.1,4.1,2,6.5,2.7c2.4,0.7,5,1.2,7.7,1.5c-0.2,0.2-0.4,0.5-0.7,0.8
			c-0.2,0.3-0.4,0.7-0.7,1c-0.2,0.3-0.4,0.6-0.5,0.9c-2.7-0.4-5.3-1-7.8-1.9c-2.5-0.8-4.7-1.9-6.7-3.2c-2-1.3-3.7-2.8-5.1-4.5
			L273.2,108.3z M270.9,123.7h14.2v2.4h-14.2V123.7z M274.3,106.6h9.9v2.2h-11.9L274.3,106.6z M276.4,99h2.9v4.1h-2.9V99z"/>
		<path d="M300,107.1l1.7,0.6c-0.2,1.2-0.5,2.4-0.8,3.7c-0.3,1.3-0.7,2.6-1.1,3.8c-0.4,1.3-0.9,2.4-1.4,3.5c-0.5,1.1-1,2-1.5,2.8
			c-0.1-0.4-0.3-0.8-0.6-1.3c-0.3-0.5-0.5-0.9-0.7-1.2c0.5-0.7,1-1.5,1.4-2.4c0.5-0.9,0.9-1.9,1.3-3s0.8-2.1,1.1-3.3
			C299.5,109.2,299.8,108.1,300,107.1z M296.1,105.4h9.9v2.7h-9.9V105.4z M300.1,99h2.6v28h-2.6V99z M302.5,109.5
			c0.2,0.2,0.4,0.6,0.8,1.1c0.3,0.5,0.7,1.1,1.1,1.7c0.4,0.6,0.8,1.2,1.1,1.7c0.3,0.5,0.6,0.9,0.7,1.1l-1.5,2.1
			c-0.2-0.4-0.4-0.9-0.7-1.5c-0.3-0.6-0.6-1.2-1-1.8c-0.4-0.6-0.7-1.2-1-1.8c-0.3-0.6-0.6-1-0.8-1.3L302.5,109.5z M304.8,122.9
			c0.9-0.4,2.1-1,3.4-1.7s2.6-1.4,4-2.1l0.7,2.3c-1.1,0.7-2.3,1.3-3.5,2c-1.2,0.7-2.3,1.3-3.3,1.8L304.8,122.9z M306,110.7h17.6v2.4
			H306V110.7z M306.6,102.6h16.5v2.3h-16.5V102.6z M306.8,115.3l2-1.3c0.6,0.6,1.2,1.2,1.8,1.9c0.6,0.7,1,1.4,1.3,1.9l-2.1,1.4
			c-0.3-0.5-0.7-1.2-1.3-2C307.9,116.6,307.4,115.9,306.8,115.3z M307.4,106.6h15v2.2h-15V106.6z M308.7,99.8L311,99
			c0.4,0.5,0.7,1.1,1,1.8c0.3,0.6,0.6,1.2,0.7,1.7l-2.4,0.9c-0.1-0.5-0.3-1.1-0.7-1.7C309.4,101,309.1,100.4,308.7,99.8z
			 M313.4,104.2h2.8V124c0,0.7-0.1,1.3-0.2,1.6c-0.2,0.4-0.5,0.7-0.9,0.9c-0.5,0.2-1,0.4-1.7,0.4c-0.7,0.1-1.5,0.1-2.4,0.1
			c0-0.4-0.1-0.8-0.3-1.3c-0.2-0.5-0.3-0.9-0.5-1.3c0.6,0,1.2,0,1.7,0c0.6,0,0.9,0,1.1,0c0.2,0,0.3,0,0.4-0.1
			c0.1-0.1,0.1-0.2,0.1-0.4V104.2z M316,113.8c0.5,1.4,1.1,2.8,1.8,4c0.8,1.3,1.7,2.3,2.7,3.3c1.1,0.9,2.2,1.7,3.6,2.3
			c-0.2,0.2-0.4,0.4-0.6,0.7c-0.2,0.3-0.5,0.6-0.7,0.8s-0.4,0.6-0.5,0.8c-1.3-0.7-2.5-1.6-3.6-2.8c-1.1-1.1-2-2.4-2.8-3.9
			c-0.8-1.5-1.4-3.1-1.9-4.7L316,113.8z M318.5,98.9l2.8,0.8c-0.4,0.7-0.8,1.3-1.2,2c-0.4,0.7-0.7,1.2-1,1.6l-2.2-0.7
			c0.3-0.5,0.6-1.1,0.9-1.8C318.1,100.1,318.3,99.5,318.5,98.9z M321.2,113.9l2.2,1.5c-0.6,0.7-1.3,1.4-2.1,2.1
			c-0.8,0.7-1.4,1.3-2,1.8l-1.9-1.4c0.4-0.4,0.8-0.8,1.3-1.3c0.5-0.5,0.9-1,1.4-1.5C320.5,114.8,320.9,114.4,321.2,113.9z"/>
		<path d="M328.4,104.9l2.1,0.3c0,0.8-0.1,1.7-0.2,2.7s-0.3,2-0.4,3c-0.2,1-0.4,1.9-0.6,2.6l-2.1-0.7c0.2-0.7,0.4-1.5,0.6-2.4
			s0.3-1.9,0.5-2.8C328.2,106.6,328.3,105.7,328.4,104.9z M330.8,99h2.6v28h-2.6V99z M333.4,104l1.8-0.8c0.3,0.7,0.7,1.4,1,2.3
			c0.3,0.8,0.6,1.5,0.7,2l-1.9,0.9c-0.1-0.6-0.4-1.3-0.7-2.1C334,105.5,333.7,104.7,333.4,104z M335.6,108.7h19.8v2.1h-19.8V108.7z
			 M336.5,101.2h18v2.1h-18V101.2z M337.3,104.9h16.5v2h-16.5V104.9z M337.7,112.3H351v2.1h-10.6V127h-2.7V112.3z M339.8,116.3h11.3
			v2.1h-11.3V116.3z M339.8,120.3h11.4v2.1h-11.4V120.3z M344,99h2.8v10.4H344V99z M350.5,112.3h2.7v11.8c0,0.6-0.1,1.2-0.2,1.6
			c-0.2,0.4-0.5,0.7-1,0.9c-0.5,0.2-1.1,0.3-1.8,0.4c-0.7,0-1.6,0.1-2.7,0.1c-0.1-0.4-0.2-0.8-0.3-1.3c-0.2-0.5-0.3-0.9-0.5-1.2
			c0.7,0,1.4,0.1,2,0.1s1.1,0,1.3,0c0.4,0,0.5-0.2,0.5-0.5V112.3z"/>
		<path d="M359.2,106.9h13.6v2.4h-13.6V106.9z M359.8,113.3h12.7v2.4h-12.7V113.3z M360,118.7h12.1v2.4H360V118.7z M360.3,101.9
			h11.4v2.4h-11.4V101.9z M361.3,109.7l2.1-0.5c0.3,0.6,0.6,1.3,0.8,2c0.2,0.7,0.4,1.4,0.5,1.9l-2.3,0.6c-0.1-0.5-0.2-1.2-0.4-1.9
			C361.8,111,361.5,110.3,361.3,109.7z M364.8,99h2.6v8.8h-2.6V99z M364.8,114.4h2.6V127h-2.6V114.4z M368.9,109.1l2.4,0.6
			c-0.3,0.7-0.6,1.4-0.9,2.1c-0.3,0.7-0.5,1.3-0.8,1.8l-2.1-0.6c0.2-0.4,0.3-0.8,0.5-1.2s0.3-0.9,0.5-1.4
			C368.7,109.9,368.8,109.5,368.9,109.1z M373.6,100.3h11v2.5h-8.3V127h-2.6V100.3z M375.1,110.6h9.6v2.3h-9.6V110.6z M383.8,110.6
			h0.5l0.5-0.1l1.7,0.6c-0.4,2.2-0.9,4.4-1.7,6.4c-0.8,2-1.8,3.8-2.9,5.5c-1.2,1.6-2.5,3-4.1,4.1c-0.2-0.3-0.5-0.7-0.9-1
			c-0.4-0.4-0.7-0.7-1-0.9c1.5-1,2.7-2.2,3.8-3.7c1.1-1.5,2-3.1,2.7-4.8c0.7-1.8,1.2-3.5,1.5-5.4V110.6z M378.4,112.3
			c0.5,1.8,1.2,3.5,2.1,5.1c0.9,1.6,1.9,3.1,3.1,4.4c1.2,1.3,2.6,2.3,4,3c-0.3,0.3-0.7,0.6-1,1.1c-0.4,0.5-0.7,0.9-0.9,1.2
			c-1.5-0.9-2.9-2.1-4.1-3.5c-1.2-1.4-2.3-3.1-3.2-4.9c-0.9-1.8-1.7-3.8-2.2-5.8L378.4,112.3z M383.2,100.3h2.7v5.8
			c0,0.6-0.1,1.2-0.3,1.6c-0.2,0.4-0.5,0.7-1.1,0.9c-0.5,0.2-1.2,0.3-2,0.3c-0.8,0.1-1.8,0.1-2.9,0.1c0-0.4-0.1-0.8-0.3-1.3
			c-0.2-0.5-0.3-0.9-0.5-1.2c0.6,0,1.1,0,1.6,0c0.5,0,1,0,1.3,0s0.7,0,0.8,0c0.2,0,0.4-0.1,0.5-0.1c0.1,0,0.1-0.2,0.1-0.3V100.3z"/>
	</g>
	<g>
		<path d="M464.1,104.1h23.1v2.8h-20.2v20.2h-2.9V104.1z M474.9,99h3v6.5c0,1-0.1,2-0.2,3.1c-0.1,1.1-0.3,2.2-0.7,3.3
			c-0.3,1.1-0.8,2.2-1.4,3.3c-0.6,1.1-1.5,2.1-2.5,3.1c-1,1-2.2,1.9-3.7,2.8c-0.1-0.2-0.3-0.4-0.5-0.7s-0.5-0.5-0.8-0.8
			c-0.3-0.3-0.5-0.5-0.8-0.6c1.4-0.8,2.6-1.6,3.5-2.5s1.7-1.8,2.2-2.7c0.5-0.9,0.9-1.9,1.2-2.8c0.3-1,0.4-1.9,0.5-2.8
			c0.1-0.9,0.1-1.8,0.1-2.6V99z M474.7,111.8l2.2-1.6c0.7,0.6,1.5,1.3,2.3,2.1c0.8,0.7,1.6,1.5,2.4,2.3s1.5,1.5,2.2,2.2
			c0.7,0.7,1.2,1.4,1.7,1.9l-2.4,1.9c-0.4-0.6-1-1.2-1.6-2c-0.7-0.7-1.4-1.5-2.1-2.3c-0.8-0.8-1.5-1.6-2.3-2.4
			S475.4,112.4,474.7,111.8z M485.9,104.1h2.8v19.5c0,0.8-0.1,1.5-0.3,1.9s-0.6,0.8-1.2,1.1c-0.6,0.2-1.3,0.4-2.3,0.4
			c-1,0-2.1,0.1-3.5,0.1c0-0.3-0.1-0.6-0.2-0.9s-0.2-0.7-0.3-1c-0.1-0.3-0.3-0.6-0.4-0.9c0.7,0,1.3,0,2,0.1c0.6,0,1.2,0,1.7,0
			c0.5,0,0.8,0,1,0c0.3,0,0.5-0.1,0.6-0.2c0.1-0.1,0.2-0.3,0.2-0.5V104.1z"/>
		<path d="M508.2,111.4c-0.8,1.1-1.9,2.2-3.1,3.3c-1.3,1.1-2.7,2.2-4.3,3.2s-3.2,1.9-4.8,2.7c-0.1-0.2-0.2-0.5-0.4-0.8
			c-0.2-0.3-0.4-0.6-0.6-0.9c-0.2-0.3-0.4-0.5-0.6-0.7c1.7-0.7,3.3-1.6,4.9-2.7c1.6-1,3-2.2,4.3-3.3s2.3-2.3,3.1-3.4h2.9
			c0.8,1,1.7,1.9,2.7,2.8s2.1,1.7,3.2,2.5s2.3,1.5,3.4,2.1s2.3,1.1,3.5,1.6c-0.3,0.3-0.6,0.8-1,1.2c-0.3,0.5-0.6,0.9-0.8,1.3
			c-1.1-0.5-2.2-1.1-3.4-1.8c-1.2-0.7-2.3-1.4-3.4-2.2c-1.1-0.8-2.1-1.6-3.1-2.5C509.7,113.1,508.8,112.3,508.2,111.4z M495.3,101.6
			h25.6v6H518v-3.4h-19.8v3.4h-2.8V101.6z M502.8,105.3l2.8,0.9c-0.7,0.9-1.4,1.8-2.3,2.6c-0.9,0.8-1.8,1.6-2.7,2.3
			c-0.9,0.7-1.9,1.3-2.8,1.9c-0.1-0.2-0.3-0.4-0.6-0.7c-0.2-0.3-0.5-0.6-0.8-0.9c-0.3-0.3-0.5-0.5-0.7-0.7c1.4-0.6,2.7-1.5,3.9-2.4
			C501,107.4,502,106.3,502.8,105.3z M499.7,116.8h16.9V127h-2.9v-7.7h-11.3v7.8h-2.8V116.8z M501,123.6h14.2v2.5H501V123.6z
			 M506.6,99h2.9v4.1h-2.9V99z M510.4,106.9l2-1.7c0.9,0.5,1.9,1.1,2.8,1.8c1,0.7,1.9,1.3,2.8,2c0.9,0.7,1.6,1.3,2.2,1.9l-2.1,1.9
			c-0.5-0.6-1.2-1.2-2.1-1.9s-1.8-1.4-2.8-2.1C512.3,108.1,511.3,107.5,510.4,106.9z"/>
		<path d="M529.6,102.2l2.7,0.4c-0.3,2.2-0.7,4.2-1.2,6.3c-0.5,2-1.1,3.9-1.8,5.7c-0.7,1.8-1.5,3.3-2.5,4.7
			c-0.1-0.2-0.2-0.5-0.4-0.9c-0.2-0.4-0.4-0.7-0.6-1c-0.2-0.3-0.4-0.6-0.6-0.8c0.8-1.1,1.5-2.5,2-4c0.6-1.5,1-3.2,1.4-4.9
			S529.4,104.1,529.6,102.2z M526.3,100.9h10.8v2.6h-10.8V100.9z M528.3,109.8h2.3v16h-2.3V109.8z M529.5,109.8h6.9v13.6h-6.9v-2.5
			h4.4v-8.6h-4.4V109.8z M544.1,98.9l2.7,0.5c-0.8,3.2-2,6-3.5,8.5c-1.5,2.5-3.3,4.6-5.4,6.2c-0.1-0.2-0.3-0.4-0.5-0.7
			s-0.5-0.5-0.8-0.8c-0.3-0.3-0.5-0.5-0.7-0.7c2-1.4,3.7-3.2,5.1-5.5C542.4,104.3,543.4,101.7,544.1,98.9z M537,101.9h16.8v5.3h-2.5
			v-2.9h-11.8v2.9H537V101.9z M541.8,108.6h11.2v2.4h-11.2v16h-2.7v-15.9l2.5-2.5H541.8z M540.9,123.4h13v2.4h-13V123.4z
			 M540.9,113.6h11.6v2.1h-11.6V113.6z M540.9,118.5h11.6v2.1h-11.6V118.5z M545.4,110.5h2.7v14.1h-2.7V110.5z M547.3,105.2l2.7,0.6
			c-0.4,0.8-0.7,1.6-1.1,2.4c-0.4,0.8-0.7,1.5-1.1,2.1l-2.1-0.6c0.3-0.6,0.6-1.3,1-2.2C546.9,106.6,547.1,105.9,547.3,105.2z"/>
		<path d="M557.6,104h10.9v2.3h-10.9V104z M558.9,116.4h2.4v10.3h-2.4V116.4z M558.9,108.2h8.7v2.2h-8.7V108.2z M558.9,112.2h8.7
			v2.2h-8.7V112.2z M559,100h8.5v2.2H559V100z M560.2,116.4h7.5v9h-7.5v-2.3h5.1v-4.4h-5.1V116.4z M570,117.5l2.3,0.6
			c-0.1,0.9-0.2,1.8-0.4,2.7s-0.4,1.8-0.8,2.5c-0.3,0.8-0.7,1.5-1.2,2.1l-2.1-1.3c0.4-0.5,0.8-1.1,1.1-1.8s0.5-1.5,0.7-2.3
			S569.9,118.3,570,117.5z M575,101.2h2.6c-0.2,1.2-0.4,2.4-0.7,3.6c-0.3,1.2-0.7,2.4-1.2,3.5c-0.5,1.1-1.3,2.1-2.2,3.1
			s-2,1.8-3.4,2.4c-0.2-0.3-0.4-0.7-0.7-1.1c-0.3-0.4-0.6-0.7-0.9-1c1.2-0.6,2.2-1.2,3-2c0.8-0.8,1.4-1.7,1.9-2.6
			c0.5-0.9,0.8-1.9,1.1-2.9C574.7,103.2,574.9,102.2,575,101.2z M569.6,105.9l1.4-2c1,0.3,2.1,0.7,3.2,1.2s2.1,1,3.1,1.5
			c1,0.5,1.8,1,2.5,1.5l-1.4,2.2c-0.7-0.5-1.5-1-2.5-1.6c-1-0.5-2-1.1-3.1-1.6C571.7,106.7,570.6,106.2,569.6,105.9z M569.9,100.2
			h13.3v2.4h-13.3V100.2z M572.9,116.4h2.7v7c0,0.4,0,0.6,0.1,0.7c0.1,0.1,0.3,0.2,0.7,0.2c0.1,0,0.2,0,0.4,0c0.2,0,0.4,0,0.7,0
			c0.2,0,0.5,0,0.7,0c0.2,0,0.4,0,0.5,0c0.2,0,0.4-0.1,0.5-0.2s0.2-0.5,0.3-0.9s0.1-1.2,0.1-2.2c0.2,0.1,0.4,0.3,0.7,0.4
			c0.3,0.1,0.6,0.2,0.9,0.3c0.3,0.1,0.6,0.2,0.8,0.3c-0.1,1.3-0.2,2.3-0.4,2.9c-0.2,0.7-0.5,1.2-0.9,1.5s-1,0.4-1.6,0.4
			c-0.1,0-0.3,0-0.6,0s-0.6,0-0.9,0c-0.3,0-0.6,0-0.9,0c-0.3,0-0.5,0-0.6,0c-0.8,0-1.5-0.1-1.9-0.3c-0.5-0.2-0.8-0.6-0.9-1.1
			c-0.2-0.5-0.2-1.2-0.2-2V116.4z M573.5,113.9l1.7-1.7c0.7,0.3,1.3,0.7,2,1.2c0.7,0.5,1.3,0.9,1.9,1.4c0.6,0.5,1.1,0.9,1.5,1.3
			l-1.8,1.9c-0.4-0.4-0.8-0.9-1.4-1.4s-1.2-1-1.9-1.5C574.9,114.7,574.2,114.3,573.5,113.9z M582,100.2h2.7c0,0.3,0,0.5,0,0.7
			c0,0.2,0,0.3,0,0.4c-0.1,2.3-0.2,4.2-0.3,5.7c-0.1,1.5-0.3,2.6-0.4,3.4c-0.2,0.8-0.4,1.3-0.7,1.6c-0.2,0.3-0.5,0.6-0.8,0.7
			c-0.3,0.1-0.7,0.2-1.1,0.3c-0.4,0-0.9,0.1-1.5,0.1s-1.3,0-2,0c0-0.4-0.1-0.8-0.2-1.3c-0.1-0.5-0.3-0.9-0.5-1.3
			c0.6,0.1,1.2,0.1,1.7,0.1c0.5,0,0.9,0,1.1,0c0.4,0,0.7-0.1,0.9-0.3c0.2-0.2,0.3-0.6,0.5-1.3c0.1-0.7,0.2-1.7,0.3-3
			c0.1-1.3,0.2-3.1,0.2-5.3V100.2z M580.4,117.8l2.3-1c0.5,0.8,1,1.6,1.5,2.5s0.9,1.7,1.2,2.6c0.3,0.9,0.6,1.6,0.7,2.3l-2.5,1
			c-0.1-0.7-0.3-1.5-0.6-2.3c-0.3-0.9-0.7-1.7-1.1-2.6S580.9,118.6,580.4,117.8z"/>
	</g>
	<g>
		<path d="M677.7,110.4h25.1v2.7h-25.1V110.4z M680.6,100.6h18.9v2.6h-18.9V100.6z M690.1,112.5h3v11.2c0,0.8-0.1,1.4-0.3,1.9
			c-0.2,0.4-0.7,0.8-1.3,1c-0.6,0.2-1.4,0.3-2.3,0.4c-0.9,0-2.1,0.1-3.4,0.1c-0.1-0.4-0.2-0.9-0.4-1.4c-0.2-0.5-0.4-1-0.7-1.4
			c0.7,0,1.3,0,2,0c0.6,0,1.2,0,1.7,0s0.8,0,1,0c0.3,0,0.5-0.1,0.6-0.2c0.1-0.1,0.2-0.2,0.2-0.5V112.5z M684.8,106.9l1.5-2.1
			c0.8,0.3,1.8,0.7,2.8,1.1c1,0.4,2,0.8,3,1.2c1,0.4,2,0.8,2.9,1.2c0.9,0.4,1.7,0.8,2.3,1.1l-1.5,2.5c-0.6-0.3-1.4-0.7-2.3-1.1
			c-0.9-0.4-1.8-0.8-2.8-1.3c-1-0.5-2-0.9-3.1-1.3C686.7,107.7,685.7,107.3,684.8,106.9z M698.4,100.6h0.8l0.7-0.2l2.1,1.6
			c-0.8,0.8-1.8,1.7-2.8,2.6c-1,0.9-2.1,1.7-3.3,2.5c-1.1,0.8-2.2,1.5-3.3,2c-0.1-0.2-0.3-0.4-0.5-0.7c-0.2-0.2-0.4-0.5-0.7-0.7
			s-0.4-0.4-0.6-0.6c0.9-0.5,1.9-1.1,2.8-1.8c1-0.7,1.9-1.4,2.8-2.2c0.9-0.7,1.5-1.4,2-2.1V100.6z M701.9,110.4h0.5l0.5-0.2l2.3,1
			c-0.7,1.4-1.6,2.7-2.5,4.1c-0.9,1.4-1.8,2.6-2.7,3.5l-2.4-1.4c0.5-0.6,1-1.2,1.5-1.9c0.5-0.7,1-1.5,1.5-2.3
			c0.5-0.8,0.9-1.6,1.3-2.3V110.4z"/>
		<path d="M710.4,116.5l2.4,0.4c-0.2,1.4-0.4,2.8-0.8,4.2s-0.8,2.6-1.2,3.5c-0.2-0.1-0.4-0.2-0.6-0.4c-0.3-0.1-0.5-0.3-0.8-0.4
			c-0.3-0.1-0.5-0.2-0.7-0.3c0.5-0.9,0.9-2,1.2-3.3C710.1,119.1,710.3,117.8,710.4,116.5z M708.9,112.4c1.4,0,3.1-0.1,5-0.2
			s3.9-0.2,5.9-0.2l0,2.3c-1.9,0.1-3.8,0.2-5.6,0.4s-3.5,0.2-5,0.3L708.9,112.4z M709,105.7l1.4-1.9c0.5,0.5,1.1,1,1.7,1.5
			c0.6,0.6,1.1,1.1,1.6,1.7c0.5,0.5,0.8,1,1.1,1.5l-1.5,2.2c-0.3-0.5-0.6-1-1.1-1.6c-0.5-0.6-1-1.2-1.5-1.8
			C710.1,106.7,709.5,106.2,709,105.7z M713.7,99l2.5,0.9c-0.4,0.7-0.8,1.5-1.3,2.3c-0.4,0.8-0.9,1.6-1.3,2.3s-0.9,1.4-1.3,1.9
			l-1.9-0.8c0.4-0.6,0.8-1.3,1.2-2.1c0.4-0.8,0.8-1.6,1.1-2.4S713.5,99.7,713.7,99z M717.3,102.5l2.5,1c-0.7,1.1-1.5,2.4-2.4,3.6
			c-0.9,1.3-1.7,2.5-2.6,3.7s-1.7,2.2-2.5,3l-1.8-0.9c0.6-0.7,1.2-1.5,1.8-2.3c0.6-0.9,1.2-1.8,1.8-2.7c0.6-0.9,1.2-1.9,1.7-2.8
			C716.5,104.2,716.9,103.3,717.3,102.5z M714,113.6h2.5v13.5H714V113.6z M716.5,109.6l2.1-0.9c0.4,0.6,0.8,1.3,1.2,2.1
			c0.4,0.8,0.7,1.5,1,2.2s0.5,1.4,0.7,1.9l-2.2,1c-0.1-0.6-0.4-1.2-0.7-2c-0.3-0.7-0.6-1.5-1-2.3C717.3,111,716.9,110.3,716.5,109.6
			z M717.1,117l2.1-0.7c0.4,0.9,0.8,1.9,1.2,3s0.7,2,0.8,2.8l-2.3,0.8c-0.1-0.8-0.4-1.7-0.7-2.8C717.9,118.9,717.5,117.9,717.1,117z
			 M724.5,98.9l2.9,0.7c-0.4,1.5-0.9,2.9-1.5,4.3c-0.6,1.4-1.3,2.7-2,4c-0.7,1.2-1.4,2.3-2.2,3.2c-0.2-0.2-0.4-0.4-0.7-0.6
			c-0.3-0.2-0.6-0.4-1-0.7s-0.6-0.4-0.8-0.5c0.8-0.8,1.5-1.8,2.2-2.9c0.7-1.1,1.3-2.3,1.8-3.6C723.7,101.6,724.1,100.3,724.5,98.9z
			 M723.2,112.2l2.3-1.1c0.6,0.7,1.1,1.5,1.7,2.3c0.5,0.8,1,1.6,1.5,2.4s0.8,1.5,1,2.2l-2.5,1.3c-0.2-0.6-0.5-1.4-0.9-2.2
			c-0.4-0.8-0.9-1.7-1.4-2.5C724.3,113.8,723.8,113,723.2,112.2z M723.8,104.3H735v2.7h-11.3V104.3z M733.8,104.3h2.8
			c0,0.4,0,0.7,0,0.9c0,0.2,0,0.4,0,0.5c-0.1,3.4-0.2,6.2-0.4,8.6s-0.3,4.3-0.4,5.8c-0.2,1.5-0.4,2.7-0.6,3.6
			c-0.2,0.9-0.5,1.5-0.8,1.9c-0.4,0.5-0.8,0.8-1.2,1c-0.4,0.2-0.9,0.3-1.5,0.4c-0.5,0.1-1.2,0.1-2.1,0.1s-1.8,0-2.7-0.1
			c0-0.4-0.1-0.9-0.3-1.5c-0.2-0.5-0.4-1-0.7-1.4c1,0.1,1.9,0.1,2.7,0.2c0.8,0,1.4,0,1.8,0c0.3,0,0.6,0,0.8-0.1
			c0.2-0.1,0.4-0.2,0.5-0.4c0.3-0.3,0.5-0.8,0.7-1.6s0.4-2,0.5-3.4c0.2-1.5,0.3-3.4,0.4-5.6c0.1-2.3,0.2-5,0.3-8.2V104.3z"/>
		<path d="M749.1,115.2h3.1c-0.1,1.4-0.4,2.8-0.7,4c-0.3,1.2-0.9,2.3-1.6,3.3c-0.7,1-1.6,1.9-2.9,2.6s-2.8,1.4-4.7,1.9
			c-0.1-0.2-0.2-0.5-0.4-0.8s-0.4-0.6-0.6-0.9c-0.2-0.3-0.4-0.5-0.6-0.7c1.7-0.4,3.1-0.9,4.2-1.5c1.1-0.6,1.9-1.3,2.5-2.1
			c0.6-0.8,1-1.7,1.2-2.6C748.8,117.4,749,116.3,749.1,115.2z M741.4,113.2h27v2.7h-27V113.2z M742.1,102.1h25.7v6.8h-3v-4.1H745
			v4.1h-2.9V102.1z M746.8,107.7h16.1v2.6h-16.1V107.7z M753.3,99h3.1v5.1h-3.1V99z M756.8,114.9h2.9v8c0,0.5,0.1,0.8,0.2,0.9
			c0.2,0.1,0.5,0.2,1.1,0.2c0.1,0,0.4,0,0.7,0s0.7,0,1.1,0c0.4,0,0.8,0,1.1,0s0.6,0,0.8,0c0.4,0,0.6-0.1,0.8-0.3
			c0.2-0.2,0.3-0.5,0.4-1.1c0.1-0.6,0.1-1.4,0.2-2.5c0.2,0.1,0.5,0.3,0.8,0.4c0.3,0.1,0.6,0.3,1,0.4s0.6,0.2,0.9,0.3
			c-0.1,1.4-0.3,2.5-0.5,3.3c-0.3,0.8-0.6,1.3-1.1,1.6c-0.5,0.3-1.2,0.5-2.1,0.5c-0.2,0-0.4,0-0.8,0c-0.4,0-0.8,0-1.3,0
			c-0.5,0-0.9,0-1.3,0c-0.4,0-0.7,0-0.8,0c-1,0-1.8-0.1-2.4-0.3s-1-0.6-1.2-1.1c-0.2-0.5-0.3-1.3-0.3-2.2V114.9z"/>
		<path d="M774.5,101.2h21.5v2.8h-21.5V101.2z M785.2,109.3h3v14.3c0,0.9-0.1,1.5-0.4,2c-0.3,0.5-0.7,0.8-1.4,1
			c-0.7,0.2-1.5,0.4-2.6,0.4c-1,0-2.3,0.1-3.8,0.1c-0.1-0.4-0.2-0.9-0.5-1.5c-0.2-0.6-0.5-1-0.7-1.5c0.8,0,1.6,0.1,2.3,0.1
			c0.8,0,1.4,0,2,0c0.6,0,1,0,1.2,0c0.3,0,0.5,0,0.7-0.2c0.1-0.1,0.2-0.3,0.2-0.5V109.3z M795,101.2h0.8l0.7-0.2l2.2,1.7
			c-0.9,1.1-1.9,2.2-3.1,3.3c-1.2,1.1-2.4,2.2-3.7,3.2s-2.5,1.9-3.8,2.6c-0.1-0.2-0.3-0.5-0.6-0.7c-0.2-0.2-0.5-0.5-0.7-0.7
			s-0.5-0.4-0.7-0.6c0.8-0.5,1.7-1.1,2.5-1.7c0.9-0.6,1.7-1.3,2.5-2.1c0.8-0.7,1.5-1.4,2.2-2.1c0.7-0.7,1.2-1.4,1.6-2V101.2z"/>
	</g>
	<path d="M270.9,58.1h-16.5v-4.4h16.5V58.1z M237.9,58.1h-16.5v-4.4h16.5V58.1z M204.9,58.1h-16.5v-4.4h16.5V58.1z M171.9,58.1
		h-16.5v-4.4h16.5V58.1z M138.9,58.1h-16.5v-4.4h16.5V58.1z"/>
	<path d="M485.3,58.1h-16.5v-4.4h16.5V58.1z M452.3,58.1h-16.5v-4.4h16.5V58.1z M419.3,58.1h-16.5v-4.4h16.5V58.1z M386.3,58.1
		h-16.5v-4.4h16.5V58.1z M353.3,58.1h-16.5v-4.4h16.5V58.1z"/>
	<path d="M699.4,58.1h-16.5v-4.4h16.5V58.1z M666.4,58.1h-16.5v-4.4h16.5V58.1z M633.4,58.1h-16.5v-4.4h16.5V58.1z M600.4,58.1
		h-16.5v-4.4h16.5V58.1z M567.4,58.1h-16.5v-4.4h16.5V58.1z"/>
	<g>
		<g>
			<path d="M319.4,65.2v2.6h-17.8c0.2-4.9,2.9-7,7.3-9.9c5.9-4,7.3-4.9,7.3-7.7c0-3.1-2.8-4.3-5.3-4.3c-5.6,0-5.8,4.9-5.9,6.6H302
				c0.2-5.9,3.5-9.2,9-9.2c4.7,0,8.3,2.5,8.3,7c0,3.1-1.3,5.1-6.3,8.2c-5.6,3.5-6.7,4.7-7.4,6.7H319.4z"/>
		</g>
		<path d="M310.5,84.3c-15.7,0-28.4-12.7-28.4-28.4s12.7-28.4,28.4-28.4s28.4,12.7,28.4,28.4S326.1,84.3,310.5,84.3z M310.5,31.9
			c-13.2,0-24,10.8-24,24s10.8,24,24,24s24-10.8,24-24S323.7,31.9,310.5,31.9z"/>
	</g>
	<g>
		<g>
			<path d="M519,59.9c0.1,1.8,0.5,5.9,5.7,5.9c4.4,0,5.9-2.4,5.9-4.9c0-3.9-3.4-4.7-5.2-4.7H523V54h2.1c3.3,0,5.1-1.7,5.1-4.1
				c0-2.5-2.1-4-5.1-4c-5,0-5.4,3.6-5.5,5.1h-3.1c0.2-1.5,0.8-7.8,8.8-7.8c4.6,0,7.9,2.5,7.9,6.3c0,4.2-3.3,5.1-4.3,5.4
				c3.1,0.7,4.7,3,4.7,5.9c0,3.2-1.8,7.6-8.7,7.6c-2.8,0-8.5-0.4-9-8.5H519z"/>
		</g>
		<path d="M524.7,84.3c-15.7,0-28.4-12.7-28.4-28.4s12.7-28.4,28.4-28.4s28.4,12.7,28.4,28.4S540.4,84.3,524.7,84.3z M524.7,31.9
			c-13.2,0-24,10.8-24,24s10.8,24,24,24s24-10.8,24-24S538,31.9,524.7,31.9z"/>
	</g>
	<g>
		<g>
			<circle cx="96.2" cy="55.9" r="26.2"/>
			<path d="M96.2,84.3c-15.7,0-28.4-12.7-28.4-28.4s12.7-28.4,28.4-28.4c15.7,0,28.4,12.7,28.4,28.4S111.9,84.3,96.2,84.3z
				 M96.2,31.9c-13.2,0-24,10.8-24,24s10.8,24,24,24c13.2,0,24-10.8,24-24S109.4,31.9,96.2,31.9z"/>
		</g>
		<g>
			<path class="st1" d="M98.6,67.8h-3V50.7h-4.9v-2.3c2.5-0.1,4.7-0.7,5.5-4.5h2.4V67.8z"/>
		</g>
	</g>
	<g>
		<g>
			<path d="M744.3,59.6h3.8v2.6h-3.8v5.6h-3v-5.6h-11.5v-2.8l11.4-15.4h3V59.6z M741.4,59.6V47.9l-8.7,11.7H741.4z"/>
		</g>
		<path d="M739,84.3c-15.7,0-28.4-12.7-28.4-28.4s12.7-28.4,28.4-28.4s28.4,12.7,28.4,28.4S754.7,84.3,739,84.3z M739,31.9
			c-13.2,0-24,10.8-24,24s10.8,24,24,24s24-10.8,24-24S752.2,31.9,739,31.9z"/>
	</g>
</g>
</svg>
