<?xml version="1.0" encoding="utf-8"?>
<!-- Generator: Adobe Illustrator 27.4.1, SVG Export Plug-In . SVG Version: 6.00 Build 0)  -->
<svg version="1.1" id="レイヤー_1" xmlns="http://www.w3.org/2000/svg" xmlns:xlink="http://www.w3.org/1999/xlink" x="0px"
	 y="0px" viewBox="0 0 638.6 265.5" style="enable-background:new 0 0 638.6 265.5;" xml:space="preserve">
<style type="text/css">
	.st0{fill:#CCF2F9;}
	.st1{fill:#FCEACC;}
	.st2{fill:#E6E6E6;}
	.st3{fill:#59C2E1;}
	.st4{opacity:0.15;}
	.st5{fill:#796A56;}
	.st6{fill:none;}
	.st7{fill:#9CDBED;}
	.st8{fill:#FFFFFF;}
	.st9{fill:#F29600;}
	.st10{fill:#C69C6D;}
	.st11{fill:#A67C52;}
	.st12{fill:#DDC4A7;}
	.st13{fill:#8C6239;}
	.st14{fill:#A38161;}
	.st15{fill:#F2F2F2;}
	.st16{fill:#B3B3B3;}
	.st17{fill:#D88C8C;}
	.st18{fill:#FFF057;}
	.st19{opacity:5.000000e-02;}
	.st20{fill:#D9E021;}
	.st21{fill:#9BDAED;}
	.st22{fill:#CCCCCC;}
	.st23{fill:#00BDE1;}
</style>
<g>
	<circle class="st0" cx="492.6" cy="138.5" r="127"/>
	<circle class="st1" cx="146" cy="138.5" r="127"/>
	<g>
		<path class="st2" d="M124.5,226.2c-0.9-0.1-0.8,4-0.8,4c0.6,0.2,1.2,0.3,1.9,0.4C124.6,228.4,125.4,226.3,124.5,226.2z"/>
		<path class="st2" d="M157.4,226.5c-0.9-0.1-0.8,4-0.8,4l0,0.2c0.6,0.1,1.3,0.2,1.9,0.3c0,0,0-0.1,0-0.1
			C157.5,228.7,158.3,226.6,157.4,226.5z"/>
		<path class="st2" d="M130.2,226.2c-0.4,0-0.7,0.2-0.7,1.6c0,1.4-0.3,2.9-0.3,3c0.5-0.1,1.1-0.1,1.7-0.3
			C130.9,227.6,130.6,226.2,130.2,226.2z"/>
		<path class="st2" d="M163.1,226.5c-0.4,0-0.7,0.2-0.7,1.6c0,1.2-0.2,2.6-0.2,2.9c0.5-0.1,1.1-0.2,1.7-0.3
			C163.8,227.9,163.5,226.5,163.1,226.5z"/>
		<path class="st3" d="M198.6,167.7c-5.1-3.4-7.5-5.8-10.7-10.1c0,0-9.3-12.2-20-17.9c-3.4,6.5-15,27.5-21.7,25.8
			c-6.3-1.6-15.3-18.4-18.7-25c-4.1,1.2-10.3,3.3-17.6,7.1c0,0-7.9-10.2-9.6-11.7c-1.7-1.5-3.4-2.2-6.9-1.9c-3.5,0.2-7,4.4-4.7,10.2
			c2.3,5.8,6.7,12,9.8,15.6s4.3,5.4,10.5,5.2c6.2-0.1,6.8-0.3,6.8-0.3s-3.8,17.1-1.5,35.6c2.2,18.5,4.9,27.6,4.9,27.6
			s1.6,1.5,4.4,2.3c0,0-0.2-4.1,0.8-4c0.9,0.1,0.1,2.2,1.1,4.5c1.1,0.2,2.3,0.2,3.6,0.1c0,0,0.2-1.6,0.3-3c0-1.4,0.3-1.6,0.7-1.6
			c0.4,0,0.7,1.4,0.7,4.3c1.4-0.3,2.8-0.8,4.4-1.5c0,0,0.6-19.7,3.7-29.6c0,0,4.1,0.7,10.7,0.2c0,0,1.9,2.8,1.6,29.3
			c0,0,2,1.3,5.3,1.9l0-0.2c0,0-0.2-4.1,0.8-4c0.9,0.1,0.1,2.2,1.1,4.5c0,0,0,0.1,0,0.1c1.1,0.1,2.3,0.1,3.5-0.1
			c0-0.3,0.2-1.7,0.2-2.9c0-1.4,0.3-1.6,0.7-1.6c0.4,0,0.7,1.4,0.7,4.2c1.4-0.3,2.9-0.8,4.4-1.5c0,0,11.2-32.6,7.8-61.8
			c0,0,7.9,8.8,10.4,11.3c2.5,2.4,9.5,5.7,13.7,1.8C204.3,176.5,203.7,171,198.6,167.7z"/>
		<path class="st3" d="M146.2,165.5c6.7,1.7,18.2-19.2,21.7-25.8c-2.1-1.1-4.2-2-6.3-2.5c-13.1-3-28.1,1.9-28.1,1.9
			s-2.1,0.3-5.9,1.4C130.9,147.1,139.9,163.9,146.2,165.5z"/>
		<path class="st4" d="M146.2,165.5c6.7,1.7,18.2-19.2,21.7-25.8c-2.1-1.1-4.2-2-6.3-2.5c-13.1-3-28.1,1.9-28.1,1.9
			s-2.1,0.3-5.9,1.4C130.9,147.1,139.9,163.9,146.2,165.5z"/>
		<g>
			<g>
				<g>
					<path class="st3" d="M190.3,95.6C190.3,95.6,190.3,95.6,190.3,95.6c-0.8-1.1,0.6-2.1,0.6-2.1l0,0c3.2-2.2,5.3-5.7,5.5-9.8
						c0.2-6.9-5.4-12.7-12.5-13c-6.4-0.2-11.8,4-13.1,9.8l0,0c0,0-0.4,1.4-1.8,0.9c0,0,0,0,0,0c-6.1-2.1-12.8-3.4-20-3.6
						c-7.2-0.3-14,0.6-20.2,2.2c0,0,0,0,0,0c-1.4,0.4-1.7-1.1-1.7-1.1l0,0c-0.9-5.9-6-10.5-12.4-10.7c-7.2-0.3-13.2,5.2-13.4,12.1
						c-0.1,4.1,1.7,7.8,4.8,10.2l0,0c0,0,1.4,1.1,0.5,2.1c0,0,0,0,0,0c-4.2,4.6-6.7,10-6.9,15.9c-0.6,17.9,20.5,33.2,47.2,34.1
						c26.7,0.9,48.8-12.8,49.4-30.7C196.3,106.1,194.2,100.5,190.3,95.6z"/>
					<g>
						<circle class="st5" cx="134.5" cy="101.1" r="3.9"/>
						<circle class="st5" cx="161.7" cy="102.1" r="3.9"/>
					</g>
					<g>
						<path class="st6" d="M122,81.1C122,81.1,122,81.1,122,81.1C122,81.1,122,81.1,122,81.1z"/>
						<path class="st7" d="M122,81.2C122,81.1,122,81.1,122,81.2c0.1-4.2-3.2-7.6-7.6-7.8c-4.3-0.2-8,3.1-8.1,7.2
							c-0.1,2.9,1.6,5.5,4.1,6.8c0.3,0.1,1.4,0.5,2.9-0.4c0,0,0,0,0.1,0c2.3-1.5,4.8-2.9,7.5-4.1c0,0,0,0,0,0
							C121.8,82.3,121.9,81.4,122,81.2z"/>
					</g>
					<g>
						<path class="st6" d="M175.6,83C175.6,83,175.6,83,175.6,83C175.6,83,175.6,83,175.6,83z"/>
						<path class="st7" d="M175.6,83C175.6,83,175.6,83,175.6,83c0.1-4.2,3.8-7.4,8.1-7.2c4.3,0.2,7.7,3.6,7.6,7.7
							c-0.1,2.9-1.9,5.3-4.5,6.5c-0.3,0.1-1.5,0.4-2.8-0.6c0,0,0,0-0.1,0c-2.2-1.7-4.6-3.2-7.2-4.6c0,0,0,0,0,0
							C175.7,84.2,175.6,83.3,175.6,83z"/>
					</g>
					<path class="st8" d="M163,120.5c0.2-4.9-1.7-7.5-5.8-11.2c-4.1-3.7-5.3-9.7-5.8-12.5c0,0-0.4-2.7-3-2.8
						c-2.6-0.1-3.2,2.6-3.2,2.6c-0.7,2.8-2.3,8.7-6.7,12.1c-4.3,3.4-6.4,5.9-6.6,10.8c0,0-0.4,5.1,4,8.8c4.4,3.7,7,2.6,8.1,1.3
						l1.4-1.6c0,0,1-1.3,1.9-1.2c0.9,0,1.8,1.4,1.8,1.4l1.2,1.6c1,1.4,3.5,2.7,8.1-0.7C163.1,125.6,163,120.5,163,120.5z"/>
					<path class="st9" d="M153.9,111.8c-1.2-0.3-4.1-0.5-5.4-0.5v0l-1.6-0.1l0,0c-1.4,0-4.1-0.1-5.2,0.1c-1.6,0.3-2.7,1.7-1.4,3.9
						c1.3,2.2,5,8.2,7.2,8.2s6.3-5.6,7.7-7.7C156.5,113.7,155.4,112.2,153.9,111.8z"/>
				</g>
			</g>
		</g>
		<g>
			<path class="st10" d="M170.2,140.3c0,0-1-0.3-2.6-0.7L146,163.6l-17-24.3c-1.3,0.2-2.6,0.5-3.9,0.7c0,0-8.4,15-10.7,33.2
				c0,0,9.2,12,20.2,20.6l11.7-9.3l8.6,9.7c0,0,10-7.1,22.7-17.5C177.6,176.8,175.4,155.1,170.2,140.3z"/>
		</g>
		<circle class="st11" cx="148.1" cy="169.9" r="1.9"/>
		<circle class="st11" cx="149.7" cy="179" r="1.9"/>
		<path class="st12" d="M154.9,194.7c-0.1,0-0.3-0.1-0.4-0.2l-10.4-11.8c-0.1-0.1-0.1-0.2-0.1-0.3l-1.1-15.7c0-0.1,0-0.3,0.1-0.3
			l24.2-27.1c0.2-0.2,0.5-0.2,0.7,0c0.2,0.2,0.2,0.5,0,0.7l-24.1,27l1.1,15.4l10.3,11.7c0.2,0.2,0.2,0.5,0,0.7
			C155.2,194.7,155,194.7,154.9,194.7z"/>
		<g>
			<path class="st13" d="M157.8,142.2c-4.7,0.1-8.8,1.7-8.8,1.7c-0.1,0-0.2,0-0.3,0.1c-0.3-0.7-1.1-1-2.2-1.1c0,0-1.7-0.2-2.6,0.4
				c-1.3-0.6-4.7-2.1-7.1-2.7c-3.1-0.7-6.4-1.4-8.1,0.3c-1.7,1.7-2,6.8-0.4,12.1c1.6,5.3,4.5,7.1,6.7,7.1c2.2,0,4.7-3.9,6.1-6.3
				c1.1-1.9,2.1-2.9,2.7-4.6c0.6,0.7,1.5,0.8,2.2,0.8c0.4,0,0.8,0,1.3-0.3c0.2,1.2,0.7,2.6,1.7,4.6c1.8,3.6,4.6,7.9,7.9,7.9
				c3.4,0,4.2-4.7,5.5-7.8c1.2-3.2,3.1-4.9,3.1-8.6C165.6,142.2,162.5,142.1,157.8,142.2z"/>
			<path class="st14" d="M156.9,162.7c-2.9,0-5.7-2.7-8.4-8.2c-0.9-1.7-1.4-3.1-1.6-4.2c-0.3,0.1-0.6,0.1-0.9,0.1
				c-0.6,0-1.4-0.1-2-0.5c-0.4,0.9-0.9,1.6-1.4,2.4c-0.3,0.5-0.7,1-1.1,1.7c-1.9,3.2-4.2,6.6-6.5,6.6c-2.4,0-5.6-2-7.2-7.4
				c-1.6-5.4-1.4-10.7,0.5-12.6c1.9-1.9,5.2-1.1,8.4-0.4l0.1,0c2.4,0.5,5.5,1.9,7,2.6c1-0.6,2.5-0.4,2.7-0.4c0.9,0.1,1.9,0.2,2.4,1
				c0.8-0.3,4.5-1.6,8.8-1.7c3.5-0.1,5.9,0,7.2,1.3c0.7,0.7,1,1.6,1,2.8c0,2.6-0.9,4.2-1.9,6c-0.5,0.8-0.9,1.7-1.3,2.8
				c-0.2,0.5-0.4,1.1-0.6,1.7C161.2,159.3,160,162.7,156.9,162.7z M147.7,148.9l0.1,0.7c0.2,1.2,0.7,2.5,1.6,4.5
				c1.7,3.5,4.4,7.6,7.5,7.6c2.4,0,3.4-2.9,4.4-5.8c0.2-0.6,0.4-1.2,0.6-1.8c0.4-1.1,0.9-2,1.4-2.9c0.9-1.7,1.7-3.2,1.7-5.5
				c0-1-0.2-1.7-0.7-2.1c-1-1-3.4-1.1-6.5-1l0-0.5l0,0.5c-4.6,0.1-8.6,1.6-8.7,1.7l-0.3,0.1l-0.4,0.1l-0.2-0.3
				c-0.2-0.5-0.8-0.7-1.8-0.8c-0.4,0-1.7-0.1-2.2,0.4l-0.2,0.2l-0.3-0.1c-1.3-0.6-4.6-2.1-7-2.6l-0.1,0c-3-0.6-6-1.3-7.6,0.2
				c-1.6,1.6-1.7,6.6-0.3,11.6c1.5,5,4.2,6.7,6.3,6.7c2.1,0,4.7-4.4,5.7-6.1c0.4-0.7,0.8-1.2,1.1-1.7c0.7-1,1.2-1.7,1.6-2.8l0.3-0.8
				l0.5,0.6c0.5,0.6,1.2,0.6,1.9,0.6c0.4,0,0.7,0,1-0.2L147.7,148.9z"/>
		</g>
		<path class="st14" d="M146.3,150.5c-0.1,0-0.2,0-0.3,0c0,0-1.3,0.1-2.2-1c-0.7-0.8-1-2.1-0.7-3.8c-0.1-0.4-0.3-1.5,0.3-2.4
			c0.3-0.5,0.8-0.8,1.4-0.9c1.3-0.2,3.2-0.1,4,0.8c0.3,0.3,0.6,0.9,0.4,1.7c-0.1,0.4-0.1,0.8-0.2,1.3
			C148.8,147.9,148.5,150.5,146.3,150.5z M146,149.5c1.5,0.1,1.8-1.3,2.1-3.4c0.1-0.5,0.1-1,0.2-1.4c0.1-0.5,0-0.7-0.2-0.8
			c-0.5-0.5-1.8-0.7-3.2-0.5c-0.3,0.1-0.6,0.2-0.7,0.4c-0.3,0.5-0.2,1.4-0.1,1.7l0,0.1l0,0.1c-0.3,1.4-0.1,2.5,0.4,3.1
			C145.1,149.5,146,149.5,146,149.5z"/>
		<path class="st14" d="M137.5,150.9c-0.7,0-1.4-0.3-1.8-1c-0.5-0.7-0.5-2,0.8-3.3c2.2-2.2,7-1.5,7.3-1.5c0.3,0,0.4,0.3,0.4,0.5
			c0,0.3-0.3,0.4-0.5,0.4c0,0-4.6-0.7-6.4,1.2c-0.8,0.8-1,1.5-0.6,2.1c0.3,0.5,0.9,0.7,1.6,0.4c1.5-0.6,2.5-2.1,2.5-2.1
			c0.1-0.2,0.4-0.3,0.7-0.2c0.2,0.1,0.3,0.4,0.2,0.7c0,0.1-1.1,1.9-3,2.5C138,150.8,137.8,150.9,137.5,150.9z"/>
		<path class="st14" d="M154.1,152.5c-0.4,0-0.9-0.1-1.3-0.4c-1.7-1-2.4-3-2.5-3.1c-0.1-0.2,0-0.5,0.3-0.6c0.2-0.1,0.5,0,0.6,0.3
			c0,0,0.6,1.7,2.1,2.6c0.6,0.3,1.2,0.3,1.6-0.1c0.5-0.5,0.4-1.3-0.2-2.2c-1.5-2.2-6-2.4-6.1-2.4c-0.3,0-0.5-0.2-0.5-0.5
			c0-0.3,0.3-0.4,0.5-0.5c0.2,0,5.1,0.2,6.8,2.8c1,1.5,0.7,2.7,0.1,3.4C155.3,152.3,154.7,152.5,154.1,152.5z"/>
		<g>
			<path class="st15" d="M82.8,132.2c0,0,1.2-11.3,1.2-12.9c0-1.6,0.2-2.3-2.2-3.2c-2.4-0.9-4.2-4.3-3.5-9.6
				c0.7-5.3,3.5-9.1,3.5-9.1s5.4,1.9,10.1,1c0,0,1.9,4.5,1.4,9.7c-0.5,5.2-2.5,7.7-5.1,8.5c0,0-1.8,0-2.1,2.8s-1,12.5-1,12.5
				S84,133.5,82.8,132.2z"/>
			<path class="st16" d="M83.8,133.2c-0.5,0-1-0.2-1.4-0.7c-0.1-0.1-0.2-0.2-0.1-0.4c0-0.1,1.2-11.3,1.2-12.8l0-0.3
				c0-1.3,0-1.7-1.9-2.4c-2.4-0.9-4.5-4.4-3.8-10.1c0.7-5.3,3.4-9.1,3.6-9.3c0.1-0.2,0.3-0.2,0.5-0.2c0.1,0,5.4,1.8,9.9,1
				c0.2,0,0.4,0.1,0.5,0.3c0.1,0.2,1.9,4.7,1.5,9.9c-0.6,6.2-3.2,8.3-5.4,8.9c0,0-0.1,0-0.1,0c0,0-1.4,0.1-1.6,2.4
				c-0.2,2.8-1,12.5-1,12.5c0,0.1,0,0.2-0.1,0.3c-0.1,0.1-0.7,0.8-1.5,0.9C83.9,133.2,83.9,133.2,83.8,133.2z M83.3,132
				c0.2,0.2,0.4,0.2,0.6,0.2c0.3,0,0.6-0.3,0.8-0.4c0.1-1.3,0.8-9.7,1-12.3c0.2-2.9,2-3.2,2.4-3.3c2.6-0.8,4.3-3.5,4.7-8
				c0.4-4.2-0.8-8-1.3-9.1c-4,0.6-8.4-0.6-9.6-1c-0.6,1-2.6,4.3-3.2,8.6c-0.7,5.2,1.1,8.3,3.2,9c2.4,0.9,2.5,1.8,2.5,3.3l0,0.3
				C84.4,120.8,83.4,130.3,83.3,132z"/>
		</g>
		<path class="st17" d="M79.8,106.9l11.4,1.1c0,0,0,7.8-6.4,7.3C78.4,114.7,79.8,106.9,79.8,106.9z"/>
		<g>
			<path class="st15" d="M102.4,134.5c0,0,0.6-11.3,0.5-12.9c-0.1-1.6,0-2.3-2.4-3s-4.4-4-4-9.4c0.4-5.3,3-9.3,3-9.3
				s5.5,1.6,10.1,0.5c0,0,2.1,4.4,1.9,9.6c-0.2,5.2-2.1,7.9-4.6,8.7c0,0-1.8,0.1-1.9,2.9s-0.4,12.5-0.4,12.5
				S103.7,135.7,102.4,134.5z"/>
			<path class="st16" d="M103.5,135.4c-0.5,0-0.9-0.2-1.4-0.6c-0.1-0.1-0.2-0.2-0.2-0.4c0-0.1,0.6-11.3,0.5-12.9l0-0.3
				c-0.1-1.3-0.1-1.7-2-2.3c-2.5-0.8-4.8-4.1-4.3-9.9c0.4-5.4,3-9.3,3.1-9.5c0.1-0.2,0.3-0.3,0.5-0.2c0.1,0,5.5,1.6,9.9,0.5
				c0.2-0.1,0.4,0.1,0.5,0.3c0.1,0.2,2.2,4.6,2,9.9c-0.2,6.3-2.8,8.4-4.9,9.1c0,0-0.1,0-0.1,0c0,0-1.4,0.1-1.5,2.5
				c-0.1,2.9-0.4,12.5-0.4,12.5c0,0.1,0,0.2-0.1,0.3c-0.1,0.1-0.6,0.8-1.5,0.9C103.6,135.4,103.5,135.4,103.5,135.4z M102.9,134.3
				c0.2,0.2,0.4,0.2,0.7,0.2c0.3,0,0.6-0.3,0.8-0.4c0-1.3,0.3-9.7,0.4-12.4c0.1-2.9,1.8-3.3,2.3-3.4c2.6-0.9,4.1-3.8,4.2-8.3
				c0.2-4.2-1.3-7.9-1.7-9.1c-4,0.8-8.4-0.2-9.7-0.5c-0.6,1-2.4,4.4-2.7,8.7c-0.4,5.2,1.5,8.2,3.6,8.9c2.5,0.8,2.6,1.6,2.7,3.2
				l0,0.3C103.5,123,103,132.6,102.9,134.3z"/>
		</g>
		<path class="st17" d="M98.2,109.3l11.4,0.5c0,0,0.4,7.8-6,7.6S98.2,109.3,98.2,109.3z"/>
		<g>
			<path class="st15" d="M92.9,136c0,0,0.6-11.1,0.5-12.7c-0.1-1.5,0-2.2-2.3-3s-4.3-4-3.9-9.2c0.4-5.2,2.9-9.1,2.9-9.1
				s5.4,1.6,9.9,0.5c0,0,2.1,4.3,1.9,9.4c-0.2,5.1-2.1,7.7-4.5,8.5c0,0-1.8,0.1-1.9,2.9c-0.1,2.8-0.4,12.3-0.4,12.3
				S94.2,137.2,92.9,136z"/>
			<path class="st16" d="M93.9,137c-0.5,0-0.9-0.2-1.3-0.6c-0.1-0.1-0.2-0.2-0.2-0.4c0-0.1,0.6-11.1,0.5-12.6l0-0.3
				c-0.1-1.3-0.1-1.7-2-2.3c-2.4-0.8-4.7-4-4.2-9.7c0.4-5.3,2.9-9.1,3-9.3c0.1-0.2,0.3-0.3,0.5-0.2c0.1,0,5.4,1.5,9.7,0.5
				c0.2-0.1,0.4,0.1,0.5,0.3c0.1,0.2,2.1,4.5,1.9,9.7c-0.2,6.1-2.8,8.3-4.8,9c0,0-0.1,0-0.1,0c0,0-1.3,0.1-1.4,2.4
				c-0.1,2.8-0.4,12.3-0.4,12.3c0,0.1,0,0.2-0.1,0.3c-0.1,0.1-0.6,0.8-1.5,0.9C94,137,94,137,93.9,137z M93.4,135.8
				c0.2,0.2,0.4,0.2,0.6,0.2c0.3,0,0.6-0.3,0.7-0.4c0-1.3,0.3-9.5,0.4-12.1c0.1-2.8,1.8-3.3,2.2-3.3c2.5-0.9,4-3.7,4.2-8.1
				c0.2-4.1-1.2-7.8-1.7-8.9c-3.9,0.8-8.2-0.2-9.4-0.5c-0.6,1-2.3,4.3-2.7,8.6c-0.4,5.1,1.5,8,3.6,8.7c2.4,0.7,2.6,1.6,2.6,3.1
				l0,0.3C93.9,124.8,93.5,134.2,93.4,135.8z"/>
		</g>
		<path class="st17" d="M88.7,111.4l11.2,0.5c0,0,0.4,7.7-5.9,7.4C87.7,119.1,88.7,111.4,88.7,111.4z"/>
		<g>
			<path class="st15" d="M118.6,131.7l-3.1,7.2c0,0-8.1,2.1-21.6,1S73.2,136,73.2,136l-2.4-7.2c0,0,10.9,2.8,24.2,3.6
				S118.6,131.7,118.6,131.7z"/>
			<path class="st16" d="M101.3,140.7c-2.2,0-4.7-0.1-7.4-0.3c-13.3-1-20.8-4-20.9-4c-0.1-0.1-0.2-0.2-0.3-0.3l-2.4-7.2
				c-0.1-0.2,0-0.3,0.1-0.5c0.1-0.1,0.3-0.2,0.5-0.1c0.1,0,11,2.8,24.1,3.5c13.1,0.7,23.4-0.6,23.5-0.6c0.2,0,0.3,0,0.4,0.2
				c0.1,0.1,0.1,0.3,0.1,0.5l-3.1,7.2c-0.1,0.1-0.2,0.2-0.3,0.3C115.6,139.4,110.3,140.7,101.3,140.7z M73.6,135.6
				c1.3,0.5,8.5,2.9,20.4,3.8c12,0.9,19.8-0.6,21.2-1l2.7-6.2c-2.7,0.3-11.8,1.1-22.9,0.5c-11.1-0.6-20.6-2.7-23.4-3.4L73.6,135.6z"
				/>
		</g>
	</g>
	<g>
		<path class="st18" d="M431.7,221.9c0,0,16.5-4.2,35,2.2c18.5,6.4,40.4,18.2,53,21.5c0,0,35.5-20.2,68.5-42.4
			c0,0-26.9-0.7-47.6-9.6c-20.7-8.9-32.3-9.1-48.1-9.1C492.6,184.4,465.9,196.3,431.7,221.9z"/>
		<g>
			<path class="st3" d="M509.9,83.9c-2.6-2.9-5.3-5.1-8.1-6.9c0.9-1.7,1.5-3.7,1.5-5.9c0-6.8-5.5-12.4-12.4-12.4
				c-6.8,0-12.4,5.5-12.4,12.4c0,0.2,0,0.4,0,0.7c-14.2,1.1-26.2,8.2-27.8,9.1c-1.6,0.8-11.7,6.9-18.1,16.6c-1-0.4-2.1-0.6-3.3-0.6
				c-5.1,0-9.1,4.2-9.1,9.3c0,4.4,3,8.1,7.1,9.1c0.2,3.7,1.2,7.7,3.4,11.9c13.5,26.1,51.4,10.9,51.4,10.9
				C487.8,138.2,532,108.7,509.9,83.9z"/>
			<g>
				<path class="st8" d="M453.5,96.7c0,0,2.9,8.4,2.1,17.3s5,11.8,7.8,10.1c2.9-1.7,3.6-3.4,3.4-5.1c-0.2-1.7,0.6-2.3,3.6-1.3
					s4,1.1,7.6-0.6s2.5-11.4-3.6-13.5c-6.1-2.1-13.5-5.1-16.4-8.6C455.2,91.5,452.3,92.3,453.5,96.7z"/>
				<path class="st9" d="M454.8,105.5l8-4.6c0,0,4.4-2.5,3.2,4s-2.3,7.8-4.2,7s-5.7-3.2-5.7-3.2S452.5,107,454.8,105.5z"/>
				<path class="st5" d="M468.2,92.9c0,0-2.1,1.1-2.6,2.5c-0.5,1.5,0.1,2.6,0.9,1.7c0.8-0.9,1.5-2.9,4.7-3.2
					c3.3-0.2,2.3-1.9,1.1-2.1C471.1,91.6,469.5,92.2,468.2,92.9z"/>
				<path class="st5" d="M446.1,108c0,0,0.9-0.8,1.5-1.8c0.5-0.9,0.9-1.1,2.8-1.2c1.9-0.1,1.7-1.6,0.2-1.8c-1.5-0.2-3.6,0.1-4.8,1.9
					C444.5,107,444.7,108.3,446.1,108z"/>
			</g>
			<path class="st3" d="M535.5,168.7c0,0,9.1-8.8,3.6-15.2c-5.5-6.3-12.8-1.1-12.8-1.1L535.5,168.7z"/>
			<path class="st19" d="M535.5,168.7c0,0,9.1-8.8,3.6-15.2c-5.5-6.3-12.8-1.1-12.8-1.1L535.5,168.7z"/>
			<path class="st3" d="M434,155c-10.5,2.3-14.5,5.7-13,12.4c1.5,6.7,7.4,7.4,18.5,5.1c3.2-0.7,6.4-1.8,9.5-3
				c-4.9-7-6.4-13.2-6.8-16.8C439.8,153.6,437.1,154.3,434,155z"/>
			<path class="st3" d="M558.1,188.7c0,0,0,0-12-10.5c-12-10.5-24.8-45.3-24.8-45.3s4.8-6.9,6.5-26.3c0.3-3,0.5-6.1,0.6-9
				c-3.8,1.3-12.5,3.4-20.2,0c-0.6,12.4-4.3,18.6-4.3,18.6s-37.9,13.9-45.3,23.8c-3.8,5.1-7.4,8.3-11.4,10.6
				c1.4,8.5,4.9,14.1,7,16.8c5.2-2.5,8.9-4.8,8.9-4.8c2.9,14.1,12,25,12,25l-5.7,29.5c9.5,9.5,20,4.2,20,4.2l5-27.1
				c15.2,2.5,26.5-11.1,26.5-11.1c8,12.4,26.3,22.9,26.3,22.9C560.6,201.1,558.1,188.7,558.1,188.7z"/>
			<path class="st3" d="M528.5,91.3c0.1-13-1.2-23.2-2.8-24.1c-2.3-1.3-3.6-0.4-3.6-0.4s-1-3.2-4-3.4c-3-0.2-4.2,1.9-4.2,1.9
				c-6.3-0.9-6.3,9.8-5.7,26C511.8,92.8,519.4,94.8,528.5,91.3z"/>
			<path class="st20" d="M442.3,152.7c0.4,3.7,1.8,9.8,6.8,16.8c1.8-0.7,3.5-1.5,5-2.2c-2.1-2.7-5.7-8.3-7-16.8
				C445.5,151.3,444,152.1,442.3,152.7z"/>
			<path class="st20" d="M528.4,97.6c0.1-2.1,0.1-4.3,0.2-6.3c-9.1,3.6-16.7,1.5-20.4,0c0,0.1,0,0.2,0,0.3c0.1,2.1,0.1,4.1,0,6
				C515.9,101,524.6,98.8,528.4,97.6z"/>
			<path class="st7" d="M493.9,65.4c-5.9-2.6-9.5,3.3-10.9,6.3c4.8,0.1,9.7,1,14.5,3.1C498.3,71.6,498.4,67.4,493.9,65.4z"/>
			<path class="st7" d="M425.5,103.3c-1.9,3.2,0.5,5.9,1.9,7.2c0.4-3.2,1.4-6.1,2.7-8.8C428.4,101.3,426.6,101.4,425.5,103.3z"/>
			<path class="st20" d="M478.4,71.8c-21.2,8-35.6,16.8-43.3,22.2c-2.2,2.7-4.3,5.9-5.7,9.3c20.2-15.9,48.5-27,60.1-31.1
				C485.7,71.6,482,71.5,478.4,71.8z"/>
			<path class="st21" d="M511.5,140.4c-0.2,0-0.4-0.1-0.5-0.4c-0.1-0.3,0.1-0.5,0.3-0.6c16-4,16.1-36.6,16.1-37
				c0-0.3,0.2-0.5,0.5-0.5c0,0,0,0,0,0c0.3,0,0.5,0.2,0.5,0.5c0,0.1,0,8.5-2,17.3c-2.7,11.8-7.8,18.9-14.8,20.6
				C511.5,140.4,511.5,140.4,511.5,140.4z"/>
			<path class="st21" d="M469.8,180c-0.2,0-0.3-0.1-0.4-0.2c-8.8-16.2-7.2-25.5-7.2-25.9c0-0.3,0.3-0.4,0.6-0.4
				c0.3,0,0.4,0.3,0.4,0.6c0,0.1-1.6,9.4,7.1,25.3c0.1,0.2,0,0.5-0.2,0.6C469.9,180,469.8,180,469.8,180z"/>
			<path class="st21" d="M490.1,193.8c-6.5,0-11.5-2.5-11.7-2.6c-0.2-0.1-0.3-0.4-0.2-0.6c0.1-0.2,0.4-0.3,0.6-0.2
				c0,0,5,2.5,11.3,2.5c0.3,0,0.5,0.2,0.5,0.5S490.4,193.8,490.1,193.8z"/>
			<path class="st2" d="M476.1,217.2c-0.9-0.3-1.5,3.8-1.5,3.8c0.5,0.3,1.1,0.5,1.8,0.8C475.7,219.4,477,217.4,476.1,217.2z"/>
			<path class="st2" d="M483.2,218.4c-0.4,0-0.7,0.1-1,1.4c-0.3,1.4-0.8,2.8-0.8,2.9c0.5,0.1,1.1,0.1,1.7,0.1
				C483.6,220,483.6,218.5,483.2,218.4z"/>
			<path class="st2" d="M550.1,199.8c-0.6,0.7,2.8,3,2.8,3c0.5-0.4,1-0.8,1.5-1.3C551.9,201,550.8,199.1,550.1,199.8z"/>
			<path class="st2" d="M554.2,193.6c-0.2,0.3-0.3,0.7,0.8,1.5c1.1,0.9,2.2,2,2.2,2c0.3-0.5,0.6-1,0.8-1.5
				C555.7,193.9,554.4,193.2,554.2,193.6z"/>
			<circle class="st9" cx="516.1" cy="77.5" r="3.6"/>
			<circle class="st9" cx="433.4" cy="164.9" r="3.2"/>
			<path class="st21" d="M527.9,76.1c-0.3,0-0.5-0.2-0.5-0.5c-0.3-5.5-1.5-7.5-2.5-8.2c-0.7-0.5-1.3-0.4-1.3-0.4c0,0-0.1,0-0.1,0
				c-2.1,0-2.5,2.2-2.5,2.3c0,0.3-0.3,0.4-0.6,0.4c-0.3,0-0.4-0.3-0.4-0.6c0.2-1.1,1.2-3,3.4-3.1c0.2,0,1.1-0.1,2,0.5
				c1.7,1.2,2.7,4.3,2.9,9C528.4,75.8,528.2,76.1,527.9,76.1C527.9,76.1,527.9,76.1,527.9,76.1z"/>
			<path class="st21" d="M513.4,69.9c-0.2,0-0.4-0.1-0.5-0.4c-0.4-1.7-0.3-5.1,2.5-6.1c0,0,4.9-1.9,7.1,3.2c0.1,0.2,0,0.5-0.2,0.6
				c-0.2,0.1-0.5,0-0.6-0.2c-1.8-4.2-5.7-2.7-5.9-2.7c-2.8,1-1.9,4.9-1.9,5c0.1,0.3-0.1,0.5-0.4,0.6
				C513.5,69.9,513.4,69.9,513.4,69.9z"/>
			<path class="st21" d="M421.1,165.9c-0.2,0-0.4-0.2-0.5-0.4c0-0.3,0.1-0.5,0.4-0.5c0,0,2-0.3,5-1c0.3-0.1,0.5,0.1,0.6,0.4
				s-0.1,0.5-0.4,0.6C423.2,165.6,421.2,165.9,421.1,165.9C421.1,165.9,421.1,165.9,421.1,165.9z"/>
			<path class="st21" d="M422.4,170.3c-0.3,0-0.5-0.2-0.5-0.5c0-0.3,0.2-0.5,0.5-0.5c0,0,3.3-0.2,4.6-1.1c0.2-0.2,0.5-0.1,0.7,0.1
				c0.2,0.2,0.1,0.5-0.1,0.7C426,170.1,422.6,170.3,422.4,170.3C422.4,170.3,422.4,170.3,422.4,170.3z"/>
			<path class="st19" d="M443.1,139.3c0,0,13.9,0.2,32.2-8.8c18.3-9,32.1-26.7,32.1-26.7s-0.8,22.7-26.9,34.3
				C480.5,138,460.6,146.7,443.1,139.3z"/>
			<path class="st21" d="M458.8,142.9c-10.7,0-22.3-3.3-28.6-15.5c-0.1-0.2,0-0.5,0.2-0.6c0.2-0.1,0.5,0,0.6,0.2
				c13.2,25.4,50.5,10.8,50.8,10.6c0.2-0.1,0.5,0,0.6,0.3c0.1,0.2,0,0.5-0.3,0.6C482,138.6,471.1,142.9,458.8,142.9z"/>
			<path class="st21" d="M500.1,121.4c-0.1,0-0.2,0-0.3-0.1c-0.2-0.2-0.2-0.5,0-0.7c6.9-7,6.8-15.7,6.8-15.8c0-0.3,0.2-0.5,0.5-0.5
				c0.3,0,0.5,0.2,0.5,0.5c0,0.4,0.1,9.1-7.1,16.5C500.3,121.4,500.2,121.4,500.1,121.4z"/>
		</g>
		<path class="st22" d="M430.1,198.7c-0.2,0-0.4-0.1-0.6-0.2c-16.7-12.9-15.9-33.8-15.9-34c0-0.5,0.5-0.9,1-0.9c0.5,0,0.9,0.5,0.9,1
			c0,0.2-0.7,20.2,15.2,32.4c0.4,0.3,0.5,0.9,0.2,1.3C430.7,198.5,430.4,198.7,430.1,198.7z"/>
		<path class="st22" d="M426,202.8c-0.2,0-0.4-0.1-0.6-0.2c-12.9-9.4-14.9-22.3-15-22.8c-0.1-0.5,0.3-1,0.8-1.1
			c0.5-0.1,1,0.3,1.1,0.8c0,0.1,2,12.6,14.2,21.6c0.4,0.3,0.5,0.9,0.2,1.3C426.5,202.7,426.3,202.8,426,202.8z"/>
		<path class="st22" d="M545,81.4c-0.4,0-0.8-0.3-0.9-0.7c-4.4-18.3-17.4-25.7-17.5-25.7c-0.5-0.3-0.6-0.8-0.4-1.3
			c0.3-0.5,0.8-0.6,1.3-0.4c0.6,0.3,13.8,7.8,18.4,27c0.1,0.5-0.2,1-0.7,1.1C545.1,81.4,545.1,81.4,545,81.4z"/>
		<path class="st22" d="M548.8,79.1c-0.4,0-0.8-0.3-0.9-0.8c-2.7-13.6-9-19.5-9.1-19.6c-0.4-0.4-0.4-1-0.1-1.3
			c0.4-0.4,1-0.4,1.3-0.1c0.3,0.3,6.8,6.4,9.7,20.6c0.1,0.5-0.2,1-0.7,1.1C549,79.1,548.9,79.1,548.8,79.1z"/>
	</g>
	<path class="st9" d="M269.5,45h-247C10.1,45,0,34.9,0,22.5S10.1,0,22.5,0h247C281.9,0,292,10.1,292,22.5S281.9,45,269.5,45z"/>
	<path class="st23" d="M616.1,45h-247c-12.4,0-22.5-10.1-22.5-22.5S356.7,0,369.1,0h247c12.4,0,22.5,10.1,22.5,22.5
		S628.5,45,616.1,45z"/>
	<g>
		<g>
			<path class="st8" d="M368.4,26.2c0,0.6,0,0.9,0.4,0.9c0.3,0,1.3-0.5,1.8-0.7c3-1.4,6.1-3.5,8.4-5.8c0.1-0.1,0.3-0.4,0.5-0.4
				c0.4,0,1.1,1.5,1.1,1.9c0,0.2-0.1,0.3-0.2,0.4c-0.5,0.5-1,0.9-1.5,1.4c-2.9,2.4-6.2,4.2-9.7,5.7c-0.3,0.1-0.5,0.2-0.8,0.4
				c-0.2,0.1-0.4,0.2-0.5,0.2c-0.3,0-1.5-0.6-1.7-0.8c-0.3-0.2-0.3-0.4-0.3-0.8c0-0.7,0-1.6,0-2.4v-9c0-0.5,0-1,0-1.3
				c0-0.2-0.1-0.6-0.1-0.7c0-0.1,0.1-0.3,0.2-0.3c0.1,0,0.3,0,0.5,0.1c0.4,0,1.5,0.2,1.8,0.3c0.2,0,0.5,0.1,0.5,0.3
				c0,0.1-0.1,0.2-0.2,0.3c-0.2,0.2-0.2,0.4-0.2,0.7c0,0.3,0,0.7,0,1V26.2z"/>
			<path class="st8" d="M389,20.1c0.2,0.3,0.7,1.1,1,1.4c0.2,0.3,0.9,1.5,0.9,1.7c0,0.5-1.3,1-1.6,1c-0.2,0-0.3-0.2-0.4-0.4
				c-0.5-0.9-1-1.8-1.6-2.7c-0.1-0.1-0.2-0.2-0.2-0.4c0-0.4,1.2-0.9,1.5-0.9C388.8,19.9,388.9,19.9,389,20.1z M399.9,19.7
				c0.2,0.1,0.4,0.2,0.4,0.4c0,0.2-0.2,0.2-0.3,0.3c-0.2,0.1-0.2,0.2-0.3,0.5c-0.7,2.3-1.5,4.3-3,6.2c-1.6,1.9-3.6,3.1-6,3.8
				c-0.2,0-0.5,0.2-0.7,0.2c-0.4,0-1.2-1.2-1.2-1.5c0-0.2,0.1-0.3,0.4-0.4c2.8-0.8,5.2-2.1,6.8-4.6c0.9-1.5,1.6-3.2,1.8-5
				c0-0.2,0-0.4,0.3-0.4C398.3,19.1,399.6,19.6,399.9,19.7z M394.4,20.2c0.2,0.3,1,1.5,1,1.8c0,0.4-1.3,1-1.6,1
				c-0.2,0-0.4-0.2-0.4-0.4c-0.5-0.9-1-1.7-1.5-2.6c-0.1-0.1-0.2-0.3-0.2-0.4c0-0.4,1.2-0.9,1.5-0.9c0.3,0,0.7,0.6,1.1,1.2
				L394.4,20.2z"/>
			<path class="st8" d="M418.9,16c0.4,0,0.7,0,0.9,0c0.1,0,0.4,0,0.5,0c0.5,0,1.4,1.2,1.4,1.5c0,0.1-0.2,0.5-0.5,0.9
				c-0.1,0.2-0.3,0.4-0.4,0.6c-0.9,1.5-1.8,2.9-2.9,4.2c-0.1,0.1-0.2,0.2-0.2,0.4c0,0.3,0.1,0.4,0.3,0.5c1.2,0.8,2.6,1.9,3.7,2.8
				c0.5,0.5,1.1,1,1.6,1.5c0.1,0.1,0.2,0.2,0.2,0.3c0,0.5-1.2,1.8-1.7,1.8c-0.2,0-0.4-0.2-0.5-0.3c-1.6-1.9-2.9-2.9-4.9-4.4
				c-0.2-0.1-0.3-0.2-0.5-0.2c-0.3,0-0.5,0.2-0.7,0.4c-1.6,1.5-3.5,2.8-5.5,3.9c-0.2,0.1-0.8,0.4-1,0.4c-0.5,0-1.5-1.5-1.5-1.9
				c0-0.3,0.3-0.4,0.5-0.4c3.9-1.5,7.6-4.9,9.8-8.3c0.1-0.2,0.4-0.6,0.4-0.7c0-0.3-0.3-0.4-0.6-0.4h-4.6c-0.9,0-1.9,0-2.8,0
				c-0.6,0-0.6-0.3-0.6-1.3c0-0.8,0-1.1,0.5-1.1c0.9,0,1.9,0,2.9,0H418.9z"/>
			<path class="st8" d="M446.7,20.2c0,0.4-0.9,1.2-1.2,1.5c-3.6,3.7-7.3,6.1-11.9,8.3c-0.7,0.4-0.7,0.4-0.9,0.7
				c0,0.1-0.1,0.1-0.2,0.1c-0.2,0-0.7-0.9-0.9-1.1c-0.1-0.2-0.7-1.1-0.7-1.3c0-0.2,0.4-0.3,0.7-0.4c4.9-1.4,10.4-5.6,13.5-9.6
				c0.1-0.1,0.2-0.2,0.4-0.2C445.9,18.3,446.7,19.9,446.7,20.2z M435.4,16.6c0.3,0.2,1.3,0.9,1.3,1.3c0,0.5-1,1.7-1.5,1.7
				c-0.2,0-0.6-0.3-0.9-0.6c-0.6-0.5-2.1-1.6-2.9-2c-0.2-0.1-0.4-0.2-0.4-0.4c0-0.3,0.9-1.7,1.4-1.7C432.9,14.7,435,16.3,435.4,16.6
				z"/>
			<path class="st8" d="M462.1,22.4c0,1.5-1,2.7-2.6,2.7c-1.4,0-2.4-0.9-2.4-2.3c0-1.4,0.9-2.7,2.7-2.7
				C461.1,20.1,462.1,21.1,462.1,22.4z"/>
			<path class="st8" d="M483.4,28.4c0,1,0,1.9,0,2.9c0,0.6-0.3,0.7-1.1,0.7c-1.2,0-1.4-0.1-1.4-0.6c0-0.9,0-1.9,0-2.8v-6
				c0-0.1,0.1-0.6-0.4-0.6c-0.2,0-0.7,0.4-0.9,0.5c-0.7,0.5-4.2,2.8-4.7,2.8c-0.4,0-1.7-1.3-1.7-1.8c0-0.2,0.2-0.3,0.4-0.4
				c2.9-1.2,6.4-3.7,8.6-5.8c1.1-1.1,2.2-2.4,3-3.7c0.1-0.1,0.2-0.3,0.4-0.3c0.2,0,0.8,0.5,1.5,0.9c0.2,0.2,0.9,0.5,0.9,0.8
				c0,0.1-0.1,0.2-0.2,0.2c-0.5,0.1-0.5,0.2-0.9,0.5c-1.1,1.3-1.8,2.1-3,3.3c-0.3,0.3-0.5,0.5-0.5,1V28.4z"/>
			<path class="st8" d="M505.1,19.9c2.1,2.1,4.2,4.2,6.7,5.9c0.2,0.1,0.4,0.2,0.4,0.4c0,0.4-1.1,1.9-1.8,1.9c-0.4,0-1.2-0.8-1.5-1.1
				c-2-1.8-3.9-3.8-5.7-5.7c-0.3-0.3-0.7-0.8-1.1-0.8c-0.5,0-1.3,0.7-1.7,1c-1,0.9-2.3,2.1-3.2,3.1c-0.1,0.1-0.3,0.3-0.5,0.3
				c-0.4,0-1.9-1.7-1.9-2c0-0.2,0.4-0.4,0.6-0.5c1.6-0.9,3.2-2.4,4.6-3.6c0.5-0.5,1.4-0.9,2.1-0.9C503.3,17.9,504.2,19,505.1,19.9z
				 M510.1,19.7c0,0.3-0.7,1-1,1c-0.1,0-0.2-0.1-0.3-0.2c-0.5-0.6-1.1-1.1-1.6-1.7c-0.1-0.1-0.2-0.2-0.2-0.3c0-0.2,0.8-0.9,1-0.9
				C508.2,17.6,510.1,19.5,510.1,19.7z M510.1,15.9c0.2,0,2.2,1.8,2.2,2.1c0,0.3-0.7,1-1,1c-0.1,0-0.3-0.2-0.5-0.4
				c-0.1-0.1-0.1-0.1-0.2-0.2c-0.4-0.4-0.8-0.9-1.3-1.3c-0.1-0.1-0.2-0.2-0.2-0.3C509.1,16.6,509.8,15.9,510.1,15.9z"/>
			<path class="st8" d="M534.7,20.2c0,0.4-0.9,1.2-1.2,1.5c-3.6,3.7-7.3,6.1-11.9,8.3c-0.7,0.4-0.7,0.4-0.9,0.7
				c0,0.1-0.1,0.1-0.2,0.1c-0.2,0-0.7-0.9-0.9-1.1c-0.1-0.2-0.7-1.1-0.7-1.3c0-0.2,0.4-0.3,0.7-0.4c4.9-1.4,10.4-5.6,13.5-9.6
				c0.1-0.1,0.2-0.2,0.4-0.2C533.9,18.3,534.7,19.9,534.7,20.2z M523.4,16.6c0.3,0.2,1.3,0.9,1.3,1.3c0,0.5-1,1.7-1.5,1.7
				c-0.2,0-0.6-0.3-0.9-0.6c-0.6-0.5-2.1-1.6-2.9-2c-0.2-0.1-0.4-0.2-0.4-0.4c0-0.3,0.9-1.7,1.4-1.7C520.9,14.7,523,16.3,523.4,16.6
				z"/>
			<path class="st8" d="M548.5,19.7c0.4,0,2.6,1.7,3.1,2.1c0.3,0.3,1.5,1.2,1.5,1.6s-1,1.5-1.5,1.5c-0.2,0-0.4-0.2-0.5-0.3
				c-1.2-1.1-1.9-1.7-3.2-2.6c-0.1,0-0.1-0.1-0.2-0.1c-0.2,0-0.3,0.2-0.3,0.4v6c0,0.9,0,1.7,0,2.6c0,1,0,1.1-1.4,1.1
				c-0.9,0-1.3,0-1.3-0.7c0-1,0.1-2,0.1-3V15.8c0-0.6,0-1.2-0.1-1.7c0-0.1,0-0.3,0-0.4c0-0.2,0.1-0.3,0.3-0.3c0.1,0,0.6,0.1,0.7,0.1
				c1,0.1,1.9,0.2,1.9,0.5c0,0.1-0.1,0.2-0.1,0.3c-0.2,0.2-0.2,0.6-0.2,1.2c0,0.3,0,0.7,0,1.3V20c0,0.2,0.1,0.2,0.2,0.2
				c0.1,0,0.1,0,0.2-0.1C548,20,548.2,19.7,548.5,19.7z"/>
			<path class="st8" d="M574.2,16.7c0.4,0,1,0,1.3-0.1c0.1,0,0.2,0,0.2,0c0.4,0,1.1,1.1,1.1,1.5c0,0.1-0.1,0.2-0.1,0.3
				c-0.3,0.4-0.4,0.6-0.6,1.1c-0.6,1.4-1.3,2.8-2.1,4.1c-0.1,0.1-0.2,0.3-0.2,0.4c0,0.3,0.2,0.4,0.4,0.6c0.3,0.2,1.2,0.9,1.2,1.1
				c0,0.4-1,1.7-1.4,1.7c-0.1,0-0.2-0.1-0.3-0.2c-0.3-0.3-0.6-0.5-0.9-0.7c-0.1-0.1-0.3-0.2-0.5-0.2c-0.3,0-0.5,0.3-0.7,0.5
				c-1.4,1.5-3,2.8-4.8,3.7c-0.5,0.3-2.2,1.1-2.7,1.1c-0.6,0-1.6-1.4-1.6-1.7c0-0.3,0.4-0.3,0.9-0.5c2.3-0.7,4.6-2.2,6.3-4
				c0.2-0.2,0.3-0.3,0.3-0.5s-0.1-0.4-0.3-0.5c-0.5-0.3-1.7-0.9-2.2-1.2c-0.2-0.1-0.7-0.2-0.7-0.5c0-0.3,0.9-1.7,1.3-1.7
				c0.4,0,2.4,1.2,2.8,1.4c0.1,0.1,0.3,0.1,0.4,0.1c0.4,0,0.6-0.4,1.2-1.6c0-0.1,0.1-0.2,0.1-0.3c0.2-0.5,0.6-1.2,0.6-1.5
				c0-0.5-0.6-0.4-0.9-0.4h-4.2c-0.5,0-0.7,0.2-1,0.6c-0.7,1-2,2.5-2.9,3.4c-0.2,0.2-0.4,0.4-0.7,0.4c-0.4,0-1.8-0.9-1.8-1.3
				c0-0.2,0.2-0.3,0.3-0.4c2.2-1.7,4.8-5.3,5.7-7.9c0.1-0.2,0.2-0.6,0.4-0.6c0.2,0,0.6,0.2,1.2,0.5c0.2,0.1,1.3,0.6,1.3,0.7
				c0,0.1-0.1,0.2-0.2,0.2c-0.3,0.1-0.4,0.2-0.7,0.7c-0.1,0.2-0.2,0.4-0.4,0.6c-0.1,0.1-0.2,0.3-0.2,0.5c0,0.2,0.2,0.3,0.4,0.3
				H574.2z"/>
			<path class="st8" d="M593.4,28.4c0,1,0,1.9,0,2.9c0,0.6-0.3,0.7-1.1,0.7c-1.2,0-1.4-0.1-1.4-0.6c0-0.9,0-1.9,0-2.8v-6
				c0-0.1,0.1-0.6-0.4-0.6c-0.2,0-0.7,0.4-0.9,0.5c-0.7,0.5-4.2,2.8-4.7,2.8c-0.4,0-1.7-1.3-1.7-1.8c0-0.2,0.2-0.3,0.4-0.4
				c2.9-1.2,6.4-3.7,8.6-5.8c1.1-1.1,2.2-2.4,3-3.7c0.1-0.1,0.2-0.3,0.4-0.3c0.2,0,0.8,0.5,1.5,0.9c0.2,0.2,0.9,0.5,0.9,0.8
				c0,0.1-0.1,0.2-0.2,0.2c-0.5,0.1-0.5,0.2-0.9,0.5c-1.1,1.3-1.8,2.1-3,3.3c-0.3,0.3-0.5,0.5-0.5,1V28.4z"/>
			<path class="st8" d="M617.9,16.1c0.4,0,0.9,0,1.1,0c0.4,0,0.8,0.4,1.1,0.7c0.2,0.2,0.7,0.7,0.7,1c0,0.2-0.2,0.4-0.3,1.3
				c-0.7,4.1-2.4,7-5.8,9.5c-1.3,0.9-2.8,1.7-4.2,2.3c-0.2,0.1-0.5,0.2-0.7,0.2c-0.5,0-1.3-1.5-1.3-1.8c0-0.2,0.2-0.3,0.4-0.4
				c1.9-0.5,4-1.6,5.5-2.9c1.9-1.6,3.2-3.9,3.6-6.4c0-0.2,0.1-0.4,0.1-0.6c0-0.4-0.4-0.5-0.8-0.5h-7.8c-0.9,0-1.8,0-2.8,0
				c-0.7,0-0.7-0.2-0.7-1.2c0-1,0-1.3,0.6-1.3c0.9,0,1.9,0,2.8,0H617.9z M624.3,14.5c0,1.2-1,2.2-2.2,2.2c-1.2,0-2.2-1-2.2-2.2
				c0-1.2,1-2.2,2.2-2.2C623.3,12.3,624.3,13.3,624.3,14.5z M620.9,14.5c0,0.7,0.5,1.2,1.2,1.2c0.7,0,1.2-0.5,1.2-1.2
				s-0.5-1.2-1.2-1.2C621.4,13.3,620.9,13.8,620.9,14.5z"/>
		</g>
	</g>
	<g>
		<path class="st8" d="M37.5,20.4c0.7-1.3,1.6-3.5,1.8-5c0-0.2,0-0.5,0.2-0.5c0.2,0,1.2,0.4,1.5,0.5c0.4,0.2,1.2,0.4,1.2,0.7
			c0,0.1-0.1,0.2-0.2,0.3c-0.3,0.2-0.4,0.4-0.5,0.8c-0.6,1.6-1.3,3.3-2.1,4.8c-0.1,0.1-0.1,0.2-0.1,0.4c0,0.3,0.2,0.4,0.4,0.6
			c0.3,0.2,1.6,1.3,1.6,1.6c0,0.4-1,1.8-1.4,1.8c-0.2,0-0.4-0.2-0.5-0.3c-0.3-0.3-1.2-1.2-1.5-1.2c-0.3,0-0.4,0.2-0.5,0.4
			c-1.1,1.4-2.4,2.6-3.9,3.6c-0.5,0.4-3,1.9-3.5,1.9c-0.5,0-1.6-1.3-1.6-1.6c0-0.3,0.4-0.4,0.6-0.5c0.1,0,0.1,0,0.2-0.1
			c2.4-1,4.4-2.5,6.1-4.4c0.1-0.2,0.4-0.4,0.4-0.6c0-0.2-0.1-0.4-0.3-0.4c-0.7-0.4-1.8-0.7-2.6-1c-0.2-0.1-0.5-0.2-0.5-0.4
			c0-0.2,0.5-1.8,1.1-1.8c0.5,0,2.7,1,3.2,1.3c0.1,0,0.2,0.1,0.3,0.1C37.2,21.1,37.3,20.7,37.5,20.4z"/>
		<path class="st8" d="M63.1,25.8c0.9,0,1.8,0,2.6,0c0.7,0,0.7,0.2,0.7,1.3c0,0.7,0,1.1-0.6,1.1c-0.9,0-1.8,0-2.7,0H52.9
			c-0.9,0-1.8,0-2.7,0c-0.6,0-0.6-0.4-0.6-1.2c0-1.1,0-1.3,0.7-1.3c0.9,0,1.8,0,2.6,0H63.1z M60.9,16.5c0.9,0,1.9,0,2.8,0
			c0.6,0,0.6,0.2,0.6,1.2c0,0.9,0,1.3-0.7,1.3c-0.9,0-1.8,0-2.8,0h-5.8c-0.9,0-1.8,0-2.8,0c-0.7,0-0.7-0.4-0.7-1.3
			c0-1,0.1-1.2,0.6-1.2c0.9,0,1.9,0,2.8,0H60.9z"/>
		<path class="st8" d="M81.8,19.8c0.3,0,0.5,0,0.7,0c0.1,0,0.2,0,0.3,0c0.5,0,1.3,0.6,1.3,1.1c0,0.2-0.1,0.3-0.1,0.6
			c-0.1,0.4-0.1,0.9-0.2,1l-0.5,4c0,0.3,0.2,0.5,0.5,0.5h0.6c0.7,0,1.5,0,2.2,0c0.6,0,0.6,0.4,0.6,1.1c0,0.6,0,1-0.6,1
			c-0.7,0-1.4,0-2.1,0h-9c-0.7,0-1.6,0-2.1,0c-0.6,0-0.6-0.5-0.6-0.9c0-0.7,0-1.1,0.5-1.1c0.4,0,1.5,0,2.1,0h5.3
			c0.3,0,0.6-0.2,0.6-0.5l0.4-3.9c0-0.1,0.1-0.4,0.1-0.4c0-0.4-0.3-0.5-0.6-0.5h-3.1c-0.7,0-1.6,0-2.2,0c-0.5,0-0.5-0.4-0.5-1.1
			c0-0.6,0-1,0.5-1c0.4,0,1.3,0,2.2,0H81.8z"/>
		<path class="st8" d="M107.1,21.1c1,0,2.4-0.1,2.7-0.1c0.6,0,0.6,0.2,0.6,1.4c0,0.7,0,1.1-0.6,1.1c-0.9,0-1.8,0-2.8,0H96.9
			c-0.9,0-1.8,0-2.8,0c-0.6,0-0.6-0.4-0.6-1.1c0-1.2,0-1.4,0.6-1.4c0.3,0,1.8,0.1,2.7,0.1H107.1z"/>
		<path class="st8" d="M126.5,22.4c0,1.5-1,2.7-2.6,2.7c-1.4,0-2.4-0.9-2.4-2.3c0-1.4,0.9-2.7,2.7-2.7
			C125.5,20.1,126.5,21.1,126.5,22.4z"/>
		<path class="st8" d="M149.8,16.7c0.6,0,1.1,0,1.7,0c0.9,0,1.5,0.1,1.5,1.1c0,0.7,0,1.3,0,2v7.4c0,0.7,0,1.3,0,2
			c0,0.7-0.1,0.7-1.3,0.7c-1,0-1,0-1.1-0.5c-0.1-0.5-0.4-0.5-1.1-0.5h-7.2c-1,0-2.3,0-2.8,0c-0.6,0-0.5-0.3-0.5-1.3
			c0-0.9,0-1.2,0.5-1.2c0.5,0,1.8,0.1,2.9,0.1h7.6c0.4,0,0.7-0.3,0.7-0.7v-6.2c0-0.4-0.3-0.7-0.7-0.7h-7.6c-0.9,0-2.3,0.1-2.8,0.1
			c-0.5,0-0.5-0.3-0.5-1.4c0-0.9,0.1-1.1,0.5-1.1c0.3,0,0.6,0,0.9,0c0.6,0,1.3,0,1.9,0H149.8z"/>
		<path class="st8" d="M173.1,21.1c1,0,2.4-0.1,2.7-0.1c0.6,0,0.6,0.2,0.6,1.4c0,0.7,0,1.1-0.6,1.1c-0.9,0-1.8,0-2.8,0h-10.1
			c-0.9,0-1.8,0-2.8,0c-0.6,0-0.6-0.4-0.6-1.1c0-1.2,0-1.4,0.6-1.4c0.3,0,1.8,0.1,2.7,0.1H173.1z"/>
		<path class="st8" d="M193.3,16c0.4,0,0.7,0,0.9,0c0.1,0,0.4,0,0.5,0c0.5,0,1.4,1.2,1.4,1.5c0,0.1-0.2,0.5-0.5,0.9
			c-0.1,0.2-0.3,0.4-0.4,0.6c-0.9,1.5-1.8,2.9-2.9,4.2c-0.1,0.1-0.2,0.2-0.2,0.4c0,0.3,0.1,0.4,0.3,0.5c1.2,0.8,2.6,1.9,3.7,2.8
			c0.5,0.5,1.1,1,1.6,1.5c0.1,0.1,0.2,0.2,0.2,0.3c0,0.5-1.2,1.8-1.7,1.8c-0.2,0-0.4-0.2-0.5-0.3c-1.6-1.9-2.9-2.9-4.9-4.4
			c-0.2-0.1-0.3-0.2-0.5-0.2c-0.3,0-0.5,0.2-0.7,0.4c-1.6,1.5-3.5,2.8-5.5,3.9c-0.2,0.1-0.8,0.4-1,0.4c-0.5,0-1.5-1.5-1.5-1.9
			c0-0.3,0.3-0.4,0.5-0.4c3.9-1.5,7.6-4.9,9.8-8.3c0.1-0.2,0.4-0.6,0.4-0.7c0-0.3-0.3-0.4-0.6-0.4h-4.6c-0.9,0-1.9,0-2.8,0
			c-0.6,0-0.6-0.3-0.6-1.3c0-0.8,0-1.1,0.5-1.1c0.9,0,1.9,0,2.9,0H193.3z"/>
		<path class="st8" d="M216.6,16.7c0.4,0,1,0,1.3-0.1c0.1,0,0.2,0,0.2,0c0.4,0,1.1,1.1,1.1,1.5c0,0.1-0.1,0.2-0.1,0.3
			c-0.3,0.4-0.4,0.6-0.6,1.1c-0.6,1.4-1.3,2.8-2.1,4.1c-0.1,0.1-0.2,0.3-0.2,0.4c0,0.3,0.2,0.4,0.4,0.6c0.3,0.2,1.2,0.9,1.2,1.1
			c0,0.4-1,1.7-1.4,1.7c-0.1,0-0.2-0.1-0.3-0.2c-0.3-0.3-0.6-0.5-0.9-0.7c-0.1-0.1-0.3-0.2-0.5-0.2c-0.3,0-0.5,0.3-0.7,0.5
			c-1.4,1.5-3,2.8-4.8,3.7c-0.5,0.3-2.2,1.1-2.7,1.1c-0.6,0-1.6-1.4-1.6-1.7c0-0.3,0.4-0.3,0.9-0.5c2.3-0.7,4.6-2.2,6.3-4
			c0.2-0.2,0.3-0.3,0.3-0.5s-0.1-0.4-0.3-0.5c-0.5-0.3-1.7-0.9-2.2-1.2c-0.2-0.1-0.7-0.2-0.7-0.5c0-0.3,0.9-1.7,1.3-1.7
			c0.4,0,2.4,1.2,2.8,1.4c0.1,0.1,0.3,0.1,0.4,0.1c0.4,0,0.6-0.4,1.2-1.6c0-0.1,0.1-0.2,0.1-0.3c0.2-0.5,0.6-1.2,0.6-1.5
			c0-0.5-0.6-0.4-0.9-0.4h-4.2c-0.5,0-0.7,0.2-1,0.6c-0.7,1-2,2.5-2.9,3.4c-0.2,0.2-0.4,0.4-0.7,0.4c-0.4,0-1.8-0.9-1.8-1.3
			c0-0.2,0.2-0.3,0.3-0.4c2.2-1.7,4.8-5.3,5.7-7.9c0.1-0.2,0.2-0.6,0.4-0.6c0.2,0,0.6,0.2,1.2,0.5c0.2,0.1,1.3,0.6,1.3,0.7
			c0,0.1-0.1,0.2-0.2,0.2c-0.3,0.1-0.4,0.2-0.7,0.7c-0.1,0.2-0.2,0.4-0.4,0.6c-0.1,0.1-0.2,0.3-0.2,0.5c0,0.2,0.2,0.3,0.4,0.3H216.6
			z"/>
		<path class="st8" d="M235.8,28.4c0,1,0,1.9,0,2.9c0,0.6-0.3,0.7-1.1,0.7c-1.2,0-1.4-0.1-1.4-0.6c0-0.9,0-1.9,0-2.8v-6
			c0-0.1,0.1-0.6-0.4-0.6c-0.2,0-0.7,0.4-0.9,0.5c-0.7,0.5-4.2,2.8-4.7,2.8c-0.4,0-1.7-1.3-1.7-1.8c0-0.2,0.2-0.3,0.4-0.4
			c2.9-1.2,6.4-3.7,8.6-5.8c1.1-1.1,2.2-2.4,3-3.7c0.1-0.1,0.2-0.3,0.4-0.3c0.2,0,0.8,0.5,1.5,0.9c0.2,0.2,0.9,0.5,0.9,0.8
			c0,0.1-0.1,0.2-0.2,0.2c-0.5,0.1-0.5,0.2-0.9,0.5c-1.1,1.3-1.8,2.1-3,3.3c-0.3,0.3-0.5,0.5-0.5,1V28.4z"/>
		<path class="st8" d="M260.3,16.1c0.4,0,0.9,0,1.1,0c0.4,0,0.8,0.4,1.1,0.7c0.2,0.2,0.7,0.7,0.7,1c0,0.2-0.2,0.4-0.3,1.3
			c-0.7,4.1-2.4,7-5.8,9.5c-1.3,0.9-2.8,1.7-4.2,2.3c-0.2,0.1-0.5,0.2-0.7,0.2c-0.5,0-1.3-1.5-1.3-1.8c0-0.2,0.2-0.3,0.4-0.4
			c1.9-0.5,4-1.6,5.5-2.9c1.9-1.6,3.2-3.9,3.6-6.4c0-0.2,0.1-0.4,0.1-0.6c0-0.4-0.4-0.5-0.8-0.5h-7.8c-0.9,0-1.8,0-2.8,0
			c-0.7,0-0.7-0.2-0.7-1.2c0-1,0-1.3,0.6-1.3c0.9,0,1.9,0,2.8,0H260.3z M266.7,14.5c0,1.2-1,2.2-2.2,2.2c-1.2,0-2.2-1-2.2-2.2
			c0-1.2,1-2.2,2.2-2.2C265.7,12.3,266.7,13.3,266.7,14.5z M263.3,14.5c0,0.7,0.5,1.2,1.2,1.2c0.7,0,1.2-0.5,1.2-1.2
			s-0.5-1.2-1.2-1.2C263.8,13.3,263.3,13.8,263.3,14.5z"/>
	</g>
	<g>
		<path class="st5" d="M321.1,141.4c0,5.4-3.4,8.7-8.5,8.7c-4.5,0-7.9-3.1-7.9-8c0-5.2,3.2-8.8,8.5-8.8
			C317.7,133.3,321.1,136.5,321.1,141.4z M308.4,142.2c0,2.9,1.8,4.9,4.3,4.9c2.8,0,4.7-2.1,4.7-5.3c0-3-1.9-4.9-4.4-4.9
			C310,136.8,308.4,139.1,308.4,142.2z"/>
		<path class="st5" d="M328.5,144.8c0,1.4,0.1,4.1,0.1,4.3c0,0.7-0.2,0.8-0.9,0.8h-1.9c-0.7,0-0.9-0.1-0.9-0.8
			c0-0.2,0.1-2.9,0.1-4.3v-6.2c0-1.4-0.1-4.1-0.1-4.3c0-0.7,0.2-0.8,0.9-0.8h1.3c0.8,0,1,0.1,1,1c0,0.7,0.1,1,0.3,1
			c0.1,0,0.3-0.1,0.5-0.3c0.8-0.7,1.6-1.2,2.6-1.5c0.6-0.2,1.3-0.3,1.8-0.3c0.5,0,0.6,0.2,0.6,0.9v2.4c0,0.5-0.2,0.6-0.5,0.6
			c-0.2,0-0.4-0.1-0.8-0.1c-1.1,0-2.3,0.4-3.3,1.2c-0.5,0.4-0.7,0.7-0.7,1.4V144.8z"/>
	</g>
</g>
</svg>
