<?xml version="1.0" encoding="utf-8"?>
<!-- Generator: Adobe Illustrator 27.4.1, SVG Export Plug-In . SVG Version: 6.00 Build 0)  -->
<svg version="1.1" id="レイヤー_1" xmlns="http://www.w3.org/2000/svg" xmlns:xlink="http://www.w3.org/1999/xlink" x="0px"
	 y="0px" viewBox="0 0 369.3 190" style="enable-background:new 0 0 369.3 190;" xml:space="preserve">
<style type="text/css">
	.st0{fill:#CCF2F9;}
	.st1{fill:#FCEACC;}
	.st2{fill:#E6E6E6;}
	.st3{fill:#59C2E1;}
	.st4{opacity:0.15;}
	.st5{fill:#796A56;}
	.st6{fill:none;}
	.st7{fill:#9CDBED;}
	.st8{fill:#FFFFFF;}
	.st9{fill:#F29600;}
	.st10{fill:#C69C6D;}
	.st11{fill:#A67C52;}
	.st12{fill:#DDC4A7;}
	.st13{fill:#8C6239;}
	.st14{fill:#A38161;}
	.st15{fill:#F2F2F2;}
	.st16{fill:#B3B3B3;}
	.st17{fill:#D88C8C;}
	.st18{fill:#FFF057;}
	.st19{opacity:5.000000e-02;}
	.st20{fill:#D9E021;}
	.st21{fill:#9BDAED;}
	.st22{fill:#CCCCCC;}
	.st23{fill:#00BDE1;}
	.st24{fill:#687485;}
	.st25{fill:#9BA3AE;}
	.st26{fill:#B3B9C2;}
	.st27{fill:#E5E7EA;}
	.st28{fill:#F2F7FB;}
	.st29{fill:#CBC7C6;}
	.st30{fill:#927C36;}
	.st31{fill:#AD9240;}
	.st32{fill:#CEBE8C;}
	.st33{fill:#BDA866;}
	.st34{fill:#F7DBC5;}
	.st35{fill:#F2A18D;}
	.st36{fill:#CA8878;}
	.st37{fill:#EACFC9;}
	.st38{fill:#10636B;}
	.st39{fill:#5C504B;}
	.st40{fill:#DDDAD9;}
	.st41{fill:#CDD1D6;}
	.st42{fill:#F7F4EC;}
	.st43{fill:#F5EEEA;}
	.st44{fill:#CF9486;}
	.st45{fill:#28737A;}
	.st46{fill:#D7F0E9;}
	.st47{fill:#534741;}
	.st48{fill:#12A67C;}
	.st49{fill:#EDECEC;}
	.st50{fill:#D4D1CF;}
	.st51{fill:#505E71;}
	.st52{fill:#00254A;}
	.st53{fill:#4D6781;}
	.st54{fill:#DADDE1;}
	.st55{fill:#C0C5CC;}
	.st56{fill:#1A3B5C;}
	.st57{fill:#9C5A35;}
	.st58{fill:#818B99;}
	.st59{fill:#A66B4A;}
	.st60{fill:#CCD7E1;}
	.st61{clip-path:url(#SVGID_00000163791526541068653990000016703251527170398610_);fill:#E5EEF8;}
	.st62{fill:#C6B37A;}
	.st63{fill:#B59D53;}
	.st64{opacity:0.6;fill:#FFFFFF;}
	.st65{fill:#BAB5B3;}
	.st66{fill:#D5A093;}
	.st67{fill:#FEF5F3;}
	.st68{enable-background:new    ;}
	.st69{fill:#DEDEDE;}
	.st70{fill:#FAFAFA;}
	.st71{fill:#EDEDED;}
	.st72{opacity:0.5;fill:#C8C8C8;}
	.st73{fill:#D6D6D6;}
	.st74{fill:#89645D;}
	.st75{fill:#A37A74;}
	.st76{fill:#704F4A;}
	.st77{fill:#C8E6E8;}
	.st78{fill:#492F2C;}
	.st79{fill:#C62E2E;}
	.st80{fill:#DB3737;}
	.st81{fill:#F0F0F0;}
	.st82{fill:#FFAED6;}
	.st83{fill:#EA5959;}
	.st84{fill:#DB72A5;}
	.st85{fill:#EF95B6;}
	.st86{fill:#FFABC5;}
	.st87{fill:#EF954B;}
	.st88{fill:#FFB26C;}
	.st89{fill:#E5D783;}
	.st90{fill:#FFF5AC;}
	.st91{opacity:0.84;fill:#B3E2F2;}
	.st92{fill:#A19378;}
	.st93{fill:#EFDBB2;}
	.st94{fill:#93876E;}
	.st95{fill:#D7C6A1;}
	.st96{fill:#BBAC8C;}
	.st97{fill:#3B3944;}
	.st98{fill:#DCDDDD;}
	.st99{fill:#FCFCFB;}
	.st100{fill:#35333D;}
	.st101{fill:#725C50;}
	.st102{fill:#2E6147;}
	.st103{fill:#EBCAB5;}
	.st104{fill:#333333;}
	.st105{fill:#5B4850;}
	.st106{fill:#262525;}
	.st107{fill:#E2BA40;}
	.st108{fill:#FAD047;}
	.st109{fill:#C7A235;}
	.st110{fill:#C9A13C;}
	.st111{fill:#EDE4D9;}
	.st112{fill:#898989;}
	.st113{fill:#8182AE;}
	.st114{fill:#ADC2DA;}
	.st115{fill:#73453E;}
	.st116{opacity:0.5;}
	.st117{fill:#8C8278;}
	.st118{fill:#DCC8BE;}
	.st119{fill:#A3B76D;}
	.st120{fill:#85A473;}
	.st121{fill:#5F7DA2;}
	.st122{fill:#EFEFEF;}
	.st123{fill:#384363;}
	.st124{fill:#252C42;}
	.st125{fill:#5B6782;}
	.st126{fill:#FDBD15;}
	.st127{fill:url(#SVGID_00000053519767081179728210000015864497708791250562_);}
	.st128{fill:#1367BA;}
	.st129{fill:#1F83D1;}
	.st130{fill:#EBEBEB;}
	.st131{fill:#C7D5EA;}
	.st132{fill:#B3C6E8;}
	.st133{fill:#72593A;}
	.st134{fill:#9CB3E2;}
	.st135{fill:#DAE3EF;}
	.st136{fill:url(#SVGID_00000142172097894152970410000003466852514376432806_);}
	.st137{fill:url(#SVGID_00000110440470985838310220000017342116182162854816_);}
	.st138{fill:#F4BB67;}
	.st139{fill:url(#SVGID_00000145757795234543884890000012214212278640829871_);}
	.st140{fill:url(#SVGID_00000164475170554701110080000009894367487087235235_);}
	.st141{fill:url(#SVGID_00000142860512322633779080000018186785498574900105_);}
	.st142{fill:url(#SVGID_00000024684542365514823720000014020414012676167836_);}
	.st143{fill:url(#SVGID_00000002355709622573449000000005144834593863152828_);}
	.st144{fill:url(#SVGID_00000062900884117767586880000013719898811832688814_);}
	.st145{opacity:8.000000e-02;fill:#212A3D;}
	.st146{fill:#DEBAA7;}
	.st147{fill:#44527A;}
	.st148{fill:#845E28;}
	.st149{fill:#3C3C3C;}
	.st150{fill:#414141;}
	.st151{fill:#4F3A25;}
	.st152{fill:#083E9E;}
	.st153{fill:#1553B7;}
	.st154{fill:#304665;}
	.st155{fill:#EBF1F7;}
	.st156{fill:#4C4C4C;}
	.st157{fill:url(#SVGID_00000057834214840724583170000016738139731090501566_);}
	.st158{fill:url(#SVGID_00000072239776636891859030000008344521678138319024_);}
	.st159{fill:#D9DADA;}
	.st160{fill:#B2B2B3;}
	.st161{fill:#C6C7C7;}
	.st162{fill:#868686;}
	.st163{fill:#33B0FF;}
	.st164{opacity:0.3;fill:#FFFFFF;}
	.st165{fill:url(#SVGID_00000036240416703148409440000010552488840394531473_);}
	.st166{opacity:0.4;fill:#FFFFFF;}
	.st167{opacity:0.25;fill:#FFFFFF;}
	.st168{opacity:0.12;fill:#FFFFFF;}
	.st169{fill:#E89E0C;}
	.st170{fill:#FFD21F;}
	.st171{fill:#FCF8F7;}
	.st172{fill:url(#SVGID_00000167363394771342510760000001469001747252859056_);}
	.st173{fill:url(#SVGID_00000111162237961236020280000018317256633468182445_);}
	.st174{fill:url(#SVGID_00000012463024816055912790000016745949865889846181_);}
	.st175{fill:#979797;}
	.st176{fill:#303460;}
	.st177{fill:#333366;}
	.st178{fill:#DE723B;}
	.st179{fill:#212A3D;}
	.st180{fill:#684F3E;}
	.st181{fill:url(#SVGID_00000047041415630751849470000001575911684863584130_);}
	.st182{fill:url(#SVGID_00000008139842914137231220000017030168258135817916_);}
	.st183{fill:url(#SVGID_00000183249357183940032990000005172382358464742016_);}
	.st184{opacity:5.000000e-02;fill:#1E1E49;}
	.st185{fill:#F5F9FC;}
	.st186{opacity:0.6;}
	.st187{opacity:0.2;fill:#FFFFFF;}
	.st188{fill:none;stroke:#9BDAED;stroke-width:0.57;stroke-linecap:round;stroke-linejoin:round;stroke-miterlimit:10;}
	.st189{fill:none;stroke:#CCCCCC;stroke-width:1.14;stroke-linecap:round;stroke-linejoin:round;stroke-miterlimit:10;}
	.st190{fill:none;stroke:#DDC4A7;stroke-width:0.57;stroke-linecap:round;stroke-linejoin:round;stroke-miterlimit:10;}
	.st191{fill:#8C6239;stroke:#A38161;stroke-width:0.57;stroke-miterlimit:10;}
	.st192{fill:none;stroke:#A38161;stroke-width:0.57;stroke-miterlimit:10;}
	.st193{fill:none;stroke:#A38161;stroke-width:0.57;stroke-linecap:round;stroke-linejoin:round;stroke-miterlimit:10;}
	.st194{fill:#F2F2F2;stroke:#B3B3B3;stroke-width:0.57;stroke-linecap:round;stroke-linejoin:round;stroke-miterlimit:10;}
</style>
<g>
	<g>
		<path class="st5" d="M185.9,115.5c0,3.2-2.1,5.2-5.1,5.2c-2.7,0-4.7-1.9-4.7-4.8c0-3.1,1.9-5.3,5.1-5.3
			C183.8,110.7,185.9,112.6,185.9,115.5z M178.3,116c0,1.8,1.1,2.9,2.6,2.9c1.7,0,2.8-1.3,2.8-3.2c0-1.8-1.1-2.9-2.6-2.9
			C179.2,112.7,178.3,114.1,178.3,116z"/>
		<path class="st5" d="M190.3,117.6c0,0.9,0,2.5,0,2.6c0,0.4-0.1,0.5-0.6,0.5h-1.1c-0.4,0-0.6-0.1-0.6-0.5c0-0.1,0-1.7,0-2.6v-3.7
			c0-0.9,0-2.5,0-2.6c0-0.4,0.1-0.5,0.6-0.5h0.8c0.5,0,0.6,0.1,0.6,0.6c0,0.4,0.1,0.6,0.2,0.6c0.1,0,0.2-0.1,0.3-0.2
			c0.5-0.4,1-0.7,1.5-0.9c0.3-0.1,0.8-0.2,1.1-0.2c0.3,0,0.4,0.1,0.4,0.5v1.5c0,0.3-0.1,0.4-0.3,0.4c-0.1,0-0.3,0-0.5,0
			c-0.7,0-1.4,0.3-2,0.7c-0.3,0.2-0.4,0.4-0.4,0.9V117.6z"/>
	</g>
	<g>
		<g>
			<circle class="st0" cx="281.7" cy="113.8" r="76.2"/>
			<g>
				<path class="st18" d="M245.1,163.8c0,0,9.9-2.5,21,1.3c11.1,3.8,24.3,10.9,31.8,12.9c0,0,21.3-12.1,41.1-25.4
					c0,0-16.1-0.4-28.6-5.8c-12.4-5.3-19.4-5.5-28.8-5.5C281.7,141.3,265.7,148.4,245.1,163.8z"/>
				<g>
					<path class="st3" d="M292.1,81c-1.5-1.7-3.2-3.1-4.9-4.1c0.6-1,0.9-2.2,0.9-3.5c0-4.1-3.3-7.4-7.4-7.4c-4.1,0-7.4,3.3-7.4,7.4
						c0,0.1,0,0.3,0,0.4c-8.5,0.7-15.7,4.9-16.7,5.4c-0.9,0.5-7,4.2-10.8,10c-0.6-0.2-1.3-0.4-2-0.4c-3,0-5.5,2.5-5.5,5.6
						c0,2.7,1.8,4.9,4.3,5.5c0.1,2.2,0.7,4.6,2,7.1c8.1,15.7,30.9,6.5,30.9,6.5C278.8,113.6,305.3,95.9,292.1,81z"/>
					<g>
						<path class="st8" d="M258.2,88.7c0,0,1.7,5,1.3,10.4c-0.5,5.4,3,7.1,4.7,6.1c1.7-1,2.2-2.1,2.1-3.1c-0.1-1,0.3-1.4,2.2-0.8
							c1.8,0.6,2.4,0.7,4.6-0.3c2.2-1,1.5-6.9-2.2-8.1c-3.7-1.3-8.1-3.1-9.8-5.1C259.2,85.6,257.5,86,258.2,88.7z"/>
						<path class="st9" d="M259,93.9l4.8-2.7c0,0,2.6-1.5,1.9,2.4c-0.7,3.9-1.4,4.7-2.5,4.2c-1.1-0.5-3.4-1.9-3.4-1.9
							S257.6,94.8,259,93.9z"/>
						<path class="st5" d="M267.1,86.4c0,0-1.3,0.6-1.6,1.5s0.1,1.6,0.6,1c0.5-0.6,0.9-1.8,2.8-1.9c2-0.1,1.4-1.1,0.6-1.3
							C268.8,85.6,267.8,86,267.1,86.4z"/>
						<path class="st5" d="M253.8,95.5c0,0,0.6-0.5,0.9-1.1c0.3-0.6,0.6-0.6,1.7-0.7c1.1-0.1,1-0.9,0.1-1.1
							c-0.9-0.1-2.1,0.1-2.9,1.1C252.9,94.8,252.9,95.7,253.8,95.5z"/>
					</g>
					<path class="st3" d="M307.5,131.9c0,0,5.4-5.3,2.1-9.1s-7.7-0.6-7.7-0.6L307.5,131.9z"/>
					<path class="st19" d="M307.5,131.9c0,0,5.4-5.3,2.1-9.1s-7.7-0.6-7.7-0.6L307.5,131.9z"/>
					<path class="st3" d="M246.6,123.7c-6.3,1.4-8.7,3.4-7.8,7.4c0.9,4,4.5,4.5,11.1,3.1c1.9-0.4,3.9-1.1,5.7-1.8
						c-3-4.2-3.8-7.9-4.1-10.1C250,122.8,248.4,123.3,246.6,123.7z"/>
					<path class="st3" d="M321,143.9c0,0,0,0-7.2-6.3c-7.2-6.3-14.9-27.2-14.9-27.2s2.9-4.1,3.9-15.8c0.2-1.8,0.3-3.6,0.3-5.4
						c-2.3,0.8-7.5,2-12.1,0c-0.4,7.4-2.6,11.1-2.6,11.1s-22.7,8.3-27.2,14.3c-2.3,3.1-4.4,5-6.8,6.3c0.8,5.1,3,8.4,4.2,10.1
						c3.1-1.5,5.3-2.9,5.3-2.9c1.7,8.5,7.2,15,7.2,15l-3.4,17.7c5.7,5.7,12,2.5,12,2.5l3-16.2c9.1,1.5,15.9-6.6,15.9-6.6
						c4.8,7.4,15.8,13.7,15.8,13.7C322.5,151.3,321,143.9,321,143.9z"/>
					<path class="st3" d="M303.2,85.4c0.1-7.8-0.7-13.9-1.7-14.5c-1.4-0.8-2.2-0.2-2.2-0.2s-0.6-1.9-2.4-2.1s-2.5,1.1-2.5,1.1
						c-3.8-0.6-3.8,5.9-3.4,15.6C293.2,86.3,297.8,87.6,303.2,85.4z"/>
					<path class="st20" d="M251.5,122.3c0.2,2.2,1.1,5.9,4.1,10.1c1.1-0.4,2.1-0.9,3-1.3c-1.3-1.6-3.4-5-4.2-10.1
						C253.5,121.5,252.5,121.9,251.5,122.3z"/>
					<path class="st20" d="M303.1,89.2c0.1-1.3,0.1-2.6,0.1-3.8c-5.5,2.1-10,0.9-12.2,0c0,0.1,0,0.1,0,0.2c0,1.3,0,2.5,0,3.6
						C295.7,91.2,300.9,90,303.1,89.2z"/>
					<path class="st7" d="M282.5,69.9c-3.5-1.6-5.7,2-6.5,3.8c2.9,0.1,5.8,0.6,8.7,1.9C285.1,73.6,285.2,71.1,282.5,69.9z"/>
					<path class="st7" d="M241.4,92.6c-1.1,1.9,0.3,3.6,1.2,4.3c0.3-1.9,0.8-3.7,1.6-5.3C243.2,91.4,242.1,91.5,241.4,92.6z"/>
					<path class="st20" d="M273.2,73.8c-12.7,4.8-21.4,10.1-26,13.3c-1.3,1.6-2.6,3.5-3.4,5.6c12.1-9.6,29.1-16.2,36.1-18.6
						C277.6,73.6,275.3,73.6,273.2,73.8z"/>
					<path class="st188" d="M302.9,92.1c0,0,0.1,20-9.9,22.5"/>
					<path class="st188" d="M263.7,123c0,0-1,5.6,4.3,15.4"/>
					<path class="st188" d="M273.3,145.1c0,0,3,1.5,6.9,1.5"/>
					<path class="st2" d="M271.8,161c-0.5-0.2-0.9,2.3-0.9,2.3c0.3,0.2,0.7,0.3,1.1,0.5C271.6,162.3,272.3,161.1,271.8,161z"/>
					<path class="st2" d="M276.1,161.7c-0.2,0-0.4,0-0.6,0.9c-0.2,0.8-0.5,1.7-0.5,1.7c0.3,0,0.7,0,1,0
						C276.3,162.6,276.3,161.8,276.1,161.7z"/>
					<path class="st2" d="M316.2,150.5c-0.4,0.4,1.7,1.8,1.7,1.8c0.3-0.2,0.6-0.5,0.9-0.8C317.3,151.3,316.6,150.1,316.2,150.5z"/>
					<path class="st2" d="M318.6,146.8c-0.1,0.2-0.2,0.4,0.5,0.9c0.7,0.5,1.3,1.2,1.3,1.2c0.2-0.3,0.3-0.6,0.5-0.9
						C319.6,147,318.8,146.6,318.6,146.8z"/>
					<circle class="st9" cx="295.8" cy="77.2" r="2.1"/>
					<circle class="st9" cx="246.1" cy="129.6" r="1.9"/>
					<path class="st188" d="M298.5,72.2c0,0,0.3-1.6,1.8-1.6c0,0,2.3-0.6,2.6,5.4"/>
					<path class="st188" d="M294.2,72.3c0,0-0.6-2.6,1.3-3.3c0,0,2.7-1.1,3.9,1.8"/>
					<path class="st188" d="M238.8,129.9c0,0,1.2-0.2,3-0.6"/>
					<path class="st188" d="M239.6,132.5c0,0,2-0.1,2.9-0.7"/>
					<path class="st19" d="M252,114.2c0,0,8.3,0.1,19.3-5.3s19.2-16,19.2-16s-0.5,13.6-16.1,20.6C274.4,113.5,262.5,118.7,252,114.2
						z"/>
					<path class="st188" d="M244.5,107c8.1,15.7,30.9,6.5,30.9,6.5"/>
					<path class="st188" d="M290.4,93.6c0,0,0.1,5.3-4.2,9.7"/>
				</g>
				<path class="st189" d="M234.9,129.4c0,0-0.6,12.3,9.3,19.9"/>
				<path class="st189" d="M232.9,138.5c0,0,1.1,7.7,8.8,13.3"/>
				<path class="st189" d="M302.4,63.1c0,0,8,4.4,10.8,15.8"/>
				<path class="st189" d="M309.8,65.5c0,0,3.9,3.6,5.6,12.1"/>
			</g>
			<path class="st23" d="M194.1,6c0-3.3,2.7-6,6-6h163.2c3.3,0,6,2.7,6,6v45.7c0,3.3-2.7,6-6,6H200.1c-3.3,0-6-2.7-6-6V6z"/>
			<g>
				<path class="st8" d="M207.1,20.7c0,0.5,0,0.7,0.4,0.7c0.2,0,1-0.4,1.5-0.6c2.4-1.1,5-2.8,6.9-4.7c0.1-0.1,0.3-0.3,0.4-0.3
					c0.3,0,0.9,1.2,0.9,1.5c0,0.1-0.1,0.2-0.2,0.3c-0.4,0.4-0.8,0.8-1.3,1.1c-2.4,2-5.1,3.5-7.9,4.7c-0.2,0.1-0.4,0.2-0.6,0.3
					c-0.1,0.1-0.3,0.2-0.4,0.2c-0.2,0-1.2-0.5-1.4-0.7c-0.2-0.2-0.2-0.3-0.2-0.6c0-0.6,0-1.3,0-1.9v-7.3c0-0.4,0-0.8,0-1.1
					c0-0.1-0.1-0.5-0.1-0.6c0-0.1,0.1-0.2,0.2-0.2c0.1,0,0.3,0,0.4,0.1c0.3,0,1.2,0.2,1.5,0.3c0.2,0,0.4,0.1,0.4,0.2
					c0,0.1-0.1,0.2-0.2,0.2c-0.2,0.1-0.2,0.4-0.2,0.6c0,0.3,0,0.6,0,0.8V20.7z"/>
				<path class="st8" d="M223.9,15.7c0.2,0.2,0.6,0.9,0.8,1.2c0.2,0.3,0.8,1.2,0.8,1.4c0,0.4-1.1,0.8-1.3,0.8
					c-0.2,0-0.3-0.2-0.3-0.3c-0.4-0.8-0.8-1.5-1.3-2.2c-0.1-0.1-0.1-0.2-0.1-0.3c0-0.3,1-0.8,1.2-0.8
					C223.8,15.5,223.8,15.6,223.9,15.7z M232.8,15.4c0.1,0.1,0.3,0.1,0.3,0.3c0,0.1-0.1,0.2-0.2,0.3c-0.1,0.1-0.2,0.2-0.2,0.4
					c-0.5,1.9-1.2,3.5-2.5,5c-1.3,1.5-3,2.5-4.9,3.1c-0.1,0-0.4,0.1-0.6,0.1c-0.3,0-1-1-1-1.2c0-0.2,0.1-0.3,0.3-0.3
					c2.3-0.6,4.3-1.7,5.6-3.8c0.8-1.2,1.3-2.6,1.5-4.1c0-0.2,0-0.4,0.2-0.4C231.5,14.9,232.6,15.3,232.8,15.4z M228.3,15.8
					c0.2,0.3,0.8,1.2,0.8,1.5c0,0.4-1,0.8-1.3,0.8c-0.2,0-0.3-0.2-0.4-0.3c-0.4-0.8-0.8-1.4-1.3-2.1c-0.1-0.1-0.2-0.2-0.2-0.4
					c0-0.3,1-0.8,1.2-0.8c0.3,0,0.6,0.5,0.9,1L228.3,15.8z"/>
				<path class="st8" d="M248.4,12.3c0.3,0,0.6,0,0.8,0c0.1,0,0.3,0,0.4,0c0.4,0,1.2,1,1.2,1.2c0,0.1-0.2,0.4-0.4,0.7
					c-0.1,0.2-0.2,0.3-0.3,0.5c-0.7,1.2-1.4,2.3-2.3,3.4c-0.1,0.1-0.1,0.2-0.1,0.3c0,0.2,0.1,0.3,0.3,0.4c1,0.6,2.1,1.5,3,2.3
					c0.4,0.4,0.9,0.8,1.3,1.2c0.1,0.1,0.1,0.1,0.1,0.3c0,0.4-1,1.4-1.4,1.4c-0.2,0-0.3-0.1-0.4-0.3c-1.3-1.5-2.4-2.4-4-3.6
					c-0.1-0.1-0.3-0.2-0.4-0.2c-0.2,0-0.4,0.2-0.5,0.3c-1.3,1.2-2.9,2.3-4.5,3.1c-0.2,0.1-0.6,0.3-0.8,0.3c-0.4,0-1.2-1.2-1.2-1.5
					c0-0.2,0.2-0.3,0.4-0.4c3.2-1.2,6.2-4,8-6.8c0.1-0.1,0.3-0.5,0.3-0.6c0-0.3-0.3-0.3-0.5-0.3h-3.7c-0.8,0-1.5,0-2.3,0
					c-0.5,0-0.4-0.3-0.4-1.1c0-0.6,0-0.9,0.4-0.9c0.8,0,1.5,0,2.3,0H248.4z"/>
				<path class="st8" d="M271.2,15.8c0,0.3-0.7,1-1,1.2c-2.9,3-6,5-9.8,6.8c-0.6,0.3-0.6,0.3-0.8,0.6c0,0.1-0.1,0.1-0.2,0.1
					c-0.2,0-0.6-0.7-0.7-0.9c-0.1-0.2-0.5-0.9-0.5-1.1c0-0.2,0.3-0.2,0.6-0.3c4-1.2,8.5-4.6,11-7.8c0.1-0.1,0.2-0.2,0.3-0.2
					C270.5,14.2,271.2,15.5,271.2,15.8z M261.9,12.8c0.2,0.2,1.1,0.8,1.1,1c0,0.4-0.8,1.4-1.2,1.4c-0.1,0-0.5-0.3-0.7-0.5
					c-0.5-0.4-1.7-1.3-2.4-1.7c-0.1-0.1-0.3-0.2-0.3-0.3c0-0.3,0.7-1.4,1.1-1.4C259.8,11.3,261.5,12.6,261.9,12.8z"/>
				<path class="st8" d="M283.8,17.6c0,1.2-0.8,2.2-2.2,2.2c-1.1,0-2-0.8-2-1.9c0-1.2,0.8-2.2,2.2-2.2
					C282.9,15.7,283.8,16.5,283.8,17.6z"/>
				<path class="st8" d="M301.2,22.5c0,0.8,0,1.6,0,2.4c0,0.5-0.2,0.5-0.9,0.5c-1,0-1.2-0.1-1.2-0.5c0-0.8,0-1.5,0-2.3v-4.9
					c0-0.1,0.1-0.5-0.3-0.5c-0.2,0-0.6,0.3-0.7,0.4c-0.5,0.4-3.4,2.3-3.9,2.3c-0.3,0-1.4-1.1-1.4-1.4c0-0.2,0.2-0.3,0.3-0.3
					c2.4-1,5.3-3,7.1-4.8c0.9-0.9,1.8-1.9,2.4-3c0.1-0.1,0.2-0.3,0.3-0.3s0.7,0.4,1.2,0.7c0.2,0.1,0.7,0.4,0.7,0.6
					c0,0.1-0.1,0.1-0.2,0.2c-0.4,0.1-0.5,0.1-0.7,0.4c-0.9,1-1.5,1.7-2.5,2.7c-0.3,0.3-0.4,0.4-0.4,0.8V22.5z"/>
				<path class="st8" d="M318.9,15.5c1.7,1.7,3.4,3.5,5.5,4.8c0.1,0.1,0.3,0.2,0.3,0.4c0,0.3-0.9,1.6-1.5,1.6c-0.3,0-1-0.6-1.2-0.9
					c-1.6-1.5-3.1-3.1-4.7-4.7c-0.2-0.2-0.6-0.6-0.9-0.6c-0.5,0-1,0.5-1.4,0.8c-0.8,0.7-1.9,1.7-2.6,2.6c-0.1,0.1-0.2,0.2-0.4,0.2
					c-0.3,0-1.5-1.4-1.5-1.7c0-0.2,0.3-0.4,0.5-0.4c1.3-0.8,2.6-2,3.7-3c0.4-0.4,1.1-0.7,1.7-0.7C317.4,13.9,318.2,14.8,318.9,15.5z
					 M323,15.4c0,0.3-0.6,0.8-0.8,0.8c-0.1,0-0.2-0.1-0.3-0.2c-0.4-0.5-0.9-0.9-1.3-1.4c-0.1-0.1-0.2-0.1-0.2-0.3
					c0-0.2,0.6-0.8,0.8-0.8C321.5,13.7,323,15.2,323,15.4z M323,12.3c0.2,0,1.8,1.5,1.8,1.7c0,0.3-0.6,0.8-0.8,0.8
					c-0.1,0-0.2-0.2-0.4-0.3c-0.1-0.1-0.1-0.1-0.1-0.2c-0.3-0.4-0.7-0.7-1-1c-0.1-0.1-0.2-0.1-0.2-0.3
					C322.2,12.9,322.8,12.3,323,12.3z"/>
				<path class="st8" d="M343.2,15.8c0,0.3-0.7,1-1,1.2c-2.9,3-6,5-9.8,6.8c-0.6,0.3-0.6,0.3-0.8,0.6c0,0.1-0.1,0.1-0.2,0.1
					c-0.2,0-0.6-0.7-0.7-0.9c-0.1-0.2-0.5-0.9-0.5-1.1c0-0.2,0.3-0.2,0.6-0.3c4-1.2,8.5-4.6,11-7.8c0.1-0.1,0.2-0.2,0.3-0.2
					C342.5,14.2,343.2,15.5,343.2,15.8z M333.9,12.8c0.2,0.2,1.1,0.8,1.1,1c0,0.4-0.8,1.4-1.2,1.4c-0.1,0-0.5-0.3-0.7-0.5
					c-0.5-0.4-1.7-1.3-2.4-1.7c-0.1-0.1-0.3-0.2-0.3-0.3c0-0.3,0.7-1.4,1.1-1.4C331.8,11.3,333.5,12.6,333.9,12.8z"/>
				<path class="st8" d="M354.4,15.4c0.4,0,2.2,1.4,2.5,1.7c0.3,0.2,1.3,1,1.3,1.3c0,0.3-0.8,1.2-1.2,1.2c-0.1,0-0.3-0.1-0.4-0.2
					c-1-0.9-1.5-1.4-2.6-2.1c-0.1,0-0.1-0.1-0.2-0.1c-0.2,0-0.2,0.1-0.2,0.3v4.9c0,0.7,0,1.4,0,2.1c0,0.8,0,0.9-1.1,0.9
					c-0.7,0-1,0-1-0.6c0-0.8,0.1-1.6,0.1-2.4V12.2c0-0.5,0-1-0.1-1.4c0-0.1,0-0.3,0-0.3c0-0.2,0.1-0.3,0.2-0.3
					c0.1,0,0.5,0.1,0.6,0.1c0.8,0.1,1.5,0.2,1.5,0.4c0,0.1-0.1,0.2-0.1,0.2c-0.2,0.2-0.2,0.5-0.2,1c0,0.3,0,0.6,0,1.1v2.7
					c0,0.1,0.1,0.2,0.1,0.2c0.1,0,0.1,0,0.2-0.1C354,15.6,354.2,15.4,354.4,15.4z"/>
				<path class="st8" d="M267.4,35.1c0.4,0,0.8,0,1.1-0.1c0.1,0,0.1,0,0.2,0c0.3,0,0.9,0.9,0.9,1.2c0,0.1-0.1,0.2-0.1,0.3
					c-0.2,0.3-0.3,0.5-0.5,0.9c-0.5,1.2-1.1,2.3-1.7,3.3c-0.1,0.1-0.1,0.2-0.1,0.4c0,0.2,0.2,0.3,0.3,0.5c0.2,0.2,1,0.7,1,0.9
					c0,0.3-0.8,1.4-1.2,1.4c-0.1,0-0.2-0.1-0.3-0.1c-0.3-0.2-0.5-0.4-0.7-0.6c-0.1-0.1-0.2-0.2-0.4-0.2c-0.3,0-0.5,0.3-0.6,0.4
					c-1.1,1.2-2.5,2.3-3.9,3c-0.4,0.2-1.8,0.9-2.2,0.9c-0.5,0-1.3-1.2-1.3-1.4c0-0.2,0.3-0.3,0.8-0.4c1.9-0.6,3.8-1.8,5.1-3.2
					c0.1-0.1,0.3-0.3,0.3-0.5s-0.1-0.3-0.2-0.4c-0.4-0.3-1.4-0.8-1.8-1c-0.2-0.1-0.5-0.2-0.5-0.4c0-0.3,0.7-1.3,1.1-1.3
					c0.3,0,2,1,2.3,1.2c0.1,0.1,0.2,0.1,0.3,0.1c0.3,0,0.5-0.3,1-1.3c0-0.1,0.1-0.1,0.1-0.3c0.2-0.4,0.5-1,0.5-1.2
					c0-0.4-0.5-0.4-0.7-0.4h-3.4c-0.4,0-0.6,0.1-0.8,0.5c-0.6,0.8-1.6,2.1-2.3,2.8c-0.1,0.1-0.4,0.3-0.6,0.3c-0.3,0-1.5-0.8-1.5-1.1
					c0-0.1,0.2-0.3,0.3-0.3c1.8-1.4,4-4.3,4.7-6.5c0.1-0.1,0.1-0.5,0.3-0.5c0.1,0,0.5,0.2,1,0.4c0.2,0.1,1.1,0.5,1.1,0.6
					c0,0.1-0.1,0.2-0.2,0.2c-0.3,0.1-0.3,0.2-0.5,0.6c-0.1,0.1-0.2,0.3-0.3,0.5c-0.1,0.1-0.1,0.3-0.1,0.4c0,0.2,0.2,0.3,0.3,0.3
					H267.4z"/>
				<path class="st8" d="M283.2,44.7c0,0.8,0,1.6,0,2.4c0,0.5-0.2,0.5-0.9,0.5c-1,0-1.2-0.1-1.2-0.5c0-0.8,0-1.5,0-2.3v-4.9
					c0-0.1,0.1-0.5-0.3-0.5c-0.2,0-0.6,0.3-0.7,0.4c-0.5,0.4-3.4,2.3-3.9,2.3c-0.3,0-1.4-1.1-1.4-1.4c0-0.2,0.2-0.3,0.3-0.3
					c2.4-1,5.3-3,7.1-4.8c0.9-0.9,1.8-1.9,2.4-3c0.1-0.1,0.2-0.3,0.3-0.3s0.7,0.4,1.2,0.7c0.2,0.1,0.7,0.4,0.7,0.6
					c0,0.1-0.1,0.1-0.2,0.2c-0.4,0.1-0.5,0.1-0.7,0.4c-0.9,1-1.5,1.7-2.5,2.7c-0.3,0.3-0.4,0.4-0.4,0.8V44.7z"/>
				<path class="st8" d="M303.2,34.6c0.3,0,0.7,0,0.9,0c0.4,0,0.6,0.3,0.9,0.6c0.2,0.2,0.6,0.6,0.6,0.8c0,0.2-0.1,0.3-0.3,1
					c-0.6,3.4-1.9,5.8-4.8,7.7c-1,0.7-2.3,1.4-3.5,1.9c-0.2,0.1-0.4,0.1-0.6,0.1c-0.4,0-1.1-1.2-1.1-1.5c0-0.2,0.2-0.3,0.3-0.3
					c1.5-0.4,3.2-1.3,4.5-2.4c1.6-1.3,2.6-3.2,2.9-5.2c0-0.1,0.1-0.3,0.1-0.5c0-0.3-0.3-0.4-0.6-0.4h-6.4c-0.8,0-1.5,0-2.2,0
					c-0.5,0-0.5-0.2-0.5-1c0-0.8,0-1,0.5-1c0.8,0,1.5,0,2.3,0H303.2z M308.4,33.3c0,1-0.8,1.8-1.8,1.8c-1,0-1.8-0.8-1.8-1.8
					c0-1,0.8-1.8,1.8-1.8C307.6,31.5,308.4,32.3,308.4,33.3z M305.7,33.3c0,0.5,0.4,1,1,1c0.5,0,1-0.4,1-1c0-0.5-0.4-1-1-1
					C306.1,32.3,305.7,32.8,305.7,33.3z"/>
			</g>
		</g>
		<g>
			<circle class="st1" cx="87.6" cy="113.8" r="76.2"/>
			<g>
				<path class="st2" d="M74.7,166.4c-0.6-0.1-0.5,2.4-0.5,2.4c0.4,0.1,0.7,0.2,1.1,0.3C74.7,167.7,75.3,166.4,74.7,166.4z"/>
				<path class="st2" d="M94.4,166.6c-0.6-0.1-0.5,2.4-0.5,2.4l0,0.1c0.4,0.1,0.8,0.1,1.2,0.2c0,0,0,0,0-0.1
					C94.5,167.9,95,166.6,94.4,166.6z"/>
				<path class="st2" d="M78.1,166.4c-0.2,0-0.4,0.1-0.4,1c0,0.8-0.2,1.8-0.2,1.8c0.3,0,0.7-0.1,1-0.2
					C78.5,167.2,78.3,166.4,78.1,166.4z"/>
				<path class="st2" d="M97.8,166.5c-0.2,0-0.4,0.1-0.4,1c0,0.7-0.1,1.5-0.1,1.7c0.3,0,0.7-0.1,1-0.2
					C98.3,167.4,98.1,166.5,97.8,166.5z"/>
				<path class="st3" d="M119.2,131.3c-3-2-4.5-3.5-6.4-6.1c0,0-5.6-7.3-12-10.7c-2.1,3.9-9,16.5-13,15.5c-3.8-0.9-9.2-11-11.2-15
					c-2.5,0.7-6.2,2-10.5,4.3c0,0-4.8-6.1-5.8-7c-1-0.9-2-1.3-4.1-1.2c-2.1,0.1-4.2,2.6-2.8,6.1c1.4,3.5,4,7.2,5.9,9.4
					c1.9,2.2,2.6,3.2,6.3,3.1c3.7-0.1,4.1-0.2,4.1-0.2s-2.3,10.3-0.9,21.4c1.3,11.1,2.9,16.6,2.9,16.6s1,0.9,2.7,1.4
					c0,0-0.1-2.5,0.5-2.4c0.6,0.1,0,1.3,0.7,2.7c0.6,0.1,1.4,0.1,2.1,0c0,0,0.1-0.9,0.2-1.8c0-0.8,0.2-0.9,0.4-1
					c0.2,0,0.4,0.9,0.4,2.6c0.8-0.2,1.7-0.5,2.6-0.9c0,0,0.4-11.8,2.2-17.8c0,0,2.5,0.4,6.4,0.1c0,0,1.1,1.7,0.9,17.6
					c0,0,1.2,0.8,3.2,1.2l0-0.1c0,0-0.1-2.5,0.5-2.4c0.6,0.1,0,1.3,0.7,2.7c0,0,0,0,0,0.1c0.7,0.1,1.4,0,2.1,0c0-0.2,0.1-1,0.1-1.7
					c0-0.8,0.2-0.9,0.4-1c0.2,0,0.4,0.8,0.4,2.5c0.8-0.2,1.7-0.5,2.6-0.9c0,0,6.7-19.6,4.7-37.1c0,0,4.7,5.3,6.3,6.8
					c1.5,1.5,5.7,3.4,8.2,1.1C122.6,136.6,122.2,133.3,119.2,131.3z"/>
				<path class="st3" d="M87.7,129.9c4,1,10.9-11.5,13-15.5c-1.2-0.7-2.5-1.2-3.8-1.5c-7.8-1.8-16.9,1.1-16.9,1.1s-1.3,0.2-3.5,0.8
					C78.6,118.9,83.9,129,87.7,129.9z"/>
				<path class="st4" d="M87.7,129.9c4,1,10.9-11.5,13-15.5c-1.2-0.7-2.5-1.2-3.8-1.5c-7.8-1.8-16.9,1.1-16.9,1.1s-1.3,0.2-3.5,0.8
					C78.6,118.9,83.9,129,87.7,129.9z"/>
				<g>
					<g>
						<g>
							<path class="st3" d="M114.2,88C114.2,88,114.2,88,114.2,88c-0.5-0.7,0.4-1.3,0.4-1.3l0,0c1.9-1.3,3.2-3.4,3.3-5.9
								c0.1-4.2-3.2-7.6-7.5-7.8c-3.8-0.1-7.1,2.4-7.9,5.9l0,0c0,0-0.3,0.8-1.1,0.6c0,0,0,0,0,0c-3.6-1.3-7.7-2-12-2.2
								c-4.3-0.2-8.4,0.3-12.1,1.3c0,0,0,0,0,0c-0.8,0.2-1-0.6-1-0.6l0,0c-0.5-3.5-3.6-6.3-7.4-6.4c-4.3-0.2-7.9,3.1-8.1,7.3
								c-0.1,2.4,1,4.7,2.9,6.1l0,0c0,0,0.8,0.7,0.3,1.3c0,0,0,0,0,0c-2.5,2.8-4,6-4.2,9.5C59.3,106.5,72,115.7,88,116.3
								c16,0.6,29.3-7.7,29.7-18.4C117.8,94.3,116.5,91,114.2,88z"/>
							<g>
								<circle class="st5" cx="80.7" cy="91.3" r="2.3"/>
								<circle class="st5" cx="97" cy="91.9" r="2.3"/>
							</g>
							<g>
								<path class="st6" d="M73.2,79.3C73.2,79.3,73.2,79.3,73.2,79.3C73.2,79.3,73.2,79.3,73.2,79.3z"/>
								<path class="st7" d="M73.2,79.4C73.2,79.3,73.2,79.3,73.2,79.4c0.1-2.5-1.9-4.6-4.5-4.7c-2.6-0.1-4.8,1.8-4.9,4.3
									c-0.1,1.7,0.9,3.3,2.4,4.1c0.2,0.1,0.9,0.3,1.7-0.3c0,0,0,0,0,0c1.4-0.9,2.9-1.7,4.5-2.4c0,0,0,0,0,0
									C73.1,80.1,73.2,79.5,73.2,79.4z"/>
							</g>
							<g>
								<path class="st6" d="M105.3,80.4C105.3,80.5,105.3,80.5,105.3,80.4C105.3,80.5,105.3,80.4,105.3,80.4z"/>
								<path class="st7" d="M105.3,80.5C105.3,80.5,105.3,80.5,105.3,80.5c0.1-2.5,2.3-4.4,4.9-4.3c2.6,0.1,4.6,2.2,4.6,4.6
									c-0.1,1.7-1.2,3.2-2.7,3.9c-0.2,0.1-0.9,0.2-1.7-0.4c0,0,0,0,0,0c-1.3-1-2.7-1.9-4.3-2.7c0,0,0,0,0,0
									C105.4,81.2,105.3,80.6,105.3,80.5z"/>
							</g>
							<path class="st8" d="M97.8,102.9c0.1-2.9-1-4.5-3.5-6.7c-2.5-2.2-3.2-5.8-3.5-7.5c0,0-0.3-1.6-1.8-1.7
								c-1.6-0.1-1.9,1.5-1.9,1.5c-0.4,1.7-1.4,5.2-4,7.2c-2.6,2-3.8,3.5-3.9,6.5c0,0-0.3,3.1,2.4,5.3c2.7,2.2,4.2,1.6,4.8,0.8
								l0.8-0.9c0,0,0.6-0.8,1.1-0.7c0.6,0,1.1,0.8,1.1,0.8l0.7,1c0.6,0.8,2.1,1.6,4.9-0.4C97.8,106,97.8,102.9,97.8,102.9z"/>
							<path class="st9" d="M92.3,97.7c-0.7-0.2-2.4-0.3-3.2-0.3v0l-1,0l0,0c-0.9,0-2.5-0.1-3.1,0.1c-0.9,0.2-1.6,1-0.9,2.4
								c0.8,1.3,3,4.9,4.3,4.9s3.8-3.4,4.6-4.6C93.9,98.9,93.3,98,92.3,97.7z"/>
						</g>
					</g>
				</g>
				<g>
					<path class="st10" d="M102.1,114.8c0,0-0.6-0.2-1.6-0.4l-12.9,14.4l-10.2-14.6c-0.8,0.1-1.6,0.3-2.3,0.4c0,0-5,9-6.4,19.9
						c0,0,5.5,7.2,12.1,12.4l7-5.6l5.2,5.8c0,0,6-4.3,13.6-10.5C106.6,136.7,105.3,123.7,102.1,114.8z"/>
				</g>
				<circle class="st11" cx="88.9" cy="132.6" r="1.1"/>
				<circle class="st11" cx="89.8" cy="138.1" r="1.1"/>
				<polyline class="st190" points="100.5,114.4 86,130.7 86.7,140.2 93,147.2 				"/>
				<path class="st191" d="M94.7,116c-2.8,0.1-5.3,1-5.3,1c-0.1,0-0.1,0-0.2,0c-0.2-0.4-0.7-0.6-1.3-0.6c0,0-1-0.1-1.5,0.3
					c-0.8-0.4-2.8-1.3-4.3-1.6c-1.9-0.4-3.8-0.8-4.9,0.2c-1,1-1.2,4.1-0.2,7.3c0.9,3.2,2.7,4.3,4,4.3c1.3,0,2.8-2.3,3.7-3.8
					c0.7-1.2,1.2-1.8,1.6-2.8c0.4,0.4,0.9,0.5,1.3,0.5c0.2,0,0.5,0,0.8-0.2c0.1,0.7,0.4,1.6,1,2.8c1.1,2.2,2.7,4.7,4.8,4.7
					c2,0,2.5-2.8,3.3-4.7c0.7-1.9,1.9-3,1.9-5.1C99.3,116,97.5,115.9,94.7,116z"/>
				<path class="st192" d="M86.2,118.1c0,0-0.4-1.5,0.8-1.6c1.1-0.2,2.6,0.1,2.3,1.1c-0.3,1.1-0.1,3.2-1.6,3.1
					C87.6,120.7,85.6,120.8,86.2,118.1z"/>
				<path class="st193" d="M86.2,118.1c0,0-2.9-0.4-4.1,0.8c-1.2,1.2-0.2,2.4,0.9,2c1-0.4,1.6-1.4,1.6-1.4"/>
				<path class="st193" d="M89.2,118.4c0,0,2.9,0.1,3.9,1.6c1,1.4-0.3,2.4-1.2,1.8c-1-0.6-1.4-1.7-1.4-1.7"/>
				<path class="st194" d="M49.7,110c0,0,0.7-6.8,0.7-7.7s0.1-1.4-1.3-1.9c-1.4-0.5-2.5-2.6-2.1-5.7c0.4-3.2,2.1-5.4,2.1-5.4
					s3.3,1.1,6.1,0.6c0,0,1.1,2.7,0.9,5.8c-0.3,3.1-1.5,4.6-3,5.1c0,0-1.1,0-1.2,1.7c-0.1,1.7-0.6,7.5-0.6,7.5S50.4,110.7,49.7,110z
					"/>
				<path class="st17" d="M47.9,94.8l6.8,0.7c0,0,0,4.7-3.8,4.4C47,99.5,47.9,94.8,47.9,94.8z"/>
				<path class="st194" d="M61.4,111.4c0,0,0.4-6.8,0.3-7.8c0-0.9,0-1.4-1.4-1.8s-2.6-2.4-2.4-5.6c0.3-3.2,1.8-5.6,1.8-5.6
					s3.3,1,6.1,0.3c0,0,1.3,2.6,1.2,5.8c-0.1,3.1-1.3,4.7-2.8,5.2c0,0-1.1,0.1-1.1,1.8s-0.2,7.5-0.2,7.5S62.2,112.1,61.4,111.4z"/>
				<path class="st17" d="M58.9,96.3l6.8,0.3c0,0,0.2,4.7-3.6,4.6S58.9,96.3,58.9,96.3z"/>
				<path class="st194" d="M55.7,112.3c0,0,0.3-6.7,0.3-7.6c0-0.9,0-1.3-1.4-1.8s-2.6-2.4-2.3-5.5c0.3-3.1,1.8-5.4,1.8-5.4
					s3.3,0.9,6,0.3c0,0,1.3,2.6,1.1,5.7s-1.2,4.6-2.7,5.1c0,0-1.1,0.1-1.1,1.7s-0.2,7.4-0.2,7.4S56.5,113,55.7,112.3z"/>
				<path class="st17" d="M53.2,97.5l6.7,0.3c0,0,0.2,4.6-3.5,4.5S53.2,97.5,53.2,97.5z"/>
				<path class="st194" d="M71.2,109.7l-1.8,4.3c0,0-4.9,1.2-12.9,0.6c-8.1-0.6-12.5-2.4-12.5-2.4l-1.4-4.3c0,0,6.5,1.7,14.5,2.1
					S71.2,109.7,71.2,109.7z"/>
			</g>
			<path class="st9" d="M0,6c0-3.3,2.7-6,6-6h163.2c3.3,0,6,2.7,6,6v45.7c0,3.3-2.7,6-6,6H6c-3.3,0-6-2.7-6-6V6z"/>
			<g>
				<path class="st8" d="M25.8,15.9c0.6-1.1,1.3-2.9,1.5-4.1c0-0.1,0-0.4,0.2-0.4c0.2,0,1,0.3,1.3,0.4c0.3,0.1,1,0.3,1,0.5
					c0,0.1-0.1,0.2-0.2,0.2c-0.3,0.2-0.3,0.3-0.4,0.6c-0.5,1.3-1.1,2.7-1.7,3.9c-0.1,0.1-0.1,0.2-0.1,0.3c0,0.2,0.2,0.4,0.3,0.5
					c0.2,0.2,1.3,1,1.3,1.3c0,0.3-0.8,1.5-1.2,1.5c-0.2,0-0.3-0.2-0.5-0.3c-0.2-0.3-1-1-1.3-1c-0.2,0-0.3,0.1-0.4,0.3
					c-0.9,1.2-2,2.1-3.2,3c-0.4,0.3-2.5,1.5-2.9,1.5c-0.4,0-1.3-1.1-1.3-1.3c0-0.2,0.3-0.3,0.5-0.4c0.1,0,0.1,0,0.1-0.1
					c1.9-0.8,3.6-2,5-3.6c0.1-0.1,0.3-0.3,0.3-0.5c0-0.2-0.1-0.3-0.2-0.4c-0.6-0.3-1.5-0.6-2.1-0.8c-0.2-0.1-0.4-0.1-0.4-0.4
					c0-0.2,0.5-1.4,0.9-1.4c0.4,0,2.2,0.8,2.6,1c0.1,0,0.2,0.1,0.3,0.1C25.6,16.5,25.7,16.2,25.8,15.9z"/>
				<path class="st8" d="M46.7,20.4c0.7,0,1.4,0,2.2,0c0.6,0,0.6,0.2,0.6,1.1c0,0.6,0,0.9-0.5,0.9c-0.7,0-1.5,0-2.2,0h-8.3
					c-0.7,0-1.5,0-2.2,0c-0.5,0-0.5-0.3-0.5-1c0-0.9,0-1.1,0.6-1.1c0.7,0,1.4,0,2.2,0H46.7z M44.9,12.8c0.8,0,1.5,0,2.3,0
					c0.5,0,0.5,0.2,0.5,1c0,0.7,0,1-0.5,1c-0.8,0-1.5,0-2.3,0h-4.7c-0.8,0-1.5,0-2.3,0c-0.6,0-0.5-0.3-0.5-1c0-0.8,0.1-1,0.5-1
					c0.8,0,1.5,0,2.3,0H44.9z"/>
				<path class="st8" d="M62.1,15.4c0.2,0,0.4,0,0.6,0c0.1,0,0.2,0,0.3,0c0.4,0,1,0.5,1,0.9c0,0.1-0.1,0.2-0.1,0.5
					c-0.1,0.3-0.1,0.7-0.1,0.8L63.4,21c0,0.2,0.1,0.4,0.4,0.4h0.5c0.6,0,1.2,0,1.8,0c0.5,0,0.4,0.3,0.4,0.9c0,0.5,0,0.8-0.5,0.8
					c-0.6,0-1.2,0-1.7,0h-7.4c-0.6,0-1.3,0-1.7,0c-0.5,0-0.5-0.4-0.5-0.8c0-0.6,0-0.9,0.5-0.9c0.3,0,1.3,0,1.7,0h4.3
					c0.3,0,0.5-0.2,0.5-0.4l0.3-3.1c0-0.1,0.1-0.3,0.1-0.4c0-0.3-0.3-0.4-0.5-0.4h-2.5c-0.6,0-1.3,0-1.8,0c-0.4,0-0.4-0.3-0.4-0.9
					c0-0.5,0-0.8,0.4-0.8c0.3,0,1.1,0,1.8,0H62.1z"/>
				<path class="st8" d="M82.7,16.5c0.8,0,2-0.1,2.2-0.1c0.5,0,0.5,0.1,0.5,1.1c0,0.6,0,0.9-0.5,0.9c-0.8,0-1.5,0-2.2,0h-8.3
					c-0.7,0-1.5,0-2.2,0c-0.5,0-0.5-0.3-0.5-0.9c0-1,0-1.2,0.5-1.2c0.2,0,1.5,0.1,2.2,0.1H82.7z"/>
				<path class="st8" d="M98.7,17.6c0,1.2-0.8,2.2-2.2,2.2c-1.1,0-2-0.8-2-1.9c0-1.2,0.8-2.2,2.2-2.2C97.8,15.7,98.7,16.5,98.7,17.6
					z"/>
				<path class="st8" d="M117.7,12.9c0.5,0,0.9,0,1.4,0c0.7,0,1.2,0.1,1.2,0.9c0,0.5,0,1.1,0,1.6v6.1c0,0.5,0,1.1,0,1.6
					c0,0.6-0.1,0.6-1.1,0.6c-0.8,0-0.8,0-0.9-0.4c-0.1-0.4-0.3-0.4-0.9-0.4h-5.8c-0.8,0-1.9,0-2.3,0c-0.4,0-0.4-0.3-0.4-1
					c0-0.7,0-1,0.4-1c0.4,0,1.5,0.1,2.3,0.1h6.2c0.3,0,0.5-0.3,0.5-0.5v-5.1c0-0.3-0.2-0.5-0.5-0.5h-6.2c-0.8,0-1.9,0.1-2.3,0.1
					c-0.4,0-0.4-0.3-0.4-1.2c0-0.7,0.1-0.9,0.4-0.9c0.3,0,0.5,0,0.8,0c0.5,0,1,0,1.6,0H117.7z"/>
				<path class="st8" d="M136.7,16.5c0.8,0,2-0.1,2.2-0.1c0.5,0,0.5,0.1,0.5,1.1c0,0.6,0,0.9-0.5,0.9c-0.8,0-1.5,0-2.2,0h-8.3
					c-0.7,0-1.5,0-2.2,0c-0.5,0-0.5-0.3-0.5-0.9c0-1,0-1.2,0.5-1.2c0.2,0,1.5,0.1,2.2,0.1H136.7z"/>
				<path class="st8" d="M153.3,12.3c0.3,0,0.6,0,0.8,0c0.1,0,0.3,0,0.4,0c0.4,0,1.2,1,1.2,1.2c0,0.1-0.2,0.4-0.4,0.7
					c-0.1,0.2-0.2,0.3-0.3,0.5c-0.7,1.2-1.4,2.3-2.3,3.4c-0.1,0.1-0.1,0.2-0.1,0.3c0,0.2,0.1,0.3,0.3,0.4c1,0.6,2.1,1.5,3,2.3
					c0.4,0.4,0.9,0.8,1.3,1.2c0.1,0.1,0.1,0.1,0.1,0.3c0,0.4-1,1.4-1.4,1.4c-0.2,0-0.3-0.1-0.4-0.3c-1.3-1.5-2.4-2.4-4-3.6
					c-0.1-0.1-0.3-0.2-0.4-0.2c-0.2,0-0.4,0.2-0.5,0.3c-1.3,1.2-2.9,2.3-4.5,3.1c-0.2,0.1-0.6,0.3-0.8,0.3c-0.4,0-1.2-1.2-1.2-1.5
					c0-0.2,0.2-0.3,0.4-0.4c3.2-1.2,6.2-4,8-6.8c0.1-0.1,0.3-0.5,0.3-0.6c0-0.3-0.3-0.3-0.5-0.3h-3.7c-0.8,0-1.5,0-2.3,0
					c-0.5,0-0.4-0.3-0.4-1.1c0-0.6,0-0.9,0.4-0.9c0.8,0,1.5,0,2.3,0H153.3z"/>
				<path class="st8" d="M73.3,35.1c0.4,0,0.8,0,1.1-0.1c0.1,0,0.1,0,0.2,0c0.3,0,0.9,0.9,0.9,1.2c0,0.1-0.1,0.2-0.1,0.3
					c-0.2,0.3-0.3,0.5-0.5,0.9c-0.5,1.2-1.1,2.3-1.7,3.3c-0.1,0.1-0.1,0.2-0.1,0.4c0,0.2,0.2,0.3,0.3,0.5c0.2,0.2,1,0.7,1,0.9
					c0,0.3-0.8,1.4-1.2,1.4c-0.1,0-0.2-0.1-0.3-0.1c-0.3-0.2-0.5-0.4-0.7-0.6c-0.1-0.1-0.2-0.2-0.4-0.2c-0.3,0-0.5,0.3-0.6,0.4
					c-1.1,1.2-2.5,2.3-3.9,3c-0.4,0.2-1.8,0.9-2.2,0.9c-0.5,0-1.3-1.2-1.3-1.4c0-0.2,0.3-0.3,0.8-0.4c1.9-0.6,3.8-1.8,5.1-3.2
					c0.1-0.1,0.3-0.3,0.3-0.5c0-0.2-0.1-0.3-0.2-0.4c-0.4-0.3-1.3-0.8-1.8-1c-0.2-0.1-0.5-0.2-0.5-0.4c0-0.3,0.7-1.3,1.1-1.3
					c0.3,0,2,1,2.3,1.2c0.1,0.1,0.2,0.1,0.3,0.1c0.3,0,0.5-0.3,1-1.3c0-0.1,0.1-0.1,0.1-0.3c0.2-0.4,0.5-1,0.5-1.2
					c0-0.4-0.5-0.4-0.7-0.4h-3.4c-0.4,0-0.6,0.1-0.8,0.5c-0.6,0.8-1.6,2.1-2.3,2.8c-0.1,0.1-0.4,0.3-0.6,0.3c-0.3,0-1.5-0.8-1.5-1.1
					c0-0.1,0.2-0.3,0.3-0.3c1.8-1.4,4-4.3,4.7-6.5c0.1-0.1,0.1-0.5,0.3-0.5c0.1,0,0.5,0.2,1,0.4c0.2,0.1,1.1,0.5,1.1,0.6
					c0,0.1-0.1,0.2-0.2,0.2c-0.3,0.1-0.3,0.2-0.5,0.6c-0.1,0.1-0.2,0.3-0.3,0.5c-0.1,0.1-0.1,0.3-0.1,0.4c0,0.2,0.2,0.3,0.3,0.3
					H73.3z"/>
				<path class="st8" d="M89.1,44.7c0,0.8,0,1.6,0,2.4c0,0.5-0.2,0.5-0.9,0.5c-1,0-1.2-0.1-1.2-0.5c0-0.8,0-1.5,0-2.3v-4.9
					c0-0.1,0.1-0.5-0.3-0.5c-0.2,0-0.6,0.3-0.7,0.4c-0.5,0.4-3.4,2.3-3.9,2.3c-0.3,0-1.4-1.1-1.4-1.4c0-0.2,0.2-0.3,0.3-0.3
					c2.4-1,5.3-3,7.1-4.8c0.9-0.9,1.8-1.9,2.4-3c0.1-0.1,0.2-0.3,0.3-0.3s0.7,0.4,1.2,0.7c0.2,0.1,0.7,0.4,0.7,0.6
					c0,0.1-0.1,0.1-0.2,0.2c-0.4,0.1-0.4,0.1-0.7,0.4c-0.9,1-1.5,1.7-2.5,2.7c-0.3,0.3-0.4,0.4-0.4,0.8V44.7z"/>
				<path class="st8" d="M109.1,34.6c0.3,0,0.7,0,0.9,0c0.4,0,0.6,0.3,0.9,0.6c0.2,0.2,0.6,0.6,0.6,0.8c0,0.2-0.1,0.3-0.3,1
					c-0.6,3.4-1.9,5.8-4.8,7.7c-1,0.7-2.3,1.4-3.5,1.9c-0.2,0.1-0.4,0.1-0.6,0.1c-0.4,0-1.1-1.2-1.1-1.5c0-0.2,0.2-0.3,0.3-0.3
					c1.5-0.4,3.2-1.3,4.5-2.4c1.6-1.3,2.6-3.2,2.9-5.2c0-0.1,0.1-0.3,0.1-0.5c0-0.3-0.3-0.4-0.6-0.4h-6.4c-0.8,0-1.5,0-2.2,0
					c-0.5,0-0.5-0.2-0.5-1c0-0.8,0-1,0.5-1c0.8,0,1.5,0,2.3,0H109.1z M114.3,33.3c0,1-0.8,1.8-1.8,1.8c-1,0-1.8-0.8-1.8-1.8
					s0.8-1.8,1.8-1.8C113.5,31.5,114.3,32.3,114.3,33.3z M111.6,33.3c0,0.5,0.4,1,1,1c0.5,0,1-0.4,1-1c0-0.5-0.4-1-1-1
					C112,32.3,111.6,32.7,111.6,33.3z"/>
			</g>
		</g>
	</g>
</g>
</svg>
