<?xml version="1.0" encoding="utf-8"?>
<!-- Generator: Adobe Illustrator 28.0.0, SVG Export Plug-In . SVG Version: 6.00 Build 0)  -->
<svg version="1.1" id="レイヤー_1" xmlns="http://www.w3.org/2000/svg" xmlns:xlink="http://www.w3.org/1999/xlink" x="0px"
	 y="0px" viewBox="0 0 455.4 241.7" style="enable-background:new 0 0 455.4 241.7;" xml:space="preserve">
<style type="text/css">
	.st0{fill:#59C2E1;}
	.st1{fill:#FFFFFF;}
	.st2{fill:#F29600;}
	.st3{fill:#796A56;}
	.st4{opacity:5.000000e-02;}
	.st5{fill:#9CDBED;}
	.st6{fill:#9BDAED;}
	.st7{fill:#E6E6E6;}
	.st8{fill:#DEB253;}
	.st9{fill:#DB3A09;}
	.st10{fill:#DCC58C;}
	.st11{fill:#77A581;}
	.st12{fill:#A5AAAD;}
	.st13{fill:#9F863F;}
	.st14{fill:#F6E0A2;}
	.st15{fill:#F26E64;}
	.st16{fill:none;}
</style>
<g>
	<g>
		<path class="st0" d="M1259.6,104.5c-2.1-4.1-4.6-7.5-7.4-10.3c1.6-1.7,2.8-3.9,3.4-6.3c2-7.9-2.8-15.9-10.7-17.8
			s-15.9,2.8-17.8,10.7c-0.1,0.3-0.1,0.5-0.2,0.8c-16.6-2.8-32.5,1.9-34.7,2.4c-2.1,0.5-15.4,4.6-25.6,14c-1.1-0.7-2.2-1.3-3.6-1.6
			c-5.8-1.5-11.7,2.2-13.2,8.1c-1.3,5.1,1.2,10.2,5.6,12.5c-0.8,4.4-0.8,9.2,0.5,14.6c8.1,34,56.2,27.3,56.2,27.3
			C1218.6,160.7,1278,139.3,1259.6,104.5z"/>
		<g>
			<path class="st1" d="M1191,103c0,0,0.9,10.5-2.6,20.6s2.3,15,6.1,13.9c3.8-1.2,5.2-2.9,5.4-4.9c0.3-2,1.3-2.5,4.6-0.5
				c3.2,2,4.3,2.5,8.9,1.5c4.7-0.9,6.1-12.5-0.3-16.6c-6.4-4.2-14.1-9.8-16.4-14.6S1190.9,97.6,1191,103z"/>
			<path class="st2" d="M1190,113.4l10.5-3c0,0,5.8-1.6,2.6,5.5c-3.2,7.1-4.9,8.3-6.9,6.9c-2-1.4-5.7-5.4-5.7-5.4
				S1186.9,114.5,1190,113.4z"/>
			<path class="st3" d="M1209.1,102.8c0,0-2.7,0.6-3.8,2.2c-1,1.5-0.6,3.1,0.6,2.2c1.2-0.8,2.5-3,6.4-2.3c3.8,0.7,3.2-1.5,1.8-2.1
				S1210.7,102.4,1209.1,102.8z"/>
			<path class="st3" d="M1179.3,113.9c0,0,1.3-0.7,2.2-1.6c0.9-0.9,1.4-0.9,3.6-0.5c2.2,0.4,2.4-1.3,0.8-2s-4.2-0.9-6.1,0.8
				C1177.7,112.3,1177.5,113.9,1179.3,113.9z"/>
		</g>
		<path class="st0" d="M1264.9,209.5c0,0,13-7.6,8.5-16.4c-4.5-8.9-14.5-4.9-14.5-4.9L1264.9,209.5z"/>
		<path class="st4" d="M1264.9,209.5c0,0,13-7.6,8.5-16.4c-4.5-8.9-14.5-4.9-14.5-4.9L1264.9,209.5z"/>
		<path class="st0" d="M1151.9,164.6c-12.7-0.4-18.3,2.4-18.5,10.5c-0.2,8.1,6.4,10.7,19.8,11.2c3.8,0.2,7.9-0.2,11.8-0.7
			c-3.7-9.5-3.6-17-2.9-21.3C1158.9,164.6,1155.6,164.7,1151.9,164.6z"/>
		<path class="st0" d="M1285.1,239c0,0,0,0-10.8-15.5c-10.8-15.5-15.5-59.4-15.5-59.4s7.5-6.5,15-28.4c1.2-3.4,2.3-6.9,3.3-10.2
			c-4.7,0.4-15.3,0.3-23.3-5.8c-4.3,14.1-10.3,20.1-10.3,20.1s-47.7,5.1-59.1,14.4c-5.9,4.8-10.9,7.5-16.1,8.9
			c-0.8,10.1,1.7,17.6,3.3,21.3c6.7-1.4,11.7-3,11.7-3c-0.8,17.1,6.7,32.2,6.7,32.2l-15.1,32.4c8.2,13.7,21.8,10.6,21.8,10.6
			l13.5-29.7c16.9,7.2,33.7-5.1,33.7-5.1c5.7,16.6,23.7,33.9,23.7,33.9C1284.4,254,1285.1,239,1285.1,239z"/>
		<path class="st0" d="M1279,118.3c3.8-14.9,5.3-27,3.7-28.6c-2.3-2.2-4.1-1.5-4.1-1.5s-0.2-4-3.6-5.1s-5.4,1-5.4,1
			c-6.9-2.9-10.1,9.5-14.1,28.3C1259.3,115.2,1267.5,119.8,1279,118.3z"/>
		<path class="st0" d="M1162,164.3c-0.6,4.3-0.7,11.9,2.9,21.3c2.2-0.3,4.4-0.7,6.4-1.1c-1.7-3.7-4.2-11.2-3.3-21.3
			C1166.1,163.7,1164.1,164,1162,164.3z"/>
		<path class="st0" d="M1277,125.5c0.7-2.5,1.4-4.9,2-7.2c-11.5,1.5-19.7-3.1-23.5-5.9c0,0.1,0,0.2-0.1,0.3
			c-0.5,2.5-1.1,4.8-1.8,6.9C1261.7,125.8,1272.3,125.9,1277,125.5z"/>
		<path class="st5" d="M1246.5,78.5c-6-4.7-11.9,1.1-14.4,4.2c5.5,1.5,11,3.9,15.8,7.7C1249.9,86.9,1251.1,82.1,1246.5,78.5z"/>
		<path class="st5" d="M1156.8,102.5c-3.1,3.1-1.2,7,0.2,8.9c1.4-3.5,3.4-6.6,5.7-9.4C1160.8,101,1158.7,100.7,1156.8,102.5z"/>
		<path class="st6" d="M1245.4,170c-0.3,0-0.6-0.2-0.6-0.6c0-0.3,0.3-0.6,0.6-0.6h0c0,0,0,0,0,0c19.6,0,29-37.6,29.1-38
			c0.1-0.3,0.4-0.5,0.7-0.4c0.3,0.1,0.5,0.4,0.4,0.7c0,0.1-2.4,9.8-7.3,19.3C1261.9,163.2,1253.9,170,1245.4,170z"/>
		<path class="st6" d="M1186,203.7c-0.3,0-0.5-0.2-0.5-0.4c-5.5-21.2-1-31.5-0.8-31.9c0.1-0.3,0.5-0.4,0.7-0.3
			c0.3,0.1,0.4,0.5,0.3,0.7c0,0.1-4.5,10.4,0.9,31.2c0.1,0.3-0.1,0.6-0.4,0.7C1186.1,203.7,1186,203.7,1186,203.7z"/>
		<path class="st6" d="M1205.5,225.4c0,0-0.1,0-0.1,0c-7.5-1.9-12.6-6.2-12.8-6.3c-0.2-0.2-0.3-0.6-0.1-0.8c0.2-0.2,0.6-0.3,0.8-0.1
			c0,0,5.1,4.3,12.3,6.1c0.3,0.1,0.5,0.4,0.4,0.7C1206,225.2,1205.7,225.4,1205.5,225.4z"/>
		<path class="st7" d="M1182.4,248.3c-1-0.6-2.8,4-2.9,4c0.5,0.5,1.2,1,1.8,1.4C1181.4,250.7,1183.4,248.8,1182.4,248.3z"/>
		<path class="st7" d="M1190.3,251.8c-0.4-0.2-0.8-0.1-1.6,1.3c-0.7,1.5-1.7,3-1.8,3.1c0.6,0.2,1.3,0.4,2,0.6
			C1190.3,253.7,1190.7,252,1190.3,251.8z"/>
		<path class="st7" d="M1272.7,249.5c-0.9,0.6,2.3,4.3,2.3,4.3c0.7-0.3,1.4-0.6,2.1-1C1274.5,251.5,1273.7,248.9,1272.7,249.5z"/>
		<path class="st7" d="M1279.2,243.5c-0.3,0.3-0.5,0.7,0.5,2c1,1.3,2,2.9,2,2.9c0.5-0.5,0.9-1,1.4-1.5
			C1280.9,244.3,1279.5,243.2,1279.2,243.5z"/>
		<circle class="st2" cx="1268.7" cy="98.8" r="4.2"/>
		<circle class="st2" cx="1148.2" cy="175.7" r="3.8"/>
		<path class="st6" d="M1282.8,100.6c0,0-0.1,0-0.1,0c-0.3-0.1-0.5-0.4-0.4-0.7c1.3-6.4,0.4-9.1-0.5-10.2c-0.6-0.8-1.3-0.8-1.4-0.8
			c0,0-0.1,0-0.1,0c-2.4-0.6-3.5,1.8-3.6,1.9c-0.1,0.3-0.5,0.4-0.7,0.3c-0.3-0.1-0.4-0.5-0.3-0.7c0.5-1.2,2.2-3.2,4.8-2.6
			c0.3,0,1.3,0.2,2.1,1.2c1.6,1.9,1.9,5.7,0.8,11.2C1283.3,100.4,1283.1,100.6,1282.8,100.6z"/>
		<path class="st6" d="M1267.9,89.3C1267.8,89.3,1267.8,89.3,1267.9,89.3c-0.3,0-0.6-0.3-0.6-0.6c0-2,1.1-5.9,4.6-6.3
			c0.1,0,6.2-0.8,7.3,5.7c0.1,0.3-0.2,0.6-0.5,0.6c-0.3,0-0.6-0.2-0.6-0.5c-0.9-5.4-5.8-4.8-6-4.8c-3.5,0.4-3.6,5-3.6,5.2
			C1268.4,89.1,1268.2,89.3,1267.9,89.3z"/>
		<path class="st6" d="M1140,173.7C1140,173.7,1140,173.7,1140,173.7c-3.7-0.1-6.1-0.3-6.1-0.3c-0.3,0-0.5-0.3-0.5-0.6
			c0-0.3,0.3-0.5,0.6-0.5c0,0,2.4,0.2,6,0.3c0.3,0,0.6,0.3,0.5,0.6C1140.6,173.5,1140.3,173.7,1140,173.7z"/>
		<path class="st6" d="M1137.7,179.2c-1.8,0-3.5-0.3-3.6-0.4c-0.3-0.1-0.5-0.4-0.4-0.7s0.4-0.5,0.7-0.4c0,0,3.8,0.7,5.6,0
			c0.3-0.1,0.6,0,0.7,0.3c0.1,0.3,0,0.6-0.3,0.7C1139.6,179.1,1138.6,179.2,1137.7,179.2z"/>
		<path class="st4" d="M1166.8,149c0,0,16,4.2,39.7-0.9c23.7-5.1,44.6-21.5,44.6-21.5s-7.4,26-40.8,31.8
			C1210.3,158.3,1184.8,162.6,1166.8,149z"/>
		<path class="st6" d="M1202.9,159.9c-14.5,0-41.6-3.4-47.6-28.2c-0.1-0.3,0.1-0.6,0.4-0.7c0.3-0.1,0.6,0.1,0.7,0.4
			c7.9,33.1,55,26.9,55.5,26.9c0.3,0,0.6,0.2,0.6,0.5s-0.2,0.6-0.5,0.6C1212,159.4,1208.3,159.9,1202.9,159.9z"/>
		<path class="st6" d="M1237.7,144.9c-0.2,0-0.4-0.1-0.5-0.3c-0.2-0.3-0.1-0.6,0.2-0.8c9.9-6.1,12.4-16.1,12.4-16.2
			c0.1-0.3,0.4-0.5,0.7-0.4c0.3,0.1,0.5,0.4,0.4,0.7c-0.1,0.4-2.5,10.5-12.9,16.9C1237.9,144.8,1237.8,144.9,1237.7,144.9z"/>
	</g>
</g>
<g>
	<path class="st0" d="M279.3,191.8c0,0,13.7-8,8.9-17.3c-4.7-9.3-15.3-5.2-15.3-5.2L279.3,191.8z"/>
	<path class="st4" d="M279.3,191.8c0,0,13.7-8,8.9-17.3c-4.7-9.3-15.3-5.2-15.3-5.2L279.3,191.8z"/>
	<g>
		<g>
			<path class="st8" d="M124.7,140.4c-20.6,3.3-40.6,10.3-59.1,20.6c2.5,0.6,4.7,2.8,5.4,5.5c12.4-11,28.7-16.8,44.7-16
				C118.8,147.7,121.8,144.1,124.7,140.4z"/>
			<path class="st9" d="M44.8,161.4c2,0.7,3.8,1.9,5.5,2.9c15.2-6.8,26.7-22.7,28.9-40.3c0.4-3.2,0.5-6.5,1.4-9.6
				c2.5-9.1,10.3-15.1,18-19.6c-4-0.1-8-0.9-11.8-2.3c0.1,4.9-4.6,8-7.7,11.6c-2.1,2.4-3.7,5.3-4.5,8.5c-0.9,3.7-0.9,7.6-1.3,11.4
				C71.7,141,60,156.3,44.8,161.4z"/>
			<path class="st10" d="M16.9,126c2.3,1.6,4,4.1,5.3,6.7c3.1,5.9,5.3,12.6,5.4,19.4s-2,13.8-6.5,18.7c2.5-1.1,5.3-1.5,8.2-0.6
				c7.3-15,5.2-34.8-5-47.6c-2.2-2.7-4.8-5.3-7.9-6.4c-2.1,3.4-4.6,6.6-7.2,9.6C11.3,124,14.5,124.4,16.9,126z"/>
			<path class="st11" d="M92.5,177.8c-7.2,1.1-14.3-2.9-21.5-1.9c-4,0.5-7.7,2.6-11.3,4.6c-1.5,4-2.8,8.7-4.7,13.1
				c5.5-6.2,12.1-12.8,20.1-12.3c2.5,0.2,5,1.1,7.4,1.7c6.1,1.6,12.6,1.3,18.6-0.7c0.5-5,1.8-9.9,3.9-14.4
				C102.7,173.1,97.8,177,92.5,177.8z"/>
			<path class="st10" d="M86.6,130.9c2.1,2.7,3.4,6.3,3.4,9.9c3.1-1.8,6.1-3.8,8.9-6.1c1.3,0.6-1.7-4.9-2.3-7.6
				C93.3,128.9,90,130.1,86.6,130.9z"/>
			<path class="st12" d="M50.7,180.3c1.1,0.4-1.3-3.7-1.7-5.6c-2.9,1.4-5.9,2.6-9,3.4c1.8,2,2.7,4.6,2.5,7.4
				C45.3,183.9,48.1,182.2,50.7,180.3z"/>
			<path class="st12" d="M65.6,125.2c-0.4-2.9-0.7-5.1-0.5-7.2c-3.5,0.9-7,1.9-10.6,2c1.1,2.5,1.8,5.3,2,8.1
				C59.5,127.1,62.6,126.1,65.6,125.2z"/>
			<path class="st13" d="M104,80.1c5.1-2.3,9.4-6.3,12.2-11.4c-1.5-0.4-3.5-1.7-5.1-3.5c-1.6,3.1-3.4,6.4-6.5,7.5
				c-1,0.3-2.1,0.4-2.9-0.4C103.4,74.5,104.2,77.3,104,80.1z"/>
			<path class="st13" d="M118.3,164.7c-1.1-0.4-2.4-0.5-3.6-0.2c0.3,1.1,0,2.2-0.3,3.3c-0.5,2-1.1,3.9-1.6,5.9
				c0.6-2.3,3.4-3.2,5.4-2.2c2,1,3.1,3.4,3.4,5.7c1.2-1.8,3.3-5.5,3.7-5.6C123.5,168.7,121.4,165.7,118.3,164.7z"/>
			<path class="st13" d="M125.4,171.6c0,0,0.1,0.1,0.1,0.1C125.5,171.6,125.4,171.6,125.4,171.6z"/>
			<path class="st11" d="M42.2,148.6c3.1-0.6,6.3-1.3,9.4-1.9c-0.3-2.6-0.2-4.6-0.2-6.5c-2.3,1.6-5.4,1.6-7.8,0.2
				C44.6,143.1,44.1,146.4,42.2,148.6z"/>
			<path class="st11" d="M18.6,155.2c-0.7-3.4-1.4-6.7-2.1-10.1c-2.4,0.4-4.2,0.4-6,0.4c1.5,2.5,1.7,5.8,0.4,8.4
				C13.5,152.7,16.6,153.2,18.6,155.2z"/>
			<path class="st9" d="M78.7,199.6c-1.8-1.7-4.2-2.6-6.5-2.3c-2.3,0.3-4.6,1.6-5.9,3.7c1.2,1.8,2.6,3.5,4.2,5c2.6-2,6.5-2,9.1,0.1
				C79.6,203.6,78.7,199.2,78.7,199.6z"/>
			<path class="st9" d="M36.4,105.2c3.4-0.4,6.9-1.2,10.2-2.3c-0.1-0.2-0.7-6.6-2.3-9.8c-2.1,2.2-5.6,2.8-8.2,1.3
				C37.3,97.8,37.4,101.7,36.4,105.2z"/>
			<path class="st9" d="M46.6,102.9C46.6,102.9,46.6,102.9,46.6,102.9C46.6,102.9,46.6,102.9,46.6,102.9z"/>
			<path class="st11" d="M109.5,112.2c0.4-2.2,2.3-3.8,4.2-4.7c1.9-0.8,6.2-2.1,6.1-2.2c-1.5-1.3-2.7-3.1-3.4-5.1
				c-2.8,1.9-5.9,3.1-9.2,3.7C108,106.7,108.7,109.5,109.5,112.2z"/>
			<polygon class="st14" points="38.8,190.2 42.5,193.1 47.3,207 54.3,202.4 			"/>
			<polygon class="st14" points="33.1,185.7 14.7,171.2 0,238 6.5,233.8 3.1,223.9 5.8,211.6 12.1,230.1 8.3,232.6 22.8,223.1 
				18.2,226.1 8.7,198.4 11.4,186.2 23.8,222.4 29.9,218.4 14.3,173 14.7,171.2 22.8,177.6 35.6,214.7 33,216.4 42.1,210.4 
				41.6,210.7 			"/>
			<polygon class="st15" points="5.8,211.6 3.1,223.9 6.5,233.8 6.5,233.8 8.3,232.6 12.1,230.1 			"/>
			<polygon class="st15" points="22.8,177.6 14.7,171.2 14.3,173 29.9,218.4 29.9,218.4 33,216.4 35.6,214.7 			"/>
			<polygon class="st15" points="8.7,198.4 18.2,226.1 22.8,223.1 23.8,222.4 23.8,222.4 11.4,186.2 			"/>
			<polygon class="st15" points="38.8,190.2 33.1,185.7 33.1,185.7 41.6,210.7 42.1,210.4 47.3,207 47.3,207 42.5,193.1 			"/>
		</g>
		<g>
			<path class="st8" d="M389.8,161c-18.5-10.2-38.5-17.2-59.1-20.6c2.9,3.7,5.9,7.3,9,10.1c16-0.9,32.3,4.9,44.7,16
				C385.1,163.7,387.2,161.5,389.8,161z"/>
			<path class="st9" d="M374.8,114.3c0.8,3.1,1,6.4,1.4,9.6c2.3,17.6,13.7,33.6,28.9,40.3c1.7-0.9,3.5-2.2,5.5-2.9
				c-15.1-5.1-26.8-20.4-28.6-37.4c-0.4-3.8-0.3-7.7-1.3-11.4c-0.8-3.2-2.4-6.1-4.5-8.5c-3.1-3.5-7.8-6.7-7.7-11.6
				c-3.8,1.4-7.8,2.2-11.8,2.3C364.5,99.2,372.3,105.2,374.8,114.3z"/>
			<path class="st10" d="M434.4,170.8c-4.5-4.8-6.6-11.9-6.5-18.7c0.1-6.8,2.2-13.5,5.4-19.4c1.4-2.6,3-5.1,5.3-6.7
				c2.3-1.6,5.5-1.9,7.8-0.2c-2.7-3-5.1-6.2-7.2-9.6c-3.2,1.1-5.8,3.6-7.9,6.4c-10.2,12.9-12.3,32.6-5,47.6
				C429.1,169.3,431.9,169.7,434.4,170.8z"/>
			<path class="st11" d="M384.4,175.9c-7.2-0.9-14.4,3-21.5,1.9c-5.3-0.8-10.2-4.7-12.5-9.9c2.1,4.5,3.4,9.4,3.9,14.4
				c6,2,12.5,2.3,18.6,0.7c2.5-0.6,4.9-1.6,7.4-1.7c7.9-0.6,14.6,6.1,20.1,12.3c-2-4.3-3.2-9.1-4.7-13.1
				C392.1,178.5,388.4,176.4,384.4,175.9z"/>
			<path class="st10" d="M356.6,134.8c2.8,2.2,5.8,4.3,8.9,6.1c0-3.6,1.2-7.2,3.4-9.9c-3.4-0.8-6.8-2.1-9.9-3.7
				C358.3,129.8,355.3,135.4,356.6,134.8z"/>
			<path class="st12" d="M406.4,174.7c-0.4,2-2.8,6-1.7,5.6c2.6,1.9,5.4,3.6,8.2,5.2c-0.2-2.7,0.7-5.4,2.5-7.4
				C412.3,177.3,409.3,176.1,406.4,174.7z"/>
			<path class="st12" d="M398.9,128c0.2-2.8,0.9-5.6,2-8.1c-3.6-0.1-7.1-1-10.6-2c0.2,2.1-0.1,4.3-0.5,7.2
				C392.8,126.1,395.9,127.1,398.9,128z"/>
			<path class="st13" d="M351.4,80.1c-0.2-2.8,0.6-5.6,2.3-7.8c-0.7,0.8-1.9,0.7-2.9,0.4c-3.1-1.1-4.9-4.4-6.5-7.5
				c-1.6,1.7-3.6,3-5.1,3.5C342,73.8,346.3,77.8,351.4,80.1z"/>
			<path class="st13" d="M340.7,164.5c-1.2-0.2-2.4-0.1-3.6,0.2c-3.1,1-5.2,4-7.1,6.9c0.4,0.1,2.5,3.8,3.7,5.6
				c0.3-2.3,1.5-4.7,3.4-5.7c2-1,4.8-0.1,5.4,2.2c-0.5-2-1.1-3.9-1.6-5.9C340.7,166.7,340.4,165.5,340.7,164.5z"/>
			<path class="st13" d="M329.9,171.7c0,0,0.1-0.1,0.1-0.1C330,171.6,329.9,171.6,329.9,171.7z"/>
			<path class="st11" d="M413.2,148.6c-1.8-2.1-2.4-5.5-1.4-8.2c-2.4,1.4-5.5,1.4-7.8-0.2c0,1.9,0.1,3.8-0.2,6.5
				C407,147.3,410.1,148,413.2,148.6z"/>
			<path class="st11" d="M438.9,145.1c-0.7,3.4-1.4,6.7-2.1,10.1c2-1.9,5.1-2.4,7.6-1.3c-1.3-2.6-1.1-6,0.4-8.4
				C443.1,145.5,441.3,145.5,438.9,145.1z"/>
			<path class="st9" d="M383.2,197.3c-2.3-0.3-4.8,0.6-6.5,2.3c0-0.4-0.9,4-0.8,6.6c2.6-2.1,6.4-2.2,9.1-0.1c1.6-1.5,3-3.2,4.2-5
				C387.8,199,385.6,197.6,383.2,197.3z"/>
			<path class="st9" d="M419.3,94.4c-2.6,1.4-6.1,0.9-8.2-1.3c-1.6,3.2-2.2,9.6-2.3,9.8c3.3,1.1,6.7,1.9,10.2,2.3
				C418,101.7,418.1,97.8,419.3,94.4z"/>
			<path class="st9" d="M408.8,102.9C408.8,102.9,408.8,102.9,408.8,102.9C408.8,102.9,408.8,102.9,408.8,102.9z"/>
			<path class="st11" d="M345.9,112.2c0.8-2.8,1.5-5.5,2.3-8.3c-3.2-0.6-6.4-1.8-9.2-3.7c-0.7,2-1.9,3.8-3.4,5.1
				c-0.2,0.1,4.1,1.4,6.1,2.2C343.7,108.4,345.6,110,345.9,112.2z"/>
			<polygon class="st14" points="416.7,190.2 401.1,202.4 408.2,207 412.9,193.1 			"/>
			<polygon class="st14" points="443.3,230.1 449.6,211.6 452.3,223.9 448.9,233.8 455.4,238 440.7,171.2 422.4,185.7 413.8,210.7 
				413.4,210.4 422.5,216.4 419.9,214.7 432.6,177.6 440.7,171.2 441.1,173 425.5,218.4 431.6,222.4 444,186.2 446.7,198.4 
				437.2,226.1 432.6,223.1 447.1,232.6 			"/>
			<polygon class="st15" points="449.6,211.6 443.3,230.1 447.1,232.6 448.9,233.8 448.9,233.8 452.3,223.9 			"/>
			<polygon class="st15" points="440.7,171.2 432.6,177.6 419.9,214.7 422.5,216.4 425.5,218.4 425.5,218.4 441.1,173 			"/>
			<polygon class="st15" points="446.7,198.4 444,186.2 431.6,222.4 431.6,222.4 432.6,223.1 437.2,226.1 			"/>
			<polygon class="st15" points="422.4,185.7 422.4,185.7 416.7,190.2 412.9,193.1 408.2,207 408.2,207 413.4,210.4 413.8,210.7 			
				"/>
		</g>
	</g>
	<g>
		<g>
			<path class="st2" d="M374.7,42.5c-0.2,0-0.5-0.1-0.7-0.2c-0.7-0.4-1-1.3-0.6-2l17.1-31.8c0.4-0.7,1.3-1,2-0.6
				c0.7,0.4,1,1.3,0.6,2L376,41.7C375.7,42.2,375.2,42.5,374.7,42.5z"/>
			<path class="st2" d="M383.9,44.2c-0.3,0-0.5-0.1-0.7-0.2c-0.7-0.4-1-1.3-0.6-2L404,4.3c0.4-0.7,1.3-1,2-0.6c0.7,0.4,1,1.3,0.6,2
				l-21.5,37.7C384.9,43.9,384.4,44.2,383.9,44.2z"/>
		</g>
		<g>
			<path class="st2" d="M80.7,42.5c-0.5,0-1.1-0.3-1.3-0.8L62.3,9.9c-0.4-0.7-0.1-1.6,0.6-2c0.7-0.4,1.6-0.1,2,0.6l17.1,31.8
				c0.4,0.7,0.1,1.6-0.6,2C81.2,42.4,81,42.5,80.7,42.5z"/>
			<path class="st2" d="M71.6,44.2c-0.5,0-1-0.3-1.3-0.8L48.8,5.8c-0.4-0.7-0.2-1.6,0.6-2c0.7-0.4,1.6-0.2,2,0.6L72.9,42
				c0.4,0.7,0.2,1.6-0.6,2C72.1,44.1,71.8,44.2,71.6,44.2z"/>
		</g>
	</g>
	<g>
		<path class="st2" d="M107.6,13.2c-0.1-0.7-0.4-1.3-1-2c-0.6-0.7-1.7-1.1-3.7-0.8c-1,0.1-4.4,0.5-4.1,3c0.2,1.9,1.6,2.2,7.5,3.4
			c3.4,0.7,6.7,1.4,7.2,5.3c0.3,2.4-0.8,7-7.9,7.9c-4.2,0.5-9.5-0.4-10.5-6.1l4.3-0.5c0.4,2.4,2.2,3.5,5.6,3.1
			c0.9-0.1,2.5-0.4,3.4-1.2c0.6-0.5,1-1.4,0.9-2.2c-0.2-1.7-1.7-2.1-5.4-2.7c-5.3-0.9-8.8-1.8-9.3-5.9c-0.3-2.4,0.6-6.6,7.6-7.5
			c5.1-0.6,8.3,0.8,9.7,5.8L107.6,13.2z"/>
		<path class="st2" d="M121.4,11.4l0.2,1.9c1.1-2,3-2.8,4.9-3c5.1-0.5,7.9,2.9,8.4,7.9c0.6,6.1-2.6,8.9-6.5,9.3
			c-3.7,0.4-5.2-1.5-5.7-2.1l0.6,5.7l-3.8,0.4l-1.9-19.8L121.4,11.4z M122.2,19.4c0.1,1,0.5,5.5,4.9,5c4.4-0.4,4-4.9,3.9-5.9
			c-0.2-2.5-1.3-5.4-5-5.1C121.7,13.9,122.1,18.4,122.2,19.4z"/>
		<path class="st2" d="M156.2,19.6c-0.3,1.3-1.3,5.6-7.8,6.1c-5.2,0.4-8.9-2.4-9.3-8c-0.5-6.5,3.8-9,7.8-9.3
			c3.3-0.3,6.1,0.9,7.8,3.6c0.8,1.3,1.2,2.7,1.6,5.2l-13.3,1c0.6,4.8,4.2,4.5,5.2,4.4c2-0.2,3.6-0.9,4.1-2.8L156.2,19.6z M152.2,15
			c-0.3-1-1.3-3.9-5.1-3.6c-3.6,0.3-4.1,3.1-4.3,4.3L152.2,15z"/>
		<path class="st2" d="M177.6,17.3c-0.2,4.3-3.3,6.8-8,7.1c-6.5,0.4-9.1-3.7-9.3-8c-0.3-5.3,2.8-8.9,8.3-9.2c0.9,0,7.4-0.4,8.6,5.9
			l-3.9,0.2c-0.5-3.4-3.7-3.2-4.5-3.1c-1.1,0.1-2.8,0.4-3.7,1.8c-0.9,1.4-0.9,3.1-0.9,4.1c0,0.8,0.3,3,1.6,4.3
			c0.6,0.6,1.6,1.3,3.5,1.1c4-0.2,4.1-2.8,4.2-3.9L177.6,17.3z"/>
		<path class="st2" d="M186.6,4.7l-3.9,0.2L182.5,1l3.9-0.2L186.6,4.7z M187.3,22.9l-3.8,0.2l-0.7-16.1l3.8-0.2L187.3,22.9z"/>
		<path class="st2" d="M193.3,11.3c0.2-1.5,0.5-5.4,7.9-5.6c1.8,0,7.7,0.1,7.8,5.1l0.2,9c0,0.5,0.3,1.6,0.8,2l0,0.4l-4,0.1
			c-0.5-0.7-0.5-1.5-0.5-1.9c-1,1.2-2.6,2.6-6.3,2.7c-1.5,0-6.4,0.1-6.6-4.8c-0.1-4,3.3-4.5,7.3-5.1c4.2-0.7,5.4-0.8,5.4-2.3
			c-0.1-2.2-2.8-2.1-3.6-2.1c-4.3,0.1-4.6,1.4-4.6,2.5L193.3,11.3z M205.4,14.4c-0.9,0.5-3.2,0.9-4.6,1.1c-2.7,0.5-4.2,0.7-4.1,2.4
			c0,0.6,0.3,2.2,3.6,2.1c3.2-0.1,5.2-2,5.2-3.6L205.4,14.4z"/>
		<path class="st2" d="M219.1,0l0.2,22.1l-3.8,0l-0.2-22.1L219.1,0z"/>
		<path class="st2" d="M256.1,0.3l-0.1,3.2l-7.8-0.1l-0.3,18.8l-4.2-0.1l0.3-18.8l-7.8-0.1l0.1-3.2L256.1,0.3z"/>
		<path class="st2" d="M264.7,0.6l-0.3,8c0.6-0.7,2.2-2.5,5.6-2.4c3.9,0.2,6.5,2.8,6.4,6.6L276,23.2l-3.8-0.1l0.4-9.9
			c0.1-1.7-0.9-3.9-3.9-4c-0.8,0-2.8,0.1-3.8,1.7c-0.5,0.8-0.7,1.7-0.7,2.2l-0.4,9.7l-3.8-0.1l0.9-22.1L264.7,0.6z"/>
		<path class="st2" d="M282.1,12.1c0.3-1.5,1-5.3,8.4-4.9c1.8,0.1,7.6,0.8,7.3,5.7l-0.5,9c0,0.5,0.1,1.7,0.6,2.1l0,0.4l-4-0.2
			c-0.4-0.7-0.4-1.6-0.4-2c-1.1,1.1-2.8,2.4-6.5,2.2c-1.5-0.1-6.4-0.5-6.1-5.4c0.2-4,3.7-4.2,7.7-4.5c4.3-0.3,5.5-0.4,5.6-1.9
			c0.1-2.2-2.6-2.3-3.4-2.4c-4.2-0.3-4.7,1-4.8,2.1L282.1,12.1z M293.8,16.2c-1,0.4-3.3,0.6-4.7,0.7c-2.7,0.2-4.2,0.4-4.3,2.1
			c0,0.6,0.1,2.3,3.4,2.4c3.2,0.2,5.4-1.5,5.5-3.2L293.8,16.2z"/>
		<path class="st2" d="M307.4,9l-0.1,2c0.6-0.7,2.3-2.5,5.7-2.2c3.9,0.3,6.4,3.1,6.1,6.9L318.3,26l-3.8-0.3l0.8-9.8
			c0.1-1.6-0.8-3.9-3.7-4.2c-0.8-0.1-2.8-0.1-3.8,1.5c-0.5,0.8-0.8,1.7-0.8,2.2l-0.8,9.6l-3.8-0.3l1.3-16L307.4,9z"/>
		<path class="st2" d="M329.4,4.9L328.1,18l8.4-6.4l4.7,0.5l-6.5,4.9l5.6,11.2l-4.6-0.5l-4-8.6l-4.1,3.1l-0.5,4.6l-3.8-0.4l2.2-22
			L329.4,4.9z"/>
		<path class="st2" d="M348.5,24.2c-0.1,2.5,1.8,3.1,3.4,3.3c1,0.1,3.8,0.5,4.1-1.6c0.2-1.4-0.7-1.8-4.2-3.1c-4-1.4-6.2-2.6-5.8-5.8
			c0.5-4.6,5.8-4.3,7.5-4.1c6.8,0.8,6.9,4.1,7,5.9l-3.9-0.5c0-0.4,0.1-0.9-0.2-1.3c-0.6-1-2-1.3-3-1.5c-1.4-0.2-3.3-0.1-3.5,1.5
			c-0.1,1.2,0.8,1.8,4.3,3c3.9,1.4,6.1,2.5,5.7,5.7c-0.6,5.3-7.2,4.5-8.2,4.3c-6.3-0.8-7-3.9-7.1-6.4L348.5,24.2z"/>
	</g>
	<path class="st0" d="M289.1,206.6c-11.4-16.3-16.3-62.5-16.3-62.5s7.9-6.9,15.8-29.9c1.2-3.6,2.4-7.2,3.4-10.8
		c0.8-2.6,1.4-5.1,2.1-7.6c4-15.7,5.6-28.4,3.9-30.1c-2.4-2.3-4.3-1.6-4.3-1.6s-0.2-4.2-3.8-5.4c-3.6-1.2-5.7,1-5.7,1
		c-7.3-3-10.6,10-14.8,29.8c0,0.1,0,0.2-0.1,0.3c-0.6,2.6-1.2,5-1.9,7.3c-4.5,14.8-10.9,21.2-10.9,21.2s-50.2,5.4-62.2,15.2
		c-6.2,5-11.5,7.9-17,9.4c-2.1,0.6-4.2,1-6.4,1.2c-3.3,0.4-6.8,0.4-10.7,0.3c-13.4-0.4-19.3,2.6-19.5,11.1
		c-0.2,8.5,6.8,11.3,20.9,11.8c4,0.2,8.3-0.2,12.4-0.8c2.4-0.3,4.7-0.8,6.8-1.2c7-1.5,12.3-3.2,12.3-3.2c-0.8,18,7,33.9,7,33.9
		l-15.9,34.1c8.7,14.4,23,11.1,23,11.1l14.2-31.3c17.7,7.6,35.5-5.4,35.5-5.4c6,17.4,25,35.7,25,35.7c17.8-1.7,18.6-17.5,18.6-17.5
		S300.5,222.9,289.1,206.6z"/>
	<path class="st0" d="M273.8,81.2c-2.2-4.3-4.9-7.8-7.8-10.8c1.7-1.8,2.9-4.1,3.6-6.7c2.1-8.3-3-16.7-11.3-18.8
		c-8.3-2.1-16.7,3-18.8,11.3c-0.1,0.3-0.1,0.5-0.2,0.8c-17.5-2.9-34.3,2-36.5,2.6c-2.2,0.5-16.2,4.9-27,14.7
		c-1.1-0.8-2.4-1.4-3.8-1.7c-6.1-1.5-12.4,2.3-13.9,8.6c-1.3,5.4,1.2,10.8,5.9,13.2c-0.9,4.6-0.8,9.7,0.5,15.4
		c8.5,35.7,59.1,28.7,59.1,28.7C230.5,140.4,293.1,117.9,273.8,81.2z"/>
	<g>
		<path class="st1" d="M201.5,79.7c0,0,0.9,11-2.7,21.7s2.4,15.8,6.4,14.6c4-1.2,5.4-3.1,5.7-5.2s1.4-2.6,4.8-0.5
			c3.4,2.1,4.5,2.6,9.4,1.6c4.9-1,6.5-13.1-0.3-17.5C218.1,89.9,210,84,207.6,79C205.1,73.9,201.4,74,201.5,79.7z"/>
		<path class="st2" d="M200.5,90.7l11.1-3.1c0,0,6.1-1.7,2.7,5.8c-3.3,7.5-5.1,8.8-7.2,7.3c-2.1-1.5-6-5.7-6-5.7
			S197.2,91.8,200.5,90.7z"/>
		<path class="st3" d="M220.6,79.5c0,0-2.9,0.6-4,2.3s-0.7,3.2,0.6,2.3c1.3-0.9,2.7-3.1,6.7-2.4c4,0.7,3.4-1.6,1.9-2.2
			S222.3,79.1,220.6,79.5z"/>
		<path class="st3" d="M189.2,91.2c0,0,1.4-0.7,2.3-1.7s1.5-1,3.8-0.5c2.3,0.4,2.5-1.4,0.8-2.1c-1.7-0.7-4.4-1-6.4,0.8
			C187.6,89.4,187.3,91.1,189.2,91.2z"/>
	</g>
	<path class="st5" d="M260,53.9c-6.4-5-12.5,1.2-15.1,4.4c5.8,1.6,11.5,4.1,16.7,8.1C263.5,62.8,264.8,57.7,260,53.9z"/>
	<path class="st5" d="M165.6,79.2c-3.3,3.3-1.2,7.3,0.2,9.3c1.5-3.7,3.5-7,6-9.9C169.7,77.6,167.5,77.3,165.6,79.2z"/>
	<path class="st6" d="M258.8,150.2c-0.3,0-0.6-0.3-0.6-0.6c0-0.3,0.3-0.6,0.6-0.6h0c0,0,0,0,0,0c20.6,0,30.5-39.6,30.6-40
		c0.1-0.3,0.4-0.5,0.7-0.4c0.3,0.1,0.5,0.4,0.4,0.7c0,0.1-2.5,10.3-7.7,20.4C276.1,143.1,267.8,150.2,258.8,150.2z"/>
	<path class="st6" d="M196.2,185.7c-0.3,0-0.5-0.2-0.6-0.4c-5.8-22.4-1.1-33.1-0.8-33.6c0.1-0.3,0.5-0.4,0.8-0.3
		c0.3,0.1,0.4,0.5,0.3,0.8c0,0.1-4.8,10.9,0.9,32.8c0.1,0.3-0.1,0.6-0.4,0.7C196.3,185.7,196.3,185.7,196.2,185.7z"/>
	<path class="st6" d="M216.8,208.5c0,0-0.1,0-0.1,0c-7.9-2-13.2-6.5-13.5-6.7c-0.2-0.2-0.3-0.6-0.1-0.8c0.2-0.2,0.6-0.3,0.8-0.1
		c0.1,0,5.4,4.5,13,6.4c0.3,0.1,0.5,0.4,0.4,0.7C217.3,208.3,217,208.5,216.8,208.5z"/>
	<path class="st7" d="M192.5,232.6c-1-0.6-3,4.2-3,4.2c0.6,0.5,1.2,1,1.9,1.5C191.4,235.2,193.5,233.2,192.5,232.6z"/>
	<path class="st7" d="M200.7,236.3c-0.5-0.2-0.9-0.1-1.7,1.4c-0.8,1.6-1.8,3.2-1.8,3.2c0.6,0.2,1.3,0.4,2.1,0.6
		C200.8,238.3,201.2,236.5,200.7,236.3z"/>
	<path class="st7" d="M287.6,233.9c-1,0.7,2.4,4.5,2.4,4.5c0.7-0.3,1.4-0.7,2.2-1.1C289.4,236,288.5,233.2,287.6,233.9z"/>
	<path class="st7" d="M294.3,227.6c-0.4,0.3-0.5,0.7,0.5,2.1c1.1,1.4,2.1,3,2.1,3.1c0.5-0.5,1-1,1.4-1.6
		C296.1,228.4,294.7,227.3,294.3,227.6z"/>
	<circle class="st2" cx="283.3" cy="75.3" r="4.5"/>
	<circle class="st2" cx="156.5" cy="156.3" r="4"/>
	<path class="st6" d="M298.1,77.2c0,0-0.1,0-0.1,0c-0.3-0.1-0.5-0.4-0.5-0.7c1.3-6.7,0.5-9.5-0.5-10.7c-0.7-0.8-1.4-0.9-1.4-0.9
		c0,0-0.1,0-0.1,0c-2.5-0.6-3.7,1.9-3.8,2c-0.1,0.3-0.5,0.4-0.8,0.3c-0.3-0.1-0.4-0.5-0.3-0.8c0.6-1.2,2.3-3.3,5.1-2.7
		c0.3,0,1.3,0.2,2.2,1.2c1.7,2,2,6,0.8,11.8C298.7,77,298.4,77.2,298.1,77.2z"/>
	<path class="st6" d="M282.4,65.3C282.4,65.3,282.4,65.3,282.4,65.3c-0.3,0-0.6-0.3-0.6-0.6c0-2.1,1.1-6.2,4.9-6.7
		c0.1,0,6.5-0.8,7.6,6c0.1,0.3-0.2,0.6-0.5,0.7c-0.3,0-0.6-0.2-0.7-0.5c-0.9-5.7-6.1-5.1-6.3-5c-3.7,0.4-3.8,5.3-3.8,5.5
		C283,65,282.7,65.3,282.4,65.3z"/>
	<path class="st6" d="M147.8,154.1C147.8,154.1,147.8,154.1,147.8,154.1c-3.9-0.1-6.4-0.3-6.4-0.3c-0.3,0-0.6-0.3-0.5-0.6
		c0-0.3,0.3-0.6,0.6-0.5c0,0,2.5,0.2,6.4,0.3c0.3,0,0.6,0.3,0.6,0.6C148.4,153.9,148.2,154.1,147.8,154.1z"/>
	<path class="st6" d="M145.4,159.9c-1.9,0-3.7-0.4-3.8-0.4c-0.3-0.1-0.5-0.4-0.5-0.7c0.1-0.3,0.4-0.5,0.7-0.5c0,0,4,0.8,5.9,0
		c0.3-0.1,0.6,0,0.8,0.3c0.1,0.3,0,0.6-0.3,0.8C147.4,159.8,146.4,159.9,145.4,159.9z"/>
	<path class="st4" d="M176,128.1c0,0,16.8,4.4,41.8-1c24.9-5.4,47-22.7,47-22.7s-7.8,27.3-42.9,33.5
		C221.8,137.9,195,142.4,176,128.1z"/>
	<path class="st6" d="M214,139.5c-15.3,0-43.8-3.6-50.1-29.7c-0.1-0.3,0.1-0.6,0.4-0.7c0.3-0.1,0.6,0.1,0.7,0.4
		c8.3,34.8,57.9,28.3,58.4,28.3c0.3-0.1,0.6,0.2,0.7,0.5c0,0.3-0.2,0.6-0.5,0.7C223.6,139,219.7,139.5,214,139.5z"/>
	<path class="st6" d="M250.7,123.8c-0.2,0-0.4-0.1-0.5-0.3c-0.2-0.3-0.1-0.6,0.2-0.8c10.5-6.4,13-17,13-17.1
		c0.1-0.3,0.4-0.5,0.7-0.4c0.3,0.1,0.5,0.4,0.4,0.7c-0.1,0.5-2.7,11.1-13.6,17.8C250.9,123.7,250.8,123.8,250.7,123.8z"/>
</g>
<g>
	<g>
		<path class="st8" d="M1118,160.7c-19.5,3.2-38.6,9.8-56.1,19.5c2.4,0.5,4.5,2.6,5.1,5.2c11.8-10.5,27.2-16,42.5-15.2
			C1112.4,167.6,1115.2,164.2,1118,160.7z"/>
		<path class="st9" d="M1042.2,180.6c1.9,0.6,3.6,1.8,5.2,2.7c14.5-6.4,25.3-21.5,27.5-38.3c0.4-3.1,0.5-6.2,1.3-9.1
			c2.3-8.6,9.8-14.3,17.1-18.6c-3.8-0.1-7.6-0.8-11.2-2.2c0.1,4.7-4.3,7.6-7.3,11c-2,2.3-3.5,5.1-4.2,8.1c-0.9,3.5-0.8,7.2-1.2,10.9
			C1067.6,161.2,1056.5,175.8,1042.2,180.6z"/>
		<path class="st10" d="M1015.6,147c2.2,1.5,3.8,3.9,5.1,6.4c3,5.6,5,12,5.1,18.5c0.1,6.5-1.9,13.2-6.2,17.8c2.4-1.1,5-1.4,7.8-0.6
			c6.9-14.3,4.9-33-4.8-45.3c-2.1-2.6-4.5-5-7.5-6.1c-2,3.3-4.3,6.3-6.9,9.1C1010.3,145.1,1013.4,145.5,1015.6,147z"/>
		<path class="st11" d="M1087.4,196.2c-6.8,1.1-13.6-2.7-20.4-1.8c-3.8,0.5-7.3,2.4-10.7,4.4c-1.4,3.8-2.6,8.3-4.5,12.4
			c5.3-5.9,11.5-12.2,19.1-11.7c2.4,0.2,4.7,1,7.1,1.7c5.8,1.5,12,1.3,17.7-0.7c0.5-4.8,1.7-9.4,3.7-13.7
			C1097.1,191.8,1092.5,195.4,1087.4,196.2z"/>
		<path class="st10" d="M1081.8,151.7c2,2.6,3.2,6,3.2,9.4c2.9-1.7,5.8-3.7,8.4-5.8c1.2,0.6-1.6-4.7-2.2-7.2
			C1088.2,149.7,1085.1,150.9,1081.8,151.7z"/>
		<path class="st12" d="M1047.7,198.6c1.1,0.4-1.2-3.5-1.6-5.3c-2.8,1.4-5.6,2.5-8.6,3.3c1.7,1.9,2.5,4.4,2.4,7
			C1042.6,202,1045.2,200.4,1047.7,198.6z"/>
		<path class="st12" d="M1061.9,146.2c-0.4-2.7-0.7-4.8-0.5-6.8c-3.3,0.9-6.6,1.8-10,1.9c1.1,2.4,1.7,5,1.9,7.7
			C1056.1,148,1059,147.1,1061.9,146.2z"/>
		<path class="st13" d="M1098.4,103.4c4.8-2.2,8.9-6,11.6-10.8c-1.4-0.4-3.3-1.6-4.8-3.3c-1.5,2.9-3.2,6.1-6.2,7.1
			c-0.9,0.3-2,0.3-2.7-0.4C1097.8,98,1098.6,100.7,1098.4,103.4z"/>
		<path class="st13" d="M1112,183.8c-1.1-0.4-2.3-0.4-3.4-0.2c0.3,1,0,2.1-0.3,3.1c-0.5,1.9-1,3.7-1.5,5.6c0.6-2.2,3.3-3,5.1-2.1
			c1.9,1,3,3.2,3.3,5.4c1.2-1.7,3.1-5.2,3.5-5.3C1116.9,187.6,1114.9,184.7,1112,183.8z"/>
		<path class="st13" d="M1118.7,190.3c0,0,0.1,0.1,0.1,0.1C1118.8,190.3,1118.7,190.3,1118.7,190.3z"/>
		<path class="st11" d="M1039.7,168.5c3-0.6,5.9-1.2,8.9-1.8c-0.3-2.5-0.2-4.3-0.2-6.2c-2.2,1.5-5.1,1.6-7.4,0.2
			C1042,163.3,1041.4,166.4,1039.7,168.5z"/>
		<path class="st11" d="M1017.2,174.7c-0.7-3.2-1.3-6.4-2-9.6c-2.3,0.4-4,0.4-5.7,0.4c1.4,2.3,1.6,5.5,0.4,8
			C1012.4,172.4,1015.3,172.9,1017.2,174.7z"/>
		<path class="st9" d="M1074.3,216.9c-1.7-1.6-4-2.4-6.2-2.2c-2.2,0.3-4.3,1.6-5.7,3.5c1.2,1.7,2.5,3.3,4,4.8
			c2.5-1.9,6.2-1.9,8.6,0.1C1075.2,220.7,1074.4,216.5,1074.3,216.9z"/>
		<path class="st9" d="M1034.2,127.2c3.3-0.4,6.5-1.1,9.7-2.2c-0.1-0.2-0.7-6.3-2.2-9.3c-2,2.1-5.3,2.6-7.8,1.3
			C1035,120.2,1035.1,123.9,1034.2,127.2z"/>
		<path class="st9" d="M1043.9,125C1043.8,125,1043.8,125,1043.9,125C1043.8,125,1043.9,125,1043.9,125z"/>
		<path class="st11" d="M1103.6,133.9c0.4-2.1,2.2-3.6,4-4.4c1.9-0.8,5.9-2,5.8-2.1c-1.4-1.3-2.6-3-3.2-4.8c-2.7,1.8-5.6,3-8.7,3.5
			C1102.1,128.6,1102.8,131.3,1103.6,133.9z"/>
		<polygon class="st14" points="1036.4,207.9 1039.9,210.7 1044.5,223.9 1051.1,219.6 		"/>
		<polygon class="st14" points="1031,203.7 1013.5,190 999.6,253.4 1005.7,249.4 1002.5,240 1005.1,228.3 1011.1,245.8 
			1007.4,248.3 1021.2,239.2 1016.9,242.1 1007.9,215.8 1010.4,204.2 1022.2,238.5 1028,234.8 1013.2,191.6 1013.5,190 1021.3,196 
			1033.3,231.2 1030.9,232.9 1039.5,227.2 1039.1,227.4 		"/>
		<polygon class="st15" points="1005.1,228.3 1002.5,240 1005.7,249.4 1005.7,249.4 1007.4,248.3 1011.1,245.8 		"/>
		<polygon class="st15" points="1021.3,196 1013.5,190 1013.2,191.6 1028,234.8 1028,234.8 1030.9,232.9 1033.3,231.2 		"/>
		<polygon class="st15" points="1007.9,215.8 1016.9,242.1 1021.2,239.2 1022.2,238.5 1022.2,238.5 1010.4,204.2 		"/>
		<polygon class="st15" points="1036.4,207.9 1031,203.7 1031,203.7 1039.1,227.4 1039.5,227.2 1044.5,223.9 1044.5,223.9 
			1039.9,210.7 		"/>
	</g>
	<g>
		<path class="st8" d="M1369.9,180.2c-17.6-9.7-36.6-16.3-56.1-19.5c2.8,3.5,5.6,6.9,8.5,9.6c15.2-0.8,30.7,4.7,42.5,15.2
			C1365.4,182.8,1367.4,180.7,1369.9,180.2z"/>
		<path class="st9" d="M1355.6,135.9c0.8,3,0.9,6.1,1.3,9.1c2.1,16.8,13,31.9,27.5,38.3c1.6-0.9,3.3-2.1,5.2-2.7
			c-14.4-4.8-25.5-19.4-27.2-35.6c-0.4-3.6-0.3-7.3-1.2-10.9c-0.8-3-2.2-5.8-4.2-8.1c-3-3.4-7.4-6.3-7.3-11
			c-3.6,1.4-7.4,2.1-11.2,2.2C1345.8,121.6,1353.3,127.3,1355.6,135.9z"/>
		<path class="st10" d="M1412.2,189.6c-4.2-4.6-6.3-11.3-6.2-17.8c0.1-6.5,2.1-12.8,5.1-18.5c1.3-2.5,2.8-4.9,5.1-6.4
			c2.2-1.5,5.3-1.8,7.4-0.2c-2.5-2.8-4.8-5.9-6.9-9.1c-3,1.1-5.5,3.5-7.5,6.1c-9.7,12.2-11.7,31-4.8,45.3
			C1407.2,188.2,1409.8,188.5,1412.2,189.6z"/>
		<path class="st11" d="M1364.8,194.4c-6.8-0.9-13.6,2.9-20.4,1.8c-5.1-0.8-9.7-4.4-11.9-9.4c2,4.3,3.3,9,3.7,13.7
			c5.7,1.9,11.9,2.2,17.7,0.7c2.3-0.6,4.7-1.5,7.1-1.7c7.5-0.5,13.8,5.8,19.1,11.7c-1.9-4.1-3-8.6-4.5-12.4
			C1372.1,196.8,1368.6,194.9,1364.8,194.4z"/>
		<path class="st10" d="M1338.3,155.3c2.7,2.1,5.5,4.1,8.4,5.8c0-3.4,1.2-6.8,3.2-9.4c-3.3-0.8-6.4-2-9.4-3.5
			C1339.9,150.6,1337.1,155.9,1338.3,155.3z"/>
		<path class="st12" d="M1385.6,193.2c-0.4,1.9-2.7,5.7-1.6,5.3c2.5,1.8,5.1,3.4,7.8,4.9c-0.2-2.6,0.7-5.1,2.4-7
			C1391.3,195.7,1388.4,194.6,1385.6,193.2z"/>
		<path class="st12" d="M1378.5,148.9c0.2-2.7,0.8-5.3,1.9-7.7c-3.4-0.1-6.7-1-10-1.9c0.2,2-0.1,4.1-0.5,6.8
			C1372.8,147.1,1375.7,148,1378.5,148.9z"/>
		<path class="st13" d="M1333.4,103.4c-0.2-2.6,0.6-5.4,2.1-7.4c-0.7,0.7-1.8,0.7-2.7,0.4c-2.9-1-4.7-4.2-6.2-7.1
			c-1.5,1.7-3.4,2.9-4.8,3.3C1324.5,97.4,1328.6,101.2,1333.4,103.4z"/>
		<path class="st13" d="M1323.2,183.5c-1.1-0.2-2.3-0.1-3.4,0.2c-2.9,1-4.9,3.8-6.7,6.5c0.4,0.1,2.4,3.7,3.5,5.3
			c0.3-2.2,1.4-4.5,3.3-5.4c1.9-1,4.6-0.1,5.1,2.1c-0.5-1.9-1-3.7-1.5-5.6C1323.2,185.6,1322.9,184.5,1323.2,183.5z"/>
		<path class="st13" d="M1313,190.4c0,0,0.1-0.1,0.1-0.1C1313,190.3,1313,190.3,1313,190.4z"/>
		<path class="st11" d="M1392.1,168.5c-1.8-2-2.3-5.2-1.3-7.8c-2.3,1.4-5.2,1.3-7.4-0.2c0,1.8,0.1,3.7-0.2,6.2
			C1386.2,167.2,1389.1,167.8,1392.1,168.5z"/>
		<path class="st11" d="M1416.5,165.1c-0.7,3.2-1.3,6.4-2,9.6c1.9-1.8,4.9-2.3,7.2-1.2c-1.2-2.5-1-5.7,0.4-8
			C1420.5,165.5,1418.8,165.5,1416.5,165.1z"/>
		<path class="st9" d="M1363.6,214.7c-2.2-0.3-4.5,0.6-6.2,2.2c0-0.4-0.9,3.8-0.8,6.2c2.5-2,6.1-2.1,8.6-0.1c1.5-1.4,2.8-3,4-4.8
			C1368,216.3,1365.9,215,1363.6,214.7z"/>
		<path class="st9" d="M1397.9,117c-2.5,1.3-5.8,0.8-7.8-1.3c-1.5,3.1-2.1,9.1-2.2,9.3c3.1,1,6.4,1.8,9.7,2.2
			C1396.7,123.9,1396.8,120.2,1397.9,117z"/>
		<path class="st9" d="M1387.9,125C1387.9,125,1387.9,125,1387.9,125C1387.9,125,1387.9,125,1387.9,125z"/>
		<path class="st11" d="M1328.2,133.9c0.7-2.6,1.4-5.3,2.2-7.9c-3.1-0.5-6.1-1.7-8.7-3.5c-0.7,1.9-1.8,3.6-3.2,4.8
			c-0.1,0.1,3.9,1.3,5.8,2.1C1326,130.3,1327.8,131.8,1328.2,133.9z"/>
		<polygon class="st14" points="1395.4,207.9 1380.6,219.6 1387.3,223.9 1391.8,210.7 		"/>
		<polygon class="st14" points="1420.7,245.8 1426.7,228.3 1429.2,240 1426,249.4 1432.2,253.4 1418.2,190 1400.8,203.7 
			1392.7,227.4 1392.3,227.2 1400.9,232.9 1398.4,231.2 1410.5,196 1418.2,190 1418.6,191.6 1403.8,234.8 1409.6,238.5 
			1421.4,204.2 1423.9,215.8 1414.9,242.1 1410.6,239.2 1424.3,248.3 		"/>
		<polygon class="st15" points="1426.7,228.3 1420.7,245.8 1424.3,248.3 1426,249.4 1426,249.4 1429.2,240 		"/>
		<polygon class="st15" points="1418.2,190 1410.5,196 1398.4,231.2 1400.9,232.9 1403.8,234.8 1403.8,234.8 1418.6,191.6 		"/>
		<polygon class="st15" points="1423.9,215.8 1421.4,204.2 1409.6,238.5 1409.6,238.5 1410.6,239.2 1414.9,242.1 		"/>
		<polygon class="st15" points="1400.8,203.7 1400.8,203.7 1395.4,207.9 1391.8,210.7 1387.3,223.9 1387.3,223.9 1392.3,227.2 
			1392.7,227.4 		"/>
	</g>
</g>
<g>
	<g>
		<path class="st2" d="M1311.8,61.1c-0.2,0-0.5-0.1-0.7-0.2c-0.7-0.4-1-1.3-0.6-2l17.1-31.8c0.4-0.7,1.3-1,2-0.6
			c0.7,0.4,1,1.3,0.6,2l-17.1,31.8C1312.9,60.8,1312.3,61.1,1311.8,61.1z"/>
		<path class="st2" d="M1321,62.8c-0.3,0-0.5-0.1-0.7-0.2c-0.7-0.4-1-1.3-0.6-2l21.5-37.7c0.4-0.7,1.3-1,2-0.6c0.7,0.4,1,1.3,0.6,2
			l-21.5,37.7C1322,62.6,1321.5,62.8,1321,62.8z"/>
	</g>
	<g>
		<path class="st2" d="M1120,61.1c-0.5,0-1.1-0.3-1.3-0.8l-17.1-31.8c-0.4-0.7-0.1-1.6,0.6-2c0.7-0.4,1.6-0.1,2,0.6l17.1,31.8
			c0.4,0.7,0.1,1.6-0.6,2C1120.4,61.1,1120.2,61.1,1120,61.1z"/>
		<path class="st2" d="M1110.8,62.8c-0.5,0-1-0.3-1.3-0.8L1088,24.4c-0.4-0.7-0.2-1.6,0.6-2c0.7-0.4,1.6-0.2,2,0.6l21.5,37.7
			c0.4,0.7,0.2,1.6-0.6,2C1111.3,62.8,1111,62.8,1110.8,62.8z"/>
	</g>
</g>
<rect x="998.2" y="20.2" class="st16" width="435.4" height="238.7"/>
<g>
	<path class="st2" d="M1152.1,38.3c-0.3-1.9-1.5-4.6-5.5-4.3c-1.8,0.1-3.6,0.8-4.7,2.5c-1.2,2-1.3,4.3-1.2,6.1
		c0.2,2.6,1.1,5.3,3,6.7c1.4,1,3.2,0.9,3.8,0.9c3.7-0.2,4.9-2.3,5.1-5.4l4.2-0.3c-0.2,2-1,8.7-8.8,9.2c-8.4,0.6-11.2-5.8-11.6-10.8
		c-0.4-6.1,2.3-11.9,9.9-12.4c3.3-0.2,8.3,0.7,9.9,7.6L1152.1,38.3z"/>
	<path class="st2" d="M1165.2,35.9l0.2,2.3c1.3-2.9,4.7-3.1,5.7-3.2l2.1-0.1l0.2,3.9l-2.3,0.1c-3.8,0.2-5.6,2.3-5.4,5l0.4,8.1
		l-3.8,0.2l-0.8-16.1L1165.2,35.9z"/>
	<path class="st2" d="M1194.4,46.1c-0.4,1.3-1.5,5.5-8.1,5.7c-5.3,0.2-8.8-2.9-8.9-8.4c-0.2-6.5,4.2-8.8,8.3-8.9
		c3.3-0.1,6.1,1.2,7.6,4c0.8,1.3,1.1,2.7,1.3,5.3l-13.4,0.4c0.4,4.8,4,4.7,5,4.7c2-0.1,3.6-0.7,4.3-2.6L1194.4,46.1z M1190.6,41.3
		c-0.3-1-1.1-3.9-4.9-3.8c-3.6,0.1-4.3,2.9-4.5,4.1L1190.6,41.3z"/>
	<path class="st2" d="M1199.6,39.6c0.2-1.5,0.6-5.4,8-5.4c1.8,0,7.7,0.3,7.7,5.2l0.1,9c0,0.5,0.2,1.7,0.8,2l0,0.4l-4,0
		c-0.5-0.7-0.5-1.5-0.5-1.9c-1,1.2-2.7,2.6-6.4,2.6c-1.5,0-6.4-0.1-6.5-5c0-4,3.4-4.5,7.4-5c4.2-0.6,5.4-0.7,5.4-2.2
		c0-2.2-2.8-2.2-3.6-2.2c-4.3,0-4.7,1.3-4.7,2.4L1199.6,39.6z M1211.5,42.9c-0.9,0.5-3.2,0.8-4.7,1c-2.7,0.4-4.2,0.6-4.2,2.4
		c0,0.6,0.3,2.2,3.6,2.2c3.2,0,5.2-1.9,5.2-3.5L1211.5,42.9z"/>
	<path class="st2" d="M1226.9,34.8l3.9,0l0,2.7l-3.9,0l-0.1,9.1c0,1.7,1.1,1.8,2.6,1.8l1.3,0l0,3c-0.4,0.1-1.2,0.1-2.3,0.1
		c-1.5,0-5.4,0-5.4-4.6l0.1-9.5l-3.2,0l0-2.7l3.2,0l0-4.5l3.8,0L1226.9,34.8z"/>
	<path class="st2" d="M1251.5,46.5c-0.5,1.2-1.9,5.4-8.4,5.3c-5.3-0.1-8.6-3.3-8.4-8.9c0.2-6.5,4.7-8.5,8.7-8.4
		c3.3,0.1,6,1.6,7.4,4.4c0.7,1.4,1,2.8,1,5.3l-13.4-0.3c0.1,4.8,3.7,4.9,4.7,4.9c2,0.1,3.7-0.5,4.4-2.4L1251.5,46.5z M1248,41.5
		c-0.2-1-0.9-4-4.7-4.1c-3.6-0.1-4.4,2.6-4.7,3.8L1248,41.5z"/>
	<path class="st2" d="M1273.2,30.3l-1,22l-3.7-0.2l0-1.9c-1.4,1.9-3.4,2.3-5.3,2.2c-5.2-0.2-7.5-4-7.2-9c0.3-6.1,3.9-8.5,7.8-8.3
		c3.7,0.2,4.9,2.2,5.3,2.9l0.4-8L1273.2,30.3z M1259.9,43.7c-0.1,2.5,0.5,5.5,4.2,5.7c4.4,0.2,4.6-4.3,4.6-5.3c0-1,0.3-5.5-4.2-5.7
		C1260.2,38.2,1260,42.6,1259.9,43.7z"/>
	<path class="st2" d="M1282.6,48.6l-0.3,4.4l-4.2-0.3l0.3-4.4L1282.6,48.6z M1283.5,30.9l-0.4,6.8l-1.4,8.2l-2.3-0.1l-0.3-8.3
		l0.4-6.8L1283.5,30.9z"/>
	<path class="st2" d="M1293.4,49.3l-0.3,4.4l-4.2-0.3l0.3-4.4L1293.4,49.3z M1294.6,31.7l-0.5,6.8l-1.4,8.2l-2.3-0.2l-0.2-8.3
		l0.5-6.8L1294.6,31.7z"/>
</g>
</svg>
