<?xml version="1.0" encoding="utf-8"?>
<!-- Generator: Adobe Illustrator 28.1.0, SVG Export Plug-In . SVG Version: 6.00 Build 0)  -->
<svg version="1.1" id="レイヤー_1" xmlns="http://www.w3.org/2000/svg" xmlns:xlink="http://www.w3.org/1999/xlink" x="0px"
	 y="0px" viewBox="0 0 350 38.1" style="enable-background:new 0 0 350 38.1;" xml:space="preserve">
<style type="text/css">
	.st0{fill:#F29600;}
</style>
<g>
	<g>
		<path class="st0" d="M34,10.9c0-3.3,1-5.8,3.1-7.6c1.9-1.8,4.1-2.6,6.7-2.6c2.7,0,5,0.9,6.8,2.6c1.9,1.8,2.9,4.3,3,7.6v15.7
			c-0.1,3.3-1,5.8-3,7.6c-1.9,1.8-4.2,2.7-6.8,2.7c-2.6,0-4.8-0.9-6.7-2.7c-2-1.8-3-4.3-3.1-7.6V10.9z M48.7,11.3
			c-0.1-3.6-1.7-5.4-4.9-5.5c-3.2,0.1-4.8,1.9-4.8,5.5v15.1c0.1,3.6,1.7,5.4,4.8,5.5c3.2,0,4.8-1.9,4.9-5.5V11.3z"/>
		<path class="st0" d="M60.2,26.2c0-3.4,1.4-6.1,4.2-8c-1.1-0.9-1.9-2-2.5-3.2c-0.7-1.1-1-2.5-1-4c0-3,1-5.4,2.9-7.4
			c1.8-1.9,4.1-2.9,7-2.9c2.9,0,5.2,1,7.1,2.9c1.8,1.9,2.8,4.4,2.8,7.3c0,1.5-0.3,2.9-1,4c-0.7,1.2-1.5,2.3-2.6,3.2
			c2.8,1.9,4.2,4.6,4.2,8c0,3.2-1.1,5.8-3.1,7.7c-2,2-4.5,3-7.5,3c-2.9,0-5.4-1-7.4-3C61.3,32,60.3,29.4,60.2,26.2z M65.2,26.2
			c0,1.6,0.6,3,1.7,4c1.1,1.1,2.4,1.6,3.9,1.6c1.6,0,2.9-0.5,4-1.6c1.1-1,1.6-2.4,1.7-4c0-1.7-0.6-3-1.7-4.1c-1.1-1-2.4-1.6-4-1.6
			c-1.5,0-2.8,0.6-3.9,1.6C65.8,23.2,65.2,24.5,65.2,26.2z M65.8,10.9c0,1.7,0.5,2.9,1.5,3.8c1,0.9,2.1,1.3,3.4,1.3
			c1.3,0,2.5-0.4,3.5-1.3c1-0.9,1.5-2.1,1.5-3.8c0-1.7-0.5-3-1.5-3.9c-1-0.8-2.1-1.3-3.5-1.3c-1.3,0-2.4,0.4-3.4,1.3
			C66.4,7.9,65.9,9.2,65.8,10.9z"/>
		<path class="st0" d="M88,10.9c0-3.3,1-5.8,3.1-7.6c1.9-1.8,4.1-2.6,6.7-2.6c2.7,0,5,0.9,6.8,2.6c1.9,1.8,2.9,4.3,3,7.6v15.7
			c-0.1,3.3-1,5.8-3,7.6c-1.9,1.8-4.2,2.7-6.8,2.7c-2.6,0-4.8-0.9-6.7-2.7c-2-1.8-3-4.3-3.1-7.6V10.9z M102.6,11.3
			c-0.1-3.6-1.7-5.4-4.9-5.5c-3.2,0.1-4.8,1.9-4.8,5.5v15.1c0.1,3.6,1.7,5.4,4.8,5.5c3.2,0,4.8-1.9,4.9-5.5V11.3z"/>
		<path class="st0" d="M115.6,20.2h14.5v5.1h-14.5V20.2z"/>
		<path class="st0" d="M138,1h18.4v5.1h-13.7v8.1c1.6-1.3,3.5-2,5.5-2c1.3,0,2.5,0.3,3.7,0.7c1,0.5,1.9,1.1,2.5,1.9
			c1,1,1.7,2.1,2.1,3.4c0.2,0.7,0.4,1.6,0.5,2.6c0.1,1,0.1,2.3,0.1,3.8c0,2.3-0.2,4.1-0.5,5.3c-0.3,1.2-0.9,2.3-1.7,3.2
			c-0.7,0.9-1.7,1.8-3,2.5c-1.3,0.8-2.8,1.2-4.5,1.2c-2.3,0-4.5-0.7-6.4-2.1c-2-1.5-3.2-3.8-3.7-7.1h5c0.5,2.7,2.2,4.1,4.9,4.2
			c1.2,0,2.1-0.2,2.8-0.7c0.7-0.5,1.2-1.1,1.4-1.9c0.3-0.8,0.5-1.6,0.5-2.5c0-0.9,0-1.7,0-2.6c0-2-0.3-3.7-0.9-5
			c-0.3-0.6-0.9-1.1-1.5-1.4c-0.7-0.3-1.5-0.4-2.5-0.4c-0.9,0-1.7,0.2-2.5,0.6c-0.7,0.4-1.4,1.2-2,2.3H138V1z"/>
		<path class="st0" d="M168.5,6.4l-4.9,3.7V4.7l4.9-3.7h4.9v35.6h-4.9V6.4z"/>
		<path class="st0" d="M200.2,0.7c0,0-0.1,0.2-0.2,0.5c-0.2,0.4-0.4,0.8-0.7,1.4c-0.3,0.6-0.6,1.3-1,2.1s-0.8,1.6-1.2,2.5
			c-0.4,0.9-0.9,1.7-1.3,2.6c-0.4,0.9-0.9,1.7-1.3,2.5c-0.4,0.8-0.8,1.5-1.1,2.2c-0.3,0.7-0.6,1.2-0.9,1.6c0.5-0.3,1-0.4,1.6-0.5
			c0.6-0.1,1.3-0.1,2.1,0c1.1,0,2.1,0.2,2.9,0.6c0.8,0.4,1.6,0.8,2.2,1.3c0.6,0.5,1.1,1.1,1.5,1.8c0.4,0.7,0.7,1.3,0.9,1.9
			c0.2,0.6,0.4,1.2,0.5,1.8c0.1,0.5,0.1,1,0.1,1.3c0,0.1,0,0.3,0,0.5c0,0.3,0,0.5,0,0.9c0,0.3,0,0.6,0,1c0,0.3,0,0.6,0,0.8
			c0,0.1-0.1,0.4-0.2,0.9c-0.1,0.5-0.3,1-0.5,1.7c-0.2,0.7-0.6,1.4-1,2.1c-0.4,0.8-1,1.5-1.7,2.1c-0.7,0.7-1.6,1.3-2.6,1.7
			c-1,0.5-2.2,0.8-3.7,0.9c-1.5,0.1-2.8,0-3.9-0.3c-1.1-0.3-2.1-0.8-3-1.4c-0.8-0.6-1.5-1.3-2.1-2.1c-0.6-0.8-1-1.6-1.3-2.4
			c-0.3-0.8-0.5-1.6-0.6-2.4c-0.1-0.8-0.1-1.4-0.1-2c0.1-0.8,0.2-1.5,0.3-2.1c0.1-0.6,0.2-1.2,0.4-1.8c0.2-0.6,0.3-1.1,0.5-1.7
			c0.2-0.6,0.4-1.2,0.7-1.8c0.1-0.2,0.2-0.5,0.5-1.2c0.3-0.6,0.7-1.4,1.1-2.3c0.4-0.9,0.9-1.9,1.5-3s1.1-2.2,1.6-3.3
			c1.3-2.6,2.7-5.4,4.3-8.6H200.2z M199.2,26.7c0-0.6,0-1.3-0.1-2.1c0-0.7-0.2-1.5-0.6-2.1c-0.3-0.7-0.8-1.3-1.5-1.7
			c-0.7-0.5-1.7-0.8-3.1-0.9c-0.6,0-1.2,0-1.7,0.2c-0.5,0.2-1,0.4-1.3,0.7c-0.4,0.3-0.7,0.7-1,1.1c-0.3,0.4-0.5,0.8-0.7,1.2
			c-0.2,0.4-0.3,0.8-0.4,1.1c-0.1,0.3-0.1,0.6-0.1,0.8c0,0.4,0,0.9,0,1.4c0,0.5,0.1,1,0.2,1.5c0.1,0.5,0.2,1,0.5,1.4
			c0.2,0.5,0.5,0.9,0.9,1.2c0.4,0.4,0.9,0.7,1.5,0.9c0.6,0.2,1.4,0.3,2.3,0.3c0.7,0,1.4-0.1,1.9-0.3c0.5-0.2,1-0.5,1.4-0.8
			c0.4-0.3,0.7-0.7,0.9-1.1s0.4-0.8,0.6-1.1c0.1-0.4,0.2-0.7,0.3-1C199.1,27.1,199.2,26.9,199.2,26.7z"/>
		<path class="st0" d="M214.5,6.4l-4.9,3.7V4.7l4.9-3.7h4.9v35.6h-4.9V6.4z"/>
		<path class="st0" d="M228.2,20.2h14.5v5.1h-14.5V20.2z"/>
		<path class="st0" d="M250.6,1H269v5.1h-13.7v8.1c1.6-1.3,3.5-2,5.5-2c1.3,0,2.5,0.3,3.7,0.7c1,0.5,1.9,1.1,2.5,1.9
			c1,1,1.7,2.1,2.1,3.4c0.2,0.7,0.4,1.6,0.5,2.6c0.1,1,0.1,2.3,0.1,3.8c0,2.3-0.2,4.1-0.5,5.3c-0.3,1.2-0.9,2.3-1.7,3.2
			c-0.7,0.9-1.7,1.8-3,2.5c-1.3,0.8-2.8,1.2-4.5,1.2c-2.3,0-4.5-0.7-6.4-2.1c-2-1.5-3.2-3.8-3.7-7.1h5c0.5,2.7,2.2,4.1,4.9,4.2
			c1.2,0,2.1-0.2,2.8-0.7c0.7-0.5,1.2-1.1,1.4-1.9c0.3-0.8,0.5-1.6,0.5-2.5c0-0.9,0-1.7,0-2.6c0-2-0.3-3.7-0.9-5
			c-0.3-0.6-0.9-1.1-1.5-1.4c-0.7-0.3-1.5-0.4-2.5-0.4c-0.9,0-1.7,0.2-2.5,0.6c-0.7,0.4-1.4,1.2-2,2.3h-4.6V1z"/>
		<path class="st0" d="M283.9,16h1.7c1.7,0,3-0.5,3.9-1.4c0.9-0.9,1.4-2.1,1.4-3.6c0-1.5-0.5-2.7-1.4-3.7c-0.9-0.9-2.1-1.4-3.6-1.4
			c-1.1,0-2,0.4-2.9,1.1c-0.9,0.7-1.5,1.8-1.8,3.3h-4.9c0.3-2.6,1.3-4.9,3.1-6.7c1.8-1.8,3.9-2.7,6.4-2.7c3.1,0,5.6,1.1,7.5,3.1
			c1.8,2,2.7,4.3,2.7,7c0,1.4-0.2,2.7-0.7,4c-0.6,1.3-1.6,2.4-3.1,3.4c1.5,1,2.6,2.1,3.2,3.5c0.6,1.4,1,2.8,1,4.3c0,3.3-1,6-3,7.9
			c-1.9,2-4.4,3-7.5,3c-2.3,0-4.4-0.8-6.2-2.3c-1.8-1.6-3-3.8-3.5-6.8h4.9c0.4,1.2,1.1,2.2,1.9,2.9c0.8,0.8,1.9,1.2,3.3,1.2
			c1.5,0,2.7-0.5,3.7-1.5c1-1,1.5-2.3,1.6-4.1c0-1.8-0.6-3.2-1.6-4.2c-1-1-2.3-1.4-3.8-1.4h-2.1V16z"/>
		<path class="st0" d="M302.7,10.9c0-3.3,1-5.8,3.1-7.6c1.9-1.8,4.1-2.6,6.7-2.6c2.7,0,5,0.9,6.8,2.6c1.9,1.8,2.9,4.3,3,7.6v15.7
			c-0.1,3.3-1,5.8-3,7.6c-1.9,1.8-4.2,2.7-6.8,2.7c-2.6,0-4.8-0.9-6.7-2.7c-2-1.8-3-4.3-3.1-7.6V10.9z M317.4,11.3
			c-0.1-3.6-1.7-5.4-4.9-5.5c-3.2,0.1-4.8,1.9-4.8,5.5v15.1c0.1,3.6,1.7,5.4,4.8,5.5c3.2,0,4.8-1.9,4.9-5.5V11.3z"/>
		<path class="st0" d="M328,26.5L339.5,1h5.5l-11.6,25.5h9V16.3h4.9v10.3h2.8v4.8h-2.8v5.3h-4.9v-5.3l-14.4,0V26.5z"/>
	</g>
	<path class="st0" d="M0,7.6c-0.1,3,0.4,8.9,5.2,17C10,32.7,15,35.9,17.7,37.3c2.7,1.3,6.1,1,8-0.2c1.9-1.2,1.9-2,1.8-2.9
		c-0.1-0.9-0.7-2.2-3-4.3c-2-1.8-3-2.1-3.8-2.4c-0.8-0.3-2.4-0.4-2.9,0.7c-0.3,0.8-0.7,1.6-1.3,1.8c-0.7,0.2-1.6-0.3-2.3-1
		c-1.5-1.5-3.7-4.7-4.9-6.8c-1.2-2.1-3.1-5.6-3.7-7.6c-0.3-1-0.3-2,0.2-2.5c0.5-0.5,1.4-0.4,2.2-0.3c1.2,0.1,1.9-1.4,2-2.2
		c0.1-0.8,0.3-1.8-0.3-4.5C9,2.2,8.1,1.1,7.4,0.5C6.7-0.1,6-0.3,4,0.7C2,1.7,0.1,4.6,0,7.6z"/>
</g>
</svg>
