<?xml version="1.0" encoding="utf-8"?>
<!-- Generator: Adobe Illustrator 28.0.0, SVG Export Plug-In . SVG Version: 6.00 Build 0)  -->
<svg version="1.1" id="レイヤー_1" xmlns="http://www.w3.org/2000/svg" xmlns:xlink="http://www.w3.org/1999/xlink" x="0px"
	 y="0px" viewBox="0 0 104.2 80.8" style="enable-background:new 0 0 104.2 80.8;" xml:space="preserve">
<style type="text/css">
	.st0{fill:none;}
	.st1{fill:#F29600;}
	.st2{fill:#808080;}
</style>
<g>
	<rect class="st0" width="104.2" height="80.8"/>
	<g>
		<path class="st1" d="M76.3,27.4h-8.7V12.9c0-4-3.2-7.2-7.2-7.2H27.8c-4,0-7.2,3.2-7.2,7.2v33.3c0,4,3.2,7.2,7.2,7.2h8.7v14.5
			c0,4,3.2,7.2,7.2,7.2h32.7c4,0,7.2-3.2,7.2-7.2V34.6C83.5,30.6,80.3,27.4,76.3,27.4z M25,46.2V12.9c0-1.6,1.3-2.8,2.8-2.8h32.7
			c1.6,0,2.8,1.3,2.8,2.8v33.3c0,1.6-1.3,2.8-2.8,2.8h-1.3H27.8C26.3,49.1,25,47.8,25,46.2z M79.2,67.9c0,1.6-1.3,2.8-2.8,2.8H43.7
			c-1.6,0-2.8-1.3-2.8-2.8V53.4h18.3h1.3h10.1c1.2,0,2.2-1,2.2-2.2s-1-2.2-2.2-2.2h-3.5c0.4-0.9,0.6-1.8,0.6-2.8v-3.5h2.9
			c1.2,0,2.2-1,2.2-2.2s-1-2.2-2.2-2.2h-2.9v-6.6h8.7c1.6,0,2.8,1.3,2.8,2.8V67.9z"/>
		<path class="st1" d="M54.7,16.7H33.6c-1.2,0-2.2,1-2.2,2.2s1,2.2,2.2,2.2h21.2c1.2,0,2.2-1,2.2-2.2S55.9,16.7,54.7,16.7z"/>
		<path class="st1" d="M54.7,27.4H33.6c-1.2,0-2.2,1-2.2,2.2s1,2.2,2.2,2.2h21.2c1.2,0,2.2-1,2.2-2.2S55.9,27.4,54.7,27.4z"/>
		<path class="st1" d="M54.7,38.1H33.6c-1.2,0-2.2,1-2.2,2.2s1,2.2,2.2,2.2h21.2c1.2,0,2.2-1,2.2-2.2S55.9,38.1,54.7,38.1z"/>
		<path class="st1" d="M70.6,59.8H49.4c-1.2,0-2.2,1-2.2,2.2s1,2.2,2.2,2.2h21.2c1.2,0,2.2-1,2.2-2.2S71.8,59.8,70.6,59.8z"/>
	</g>
</g>
</svg>
