<?xml version="1.0" encoding="utf-8"?>
<!-- Generator: Adobe Illustrator 28.0.0, SVG Export Plug-In . SVG Version: 6.00 Build 0)  -->
<svg version="1.1" id="レイヤー_1" xmlns="http://www.w3.org/2000/svg" xmlns:xlink="http://www.w3.org/1999/xlink" x="0px"
	 y="0px" viewBox="0 0 83.3 64.6" style="enable-background:new 0 0 83.3 64.6;" xml:space="preserve">
<style type="text/css">
	.st0{fill:none;}
	.st1{fill:#F29600;}
	.st2{fill:#808080;}
</style>
<g>
	<rect class="st0" width="83.3" height="64.6"/>
	<g>
		<path class="st2" d="M61.1,21.9h-6.9V10.3c0-3.2-2.6-5.7-5.7-5.7H22.3c-3.2,0-5.7,2.6-5.7,5.7V37c0,3.2,2.6,5.7,5.7,5.7h6.9v11.6
			c0,3.2,2.6,5.7,5.7,5.7h26.1c3.2,0,5.7-2.6,5.7-5.7V27.7C66.8,24.5,64.2,21.9,61.1,21.9z M20,37V10.3c0-1.2,1-2.3,2.3-2.3h26.1
			c1.2,0,2.3,1,2.3,2.3V37c0,1.2-1,2.3-2.3,2.3h-1.1H22.3C21,39.3,20,38.2,20,37z M63.3,54.3c0,1.2-1,2.3-2.3,2.3H34.9
			c-1.2,0-2.3-1-2.3-2.3V42.7h14.7h1.1h8.1c1,0,1.7-0.8,1.7-1.7s-0.8-1.7-1.7-1.7h-2.8c0.3-0.7,0.5-1.5,0.5-2.3v-2.8h2.3
			c1,0,1.7-0.8,1.7-1.7c0-1-0.8-1.7-1.7-1.7h-2.3v-5.3h6.9c1.2,0,2.3,1,2.3,2.3V54.3z"/>
		<path class="st2" d="M43.8,13.4H26.9c-1,0-1.7,0.8-1.7,1.7s0.8,1.7,1.7,1.7h16.9c1,0,1.7-0.8,1.7-1.7S44.8,13.4,43.8,13.4z"/>
		<path class="st2" d="M43.8,21.9H26.9c-1,0-1.7,0.8-1.7,1.7s0.8,1.7,1.7,1.7h16.9c1,0,1.7-0.8,1.7-1.7S44.8,21.9,43.8,21.9z"/>
		<path class="st2" d="M43.8,30.5H26.9c-1,0-1.7,0.8-1.7,1.7c0,1,0.8,1.7,1.7,1.7h16.9c1,0,1.7-0.8,1.7-1.7
			C45.5,31.3,44.8,30.5,43.8,30.5z"/>
		<path class="st2" d="M56.5,47.8H39.5c-1,0-1.7,0.8-1.7,1.7s0.8,1.7,1.7,1.7h16.9c1,0,1.7-0.8,1.7-1.7S57.4,47.8,56.5,47.8z"/>
	</g>
</g>
</svg>
