<?xml version="1.0" encoding="utf-8"?>
<!-- Generator: Adobe Illustrator 28.0.0, SVG Export Plug-In . SVG Version: 6.00 Build 0)  -->
<svg version="1.1" id="レイヤー_1" xmlns="http://www.w3.org/2000/svg" xmlns:xlink="http://www.w3.org/1999/xlink" x="0px"
	 y="0px" viewBox="0 0 88.6 61.6" style="enable-background:new 0 0 88.6 61.6;" xml:space="preserve">
<style type="text/css">
	.st0{fill:#FFFFFF;}
	.st1{fill:#F29600;}
	.st2{fill:none;}
</style>
<g>
	<g>
		<path class="st0" d="M49.4,0H3.5C1.6,0,0,1.6,0,3.5v33.3c0,1.9,1.6,3.5,3.5,3.5h10.4l-1.6,8.9c-0.1,0.6,0.2,0.7,0.6,0.4l11.3-9.3
			h25.2c1.9,0,3.5-1.6,3.5-3.5V3.5C52.9,1.6,51.3,0,49.4,0z"/>
		<path class="st0" d="M84.2,51.1c2.8-3.6,4.4-7.9,4.4-12.5c0-12.3-11.3-22.3-25.3-22.3c-14,0-25.3,10-25.3,22.3
			c0,12.3,11.3,22.3,25.3,22.3c5.1,0,9.8-1.3,13.8-3.6l9.8,4.3c0.5,0.2,0.8,0,0.6-0.6L84.2,51.1z"/>
		<g>
			<path class="st1" d="M32.7,31.6c-1.6,1.5-3.6,2.3-6.2,2.4c-2.1,0-3.8-0.6-5.2-1.6c-1.4-1-2.4-2.1-3.1-3.3
				c-0.2-0.4-0.4-0.8-0.5-1.2c-0.1-0.4-0.3-0.9-0.4-1.5c-0.2-1.1-0.3-3.2-0.3-6.3c0-3.2,0.1-5.3,0.3-6.4c0.2-1.1,0.5-1.9,0.9-2.6
				c0.6-1.3,1.7-2.4,3.1-3.4c1.4-1,3.1-1.5,5.2-1.5c2.1,0,3.9,0.5,5.3,1.5c1.4,1,2.4,2.1,3,3.4c0.4,0.7,0.8,1.5,0.9,2.6
				c0.2,1.1,0.2,3.2,0.2,6.4c0,2.8-0.1,4.8-0.2,5.9c-0.2,1.1-0.4,2-0.8,2.6l3.5,2.9L36,34.4L32.7,31.6z M26,26.1l2.4-2.8l3.1,2.5
				c0.3-0.9,0.4-2.8,0.4-5.7c0-2.7-0.1-4.5-0.3-5.5c-0.2-0.9-0.6-1.7-1.1-2.3c-0.4-0.6-0.9-1-1.6-1.4c-0.7-0.4-1.5-0.6-2.5-0.6
				c-0.9,0-1.8,0.2-2.4,0.6c-0.7,0.4-1.2,0.8-1.7,1.4c-0.5,0.6-0.9,1.3-1,2.3c-0.2,1-0.3,2.8-0.3,5.5c0,2.7,0.1,4.5,0.3,5.5
				c0.2,0.9,0.5,1.7,1,2.3c0.4,0.6,1,1,1.7,1.4c0.7,0.4,1.5,0.6,2.4,0.6c1.2,0,2.2-0.3,3-1L26,26.1z"/>
		</g>
		<g>
			<path class="st1" d="M68.4,45.4h-10l-2,6.1h-4.2l9.6-27.3h3.4l9.6,27.3h-4.2L68.4,45.4z M67.3,41.8l-3.8-11.9h-0.1l-3.8,11.9
				H67.3z"/>
		</g>
		<g>
			<path class="st1" d="M48.2,35.8c-0.4,0.3-0.8,0.6-1.3,0.8c-0.4,0.2-0.9,0.3-1.4,0.3c-0.9,0-1.7-0.3-2.2-0.9
				c-0.6-0.6-0.8-1.3-0.9-2.1c0-1.2,0.6-2.2,1.9-2.9c-0.2-0.3-0.4-0.6-0.6-0.9c-0.2-0.3-0.2-0.6-0.2-1c0-0.6,0.2-1.1,0.6-1.6
				c0.4-0.4,0.9-0.7,1.6-0.7c0.7,0,1.2,0.2,1.6,0.7c0.4,0.4,0.6,1,0.6,1.6c0,0.9-0.5,1.7-1.6,2.2l2,2.6c0.4-0.5,0.7-1.1,0.8-1.7
				l1.2,0.5c-0.1,0.4-0.3,0.7-0.5,1.1c-0.2,0.4-0.5,0.7-0.7,1l1.6,2h-1.6L48.2,35.8z M45.1,31.9c-0.9,0.6-1.4,1.2-1.4,1.9
				c0,0.5,0.2,0.9,0.5,1.3c0.3,0.4,0.8,0.5,1.3,0.5c0.6,0,1.3-0.3,2-0.9L45.1,31.9z M44.8,29c0,0.2,0.1,0.4,0.2,0.6
				c0.1,0.2,0.3,0.4,0.5,0.6c0.4-0.2,0.8-0.4,0.9-0.6c0.2-0.2,0.2-0.4,0.2-0.7c0-0.3-0.1-0.5-0.3-0.7c-0.2-0.2-0.4-0.3-0.7-0.3
				c-0.3,0-0.5,0.1-0.7,0.3C44.9,28.5,44.8,28.8,44.8,29z"/>
		</g>
	</g>
	<rect class="st2" width="88.6" height="61.6"/>
</g>
</svg>
