<?xml version="1.0" encoding="utf-8"?>
<!-- Generator: Adobe Illustrator 28.0.0, SVG Export Plug-In . SVG Version: 6.00 Build 0)  -->
<svg version="1.1" id="レイヤー_1" xmlns="http://www.w3.org/2000/svg" xmlns:xlink="http://www.w3.org/1999/xlink" x="0px"
	 y="0px" viewBox="0 0 88.6 61.6" style="enable-background:new 0 0 88.6 61.6;" xml:space="preserve">
<style type="text/css">
	.st0{fill:#FFFFFF;}
	.st1{fill:#F29600;}
	.st2{fill:none;}
</style>
<g>
	<g>
		<path class="st0" d="M73.3,8.1H15.3c-1.3,0-2.3,1-2.3,2.3v5.9l27,21.6c2.4,1.9,6.4,1.9,8.8,0l27-21.6v-5.9
			C75.6,9.2,74.6,8.1,73.3,8.1z"/>
		<path class="st0" d="M44.3,43.3c-2.5,0-5-0.8-6.9-2.3L13,21.5v29.1c0,1.3,1,2.3,2.3,2.3h58.1c1.3,0,2.3-1,2.3-2.3V21.5L51.2,41
			C49.3,42.6,46.8,43.3,44.3,43.3z"/>
	</g>
	<rect class="st2" width="88.6" height="61.6"/>
</g>
</svg>
