<?xml version="1.0" encoding="utf-8"?>
<!-- Generator: Adobe Illustrator 28.1.0, SVG Export Plug-In . SVG Version: 6.00 Build 0)  -->
<svg version="1.1" id="レイヤー_1" xmlns="http://www.w3.org/2000/svg" xmlns:xlink="http://www.w3.org/1999/xlink" x="0px"
	 y="0px" viewBox="0 0 449.1 71.7" style="enable-background:new 0 0 449.1 71.7;" xml:space="preserve">
<style type="text/css">
	.st0{fill:#59C2E1;}
	.st1{fill:#FFFFFF;}
	.st2{fill:#F29600;}
	.st3{fill:#796A56;}
	.st4{opacity:5.000000e-02;}
	.st5{fill:#9CDBED;}
	.st6{fill:#9BDAED;}
	.st7{fill:#E6E6E6;}
</style>
<g>
	<g>
		<g>
			<path class="st2" d="M165,1c0,0.2,0,0.5-0.1,0.8c0,0.3-0.1,0.6-0.1,0.9c0,0.3,0,0.7,0,1.2c0,0.5,0,1.1,0,1.7c0,0.6,0,1.2,0,1.9
				s0,1.2,0,1.7c0,0.7,0,1.5,0,2.3s0.1,1.7,0.1,2.5c0.1,0.8,0.1,1.6,0.1,2.3c0,0.7,0,1.3,0,1.8c0,0.6-0.2,1.2-0.5,1.8
				c-0.3,0.5-0.8,1-1.5,1.3s-1.5,0.5-2.6,0.5c-1.9,0-3.3-0.3-4.2-1s-1.5-1.6-1.5-2.9c0-0.8,0.2-1.5,0.7-2.1c0.5-0.6,1.1-1.1,2-1.4
				c0.9-0.3,1.9-0.5,3.1-0.5c1.3,0,2.5,0.1,3.6,0.4c1.1,0.3,2.2,0.6,3.1,1.1c0.9,0.4,1.8,0.9,2.5,1.4c0.7,0.5,1.3,0.9,1.8,1.3
				l-1.6,2.4c-0.6-0.5-1.2-1.1-1.9-1.6s-1.5-1-2.3-1.4c-0.8-0.4-1.7-0.8-2.7-1c-0.9-0.3-1.9-0.4-3-0.4c-0.9,0-1.6,0.2-2.1,0.5
				c-0.5,0.3-0.7,0.7-0.7,1.2c0,0.3,0.1,0.6,0.3,0.8s0.5,0.4,0.9,0.6s0.9,0.2,1.5,0.2c0.4,0,0.8-0.1,1.2-0.2
				c0.3-0.1,0.6-0.3,0.8-0.6c0.2-0.3,0.3-0.6,0.3-1.1c0-0.4,0-0.9,0-1.6c0-0.7-0.1-1.4-0.1-2.2c0-0.8-0.1-1.6-0.1-2.4
				c0-0.8,0-1.4,0-2c0-0.6,0-1.2,0-1.8c0-0.6,0-1.2,0-1.8c0-0.6,0-1.2,0-1.7c0-0.5,0-1,0-1.3c0-0.2,0-0.5,0-0.8c0-0.3,0-0.6-0.1-0.8
				H165z M155.2,8.5c0.4,0.1,0.9,0.1,1.4,0.2c0.5,0.1,1.1,0.1,1.6,0.1c0.6,0,1.1,0.1,1.6,0.1c0.5,0,0.9,0,1.2,0c1.4,0,2.7,0,3.9-0.1
				c1.2-0.1,2.3-0.1,3.4-0.2c1.1-0.1,2.1-0.2,3.1-0.3l0,2.5c-0.8,0.1-1.6,0.2-2.4,0.3c-0.8,0.1-1.6,0.1-2.4,0.2s-1.7,0.1-2.6,0.1
				c-0.9,0-1.9,0-3,0c-0.5,0-1.1,0-1.8,0c-0.7,0-1.4-0.1-2.1-0.1s-1.3-0.1-1.9-0.2L155.2,8.5z M155.3,3.4c0.4,0.1,0.9,0.1,1.4,0.2
				c0.5,0.1,1.1,0.1,1.6,0.2c0.6,0.1,1.1,0.1,1.6,0.1c0.5,0,0.9,0,1.3,0c1.6,0,3.2-0.1,4.8-0.2c1.6-0.1,3.3-0.3,5-0.6l0,2.5
				c-0.8,0.1-1.8,0.2-2.8,0.3c-1.1,0.1-2.2,0.2-3.4,0.2c-1.2,0.1-2.3,0.1-3.5,0.1c-0.5,0-1.1,0-1.9-0.1c-0.7,0-1.5-0.1-2.2-0.2
				c-0.7-0.1-1.4-0.1-1.9-0.2L155.3,3.4z"/>
			<path class="st2" d="M178.1,4.5c0.7,0,1.5,0,2.4,0s1.8,0,2.8,0c1,0,1.9,0,2.9-0.1c1,0,1.9,0,2.7,0c0.8,0,1.6,0,2.2,0
				c0.6,0,1.3,0,2,0c0.7,0,1.4,0,2.1,0c0.7,0,1.3,0,1.8,0s1,0,1.3,0l0,2.6c-0.7,0-1.7-0.1-2.9-0.1s-2.7,0-4.5,0c-1.1,0-2.2,0-3.3,0
				c-1.1,0-2.2,0-3.3,0.1c-1.1,0-2.2,0.1-3.2,0.1c-1,0-2,0.1-2.9,0.2L178.1,4.5z M191,11.5c0,1.2-0.2,2.3-0.5,3.1
				c-0.3,0.8-0.8,1.4-1.4,1.8c-0.6,0.4-1.3,0.6-2.2,0.6c-0.5,0-1-0.1-1.4-0.3c-0.5-0.2-0.9-0.4-1.3-0.8c-0.4-0.4-0.7-0.8-1-1.4
				c-0.2-0.5-0.4-1.2-0.4-1.9c0-0.9,0.2-1.6,0.6-2.3c0.4-0.7,1-1.2,1.7-1.5s1.5-0.6,2.3-0.6c1,0,1.9,0.2,2.6,0.7
				c0.7,0.5,1.2,1.1,1.6,1.9c0.4,0.8,0.5,1.7,0.5,2.6c0,0.8-0.1,1.6-0.4,2.4c-0.2,0.8-0.7,1.7-1.2,2.5s-1.4,1.5-2.3,2.2
				c-1,0.6-2.2,1.2-3.6,1.6l-2.3-2.3c1-0.2,2-0.5,2.9-0.9s1.6-0.8,2.3-1.3c0.6-0.5,1.1-1.2,1.5-1.9c0.4-0.8,0.5-1.6,0.5-2.7
				c0-0.9-0.2-1.5-0.6-1.9c-0.4-0.4-0.9-0.6-1.5-0.6c-0.3,0-0.7,0.1-1,0.2c-0.3,0.2-0.6,0.4-0.8,0.7c-0.2,0.3-0.3,0.7-0.3,1.1
				c0,0.6,0.2,1.1,0.6,1.5c0.4,0.4,0.9,0.5,1.4,0.5c0.4,0,0.8-0.1,1.1-0.4c0.3-0.3,0.5-0.7,0.6-1.2c0.1-0.6,0.1-1.3-0.2-2.2
				L191,11.5z M191.5,1.4c0,0.1,0,0.3-0.1,0.6c0,0.3,0,0.5-0.1,0.8c0,0.3,0,0.4,0,0.6c0,0.3,0,0.7,0,1.3s0,1.1,0,1.8
				c0,0.6,0,1.3,0,2s0,1.3,0,1.9c0,0.6,0,1.1,0,1.4l-2.7-1c0-0.3,0-0.7,0-1.2c0-0.5,0-1,0-1.6c0-0.6,0-1.2,0-1.8c0-0.6,0-1.1,0-1.6
				c0-0.5,0-0.9,0-1.1c0-0.4-0.1-0.8-0.1-1.2c0-0.4-0.1-0.6-0.1-0.7H191.5z M194.6,0.7c0.3,0.4,0.6,0.9,0.9,1.4
				c0.3,0.5,0.6,1,0.8,1.4l-1.8,0.8c-0.2-0.5-0.5-1-0.8-1.5s-0.6-1-0.9-1.4L194.6,0.7z M197.8,0.1c0.3,0.4,0.6,0.9,0.9,1.4
				c0.3,0.5,0.6,1,0.8,1.4l-1.8,0.8c-0.3-0.5-0.5-1-0.8-1.5c-0.3-0.5-0.6-1-0.9-1.4L197.8,0.1z"/>
			<path class="st2" d="M209.1,1.8c0,0.2-0.1,0.4-0.2,0.6c-0.1,0.3-0.1,0.5-0.2,0.8c-0.1,0.3-0.1,0.5-0.1,0.6
				c-0.1,0.4-0.2,0.8-0.3,1.4c-0.1,0.6-0.2,1.2-0.3,1.9c-0.1,0.7-0.2,1.4-0.3,2.2c-0.1,0.7-0.2,1.4-0.2,2.1s-0.1,1.3-0.1,1.8
				c0,0.3,0,0.7,0,1c0,0.4,0.1,0.7,0.1,1c0.1-0.3,0.2-0.6,0.4-0.9c0.1-0.3,0.3-0.6,0.4-0.9c0.1-0.3,0.3-0.6,0.4-0.9l1.3,1.1
				c-0.2,0.6-0.4,1.3-0.7,2c-0.2,0.7-0.5,1.4-0.6,2c-0.2,0.6-0.3,1.2-0.4,1.6c0,0.2-0.1,0.3-0.1,0.6c0,0.2,0,0.4,0,0.5
				c0,0.1,0,0.3,0,0.4s0,0.3,0,0.5l-2.4,0.2c-0.2-0.8-0.5-1.9-0.6-3.2c-0.2-1.3-0.3-2.8-0.3-4.4c0-0.9,0-1.8,0.1-2.8
				s0.2-1.9,0.3-2.8c0.1-0.9,0.2-1.8,0.3-2.5c0.1-0.8,0.2-1.4,0.3-1.9c0-0.3,0.1-0.7,0.1-1.1c0-0.4,0.1-0.8,0.1-1.1L209.1,1.8z
				 M220.8,1.6c0,0.2-0.1,0.5-0.1,0.7c0,0.3,0,0.5-0.1,0.8c0,0.3,0,0.6,0,1.1c0,0.4,0,0.9,0,1.5s0,1.1,0,1.6c0,1,0,2,0,3
				c0,0.9,0.1,1.8,0.1,2.6c0,0.8,0.1,1.6,0.1,2.3c0,0.7,0.1,1.4,0.1,1.9c0,0.6-0.1,1.1-0.2,1.6c-0.2,0.5-0.4,1-0.8,1.4
				c-0.4,0.4-0.8,0.7-1.4,0.9c-0.6,0.2-1.3,0.3-2.1,0.3c-1.6,0-2.9-0.3-3.9-1c-0.9-0.7-1.4-1.6-1.4-2.8c0-0.8,0.2-1.5,0.6-2.1
				s1-1.1,1.8-1.4s1.7-0.5,2.8-0.5s2.1,0.1,3,0.4c0.9,0.2,1.7,0.6,2.5,0.9c0.8,0.4,1.4,0.8,2,1.3c0.6,0.5,1.2,0.9,1.6,1.3l-1.5,2.3
				c-0.9-0.8-1.8-1.6-2.6-2.2s-1.7-1.1-2.6-1.4s-1.8-0.5-2.7-0.5c-0.8,0-1.4,0.1-1.8,0.4c-0.5,0.3-0.7,0.7-0.7,1.2
				c0,0.5,0.2,0.9,0.7,1.2c0.5,0.3,1,0.4,1.8,0.4c0.5,0,1-0.1,1.3-0.3c0.3-0.2,0.5-0.4,0.7-0.8c0.1-0.3,0.2-0.8,0.2-1.2
				c0-0.4,0-1,0-1.7c0-0.7-0.1-1.5-0.1-2.3s-0.1-1.7-0.1-2.6c0-0.9,0-1.8,0-2.6c0-0.9,0-1.7,0-2.4c0-0.7,0-1.3,0-1.7
				c0-0.2,0-0.4,0-0.8c0-0.3-0.1-0.6-0.1-0.8H220.8z M211.9,5.7c0.7,0.1,1.4,0.1,2.1,0.2s1.4,0.1,2.1,0.1c1.5,0,2.9-0.1,4.4-0.2
				c1.4-0.1,2.8-0.3,4-0.6v2.7c-1.3,0.2-2.6,0.3-4.1,0.4c-1.4,0.1-2.9,0.2-4.3,0.2c-0.7,0-1.4,0-2.1,0c-0.7,0-1.4-0.1-2.1-0.1
				L211.9,5.7z"/>
			<path class="st2" d="M234,0l2.5,0.7c-0.4,0.9-0.9,1.7-1.5,2.6c-0.6,0.8-1.2,1.6-1.9,2.4c-0.7,0.7-1.3,1.4-2,1.9
				c-0.1-0.2-0.3-0.3-0.6-0.6s-0.5-0.4-0.8-0.6c-0.3-0.2-0.5-0.4-0.7-0.5c1-0.7,2-1.6,2.9-2.6C232.8,2.3,233.5,1.2,234,0z M232,16.8
				l2.5,0.6c-0.3,0.9-0.7,1.8-1.2,2.7c-0.5,0.9-1,1.7-1.6,2.3l-2.5-1c0.6-0.5,1.1-1.2,1.6-2S231.8,17.7,232,16.8z M229.5,8.2h21.6
				v2.3h-21.6V8.2z M229.8,13.9h20.9v2.3h-20.9V13.9z M232.7,3.4h2.3v11.7h-2.3V3.4z M233.7,2.6h16.5v2.3H233L233.7,2.6z
				 M236.3,17.6l2.4-0.3c0.2,0.7,0.3,1.5,0.4,2.4c0.1,0.8,0.2,1.6,0.2,2.1l-2.5,0.4c0-0.4,0-0.8-0.1-1.4c0-0.5-0.1-1.1-0.2-1.6
				C236.5,18.6,236.4,18.1,236.3,17.6z M237,3.4h2.2V15H237V3.4z M241.1,17.6l2.4-0.4c0.2,0.5,0.4,1,0.6,1.5
				c0.2,0.5,0.4,1.1,0.5,1.6s0.3,1,0.3,1.4l-2.6,0.5c-0.1-0.6-0.3-1.3-0.5-2.2S241.4,18.4,241.1,17.6z M241.2,3.4h2.2v11.7h-2.2V3.4
				z M245.5,3.4h2.4v11.7h-2.4V3.4z M245.9,17.5l2.5-0.8c0.4,0.5,0.8,1,1.2,1.6s0.8,1.2,1.1,1.7s0.6,1.1,0.8,1.5l-2.6,0.9
				c-0.2-0.4-0.4-1-0.7-1.5c-0.3-0.6-0.7-1.2-1.1-1.8C246.7,18.6,246.3,18,245.9,17.5z"/>
			<path class="st2" d="M258.3,9.3l1.4,0.7c-0.2,0.8-0.5,1.7-0.7,2.6c-0.3,0.9-0.6,1.8-0.9,2.6c-0.3,0.9-0.7,1.7-1.1,2.5
				c-0.4,0.8-0.8,1.4-1.2,2c-0.1-0.3-0.2-0.6-0.3-0.9c-0.1-0.3-0.3-0.6-0.4-0.9c-0.2-0.3-0.3-0.6-0.4-0.8c0.5-0.6,1-1.3,1.5-2.2
				c0.5-0.9,0.9-1.8,1.3-2.8C257.8,11,258.1,10.1,258.3,9.3z M255,8h9.7v2.4H255V8z M255.1,1.9l1.8-0.5c0.2,0.6,0.4,1.2,0.6,1.9
				c0.2,0.7,0.3,1.3,0.4,1.9s0.2,1.2,0.3,1.7l-2,0.5c0-0.5-0.1-1.1-0.2-1.7c-0.1-0.6-0.2-1.3-0.4-2S255.3,2.5,255.1,1.9z M258.7,0.1
				h2.4v22.2h-2.4V0.1z M261.1,10.6c0.1,0.1,0.3,0.3,0.6,0.6s0.5,0.6,0.8,1c0.3,0.4,0.6,0.7,0.9,1.1s0.5,0.7,0.8,1
				c0.2,0.3,0.4,0.5,0.5,0.6l-1.6,2c-0.2-0.3-0.4-0.7-0.6-1.2c-0.3-0.5-0.6-1-0.9-1.5s-0.6-1-0.9-1.5s-0.5-0.8-0.7-1.1L261.1,10.6z
				 M262.9,1.3l2.2,0.5c-0.2,0.6-0.4,1.3-0.6,2c-0.2,0.7-0.4,1.3-0.7,2s-0.4,1.2-0.6,1.7L261.5,7c0.2-0.5,0.4-1.1,0.5-1.7
				c0.2-0.7,0.3-1.3,0.5-2C262.7,2.5,262.8,1.9,262.9,1.3z M264.7,15.1l12.3-2.2l0.4,2.4l-12.3,2.2L264.7,15.1z M265.1,9.2l1.2-1.8
				c0.5,0.2,1,0.5,1.5,0.8s1,0.6,1.5,1c0.5,0.3,0.8,0.6,1.1,0.9l-1.3,2c-0.3-0.3-0.6-0.6-1.1-1c-0.4-0.4-0.9-0.7-1.4-1.1
				C266,9.8,265.6,9.5,265.1,9.2z M266.2,3.2l1.3-1.8c0.5,0.3,0.9,0.6,1.4,0.9c0.5,0.3,0.9,0.7,1.4,1c0.4,0.4,0.8,0.7,1,1L270,6.3
				c-0.2-0.3-0.6-0.7-1-1c-0.4-0.4-0.9-0.7-1.4-1.1S266.7,3.5,266.2,3.2z M272.1,0h2.4v22.4h-2.4V0z"/>
			<path class="st2" d="M281.6,4.1c0.5,0,0.9,0,1.3-0.1s0.7,0,1-0.1c0.5,0,1.1-0.1,1.8-0.2c0.7-0.1,1.5-0.1,2.5-0.2s1.9-0.2,2.9-0.3
				c1-0.1,2.1-0.2,3.2-0.3c0.8-0.1,1.7-0.1,2.5-0.2c0.8-0.1,1.6-0.1,2.3-0.1c0.7,0,1.4-0.1,1.9-0.1l0,2.8c-0.4,0-0.9,0-1.5,0
				c-0.6,0-1.1,0-1.7,0.1s-1,0.1-1.5,0.2c-0.8,0.2-1.4,0.6-2.1,1c-0.6,0.5-1.2,1-1.7,1.7c-0.5,0.6-0.8,1.3-1.1,2.1s-0.4,1.5-0.4,2.2
				c0,0.8,0.1,1.6,0.4,2.2c0.3,0.6,0.7,1.2,1.2,1.6c0.5,0.4,1.1,0.8,1.8,1.1c0.7,0.3,1.4,0.5,2.2,0.6c0.8,0.1,1.6,0.2,2.4,0.3
				l-1,2.9c-1,0-1.9-0.2-2.9-0.4c-0.9-0.2-1.8-0.6-2.6-1c-0.8-0.4-1.5-1-2.2-1.6c-0.6-0.6-1.1-1.4-1.5-2.2c-0.4-0.8-0.5-1.8-0.5-2.8
				c0-1.2,0.2-2.3,0.6-3.3c0.4-1,0.9-1.9,1.5-2.6s1.2-1.3,1.8-1.7c-0.5,0-1,0.1-1.7,0.2c-0.7,0.1-1.4,0.2-2.1,0.2s-1.5,0.2-2.3,0.3
				c-0.8,0.1-1.5,0.2-2.2,0.3c-0.7,0.1-1.3,0.2-1.9,0.3L281.6,4.1z M297.6,7.8c0.2,0.3,0.4,0.6,0.6,1c0.2,0.4,0.5,0.8,0.7,1.2
				c0.2,0.4,0.4,0.8,0.6,1.1l-1.6,0.7c-0.3-0.6-0.6-1.2-0.9-1.8s-0.6-1.1-1-1.6L297.6,7.8z M300.2,6.8c0.2,0.3,0.4,0.6,0.7,1
				c0.3,0.4,0.5,0.8,0.7,1.2c0.2,0.4,0.4,0.8,0.6,1.1l-1.6,0.8c-0.3-0.6-0.6-1.2-0.9-1.7c-0.3-0.5-0.7-1-1-1.6L300.2,6.8z"/>
			<path class="st2" d="M48.3,53.9c0.9-0.2,2-0.6,3.2-1c1.2-0.4,2.5-0.8,3.8-1.2l0.4,2.3c-1.2,0.4-2.3,0.8-3.5,1.3
				c-1.2,0.4-2.3,0.8-3.3,1.2L48.3,53.9z M48.6,46.1h6.9v2.4h-6.9V46.1z M51.1,41.5h2.4V61c0,0.6-0.1,1-0.2,1.4s-0.3,0.6-0.7,0.8
				c-0.3,0.2-0.7,0.3-1.2,0.4c-0.5,0.1-1,0.1-1.7,0.1c0-0.3-0.1-0.7-0.2-1.1c-0.1-0.4-0.3-0.8-0.4-1.2c0.4,0,0.7,0,1,0
				c0.3,0,0.5,0,0.6,0c0.2,0,0.3-0.1,0.3-0.4V41.5z M61.6,57l2,0.8c-0.6,0.8-1.3,1.6-2.1,2.4c-0.8,0.7-1.7,1.4-2.7,2
				c-1,0.6-2,1-3,1.4c-0.2-0.3-0.4-0.7-0.8-1c-0.3-0.4-0.6-0.7-0.9-0.9c1-0.3,2-0.6,2.9-1.1c0.9-0.5,1.8-1,2.6-1.6
				S61.2,57.6,61.6,57z M56,56h14.6v2.1H56V56z M56.4,48.8h6.3v5.6h-6.3V48.8z M58.3,50.6v2h2.3v-2H58.3z M58.6,42.4h9.2v5.5h-9.2
				V42.4z M60.8,44.2v1.8h4.7v-1.8H60.8z M62,54.3h2.4v9.6H62V54.3z M64.9,57.2c0.4,0.6,1,1.1,1.6,1.7c0.7,0.5,1.4,1,2.2,1.4
				c0.8,0.4,1.6,0.8,2.4,1c-0.2,0.1-0.3,0.3-0.6,0.6s-0.4,0.5-0.6,0.7c-0.2,0.2-0.3,0.5-0.5,0.7c-0.8-0.4-1.6-0.8-2.4-1.4
				c-0.8-0.6-1.5-1.2-2.2-1.9c-0.7-0.7-1.2-1.4-1.7-2.1L64.9,57.2z M63.7,48.8h6.5v5.6h-6.5V48.8z M65.7,50.6v2h2.4v-2H65.7z"/>
			<path class="st2" d="M79.7,41.6l2.5,0.8c-0.5,1.3-1.1,2.7-1.8,4.1s-1.5,2.7-2.3,3.9c-0.8,1.2-1.7,2.3-2.6,3.2
				c-0.1-0.2-0.2-0.5-0.4-0.9c-0.2-0.3-0.4-0.7-0.5-1c-0.2-0.4-0.4-0.6-0.5-0.8c0.8-0.7,1.5-1.6,2.2-2.6c0.7-1,1.3-2,1.9-3.2
				C78.8,43.9,79.3,42.7,79.7,41.6z M77.2,48.1l2.6-2.6v0v18.3h-2.6V48.1z M85.9,41.7l2.5,0.6c-0.4,1.3-1,2.6-1.6,3.8
				c-0.6,1.3-1.3,2.4-2,3.5s-1.4,2.1-2.2,2.9c-0.1-0.2-0.3-0.4-0.6-0.6c-0.2-0.2-0.5-0.5-0.7-0.7c-0.2-0.2-0.5-0.4-0.7-0.5
				c0.7-0.7,1.4-1.6,2-2.6c0.6-1,1.2-2,1.8-3.2S85.5,42.9,85.9,41.7z M85.2,45.4h11.5v2.4H84L85.2,45.4z M87.1,46.2h2.6v17.6h-2.6
				V46.2z M88.3,56h8.1v2.4h-8.1V56z M88.4,50.7h7.8V53h-7.8V50.7z"/>
			<path class="st2" d="M100.9,46.1l1.8,0.3c0,0.7-0.1,1.4-0.2,2.2c-0.1,0.8-0.2,1.6-0.4,2.4c-0.2,0.8-0.3,1.5-0.5,2.1l-1.9-0.7
				c0.2-0.5,0.4-1.2,0.6-1.9c0.2-0.7,0.3-1.5,0.4-2.2C100.8,47.5,100.9,46.7,100.9,46.1z M103,41.5h2.6v22.4H103V41.5z M105.2,46.2
				l1.8-0.7c0.4,0.6,0.7,1.3,1,2.1c0.3,0.7,0.5,1.4,0.7,1.9l-1.9,0.9c-0.1-0.4-0.2-0.8-0.4-1.2c-0.2-0.5-0.3-0.9-0.5-1.4
				S105.4,46.6,105.2,46.2z M109.9,42.6l2.5,0.4c-0.2,1.2-0.4,2.3-0.7,3.5c-0.3,1.1-0.6,2.2-0.9,3.2s-0.7,1.9-1.2,2.6
				c-0.2-0.1-0.4-0.3-0.7-0.4s-0.6-0.3-0.9-0.4c-0.3-0.1-0.5-0.2-0.7-0.3c0.4-0.7,0.8-1.5,1.2-2.4s0.6-1.9,0.9-3
				C109.5,44.7,109.7,43.7,109.9,42.6z M107.3,60.7h14.9v2.4h-14.9V60.7z M109.1,53.1h11.9v2.4h-11.9V53.1z M110.5,46.4h11.1v2.4
				h-11.9L110.5,46.4z M113.9,41.6h2.6V62h-2.6V41.6z"/>
			<path class="st2" d="M136.6,42.6c-0.1,0.4-0.2,1-0.4,1.7c-0.2,0.7-0.4,1.4-0.8,2.3c-0.3,0.6-0.6,1.3-0.9,1.9
				c-0.4,0.7-0.7,1.3-1.1,1.8c0.2-0.1,0.5-0.2,0.9-0.3c0.3-0.1,0.7-0.2,1.1-0.2c0.4,0,0.7-0.1,1-0.1c1,0,1.8,0.3,2.5,0.9
				c0.7,0.6,1,1.4,1,2.5c0,0.3,0,0.7,0,1.2c0,0.5,0,1,0,1.5s0,1,0,1.5s0,0.9,0,1.3h-2.6c0-0.3,0.1-0.6,0.1-1c0-0.4,0-0.8,0-1.2
				c0-0.4,0-0.9,0-1.3c0-0.4,0-0.8,0-1.1c0-0.8-0.2-1.3-0.6-1.6c-0.4-0.3-0.9-0.5-1.4-0.5c-0.7,0-1.4,0.2-2.1,0.5
				c-0.7,0.3-1.3,0.7-1.8,1.2c-0.4,0.4-0.7,0.7-1.1,1.2c-0.4,0.4-0.7,0.9-1.2,1.4l-2.3-1.7c1.1-1,2-2,2.7-2.9
				c0.8-0.9,1.4-1.8,1.9-2.7s0.9-1.7,1.2-2.5c0.2-0.7,0.4-1.3,0.6-2c0.2-0.7,0.3-1.3,0.3-1.9L136.6,42.6z M127.7,45
				c0.6,0.1,1.3,0.1,2.1,0.2c0.8,0,1.5,0.1,2.1,0.1c1.1,0,2.2,0,3.5-0.1c1.3,0,2.5-0.1,3.8-0.3s2.5-0.3,3.6-0.5v2.5
				c-0.8,0.1-1.8,0.2-2.7,0.3c-1,0.1-2,0.2-3,0.2c-1,0.1-2,0.1-2.9,0.1c-0.9,0-1.7,0-2.5,0c-0.3,0-0.7,0-1.2,0c-0.5,0-0.9,0-1.4-0.1
				s-1-0.1-1.4-0.1V45z M146.6,51.5c-0.2,0.1-0.5,0.2-0.8,0.3c-0.3,0.1-0.6,0.2-0.9,0.3s-0.6,0.2-0.9,0.3c-0.8,0.3-1.7,0.7-2.8,1.1
				c-1.1,0.4-2.2,0.9-3.3,1.5c-0.8,0.4-1.4,0.8-1.9,1.2c-0.5,0.4-0.9,0.8-1.2,1.2c-0.3,0.4-0.4,0.9-0.4,1.3c0,0.4,0.1,0.7,0.2,0.9
				c0.2,0.2,0.4,0.4,0.7,0.6s0.7,0.2,1.2,0.3c0.5,0.1,1,0.1,1.6,0.1c1,0,2.1-0.1,3.3-0.2c1.2-0.1,2.4-0.3,3.4-0.5l-0.1,2.8
				c-0.5,0.1-1.2,0.1-2,0.2c-0.8,0.1-1.6,0.1-2.4,0.2s-1.6,0-2.3,0c-1.2,0-2.3-0.1-3.3-0.3c-1-0.2-1.7-0.6-2.3-1.2
				c-0.6-0.6-0.9-1.4-0.9-2.4c0-0.8,0.2-1.5,0.6-2.2c0.4-0.6,0.9-1.2,1.5-1.8c0.6-0.5,1.3-1,2-1.5c0.7-0.4,1.4-0.8,2.1-1.2
				c0.8-0.4,1.4-0.7,2.1-1c0.6-0.3,1.2-0.5,1.7-0.8c0.5-0.2,1.1-0.5,1.5-0.7c0.4-0.2,0.9-0.4,1.3-0.6c0.4-0.2,0.8-0.4,1.2-0.6
				L146.6,51.5z"/>
			<path class="st2" d="M151.6,45.5h8.7v2.1h-8.7V45.5z M152.7,55.4h2.1v8.2h-2.1V55.4z M152.7,48.8h7v2h-7V48.8z M152.7,52.1h7v2
				h-7V52.1z M152.8,42.3h6.8v1.9h-6.8V42.3z M153.8,55.4h5.9v7.2h-5.9v-2.1h3.7v-3.1h-3.7V55.4z M160.3,60.1c1-0.2,2.1-0.4,3.5-0.6
				c1.3-0.2,2.7-0.5,4.1-0.7l0.2,2.1c-1.2,0.3-2.5,0.5-3.8,0.8c-1.3,0.3-2.4,0.5-3.5,0.7L160.3,60.1z M160.7,46.1h13.2v2.4h-13.2
				V46.1z M160.7,51.3h6.6v2.2h-6.6V51.3z M162.9,52.1h2.4v8.1l-2.4,0.5V52.1z M167.7,41.5h2.4c0,2.1,0,4.2,0,6.1s0.1,3.7,0.2,5.3
				c0.1,1.6,0.2,3,0.4,4.1s0.3,2.1,0.6,2.7s0.5,1,0.7,1c0.2,0,0.3-0.3,0.4-0.8c0.1-0.5,0.2-1.3,0.2-2.2c0.1,0.2,0.3,0.4,0.6,0.6
				c0.2,0.2,0.5,0.4,0.7,0.6c0.2,0.2,0.4,0.3,0.6,0.4c-0.2,1.3-0.4,2.3-0.7,2.9s-0.6,1.1-0.9,1.4c-0.3,0.2-0.6,0.4-0.9,0.4
				c-0.7,0-1.3-0.4-1.8-1.1c-0.5-0.7-0.9-1.7-1.2-2.9c-0.3-1.3-0.5-2.8-0.7-4.6s-0.3-3.9-0.3-6.2C167.8,46.7,167.7,44.2,167.7,41.5z
				 M170.2,42.6l1.8-0.9c0.4,0.4,0.8,0.9,1.2,1.5c0.4,0.6,0.7,1.1,0.9,1.5l-1.9,1c-0.2-0.4-0.5-0.9-0.9-1.5
				C171.1,43.6,170.6,43.1,170.2,42.6z"/>
			<path class="st2" d="M185.4,42.9c-0.1,0.5-0.1,1-0.2,1.5c0,0.5-0.1,1-0.1,1.5c0,0.7-0.1,1.5-0.1,2.4c0,1-0.1,2-0.1,3
				c0,1.1-0.1,2.1-0.1,3.1c0,1,0,1.9,0,2.7c0,0.8,0.2,1.5,0.5,2c0.3,0.5,0.7,0.8,1.2,1c0.5,0.2,1.1,0.3,1.8,0.3c1,0,1.9-0.1,2.8-0.4
				c0.8-0.3,1.6-0.6,2.3-1.1s1.3-1,1.8-1.6c0.5-0.6,1-1.2,1.5-1.8l1.9,2.4c-0.4,0.6-0.9,1.2-1.5,1.8c-0.6,0.6-1.3,1.2-2.2,1.8
				c-0.8,0.6-1.8,1-2.9,1.3c-1.1,0.3-2.3,0.5-3.7,0.5c-1.3,0-2.4-0.2-3.3-0.6c-0.9-0.4-1.7-1-2.2-1.8c-0.5-0.8-0.8-1.9-0.8-3.3
				c0-0.7,0-1.4,0-2.3c0-0.9,0-1.7,0.1-2.7c0-0.9,0-1.8,0.1-2.7c0-0.9,0-1.7,0.1-2.4c0-0.7,0-1.3,0-1.7c0-0.5,0-1.1-0.1-1.6
				s-0.1-1-0.2-1.4L185.4,42.9z"/>
			<path class="st2" d="M204.3,45.5c0.5,0,0.9,0,1.3-0.1c0.4,0,0.7,0,1-0.1c0.5,0,1.1-0.1,1.8-0.2c0.7-0.1,1.5-0.1,2.5-0.2
				s1.9-0.2,2.9-0.3s2.1-0.2,3.2-0.3c0.8-0.1,1.7-0.1,2.5-0.2c0.8-0.1,1.6-0.1,2.3-0.2c0.7,0,1.4-0.1,1.9-0.1v2.8
				c-0.4,0-0.9,0-1.5,0c-0.6,0-1.1,0-1.7,0.1s-1,0.1-1.5,0.2c-0.8,0.2-1.4,0.6-2.1,1.1c-0.6,0.5-1.2,1-1.6,1.7
				c-0.5,0.6-0.8,1.3-1.1,2.1c-0.3,0.7-0.4,1.5-0.4,2.2c0,0.8,0.1,1.6,0.4,2.2s0.7,1.2,1.2,1.6c0.5,0.4,1.1,0.8,1.8,1.1
				c0.7,0.3,1.4,0.5,2.2,0.6c0.8,0.1,1.6,0.2,2.4,0.3l-1,2.9c-1,0-1.9-0.2-2.9-0.4s-1.8-0.6-2.7-1c-0.8-0.4-1.5-1-2.2-1.6
				s-1.1-1.4-1.5-2.2c-0.4-0.8-0.5-1.8-0.5-2.8c0-1.2,0.2-2.3,0.6-3.3c0.4-1,0.9-1.9,1.5-2.6s1.2-1.3,1.8-1.7
				c-0.5,0.1-1.1,0.1-1.7,0.2s-1.4,0.2-2.1,0.2c-0.8,0.1-1.5,0.2-2.3,0.3c-0.8,0.1-1.5,0.2-2.2,0.3c-0.7,0.1-1.3,0.2-1.9,0.3
				L204.3,45.5z"/>
			<path class="st2" d="M233.4,43.8c0.3,0,0.7,0,1,0.1c0.4,0,0.7,0,0.9,0c0.4,0,0.8,0,1.2,0s0.9,0,1.5-0.1c0.5,0,1,0,1.4-0.1
				c0.4,0,0.8,0,1.1-0.1c0.3,0,0.5-0.1,0.8-0.1c0.3-0.1,0.5-0.1,0.7-0.2l1.7,1.3c-0.1,0.2-0.3,0.3-0.4,0.5c-0.1,0.2-0.2,0.3-0.3,0.5
				c-0.3,0.4-0.6,1-0.9,1.8s-0.7,1.6-1.1,2.5c-0.4,0.9-0.8,1.8-1.1,2.6c-0.2,0.5-0.5,1.1-0.8,1.7s-0.5,1.2-0.8,1.8
				c-0.3,0.6-0.5,1.2-0.8,1.7c-0.3,0.5-0.5,1-0.8,1.4c-0.5,0.7-1,1.2-1.5,1.5c-0.6,0.3-1.2,0.5-2,0.5c-1,0-1.8-0.3-2.5-1
				c-0.7-0.7-1-1.6-1-2.7c0-0.9,0.2-1.8,0.6-2.6c0.4-0.8,1-1.5,1.8-2.1c0.8-0.6,1.7-1.1,2.7-1.4s2.2-0.5,3.5-0.5
				c1.4,0,2.7,0.2,4,0.5c1.3,0.3,2.5,0.7,3.6,1.2s2.1,1,3,1.5c0.9,0.5,1.7,1,2.3,1.5l-1.2,3c-0.7-0.7-1.5-1.3-2.4-1.9
				c-0.9-0.6-1.8-1.2-2.9-1.7c-1-0.5-2.1-0.9-3.3-1.2c-1.2-0.3-2.3-0.5-3.6-0.5c-1.2,0-2.2,0.2-3.1,0.6c-0.9,0.4-1.5,0.9-2,1.5
				c-0.4,0.6-0.7,1.2-0.7,1.8c0,0.4,0.1,0.8,0.3,1c0.2,0.2,0.5,0.3,0.8,0.3c0.3,0,0.5-0.1,0.7-0.2c0.2-0.1,0.4-0.3,0.6-0.6
				c0.2-0.3,0.4-0.7,0.7-1.1c0.2-0.4,0.4-0.9,0.7-1.4c0.2-0.5,0.5-1,0.7-1.5c0.2-0.5,0.4-1,0.7-1.5c0.3-0.7,0.6-1.3,0.9-2.1
				c0.3-0.7,0.6-1.4,0.9-2.1s0.6-1.3,0.8-1.8c-0.2,0-0.6,0-0.9,0c-0.4,0-0.8,0-1.2,0c-0.4,0-0.8,0-1.2,0.1c-0.4,0-0.7,0-1,0.1
				c-0.3,0-0.6,0-0.9,0.1c-0.4,0-0.7,0.1-1,0.1L233.4,43.8z M249,49.3c-0.1,1.7-0.2,3.3-0.5,4.7c-0.3,1.4-0.6,2.7-1.2,3.8
				c-0.5,1.1-1.3,2.2-2.2,3.1s-2.1,1.8-3.5,2.5l-2.3-1.9c1.5-0.6,2.6-1.3,3.5-2.2s1.6-1.7,2-2.6c0.5-0.9,0.8-1.8,1-2.7
				c0.2-0.9,0.3-1.7,0.3-2.5c0-0.4,0-0.9,0-1.3c0-0.4,0-0.8,0-1.2L249,49.3z"/>
			<path class="st2" d="M255.9,45.5c0.5,0,0.9,0,1.3-0.1c0.4,0,0.7,0,1-0.1c0.5,0,1.1-0.1,1.8-0.2c0.7-0.1,1.5-0.1,2.5-0.2
				s1.9-0.2,2.9-0.3s2.1-0.2,3.2-0.3c0.8-0.1,1.7-0.1,2.5-0.2c0.8-0.1,1.6-0.1,2.3-0.2c0.7,0,1.4-0.1,1.9-0.1v2.8
				c-0.4,0-0.9,0-1.5,0c-0.6,0-1.1,0-1.7,0.1c-0.6,0-1,0.1-1.5,0.2c-0.8,0.2-1.4,0.6-2.1,1.1c-0.6,0.5-1.2,1-1.6,1.7
				c-0.5,0.6-0.8,1.3-1.1,2.1s-0.4,1.5-0.4,2.2c0,0.8,0.1,1.6,0.4,2.2s0.7,1.2,1.2,1.6c0.5,0.4,1.1,0.8,1.8,1.1s1.4,0.5,2.2,0.6
				c0.8,0.1,1.6,0.2,2.4,0.3l-1,2.9c-1,0-1.9-0.2-2.9-0.4s-1.8-0.6-2.7-1c-0.8-0.4-1.5-1-2.2-1.6c-0.6-0.6-1.1-1.4-1.5-2.2
				c-0.4-0.8-0.5-1.8-0.5-2.8c0-1.2,0.2-2.3,0.6-3.3c0.4-1,0.9-1.9,1.5-2.6c0.6-0.7,1.2-1.3,1.8-1.7c-0.5,0.1-1.1,0.1-1.7,0.2
				s-1.4,0.2-2.1,0.2c-0.8,0.1-1.5,0.2-2.3,0.3c-0.8,0.1-1.5,0.2-2.2,0.3s-1.3,0.2-1.9,0.3L255.9,45.5z"/>
			<path class="st2" d="M297.3,44.4c-0.4,0.3-0.7,0.5-1.1,0.8c-0.4,0.3-0.7,0.5-0.9,0.8c-0.4,0.3-0.9,0.7-1.4,1.2
				c-0.6,0.4-1.1,0.9-1.8,1.4c-0.6,0.5-1.2,1-1.8,1.4c-0.6,0.5-1.1,0.9-1.5,1.2c-0.4,0.4-0.7,0.7-0.9,0.9s-0.1,0.5,0,0.7
				s0.5,0.6,0.9,1c0.4,0.3,0.9,0.7,1.4,1.2s1.2,0.9,1.8,1.5c0.6,0.5,1.3,1.1,2,1.7c0.7,0.6,1.3,1.1,2,1.7s1.2,1.1,1.7,1.6l-2.5,2.3
				c-0.6-0.7-1.3-1.4-2-2.1c-0.4-0.4-0.9-0.9-1.5-1.4c-0.6-0.5-1.2-1.1-1.9-1.7s-1.4-1.2-2.1-1.8c-0.7-0.6-1.3-1.1-1.8-1.6
				c-0.8-0.7-1.3-1.3-1.5-1.8c-0.2-0.5-0.2-1.1,0.1-1.6s0.8-1.1,1.6-1.8c0.5-0.4,1-0.8,1.6-1.3c0.6-0.5,1.3-1,1.9-1.6
				c0.7-0.6,1.3-1.1,1.9-1.6c0.6-0.5,1.1-1,1.5-1.4c0.3-0.3,0.6-0.6,1-1s0.6-0.7,0.8-0.9L297.3,44.4z"/>
			<path class="st2" d="M310.2,46.7c1,0,2,0,3-0.1s2.1-0.2,3.2-0.4c1.1-0.2,2.1-0.4,3.2-0.6v2.7c-1,0.2-2,0.4-3.2,0.6
				c-1.1,0.2-2.2,0.3-3.3,0.4c-1.1,0.1-2.1,0.1-3,0.1c-0.6,0-1.1,0-1.5,0c-0.5,0-0.9,0-1.3-0.1l-0.1-2.7c0.6,0.1,1.1,0.1,1.6,0.1
				C309.2,46.7,309.7,46.7,310.2,46.7z M316.1,43c-0.1,0.3-0.2,0.7-0.3,1.1c-0.1,0.4-0.2,0.8-0.2,1c-0.1,0.6-0.2,1.2-0.4,2
				c-0.2,0.8-0.3,1.6-0.5,2.5s-0.4,1.7-0.6,2.5c-0.2,0.8-0.5,1.8-0.8,2.8s-0.6,2-1,3c-0.3,1-0.7,2-1,2.9c-0.4,0.9-0.7,1.7-1,2.4
				l-3-1c0.4-0.6,0.7-1.3,1.1-2.2c0.4-0.9,0.8-1.8,1.1-2.8s0.7-2,1-3c0.3-1,0.6-1.9,0.8-2.7c0.2-0.6,0.3-1.1,0.5-1.8
				c0.1-0.6,0.3-1.2,0.4-1.8c0.1-0.6,0.2-1.1,0.3-1.6c0.1-0.5,0.2-0.9,0.2-1.2c0-0.4,0.1-0.8,0.1-1.3c0-0.4,0-0.8,0-1L316.1,43z
				 M318.8,56.3c-0.1,0.4-0.2,0.7-0.2,1.1c-0.1,0.4-0.1,0.7-0.1,1c0,0.3,0.1,0.5,0.2,0.8c0.1,0.2,0.3,0.4,0.5,0.6
				c0.3,0.2,0.6,0.3,1.1,0.4c0.5,0.1,1,0.2,1.7,0.2c0.8,0,1.6,0,2.4-0.1s1.7-0.2,2.5-0.3l-0.1,2.7c-0.7,0.1-1.4,0.2-2.2,0.2
				c-0.8,0.1-1.7,0.1-2.6,0.1c-2,0-3.5-0.3-4.5-1c-1-0.6-1.6-1.6-1.6-2.8c0-0.5,0-1.1,0.1-1.6s0.2-1,0.3-1.5L318.8,56.3z
				 M317.8,50.3c0.7-0.1,1.4-0.1,2.2-0.2s1.6-0.1,2.4-0.1c0.7,0,1.4,0,2.1,0c0.7,0,1.4,0.1,2.1,0.2l-0.1,2.6c-0.6-0.1-1.3-0.1-2-0.2
				c-0.7-0.1-1.4-0.1-2.1-0.1c-0.8,0-1.6,0-2.3,0.1s-1.5,0.1-2.2,0.2V50.3z M323.9,43.7c0.2,0.3,0.4,0.6,0.7,1
				c0.2,0.4,0.5,0.8,0.7,1.2c0.2,0.4,0.4,0.8,0.6,1.1l-1.8,0.7c-0.2-0.3-0.3-0.7-0.6-1.1c-0.2-0.4-0.4-0.8-0.7-1.2
				c-0.2-0.4-0.4-0.8-0.7-1.1L323.9,43.7z M326.7,42.7c0.2,0.3,0.5,0.7,0.7,1.1s0.5,0.8,0.7,1.2c0.2,0.4,0.4,0.7,0.5,1l-1.7,0.8
				c-0.2-0.5-0.5-1.1-0.9-1.7c-0.4-0.6-0.7-1.2-1-1.6L326.7,42.7z"/>
			<path class="st2" d="M335,46.1c1.5,0.2,2.8,0.3,4.1,0.4c1.3,0.1,2.5,0.1,3.6,0c1.1,0,2.2-0.1,3.1-0.2c0.7-0.1,1.4-0.2,2.1-0.3
				c0.7-0.1,1.4-0.3,2.1-0.4c0.7-0.2,1.3-0.3,2-0.5l0.3,2.7c-0.5,0.2-1.1,0.3-1.8,0.4c-0.6,0.1-1.3,0.2-1.9,0.3
				c-0.7,0.1-1.3,0.2-1.9,0.3c-1.6,0.2-3.3,0.3-5.2,0.3s-4.1-0.1-6.4-0.3L335,46.1z M339.5,54.1c-0.4,0.6-0.7,1.1-0.9,1.6
				s-0.3,1.1-0.3,1.6c0,1,0.5,1.8,1.4,2.3c0.9,0.5,2.2,0.7,3.9,0.7c1.3,0,2.4-0.1,3.5-0.2c1.1-0.1,2-0.2,2.8-0.4l-0.1,2.7
				c-0.7,0.1-1.6,0.3-2.6,0.4c-1.1,0.1-2.3,0.2-3.7,0.2c-1.6,0-3-0.2-4.2-0.6c-1.2-0.4-2.1-1-2.7-1.8c-0.6-0.8-1-1.7-1-2.9
				c0-0.7,0.1-1.4,0.3-2.1c0.2-0.7,0.5-1.4,0.9-2.2L339.5,54.1z M343.7,44.8c-0.1-0.3-0.2-0.6-0.3-1c-0.1-0.4-0.3-0.8-0.4-1.2
				l2.9-0.3c0.1,0.6,0.2,1.2,0.4,1.8c0.2,0.6,0.3,1.2,0.5,1.8c0.2,0.6,0.4,1.1,0.6,1.7c0.4,1,0.8,2,1.3,3s1,1.8,1.4,2.4
				c0.2,0.3,0.4,0.5,0.6,0.8c0.2,0.2,0.4,0.5,0.6,0.7l-1.3,1.9c-0.3-0.1-0.8-0.1-1.2-0.2c-0.5-0.1-1-0.1-1.6-0.2
				c-0.6-0.1-1.2-0.1-1.8-0.2c-0.6-0.1-1.1-0.1-1.6-0.1l0.2-2.3c0.4,0,0.9,0.1,1.3,0.1c0.5,0,0.9,0.1,1.3,0.1s0.8,0.1,1,0.1
				c-0.3-0.5-0.6-1-1-1.6c-0.3-0.6-0.7-1.3-1-1.9c-0.3-0.7-0.6-1.4-0.9-2s-0.5-1.3-0.7-1.8C344,45.6,343.9,45.2,343.7,44.8z"/>
			<path class="st2" d="M363.2,44.8c0,0.3-0.1,0.6-0.1,0.9s-0.1,0.7-0.1,1s0,0.6-0.1,0.8c0,0.5,0,1.1,0,1.6s0,1.2,0,1.8
				c0,0.6,0.1,1.2,0.1,1.8c0.1,1.2,0.3,2.3,0.5,3.2c0.2,0.9,0.5,1.6,0.9,2.1c0.4,0.5,0.8,0.8,1.3,0.8c0.3,0,0.6-0.1,0.8-0.4
				c0.3-0.3,0.5-0.7,0.7-1.2c0.2-0.5,0.4-1,0.6-1.6c0.2-0.6,0.3-1.1,0.5-1.6l2.2,2.6c-0.5,1.4-1,2.5-1.5,3.3
				c-0.5,0.8-1.1,1.4-1.6,1.8c-0.5,0.4-1.1,0.5-1.7,0.5c-0.8,0-1.6-0.3-2.4-0.9c-0.7-0.6-1.4-1.5-1.9-2.8c-0.5-1.3-0.9-3-1.2-5.1
				c-0.1-0.7-0.1-1.5-0.2-2.3s-0.1-1.6-0.1-2.3c0-0.7,0-1.3,0-1.8c0-0.3,0-0.7,0-1.2c0-0.4-0.1-0.8-0.2-1.2L363.2,44.8z M375.4,45.3
				c0.4,0.5,0.9,1.2,1.3,2c0.4,0.8,0.8,1.6,1.1,2.5c0.3,0.9,0.6,1.8,0.9,2.7c0.3,0.9,0.5,1.8,0.6,2.7s0.3,1.7,0.3,2.4l-2.8,1.1
				c-0.1-1-0.3-2.1-0.5-3.2s-0.5-2.3-0.9-3.4c-0.4-1.1-0.8-2.2-1.2-3.2c-0.5-1-1-1.9-1.7-2.6L375.4,45.3z"/>
			<path class="st2" d="M395.1,62c-0.6,0-1-0.2-1.4-0.6c-0.4-0.4-0.6-0.8-0.6-1.4c0-0.6,0.2-1.1,0.6-1.4s0.8-0.5,1.4-0.5
				c0.5,0,1,0.2,1.4,0.5s0.6,0.8,0.6,1.4c0,0.6-0.2,1-0.6,1.4C396.1,61.8,395.6,62,395.1,62z M394,55.7l-0.6-8.5l-0.1-3.4h3.6
				l-0.1,3.4l-0.6,8.5H394z"/>
		</g>
	</g>
	<g>
		<path class="st2" d="M415.3,71.7c-0.1,0-0.3,0-0.4-0.1c-0.5-0.2-0.7-0.8-0.5-1.3l32.8-68.4c0.2-0.5,0.8-0.7,1.3-0.5
			c0.5,0.2,0.7,0.8,0.5,1.3l-32.8,68.4C416,71.5,415.7,71.7,415.3,71.7z"/>
		<path class="st2" d="M432.7,59.9c-0.1,0-0.3,0-0.4-0.1c-0.5-0.2-0.7-0.8-0.5-1.3l14.8-30.8c0.2-0.5,0.8-0.7,1.3-0.5
			c0.5,0.2,0.7,0.8,0.5,1.3l-14.8,30.8C433.4,59.7,433.1,59.9,432.7,59.9z"/>
	</g>
	<g>
		<path class="st2" d="M33.8,71.7c-0.4,0-0.7-0.2-0.9-0.6L0.1,2.8c-0.2-0.5,0-1.1,0.5-1.3c0.5-0.2,1.1,0,1.3,0.5l32.8,68.4
			c0.2,0.5,0,1.1-0.5,1.3C34.1,71.7,33.9,71.7,33.8,71.7z"/>
		<path class="st2" d="M16.4,59.9c-0.4,0-0.7-0.2-0.9-0.6L0.7,28.6c-0.2-0.5,0-1.1,0.5-1.3c0.5-0.2,1.1,0,1.3,0.5l14.8,30.8
			c0.2,0.5,0,1.1-0.5,1.3C16.7,59.9,16.5,59.9,16.4,59.9z"/>
	</g>
</g>
</svg>
