<?xml version="1.0" encoding="utf-8"?>
<!-- Generator: Adobe Illustrator 28.0.0, SVG Export Plug-In . SVG Version: 6.00 Build 0)  -->
<svg version="1.1" id="レイヤー_1" xmlns="http://www.w3.org/2000/svg" xmlns:xlink="http://www.w3.org/1999/xlink" x="0px"
	 y="0px" viewBox="0 0 290 272.3" style="enable-background:new 0 0 290 272.3;" xml:space="preserve">
<style type="text/css">
	.st0{fill:#384363;}
	.st1{fill:#252C42;}
	.st2{fill:#5B6782;}
	.st3{fill:#FDBD15;}
	.st4{fill:url(#SVGID_1_);}
	.st5{fill:#1367BA;}
	.st6{fill:#1F83D1;}
	.st7{fill:#EBEBEB;}
	.st8{enable-background:new    ;}
	.st9{fill:#C7D5EA;}
	.st10{fill:#B3C6E8;}
	.st11{fill:#72593A;}
	.st12{fill:#9CB3E2;}
	.st13{fill:#DAE3EF;}
	.st14{fill:url(#SVGID_00000122710470103920467770000002937354827240528534_);}
	.st15{fill:url(#SVGID_00000121274037045884522860000006481558670934408333_);}
	.st16{fill:#F4BB67;}
	.st17{fill:url(#SVGID_00000013881634961348327330000007971818668650952638_);}
	.st18{fill:url(#SVGID_00000062884254846134451680000005636521105702901658_);}
	.st19{fill:url(#SVGID_00000090284957093023451590000004147518826731174574_);}
	.st20{fill:url(#SVGID_00000101065782304647039710000011082431055519508098_);}
	.st21{fill:url(#SVGID_00000150075180881531869470000004957160095268281278_);}
	.st22{fill:url(#SVGID_00000089562103280431427410000002673457791966130572_);}
	.st23{opacity:8.000000e-02;fill:#212A3D;}
	.st24{fill:#F7DBC5;}
	.st25{fill:#DEBAA7;}
	.st26{fill:#F0F0F0;}
	.st27{fill:#44527A;}
	.st28{fill:#FFFFFF;}
	.st29{fill:#845E28;}
	.st30{fill:#333333;}
	.st31{fill:#3C3C3C;}
	.st32{fill:#414141;}
	.st33{fill:#EBCAB5;}
	.st34{fill:#4F3A25;}
	.st35{fill:#083E9E;}
	.st36{fill:#1553B7;}
	.st37{fill:#304665;}
	.st38{fill:#EBF1F7;}
	.st39{fill:#4C4C4C;}
	.st40{fill:url(#SVGID_00000008854198876966199590000003585196857612020892_);}
	.st41{fill:url(#SVGID_00000072254154068971740630000012884244772623134341_);}
	.st42{fill:#D9DADA;}
	.st43{fill:#B2B2B3;}
	.st44{fill:#C6C7C7;}
	.st45{fill:#868686;}
	.st46{fill:#33B0FF;}
	.st47{opacity:0.3;fill:#FFFFFF;}
	.st48{fill:url(#SVGID_00000117636796341557119100000016462757200475208866_);}
	.st49{opacity:0.4;fill:#FFFFFF;}
	.st50{opacity:0.25;fill:#FFFFFF;}
	.st51{opacity:0.12;fill:#FFFFFF;}
	.st52{fill:#E89E0C;}
	.st53{fill:#FFD21F;}
	.st54{fill:#FCF8F7;}
	.st55{fill:url(#SVGID_00000103961791090183542910000005561353830380252295_);}
	.st56{fill:url(#SVGID_00000000203602183161572070000011307380469742498979_);}
	.st57{fill:url(#SVGID_00000108279221848461108850000012539713413446646401_);}
	.st58{fill:#979797;}
	.st59{fill:#303460;}
	.st60{fill:#333366;}
	.st61{fill:#DE723B;}
	.st62{fill:#212A3D;}
	.st63{fill:#684F3E;}
	.st64{fill:url(#SVGID_00000167360200430539200450000002951583846012199318_);}
	.st65{fill:url(#SVGID_00000023999236221380302500000015698044388699367594_);}
	.st66{fill:url(#SVGID_00000101819251023238875980000003418137958268208260_);}
	.st67{opacity:5.000000e-02;fill:#1E1E49;}
	.st68{fill:#F5F9FC;}
	.st69{opacity:0.6;}
	.st70{opacity:0.2;fill:#FFFFFF;}
	.st71{fill:none;}
	.st72{fill:#898989;}
	.st73{fill:#8182AE;}
	.st74{fill:#ADC2DA;}
	.st75{fill:#73453E;}
	.st76{opacity:0.5;}
	.st77{fill:#8C8278;}
	.st78{fill:#DCC8BE;}
	.st79{fill:#A3B76D;}
	.st80{fill:#85A473;}
	.st81{fill:#5F7DA2;}
	.st82{fill:#EFEFEF;}
	.st83{fill:#DEDEDE;}
	.st84{fill:#FAFAFA;}
	.st85{fill:#EDEDED;}
	.st86{opacity:0.5;fill:#C8C8C8;}
	.st87{fill:#D6D6D6;}
	.st88{fill:#89645D;}
	.st89{fill:#A37A74;}
	.st90{fill:#704F4A;}
	.st91{fill:#C8E6E8;}
	.st92{fill:#492F2C;}
	.st93{fill:#C62E2E;}
	.st94{fill:#DB3737;}
	.st95{fill:#FFAED6;}
	.st96{fill:#EA5959;}
	.st97{fill:#DB72A5;}
	.st98{fill:#F2F2F2;}
	.st99{fill:#EF95B6;}
	.st100{fill:#FFABC5;}
	.st101{fill:#EF954B;}
	.st102{fill:#FFB26C;}
	.st103{fill:#E5D783;}
	.st104{fill:#FFF5AC;}
	.st105{opacity:0.84;fill:#B3E2F2;}
	.st106{fill:#A19378;}
	.st107{fill:#EFDBB2;}
	.st108{fill:#93876E;}
	.st109{fill:#D7C6A1;}
	.st110{fill:#BBAC8C;}
	.st111{fill:#3B3944;}
	.st112{fill:#DCDDDD;}
	.st113{fill:#FCFCFB;}
	.st114{fill:#35333D;}
	.st115{fill:#725C50;}
	.st116{fill:#2E6147;}
	.st117{fill:#5B4850;}
	.st118{fill:#262525;}
	.st119{fill:#E2BA40;}
	.st120{fill:#FAD047;}
	.st121{fill:#C7A235;}
	.st122{fill:#C9A13C;}
	.st123{fill:#EDE4D9;}
	.st124{fill:#FFFAF0;}
</style>
<g>
	<polygon class="st124" points="162.1,177.6 266.9,177.6 250,166.8 165.4,166.8 	"/>
	<polygon class="st124" points="23.7,221.1 262,221.1 232.1,193.2 41.1,193.2 	"/>
	<g>
		<g>
			<g>
				<g>
					<g>
						<g>
							<g>
								<path class="st72" d="M41.5,220.8c15.2,0,30.5,0,45.7,0c7.5,0,15,0,22.5,0c8.7,0,17.3,0,26,0c16.5,0,33,0,49.4,0
									c10,0,20,0,30,0c9.4,0,18.9,0,28.3,0c5.8,0,11.5,0,17.3,0c-1.9-1.8-3.9-3.6-5.8-5.4c-7.7-7.3-15.4-14.5-23.1-21.8
									c-3.2,0-6.5,0-9.8,0c-9.2,0-18.5,0-27.7,0c-16.2,0-32.4,0-48.7,0c-14.5,0-29,0-43.5,0c-1.4,0-2.9,0-4.3,0
									c-5.2,0-10.4,0-15.6,0c-6.7,0-13.3,0-19.7-0.1c-0.9,0-1.9,0-2.8,0c-6.4,0-11.3-0.1-16.8-0.2c-0.8,0-1.3-0.1-1.9-0.1l2.8,0
									c4.4,0,8.9,0,13.4,0c5.7,0,11.4,0,17.2,0c15.5,0,31,0,46.6,0c9.1,0,18.3,0,27.5,0c10,0,20,0,30.1,0c10.5,0,20.9,0,31.4-0.1
									c7.4,0,14.7,0,22.1,0l2.3,2.2c8,7.5,15.9,15,23.9,22.5c1.2,1.1,2.4,2.3,3.6,3.4c-5.1,0-10.3,0-15.4,0c-7.8,0-15.6,0-23.4,0
									c-7.5,0-15,0-22.5,0.1c-7.6,0-15.3,0-22.9,0c-15.2,0-30.3,0-45.5,0c-8.5,0-16.9,0-25.4,0c-10.1,0-20.2,0-30.3,0l-27.5,0
									c-5.1,0-10.3,0-15.4,0c-4.2,0-7.7,0-10-0.1c-0.2,0-0.7,0-0.5,0c0.9-0.1,1.4-0.2,2.9-0.2c1,0,3.5,0,5.4-0.1
									c0.2,0,0.4,0,0.6,0L41.5,220.8L41.5,220.8z"/>
							</g>
						</g>
					</g>
				</g>
			</g>
			<g>
				<g>
					<g>
						<path class="st24" d="M205.3,97.3c-1.7,0.6-4.5,2.8-5.3,3.6c-0.9,0.8-1.6-0.5-1.1-2.1s2.1-6,3.3-6.6c1.2-0.6,4.1-2.3,4.1-2.3
							s2.2-0.4,2.6,1.4C209.1,93.1,205.3,97.3,205.3,97.3z"/>
					</g>
				</g>
				<g>
					<g>
						<path class="st73" d="M181.3,142.7c-0.2-0.2-1.7,0.3-2.7,1.4c-3,3-7.4,6.9-10.3,10.3c-4,4.6-7.2,10.1-8,12.5
							c-0.8,2.4-0.2,3.6,1,4.5c1.1,0.9,5,1.1,11.4,0.3c6.4-0.8,16.3-3.2,21.7-5.4c5.4-2.2,9-3.7,11-3.5c1.3,0.1,2.5,1,3.2,1.6l3.6,5
							c0.7,0,4,2.6,4.7,2.5c7.6-0.4,15.2,0,19.3-0.7c4.4-0.7,11.3-5,12.6-6.8c1.3-1.8,1.6-4.1,0.6-6.4c-1-2.3-7-4.5-15.3-4.2
							c-3.3,0.1-6.6,0.6-9.5,1.2c0.2-0.8,1.4-6,3.5-10.4c0.1-0.3,0.2-0.5,0.3-0.8c-1.5,1-4.5,2.5-8.9,2.6c-5.7,0.2-11-3.2-12.1-3.9
							c-0.5,0.1-2.4,0.5-4.6,2.4c-2.6,2.2-4.6,5.9-8.1,7.6c-3.3,1.6-14.5,4.7-19.7,7.1c1.7-5.3,4.7-10.6,6.5-13.4
							c0.7-1.1,0.2-2,0-2.2L181.3,142.7z"/>
					</g>
				</g>
				<g>
					<g>
						<path class="st24" d="M231.6,118.4c0,0-0.6-7.6-1.8-12.7c-1.1-5.1,0.6-8.4-0.6-15.8c-1.2-7.4-3.1-10.9-5.1-10.9
							c-2.1,0-11.9,4.7-17.3,10.5l1.6,3l12.7-2c0,0,1.7,5.2,1.5,8.3c-0.2,3.1-0.5,5.8-1.9,8.2l4.8,13.3L231.6,118.4z"/>
					</g>
				</g>
				<g>
					<g>
						<path class="st74" d="M206.6,125.1c0,0,2.6,4.9,2.6,6.8c0,1.9-1.9,10.4-1.9,10.4s5.9,4.2,12.3,4c4.4-0.1,7.4-1.7,8.9-2.6
							c2-5,3.5-13,3.8-16.4c0.3-3.6,0.1-7.4-0.2-8.7c-0.4-1.4-0.8-6.1-1-6.7c-1-2.4-6.2-6.9-8.3-7c-1.7-0.1-2.3,2-2.3,2l-9.6,2.3
							c0,0-1.3,0-2.9,0.9c0,0-3.2,0.8-4.5,2.1c-1.7,1.6-3,4.5-3.1,4.8c0,0.3,2.4,2.8,2.8,4.1c0.3,1.3,1.3,2.8,1.5,3.1
							C204.5,124.3,205.4,123.9,206.6,125.1z"/>
					</g>
				</g>
				<g>
					<g>
						<path class="st75" d="M223.3,94.5c0,0,0.2-3.5-0.7-6.6c-0.9-3-3.9-4.8-5.9-4.9c0,0-2.6-0.5-5.7,0.9s-4.7,4.7-4.3,8.4
							c0.4,3.7,4.3,8.1,6.5,8.5L223.3,94.5z"/>
					</g>
				</g>
				<g>
					<g>
						<path class="st24" d="M212.4,93.6c-0.4,0.5,0.2,1.4-0.8,1c-1-0.4-1.3-1-1.8-0.3c-0.5,0.6-0.6,1.8-0.1,2.9
							c0.6,1.2,1.5,1.8,2.1,1.8c0.6,0,0.8,0,0.8,0s0.6,2.1,0.6,3.8c0,1.7-0.6,5.2-3,6.5c0,0,3.1,4.3,6.8,3.5
							c3.7-0.8,3.7-5.9,3.7-5.9s-0.6,0-1.2-0.2c-0.6-0.2-1-1.8-0.8-2.5c0.2-0.7,0.9-0.6,1.8-0.6c0.9,0,1.8-0.5,1.9-1.8
							c0.1-1.2,1-3.9,0.9-5.9c0-1.9-0.3-4.7-2.2-7.2c-2-2.6-5.6-1.5-5.6-1.5s-2.4,0.6-2.7,2.8C212.6,92.3,213.1,92.5,212.4,93.6z"/>
					</g>
				</g>
				<g class="st76">
					<g>
						<polygon class="st28" points="220.9,93.5 221.3,97 223,95.4 						"/>
					</g>
				</g>
				<g>
					<g>
						<g>
							<path class="st24" d="M205,124c-1.3,0-2.8,1.6-4.7,4.1c-2.7,3.5-7.8,7.6-10.1,9c-2.3,1.4-4.2,0.6-5.3-1
								c-1.1-1.6-0.2-8.3,1-12.6c1.1-4.3,2.5-12.3,2.5-13.3c0-1,1.8-6.6,2-7.3c0.2-0.8,0.1-1.7,0.8-2.7c0.7-1,3.6-2.6,4.9-2.8
								c1.4-0.2,3.2,0.7,3.8,1.1c0.6,0.4,1,1-0.2,1.5c-1.2,0.5-3.2,2.2-3.6,3.8c-0.4,1.6-1.5,4.1-2.7,4.9c-1.2,0.8-1.6,1.8-1.6,1.8
								c-0.8,3.9-1.7,18-1.2,17.5c0.5-0.5,8.2-8.9,9.1-10.3c0.3-0.5,0.3-0.4,0.5-1c0,0,2.4,0.6,4.2,3.7C205.9,122.9,205,124,205,124
								z"/>
						</g>
					</g>
				</g>
				<g>
					<g>
						<g>
							<g>
								<g>
									<path d="M211.4,124.6c0.6-0.2,1.3-0.3,1.9-0.5c0.3-0.1,0.7-0.1,1-0.2c0.4-0.1,0.7-0.2,1.1-0.3c0.7-0.2,1.4-0.4,2.1-0.5
										c0.4-0.1,0.8-0.3,1.3-0.4c0.4-0.1,0.8-0.2,1.2-0.3c0.4-0.1,0.7-0.2,1.1-0.3c0.6-0.2,1.2-0.4,1.7-0.5
										c0.4-0.1,0.8-0.2,1.2-0.4l2-0.7c0.6-0.2,1.2-0.4,1.8-0.6c0,0,0.1,0,0.2-0.1c0.2-0.1,0.4-0.1,0.6-0.2
										c0.3-0.1,0.5-0.2,0.8-0.2c0,0,0.1,0,0.1,0c0.3-0.1,0.5-0.1,0.7-0.1c0,0,0.1,0,0.1,0c0,0-0.1,0-0.1,0.1
										c-0.2,0.1-0.4,0.2-0.5,0.2c-0.2,0.1-0.5,0.2-0.7,0.3c-0.6,0.2-1.3,0.4-1.9,0.7c-0.4,0.1-0.8,0.3-1.1,0.4
										c-0.4,0.1-0.8,0.3-1.3,0.4c-0.4,0.1-0.9,0.3-1.3,0.5c-0.3,0.1-0.7,0.2-1.1,0.3c-0.5,0.1-0.9,0.3-1.4,0.4
										c-0.3,0.1-0.5,0.2-0.8,0.2c-0.3,0.1-0.7,0.2-1,0.2c-0.3,0.1-0.6,0.2-0.9,0.3c-0.3,0.1-0.6,0.2-1,0.3
										c-0.6,0.2-1.3,0.3-1.9,0.5c-0.3,0.1-0.8,0.2-1.1,0.2c-0.5,0.1-0.9,0.2-1.3,0.3c-0.4,0.1-0.8,0.2-1.2,0.3
										c-0.2,0.1-0.4,0.1-0.7,0.2c-0.2,0-0.3,0.1-0.5,0c0,0,0,0,0,0c0-0.1,0-0.2,0.1-0.2c0,0,0.1-0.1,0.2-0.1l0,0L211.4,124.6
										L211.4,124.6z"/>
								</g>
							</g>
						</g>
					</g>
				</g>
				<g>
					<g>
						<path class="st24" d="M197,172.8c0.2-0.1,0.3-0.1,0.5-0.2c2.7-1,9,0,17.2-0.6c0.7,0,1.4-0.1,2.1-0.1c-0.4-2-0.2-4-0.1-4.6
							c-5.2,1-4.9-1-6.3-2.1c-1.7-1.3-2.3-1.2-6.5,1.4c-3.4,2.1-5.3-0.2-7.4,0.3c-2.2,0.6-4.3,3.9-3.6,5.7
							C193.6,174.3,194.7,173.7,197,172.8z"/>
					</g>
				</g>
				<g>
					<g>
						<path class="st24" d="M188,125.5c0.6-0.7,1.4-1.2,2.7-1.2c2.7,0.2,1,2.3,1,3c0,0.7,0.5,1.7,0,3.3c-0.4,1.6-1.8,2.3-1.8,3.7
							c0,1.4,1.2,3.6,0.6,5.6c-0.6,2-1.6,2.1-3.4,2.3c-1.8,0.2-3.5,1-4.2,1.8c-0.2,0.2-0.7,1-1.5,2.1c-0.9-1.4-2.3-1.8-2.9-1.9
							c1.1-1.1,2-2,2.6-2.8c2.4-3,3.9-6.2,4.2-8.7c0.2-2.5,0.4-4.7,1.3-5.4C187.1,126.9,187.4,126.1,188,125.5z"/>
					</g>
				</g>
				<g>
					<g>
						<g>
							<g>
								<g>
									<path d="M220.4,166.1c0.8-0.3,1.6-0.5,2.3-0.8c0.3-0.1,0.8-0.3,1.1-0.4c0.4-0.2,0.9-0.4,1.3-0.6c0.8-0.4,1.6-0.7,2.4-1.1
										c0.4-0.2,1-0.5,1.5-0.7c0.5-0.2,0.9-0.4,1.4-0.7c0.4-0.2,0.8-0.4,1.3-0.6c0.7-0.3,1.4-0.6,2.1-0.8c0.5-0.1,1-0.3,1.5-0.4
										c0.9-0.2,1.8-0.4,2.6-0.5c0.8-0.1,1.6-0.1,2.4-0.1c0.1,0,0.2,0,0.2,0c0.3,0,0.6,0.1,0.9,0.1c0.4,0.1,0.7,0.1,1.1,0.3
										c0,0,0.1,0,0.1,0.1c0.3,0.1,0.5,0.4,0.7,0.7c0,0,0,0.1,0,0.1c0,0-0.1-0.1-0.1-0.1c-0.2-0.2-0.4-0.3-0.6-0.3
										c-0.3-0.1-0.6-0.2-0.9-0.3c-0.8-0.2-1.7-0.2-2.5-0.2c-0.7,0-1,0.1-1.5,0.1c-0.5,0.1-1.1,0.1-1.6,0.2
										c-0.6,0.1-1.1,0.3-1.6,0.4c-0.4,0.1-0.9,0.2-1.3,0.4c-0.6,0.2-1.1,0.4-1.6,0.7c-0.3,0.2-0.6,0.3-0.9,0.4
										c-0.4,0.2-0.8,0.3-1.2,0.5c-0.3,0.1-0.8,0.4-1.1,0.6c-0.4,0.2-0.7,0.4-1.1,0.5c-0.7,0.4-1.5,0.7-2.2,1.1
										c-0.4,0.2-0.9,0.4-1.3,0.5c-0.5,0.2-1,0.4-1.5,0.6c-0.5,0.2-0.9,0.3-1.4,0.5c-0.3,0.1-0.5,0.2-0.8,0.3
										c-0.2,0.1-0.4,0.1-0.6,0c0,0,0,0,0,0c0-0.1,0-0.2,0.1-0.3c0-0.1,0.2-0.1,0.3-0.1c0,0,0,0,0,0L220.4,166.1L220.4,166.1z"/>
								</g>
							</g>
						</g>
					</g>
				</g>
				<g>
					<g>
						<path class="st75" d="M216,86.9c0,0-2.1,0.9-1.7,3.5c0.2,1.8,2,3.7,0.3,7.2c0,0,0.7-3-0.5-5.2c-0.9-1.7-0.8-4,0.1-5.4
							L216,86.9z"/>
					</g>
				</g>
				<g>
					<g>
						<path class="st75" d="M208.3,87c0,0-0.5-4-3.4-4c-2.9,0-3.7,3.4-3,5.6s5.7,1.6,5.7,1.6L208.3,87z"/>
					</g>
				</g>
			</g>
			<g>
				<g>
					<g>
						<g>
							<g>
								<g>
									<g>
										<path class="st77" d="M50,72.7c0,0.5,0,1,0,1.5c0,0.2,0,0.5,0,0.7c0,0.3,0,0.6,0,0.9c0,0.5,0,1.1,0,1.6
											c0,0.3,0.1,0.7,0.1,1c0,0.3,0,0.6,0.1,0.9c0,0.3,0.1,0.5,0.1,0.9c0.1,0.5,0.1,0.9,0.2,1.4c0,0.3,0.1,0.6,0.1,0.9
											c0.1,0.5,0.2,1,0.3,1.6c0.1,0.5,0.2,0.9,0.4,1.4c0,0,0,0.1,0,0.1c0.1,0.2,0.1,0.3,0.2,0.5c0.1,0.2,0.2,0.4,0.2,0.6
											c0,0,0,0.1,0,0.1c0.1,0.2,0,0.4,0,0.6c0,0,0,0.1,0,0.1c0,0,0,0-0.1-0.1c-0.1-0.2-0.2-0.3-0.2-0.4
											c-0.1-0.2-0.1-0.3-0.2-0.5c-0.2-0.5-0.3-1-0.5-1.5c-0.1-0.3-0.2-0.6-0.2-0.9c-0.1-0.3-0.1-0.6-0.2-1
											c-0.1-0.3-0.2-0.7-0.2-1c-0.1-0.3-0.1-0.6-0.1-0.8c0-0.4-0.1-0.7-0.2-1.1c0-0.2-0.1-0.4-0.1-0.6c0-0.2,0-0.6,0-0.8
											c0-0.2-0.1-0.5-0.1-0.7c0-0.3,0-0.5,0-0.8c0-0.5,0-1,0-1.5c0-0.3,0-0.6,0-0.8c0-0.4,0-0.7,0-1c0-0.3,0-0.6,0-0.9
											c0-0.2,0-0.3,0-0.5c0-0.1,0-0.3,0.2-0.3c0,0,0,0,0,0c0.1,0,0.2,0.1,0.2,0.1c0,0,0,0.1,0.1,0.2l0,0L50,72.7L50,72.7z"/>
									</g>
								</g>
							</g>
						</g>
					</g>
					<g>
						<g>
							<g>
								<g>
									<g>
										<path class="st77" d="M60.9,129.3c0-0.5,0-1,0-1.5c0-0.2,0-0.5,0-0.7c0-0.3,0-0.6,0-0.9c0-0.5,0-1.1-0.1-1.6
											c0-0.3-0.1-0.7-0.1-1c0-0.3-0.1-0.6-0.1-0.9c0-0.3-0.1-0.6-0.2-0.8c-0.1-0.5-0.2-0.8-0.4-1.3c-0.1-0.3-0.2-0.6-0.3-0.9
											c-0.2-0.5-0.4-1-0.6-1.5c-0.2-0.4-0.4-0.9-0.6-1.3c0,0,0-0.1-0.1-0.1c-0.1-0.2-0.2-0.3-0.2-0.5c-0.1-0.2-0.2-0.4-0.3-0.6
											c0,0,0-0.1,0-0.1c-0.1-0.2-0.1-0.4-0.1-0.6c0,0,0-0.1,0-0.1c0,0,0.1,0,0.1,0.1c0.1,0.1,0.2,0.2,0.3,0.4
											c0.1,0.2,0.2,0.3,0.3,0.5c0.3,0.4,0.5,0.9,0.7,1.4c0.2,0.3,0.3,0.5,0.4,0.8c0.1,0.3,0.3,0.6,0.4,0.9
											c0.1,0.3,0.3,0.6,0.4,1c0.1,0.3,0.2,0.5,0.2,0.8c0.1,0.4,0.2,0.7,0.3,1.1c0.1,0.2,0.1,0.4,0.1,0.6c0,0.2,0.1,0.6,0.1,0.8
											c0,0.2,0.1,0.6,0.1,0.7c0,0.3,0.1,0.5,0.1,0.8c0,0.5,0.1,1,0.1,1.5c0,0.2,0,0.6,0,0.9c0,0.4,0,0.7,0,1c0,0.3,0,0.6,0,0.9
											c0,0.2,0,0.3,0,0.5c0,0.1,0,0.3-0.1,0.3c0,0,0,0,0,0c-0.1,0-0.2,0-0.2-0.1c0,0,0-0.1-0.1-0.2l0,0L60.9,129.3L60.9,129.3z"
											/>
									</g>
								</g>
							</g>
						</g>
					</g>
					<g>
						<g>
							<g>
								<g>
									<g>
										<path class="st77" d="M60.4,116.8c0-0.9,0.1-1.7,0.2-2.6c0.1-0.4,0.1-0.8,0.2-1.3c0.1-0.5,0.2-1,0.3-1.5
											c0.2-0.9,0.5-1.8,0.8-2.7c0.2-0.5,0.3-1.1,0.4-1.7c0.1-0.5,0.3-1,0.4-1.6c0.1-0.5,0.2-0.9,0.3-1.5
											c0.2-0.8,0.3-1.5,0.5-2.3c0.1-0.5,0.2-1,0.3-1.5c0.2-0.9,0.3-1.8,0.5-2.7c0.1-0.8,0.3-1.6,0.4-2.4c0-0.1,0-0.2,0-0.2
											c0-0.3,0.1-0.6,0.1-0.9c0-0.4,0.1-0.7,0.2-1.1c0,0,0-0.1,0-0.2c0-0.4,0.1-0.6,0.2-0.9c0,0,0.1-0.1,0.1-0.1
											c0,0.1,0,0.1,0,0.2c0,0.3,0,0.5,0,0.8c0,0.3-0.1,0.6-0.1,1c-0.1,0.9-0.2,1.8-0.3,2.6c-0.1,0.5-0.2,1-0.2,1.5
											c-0.1,0.6-0.2,1.1-0.3,1.7c-0.1,0.5-0.2,1.2-0.3,1.8c-0.1,0.5-0.2,0.9-0.3,1.4c-0.1,0.6-0.3,1.2-0.4,1.8
											c-0.1,0.4-0.2,0.7-0.2,1.1c-0.1,0.4-0.2,0.9-0.3,1.3c-0.1,0.3-0.2,0.9-0.3,1.3c-0.1,0.4-0.2,0.8-0.4,1.3
											c-0.3,0.8-0.5,1.6-0.7,2.5c-0.1,0.5-0.2,0.9-0.3,1.4c-0.1,0.6-0.2,1.1-0.2,1.7c-0.1,0.5-0.1,1-0.1,1.5c0,0.3,0,0.6,0,0.9
											c0,0.2,0,0.4-0.1,0.6c0,0,0,0,0,0c-0.1,0-0.2-0.1-0.2-0.2c0-0.1,0-0.2-0.1-0.3c0,0,0,0,0,0L60.4,116.8L60.4,116.8z"/>
									</g>
								</g>
							</g>
						</g>
					</g>
					<g>
						<g>
							<g>
								<g>
									<g>
										<path class="st77" d="M60.8,84.5c0-0.6,0-1.3,0-1.9c0-0.3,0.1-0.6,0.1-1c0-0.4,0.1-0.7,0.1-1.1c0.1-0.7,0.2-1.4,0.5-2.1
											c0.1-0.4,0.3-0.8,0.4-1.2c0.1-0.4,0.4-0.7,0.5-1.1c0.2-0.3,0.4-0.7,0.5-1c0.3-0.5,0.6-1,0.9-1.5c0.2-0.3,0.4-0.7,0.6-1
											c0.4-0.6,0.8-1.1,1.2-1.7l1.1-1.5c0,0,0.1-0.1,0.1-0.1c0.1-0.2,0.3-0.3,0.4-0.5c0.2-0.2,0.4-0.4,0.6-0.6
											c0,0,0.1-0.1,0.1-0.1c0.2-0.2,0.4-0.3,0.6-0.4c0,0,0.1,0,0.1,0c0,0,0,0.1-0.1,0.1c-0.1,0.2-0.3,0.3-0.3,0.4
											c-0.2,0.2-0.3,0.4-0.5,0.6c-0.4,0.5-0.8,1-1.2,1.6c-0.2,0.3-0.5,0.6-0.7,0.9c-0.2,0.3-0.5,0.7-0.7,1
											c-0.2,0.3-0.5,0.8-0.7,1.1c-0.2,0.3-0.4,0.6-0.6,0.9c-0.2,0.4-0.5,0.8-0.7,1.2c-0.1,0.2-0.3,0.5-0.4,0.7
											c-0.2,0.3-0.3,0.6-0.5,0.9c-0.1,0.3-0.2,0.6-0.3,0.9c-0.1,0.3-0.2,0.6-0.3,0.9c-0.1,0.3-0.1,0.6-0.2,0.9
											c0,0.3-0.1,0.6-0.1,0.9c0,0.4-0.1,0.7-0.1,1.1c0,0.4-0.1,0.8-0.1,1.3c0,0.4,0,0.8,0,1.2c0,0.2,0,0.4,0,0.6
											c0,0.2,0,0.3-0.1,0.4c0,0,0,0,0,0c-0.1,0-0.2-0.1-0.2-0.1c0,0,0-0.1-0.1-0.2l0,0L60.8,84.5L60.8,84.5z"/>
									</g>
								</g>
							</g>
						</g>
					</g>
					<g>
						<g>
							<g>
								<g>
									<g>
										<path class="st77" d="M54.1,105.6c-0.1-0.2-0.2-0.4-0.3-0.7c0-0.1-0.1-0.2-0.1-0.4c-0.1-0.2-0.1-0.3-0.1-0.4
											c-0.1-0.3-0.2-0.5-0.2-0.8c0-0.2-0.1-0.3-0.2-0.5c-0.1-0.1-0.1-0.3-0.1-0.4c0-0.1-0.1-0.2-0.1-0.4
											c-0.1-0.2-0.1-0.4-0.2-0.6c0-0.1-0.1-0.3-0.1-0.4c-0.1-0.3-0.1-0.5-0.2-0.8c0-0.2-0.1-0.5-0.1-0.7c0,0,0-0.1,0-0.1
											c0-0.1,0-0.1,0-0.2c0-0.1,0-0.2,0-0.3c0,0,0,0,0,0c0-0.1,0.1-0.2,0.1-0.3c0,0,0,0,0.1,0c0,0,0,0,0,0c0,0.1,0,0.1,0.1,0.2
											c0,0.1,0,0.2,0,0.3c0.1,0.2,0.1,0.5,0.1,0.7c0.1,0.1,0.1,0.3,0.1,0.4c0,0.2,0.1,0.3,0.1,0.5c0,0.1,0.1,0.4,0.2,0.5
											c0,0.1,0.1,0.3,0.1,0.4c0,0.2,0.1,0.3,0.2,0.5c0,0.1,0.1,0.2,0.1,0.3c0,0.1,0,0.2,0.1,0.4c0,0.1,0.1,0.2,0.2,0.3
											c0,0.1,0.1,0.2,0.1,0.3c0.1,0.2,0.1,0.4,0.2,0.7c0,0.1,0.1,0.3,0.1,0.4c0,0.2,0.1,0.3,0.2,0.4c0.1,0.1,0.1,0.3,0.2,0.4
											c0,0.1,0.1,0.1,0.1,0.2c0,0.1,0,0.1-0.1,0.2c0,0,0,0,0,0c-0.1,0-0.2,0.1-0.2,0.1c0,0-0.1,0-0.1,0l0,0L54.1,105.6
											L54.1,105.6z"/>
									</g>
								</g>
							</g>
						</g>
					</g>
				</g>
				<g>
					<g>
						<path class="st78" d="M74,131H47.5c-0.5,0-0.8,0.4-0.7,0.9l1,5.4c0.1,0.3,0.3,0.5,0.5,0.6l0,0c0.3,0.1,0.5,0.3,0.5,0.6
							l3.7,20.7c0.1,0.4,0.4,0.6,0.7,0.6h15c0.4,0,0.7-0.3,0.7-0.6l3.7-20.7c0-0.3,0.3-0.5,0.5-0.6l0,0c0.3-0.1,0.5-0.3,0.5-0.6
							l1-5.4C74.8,131.4,74.4,131,74,131z"/>
					</g>
				</g>
				<g>
					<g>
						<g>
							<g>
								<g>
									<path d="M51.2,138.1c0.7,0,1.3,0.1,2,0.1c0.3,0,0.7,0.1,1,0.1c0.4,0,0.8,0,1.1,0.1c0.7,0,1.4,0.1,2.2,0.1
										c0.4,0,0.9,0,1.3,0c0.4,0,0.8,0,1.2,0c0.4,0,0.7,0,1.1,0c0.6,0,1.2,0,1.8,0c0.4,0,0.8,0,1.2,0l2.1-0.1
										c0.6,0,1.3-0.1,1.9-0.1c0.1,0,0.1,0,0.2,0c0.2,0,0.5,0,0.7,0c0.3,0,0.6,0,0.9,0c0,0,0.1,0,0.1,0c0.3,0,0.5,0.1,0.7,0.1
										c0,0,0.1,0,0.1,0.1c0,0-0.1,0-0.1,0c-0.2,0-0.4,0-0.6,0.1c-0.3,0-0.5,0-0.8,0c-0.7,0.1-1.4,0-2,0.1c-0.4,0-0.8,0-1.2,0.1
										c-0.4,0-0.9,0-1.3,0c-0.4,0-1,0.1-1.4,0.1c-0.4,0-0.7,0-1.1,0c-0.5,0-1,0-1.4,0.1c-0.3,0-0.6,0-0.8,0c-0.3,0-0.7,0-1,0
										c-0.2,0-0.7,0-1,0c-0.4,0-0.7,0-1,0c-0.7,0-1.3,0-2-0.1c-0.3,0-0.8-0.1-1.1-0.1c-0.5,0-0.9,0-1.3-0.1c-0.4,0-0.8,0-1.2-0.1
										c-0.2,0-0.4,0-0.7,0c-0.2,0-0.3,0-0.4-0.2c0,0,0,0,0,0c0-0.1,0.1-0.2,0.1-0.2c0,0,0.2,0,0.2,0l0,0L51.2,138.1L51.2,138.1z"
										/>
								</g>
							</g>
						</g>
					</g>
				</g>
				<g>
					<g>
						<g>
							<path class="st79" d="M46.8,113c-0.7,0.9-1.5,1.9-1.6,3.1c0,0.6,0.1,1.1,0.3,1.7c0.1,0.6,0.3,1.2,0.4,1.7
								c0.4-0.4,0.9-0.7,1.4-0.9c0.3-0.1,0.6-0.3,0.9-0.5c0.3-0.2,0.4-0.6,0.5-0.9c0.3-0.9,0.7-1.8,1-2.7c0.1-0.1,0.1-0.3,0.1-0.5
								c0-0.2-0.2-0.4-0.4-0.6c-0.3-0.3-1-1.4-1.4-1.5C47.6,111.9,47.1,112.6,46.8,113z"/>
						</g>
					</g>
					<g>
						<g>
							<path class="st79" d="M57.1,103.6c-0.4,0.8,0.2,1.6,0.7,2.3c0.2,0.3,0.5,0.5,0.8,0.5c0.1,0,0.3-0.1,0.4,0
								c0.1,0,0.1,0.1,0.2,0.2c0.2,0.6,0.4,1.1,0.6,1.7c0.1,0.3,0.2,0.5,0.4,0.7c0.4,0.3,0.9,0.2,1.4,0.2c0.8,0,1.6,0.1,2.3,0.4
								c0.4-0.4,0.4-1,0.3-1.5c-0.1-0.8-0.4-1.7-1-2.3c-0.8-0.8-2.1-0.9-3.1-0.3c-0.2-0.5-0.1-1.2,0.2-1.7c0.1-0.1,0.2-0.2,0.3-0.4
								c0.1-0.1,0.1-0.3,0.2-0.5c0.2-1-0.8-1.7-1.7-1.3C58.6,102,57.4,103,57.1,103.6z"/>
						</g>
					</g>
					<g>
						<g>
							<path class="st79" d="M73.5,94.7c0.2-0.2,0.4-0.3,0.6-0.4c0.5-0.3,1.1-0.2,1.7-0.2c0.2,0,0.4,0,0.6,0.1
								c0.1,0.1,0.2,0.2,0.3,0.4c0.7,0.9,1.3,1.8,2,2.7c0.4,0.5,0.7,1,0.9,1.5c-0.8,0.2-1.6,0.3-2.5,0.4c-0.7,0.1-1.4,0.1-2.1-0.1
								c-1.1-0.3-1.9-1.1-2.7-1.8C71.5,96.3,72.9,95.2,73.5,94.7z"/>
						</g>
					</g>
					<g>
						<g>
							<path class="st79" d="M41.6,98.1c0.3-0.2,0.5-0.5,0.4-0.8c-0.1-0.1-0.1-0.2-0.2-0.2c-0.3-0.3-0.7-0.5-1.1-0.7
								c-1-0.5-2.3-0.5-3.3,0c-1.9,1-2.5,3.5-4.4,4.5c1.3,0.6,2.8,0.1,4-0.5c0.8-0.4,1.6-0.9,2.4-1.3C40.1,98.7,40.9,98.5,41.6,98.1
								z"/>
						</g>
					</g>
					<g>
						<g>
							<path class="st79" d="M83.5,88.9c0.2,0,0.4,0,0.5,0.2c0.1,0.1,0.1,0.2,0.1,0.3c0.1,0.4,0.4,0.8,0.7,1.2
								c0.4,0.7,0.7,1.5,0.7,2.3c-0.7,0.4-1.6,0.4-2.4,0.5c-0.6,0-1.3,0-1.7-0.4c-0.5-0.5-0.4-1.3-0.6-2c-0.1-0.7-0.7-1.5,0-2
								C81.5,88.7,82.8,88.9,83.5,88.9z"/>
						</g>
					</g>
					<g>
						<g>
							<path class="st79" d="M66.3,85.4c0.3-0.1,0.5-0.2,0.8-0.1c0.4,0.1,0.7,0.5,0.9,0.8c0.4,0.6,0.8,1.3,1.3,1.9
								c0.2,0.3,0.4,0.5,0.4,0.8c0.1,0.5-0.2,0.9-0.5,1.3c-0.4,0.5-0.8,0.9-1.2,1.4c-0.6-0.4-1.2-0.9-1.8-1.3
								c-0.2-0.1-0.3-0.2-0.5-0.3c-0.3,0-0.6,0.2-0.8,0.4c-1,1.2-1,3-2.1,4.1c-0.6-0.6-1.2-1.3-1.8-2c-0.4,0-0.5,0.5-0.6,0.8
								c-0.5,1.3-2.2,2-2.5,3.4c-1-2-0.8-4.5,0.4-6.4c0.2-0.3,0.5-0.7,0.7-1c0.5-0.7,1.1-1.4,1.8-1.6c0.6-0.2,0.9,0.1,1.4,0.3
								c0.7,0.2,0.7-0.1,1.2-0.6C64.2,86.5,65.2,85.8,66.3,85.4z"/>
						</g>
					</g>
					<g>
						<g>
							<path class="st79" d="M45.3,80.6c-0.2-1.7-1.9-2.9-3.4-3.2c-0.7-0.2-1.6-0.5-2.4-0.3c-0.5,0.1-1.8,0.8-2,1.3
								c-0.3,0.6,1.2,2.5,1.6,3.2c0.3,0.6,0.9,1.2,1.5,1.3c0.8,0.2,1.6-0.1,2.3-0.4C43.4,82.2,45.4,81.3,45.3,80.6z"/>
						</g>
					</g>
					<g>
						<g>
							<path class="st79" d="M56.7,74.7c-0.9,1.4-3.7,1.8-2.5,3.7c0.4,0.6,0.5,1.5,1.1,2c0.6,0.4,1.3,0.4,1.8,0.8
								c0.4-0.4,0.4-1.2,0.6-1.7c0.2-0.4,0.5-0.8,0.6-1.2c0.2-0.5,0.4-0.9,0.3-1.5C58.6,75.5,57.7,75,56.7,74.7z"/>
						</g>
					</g>
					<g>
						<g>
							<path class="st79" d="M71.3,69.2c0.6,0.4,1,0.4,1.5,1.1c0.5,0.6,0.7,1.5,0.8,2.2c0.1,0.4,0.4,1.5,0.2,1.8
								c-0.3,0.4-1.9,0.2-2.4,0.2c-1.2,0-3.4-0.4-3-2.1C68.8,71.1,70.3,69.7,71.3,69.2z"/>
						</g>
					</g>
					<g>
						<g>
							<path class="st79" d="M74.9,108.9c-0.1-0.8,1.5-1.9,2.1-2c0.6-0.1,1,0.2,1.5,0c0.5-0.2,0.7-0.8,1.3-1.1
								c1.4-0.6,2.9,0.5,3.5,1.7c0.7,1.3,0,2.9,0.7,4.2c-0.5,0.1-1.8-0.8-2.2-1.2c-0.5-0.4-1-0.9-1.6-1.2c-0.5,0.6-0.1,1.8-0.2,2.6
								c-0.1,0.9-0.6,0.8-1.5,0.8c-0.5,0-1.3,0-1.8-0.1c-0.7-0.2-1.3-0.9-1.5-1.6C74.9,110.1,75.2,109.3,74.9,108.9z"/>
						</g>
					</g>
					<g>
						<g>
							<path class="st79" d="M50.1,56.9c1.1,0.1,2.2,0.1,3.4,0.1c0.8,0,1.7-0.5,2.5-0.4c1,0.2,3,2.6,2.5,3.7c-0.5,1-2.5,1.9-3.5,1.3
								c-1-0.5-1.6-1.8-2.4-2.6c-0.5-0.5-1.1-1-1.7-1.3C50.7,57.6,49.2,57.1,50.1,56.9z"/>
						</g>
					</g>
				</g>
				<g>
					<g>
						<g>
							<path class="st80" d="M52.2,113c0.4,0.7,1.2,1.1,2,1.3c0.8,0.1,1.6-0.1,2.4-0.4c0.1-1,0.2-2,0.4-3.1c0-0.2,0-0.4,0-0.6
								c0-0.2-0.2-0.4-0.3-0.6c-0.6-0.9-2.4-4.2-3.6-2C52.3,109.1,51.5,111.7,52.2,113z"/>
						</g>
					</g>
					<g>
						<g>
							<path class="st80" d="M43.5,104.3c-0.3,0.4-0.6,0.8-0.7,1.3c-0.1,0.6,0.2,1.2,0.6,1.8c0.5,0.9,1.1,1.8,1.7,2.6
								c0,0.1,0.1,0.1,0.2,0.2c0.2,0.1,0.5-0.1,0.7-0.4c0.4-0.7,1-1.3,1.6-1.8c0.5-0.4,1-0.9,1.1-1.5c0.1-0.6-0.2-1.2-0.5-1.7
								c-0.3-0.5-0.8-1-0.9-1.6c0-0.2-0.1-0.5-0.1-0.7C46.6,101.2,44,103.7,43.5,104.3z"/>
						</g>
					</g>
					<g>
						<g>
							<path class="st80" d="M68.3,98.3c0.9,0.1,1.7,0.9,1.5,1.8c0.7-0.8,1.5-1.7,2.6-1.8c0.2,0,0.4,0,0.5,0.1
								c0.1,0.1,0.1,0.2,0.2,0.3c0.7,1.7,1.5,3.3,2.2,5c-1.7,0.8-3.8,0.6-5.3-0.5c0.1,1.4,0.2,2.8,0.3,4.2c-0.3,0.2-0.7,0-1-0.3
								c-0.2-0.3-0.4-0.6-0.7-0.8c-0.4-0.3-1-0.4-1.4-0.8c-0.3-0.3-0.3-0.7-0.4-1.1c-0.2-1.4-0.4-2.8-0.6-4.2
								c-0.1-0.7-0.2-0.9,0.4-1.4C67.2,98.5,67.8,98.3,68.3,98.3z"/>
						</g>
					</g>
					<g>
						<g>
							<path class="st80" d="M31.8,95.9c-0.4,0-0.9,0-1.2,0.3c-0.1,0.1-0.2,0.3-0.3,0.5c-0.3,0.7-0.8,1.3-1.5,1.8
								c1,0.7,2.5,0.6,3.5-0.1c0.2-0.2,0.4-0.3,0.7-0.4c0.1,0,0.3-0.1,0.4-0.1c0.4-0.2,0.6-1,0.3-1.4C33.4,95.9,32.4,95.9,31.8,95.9
								z"/>
						</g>
					</g>
					<g>
						<g>
							<path class="st80" d="M77.5,78.9c0.4,1.1,0.6,2.2,0.8,3.3c0.2,1.5,0.5,2.9,0.7,4.4c0,0.1,0,0.3,0,0.4
								c-0.1,0.1-0.2,0.1-0.3,0.1c-0.4,0.1-0.9-0.1-1.3-0.4c-0.9-0.5-1.8-1-2.7-1.5c-0.7-0.4-1.4-0.8-1.7-1.5
								c-0.1-0.3-0.1-0.6-0.2-0.9c-0.1-1.1-0.3-2.9,0.7-3.7C74.5,78.5,76.4,78.7,77.5,78.9z"/>
						</g>
					</g>
					<g>
						<g>
							<path class="st80" d="M50.9,88.9c-0.7,0.6-1.1,1.4-1.6,2.2c-0.2,0.4-0.4,0.8-0.4,1.2c0.1,0.4,0.4,0.7,0.7,1
								c1,0.9,1.7,2.1,2.3,3.3c0.3-0.1,0.5-0.4,0.7-0.6c1.2-1.5,2.4-3.1,2.5-5c0-1-0.4-2.4-1.3-3C52.9,87.5,51.6,88.3,50.9,88.9z"/>
						</g>
					</g>
					<g>
						<g>
							<path class="st80" d="M45.6,85.8c0.1,0.1,0.3,0.2,0.4,0.3c0.1,0.1,0.2,0.3,0.2,0.5c0.3,1.2,0.5,2.5,0.8,3.7
								c0.1,0.4,0.2,0.8,0.1,1.2c-0.1,0.3-0.2,0.6-0.4,0.8c-0.5,0.7-1.1,1.2-1.8,1.6c-0.8-1.3-1.3-2.8-1.4-4.3
								c-1.2,1.1-2.3,2.2-3.3,3.4c-0.4-0.7-0.5-1.5-0.6-2.3c-0.1-0.7-0.2-1.4,0-2c0.2-0.8,0.7-1.4,1.2-2.1c0.6-0.7,1.3-1.4,2.2-1.7
								C44,84.6,44.7,85.3,45.6,85.8z"/>
						</g>
					</g>
					<g>
						<g>
							<path class="st80" d="M45.3,74.1c-0.6-0.2-0.8-0.8-1.5-0.9c-0.4-0.1-0.8-0.1-1.2-0.2c-0.8-0.2-0.9-0.8-1-1.5
								c-0.1-0.9-0.1-1.5,0.9-1.8c0.9-0.3,2-0.2,2.9-0.2c0.2,0.8,0.4,1.7,0.6,2.5c0.1,0.4,0.2,0.8,0.1,1.2
								C46.2,74,45.9,73.9,45.3,74.1z"/>
						</g>
					</g>
					<g>
						<g>
							<path class="st80" d="M65.7,77.5c-0.7,0-1.9,0.2-2.3,1c-0.3,0.8,0.8,1.4,1.3,1.9c0.8,0.7,1.8,1.6,2.8,0.8
								c0.6-0.5,1.4-1.3,1.8-2c0.3-0.6,0.4-0.6-0.1-1c-0.6-0.4-1.5-0.8-2.2-0.8C66.3,77.2,66.1,77.8,65.7,77.5z"/>
						</g>
					</g>
					<g>
						<g>
							<path class="st80" d="M76.4,74c0.6,0,1.5,1.1,1.9,1.4c0.5,0.5,0.8,1.1,1.3,1.5c0.8,0.8,1.8,0.5,2.8,0.1
								c1.2-0.5,2.1-0.8,1.5-2.1c-0.4-1-1.4-1.7-1.9-2.7C81.3,72.2,75.2,72.4,76.4,74z"/>
						</g>
					</g>
					<g>
						<g>
							<path class="st80" d="M65.4,69.5c-1,2.3-3.5,2.7-5.7,3.2c-0.6,0.1-2.3,0.7-2.8,0.1c-0.7-0.8,1-1.4,1.5-1.8
								c1.2-1,2.2-2.5,3.8-2.9C63.6,67.7,64.6,68.1,65.4,69.5z"/>
						</g>
					</g>
					<g>
						<g>
							<path class="st80" d="M64.8,65.6c-1.7-1.4-0.9-3.8,0.1-5.4c0.3-0.5,0.6-0.9,1.1-1.2c0.5-0.4,1.1-0.4,1.8-0.5
								c0.9-0.2,1.8-0.3,2.6-0.8c0.4,0.9-0.7,2.9-0.9,3.9c-0.2,1,0,2.1-0.2,3c-0.3,1.1-1.4,1.3-2.5,1.4c-0.3,0-0.8,0.1-1.1,0
								C65.2,65.8,64.9,65.4,64.8,65.6z"/>
						</g>
					</g>
					<g>
						<g>
							<path class="st80" d="M71.1,64.7c-0.1-0.8,1.5-1.9,2.1-2c0.6-0.1,1,0.2,1.5,0c0.5-0.2,0.7-0.8,1.3-1.1
								c1.4-0.6,2.9,0.5,3.5,1.7c0.7,1.3,0,2.9,0.7,4.2c-0.5,0.1-1.8-0.8-2.2-1.2c-0.5-0.4-1-0.9-1.6-1.2c-0.5,0.6-0.1,1.8-0.2,2.6
								c-0.1,0.9-0.6,0.8-1.5,0.8c-0.5,0-1.3,0-1.8-0.1c-0.7-0.2-1.3-0.9-1.5-1.6C71.2,65.9,71.5,65.1,71.1,64.7z"/>
						</g>
					</g>
					<g>
						<g>
							<path class="st80" d="M49.1,62.1c-0.6-1.3-1.3-2.2-1.5-3.6c-0.1-1.2,0.2-2.3-1.5-2.2c-3,0.2-4.3,3.7-4.4,6.3
								c0.8-0.3,3-2.2,3.9-1.4c0.3,0.3,0.3,1.3,0.3,1.7c0.1,0.6,0.3,1.4,0.3,1.9c0.7,0.2,1.9-0.8,2.3-1.3
								C48.9,63,48.9,62.4,49.1,62.1z"/>
						</g>
					</g>
					<g>
						<g>
							<path class="st80" d="M54,63.3c-1.7-0.6-3.4-0.1-4.3,1.4c-0.6,0.9-0.4,3.3-0.2,4.4c0.4,1.5,1.4-0.9,2.2-1.2
								c1-0.4,2.5-0.1,2.8-1.5c0.3-1.1-0.5-2.3-0.7-3.3C53.7,63.1,53.5,63.1,54,63.3z"/>
						</g>
					</g>
					<g>
						<g>
							<path class="st80" d="M48.7,53.6c0.3-0.3,0.3-0.7,0.4-1c0.2-0.3,0.5-0.6,0.6-0.9c0.5-0.8,0.4-0.8,1.4-0.7
								c0.9,0,1,0.2,1.5,1.1c0.2,0.3,0.7,1,0.6,1.3c-0.1,0.5-2.7,1.4-3.2,1.4C49,54.9,48.7,54.2,48.7,53.6z"/>
						</g>
					</g>
				</g>
			</g>
			<g>
				<g>
					<g>
						<path class="st24" d="M132,94.1c-2.6,0.9-7,4.3-8.4,5.6c-1.4,1.3-2.6-0.8-1.8-3.3c0.8-2.4,3.3-9.4,5.1-10.4
							c1.8-1,6.4-3.6,6.4-3.6s3.5-0.7,4,2.2C138,87.6,132,94.1,132,94.1z"/>
					</g>
				</g>
				<g>
					<g>
						<path class="st81" d="M144.8,208.4c1.3,1.6,3.2,2.4,5.2,2.3c0,0,0,0,0,0c11.8-0.6,23.7,0,30.1-1.1c6.9-1.1,17.7-7.8,19.7-10.7
							c2-2.9,2.5-6.4,1-10c-1.5-3.6-10.9-7-23.9-6.5c-5.1,0.2-10.3,1-14.8,1.9c0.3-1.3,2.2-9.3,5.4-16.3c0.2-0.4,0.4-0.8,0.5-1.3
							c-2.3,1.5-7.1,3.9-13.9,4.1c-8.9,0.3-17.2-5-18.8-6.1c-0.7,0.1-3.7,0.8-7.2,3.7c-4,3.4-7.2,9.2-12.7,11.8
							c-5.2,2.5-22.7,7.3-30.7,11c2.6-8.3,7.2-16.5,10.1-20.9c1.1-1.8,0.9-3,1.2-3.3l-1.5-2.4c-0.4-0.2-2.5,1-4.2,2.7
							c-4.7,4.7-11.5,10.7-16.2,16c-6.3,7.2-11.2,15.8-12.4,19.6c-1.3,3.8-0.3,5.7,1.5,7c1.8,1.4,7.8,1.8,17.8,0.5
							c10-1.3,25.5-5,33.9-8.4c8.4-3.4,14.1-5.8,17.2-5.5c2,0.2,3.9,1.5,5,2.5L144.8,208.4z"/>
					</g>
				</g>
				<g>
					<g>
						<path class="st75" d="M135,90.3c0,0-3.6,0.1-4.8,5.4c-1.2,5.3,1.1,8.9-0.5,12.4c-1.5,3.5-5.5,3.5-5.6,9.1
							c-0.1,5.6,5.8,7.6,5.8,7.6l15.5-12.4l0.7-18L135,90.3z"/>
					</g>
				</g>
				<g>
					<g>
						<path class="st24" d="M173.1,127.1c0,0-1-11.8-2.8-19.8c-1.8-8,1-13.2-0.9-24.7c-1.9-11.6-4.8-17-8-17s-18.5,7.4-27.1,16.3
							l2.6,4.6l19.8-3.1c0,0,2.6,8.2,2.4,12.9c-0.3,4.8-0.8,9-2.9,12.7l7.4,20.8L173.1,127.1z"/>
					</g>
				</g>
				<g>
					<g>
						<path class="st82" d="M135.9,114.2c2.6-1.3,4.6-1.4,4.6-1.4l15-3.6c0,0,3-1,4.9,0.2c1.9,1.2,3.7,6.8,6.5,10.4
							c2.7,3.7,6.3,5.5,6.8,7.6c0.6,2.2,0.8,8,0.4,13.7c-0.4,5.4-2.7,17.8-5.9,25.6c-2.3,1.5-7.1,3.9-13.9,4.1
							c-10,0.3-19.1-6.3-19.1-6.3s3-13.4,3-16.3c0-2.9-3.6-10.6-3.6-10.6s-2.5-21.1,0.5-22.9C135.3,114.5,135.6,114.3,135.9,114.2z"
							/>
					</g>
				</g>
				<g>
					<g>
						<path class="st75" d="M159.8,88.2c0,0,1.5-1.4,0.6-8.5c-0.5-4.2-6.7-7.7-10.3-7.1c0,0-4.5-2.6-9.5-0.5
							c-4.9,2.1-8.1,7.6-7.4,13.3c0.7,5.7,3.4,8.8,6.9,9.4L159.8,88.2z"/>
					</g>
				</g>
				<g>
					<g>
						<path class="st24" d="M139.8,112.9c0,0,4.9,6.7,10.6,5.4c5.7-1.3,5.8-9.2,5.8-9.2s-1,0-1.9-0.4c-0.9-0.4-1.6-2.8-1.2-3.8
							c0.4-1.1,1.4-1,2.9-1c1.4,0,2.8-0.8,2.9-2.7c0.1-1.9,1.5-6.2,1.5-9.2c-0.1-3-0.2-6.6-3.1-10.4c-3.1-4.1-9-3.4-9-3.4
							s-1.4,0.1-1.4,1.5c0,1.3,0.1,4.3-1.1,6c-1.2,1.7-1.9,1.7-2,2.7c-0.1,1-0.3,2.2-1.8,1.6c-1.6-0.6-2-1.5-2.8-0.5
							c-0.8,1-1,2.8-0.1,4.6c0.9,1.8,2.4,2.8,3.3,2.8c0.9,0.1,1.3,0,1.3,0s0.9,3.2,0.9,5.9C144.4,105.5,143.5,110.9,139.8,112.9z"/>
					</g>
				</g>
				<g class="st76">
					<g>
						<polygon class="st28" points="156.5,88.2 157.1,93.7 159.7,91.2 						"/>
					</g>
				</g>
				<g>
					<g>
						<g>
							<path class="st24" d="M134.8,115.3c-0.6-0.1-3.9,0.6-6.6,3.2c-2.7,2.6-3.4,5.6-4.8,7.7c-1.4,2.2-13.4,15.3-14.2,16
								c-0.8,0.8,0.7-21.2,1.9-27.3c0,0,0.6-1.6,2.4-2.9c1.8-1.3,3.5-5,4.1-7.6c0.6-2.6,3.8-5.1,5.7-6c1.9-0.8,1.3-1.8,0.3-2.4
								c-1-0.6-3.8-2-6-1.7c-2.1,0.3-6.6,2.9-7.7,4.4c-1.1,1.5-1,3-1.3,4.1c-0.3,1.2-3.1,10-3.1,11.5c0,1.5-2.1,13.9-3.8,20.7
								c-1.8,6.8-3.3,17.2-1.5,19.7c1.8,2.5,4.6,3.8,8.3,1.5c3.6-2.3,11.6-8.6,15.8-14.1c4.1-5.5,7.2-8.3,9.7-5.1
								c0.7,0.8,1.3,1.7,1.8,2.5c1.1-1.7,2.6-4.9,2.6-10C138.3,121.9,135.3,115.4,134.8,115.3z"/>
						</g>
					</g>
				</g>
				<g>
					<g>
						<g>
							<g>
								<g>
									<path d="M141.6,136.8c1-0.2,2-0.5,3-0.7c0.4-0.1,1-0.2,1.5-0.3c0.6-0.1,1.2-0.3,1.7-0.4c1.1-0.3,2.2-0.6,3.3-0.8
										c0.7-0.2,1.3-0.4,2-0.6c0.6-0.2,1.2-0.3,1.9-0.5c0.6-0.2,1.1-0.3,1.7-0.5c0.9-0.3,1.8-0.6,2.7-0.8c0.6-0.2,1.2-0.4,1.8-0.6
										l3.1-1c0.9-0.3,1.9-0.6,2.8-1c0.1,0,0.2-0.1,0.3-0.1c0.3-0.1,0.7-0.2,1-0.4c0.4-0.2,0.8-0.3,1.3-0.4c0.1,0,0.1,0,0.2-0.1
										c0.4-0.2,0.8-0.2,1.1-0.2c0.1,0,0.1,0,0.2,0c-0.1,0-0.1,0.1-0.2,0.1c-0.3,0.1-0.6,0.2-0.8,0.4c-0.4,0.1-0.7,0.3-1.1,0.4
										c-1,0.4-1.8,0.6-3,1.1c-0.6,0.2-1.2,0.4-1.8,0.6c-0.6,0.2-1.3,0.4-2,0.6c-0.6,0.2-1.4,0.5-2,0.7c-0.6,0.2-1.1,0.3-1.6,0.5
										c-0.7,0.2-1.4,0.4-2.1,0.7c-0.4,0.1-0.8,0.3-1.3,0.4c-0.5,0.1-1.1,0.3-1.5,0.4c-0.4,0.1-1,0.3-1.5,0.5
										c-0.5,0.1-1,0.3-1.5,0.4c-1,0.3-2,0.5-3,0.8c-0.5,0.1-1.1,0.3-1.7,0.4c-0.7,0.2-1.3,0.3-2,0.5c-0.6,0.1-1.2,0.3-1.8,0.4
										c-0.3,0.1-0.7,0.2-1,0.3c-0.3,0.1-0.5,0.1-0.7,0c0,0-0.1,0,0,0c0-0.1,0.1-0.2,0.1-0.3c0.1-0.1,0.2-0.1,0.3-0.1c0,0,0,0,0,0
										L141.6,136.8L141.6,136.8z"/>
								</g>
							</g>
						</g>
					</g>
				</g>
				<g>
					<g>
						<g>
							<g>
								<g>
									<path d="M160.7,139.6c0.7-0.5,1.3-0.9,2-1.3c0.3-0.2,0.7-0.4,1.1-0.5c0.4-0.2,0.8-0.4,1.3-0.5c0.2,0,0.6,0,0.8,0.3
										c0.2,0.3,0.1,0.5,0,0.8c-0.1,0.5-0.3,0.8-0.5,1.2c-0.2,0.5-0.5,1-0.7,1.4c-0.2,0.4-0.5,0.9-0.8,1.3
										c-0.2,0.4-0.5,0.8-0.7,1.2c-0.4,0.6-0.8,1.3-1.2,1.9c-0.3,0.4-0.5,0.8-0.8,1.2l-1.4,2.1l-1.3,1.9c0,0.1-0.1,0.1-0.1,0.2
										c-0.2,0.2-0.3,0.4-0.5,0.7c-0.2,0.3-0.4,0.6-0.6,0.8c0,0-0.1,0.1-0.1,0.1c-0.2,0.3-0.4,0.4-0.7,0.6c0,0-0.1,0-0.1,0
										c0,0,0-0.1,0.1-0.1c0.1-0.2,0.3-0.4,0.4-0.6c0.2-0.3,0.3-0.5,0.5-0.7c0.5-0.7,1-1.3,1.4-2c0.2-0.4,0.5-0.8,0.8-1.2
										c0.3-0.4,0.6-0.9,0.9-1.3c0.3-0.4,0.6-1,0.9-1.4c0.2-0.4,0.5-0.7,0.7-1.1c0.3-0.5,0.6-1,0.9-1.5c0.2-0.3,0.3-0.6,0.5-0.9
										c0.2-0.3,0.4-0.7,0.7-1c0.2-0.3,0.3-0.7,0.5-1c0.2-0.4,0.4-0.7,0.5-1.1l0.2-0.5c0.1-0.2,0.1-0.3,0.1-0.5
										c0-0.2,0-0.2-0.1-0.2c-0.1,0-0.3,0-0.4,0c-0.4,0.1-0.8,0.3-1.2,0.4c-0.5,0.2-0.9,0.5-1.4,0.8c-0.4,0.2-0.8,0.5-1.2,0.8
										c-0.2,0.2-0.4,0.3-0.7,0.5c-0.2,0.1-0.3,0.2-0.5,0.2c0,0,0,0,0,0c0-0.1,0-0.2,0-0.3c0-0.1,0.1-0.1,0.2-0.2c0,0,0,0,0,0
										L160.7,139.6L160.7,139.6z"/>
								</g>
							</g>
						</g>
					</g>
				</g>
				<g>
					<g>
						<g>
							<g>
								<g>
									<path d="M83.1,192.4c-0.4,0.2-0.9,0.5-1.3,0.7c-0.1,0.1-0.5,0.2-0.6,0.3c-0.2,0.1-0.5,0.3-0.7,0.4
										c-0.4,0.3-0.9,0.6-1.3,0.9c-0.3,0.2-0.5,0.4-0.8,0.6c-0.3,0.2-0.5,0.4-0.7,0.5c-0.2,0.2-0.4,0.3-0.6,0.5
										c-0.3,0.3-0.7,0.6-1,0.9c-0.2,0.2-0.4,0.4-0.7,0.6c-0.4,0.4-0.7,0.7-1.1,1.1c-0.3,0.3-0.6,0.7-1,1c0,0-0.1,0.1-0.1,0.1
										c-0.1,0.1-0.2,0.2-0.3,0.4c-0.1,0.2-0.3,0.3-0.5,0.4c0,0,0,0-0.1,0.1c-0.1,0.2-0.3,0.2-0.5,0.3c0,0-0.1,0-0.1,0
										c0,0,0-0.1,0-0.1c0.1-0.1,0.2-0.2,0.3-0.4c0.1-0.1,0.2-0.3,0.4-0.4c0.3-0.4,0.7-0.7,1-1.1c0.2-0.2,0.4-0.4,0.6-0.6
										c0.2-0.2,0.4-0.4,0.7-0.7c0.2-0.2,0.5-0.5,0.7-0.7c0.2-0.2,0.4-0.3,0.6-0.5c0.3-0.2,0.5-0.5,0.8-0.7
										c0.1-0.1,0.3-0.3,0.5-0.4c0.2-0.2,0.4-0.3,0.6-0.4c0.2-0.1,0.4-0.3,0.5-0.5c0.2-0.2,0.4-0.3,0.6-0.4
										c0.4-0.3,0.8-0.6,1.2-0.8c0.2-0.1,0.5-0.3,0.7-0.4c0.3-0.2,0.6-0.3,0.8-0.5c0.3-0.2,0.5-0.3,0.8-0.4
										c0.1-0.1,0.3-0.1,0.4-0.2c0.1-0.1,0.2-0.1,0.3,0c0,0,0,0,0,0c0,0.1,0,0.2,0,0.2c0,0.1-0.1,0.1-0.1,0.1l0,0L83.1,192.4
										L83.1,192.4z"/>
								</g>
							</g>
						</g>
					</g>
				</g>
				<g>
					<g>
						<path class="st24" d="M119.2,212.1c0.3-0.1,0.5-0.2,0.8-0.3c4.1-1.5,14.1,0,26.9-0.9c1.1-0.1,2.2-0.1,3.3-0.2
							c-0.7-3.2-0.3-6.2-0.1-7.2c-8.2,1.6-7.6-1.6-9.8-3.3c-2.6-2.1-3.5-1.9-10.1,2.1c-5.3,3.2-8.2-0.4-11.6,0.5
							c-3.4,0.9-6.7,6.2-5.7,8.9C113.9,214.4,115.6,213.4,119.2,212.1z"/>
					</g>
				</g>
				<g>
					<g>
						<path class="st24" d="M105,138.1c0.9-1,2.2-1.9,4.2-1.8c4.1,0.3,1.5,3.6,1.5,4.7c0,1.1,0.8,2.6,0.1,5.2
							c-0.7,2.6-2.8,3.5-2.8,5.7c0,2.2,1.8,5.6,0.9,8.7c-0.9,3.1-2.5,3.3-5.3,3.6c-2.8,0.3-5.4,1.5-6.5,2.8
							c-0.3,0.3-1.2,1.5-2.3,3.3c-1.5-2.2-3.5-2.8-4.6-3c1.7-1.7,3.1-3.1,4.1-4.4c3.8-4.6,6.2-9.7,6.5-13.6c0.4-3.9,0.6-7.3,2-8.4
							C103.6,140.4,104.1,139.2,105,138.1z"/>
					</g>
				</g>
				<g>
					<g>
						<g>
							<g>
								<g>
									<path d="M155.6,201.8c1.2-0.4,2.4-0.8,3.6-1.3c0.5-0.2,1.2-0.5,1.8-0.7c0.7-0.3,1.3-0.6,2-0.9c1.3-0.6,2.5-1.2,3.8-1.8
										c0.7-0.4,1.5-0.8,2.3-1.1c0.7-0.4,1.5-0.7,2.2-1c0.7-0.3,1.4-0.6,2-0.9c1.1-0.5,2.2-0.9,3.3-1.2c0.8-0.2,1.5-0.5,2.3-0.6
										c1.4-0.3,2.7-0.5,4.1-0.7c1.2-0.1,2.5-0.2,3.7-0.2c0.1,0,0.3,0,0.4,0c0.4,0,0.9,0.1,1.3,0.1c0.6,0.1,1.1,0.2,1.6,0.5
										c0.1,0,0.2,0.1,0.2,0.1c0.5,0.2,0.9,0.5,1.1,0.9c0,0.1,0,0.1,0,0.2c0,0-0.1-0.1-0.2-0.2c-0.3-0.2-0.6-0.4-0.9-0.6
										c-0.4-0.2-0.9-0.3-1.4-0.4c-1.3-0.3-2.6-0.3-3.9-0.3c-0.8,0-1.5,0.1-2.3,0.2c-0.8,0.1-1.7,0.2-2.5,0.4
										c-0.9,0.1-1.7,0.4-2.6,0.7c-0.7,0.2-1.4,0.4-2,0.6c-0.9,0.3-1.7,0.7-2.6,1c-0.5,0.2-1,0.4-1.5,0.7
										c-0.6,0.3-1.2,0.5-1.8,0.8c-0.5,0.3-1.2,0.6-1.7,0.9c-0.6,0.3-1.2,0.6-1.7,0.9c-1.2,0.6-2.3,1.1-3.5,1.6
										c-0.7,0.3-1.3,0.6-2,0.8c-0.8,0.3-1.6,0.7-2.4,1c-0.7,0.3-1.5,0.5-2.2,0.8c-0.4,0.1-0.8,0.3-1.2,0.4
										c-0.3,0.1-0.6,0.2-0.9,0.1c0,0-0.1,0-0.1,0c0-0.1,0.1-0.2,0.2-0.3c0.1-0.1,0.3-0.1,0.4-0.2c0,0,0,0,0,0L155.6,201.8
										L155.6,201.8z"/>
								</g>
							</g>
						</g>
					</g>
				</g>
				<g>
					<g>
						<g>
							<g>
								<g>
									<path d="M150.5,186.9c0.4-0.1,0.7-0.2,1.1-0.3c0.2-0.1,0.4-0.1,0.6-0.1c0.3-0.1,0.4-0.1,0.7-0.2c0.4-0.1,0.9-0.2,1.2-0.3
										c0.2-0.1,0.5-0.2,0.7-0.2c0.3-0.1,0.5-0.1,0.7-0.2c0.2-0.1,0.4-0.1,0.7-0.2c0.3-0.1,0.7-0.2,1-0.3c0.2,0,0.5-0.1,0.7-0.2
										c0.4-0.1,0.8-0.2,1.2-0.3c0.4-0.1,0.7-0.2,1.1-0.3c0,0,0.1,0,0.1,0c0.1,0,0.2,0,0.4-0.1c0.2,0,0.3-0.1,0.5,0c0,0,0,0,0.1,0
										c0.2,0,0.3,0.1,0.5,0.1c0,0,0,0,0.1,0.1c0,0,0,0-0.1,0c-0.1,0-0.2,0.1-0.3,0.1c-0.2,0-0.3,0.1-0.4,0.1
										c-0.4,0.1-0.8,0.1-1.2,0.3c-0.2,0.1-0.5,0.1-0.7,0.2c-0.3,0.1-0.5,0.1-0.8,0.2c-0.2,0.1-0.6,0.2-0.8,0.2
										c-0.2,0.1-0.4,0.1-0.6,0.1c-0.3,0.1-0.5,0.1-0.8,0.2c-0.2,0.1-0.3,0.1-0.5,0.1c-0.2,0-0.4,0.1-0.6,0.1
										c-0.2,0.1-0.4,0.1-0.5,0.2c-0.2,0.1-0.4,0.1-0.6,0.2c-0.4,0.1-0.7,0.2-1.1,0.3c-0.2,0-0.5,0.1-0.6,0.1
										c-0.3,0.1-0.5,0.1-0.8,0.2c-0.2,0.1-0.5,0.1-0.7,0.2c-0.1,0-0.2,0.1-0.4,0.1c-0.1,0-0.2,0-0.3-0.1c0,0,0,0,0,0
										c0-0.1,0-0.2,0-0.2c0,0,0.1-0.1,0.1-0.1l0,0L150.5,186.9L150.5,186.9z"/>
								</g>
							</g>
						</g>
					</g>
				</g>
				<g>
					<g>
						<g>
							<g>
								<g>
									<path d="M111.1,141.6c0.1,0.5,0.2,1,0.2,1.5c0,0.3,0,0.5,0,0.8c0,0.3,0,0.6-0.1,0.9c-0.1,0.6-0.2,1.1-0.4,1.7
										c-0.1,0.3-0.2,0.7-0.4,1c-0.1,0.3-0.3,0.6-0.5,0.8c-0.2,0.2-0.3,0.5-0.5,0.7c-0.3,0.4-0.5,0.7-0.8,1.1
										c-0.2,0.2-0.3,0.5-0.4,0.8c-0.2,0.5-0.2,1-0.1,1.5c0.1,0.5,0.2,0.9,0.3,1.4c0,0,0,0.1,0,0.1c0,0.2,0.1,0.3,0.1,0.5
										c0.1,0.2,0.1,0.4,0.1,0.7c0,0,0,0.1,0,0.1c0.1,0.2,0,0.4-0.1,0.6c0,0,0,0.1-0.1,0.1c0,0,0-0.1,0-0.1c0-0.2-0.1-0.3-0.1-0.4
										c0-0.2-0.1-0.4-0.1-0.6c-0.1-0.5-0.2-1-0.4-1.5c-0.1-0.3-0.1-0.6-0.1-0.9c0-0.3,0-0.7,0-1c0-0.4,0.2-0.7,0.3-1.1
										c0.1-0.3,0.3-0.5,0.5-0.7c0.2-0.3,0.4-0.6,0.6-0.9c0.1-0.2,0.2-0.4,0.4-0.5c0.1-0.2,0.3-0.4,0.4-0.6
										c0.1-0.2,0.2-0.5,0.3-0.7c0.1-0.2,0.2-0.5,0.2-0.7c0.1-0.5,0.2-1,0.3-1.5c0-0.3,0.1-0.6,0.1-0.8c0-0.3,0-0.7-0.1-1
										c0-0.3-0.1-0.6-0.1-0.9c0-0.2-0.1-0.3-0.1-0.5c0-0.1,0-0.3,0.1-0.4c0,0,0,0,0,0c0.1,0,0.2,0,0.2,0.1c0,0,0,0.1,0.1,0.2l0,0
										L111.1,141.6L111.1,141.6z"/>
								</g>
							</g>
						</g>
					</g>
				</g>
			</g>
			<g>
				<g>
					<g>
						<g>
							<g>
								<path class="st72" d="M166.9,177.3c4,0,8.1,0,12.1,0c2,0,4,0,5.9,0c2.3,0,4.6,0,6.9,0c4.4,0,8.7,0,13.1,0c2.6,0,5.3,0,7.9,0
									l7.5,0c2.3,0,4.6,0,6.9,0c3.7,0,7.3,0,11,0c2.4,0,4.9,0,7.3,0l12.9,0l7.1,0l-2.2-1.4c-0.3-0.2-0.6-0.4-0.9-0.6L259,173
									c-1.5-1-2.9-1.9-4.3-2.9c-0.2-0.2-0.4-0.3-0.6-0.4c-1.4-0.9-2.4-1.7-3.6-2.6c-0.2-0.1-0.3-0.2-0.4-0.3
									c0.2,0.1,0.5,0.3,0.6,0.4c1,0.6,2,1.3,3,1.9l3.8,2.5c3.2,2.1,6.3,4.1,9.4,6.2c-0.6,0-1.3,0-1.9,0c-2.4,0-4.8,0-7.3,0
									c-2.6,0-5.3,0-7.9,0c-2.8,0-5.5,0-8.3,0.1l-6.6,0c-2.9,0-5.8,0-8.7,0c-1.7,0-3.4,0-5.1,0c-2.1,0-4.1,0-6.2,0
									c-2,0-4,0-5.9,0.1c-2,0-4,0-6,0c-4,0-8,0-12,0c-2.2,0-4.5,0-6.7,0c-2.7,0-5.3,0-8,0l-7.3,0c-1.4,0-2.7,0-4.1,0
									c-1.1,0-2,0-2.6-0.1c-0.1,0-0.2,0-0.1,0c0.2-0.1,0.4-0.2,0.8-0.2c0.3,0,0.9,0,1.4-0.1c0.1,0,0.1,0,0.2,0L166.9,177.3
									L166.9,177.3z"/>
							</g>
						</g>
					</g>
				</g>
			</g>
		</g>
		<rect class="st71" width="290" height="272.3"/>
	</g>
</g>
</svg>
