<?xml version="1.0" encoding="utf-8"?>
<!-- Generator: Adobe Illustrator 27.8.1, SVG Export Plug-In . SVG Version: 6.00 Build 0)  -->
<svg version="1.1" id="レイヤー_1" xmlns="http://www.w3.org/2000/svg" xmlns:xlink="http://www.w3.org/1999/xlink" x="0px"
	 y="0px" viewBox="0 0 311.3 59.2" style="enable-background:new 0 0 311.3 59.2;" xml:space="preserve">
<style type="text/css">
	.st0{fill:#FFFF8C;}
	.st1{fill:#00BDE1;}
</style>
<g>
	<g>
		<path class="st0" d="M32.8,56.7h253c14,0,25.5-11.5,25.5-25.5c0-14-11.5-25.5-25.5-25.5h-253c-14,0-25.5,11.5-25.5,25.5
			C7.3,45.2,18.8,56.7,32.8,56.7z"/>
		<path class="st1" d="M26.7,53.5h200.6c0.7,0,1.3-0.6,1.3-1.3c0-0.7-0.6-1.3-1.3-1.3v0H26.7c-6.7,0-12.7-2.7-17.1-7.1
			c-4.4-4.4-7.1-10.4-7.1-17.1c0-6.7,2.7-12.7,7.1-17.1C14,5.2,20.1,2.5,26.7,2.5h253c6.7,0,12.7,2.7,17.1,7.1
			c4.4,4.4,7.1,10.4,7.1,17.1c0,6.7-2.7,12.7-7.1,17.1c-4.4,4.4-10.4,7.1-17.1,7.1h-39.1c-0.7,0-1.3,0.6-1.3,1.3
			c0,0.7,0.6,1.3,1.3,1.3l39.1,0c14.7,0,26.7-12,26.7-26.7c0-14.7-12-26.7-26.7-26.7h-253C12,0,0,12,0,26.7
			C0,41.5,12,53.5,26.7,53.5z"/>
		<path class="st1" d="M240,58.8c0.5-0.5,0.5-1.3,0-1.8l-7.6-7.6c-0.5-0.5-1.3-0.5-1.8,0c-0.5,0.5-0.5,1.3,0,1.8l7.6,7.6
			C238.7,59.3,239.5,59.3,240,58.8z"/>
	</g>
	<g>
		<g>
			<path class="st1" d="M31.9,19.3c0.6,0,0.5,0.3,0.6,0.7c0.1,1.2,0.4,2.4,0.6,3.6c0.1,0.3,0.1,0.6,0.5,0.6c0.4,0,3-1.6,3.4-1.9
				c0.2-0.1,0.3-0.2,0.5-0.2c0.3,0,1.3,1.7,1.3,2c0,0.2-0.2,0.3-0.4,0.3c-1.2,0.4-3.1,1.3-4.2,1.9c-1.4,0.7-4.4,2.2-4.4,4
				c0,0.7,0.7,1.2,1.3,1.5c0.8,0.3,1.8,0.3,2.7,0.3c1,0,2.1-0.1,3.1-0.2c0.4,0,1.8-0.3,2.1-0.3c0.1,0,0.1,0,0.2,0
				c0.3,0,0.3,0.8,0.3,1.3v0.2c0,0.5,0,0.7-0.6,0.8c-0.9,0.2-4.3,0.3-5.3,0.3c-1.5,0-2.8-0.1-4.2-0.8c-1.2-0.7-1.8-1.8-1.8-3.1
				c0-2,1.4-3.4,3-4.4c0.2-0.2,0.5-0.3,0.5-0.6c0-0.1,0-0.2-0.1-0.3c-0.3-0.8-0.8-2.8-1-3.7c-0.1-0.5-0.2-0.8-0.4-1.3
				c0-0.1-0.1-0.2-0.1-0.2c0-0.3,0.6-0.3,1.3-0.4C31.2,19.4,31.6,19.3,31.9,19.3z M39.9,20.8c0.1,0.2,0.8,1.1,0.8,1.3
				c0,0.3-0.8,0.8-1.1,0.8c-0.2,0-0.2-0.1-0.4-0.4c-0.3-0.5-0.6-1-0.9-1.4c-0.1-0.1-0.3-0.4-0.3-0.5c0-0.2,0.8-0.7,1.1-0.7
				C39.3,19.9,39.8,20.6,39.9,20.8z M42,19.4c0.1,0.2,0.7,1.1,0.7,1.3c0,0.3-0.8,0.8-1.1,0.8c-0.2,0-0.2-0.2-0.3-0.3
				c-0.4-0.7-0.8-1.2-1.2-1.9c0,0-0.1-0.1-0.1-0.2c0-0.3,0.9-0.7,1.1-0.7C41.4,18.5,41.8,19.2,42,19.4z"/>
			<path class="st1" d="M59.8,22.2c1.3,1.3,2,3,2,4.9c0,2.8-1.5,5.2-3.9,6.5c-0.5,0.2-1.7,0.8-2.2,0.8c-0.5,0-1.3-1.2-1.3-1.7
				c0-0.2,0.3-0.2,0.5-0.3c2.6-0.6,4.7-2.3,4.7-5.2c0-2.1-1.1-4.1-3.2-4.8c-0.2-0.1-0.6-0.2-0.8-0.2c-0.5,0-0.5,0.4-0.5,0.8
				c-0.2,2.9-0.9,6.5-2.8,8.8c-0.7,0.8-1.5,1.5-2.6,1.5c-1.2,0-2.2-0.9-2.7-1.9c-0.4-0.8-0.6-1.9-0.6-2.8c0-4.7,3.6-8.4,8.3-8.4
				C56.6,20.2,58.4,20.8,59.8,22.2z M52,22.8c-2.3,1.1-3.6,3.2-3.6,5.8c0,0.7,0.3,2.6,1.3,2.6c1,0,2.1-2.3,2.7-4.3
				c0.3-1,0.6-2.9,0.6-3.9c0-0.2-0.1-0.4-0.3-0.4C52.6,22.6,52.2,22.7,52,22.8z"/>
			<path class="st1" d="M71.5,26.8c0.1,0.1,0.2,0.2,0.2,0.4c0,0.3-0.6,1.4-0.9,1.4c-0.3,0-0.7-0.8-0.8-1.1c0,0-0.1-0.1-0.1-0.1
				c-0.1,0-0.1,0.1-0.1,0.2v4.9c0,0.9,0.1,1.9,0.1,2.8c0,0.6-0.2,0.6-1,0.6c-0.8,0-1,0-1-0.6c0-0.9,0.1-1.9,0.1-2.8v-3.9
				c0-0.1-0.1-0.1-0.1-0.1c0,0-0.1,0-0.1,0.1c-0.3,1-0.8,2.1-1.3,3c-0.1,0.2-0.2,0.4-0.4,0.4c-0.4,0-1.2-0.9-1.2-1.3
				c0-0.2,0.2-0.4,0.3-0.6c1.1-1.8,1.9-3.9,2.5-6c0,0,0-0.1,0-0.1c0-0.3-0.2-0.4-0.5-0.4c-0.5,0-1,0.1-1.4,0.1c-0.4,0-0.4-0.3-0.4-1
				c0-0.7,0-1,0.4-1c0.3,0,0.9,0,1.5,0h0.1c0.4,0,0.6-0.2,0.6-0.6v-1.3c0-0.5,0-1-0.1-1.5v-0.2c0-0.2,0.2-0.2,0.3-0.2
				c0.3,0,1.3,0.1,1.6,0.1c0.2,0,0.5,0,0.5,0.3c0,0.1-0.1,0.2-0.3,0.3c-0.2,0.1-0.2,0.5-0.2,1.2v1.4c0,0.4,0.1,0.5,0.5,0.6
				c0.1,0,0.9,0,1,0c0.4,0,0.4,0.3,0.4,1s0,1-0.4,1c-0.2,0-0.8,0-1.1,0c-0.3,0-0.5,0.2-0.5,0.5c0,0.1,0,0.1,0.1,0.2
				C70.2,25.2,70.9,26.1,71.5,26.8z M75.4,32.3c-0.9,0.6-1.7,1.1-2.7,1.7c-0.3,0.2-0.4,0.2-0.4,0.5c0,0.1-0.1,0.3-0.2,0.3
				c-0.3,0-1.1-1.6-1.1-1.8c0-0.1,0.1-0.2,0.2-0.2c0.8-0.3,2.9-1.5,3.7-2c0.1,0,0.2-0.1,0.2-0.1c0.3,0,0.6,0.8,0.6,1.2
				C75.8,32.1,75.6,32.2,75.4,32.3z M79.3,29.8c0.1,0,0.2-0.1,0.3-0.2c0.5-0.4,0.9-0.8,1.3-1.3c0.1-0.1,0.2-0.2,0.3-0.2
				c0.1,0,0.2,0.1,0.5,0.4c0.1,0.2,0.3,0.4,0.5,0.5c0.2,0.3,0.4,0.4,0.4,0.6c0,0.1-0.1,0.2-0.2,0.2c0,0-0.1,0-0.1,0
				c-0.1,0-0.1,0-0.2,0c-0.1,0-0.2,0-0.3,0.1c-0.4,0.4-0.7,0.7-1.1,1c-0.1,0.1-0.2,0.2-0.2,0.4c0,0.1,0.1,0.2,0.2,0.3
				c0.6,0.5,1.2,1,1.9,1.5c0.2,0.1,0.5,0.3,0.5,0.5c0,0.4-0.8,1.2-1.2,1.2c-0.2,0-1-0.6-1.2-0.8c-0.8-0.7-1.6-1.6-2.2-2.5
				c0,0-0.1-0.1-0.1-0.1c-0.1,0-0.1,0.1-0.2,0.2v1.2c0,0.3,0,0.7,0,1c0,0.6-0.1,1.2-0.6,1.6c-0.7,0.5-1.7,0.6-2.6,0.6
				c-0.2,0-0.6,0-0.8-0.3c-0.1-0.3-0.2-0.9-0.2-1.2c0-0.3,0.1-0.5,0.4-0.5c0.1,0,0.2,0,0.3,0c0.2,0,0.4,0,0.6,0
				c0.8,0,0.8-0.2,0.8-1.2v-4.3c0-0.4-0.2-0.6-0.6-0.6h-1.2c-0.7,0-1.4,0-2.1,0c-0.5,0-0.4-0.3-0.4-0.8c0-0.6,0-0.8,0.5-0.8
				c0.7,0,1.4,0,2.1,0h1.2c0.3,0,0.5-0.1,0.5-0.5v-0.2c0-0.3-0.1-0.5-0.5-0.5h-0.7c-0.7,0-1.3,0-2,0c-0.4,0-0.4-0.3-0.4-0.8
				c0-0.5,0-0.8,0.4-0.8c0.7,0,1.3,0,2,0h0.7c0.3,0,0.5-0.1,0.5-0.5v-0.2c0-0.3-0.1-0.5-0.5-0.5h-1c-0.7,0-1.4,0-2.1,0
				c-0.5,0-0.4-0.2-0.4-0.8c0-0.6,0-0.8,0.4-0.8c0.7,0,1.4,0,2.1,0h2.5c0.4,0,0.6-0.1,0.8-0.4c0.4-0.6,1-1.8,1.3-2.5
				c0.1-0.2,0.1-0.3,0.3-0.3c0.1,0,1.3,0.6,1.5,0.7c0.3,0.1,0.5,0.2,0.5,0.4c0,0.2-0.2,0.2-0.4,0.3c-0.1,0-0.2,0.1-0.3,0.2
				c-0.3,0.4-0.5,0.9-0.8,1.3c0,0.1-0.1,0.1-0.1,0.2c0,0.2,0.2,0.2,0.3,0.3c0.6,0,1.2,0,1.8,0c0.5,0,0.4,0.2,0.4,0.8s0,0.8-0.4,0.8
				c-0.7,0-1.4,0-2.2,0h-1.4c-0.3,0-0.5,0.1-0.5,0.5v0.2c0,0.3,0.1,0.5,0.5,0.5h1.2c0.6,0,1.3,0,1.9,0c0.5,0,0.4,0.2,0.4,0.8
				s0,0.8-0.4,0.8c-0.7,0-1.3,0-2,0h-1.2c-0.3,0-0.5,0.2-0.5,0.5V26c0,0.3,0.1,0.5,0.5,0.5h1.8c0.7,0,1.4,0,2.1,0
				c0.5,0,0.4,0.3,0.4,0.8c0,0.6,0,0.8-0.4,0.8c-0.7,0-1.4,0-2.1,0h-1.7c-0.2,0-0.4,0.1-0.4,0.3c0,0.1,0,0.2,0.1,0.3
				c0.2,0.3,0.4,0.7,0.6,1C79,29.6,79.1,29.8,79.3,29.8z M73.8,30.9c-0.1,0-0.3-0.1-0.5-0.3c-0.4-0.3-0.8-0.7-1.3-1
				c-0.1-0.1-0.1-0.1-0.1-0.2c0-0.2,0.5-1.2,0.8-1.2c0.1,0,0.5,0.3,0.8,0.4c0.1,0,0.1,0.1,0.2,0.1c0.2,0.2,1.1,0.8,1.1,1.1
				C74.7,30,74.1,30.9,73.8,30.9z M74.7,21c-0.2,0-0.3-0.2-0.6-0.7c-0.2-0.3-0.4-0.7-0.7-1.3c0-0.1-0.1-0.2-0.1-0.3
				c0-0.4,1.2-0.8,1.5-0.8c0.3,0,0.6,0.5,0.9,1.1c0.3,0.5,0.6,1,0.6,1.2C76.1,20.6,74.9,21,74.7,21z"/>
			<path class="st1" d="M93.9,18.9c0.1,0,0.3,0.1,0.3,0.2s-0.1,0.2-0.3,0.4c-0.2,0.1-0.3,0.8-0.4,1.1c-0.1,0.2-0.2,0.8-0.2,0.9
				c0,0.1,0.1,0.3,0.2,0.3c0.1,0,1-0.2,1.1-0.3c0.1,0,0.1,0,0.2,0c0.2,0,0.3,0.4,0.3,0.6c0,0.3,0.1,0.8,0.1,1.1
				c0,0.4-0.2,0.5-2.1,0.8c-0.7,0.1-0.7,0.3-0.9,0.9c-0.9,2.5-2,4.8-3.3,7.1c-0.1,0.2-0.2,0.3-0.4,0.3c-0.4,0-1.8-0.6-1.8-1
				c0-0.2,0.3-0.6,0.4-0.7c0.8-1.3,1.8-3.2,2.4-4.6c0.1-0.2,0.5-1.1,0.5-1.2c0-0.1-0.1-0.3-0.3-0.3c-0.2,0-1.7,0.2-2.2,0.2
				c-0.3,0-0.4-0.2-0.5-0.6c0-0.2-0.1-1-0.1-1.2c0-0.3,0.1-0.3,0.4-0.3h0.9c0.7,0,1.4,0,2.1-0.1c0.3,0,0.4-0.1,0.6-0.3
				c0.3-0.5,0.6-2.7,0.6-3.4c0-0.1,0-0.3,0.2-0.3C92,18.3,93.6,18.8,93.9,18.9z M96.8,24.8c0.2,0.1,0.4,0.2,0.4,0.4c0,0,0,0.6,0,1.1
				c0,0.6,0.1,3.5,0.2,3.9c0.1,0.3,0.3,0.4,0.6,0.5c0.1,0,0.1,0.1,0.2,0.1c0.5,0.2,2.8,1.3,2.8,1.8c0,0.3-0.7,1.5-1.2,1.5
				c-0.2,0-0.4-0.2-0.5-0.3c-0.3-0.2-1.3-0.9-1.6-0.9c-0.2,0-0.3,0.3-0.3,0.5c-0.2,1.5-1.4,2-2.8,2c-1.6,0-3.5-0.9-3.5-2.7
				c0-1.8,1.7-2.5,3.3-2.5h0.5c0.2,0,0.4-0.1,0.4-0.3c0-0.6-0.3-3.5-0.4-4.3c0-0.1,0-0.2,0-0.3c0-0.3,0.2-0.4,0.5-0.4
				C95.8,24.6,96.5,24.8,96.8,24.8z M93.1,32.5c0,0.6,0.8,0.9,1.3,0.9c0.7,0,1-0.4,1-1.1c0-0.4,0-0.6-1-0.6
				C93.9,31.7,93.1,31.8,93.1,32.5z M101.8,24.8c0,0.5-1.1,1.4-1.5,1.4c-0.2,0-0.3-0.2-0.4-0.4c-0.6-0.9-1.6-1.9-2.5-2.6
				c-0.1-0.1-0.3-0.2-0.3-0.3c0-0.3,0.9-1.4,1.3-1.4C99,21.6,101.8,24.3,101.8,24.8z"/>
			<path class="st1" d="M110.7,30.4c-0.2,0-2.6,1.9-3,2.2c-0.1,0.1-0.2,0.2-0.3,0.2c-0.4,0-1.2-1.5-1.2-1.9c0-0.2,0.2-0.3,0.5-0.4
				c1.1-0.6,2.2-1.4,3.3-2c0.8-0.5,0.8-0.5,0.8-1.1v-0.7c0-0.3,0-0.6,0-0.9v-0.2c0-0.3-0.2-0.5-0.4-0.5c0,0-0.1,0-0.1,0
				c-0.4,0.1-1.7,0.3-2,0.3c-0.3,0-0.6,0-0.6-1.5c0-0.5,0-0.6,0.4-0.6c0.6,0,1.3-0.1,1.9-0.1c0.3,0,0.6,0,0.7-0.2
				c0.2-0.2,0.2-0.4,0.2-0.6c0-0.6,0-1.1,0-1.7c0-0.4,0-0.9,0-0.9c0-0.2,0.1-0.3,0.3-0.3c0.3,0,1.6,0.3,2,0.4c0.1,0,0.4,0.1,0.4,0.3
				c0,0.1-0.1,0.2-0.2,0.3c-0.3,0.2-0.3,0.5-0.4,1.1c0,0.1,0,0.3-0.1,0.5c0,0.1,0,0.2,0,0.3c0,0.2,0.2,0.3,0.3,0.3
				c0.1,0,1.1-0.3,1.3-0.3c0.1,0,0.2-0.1,0.3-0.1c0.5,0,0.5,1.3,0.5,1.6c0,0.5-0.3,0.5-1.9,0.8c-0.7,0.1-0.8,0.3-0.8,1.2V26
				c0,0.3,0,0.8,0.3,0.8c0.1,0,0.4-0.1,0.5-0.2c1.1-0.4,2.2-0.7,3.3-0.7c2.2,0,4.4,1.4,4.4,3.8c0,1.2-0.6,2.3-1.6,3
				c-1,0.7-2.8,0.9-4,0.9h-0.2c-0.3,0-0.7,0-0.8-0.2c-0.2-0.3-0.3-1.1-0.3-1.4c0-0.3,0.1-0.5,0.4-0.5c0.2,0,0.9,0.2,1.6,0.2
				c1.2,0,2.9-0.4,2.9-1.8c0-1.3-1.3-1.9-2.4-1.9c-1.1,0-2.6,0.4-3.5,1c-0.2,0.1-0.3,0.3-0.3,0.6c0,0.2,0,1,0.1,1.3
				c0,0.4,0.2,2.2,0.2,2.4c0,1-1.2,1.5-1.8,1.5c-0.4,0-0.6-0.4-0.7-0.8c-0.3-0.7-0.6-1-1.2-1.6c-0.1-0.1-0.2-0.2-0.2-0.4
				c0-0.2,0.2-0.4,0.4-0.4c0.1,0,0.8,0.5,1,0.6c0.1,0.1,0.2,0.1,0.2,0.1c0.1,0,0.1-0.1,0.1-0.2c0,0,0-0.8,0-0.9c0-0.1,0-0.2,0-0.3
				C110.9,30.6,110.9,30.4,110.7,30.4z M120.8,23.4c0.5,0.4,1.5,1.3,1.5,1.5c0,0.4-0.9,1.4-1.3,1.4c-0.2,0-0.3-0.1-0.4-0.2
				c-0.8-0.8-1.7-1.5-2.7-2.2c-0.1-0.1-0.4-0.3-0.4-0.5c0-0.3,0.9-1.3,1.2-1.3c0.2,0,1.1,0.7,1.5,1
				C120.4,23.2,120.6,23.3,120.8,23.4z"/>
			<path class="st1" d="M127,35.8c-0.8,0-1.1,0-1.1-0.6c0-0.8,0.1-1.7,0.1-2.5V21.5c0-0.6,0-1.2,0-1.9c0-0.8,0.3-1,1.1-1
				c0.6,0,1.3,0,1.9,0h10.2c0.6,0,1.3,0,1.9,0c0.8,0,1.1,0.2,1.1,1c0,0.6,0,1.3,0,1.9v11.3c0,0.8,0.1,1.7,0.1,2.5
				c0,0.6-0.3,0.6-1.1,0.6c-0.9,0-1.1,0-1.1-0.7c0-0.3-0.2-0.4-0.5-0.4h-11.1c-0.3,0-0.5,0.1-0.5,0.4
				C128.1,35.8,127.9,35.8,127,35.8z M139.6,32.9c0.4,0,0.6-0.2,0.6-0.6V21c0-0.4-0.2-0.5-0.6-0.5h-11c-0.4,0-0.6,0.2-0.6,0.5v11.3
				c0,0.4,0.2,0.6,0.6,0.6H139.6z M131.8,25c-0.7,0-1.4,0-2.1,0c-0.6,0-0.6-0.2-0.6-0.8c0-0.7,0-0.9,0.6-0.9c0.7,0,1.4,0,2.1,0h0.8
				c0.4,0,0.6-0.2,0.6-0.6c0-0.5,0-0.9-0.1-1.4v-0.2c0-0.2,0.2-0.3,0.3-0.3c0.3,0,1.3,0.1,1.6,0.1c0.1,0,0.5,0,0.5,0.2
				c0,0.1-0.1,0.2-0.2,0.3c-0.2,0.1-0.2,0.4-0.2,0.8v0.4c0,0.4,0.2,0.5,0.6,0.5h0.9c0.7,0,1.4,0,2.2,0c0.6,0,0.5,0.2,0.5,0.8
				s0,0.9-0.5,0.9c-0.7,0-1.4,0-2.2,0h-0.2c-0.2,0-0.3,0.1-0.3,0.3c0,0.1,0,0.1,0,0.2c1,1.7,2,3.1,3.5,4.4c0.1,0.1,0.3,0.2,0.3,0.4
				c0,0.4-0.9,1.1-1.3,1.1c-0.7,0-2.8-3.2-3.1-3.9c0,0-0.1-0.1-0.1-0.1c-0.1,0-0.1,0.1-0.1,0.2v1.9c0,0.7,0.1,1.5,0.1,2.2
				c0,0.6-0.2,0.6-1,0.6c-0.8,0-1,0-1-0.6c0-0.7,0.1-1.5,0.1-2.2v-1.7c0-0.1,0-0.2-0.1-0.2c-0.1,0-0.1,0-0.1,0.1
				c-0.8,1.2-1.6,2.5-2.6,3.5c-0.1,0.1-0.3,0.3-0.5,0.3c-0.4,0-1.3-0.8-1.3-1.1c0-0.2,0.2-0.3,0.3-0.5c1.4-1.3,2.5-2.7,3.4-4.4
				c0-0.1,0.1-0.1,0.1-0.2c0-0.2-0.2-0.3-0.4-0.3H131.8z"/>
			<path class="st1" d="M152.1,20.7c0,0.1-0.1,0.2-0.2,0.3c-0.2,0.1-0.3,0.2-0.4,0.4c-0.2,0.4-0.5,1.2-0.6,1.7
				c-0.2,0.7-0.3,1.5-0.3,2.2c0,0.2,0,1,0.2,1c0.2,0,0.3-0.3,0.4-0.5c0.1-0.2,0.5-1.1,0.7-1.1c0.2,0,0.8,0.4,0.8,0.6
				c0,0.1-0.3,0.8-0.5,1.2L152,27c-0.3,0.8-0.7,1.7-0.7,2.5c0,0.3,0,0.5,0,0.6c0,0.6-1.1,0.8-1.4,0.8c-0.4,0-0.6-0.4-0.7-0.7
				c-0.4-1.3-0.7-3.3-0.7-4.7c0-1.3,0.2-2.8,0.5-4.1c0.1-0.5,0.3-1,0.3-1.5c0-0.1,0.1-0.5,0.3-0.5c0.1,0,0.9,0.4,1.1,0.4
				C151.2,20.1,152.1,20.5,152.1,20.7z M158.4,19c0.4,0,0.4,0.2,0.5,0.5c0.4,1.6,0.6,4.1,0.6,5.8c0,3.5-0.6,6.4-3.1,9
				c-0.3,0.3-1.1,1.1-1.6,1.1c-0.3,0-1.5-1-1.5-1.4c0-0.2,0.2-0.3,0.3-0.3c1.1-0.7,2.2-1.9,2.7-3.1c0.7-1.6,0.9-3.3,0.9-5
				c0-1.8-0.2-3.8-0.7-5.6c0-0.1,0-0.2,0-0.3C156.5,19.2,158.2,19,158.4,19z"/>
			<path class="st1" d="M169.3,28.5c0.3,0,0.3,0.2,0.4,0.4c0.4,2.1,2.1,2.4,4,2.4c1.9,0,4.1-0.2,6-0.7c0.1,0,0.2-0.1,0.3-0.1
				c0.3,0,0.3,0.4,0.4,0.7c0,0.2,0.1,0.8,0.1,1c0,0.4-0.1,0.6-0.5,0.7c-1,0.3-4.8,0.6-6,0.6c-2.1,0-4.3-0.3-5.6-2.1
				c-0.3-0.4-0.8-1.4-0.8-1.9C167.5,29,169.3,28.5,169.3,28.5z M170.6,20.9c1.2,0.4,2.5,0.5,3.8,0.5c1.1,0,2.2-0.1,3.2-0.3
				c0.1,0,0.2,0,0.3,0c0.5,0,0.5,0.7,0.5,1.6c0,0.5-0.1,0.6-0.4,0.7c-0.9,0.1-2.1,0.2-3,0.2c-1.3,0-4.1-0.1-5.2-0.6
				c-0.2-0.1-0.3-0.2-0.3-0.4c0-0.2,0.1-0.8,0.2-1c0.1-0.4,0.1-0.7,0.5-0.7C170.2,20.8,170.5,20.9,170.6,20.9z M181.7,21.8
				c0,0.3-0.7,0.9-1,0.9c-0.1,0-0.2-0.2-0.5-0.5c-0.4-0.4-0.8-0.9-1.2-1.3c-0.1-0.1-0.2-0.2-0.2-0.3c0-0.2,0.8-0.8,1-0.8
				C180,19.8,181.7,21.5,181.7,21.8z M183.5,20.2c0,0.3-0.7,0.9-1,0.9c-0.1,0-0.3-0.2-0.5-0.5c-0.4-0.5-0.8-0.9-1.2-1.3
				c-0.1-0.1-0.2-0.2-0.2-0.3c0-0.3,0.8-0.8,1-0.8C181.8,18.3,183.5,20,183.5,20.2z"/>
			<path class="st1" d="M191.4,19.2c0.3,0,0.6-0.1,1-0.1c0.6,0,0.5,0.3,0.6,0.8c0.1,1.2,0.3,2.4,0.6,3.6c0.1,0.3,0.1,0.6,0.5,0.6
				c0.4,0,3.6-1.9,4.1-2.2c0.2-0.1,0.3-0.2,0.5-0.2c0.3,0,0.6,0.6,0.7,0.8c0.2,0.3,0.6,0.9,0.6,1.2c0,0.2-0.2,0.3-0.4,0.3
				c-1.4,0.5-3.6,1.6-4.9,2.3c-1.1,0.6-2.8,1.6-3.6,2.4c-0.5,0.5-1,1-1,1.8c0,0.7,0.7,1.2,1.3,1.4c0.8,0.3,1.8,0.4,2.7,0.4
				c1.7,0,3.6-0.2,5.2-0.5c0.1,0,0.1,0,0.2,0c0.3,0,0.3,0.8,0.3,1.2v0.2c0,0.5,0,0.7-0.4,0.8c-0.8,0.2-4.5,0.3-5.5,0.3
				c-1.5,0-2.8-0.1-4.1-0.9c-1.1-0.6-1.8-1.8-1.8-3.1c0-2.2,1.8-3.6,3.5-4.7c0.2-0.1,0.3-0.3,0.3-0.5c0-0.2,0-0.2-0.1-0.4
				c-0.2-0.7-0.8-2.8-1-3.7c-0.1-0.5-0.2-0.9-0.4-1.3c0-0.1-0.1-0.2-0.1-0.2C190.1,19.3,190.8,19.3,191.4,19.2z"/>
			<path class="st1" d="M207.3,21.6c2.9-0.2,5.8-0.5,8.7-0.8c1.5-0.2,3-0.4,4.5-0.6c0.1,0,0.2,0,0.3,0c0.3,0,0.3,0.3,0.4,0.5
				c0.1,0.3,0.2,1.1,0.2,1.5c0,0.4-0.4,0.4-0.9,0.4c-1.2,0-2.2,0-3.3,0.4c-1.5,0.6-2.6,1.5-3.4,3c-0.6,1.1-1,2.3-1,3.5
				c0,2.3,1.5,2.9,3.5,2.9c0.3,0,0.8,0,1,0c0.3,0,0.5,0,0.5,0.3c0,0.4-0.1,1.3-0.3,1.6c-0.1,0.3-0.3,0.3-0.6,0.3
				c-3.4,0-6.3-1.1-6.3-5c0-2,0.8-4.2,2.2-5.7c0.2-0.2,0.3-0.4,0.3-0.5c0-0.2-0.2-0.2-0.3-0.2c-0.1,0-1.1,0.2-1.3,0.2
				c-1.3,0.2-3.1,0.5-4.4,0.8c-0.1,0-0.2,0-0.3,0c-0.3,0-0.4-0.4-0.4-0.7c-0.1-0.3-0.2-1.1-0.2-1.4
				C206.2,21.6,206.4,21.6,207.3,21.6z M220.6,26.4c0,0.3-0.8,0.8-1,0.8c-0.1,0-0.2-0.1-0.3-0.2c-0.4-0.6-0.8-1.1-1.3-1.7
				c-0.1-0.1-0.2-0.2-0.2-0.3c0-0.2,0.8-0.7,1-0.7C219.1,24.3,220.6,26.2,220.6,26.4z M223,25.3c0,0.3-0.8,0.8-1,0.8
				c-0.1,0-0.2-0.2-0.3-0.3c-0.3-0.5-0.9-1.2-1.3-1.7c-0.1-0.1-0.1-0.2-0.1-0.3c0-0.2,0.8-0.8,1-0.8C221.5,23.2,223,25.1,223,25.3z"
				/>
			<path class="st1" d="M234.7,18.5c0.5,0,1.1,0.1,1.1,0.3c0,0.1-0.1,0.2-0.1,0.2c-0.1,0.1-0.3,0.3-0.3,0.8c0,0.4,0,0.9,0,1.3
				c0,0.4,0.2,0.6,0.6,0.6c0.2,0,0.9-0.1,1.2-0.1c1,0,3.1-0.2,4-0.2c0.3,0,0.5,0.1,0.5,1c0,1.2-0.2,1.2-0.4,1.2
				c-0.3,0-1.8-0.1-2.9-0.1c-0.4,0-2.2,0-2.4,0.1c-0.3,0.1-0.4,0.4-0.4,0.7v0.7c0,0.6,0,0.7,0.2,1c0.4,0.8,0.6,1.9,0.6,2.8
				c0,3.2-2.1,6.8-3,6.8c-0.2,0-1.9-0.5-1.9-0.9c0-0.2,0.3-0.4,0.5-0.6c0.8-0.7,0.9-1.1,1.4-1.9c0-0.1,0.1-0.2,0.1-0.3
				c0-0.1-0.1-0.1-0.1-0.1c-0.1,0-0.1,0-0.2,0c-0.1,0-0.3,0.1-0.5,0.1c-1.7,0-2.4-1.9-2.4-3.3c0-1.8,0.8-3.6,2.8-3.8
				c0.1,0,0.2-0.1,0.2-0.2c0-0.7-0.1-0.8-0.4-0.8c-0.2,0-1.1,0.1-1.3,0.1c-1,0.1-3.6,0.4-4.6,0.6c-0.1,0-0.2,0-0.3,0
				c-0.3,0-0.3-0.3-0.4-0.5c-0.1-0.3-0.2-1.1-0.2-1.4c0-0.4,0.2-0.4,1.2-0.4c0.5,0,5.2-0.3,5.4-0.3c0.3-0.1,0.4-0.3,0.4-0.6
				c0-0.6-0.1-1.9-0.2-2.5c0-0.1,0-0.1,0-0.2c0-0.2,0.1-0.2,0.3-0.2C233.6,18.4,234.2,18.5,234.7,18.5z M232.1,28.5
				c0,0.6,0.1,1.7,0.9,1.7c0.8,0,1-1,1-1.6s-0.2-1.8-1-1.8C232.3,26.8,232.1,27.9,232.1,28.5z"/>
			<path class="st1" d="M253.9,19.5c0.2,0,0.5,0.1,0.5,0.3c0,0.1-0.1,0.2-0.2,0.2c-0.4,0.3-0.4,0.6-0.5,1.3c0,0.2-0.1,0.5-0.1,0.9
				c0,0.1,0,0.2,0,0.2c0,0.3,0.2,0.4,0.4,0.4c0.1,0,0.2,0,0.2,0c0.8,0,1.6,0,2.3,0.5c1,0.6,1.2,1.8,1.2,2.9c0,1.8-0.3,4.5-1.2,6.1
				c-0.8,1.5-2.2,2.2-3.8,2.2c-0.4,0-0.7-0.1-0.9-0.5c-0.2-0.3-0.3-1-0.3-1.4c0-0.2,0.1-0.3,0.3-0.3s0.5,0.1,0.9,0.1
				c1.1,0,1.6-0.2,2.1-1.2c0.6-1.2,0.9-3.2,0.9-4.5c0-1-0.1-1.8-1.3-1.8c-1.1,0-1.3,0.2-1.5,0.7c-0.5,2-1.5,4.2-2.5,5.9
				c-0.5,0.8-1.4,2.2-2,2.9c-0.1,0.1-0.2,0.2-0.4,0.2c-0.3,0-1.6-0.8-1.6-1.2c0-0.2,0.2-0.3,0.3-0.5c1.6-1.7,2.7-3.4,3.6-5.6
				c0.1-0.2,0.5-1.3,0.5-1.5c0-0.2-0.1-0.3-0.3-0.3c-0.3,0-1.9,0.6-2.3,0.7c-0.1,0-0.3,0.1-0.4,0.1c-0.5,0-0.8-2-0.8-2.1
				c0-0.3,0.3-0.3,0.6-0.3c1-0.1,2.3-0.4,3.3-0.6c0.4-0.1,0.6-0.2,0.7-0.6c0.1-0.7,0.2-1.9,0.2-2.6c0-0.2,0-0.4,0-0.7
				c0-0.2,0-0.4,0.2-0.4C252,19,253.6,19.4,253.9,19.5z M262.6,26c0,0.4-1.3,1.2-1.7,1.2c-0.3,0-0.4-0.3-0.5-0.5
				c-0.8-1.7-1.3-2.9-2.7-4.3c-0.1-0.1-0.2-0.2-0.2-0.3c0-0.4,1.2-1.1,1.5-1.1C259.8,21,262.6,25.5,262.6,26z"/>
			<path class="st1" d="M273.1,30.4c-0.4,0-0.5-0.1-0.5-0.7c0-2,1.2-3.2,2.5-4.3c0.7-0.6,1.2-1.1,1.2-1.8c0-1-0.8-1.6-2.3-1.6
				c-1.3,0-2.4,0.7-3.1,1.5c-0.2,0.2-0.3,0.3-0.4,0.3s-0.2-0.1-0.4-0.3l-0.8-0.8c-0.2-0.2-0.3-0.3-0.3-0.4c0-0.1,0.1-0.2,0.2-0.4
				c1.1-1.2,2.8-2.1,4.9-2.1c2.9,0,4.6,1.6,4.6,3.5c0,1.7-1,2.6-2.3,3.7c-0.9,0.8-1.6,1.6-1.6,2.8c0,0.5-0.1,0.6-0.4,0.6H273.1z
				 M275.3,33.2c0,0.8-0.5,1.5-1.5,1.5c-0.8,0-1.4-0.5-1.4-1.3c0-0.9,0.6-1.6,1.5-1.6C274.7,31.8,275.3,32.4,275.3,33.2z"/>
		</g>
	</g>
</g>
</svg>
