<?xml version="1.0" encoding="utf-8"?>
<!-- Generator: Adobe Illustrator 27.9.0, SVG Export Plug-In . SVG Version: 6.00 Build 0)  -->
<svg version="1.1" id="レイヤー_1" xmlns="http://www.w3.org/2000/svg" xmlns:xlink="http://www.w3.org/1999/xlink" x="0px"
	 y="0px" viewBox="0 0 290 272.3" style="enable-background:new 0 0 290 272.3;" xml:space="preserve">
<style type="text/css">
	.st0{fill:#384363;}
	.st1{fill:#252C42;}
	.st2{fill:#5B6782;}
	.st3{fill:#FDBD15;}
	.st4{fill:url(#SVGID_1_);}
	.st5{fill:#1367BA;}
	.st6{fill:#1F83D1;}
	.st7{fill:#EBEBEB;}
	.st8{enable-background:new    ;}
	.st9{fill:#C7D5EA;}
	.st10{fill:#B3C6E8;}
	.st11{fill:#72593A;}
	.st12{fill:#9CB3E2;}
	.st13{fill:#DAE3EF;}
	.st14{fill:url(#SVGID_00000169517723788433878810000001668647921827990448_);}
	.st15{fill:url(#SVGID_00000074437909220860007290000018321399771553438594_);}
	.st16{fill:#F4BB67;}
	.st17{fill:url(#SVGID_00000182524620482805248450000017380693521061185464_);}
	.st18{fill:url(#SVGID_00000033345202876239736070000017666584122859279236_);}
	.st19{fill:url(#SVGID_00000008849024495793520050000002301825639470755515_);}
	.st20{fill:url(#SVGID_00000142145877958673441760000009100122977443652512_);}
	.st21{fill:url(#SVGID_00000018203784819195241810000013927618663577374652_);}
	.st22{fill:url(#SVGID_00000039827769668831805830000000472838973891846544_);}
	.st23{opacity:8.000000e-02;fill:#212A3D;}
	.st24{fill:#F7DBC5;}
	.st25{fill:#DEBAA7;}
	.st26{fill:#F0F0F0;}
	.st27{fill:#44527A;}
	.st28{fill:#FFFFFF;}
	.st29{fill:#845E28;}
	.st30{fill:#333333;}
	.st31{fill:#3C3C3C;}
	.st32{fill:#414141;}
	.st33{fill:#EBCAB5;}
	.st34{fill:#4F3A25;}
	.st35{fill:#083E9E;}
	.st36{fill:#1553B7;}
	.st37{fill:#304665;}
	.st38{fill:#EBF1F7;}
	.st39{fill:#4C4C4C;}
	.st40{fill:url(#SVGID_00000042738467215211656090000002630779076543280260_);}
	.st41{fill:url(#SVGID_00000065069008299395699010000013092382396161969290_);}
	.st42{fill:#D9DADA;}
	.st43{fill:#B2B2B3;}
	.st44{fill:#C6C7C7;}
	.st45{fill:#868686;}
	.st46{fill:#33B0FF;}
	.st47{opacity:0.3;fill:#FFFFFF;}
	.st48{fill:url(#SVGID_00000132795490826708827190000005051590837139058082_);}
	.st49{opacity:0.4;fill:#FFFFFF;}
	.st50{opacity:0.25;fill:#FFFFFF;}
	.st51{opacity:0.12;fill:#FFFFFF;}
	.st52{fill:#E89E0C;}
	.st53{fill:#FFD21F;}
	.st54{fill:#FCF8F7;}
	.st55{fill:url(#SVGID_00000096762939625523108260000008535505978923938202_);}
	.st56{fill:url(#SVGID_00000105420894127144564330000006042719040613185682_);}
	.st57{fill:url(#SVGID_00000045605201560909747360000002514961840756429720_);}
	.st58{fill:#979797;}
	.st59{fill:#303460;}
	.st60{fill:#333366;}
	.st61{fill:#DE723B;}
	.st62{fill:#212A3D;}
	.st63{fill:#684F3E;}
	.st64{fill:url(#SVGID_00000106142073246473889970000016050716294582386093_);}
	.st65{fill:url(#SVGID_00000031911754106872630260000009688955907751554179_);}
	.st66{fill:url(#SVGID_00000100363264679628412350000018330446770025332116_);}
	.st67{opacity:5.000000e-02;fill:#1E1E49;}
	.st68{fill:#F5F9FC;}
	.st69{opacity:0.6;}
	.st70{opacity:0.2;fill:#FFFFFF;}
	.st71{fill:none;}
	.st72{fill:#898989;}
	.st73{fill:#8182AE;}
	.st74{fill:#ADC2DA;}
	.st75{fill:#73453E;}
	.st76{opacity:0.5;}
	.st77{fill:#8C8278;}
	.st78{fill:#DCC8BE;}
	.st79{fill:#A3B76D;}
	.st80{fill:#85A473;}
	.st81{fill:#5F7DA2;}
	.st82{fill:#EFEFEF;}
	.st83{fill:#DEDEDE;}
	.st84{fill:#FAFAFA;}
	.st85{fill:#EDEDED;}
	.st86{opacity:0.5;fill:#C8C8C8;}
	.st87{fill:#D6D6D6;}
	.st88{fill:#89645D;}
	.st89{fill:#A37A74;}
	.st90{fill:#704F4A;}
	.st91{fill:#C8E6E8;}
	.st92{fill:#492F2C;}
	.st93{fill:#C62E2E;}
	.st94{fill:#DB3737;}
	.st95{fill:#FFAED6;}
	.st96{fill:#EA5959;}
	.st97{fill:#DB72A5;}
	.st98{fill:#F2F2F2;}
	.st99{fill:#EF95B6;}
	.st100{fill:#FFABC5;}
	.st101{fill:#EF954B;}
	.st102{fill:#FFB26C;}
	.st103{fill:#E5D783;}
	.st104{fill:#FFF5AC;}
	.st105{opacity:0.84;fill:#B3E2F2;}
	.st106{fill:#A19378;}
	.st107{fill:#EFDBB2;}
	.st108{fill:#93876E;}
	.st109{fill:#D7C6A1;}
	.st110{fill:#BBAC8C;}
	.st111{fill:#3B3944;}
	.st112{fill:#DCDDDD;}
	.st113{fill:#FCFCFB;}
	.st114{fill:#35333D;}
	.st115{fill:#725C50;}
	.st116{fill:#2E6147;}
	.st117{fill:#5B4850;}
	.st118{fill:#262525;}
	.st119{fill:#E2BA40;}
	.st120{fill:#FAD047;}
	.st121{fill:#C7A235;}
	.st122{fill:#C9A13C;}
	.st123{fill:#EDE4D9;}
</style>
<g>
	<g>
		<g>
			<g>
				<g>
					<g>
						<g class="st8">
							<g>
								<polygon class="st83" points="178.1,140.7 261.8,92.1 261.4,209.3 177.8,257.9 								"/>
							</g>
							<g>
								<polygon class="st84" points="28.6,54.4 112.2,5.7 261.8,92.1 178.1,140.7 								"/>
							</g>
							<g>
								<polygon class="st85" points="178.1,140.7 177.8,257.9 28.2,171.5 28.6,54.4 								"/>
							</g>
						</g>
					</g>
					<g>
						<g>
							<polygon class="st86" points="132.3,150.6 132.3,183.6 176.7,209.2 176.7,176.2 							"/>
						</g>
						<polygon class="st86" points="179.6,176.2 179.6,210.9 205.8,226 205.8,162.3 						"/>
					</g>
					<polygon class="st83" points="132.3,150.6 104.6,134.7 104.6,198.4 132.3,183.6 					"/>
					<g>
						<polygon class="st84" points="104.6,198.4 104.6,198.4 176.7,239.9 176.7,209.2 132.3,183.6 						"/>
						<polygon class="st84" points="179.6,240 205.8,226.1 205.8,226 179.6,210.9 						"/>
					</g>
					<g>
						<g>
							<polygon class="st87" points="44.6,177.7 41.8,179.4 42.1,95.9 44.8,97.3 							"/>
						</g>
						<g>
							<polygon class="st84" points="82.6,199.7 82.6,202.9 41.8,179.4 44.6,177.7 							"/>
						</g>
						<g>
							<g>
								<path class="st88" d="M48.3,141.6c-0.5-0.3-0.9-0.7-1.2-1.2l0,6.5l2.4,1.4l0-6.5C49.2,141.9,48.7,141.9,48.3,141.6z"/>
								<path class="st88" d="M47.1,130.9l0,6.5c0.3-0.1,0.7-0.1,1.2,0.2c0.5,0.3,0.9,0.7,1.2,1.2l0-6.5L47.1,130.9z M48.5,134.2
									l0,1.3l-0.5-0.3l0-1.3c-0.1-0.2-0.2-0.4-0.2-0.6c0-0.3,0.2-0.4,0.5-0.3c0.3,0.2,0.5,0.5,0.5,0.8
									C48.8,134.1,48.7,134.2,48.5,134.2z"/>
							</g>
							<g>
								<path class="st89" d="M44.6,177.7l38,21.9l0.2-80.4l-38-21.9L44.6,177.7z M51.9,127.6l0-5.4c0-7.7,5.6-10.8,12.5-6.9
									c6.9,4,12.4,13.5,12.4,21.3l0,5.4l0,14.1l-12.5-7.2l-12.5-7.2L51.9,127.6z M51.8,148.3l24.9,14.4l-0.1,26.8l-24.9-14.4
									L51.8,148.3z M47.1,137.4l0-6.5l2.4,1.4l0,6.5c0.4,0.6,0.6,1.2,0.6,1.8c0,0.6-0.2,1-0.6,1.2l0,6.5l-2.4-1.4l0-6.5
									c-0.4-0.6-0.6-1.2-0.6-1.8C46.5,138,46.7,137.6,47.1,137.4z"/>
								<polygon class="st89" points="54.2,152.4 54.1,173.8 74.3,185.5 74.4,164.1 								"/>
							</g>
							<g>
								<path class="st90" d="M51.8,175.2l24.9,14.4l0.1-26.8l-24.9-14.4L51.8,175.2z M53,150.4l22.6,13l-0.1,24.1l-22.6-13
									L53,150.4z"/>
								<path class="st90" d="M64.4,115.3c-6.9-4-12.5-0.9-12.5,6.9l0,5.4l0,14.1l12.5,7.2l12.5,7.2l0-14.1l0-5.4
									C76.9,128.9,71.3,119.3,64.4,115.3z M75.6,154L53,141l0.1-18.1c0-7,5.1-9.8,11.3-6.2c6.2,3.6,11.3,12.2,11.2,19.2L75.6,154z
									"/>
							</g>
							<g>
								
									<rect x="53.6" y="126.3" transform="matrix(3.955035e-03 -1 1 3.955035e-03 -72.2067 180.0392)" class="st91" width="1.3" height="0"/>
								<path class="st91" d="M63.8,117.7c-5.3-2.7-9.5-0.2-9.5,5.9l0,2l9.5,5.5L63.8,117.7z"/>
								
									<rect x="64.3" y="145.5" transform="matrix(0.5 -0.866 0.866 0.5 -94.4239 128.7997)" class="st91" width="0" height="1.4"/>
								<path class="st91" d="M65,118.4l0,13.4l9.5,5.5l0-2C74.5,129.2,70.3,121.8,65,118.4z"/>
								<polygon class="st91" points="54.3,126.9 54.2,140.3 63.7,145.8 63.8,132.4 								"/>
								<polygon class="st91" points="64.9,146.5 74.4,152 74.5,138.6 65,133.1 								"/>
							</g>
							<g>
								<path class="st88" d="M49.5,138.8c-0.3-0.5-0.7-0.9-1.2-1.2c-0.5-0.3-0.9-0.3-1.2-0.2c-0.4,0.2-0.6,0.6-0.6,1.2
									c0,0.6,0.2,1.3,0.6,1.8c0.3,0.5,0.7,0.9,1.2,1.2c0.5,0.3,0.9,0.3,1.2,0.2c0.4-0.2,0.6-0.6,0.6-1.2
									C50.1,140,49.8,139.4,49.5,138.8z"/>
								<path class="st92" d="M48.1,135.2l0.5,0.3l0-1.3c0.1,0,0.2-0.1,0.2-0.3c0-0.3-0.2-0.7-0.5-0.8c-0.3-0.2-0.5,0-0.5,0.3
									c0,0.2,0.1,0.4,0.2,0.6L48.1,135.2z"/>
							</g>
							<g>
								<path class="st88" d="M52.9,174.5l22.6,13l0.1-24.1l-22.6-13L52.9,174.5z M54.2,152.4l20.2,11.7l-0.1,21.4l-20.2-11.7
									L54.2,152.4z"/>
								<path class="st88" d="M64.4,116.7c-6.2-3.6-11.3-0.8-11.3,6.2L53,141l22.6,13l0-18.1C75.7,128.9,70.6,120.3,64.4,116.7z
									 M63.8,117.7l0,13.4l-9.5-5.5l0-2C54.3,117.5,58.5,115,63.8,117.7z M54.3,126.9l9.5,5.5l0,13.4l-9.5-5.5L54.3,126.9z
									 M74.4,152l-9.5-5.5l0-13.4l9.5,5.5L74.4,152z M74.5,137.3l-9.5-5.5l0-13.4c5.3,3.4,9.5,10.8,9.5,16.9L74.5,137.3z"/>
							</g>
						</g>
					</g>
					<g>
						<polygon class="st93" points="83.1,106.5 83.1,119.2 72.5,124.8 						"/>
						<g>
							<g>
								<g>
									<g>
										<g>
											<path class="st94" d="M42.5,107.5c0,2.4-1.7,3.3-3.8,2.1c-2.1-1.2-3.7-4.1-3.7-6.5L42.5,107.5z"/>
										</g>
									</g>
									<g class="st8">
										<g>
											<path class="st26" d="M50,111.9c0,2.4-1.7,3.3-3.8,2.1c-2.1-1.2-3.7-4.1-3.7-6.5L50,111.9z"/>
										</g>
									</g>
									<g>
										<g>
											<path class="st94" d="M57.5,116.2c0,2.4-1.7,3.3-3.8,2.1c-2.1-1.2-3.7-4.1-3.7-6.5L57.5,116.2z"/>
										</g>
									</g>
									<g class="st8">
										<g>
											<path class="st26" d="M65,120.5c0,2.4-1.7,3.3-3.8,2.1c-2.1-1.2-3.7-4.1-3.7-6.5L65,120.5z"/>
										</g>
									</g>
									<g>
										<g>
											<path class="st94" d="M72.5,124.8c0,2.4-1.7,3.3-3.8,2.1c-2.1-1.2-3.7-4.1-3.7-6.5L72.5,124.8z"/>
										</g>
									</g>
								</g>
								<g>
									<g class="st8">
										<g>
											<polygon class="st95" points="45.6,84.9 53.1,89.2 53.2,89.3 45.7,84.9 											"/>
										</g>
										<g>
											<polygon class="st95" points="53.1,89.2 53.2,89.3 42.6,107.6 42.5,107.5 											"/>
										</g>
										<g>
											
												<rect x="33.5" y="91.9" transform="matrix(0.5 -0.866 0.866 0.5 -61.2809 86.2697)" class="st96" width="21.1" height="8.7"/>
										</g>
									</g>
									<g>
										
											<rect x="41" y="96.2" transform="matrix(0.5001 -0.866 0.866 0.5001 -61.2799 94.9158)" class="st28" width="21.1" height="8.7"/>
									</g>
									<g class="st8">
										<g>
											<polygon class="st95" points="68.1,97.9 68.2,97.9 57.6,116.2 57.5,116.2 											"/>
										</g>
										<g>
											<polygon class="st95" points="57.5,116.2 57.6,116.2 50.1,111.9 50,111.9 											"/>
										</g>
										<g>
											
												<rect x="48.5" y="100.5" transform="matrix(0.4999 -0.8661 0.8661 0.4999 -61.2803 103.6008)" class="st96" width="21.1" height="8.7"/>
										</g>
									</g>
									<g>
										
											<rect x="56" y="104.9" transform="matrix(0.5 -0.866 0.866 0.5 -61.2812 112.241)" class="st28" width="21.1" height="8.7"/>
									</g>
									<g class="st8">
										<g>
											<polygon class="st95" points="75.6,102.2 75.7,102.3 83.2,106.6 83.1,106.5 											"/>
										</g>
										<g>
											
												<rect x="63.5" y="109.2" transform="matrix(0.5 -0.866 0.866 0.5 -61.2826 120.8961)" class="st96" width="21.1" height="8.7"/>
										</g>
									</g>
								</g>
							</g>
							<g>
								<g>
									<g class="st8">
										<g>
											<polygon class="st95" points="45.6,84.9 45.7,84.9 53.2,89.3 53.1,89.2 											"/>
										</g>
										<g>
											<polygon class="st97" points="42.5,107.5 42.6,107.6 35.1,103.2 35,103.2 											"/>
										</g>
									</g>
								</g>
							</g>
						</g>
					</g>
					<g>
						<g>
							<polygon class="st85" points="242.7,92.1 112.2,16.8 112.2,16.8 112.2,91.6 178.1,129.6 							"/>
							<polygon class="st83" points="47.7,54.3 112.2,91.6 112.2,16.8 							"/>
						</g>
						<polygon class="st98" points="51.8,56.7 178.1,129.6 238.5,94.5 112.2,21.6 						"/>
					</g>
					<g>
						<g class="st8">
							<g>
								<path class="st99" d="M169.4,209.4l0,1.6c0,0.7-0.6,1.5-1.6,2.1c-1.8,1.1-4.4,1.3-5.8,0.5c-0.6-0.3-0.9-0.8-0.9-1.3l0-1.6
									c0,0.5,0.3,0.9,0.9,1.3c1.4,0.8,4,0.6,5.8-0.4C168.9,210.9,169.4,210.1,169.4,209.4z"/>
							</g>
							<g>
								<path class="st100" d="M168.6,208.2c1.4,0.8,1.1,2.3-0.8,3.4c-1.8,1.1-4.4,1.3-5.8,0.4c-1.4-0.8-1.1-2.3,0.8-3.4
									C164.6,207.6,167.2,207.4,168.6,208.2z"/>
							</g>
						</g>
					</g>
					<g>
						<g class="st8">
							<g>
								<path class="st99" d="M177.7,213.6l0,1.6c0,0.7-0.6,1.5-1.6,2.1c-1.8,1.1-4.4,1.3-5.8,0.5c-0.6-0.3-0.9-0.8-0.9-1.3l0-1.6
									c0,0.5,0.3,0.9,0.9,1.3c1.4,0.8,4,0.6,5.8-0.4C177.2,215,177.7,214.2,177.7,213.6z"/>
							</g>
							<g>
								<path class="st100" d="M176.9,212.3c1.4,0.8,1.1,2.3-0.8,3.4c-1.8,1.1-4.4,1.3-5.8,0.4c-1.4-0.8-1.1-2.3,0.8-3.4
									C172.9,211.7,175.5,211.5,176.9,212.3z"/>
							</g>
						</g>
					</g>
					<g>
						<g class="st8">
							<g>
								<path class="st99" d="M186,217.7l0,1.6c0,0.7-0.6,1.5-1.6,2.1c-1.8,1.1-4.4,1.3-5.8,0.5c-0.6-0.3-0.9-0.8-0.9-1.3l0-1.6
									c0,0.5,0.3,0.9,0.9,1.3c1.4,0.8,4,0.6,5.8-0.5C185.4,219.1,186,218.4,186,217.7z"/>
							</g>
							<g>
								<path class="st100" d="M185.1,216.4c1.4,0.8,1.1,2.3-0.8,3.4c-1.8,1.1-4.4,1.3-5.8,0.5c-1.4-0.8-1.1-2.3,0.8-3.4
									C181.1,215.8,183.7,215.6,185.1,216.4z"/>
							</g>
						</g>
					</g>
					<g>
						<g class="st8">
							<g>
								<path class="st99" d="M194.3,221.8l0,1.6c0,0.7-0.6,1.5-1.6,2.1c-1.8,1.1-4.4,1.3-5.8,0.5c-0.6-0.3-0.9-0.8-0.9-1.3l0-1.6
									c0,0.5,0.3,0.9,0.9,1.3c1.4,0.8,4,0.6,5.8-0.4C193.7,223.2,194.3,222.5,194.3,221.8z"/>
							</g>
							<g>
								<path class="st100" d="M193.4,220.5c1.4,0.8,1.1,2.3-0.8,3.4c-1.8,1.1-4.4,1.3-5.8,0.4c-1.4-0.8-1.1-2.3,0.8-3.4
									C189.4,219.9,192,219.7,193.4,220.5z"/>
							</g>
						</g>
					</g>
					<g>
						<g class="st8">
							<g>
								<path class="st99" d="M160,217.2l0,1.6c0,0.7-0.6,1.5-1.6,2.1c-1.8,1.1-4.4,1.2-5.8,0.4c-0.6-0.3-0.9-0.8-0.9-1.3l0-1.6
									c0,0.5,0.3,0.9,0.9,1.3c1.4,0.8,4,0.6,5.8-0.5C159.4,218.7,160,217.9,160,217.2z"/>
							</g>
							<g>
								<path class="st100" d="M159.1,215.9c1.4,0.8,1.1,2.3-0.8,3.4c-1.8,1.1-4.4,1.3-5.8,0.5c-1.4-0.8-1.1-2.3,0.8-3.4
									C155.1,215.3,157.7,215.1,159.1,215.9z"/>
							</g>
						</g>
					</g>
					<g>
						<g class="st8">
							<g>
								<path class="st99" d="M168.2,221.3l0,1.6c0,0.7-0.6,1.5-1.6,2.1c-1.8,1.1-4.4,1.3-5.8,0.5c-0.6-0.3-0.9-0.8-0.9-1.3l0-1.6
									c0,0.5,0.3,0.9,0.9,1.3c1.4,0.8,4,0.6,5.8-0.4C167.7,222.8,168.2,222,168.2,221.3z"/>
							</g>
							<g>
								<path class="st100" d="M167.4,220c1.4,0.8,1.1,2.3-0.8,3.4c-1.8,1.1-4.4,1.3-5.8,0.4c-1.4-0.8-1.1-2.3,0.8-3.4
									C163.4,219.4,166,219.2,167.4,220z"/>
							</g>
						</g>
					</g>
					<g>
						<g class="st8">
							<g>
								<path class="st99" d="M176.5,225.4l0,1.6c0,0.7-0.6,1.5-1.6,2.1c-1.8,1.1-4.4,1.3-5.8,0.5c-0.6-0.3-0.9-0.8-0.9-1.3l0-1.6
									c0,0.5,0.3,0.9,0.9,1.3c1.4,0.8,4,0.6,5.8-0.5C175.9,226.9,176.5,226.1,176.5,225.4z"/>
							</g>
							<g>
								<path class="st100" d="M175.6,224.2c1.4,0.8,1.1,2.3-0.8,3.4c-1.8,1.1-4.4,1.3-5.8,0.5c-1.4-0.8-1.1-2.3,0.8-3.4
									C171.7,223.6,174.2,223.4,175.6,224.2z"/>
							</g>
						</g>
					</g>
					<g>
						<g class="st8">
							<g>
								<path class="st99" d="M184.8,229.6l0,1.6c0,0.7-0.6,1.5-1.6,2.1c-1.8,1.1-4.4,1.2-5.8,0.5c-0.6-0.3-0.9-0.8-0.9-1.3l0-1.6
									c0,0.5,0.3,0.9,0.9,1.3c1.4,0.8,4,0.6,5.8-0.4C184.2,231,184.8,230.2,184.8,229.6z"/>
							</g>
							<g>
								<path class="st100" d="M183.9,228.3c1.4,0.8,1.1,2.3-0.8,3.4c-1.8,1.1-4.4,1.3-5.8,0.4c-1.4-0.8-1.1-2.3,0.8-3.4
									C179.9,227.7,182.5,227.5,183.9,228.3z"/>
							</g>
						</g>
					</g>
					<g>
						<g>
							<g class="st8">
								<g>
									<path class="st101" d="M144.3,192.4l0,2.1c0,0.4-0.2,0.7-0.6,1c-1.4,0.8-4.7,0.2-7.3-1.3c-1.9-1.1-2.9-2.3-2.9-3.3l0-2.1
										c0,0.9,1.1,2.2,2.9,3.3c2.7,1.5,6,2.1,7.3,1.3C144.1,193.1,144.3,192.8,144.3,192.4z"/>
								</g>
								<g>
									<path class="st102" d="M141.4,189.1c2.7,1.5,3.7,3.4,2.3,4.2c-1.4,0.8-4.7,0.2-7.3-1.3c-2.7-1.5-3.7-3.4-2.3-4.2
										C135.4,187,138.7,187.6,141.4,189.1z"/>
								</g>
							</g>
						</g>
						<g>
							<g class="st8">
								<g>
									<path class="st101" d="M137.3,197l0,2.1c0,0.4-0.2,0.7-0.6,1c-1.4,0.8-4.7,0.2-7.3-1.3c-1.9-1.1-2.9-2.3-2.9-3.3l0-2.1
										c0,0.9,1.1,2.2,2.9,3.3c2.7,1.5,6,2.1,7.3,1.3C137.1,197.7,137.3,197.4,137.3,197z"/>
								</g>
								<g>
									<path class="st102" d="M134.4,193.7c2.7,1.5,3.7,3.4,2.3,4.2c-1.4,0.8-4.7,0.2-7.3-1.3c-2.7-1.5-3.7-3.4-2.3-4.2
										C128.4,191.6,131.7,192.2,134.4,193.7z"/>
								</g>
							</g>
						</g>
						<g>
							<g class="st8">
								<g>
									<path class="st101" d="M130.3,201.6l0,2.1c0,0.4-0.2,0.7-0.6,1c-1.4,0.8-4.7,0.2-7.3-1.3c-1.9-1.1-2.9-2.3-2.9-3.3l0-2.1
										c0,0.9,1.1,2.2,2.9,3.3c2.7,1.5,6,2.1,7.3,1.3C130.1,202.3,130.3,202,130.3,201.6z"/>
								</g>
								<g>
									<path class="st102" d="M127.4,198.3c2.7,1.5,3.7,3.4,2.3,4.2c-1.4,0.8-4.7,0.2-7.3-1.3c-2.7-1.5-3.7-3.4-2.3-4.2
										C121.4,196.2,124.7,196.8,127.4,198.3z"/>
								</g>
							</g>
						</g>
					</g>
					<g>
						<g>
							<g class="st8">
								<g>
									<path class="st103" d="M155.2,198l0,1.4c0,0.5-0.3,1-1,1.4c-1.4,0.8-3.6,0.8-5,0c-0.7-0.4-1-0.9-1-1.5l0-1.4
										c0,0.5,0.3,1.1,1,1.5c1.4,0.8,3.6,0.8,5,0C154.9,199.1,155.2,198.6,155.2,198z"/>
								</g>
								<g>
									<path class="st104" d="M154.2,196.6c1.4,0.8,1.4,2.1,0,2.9c-1.4,0.8-3.6,0.8-5,0c-1.4-0.8-1.4-2.1,0-2.9
										C150.5,195.8,152.8,195.8,154.2,196.6z"/>
								</g>
							</g>
						</g>
						<g>
							<g class="st8">
								<g>
									<path class="st103" d="M148.2,202.6l0,1.4c0,0.5-0.3,1-1,1.4c-1.4,0.8-3.6,0.8-5,0c-0.7-0.4-1-0.9-1-1.5l0-1.4
										c0,0.5,0.3,1.1,1,1.5c1.4,0.8,3.6,0.8,5,0C147.9,203.7,148.2,203.2,148.2,202.6z"/>
								</g>
								<g>
									<path class="st104" d="M147.2,201.2c1.4,0.8,1.4,2.1,0,2.9c-1.4,0.8-3.6,0.8-5,0c-1.4-0.8-1.4-2.1,0-2.9
										C143.6,200.4,145.8,200.4,147.2,201.2z"/>
								</g>
							</g>
						</g>
						<g>
							<g class="st8">
								<g>
									<path class="st103" d="M141.3,207.2l0,1.4c0,0.5-0.3,1-1,1.4c-1.4,0.8-3.6,0.8-5,0c-0.7-0.4-1-0.9-1-1.5l0-1.4
										c0,0.5,0.3,1.1,1,1.5c1.4,0.8,3.6,0.8,5,0C140.9,208.3,141.3,207.8,141.3,207.2z"/>
								</g>
								<g>
									<path class="st104" d="M140.2,205.8c1.4,0.8,1.4,2.1,0,2.9c-1.4,0.8-3.6,0.8-5,0c-1.4-0.8-1.4-2.1,0-2.9
										C136.6,205,138.8,205,140.2,205.8z"/>
								</g>
							</g>
						</g>
					</g>
					<g>
						<path class="st105" d="M176.7,176.2v63.7l-72-41.5v-63.7L176.7,176.2z M179.6,176.2V240l26.3-13.9v-63.8L179.6,176.2z"/>
						<path class="st88" d="M208,158.6c0.4,0.3,0.7,0.7,0.7,1.2v67.1c0,0.5-0.3,1-0.8,1.3l-29.2,15.5c-0.2,0.1-0.5,0.2-0.7,0.2
							c-0.3,0-0.5-0.1-0.7-0.2l-75-43.2c-0.5-0.3-0.7-0.7-0.7-1.3v-67.1c0-0.5,0.3-1,0.7-1.3c0.4-0.3,1-0.3,1.4,0l74.2,42.8
							l28.5-15.1C207.1,158.3,207.6,158.3,208,158.6z M205.8,226.1v-63.8l-26.3,13.9V240L205.8,226.1z M176.7,239.9v-63.7l-72-41.5
							v63.7L176.7,239.9z"/>
					</g>
				</g>
				<g>
					<g>
						<g class="st8">
							<g>
								<polygon class="st106" points="94.9,215.7 96.5,214.3 99.1,223.8 97.4,225.3 								"/>
							</g>
							<g>
								<polygon class="st106" points="87.9,189.3 89.6,187.9 90,189.4 88.3,190.9 								"/>
							</g>
							<g>
								<polygon class="st107" points="86.3,188.4 87.9,186.9 89.6,187.9 87.9,189.3 								"/>
							</g>
							<g>
								<polygon class="st107" points="88.3,190.9 90,189.4 108,199.8 106.3,201.3 								"/>
							</g>
							<g>
								<polygon class="st106" points="107.6,200.7 109.2,199.2 118.7,235.2 117.1,236.6 								"/>
							</g>
							<g>
								<polygon class="st107" points="105.9,199.7 107.6,198.3 109.2,199.2 107.6,200.7 								"/>
							</g>
							<g>
								<polygon class="st108" points="107.6,200.7 117.1,236.6 115.4,235.7 112.9,226.1 94.9,215.7 97.4,225.3 95.8,224.4 
									86.3,188.4 87.9,189.3 88.3,190.9 106.3,201.3 105.9,199.7 								"/>
							</g>
						</g>
					</g>
					<g>
						<g class="st8">
							<g>
								<polygon class="st106" points="81.9,217.9 83.5,217.4 80.9,229.9 79.3,230.4 								"/>
							</g>
							<g>
								<polygon class="st106" points="89.1,183.2 90.7,182.8 90.3,184.8 88.6,185.3 								"/>
							</g>
							<g>
								<polygon class="st109" points="87.4,182.3 89.1,181.8 90.7,182.8 89.1,183.2 								"/>
							</g>
							<g>
								<polygon class="st109" points="88.6,185.3 90.3,184.8 108.3,195.2 106.6,195.7 								"/>
							</g>
							<g>
								<polygon class="st106" points="108.7,194.6 110.3,194.1 100.6,241.3 98.9,241.7 								"/>
							</g>
							<g>
								<polygon class="st109" points="107.1,193.6 108.7,193.2 110.3,194.1 108.7,194.6 								"/>
							</g>
							<g>
								<polygon class="st110" points="108.7,194.6 98.9,241.7 97.3,240.8 99.9,228.3 81.9,217.9 79.3,230.4 77.7,229.4 87.4,182.3 
									89.1,183.2 88.6,185.3 106.6,195.7 107.1,193.6 								"/>
							</g>
						</g>
					</g>
					<g>
						<path class="st111" d="M88.9,187.6l-0.4,2L83,216.1l1.6,0.9l14.7,8.5l5.5-26.5l0.4-2L88.9,187.6z"/>
						<g>
							<g>
								<polygon class="st112" points="99.3,208.2 99.2,208.8 95.1,206.5 95.2,205.9 								"/>
							</g>
							<g class="st8">
								<g>
									<polygon class="st112" points="98.3,213.3 98.1,213.9 94.1,211.5 94.2,210.9 									"/>
								</g>
								<g>
									<polygon class="st113" points="98.7,211 98.5,212.1 88.7,206.4 88.9,205.4 									"/>
								</g>
								<g>
									<polygon class="st113" points="99.8,206 99.6,207 89.7,201.4 90,200.3 									"/>
								</g>
								<g>
									<polygon class="st113" points="99.3,199.6 98.9,201.1 92.4,197.3 92.7,195.8 									"/>
								</g>
								<g>
									<polygon class="st114" points="105.3,197 104.9,199 90.1,190.5 84.7,217 83,216.1 88.5,189.6 88.9,187.6 									"/>
								</g>
							</g>
							<g>
								<polygon class="st112" points="97.2,218.3 97.1,218.9 93,216.5 93.1,215.9 								"/>
							</g>
							<g>
								<polygon class="st113" points="97.7,216.1 97.5,217.1 87.7,211.4 87.9,210.4 								"/>
							</g>
						</g>
					</g>
				</g>
			</g>
			<g>
				<path class="st26" d="M125.8,263.6c6.2,3.6,15.6,4,21,0.9c5.4-3.1,4.7-8.5-1.5-12.1c-6.2-3.6-15.6-4-21-0.9
					C118.9,254.6,119.6,260,125.8,263.6z"/>
				<g>
					<path class="st98" d="M135.9,181.7l-1.5-0.4c-1.3,0.5-4.1,6.4-5.4,10.5c-0.6,1.7,0.4,4.8,2.6,2.9c1.6-1.4,1.7-3.9,2.7-5.7
						C135.6,186.4,136.9,184.8,135.9,181.7z"/>
					<path class="st98" d="M129.2,191c-1.3,1.8-2.6,3.6-4,5.3c-0.4,0.6-1.9,2-1.8,2.7c0.9,0.5,1.9,1.4,2.7,1.7
						c1.6-1.3,3.3-3.1,4.8-4.6c1.4-1.3,1.6-1.9,0.3-2.7C130.9,193.3,129,191.3,129.2,191z"/>
					<g>
						<g>
							<path class="st24" d="M138.7,233.8c-1.4-6.2,1.6-14.4,2.8-15.9c-0.7-10.8-6.4-12.4-8.6-9.7c-2.3,4.3,0.2,20.3,0.7,22.1
								c0.4,1.8,0,2.8,1.1,4.5c-1,4.7,1.2,9.6,0.6,16c0,0.1-0.1,0.1-0.1,0.2c-2.2,2.8-1.9,2.2-4.5,3.2c-1.1,0.3-1.1,2.2,1.1,2.4
								c1.7,0.1,2.7-1.8,4.5-1.6c1.9,0.3,3.3-0.2,2.6-1.9c-0.7-1.7-0.4-0.9-0.5-2.3c0-0.1,0-0.2-0.1-0.3
								C138.6,241.8,141.5,242.9,138.7,233.8z"/>
							<path class="st24" d="M147.9,252.2c0-0.1,0-0.2,0-0.3c0.2-6.9,2.5-13.1-1.7-18.3c0.5-4-1.8-11.4,0-14.2
								c1.8-2.7,2.3-5.3,0.7-9.2c-1.5-3.9-9.1-1.8-9.5,2c-0.4,3.7,1.4,15.2,2.3,17.4c1,2.3,2.1,6.4,3,7.1c0.9,0.7,1.8,11.2,1.8,16
								c-1.2,4.2-1.4,3.1-2.4,4.8c-1,1.8-1,2.9,0.3,3c1.4,0.1,2.5,0.7,4.9-2.2c0.5-2.6,0.4-2.9,0.4-3.8
								C147.9,254,147.9,253,147.9,252.2z"/>
							<path class="st115" d="M142.6,257.1c0.9,2.1,2.9,1.7,4.1,1.1c1.2-0.7,1.1-3,1.1-3.9c0.9,2.8-0.3,2.8-0.1,5.3
								c0,2-1.9,3.3-4.5,3.1C138.9,262.4,140.2,259.8,142.6,257.1z"/>
							<path class="st115" d="M138.7,252.7c-1.2,1.2-4.8,2.3-5.9,2.6c-1.1,0.3-1.9-1.3-1.5-1.5c-1.9,0.5-2.7,0.8-3.6,1
								c-1,0.3-1.1,1.7,0.9,2.5c2,0.8,4.6,0.1,5.5-0.8c0.8-0.9,4.9-0.6,5.1-1.4C139.5,254,139,252.8,138.7,252.7z"/>
						</g>
						<path class="st116" d="M148.4,213c-0.4-1.5-1-3.1-2.1-4.6c-1.5,2.7-10.2,5.9-14.2,2.7c-0.6,1.9-0.9,3.5-1,5
							c0,0-2.5,27.7-3,29.9l0,0.9l0,1.4l1.3-0.7l0.5,1.8l1.1-1l0,0.8h0l0,0.6l1.1-0.6l0,1.1l1.6-0.8l0,0l0.3,1l1.2-0.9l0,0.8l1.1-1
							l0.4,1l0.6-0.5l0,0l0.2-0.2l0.5,1.1l0.2-0.4l0.7-0.4l0.1,0l0.2,1.1l1-0.9l0.3,0.6l0.7-0.6l0.3,0.6l0.6-0.6l0.7,0.5l0.6-0.7
							l0.5,0.8l0.3-0.7l0.7,0.4l0.5-1.1l0.4,1.1l0.3-0.9l0.3,0.9l0.1-0.6l0.6,0.7l0.2-1l0.5,0.9l0.4-1l0.7,0.9l0.3-1.2l1,0.5
							l-0.4-5.8C149.9,243.6,149.4,215.7,148.4,213z"/>
						<path class="st24" d="M144.2,183c1.3,1.2,4.5,3.9,4.9,4.8c1.3,3.1-6,5.7-2.5,20.1c1.2,5.1-11.2,5.7-14.4,0.3
							c1.8-6-0.7-14.5,0.1-17.5c0.9-3.4,1.5-9.3,4.6-9.3C140,181.4,141.4,183,144.2,183z"/>
						<path class="st98" d="M145.8,184.3c1.4,0,2.5,1.2,2.9,2.1c1.3,3.1-4.5,9.3-1.6,22.6c0.9,4.3-13.3,4.1-15.8-0.9
							c1.7-6-1.3-12.3,0.5-17.7c1.2-3.3,1.3-9.6,4.9-9.2C134.5,186.1,136.9,189.6,145.8,184.3z"/>
						<path class="st24" d="M137.8,181.9c0,0,0.2,1.8-0.4,2.8c0,2.5,5.5,0.1,6.9-1.6c-0.4-0.6-1.3-2.8,0.4-6.4
							C142.9,178.2,137.8,181.9,137.8,181.9z"/>
						<path class="st33" d="M143.6,179.9c-0.6-0.3-2-0.2-3.6,0.4c-1.2,0.9-2.1,1.6-2.1,1.6s0.2,1.8-0.4,2.8c0,0.2,0,0.3,0.1,0.4
							c0.9-0.3,1.9-0.8,2.8-1.3C143.1,182.3,144.5,180.5,143.6,179.9z"/>
						<path class="st30" d="M129.7,231.8c0.1,2.7,12.2,7.8,15,6.9c2.8-0.9-1.2-31.1-1.2-31.1s1-15.7,0.6-18c-5.6,0.6-9.6,0-10.4-2.7
							c0,0-2,3.4-2.3,5.8c-0.3,2.4,0.5,13.2,0.3,14.3C130,211.3,129.7,230.8,129.7,231.8z"/>
						<path class="st30" d="M133.8,189.1C133.8,189.1,133.7,189.1,133.8,189.1c-0.3,0-0.4-0.2-0.3-0.4c0.7-3.5,4.5-8.2,6.4-8.6
							c0.2,0,0.4,0.1,0.4,0.3c0,0.2-0.1,0.4-0.3,0.4c-1.5,0.3-5.2,4.7-5.9,8.1C134.1,189,133.9,189.1,133.8,189.1z M143,191.4
							c0.8-2.2,3.1-9-0.6-10.9c-0.2-0.1-0.4,0-0.5,0.2c-0.1,0.2,0,0.4,0.2,0.5c2.1,1.1,2.2,4.5,0.3,10c-0.1,0.2,0,0.4,0.2,0.4
							c0,0,0.1,0,0.1,0C142.8,191.6,143,191.5,143,191.4z"/>
						<path class="st117" d="M138,176.8h-0.4c0-0.1,0-0.2,0-0.2l-0.7,0c0,0.8,0.1,1.5,0.1,2.2c0,0.1-0.1,0.3-0.1,0.5
							c0,0,0,0.1,0,0.1h-0.3c0,0,0,0.2,0,0.5c0,0.1,0,0.2,0,0.4c-0.1,0.2-0.1,0.4-0.2,0.6c-0.1-0.2-0.1-0.4-0.1-0.5
							c0-0.3,0-0.4,0-0.4l-0.1,0c0-0.1,0-0.3,0-0.4c0-0.2,0-0.4,0-0.5c0-0.2,0-0.3,0-0.5c0-1.3,0.1-2.1,0.1-2.1h-0.7
							c0,0,0,0.8,0,2.1c0,0.2,0,0.3,0,0.5c0,0.2,0,0.3,0,0.5c0,0.1,0,0.3,0,0.4l-0.8,0c0,0,0,0.1,0,0.2c0,0.1,0,0.3,0.1,0.5
							c0.1,0.3,0.2,0.7,0.4,1.1c-0.2,0.2-0.3,0.4-0.5,0.6c0-0.2,0-0.4,0-0.7c0-0.4-0.1-0.9-0.2-1.4c0-0.9,0-1.9-0.1-2.6
							c0.1-0.4,0.2-0.7,0.3-1.1c0.1-0.3,0.1-0.6,0.1-0.9c0-0.1,0-0.2,0.1-0.3c0-0.2,0.1-0.5,0.1-0.7c0-0.2,0-0.3,0-0.5
							c0,0,0-0.1,0-0.1c0.1-0.2,0.3-0.4,0.4-0.6c0.4-0.5,0.7-0.9,1-1.1c0.1-0.1,0.2-0.2,0.3-0.2c0.1,0,0.1-0.1,0.1-0.1l-0.2-0.5
							c0,0-0.1,0-0.1,0.1c-0.1,0.1-0.2,0.2-0.4,0.3c-0.3,0.3-0.7,0.7-1,1.2c0,0-0.1,0.1-0.1,0.2c0-0.1,0.1-0.2,0.1-0.3
							c0.1-0.3,0.1-0.4,0.2-0.5c0.3-0.4,0.6-0.6,0.9-0.8c0.1-0.1,0.2-0.1,0.3-0.2c0.1,0,0.1-0.1,0.1-0.1l-0.2-0.5c0,0,0,0-0.1,0.1
							c-0.1,0.1-0.2,0.1-0.3,0.2c-0.3,0.2-0.7,0.5-1,1l-0.1,0c0,0,0,0.1,0,0.2c-0.3,0.5-0.6,1-0.7,1.7c-0.1,0.5-0.2,1.1-0.3,1.7l0,0
							c0,0,0,0,0,0.1c0,0,0,0,0,0c-0.2,0.5-0.3,0.9-0.4,1.4c-0.2,0.8-0.2,1.7-0.2,2.5c0,0.5,0.1,0.9,0.3,1.3c0,0.4,0,0.7,0,1
							c0,0.5,0.1,0.9,0.2,1.2c0,0.1,0.1,0.2,0.1,0.3c0,0,0,0,0,0.1c0,0.1-0.1,0.2-0.1,0.2c-0.2,0.4-0.4,0.8-0.4,1.3c0,0,0,0,0,0
							c0,0,0,0,0,0s0,0,0,0c0,0.1,0,0.2,0,0.3c0,0.1,0,0.2,0,0.4c0,0.1,0,0.2,0,0.3c0,0,0,0.1,0,0.1c0,0.7,0.4,1.3,0.8,1.7
							c0.1,0.1,0.2,0.2,0.3,0.3c0.1,0.1,0.2,0.2,0.3,0.3c0,0,0,0,0.1,0c0,0.2,0,0.4,0.1,0.6c0.1,0.3,0.2,0.5,0.4,0.7
							c0,0.1,0.1,0.2,0.1,0.3c0.1,0.2,0.1,0.3,0.2,0.5c0,0.3-0.1,0.5-0.3,0.7c-0.1,0.2-0.3,0.3-0.5,0.3c-0.1,0-0.2,0-0.2,0
							c-0.1,0-0.1,0-0.2,0c-0.1,0-0.1,0-0.1,0s0.1,0,0.1,0c0,0,0.1,0,0.2,0c0.1,0,0.2,0,0.2,0c0.2,0,0.4-0.1,0.6-0.3
							c0.1-0.1,0.2-0.2,0.2-0.4c0,0.2,0.1,0.3,0.1,0.5c0,0.2,0,0.3,0,0.4c0,0.1,0,0.1,0,0.1s0,0,0-0.1c0-0.1,0.1-0.2,0.1-0.4
							c0-0.2,0-0.4,0-0.7c0-0.1,0-0.1,0-0.2c0-0.2,0.1-0.4,0.1-0.7c0.2,0.3,0.3,0.6,0.4,0.8c0,0.1,0.1,0.2,0.1,0.3
							c0,0.1-0.1,0.2-0.1,0.3c-0.2,0.6-0.5,1-0.7,1.3c-0.2,0.3-0.3,0.5-0.3,0.5s0.1-0.2,0.4-0.4c0.1-0.2,0.3-0.4,0.5-0.6
							c0.1-0.1,0.2-0.2,0.2-0.4c0-0.1,0.1-0.1,0.1-0.2c0.3-0.6,0.4-1.3,0.2-2.1c0,0,0,0,0,0c0.1,0,0.1,0,0.1,0c0,0,0,0-0.1,0
							c-0.2-0.7-0.5-1.4-0.7-2.1c0.2-0.3,0.4-0.7,0.6-1c0.4-0.7,0.8-1.5,0.8-2.3c0-0.2,0-0.4,0-0.5c0.2-0.3,0.4-0.6,0.5-0.9
							c0-0.1,0-0.3,0-0.4c0-0.1,0-0.1,0-0.1c0.2-0.3,0.3-0.5,0.3-0.8c0-0.2,0-0.3,0-0.4c0-0.1,0-0.1,0-0.1l-0.3,0c0,0,0,0,0,0
							c0.1-0.4,0.1-0.9,0.1-1.3c0-0.1,0-0.1,0-0.2c0.2-0.5,0.2-1,0.3-1.4C138,177.1,138,176.8,138,176.8z M135.5,188.3
							C135.5,188.3,135.5,188.4,135.5,188.3C135.6,188.4,135.5,188.4,135.5,188.3C135.5,188.4,135.5,188.4,135.5,188.3
							C135.5,188.3,135.4,188.3,135.5,188.3C135.4,188.3,135.5,188.3,135.5,188.3L135.5,188.3z M134.4,187.9c0-0.1-0.1-0.1-0.1-0.2
							c-0.1-0.1-0.1-0.2-0.2-0.4c0,0,0,0,0.1,0.1c0.2,0.2,0.4,0.4,0.5,0.5c0,0,0,0.1,0,0.1C134.6,188.1,134.5,188,134.4,187.9z
							 M134.1,176.9c0,0,0,0.1,0,0.1c0,0.1,0,0.2,0,0.2c0,0,0,0,0,0c0,0,0,0.1,0,0.1c0,0.1,0,0.1,0,0.2
							C134.1,177.4,134.1,177.2,134.1,176.9z M134.4,185.3c-0.1,0.4-0.1,0.9-0.1,1.3c-0.1-0.2-0.2-0.3-0.2-0.5c0-0.1,0-0.1,0-0.2
							C134.1,185.7,134.2,185.5,134.4,185.3z M134.2,184.8c0,0,0-0.1,0.1-0.1C134.3,184.7,134.3,184.8,134.2,184.8
							C134.3,184.8,134.3,184.9,134.2,184.8c0,0.1-0.1,0.2-0.1,0.3C134.1,185,134.2,184.9,134.2,184.8z M134.7,187.2
							c-0.1-0.3-0.1-0.7-0.1-1.1l0.1,0.3c0,0.1,0.1,0.2,0.1,0.3C134.8,186.9,134.8,187.1,134.7,187.2
							C134.7,187.3,134.7,187.2,134.7,187.2z M134.9,187.4c0-0.2,0.1-0.3,0.1-0.5c0,0.1,0,0.1,0,0.2
							C135,187.3,135,187.4,134.9,187.4C134.9,187.5,134.9,187.5,134.9,187.4z M134.7,182.4c0-0.2-0.1-0.4-0.1-0.6
							c0-0.3,0.1-0.5,0.1-0.8c0,0.1,0,0.3,0.1,0.4c0,0.3,0.1,0.6,0.1,0.9C134.7,182.3,134.7,182.3,134.7,182.4z M134.3,180.3
							c0.1,0.3,0.1,0.6,0.2,0.9c0,0,0,0.1,0,0.1c-0.1-0.3-0.2-0.7-0.2-1.1C134.2,180.2,134.2,180.2,134.3,180.3z M134.4,180.4
							c0,0.2,0,0.4,0,0.6c0-0.2-0.1-0.4-0.1-0.7c0-0.2-0.1-0.4-0.1-0.7c0-0.2,0-0.4,0.1-0.6c0,0,0,0,0,0c0,0.2,0.1,0.4,0.1,0.6
							C134.4,179.8,134.4,180.1,134.4,180.4z M134.4,174.6C134.4,174.6,134.4,174.6,134.4,174.6c0,0,0-0.1,0-0.3
							C134.4,174.4,134.4,174.5,134.4,174.6z M134.1,179.2c0,0.2,0,0.5,0,0.7c0,0.3,0,0.6,0.1,0.9c0.1,0.3,0.1,0.5,0.2,0.7
							c0,0,0,0,0,0c0,0.2,0,0.4-0.1,0.6c0,0.1,0,0.1,0,0.2c-0.1-0.2-0.2-0.4-0.3-0.6c-0.1-0.2-0.2-0.5-0.3-0.7
							c0.1-0.6,0.2-1.2,0.4-1.9C134.1,179.1,134.1,179.2,134.1,179.2z M134.5,182.2c0-0.1,0-0.1,0-0.2c0,0.2,0.1,0.3,0.1,0.4
							c-0.1,0.1-0.1,0.1-0.2,0.2c0,0,0-0.1-0.1-0.1C134.4,182.4,134.5,182.3,134.5,182.2z M134.4,182.6
							C134.4,182.6,134.4,182.7,134.4,182.6c-0.1,0.1-0.1,0.1-0.1,0.1C134.4,182.7,134.4,182.6,134.4,182.6
							C134.4,182.6,134.4,182.6,134.4,182.6z M134.8,188.1C134.8,188.1,134.8,188.2,134.8,188.1
							C134.8,188.2,134.8,188.2,134.8,188.1C134.8,188.2,134.8,188.1,134.8,188.1z M134.9,188.2
							C134.9,188.3,134.9,188.3,134.9,188.2C134.9,188.3,134.9,188.3,134.9,188.2C134.8,188.3,134.8,188.3,134.9,188.2
							C134.8,188.2,134.8,188.2,134.9,188.2C134.8,188.2,134.8,188.2,134.9,188.2z M135.4,188.2c0,0,0-0.1-0.1-0.1c0,0,0,0,0-0.1
							c0,0,0,0,0-0.1C135.4,188.1,135.4,188.2,135.4,188.2C135.4,188.2,135.4,188.2,135.4,188.2z M135.2,185.1c0-0.2,0-0.4,0-0.6
							c0,0,0,0,0,0c0.1-0.1,0.2-0.2,0.3-0.2C135.5,184.5,135.3,184.8,135.2,185.1z M133.5,179.6c0-0.8,0.1-1.6,0.3-2.4
							c0-0.2,0.1-0.3,0.2-0.5c0,0.6,0,1.1,0.1,1.6c0,0,0,0,0,0.1c-0.2,0.7-0.3,1.5-0.4,2.2C133.5,180.2,133.5,179.9,133.5,179.6z
							 M133.9,183.4c0-0.1-0.1-0.2-0.1-0.3c-0.1-0.3-0.1-0.7-0.1-1.2c0-0.2,0-0.5,0-0.7c0.1,0.2,0.1,0.4,0.2,0.5
							c0.1,0.3,0.3,0.5,0.4,0.7c0,0.2-0.1,0.4-0.1,0.6C134,183.2,134,183.3,133.9,183.4C133.9,183.4,133.9,183.4,133.9,183.4z
							 M133.5,186.6c0.1,0.2,0.2,0.3,0.3,0.4c0.1,0.2,0.1,0.3,0.2,0.5C133.8,187.3,133.6,187,133.5,186.6z M134.7,188.2
							C134.7,188.2,134.6,188.2,134.7,188.2C134.6,188.2,134.7,188.2,134.7,188.2C134.7,188.2,134.7,188.2,134.7,188.2
							C134.7,188.2,134.7,188.2,134.7,188.2z M134.8,188.8c0-0.2,0-0.3,0-0.5c0,0,0.1,0,0.1,0.1c0,0.2,0,0.3,0.1,0.5
							c0.1,0.2,0.1,0.4,0.2,0.6C134.9,189.3,134.8,189.1,134.8,188.8z M135.9,191.7c0-0.1,0.1-0.1,0.1-0.2
							C136,191.6,135.9,191.6,135.9,191.7z M136.2,190.5c-0.1-0.3-0.2-0.7-0.4-1.1c0,0,0-0.1,0-0.1c0,0,0-0.1,0-0.1
							c0-0.3-0.1-0.5-0.2-0.8c0,0,0,0,0,0c0,0,0,0,0.1,0c0.1,0.1,0.2,0.2,0.3,0.3c0,0.1,0.1,0.2,0.1,0.3
							C136.2,189.5,136.2,190.1,136.2,190.5z M135.9,188.7c-0.1-0.1-0.2-0.1-0.2-0.2h0h0c0,0,0,0,0-0.1c0,0,0,0,0,0
							c0.1,0,0.1,0,0.1,0s0,0-0.1,0c0,0,0,0,0,0c0,0,0,0-0.1-0.1c-0.1-0.1-0.1-0.3-0.2-0.5c0-0.1,0-0.1,0-0.2
							C135.6,188,135.7,188.3,135.9,188.7z M135.7,185.5c-0.1,0.2-0.2,0.4-0.2,0.5l-0.1-0.2l0-0.2c0.2-0.6,0.5-1.1,0.8-1.7
							c0,0,0,0,0,0c0,0,0,0,0,0c0,0.2-0.1,0.4-0.1,0.6C135.9,184.8,135.8,185.2,135.7,185.5z"/>
						<g>
							<path class="st24" d="M139.7,168.8c-4.3,0-5.6,3.5-5.9,5.6c-0.3,2.1,0.3,2.8,0.5,3.9c-0.1,3.6,2.2,4.6,3,5.1
								c0.7,0.5,1.2,0.5,1.7,0.3c0.6-0.2,3.7-1.5,4.1-2.5c0.5-1.2,3.1-3.3,3.2-6.6C146.4,170.9,144,168.8,139.7,168.8z"/>
							<path class="st117" d="M142.3,167.7c-4.1-1-7.5,2.4-7.8,4.5c4.7-3.6,9.6,1.7,9,5.1c0.2,1.1,0.6,2.8,0.3,3.5
								c0.9-2,2.5-3.3,3-5.7C147.4,171.8,145.6,168.7,142.3,167.7z"/>
							<path class="st24" d="M143.1,177.9c0,0,0.9-1.5,1.4-0.5c0.6,1,0.3,2.2,0,2.8c-0.3,0.6-1.4-0.2-1.4-0.2V177.9z"/>
						</g>
						<path class="st117" d="M146.1,177c-0.1-0.1-0.2-0.2-0.3-0.3C145.8,176.9,145.9,176.9,146.1,177c0.1,0.1,0.2,0.2,0.1,0.3
							c0,0.1-0.1,0.2-0.2,0.3c-0.1,0-0.2,0-0.3,0c0-0.2-0.1-0.4-0.1-0.5c0-0.1,0-0.2,0-0.3c0-0.1,0-0.1,0-0.1s0,0,0,0.1
							c0,0.1,0,0.2,0,0.3c0,0.1,0,0.3,0.1,0.5c0,0,0,0,0,0l0,0c0,0,0,0-0.1,0c0,0,0-0.1,0-0.1c0-0.2,0-0.3,0-0.3s0,0.1,0,0.3
							c0,0,0,0.1,0,0.1c-0.1,0-0.1-0.1-0.2-0.1c-0.1-0.4-0.2-0.8-0.4-1.2c0-0.1,0-0.1,0-0.2c0-0.1,0-0.3,0-0.4c0-0.2,0-0.4,0-0.6
							c0.2-0.7,0.1-1.8,0-2.2c0-0.1,0-0.1,0-0.2c0,0,0,0,0,0c0-0.5-0.1-0.9-0.2-1.1c0-0.3-0.1-0.4-0.1-0.4l-0.3,0
							c-1-1.7-3.2-2.6-5.3-2.6c-0.2,0-0.5,0-0.9,0.1l0,0c0,0,0,0-0.1,0.1c-0.6,0.1-1.3,0.4-1.8,0.9l0,0c0,0-0.1,0.2-0.3,0.5
							c-0.1,0.1-0.2,0.3-0.3,0.5c-0.1,0.1-0.2,0.2-0.2,0.4l0,0c0,0-0.1,0.1-0.2,0.2c-0.1,0-0.2,0.1-0.2,0.2c0,0-0.1,0.1-0.1,0.1
							c0,0.1-0.1,0.1-0.1,0.2c-0.4,0.5-0.6,1.2-0.7,1.9c-0.1,0.4-0.1,0.8-0.1,1.2c0,0.2,0,0.3,0,0.3s0-0.1,0-0.2c0,0.1,0,0.2,0,0.4
							c-0.1,0.4-0.1,0.8-0.2,1.1c0,0.2,0,0.4,0,0.5c0,0.1,0,0.2,0,0.2s0-0.1,0-0.2c0-0.1,0-0.3,0.1-0.5c0-0.1,0-0.2,0.1-0.3
							c0,0.1,0,0.1,0,0.2c0,0.5-0.1,1.1-0.1,1.6c0,0.8,0.1,1.5,0.2,2.1c0.1,0.3,0.1,0.6,0.2,0.8c0.1,0.2,0.1,0.4,0.2,0.6
							c0.1,0.3,0.2,0.5,0.2,0.5s-0.1-0.2-0.2-0.5c-0.1-0.2-0.1-0.4-0.2-0.6c-0.1-0.2-0.1-0.5-0.2-0.8c-0.1-0.6-0.1-1.3-0.1-2
							c0-0.8,0.1-1.5,0.2-2.3c0,0,0,0,0-0.1c0,0.1,0,0.2,0,0.3c0,0.3-0.1,0.5-0.1,0.5s0.1-0.2,0.1-0.4c0.1-0.2,0.1-0.4,0.2-0.7
							c0,0,0,0.1,0,0.1c0,0.4,0,0.7,0,0.7s0-0.3,0.1-0.6c0-0.3,0.1-0.6,0.2-0.9c-0.1,0.3-0.1,0.5-0.1,0.5s0.1-0.1,0.1-0.4
							c0,0.2,0,0.3,0,0.5c0,0,0,0,0,0c-0.1,0.3-0.2,0.5-0.2,0.5s0.1-0.1,0.2-0.4c0,0.3,0,0.5,0,0.5s0-0.3,0.1-0.7c0,0,0,0,0,0
							c0,0.2,0,0.3,0,0.3s0-0.1,0-0.2c0,0,0-0.1,0-0.2c0.1-0.1,0.1-0.2,0.2-0.3c0,0,0,0,0,0.1c0,0.2,0,0.3,0,0.4l-0.1,0.3l0.1-0.2
							c0,0.1,0,0.2,0,0.2s0-0.1,0-0.2c0,0,0,0,0,0l0.1-0.1c0,0.1,0,0.2,0,0.2c0,0,0,0,0,0c0,0.1-0.1,0.2-0.1,0.2s0,0,0-0.1
							c0,0.2,0,0.3,0,0.3s0-0.1,0.1-0.4c0,0,0-0.1,0-0.1c0,0,0,0,0,0c0,0.1,0,0.1,0,0.1s0-0.1,0-0.1c0,0,0-0.1,0.1-0.1
							c0,0.1,0,0.1,0,0.1s0-0.1,0-0.2c0-0.1,0.1-0.2,0.1-0.3c0,0.2,0,0.3,0,0.3s0-0.1,0-0.2c0,0,0-0.1,0-0.1l0,0.5
							c0,0,0,0.1-0.1,0.1c-0.1,0.2-0.1,0.3-0.1,0.4c0,0.1,0,0.2,0,0.2s0-0.1,0.1-0.2c0-0.1,0.1-0.2,0.2-0.4l0,0.3l0-0.2l0.1-0.4
							c0,0,0.1-0.1,0.1-0.1c0,0,0,0,0,0c0,0.1,0,0.1-0.1,0.2c-0.1,0.4-0.2,0.6-0.2,0.6s0.1-0.2,0.2-0.6c0,0,0,0,0,0
							c0,0.1,0,0.1,0,0.1s0,0,0-0.1c0,0,0,0,0,0c0,0,0,0,0,0c0-0.1,0.1-0.1,0.1-0.2c0,0,0-0.1,0-0.1c0,0.1,0,0.1,0.1,0.1
							c0,0,0,0.1,0,0.1l-0.2,0.6l0.1-0.2c0,0,0,0,0,0s0,0,0,0l0.2-0.4c0,0,0,0,0,0c0,0,0,0.1,0,0.1c-0.2,0.6-0.3,1-0.3,1
							s0.2-0.5,0.5-1.1c0,0.2,0,0.3,0,0.3s0-0.2,0.1-0.4c0,0,0-0.1,0-0.1c0,0,0,0,0,0c0,0,0,0,0,0c0,0,0,0.1,0,0.1
							c0,0.1-0.1,0.2-0.1,0.2s0-0.1,0.1-0.1c0,0,0,0,0,0c0,0,0,0,0,0c0,0,0,0,0,0c-0.1,0.2,0,0.4-0.1,0.5c0,0.1,0,0.2,0,0.2
							s0-0.1,0-0.2c0-0.1,0-0.1,0-0.2c0,0.1,0,0.2,0,0.2c0,0,0,0.1,0,0.1c-0.1,0.2-0.1,0.3-0.1,0.3s0.1-0.1,0.1-0.2c0,0,0,0.1,0,0.1
							s0,0,0-0.1c0,0,0-0.1,0-0.1c0,0,0,0.1,0,0.1c0,0.1-0.1,0.2-0.1,0.2c0,0.1-0.1,0.1-0.1,0.1s0,0,0.1-0.1c0,0,0,0,0,0
							c0,0,0,0,0,0s0,0,0-0.1c0,0,0,0,0,0c0,0.1,0,0.1,0,0.1s0,0,0.1-0.1c0,0,0,0.1,0,0.1c0,0.1,0,0.2,0,0.2s0-0.1,0-0.2
							c0,0,0-0.1,0-0.2c0-0.1,0.1-0.1,0.1-0.2c0.1-0.1,0.1-0.3,0.2-0.4c0,0.1,0,0.2,0,0.2c-0.1,0.3-0.1,0.5-0.1,0.5s0.1-0.2,0.2-0.4
							c0-0.1,0-0.1,0.1-0.2c0,0,0,0,0,0c-0.1,0.4-0.2,0.7-0.2,0.7s0.1-0.2,0.2-0.4c0,0.2,0,0.3,0,0.3s0-0.2,0.1-0.5c0,0,0,0,0,0
							c0,0.3,0,0.6,0,0.6s0-0.2,0.1-0.6c0-0.1,0-0.2,0.1-0.3c0-0.1,0-0.1,0.1-0.2c-0.1,0.3-0.1,0.6-0.1,0.6s0.1-0.2,0.2-0.4
							l-0.3,1.2l0.4-1.3l0,0.4l-0.2,0.5l0.2-0.3l0,0.2c0,0,0,0.1,0,0.1c0,0.1,0,0.2,0,0.2s0-0.1,0.1-0.2c0,0,0,0,0,0l0,0.4l0-0.4
							c0,0.1,0,0.2,0,0.2c0,0.1,0,0.2,0,0.2s0-0.1,0-0.2c0-0.1,0-0.3,0-0.4c0,0,0-0.1,0-0.1c0,0,0,0,0-0.1c0,0.1,0,0.1,0,0.1
							s0-0.1,0-0.1c0,0.1,0,0.2,0,0.3c0,0.1,0,0.1,0,0.1s0,0,0-0.1c0,0,0-0.1,0-0.1c0,0.1,0,0.2,0,0.3c0,0.1,0,0.2,0,0.2
							s0-0.1,0-0.2c0-0.1,0-0.3,0-0.4c0,0,0-0.1,0-0.1c0-0.1,0-0.1,0.1-0.2c0,0.1,0,0.1,0,0.1s0-0.1,0-0.2c0-0.1,0.1-0.2,0.2-0.3
							c0,0,0,0.1,0,0.1c-0.1,0.3-0.1,0.6-0.2,0.8c0,0.1,0,0.1,0,0.2c0,0.1,0,0.1,0,0.1s0,0,0-0.1c0,0.1,0,0.2,0,0.2
							c0,0.1,0,0.2,0,0.2s0-0.1,0-0.2c0-0.1,0-0.2,0.1-0.4c0-0.1,0.1-0.2,0.1-0.3c0,0.1,0,0.2,0,0.2c0,0.1,0,0.1,0,0.1s0-0.1,0-0.1
							c0-0.1,0-0.2,0-0.4c0,0,0-0.1,0-0.1c0,0,0,0,0,0c0,0,0,0,0,0s0,0,0,0c-0.1,0.4-0.1,0.7-0.1,0.7s0.1-0.4,0.2-0.9
							c0,0,0,0.1,0,0.1c0,0.1-0.1,0.2-0.1,0.2s0,0,0.1-0.1c0,0.1,0,0.1,0,0.2c0,0.2,0,0.3,0,0.3c-0.2,0.6-0.4,1-0.4,1s0.2-0.4,0.5-1
							c0,0.1,0,0.1,0,0.1s0-0.1,0-0.2c0,0,0,0,0-0.1c0,0,0,0.1,0,0.1c-0.1,0.3-0.2,0.5-0.2,0.5s0.1-0.2,0.2-0.4c0,0,0,0,0,0s0,0,0,0
							c0.1-0.1,0.1-0.2,0.2-0.3c0,0.1,0,0.2,0,0.3c0,0.1,0,0.2,0,0.3c0,0,0,0,0,0c0,0-0.1,0.1-0.1,0.1s0,0,0.1,0
							c-0.1,0.3-0.1,0.4-0.1,0.4s0.1-0.1,0.2-0.4c0,0,0,0.1,0,0.1s0,0,0-0.1c0-0.1,0.1-0.1,0.1-0.2c0,0,0.1-0.1,0.1-0.1c0,0,0,0,0,0
							c-0.1,0.2-0.1,0.3-0.1,0.3s0.1-0.2,0.2-0.4c0.1-0.1,0.1-0.1,0.2-0.2c-0.1,0.3-0.2,0.5-0.3,0.7c-0.1,0.1-0.2,0.2-0.2,0.3
							c-0.1,0.1-0.1,0.1-0.1,0.1s0,0,0.1-0.1c0.1-0.1,0.2-0.2,0.2-0.3c0.1-0.1,0.2-0.3,0.3-0.5l-0.1,0.2l0.2-0.3c0,0,0,0.1,0,0.1
							c0,0.2-0.1,0.3-0.1,0.4c0,0.1,0,0.2,0,0.2s0-0.1,0.1-0.1c0-0.1,0.1-0.2,0.2-0.4c0.1-0.1,0.1-0.3,0.2-0.5l0.1-0.1v0
							c0,0.2-0.1,0.3-0.1,0.4c0,0.1-0.1,0.2-0.1,0.2s0-0.1,0.1-0.1c0,0,0-0.1,0.1-0.1v0.1l0-0.1c0-0.1,0.1-0.2,0.1-0.3
							c0,0.1,0,0.2,0,0.3c-0.1,0.4-0.2,0.7-0.2,0.7s0.1-0.1,0.2-0.3c0,0.4-0.1,0.8-0.1,0.8s0.1-0.5,0.2-1c0,0,0,0.1,0,0.1
							c0,0.3-0.1,0.6-0.1,0.6s0-0.1,0.1-0.3c0,0.1,0,0.2,0,0.2c0,0,0,0,0,0c0,0.1-0.1,0.1-0.1,0.1s0,0,0.1-0.1c0,0.1,0,0.2,0,0.2
							s0-0.1,0-0.2c0.1-0.1,0.1-0.1,0.2-0.3c0,0.2,0,0.3,0,0.3s0.1-0.2,0.2-0.5c0-0.1,0.1-0.1,0.1-0.2c0,0.4-0.1,0.8-0.1,0.8
							s0.1-0.5,0.3-0.9c0,0,0,0,0,0l0,0.4c0,0.5-0.1,0.9-0.1,0.9s0-0.1,0.1-0.2c0,0.1,0,0.2,0,0.2s0.1-0.2,0.1-0.4
							c0-0.1,0.1-0.2,0.1-0.3c0,0,0,0,0,0c0-0.1,0.1-0.2,0.1-0.3c0,0.4-0.1,0.7-0.2,1c0,0.2-0.1,0.3-0.2,0.4
							c-0.1,0.1-0.1,0.2-0.1,0.2s0-0.1,0.1-0.1c0.1-0.1,0.2-0.2,0.2-0.4c0.1-0.2,0.2-0.6,0.3-0.9c0,0.1,0,0.2,0,0.3
							c0,0.1,0,0.2,0,0.3c0,0,0,0.1,0,0.1c0,0,0,0,0,0.1c0,0,0,0,0,0c-0.2,0.3-0.4,0.5-0.4,0.5s0.1-0.2,0.4-0.4
							c0,0.1-0.1,0.2-0.1,0.2s0-0.1,0.1-0.2c0,0,0,0,0,0c0,0.3-0.1,0.5-0.1,0.5s0.1-0.2,0.2-0.5c0,0,0,0.1,0,0.1c0,0.1,0,0.1,0,0.1
							s0,0,0-0.1c0-0.1,0-0.1,0-0.2c0,0,0-0.1,0-0.1c0.1-0.1,0.2-0.2,0.2-0.3c-0.1,0.5-0.1,1-0.1,1s0.1-0.4,0.3-0.9l-0.1,0.9
							c0,0,0,0,0-0.1c0,0,0,0,0,0.1c0,0,0,0.1,0.1,0.1h0l0,0l0.3-1.3c0,0,0,0,0,0c0,0.3,0,0.6-0.1,0.9c0,0.3,0,0.5,0,0.5
							s0-0.2,0.1-0.5c0-0.2,0.1-0.3,0.1-0.5l-0.2,0.9l0.2-0.7c0,0.1,0,0.2,0,0.4c0,0,0,0,0,0.1c-0.1,0.1-0.1,0.2-0.1,0.2
							s0-0.1,0.1-0.2c0,0.2,0,0.4,0,0.4s0-0.1,0.1-0.3c0,0.1,0,0.2,0,0.3c0,0.1,0,0.1,0,0.1s0,0,0-0.1c0,0,0,0.1,0,0.1
							c0,0.2,0,0.4,0,0.4s0-0.2,0.1-0.4c0-0.1,0-0.1,0-0.2c0.1-0.1,0.1-0.2,0.2-0.3c0.1-0.1,0.1-0.2,0.2-0.4c0,0.1,0,0.2,0,0.2
							c-0.1,0.3-0.2,0.5-0.2,0.5s0.1-0.2,0.3-0.5c0,0.2,0,0.3-0.1,0.4c-0.1,0.4-0.2,0.7-0.2,0.7s0.2-0.3,0.3-0.7
							c0-0.1,0.1-0.2,0.1-0.3c0,0,0,0,0,0c0,0.1,0,0.1,0,0.1s0,0,0-0.1c0,0,0,0,0,0c0,0.2,0,0.4-0.1,0.5c0,0.1,0,0.3-0.1,0.3
							c0,0.1,0,0.1,0,0.1s0,0,0-0.1c0-0.1,0.1-0.2,0.1-0.3c0,0,0-0.1,0-0.1c0,0,0,0,0,0.1c0,0.1,0,0.1,0,0.1c0,0,0,0,0,0
							c-0.1,0.3-0.2,0.5-0.2,0.5s0.1-0.1,0.2-0.3c0,0.1,0,0.2,0,0.3c0,0.2,0,0.4,0,0.5c0,0,0,0.1,0,0.1c0,0,0,0.1-0.1,0.1
							c-0.1,0.4-0.2,0.6-0.2,0.6s0.1-0.2,0.3-0.6c0.1-0.2,0.2-0.5,0.4-0.8c0,0,0,0.1,0,0.1c0,0.7,0,1.3,0.2,1.9
							c0.1,0.2,0.1,0.3,0.2,0.5c0,0,0,0.1-0.1,0.1c-0.1,0.2-0.2,0.5-0.3,0.8c-0.2,0.5-0.2,1.1-0.3,1.6c0,0.5,0,1-0.1,1.5
							c-0.1,0.5-0.3,0.9-0.5,1.2c-0.5,0.7-1,1.2-1.5,1.2c-0.1,0-0.2,0-0.3,0c-0.1,0-0.2,0-0.2-0.1c-0.1-0.1-0.2-0.1-0.2-0.1
							s0.1,0,0.2,0.1c0.1,0,0.1,0.1,0.2,0.1c0.1,0,0.2,0,0.3,0c0.5-0.1,1.1-0.5,1.6-1.2c0.2-0.3,0.5-0.8,0.5-1.2
							c0.1-0.5,0.1-1,0.1-1.5c0-0.5,0.1-1,0.3-1.5c0.1-0.2,0.2-0.4,0.3-0.6c0,0,0,0,0,0c0,0,0,0,0,0c0,0,0,0.1,0,0.1
							c0,0.1,0,0.1,0,0.2c-0.1,0.2-0.2,0.3-0.2,0.3s0.1-0.1,0.2-0.3c0,0.1,0,0.2-0.1,0.4c0,0.2-0.1,0.3-0.1,0.4
							c-0.1,0.2-0.1,0.4-0.1,0.4s0-0.1,0.1-0.4c0,0,0,0,0-0.1c-0.1,0.4-0.1,0.7-0.2,1.1c-0.1,0.5-0.1,0.9-0.1,1.2c0,0.3,0,0.5,0,0.5
							s0-0.2,0-0.5c0-0.3,0.1-0.7,0.1-1.2c0.1-0.5,0.2-1.1,0.4-1.8c0,0.1,0.1,0.2,0.1,0.3c-0.2,0.7-0.5,1.5-0.6,2.2
							c0.1-0.7,0.4-1.4,0.6-2.1c0,0.2,0.1,0.4,0.1,0.6c0,0.4-0.1,0.8-0.2,1.1c-0.1,0.3-0.3,0.7-0.4,1c-0.1,0.3-0.2,0.6-0.2,0.9
							c-0.1,0.6-0.1,1.1,0,1.4c0,0.2,0.1,0.3,0.1,0.4c0,0.1,0,0.1,0,0.1s0,0,0-0.1c0-0.1,0-0.2-0.1-0.4c0-0.3,0-0.8,0.1-1.4
							c0.1-0.3,0.2-0.6,0.3-0.9c0.1-0.3,0.3-0.6,0.4-0.9c0.3-0.7,0.4-1.4,0.4-2.2c0-0.5-0.1-1-0.1-1.4c0-0.1,0-0.1,0-0.2
							c0,0,0-0.1,0.1-0.1c0,0.1,0,0.2,0,0.3c0,0.8,0.1,1.7,0,2.5c0,0.2,0,0.4-0.1,0.6c0,0.2,0,0.4-0.1,0.5c-0.1,0.3-0.2,0.7-0.3,1
							c-0.2,0.6-0.3,1.1-0.2,1.5c0.1,0.4,0.3,0.5,0.3,0.5c0,0-0.2-0.1-0.2-0.5c-0.1-0.4,0.1-0.9,0.3-1.5c0.1-0.3,0.2-0.6,0.3-1
							c0.1-0.2,0.1-0.4,0.1-0.5c0-0.2,0.1-0.4,0.1-0.6c0.1-0.8,0.1-1.6,0.1-2.5c0,0,0-0.1,0-0.1c0,0,0.1,0.1,0.1,0.1
							c0,0,0.1,0,0.1,0c0.1,0.3,0.1,0.5,0,0.7c-0.1,0.2-0.2,0.2-0.2,0.2c0,0,0.2,0,0.2-0.2c0.1-0.2,0.1-0.4,0-0.7
							c0.1,0,0.1,0,0.2-0.1c0.1-0.1,0.1-0.2,0.1-0.3c0-0.1,0-0.1,0-0.2c0,0,0.1,0,0.1,0c0,0,0.1,0,0.1,0c0,0,0,0.1,0,0.1
							c0,0.1-0.1,0.2-0.1,0.2c0,0.1,0,0.1,0,0.1s0,0,0-0.1c0-0.1,0.1-0.1,0.1-0.2c0,0,0,0,0-0.1c0,0,0,0,0,0c0,0,0.1,0,0.1,0
							c0,0,0,0,0,0c0,0,0.1,0,0.1,0s0,0-0.1,0c0,0,0,0,0,0c0,0,0.1-0.1,0.1-0.1c0-0.1,0.1-0.1,0.1-0.2c0-0.1,0.1-0.2,0.1-0.4
							c0-0.2,0-0.3,0-0.5c0.1,0,0.2,0,0.3,0c0.1-0.1,0.2-0.2,0.2-0.3C146.3,177.2,146.1,177.1,146.1,177z M135,174.3
							C135,174.3,135,174.3,135,174.3C135,174.3,135,174.3,135,174.3L135,174.3z M135.8,174.2l0-0.2c0,0,0,0,0,0L135.8,174.2
							C135.8,174.2,135.8,174.2,135.8,174.2z M137,174C137,174,137,174,137,174c0,0.2,0,0.3-0.1,0.5c0,0,0,0,0,0
							c0,0.1-0.1,0.1-0.1,0.2c0-0.1,0.1-0.3,0.1-0.4C136.9,174.2,137,174.1,137,174z M137.8,174c0,0.1,0,0.3,0,0.4l0,0.1l0-0.3
							C137.7,174.1,137.8,174,137.8,174L137.8,174z M136.7,174.4C136.7,174.4,136.7,174.4,136.7,174.4c0,0.1,0,0.1,0,0.1
							C136.6,174.5,136.7,174.4,136.7,174.4C136.7,174.4,136.7,174.4,136.7,174.4z M136.7,174.7c0,0,0,0.1,0,0.1
							C136.7,174.8,136.7,174.8,136.7,174.7C136.7,174.7,136.7,174.7,136.7,174.7z M139.2,174.7
							C139.2,174.7,139.2,174.7,139.2,174.7C139.2,174.7,139.2,174.7,139.2,174.7C139.2,174.7,139.2,174.7,139.2,174.7z
							 M139.2,174.6c0,0,0-0.1,0-0.1c0.1-0.1,0.1-0.2,0.2-0.4c0,0,0,0.1,0,0.1c0,0,0,0,0,0C139.3,174.4,139.2,174.5,139.2,174.6
							C139.2,174.7,139.2,174.6,139.2,174.6z M140.3,174.7c0-0.1,0-0.2,0-0.3c0,0,0,0,0,0c0,0.2,0,0.3,0,0.5c0,0.1-0.1,0.3-0.1,0.4
							C140.2,175.1,140.3,174.9,140.3,174.7z M141.4,175.6c0-0.1,0.1-0.2,0.1-0.3c0,0,0,0,0,0.1c0,0,0,0,0,0
							C141.5,175.5,141.4,175.5,141.4,175.6C141.4,175.6,141.4,175.6,141.4,175.6z M142.6,175.3c0,0.1,0,0.1,0,0.2l0,0
							C142.5,175.4,142.6,175.3,142.6,175.3z M143.8,176.7C143.8,176.7,143.8,176.7,143.8,176.7
							C143.8,176.8,143.8,176.8,143.8,176.7c0,0.2,0,0.2,0,0.3c0,0,0-0.1,0-0.2C143.7,176.8,143.7,176.7,143.8,176.7z M135.1,174.1
							L135.1,174.1c0-0.1,0-0.1,0-0.1C135.1,174,135.1,174,135.1,174.1C135.1,174.1,135.1,174.1,135.1,174.1z M135.2,174.5
							c0,0,0-0.1,0-0.1C135.2,174.4,135.2,174.4,135.2,174.5L135.2,174.5C135.2,174.5,135.2,174.5,135.2,174.5z M136.1,174.5
							c0-0.1,0.1-0.1,0.1-0.2c0,0,0,0,0,0c0,0.1,0,0.2,0,0.3C136.1,174.6,136.1,174.5,136.1,174.5z M136.3,174.7L136.3,174.7
							C136.3,174.7,136.3,174.7,136.3,174.7C136.3,174.8,136.3,174.7,136.3,174.7z M136.3,174.6l0.1-0.1
							C136.4,174.4,136.4,174.4,136.3,174.6c0,0,0,0.1,0,0.1C136.3,174.6,136.3,174.6,136.3,174.6z M136.6,174.5
							C136.6,174.4,136.6,174.4,136.6,174.5C136.6,174.5,136.6,174.5,136.6,174.5C136.6,174.5,136.6,174.5,136.6,174.5
							C136.6,174.5,136.6,174.5,136.6,174.5z M136.6,174.6C136.6,174.6,136.6,174.6,136.6,174.6
							C136.6,174.6,136.6,174.6,136.6,174.6C136.6,174.6,136.6,174.6,136.6,174.6C136.6,174.6,136.6,174.6,136.6,174.6
							C136.6,174.6,136.6,174.6,136.6,174.6z M136.6,175.1C136.6,175.1,136.6,175.1,136.6,175.1c0-0.1,0-0.2,0-0.4c0,0,0,0,0,0
							c0,0,0,0,0,0c0,0,0,0.1,0,0.1C136.7,175,136.7,175,136.6,175.1C136.7,175.1,136.7,175.1,136.6,175.1z M138.5,175
							c0-0.1,0-0.2,0.1-0.4c0-0.1,0.1-0.1,0.1-0.2l0,0c0,0,0,0,0,0.1c0,0,0,0,0,0c0,0,0,0.1-0.1,0.1c0,0.1-0.1,0.1-0.1,0.1
							s0,0,0.1-0.1c0,0,0,0,0,0c0,0.1,0,0.2-0.1,0.4c-0.1,0.1-0.1,0.3-0.1,0.4C138.5,175.3,138.5,175.1,138.5,175z M138.6,175.3
							C138.6,175.3,138.6,175.3,138.6,175.3c0-0.1,0-0.2,0-0.2c0,0,0-0.1,0.1-0.1l0,0.1l0-0.1c0,0,0-0.1,0.1-0.1c0,0,0-0.1,0-0.1
							c0,0,0,0.1,0,0.1C138.8,175,138.7,175.2,138.6,175.3z M138.8,175.5c0-0.1,0-0.3,0.1-0.5c0,0,0,0,0,0c0,0.2,0,0.3,0,0.3
							s0-0.1,0.1-0.3c0,0.1,0,0.1,0,0.1s0-0.1,0-0.1c0,0,0,0,0-0.1c0,0,0,0,0,0c0,0,0,0,0,0c0,0.2-0.1,0.4-0.1,0.5c0,0,0,0,0,0.1
							c0,0.1-0.1,0.2-0.1,0.3C138.8,175.6,138.8,175.5,138.8,175.5z M139,175.5C139,175.5,139,175.5,139,175.5
							c0-0.1,0.1-0.3,0.2-0.5l0,0c0,0.1-0.1,0.2-0.1,0.3C139.1,175.4,139,175.5,139,175.5z M140.1,175.7
							C140.1,175.7,140.1,175.7,140.1,175.7C140.1,175.7,140.1,175.6,140.1,175.7c0.1-0.2,0.1-0.3,0.2-0.5c0,0,0,0.1,0,0.1
							c0,0,0,0.1-0.1,0.1C140.2,175.6,140.1,175.6,140.1,175.7z M140.9,175.3C140.9,175.3,141,175.3,140.9,175.3c0,0,0,0.1,0,0.1
							C140.9,175.4,140.9,175.3,140.9,175.3z M141.9,175.2L141.9,175.2C141.9,175.2,141.9,175.2,141.9,175.2
							C141.9,175.2,141.9,175.2,141.9,175.2z M142.3,176.3c0,0.1,0,0.1-0.1,0.1c0-0.1,0.1-0.3,0.1-0.4c0-0.2,0.1-0.3,0.1-0.5l0,0.1
							C142.5,175.9,142.4,176.1,142.3,176.3z M142.7,175.7C142.7,175.7,142.7,175.7,142.7,175.7c0,0,0-0.1,0-0.1c0,0,0,0,0,0
							C142.7,175.6,142.7,175.6,142.7,175.7C142.7,175.7,142.7,175.7,142.7,175.7z M142.7,178.2
							C142.7,178.1,142.7,178.1,142.7,178.2c0-0.2,0-0.3,0.1-0.5c0.1-0.2,0.1-0.5,0.2-0.7c0,0,0-0.1,0.1-0.1c0,0,0,0.1,0,0.1
							c0,0.1,0,0.1-0.1,0.2C142.9,177.4,142.8,177.8,142.7,178.2z M143.7,179.6c-0.1,0.1-0.1,0.2-0.2,0.4c0-0.1-0.1-0.2-0.1-0.4
							c-0.2-0.6-0.2-1.2-0.1-1.9c0-0.2,0-0.3,0.1-0.5c0,0.1,0,0.1,0,0.1s0-0.1,0.1-0.2c0,0,0-0.1,0-0.1c0,0.1,0,0.3,0,0.4
							c0,0.1,0,0.1,0,0.1s0,0,0-0.1c0,0.3,0,0.5,0.1,0.7c0.1,0.6,0.1,1,0.1,1s0-0.4,0-1c0-0.3,0-0.7,0-1.1c0,0,0-0.1,0-0.1
							c0,0.1,0.1,0.1,0.1,0.2c0,0.4-0.1,0.8,0,1.3c0,0.2,0,0.5,0.1,0.7C143.7,179.4,143.7,179.5,143.7,179.6z M143.8,180.6
							c0-0.1,0.1-0.2,0.1-0.3c0,0,0-0.1,0-0.1c0,0.2,0,0.3,0,0.5c0,0.1,0,0.2-0.1,0.3C143.8,180.8,143.8,180.7,143.8,180.6z
							 M143.9,181.2c0,0,0-0.1,0-0.1c0-0.1,0-0.1,0.1-0.2c0,0.2,0,0.4,0,0.5C143.9,181.4,143.9,181.3,143.9,181.2z M144.9,176.5
							c0.1,0.3,0.3,0.6,0.3,0.9c-0.1-0.1-0.3-0.2-0.4-0.4C144.9,176.9,144.9,176.7,144.9,176.5z M144.6,178.2c0,0,0.1,0.1,0.1,0.1
							c0,0.1,0.1,0.1,0.1,0.2c0,0.1,0.1,0.1,0.1,0.2c0,0,0,0,0,0c0,0-0.1,0-0.1,0c-0.1,0-0.2-0.1-0.3-0.1c0-0.1,0-0.1,0-0.2
							C144.6,178.3,144.6,178.3,144.6,178.2z M144.6,179.3c-0.1,0-0.1-0.1-0.2-0.2c0-0.1,0-0.3,0-0.4c0,0,0-0.1,0-0.1c0,0,0,0,0,0
							c0.1,0.2,0.1,0.4,0.1,0.5C144.7,179.2,144.7,179.2,144.6,179.3C144.7,179.3,144.6,179.3,144.6,179.3z M145,179
							c0,0.1-0.1,0.2-0.1,0.2c0,0-0.1,0.1-0.1,0.1c0-0.1,0-0.1,0-0.2c0-0.1-0.1-0.3-0.1-0.5c0.1,0,0.2,0.1,0.3,0.1
							c0.1,0,0.1,0,0.2,0c0,0,0,0,0,0C145.1,178.8,145,178.9,145,179z M145.1,178.6C145.1,178.6,145.1,178.6,145.1,178.6
							c-0.1-0.1-0.2-0.2-0.3-0.3c0-0.1-0.1-0.1-0.1-0.2c0,0,0-0.1,0-0.1c0,0,0,0,0,0c0,0.1,0.1,0.2,0.1,0.2
							C144.9,178.3,145,178.5,145.1,178.6C145.1,178.6,145.1,178.6,145.1,178.6z M145.1,178.6C145.1,178.6,145.1,178.6,145.1,178.6
							C145.1,178.6,145.1,178.6,145.1,178.6C145.1,178.6,145.1,178.6,145.1,178.6z M145.4,178.7
							C145.4,178.7,145.3,178.7,145.4,178.7c-0.1,0-0.1,0-0.1,0c0,0,0,0,0,0c0.1,0,0.1-0.1,0.1-0.2c0,0,0-0.1,0-0.1
							C145.4,178.5,145.4,178.6,145.4,178.7z M145.3,178.5c0,0.1-0.1,0.1-0.1,0.1c0,0-0.1-0.1-0.1-0.1c0,0,0,0,0,0
							c0-0.1,0-0.2,0-0.3c0-0.1,0-0.1,0-0.1c0,0,0,0,0,0.1c0,0.1,0,0.2,0,0.3c0,0,0,0,0,0c-0.1-0.1-0.2-0.2-0.2-0.4
							c0-0.1-0.1-0.2-0.2-0.3c0-0.2,0.1-0.4,0.1-0.6c0,0,0,0,0,0c0.1,0.1,0.3,0.3,0.5,0.3c0,0.1,0.1,0.3,0.1,0.4c0,0.1,0,0.3,0,0.4
							C145.4,178.4,145.4,178.5,145.3,178.5z M145.4,178.7c0-0.1,0-0.2,0-0.4c0-0.1,0-0.1,0-0.2c0-0.2,0-0.4,0-0.4s0,0.1,0,0.4
							c0,0,0,0,0,0.1c0-0.1,0-0.1,0-0.2c0-0.1,0-0.2-0.1-0.3c0.1,0,0.1,0,0.2,0.1c0,0.2,0,0.4,0,0.7
							C145.5,178.5,145.5,178.6,145.4,178.7z M145.7,178.2c0,0.1-0.1,0.2-0.1,0.3c0,0,0,0,0,0c0-0.1,0-0.1,0-0.2c0-0.3,0-0.5,0-0.7
							c0,0,0,0,0,0c0,0,0,0,0,0c0,0,0,0,0.1,0C145.7,177.9,145.7,178,145.7,178.2z"/>
						<path class="st118" d="M147,174.4c0,0,0.1-0.1,0.1-0.1c0,0,0,0,0,0c0-0.1,0.1-0.1,0.1-0.2l0.5-1.5c0,0.1,0,0.1-0.1,0.2
							c0,0,0,0,0,0c0,0-0.1,0.1-0.1,0.1c0,0,0,0,0,0c0,0-0.1,0.1-0.1,0.1c0,0,0,0,0,0c0,0-0.1,0.1-0.2,0.1c0,0,0,0,0,0
							c-0.1,0-0.1,0.1-0.2,0.1c0,0,0,0-0.1,0c-0.1,0-0.1,0.1-0.2,0.1c0,0,0,0-0.1,0c-0.1,0-0.2,0.1-0.3,0.1c-0.1,0-0.2,0-0.2,0.1
							c-0.1,0-0.1,0-0.2,0c-0.1,0-0.3,0-0.4,0.1c0,0-0.1,0-0.1,0c-0.1,0-0.2,0-0.4,0c0,0-0.1,0-0.1,0c-0.2,0-0.3,0-0.5,0
							c0,0-0.1,0-0.1,0c-0.1,0-0.3,0-0.4,0c0,0-0.1,0-0.1,0c-0.2,0-0.4,0-0.5,0c0,0-0.1,0-0.1,0c-0.2,0-0.3,0-0.5,0
							c-0.1,0-0.1,0-0.2,0c-0.1,0-0.2,0-0.4,0c-0.1,0-0.2,0-0.3,0c-0.1,0-0.2,0-0.3,0c-0.1,0-0.3-0.1-0.4-0.1c-0.1,0-0.2,0-0.3-0.1
							c-0.2,0-0.4-0.1-0.6-0.1c0,0-0.1,0-0.1,0c-0.2-0.1-0.5-0.1-0.7-0.2c-0.1,0-0.1,0-0.2-0.1c-0.2-0.1-0.3-0.1-0.5-0.2
							c-0.1,0-0.2-0.1-0.2-0.1c-0.2-0.1-0.3-0.1-0.5-0.2c-0.1,0-0.1-0.1-0.2-0.1c-0.1-0.1-0.3-0.1-0.4-0.2c-0.1,0-0.1-0.1-0.2-0.1
							c-0.1,0-0.1-0.1-0.2-0.1c-0.1-0.1-0.2-0.1-0.3-0.2c-0.1,0-0.2-0.1-0.3-0.1c0,0,0,0,0,0c-0.1,0-0.2-0.1-0.2-0.1
							c0,0-0.1,0-0.1-0.1c-0.1,0-0.1-0.1-0.2-0.1c0,0-0.1,0-0.1-0.1c0,0-0.1-0.1-0.1-0.1c0,0-0.1,0-0.1-0.1c-0.1,0-0.1-0.1-0.2-0.1
							c0,0,0,0,0,0c-0.1-0.1-0.1-0.1-0.2-0.2c0,0,0,0,0-0.1c0,0-0.1-0.1-0.1-0.1c0,0,0,0,0-0.1c0,0-0.1-0.1-0.1-0.1c0,0,0,0,0,0
							c0-0.1-0.1-0.1-0.1-0.2c0,0,0,0,0,0c0-0.1,0-0.1-0.1-0.2c0,0,0,0,0,0c0,0,0,0,0-0.1c0,0,0,0,0-0.1c0,0,0-0.1,0-0.1
							c0,0,0-0.1,0-0.1l-0.5,1.5c0,0,0,0.1,0,0.1c0,0,0,0,0,0c0,0,0,0.1,0,0.1c0,0,0,0,0,0c0,0,0,0.1,0,0.1c0,0,0,0,0,0c0,0,0,0,0,0
							c0,0.1,0,0.1,0.1,0.2c0,0,0,0,0,0c0,0,0,0,0,0c0,0.1,0.1,0.1,0.1,0.2c0,0,0,0,0,0c0,0,0,0,0,0c0,0,0.1,0.1,0.1,0.1
							c0,0,0,0,0,0c0,0,0,0,0,0c0,0,0.1,0.1,0.1,0.1c0,0,0,0,0,0c0,0,0,0,0,0c0.1,0.1,0.1,0.1,0.2,0.2c0,0,0,0,0,0c0,0,0,0,0,0
							c0.1,0,0.1,0.1,0.2,0.1c0,0,0,0,0,0c0,0,0,0,0.1,0c0,0,0.1,0.1,0.1,0.1c0,0,0,0,0,0c0,0,0,0,0.1,0c0.1,0,0.1,0.1,0.2,0.1
							c0,0,0,0,0.1,0c0,0,0,0,0,0c0.1,0.1,0.2,0.1,0.3,0.2c0,0,0,0,0,0c0,0,0,0,0,0c0.1,0,0.2,0.1,0.3,0.1c0,0,0.1,0,0.1,0.1
							c0.1,0,0.2,0.1,0.2,0.1c0.1,0,0.1,0.1,0.2,0.1c0,0,0,0,0,0c0,0,0.1,0,0.1,0.1c0.1,0.1,0.3,0.1,0.4,0.2c0,0,0,0,0.1,0
							c0,0,0.1,0,0.1,0.1c0.2,0.1,0.3,0.1,0.5,0.2c0.1,0,0.1,0.1,0.2,0.1c0.2,0.1,0.3,0.1,0.5,0.2c0.1,0,0.1,0,0.2,0.1
							c0.2,0.1,0.5,0.1,0.7,0.2c0,0,0.1,0,0.1,0c0.2,0,0.4,0.1,0.6,0.1c0,0,0.1,0,0.1,0c0.1,0,0.1,0,0.2,0c0.1,0,0.3,0.1,0.4,0.1
							c0,0,0.1,0,0.1,0c0.1,0,0.1,0,0.2,0c0.1,0,0.2,0,0.3,0c0,0,0.1,0,0.2,0c0.1,0,0.1,0,0.2,0c0.1,0,0.1,0,0.2,0c0,0,0.1,0,0.1,0
							c0.1,0,0.2,0,0.4,0c0,0,0.1,0,0.1,0c0,0,0,0,0,0c0.1,0,0.3,0,0.4,0c0,0,0.1,0,0.1,0c0,0,0.1,0,0.1,0c0.1,0,0.1,0,0.2,0
							c0.1,0,0.1,0,0.2,0c0,0,0.1,0,0.1,0c0,0,0,0,0.1,0c0.1,0,0.3,0,0.4,0c0,0,0,0,0,0c0,0,0.1,0,0.1,0c0.1,0,0.1,0,0.2,0
							c0.1,0,0.1,0,0.2,0c0,0,0.1,0,0.1,0c0,0,0.1,0,0.1,0c0.1,0,0.2,0,0.4-0.1c0,0,0,0,0,0c0.1,0,0.1,0,0.1,0c0.1,0,0.2,0,0.2-0.1
							c0,0,0,0,0,0c0.1,0,0.2-0.1,0.3-0.1c0,0,0,0,0.1,0c0,0,0.1,0,0.1,0c0,0,0.1,0,0.1-0.1c0,0,0,0,0,0c0.1,0,0.2-0.1,0.2-0.1
							c0,0,0,0,0,0c0.1,0,0.1-0.1,0.2-0.1c0,0,0,0,0,0C146.9,174.5,147,174.5,147,174.4C147,174.4,147,174.4,147,174.4z"/>
						<path class="st30" d="M145.6,169.2c2.6,1.5,2.7,3.3,0.2,4c-2.5,0.7-6.7,0-9.3-1.5c-2.6-1.5-2.7-3.3-0.2-4
							C138.9,167,143,167.7,145.6,169.2z"/>
						<path class="st30" d="M145.6,168.2c-3-2.2-5.6-3-9-1.3c-2,1-6.1,4-3.9,6.9c0.9,1.2,2,0.3,3.1-0.1c1.4-0.6,2.6-0.7,3.9-0.4
							c1.8,1.2,5.9,2.8,7.4,2.1C150.1,173.9,147.2,169.3,145.6,168.2z"/>
					</g>
					<g>
						<g>
							<polygon class="st119" points="128.2,222.1 117.7,215.9 120.6,198.2 131.2,204.3 							"/>
						</g>
						<g>
							<polygon class="st120" points="129.3,210.3 118.9,204.3 120.6,198.2 131.2,204.3 							"/>
						</g>
						<g>
							<polygon class="st121" points="130.1,210.3 128.2,222.1 131.2,219.2 131.2,204.3 							"/>
							<polygon class="st122" points="134.3,218.6 132.4,209.1 131.2,204.3 131.2,219.2 131.3,219.1 							"/>
						</g>
						<g>
							<path class="st123" d="M125.3,206.6c0.3,0.2,0.5,0.7,0.3,1.1l-0.2,0.5c-0.1,0.4-0.5,0.6-0.9,0.4l-2.3-1.4
								c-0.3-0.2-0.5-0.7-0.3-1.1l0.2-0.5c0.1-0.4,0.5-0.6,0.9-0.4L125.3,206.6z"/>
						</g>
						<g>
							<polygon class="st94" points="127.1,213.1 127.2,212.8 126.2,212.3 126.1,212.2 126,212.1 125.4,214.5 125.5,214.5 
								125.6,214.6 126.5,215.1 126.6,214.8 125.7,214.3 125.9,213.6 126.7,214.1 126.7,213.7 126,213.3 126.2,212.6 							"/>
							<path class="st94" d="M123.4,216.4c0,0.2-0.1,0.3-0.2,0.4c-0.1,0.1-0.2,0.1-0.3,0c-0.1-0.1-0.2-0.2-0.3-0.3
								c0-0.1,0-0.3,0-0.5l0.4-1.6l-0.3-0.2l-0.4,1.6c-0.1,0.2-0.1,0.4-0.1,0.5c0,0.2,0.1,0.3,0.1,0.5c0.1,0.1,0.2,0.2,0.3,0.3
								c0.1,0.1,0.3,0.1,0.4,0.1c0.1,0,0.2-0.1,0.3-0.2c0.1-0.1,0.2-0.3,0.2-0.5l0.4-1.6l-0.3-0.2L123.4,216.4z"/>
							<polygon class="st94" points="124.2,215.4 124.7,215.7 124.1,217.8 124.4,218 125,215.9 125.6,216.2 125.6,215.8 124.3,215 
															"/>
							<path class="st94" d="M122,213.8c-0.1-0.1-0.2-0.2-0.3-0.3c-0.1-0.1-0.3-0.1-0.4-0.1c-0.1,0-0.2,0.1-0.3,0.2
								c-0.1,0.1-0.2,0.3-0.2,0.4l-0.2,0.7c0,0.2-0.1,0.4,0,0.5c0,0.2,0.1,0.3,0.2,0.5c0.1,0.1,0.2,0.2,0.3,0.3
								c0.1,0.1,0.3,0.1,0.4,0.1c0.1,0,0.2-0.1,0.3-0.2c0.1-0.1,0.2-0.3,0.2-0.4l0.2-0.7c0-0.2,0.1-0.4,0-0.5
								C122.1,214.1,122,213.9,122,213.8z M121.8,214.6l-0.2,0.7c0,0.1-0.1,0.2-0.1,0.3c-0.1,0.1-0.1,0.1-0.2,0.1
								c-0.1,0-0.2,0-0.2-0.1c-0.1,0-0.1-0.1-0.2-0.2c0-0.1-0.1-0.2-0.1-0.3c0-0.1,0-0.2,0-0.3l0.2-0.7c0-0.1,0.1-0.2,0.1-0.3
								c0.1-0.1,0.1-0.1,0.2-0.1c0.1,0,0.2,0,0.2,0.1c0.1,0,0.1,0.1,0.2,0.2c0,0.1,0.1,0.2,0.1,0.3
								C121.8,214.4,121.8,214.5,121.8,214.6z"/>
							<path class="st94" d="M123.2,212.6l0,0.6l0.3,0.2l0-2.7l-0.2-0.1l-1.3,1.9l0.3,0.2l0.3-0.4L123.2,212.6z M123.2,211l0,1.2
								l-0.6-0.3L123.2,211z"/>
							<polygon class="st94" points="121.4,212.2 121.9,210.2 122.4,210.4 122.5,210.1 121.2,209.4 121.2,209.7 121.7,210 
								121.1,212 							"/>
							<polygon class="st94" points="124.2,213 124.6,212.7 124.8,214.1 125.1,214.3 124.8,212.5 125.7,212 125.4,211.8 
								124.3,212.6 124.6,211.4 124.4,211.2 123.7,213.5 124,213.7 							"/>
						</g>
					</g>
					<g>
						<path class="st24" d="M134.4,203.9c-0.1,0-0.1-0.1-0.2,0c0,0-0.1,0-0.1,0c-0.1,0-0.3,0-0.4,0c-0.1-0.1-0.3-0.2-0.5-0.2
							c-0.4,0.1-0.7,0.1-1,0.2c-0.8,0.1-1.5,0.2-2.5,0.8c-0.2,0.1-0.3,0.4-0.2,0.7c0,0,0,0,0,0c-0.1,0-0.3,0.1-0.4,0.1
							c-0.2,0.1-0.4,0.2-0.7,0.3c-0.2,0.1-0.3,0.4-0.2,0.6c-0.1,0.1-0.3,0.1-0.4,0.2c-0.2,0.1-0.3,0.4-0.2,0.7
							c0.1,0.2,0.3,0.3,0.5,0.3c0,0,0.1,0,0.1,0c0.1,0,0.2-0.1,0.3-0.1c0,0,0,0.1,0,0.1c0.1,0.2,0.3,0.4,0.6,0.3c0,0,0,0,0.1,0
							c0.1,0,0.3-0.1,0.4-0.1c0,0,0,0,0,0c0.1,0.2,0.3,0.4,0.6,0.3c0,0,0,0,0,0c0.2,0,0.4-0.1,0.7-0.2c1.2-0.3,2.3-0.5,2.8-0.9
							c0.8,0,1.5-0.3,1.8-1.4C135.8,204.5,135.2,204.1,134.4,203.9z"/>
						<path class="st98" d="M145.2,186.4c-1.6,2.8-1,10.2-1,12.8c0,2.6,1.1,4.6,3.1,2.7c2.1-1.9,1.5-12.2,1.9-14
							C149.5,186.1,146.8,183.6,145.2,186.4z"/>
						<g>
							<path class="st98" d="M145,198.1c-7.4,2.2-7.9,4.7-10.9,5.2c-2,0-0.6,2.8,0.8,3.4c2.3,0.4,9.2-3,11.2-4.1
								C150.4,200.7,146.2,197.5,145,198.1z"/>
						</g>
					</g>
					<path class="st24" d="M125.3,199.8c-0.1-0.1-0.2-0.1-0.3-0.1c0,0-0.1,0-0.1,0c-0.1-0.1-0.2-0.2-0.4-0.2c0,0-0.1-0.1-0.2-0.1
						c0-0.1,0-0.2-0.1-0.3c-0.6-0.6-1-0.5-1.3-0.4c-0.1,0-0.2,0.1-0.3,0.2c-0.5,0.2-0.9,0.5-1.2,0.9c-0.4,0.6-0.5,1.3-0.3,1.9
						c0.1,0.2,0.3,0.3,0.5,0.3c0,0,0.1,0,0.1,0c0,0,0,0,0,0c0,0.1,0,0.1,0,0.1c0,0.2,0.2,0.4,0.4,0.5c0,0.2,0,0.3,0,0.5
						c0,0.3,0.2,0.5,0.5,0.5c0,0,0,0,0,0c0.2,0,0.4-0.2,0.5-0.4c0,0,0.1,0.1,0.2,0.1c0,0,0.1,0,0.1,0c0.2,0,0.4-0.1,0.5-0.3l0.1-0.2
						c0.4-1.4,0.8-2,0.8-2l1.3,0.7C126.5,200.9,125.6,200,125.3,199.8z M123.2,201.5c0-0.1,0.1-0.2,0.1-0.4c0,0,0,0.1,0,0.1
						C123.2,201.4,123.2,201.5,123.2,201.5z"/>
				</g>
			</g>
		</g>
		<rect class="st71" width="290" height="272.3"/>
	</g>
</g>
</svg>
