<?xml version="1.0" encoding="utf-8"?>
<!-- Generator: Adobe Illustrator 27.9.0, SVG Export Plug-In . SVG Version: 6.00 Build 0)  -->
<svg version="1.1" id="レイヤー_1" xmlns="http://www.w3.org/2000/svg" xmlns:xlink="http://www.w3.org/1999/xlink" x="0px"
	 y="0px" viewBox="0 0 458.2 126.7" style="enable-background:new 0 0 458.2 126.7;" xml:space="preserve">
<style type="text/css">
	.st0{fill:#59C2E1;}
	.st1{fill:#F29600;}
</style>
<g>
	<g>
		<g>
			<path class="st0" d="M429.3,88.2c3.8-1.8,7.4-4,10.8-6.6c0.4-0.3,0.9-0.7,1.3-1l1.2-1c0.9-0.7,1.6-1.5,2.4-2.2
				c1.5-1.5,3-3.2,4.3-5c5.2-7.1,8.5-15.8,8.9-24.9c0.2-4.6-0.5-9.2-2.2-13.6c-0.9-2.2-1.9-4.3-3.3-6.2c-0.3-0.5-0.7-1-1-1.4
				c-0.4-0.5-0.8-0.9-1.2-1.3c-0.4-0.4-0.8-0.9-1.2-1.3l-1.3-1.2c-3.5-3.2-7.5-5.7-11.8-7.4c-4.3-1.8-8.8-2.9-13.3-3.6
				c-4.5-0.8-9.1-1.3-13.6-1.6c-4.5-0.4-9-0.6-13.5-0.9c-9-0.5-17.9-1.2-26.9-1.7c-17.8-1.1-35.4-2.1-52.5-3
				c-17.1-0.9-33.7-1.6-49.4-2.2c-7.8-0.2-15.5-0.5-22.9-0.8c-7.4-0.2-14.6-0.4-21.5-0.5c-27.5-0.6-50.3-0.6-66-0.4
				c-26.1,0.2-48,1-68.6,2C78,2.7,67.9,3.3,58,5C48,6.7,38.1,9.6,28.7,14.8c-4.7,2.6-9.1,5.8-13.1,9.7S8,32.9,5.2,38.2
				c-2.8,5.2-4.8,11.2-5.2,17.7c-0.4,6.4,0.9,13.3,4,19.5c3,6.3,7.8,11.9,13.6,16.7c2.9,2.4,6.1,4.5,9.5,6.3c3.5,1.8,7.1,3.4,11,4.7
				c7.7,2.6,16.2,3.8,25,4.4s18,0.3,27.6,0c8.6-0.2,25.3-0.6,45.2-0.7c19.9-0.1,43.2-0.1,64.9,0.2c10.9,0.2,21.4,0.3,30.9,0.4
				c2.4,0.1,4.7,0.1,7,0.1c2.2,0.1,4.4,0.1,6.4,0.2c2.1,0.1,4,0.3,5.8,0.7c1.8,0.4,3.4,0.9,4.9,1.5c2.9,1.2,5,3.1,6.5,5
				c0.7,1,1.2,1.9,1.6,2.8c0.2,0.4,0.4,0.9,0.5,1.3c0.1,0.4,0.2,0.8,0.3,1.2c0.3,1.5,0.2,2.5,0.3,3c0.1,0.5,0.3,0.5,0.7-0.1
				c0.5-0.9,1-2.5,0.7-4.7c-0.2-2.1-1.3-4.7-3.3-7.2c-1-1.2-2.2-2.4-3.8-3.4c-1.5-1-3.3-1.8-5.1-2.4c-3.8-1.3-8-1.7-12.4-1.9
				c-17.4-0.8-39.2-1.2-61.2-1c-22,0.1-44.3,0.7-62.4,1.3s-32.1,1.4-37.6,1.5c-3,0.1-6.7,0.1-11.1,0c-4.4-0.1-9.3-0.4-14.8-1.1
				c-1.3-0.2-2.7-0.4-4.1-0.6c-1.4-0.2-2.9-0.5-4.3-0.9c-2.9-0.6-5.9-1.5-8.9-2.5c-3-1-6-2.4-9-4c-3-1.6-5.9-3.5-8.6-5.7
				c-2.8-2.2-5.4-4.7-7.7-7.6c-0.5-0.7-1.2-1.4-1.7-2.2c-0.5-0.8-1-1.5-1.6-2.3c-0.5-0.8-0.9-1.6-1.4-2.4c-0.2-0.4-0.4-0.9-0.7-1.3
				l-0.6-1.3c-1.5-3.5-2.6-7.2-3-11c-0.4-3.8-0.2-7.8,0.7-11.6c1.7-7.7,5.8-15,11.2-20.9c5.4-6,12-10.9,19.3-14.2
				c7.3-3.4,15-5.6,22.7-7c3.8-0.7,7.7-1.3,11.4-1.7c3.8-0.4,7.5-0.7,11.2-1c7.3-0.5,14.4-0.7,21-1c3.3-0.1,6.6-0.3,9.7-0.4
				c3.1-0.1,6.1-0.2,9-0.3c2.9-0.1,5.6-0.2,8.2-0.2c2.6-0.1,5-0.1,7.4-0.2c4.6-0.1,8.6-0.2,11.9-0.2c6.6-0.1,10.3-0.1,10.3-0.1
				S161.3,3,168.9,3c7.5,0,18.5,0,31.7,0.2c13.3,0.1,29,0.5,46.2,1c17.2,0.6,35.9,1.3,55.1,2.2s39,2,58.5,3.2
				c9.7,0.6,19.4,1.2,28.8,1.8c4.7,0.3,9.4,0.6,14,0.9s9.1,0.6,13.5,1.2c4.4,0.5,8.7,1.3,12.8,2.4s7.9,2.6,11.3,4.7
				c3.4,2,6.3,4.6,8.6,7.5c1.2,1.5,2.1,3,2.9,4.6c0.8,1.6,1.5,3.3,1.9,4.9c1,3.3,1.2,6.7,1.2,9.9c-0.1,3.2-0.7,6.3-1.5,9.1
				c-1.6,5.7-4.1,10.3-6.7,13.9c-1,1.4-2.1,2.7-3.3,4s-2.5,2.4-3.8,3.5l-1,0.9c-0.3,0.3-0.7,0.5-1,0.8c-0.7,0.5-1.4,1-2.1,1.5
				c-0.7,0.5-1.5,0.9-2.2,1.4c-0.7,0.5-1.5,0.9-2.2,1.3l-1.1,0.6c-0.4,0.2-0.8,0.4-1.2,0.5c-0.8,0.4-1.5,0.8-2.3,1.1
				c-0.8,0.4-1.6,0.7-2.4,1c-0.8,0.4-1.6,0.6-2.4,0.9c-0.8,0.3-1.6,0.6-2.4,0.9c-0.8,0.2-1.6,0.5-2.4,0.8c-1.6,0.4-3.2,0.9-4.9,1.3
				c-13,3.1-26,3.5-38.3,3.6c-12.3,0.1-24.1-0.3-35.1-0.1c-11,0.1-21.3,0.8-30.7,2.3c-18.7,3-33.3,9.6-42.1,16.1
				c-2.2,1.6-4.1,3.2-5.7,4.7c-1.6,1.5-2.8,2.9-3.8,4c-0.2,0.3-0.5,0.5-0.7,0.9c-0.2,0.3-0.4,0.5-0.5,0.8c-0.4,0.5-0.6,1-0.9,1.4
				c-0.4,0.8-0.7,1.4-0.6,1.8c0.1,0.4,0.8,0,2.1-1.2c0.7-0.6,1.5-1.4,2.6-2.2c1.1-0.9,2.3-2,3.8-3.1c0.4-0.3,0.8-0.6,1.2-0.9
				s0.8-0.6,1.3-0.9c0.9-0.6,1.8-1.3,2.8-1.9c1-0.7,2.1-1.3,3.2-2c0.5-0.4,1.2-0.7,1.8-1c0.6-0.3,1.2-0.7,1.8-1
				c5-2.7,11.2-5.4,18.6-7.6c0.9-0.2,1.9-0.5,2.8-0.9c1-0.2,1.9-0.5,2.9-0.7c0.5-0.1,1-0.2,1.5-0.4c0.5-0.1,1-0.2,1.5-0.4
				c1-0.2,2.1-0.5,3.1-0.7c4.3-0.9,8.8-1.5,13.5-2.1c9.5-1,20.1-1.3,31.6-1.4c11.5-0.1,24,0.2,37.3-0.6c6.7-0.4,13.6-1.1,20.6-2.4
				c3.5-0.7,7.1-1.6,10.6-2.7C422.3,91.2,425.9,89.8,429.3,88.2z"/>
		</g>
	</g>
	<g>
		<path class="st1" d="M46.9,45.1c0.7,0,0.6,0.3,0.7,0.9c0.1,1.5,0.5,2.9,0.7,4.3c0.1,0.3,0.1,0.7,0.6,0.7c0.4,0,3.6-1.9,4.1-2.3
			c0.2-0.1,0.4-0.3,0.6-0.3c0.4,0,1.6,2.1,1.6,2.4c0,0.2-0.3,0.3-0.5,0.4c-1.4,0.5-3.7,1.5-5,2.3c-1.6,0.9-5.3,2.7-5.3,4.8
			c0,0.9,0.8,1.5,1.6,1.8c1,0.4,2.2,0.4,3.2,0.4c1.2,0,2.5-0.1,3.7-0.2c0.4,0,2.1-0.3,2.5-0.4c0.1,0,0.2,0,0.2,0
			c0.3,0,0.4,1,0.4,1.5v0.3c0,0.6,0,0.9-0.7,1C54.3,62.9,50.3,63,49,63c-1.8,0-3.4-0.1-5-1c-1.4-0.8-2.2-2.1-2.2-3.7
			c0-2.4,1.7-4,3.6-5.2c0.3-0.2,0.6-0.3,0.6-0.7c0-0.1,0-0.3-0.1-0.4c-0.3-0.9-1-3.4-1.2-4.4c-0.1-0.6-0.2-1-0.5-1.6
			c0-0.1-0.1-0.2-0.1-0.3c0-0.3,0.7-0.4,1.6-0.5C46.1,45.1,46.5,45.1,46.9,45.1z M56.5,46.8c0.2,0.2,0.9,1.3,0.9,1.6
			c0,0.4-1,0.9-1.3,0.9c-0.2,0-0.2-0.1-0.5-0.5c-0.3-0.6-0.7-1.2-1.1-1.7c-0.1-0.1-0.3-0.4-0.3-0.6c0-0.3,1-0.8,1.3-0.8
			C55.8,45.7,56.4,46.6,56.5,46.8z M59,45.1c0.2,0.2,0.9,1.3,0.9,1.6c0,0.4-1,0.9-1.3,0.9c-0.2,0-0.3-0.2-0.3-0.3
			c-0.5-0.8-0.9-1.5-1.4-2.3c0,0-0.1-0.1-0.1-0.2c0-0.3,1-0.8,1.3-0.8C58.3,44,58.8,44.8,59,45.1z"/>
		<path class="st1" d="M69,54.7c1.8-3.5,2.9-5.2,5-8.5c0.4-0.6,0.7-1.1,1-1.7c0.1-0.1,0.2-0.4,0.4-0.4c0.2,0,1.1,0.7,1.3,0.9
			c0.2,0.2,1.1,0.8,1.1,1c0,0.3-0.2,0.4-0.4,0.4c-0.3,0-0.4,0.1-0.6,0.3c-0.5,0.5-1.1,1.4-1.5,2c-0.3,0.5-2.4,3.5-2.4,3.8
			c0,0.1,0.1,0.2,0.2,0.2c0.1,0,0.3-0.1,0.4-0.2c0.8-0.4,1.6-0.8,2.5-0.8c1,0,2.1,0.5,2.5,1.4c0.2,0.5,0.3,1,0.3,1.5
			c0,0.8-0.2,1.6-0.3,2.3c-0.1,0.6-0.4,1.7-0.4,2.4c0,0.4,0.1,0.9,0.6,0.9c1.3,0,3.6-2.9,4.4-4c0.1-0.1,0.3-0.3,0.5-0.3
			c0.4,0,1.2,1.9,1.2,2.2c0,0.2-0.1,0.4-0.3,0.5c-0.6,0.6-1.1,1.1-1.7,1.6c-1.3,1.2-3,2.5-4.8,2.5c-1.7,0-2.4-1.5-2.4-3
			c0-0.9,0.1-1.9,0.3-2.8c0.1-0.6,0.3-1.3,0.3-1.9c0-0.6-0.2-1.1-0.9-1.1c-0.7,0-1.5,0.3-2.1,0.7c-1,0.6-1.8,1.2-2.4,2.2
			c-1,1.3-1.8,3.5-2.2,5c-0.1,0.3-0.1,0.7-0.5,0.7c-0.4,0-2.3-0.7-2.3-1.1c0,0,0.4-1,0.4-1.1C67.1,58.8,68,56.7,69,54.7z"/>
		<path class="st1" d="M100.9,44.5c0.1,0,0.4,0.1,0.4,0.3s-0.2,0.3-0.4,0.4c-0.2,0.2-0.4,1-0.4,1.3c-0.1,0.2-0.3,1-0.3,1.1
			c0,0.2,0.1,0.3,0.3,0.3s1.2-0.3,1.4-0.4c0.1,0,0.2,0,0.2,0c0.3,0,0.3,0.4,0.4,0.7c0,0.3,0.1,0.9,0.1,1.3c0,0.5-0.3,0.6-2.5,1
			c-0.9,0.1-0.8,0.3-1.1,1.1c-1.1,3-2.4,5.8-3.9,8.5c-0.1,0.2-0.2,0.3-0.5,0.3c-0.5,0-2.1-0.7-2.1-1.2c0-0.2,0.3-0.7,0.4-0.9
			c1-1.6,2.1-3.8,2.9-5.5c0.1-0.3,0.6-1.3,0.6-1.5c0-0.1-0.1-0.3-0.3-0.3c-0.2,0-2,0.2-2.6,0.2c-0.4,0-0.5-0.2-0.6-0.8
			c0-0.3-0.2-1.2-0.2-1.4c0-0.3,0.2-0.4,0.4-0.4h1.1c0.8,0,1.7,0,2.5-0.1c0.3,0,0.5-0.1,0.7-0.4c0.4-0.6,0.8-3.3,0.8-4
			c0-0.2,0-0.4,0.2-0.4C98.6,43.8,100.6,44.4,100.9,44.5z M104.4,51.7c0.3,0.1,0.5,0.2,0.5,0.5c0,0,0,0.8,0,1.3
			c0,0.7,0.1,4.2,0.2,4.7c0.1,0.4,0.4,0.5,0.7,0.6c0.1,0,0.2,0.1,0.2,0.1c0.6,0.2,3.4,1.5,3.4,2.1c0,0.4-0.9,1.8-1.5,1.8
			c-0.2,0-0.5-0.2-0.6-0.3c-0.4-0.3-1.5-1.1-1.9-1.1c-0.3,0-0.4,0.3-0.4,0.6c-0.3,1.8-1.7,2.4-3.3,2.4c-1.9,0-4.2-1-4.2-3.3
			c0-2.2,2.1-3,4-3h0.6c0.3,0,0.5-0.1,0.5-0.4c0-0.8-0.4-4.2-0.4-5.2c0-0.1,0-0.2,0-0.3c0-0.4,0.2-0.5,0.6-0.5
			C103.1,51.4,104,51.6,104.4,51.7z M99.9,60.8c0,0.7,1,1.1,1.6,1.1c0.9,0,1.2-0.5,1.2-1.3c0-0.5,0-0.7-1.2-0.7
			C100.9,59.9,99.9,60,99.9,60.8z M110.4,51.6c0,0.6-1.4,1.7-1.8,1.7c-0.2,0-0.4-0.3-0.5-0.4c-0.7-1.1-1.9-2.3-3-3.1
			c-0.1-0.1-0.3-0.2-0.3-0.4c0-0.3,1.1-1.7,1.6-1.7C107,47.7,110.4,51,110.4,51.6z"/>
		<path class="st1" d="M133.1,44.1c0-0.1,0.1-0.2,0.3-0.2c0.1,0,2.2,0.8,2.2,1.1c0,0.2-0.3,0.2-0.3,0.2c-0.2,0-0.3,0.1-0.5,0.2
			c-0.2,0.4-0.7,1.3-1,1.7c0,0.1-0.1,0.1-0.1,0.2c0,0.2,0.2,0.3,0.4,0.3c0.9,0,1.7,0,2.6,0c0.5,0,0.5,0.3,0.5,1c0,0.7,0,1-0.5,1
			c-1,0-2,0-3,0h-0.9c-0.1,0-0.1,0,0,0.1c0,0,0.1,0.1,0.1,0.1c0,0.2-0.2,0.2-0.3,0.3c-0.3,0.1-0.3,0.1-0.5,0.3
			c-0.1,0.2-0.2,0.5-0.3,0.7c0,0.1-0.1,0.1-0.1,0.2c0,0.3,0.2,0.3,0.5,0.4h0.6c1,0,1.9,0,2.9,0c0.6,0,0.5,0.3,0.5,1
			c0,0.6,0,0.9-0.5,0.9c-1,0-2,0-3,0h-4.1c-0.3,0-0.5,0.1-0.5,0.5V54c0,0.3,0.1,0.5,0.5,0.5h2.9c0.9,0,1.8,0,2.8,0
			c0.6,0,0.6,0.3,0.6,0.9s0,0.9-0.6,0.9c-0.9,0-1.8,0-2.8,0h-2.9c-0.3,0-0.5,0.1-0.5,0.4v0.2c0,0.3,0.1,0.5,0.5,0.5h5.4c1,0,2,0,3,0
			c0.6,0,0.6,0.2,0.6,1c0,0.7,0,1-0.5,1c-1,0-2.1,0-3.1,0h-3.1c-0.1,0-0.2,0-0.2,0.2c0,0.1,0,0.1,0.1,0.2c1.8,1.2,3.9,2.2,6,2.9
			c0.6,0.2,0.8,0.3,0.8,0.6c0,0.5-0.9,1.6-1.3,1.6c-0.5,0-2.4-0.9-2.9-1.1c-1.7-0.8-3.3-1.9-4.7-3c-0.1-0.1-0.1-0.1-0.2-0.1
			c-0.2,0-0.2,0.2-0.3,0.3v0.2c0,1.1,0.1,2.1,0.1,3.2c0,0.8-0.3,0.8-1.4,0.8c-1.1,0-1.3,0-1.3-0.8c0-1.1,0.1-2.2,0.1-3.2v-0.2
			c0-0.2-0.1-0.3-0.3-0.3c-0.1,0-0.1,0-0.2,0.1c-1.7,1.3-3.5,2.5-5.5,3.4c-0.5,0.2-1.6,0.7-2,0.7c-0.5,0-1.3-1.2-1.3-1.7
			c0-0.3,0.3-0.4,0.8-0.6c2-0.7,4.1-1.7,5.9-2.9c0,0,0.1-0.1,0.1-0.2c0-0.1-0.1-0.2-0.2-0.2h-2.9c-1,0-2,0-3.1,0
			c-0.5,0-0.5-0.3-0.5-1s0-1,0.5-1c1,0,2.1,0,3.1,0h5.2c0.3,0,0.5-0.1,0.5-0.5v-0.2c0-0.3-0.1-0.5-0.5-0.5h-2.7c-0.9,0-1.8,0-2.8,0
			c-0.6,0-0.6-0.3-0.6-0.9c0-0.7,0-0.9,0.6-0.9c0.9,0,1.8,0,2.8,0h2.7c0.3,0,0.5-0.1,0.5-0.5v-0.2c0-0.3-0.1-0.5-0.5-0.5h-3.9
			c-1,0-2,0-3,0c-0.5,0-0.5-0.4-0.5-0.9c0-0.6,0-1,0.5-1c1,0,1.9,0,2.9,0h0.6c0,0,0.4,0,0.4-0.4c0-0.1,0-0.1,0-0.2
			c-0.1-0.3-0.3-0.6-0.5-0.9c-0.2-0.4-0.4-0.6-0.9-0.6h-0.6c-1,0-2,0-3,0c-0.5,0-0.5-0.3-0.5-1c0-0.7,0-1,0.5-1c0.8,0,1.6,0,2.4,0
			h0.3c0.2,0,0.3-0.1,0.3-0.3c0-0.1,0-0.1,0-0.2c-0.5-0.7-0.9-1.3-1.5-2c-0.1-0.1-0.2-0.3-0.2-0.4c0-0.4,1.2-0.9,1.7-0.9
			c0.3,0,0.4,0.1,0.6,0.5c0,0.1,0.1,0.2,0.2,0.3c0.3,0.3,1.5,1.9,1.5,2.2s-0.5,0.5-0.8,0.6c0,0,0,0,0,0.1c0,0.1,0,0.1,0.1,0.1h1.2
			c0.5,0,0.7-0.2,0.7-0.6v-0.7c0-0.8,0-1.5-0.1-2.3c0-0.1,0-0.1,0-0.2c0-0.3,0.2-0.4,0.4-0.4c0.3,0,1.6,0.1,2,0.2
			c0.2,0,0.6,0,0.6,0.3c0,0.2-0.1,0.2-0.3,0.4c-0.3,0.2-0.3,0.6-0.3,1.3V47c0,0.5,0.2,0.6,0.7,0.6h0.7c0.5,0,0.7-0.2,0.7-0.6v-1.4
			c0-0.6,0-1.1-0.1-1.7v-0.2c0-0.3,0.2-0.3,0.4-0.3c0.3,0,1.6,0.1,1.9,0.2c0.2,0,0.6,0,0.6,0.3c0,0.1-0.1,0.2-0.3,0.3
			c-0.2,0.2-0.3,0.5-0.3,1.1V47c0,0.4,0.1,0.6,0.6,0.6c0.2,0,0.2-0.1,0.3-0.2C131.9,46.3,132.5,45.3,133.1,44.1z M128.1,51.6
			c0.5,0,0.7-0.1,1-0.6c0.1-0.3,0.3-0.6,0.5-0.9c0,0,0-0.1,0-0.2c0-0.3-0.2-0.4-0.5-0.4h-4.3c-0.2,0-0.4,0.1-0.4,0.4
			c0,0.1,0,0.1,0,0.2c0.6,1.2,0.6,1.5,1.2,1.5H128.1z"/>
		<path class="st1" d="M147.5,55.6c-0.1,0-0.2,0.1-0.2,0.2v5.1c0,1.1,0.1,2.2,0.1,3.3c0,0.7-0.2,0.8-1.2,0.8s-1.2,0-1.2-0.8
			c0-1.1,0.1-2.2,0.1-3.3v-3.3c0-0.1,0-0.1-0.1-0.1c0,0-0.1,0-0.1,0.1c-0.4,1-0.8,2-1.4,2.9c-0.1,0.2-0.3,0.5-0.6,0.5
			c-0.4,0-1.4-0.9-1.4-1.4c0-0.2,0.2-0.5,0.3-0.7c1.2-1.9,2-4.1,2.8-6.2c0-0.1,0-0.1,0-0.2c0-0.3-0.2-0.4-0.5-0.4
			c-0.4,0-1.2,0-1.5,0c-0.5,0-0.5-0.4-0.5-1.2c0-0.9,0-1.2,0.5-1.2c0.5,0,1.1,0.1,1.8,0c0.5,0,0.7-0.2,0.7-0.6v-1.4
			c0-0.3-0.1-0.5-0.5-0.5c0,0-0.1,0-0.1,0c-0.3,0.1-1.1,0.2-1.4,0.2c-0.6,0-1-1.5-1-1.8c0-0.4,0.3-0.4,1-0.5
			c1.9-0.3,3.6-0.8,5.3-1.8c0,0,0.1-0.1,0.2-0.1c0.2,0,0.4,0.3,0.7,0.7c0.1,0.1,0.2,0.3,0.3,0.4s0.6,0.9,0.6,1
			c0,0.1-0.1,0.2-0.2,0.2c-0.1,0-0.2,0-0.4-0.1c0,0-0.1,0-0.1,0c-0.1,0-0.5,0.2-0.9,0.3c-0.2,0.1-0.5,0.2-0.6,0.2
			c-0.5,0.2-0.6,0.4-0.6,0.9v2.1c0,0.5,0.2,0.6,0.7,0.6c0.6,0,1.3,0,1.8,0c0.5,0,0.5,0.4,0.5,1.2c0,0.8,0,1.2-0.5,1.2
			c-0.5,0-1.1,0-1.6,0c-0.2,0-0.4,0.1-0.4,0.3c0,0.1,0,0.2,0.1,0.2c0.7,1.1,1.3,1.9,2.3,2.9c0.2,0.1,0.3,0.3,0.3,0.6
			c0,0.4-0.7,1.5-1.1,1.5c-0.4,0-1.4-1.6-1.7-1.9C147.7,55.6,147.6,55.6,147.5,55.6z M160.3,47.7c0.8,0,1.5,0,2.3,0
			c0.6,0,0.5,0.3,0.5,1s0,1-0.5,1c-0.8,0-1.5,0-2.3,0h-2.2c-0.3,0-0.5,0.1-0.5,0.5v0.3c0,0.3,0.1,0.5,0.5,0.5h1.5c0.5,0,1,0,1.5,0
			c0.8,0,1.1,0.3,1.1,1.1c0,0.5,0,1,0,1.5v2.7c0,0.5,0,0.9,0,1.4c0,0.8-0.2,1.1-1,1.1c-0.5,0-1.1,0-1.6,0h-1.4
			c-0.4,0-0.6,0.2-0.6,0.6v0.1c0,0.4,0.2,0.6,0.6,0.6h1.4c0.8,0,1.6,0,2.4,0c0.5,0,0.5,0.3,0.5,0.9c0,0.6,0,0.9-0.5,0.9
			c-0.8,0-1.6,0-2.4,0h-1.4c-0.4,0-0.6,0.2-0.6,0.6v0.1c0,0.4,0.2,0.6,0.6,0.6h2.1c0.8,0,1.7,0,2.5,0c0.6,0,0.6,0.3,0.6,1
			c0,0.7,0,1-0.5,1c-0.8,0-1.7,0-2.5,0h-8.4c-0.8,0-1.7,0-2.5,0c-0.6,0-0.6-0.3-0.6-1c0-0.7,0-1,0.6-1c0.8,0,1.7,0,2.5,0h3
			c0.4,0,0.6-0.2,0.6-0.6v-0.1c0-0.4-0.2-0.6-0.6-0.6h-1.5c-0.8,0-1.6,0-2.4,0c-0.5,0-0.5-0.2-0.5-0.9c0-0.6,0-0.9,0.5-0.9
			c0.8,0,1.6,0,2.4,0h1.5c0.4,0,0.6-0.2,0.6-0.6v-0.1c0-0.4-0.2-0.6-0.6-0.6h-1.4c-0.5,0-1.1,0-1.6,0c-0.8,0-1.1-0.3-1.1-1.1
			c0-0.5,0-1,0-1.5v-2.7c0-0.5,0-1,0-1.5c0-0.8,0.3-1.1,1-1.1c0.5,0,1.1,0,1.6,0h1.5c0.3,0,0.5-0.1,0.5-0.5V50
			c0-0.3-0.1-0.5-0.5-0.5h-2.2c-0.7,0-1.5,0-2.3,0c-0.6,0-0.5-0.3-0.5-1c0-0.6,0-1,0.5-1c0.8,0,1.5,0,2.3,0h2c0.4,0,0.6-0.2,0.6-0.6
			v-0.3c0-0.4-0.2-0.5-0.6-0.5c-0.4,0-3,0.2-3.3,0.2c-0.4,0-0.6,0-0.7-0.2c-0.2-0.3-0.3-1-0.3-1.4c0-0.4,0.4-0.4,0.8-0.4
			c3.2-0.1,6.4-0.3,9.5-1.1c0.1,0,0.2,0,0.3,0c0.3,0,0.5,0.4,0.7,0.8c0.2,0.3,0.7,1.1,0.7,1.3c0,0.1-0.1,0.2-0.2,0.2
			c-0.1,0-0.2,0-0.3,0c-0.1,0-0.3-0.1-0.4-0.1c0,0-3,0.5-3.3,0.5c-0.5,0.1-0.6,0.2-0.6,0.7V47c0,0.5,0.2,0.7,0.7,0.7H160.3z
			 M153.7,52.3c-0.3,0-0.6,0.2-0.6,0.6v0.2c0,0.3,0.2,0.6,0.6,0.6h1.2c0.3,0,0.6-0.2,0.6-0.6v-0.2c0-0.3-0.2-0.6-0.6-0.6H153.7z
			 M153.2,56.1c0,0.4,0.2,0.6,0.6,0.6h1.2c0.3,0,0.6-0.2,0.6-0.6v-0.3c0-0.3-0.2-0.6-0.6-0.6h-1.2c-0.3,0-0.6,0.2-0.6,0.6V56.1z
			 M160,52.9c0-0.3-0.2-0.6-0.6-0.6h-1.2c-0.3,0-0.6,0.2-0.6,0.6v0.2c0,0.3,0.2,0.6,0.6,0.6h1.2c0.3,0,0.6-0.2,0.6-0.6V52.9z
			 M159.4,56.7c0.3,0,0.6-0.2,0.6-0.6v-0.3c0-0.3-0.2-0.6-0.6-0.6h-1.2c-0.3,0-0.6,0.2-0.6,0.6v0.3c0,0.4,0.2,0.6,0.6,0.6H159.4z"/>
		<path class="st1" d="M178,45.4c0.2,0,0.6,0.1,0.6,0.4c0,0.1-0.1,0.2-0.2,0.3c-0.5,0.3-0.5,0.7-0.6,1.6c0,0.3-0.1,0.6-0.2,1
			c0,0.1,0,0.2,0,0.3c0,0.3,0.2,0.5,0.5,0.5h0.3c1,0,1.9,0,2.7,0.5c1.2,0.8,1.5,2.2,1.5,3.5c0,2.2-0.4,5.4-1.4,7.3
			c-1,1.8-2.6,2.6-4.5,2.6c-0.5,0-0.9,0-1.1-0.6c-0.2-0.4-0.4-1.3-0.4-1.7c0-0.2,0.1-0.4,0.3-0.4c0.2,0,0.6,0.1,1.1,0.1
			c1.3,0,1.9-0.3,2.5-1.5c0.7-1.4,1.1-3.9,1.1-5.4c0-1.2-0.1-2.2-1.5-2.2c-1.3,0-1.6,0.2-1.8,0.9c-0.6,2.4-1.8,5-3.1,7.2
			c-0.5,0.9-1.7,2.7-2.4,3.4c-0.1,0.1-0.2,0.2-0.4,0.2c-0.4,0-2-0.9-2-1.5c0-0.2,0.2-0.4,0.3-0.6c1.9-2,3.3-4.1,4.3-6.7
			c0.2-0.4,0.6-1.5,0.6-1.8c0-0.2-0.2-0.3-0.3-0.3c-0.4,0-2.3,0.7-2.8,0.8c-0.1,0-0.3,0.2-0.5,0.2c-0.6,0-1-2.4-1-2.5
			c0-0.4,0.4-0.4,0.7-0.4c1.3-0.1,2.7-0.5,4-0.7c0.5-0.1,0.7-0.2,0.8-0.7c0.1-0.8,0.3-2.2,0.3-3.1c0-0.4,0-0.9,0-0.9
			c0-0.2,0.1-0.4,0.3-0.4C175.9,44.9,177.7,45.3,178,45.4z M188,53.4c0,0.6-1.5,1.4-2,1.4c-0.3,0-0.5-0.3-0.6-0.6
			c-0.9-2-1.7-3.5-3.2-5.1c-0.1-0.1-0.2-0.3-0.2-0.4c0-0.4,1.3-1.2,1.7-1.2C184.7,47.5,188,52.8,188,53.4z M187.7,47.2
			c0,0.4-0.8,1.1-1.2,1.1c-0.1,0-0.2-0.2-0.3-0.3c-0.5-0.6-1.1-1.3-1.7-1.8c-0.1-0.1-0.2-0.2-0.2-0.3c0-0.3,0.9-1,1.2-1
			C185.6,44.9,187.7,46.9,187.7,47.2z M189.9,45.5c0,0.4-0.9,1.1-1.2,1.1c-0.1,0-0.2-0.1-0.3-0.3c-0.6-0.6-1.1-1.2-1.7-1.8
			c-0.1-0.1-0.2-0.2-0.2-0.3c0-0.3,0.9-1,1.2-1C187.9,43.2,189.9,45.2,189.9,45.5z"/>
		<path class="st1" d="M200.6,56c0,0.3,0.1,0.4,0.3,0.6c0.5,0.5,2.5,3,2.5,3.6c0,0.4-1.1,1.4-1.5,1.4c-0.3,0-0.5-0.3-0.9-0.9
			c-0.3-0.4-0.6-1-1.2-1.7c-0.1-0.1-0.2-0.2-0.3-0.2c-0.2,0-0.3,0.1-0.4,0.2c-0.9,1.6-2,3.2-3.3,4.5c-0.2,0.2-0.5,0.5-0.7,0.5
			c-0.5,0-1.6-1.1-1.6-1.4c0-0.2,0.3-0.4,0.4-0.6c1.4-1.4,2.6-3.1,3.6-4.9c0-0.1,0.1-0.3,0.1-0.4c0-0.2-0.1-0.4-0.3-0.6
			c-0.9-0.9-1.9-1.7-3-2.4c-0.2-0.1-0.4-0.3-0.4-0.6c0-0.3,0.9-1.5,1.3-1.5c0.4,0,2.5,1.8,2.9,2.2c0.1,0.1,0.2,0.1,0.3,0.1
			c0.2,0,0.3-0.1,0.4-0.3c0.3-1,0.5-1.8,0.6-2.9c0-0.2,0.1-0.4,0.4-0.4c0.4,0,1.6,0.4,2,0.6c0.2,0.1,0.6,0.1,0.6,0.4
			c0,0.2-0.2,0.3-0.3,0.3c-0.4,0.2-0.4,0.4-0.5,0.8c-0.2,1-0.6,2-0.9,3C200.6,55.7,200.6,55.8,200.6,56z M199.7,47.3
			c0,0.5,0.2,0.7,0.7,0.7c0.8,0,1.6,0,2.3,0c0.7,0,0.7,0.3,0.7,1.2c0,0.9,0,1.2-0.7,1.2c-0.8,0-1.5,0-2.3,0h-3.6c-0.8,0-1.5,0-2.3,0
			c-0.7,0-0.7-0.3-0.7-1.2s0-1.2,0.7-1.2c0.7,0,1.4,0.1,2.1,0c0.5,0,0.7-0.2,0.7-0.7v-1.2c0-0.6,0-1.2-0.1-1.8c0-0.1,0-0.2,0-0.3
			c0-0.3,0.2-0.3,0.4-0.3c0.3,0,1.8,0.1,2.2,0.2c0.2,0,0.5,0,0.5,0.3c0,0.2-0.1,0.2-0.3,0.4c-0.2,0.2-0.3,0.6-0.3,1.4V47.3z
			 M206.5,58.6c-0.3,0-0.4-0.3-0.5-0.6c-0.5-1.4-1.1-2.8-1.8-4.2c-0.1-0.1-0.2-0.3-0.2-0.5c0-0.4,1.4-0.9,1.7-0.9
			c0.3,0,0.4,0.2,0.5,0.4c0.3,0.6,0.6,1.2,0.9,1.9c0.2,0.5,1,2.4,1,2.9C208.1,58.3,206.7,58.6,206.5,58.6z M212.4,47.9
			c0,0.5,0.2,0.6,0.6,0.6c0.4,0,1.1,0,1.5,0c0.6,0,0.6,0.3,0.6,1.2c0,0.9,0,1.2-0.6,1.2c-0.4,0-1,0-1.5,0c-0.5,0-0.6,0.2-0.6,0.6v9
			c0,0.6,0,1.2,0,1.8c0,0.7-0.1,1.5-0.7,1.8c-0.8,0.6-2.5,0.7-3.5,0.7c-0.6,0-1.1,0-1.3-0.4c-0.2-0.4-0.3-1-0.3-1.4
			c0-0.4,0-0.6,0.5-0.6c0.2,0,0.7,0.1,1.3,0.1c1.4,0,1.4-0.5,1.4-1.8v-9c0-0.5-0.2-0.7-0.7-0.7h-2c-0.8,0-1.7,0.1-2.4,0.1
			c-0.6,0-0.6-0.3-0.6-1.2c0-0.9,0-1.2,0.6-1.2c0.8,0,1.6,0.1,2.4,0.1h2c0.5,0,0.7-0.2,0.7-0.7v-2.1c0-0.6,0-1.2-0.1-1.8
			c0-0.1,0-0.2,0-0.2c0-0.3,0.2-0.3,0.4-0.3c0.3,0,1.7,0.1,2,0.2c0.3,0,0.7,0,0.7,0.3c0,0.2-0.1,0.2-0.3,0.4
			c-0.2,0.2-0.3,0.7-0.3,1.4V47.9z"/>
		<path class="st1" d="M232.1,46.1h4.8c1,0,2-0.1,2.9-0.1c0.6,0,0.6,0.3,0.6,1.2s0,1.2-0.6,1.2c-1,0-1.9,0-2.9,0h-12.8
			c-0.5,0-0.6,0.2-0.6,0.7v3.9c0,3.4-0.4,7.4-1.8,10.5c-0.5,1.1-0.7,1.4-1.1,1.4c-0.6,0-1.8-0.6-1.8-1.1c0-0.1,0.1-0.3,0.2-0.4
			c1.7-2.8,2-6.9,2-10.1v-3.7c0-0.7,0-1.5,0-2.2c0-0.9,0.5-1.1,1.3-1.1c0.8,0,1.6,0,2.4,0h3.6c0.5,0,0.7-0.2,0.7-0.6
			c0-0.5,0-1.2-0.1-1.7c0-0.1,0-0.2,0-0.2c0-0.3,0.2-0.3,0.5-0.3c0.3,0,1.8,0.1,2.2,0.2c0.2,0,0.6,0,0.6,0.3c0,0.2-0.1,0.2-0.3,0.4
			c-0.3,0.2-0.3,0.5-0.3,1.4C231.5,45.9,231.7,46.1,232.1,46.1z M227.1,54.1c0.2,0,0.6,0.1,0.6,0.4c0,0.1-0.2,0.3-0.3,0.4
			c-0.2,0.2-0.2,0.3-0.3,0.6c-0.2,2.1-0.7,4.5-1.5,6.5c-0.1,0.3-0.3,0.6-0.6,0.6c-0.4,0-1.6-0.3-1.6-0.8c0-0.2,0.1-0.5,0.2-0.6
			c0.8-2.2,1.2-4.5,1.4-6.9c0-0.2,0.1-0.5,0.4-0.5C225.6,53.8,226.7,54,227.1,54.1z M233.8,62c0.3,0,0.9,0,1.1-0.2
			c0.3-0.3,0.6-1.9,0.7-2.4c0-0.5,0.1-0.7,0.6-0.7c0.5,0,1.7,0.2,1.7,0.9c0,0.9-0.5,2.6-0.8,3.4c-0.6,1.4-1.5,1.4-2.9,1.4H231
			c-1.9,0-2.8-0.2-2.8-2.1c0-0.6,0-1.2,0-1.8v-5.3c0-0.8,0-1.7-0.1-2.5c0-0.1,0-0.2,0-0.2c0-0.3,0.2-0.4,0.4-0.4
			c0.3,0,1.8,0.1,2.2,0.1c0.2,0,0.4,0.1,0.4,0.3c0,0.2-0.1,0.2-0.3,0.3c-0.3,0.2-0.3,0.9-0.3,1.7v6.2c0,1,0.2,1.1,1.1,1.1H233.8z
			 M232.9,55.5c-0.4,0-0.5-0.3-0.6-0.6c-0.5-1.7-1.3-3.4-2.1-5c-0.1-0.1-0.1-0.2-0.1-0.4c0-0.5,1.2-0.8,1.6-0.8
			c0.2,0,0.4,0.1,0.5,0.3c0.4,0.6,1.1,2.2,1.4,2.8c0.2,0.5,1.1,2.5,1.1,2.9C234.5,55.3,233.1,55.5,232.9,55.5z M238.2,53.1
			c0.6,1.1,1.2,2.6,1.7,3.8c0.2,0.5,1,2.8,1,3.3c0,0.6-1.4,0.9-1.6,0.9c-0.4,0-0.5-0.4-0.5-0.7c-0.6-2.2-1.5-4.3-2.4-6.3
			c-0.1-0.1-0.2-0.4-0.2-0.6c0-0.4,1.2-0.8,1.5-0.8C237.9,52.7,238.1,52.9,238.2,53.1z"/>
		<path class="st1" d="M253.8,45.8c0.2,0,0.5,0.1,0.5,0.3c0,0.2-0.1,0.2-0.3,0.4c-0.8,0.6-1.1,8.2-1.1,9.6c0,1.9,0,4.8,2.5,4.8
			c1.7,0,3.5-1,4.5-2.3c0.8-1,1.3-2.3,1.5-3.6c0.1-0.4,0.1-0.8,0.5-0.8c0.5,0,2,1.2,2,1.9c0,0.7-0.6,2.2-1,2.8
			c-1.4,2.7-4.2,4.6-7.3,4.6c-1.6,0-3.2-0.6-4.2-1.8c-1.1-1.4-1.2-3.8-1.2-5.5c0-1.9,0.1-3.8,0.2-5.7c0.1-1.1,0.3-3.4,0.3-4.4v-0.3
			c0-0.4,0-0.6,0.4-0.6C251.5,45.2,253.3,45.6,253.8,45.8z"/>
		<path class="st1" d="M273.6,47.7c3.5-0.2,7-0.6,10.5-1c1.8-0.2,3.6-0.5,5.4-0.7c0.1,0,0.2,0,0.3,0c0.4,0,0.4,0.3,0.5,0.6
			c0.1,0.4,0.2,1.3,0.2,1.8c0,0.5-0.5,0.5-1.1,0.5c-1.4,0-2.6,0-4,0.5c-1.9,0.7-3.2,1.8-4.1,3.6c-0.7,1.3-1.2,2.8-1.2,4.2
			c0,2.8,1.8,3.5,4.2,3.5c0.4,0,1,0,1.2,0c0.4,0,0.6,0,0.6,0.4c0,0.5-0.2,1.7-0.4,2.1c-0.2,0.2-0.4,0.2-0.7,0.2
			c-4.1,0-7.6-1.3-7.6-6c0-2.4,1-5.1,2.6-6.9c0.1-0.1,0.4-0.4,0.4-0.6c0-0.2-0.2-0.3-0.4-0.3c-0.2,0-1.3,0.2-1.5,0.2
			c-1.6,0.2-3.8,0.6-5.3,1c-0.1,0-0.2,0-0.4,0c-0.6,0-0.8-2.3-0.8-2.5C272.3,47.7,272.6,47.8,273.6,47.7z"/>
		<path class="st1" d="M302.1,48.3c0.2,0,0.5,0.1,0.5,0.3c0,0.1-0.1,0.2-0.2,0.3c-0.3,0.3-0.4,0.7-0.4,1.2c-0.1,0.8-0.2,1.7-0.2,2.5
			c0,1.6,0.1,3.5,0.8,5c0.3,0.7,1.1,2.1,1.9,2.1c0.7,0,1.4-1.1,1.7-1.6c0.1-0.2,0.3-0.6,0.6-0.6c0.5,0,1.7,1,1.7,1.4
			c0,0.5-1.1,1.7-1.4,2.1c-0.7,0.8-1.4,1.5-2.6,1.5c-1.8,0-3.2-1.6-4-3.1c-1.2-2.3-1.4-5.3-1.4-7.8c0-0.4,0.1-3.4,0.1-3.6
			c0-0.2,0.2-0.3,0.3-0.3C299.9,47.7,301.7,48.2,302.1,48.3z M311.9,47.8c0.5,0,2.5,1.5,3.7,3.7c0.7,1.3,1.4,3.6,1.4,5
			c0,0.5-0.2,0.6-0.6,0.7c-0.4,0.1-0.9,0.2-1.3,0.2c-0.8,0-0.7-0.3-0.8-0.9c-0.3-2.8-1.3-5.1-3.6-6.8c-0.1-0.1-0.2-0.2-0.2-0.4
			C310.5,48.8,311.4,47.8,311.9,47.8z"/>
		<path class="st1" d="M337.9,47.4c0,0.2-0.3,0.3-0.5,0.5c-1.3,0.9-2.4,2-3.5,3.2c-0.1,0.1-0.2,0.3-0.2,0.4c0,0.2,0.2,0.3,0.4,0.3
			c0.1,0,0.2,0,0.3,0c0.3-0.1,0.7-0.1,1-0.1c1,0,2.1,0.3,3,0.7c1.9,1,2.9,2.6,2.9,4.7c0,4.2-3.8,6.5-7.6,6.5c-2,0-4.8-0.8-4.8-3.3
			c0-1.7,1.5-2.9,3.1-2.9c1.2,0,2.5,0.7,3.2,1.7c0.4,0.6,0.4,0.9,0.4,1.5c0,0.2,0.1,0.3,0.3,0.3c0.6,0,2.9-1.3,2.9-3.7
			c0-2.3-2-3.3-4.1-3.3c-2.2,0-3.8,0.8-5.4,2.4c-0.9,0.9-1.8,1.9-2.7,2.9c-0.1,0.1-0.1,0.2-0.3,0.2c-0.5,0-1.7-1.3-1.7-1.7
			c0-0.3,0.4-0.6,0.6-0.7c2.5-2.1,5.3-5.1,7.5-7.5c0.2-0.2,0.6-0.6,0.6-0.9c0-0.2-0.2-0.3-0.4-0.3c-0.1,0-0.4,0.1-0.6,0.1
			c-0.6,0.1-4,0.8-4.3,0.8c-0.5,0-0.6-1.8-0.6-2.2c0-0.6,0-0.6,0.7-0.6h0.6c1.5,0,4.7-0.3,6.1-0.9c0.3-0.1,0.6-0.3,0.9-0.3
			C336.5,45.2,337.9,47,337.9,47.4z M331.8,59.3c-0.5,0-1,0.4-1,1c0,0.9,1.2,1.3,1.9,1.3c0.5,0,0.6-0.4,0.6-0.8
			C333.3,60,332.6,59.3,331.8,59.3z"/>
		<path class="st1" d="M366,48.5c1.6,1.6,2.4,3.6,2.4,5.9c0,3.3-1.8,6.2-4.7,7.8c-0.6,0.3-2,1-2.6,1c-0.6,0-1.6-1.5-1.6-2
			c0-0.2,0.4-0.3,0.6-0.3c3.1-0.7,5.6-2.8,5.6-6.2c0-2.6-1.3-4.9-3.8-5.7c-0.2-0.1-0.7-0.2-0.9-0.2c-0.6,0-0.6,0.5-0.6,0.9
			c-0.3,3.5-1.1,7.8-3.4,10.5c-0.8,1-1.8,1.8-3.2,1.8c-1.5,0-2.6-1.1-3.3-2.3c-0.5-1-0.7-2.3-0.7-3.4c0-5.6,4.3-10.1,10-10.1
			C362.1,46.1,364.3,46.8,366,48.5z M356.7,49.2c-2.7,1.3-4.3,3.9-4.3,6.9c0,0.9,0.3,3.1,1.5,3.1c1.2,0,2.5-2.7,3.2-5.2
			c0.3-1.2,0.8-3.5,0.8-4.7c0-0.2-0.1-0.4-0.4-0.4C357.3,48.9,356.9,49.1,356.7,49.2z"/>
		<path class="st1" d="M384.6,45.2c0.2,0,0.6,0.1,0.6,0.4c0,0.1-0.1,0.2-0.2,0.3c-0.5,0.3-0.5,0.7-0.6,1.6c0,0.3-0.1,0.6-0.2,1
			c0,0.1,0,0.2,0,0.3c0,0.3,0.2,0.5,0.5,0.5c0.1,0,0.2,0,0.3,0c1,0,1.9,0,2.7,0.6c1.2,0.8,1.5,2.2,1.5,3.5c0,2.2-0.4,5.4-1.4,7.4
			c-1,1.8-2.6,2.6-4.5,2.6c-0.5,0-0.8-0.1-1.1-0.6c-0.2-0.4-0.4-1.2-0.4-1.7c0-0.2,0.1-0.4,0.3-0.4s0.6,0.1,1.1,0.1
			c1.3,0,1.9-0.3,2.5-1.5c0.7-1.4,1.1-3.9,1.1-5.4c0-1.2-0.1-2.2-1.5-2.2c-1.4,0-1.6,0.2-1.8,0.9c-0.6,2.4-1.8,5-3,7.1
			c-0.6,0.9-1.7,2.7-2.4,3.5c-0.1,0.1-0.3,0.2-0.4,0.2c-0.4,0-1.9-0.9-1.9-1.5c0-0.2,0.2-0.4,0.3-0.6c1.9-2,3.3-4.1,4.3-6.7
			c0.1-0.3,0.6-1.6,0.6-1.8c0-0.2-0.1-0.3-0.3-0.3c-0.3,0-2.3,0.7-2.7,0.8c-0.1,0-0.4,0.1-0.5,0.1c-0.6,0-1-2.4-1-2.5
			c0-0.4,0.4-0.4,0.7-0.4c1.2-0.1,2.8-0.5,4-0.7c0.5-0.1,0.7-0.2,0.8-0.7c0.1-0.8,0.2-2.2,0.2-3.1c0-0.3,0-0.5,0-0.8
			c0-0.2,0-0.5,0.3-0.5C382.5,44.7,384.3,45.1,384.6,45.2z M395.1,53c0,0.5-1.5,1.4-2,1.4c-0.3,0-0.4-0.3-0.6-0.6
			c-1-2.1-1.6-3.4-3.2-5.1c-0.1-0.1-0.2-0.2-0.2-0.4c0-0.4,1.4-1.3,1.8-1.3C391.8,47,395.1,52.4,395.1,53z"/>
		<path class="st1" d="M409.6,58.3c-0.5,0-0.6-0.1-0.6-0.8c0-2.4,1.5-3.8,3-5.2c0.8-0.7,1.4-1.4,1.4-2.2c0-1.2-1-2-2.8-2
			c-1.6,0-2.9,0.9-3.7,1.8c-0.2,0.2-0.3,0.4-0.5,0.4c-0.1,0-0.3-0.1-0.5-0.3l-1-1c-0.2-0.2-0.3-0.4-0.3-0.5c0-0.1,0.1-0.3,0.3-0.5
			c1.3-1.5,3.4-2.5,5.9-2.5c3.4,0,5.5,1.9,5.5,4.2c0,2.1-1.2,3.1-2.8,4.5c-1.1,0.9-1.9,1.9-1.9,3.4c0,0.6-0.1,0.7-0.5,0.7H409.6z
			 M412.2,61.7c0,1-0.6,1.8-1.8,1.8c-0.9,0-1.7-0.6-1.7-1.6c0-1.1,0.7-1.9,1.8-1.9C411.5,60,412.2,60.7,412.2,61.7z"/>
	</g>
</g>
</svg>
