<?xml version="1.0" encoding="utf-8"?>
<!-- Generator: Adobe Illustrator 28.1.0, SVG Export Plug-In . SVG Version: 6.00 Build 0)  -->
<svg version="1.1" id="レイヤー_1" xmlns="http://www.w3.org/2000/svg" xmlns:xlink="http://www.w3.org/1999/xlink" x="0px"
	 y="0px" viewBox="0 0 276.7 139.3" style="enable-background:new 0 0 276.7 139.3;" xml:space="preserve">
<style type="text/css">
	.st0{fill:none;}
	.st1{fill:#FFFFFF;}
	.st2{fill:#F3A11A;}
	.st3{fill:#4D4D4D;}
	.st4{fill:#DADBDB;}
	.st5{fill:#F8CA7F;}
	.st6{fill:#251E1C;}
	.st7{fill:#66D7ED;}
	.st8{fill:url(#SVGID_1_);}
	.st9{fill:#727171;}
</style>
<pattern  x="-545" y="-314.1" width="5" height="5.2" patternUnits="userSpaceOnUse" id="新規パターンスウォッチ_15" viewBox="0 -5.2 5 5.2" style="overflow:visible;">
	<g>
		<rect y="-5.2" class="st0" width="5" height="5.2"/>
		<rect x="0" y="-5.2" class="st1" width="5" height="5.2"/>
		<circle class="st2" cx="2.5" cy="-2.6" r="1.1"/>
	</g>
</pattern>
<g>
	<g>
		<path class="st3" d="M187,46.8l-2.4,1c-1,0.4-2.2-0.1-2.6-1.1l0,0c-0.4-1,0.1-2.2,1.1-2.6l2.4-1c1-0.4,2.2,0.1,2.6,1.1l0,0
			C188.5,45.2,188,46.4,187,46.8z"/>
		<path class="st3" d="M186.3,45c-0.3,0-0.6-0.3-0.7-0.6c0-0.4,0.2-0.7,0.6-0.8c1.4-0.2,2.2-0.7,2.7-1.6c1.5-3.3-2.8-10.8-4.6-13.4
			c-0.2-0.3-0.1-0.7,0.2-1c0.3-0.2,0.7-0.1,1,0.2c0.3,0.4,6.9,10.1,4.8,14.8C189.5,43.9,188.3,44.7,186.3,45
			C186.4,45,186.3,45,186.3,45z"/>
		<polygon class="st4" points="185.3,122.5 219,124.5 257.7,114.8 254.4,109.3 228.6,109.3 183.6,118.9 183.6,122.5 		"/>
		<path class="st5" d="M152.5,36.5c-0.4-0.6-0.8-1.1-1.2-1.7c-1.4-2.3-2.2-5-2.4-7.6c-0.2-3-0.5-6,0.1-9c1-4.7,2.3-9,5.7-12.2
			c1-0.9,2.1-1.7,3.2-2.3c0.3-0.2,0.7-0.3,1.1-0.5c0.2-0.1,0.4-0.1,0.6-0.2c0.5-0.2,1.2-0.6,1.8-0.9c0.9-0.4,1.8-0.8,2.7-1.1
			c1.6-0.5,3.3-0.9,5-1c2.7-0.2,5.3,0.4,7.7,1.5c1.7,0.8,3.3,2,4.6,3.3c0.6,0.6,1.1,1.2,1.5,1.8c0.6,1,1.9,4,5.1,6.1
			c2.4,1.5,1.5,5.4,0.2,7.9C188.2,20.7,168.2,47.8,152.5,36.5z"/>
		<path class="st5" d="M148.6,94c-0.4-3-1-6.1-1.7-9c-0.1-0.6-0.4-1-0.9-1.2c-0.2-0.1-0.3-0.1-0.5-0.1c-0.1,0-0.3-0.3-0.4-0.4
			c-0.8-0.7-1.9-1.1-3-1.1c-0.4,0-0.9,0.1-1.3,0.3c-5.9,0.7-11.8,1.9-17.5,3.5c-2.5,0.7-5.2,1.4-7.3,3c-2.1,1.6-3.1,4.1-3.4,6.7
			c-0.7,4.9,0.2,9.8,1.5,14.5c1.3,4.8,3.7,10.6,5,16l30.7-6.1v-0.6C149.7,113.3,149.5,100.1,148.6,94z"/>
		<path class="st1" d="M220.7,74.9l-10.4-3.4c-0.7-0.2-1.4,0.2-1.6,0.9l-4,17.2c-1.8-2.5-8.6-12.3-10-15.1
			c-7.3-14.4-11.8-17.1-11.8-17.1c-10-7.1-34.2,0-34.2,0l-2.6-0.3c-2.2,0.4-5.8,3-5.8,3c-7.7,5-5,16-5,16
			c3.9,21.8,7.7,45.1,7.7,45.1l45.5-8.7l2.4-16.4l10.3,10.3c9.4,8.8,15.1-6.5,15.1-6.5l5.8-22.8C222.3,76.3,221.7,75.3,220.7,74.9z"
			/>
		<path class="st3" d="M138.8,97.1c-0.3,0-0.6-0.2-0.7-0.6c-1.2-7.2-2.4-14-3.5-20.1c-0.1-0.3-0.7-3-0.4-6.3
			c0.4-4.6,2.3-8.2,5.7-10.4c0.3-0.2,3.8-2.7,6.1-3.1c0.1,0,0.1,0,0.2,0l2.4,0.3c1-0.3,6.7-1.8,13.4-2.7c9.9-1.2,17-0.3,21.3,2.8
			c0.2,0.1,0.8,0.5,1.9,1.7c0.3,0.3,0.3,0.7,0,1c-0.3,0.3-0.7,0.3-1,0c-1.1-1.1-1.7-1.5-1.7-1.5c0,0,0,0,0,0
			c-9.6-6.8-33.4,0.1-33.7,0.1c-0.1,0-0.2,0-0.3,0l-2.5-0.3c-2,0.4-5.4,2.9-5.4,2.9c0,0,0,0,0,0c-7.2,4.6-4.7,15.2-4.7,15.3
			c0,0,0,0,0,0c1.1,6.1,2.3,12.8,3.5,20.1c0.1,0.4-0.2,0.7-0.6,0.8C138.9,97.1,138.9,97.1,138.8,97.1z"/>
		<path class="st3" d="M143,121.8c-0.3,0-0.6-0.2-0.7-0.6c0-0.1-1.4-8.5-3.4-19.7c-0.1-0.4,0.2-0.7,0.6-0.8c0.4-0.1,0.7,0.2,0.8,0.6
			c1.9,11.3,3.4,19.7,3.4,19.7c0.1,0.4-0.2,0.7-0.6,0.8C143.1,121.8,143.1,121.8,143,121.8z"/>
		<path class="st3" d="M188.5,113.4c0,0-0.1,0-0.1,0c-0.4-0.1-0.6-0.4-0.6-0.8l2.4-16.4c0-0.3,0.2-0.5,0.5-0.6
			c0.2-0.1,0.5,0,0.7,0.2l10.3,10.3c0.3,0.3,0.3,0.7,0,1c-0.3,0.3-0.7,0.3-1,0l-9.3-9.3l-2.2,15
			C189.1,113.1,188.8,113.4,188.5,113.4z"/>
		<path class="st3" d="M202,87.8c-0.2,0-0.4-0.1-0.6-0.3c-1.8-2.4-5.9-9.7-7.4-12.6c-2.8-5.5-5.5-9.9-8-13.1c-0.2-0.3-0.2-0.7,0.1-1
			c0.3-0.2,0.7-0.2,1,0.1c2.6,3.3,5.3,7.8,8.1,13.4c1.4,2.8,5.5,10,7.3,12.4c0.2,0.3,0.2,0.7-0.1,1C202.3,87.8,202.2,87.8,202,87.8z
			"/>
		<path class="st1" d="M224.1,109.2c-0.3-0.9-0.8-1.8-1.4-2.6l-0.8-1.1c-0.8-1.1-2-2-3.3-2.3c-1.4-0.4-2.6-0.3-2.6-0.3l-9.6,0.9
			c-4.4,0.9-16.4,1.1-19,1.1c-0.2-0.6-0.3-0.9-0.3-0.9l-28.3,1.3c-2.8-3.6-6.4-28.3-6.4-28.3c-1.4-11.7-8.2-13.4-8.2-13.4l-0.6,47.1
			l2.8,6.4c2.2,5,10.2,3,10.2,3l31.5-4.1c0.3-0.7,0.5-1.5,0.5-2.5l1.9-0.3c3.6,3.5,15.3,0.8,15.3,0.8l2.2-0.4l2.5,1.9
			c4.1,3.2,4-0.3,4-0.3c1.4,1.3,2,1.7,3,1.7c1.8,0,1.5-2,1.5-2c1,1.3,2.2,1.1,2.7,1c1.1-0.4,0.7-2.3,0.7-2.3
			c0.8,0.8,1.8,0.4,1.8,0.4C225.4,113.5,224.7,110.9,224.1,109.2z"/>
		<path class="st3" d="M217.6,117.5c-1,0-1.7-0.4-2.5-1.1c-0.2,0.3-0.4,0.6-0.8,0.8c-1,0.5-2.3,0.1-4.1-1.3l-2.2-1.7l-1.9,0.4
			c-0.6,0.1-11.6,2.5-15.7-0.8l-4.5,0.8c-0.4,0.1-0.7-0.2-0.8-0.5c0-0.2-0.9-3.7-0.2-6.6c0.1-0.4,0.5-0.6,0.8-0.5
			c0.4,0.1,0.6,0.5,0.5,0.8c-0.4,1.9-0.1,4.2,0.1,5.4l4.2-0.7c0.2,0,0.4,0,0.6,0.2c2.7,2.6,11.5,1.4,14.7,0.7c0,0,0,0,0,0l2.2-0.4
			c0.2,0,0.4,0,0.6,0.1l2.5,1.9c1.8,1.4,2.5,1.2,2.6,1.2c0.2-0.1,0.3-0.6,0.3-0.9c0-0.3,0.2-0.5,0.4-0.6c0.3-0.1,0.5-0.1,0.8,0.1
			c1.3,1.2,1.8,1.6,2.5,1.5c0.5,0,0.6-0.2,0.7-0.2c0.2-0.3,0.2-0.8,0.2-0.9c0-0.3,0.1-0.6,0.4-0.7c0.3-0.1,0.6,0,0.8,0.2
			c0.8,0.9,1.6,0.9,2,0.7c0.3-0.1,0.4-1.1,0.3-1.6c-0.1-0.3,0.1-0.6,0.4-0.7c0.3-0.1,0.6-0.1,0.8,0.1c0.4,0.4,1,0.3,1.1,0.2
			c0.1-0.2,0.2-1.2-0.8-3.8c-0.3-0.9-0.7-1.7-1.3-2.5l-0.8-1.1c-0.7-1-1.8-1.8-2.9-2.1c-1.3-0.4-2.4-0.3-2.4-0.3l-6.1,0.4
			c-0.4,0-0.7-0.3-0.7-0.6c0-0.4,0.3-0.7,0.6-0.7l6.1-0.4c0,0,1.3-0.1,2.8,0.3c1.5,0.4,2.8,1.3,3.7,2.6l0.8,1.1
			c0.6,0.9,1.1,1.8,1.5,2.8c1.2,3.3,1.2,5.1,0,5.5c-0.3,0.1-0.8,0.2-1.3,0.1c-0.1,1.3-0.8,1.7-1.3,1.9c-0.3,0.1-1.3,0.3-2.4-0.3
			c-0.1,0.2-0.2,0.4-0.3,0.6C219.1,117.1,218.6,117.5,217.6,117.5C217.6,117.5,217.6,117.5,217.6,117.5z"/>
		<path class="st3" d="M186.8,105.5c-0.4,0-0.7-0.3-0.7-0.7c0-0.4,0.3-0.7,0.7-0.7c0.1,0,14.5-0.1,19.4-1.1c0.4-0.1,0.7,0.2,0.8,0.5
			c0.1,0.4-0.2,0.7-0.5,0.8C201.5,105.3,187.4,105.5,186.8,105.5C186.8,105.5,186.8,105.5,186.8,105.5z"/>
		<path class="st3" d="M214.6,115.8c-0.2,0-0.4-0.1-0.6-0.3l-2.5-3.6c-0.1-0.1-0.2-0.2-0.3-0.3c-0.8-1-1.3-1.1-1.4-1.2h-4.9
			c-0.4,0-0.7-0.3-0.7-0.7s0.3-0.7,0.7-0.7h5c0.3,0,1.1,0.2,2.4,1.6c0.1,0.1,0.2,0.3,0.3,0.4l2.5,3.6c0.2,0.3,0.1,0.7-0.2,1
			C214.9,115.8,214.7,115.8,214.6,115.8z M210,110.4L210,110.4L210,110.4z M210,110.4C210,110.4,210,110.4,210,110.4
			C210,110.4,210,110.4,210,110.4z M209.9,110.4L209.9,110.4L209.9,110.4z"/>
		<path class="st3" d="M219.2,115.5c-0.3,0-0.5-0.1-0.6-0.4l-1.7-3.4c-0.5-1-1.1-1.9-1.9-2.6l-0.5-0.5c-0.7-0.7-1.5-1.1-2.5-1.3
			c-1.6-0.3-3.6-0.4-3.6-0.4c-0.4,0-0.7-0.3-0.7-0.7c0-0.4,0.3-0.7,0.7-0.7c0.1,0,2.1,0.1,3.8,0.5c1.2,0.2,2.3,0.8,3.2,1.7l0.5,0.5
			c0.9,0.9,1.6,1.9,2.1,3l1.7,3.4c0.2,0.3,0,0.8-0.3,0.9C219.4,115.5,219.3,115.5,219.2,115.5z"/>
		<path class="st3" d="M222.6,114.2c-0.3,0-0.5-0.2-0.6-0.4l-1.4-3.2c-0.3-0.7-0.7-1.4-1.1-2l-1-1.4c-0.5-0.8-1.3-1.4-2.3-1.6
			c-1.3-0.3-2.6-0.3-2.7-0.3c-0.4,0-0.7-0.3-0.7-0.7c0-0.4,0.3-0.7,0.7-0.7c0.1,0,1.5-0.1,3,0.3c1.2,0.3,2.3,1.1,3.1,2.1l1,1.4
			c0.5,0.7,0.9,1.5,1.3,2.2l1.4,3.2c0.2,0.3,0,0.8-0.3,0.9C222.8,114.1,222.7,114.2,222.6,114.2z"/>
		<path class="st1" d="M175.9,55.5c-1.7-3.9-0.2-8.6-0.2-8.6c10.5-2,9.8-19.8,9.8-19.8c0-4.7,0-5.2,0-5.2
			c-12.3,1.7-15.3-11.5-15.3-11.5c-9,6.1-12.1,21.8-12.1,21.8l0.2,4.6c0.7,7.8-1.4,14.3-1.4,14.3c-1.5,3.6-8.6,6.6-8.6,6.6
			c6.4,0.8,12.6,5.7,12.6,5.7c7.7,7.5,16.4,6.4,16.4,6.4c8.9-1.9,1.2-12.5,1.2-12.5L175.9,55.5z"/>
		<path class="st3" d="M183.8,27.5c0,0.6-0.5,1.1-1.1,1.1c-0.6,0-1.1-0.5-1.1-1.1c0-0.6,0.5-1.1,1.1-1.1
			C183.3,26.4,183.8,26.9,183.8,27.5z"/>
		<path class="st3" d="M173,27.2c0,0.6-0.5,1.1-1.1,1.1c-0.6,0-1.1-0.5-1.1-1.1c0-0.6,0.5-1.1,1.1-1.1C172.5,26.1,173,26.6,173,27.2
			z"/>
		<path class="st3" d="M178.5,33.9l1.2,0c0.4,0,0.7,0.3,0.7,0.7c0,0.4-0.3,0.7-0.7,0.7l-1.2,0c-0.4,0-0.7-0.3-0.7-0.7
			C177.8,34.2,178.1,33.9,178.5,33.9z"/>
		<path class="st3" d="M175.7,47.5C175.7,47.5,175.7,47.5,175.7,47.5c-8.3-0.7-12.7-6-12.9-6.2c-0.2-0.3-0.2-0.7,0.1-1
			c0.3-0.2,0.7-0.2,1,0.1l0,0c0,0.1,4.3,5.1,11.9,5.7c0.4,0,0.7,0.4,0.6,0.7C176.4,47.3,176.1,47.5,175.7,47.5z"/>
		<path class="st6" d="M158.5,43.4C158.5,43.4,158.4,43.4,158.5,43.4c-0.4,0-0.7-0.4-0.7-0.7c0.1-2,0.1-4,0-5.8l-1.7-3.1
			c-0.2-0.3-0.1-0.8,0.3-0.9c0.3-0.2,0.8-0.1,0.9,0.3l1.8,3.2c0,0.1,0.1,0.2,0.1,0.3c0.2,2,0.2,4.1,0.1,6.2
			C159.1,43.1,158.8,43.4,158.5,43.4z"/>
		<path class="st3" d="M160.2,67.4c-0.1,0-0.3,0-0.4-0.1c-3.4-2.5-5.4-5.2-5.7-5.6c-1.6-1.7-2.4-2.3-5.9-3.5
			c-0.3-0.1-0.5-0.3-0.5-0.6c0-0.3,0.2-0.5,0.4-0.7c0,0,1.1-0.5,2.4-1.2c3.1-1.7,5.1-3.5,5.8-5.1c0,0,0-0.1,0-0.1c0,0,0.6-1.1,1-4.2
			c0-0.4,0.4-0.6,0.8-0.6c0.4,0,0.6,0.4,0.6,0.8c-0.4,3.2-1,4.4-1.2,4.7c-1,2.3-4,4.4-6.4,5.7c-0.4,0.2-0.7,0.4-1,0.6
			c2.4,0.9,3.4,1.7,4.9,3.3c0,0,0,0.1,0.1,0.1c0,0,2,2.8,5.4,5.3c0.3,0.2,0.4,0.7,0.1,1C160.7,67.3,160.5,67.4,160.2,67.4z"/>
		<path class="st3" d="M176.4,57.8c-0.2,0-0.5-0.1-0.6-0.3c-2.3-3.9-0.8-10.5-0.7-10.8c0.1-0.3,0.3-0.5,0.6-0.5
			c9.9-1.6,9.2-18.9,9.2-19.1c0-0.4,0.3-0.7,0.7-0.7c0.4,0,0.7,0.3,0.7,0.7c0,0.2,0.2,4.7-1,9.5c-1.5,6.3-4.6,10.1-9,11
			c-0.3,1.5-1.1,6.4,0.6,9.3c0.2,0.3,0.1,0.8-0.2,0.9C176.6,57.8,176.5,57.8,176.4,57.8z"/>
		<path class="st3" d="M187.5,22.3c-4.2,0-7.7-1.9-10.3-5.7c-2.1-3-2.8-6-2.9-6.1c-0.1-0.4,0.1-0.7,0.5-0.8c0.4-0.1,0.7,0.1,0.8,0.5
			c0,0,0.7,2.9,2.7,5.7c2.6,3.6,6,5.3,10.1,5c0.4,0,0.7,0.3,0.7,0.6c0,0.4-0.3,0.7-0.6,0.7C188.2,22.3,187.9,22.3,187.5,22.3z"/>
		<path class="st3" d="M185.4,25.1C185.4,25.1,185.4,25.1,185.4,25.1c-0.4,0-0.7-0.3-0.7-0.7c0-2.1,0.4-4.6,0.4-4.7
			c0.1-0.4,0.4-0.6,0.8-0.6c0.4,0.1,0.6,0.4,0.6,0.8c0,0-0.4,2.5-0.4,4.5C186.1,24.8,185.8,25.1,185.4,25.1z"/>
		<path class="st3" d="M190.8,93.9c0,0-0.1,0-0.1,0c-0.4-0.1-0.6-0.4-0.6-0.8c0.7-3.9,0-7.4,0-7.5l-3.5-15.5
			c-0.1-0.4,0.1-0.7,0.5-0.8c0.4-0.1,0.7,0.1,0.8,0.5l3.5,15.5c0,0.2,0.8,3.9,0,8C191.5,93.6,191.2,93.9,190.8,93.9z"/>
		<path class="st3" d="M152.2,110.7c-0.2,0-0.5-0.1-0.6-0.4c-0.2-0.3-0.1-0.8,0.3-0.9l4.4-2.5c0.3-0.2,0.8-0.1,0.9,0.3
			c0.2,0.3,0.1,0.8-0.3,0.9l-4.4,2.5C152.4,110.7,152.3,110.7,152.2,110.7z"/>
		<path class="st4" d="M232.6,84.4L219,124.5l41.2-6.9l15.7-39.3c0.4-1.1-0.2-2.3-1.3-2.6c-0.3-0.1-0.5-0.1-0.8,0l-37,4.9
			C235.2,80.6,233.1,83,232.6,84.4z"/>
		<path class="st3" d="M264.8,106.6c-0.1,0-0.2,0-0.3-0.1c-0.4-0.1-0.5-0.5-0.4-0.9l11.1-27.6c0.1-0.3,0.1-0.7-0.1-1
			c-0.2-0.3-0.5-0.6-0.8-0.7c-0.1,0-0.3-0.1-0.5,0l-33.5,4.5c-0.4,0.1-0.7-0.2-0.8-0.6c-0.1-0.4,0.2-0.7,0.6-0.8l33.5-4.5
			c0.4-0.1,0.8,0,1.1,0.1c0.7,0.2,1.3,0.7,1.6,1.4c0.3,0.7,0.4,1.4,0.1,2.1c0,0,0,0,0,0l-11.1,27.6
			C265.3,106.4,265,106.6,264.8,106.6z"/>
		<path class="st3" d="M222.5,124.6c-0.3,0-0.6-0.2-0.7-0.6c-0.1-0.4,0.2-0.7,0.6-0.8l37.3-6.2l3.4-8.7c0.1-0.4,0.5-0.5,0.9-0.4
			c0.4,0.1,0.5,0.5,0.4,0.9l-3.6,9c-0.1,0.2-0.3,0.4-0.5,0.4l-37.7,6.3C222.5,124.6,222.5,124.6,222.5,124.6z"/>
		<path class="st3" d="M219.9,122.4c-0.1,0-0.1,0-0.2,0c-0.4-0.1-0.6-0.5-0.4-0.9l12.7-37.3c0,0,0,0,0,0c0.6-1.7,2.9-4.3,4.8-4.3
			c0,0,0,0,0,0c0.4,0,0.7,0.3,0.7,0.7c0,0.4-0.3,0.7-0.7,0.7c0,0,0,0,0,0c-1.1,0-3,2-3.5,3.4L220.6,122
			C220.5,122.3,220.2,122.4,219.9,122.4z"/>
		<path class="st3" d="M111.1,127.9c-0.3,0-0.6-0.2-0.7-0.6c-0.1-0.4,0.2-0.7,0.6-0.8l33.5-6.3c0.4-0.1,0.7,0.2,0.8,0.6
			c0.1,0.4-0.2,0.7-0.6,0.8l-33.5,6.3C111.2,127.9,111.1,127.9,111.1,127.9z"/>
		<path class="st3" d="M214.9,122C214.9,122,214.9,122,214.9,122l-23.7-1.1c-0.4,0-0.7-0.3-0.7-0.7c0-0.4,0.3-0.7,0.7-0.7l23.6,1.1
			c0.4,0,0.7,0.3,0.7,0.7C215.6,121.7,215.3,122,214.9,122z"/>
		<path class="st3" d="M219,125.2C219,125.2,219,125.2,219,125.2l-33.7-2h-1.6c-0.4,0-0.7-0.3-0.7-0.7v-3.6c0-0.3,0.2-0.6,0.6-0.7
			l9.8-1.8c0.4-0.1,0.7,0.2,0.8,0.6c0.1,0.4-0.2,0.7-0.6,0.8l-9.2,1.7v2.3h1c0,0,0,0,0,0l33.7,2c0.4,0,0.7,0.4,0.6,0.7
			C219.7,124.9,219.3,125.2,219,125.2z"/>
		<ellipse transform="matrix(0.6177 -0.7864 0.7864 0.6177 18.0332 235.3053)" class="st1" cx="251" cy="99.1" rx="3.6" ry="2.7"/>
		<path class="st3" d="M177,43C177,43,177,43,177,43c-1.5-0.1-2.6-1-3.3-2.7c-0.5-1.2-0.6-2.3-0.6-2.4c0-0.2,0.1-0.4,0.2-0.6
			c0.1-0.1,0.4-0.2,0.6-0.2c2,0.2,5.8,0.1,5.8,0.1c0.4,0,0.7,0.3,0.7,0.7c0,0.4-0.3,0.7-0.7,0.7c-0.1,0-3,0.1-5.1,0
			c0.2,1.1,0.9,2.9,2.4,3c0.1,0,0.9-0.2,1.6-1.6c0.2-0.3,0.6-0.5,0.9-0.3c0.3,0.2,0.5,0.6,0.3,0.9C178.6,42.9,177.2,43,177,43
			C177,43,177,43,177,43z"/>
		<path class="st3" d="M169.9,23.4c-0.3,0-0.6-0.2-0.7-0.5c-0.1-0.4,0.1-0.8,0.5-0.9c2.5-0.8,4,0,4.1,0c0.3,0.2,0.5,0.6,0.3,0.9
			c-0.2,0.3-0.6,0.5-0.9,0.3c-0.1,0-1.2-0.5-3,0.1C170,23.3,170,23.4,169.9,23.4z"/>
		<path class="st3" d="M153.1,121c-0.3,0-0.6,0-0.9,0c-3.3-0.2-5.5-1.5-6.5-3.8l-2.3-5.1c-0.2-0.3,0-0.8,0.3-0.9
			c0.3-0.2,0.8,0,0.9,0.3l2.3,5.1c2,4.4,9.4,2.7,9.4,2.7c0,0,0,0,0.1,0l30.6-4c0.4,0,0.7,0.2,0.8,0.6c0,0.4-0.2,0.7-0.6,0.8l-30.5,4
			C156.4,120.7,155,121,153.1,121z"/>
		<path class="st3" d="M152.4,77.6c-0.3,0-0.6-0.3-0.7-0.6c-0.4-3.2-1.4-7.6-4.3-10.6c-1.7-1.8-3.3-2.2-3.3-2.2
			c-0.4-0.1-0.6-0.5-0.5-0.8c0.1-0.4,0.5-0.6,0.8-0.5c0.3,0.1,7.3,1.9,8.7,13.9C153.2,77.2,152.9,77.5,152.4,77.6
			C152.5,77.6,152.5,77.6,152.4,77.6z"/>
		<g>
			<path class="st7" d="M198.3,35.8C198.3,35.8,198.3,35.7,198.3,35.8c0.3-0.4,0.8-0.5,1.2-0.2l1.6,1.2c0.4,0.3,0.5,0.8,0.2,1.2
				c-0.3,0.4-0.8,0.5-1.2,0.2l-1.6-1.2C198.1,36.7,198.1,36.2,198.3,35.8z"/>
			<path class="st7" d="M198.9,31.8c0.2-0.3,0.5-0.4,0.9-0.4l1.6,0.3c0.5,0.1,0.8,0.5,0.7,1c-0.1,0.5-0.5,0.8-1,0.7l-1.6-0.3
				c-0.5-0.1-0.8-0.5-0.7-1C198.8,32,198.9,31.9,198.9,31.8z"/>
			<path class="st7" d="M197.2,22.5c0.3-0.4,0.8-0.5,1.2-0.3c0.4,0.3,0.5,0.8,0.3,1.2l-1.1,1.7c-0.3,0.4-0.8,0.5-1.2,0.3
				c-0.4-0.3-0.5-0.8-0.3-1.2L197.2,22.5C197.2,22.5,197.2,22.5,197.2,22.5z"/>
			<path class="st7" d="M198.1,27.6c0.1-0.1,0.2-0.2,0.3-0.3l1.4-0.9c0.4-0.3,0.9-0.1,1.2,0.3c0.3,0.4,0.1,0.9-0.3,1.2l-1.4,0.9
				c-0.4,0.3-0.9,0.1-1.2-0.3C197.9,28.3,198,27.9,198.1,27.6z"/>
		</g>
		<path class="st5" d="M159.5,32.3c0,0-1.9,6,3.1,10.6c4.3,4-10.3,1.4-13.4-3.1c0,0-5-5.6,0.4-23.8L159.5,32.3z"/>
		<path class="st3" d="M156.6,24.8C156.6,24.8,156.5,24.8,156.6,24.8c-0.6,0-1.1-0.5-1-1.1c0.5-7.7,2.8-13.4,6.9-16.9
			c4.7-4,10-3.6,10.2-3.6c0.6,0.1,1,0.5,0.9,1.1c-0.1,0.6-0.5,1-1.1,0.9l0,0c0,0-4.7-0.4-8.7,3.1c-3.6,3.1-5.7,8.3-6.2,15.4
			C157.6,24.4,157.1,24.8,156.6,24.8z"/>
		<g>
			
				<ellipse transform="matrix(0.9998 -2.024394e-02 2.024394e-02 0.9998 -0.5694 3.1802)" class="st1" cx="156.8" cy="29.7" rx="4.5" ry="6"/>
			<path class="st3" d="M156.5,36.4c-1.2-0.1-2.4-0.8-3.2-1.9c-0.9-1.2-1.5-2.9-1.5-4.6c0-1.7,0.4-3.4,1.3-4.7
				c0.9-1.3,2.2-2.1,3.6-2.1c1.4,0,2.7,0.7,3.7,1.9c0.9,1.2,1.5,2.9,1.5,4.6c0,1.7-0.4,3.4-1.3,4.7c-0.9,1.3-2.2,2.1-3.6,2.1
				C156.8,36.4,156.6,36.4,156.5,36.4z M157,24.3c-0.1,0-0.2,0-0.3,0c-1,0-1.9,0.6-2.6,1.6c-0.7,1.1-1.1,2.5-1.1,3.9
				c0,1.5,0.5,2.9,1.3,3.9c0.7,1,1.7,1.5,2.7,1.5c1,0,1.9-0.6,2.6-1.6c0.7-1.1,1.1-2.5,1.1-3.9c0-1.5-0.5-2.9-1.3-3.9
				C158.7,24.9,157.9,24.4,157,24.3z"/>
		</g>
		<g>
			
				<ellipse transform="matrix(0.9998 -2.024611e-02 2.024611e-02 0.9998 -0.5702 3.1555)" class="st3" cx="155.6" cy="29.7" rx="3.2" ry="4.4"/>
			<path class="st3" d="M155.3,34.5c-0.9-0.1-1.7-0.6-2.3-1.4c-0.7-0.9-1.1-2.1-1.1-3.3c-0.1-2.7,1.6-4.9,3.6-4.9
				c2,0,3.7,2.1,3.8,4.7v0c0.1,2.7-1.6,4.9-3.6,4.9C155.5,34.6,155.4,34.6,155.3,34.5z M155.7,25.8c-0.1,0-0.2,0-0.2,0
				c-1.5,0-2.8,1.8-2.7,4c0,1.1,0.3,2.1,0.9,2.8c0.5,0.7,1.2,1.1,2,1.1c1.5,0,2.8-1.8,2.7-4C158.3,27.6,157.1,25.9,155.7,25.8z"/>
		</g>
		
			<pattern  id="SVGID_1_" xlink:href="#譁ｰ隕上ヱ繧ｿ繝ｼ繝ｳ繧ｹ繧ｦ繧ｩ繝メ_15" patternTransform="matrix(0.3431 -0.3431 0.3431 0.3431 -3201.2864 -6262.5337)">
		</pattern>
		<path class="st8" d="M172.2,73.7l6-1c0,0,5,19.2,1.9,31.4l-6.2,0.2C173.8,104.3,175.9,86.7,172.2,73.7z"/>
		<path class="st3" d="M174,102.3C174,102.3,174,102.3,174,102.3c-0.4,0-0.7-0.4-0.7-0.8c1.3-13.1-1.9-27.3-2.5-30.1
			c-3.6-0.1-5.8-0.7-8.3-2.3c-0.3-0.2-0.4-0.6-0.2-0.9c0.2-0.3,0.6-0.4,0.9-0.2c2.4,1.5,4.5,2,8.1,2.1c0.3,0,0.6,0.2,0.7,0.5
			c0,0.2,4.2,16.2,2.7,31.1C174.7,102,174.4,102.3,174,102.3z"/>
		<path class="st3" d="M180.2,101.9C180.2,101.9,180.2,101.9,180.2,101.9c-0.5,0-0.7-0.4-0.7-0.8c1.9-16.5-2.7-31-2.7-31.2
			c-0.1-0.3,0-0.6,0.2-0.8c2.1-1.6,3-3.7,2.8-6.3c-0.2-2-1-3.6-1-3.6c-0.2-0.3-0.1-0.8,0.3-0.9c0.3-0.2,0.8-0.1,0.9,0.3
			c0,0.1,3.7,6.8-1.7,11.3c0.8,2.6,4.4,16.1,2.6,31.3C180.9,101.6,180.6,101.9,180.2,101.9z"/>
		<path class="st3" d="M158.8,105.8c-0.2,0-0.4-0.1-0.5-0.3c-2.1-2.7-4.1-14.5-5.7-24.5c-0.1-0.4,0.2-0.7,0.6-0.8
			c0.4-0.1,0.7,0.2,0.8,0.6c0.8,5.1,3.2,20.2,5.3,23.6l24.7-1c0.4,0,0.7,0.3,0.7,0.7s-0.3,0.7-0.7,0.7L158.8,105.8
			C158.8,105.8,158.8,105.8,158.8,105.8z"/>
		<path class="st3" d="M173.9,73.8c-0.7,0-1.5-0.1-2.2-0.4c-0.4-0.1-0.5-0.5-0.4-0.9c0.1-0.4,0.5-0.5,0.9-0.4c1.7,0.6,3.7,0,3.7,0
			c0.4-0.1,0.8,0.1,0.9,0.4c0.1,0.4-0.1,0.8-0.4,0.9C176.2,73.5,175.2,73.8,173.9,73.8z"/>
		<g>
			<polygon class="st9" points="263.3,69.4 265.1,70.3 263.7,74.7 251.1,76.3 249.2,75.3 250.2,71 260.9,69.7 			"/>
			<path class="st3" d="M251.1,77c-0.1,0-0.2,0-0.3-0.1l-1.9-1c-0.3-0.2-0.4-0.5-0.3-0.8l1-4.3c0.1-0.3,0.3-0.5,0.6-0.5l10.7-1.3
				c0.4,0,0.7,0.2,0.8,0.6c0,0.4-0.2,0.7-0.6,0.8l-10.2,1.2L250,75l1.2,0.7l12-1.6l1.1-3.3l-1.1-0.4c-0.4-0.1-0.5-0.5-0.4-0.9
				c0.1-0.4,0.5-0.5,0.9-0.4l1.7,0.7c0.3,0.1,0.5,0.5,0.4,0.9l-1.4,4.3c-0.1,0.3-0.3,0.4-0.6,0.5L251.1,77
				C251.1,77,251.1,77,251.1,77z"/>
		</g>
		<g>
			<polygon class="st9" points="253.9,79.6 255.6,76.1 258.9,75.5 257,79.2 			"/>
			<path class="st3" d="M253.9,80.3c-0.2,0-0.4-0.1-0.6-0.3c-0.1-0.2-0.2-0.5-0.1-0.7l1.7-3.5c0.1-0.2,0.3-0.3,0.5-0.4l3.3-0.6
				c0.3,0,0.5,0.1,0.7,0.3c0.2,0.2,0.2,0.5,0.1,0.7l-1.9,3.7c-0.1,0.2-0.3,0.3-0.5,0.4L253.9,80.3C254,80.3,253.9,80.3,253.9,80.3z
				 M256.1,76.8l-1,2l1.5-0.2l1.1-2.1L256.1,76.8z"/>
		</g>
		<path class="st3" d="M251.1,77c-0.1,0-0.1,0-0.2,0c-0.4-0.1-0.6-0.5-0.5-0.8l0.9-3.5c0.1-0.4,0.5-0.6,0.8-0.5
			c0.4,0.1,0.6,0.5,0.5,0.8l-0.9,3.5C251.7,76.8,251.4,77,251.1,77z"/>
		<path class="st3" d="M203.4,94.4c-0.1,0-0.1,0-0.2,0c-0.4-0.1-0.6-0.5-0.5-0.8l5.4-21.2c0.1-0.4,0.5-0.6,0.8-0.5
			c0.4,0.1,0.6,0.5,0.5,0.8L204,93.9C204,94.2,203.7,94.4,203.4,94.4z"/>
		<path class="st3" d="M216.3,100.8c-0.1,0-0.1,0-0.2,0c-0.4-0.1-0.6-0.5-0.5-0.8l5.8-22.8c0.1-0.4,0.5-0.6,0.8-0.5
			c0.4,0.1,0.6,0.5,0.5,0.8l-5.8,22.8C216.9,100.6,216.6,100.8,216.3,100.8z"/>
		<g>
			<path class="st1" d="M211,73.9l1.3-5.7c-4.7-7.5-2-15.2-2-15.2c0.3-1.2-0.7-6.5-0.8-7.4c-0.2-1.3,2.1-1,2.9,0
				c0.9,1.1,1.5,4.7,1.5,4.7l0.9-1c0.5-6.3,0.9-10.6,1.4-12.6c0.3-1,1.1-2.2,1.8-2.6c1.9-0.9,1.4,2.5,1.4,2.5
				c-0.5,2.4-0.2,13.6-0.2,13.6c1.7,0.9,2.3,3.7,2.3,3.7c1,0.9,1.6,2.8,1.6,2.8c2.3,1.9-2.3,12.6-2.3,12.6l-0.9,5l-0.3,2
				c0,0-0.5,0.1-1.7,0C216.4,75.9,214.2,75.3,211,73.9z"/>
			<path class="st3" d="M219.9,74.8c0,0-0.1,0-0.1,0c-0.4-0.1-0.6-0.4-0.6-0.8l0.9-5c0-0.1,0-0.1,0-0.2c2.1-4.9,3.6-10.8,2.5-11.8
				c-0.1-0.1-0.2-0.2-0.2-0.3c-0.1-0.5-0.6-1.8-1.3-2.4c-0.1-0.1-0.2-0.2-0.2-0.4c-0.1-0.7-0.7-2.6-1.9-3.2
				c-0.2-0.1-0.4-0.3-0.4-0.6c0-0.5-0.3-11.2,0.2-13.7c0.1-0.8,0.1-1.7-0.1-1.8c0,0-0.1,0-0.3,0.1c-0.5,0.2-1.2,1.3-1.4,2.1
				c-0.5,1.7-0.8,5.7-1.2,10.7l-0.2,1.8c0,0.1-0.1,0.3-0.2,0.4l-0.9,1c-0.2,0.2-0.4,0.3-0.7,0.2c-0.3-0.1-0.5-0.3-0.5-0.5
				c-0.2-1.3-0.8-3.7-1.4-4.3c-0.4-0.5-1.4-0.7-1.7-0.6c0,0,0,0,0,0c0.1,0.5,0.9,7.3,0.5,8.7c-0.1,0.4-0.5,0.6-0.8,0.5
				c-0.4-0.1-0.6-0.5-0.5-0.8c0.2-1-0.4-7-0.5-8.2c-0.1-0.7,0.2-1.2,0.8-1.5c1-0.4,2.6,0,3.3,0.9c0.5,0.6,0.9,2,1.2,3.1l0.1-0.9
				c0.4-5.1,0.8-9.1,1.3-10.9c0.3-1.1,1.2-2.6,2.2-3c0.8-0.4,1.4-0.2,1.7,0c1,0.7,0.7,2.6,0.6,3.2c0,0,0,0,0,0
				c-0.4,1.8-0.3,9.1-0.2,13c1.5,1,2.1,3,2.2,3.7c0.9,0.9,1.4,2.3,1.6,2.8c1,1.1,1,3.5-0.2,7.6c-0.8,2.7-1.8,5.1-2,5.6l-0.8,5
				C220.5,74.5,220.2,74.8,219.9,74.8z"/>
			<path class="st3" d="M217.8,76.7C217.7,76.7,217.7,76.7,217.8,76.7c-0.3,0-0.6,0-0.9,0c-1.5,0-3.7-0.1-6.3-2.3
				c-0.2-0.2-0.3-0.4-0.2-0.7l1.3-5.4c-2.8-4.6-2.6-9.3-2.5-11.8c0-0.4,0.3-0.7,0.7-0.7c0.4,0,0.7,0.3,0.7,0.7
				c-0.1,3.4-0.1,7.3,2.4,11.3c0.1,0.2,0.1,0.3,0.1,0.5l-1.2,5.3c2.1,1.6,3.9,1.7,5.2,1.7c0.3,0,0.6,0,0.9,0.1
				c0.4,0,0.6,0.4,0.6,0.8C218.4,76.5,218.1,76.7,217.8,76.7z"/>
			<path class="st3" d="M213.9,50.9c-0.2,0-0.4-0.1-0.6-0.3c-0.2-0.3-0.2-0.7,0.1-1c0.8-0.6,3.1-0.4,4-0.3c0.4,0,0.6,0.4,0.6,0.8
				c0,0.4-0.4,0.6-0.8,0.6c-1.3-0.2-2.7-0.1-3,0C214.2,50.8,214,50.9,213.9,50.9z"/>
			<path class="st3" d="M215.9,64.5c-0.3,0-0.7-0.1-0.9-0.2c-0.6-0.3-0.8-0.9-0.9-1.3c-1.3-0.7-1.5-2.2-1.5-3.1
				c-0.7-0.9-1-2.5-1-2.9c-0.4-2.1,1.5-6.5,1.7-7c0.1-0.4,0.6-0.5,0.9-0.4c0.4,0.1,0.5,0.6,0.4,0.9c-0.5,1.3-1.9,4.8-1.6,6.2
				c0.1,0.8,0.5,2.1,0.9,2.4c0.2,0.2,0.2,0.4,0.2,0.6c0,0.1-0.2,1.7,1,2.1c0.3,0.1,0.4,0.3,0.4,0.6c0,0.1,0.1,0.5,0.3,0.6
				c0.1,0.1,0.5,0.2,1.4-0.3c0.2-0.2,1-0.8,1.3-1.6c0.1-0.2,0.3-0.4,0.6-0.4l1.7-0.2c0.4,0,0.7,0.2,0.8,0.6c0,0.4-0.2,0.7-0.6,0.8
				l-1.3,0.1c-0.6,1-1.6,1.8-1.6,1.8c0,0-0.1,0-0.1,0.1C217.1,64.3,216.5,64.5,215.9,64.5z"/>
			<path class="st3" d="M214.7,63.2c-0.1,0-0.2,0-0.3-0.1c-0.3-0.2-0.5-0.6-0.3-0.9l2.4-4.5c0-0.1,0.1-0.1,0.1-0.2
				c1.9-1.9,4.8-1.5,4.9-1.5c0.4,0.1,0.6,0.4,0.6,0.8c-0.1,0.4-0.4,0.6-0.8,0.6c0,0-2.2-0.3-3.6,1l-2.3,4.4
				C215.2,63,214.9,63.2,214.7,63.2z"/>
			<path class="st3" d="M213.3,60.3c-0.1,0-0.1,0-0.2,0c-0.4-0.1-0.6-0.5-0.5-0.9l1.7-5.6c0-0.1,0.1-0.2,0.1-0.2
				c1.2-1.5,4.4-0.9,5.1-0.8c0.4,0.1,0.6,0.4,0.5,0.8c-0.1,0.4-0.4,0.6-0.8,0.5c-1.2-0.2-3-0.3-3.6,0.2l-1.7,5.4
				C213.8,60.1,213.6,60.3,213.3,60.3z"/>
		</g>
	</g>
	<g>
		<path class="st3" d="M84.3,53.1l-2.4,1c-1,0.4-2.2-0.1-2.6-1.1l0,0c-0.4-1,0.1-2.2,1.1-2.6l2.4-1c1-0.4,2.2,0.1,2.6,1.1l0,0
			C85.8,51.5,85.3,52.7,84.3,53.1z"/>
		<path class="st3" d="M83.6,51.3c-0.3,0-0.6-0.3-0.7-0.6c0-0.4,0.2-0.7,0.6-0.8c1.4-0.2,2.2-0.7,2.7-1.6c1.5-3.3-2.8-10.8-4.6-13.4
			c-0.2-0.3-0.1-0.7,0.2-1c0.3-0.2,0.7-0.1,1,0.2c0.3,0.4,6.9,10.1,4.8,14.8C86.8,50.2,85.6,51,83.6,51.3
			C83.7,51.3,83.6,51.3,83.6,51.3z"/>
		<g>
			<path class="st7" d="M94.9,40.4C94.9,40.4,94.9,40.3,94.9,40.4c0.3-0.4,0.8-0.5,1.2-0.2l1.6,1.2c0.4,0.3,0.5,0.8,0.2,1.2
				c-0.3,0.4-0.8,0.5-1.2,0.2l-1.6-1.2C94.8,41.3,94.7,40.8,94.9,40.4z"/>
			<path class="st7" d="M95.6,36.4c0.2-0.3,0.5-0.4,0.9-0.4l1.6,0.3c0.5,0.1,0.8,0.5,0.7,1c-0.1,0.5-0.5,0.8-1,0.7l-1.6-0.3
				c-0.5-0.1-0.8-0.5-0.7-1C95.5,36.6,95.5,36.5,95.6,36.4z"/>
			<path class="st7" d="M93.8,27.1c0.3-0.4,0.8-0.5,1.2-0.3c0.4,0.3,0.5,0.8,0.3,1.2l-1.1,1.7c-0.3,0.4-0.8,0.5-1.2,0.3
				c-0.4-0.3-0.5-0.8-0.3-1.2L93.8,27.1C93.8,27.1,93.8,27.1,93.8,27.1z"/>
			<path class="st7" d="M94.8,32.2c0.1-0.1,0.2-0.2,0.3-0.3l1.4-0.9c0.4-0.3,0.9-0.1,1.2,0.3c0.3,0.4,0.1,0.9-0.3,1.2L96,33.5
				c-0.4,0.3-0.9,0.1-1.2-0.3C94.6,32.9,94.6,32.5,94.8,32.2z"/>
		</g>
		<path class="st5" d="M38.2,104.7c-0.4-3-1-6-1.7-8.9c-0.1-0.6-0.3-1-0.9-1.2c-0.2-0.1-0.3-0.1-0.5-0.1c-0.1,0-0.3-0.3-0.4-0.4
			c-0.8-0.7-1.9-1.1-2.9-1.1c-0.4,0-0.9,0-1.3,0.3c-5.9,0.7-11.7,1.8-17.3,3.4C10.7,97.3,8,98,6,99.5c-2.1,1.6-3.1,4.1-3.4,6.6
			c-0.7,4.8,0.2,9.7,1.4,14.4c1.3,4.7,3.6,10.5,4.9,15.8l30.3-6v-0.5C39.3,123.7,39.1,110.6,38.2,104.7z"/>
		<path class="st1" d="M26.1,131.3c0,0-4.2-42.6-4.2-54.6c0,0-0.5-11.3,4-15l16.4-9.4l7.4-6l16,15.4l3-4.5l4.8,4.8
			c0,0,4.6-0.3,8,4.6c0,0,1.8,3.7,2.8,9.5c0,0,8.7,31.5,10.1,32.8l27.9,1.5l-1.8,12.3l-36.5,2.5L26.2,134L26.1,131.3z"/>
		<path class="st1" d="M26.1,131.3c0,0-4.2-42.6-4.2-54.6c0,0-0.5-11.3,4-15l16.4-9.4l7.4-6l16,15.4l3-4.5l4.8,4.8
			c0,0,4.6-0.3,8,4.6c0,0,1.8,3.7,2.8,9.5c0,0,8.7,32,10.1,32.8l27.9,1.5l-1.8,12.3l-36.5,2.5L26.2,134L26.1,131.3z"/>
		<path class="st7" d="M26.1,131.3c0,0-4.2-42.6-4.2-54.6c0,0-0.5-11.3,4-15l16.4-9.4l7.4-6l16,15.4l3-4.5l4.8,4.8
			c0,0,4.6-0.3,8,4.6c0,0,1.8,3.7,2.8,9.5c0,0,9.2,32.7,10.1,32.8l27.9,1.5l-1.8,12.3l-36.5,2.5L26.2,134L26.1,131.3z"/>
		<polygon class="st4" points="74.1,133.8 107.4,135.8 145.7,126.3 142.4,120.8 117,120.8 72.5,130.3 72.5,133.8 		"/>
		<path class="st3" d="M79.6,131c0.2-0.1,0.4-0.2,0.6-0.2l23.4,1.1c0.2,0,0.4,0.1,0.5,0.2c0.1,0.2,0.2,0.3,0.2,0.6
			c0,0.4-0.4,0.7-0.8,0.7L80,132.4c-0.4,0-0.8-0.4-0.7-0.8C79.3,131.4,79.4,131.2,79.6,131z"/>
		<path class="st1" d="M112.9,120.7c-0.3-0.9-0.8-1.8-1.4-2.6l-0.8-1.1c-0.8-1.1-1.9-1.9-3.3-2.3c-1.4-0.4-2.6-0.3-2.6-0.3l-9.5,0.8
			c-4.4,0.8-16.2,1.1-18.8,1.1c-0.2-0.6-0.3-0.9-0.3-0.9l-28,1.2c-2.7-3.6-6.3-28-6.3-28c-1.4-11.6-8.1-14.4-8.1-14.4l-3.1,46.1
			l5.2,7.8c2.2,4.9,10.1,3,10.1,3l31.2-4.1c0.3-0.7,0.5-1.5,0.5-2.4l1.9-0.3c3.6,3.4,15.2,0.8,15.2,0.8l2.2-0.4l2.5,1.9
			c4.1,3.1,4-0.3,4-0.3c1.4,1.2,2,1.7,3,1.7c1.8,0,1.5-2,1.5-2c1,1.3,2.2,1.1,2.7,1c1.1-0.4,0.7-2.3,0.7-2.3
			c0.8,0.8,1.8,0.4,1.8,0.4C114.2,125,113.5,122.4,112.9,120.7z"/>
		<path class="st7" d="M112.9,120.7c-0.3-0.9-0.8-1.8-1.4-2.6l-0.8-1.1c-0.8-1.1-1.9-1.9-3.3-2.3c-1.4-0.4-2.6-0.3-2.6-0.3l-9.5,0.8
			c-4.4,0.8-16.2,1.1-18.8,1.1c-0.2-0.6-0.3-0.9-0.3-0.9l-28,1.2c-2.7-3.6-6.3-28-6.3-28c-1.4-11.6-8.1-14.4-8.1-14.4l-3.1,46.1
			l5.2,7.8c2.2,4.9,10.1,3,10.1,3l31.2-4.1c0.3-0.7,0.5-1.5,0.5-2.4l1.9-0.3c3.6,3.4,15.2,0.8,15.2,0.8l2.2-0.4l2.5,1.9
			c4.1,3.1,4-0.3,4-0.3c1.4,1.2,2,1.7,3,1.7c1.8,0,1.5-2,1.5-2c1,1.3,2.2,1.1,2.7,1c1.1-0.4,0.7-2.3,0.7-2.3
			c0.8,0.8,1.8,0.4,1.8,0.4C114.2,125,113.5,122.4,112.9,120.7z"/>
		<path class="st1" d="M75,116.3c2.6,0,16-0.3,20.3-1.1l9.5-0.8c0,0,1.2-0.1,2.6,0.3c1.3,0.4,2.5,1.2,3.3,2.3l0.8,1.1
			c0.6,0.8,1,1.7,1.4,2.6c0.6,1.7,1.3,4.2,0.4,4.6c0,0-1,0.4-1.8-0.4c0,0,0.4,2-0.7,2.3c-0.5,0.2-1.7,0.3-2.7-1c0,0,0.3,1.9-1.5,2
			c-1,0-1.6-0.5-3-1.7c0,0,0.1,3.4-4,0.3l-2.5-1.9l-2.2,0.4c0,0-11.6,2.6-15.2-0.8l-1.9,0.3l-3.9,0.6C73.9,125.5,73,119.4,75,116.3z
			"/>
		<g>
			<path class="st3" d="M73.6,118.9c0.1-0.4,0.5-0.7,0.9-0.6c0.4,0.1,0.7,0.5,0.6,0.9c-0.4,1.8-0.1,4,0.1,5.2l4-0.7
				c0.2,0,0.5,0,0.7,0.2c2.7,2.6,11.3,1.3,14.5,0.6l2.2-0.4c0.2,0,0.4,0,0.6,0.1l2.5,1.9c1.8,1.4,2.4,1.2,2.5,1.1
				c0.1-0.1,0.2-0.3,0.3-0.6l-2.3-3.4c-0.1-0.1-0.2-0.2-0.2-0.3c-0.8-0.9-1.2-1.1-1.3-1.1h-4.9c-0.4,0-0.8-0.3-0.8-0.8
				c0-0.4,0.3-0.8,0.8-0.8h4.9c0,0,0,0,0,0c0.3,0,1.1,0.2,2.4,1.6c0.1,0.1,0.2,0.3,0.3,0.4l2.4,3.5c1.2,1.1,1.7,1.4,2.3,1.4
				c0,0,0,0,0.1,0c0.4,0,0.6-0.2,0.6-0.2c0.2-0.2,0.2-0.6,0.2-0.8l-1.7-3.3c-0.5-0.9-1.1-1.8-1.8-2.6l-0.5-0.5
				c-0.7-0.7-1.5-1.1-2.4-1.3c-1.6-0.3-3.6-0.4-3.6-0.4c-0.2,0-0.4-0.1-0.5-0.3c-0.1-0.2-0.2-0.3-0.2-0.6c0-0.4,0.4-0.7,0.8-0.7
				c0,0,0,0,0,0c0.1,0,2.1,0.1,3.8,0.5c1.2,0.2,2.3,0.8,3.2,1.7l0.5,0.5c0.9,0.9,1.6,1.9,2.1,3l1.7,3.3c0.7,0.8,1.4,0.8,1.8,0.7
				c0.2-0.1,0.3-0.8,0.2-1.4l-1.4-3c-0.3-0.7-0.7-1.4-1.1-2l-1-1.4c-0.5-0.8-1.3-1.3-2.2-1.5c-1.3-0.3-2.6-0.3-2.6-0.3c0,0,0,0,0,0
				c-0.4,0-0.8-0.3-0.8-0.7c0-0.4,0.3-0.8,0.7-0.8c0.1,0,1.5-0.1,3,0.3c1.3,0.3,2.3,1.1,3.1,2.2l1,1.4c0.5,0.7,0.9,1.5,1.3,2.2
				l1.3,3c0.3,0.3,0.7,0.2,0.8,0.2c0.1-0.2,0.1-1.3-0.8-3.6c-0.3-0.9-0.7-1.7-1.3-2.4l-0.8-1.1c-0.7-1-1.7-1.7-2.8-2
				c-1.2-0.3-2.3-0.3-2.3-0.3l-6,0.4c0,0,0,0,0,0c-0.4,0-0.7-0.3-0.8-0.7c0-0.4,0.3-0.8,0.7-0.8l6-0.4c0,0,1.3-0.1,2.8,0.3
				c1.5,0.4,2.8,1.3,3.7,2.6l0.8,1.1c0.6,0.9,1.1,1.8,1.5,2.8c1.2,3.3,1.2,5.1-0.1,5.6c-0.1,0.1-0.6,0.2-1.3,0.1
				c-0.2,1.3-0.9,1.7-1.3,1.8c-0.4,0.1-1.3,0.3-2.4-0.2c-0.1,0.2-0.2,0.4-0.3,0.5c-0.3,0.3-0.8,0.7-1.7,0.8c0,0-0.1,0-0.1,0
				c-1,0-1.7-0.4-2.5-1.1c-0.2,0.3-0.4,0.6-0.8,0.8c-1,0.5-2.3,0.1-4.1-1.3l-2.2-1.7l-1.8,0.3c-0.5,0.1-11.5,2.5-15.5-0.8l-4.4,0.8
				c-0.4,0.1-0.8-0.2-0.9-0.6C73.7,125.1,73,121.7,73.6,118.9z"/>
			<path class="st3" d="M95.1,116c-5,1-18.8,1.1-19.4,1.1h0c-0.4,0-0.8-0.3-0.8-0.8c0-0.4,0.3-0.8,0.8-0.8c0.6,0,14.4-0.2,19.1-1.1
				c0.4-0.1,0.8,0.2,0.9,0.6C95.8,115.5,95.5,115.9,95.1,116z"/>
		</g>
		<path class="st4" d="M120.9,96.2l-13.5,39.6l40.7-6.8l15.6-38.9c0.4-1.1-0.2-2.3-1.3-2.6c-0.3-0.1-0.5-0.1-0.8,0l-36.6,4.9
			C123.5,92.4,121.5,94.8,120.9,96.2z"/>
		<path class="st3" d="M127.7,92.1c0,0.2,0.1,0.4,0.3,0.5c0.2,0.1,0.4,0.2,0.6,0.1l33.2-4.4c0.2,0,0.3,0,0.5,0
			c0.3,0.1,0.6,0.3,0.7,0.6c0.1,0.3,0.2,0.6,0.1,0.9l-11,27.3c-0.1,0.2-0.1,0.4,0,0.6c0.1,0.2,0.2,0.3,0.4,0.4
			c0.1,0,0.2,0.1,0.3,0.1c0.3,0,0.6-0.2,0.7-0.5l11-27.3c0,0,0,0,0,0c0.3-0.7,0.2-1.5-0.1-2.2c-0.3-0.7-0.9-1.2-1.7-1.4
			c-0.3-0.1-0.7-0.1-1.1-0.1l-33.2,4.4c-0.2,0-0.4,0.1-0.5,0.3C127.7,91.7,127.7,91.9,127.7,92.1z M164.4,90.4L164.4,90.4
			L164.4,90.4L164.4,90.4L164.4,90.4z"/>
		<path class="st3" d="M110.8,134.5l36.8-6.1l3.4-8.5c0.1-0.2,0.2-0.3,0.4-0.4c0.2-0.1,0.4-0.1,0.6,0c0.2,0.1,0.3,0.2,0.4,0.4
			c0.1,0.2,0.1,0.4,0,0.6l-3.5,8.9c-0.1,0.2-0.3,0.4-0.6,0.5L111,136c0,0-0.1,0-0.1,0c-0.4,0-0.7-0.3-0.8-0.6
			C110.1,135,110.4,134.6,110.8,134.5z"/>
		<path class="st3" d="M107.6,132.9L120.2,96c0,0,0,0,0,0c0.6-1.7,2.9-4.3,4.9-4.3c0.2,0,0.4,0.1,0.5,0.2c0.1,0.1,0.2,0.3,0.2,0.5
			c0,0.4-0.3,0.8-0.8,0.8c-1.1,0-2.9,1.9-3.4,3.3l-12.5,36.9c-0.1,0.3-0.4,0.5-0.7,0.5c-0.1,0-0.2,0-0.2,0
			C107.7,133.7,107.5,133.3,107.6,132.9z"/>
		<path class="st3" d="M0.1,138.1c0.1-0.2,0.3-0.3,0.5-0.3l33.2-6.2c0.2,0,0.4,0,0.6,0.1c0.2,0.1,0.3,0.3,0.3,0.5
			c0,0.2,0,0.4-0.1,0.6c-0.1,0.2-0.3,0.3-0.5,0.3l-33.2,6.2c0,0-0.1,0-0.1,0c-0.4,0-0.7-0.3-0.8-0.6C0,138.5,0,138.3,0.1,138.1z"/>
		<path class="st1" d="M142.2,109.8c0,1.7-1.3,3.5-3,4.1c-1.7,0.5-3.1-0.4-3.1-2.1c0-1.7,1.3-3.5,3-4.1
			C140.8,107.1,142.2,108,142.2,109.8z"/>
		<path class="st3" d="M31.6,123.1c0.1-0.2,0.2-0.3,0.4-0.4c0.2-0.1,0.4-0.1,0.6,0c0.2,0.1,0.3,0.2,0.4,0.4l3.3,5
			c1.9,4.3,9.2,2.6,9.2,2.6c0,0,0.1,0,0.1,0l30.2-3.9c0.4-0.1,0.8,0.2,0.9,0.7c0.1,0.4-0.2,0.8-0.7,0.9l-30.2,3.9
			c-0.3,0.1-1.7,0.4-3.5,0.4c-0.3,0-0.6,0-0.9,0c-3.3-0.2-5.5-1.5-6.5-3.8l-3.3-5C31.6,123.5,31.5,123.3,31.6,123.1z"/>
		<path class="st1" d="M71.5,61.2c0,0,0.2,27.7-5.2,35.8L45.4,53.6l2.8-4.5l16.4,13.6L71.5,61.2z"/>
		<path class="st4" d="M60.8,83.3l2-12.7L61.3,67c-0.2-0.3-0.2,0.2,0,0l2.2-2.1c0.1-0.1,0.3-0.2,0.5-0.2h3.2c0.2,0,0.4,0.1,0.6,0.3
			l0.8,1.1c0.2,0.2,0.2,0.5,0.1,0.7l-1.7,3.6c1,3.5,1.2,15.9,1.3,16.5c0,0.1-0.3,2.8-0.3,2.9l-2.3,8.4c-0.1,0.3-0.3,0.4-0.6,0.5
			c0,0,1.3-1.6,1.2-1.6c-0.3,0-1.2-1.8-1.3-2L60.8,83.3C60.7,83.2,60.8,83.5,60.8,83.3z"/>
		<path class="st3" d="M63.7,109.6c0,1.4,1.1,2.5,2.5,2.5c1.4,0,2.5-1.1,2.5-2.5c0-1.4-1.1-2.5-2.5-2.5
			C64.8,107.1,63.7,108.2,63.7,109.6z M65.1,109.6c0-0.6,0.5-1.1,1.1-1.1c0.6,0,1.1,0.5,1.1,1.1c0,0.6-0.5,1.1-1.1,1.1
			C65.6,110.6,65.1,110.2,65.1,109.6z"/>
		<path class="st7" d="M56.2,8.8c0.6-0.4,3.4-2.2,7.3-3c4.1-0.7,10.1-0.4,16.1,5.3c1,0.4,6.6,2.6,7.7,7.3c0.7,3.2-0.9,6.7-4.8,10.4
			c0,0-0.1,0.1-0.2,0.1l-11,5.8c0,0,0,0-0.1,0l-15,6.1l-3.1,1.8c-0.1,0.1-0.3,0.1-0.4,0.1c-0.2,0-0.4-0.1-0.6-0.3
			c-0.2-0.3-4.6-6.3-5.9-16.3C46.3,26.1,44.5,11.1,56.2,8.8z"/>
		<g>
			<path class="st1" d="M44.7,48.1c0,0,18.3,35.6,22.3,51.9c0,0-17.3-28.7-22.8-32.2l5.2-2.6l-7.4-1.4l-3.7-10.2L44.7,48.1z"/>
			<path class="st1" d="M69.4,57c0,0,2.1,13.4-2.4,36.6L66.3,97l0.7,3.1c0,0,9.5-22.5,9-31.8l-3.8-1.4l3.3-1.2l-2.8-6.5L69.4,57z"/>
		</g>
		<g>
			<path class="st7" d="M44.7,48.1c0,0,18.3,35.6,22.3,51.9c0,0-17.3-28.7-22.8-32.2l5.2-2.6l-7.4-1.4l-3.7-10.2L44.7,48.1z"/>
			<path class="st7" d="M69.4,57c0,0,2.1,13.4-2.4,36.6L66.3,97l0.7,3.1c0,0,9.5-22.5,9-31.8l-3.8-1.4l3.3-1.2l-2.8-6.5L69.4,57z"/>
		</g>
		<path class="st1" d="M49.3,45l1.1,1c0.6-2.5,1.5-6.5,1.4-8.2c0,0-4.1-5.4-1.4-8.4c0,0,3.6-3.7,5.6,0.9l0.5,0.9
			c0.3,0.6,0.9,0.9,1.5,1l0,0c0.4,0,0.7-0.3,0.7-0.7c0.1-1.1,0.5-3.3,2.8-4c0,0,5.8-2.7,6.8-6.5c0.3-1,1.1-1.8,2.1-2
			c0.3-0.1,0.7-0.1,1.1-0.2c4-0.9,4.8-1.7,8.1-0.4c4.8,1.8,3.7,4.7,4.2,5.2c0,0,0.4-0.8-0.1,2.8c0,0-1.5,8.5-0.7,11.3
			c0,0,0,1.2-0.5,2.9c-0.5,3.1-1.9,7.7-5.7,12.2c-1.6,1.9-4.1,2.5-6.4,1.7c-0.8-0.3-1.3-0.2-2-0.5c-0.1,0.5,0.2,0,0.1,0.8l0,0
			l1.6,4.1l0.4,3.3l-0.1,4.4l-4-4.3l0,0l0,0l-4.7,4l-2,0.6L45.1,49.3L49.3,45z"/>
		<path class="st3" d="M32.4,57.8l3.6-2.2c0.3-0.2,0.8-0.1,1,0.2c0.2,0.3,0.1,0.8-0.2,1L33.1,59c0,0-0.1,0-0.1,0
			c-0.1,0-9.5,4-9.5,10c0,0.4-0.3,0.7-0.7,0.7c0,0,0,0,0,0c-0.4,0-0.7-0.3-0.7-0.7C22.1,62.3,31.5,58.1,32.4,57.8z"/>
		<path class="st3" d="M29.8,65c0.2-0.1,0.4-0.2,0.6-0.2c0.1,0,8,0.6,9.7,10.9l0,0c0.4,2.7,4.3,26.9,7.9,35.1c0.1,0.2,0.1,0.4,0,0.6
			c-0.1,0.2-0.2,0.3-0.4,0.4c-0.1,0-0.2,0.1-0.3,0.1c-0.3,0-0.6-0.2-0.7-0.5c-3.5-7.9-7-29-8-35.3l0-0.2c-1.5-9.1-8-9.6-8.3-9.6
			c-0.4,0-0.8-0.4-0.7-0.8C29.5,65.3,29.6,65.1,29.8,65z"/>
		<path class="st3" d="M21.6,72.2c0.1-0.2,0.3-0.2,0.5-0.2c0.2,0,0.4,0.1,0.6,0.2c0.2,0.1,0.2,0.3,0.3,0.6c0,1.2,0.9,30.6,2.9,44
			c0,0,0,0,0,0.1c0,0.5,1,11.7,1.1,14.5c0,0.2-0.1,0.4-0.2,0.6c-0.1,0.2-0.3,0.2-0.5,0.3l0,0c-0.4,0-0.8-0.3-0.8-0.7
			c-0.1-2.6-1-13.2-1.1-14.4c-2-13.9-2.9-43.9-2.9-44.2C21.3,72.5,21.4,72.3,21.6,72.2z"/>
		<path class="st3" d="M24.7,98.6c0.1-0.4,0.6-0.6,1-0.5c0.4,0.1,0.6,0.5,0.5,0.8c0,1.2,3,13.1,5.4,21.4c0.1,0.2,0,0.4-0.1,0.6
			c-0.1,0.2-0.3,0.3-0.5,0.4c-0.1,0-0.1,0-0.2,0c-0.3,0-0.7-0.2-0.7-0.6C28.6,115.7,24.3,99.7,24.7,98.6z"/>
		<path class="st3" d="M41.9,113.6c0.2-0.1,0.3-0.2,0.5-0.2c0.2,0,24.8,0.6,32.7,0c0,0,0,0,0.1,0c0.4,0,0.8,0.3,0.8,0.7
			c0,0.4-0.3,0.8-0.7,0.8c-2.4,0.2-6.4,0.3-12.1,0.3c-9.6,0-20.6-0.3-20.7-0.3c-0.2,0-0.4-0.1-0.5-0.2c-0.1-0.2-0.2-0.3-0.2-0.6
			C41.6,113.9,41.7,113.7,41.9,113.6z"/>
		<g>
			<path class="st3" d="M52.8,80.6c0.4,0,0.7-0.3,0.7-0.7c0-0.4-0.3-0.7-0.7-0.7l-10-0.2c-0.4,0-0.7,0.3-0.7,0.7
				c0,0.4,0.3,0.7,0.7,0.7L52.8,80.6C52.8,80.6,52.8,80.6,52.8,80.6z"/>
			<path class="st3" d="M52.8,80.7l-10-0.2c-0.4,0-0.8-0.4-0.8-0.8c0-0.4,0.3-0.8,0.8-0.8l10,0.2c0.4,0,0.8,0.4,0.8,0.8
				C53.6,80.3,53.2,80.7,52.8,80.7C52.8,80.7,52.8,80.7,52.8,80.7z M42.2,79.7c0,0.3,0.3,0.6,0.6,0.6l10,0.2h0
				c0.3,0,0.6-0.3,0.6-0.6c0-0.3-0.3-0.6-0.6-0.6l-10-0.2C42.5,79.1,42.2,79.3,42.2,79.7z"/>
		</g>
		<path class="st3" d="M93.6,108.7c0-0.2,0.1-0.4,0.3-0.5c0.2-0.1,0.4-0.2,0.6-0.1c6.2,1,19.6,1,19.7,1c0.4,0,0.8,0.4,0.8,0.8
			c0,0.4-0.4,0.8-0.8,0.8c-0.6,0-13.6,0-20-1C93.8,109.6,93.5,109.2,93.6,108.7z"/>
		<path class="st3" d="M75.4,62c0.2-0.4,0.6-0.6,1-0.4c2.4,1.1,4.5,3.4,6,6.5c1.2,2.5,1.6,4.6,1.6,4.7c3.7,15.4,9.5,33.3,9.6,33.4
			c0.1,0.4-0.1,0.9-0.5,1c-0.1,0-0.2,0-0.3,0c-0.3,0-0.6-0.2-0.7-0.5c-0.1-0.1-6-18.2-9.6-33.6c0-0.1-1.5-7.7-6.7-10.1
			c-0.2-0.1-0.3-0.2-0.4-0.4C75.3,62.4,75.3,62.1,75.4,62z"/>
		<path class="st3" d="M78.8,108.1C80.2,96.5,79,71.6,79,71.3c0-0.4,0.3-0.8,0.7-0.8c0.4,0,0.8,0.3,0.8,0.7c0,0.3,1.2,25.4-0.2,37.1
			c0,0.3-0.2,3.2,0,5.8c0,0.2-0.1,0.4-0.2,0.6c-0.1,0.2-0.3,0.3-0.5,0.3c0,0,0,0-0.1,0c-0.4,0-0.7-0.3-0.8-0.7
			C78.6,111.3,78.8,108.2,78.8,108.1z"/>
		<g>
			<path class="st3" d="M64.7,101.4c0.1,0,0.1,0,0.2,0c0.4-0.1,0.6-0.5,0.4-0.9C63.5,95,52.7,77,52.3,76.3c-0.2-0.3-0.6-0.4-1-0.2
				c-0.3,0.2-0.4,0.6-0.2,1c0.1,0.2,11.2,18.5,13,23.9C64.2,101.2,64.4,101.4,64.7,101.4z"/>
			<path class="st3" d="M64,101c-1.8-5.3-12.9-23.7-13-23.8c-0.1-0.2-0.2-0.4-0.1-0.6c0-0.2,0.2-0.4,0.3-0.5
				c0.2-0.1,0.4-0.2,0.6-0.1c0.2,0,0.4,0.2,0.5,0.3c0.6,1,11.3,18.7,13.1,24.2c0.1,0.2,0.1,0.4,0,0.6c-0.1,0.2-0.3,0.3-0.5,0.4
				c-0.1,0-0.2,0-0.2,0C64.4,101.5,64.1,101.3,64,101z M51.4,76.2c-0.1,0.1-0.2,0.2-0.3,0.4c0,0.2,0,0.3,0.1,0.5
				c0.1,0.2,11.2,18.4,13,23.9c0.1,0.2,0.3,0.4,0.6,0.4c0.1,0,0.1,0,0.2,0c0.2-0.1,0.3-0.2,0.4-0.3c0.1-0.1,0.1-0.3,0-0.5
				c-1.8-5.4-12.5-23.2-13.1-24.2c-0.1-0.1-0.2-0.2-0.4-0.3c0,0-0.1,0-0.1,0C51.6,76.1,51.5,76.1,51.4,76.2z"/>
		</g>
		<g>
			<path class="st3" d="M37.9,53l6.3-5.5c0.2-0.2,0.4-0.2,0.7-0.2c0.2,0,0.4,0.2,0.5,0.4c0.2,0.3,14,28.7,20.6,47.1l0.3-1.3
				c1.3-6.9,2.3-15.1,2.7-22.4c0-0.4,0.4-0.7,0.8-0.7c0,0,0,0,0,0c0.4,0,0.8,0.4,0.7,0.8c-0.4,7.4-1.4,15.6-2.7,22.6l-0.7,3.3
				c0,0.1-0.1,0.2-0.2,0.3c0.7,2.1,1.3,4,1.7,5.6c0.1,0.4-0.2,0.8-0.6,0.9c-0.1,0-0.1,0-0.2,0c-0.4,0-0.7-0.2-0.8-0.6
				C63.5,89,47.6,55.7,44.5,49.4l-5.1,4.5l3.3,9.3l6.9,1.3c0.3,0.1,0.6,0.3,0.6,0.7c0,0.3-0.1,0.7-0.4,0.8L45.7,68
				c1.4,1.2,3.2,3.3,5.6,6.4c0.1,0.2,0.2,0.4,0.2,0.6c0,0.2-0.1,0.4-0.3,0.5c-0.2,0.1-0.4,0.2-0.6,0.2c-0.2,0-0.4-0.1-0.5-0.3
				c-3.6-4.6-5.3-6.3-6.2-6.9c-0.2-0.2-0.4-0.4-0.4-0.7c0-0.3,0.2-0.5,0.4-0.7l3.2-1.6l-5.1-1c-0.3-0.1-0.5-0.2-0.6-0.5l-3.7-10.2
				C37.6,53.6,37.7,53.2,37.9,53z"/>
			<path class="st3" d="M68,97.6c-0.1-0.2,0-0.4,0.1-0.6c1.2-2.3,5.4-11,7.2-28.1L72,67.6c-0.3-0.1-0.5-0.4-0.5-0.7
				c0-0.3,0.2-0.6,0.5-0.7l2.5-0.9l-2.4-5.5l-1.8-1.1c0.2,1.8,0.4,4.8,0.3,9.1c0,0.4-0.4,0.8-0.8,0.8h0c-0.4,0-0.8-0.4-0.8-0.8
				c0.1-6.8-0.4-10.4-0.5-10.5c-0.1-0.3,0.1-0.6,0.3-0.8c0.3-0.2,0.6-0.2,0.9,0l3.4,2.2c0.1,0.1,0.2,0.2,0.3,0.3l2.8,6.5
				c0.1,0.2,0.1,0.4,0,0.6c-0.1,0.2-0.3,0.4-0.5,0.4l-1.3,0.5l1.8,0.7c0.3,0.1,0.5,0.5,0.5,0.8c-0.2,1.9-1.8,18.9-7.4,29.3
				c-0.1,0.3-0.4,0.4-0.7,0.4c-0.1,0-0.3,0-0.4-0.1C68.2,97.9,68,97.8,68,97.6z"/>
		</g>
		<path class="st3" d="M70,31.8c-0.6,0-1.1,0.5-1.2,1.1c0,0.6,0.5,1.1,1.1,1.2c0.6,0,1.1-0.5,1.2-1.1C71.1,32.4,70.6,31.8,70,31.8z"
			/>
		<path class="st3" d="M79,33.7c0,0.6,0.5,1.1,1.1,1.2c0.6,0,1.1-0.5,1.2-1.1c0-0.6-0.5-1.1-1.1-1.2C79.6,32.5,79.1,33,79,33.7z"/>
		<g>
			<path class="st3" d="M59.7,11.3c1.7-0.8,6.1,2.8,7.9,4.4c0.3,0.3,0.4,0.8,0.1,1.1c-0.2,0.2-0.4,0.3-0.6,0.3c0,0,0,0,0,0
				c-0.2,0-0.4-0.1-0.5-0.2c-4.4-3.9-6-4.1-6.2-4.1c-0.4,0.1-0.8-0.1-0.9-0.4C59.2,12,59.3,11.5,59.7,11.3z"/>
			<path class="st3" d="M67.6,27.4c1.9-0.4,3.9,0.3,4.1,0.4c0.4,0.2,0.6,0.6,0.5,1c-0.1,0.3-0.4,0.5-0.8,0.5c-0.1,0-0.2,0-0.3,0
				c0,0-1.8-0.6-3.2-0.3c-0.1,0-0.2,0-0.3,0c-0.3,0-0.6-0.3-0.7-0.6C66.9,27.9,67.2,27.4,67.6,27.4z"/>
		</g>
		<path class="st3" d="M59.1,43.9c0.2-0.1,0.4-0.1,0.6,0c0.2,0.1,0.3,0.2,0.4,0.4c2,5,7.4,8.3,8.5,8.6l0,0c2.2,0.7,4.6,1.5,6.8-0.7
			c6.8-6.9,6.2-15.6,6.2-15.7c-0.2-2.4,0.5-5.3,0.5-5.4c0.1-0.4,0.5-0.7,1-0.6c0.4,0.1,0.7,0.5,0.6,1c0,0-0.7,2.9-0.5,5
			c0,0.4,0.6,9.5-6.7,16.9c-1.3,1.3-2.7,1.9-4.5,1.9c-0.1,0-0.2,0-0.2,0c-1.3,0-2.6-0.4-3.7-0.8l0,0c-1.4-0.4-7.3-4-9.5-9.5
			C58.5,44.6,58.7,44.1,59.1,43.9z"/>
		<g>
			<path class="st3" d="M83.7,28.4c0.4,0,0.7-0.3,0.7-0.6l0.3-3.1c0,0,0-0.1,0-0.1c-0.1-2.8-1.1-4.9-2.9-6.2
				c-3.8-2.6-9.7-0.5-10-0.5c-0.4,0.1-0.6,0.5-0.4,0.9c0.1,0.4,0.5,0.6,0.9,0.4c0.1,0,5.5-1.9,8.7,0.3c1.4,1,2.2,2.6,2.3,5l-0.3,3
				C82.9,28,83.2,28.3,83.7,28.4C83.6,28.4,83.6,28.4,83.7,28.4z"/>
			<path class="st3" d="M83.6,28.5c-0.2,0-0.4-0.1-0.5-0.3c-0.1-0.2-0.2-0.4-0.2-0.6l0.3-3c-0.1-2.3-0.9-4-2.2-4.9
				c-3.1-2.1-8.5-0.3-8.6-0.3c-0.4,0.1-0.9-0.1-1-0.5c-0.1-0.4,0.1-0.9,0.5-1c0.3-0.1,6.2-2.1,10,0.5c1.8,1.3,2.8,3.4,3,6.2
				c0,0,0,0.1,0,0.1l-0.3,3.1C84.4,28.2,84.1,28.5,83.6,28.5C83.6,28.5,83.6,28.5,83.6,28.5z M84.3,27.7l0.3-3.1c0,0,0-0.1,0-0.1
				c-0.1-2.8-1.1-4.9-2.9-6.1C78,15.9,72.1,18,71.9,18c-0.3,0.1-0.5,0.5-0.4,0.8c0.1,0.3,0.5,0.5,0.8,0.4c0.1,0,5.5-1.9,8.8,0.3
				c1.4,1,2.2,2.7,2.3,5.1l-0.3,3c0,0.2,0,0.3,0.1,0.5c0.1,0.1,0.3,0.2,0.4,0.2c0,0,0,0,0,0l0,0.1l0-0.1
				C84,28.3,84.3,28.1,84.3,27.7z"/>
		</g>
		<g>
			<path class="st3" d="M46.3,47.5l2.9-2.9c0.3-0.3,0.8-0.3,1.1,0l15.5,15.1l1.2-3.5c0.1-0.4,0.6-0.6,1-0.5c0.4,0.1,0.6,0.6,0.5,1
				l-1.6,4.6c-0.1,0.3-0.3,0.4-0.6,0.5c-0.1,0-0.1,0-0.2,0c-0.2,0-0.4-0.1-0.5-0.2L49.7,46.3l-2.3,2.3c-0.1,0.1-0.3,0.2-0.6,0.2
				c0,0,0,0,0,0c-0.2,0-0.4-0.1-0.6-0.2C46,48.3,46,47.8,46.3,47.5z"/>
			<path class="st3" d="M50.6,55.9c0.2-0.1,0.4-0.2,0.6-0.2c0.2,0,0.4,0.1,0.5,0.3l8.4,11l5.4-4.5c0.2-0.1,0.4-0.2,0.6-0.2
				c0.2,0,0.4,0.1,0.5,0.3l2.5,3.2c0.1,0.2,0.2,0.4,0.2,0.6c0,0.2-0.1,0.4-0.3,0.5c-0.2,0.1-0.4,0.2-0.6,0.2c-0.2,0-0.4-0.1-0.5-0.3
				l-2-2.6l-5.4,4.5C60.4,68.9,60.2,69,60,69c0,0-0.1,0-0.1,0c-0.2,0-0.4-0.1-0.5-0.3L50.5,57C50.2,56.7,50.3,56.2,50.6,55.9z"/>
		</g>
		<g>
			<path class="st3" d="M54.9,35.9L54.9,35.9c-0.4,0-0.8-0.4-0.8-0.8c0-2.2-1-2.6-1.1-2.6c-0.4-0.1-0.7-0.5-0.6-1
				c0.1-0.2,0.2-0.4,0.4-0.5c0.2-0.1,0.4-0.1,0.6-0.1c0.1,0,2.3,0.6,2.3,4.2C55.8,35.5,55.4,35.9,54.9,35.9L54.9,35.9z"/>
			<path class="st3" d="M48.8,31.4c0.2-1.7,1.2-3.1,2.6-3.9c0.9-0.5,1.8-0.6,2.7-0.3c1.7,0.6,2.5,2.7,2.5,2.7c0.2,0.4-0.1,0.9-0.5,1
				c-0.4,0.2-0.9-0.1-1-0.5c0,0-0.6-1.5-1.6-1.8c-0.4-0.2-0.9-0.1-1.4,0.2c-1,0.5-1.7,1.6-1.8,2.7c-0.1,1,0.1,2.7,1.4,4.8
				c0,0,0.1,0.1,0.1,0.1c1,1.6,2.2,1.4,2.3,1.4c0.4-0.1,0.8,0.2,0.9,0.6c0.1,0.4-0.2,0.8-0.6,0.9c0,0-0.2,0-0.4,0
				c-0.4,0-1-0.1-1.6-0.4l-0.8,4.6c-0.1,0.4-0.4,0.6-0.7,0.7c0,0,0,0,0,0c0,0-0.1,0-0.1,0c-0.2,0-0.4-0.1-0.5-0.3
				c-0.1-0.2-0.2-0.4-0.1-0.6L51,38C48.9,35.1,48.7,32.8,48.8,31.4z"/>
		</g>
		<path class="st3" d="M72.4,129.5l9.7-1.8c0.2,0,0.4,0,0.6,0.1c0.2,0.1,0.3,0.3,0.3,0.5c0,0.2,0,0.4-0.1,0.6
			c-0.1,0.2-0.3,0.3-0.5,0.3l-9.1,1.7v2.1h0.9c0,0,0,0,0,0l33.3,2c0.4,0,0.7,0.4,0.7,0.8c0,0.4-0.4,0.7-0.8,0.7c0,0,0,0,0,0l-33.3-2
			h-1.6c-0.4,0-0.8-0.3-0.8-0.8v-3.6C71.7,129.9,72,129.6,72.4,129.5z"/>
		<path class="st3" d="M75.6,40.4l1.2,0c0.4,0,0.7,0.3,0.7,0.7c0,0.4-0.3,0.7-0.7,0.7l-1.2,0c-0.4,0-0.7-0.3-0.7-0.7
			C74.9,40.7,75.2,40.4,75.6,40.4z"/>
		<path class="st3" d="M74.1,49.5C74.1,49.5,74.1,49.5,74.1,49.5c-1.5-0.1-2.6-1-3.3-2.7c-0.5-1.2-0.6-2.3-0.6-2.4
			c0-0.2,0.1-0.4,0.2-0.6c0.1-0.1,0.4-0.2,0.6-0.2c2,0.2,5.8,0.1,5.8,0.1c0.4,0,0.7,0.3,0.7,0.7c0,0.4-0.3,0.7-0.7,0.7
			c-0.1,0-3,0.1-5.1,0c0.2,1.1,0.9,2.9,2.4,3c0.1,0,0.9-0.2,1.6-1.6c0.2-0.3,0.6-0.5,0.9-0.3c0.3,0.2,0.5,0.6,0.3,0.9
			C75.7,49.4,74.3,49.5,74.1,49.5C74.1,49.5,74.1,49.5,74.1,49.5z"/>
		<path class="st3" d="M51.8,27.6C51.7,27.6,51.7,27.6,51.8,27.6c-0.6,0-1.1-0.5-1-1.1c0.5-7.7,2.8-13.4,6.9-16.9
			c4.7-4,10-3.6,10.2-3.6c0.6,0.1,1,0.5,0.9,1.1c-0.1,0.6-0.5,1-1.1,0.9l0,0c0,0-4.7-0.4-8.7,3.1c-3.6,3.1-5.7,8.3-6.2,15.4
			C52.7,27.1,52.3,27.6,51.8,27.6z"/>
		<g>
			
				<ellipse transform="matrix(0.9998 -2.024394e-02 2.024394e-02 0.9998 -0.6466 1.0587)" class="st1" cx="52" cy="32.5" rx="4.5" ry="6"/>
			<path class="st3" d="M51.6,39.1c-1.2-0.1-2.4-0.8-3.2-1.9c-0.9-1.2-1.5-2.9-1.5-4.6c0-1.7,0.4-3.4,1.3-4.7
				c0.9-1.3,2.2-2.1,3.6-2.1c1.4,0,2.7,0.7,3.7,1.9c0.9,1.2,1.5,2.9,1.5,4.6c0,1.7-0.4,3.4-1.3,4.7c-0.9,1.3-2.2,2.1-3.6,2.1
				C52,39.1,51.8,39.1,51.6,39.1z M52.2,27c-0.1,0-0.2,0-0.3,0c-1,0-1.9,0.6-2.6,1.6c-0.7,1.1-1.1,2.5-1.1,3.9
				c0,1.5,0.5,2.9,1.3,3.9c0.7,1,1.7,1.5,2.7,1.5c1,0,1.9-0.6,2.6-1.6c0.7-1.1,1.1-2.5,1.1-3.9c0-1.5-0.5-2.9-1.3-3.9
				C53.9,27.6,53.1,27.1,52.2,27z"/>
		</g>
		<g>
			
				<ellipse transform="matrix(0.9998 -2.024611e-02 2.024611e-02 0.9998 -0.6475 1.0338)" class="st3" cx="50.7" cy="32.5" rx="3.2" ry="4.4"/>
			<path class="st3" d="M50.5,37.3c-0.9-0.1-1.7-0.6-2.3-1.4c-0.7-0.9-1.1-2.1-1.1-3.3c-0.1-2.7,1.6-4.9,3.6-4.9
				c2,0,3.7,2.1,3.8,4.7v0c0.1,2.7-1.6,4.9-3.6,4.9C50.7,37.3,50.6,37.3,50.5,37.3z M50.9,28.6c-0.1,0-0.2,0-0.2,0
				c-1.5,0-2.8,1.8-2.7,4c0,1.1,0.3,2.1,0.9,2.8c0.5,0.7,1.2,1.1,2,1.1c1.5,0,2.8-1.8,2.7-4C53.5,30.4,52.3,28.7,50.9,28.6z"/>
		</g>
		<g>
			<polygon class="st9" points="151.5,81.1 153.3,82 151.9,86.4 139.3,88 137.4,87 138.4,82.6 149.1,81.4 			"/>
			<path class="st3" d="M139.3,88.7c-0.1,0-0.2,0-0.3-0.1l-1.9-1c-0.3-0.2-0.4-0.5-0.3-0.8l1-4.3c0.1-0.3,0.3-0.5,0.6-0.5l10.7-1.3
				c0.4,0,0.7,0.2,0.8,0.6c0,0.4-0.2,0.7-0.6,0.8L139,83.3l-0.8,3.4l1.2,0.7l12-1.6l1.1-3.3l-1.1-0.4c-0.4-0.1-0.5-0.5-0.4-0.9
				c0.1-0.4,0.5-0.5,0.9-0.4l1.7,0.7c0.3,0.1,0.5,0.5,0.4,0.9l-1.4,4.3c-0.1,0.3-0.3,0.4-0.6,0.5L139.3,88.7
				C139.3,88.7,139.3,88.7,139.3,88.7z"/>
		</g>
		<g>
			<polygon class="st9" points="142.1,91.3 143.8,87.8 147.1,87.2 145.2,90.9 			"/>
			<path class="st3" d="M142.1,92c-0.2,0-0.4-0.1-0.6-0.3c-0.1-0.2-0.2-0.5-0.1-0.7l1.7-3.5c0.1-0.2,0.3-0.3,0.5-0.4l3.3-0.6
				c0.3,0,0.5,0.1,0.7,0.3c0.2,0.2,0.2,0.5,0.1,0.7l-1.9,3.7c-0.1,0.2-0.3,0.3-0.5,0.4L142.1,92C142.2,92,142.1,92,142.1,92z
				 M144.3,88.4l-1,2l1.5-0.2l1.1-2.1L144.3,88.4z"/>
		</g>
		<path class="st3" d="M139.3,88.7c-0.1,0-0.1,0-0.2,0c-0.4-0.1-0.6-0.5-0.5-0.8l0.9-3.5c0.1-0.4,0.5-0.6,0.8-0.5
			c0.4,0.1,0.6,0.5,0.5,0.8l-0.9,3.5C139.9,88.5,139.6,88.7,139.3,88.7z"/>
	</g>
</g>
</svg>
