<?xml version="1.0" encoding="utf-8"?>
<!-- Generator: Adobe Illustrator 27.8.1, SVG Export Plug-In . SVG Version: 6.00 Build 0)  -->
<svg version="1.1" id="レイヤー_1" xmlns="http://www.w3.org/2000/svg" xmlns:xlink="http://www.w3.org/1999/xlink" x="0px"
	 y="0px" viewBox="0 0 275.1 34" style="enable-background:new 0 0 275.1 34;" xml:space="preserve">
<style type="text/css">
	.st0{fill:#00BDE1;}
</style>
<g>
	<g>
		<path class="st0" d="M21,27c1.5,0,1.7,0.3,1.7,1.7v1.9c0,1.5-0.3,1.7-1.7,1.7H1.7c-0.9,0-1-0.2-1-1v-0.1c0-0.8,0.1-1.2,0.6-1.9
			l10.9-17.2c0.3-0.5,0.5-0.8,0.5-1c0-0.3-0.4-0.5-1.3-0.5H1.7C0.3,10.6,0,10.3,0,8.9V6.7C0,5.3,0.3,5,1.7,5h19.7c0.8,0,1,0.2,1,1
			v0.1c0,0.8-0.1,1.2-0.5,1.9l-11,17.5c-0.3,0.5-0.5,0.8-0.5,1c0,0.3,0.4,0.5,1.3,0.5H21z"/>
		<path class="st0" d="M26.5,19.3c0-8.6,5.3-14.7,14.3-14.7C48.3,4.7,54,10,54,18.2c0,8.9-5.7,14.6-14.2,14.6
			C32.1,32.7,26.5,27.5,26.5,19.3z M33,19.3c0,4.8,2.9,7.8,7,7.8c4.5,0,7.6-3.4,7.6-8.6c0-4.8-3-7.8-7.1-7.8
			C35.6,10.7,33,14.3,33,19.3z"/>
		<path class="st0" d="M58.2,19.3c0-8.6,5.3-14.7,14.3-14.7c7.5,0,13.2,5.3,13.2,13.5c0,8.9-5.7,14.6-14.2,14.6
			C63.8,32.7,58.2,27.5,58.2,19.3z M64.7,19.3c0,4.8,2.9,7.8,7,7.8c4.5,0,7.6-3.4,7.6-8.6c0-4.8-3-7.8-7.1-7.8
			C67.3,10.7,64.7,14.3,64.7,19.3z"/>
		<path class="st0" d="M103.6,10.7c-1.3,0-2.7,0.3-4.4,1c-1.2,0.6-1.5,1-1.5,2.4v16.5c0,1.5-0.3,1.7-1.7,1.7h-2.8
			c-1.5,0-1.7-0.3-1.7-1.7V6.7c0-1.5,0.3-1.7,1.7-1.7h3.1c0.8,0,1,0.2,1,1c0.1,0.6,0.1,0.8,0.3,0.8c0.2,0,0.3-0.1,0.6-0.2
			c2.1-1.2,4.6-1.9,7.3-1.9c2.5,0,4.4,0.7,5.7,1.8c0.6,0.5,1,0.8,1.3,0.8s0.7-0.2,1.3-0.5c2.5-1.3,5.3-2,8.4-2
			c5.7,0,9.2,3.2,9.2,10.4v15.6c0,1.5-0.3,1.7-1.7,1.7h-2.8c-1.5,0-1.7-0.3-1.7-1.7V15.9c0-3.5-1.9-5.2-4.8-5.2
			c-1.2,0-2.5,0.2-4,0.9c-1.2,0.5-1.6,1-1.6,2.4v16.6c0,1.5-0.3,1.7-1.7,1.7h-2.8c-1.5,0-1.7-0.3-1.7-1.7V15.9
			C108.4,12.4,106.6,10.7,103.6,10.7z"/>
	</g>
	<g>
		<path class="st0" d="M148.7,10.2c0.4,0,1.3,0,1.3-0.9V7.7c0-1.6-0.1-3.3-0.1-4.9c0-0.3,0-0.4,0.3-0.4c0.8,0,3.1,0.2,4.1,0.2
			c1.2,0,2.1,0.1,2.1,0.5c0,0.1-0.2,0.3-0.2,0.4c-0.3,0.4-0.4,0.7-0.4,1.2v4.5c0,0.5,0.3,0.9,0.9,0.9h4.7c0.6,0,0.9-0.5,0.9-1.1
			c0-1.1-0.1-5.3-0.2-6.1c0-0.2,0-0.3,0-0.5c0-0.3,0.3-0.5,0.6-0.5c0.5,0,2.8,0.1,3.5,0.2c1.3,0,2.7,0.1,2.7,0.5
			c0,0.6-0.6,0.1-0.6,1.9v2.1c0,0.7,0,1.4,0,2.1c0,1.1,0.2,1.4,1.2,1.4h0.5c1,0,4-0.1,4.4-0.1c0.8,0,1,0.3,1,2.1v1.7
			c0,1.3-0.1,1.8-1.3,1.8c-1.4,0-2.8-0.1-4.1-0.1h-0.5c-1.1,0-1.3,0.2-1.3,1.3c0,6.5-1.3,10.8-6.8,14.6c-0.7,0.5-3.4,2.1-4.2,2.1
			c-0.5,0-1.6-1.1-2.3-1.9c-0.6-0.6-1.5-1.5-1.5-2.1c0-0.5,0.7-0.7,1.8-1.1c5.9-2.4,7.3-5.6,7.3-11.7c0-0.6-0.2-1.1-0.9-1.1h-4.6
			c-0.5,0-0.9,0.4-0.9,0.9v2c0,1.6,0,3.7,0,4.2c0,1.3,0,1.6-1.4,1.6h-2.7c-1.7,0-1.9-0.1-1.9-0.9c0-1.6,0.1-3.2,0.1-4.7v-2.1
			c0-0.5-0.5-1-1-1h-0.8c-1.5,0-3,0.1-4,0.1c-1.1,0-1.2-1-1.2-2.4V12c0-1.6,0.2-1.9,1-1.9c0.8,0,2.7,0.1,4.1,0.1H148.7z"/>
		<path class="st0" d="M192,18.8c0.4,0.2,0.7,0.5,0.7,0.8c0,0.2-0.2,0.3-0.4,0.4c-0.6,0.3-0.7,0.5-1.1,1c-1,1.1-5.9,6.8-7.1,6.8
			c-0.8,0-3.8-2.8-3.8-3.7c0-0.4,0.6-0.8,1-1.1c2.1-1.5,4-3.5,5.2-5.7c0.2-0.3,0.3-0.6,0.7-0.6C187.9,16.6,190.6,18.1,192,18.8z
			 M193.3,9.2c1,0,1.1-0.8,1.1-1.4V7.4c0-1.5,0-2.5-0.2-4c0-0.2,0-0.3,0-0.5c0-0.5,0.4-0.5,0.9-0.5c0.6,0,4.5,0.5,5.2,0.6
			c0.2,0,0.6,0.1,0.6,0.4c0,0.3-0.2,0.5-0.4,0.6c-0.4,0.4-0.5,0.7-0.5,1.3v0.5c0,0.6,0,1.1,0,1.7v0.3c0,0.6,0.1,1.4,1,1.4h4.9
			c1.7,0,4-0.1,5.4-0.1c0.9,0,1.1,0.5,1.1,1.9v1.9c0,1.4-0.2,1.9-1.2,1.9c-1.7,0-3.5,0-5.2,0h-4.7c-0.6,0-1.2,0.5-1.2,1.1v7.8
			c0,0.8,0,1.6,0,2.4c0,2-0.2,3.9-1.5,4.9c-1.3,1-4.3,1.8-5.9,1.8c-0.7,0-0.9-0.2-1.4-1.3c-0.3-0.7-1.3-2.8-1.3-3.5
			c0-0.6,0.8-0.6,1.3-0.6c3-0.2,3.2-0.5,3.2-3.3v-8.1c0-0.6-0.5-1.1-1.2-1.1h-5.1c-1.7,0-3.3,0.1-5,0.1c-1,0-1.2-0.7-1.2-2V11
			c0-1.6,0.2-1.9,1.1-1.9c0.5,0,3.4,0.1,5.1,0.1H193.3z M210,19.5c0.7,0.7,3.5,3.3,3.5,4.2c0,1-2.9,3.8-3.8,3.8
			c-0.4,0-1-0.7-1.8-1.7c-1.1-1.4-3.1-3.5-4.8-4.9c-0.3-0.2-0.6-0.5-0.6-0.8c0-0.6,1-1.7,1.4-2.2c0.8-0.9,1.3-1.4,1.9-1.4
			C207,16.5,209.2,18.7,210,19.5z M214.8,4c0,2.2-1.7,4-4,4c-2.2,0-4-1.8-4-4c0-2.2,1.7-4,4-4C213.1,0,214.8,1.8,214.8,4z M208.9,4
			c0,1.1,0.9,2,2,2s2-0.9,2-2c0-1.1-0.9-2-2-2S208.9,2.8,208.9,4z"/>
		<path class="st0" d="M243.9,13.8c2.2,0,4.7-0.2,5-0.2c1,0,1.1,0.4,1.1,1.5V17c0,2.1,0,2.7-1.3,2.7c-1.5,0-3.2-0.1-4.9-0.1h-17.5
			c-1.7,0-3.5,0.1-4.9,0.1c-1.3,0-1.3-0.7-1.3-2.7v-1.7c0-1.1,0.1-1.6,1.1-1.6c0.5,0,2.7,0.2,5.1,0.2H243.9z"/>
		<path class="st0" d="M265.6,28.2c0,1.3,0,2.5,0,3.8c0,1.8-0.1,2-2.6,2h-1.7c-1.5,0-2-0.2-2-1.2c0-1.5,0.1-3,0.1-4.5V6.3
			c0-1.6-0.1-3.5-0.1-4.7c0-0.5,0.1-0.7,0.6-0.7c0.5,0,4.9,0.5,5.9,0.8c0.2,0.1,0.4,0.2,0.4,0.5c0,0.2-0.1,0.3-0.2,0.5
			c-0.2,0.3-0.4,0.6-0.4,1.4v7.4c0,0.2,0,0.5,0.5,0.5c0.2,0,0.5-0.2,0.6-0.2c0.3,0,0.8,0.3,1.4,0.6c1.2,0.8,2.8,2,3.3,2.4
			c0.9,0.8,2.7,2.2,3.5,3.1c0.2,0.2,0.3,0.4,0.3,0.6c0,0.8-2.8,3.8-3.6,3.8c-0.3,0-0.7-0.4-0.9-0.6c-0.6-0.6-3.8-3.4-4.4-3.4
			c-0.5,0-0.6,0.5-0.6,0.9V28.2z"/>
	</g>
</g>
</svg>
